<?xml version="1.0" encoding="UTF-8" standalone="no"?>
<!DOCTYPE svg PUBLIC "-//W3C//DTD SVG 1.1//EN"
 "http://www.w3.org/Graphics/SVG/1.1/DTD/svg11.dtd">
<!-- Generated by graphviz version 2.47.0 (20210316.0004)
 -->
<!-- Title: dependencies Pages: 1 -->
<svg width="902pt" height="349pt"
 viewBox="0.00 0.00 902.00 349.00" xmlns="http://www.w3.org/2000/svg" xmlns:xlink="http://www.w3.org/1999/xlink">
<g id="graph0" class="graph" transform="scale(1 1) rotate(0) translate(4 345)">
<title>dependencies</title>
<polygon fill="white" stroke="transparent" points="-4,4 -4,-345 898,-345 898,4 -4,4"/>
<text text-anchor="start" x="426.01" y="-42.4" font-family="Times-12" font-weight="bold" font-size="14.00">Legend</text>
<polygon fill="#ffffb3" stroke="transparent" points="213,-10 213,-30 233,-30 233,-10 213,-10"/>
<text text-anchor="start" x="236.63" y="-15.4" font-family="Times-12" font-size="14.00"> &#160;Declarations</text>
<polygon fill="#8dd3c7" stroke="transparent" points="326,-10 326,-30 346,-30 346,-10 326,-10"/>
<text text-anchor="start" x="349.73" y="-15.4" font-family="Times-12" font-size="14.00"> &#160;Module</text>
<polygon fill="#80b1d3" stroke="transparent" points="412,-10 412,-30 432,-30 432,-10 412,-10"/>
<text text-anchor="start" x="435.78" y="-15.4" font-family="Times-12" font-size="14.00"> &#160;Bootstrap</text>
<polygon fill="#fdb462" stroke="transparent" points="509,-10 509,-30 529,-30 529,-10 509,-10"/>
<text text-anchor="start" x="532.67" y="-15.4" font-family="Times-12" font-size="14.00"> &#160;Providers</text>
<polygon fill="#fb8072" stroke="transparent" points="605,-10 605,-30 625,-30 625,-10 605,-10"/>
<text text-anchor="start" x="628.73" y="-15.4" font-family="Times-12" font-size="14.00"> &#160;Exports</text>
<g id="clust1" class="cluster">
<title>cluster_SACBootstrap5StaticLabelModule</title>
<polygon fill="none" stroke="black" stroke-dasharray="1,5" points="8,-70 8,-333 886,-333 886,-70 8,-70"/>
</g>
<g id="clust3" class="cluster">
<title>cluster_SACBootstrap5StaticLabelModule_SacStaticFormContainerComponent_providers</title>
<polygon fill="none" stroke="black" points="626,-78 626,-195 878,-195 878,-78 626,-78"/>
</g>
<g id="clust2" class="cluster">
<title>cluster_SACBootstrap5StaticLabelModule_declarations</title>
<polygon fill="none" stroke="black" points="436,-143 436,-195 618,-195 618,-143 436,-143"/>
</g>
<g id="clust5" class="cluster">
<title>cluster_SACBootstrap5StaticLabelModule_imports</title>
<polygon fill="none" stroke="black" points="16,-143 16,-195 428,-195 428,-143 16,-143"/>
</g>
<g id="clust6" class="cluster">
<title>cluster_SACBootstrap5StaticLabelModule_exports</title>
<polygon fill="none" stroke="black" points="227,-273 227,-325 652,-325 652,-273 227,-273"/>
</g>
<!-- SacStaticFormContainerComponent -->
<g id="node1" class="node">
<title>SacStaticFormContainerComponent</title>
<polygon fill="#ffffb3" stroke="black" points="852.47,-187 633.53,-187 633.53,-151 852.47,-151 852.47,-187"/>
<text text-anchor="middle" x="743" y="-164.8" font-family="Times,serif" font-size="14.00">SacStaticFormContainerComponent</text>
</g>
<!-- SacStaticFormContainerComponent&#45;&gt;SacStaticFormContainerComponent -->
<g id="edge2" class="edge">
<title>SacStaticFormContainerComponent&#45;&gt;SacStaticFormContainerComponent</title>
<path fill="none" stroke="black" d="M674.76,-150.76C674.76,-143.57 674.76,-137 674.76,-137 674.76,-137 621.58,-137 621.58,-137 621.58,-137 621.58,-202 621.58,-202 621.58,-202 640.66,-202 640.66,-202 640.66,-202 640.66,-197.04 640.66,-197.04"/>
<polygon fill="black" stroke="black" points="644.16,-197.04 640.66,-187.04 637.16,-197.04 644.16,-197.04"/>
</g>
<!-- SACBootstrap5StaticLabelModule -->
<g id="node3" class="node">
<title>SACBootstrap5StaticLabelModule</title>
<polygon fill="#8dd3c7" stroke="black" points="531.97,-252 528.97,-256 507.97,-256 504.97,-252 320.03,-252 320.03,-216 531.97,-216 531.97,-252"/>
<text text-anchor="middle" x="426" y="-229.8" font-family="Times,serif" font-size="14.00">SACBootstrap5StaticLabelModule</text>
</g>
<!-- SacStaticFormContainerComponent&#45;&gt;SACBootstrap5StaticLabelModule -->
<g id="edge1" class="edge">
<title>SacStaticFormContainerComponent&#45;&gt;SACBootstrap5StaticLabelModule</title>
<path fill="none" stroke="black" d="M637.09,-187.11C637.09,-206.34 637.09,-234 637.09,-234 637.09,-234 542.16,-234 542.16,-234"/>
<polygon fill="black" stroke="black" points="542.16,-230.5 532.16,-234 542.16,-237.5 542.16,-230.5"/>
</g>
<!-- SacStaticLabelComponent -->
<g id="node2" class="node">
<title>SacStaticLabelComponent</title>
<polygon fill="#ffffb3" stroke="black" points="609.8,-187 444.2,-187 444.2,-151 609.8,-151 609.8,-187"/>
<text text-anchor="middle" x="527" y="-164.8" font-family="Times,serif" font-size="14.00">SacStaticLabelComponent</text>
</g>
<!-- SacStaticLabelComponent&#45;&gt;SACBootstrap5StaticLabelModule -->
<g id="edge4" class="edge">
<title>SacStaticLabelComponent&#45;&gt;SACBootstrap5StaticLabelModule</title>
<path fill="none" stroke="black" d="M488.17,-187.11C488.17,-187.11 488.17,-205.99 488.17,-205.99"/>
<polygon fill="black" stroke="black" points="484.67,-205.99 488.17,-215.99 491.67,-205.99 484.67,-205.99"/>
</g>
<!-- SacStaticFormContainerComponent  -->
<g id="node7" class="node">
<title>SacStaticFormContainerComponent </title>
<polygon fill="#fb8072" stroke="black" points="644.47,-317 421.53,-317 421.53,-281 644.47,-281 644.47,-317"/>
<text text-anchor="middle" x="533" y="-294.8" font-family="Times,serif" font-size="14.00">SacStaticFormContainerComponent </text>
</g>
<!-- SACBootstrap5StaticLabelModule&#45;&gt;SacStaticFormContainerComponent  -->
<g id="edge7" class="edge">
<title>SACBootstrap5StaticLabelModule&#45;&gt;SacStaticFormContainerComponent </title>
<path fill="none" stroke="black" stroke-dasharray="5,2" d="M476.88,-252.11C476.88,-252.11 476.88,-270.99 476.88,-270.99"/>
<polygon fill="black" stroke="black" points="473.38,-270.99 476.88,-280.99 480.38,-270.99 473.38,-270.99"/>
</g>
<!-- SacStaticLabelComponent  -->
<g id="node8" class="node">
<title>SacStaticLabelComponent </title>
<polygon fill="#fb8072" stroke="black" points="403.3,-317 234.7,-317 234.7,-281 403.3,-281 403.3,-317"/>
<text text-anchor="middle" x="319" y="-294.8" font-family="Times,serif" font-size="14.00">SacStaticLabelComponent </text>
</g>
<!-- SACBootstrap5StaticLabelModule&#45;&gt;SacStaticLabelComponent  -->
<g id="edge8" class="edge">
<title>SACBootstrap5StaticLabelModule&#45;&gt;SacStaticLabelComponent </title>
<path fill="none" stroke="black" stroke-dasharray="5,2" d="M361.71,-252.11C361.71,-252.11 361.71,-270.99 361.71,-270.99"/>
<polygon fill="black" stroke="black" points="358.21,-270.99 361.71,-280.99 365.21,-270.99 358.21,-270.99"/>
</g>
<!-- ) -->
<g id="node4" class="node">
<title>)</title>
<ellipse fill="#fdb462" stroke="black" cx="743" cy="-104" rx="27" ry="18"/>
<text text-anchor="middle" x="743" y="-99.8" font-family="Times,serif" font-size="14.00">)</text>
</g>
<!-- )&#45;&gt;SacStaticFormContainerComponent -->
<g id="edge3" class="edge">
<title>)&#45;&gt;SacStaticFormContainerComponent</title>
<path fill="none" stroke="black" d="M743,-122.11C743,-122.11 743,-140.99 743,-140.99"/>
<polygon fill="black" stroke="black" points="739.5,-140.99 743,-150.99 746.5,-140.99 739.5,-140.99"/>
</g>
<!-- SACBootstrap5LayoutModule -->
<g id="node5" class="node">
<title>SACBootstrap5LayoutModule</title>
<polygon fill="#8dd3c7" stroke="black" points="419.87,-187 416.87,-191 395.87,-191 392.87,-187 232.13,-187 232.13,-151 419.87,-151 419.87,-187"/>
<text text-anchor="middle" x="326" y="-164.8" font-family="Times,serif" font-size="14.00">SACBootstrap5LayoutModule</text>
</g>
<!-- SACBootstrap5LayoutModule&#45;&gt;SACBootstrap5StaticLabelModule -->
<g id="edge5" class="edge">
<title>SACBootstrap5LayoutModule&#45;&gt;SACBootstrap5StaticLabelModule</title>
<path fill="none" stroke="black" d="M369.98,-187.11C369.98,-187.11 369.98,-205.99 369.98,-205.99"/>
<polygon fill="black" stroke="black" points="366.48,-205.99 369.98,-215.99 373.48,-205.99 366.48,-205.99"/>
</g>
<!-- SACBootstrap5TooltipModule -->
<g id="node6" class="node">
<title>SACBootstrap5TooltipModule</title>
<polygon fill="#8dd3c7" stroke="black" points="213.94,-187 210.94,-191 189.94,-191 186.94,-187 24.06,-187 24.06,-151 213.94,-151 213.94,-187"/>
<text text-anchor="middle" x="119" y="-164.8" font-family="Times,serif" font-size="14.00">SACBootstrap5TooltipModule</text>
</g>
<!-- SACBootstrap5TooltipModule&#45;&gt;SACBootstrap5StaticLabelModule -->
<g id="edge6" class="edge">
<title>SACBootstrap5TooltipModule&#45;&gt;SACBootstrap5StaticLabelModule</title>
<path fill="none" stroke="black" d="M119,-187.11C119,-206.34 119,-234 119,-234 119,-234 309.92,-234 309.92,-234"/>
<polygon fill="black" stroke="black" points="309.92,-237.5 319.92,-234 309.92,-230.5 309.92,-237.5"/>
</g>
</g>
</svg>
