<?xml version="1.0" encoding="UTF-8" standalone="no"?>
<!DOCTYPE svg PUBLIC "-//W3C//DTD SVG 1.1//EN"
 "http://www.w3.org/Graphics/SVG/1.1/DTD/svg11.dtd">
<!-- Generated by graphviz version 2.47.0 (20210316.0004)
 -->
<!-- Title: dependencies Pages: 1 -->
<svg width="504pt" height="284pt"
 viewBox="0.00 0.00 504.00 284.00" xmlns="http://www.w3.org/2000/svg" xmlns:xlink="http://www.w3.org/1999/xlink">
<g id="graph0" class="graph" transform="scale(1 1) rotate(0) translate(4 280)">
<title>dependencies</title>
<polygon fill="white" stroke="transparent" points="-4,4 -4,-280 500,-280 500,4 -4,4"/>
<text text-anchor="start" x="227.01" y="-42.4" font-family="Times-12" font-weight="bold" font-size="14.00">Legend</text>
<polygon fill="#ffffb3" stroke="transparent" points="14,-10 14,-30 34,-30 34,-10 14,-10"/>
<text text-anchor="start" x="37.63" y="-15.4" font-family="Times-12" font-size="14.00"> &#160;Declarations</text>
<polygon fill="#8dd3c7" stroke="transparent" points="127,-10 127,-30 147,-30 147,-10 127,-10"/>
<text text-anchor="start" x="150.73" y="-15.4" font-family="Times-12" font-size="14.00"> &#160;Module</text>
<polygon fill="#80b1d3" stroke="transparent" points="213,-10 213,-30 233,-30 233,-10 213,-10"/>
<text text-anchor="start" x="236.78" y="-15.4" font-family="Times-12" font-size="14.00"> &#160;Bootstrap</text>
<polygon fill="#fdb462" stroke="transparent" points="310,-10 310,-30 330,-30 330,-10 310,-10"/>
<text text-anchor="start" x="333.67" y="-15.4" font-family="Times-12" font-size="14.00"> &#160;Providers</text>
<polygon fill="#fb8072" stroke="transparent" points="406,-10 406,-30 426,-30 426,-10 406,-10"/>
<text text-anchor="start" x="429.73" y="-15.4" font-family="Times-12" font-size="14.00"> &#160;Exports</text>
<g id="clust1" class="cluster">
<title>cluster_SACBootstrap5StaticLabelModule</title>
<polygon fill="none" stroke="black" stroke-dasharray="1,5" points="27.5,-70 27.5,-268 468.5,-268 468.5,-70 27.5,-70"/>
</g>
<g id="clust3" class="cluster">
<title>cluster_SACBootstrap5StaticLabelModule_imports</title>
<polygon fill="none" stroke="black" points="38.5,-78 38.5,-130 456.5,-130 456.5,-78 38.5,-78"/>
</g>
<g id="clust4" class="cluster">
<title>cluster_SACBootstrap5StaticLabelModule_exports</title>
<polygon fill="none" stroke="black" points="35.5,-208 35.5,-260 460.5,-260 460.5,-208 35.5,-208"/>
</g>
<!-- SacStaticFormContainerComponent -->
<g id="node1" class="node">
<title>SacStaticFormContainerComponent</title>
<polygon fill="#8dd3c7" stroke="black" points="448.97,-122 445.97,-126 424.97,-126 421.97,-122 230.03,-122 230.03,-86 448.97,-86 448.97,-122"/>
<text text-anchor="middle" x="339.5" y="-99.8" font-family="Times,serif" font-size="14.00">SacStaticFormContainerComponent</text>
</g>
<!-- SACBootstrap5StaticLabelModule -->
<g id="node3" class="node">
<title>SACBootstrap5StaticLabelModule</title>
<polygon fill="#8dd3c7" stroke="black" points="344.47,-187 341.47,-191 320.47,-191 317.47,-187 132.53,-187 132.53,-151 344.47,-151 344.47,-187"/>
<text text-anchor="middle" x="238.5" y="-164.8" font-family="Times,serif" font-size="14.00">SACBootstrap5StaticLabelModule</text>
</g>
<!-- SacStaticFormContainerComponent&#45;&gt;SACBootstrap5StaticLabelModule -->
<g id="edge1" class="edge">
<title>SacStaticFormContainerComponent&#45;&gt;SACBootstrap5StaticLabelModule</title>
<path fill="none" stroke="black" d="M287.25,-122.11C287.25,-122.11 287.25,-140.99 287.25,-140.99"/>
<polygon fill="black" stroke="black" points="283.75,-140.99 287.25,-150.99 290.75,-140.99 283.75,-140.99"/>
</g>
<!-- SacStaticLabelComponent -->
<g id="node2" class="node">
<title>SacStaticLabelComponent</title>
<polygon fill="#8dd3c7" stroke="black" points="212.3,-122 209.3,-126 188.3,-126 185.3,-122 46.7,-122 46.7,-86 212.3,-86 212.3,-122"/>
<text text-anchor="middle" x="129.5" y="-99.8" font-family="Times,serif" font-size="14.00">SacStaticLabelComponent</text>
</g>
<!-- SacStaticLabelComponent&#45;&gt;SACBootstrap5StaticLabelModule -->
<g id="edge2" class="edge">
<title>SacStaticLabelComponent&#45;&gt;SACBootstrap5StaticLabelModule</title>
<path fill="none" stroke="black" d="M172.33,-122.11C172.33,-122.11 172.33,-140.99 172.33,-140.99"/>
<polygon fill="black" stroke="black" points="168.83,-140.99 172.33,-150.99 175.83,-140.99 168.83,-140.99"/>
</g>
<!-- SacStaticFormContainerComponent  -->
<g id="node4" class="node">
<title>SacStaticFormContainerComponent </title>
<polygon fill="#fb8072" stroke="black" points="452.97,-252 230.03,-252 230.03,-216 452.97,-216 452.97,-252"/>
<text text-anchor="middle" x="341.5" y="-229.8" font-family="Times,serif" font-size="14.00">SacStaticFormContainerComponent </text>
</g>
<!-- SACBootstrap5StaticLabelModule&#45;&gt;SacStaticFormContainerComponent  -->
<g id="edge3" class="edge">
<title>SACBootstrap5StaticLabelModule&#45;&gt;SacStaticFormContainerComponent </title>
<path fill="none" stroke="black" stroke-dasharray="5,2" d="M287.38,-187.11C287.38,-187.11 287.38,-205.99 287.38,-205.99"/>
<polygon fill="black" stroke="black" points="283.88,-205.99 287.38,-215.99 290.88,-205.99 283.88,-205.99"/>
</g>
<!-- SacStaticLabelComponent  -->
<g id="node5" class="node">
<title>SacStaticLabelComponent </title>
<polygon fill="#fb8072" stroke="black" points="211.8,-252 43.2,-252 43.2,-216 211.8,-216 211.8,-252"/>
<text text-anchor="middle" x="127.5" y="-229.8" font-family="Times,serif" font-size="14.00">SacStaticLabelComponent </text>
</g>
<!-- SACBootstrap5StaticLabelModule&#45;&gt;SacStaticLabelComponent  -->
<g id="edge4" class="edge">
<title>SACBootstrap5StaticLabelModule&#45;&gt;SacStaticLabelComponent </title>
<path fill="none" stroke="black" stroke-dasharray="5,2" d="M172.21,-187.11C172.21,-187.11 172.21,-205.99 172.21,-205.99"/>
<polygon fill="black" stroke="black" points="168.71,-205.99 172.21,-215.99 175.71,-205.99 168.71,-205.99"/>
</g>
</g>
</svg>
