<?xml version="1.0" encoding="UTF-8" standalone="no"?>
<!DOCTYPE svg PUBLIC "-//W3C//DTD SVG 1.1//EN"
 "http://www.w3.org/Graphics/SVG/1.1/DTD/svg11.dtd">
<!-- Generated by graphviz version 2.47.0 (20210316.0004)
 -->
<!-- Title: dependencies Pages: 1 -->
<svg width="1126pt" height="284pt"
 viewBox="0.00 0.00 1126.00 284.00" xmlns="http://www.w3.org/2000/svg" xmlns:xlink="http://www.w3.org/1999/xlink">
<g id="graph0" class="graph" transform="scale(1 1) rotate(0) translate(4 280)">
<title>dependencies</title>
<polygon fill="white" stroke="transparent" points="-4,4 -4,-280 1122,-280 1122,4 -4,4"/>
<text text-anchor="start" x="538.01" y="-42.4" font-family="Times-12" font-weight="bold" font-size="14.00">Legend</text>
<polygon fill="#ffffb3" stroke="transparent" points="325,-10 325,-30 345,-30 345,-10 325,-10"/>
<text text-anchor="start" x="348.63" y="-15.4" font-family="Times-12" font-size="14.00"> &#160;Declarations</text>
<polygon fill="#8dd3c7" stroke="transparent" points="438,-10 438,-30 458,-30 458,-10 438,-10"/>
<text text-anchor="start" x="461.73" y="-15.4" font-family="Times-12" font-size="14.00"> &#160;Module</text>
<polygon fill="#80b1d3" stroke="transparent" points="524,-10 524,-30 544,-30 544,-10 524,-10"/>
<text text-anchor="start" x="547.78" y="-15.4" font-family="Times-12" font-size="14.00"> &#160;Bootstrap</text>
<polygon fill="#fdb462" stroke="transparent" points="621,-10 621,-30 641,-30 641,-10 621,-10"/>
<text text-anchor="start" x="644.67" y="-15.4" font-family="Times-12" font-size="14.00"> &#160;Providers</text>
<polygon fill="#fb8072" stroke="transparent" points="717,-10 717,-30 737,-30 737,-10 717,-10"/>
<text text-anchor="start" x="740.73" y="-15.4" font-family="Times-12" font-size="14.00"> &#160;Exports</text>
<g id="clust1" class="cluster">
<title>cluster_SACBootstrap4GridModule</title>
<polygon fill="none" stroke="black" stroke-dasharray="1,5" points="8,-70 8,-268 1110,-268 1110,-70 8,-70"/>
</g>
<g id="clust2" class="cluster">
<title>cluster_SACBootstrap4GridModule_declarations</title>
<polygon fill="none" stroke="black" points="28,-78 28,-130 1094,-130 1094,-78 28,-78"/>
</g>
<g id="clust10" class="cluster">
<title>cluster_SACBootstrap4GridModule_exports</title>
<polygon fill="none" stroke="black" points="16,-208 16,-260 1102,-260 1102,-208 16,-208"/>
</g>
<!-- NgGridButtonComponent -->
<g id="node1" class="node">
<title>NgGridButtonComponent</title>
<polygon fill="#ffffb3" stroke="black" points="1086.21,-122 923.79,-122 923.79,-86 1086.21,-86 1086.21,-122"/>
<text text-anchor="middle" x="1005" y="-99.8" font-family="Times,serif" font-size="14.00">NgGridButtonComponent</text>
</g>
<!-- SACBootstrap4GridModule -->
<g id="node7" class="node">
<title>SACBootstrap4GridModule</title>
<polygon fill="#8dd3c7" stroke="black" points="521.87,-187 518.87,-191 497.87,-191 494.87,-187 348.13,-187 348.13,-151 521.87,-151 521.87,-187"/>
<text text-anchor="middle" x="435" y="-164.8" font-family="Times,serif" font-size="14.00">SACBootstrap4GridModule</text>
</g>
<!-- NgGridButtonComponent&#45;&gt;SACBootstrap4GridModule -->
<g id="edge1" class="edge">
<title>NgGridButtonComponent&#45;&gt;SACBootstrap4GridModule</title>
<path fill="none" stroke="black" d="M1033.45,-122.27C1033.45,-140.56 1033.45,-166 1033.45,-166 1033.45,-166 532.02,-166 532.02,-166"/>
<polygon fill="black" stroke="black" points="532.02,-162.5 522.02,-166 532.02,-169.5 532.02,-162.5"/>
</g>
<!-- NgGridColumnActionComponent -->
<g id="node2" class="node">
<title>NgGridColumnActionComponent</title>
<polygon fill="#ffffb3" stroke="black" points="905.82,-122 698.18,-122 698.18,-86 905.82,-86 905.82,-122"/>
<text text-anchor="middle" x="802" y="-99.8" font-family="Times,serif" font-size="14.00">NgGridColumnActionComponent</text>
</g>
<!-- NgGridColumnActionComponent&#45;&gt;SACBootstrap4GridModule -->
<g id="edge2" class="edge">
<title>NgGridColumnActionComponent&#45;&gt;SACBootstrap4GridModule</title>
<path fill="none" stroke="black" d="M836.97,-122.01C836.97,-138.05 836.97,-159 836.97,-159 836.97,-159 532.22,-159 532.22,-159"/>
<polygon fill="black" stroke="black" points="532.22,-155.5 522.22,-159 532.22,-162.5 532.22,-155.5"/>
</g>
<!-- NgGridColumnComponent -->
<g id="node3" class="node">
<title>NgGridColumnComponent</title>
<polygon fill="#ffffb3" stroke="black" points="680.71,-122 511.29,-122 511.29,-86 680.71,-86 680.71,-122"/>
<text text-anchor="middle" x="596" y="-99.8" font-family="Times,serif" font-size="14.00">NgGridColumnComponent</text>
</g>
<!-- NgGridColumnComponent&#45;&gt;SACBootstrap4GridModule -->
<g id="edge3" class="edge">
<title>NgGridColumnComponent&#45;&gt;SACBootstrap4GridModule</title>
<path fill="none" stroke="black" d="M516.66,-122.11C516.66,-122.11 516.66,-140.99 516.66,-140.99"/>
<polygon fill="black" stroke="black" points="513.16,-140.99 516.66,-150.99 520.16,-140.99 513.16,-140.99"/>
</g>
<!-- NgGridComponent -->
<g id="node4" class="node">
<title>NgGridComponent</title>
<polygon fill="#ffffb3" stroke="black" points="493.1,-122 368.9,-122 368.9,-86 493.1,-86 493.1,-122"/>
<text text-anchor="middle" x="431" y="-99.8" font-family="Times,serif" font-size="14.00">NgGridComponent</text>
</g>
<!-- NgGridComponent&#45;&gt;SACBootstrap4GridModule -->
<g id="edge4" class="edge">
<title>NgGridComponent&#45;&gt;SACBootstrap4GridModule</title>
<path fill="none" stroke="black" d="M431,-122.11C431,-122.11 431,-140.99 431,-140.99"/>
<polygon fill="black" stroke="black" points="427.5,-140.99 431,-150.99 434.5,-140.99 427.5,-140.99"/>
</g>
<!-- NgGridImageComponent -->
<g id="node5" class="node">
<title>NgGridImageComponent</title>
<polygon fill="#ffffb3" stroke="black" points="350.58,-122 191.42,-122 191.42,-86 350.58,-86 350.58,-122"/>
<text text-anchor="middle" x="271" y="-99.8" font-family="Times,serif" font-size="14.00">NgGridImageComponent</text>
</g>
<!-- NgGridImageComponent&#45;&gt;SACBootstrap4GridModule -->
<g id="edge5" class="edge">
<title>NgGridImageComponent&#45;&gt;SACBootstrap4GridModule</title>
<path fill="none" stroke="black" d="M350.58,-104C356.22,-104 359.75,-104 359.75,-104 359.75,-104 359.75,-140.89 359.75,-140.89"/>
<polygon fill="black" stroke="black" points="356.25,-140.89 359.75,-150.89 363.25,-140.89 356.25,-140.89"/>
</g>
<!-- NgPagingComponent -->
<g id="node6" class="node">
<title>NgPagingComponent</title>
<polygon fill="#ffffb3" stroke="black" points="173.83,-122 36.17,-122 36.17,-86 173.83,-86 173.83,-122"/>
<text text-anchor="middle" x="105" y="-99.8" font-family="Times,serif" font-size="14.00">NgPagingComponent</text>
</g>
<!-- NgPagingComponent&#45;&gt;SACBootstrap4GridModule -->
<g id="edge6" class="edge">
<title>NgPagingComponent&#45;&gt;SACBootstrap4GridModule</title>
<path fill="none" stroke="black" d="M169.04,-122.02C169.04,-139.37 169.04,-163 169.04,-163 169.04,-163 337.91,-163 337.91,-163"/>
<polygon fill="black" stroke="black" points="337.91,-166.5 347.91,-163 337.91,-159.5 337.91,-166.5"/>
</g>
<!-- NgGridButtonComponent  -->
<g id="node8" class="node">
<title>NgGridButtonComponent </title>
<polygon fill="#fb8072" stroke="black" points="1093.71,-252 928.29,-252 928.29,-216 1093.71,-216 1093.71,-252"/>
<text text-anchor="middle" x="1011" y="-229.8" font-family="Times,serif" font-size="14.00">NgGridButtonComponent </text>
</g>
<!-- SACBootstrap4GridModule&#45;&gt;NgGridButtonComponent  -->
<g id="edge7" class="edge">
<title>SACBootstrap4GridModule&#45;&gt;NgGridButtonComponent </title>
<path fill="none" stroke="black" stroke-dasharray="5,2" d="M522.09,-173C676.18,-173 980.8,-173 980.8,-173 980.8,-173 980.8,-205.7 980.8,-205.7"/>
<polygon fill="black" stroke="black" points="977.3,-205.7 980.8,-215.7 984.3,-205.7 977.3,-205.7"/>
</g>
<!-- NgGridColumnActionComponent  -->
<g id="node9" class="node">
<title>NgGridColumnActionComponent </title>
<polygon fill="#fb8072" stroke="black" points="910.32,-252 699.68,-252 699.68,-216 910.32,-216 910.32,-252"/>
<text text-anchor="middle" x="805" y="-229.8" font-family="Times,serif" font-size="14.00">NgGridColumnActionComponent </text>
</g>
<!-- SACBootstrap4GridModule&#45;&gt;NgGridColumnActionComponent  -->
<g id="edge8" class="edge">
<title>SACBootstrap4GridModule&#45;&gt;NgGridColumnActionComponent </title>
<path fill="none" stroke="black" stroke-dasharray="5,2" d="M522.13,-180C620.88,-180 768.28,-180 768.28,-180 768.28,-180 768.28,-205.72 768.28,-205.72"/>
<polygon fill="black" stroke="black" points="764.78,-205.72 768.28,-215.72 771.78,-205.72 764.78,-205.72"/>
</g>
<!-- NgGridColumnComponent  -->
<g id="node10" class="node">
<title>NgGridColumnComponent </title>
<polygon fill="#fb8072" stroke="black" points="681.21,-252 508.79,-252 508.79,-216 681.21,-216 681.21,-252"/>
<text text-anchor="middle" x="595" y="-229.8" font-family="Times,serif" font-size="14.00">NgGridColumnComponent </text>
</g>
<!-- SACBootstrap4GridModule&#45;&gt;NgGridColumnComponent  -->
<g id="edge9" class="edge">
<title>SACBootstrap4GridModule&#45;&gt;NgGridColumnComponent </title>
<path fill="none" stroke="black" stroke-dasharray="5,2" d="M515.29,-187.11C515.29,-187.11 515.29,-205.99 515.29,-205.99"/>
<polygon fill="black" stroke="black" points="511.79,-205.99 515.29,-215.99 518.79,-205.99 511.79,-205.99"/>
</g>
<!-- NgGridComponent  -->
<g id="node11" class="node">
<title>NgGridComponent </title>
<polygon fill="#fb8072" stroke="black" points="490.6,-252 363.4,-252 363.4,-216 490.6,-216 490.6,-252"/>
<text text-anchor="middle" x="427" y="-229.8" font-family="Times,serif" font-size="14.00">NgGridComponent </text>
</g>
<!-- SACBootstrap4GridModule&#45;&gt;NgGridComponent  -->
<g id="edge10" class="edge">
<title>SACBootstrap4GridModule&#45;&gt;NgGridComponent </title>
<path fill="none" stroke="black" stroke-dasharray="5,2" d="M427,-187.11C427,-187.11 427,-205.99 427,-205.99"/>
<polygon fill="black" stroke="black" points="423.5,-205.99 427,-215.99 430.5,-205.99 423.5,-205.99"/>
</g>
<!-- NgGridImageComponent  -->
<g id="node12" class="node">
<title>NgGridImageComponent </title>
<polygon fill="#fb8072" stroke="black" points="345.08,-252 182.92,-252 182.92,-216 345.08,-216 345.08,-252"/>
<text text-anchor="middle" x="264" y="-229.8" font-family="Times,serif" font-size="14.00">NgGridImageComponent </text>
</g>
<!-- SACBootstrap4GridModule&#45;&gt;NgGridImageComponent  -->
<g id="edge11" class="edge">
<title>SACBootstrap4GridModule&#45;&gt;NgGridImageComponent </title>
<path fill="none" stroke="black" stroke-dasharray="5,2" d="M355.63,-187.11C355.63,-206.34 355.63,-234 355.63,-234 355.63,-234 354.58,-234 354.58,-234"/>
<polygon fill="black" stroke="black" points="355.12,-230.5 345.12,-234 355.12,-237.5 355.12,-230.5"/>
</g>
<!-- NgPagingComponent  -->
<g id="node13" class="node">
<title>NgPagingComponent </title>
<polygon fill="#fb8072" stroke="black" points="164.33,-252 23.67,-252 23.67,-216 164.33,-216 164.33,-252"/>
<text text-anchor="middle" x="94" y="-229.8" font-family="Times,serif" font-size="14.00">NgPagingComponent </text>
</g>
<!-- SACBootstrap4GridModule&#45;&gt;NgPagingComponent  -->
<g id="edge12" class="edge">
<title>SACBootstrap4GridModule&#45;&gt;NgPagingComponent </title>
<path fill="none" stroke="black" stroke-dasharray="5,2" d="M347.95,-175C248.81,-175 100.38,-175 100.38,-175 100.38,-175 100.38,-205.98 100.38,-205.98"/>
<polygon fill="black" stroke="black" points="96.88,-205.98 100.38,-215.98 103.88,-205.98 96.88,-205.98"/>
</g>
</g>
</svg>
