<?xml version="1.0" encoding="UTF-8" standalone="no"?>
<!DOCTYPE svg PUBLIC "-//W3C//DTD SVG 1.1//EN"
 "http://www.w3.org/Graphics/SVG/1.1/DTD/svg11.dtd">
<!-- Generated by graphviz version 2.47.3 (20210619.1520)
 -->
<!-- Title: dependencies Pages: 1 -->
<svg width="1322pt" height="174pt"
 viewBox="0.00 0.00 1322.00 173.80" xmlns="http://www.w3.org/2000/svg" xmlns:xlink="http://www.w3.org/1999/xlink">
<g id="graph0" class="graph" transform="scale(1 1) rotate(0) translate(4 169.8)">
<title>dependencies</title>
<polygon fill="white" stroke="transparent" points="-4,4 -4,-169.8 1318,-169.8 1318,4 -4,4"/>
<text text-anchor="middle" x="657" y="-8.2" font-family="sans-serif" font-size="14.00">dependencies</text>
<g id="clust1" class="cluster">
<title>cluster_ListModule</title>
<polygon fill="none" stroke="black" stroke-dasharray="1,5" points="8,-32.8 8,-157.8 1306,-157.8 1306,-32.8 8,-32.8"/>
</g>
<g id="clust4" class="cluster">
<title>cluster_ListModule_imports</title>
<polygon fill="none" stroke="black" points="178,-40.8 178,-92.8 1298,-92.8 1298,-40.8 178,-40.8"/>
</g>
<g id="clust2" class="cluster">
<title>cluster_ListModule_declarations</title>
<polygon fill="none" stroke="black" points="16,-40.8 16,-92.8 170,-92.8 170,-40.8 16,-40.8"/>
</g>
<!-- DemoListComponent -->
<g id="node1" class="node">
<title>DemoListComponent</title>
<polygon fill="#ffffb3" stroke="black" points="161.82,-84.8 24.18,-84.8 24.18,-48.8 161.82,-48.8 161.82,-84.8"/>
<text text-anchor="middle" x="93" y="-62.6" font-family="Times,serif" font-size="14.00">DemoListComponent</text>
</g>
<!-- ListModule -->
<g id="node2" class="node">
<title>ListModule</title>
<polygon fill="#8dd3c7" stroke="black" points="645.83,-149.8 642.83,-153.8 621.83,-153.8 618.83,-149.8 564.17,-149.8 564.17,-113.8 645.83,-113.8 645.83,-149.8"/>
<text text-anchor="middle" x="605" y="-127.6" font-family="Times,serif" font-size="14.00">ListModule</text>
</g>
<!-- DemoListComponent&#45;&gt;ListModule -->
<g id="edge1" class="edge">
<title>DemoListComponent&#45;&gt;ListModule</title>
<path fill="none" stroke="black" d="M93,-85.08C93,-106.12 93,-137.8 93,-137.8 93,-137.8 553.97,-137.8 553.97,-137.8"/>
<polygon fill="black" stroke="black" points="553.97,-141.3 563.97,-137.8 553.97,-134.3 553.97,-141.3"/>
</g>
<!-- JNetworkBootstrap4ButtonModule -->
<g id="node3" class="node">
<title>JNetworkBootstrap4ButtonModule</title>
<polygon fill="#8dd3c7" stroke="black" points="1289.53,-84.8 1286.53,-88.8 1265.53,-88.8 1262.53,-84.8 1076.47,-84.8 1076.47,-48.8 1289.53,-48.8 1289.53,-84.8"/>
<text text-anchor="middle" x="1183" y="-62.6" font-family="Times,serif" font-size="14.00">JNetworkBootstrap4ButtonModule</text>
</g>
<!-- JNetworkBootstrap4ButtonModule&#45;&gt;ListModule -->
<g id="edge2" class="edge">
<title>JNetworkBootstrap4ButtonModule&#45;&gt;ListModule</title>
<path fill="none" stroke="black" d="M1183,-85.08C1183,-106.12 1183,-137.8 1183,-137.8 1183,-137.8 656.1,-137.8 656.1,-137.8"/>
<polygon fill="black" stroke="black" points="656.11,-134.3 646.1,-137.8 656.1,-141.3 656.11,-134.3"/>
</g>
<!-- JNetworkBootstrap4FormModule -->
<g id="node4" class="node">
<title>JNetworkBootstrap4FormModule</title>
<polygon fill="#8dd3c7" stroke="black" points="1057.74,-84.8 1054.74,-88.8 1033.74,-88.8 1030.74,-84.8 852.26,-84.8 852.26,-48.8 1057.74,-48.8 1057.74,-84.8"/>
<text text-anchor="middle" x="955" y="-62.6" font-family="Times,serif" font-size="14.00">JNetworkBootstrap4FormModule</text>
</g>
<!-- JNetworkBootstrap4FormModule&#45;&gt;ListModule -->
<g id="edge3" class="edge">
<title>JNetworkBootstrap4FormModule&#45;&gt;ListModule</title>
<path fill="none" stroke="black" d="M955,-84.82C955,-102.17 955,-125.8 955,-125.8 955,-125.8 655.83,-125.8 655.83,-125.8"/>
<polygon fill="black" stroke="black" points="655.83,-122.3 645.83,-125.8 655.83,-129.3 655.83,-122.3"/>
</g>
<!-- JNetworkBootstrap4ListModule -->
<g id="node5" class="node">
<title>JNetworkBootstrap4ListModule</title>
<polygon fill="#8dd3c7" stroke="black" points="834.69,-84.8 831.69,-88.8 810.69,-88.8 807.69,-84.8 637.31,-84.8 637.31,-48.8 834.69,-48.8 834.69,-84.8"/>
<text text-anchor="middle" x="736" y="-62.6" font-family="Times,serif" font-size="14.00">JNetworkBootstrap4ListModule</text>
</g>
<!-- JNetworkBootstrap4ListModule&#45;&gt;ListModule -->
<g id="edge4" class="edge">
<title>JNetworkBootstrap4ListModule&#45;&gt;ListModule</title>
<path fill="none" stroke="black" d="M641.53,-84.91C641.53,-84.91 641.53,-103.79 641.53,-103.79"/>
<polygon fill="black" stroke="black" points="638.03,-103.79 641.53,-113.79 645.03,-103.79 638.03,-103.79"/>
</g>
<!-- JNetworkBootstrap4ValidationSummaryModule -->
<g id="node6" class="node">
<title>JNetworkBootstrap4ValidationSummaryModule</title>
<polygon fill="#8dd3c7" stroke="black" points="619.45,-84.8 616.45,-88.8 595.45,-88.8 592.45,-84.8 330.55,-84.8 330.55,-48.8 619.45,-48.8 619.45,-84.8"/>
<text text-anchor="middle" x="475" y="-62.6" font-family="Times,serif" font-size="14.00">JNetworkBootstrap4ValidationSummaryModule</text>
</g>
<!-- JNetworkBootstrap4ValidationSummaryModule&#45;&gt;ListModule -->
<g id="edge5" class="edge">
<title>JNetworkBootstrap4ValidationSummaryModule&#45;&gt;ListModule</title>
<path fill="none" stroke="black" d="M591.9,-84.91C591.9,-84.91 591.9,-103.79 591.9,-103.79"/>
<polygon fill="black" stroke="black" points="588.41,-103.79 591.9,-113.79 595.41,-103.79 588.41,-103.79"/>
</g>
<!-- ListRoutingModule -->
<g id="node7" class="node">
<title>ListRoutingModule</title>
<polygon fill="#8dd3c7" stroke="black" points="312.45,-84.8 309.45,-88.8 288.45,-88.8 285.45,-84.8 185.55,-84.8 185.55,-48.8 312.45,-48.8 312.45,-84.8"/>
<text text-anchor="middle" x="249" y="-62.6" font-family="Times,serif" font-size="14.00">ListRoutingModule</text>
</g>
<!-- ListRoutingModule&#45;&gt;ListModule -->
<g id="edge6" class="edge">
<title>ListRoutingModule&#45;&gt;ListModule</title>
<path fill="none" stroke="black" d="M249,-84.82C249,-102.17 249,-125.8 249,-125.8 249,-125.8 554.16,-125.8 554.16,-125.8"/>
<polygon fill="black" stroke="black" points="554.16,-129.3 564.16,-125.8 554.16,-122.3 554.16,-129.3"/>
</g>
</g>
</svg>
