<?xml version="1.0" encoding="UTF-8" standalone="no"?>
<!DOCTYPE svg PUBLIC "-//W3C//DTD SVG 1.1//EN"
 "http://www.w3.org/Graphics/SVG/1.1/DTD/svg11.dtd">
<!-- Generated by graphviz version 2.47.0 (20210316.0004)
 -->
<!-- Title: dependencies Pages: 1 -->
<svg width="600pt" height="284pt"
 viewBox="0.00 0.00 600.00 284.00" xmlns="http://www.w3.org/2000/svg" xmlns:xlink="http://www.w3.org/1999/xlink">
<g id="graph0" class="graph" transform="scale(1 1) rotate(0) translate(4 280)">
<title>dependencies</title>
<polygon fill="white" stroke="transparent" points="-4,4 -4,-280 596,-280 596,4 -4,4"/>
<text text-anchor="start" x="275.01" y="-42.4" font-family="Times-12" font-weight="bold" font-size="14.00">Legend</text>
<polygon fill="#ffffb3" stroke="transparent" points="62,-10 62,-30 82,-30 82,-10 62,-10"/>
<text text-anchor="start" x="85.63" y="-15.4" font-family="Times-12" font-size="14.00"> &#160;Declarations</text>
<polygon fill="#8dd3c7" stroke="transparent" points="175,-10 175,-30 195,-30 195,-10 175,-10"/>
<text text-anchor="start" x="198.73" y="-15.4" font-family="Times-12" font-size="14.00"> &#160;Module</text>
<polygon fill="#80b1d3" stroke="transparent" points="261,-10 261,-30 281,-30 281,-10 261,-10"/>
<text text-anchor="start" x="284.78" y="-15.4" font-family="Times-12" font-size="14.00"> &#160;Bootstrap</text>
<polygon fill="#fdb462" stroke="transparent" points="358,-10 358,-30 378,-30 378,-10 358,-10"/>
<text text-anchor="start" x="381.67" y="-15.4" font-family="Times-12" font-size="14.00"> &#160;Providers</text>
<polygon fill="#fb8072" stroke="transparent" points="454,-10 454,-30 474,-30 474,-10 454,-10"/>
<text text-anchor="start" x="477.73" y="-15.4" font-family="Times-12" font-size="14.00"> &#160;Exports</text>
<g id="clust1" class="cluster">
<title>cluster_SACBootstrap5ListModule</title>
<polygon fill="none" stroke="black" stroke-dasharray="1,5" points="8,-70 8,-268 584,-268 584,-70 8,-70"/>
</g>
<g id="clust6" class="cluster">
<title>cluster_SACBootstrap5ListModule_exports</title>
<polygon fill="none" stroke="black" points="103,-208 103,-260 459,-260 459,-208 103,-208"/>
</g>
<g id="clust5" class="cluster">
<title>cluster_SACBootstrap5ListModule_imports</title>
<polygon fill="none" stroke="black" points="372,-78 372,-130 576,-130 576,-78 372,-78"/>
</g>
<g id="clust2" class="cluster">
<title>cluster_SACBootstrap5ListModule_declarations</title>
<polygon fill="none" stroke="black" points="16,-78 16,-130 364,-130 364,-78 16,-78"/>
</g>
<!-- SacListboxComponent -->
<g id="node1" class="node">
<title>SacListboxComponent</title>
<polygon fill="#ffffb3" stroke="black" points="356.32,-122 211.68,-122 211.68,-86 356.32,-86 356.32,-122"/>
<text text-anchor="middle" x="284" y="-99.8" font-family="Times,serif" font-size="14.00">SacListboxComponent</text>
</g>
<!-- SACBootstrap5ListModule -->
<g id="node3" class="node">
<title>SACBootstrap5ListModule</title>
<polygon fill="#8dd3c7" stroke="black" points="368.99,-187 365.99,-191 344.99,-191 341.99,-187 199.01,-187 199.01,-151 368.99,-151 368.99,-187"/>
<text text-anchor="middle" x="284" y="-164.8" font-family="Times,serif" font-size="14.00">SACBootstrap5ListModule</text>
</g>
<!-- SacListboxComponent&#45;&gt;SACBootstrap5ListModule -->
<g id="edge1" class="edge">
<title>SacListboxComponent&#45;&gt;SACBootstrap5ListModule</title>
<path fill="none" stroke="black" d="M284,-122.11C284,-122.11 284,-140.99 284,-140.99"/>
<polygon fill="black" stroke="black" points="280.5,-140.99 284,-150.99 287.5,-140.99 280.5,-140.99"/>
</g>
<!-- SacListboxOptionDirective -->
<g id="node2" class="node">
<title>SacListboxOptionDirective</title>
<polygon fill="#ffffb3" stroke="black" points="193.96,-122 24.04,-122 24.04,-86 193.96,-86 193.96,-122"/>
<text text-anchor="middle" x="109" y="-99.8" font-family="Times,serif" font-size="14.00">SacListboxOptionDirective</text>
</g>
<!-- SacListboxOptionDirective&#45;&gt;SACBootstrap5ListModule -->
<g id="edge2" class="edge">
<title>SacListboxOptionDirective&#45;&gt;SACBootstrap5ListModule</title>
<path fill="none" stroke="black" d="M193.98,-104C200.97,-104 205.42,-104 205.42,-104 205.42,-104 205.42,-140.89 205.42,-140.89"/>
<polygon fill="black" stroke="black" points="201.92,-140.89 205.42,-150.89 208.92,-140.89 201.92,-140.89"/>
</g>
<!-- SacListboxComponent  -->
<g id="node5" class="node">
<title>SacListboxComponent </title>
<polygon fill="#fb8072" stroke="black" points="450.82,-252 303.18,-252 303.18,-216 450.82,-216 450.82,-252"/>
<text text-anchor="middle" x="377" y="-229.8" font-family="Times,serif" font-size="14.00">SacListboxComponent </text>
</g>
<!-- SACBootstrap5ListModule&#45;&gt;SacListboxComponent  -->
<g id="edge4" class="edge">
<title>SACBootstrap5ListModule&#45;&gt;SacListboxComponent </title>
<path fill="none" stroke="black" stroke-dasharray="5,2" d="M336.04,-187.11C336.04,-187.11 336.04,-205.99 336.04,-205.99"/>
<polygon fill="black" stroke="black" points="332.54,-205.99 336.04,-215.99 339.54,-205.99 332.54,-205.99"/>
</g>
<!-- SacListboxOptionDirective  -->
<g id="node6" class="node">
<title>SacListboxOptionDirective </title>
<polygon fill="#fb8072" stroke="black" points="284.96,-252 111.04,-252 111.04,-216 284.96,-216 284.96,-252"/>
<text text-anchor="middle" x="198" y="-229.8" font-family="Times,serif" font-size="14.00">SacListboxOptionDirective </text>
</g>
<!-- SACBootstrap5ListModule&#45;&gt;SacListboxOptionDirective  -->
<g id="edge5" class="edge">
<title>SACBootstrap5ListModule&#45;&gt;SacListboxOptionDirective </title>
<path fill="none" stroke="black" stroke-dasharray="5,2" d="M241.87,-187.11C241.87,-187.11 241.87,-205.99 241.87,-205.99"/>
<polygon fill="black" stroke="black" points="238.37,-205.99 241.87,-215.99 245.37,-205.99 238.37,-205.99"/>
</g>
<!-- SACBootstrap5LayoutModule -->
<g id="node4" class="node">
<title>SACBootstrap5LayoutModule</title>
<polygon fill="#8dd3c7" stroke="black" points="567.87,-122 564.87,-126 543.87,-126 540.87,-122 380.13,-122 380.13,-86 567.87,-86 567.87,-122"/>
<text text-anchor="middle" x="474" y="-99.8" font-family="Times,serif" font-size="14.00">SACBootstrap5LayoutModule</text>
</g>
<!-- SACBootstrap5LayoutModule&#45;&gt;SACBootstrap5ListModule -->
<g id="edge3" class="edge">
<title>SACBootstrap5LayoutModule&#45;&gt;SACBootstrap5ListModule</title>
<path fill="none" stroke="black" d="M379.99,-104C369.54,-104 362.58,-104 362.58,-104 362.58,-104 362.58,-140.89 362.58,-140.89"/>
<polygon fill="black" stroke="black" points="359.08,-140.89 362.58,-150.89 366.08,-140.89 359.08,-140.89"/>
</g>
</g>
</svg>
