<?xml version="1.0" encoding="UTF-8" standalone="no"?>
<!DOCTYPE svg PUBLIC "-//W3C//DTD SVG 1.1//EN"
 "http://www.w3.org/Graphics/SVG/1.1/DTD/svg11.dtd">
<!-- Generated by graphviz version 2.40.1 (20161225.0304)
 -->
<!-- Title: dependencies Pages: 1 -->
<svg width="598pt" height="284pt"
 viewBox="0.00 0.00 598.00 284.00" xmlns="http://www.w3.org/2000/svg" xmlns:xlink="http://www.w3.org/1999/xlink">
<g id="graph0" class="graph" transform="scale(1 1) rotate(0) translate(4 280)">
<title>dependencies</title>
<polygon fill="#ffffff" stroke="transparent" points="-4,4 -4,-280 594,-280 594,4 -4,4"/>
<text text-anchor="start" x="274.0091" y="-42.4" font-family="sans-serif" font-weight="bold" font-size="14.00" fill="#000000">Legend</text>
<polygon fill="#ffffb3" stroke="transparent" points="61,-10 61,-30 81,-30 81,-10 61,-10"/>
<text text-anchor="start" x="84.629" y="-15.4" font-family="sans-serif" font-size="14.00" fill="#000000"> &#160;Declarations</text>
<polygon fill="#8dd3c7" stroke="transparent" points="174,-10 174,-30 194,-30 194,-10 174,-10"/>
<text text-anchor="start" x="197.7251" y="-15.4" font-family="sans-serif" font-size="14.00" fill="#000000"> &#160;Module</text>
<polygon fill="#80b1d3" stroke="transparent" points="260,-10 260,-30 280,-30 280,-10 260,-10"/>
<text text-anchor="start" x="283.7812" y="-15.4" font-family="sans-serif" font-size="14.00" fill="#000000"> &#160;Bootstrap</text>
<polygon fill="#fdb462" stroke="transparent" points="357,-10 357,-30 377,-30 377,-10 357,-10"/>
<text text-anchor="start" x="380.6732" y="-15.4" font-family="sans-serif" font-size="14.00" fill="#000000"> &#160;Providers</text>
<polygon fill="#fb8072" stroke="transparent" points="453,-10 453,-30 473,-30 473,-10 453,-10"/>
<text text-anchor="start" x="476.7258" y="-15.4" font-family="sans-serif" font-size="14.00" fill="#000000"> &#160;Exports</text>
<g id="clust1" class="cluster">
<title>cluster_JNetworkBootstrap4CheckboxModule</title>
<polygon fill="none" stroke="#000000" stroke-dasharray="1,5" points="8,-70 8,-268 582,-268 582,-70 8,-70"/>
</g>
<g id="clust2" class="cluster">
<title>cluster_JNetworkBootstrap4CheckboxModule_declarations</title>
<polygon fill="none" stroke="#000000" points="21,-78 21,-130 569,-130 569,-78 21,-78"/>
</g>
<g id="clust7" class="cluster">
<title>cluster_JNetworkBootstrap4CheckboxModule_exports</title>
<polygon fill="none" stroke="#000000" points="16,-208 16,-260 574,-260 574,-208 16,-208"/>
</g>
<!-- NgCheckboxComponent -->
<g id="node1" class="node">
<title>NgCheckboxComponent</title>
<polygon fill="#ffffb3" stroke="#000000" points="560.7049,-122 405.2951,-122 405.2951,-86 560.7049,-86 560.7049,-122"/>
<text text-anchor="middle" x="483" y="-99.8" font-family="Times,serif" font-size="14.00" fill="#000000">NgCheckboxComponent</text>
</g>
<!-- JNetworkBootstrap4CheckboxModule -->
<g id="node4" class="node">
<title>JNetworkBootstrap4CheckboxModule</title>
<polygon fill="#8dd3c7" stroke="#000000" points="420.1769,-187 417.1769,-191 396.1769,-191 393.1769,-187 187.8231,-187 187.8231,-151 420.1769,-151 420.1769,-187"/>
<text text-anchor="middle" x="304" y="-164.8" font-family="Times,serif" font-size="14.00" fill="#000000">JNetworkBootstrap4CheckboxModule</text>
</g>
<!-- NgCheckboxComponent&#45;&gt;JNetworkBootstrap4CheckboxModule -->
<g id="edge1" class="edge">
<title>NgCheckboxComponent&#45;&gt;JNetworkBootstrap4CheckboxModule</title>
<path fill="none" stroke="#000000" d="M412.743,-122.1061C412.743,-122.1061 412.743,-140.991 412.743,-140.991"/>
<polygon fill="#000000" stroke="#000000" points="409.2431,-140.9909 412.743,-150.991 416.2431,-140.991 409.2431,-140.9909"/>
</g>
<!-- NgRadiobuttonComponent -->
<g id="node2" class="node">
<title>NgRadiobuttonComponent</title>
<polygon fill="#ffffb3" stroke="#000000" points="387.6623,-122 220.3377,-122 220.3377,-86 387.6623,-86 387.6623,-122"/>
<text text-anchor="middle" x="304" y="-99.8" font-family="Times,serif" font-size="14.00" fill="#000000">NgRadiobuttonComponent</text>
</g>
<!-- NgRadiobuttonComponent&#45;&gt;JNetworkBootstrap4CheckboxModule -->
<g id="edge2" class="edge">
<title>NgRadiobuttonComponent&#45;&gt;JNetworkBootstrap4CheckboxModule</title>
<path fill="none" stroke="#000000" d="M304,-122.1061C304,-122.1061 304,-140.991 304,-140.991"/>
<polygon fill="#000000" stroke="#000000" points="300.5001,-140.9909 304,-150.991 307.5001,-140.991 300.5001,-140.9909"/>
</g>
<!-- NgRadiobuttonsComponent -->
<g id="node3" class="node">
<title>NgRadiobuttonsComponent</title>
<polygon fill="#ffffb3" stroke="#000000" points="202.6066,-122 29.3934,-122 29.3934,-86 202.6066,-86 202.6066,-122"/>
<text text-anchor="middle" x="116" y="-99.8" font-family="Times,serif" font-size="14.00" fill="#000000">NgRadiobuttonsComponent</text>
</g>
<!-- NgRadiobuttonsComponent&#45;&gt;JNetworkBootstrap4CheckboxModule -->
<g id="edge3" class="edge">
<title>NgRadiobuttonsComponent&#45;&gt;JNetworkBootstrap4CheckboxModule</title>
<path fill="none" stroke="#000000" d="M195.2325,-122.1061C195.2325,-122.1061 195.2325,-140.991 195.2325,-140.991"/>
<polygon fill="#000000" stroke="#000000" points="191.7325,-140.9909 195.2325,-150.991 198.7325,-140.991 191.7325,-140.9909"/>
</g>
<!-- NgCheckboxComponent  -->
<g id="node5" class="node">
<title>NgCheckboxComponent </title>
<polygon fill="#fb8072" stroke="#000000" points="566.2051,-252 407.7949,-252 407.7949,-216 566.2051,-216 566.2051,-252"/>
<text text-anchor="middle" x="487" y="-229.8" font-family="Times,serif" font-size="14.00" fill="#000000">NgCheckboxComponent </text>
</g>
<!-- JNetworkBootstrap4CheckboxModule&#45;&gt;NgCheckboxComponent  -->
<g id="edge4" class="edge">
<title>JNetworkBootstrap4CheckboxModule&#45;&gt;NgCheckboxComponent </title>
<path fill="none" stroke="#000000" stroke-dasharray="5,2" d="M413.868,-187.1061C413.868,-187.1061 413.868,-205.991 413.868,-205.991"/>
<polygon fill="#000000" stroke="#000000" points="410.3681,-205.9909 413.868,-215.991 417.3681,-205.991 410.3681,-205.9909"/>
</g>
<!-- NgRadiobuttonComponent  -->
<g id="node6" class="node">
<title>NgRadiobuttonComponent </title>
<polygon fill="#fb8072" stroke="#000000" points="389.6621,-252 218.3379,-252 218.3379,-216 389.6621,-216 389.6621,-252"/>
<text text-anchor="middle" x="304" y="-229.8" font-family="Times,serif" font-size="14.00" fill="#000000">NgRadiobuttonComponent </text>
</g>
<!-- JNetworkBootstrap4CheckboxModule&#45;&gt;NgRadiobuttonComponent  -->
<g id="edge5" class="edge">
<title>JNetworkBootstrap4CheckboxModule&#45;&gt;NgRadiobuttonComponent </title>
<path fill="none" stroke="#000000" stroke-dasharray="5,2" d="M304,-187.1061C304,-187.1061 304,-205.991 304,-205.991"/>
<polygon fill="#000000" stroke="#000000" points="300.5001,-205.9909 304,-215.991 307.5001,-205.991 300.5001,-205.9909"/>
</g>
<!-- NgRadiobuttonsComponent  -->
<g id="node7" class="node">
<title>NgRadiobuttonsComponent </title>
<polygon fill="#fb8072" stroke="#000000" points="200.107,-252 23.893,-252 23.893,-216 200.107,-216 200.107,-252"/>
<text text-anchor="middle" x="112" y="-229.8" font-family="Times,serif" font-size="14.00" fill="#000000">NgRadiobuttonsComponent </text>
</g>
<!-- JNetworkBootstrap4CheckboxModule&#45;&gt;NgRadiobuttonsComponent  -->
<g id="edge6" class="edge">
<title>JNetworkBootstrap4CheckboxModule&#45;&gt;NgRadiobuttonsComponent </title>
<path fill="none" stroke="#000000" stroke-dasharray="5,2" d="M194.1075,-187.1061C194.1075,-187.1061 194.1075,-205.991 194.1075,-205.991"/>
<polygon fill="#000000" stroke="#000000" points="190.6075,-205.9909 194.1075,-215.991 197.6075,-205.991 190.6075,-205.9909"/>
</g>
</g>
</svg>
