<?xml version="1.0" encoding="UTF-8" standalone="no"?>
<!DOCTYPE svg PUBLIC "-//W3C//DTD SVG 1.1//EN"
 "http://www.w3.org/Graphics/SVG/1.1/DTD/svg11.dtd">
<!-- Generated by graphviz version 2.40.1 (20161225.0304)
 -->
<!-- Title: dependencies Pages: 1 -->
<svg width="504pt" height="284pt"
 viewBox="0.00 0.00 504.00 284.00" xmlns="http://www.w3.org/2000/svg" xmlns:xlink="http://www.w3.org/1999/xlink">
<g id="graph0" class="graph" transform="scale(1 1) rotate(0) translate(4 280)">
<title>dependencies</title>
<polygon fill="#ffffff" stroke="transparent" points="-4,4 -4,-280 500,-280 500,4 -4,4"/>
<text text-anchor="start" x="227.0091" y="-42.4" font-family="sans-serif" font-weight="bold" font-size="14.00" fill="#000000">Legend</text>
<polygon fill="#ffffb3" stroke="transparent" points="14,-10 14,-30 34,-30 34,-10 14,-10"/>
<text text-anchor="start" x="37.629" y="-15.4" font-family="sans-serif" font-size="14.00" fill="#000000"> &#160;Declarations</text>
<polygon fill="#8dd3c7" stroke="transparent" points="127,-10 127,-30 147,-30 147,-10 127,-10"/>
<text text-anchor="start" x="150.7251" y="-15.4" font-family="sans-serif" font-size="14.00" fill="#000000"> &#160;Module</text>
<polygon fill="#80b1d3" stroke="transparent" points="213,-10 213,-30 233,-30 233,-10 213,-10"/>
<text text-anchor="start" x="236.7812" y="-15.4" font-family="sans-serif" font-size="14.00" fill="#000000"> &#160;Bootstrap</text>
<polygon fill="#fdb462" stroke="transparent" points="310,-10 310,-30 330,-30 330,-10 310,-10"/>
<text text-anchor="start" x="333.6732" y="-15.4" font-family="sans-serif" font-size="14.00" fill="#000000"> &#160;Providers</text>
<polygon fill="#fb8072" stroke="transparent" points="406,-10 406,-30 426,-30 426,-10 406,-10"/>
<text text-anchor="start" x="429.7258" y="-15.4" font-family="sans-serif" font-size="14.00" fill="#000000"> &#160;Exports</text>
<g id="clust1" class="cluster">
<title>cluster_jNetworkBootstrap4CheckboxModule</title>
<polygon fill="none" stroke="#000000" stroke-dasharray="1,5" points="58,-70 58,-268 438,-268 438,-70 58,-70"/>
</g>
<g id="clust2" class="cluster">
<title>cluster_jNetworkBootstrap4CheckboxModule_declarations</title>
<polygon fill="none" stroke="#000000" points="72,-78 72,-130 424,-130 424,-78 72,-78"/>
</g>
<g id="clust7" class="cluster">
<title>cluster_jNetworkBootstrap4CheckboxModule_exports</title>
<polygon fill="none" stroke="#000000" points="66,-208 66,-260 430,-260 430,-208 66,-208"/>
</g>
<!-- NgCheckbox -->
<g id="node1" class="node">
<title>NgCheckbox</title>
<polygon fill="#ffffb3" stroke="#000000" points="415.8725,-122 326.1275,-122 326.1275,-86 415.8725,-86 415.8725,-122"/>
<text text-anchor="middle" x="371" y="-99.8" font-family="Times,serif" font-size="14.00" fill="#000000">NgCheckbox</text>
</g>
<!-- jNetworkBootstrap4CheckboxModule -->
<g id="node4" class="node">
<title>jNetworkBootstrap4CheckboxModule</title>
<polygon fill="#8dd3c7" stroke="#000000" points="372.1231,-187 369.1231,-191 348.1231,-191 345.1231,-187 141.8769,-187 141.8769,-151 372.1231,-151 372.1231,-187"/>
<text text-anchor="middle" x="257" y="-164.8" font-family="Times,serif" font-size="14.00" fill="#000000">jNetworkBootstrap4CheckboxModule</text>
</g>
<!-- NgCheckbox&#45;&gt;jNetworkBootstrap4CheckboxModule -->
<g id="edge1" class="edge">
<title>NgCheckbox&#45;&gt;jNetworkBootstrap4CheckboxModule</title>
<path fill="none" stroke="#000000" d="M349.1876,-122.1061C349.1876,-122.1061 349.1876,-140.991 349.1876,-140.991"/>
<polygon fill="#000000" stroke="#000000" points="345.6877,-140.9909 349.1876,-150.991 352.6877,-140.991 345.6877,-140.9909"/>
</g>
<!-- NgRadiobutton -->
<g id="node2" class="node">
<title>NgRadiobutton</title>
<polygon fill="#ffffb3" stroke="#000000" points="308.3301,-122 205.6699,-122 205.6699,-86 308.3301,-86 308.3301,-122"/>
<text text-anchor="middle" x="257" y="-99.8" font-family="Times,serif" font-size="14.00" fill="#000000">NgRadiobutton</text>
</g>
<!-- NgRadiobutton&#45;&gt;jNetworkBootstrap4CheckboxModule -->
<g id="edge2" class="edge">
<title>NgRadiobutton&#45;&gt;jNetworkBootstrap4CheckboxModule</title>
<path fill="none" stroke="#000000" d="M257,-122.1061C257,-122.1061 257,-140.991 257,-140.991"/>
<polygon fill="#000000" stroke="#000000" points="253.5001,-140.9909 257,-150.991 260.5001,-140.991 253.5001,-140.9909"/>
</g>
<!-- NgRadiobuttons -->
<g id="node3" class="node">
<title>NgRadiobuttons</title>
<polygon fill="#ffffb3" stroke="#000000" points="187.7744,-122 80.2256,-122 80.2256,-86 187.7744,-86 187.7744,-122"/>
<text text-anchor="middle" x="134" y="-99.8" font-family="Times,serif" font-size="14.00" fill="#000000">NgRadiobuttons</text>
</g>
<!-- NgRadiobuttons&#45;&gt;jNetworkBootstrap4CheckboxModule -->
<g id="edge3" class="edge">
<title>NgRadiobuttons&#45;&gt;jNetworkBootstrap4CheckboxModule</title>
<path fill="none" stroke="#000000" d="M164.7879,-122.1061C164.7879,-122.1061 164.7879,-140.991 164.7879,-140.991"/>
<polygon fill="#000000" stroke="#000000" points="161.2879,-140.9909 164.7879,-150.991 168.2879,-140.991 161.2879,-140.9909"/>
</g>
<!-- NgCheckbox  -->
<g id="node5" class="node">
<title>NgCheckbox </title>
<polygon fill="#fb8072" stroke="#000000" points="421.8731,-252 328.1269,-252 328.1269,-216 421.8731,-216 421.8731,-252"/>
<text text-anchor="middle" x="375" y="-229.8" font-family="Times,serif" font-size="14.00" fill="#000000">NgCheckbox </text>
</g>
<!-- jNetworkBootstrap4CheckboxModule&#45;&gt;NgCheckbox  -->
<g id="edge4" class="edge">
<title>jNetworkBootstrap4CheckboxModule&#45;&gt;NgCheckbox </title>
<path fill="none" stroke="#000000" stroke-dasharray="5,2" d="M350.3126,-187.1061C350.3126,-187.1061 350.3126,-205.991 350.3126,-205.991"/>
<polygon fill="#000000" stroke="#000000" points="346.8127,-205.9909 350.3126,-215.991 353.8127,-205.991 346.8127,-205.9909"/>
</g>
<!-- NgRadiobutton  -->
<g id="node6" class="node">
<title>NgRadiobutton </title>
<polygon fill="#fb8072" stroke="#000000" points="309.8297,-252 204.1703,-252 204.1703,-216 309.8297,-216 309.8297,-252"/>
<text text-anchor="middle" x="257" y="-229.8" font-family="Times,serif" font-size="14.00" fill="#000000">NgRadiobutton </text>
</g>
<!-- jNetworkBootstrap4CheckboxModule&#45;&gt;NgRadiobutton  -->
<g id="edge5" class="edge">
<title>jNetworkBootstrap4CheckboxModule&#45;&gt;NgRadiobutton </title>
<path fill="none" stroke="#000000" stroke-dasharray="5,2" d="M257,-187.1061C257,-187.1061 257,-205.991 257,-205.991"/>
<polygon fill="#000000" stroke="#000000" points="253.5001,-205.9909 257,-215.991 260.5001,-205.991 253.5001,-205.9909"/>
</g>
<!-- NgRadiobuttons  -->
<g id="node7" class="node">
<title>NgRadiobuttons </title>
<polygon fill="#fb8072" stroke="#000000" points="185.7745,-252 74.2255,-252 74.2255,-216 185.7745,-216 185.7745,-252"/>
<text text-anchor="middle" x="130" y="-229.8" font-family="Times,serif" font-size="14.00" fill="#000000">NgRadiobuttons </text>
</g>
<!-- jNetworkBootstrap4CheckboxModule&#45;&gt;NgRadiobuttons  -->
<g id="edge6" class="edge">
<title>jNetworkBootstrap4CheckboxModule&#45;&gt;NgRadiobuttons </title>
<path fill="none" stroke="#000000" stroke-dasharray="5,2" d="M163.6629,-187.1061C163.6629,-187.1061 163.6629,-205.991 163.6629,-205.991"/>
<polygon fill="#000000" stroke="#000000" points="160.1629,-205.9909 163.6629,-215.991 167.1629,-205.991 160.1629,-205.9909"/>
</g>
</g>
</svg>
