<?xml version="1.0" encoding="UTF-8" standalone="no"?>
<!DOCTYPE svg PUBLIC "-//W3C//DTD SVG 1.1//EN"
 "http://www.w3.org/Graphics/SVG/1.1/DTD/svg11.dtd">
<!-- Generated by graphviz version 2.46.0 (20210119.1425)
 -->
<!-- Title: dependencies Pages: 1 -->
<svg width="2266pt" height="349pt"
 viewBox="0.00 0.00 2266.00 349.00" xmlns="http://www.w3.org/2000/svg" xmlns:xlink="http://www.w3.org/1999/xlink">
<g id="graph0" class="graph" transform="scale(1 1) rotate(0) translate(4 345)">
<title>dependencies</title>
<polygon fill="white" stroke="transparent" points="-4,4 -4,-345 2262,-345 2262,4 -4,4"/>
<text text-anchor="start" x="1108.01" y="-42.4" font-family="sans-serif" font-weight="bold" font-size="14.00">Legend</text>
<polygon fill="#ffffb3" stroke="transparent" points="895,-10 895,-30 915,-30 915,-10 895,-10"/>
<text text-anchor="start" x="918.63" y="-15.4" font-family="sans-serif" font-size="14.00"> &#160;Declarations</text>
<polygon fill="#8dd3c7" stroke="transparent" points="1008,-10 1008,-30 1028,-30 1028,-10 1008,-10"/>
<text text-anchor="start" x="1031.73" y="-15.4" font-family="sans-serif" font-size="14.00"> &#160;Module</text>
<polygon fill="#80b1d3" stroke="transparent" points="1094,-10 1094,-30 1114,-30 1114,-10 1094,-10"/>
<text text-anchor="start" x="1117.78" y="-15.4" font-family="sans-serif" font-size="14.00"> &#160;Bootstrap</text>
<polygon fill="#fdb462" stroke="transparent" points="1191,-10 1191,-30 1211,-30 1211,-10 1191,-10"/>
<text text-anchor="start" x="1214.67" y="-15.4" font-family="sans-serif" font-size="14.00"> &#160;Providers</text>
<polygon fill="#fb8072" stroke="transparent" points="1287,-10 1287,-30 1307,-30 1307,-10 1287,-10"/>
<text text-anchor="start" x="1310.73" y="-15.4" font-family="sans-serif" font-size="14.00"> &#160;Exports</text>
<g id="clust1" class="cluster">
<title>cluster_JNetworkBootstrap3ListModule</title>
<polygon fill="none" stroke="black" stroke-dasharray="1,5" points="8,-70 8,-333 2250,-333 2250,-70 8,-70"/>
</g>
<g id="clust6" class="cluster">
<title>cluster_JNetworkBootstrap3ListModule_imports</title>
<polygon fill="none" stroke="black" points="1978,-143 1978,-195 2242,-195 2242,-143 1978,-143"/>
</g>
<g id="clust3" class="cluster">
<title>cluster_JNetworkBootstrap3ListModule_NgDropdownComponent_providers</title>
<polygon fill="none" stroke="black" points="384,-78 384,-195 1970,-195 1970,-78 384,-78"/>
</g>
<g id="clust2" class="cluster">
<title>cluster_JNetworkBootstrap3ListModule_declarations</title>
<polygon fill="none" stroke="black" points="16,-143 16,-195 376,-195 376,-143 16,-143"/>
</g>
<g id="clust7" class="cluster">
<title>cluster_JNetworkBootstrap3ListModule_exports</title>
<polygon fill="none" stroke="black" points="278,-273 278,-325 824,-325 824,-273 278,-273"/>
</g>
<!-- NgDropdownComponent -->
<g id="node1" class="node">
<title>NgDropdownComponent</title>
<polygon fill="#ffffb3" stroke="black" points="883.31,-187 724.69,-187 724.69,-151 883.31,-151 883.31,-187"/>
<text text-anchor="middle" x="804" y="-164.8" font-family="Times,serif" font-size="14.00">NgDropdownComponent</text>
</g>
<!-- JNetworkBootstrap3ListModule -->
<g id="node4" class="node">
<title>JNetworkBootstrap3ListModule</title>
<polygon fill="#8dd3c7" stroke="black" points="640.69,-252 637.69,-256 616.69,-256 613.69,-252 443.31,-252 443.31,-216 640.69,-216 640.69,-252"/>
<text text-anchor="middle" x="542" y="-229.8" font-family="Times,serif" font-size="14.00">JNetworkBootstrap3ListModule</text>
</g>
<!-- NgDropdownComponent&#45;&gt;JNetworkBootstrap3ListModule -->
<g id="edge1" class="edge">
<title>NgDropdownComponent&#45;&gt;JNetworkBootstrap3ListModule</title>
<path fill="none" stroke="black" d="M770.38,-187.03C770.38,-203.4 770.38,-225 770.38,-225 770.38,-225 650.84,-225 650.84,-225"/>
<polygon fill="black" stroke="black" points="650.84,-221.5 640.84,-225 650.84,-228.5 650.84,-221.5"/>
</g>
<!-- NgDropdownOptionDirective -->
<g id="node2" class="node">
<title>NgDropdownOptionDirective</title>
<polygon fill="#ffffb3" stroke="black" points="367.95,-187 184.05,-187 184.05,-151 367.95,-151 367.95,-187"/>
<text text-anchor="middle" x="276" y="-164.8" font-family="Times,serif" font-size="14.00">NgDropdownOptionDirective</text>
</g>
<!-- NgDropdownOptionDirective&#45;&gt;JNetworkBootstrap3ListModule -->
<g id="edge4" class="edge">
<title>NgDropdownOptionDirective&#45;&gt;JNetworkBootstrap3ListModule</title>
<path fill="none" stroke="black" d="M326.81,-187.03C326.81,-203.4 326.81,-225 326.81,-225 326.81,-225 433.22,-225 433.22,-225"/>
<polygon fill="black" stroke="black" points="433.22,-228.5 443.22,-225 433.22,-221.5 433.22,-228.5"/>
</g>
<!-- NgListboxComponent -->
<g id="node3" class="node">
<title>NgListboxComponent</title>
<polygon fill="#ffffb3" stroke="black" points="165.72,-187 24.28,-187 24.28,-151 165.72,-151 165.72,-187"/>
<text text-anchor="middle" x="95" y="-164.8" font-family="Times,serif" font-size="14.00">NgListboxComponent</text>
</g>
<!-- NgListboxComponent&#45;&gt;JNetworkBootstrap3ListModule -->
<g id="edge5" class="edge">
<title>NgListboxComponent&#45;&gt;JNetworkBootstrap3ListModule</title>
<path fill="none" stroke="black" d="M95,-187.11C95,-206.34 95,-234 95,-234 95,-234 433.35,-234 433.35,-234"/>
<polygon fill="black" stroke="black" points="433.35,-237.5 443.35,-234 433.35,-230.5 433.35,-237.5"/>
</g>
<!-- NgDropdownComponent  -->
<g id="node8" class="node">
<title>NgDropdownComponent </title>
<polygon fill="#fb8072" stroke="black" points="815.81,-317 654.19,-317 654.19,-281 815.81,-281 815.81,-317"/>
<text text-anchor="middle" x="735" y="-294.8" font-family="Times,serif" font-size="14.00">NgDropdownComponent </text>
</g>
<!-- JNetworkBootstrap3ListModule&#45;&gt;NgDropdownComponent  -->
<g id="edge7" class="edge">
<title>JNetworkBootstrap3ListModule&#45;&gt;NgDropdownComponent </title>
<path fill="none" stroke="black" stroke-dasharray="5,2" d="M640.77,-243C667.64,-243 689.47,-243 689.47,-243 689.47,-243 689.47,-270.97 689.47,-270.97"/>
<polygon fill="black" stroke="black" points="685.97,-270.97 689.47,-280.97 692.97,-270.97 685.97,-270.97"/>
</g>
<!-- NgDropdownOptionDirective  -->
<g id="node9" class="node">
<title>NgDropdownOptionDirective </title>
<polygon fill="#fb8072" stroke="black" points="635.95,-317 448.05,-317 448.05,-281 635.95,-281 635.95,-317"/>
<text text-anchor="middle" x="542" y="-294.8" font-family="Times,serif" font-size="14.00">NgDropdownOptionDirective </text>
</g>
<!-- JNetworkBootstrap3ListModule&#45;&gt;NgDropdownOptionDirective  -->
<g id="edge8" class="edge">
<title>JNetworkBootstrap3ListModule&#45;&gt;NgDropdownOptionDirective </title>
<path fill="none" stroke="black" stroke-dasharray="5,2" d="M542,-252.11C542,-252.11 542,-270.99 542,-270.99"/>
<polygon fill="black" stroke="black" points="538.5,-270.99 542,-280.99 545.5,-270.99 538.5,-270.99"/>
</g>
<!-- NgListboxComponent  -->
<g id="node10" class="node">
<title>NgListboxComponent </title>
<polygon fill="#fb8072" stroke="black" points="430.22,-317 285.78,-317 285.78,-281 430.22,-281 430.22,-317"/>
<text text-anchor="middle" x="358" y="-294.8" font-family="Times,serif" font-size="14.00">NgListboxComponent </text>
</g>
<!-- JNetworkBootstrap3ListModule&#45;&gt;NgListboxComponent  -->
<g id="edge9" class="edge">
<title>JNetworkBootstrap3ListModule&#45;&gt;NgListboxComponent </title>
<path fill="none" stroke="black" stroke-dasharray="5,2" d="M443.28,-243C424.88,-243 411.31,-243 411.31,-243 411.31,-243 411.31,-270.97 411.31,-270.97"/>
<polygon fill="black" stroke="black" points="407.81,-270.97 411.31,-280.97 414.81,-270.97 407.81,-270.97"/>
</g>
<!-- { provide: NG_VALUE_ACCESSOR, multi: true, useExisting: NgDropdownComponent } -->
<g id="node5" class="node">
<title>{ provide: NG_VALUE_ACCESSOR, multi: true, useExisting: NgDropdownComponent }</title>
<ellipse fill="#fdb462" stroke="black" cx="1598" cy="-104" rx="364.36" ry="18"/>
<text text-anchor="middle" x="1598" y="-99.8" font-family="Times,serif" font-size="14.00">{ provide: NG_VALUE_ACCESSOR, multi: true, useExisting: NgDropdownComponent }</text>
</g>
<!-- { provide: NG_VALUE_ACCESSOR, multi: true, useExisting: NgDropdownComponent }&#45;&gt;NgDropdownComponent -->
<g id="edge2" class="edge">
<title>{ provide: NG_VALUE_ACCESSOR, multi: true, useExisting: NgDropdownComponent }&#45;&gt;NgDropdownComponent</title>
<path fill="none" stroke="black" d="M1598,-122.11C1598,-141.34 1598,-169 1598,-169 1598,-169 893.4,-169 893.4,-169"/>
<polygon fill="black" stroke="black" points="893.4,-165.5 883.4,-169 893.4,-172.5 893.4,-165.5"/>
</g>
<!-- { provide: NG_VALIDATORS, multi: true, useExisting: forwardRef(() =&gt; NgDropdownComponent) } -->
<g id="node6" class="node">
<title>{ provide: NG_VALIDATORS, multi: true, useExisting: forwardRef(() =&gt; NgDropdownComponent) }</title>
<ellipse fill="#fdb462" stroke="black" cx="804" cy="-104" rx="411.99" ry="18"/>
<text text-anchor="middle" x="804" y="-99.8" font-family="Times,serif" font-size="14.00">{ provide: NG_VALIDATORS, multi: true, useExisting: forwardRef(() =&gt; NgDropdownComponent) }</text>
</g>
<!-- { provide: NG_VALIDATORS, multi: true, useExisting: forwardRef(() =&gt; NgDropdownComponent) }&#45;&gt;NgDropdownComponent -->
<g id="edge3" class="edge">
<title>{ provide: NG_VALIDATORS, multi: true, useExisting: forwardRef(() =&gt; NgDropdownComponent) }&#45;&gt;NgDropdownComponent</title>
<path fill="none" stroke="black" d="M804,-122.11C804,-122.11 804,-140.99 804,-140.99"/>
<polygon fill="black" stroke="black" points="800.5,-140.99 804,-150.99 807.5,-140.99 800.5,-140.99"/>
</g>
<!-- JNetworkCommonListboxOptionModule -->
<g id="node7" class="node">
<title>JNetworkCommonListboxOptionModule</title>
<polygon fill="#8dd3c7" stroke="black" points="2233.76,-187 2230.76,-191 2209.76,-191 2206.76,-187 1986.24,-187 1986.24,-151 2233.76,-151 2233.76,-187"/>
<text text-anchor="middle" x="2110" y="-164.8" font-family="Times,serif" font-size="14.00">JNetworkCommonListboxOptionModule</text>
</g>
<!-- JNetworkCommonListboxOptionModule&#45;&gt;JNetworkBootstrap3ListModule -->
<g id="edge6" class="edge">
<title>JNetworkCommonListboxOptionModule&#45;&gt;JNetworkBootstrap3ListModule</title>
<path fill="none" stroke="black" d="M2110,-187.11C2110,-206.34 2110,-234 2110,-234 2110,-234 650.68,-234 650.68,-234"/>
<polygon fill="black" stroke="black" points="650.68,-230.5 640.68,-234 650.68,-237.5 650.68,-230.5"/>
</g>
</g>
</svg>
