<?xml version="1.0" encoding="UTF-8" standalone="no"?>
<!DOCTYPE svg PUBLIC "-//W3C//DTD SVG 1.1//EN"
 "http://www.w3.org/Graphics/SVG/1.1/DTD/svg11.dtd">
<!-- Generated by graphviz version 2.47.0 (20210316.0004)
 -->
<!-- Title: dependencies Pages: 1 -->
<svg width="504pt" height="284pt"
 viewBox="0.00 0.00 504.00 284.00" xmlns="http://www.w3.org/2000/svg" xmlns:xlink="http://www.w3.org/1999/xlink">
<g id="graph0" class="graph" transform="scale(1 1) rotate(0) translate(4 280)">
<title>dependencies</title>
<polygon fill="white" stroke="transparent" points="-4,4 -4,-280 500,-280 500,4 -4,4"/>
<text text-anchor="start" x="227.01" y="-42.4" font-family="Times-12" font-weight="bold" font-size="14.00">Legend</text>
<polygon fill="#ffffb3" stroke="transparent" points="14,-10 14,-30 34,-30 34,-10 14,-10"/>
<text text-anchor="start" x="37.63" y="-15.4" font-family="Times-12" font-size="14.00"> &#160;Declarations</text>
<polygon fill="#8dd3c7" stroke="transparent" points="127,-10 127,-30 147,-30 147,-10 127,-10"/>
<text text-anchor="start" x="150.73" y="-15.4" font-family="Times-12" font-size="14.00"> &#160;Module</text>
<polygon fill="#80b1d3" stroke="transparent" points="213,-10 213,-30 233,-30 233,-10 213,-10"/>
<text text-anchor="start" x="236.78" y="-15.4" font-family="Times-12" font-size="14.00"> &#160;Bootstrap</text>
<polygon fill="#fdb462" stroke="transparent" points="310,-10 310,-30 330,-30 330,-10 310,-10"/>
<text text-anchor="start" x="333.67" y="-15.4" font-family="Times-12" font-size="14.00"> &#160;Providers</text>
<polygon fill="#fb8072" stroke="transparent" points="406,-10 406,-30 426,-30 426,-10 406,-10"/>
<text text-anchor="start" x="429.73" y="-15.4" font-family="Times-12" font-size="14.00"> &#160;Exports</text>
<g id="clust1" class="cluster">
<title>cluster_SACBootstrap3FormModule</title>
<polygon fill="none" stroke="black" stroke-dasharray="1,5" points="43,-70 43,-268 453,-268 453,-70 43,-70"/>
</g>
<g id="clust2" class="cluster">
<title>cluster_SACBootstrap3FormModule_declarations</title>
<polygon fill="none" stroke="black" points="54,-78 54,-130 442,-130 442,-78 54,-78"/>
</g>
<g id="clust6" class="cluster">
<title>cluster_SACBootstrap3FormModule_exports</title>
<polygon fill="none" stroke="black" points="51,-208 51,-260 445,-260 445,-208 51,-208"/>
</g>
<!-- NgFormularDirective -->
<g id="node1" class="node">
<title>NgFormularDirective</title>
<polygon fill="#ffffb3" stroke="black" points="433.79,-122 296.21,-122 296.21,-86 433.79,-86 433.79,-122"/>
<text text-anchor="middle" x="365" y="-99.8" font-family="Times,serif" font-size="14.00">NgFormularDirective</text>
</g>
<!-- SACBootstrap3FormModule -->
<g id="node3" class="node">
<title>SACBootstrap3FormModule</title>
<polygon fill="#8dd3c7" stroke="black" points="260.05,-187 257.05,-191 236.05,-191 233.05,-187 81.95,-187 81.95,-151 260.05,-151 260.05,-187"/>
<text text-anchor="middle" x="171" y="-164.8" font-family="Times,serif" font-size="14.00">SACBootstrap3FormModule</text>
</g>
<!-- NgFormularDirective&#45;&gt;SACBootstrap3FormModule -->
<g id="edge1" class="edge">
<title>NgFormularDirective&#45;&gt;SACBootstrap3FormModule</title>
<path fill="none" stroke="black" d="M387.96,-122.02C387.96,-139.37 387.96,-163 387.96,-163 387.96,-163 270.19,-163 270.19,-163"/>
<polygon fill="black" stroke="black" points="270.19,-159.5 260.19,-163 270.19,-166.5 270.19,-159.5"/>
</g>
<!-- ProvideParentNgFormularDirective -->
<g id="node2" class="node">
<title>ProvideParentNgFormularDirective</title>
<polygon fill="#ffffb3" stroke="black" points="278.1,-122 61.9,-122 61.9,-86 278.1,-86 278.1,-122"/>
<text text-anchor="middle" x="170" y="-99.8" font-family="Times,serif" font-size="14.00">ProvideParentNgFormularDirective</text>
</g>
<!-- ProvideParentNgFormularDirective&#45;&gt;SACBootstrap3FormModule -->
<g id="edge2" class="edge">
<title>ProvideParentNgFormularDirective&#45;&gt;SACBootstrap3FormModule</title>
<path fill="none" stroke="black" d="M171,-122.11C171,-122.11 171,-140.99 171,-140.99"/>
<polygon fill="black" stroke="black" points="167.5,-140.99 171,-150.99 174.5,-140.99 167.5,-140.99"/>
</g>
<!-- NgFormularDirective  -->
<g id="node4" class="node">
<title>NgFormularDirective </title>
<polygon fill="#fb8072" stroke="black" points="437.29,-252 296.71,-252 296.71,-216 437.29,-216 437.29,-252"/>
<text text-anchor="middle" x="367" y="-229.8" font-family="Times,serif" font-size="14.00">NgFormularDirective </text>
</g>
<!-- SACBootstrap3FormModule&#45;&gt;NgFormularDirective  -->
<g id="edge3" class="edge">
<title>SACBootstrap3FormModule&#45;&gt;NgFormularDirective </title>
<path fill="none" stroke="black" stroke-dasharray="5,2" d="M260.15,-175C301.77,-175 342.29,-175 342.29,-175 342.29,-175 342.29,-205.98 342.29,-205.98"/>
<polygon fill="black" stroke="black" points="338.79,-205.98 342.29,-215.98 345.79,-205.98 338.79,-205.98"/>
</g>
<!-- ProvideParentNgFormularDirective  -->
<g id="node5" class="node">
<title>ProvideParentNgFormularDirective </title>
<polygon fill="#fb8072" stroke="black" points="279.1,-252 58.9,-252 58.9,-216 279.1,-216 279.1,-252"/>
<text text-anchor="middle" x="169" y="-229.8" font-family="Times,serif" font-size="14.00">ProvideParentNgFormularDirective </text>
</g>
<!-- SACBootstrap3FormModule&#45;&gt;ProvideParentNgFormularDirective  -->
<g id="edge4" class="edge">
<title>SACBootstrap3FormModule&#45;&gt;ProvideParentNgFormularDirective </title>
<path fill="none" stroke="black" stroke-dasharray="5,2" d="M171,-187.11C171,-187.11 171,-205.99 171,-205.99"/>
<polygon fill="black" stroke="black" points="167.5,-205.99 171,-215.99 174.5,-205.99 167.5,-205.99"/>
</g>
</g>
</svg>
