<?xml version="1.0" encoding="UTF-8" standalone="no"?>
<!DOCTYPE svg PUBLIC "-//W3C//DTD SVG 1.1//EN"
 "http://www.w3.org/Graphics/SVG/1.1/DTD/svg11.dtd">
<!-- Generated by graphviz version 2.47.3 (20210619.1520)
 -->
<!-- Title: dependencies Pages: 1 -->
<svg width="414pt" height="174pt"
 viewBox="0.00 0.00 414.00 173.80" xmlns="http://www.w3.org/2000/svg" xmlns:xlink="http://www.w3.org/1999/xlink">
<g id="graph0" class="graph" transform="scale(1 1) rotate(0) translate(4 169.8)">
<title>dependencies</title>
<polygon fill="white" stroke="transparent" points="-4,4 -4,-169.8 410,-169.8 410,4 -4,4"/>
<text text-anchor="middle" x="203" y="-8.2" font-family="sans-serif" font-size="14.00">dependencies</text>
<g id="clust1" class="cluster">
<title>cluster_CheckboxModule</title>
<polygon fill="none" stroke="black" stroke-dasharray="1,5" points="8,-32.8 8,-157.8 398,-157.8 398,-32.8 8,-32.8"/>
</g>
<g id="clust2" class="cluster">
<title>cluster_CheckboxModule_declarations</title>
<polygon fill="none" stroke="black" points="202,-40.8 202,-92.8 390,-92.8 390,-40.8 202,-40.8"/>
</g>
<g id="clust4" class="cluster">
<title>cluster_CheckboxModule_imports</title>
<polygon fill="none" stroke="black" points="16,-40.8 16,-92.8 194,-92.8 194,-40.8 16,-40.8"/>
</g>
<!-- DemoCheckboxComponent -->
<g id="node1" class="node">
<title>DemoCheckboxComponent</title>
<polygon fill="#ffffb3" stroke="black" points="382.31,-84.8 209.69,-84.8 209.69,-48.8 382.31,-48.8 382.31,-84.8"/>
<text text-anchor="middle" x="296" y="-62.6" font-family="Times,serif" font-size="14.00">DemoCheckboxComponent</text>
</g>
<!-- CheckboxModule -->
<g id="node2" class="node">
<title>CheckboxModule</title>
<polygon fill="#8dd3c7" stroke="black" points="258.32,-149.8 255.32,-153.8 234.32,-153.8 231.32,-149.8 141.68,-149.8 141.68,-113.8 258.32,-113.8 258.32,-149.8"/>
<text text-anchor="middle" x="200" y="-127.6" font-family="Times,serif" font-size="14.00">CheckboxModule</text>
</g>
<!-- DemoCheckboxComponent&#45;&gt;CheckboxModule -->
<g id="edge1" class="edge">
<title>DemoCheckboxComponent&#45;&gt;CheckboxModule</title>
<path fill="none" stroke="black" d="M234,-84.91C234,-84.91 234,-103.79 234,-103.79"/>
<polygon fill="black" stroke="black" points="230.5,-103.79 234,-113.79 237.5,-103.79 230.5,-103.79"/>
</g>
<!-- CheckboxRoutingModule -->
<g id="node3" class="node">
<title>CheckboxRoutingModule</title>
<polygon fill="#8dd3c7" stroke="black" points="185.93,-84.8 182.93,-88.8 161.93,-88.8 158.93,-84.8 24.07,-84.8 24.07,-48.8 185.93,-48.8 185.93,-84.8"/>
<text text-anchor="middle" x="105" y="-62.6" font-family="Times,serif" font-size="14.00">CheckboxRoutingModule</text>
</g>
<!-- CheckboxRoutingModule&#45;&gt;CheckboxModule -->
<g id="edge2" class="edge">
<title>CheckboxRoutingModule&#45;&gt;CheckboxModule</title>
<path fill="none" stroke="black" d="M163.78,-84.91C163.78,-84.91 163.78,-103.79 163.78,-103.79"/>
<polygon fill="black" stroke="black" points="160.28,-103.79 163.78,-113.79 167.28,-103.79 160.28,-103.79"/>
</g>
</g>
</svg>
