<?xml version="1.0" encoding="UTF-8" standalone="no"?>
<!DOCTYPE svg PUBLIC "-//W3C//DTD SVG 1.1//EN"
 "http://www.w3.org/Graphics/SVG/1.1/DTD/svg11.dtd">
<!-- Generated by graphviz version 2.40.1 (20161225.0304)
 -->
<!-- Title: dependencies Pages: 1 -->
<svg width="1626pt" height="349pt"
 viewBox="0.00 0.00 1626.00 349.00" xmlns="http://www.w3.org/2000/svg" xmlns:xlink="http://www.w3.org/1999/xlink">
<g id="graph0" class="graph" transform="scale(1 1) rotate(0) translate(4 345)">
<title>dependencies</title>
<polygon fill="#ffffff" stroke="transparent" points="-4,4 -4,-345 1622,-345 1622,4 -4,4"/>
<text text-anchor="start" x="788.0091" y="-42.4" font-family="sans-serif" font-weight="bold" font-size="14.00" fill="#000000">Legend</text>
<polygon fill="#ffffb3" stroke="transparent" points="575,-10 575,-30 595,-30 595,-10 575,-10"/>
<text text-anchor="start" x="598.629" y="-15.4" font-family="sans-serif" font-size="14.00" fill="#000000"> &#160;Declarations</text>
<polygon fill="#8dd3c7" stroke="transparent" points="688,-10 688,-30 708,-30 708,-10 688,-10"/>
<text text-anchor="start" x="711.7251" y="-15.4" font-family="sans-serif" font-size="14.00" fill="#000000"> &#160;Module</text>
<polygon fill="#80b1d3" stroke="transparent" points="774,-10 774,-30 794,-30 794,-10 774,-10"/>
<text text-anchor="start" x="797.7812" y="-15.4" font-family="sans-serif" font-size="14.00" fill="#000000"> &#160;Bootstrap</text>
<polygon fill="#fdb462" stroke="transparent" points="871,-10 871,-30 891,-30 891,-10 871,-10"/>
<text text-anchor="start" x="894.6732" y="-15.4" font-family="sans-serif" font-size="14.00" fill="#000000"> &#160;Providers</text>
<polygon fill="#fb8072" stroke="transparent" points="967,-10 967,-30 987,-30 987,-10 967,-10"/>
<text text-anchor="start" x="990.7258" y="-15.4" font-family="sans-serif" font-size="14.00" fill="#000000"> &#160;Exports</text>
<g id="clust1" class="cluster">
<title>cluster_JNetworkBootstrap4ListModule</title>
<polygon fill="none" stroke="#000000" stroke-dasharray="1,5" points="8,-70 8,-333 1610,-333 1610,-70 8,-70"/>
</g>
<g id="clust2" class="cluster">
<title>cluster_JNetworkBootstrap4ListModule_declarations</title>
<polygon fill="none" stroke="#000000" points="400,-143 400,-195 936,-195 936,-143 400,-143"/>
</g>
<g id="clust3" class="cluster">
<title>cluster_JNetworkBootstrap4ListModule_NgDropdownComponent_providers</title>
<polygon fill="none" stroke="#000000" points="16,-78 16,-130 1602,-130 1602,-78 16,-78"/>
</g>
<g id="clust7" class="cluster">
<title>cluster_JNetworkBootstrap4ListModule_exports</title>
<polygon fill="none" stroke="#000000" points="396,-273 396,-325 942,-325 942,-273 396,-273"/>
</g>
<!-- NgDropdownComponent -->
<g id="node1" class="node">
<title>NgDropdownComponent</title>
<polygon fill="#ffffb3" stroke="#000000" points="928.3131,-187 769.6869,-187 769.6869,-151 928.3131,-151 928.3131,-187"/>
<text text-anchor="middle" x="849" y="-164.8" font-family="Times,serif" font-size="14.00" fill="#000000">NgDropdownComponent</text>
</g>
<!-- JNetworkBootstrap4ListModule -->
<g id="node4" class="node">
<title>JNetworkBootstrap4ListModule</title>
<polygon fill="#8dd3c7" stroke="#000000" points="758.6895,-252 755.6895,-256 734.6895,-256 731.6895,-252 561.3105,-252 561.3105,-216 758.6895,-216 758.6895,-252"/>
<text text-anchor="middle" x="660" y="-229.8" font-family="Times,serif" font-size="14.00" fill="#000000">JNetworkBootstrap4ListModule</text>
</g>
<!-- NgDropdownComponent&#45;&gt;JNetworkBootstrap4ListModule -->
<g id="edge1" class="edge">
<title>NgDropdownComponent&#45;&gt;JNetworkBootstrap4ListModule</title>
<path fill="none" stroke="#000000" d="M876.1355,-187.0225C876.1355,-204.3734 876.1355,-228 876.1355,-228 876.1355,-228 768.896,-228 768.896,-228"/>
<polygon fill="#000000" stroke="#000000" points="768.8961,-224.5001 758.896,-228 768.896,-231.5001 768.8961,-224.5001"/>
</g>
<!-- NgDropdownOptionDirective -->
<g id="node2" class="node">
<title>NgDropdownOptionDirective</title>
<polygon fill="#ffffb3" stroke="#000000" points="751.951,-187 568.049,-187 568.049,-151 751.951,-151 751.951,-187"/>
<text text-anchor="middle" x="660" y="-164.8" font-family="Times,serif" font-size="14.00" fill="#000000">NgDropdownOptionDirective</text>
</g>
<!-- NgDropdownOptionDirective&#45;&gt;JNetworkBootstrap4ListModule -->
<g id="edge4" class="edge">
<title>NgDropdownOptionDirective&#45;&gt;JNetworkBootstrap4ListModule</title>
<path fill="none" stroke="#000000" d="M660,-187.1061C660,-187.1061 660,-205.991 660,-205.991"/>
<polygon fill="#000000" stroke="#000000" points="656.5001,-205.9909 660,-215.991 663.5001,-205.991 656.5001,-205.9909"/>
</g>
<!-- NgListboxComponent -->
<g id="node3" class="node">
<title>NgListboxComponent</title>
<polygon fill="#ffffb3" stroke="#000000" points="549.7176,-187 408.2824,-187 408.2824,-151 549.7176,-151 549.7176,-187"/>
<text text-anchor="middle" x="479" y="-164.8" font-family="Times,serif" font-size="14.00" fill="#000000">NgListboxComponent</text>
</g>
<!-- NgListboxComponent&#45;&gt;JNetworkBootstrap4ListModule -->
<g id="edge5" class="edge">
<title>NgListboxComponent&#45;&gt;JNetworkBootstrap4ListModule</title>
<path fill="none" stroke="#000000" d="M501.7029,-187.0225C501.7029,-204.3734 501.7029,-228 501.7029,-228 501.7029,-228 551.0973,-228 551.0973,-228"/>
<polygon fill="#000000" stroke="#000000" points="551.0973,-231.5001 561.0973,-228 551.0972,-224.5001 551.0973,-231.5001"/>
</g>
<!-- NgDropdownComponent  -->
<g id="node7" class="node">
<title>NgDropdownComponent </title>
<polygon fill="#fb8072" stroke="#000000" points="933.8129,-317 772.1871,-317 772.1871,-281 933.8129,-281 933.8129,-317"/>
<text text-anchor="middle" x="853" y="-294.8" font-family="Times,serif" font-size="14.00" fill="#000000">NgDropdownComponent </text>
</g>
<!-- JNetworkBootstrap4ListModule&#45;&gt;NgDropdownComponent  -->
<g id="edge6" class="edge">
<title>JNetworkBootstrap4ListModule&#45;&gt;NgDropdownComponent </title>
<path fill="none" stroke="#000000" stroke-dasharray="5,2" d="M758.7806,-240C793.5378,-240 824.1145,-240 824.1145,-240 824.1145,-240 824.1145,-270.9775 824.1145,-270.9775"/>
<polygon fill="#000000" stroke="#000000" points="820.6146,-270.9774 824.1145,-280.9775 827.6146,-270.9775 820.6146,-270.9774"/>
</g>
<!-- NgDropdownOptionDirective  -->
<g id="node8" class="node">
<title>NgDropdownOptionDirective </title>
<polygon fill="#fb8072" stroke="#000000" points="753.9515,-317 566.0485,-317 566.0485,-281 753.9515,-281 753.9515,-317"/>
<text text-anchor="middle" x="660" y="-294.8" font-family="Times,serif" font-size="14.00" fill="#000000">NgDropdownOptionDirective </text>
</g>
<!-- JNetworkBootstrap4ListModule&#45;&gt;NgDropdownOptionDirective  -->
<g id="edge7" class="edge">
<title>JNetworkBootstrap4ListModule&#45;&gt;NgDropdownOptionDirective </title>
<path fill="none" stroke="#000000" stroke-dasharray="5,2" d="M660,-252.1061C660,-252.1061 660,-270.991 660,-270.991"/>
<polygon fill="#000000" stroke="#000000" points="656.5001,-270.9909 660,-280.991 663.5001,-270.991 656.5001,-270.9909"/>
</g>
<!-- NgListboxComponent  -->
<g id="node9" class="node">
<title>NgListboxComponent </title>
<polygon fill="#fb8072" stroke="#000000" points="548.2177,-317 403.7823,-317 403.7823,-281 548.2177,-281 548.2177,-317"/>
<text text-anchor="middle" x="476" y="-294.8" font-family="Times,serif" font-size="14.00" fill="#000000">NgListboxComponent </text>
</g>
<!-- JNetworkBootstrap4ListModule&#45;&gt;NgListboxComponent  -->
<g id="edge8" class="edge">
<title>JNetworkBootstrap4ListModule&#45;&gt;NgListboxComponent </title>
<path fill="none" stroke="#000000" stroke-dasharray="5,2" d="M561.1256,-240C508.7153,-240 455.0471,-240 455.0471,-240 455.0471,-240 455.0471,-270.9775 455.0471,-270.9775"/>
<polygon fill="#000000" stroke="#000000" points="451.5472,-270.9774 455.0471,-280.9775 458.5472,-270.9775 451.5472,-270.9774"/>
</g>
<!-- { provide: NG_VALUE_ACCESSOR, multi: true, useExisting: NgDropdownComponent } -->
<g id="node5" class="node">
<title>{ provide: NG_VALUE_ACCESSOR, multi: true, useExisting: NgDropdownComponent }</title>
<ellipse fill="#fdb462" stroke="#000000" cx="1230" cy="-104" rx="364.3551" ry="18"/>
<text text-anchor="middle" x="1230" y="-99.8" font-family="Times,serif" font-size="14.00" fill="#000000">{ provide: NG_VALUE_ACCESSOR, multi: true, useExisting: NgDropdownComponent }</text>
</g>
<!-- { provide: NG_VALUE_ACCESSOR, multi: true, useExisting: NgDropdownComponent }&#45;&gt;NgDropdownComponent -->
<g id="edge2" class="edge">
<title>{ provide: NG_VALUE_ACCESSOR, multi: true, useExisting: NgDropdownComponent }&#45;&gt;NgDropdownComponent</title>
<path fill="none" stroke="#000000" d="M896.8644,-111.4563C896.8644,-111.4563 896.8644,-140.8372 896.8644,-140.8372"/>
<polygon fill="#000000" stroke="#000000" points="893.3645,-140.8371 896.8644,-150.8372 900.3645,-140.8372 893.3645,-140.8371"/>
</g>
<!-- { provide: NG_VALIDATORS, multi: true, useExisting: forwardRef(() =&gt; NgDropdownComponent) } -->
<g id="node6" class="node">
<title>{ provide: NG_VALIDATORS, multi: true, useExisting: forwardRef(() =&gt; NgDropdownComponent) }</title>
<ellipse fill="#fdb462" stroke="#000000" cx="436" cy="-104" rx="411.9914" ry="18"/>
<text text-anchor="middle" x="436" y="-99.8" font-family="Times,serif" font-size="14.00" fill="#000000">{ provide: NG_VALIDATORS, multi: true, useExisting: forwardRef(() =&gt; NgDropdownComponent) }</text>
</g>
<!-- { provide: NG_VALIDATORS, multi: true, useExisting: forwardRef(() =&gt; NgDropdownComponent) }&#45;&gt;NgDropdownComponent -->
<g id="edge3" class="edge">
<title>{ provide: NG_VALIDATORS, multi: true, useExisting: forwardRef(() =&gt; NgDropdownComponent) }&#45;&gt;NgDropdownComponent</title>
<path fill="none" stroke="#000000" d="M808.7946,-111.7116C808.7946,-111.7116 808.7946,-140.9896 808.7946,-140.9896"/>
<polygon fill="#000000" stroke="#000000" points="805.2947,-140.9896 808.7946,-150.9896 812.2947,-140.9897 805.2947,-140.9896"/>
</g>
</g>
</svg>
