<?xml version="1.0" encoding="UTF-8" standalone="no"?>
<!DOCTYPE svg PUBLIC "-//W3C//DTD SVG 1.1//EN"
 "http://www.w3.org/Graphics/SVG/1.1/DTD/svg11.dtd">
<!-- Generated by graphviz version 2.40.1 (20161225.0304)
 -->
<!-- Title: dependencies Pages: 1 -->
<svg width="1446pt" height="349pt"
 viewBox="0.00 0.00 1446.00 349.00" xmlns="http://www.w3.org/2000/svg" xmlns:xlink="http://www.w3.org/1999/xlink">
<g id="graph0" class="graph" transform="scale(1 1) rotate(0) translate(4 345)">
<title>dependencies</title>
<polygon fill="#ffffff" stroke="transparent" points="-4,4 -4,-345 1442,-345 1442,4 -4,4"/>
<text text-anchor="start" x="698.0091" y="-42.4" font-family="sans-serif" font-weight="bold" font-size="14.00" fill="#000000">Legend</text>
<polygon fill="#ffffb3" stroke="transparent" points="485,-10 485,-30 505,-30 505,-10 485,-10"/>
<text text-anchor="start" x="508.629" y="-15.4" font-family="sans-serif" font-size="14.00" fill="#000000"> &#160;Declarations</text>
<polygon fill="#8dd3c7" stroke="transparent" points="598,-10 598,-30 618,-30 618,-10 598,-10"/>
<text text-anchor="start" x="621.7251" y="-15.4" font-family="sans-serif" font-size="14.00" fill="#000000"> &#160;Module</text>
<polygon fill="#80b1d3" stroke="transparent" points="684,-10 684,-30 704,-30 704,-10 684,-10"/>
<text text-anchor="start" x="707.7812" y="-15.4" font-family="sans-serif" font-size="14.00" fill="#000000"> &#160;Bootstrap</text>
<polygon fill="#fdb462" stroke="transparent" points="781,-10 781,-30 801,-30 801,-10 781,-10"/>
<text text-anchor="start" x="804.6732" y="-15.4" font-family="sans-serif" font-size="14.00" fill="#000000"> &#160;Providers</text>
<polygon fill="#fb8072" stroke="transparent" points="877,-10 877,-30 897,-30 897,-10 877,-10"/>
<text text-anchor="start" x="900.7258" y="-15.4" font-family="sans-serif" font-size="14.00" fill="#000000"> &#160;Exports</text>
<g id="clust1" class="cluster">
<title>cluster_jNetworkBootstrap4ListModule</title>
<polygon fill="none" stroke="#000000" stroke-dasharray="1,5" points="8,-70 8,-333 1430,-333 1430,-70 8,-70"/>
</g>
<g id="clust2" class="cluster">
<title>cluster_jNetworkBootstrap4ListModule_declarations</title>
<polygon fill="none" stroke="#000000" points="445,-143 445,-195 797,-195 797,-143 445,-143"/>
</g>
<g id="clust3" class="cluster">
<title>cluster_jNetworkBootstrap4ListModule_NgDropdown_providers</title>
<polygon fill="none" stroke="#000000" points="16,-78 16,-130 1422,-130 1422,-78 16,-78"/>
</g>
<g id="clust7" class="cluster">
<title>cluster_jNetworkBootstrap4ListModule_exports</title>
<polygon fill="none" stroke="#000000" points="440,-273 440,-325 803,-325 803,-273 440,-273"/>
</g>
<!-- NgDropdown -->
<g id="node1" class="node">
<title>NgDropdown</title>
<polygon fill="#ffffb3" stroke="#000000" points="789.4804,-187 696.5196,-187 696.5196,-151 789.4804,-151 789.4804,-187"/>
<text text-anchor="middle" x="743" y="-164.8" font-family="Times,serif" font-size="14.00" fill="#000000">NgDropdown</text>
</g>
<!-- jNetworkBootstrap4ListModule -->
<g id="node4" class="node">
<title>jNetworkBootstrap4ListModule</title>
<polygon fill="#8dd3c7" stroke="#000000" points="710.6357,-252 707.6357,-256 686.6357,-256 683.6357,-252 515.3643,-252 515.3643,-216 710.6357,-216 710.6357,-252"/>
<text text-anchor="middle" x="613" y="-229.8" font-family="Times,serif" font-size="14.00" fill="#000000">jNetworkBootstrap4ListModule</text>
</g>
<!-- NgDropdown&#45;&gt;jNetworkBootstrap4ListModule -->
<g id="edge1" class="edge">
<title>NgDropdown&#45;&gt;jNetworkBootstrap4ListModule</title>
<path fill="none" stroke="#000000" d="M703.6638,-187.1061C703.6638,-187.1061 703.6638,-205.991 703.6638,-205.991"/>
<polygon fill="#000000" stroke="#000000" points="700.1638,-205.9909 703.6638,-215.991 707.1638,-205.991 700.1638,-205.9909"/>
</g>
<!-- NgDropdownOption -->
<g id="node2" class="node">
<title>NgDropdownOption</title>
<polygon fill="#ffffb3" stroke="#000000" points="678.8683,-187 547.1317,-187 547.1317,-151 678.8683,-151 678.8683,-187"/>
<text text-anchor="middle" x="613" y="-164.8" font-family="Times,serif" font-size="14.00" fill="#000000">NgDropdownOption</text>
</g>
<!-- NgDropdownOption&#45;&gt;jNetworkBootstrap4ListModule -->
<g id="edge4" class="edge">
<title>NgDropdownOption&#45;&gt;jNetworkBootstrap4ListModule</title>
<path fill="none" stroke="#000000" d="M613,-187.1061C613,-187.1061 613,-205.991 613,-205.991"/>
<polygon fill="#000000" stroke="#000000" points="609.5001,-205.9909 613,-215.991 616.5001,-205.991 609.5001,-205.9909"/>
</g>
<!-- NgListbox -->
<g id="node3" class="node">
<title>NgListbox</title>
<polygon fill="#ffffb3" stroke="#000000" points="528.8851,-187 453.1149,-187 453.1149,-151 528.8851,-151 528.8851,-187"/>
<text text-anchor="middle" x="491" y="-164.8" font-family="Times,serif" font-size="14.00" fill="#000000">NgListbox</text>
</g>
<!-- NgListbox&#45;&gt;jNetworkBootstrap4ListModule -->
<g id="edge5" class="edge">
<title>NgListbox&#45;&gt;jNetworkBootstrap4ListModule</title>
<path fill="none" stroke="#000000" d="M522.0624,-187.1061C522.0624,-187.1061 522.0624,-205.991 522.0624,-205.991"/>
<polygon fill="#000000" stroke="#000000" points="518.5625,-205.9909 522.0624,-215.991 525.5625,-205.991 518.5625,-205.9909"/>
</g>
<!-- NgDropdown  -->
<g id="node7" class="node">
<title>NgDropdown </title>
<polygon fill="#fb8072" stroke="#000000" points="795.4816,-317 698.5184,-317 698.5184,-281 795.4816,-281 795.4816,-317"/>
<text text-anchor="middle" x="747" y="-294.8" font-family="Times,serif" font-size="14.00" fill="#000000">NgDropdown </text>
</g>
<!-- jNetworkBootstrap4ListModule&#45;&gt;NgDropdown  -->
<g id="edge6" class="edge">
<title>jNetworkBootstrap4ListModule&#45;&gt;NgDropdown </title>
<path fill="none" stroke="#000000" stroke-dasharray="5,2" d="M704.7888,-252.1061C704.7888,-252.1061 704.7888,-270.991 704.7888,-270.991"/>
<polygon fill="#000000" stroke="#000000" points="701.2888,-270.9909 704.7888,-280.991 708.2888,-270.991 701.2888,-270.9909"/>
</g>
<!-- NgDropdownOption  -->
<g id="node8" class="node">
<title>NgDropdownOption </title>
<polygon fill="#fb8072" stroke="#000000" points="680.8687,-317 545.1313,-317 545.1313,-281 680.8687,-281 680.8687,-317"/>
<text text-anchor="middle" x="613" y="-294.8" font-family="Times,serif" font-size="14.00" fill="#000000">NgDropdownOption </text>
</g>
<!-- jNetworkBootstrap4ListModule&#45;&gt;NgDropdownOption  -->
<g id="edge7" class="edge">
<title>jNetworkBootstrap4ListModule&#45;&gt;NgDropdownOption </title>
<path fill="none" stroke="#000000" stroke-dasharray="5,2" d="M613,-252.1061C613,-252.1061 613,-270.991 613,-270.991"/>
<polygon fill="#000000" stroke="#000000" points="609.5001,-270.9909 613,-280.991 616.5001,-270.991 609.5001,-270.9909"/>
</g>
<!-- NgListbox  -->
<g id="node9" class="node">
<title>NgListbox </title>
<polygon fill="#fb8072" stroke="#000000" points="527.8859,-317 448.1141,-317 448.1141,-281 527.8859,-281 527.8859,-317"/>
<text text-anchor="middle" x="488" y="-294.8" font-family="Times,serif" font-size="14.00" fill="#000000">NgListbox </text>
</g>
<!-- jNetworkBootstrap4ListModule&#45;&gt;NgListbox  -->
<g id="edge8" class="edge">
<title>jNetworkBootstrap4ListModule&#45;&gt;NgListbox </title>
<path fill="none" stroke="#000000" stroke-dasharray="5,2" d="M521.4374,-252.1061C521.4374,-252.1061 521.4374,-270.991 521.4374,-270.991"/>
<polygon fill="#000000" stroke="#000000" points="517.9375,-270.9909 521.4374,-280.991 524.9375,-270.991 517.9375,-270.9909"/>
</g>
<!-- { provide: NG_VALUE_ACCESSOR, multi: true, useExisting: NgDropdown } -->
<g id="node5" class="node">
<title>{ provide: NG_VALUE_ACCESSOR, multi: true, useExisting: NgDropdown }</title>
<ellipse fill="#fdb462" stroke="#000000" cx="1095" cy="-104" rx="319.225" ry="18"/>
<text text-anchor="middle" x="1095" y="-99.8" font-family="Times,serif" font-size="14.00" fill="#000000">{ provide: NG_VALUE_ACCESSOR, multi: true, useExisting: NgDropdown }</text>
</g>
<!-- { provide: NG_VALUE_ACCESSOR, multi: true, useExisting: NgDropdown }&#45;&gt;NgDropdown -->
<g id="edge2" class="edge">
<title>{ provide: NG_VALUE_ACCESSOR, multi: true, useExisting: NgDropdown }&#45;&gt;NgDropdown</title>
<path fill="none" stroke="#000000" d="M782.5639,-107.8714C782.5639,-107.8714 782.5639,-140.7507 782.5639,-140.7507"/>
<polygon fill="#000000" stroke="#000000" points="779.064,-140.7506 782.5639,-150.7507 786.064,-140.7507 779.064,-140.7506"/>
</g>
<!-- { provide: NG_VALIDATORS, multi: true, useExisting: forwardRef(() =&gt; NgDropdown) } -->
<g id="node6" class="node">
<title>{ provide: NG_VALIDATORS, multi: true, useExisting: forwardRef(() =&gt; NgDropdown) }</title>
<ellipse fill="#fdb462" stroke="#000000" cx="391" cy="-104" rx="366.8612" ry="18"/>
<text text-anchor="middle" x="391" y="-99.8" font-family="Times,serif" font-size="14.00" fill="#000000">{ provide: NG_VALIDATORS, multi: true, useExisting: forwardRef(() =&gt; NgDropdown) }</text>
</g>
<!-- { provide: NG_VALIDATORS, multi: true, useExisting: forwardRef(() =&gt; NgDropdown) }&#45;&gt;NgDropdown -->
<g id="edge3" class="edge">
<title>{ provide: NG_VALIDATORS, multi: true, useExisting: forwardRef(() =&gt; NgDropdown) }&#45;&gt;NgDropdown</title>
<path fill="none" stroke="#000000" d="M727.0952,-111.2045C727.0952,-111.2045 727.0952,-140.9586 727.0952,-140.9586"/>
<polygon fill="#000000" stroke="#000000" points="723.5953,-140.9586 727.0952,-150.9586 730.5953,-140.9587 723.5953,-140.9586"/>
</g>
</g>
</svg>
