<?xml version="1.0" encoding="UTF-8" standalone="no"?>
<!DOCTYPE svg PUBLIC "-//W3C//DTD SVG 1.1//EN"
 "http://www.w3.org/Graphics/SVG/1.1/DTD/svg11.dtd">
<!-- Generated by graphviz version 2.46.0 (20210119.1425)
 -->
<!-- Title: dependencies Pages: 1 -->
<svg width="1769pt" height="276pt"
 viewBox="0.00 0.00 1769.00 276.00" xmlns="http://www.w3.org/2000/svg" xmlns:xlink="http://www.w3.org/1999/xlink">
<g id="graph0" class="graph" transform="scale(1 1) rotate(0) translate(4 272)">
<title>dependencies</title>
<polygon fill="white" stroke="transparent" points="-4,4 -4,-272 1765,-272 1765,4 -4,4"/>
<text text-anchor="start" x="859.51" y="-42.4" font-family="sans-serif" font-weight="bold" font-size="14.00">Legend</text>
<polygon fill="#ffffb3" stroke="transparent" points="646.5,-10 646.5,-30 666.5,-30 666.5,-10 646.5,-10"/>
<text text-anchor="start" x="670.13" y="-15.4" font-family="sans-serif" font-size="14.00"> &#160;Declarations</text>
<polygon fill="#8dd3c7" stroke="transparent" points="759.5,-10 759.5,-30 779.5,-30 779.5,-10 759.5,-10"/>
<text text-anchor="start" x="783.23" y="-15.4" font-family="sans-serif" font-size="14.00"> &#160;Module</text>
<polygon fill="#80b1d3" stroke="transparent" points="845.5,-10 845.5,-30 865.5,-30 865.5,-10 845.5,-10"/>
<text text-anchor="start" x="869.28" y="-15.4" font-family="sans-serif" font-size="14.00"> &#160;Bootstrap</text>
<polygon fill="#fdb462" stroke="transparent" points="942.5,-10 942.5,-30 962.5,-30 962.5,-10 942.5,-10"/>
<text text-anchor="start" x="966.17" y="-15.4" font-family="sans-serif" font-size="14.00"> &#160;Providers</text>
<polygon fill="#fb8072" stroke="transparent" points="1038.5,-10 1038.5,-30 1058.5,-30 1058.5,-10 1038.5,-10"/>
<text text-anchor="start" x="1062.23" y="-15.4" font-family="sans-serif" font-size="14.00"> &#160;Exports</text>
<g id="clust1" class="cluster">
<title>cluster_JNetworkBootstrap4FormModule</title>
<polygon fill="none" stroke="black" stroke-dasharray="1,5" points="8,-70 8,-260 1753,-260 1753,-70 8,-70"/>
</g>
<g id="clust2" class="cluster">
<title>cluster_JNetworkBootstrap4FormModule_declarations</title>
<polygon fill="none" stroke="black" points="683,-143 683,-195 1071,-195 1071,-143 683,-143"/>
</g>
<g id="clust4" class="cluster">
<title>cluster_JNetworkBootstrap4FormModule_ProvideParentNgFormularDirective_providers</title>
<polygon fill="none" stroke="black" points="16,-78 16,-130 1745,-130 1745,-78 16,-78"/>
</g>
<!-- NgFormularDirective -->
<g id="node1" class="node">
<title>NgFormularDirective</title>
<polygon fill="#ffffb3" stroke="black" points="1062.79,-187 925.21,-187 925.21,-151 1062.79,-151 1062.79,-187"/>
<text text-anchor="middle" x="994" y="-164.8" font-family="Times,serif" font-size="14.00">NgFormularDirective</text>
</g>
<!-- JNetworkBootstrap4FormModule -->
<g id="node3" class="node">
<title>JNetworkBootstrap4FormModule</title>
<polygon fill="#8dd3c7" stroke="black" points="998.74,-252 995.74,-256 974.74,-256 971.74,-252 793.26,-252 793.26,-216 998.74,-216 998.74,-252"/>
<text text-anchor="middle" x="896" y="-229.8" font-family="Times,serif" font-size="14.00">JNetworkBootstrap4FormModule</text>
</g>
<!-- NgFormularDirective&#45;&gt;JNetworkBootstrap4FormModule -->
<g id="edge1" class="edge">
<title>NgFormularDirective&#45;&gt;JNetworkBootstrap4FormModule</title>
<path fill="none" stroke="black" d="M962.11,-187.11C962.11,-187.11 962.11,-205.99 962.11,-205.99"/>
<polygon fill="black" stroke="black" points="958.61,-205.99 962.11,-215.99 965.61,-205.99 958.61,-205.99"/>
</g>
<!-- ProvideParentNgFormularDirective -->
<g id="node2" class="node">
<title>ProvideParentNgFormularDirective</title>
<polygon fill="#ffffb3" stroke="black" points="907.1,-187 690.9,-187 690.9,-151 907.1,-151 907.1,-187"/>
<text text-anchor="middle" x="799" y="-164.8" font-family="Times,serif" font-size="14.00">ProvideParentNgFormularDirective</text>
</g>
<!-- ProvideParentNgFormularDirective&#45;&gt;JNetworkBootstrap4FormModule -->
<g id="edge2" class="edge">
<title>ProvideParentNgFormularDirective&#45;&gt;JNetworkBootstrap4FormModule</title>
<path fill="none" stroke="black" d="M850.21,-187.11C850.21,-187.11 850.21,-205.99 850.21,-205.99"/>
<polygon fill="black" stroke="black" points="846.71,-205.99 850.21,-215.99 853.71,-205.99 846.71,-205.99"/>
</g>
<!-- { &#160;&#160;&#160;provide: NgFormularDirective, useFactory: NGFORMULAR_FACTORY, deps: [[new SkipSelf(), NgFormularDirective]]} -->
<g id="node4" class="node">
<title>{ &#160;&#160;&#160;provide: NgFormularDirective, useFactory: NGFORMULAR_FACTORY, deps: [[new SkipSelf(), NgFormularDirective]]}</title>
<ellipse fill="#fdb462" stroke="black" cx="1232" cy="-104" rx="505.33" ry="18"/>
<text text-anchor="middle" x="1232" y="-99.8" font-family="Times,serif" font-size="14.00">{ &#160;&#160;&#160;provide: NgFormularDirective, useFactory: NGFORMULAR_FACTORY, deps: [[new SkipSelf(), NgFormularDirective]]}</text>
</g>
<!-- { &#160;&#160;&#160;provide: NgFormularDirective, useFactory: NGFORMULAR_FACTORY, deps: [[new SkipSelf(), NgFormularDirective]]}&#45;&gt;ProvideParentNgFormularDirective -->
<g id="edge3" class="edge">
<title>{ &#160;&#160;&#160;provide: NgFormularDirective, useFactory: NGFORMULAR_FACTORY, deps: [[new SkipSelf(), NgFormularDirective]]}&#45;&gt;ProvideParentNgFormularDirective</title>
<path fill="none" stroke="black" d="M817.07,-114.44C817.07,-114.44 817.07,-140.97 817.07,-140.97"/>
<polygon fill="black" stroke="black" points="813.57,-140.97 817.07,-150.97 820.57,-140.97 813.57,-140.97"/>
</g>
<!-- { &#160;&#160;&#160;provide: ControlContainer, useFactory: NGFORM_FACTORY, deps: [NgForm]} -->
<g id="node5" class="node">
<title>{ &#160;&#160;&#160;provide: ControlContainer, useFactory: NGFORM_FACTORY, deps: [NgForm]}</title>
<ellipse fill="#fdb462" stroke="black" cx="366" cy="-104" rx="342.34" ry="18"/>
<text text-anchor="middle" x="366" y="-99.8" font-family="Times,serif" font-size="14.00">{ &#160;&#160;&#160;provide: ControlContainer, useFactory: NGFORM_FACTORY, deps: [NgForm]}</text>
</g>
<!-- { &#160;&#160;&#160;provide: ControlContainer, useFactory: NGFORM_FACTORY, deps: [NgForm]}&#45;&gt;ProvideParentNgFormularDirective -->
<g id="edge4" class="edge">
<title>{ &#160;&#160;&#160;provide: ControlContainer, useFactory: NGFORM_FACTORY, deps: [NgForm]}&#45;&gt;ProvideParentNgFormularDirective</title>
<path fill="none" stroke="black" d="M699.56,-108.26C699.56,-108.26 699.56,-140.74 699.56,-140.74"/>
<polygon fill="black" stroke="black" points="696.06,-140.74 699.56,-150.74 703.06,-140.74 696.06,-140.74"/>
</g>
</g>
</svg>
