<?xml version="1.0" encoding="UTF-8" standalone="no"?>
<!DOCTYPE svg PUBLIC "-//W3C//DTD SVG 1.1//EN"
 "http://www.w3.org/Graphics/SVG/1.1/DTD/svg11.dtd">
<!-- Generated by graphviz version 2.47.0 (20210316.0004)
 -->
<!-- Title: dependencies Pages: 1 -->
<svg width="1626pt" height="349pt"
 viewBox="0.00 0.00 1626.00 349.00" xmlns="http://www.w3.org/2000/svg" xmlns:xlink="http://www.w3.org/1999/xlink">
<g id="graph0" class="graph" transform="scale(1 1) rotate(0) translate(4 345)">
<title>dependencies</title>
<polygon fill="white" stroke="transparent" points="-4,4 -4,-345 1622,-345 1622,4 -4,4"/>
<text text-anchor="start" x="788.01" y="-42.4" font-family="Times-12" font-weight="bold" font-size="14.00">Legend</text>
<polygon fill="#ffffb3" stroke="transparent" points="575,-10 575,-30 595,-30 595,-10 575,-10"/>
<text text-anchor="start" x="598.63" y="-15.4" font-family="Times-12" font-size="14.00"> &#160;Declarations</text>
<polygon fill="#8dd3c7" stroke="transparent" points="688,-10 688,-30 708,-30 708,-10 688,-10"/>
<text text-anchor="start" x="711.73" y="-15.4" font-family="Times-12" font-size="14.00"> &#160;Module</text>
<polygon fill="#80b1d3" stroke="transparent" points="774,-10 774,-30 794,-30 794,-10 774,-10"/>
<text text-anchor="start" x="797.78" y="-15.4" font-family="Times-12" font-size="14.00"> &#160;Bootstrap</text>
<polygon fill="#fdb462" stroke="transparent" points="871,-10 871,-30 891,-30 891,-10 871,-10"/>
<text text-anchor="start" x="894.67" y="-15.4" font-family="Times-12" font-size="14.00"> &#160;Providers</text>
<polygon fill="#fb8072" stroke="transparent" points="967,-10 967,-30 987,-30 987,-10 967,-10"/>
<text text-anchor="start" x="990.73" y="-15.4" font-family="Times-12" font-size="14.00"> &#160;Exports</text>
<g id="clust1" class="cluster">
<title>cluster_SACBootstrap3ListModule</title>
<polygon fill="none" stroke="black" stroke-dasharray="1,5" points="8,-70 8,-333 1610,-333 1610,-70 8,-70"/>
</g>
<g id="clust2" class="cluster">
<title>cluster_SACBootstrap3ListModule_declarations</title>
<polygon fill="none" stroke="black" points="520,-143 520,-195 1056,-195 1056,-143 520,-143"/>
</g>
<g id="clust3" class="cluster">
<title>cluster_SACBootstrap3ListModule_NgDropdownComponent_providers</title>
<polygon fill="none" stroke="black" points="16,-78 16,-130 1602,-130 1602,-78 16,-78"/>
</g>
<g id="clust6" class="cluster">
<title>cluster_SACBootstrap3ListModule_imports</title>
<polygon fill="none" stroke="black" points="276,-143 276,-195 512,-195 512,-143 276,-143"/>
</g>
<g id="clust7" class="cluster">
<title>cluster_SACBootstrap3ListModule_exports</title>
<polygon fill="none" stroke="black" points="425,-273 425,-325 971,-325 971,-273 425,-273"/>
</g>
<!-- NgDropdownComponent -->
<g id="node1" class="node">
<title>NgDropdownComponent</title>
<polygon fill="#ffffb3" stroke="black" points="1048.31,-187 889.69,-187 889.69,-151 1048.31,-151 1048.31,-187"/>
<text text-anchor="middle" x="969" y="-164.8" font-family="Times,serif" font-size="14.00">NgDropdownComponent</text>
</g>
<!-- SACBootstrap3ListModule -->
<g id="node4" class="node">
<title>SACBootstrap3ListModule</title>
<polygon fill="#8dd3c7" stroke="black" points="773.99,-252 770.99,-256 749.99,-256 746.99,-252 604.01,-252 604.01,-216 773.99,-216 773.99,-252"/>
<text text-anchor="middle" x="689" y="-229.8" font-family="Times,serif" font-size="14.00">SACBootstrap3ListModule</text>
</g>
<!-- NgDropdownComponent&#45;&gt;SACBootstrap3ListModule -->
<g id="edge1" class="edge">
<title>NgDropdownComponent&#45;&gt;SACBootstrap3ListModule</title>
<path fill="none" stroke="black" d="M926.38,-187.02C926.38,-204.37 926.38,-228 926.38,-228 926.38,-228 784.03,-228 784.03,-228"/>
<polygon fill="black" stroke="black" points="784.03,-224.5 774.03,-228 784.03,-231.5 784.03,-224.5"/>
</g>
<!-- NgDropdownOptionDirective -->
<g id="node2" class="node">
<title>NgDropdownOptionDirective</title>
<polygon fill="#ffffb3" stroke="black" points="871.95,-187 688.05,-187 688.05,-151 871.95,-151 871.95,-187"/>
<text text-anchor="middle" x="780" y="-164.8" font-family="Times,serif" font-size="14.00">NgDropdownOptionDirective</text>
</g>
<!-- NgDropdownOptionDirective&#45;&gt;SACBootstrap3ListModule -->
<g id="edge4" class="edge">
<title>NgDropdownOptionDirective&#45;&gt;SACBootstrap3ListModule</title>
<path fill="none" stroke="black" d="M731.01,-187.11C731.01,-187.11 731.01,-205.99 731.01,-205.99"/>
<polygon fill="black" stroke="black" points="727.51,-205.99 731.01,-215.99 734.51,-205.99 727.51,-205.99"/>
</g>
<!-- NgListboxComponent -->
<g id="node3" class="node">
<title>NgListboxComponent</title>
<polygon fill="#ffffb3" stroke="black" points="669.72,-187 528.28,-187 528.28,-151 669.72,-151 669.72,-187"/>
<text text-anchor="middle" x="599" y="-164.8" font-family="Times,serif" font-size="14.00">NgListboxComponent</text>
</g>
<!-- NgListboxComponent&#45;&gt;SACBootstrap3ListModule -->
<g id="edge5" class="edge">
<title>NgListboxComponent&#45;&gt;SACBootstrap3ListModule</title>
<path fill="none" stroke="black" d="M636.81,-187.11C636.81,-187.11 636.81,-205.99 636.81,-205.99"/>
<polygon fill="black" stroke="black" points="633.31,-205.99 636.81,-215.99 640.31,-205.99 633.31,-205.99"/>
</g>
<!-- NgDropdownComponent  -->
<g id="node8" class="node">
<title>NgDropdownComponent </title>
<polygon fill="#fb8072" stroke="black" points="962.81,-317 801.19,-317 801.19,-281 962.81,-281 962.81,-317"/>
<text text-anchor="middle" x="882" y="-294.8" font-family="Times,serif" font-size="14.00">NgDropdownComponent </text>
</g>
<!-- SACBootstrap3ListModule&#45;&gt;NgDropdownComponent  -->
<g id="edge7" class="edge">
<title>SACBootstrap3ListModule&#45;&gt;NgDropdownComponent </title>
<path fill="none" stroke="black" stroke-dasharray="5,2" d="M774.39,-240C807.02,-240 836.53,-240 836.53,-240 836.53,-240 836.53,-270.98 836.53,-270.98"/>
<polygon fill="black" stroke="black" points="833.03,-270.98 836.53,-280.98 840.03,-270.98 833.03,-270.98"/>
</g>
<!-- NgDropdownOptionDirective  -->
<g id="node9" class="node">
<title>NgDropdownOptionDirective </title>
<polygon fill="#fb8072" stroke="black" points="782.95,-317 595.05,-317 595.05,-281 782.95,-281 782.95,-317"/>
<text text-anchor="middle" x="689" y="-294.8" font-family="Times,serif" font-size="14.00">NgDropdownOptionDirective </text>
</g>
<!-- SACBootstrap3ListModule&#45;&gt;NgDropdownOptionDirective  -->
<g id="edge8" class="edge">
<title>SACBootstrap3ListModule&#45;&gt;NgDropdownOptionDirective </title>
<path fill="none" stroke="black" stroke-dasharray="5,2" d="M689,-252.11C689,-252.11 689,-270.99 689,-270.99"/>
<polygon fill="black" stroke="black" points="685.5,-270.99 689,-280.99 692.5,-270.99 685.5,-270.99"/>
</g>
<!-- NgListboxComponent  -->
<g id="node10" class="node">
<title>NgListboxComponent </title>
<polygon fill="#fb8072" stroke="black" points="577.22,-317 432.78,-317 432.78,-281 577.22,-281 577.22,-317"/>
<text text-anchor="middle" x="505" y="-294.8" font-family="Times,serif" font-size="14.00">NgListboxComponent </text>
</g>
<!-- SACBootstrap3ListModule&#45;&gt;NgListboxComponent  -->
<g id="edge9" class="edge">
<title>SACBootstrap3ListModule&#45;&gt;NgListboxComponent </title>
<path fill="none" stroke="black" stroke-dasharray="5,2" d="M603.95,-240C576.43,-240 552.88,-240 552.88,-240 552.88,-240 552.88,-270.98 552.88,-270.98"/>
<polygon fill="black" stroke="black" points="549.38,-270.98 552.88,-280.98 556.38,-270.98 549.38,-270.98"/>
</g>
<!-- { provide: NG_VALUE_ACCESSOR, multi: true, useExisting: NgDropdownComponent } -->
<g id="node5" class="node">
<title>{ provide: NG_VALUE_ACCESSOR, multi: true, useExisting: NgDropdownComponent }</title>
<ellipse fill="#fdb462" stroke="black" cx="1230" cy="-104" rx="364.36" ry="18"/>
<text text-anchor="middle" x="1230" y="-99.8" font-family="Times,serif" font-size="14.00">{ provide: NG_VALUE_ACCESSOR, multi: true, useExisting: NgDropdownComponent }</text>
</g>
<!-- { provide: NG_VALUE_ACCESSOR, multi: true, useExisting: NgDropdownComponent }&#45;&gt;NgDropdownComponent -->
<g id="edge2" class="edge">
<title>{ provide: NG_VALUE_ACCESSOR, multi: true, useExisting: NgDropdownComponent }&#45;&gt;NgDropdownComponent</title>
<path fill="none" stroke="black" d="M995.39,-117.78C995.39,-117.78 995.39,-140.55 995.39,-140.55"/>
<polygon fill="black" stroke="black" points="991.89,-140.55 995.39,-150.55 998.89,-140.55 991.89,-140.55"/>
</g>
<!-- { provide: NG_VALIDATORS, multi: true, useExisting: forwardRef(() =&gt; NgDropdownComponent) } -->
<g id="node6" class="node">
<title>{ provide: NG_VALIDATORS, multi: true, useExisting: forwardRef(() =&gt; NgDropdownComponent) }</title>
<ellipse fill="#fdb462" stroke="black" cx="436" cy="-104" rx="411.99" ry="18"/>
<text text-anchor="middle" x="436" y="-99.8" font-family="Times,serif" font-size="14.00">{ provide: NG_VALIDATORS, multi: true, useExisting: forwardRef(() =&gt; NgDropdownComponent) }</text>
</g>
<!-- { provide: NG_VALIDATORS, multi: true, useExisting: forwardRef(() =&gt; NgDropdownComponent) }&#45;&gt;NgDropdownComponent -->
<g id="edge3" class="edge">
<title>{ provide: NG_VALIDATORS, multi: true, useExisting: forwardRef(() =&gt; NgDropdownComponent) }&#45;&gt;NgDropdownComponent</title>
<path fill="none" stroke="black" d="M767.89,-114.81C767.89,-124.43 767.89,-137 767.89,-137 767.89,-137 942.61,-137 942.61,-137 942.61,-137 942.61,-140.76 942.61,-140.76"/>
<polygon fill="black" stroke="black" points="939.11,-140.76 942.61,-150.76 946.11,-140.76 939.11,-140.76"/>
</g>
<!-- SACCommonListboxOptionModule -->
<g id="node7" class="node">
<title>SACCommonListboxOptionModule</title>
<polygon fill="#8dd3c7" stroke="black" points="504.06,-187 501.06,-191 480.06,-191 477.06,-187 283.94,-187 283.94,-151 504.06,-151 504.06,-187"/>
<text text-anchor="middle" x="394" y="-164.8" font-family="Times,serif" font-size="14.00">SACCommonListboxOptionModule</text>
</g>
<!-- SACCommonListboxOptionModule&#45;&gt;SACBootstrap3ListModule -->
<g id="edge6" class="edge">
<title>SACCommonListboxOptionModule&#45;&gt;SACBootstrap3ListModule</title>
<path fill="none" stroke="black" d="M468.46,-187.02C468.46,-204.37 468.46,-228 468.46,-228 468.46,-228 593.73,-228 593.73,-228"/>
<polygon fill="black" stroke="black" points="593.73,-231.5 603.73,-228 593.73,-224.5 593.73,-231.5"/>
</g>
</g>
</svg>
