<?xml version="1.0" encoding="UTF-8" standalone="no"?>
<!DOCTYPE svg PUBLIC "-//W3C//DTD SVG 1.1//EN"
 "http://www.w3.org/Graphics/SVG/1.1/DTD/svg11.dtd">
<!-- Generated by graphviz version 2.47.0 (20210316.0004)
 -->
<!-- Title: dependencies Pages: 1 -->
<svg width="1648pt" height="396pt"
 viewBox="0.00 0.00 1648.00 395.59" xmlns="http://www.w3.org/2000/svg" xmlns:xlink="http://www.w3.org/1999/xlink">
<g id="graph0" class="graph" transform="scale(1 1) rotate(0) translate(4 391.59)">
<title>dependencies</title>
<polygon fill="white" stroke="transparent" points="-4,4 -4,-391.59 1644,-391.59 1644,4 -4,4"/>
<text text-anchor="start" x="799.01" y="-42.4" font-family="Times-12" font-weight="bold" font-size="14.00">Legend</text>
<polygon fill="#ffffb3" stroke="transparent" points="586,-10 586,-30 606,-30 606,-10 586,-10"/>
<text text-anchor="start" x="609.63" y="-15.4" font-family="Times-12" font-size="14.00"> &#160;Declarations</text>
<polygon fill="#8dd3c7" stroke="transparent" points="699,-10 699,-30 719,-30 719,-10 699,-10"/>
<text text-anchor="start" x="722.73" y="-15.4" font-family="Times-12" font-size="14.00"> &#160;Module</text>
<polygon fill="#80b1d3" stroke="transparent" points="785,-10 785,-30 805,-30 805,-10 785,-10"/>
<text text-anchor="start" x="808.78" y="-15.4" font-family="Times-12" font-size="14.00"> &#160;Bootstrap</text>
<polygon fill="#fdb462" stroke="transparent" points="882,-10 882,-30 902,-30 902,-10 882,-10"/>
<text text-anchor="start" x="905.67" y="-15.4" font-family="Times-12" font-size="14.00"> &#160;Providers</text>
<polygon fill="#fb8072" stroke="transparent" points="978,-10 978,-30 998,-30 998,-10 978,-10"/>
<text text-anchor="start" x="1001.73" y="-15.4" font-family="Times-12" font-size="14.00"> &#160;Exports</text>
<g id="clust1" class="cluster">
<title>cluster_JNetworkBootstrap4CheckboxModule</title>
<polygon fill="none" stroke="black" stroke-dasharray="1,5" points="8,-70 8,-379.59 1632,-379.59 1632,-70 8,-70"/>
</g>
<g id="clust2" class="cluster">
<title>cluster_JNetworkBootstrap4CheckboxModule_declarations</title>
<polygon fill="none" stroke="black" points="403,-189.59 403,-241.59 951,-241.59 951,-189.59 403,-189.59"/>
</g>
<g id="clust3" class="cluster">
<title>cluster_JNetworkBootstrap4CheckboxModule_NgCheckboxComponent_providers</title>
<polygon fill="none" stroke="black" points="16,-78 16,-176.59 1624,-176.59 1624,-78 16,-78"/>
</g>
<g id="clust7" class="cluster">
<title>cluster_JNetworkBootstrap4CheckboxModule_exports</title>
<polygon fill="none" stroke="black" points="398,-319.59 398,-371.59 956,-371.59 956,-319.59 398,-319.59"/>
</g>
<!-- NgCheckboxComponent -->
<g id="node1" class="node">
<title>NgCheckboxComponent</title>
<polygon fill="#ffffb3" stroke="black" points="942.7,-233.59 787.3,-233.59 787.3,-197.59 942.7,-197.59 942.7,-233.59"/>
<text text-anchor="middle" x="865" y="-211.39" font-family="Times,serif" font-size="14.00">NgCheckboxComponent</text>
</g>
<!-- JNetworkBootstrap4CheckboxModule -->
<g id="node4" class="node">
<title>JNetworkBootstrap4CheckboxModule</title>
<polygon fill="#8dd3c7" stroke="black" points="802.18,-298.59 799.18,-302.59 778.18,-302.59 775.18,-298.59 569.82,-298.59 569.82,-262.59 802.18,-262.59 802.18,-298.59"/>
<text text-anchor="middle" x="686" y="-276.39" font-family="Times,serif" font-size="14.00">JNetworkBootstrap4CheckboxModule</text>
</g>
<!-- NgCheckboxComponent&#45;&gt;JNetworkBootstrap4CheckboxModule -->
<g id="edge1" class="edge">
<title>NgCheckboxComponent&#45;&gt;JNetworkBootstrap4CheckboxModule</title>
<path fill="none" stroke="black" d="M794.74,-233.7C794.74,-233.7 794.74,-252.58 794.74,-252.58"/>
<polygon fill="black" stroke="black" points="791.24,-252.58 794.74,-262.58 798.24,-252.58 791.24,-252.58"/>
</g>
<!-- NgRadiobuttonComponent -->
<g id="node2" class="node">
<title>NgRadiobuttonComponent</title>
<polygon fill="#ffffb3" stroke="black" points="769.66,-233.59 602.34,-233.59 602.34,-197.59 769.66,-197.59 769.66,-233.59"/>
<text text-anchor="middle" x="686" y="-211.39" font-family="Times,serif" font-size="14.00">NgRadiobuttonComponent</text>
</g>
<!-- NgRadiobuttonComponent&#45;&gt;JNetworkBootstrap4CheckboxModule -->
<g id="edge4" class="edge">
<title>NgRadiobuttonComponent&#45;&gt;JNetworkBootstrap4CheckboxModule</title>
<path fill="none" stroke="black" d="M686,-233.7C686,-233.7 686,-252.58 686,-252.58"/>
<polygon fill="black" stroke="black" points="682.5,-252.58 686,-262.58 689.5,-252.58 682.5,-252.58"/>
</g>
<!-- NgRadiobuttonsComponent -->
<g id="node3" class="node">
<title>NgRadiobuttonsComponent</title>
<polygon fill="#ffffb3" stroke="black" points="584.61,-233.59 411.39,-233.59 411.39,-197.59 584.61,-197.59 584.61,-233.59"/>
<text text-anchor="middle" x="498" y="-211.39" font-family="Times,serif" font-size="14.00">NgRadiobuttonsComponent</text>
</g>
<!-- NgRadiobuttonsComponent&#45;&gt;JNetworkBootstrap4CheckboxModule -->
<g id="edge5" class="edge">
<title>NgRadiobuttonsComponent&#45;&gt;JNetworkBootstrap4CheckboxModule</title>
<path fill="none" stroke="black" d="M577.23,-233.7C577.23,-233.7 577.23,-252.58 577.23,-252.58"/>
<polygon fill="black" stroke="black" points="573.73,-252.58 577.23,-262.58 580.73,-252.58 573.73,-252.58"/>
</g>
<!-- NgCheckboxComponent  -->
<g id="node7" class="node">
<title>NgCheckboxComponent </title>
<polygon fill="#fb8072" stroke="black" points="948.21,-363.59 789.79,-363.59 789.79,-327.59 948.21,-327.59 948.21,-363.59"/>
<text text-anchor="middle" x="869" y="-341.39" font-family="Times,serif" font-size="14.00">NgCheckboxComponent </text>
</g>
<!-- JNetworkBootstrap4CheckboxModule&#45;&gt;NgCheckboxComponent  -->
<g id="edge6" class="edge">
<title>JNetworkBootstrap4CheckboxModule&#45;&gt;NgCheckboxComponent </title>
<path fill="none" stroke="black" stroke-dasharray="5,2" d="M795.87,-298.7C795.87,-298.7 795.87,-317.58 795.87,-317.58"/>
<polygon fill="black" stroke="black" points="792.37,-317.58 795.87,-327.58 799.37,-317.58 792.37,-317.58"/>
</g>
<!-- NgRadiobuttonComponent  -->
<g id="node8" class="node">
<title>NgRadiobuttonComponent </title>
<polygon fill="#fb8072" stroke="black" points="771.66,-363.59 600.34,-363.59 600.34,-327.59 771.66,-327.59 771.66,-363.59"/>
<text text-anchor="middle" x="686" y="-341.39" font-family="Times,serif" font-size="14.00">NgRadiobuttonComponent </text>
</g>
<!-- JNetworkBootstrap4CheckboxModule&#45;&gt;NgRadiobuttonComponent  -->
<g id="edge7" class="edge">
<title>JNetworkBootstrap4CheckboxModule&#45;&gt;NgRadiobuttonComponent </title>
<path fill="none" stroke="black" stroke-dasharray="5,2" d="M686,-298.7C686,-298.7 686,-317.58 686,-317.58"/>
<polygon fill="black" stroke="black" points="682.5,-317.58 686,-327.58 689.5,-317.58 682.5,-317.58"/>
</g>
<!-- NgRadiobuttonsComponent  -->
<g id="node9" class="node">
<title>NgRadiobuttonsComponent </title>
<polygon fill="#fb8072" stroke="black" points="582.11,-363.59 405.89,-363.59 405.89,-327.59 582.11,-327.59 582.11,-363.59"/>
<text text-anchor="middle" x="494" y="-341.39" font-family="Times,serif" font-size="14.00">NgRadiobuttonsComponent </text>
</g>
<!-- JNetworkBootstrap4CheckboxModule&#45;&gt;NgRadiobuttonsComponent  -->
<g id="edge8" class="edge">
<title>JNetworkBootstrap4CheckboxModule&#45;&gt;NgRadiobuttonsComponent </title>
<path fill="none" stroke="black" stroke-dasharray="5,2" d="M576.11,-298.7C576.11,-298.7 576.11,-317.58 576.11,-317.58"/>
<polygon fill="black" stroke="black" points="572.61,-317.58 576.11,-327.58 579.61,-317.58 572.61,-317.58"/>
</g>
<!-- {
 &#160;&#160;&#160;provide: NG_VALUE_ACCESSOR, multi: true, useExisting: NgCheckboxComponent,
} -->
<g id="node5" class="node">
<title>{
 &#160;&#160;&#160;provide: NG_VALUE_ACCESSOR, multi: true, useExisting: NgCheckboxComponent,
}</title>
<ellipse fill="#fdb462" stroke="black" cx="1247" cy="-127.3" rx="369.11" ry="41.09"/>
<text text-anchor="middle" x="1247" y="-139.9" font-family="Times,serif" font-size="14.00">{</text>
<text text-anchor="middle" x="1247" y="-123.1" font-family="Times,serif" font-size="14.00"> &#160;&#160;&#160;provide: NG_VALUE_ACCESSOR, multi: true, useExisting: NgCheckboxComponent,</text>
<text text-anchor="middle" x="1247" y="-106.3" font-family="Times,serif" font-size="14.00">}</text>
</g>
<!-- {
 &#160;&#160;&#160;provide: NG_VALUE_ACCESSOR, multi: true, useExisting: NgCheckboxComponent,
}&#45;&gt;NgCheckboxComponent -->
<g id="edge2" class="edge">
<title>{
 &#160;&#160;&#160;provide: NG_VALUE_ACCESSOR, multi: true, useExisting: NgCheckboxComponent,
}&#45;&gt;NgCheckboxComponent</title>
<path fill="none" stroke="black" d="M910.15,-144.32C910.15,-144.32 910.15,-187.4 910.15,-187.4"/>
<polygon fill="black" stroke="black" points="906.65,-187.4 910.15,-197.4 913.65,-187.4 906.65,-187.4"/>
</g>
<!-- {
 &#160;&#160;&#160;provide: NG_VALIDATORS, useExisting: forwardRef(() =&gt; NgCheckboxComponent), multi: true,
} -->
<g id="node6" class="node">
<title>{
 &#160;&#160;&#160;provide: NG_VALIDATORS, useExisting: forwardRef(() =&gt; NgCheckboxComponent), multi: true,
}</title>
<ellipse fill="#fdb462" stroke="black" cx="442" cy="-127.3" rx="417.63" ry="41.09"/>
<text text-anchor="middle" x="442" y="-139.9" font-family="Times,serif" font-size="14.00">{</text>
<text text-anchor="middle" x="442" y="-123.1" font-family="Times,serif" font-size="14.00"> &#160;&#160;&#160;provide: NG_VALIDATORS, useExisting: forwardRef(() =&gt; NgCheckboxComponent), multi: true,</text>
<text text-anchor="middle" x="442" y="-106.3" font-family="Times,serif" font-size="14.00">}</text>
</g>
<!-- {
 &#160;&#160;&#160;provide: NG_VALIDATORS, useExisting: forwardRef(() =&gt; NgCheckboxComponent), multi: true,
}&#45;&gt;NgCheckboxComponent -->
<g id="edge3" class="edge">
<title>{
 &#160;&#160;&#160;provide: NG_VALIDATORS, useExisting: forwardRef(() =&gt; NgCheckboxComponent), multi: true,
}&#45;&gt;NgCheckboxComponent</title>
<path fill="none" stroke="black" d="M823.61,-144.32C823.61,-144.32 823.61,-187.4 823.61,-187.4"/>
<polygon fill="black" stroke="black" points="820.11,-187.4 823.61,-197.4 827.11,-187.4 820.11,-187.4"/>
</g>
</g>
</svg>
