<?xml version="1.0" encoding="UTF-8" standalone="no"?>
<!DOCTYPE svg PUBLIC "-//W3C//DTD SVG 1.1//EN"
 "http://www.w3.org/Graphics/SVG/1.1/DTD/svg11.dtd">
<!-- Generated by graphviz version 2.47.3 (20210619.1520)
 -->
<!-- Title: dependencies Pages: 1 -->
<svg width="598pt" height="247pt"
 viewBox="0.00 0.00 598.00 246.80" xmlns="http://www.w3.org/2000/svg" xmlns:xlink="http://www.w3.org/1999/xlink">
<g id="graph0" class="graph" transform="scale(1 1) rotate(0) translate(4 242.8)">
<title>dependencies</title>
<polygon fill="white" stroke="transparent" points="-4,4 -4,-242.8 594,-242.8 594,4 -4,4"/>
<text text-anchor="middle" x="295" y="-8.2" font-family="sans-serif" font-size="14.00">dependencies</text>
<g id="clust1" class="cluster">
<title>cluster_JNetworkBootstrap4CheckboxModule</title>
<polygon fill="none" stroke="black" stroke-dasharray="1,5" points="8,-32.8 8,-230.8 582,-230.8 582,-32.8 8,-32.8"/>
</g>
<g id="clust7" class="cluster">
<title>cluster_JNetworkBootstrap4CheckboxModule_exports</title>
<polygon fill="none" stroke="black" points="16,-170.8 16,-222.8 574,-222.8 574,-170.8 16,-170.8"/>
</g>
<g id="clust2" class="cluster">
<title>cluster_JNetworkBootstrap4CheckboxModule_declarations</title>
<polygon fill="none" stroke="black" points="21,-40.8 21,-92.8 569,-92.8 569,-40.8 21,-40.8"/>
</g>
<!-- NgCheckboxComponent -->
<g id="node1" class="node">
<title>NgCheckboxComponent</title>
<polygon fill="#ffffb3" stroke="black" points="560.7,-84.8 405.3,-84.8 405.3,-48.8 560.7,-48.8 560.7,-84.8"/>
<text text-anchor="middle" x="483" y="-62.6" font-family="Times,serif" font-size="14.00">NgCheckboxComponent</text>
</g>
<!-- JNetworkBootstrap4CheckboxModule -->
<g id="node4" class="node">
<title>JNetworkBootstrap4CheckboxModule</title>
<polygon fill="#8dd3c7" stroke="black" points="420.18,-149.8 417.18,-153.8 396.18,-153.8 393.18,-149.8 187.82,-149.8 187.82,-113.8 420.18,-113.8 420.18,-149.8"/>
<text text-anchor="middle" x="304" y="-127.6" font-family="Times,serif" font-size="14.00">JNetworkBootstrap4CheckboxModule</text>
</g>
<!-- NgCheckboxComponent&#45;&gt;JNetworkBootstrap4CheckboxModule -->
<g id="edge1" class="edge">
<title>NgCheckboxComponent&#45;&gt;JNetworkBootstrap4CheckboxModule</title>
<path fill="none" stroke="black" d="M412.74,-84.91C412.74,-84.91 412.74,-103.79 412.74,-103.79"/>
<polygon fill="black" stroke="black" points="409.24,-103.79 412.74,-113.79 416.24,-103.79 409.24,-103.79"/>
</g>
<!-- NgRadiobuttonComponent -->
<g id="node2" class="node">
<title>NgRadiobuttonComponent</title>
<polygon fill="#ffffb3" stroke="black" points="387.66,-84.8 220.34,-84.8 220.34,-48.8 387.66,-48.8 387.66,-84.8"/>
<text text-anchor="middle" x="304" y="-62.6" font-family="Times,serif" font-size="14.00">NgRadiobuttonComponent</text>
</g>
<!-- NgRadiobuttonComponent&#45;&gt;JNetworkBootstrap4CheckboxModule -->
<g id="edge2" class="edge">
<title>NgRadiobuttonComponent&#45;&gt;JNetworkBootstrap4CheckboxModule</title>
<path fill="none" stroke="black" d="M304,-84.91C304,-84.91 304,-103.79 304,-103.79"/>
<polygon fill="black" stroke="black" points="300.5,-103.79 304,-113.79 307.5,-103.79 300.5,-103.79"/>
</g>
<!-- NgRadiobuttonsComponent -->
<g id="node3" class="node">
<title>NgRadiobuttonsComponent</title>
<polygon fill="#ffffb3" stroke="black" points="202.61,-84.8 29.39,-84.8 29.39,-48.8 202.61,-48.8 202.61,-84.8"/>
<text text-anchor="middle" x="116" y="-62.6" font-family="Times,serif" font-size="14.00">NgRadiobuttonsComponent</text>
</g>
<!-- NgRadiobuttonsComponent&#45;&gt;JNetworkBootstrap4CheckboxModule -->
<g id="edge3" class="edge">
<title>NgRadiobuttonsComponent&#45;&gt;JNetworkBootstrap4CheckboxModule</title>
<path fill="none" stroke="black" d="M195.23,-84.91C195.23,-84.91 195.23,-103.79 195.23,-103.79"/>
<polygon fill="black" stroke="black" points="191.73,-103.79 195.23,-113.79 198.73,-103.79 191.73,-103.79"/>
</g>
<!-- NgCheckboxComponent  -->
<g id="node5" class="node">
<title>NgCheckboxComponent </title>
<polygon fill="#fb8072" stroke="black" points="566.21,-214.8 407.79,-214.8 407.79,-178.8 566.21,-178.8 566.21,-214.8"/>
<text text-anchor="middle" x="487" y="-192.6" font-family="Times,serif" font-size="14.00">NgCheckboxComponent </text>
</g>
<!-- JNetworkBootstrap4CheckboxModule&#45;&gt;NgCheckboxComponent  -->
<g id="edge4" class="edge">
<title>JNetworkBootstrap4CheckboxModule&#45;&gt;NgCheckboxComponent </title>
<path fill="none" stroke="black" stroke-dasharray="5,2" d="M413.87,-149.91C413.87,-149.91 413.87,-168.79 413.87,-168.79"/>
<polygon fill="black" stroke="black" points="410.37,-168.79 413.87,-178.79 417.37,-168.79 410.37,-168.79"/>
</g>
<!-- NgRadiobuttonComponent  -->
<g id="node6" class="node">
<title>NgRadiobuttonComponent </title>
<polygon fill="#fb8072" stroke="black" points="389.66,-214.8 218.34,-214.8 218.34,-178.8 389.66,-178.8 389.66,-214.8"/>
<text text-anchor="middle" x="304" y="-192.6" font-family="Times,serif" font-size="14.00">NgRadiobuttonComponent </text>
</g>
<!-- JNetworkBootstrap4CheckboxModule&#45;&gt;NgRadiobuttonComponent  -->
<g id="edge5" class="edge">
<title>JNetworkBootstrap4CheckboxModule&#45;&gt;NgRadiobuttonComponent </title>
<path fill="none" stroke="black" stroke-dasharray="5,2" d="M304,-149.91C304,-149.91 304,-168.79 304,-168.79"/>
<polygon fill="black" stroke="black" points="300.5,-168.79 304,-178.79 307.5,-168.79 300.5,-168.79"/>
</g>
<!-- NgRadiobuttonsComponent  -->
<g id="node7" class="node">
<title>NgRadiobuttonsComponent </title>
<polygon fill="#fb8072" stroke="black" points="200.11,-214.8 23.89,-214.8 23.89,-178.8 200.11,-178.8 200.11,-214.8"/>
<text text-anchor="middle" x="112" y="-192.6" font-family="Times,serif" font-size="14.00">NgRadiobuttonsComponent </text>
</g>
<!-- JNetworkBootstrap4CheckboxModule&#45;&gt;NgRadiobuttonsComponent  -->
<g id="edge6" class="edge">
<title>JNetworkBootstrap4CheckboxModule&#45;&gt;NgRadiobuttonsComponent </title>
<path fill="none" stroke="black" stroke-dasharray="5,2" d="M194.11,-149.91C194.11,-149.91 194.11,-168.79 194.11,-168.79"/>
<polygon fill="black" stroke="black" points="190.61,-168.79 194.11,-178.79 197.61,-168.79 190.61,-168.79"/>
</g>
</g>
</svg>
