<?xml version="1.0" encoding="UTF-8" standalone="no"?>
<!DOCTYPE svg PUBLIC "-//W3C//DTD SVG 1.1//EN"
 "http://www.w3.org/Graphics/SVG/1.1/DTD/svg11.dtd">
<!-- Generated by graphviz version 2.47.3 (20210619.1520)
 -->
<!-- Title: dependencies Pages: 1 -->
<svg width="2031pt" height="358pt"
 viewBox="0.00 0.00 2031.00 358.39" xmlns="http://www.w3.org/2000/svg" xmlns:xlink="http://www.w3.org/1999/xlink">
<g id="graph0" class="graph" transform="scale(1 1) rotate(0) translate(4 354.39)">
<title>dependencies</title>
<polygon fill="white" stroke="transparent" points="-4,4 -4,-354.39 2027,-354.39 2027,4 -4,4"/>
<text text-anchor="middle" x="1011.5" y="-8.2" font-family="sans-serif" font-size="14.00">dependencies</text>
<g id="clust1" class="cluster">
<title>cluster_JNetworkBootstrap4CheckboxModule</title>
<polygon fill="none" stroke="black" stroke-dasharray="1,5" points="8,-32.8 8,-342.39 2015,-342.39 2015,-32.8 8,-32.8"/>
</g>
<g id="clust3" class="cluster">
<title>cluster_JNetworkBootstrap4CheckboxModule_NgCheckboxComponent_providers</title>
<polygon fill="none" stroke="black" points="399,-40.8 399,-204.39 2007,-204.39 2007,-40.8 399,-40.8"/>
</g>
<g id="clust7" class="cluster">
<title>cluster_JNetworkBootstrap4CheckboxModule_exports</title>
<polygon fill="none" stroke="black" points="16,-282.39 16,-334.39 574,-334.39 574,-282.39 16,-282.39"/>
</g>
<g id="clust2" class="cluster">
<title>cluster_JNetworkBootstrap4CheckboxModule_declarations</title>
<polygon fill="none" stroke="black" points="16,-152.39 16,-204.39 391,-204.39 391,-152.39 16,-152.39"/>
</g>
<!-- NgCheckboxComponent -->
<g id="node1" class="node">
<title>NgCheckboxComponent</title>
<polygon fill="#ffffb3" stroke="black" points="902.7,-196.39 747.3,-196.39 747.3,-160.39 902.7,-160.39 902.7,-196.39"/>
<text text-anchor="middle" x="825" y="-174.19" font-family="Times,serif" font-size="14.00">NgCheckboxComponent</text>
</g>
<!-- JNetworkBootstrap4CheckboxModule -->
<g id="node4" class="node">
<title>JNetworkBootstrap4CheckboxModule</title>
<polygon fill="#8dd3c7" stroke="black" points="417.18,-261.39 414.18,-265.39 393.18,-265.39 390.18,-261.39 184.82,-261.39 184.82,-225.39 417.18,-225.39 417.18,-261.39"/>
<text text-anchor="middle" x="301" y="-239.19" font-family="Times,serif" font-size="14.00">JNetworkBootstrap4CheckboxModule</text>
</g>
<!-- NgCheckboxComponent&#45;&gt;JNetworkBootstrap4CheckboxModule -->
<g id="edge1" class="edge">
<title>NgCheckboxComponent&#45;&gt;JNetworkBootstrap4CheckboxModule</title>
<path fill="none" stroke="black" d="M747.34,-178.39C627.75,-178.39 412.14,-178.39 412.14,-178.39 412.14,-178.39 412.14,-215.28 412.14,-215.28"/>
<polygon fill="black" stroke="black" points="408.64,-215.28 412.14,-225.28 415.64,-215.28 408.64,-215.28"/>
</g>
<!-- NgRadiobuttonComponent -->
<g id="node2" class="node">
<title>NgRadiobuttonComponent</title>
<polygon fill="#ffffb3" stroke="black" points="382.66,-196.39 215.34,-196.39 215.34,-160.39 382.66,-160.39 382.66,-196.39"/>
<text text-anchor="middle" x="299" y="-174.19" font-family="Times,serif" font-size="14.00">NgRadiobuttonComponent</text>
</g>
<!-- NgRadiobuttonComponent&#45;&gt;JNetworkBootstrap4CheckboxModule -->
<g id="edge4" class="edge">
<title>NgRadiobuttonComponent&#45;&gt;JNetworkBootstrap4CheckboxModule</title>
<path fill="none" stroke="black" d="M299,-196.5C299,-196.5 299,-215.38 299,-215.38"/>
<polygon fill="black" stroke="black" points="295.5,-215.38 299,-225.38 302.5,-215.38 295.5,-215.38"/>
</g>
<!-- NgRadiobuttonsComponent -->
<g id="node3" class="node">
<title>NgRadiobuttonsComponent</title>
<polygon fill="#ffffb3" stroke="black" points="197.61,-196.39 24.39,-196.39 24.39,-160.39 197.61,-160.39 197.61,-196.39"/>
<text text-anchor="middle" x="111" y="-174.19" font-family="Times,serif" font-size="14.00">NgRadiobuttonsComponent</text>
</g>
<!-- NgRadiobuttonsComponent&#45;&gt;JNetworkBootstrap4CheckboxModule -->
<g id="edge5" class="edge">
<title>NgRadiobuttonsComponent&#45;&gt;JNetworkBootstrap4CheckboxModule</title>
<path fill="none" stroke="black" d="M191.23,-196.5C191.23,-196.5 191.23,-215.38 191.23,-215.38"/>
<polygon fill="black" stroke="black" points="187.73,-215.38 191.23,-225.38 194.73,-215.38 187.73,-215.38"/>
</g>
<!-- NgCheckboxComponent  -->
<g id="node7" class="node">
<title>NgCheckboxComponent </title>
<polygon fill="#fb8072" stroke="black" points="566.21,-326.39 407.79,-326.39 407.79,-290.39 566.21,-290.39 566.21,-326.39"/>
<text text-anchor="middle" x="487" y="-304.19" font-family="Times,serif" font-size="14.00">NgCheckboxComponent </text>
</g>
<!-- JNetworkBootstrap4CheckboxModule&#45;&gt;NgCheckboxComponent  -->
<g id="edge6" class="edge">
<title>JNetworkBootstrap4CheckboxModule&#45;&gt;NgCheckboxComponent </title>
<path fill="none" stroke="black" stroke-dasharray="5,2" d="M412.37,-261.5C412.37,-261.5 412.37,-280.38 412.37,-280.38"/>
<polygon fill="black" stroke="black" points="408.87,-280.38 412.37,-290.38 415.87,-280.38 408.87,-280.38"/>
</g>
<!-- NgRadiobuttonComponent  -->
<g id="node8" class="node">
<title>NgRadiobuttonComponent </title>
<polygon fill="#fb8072" stroke="black" points="389.66,-326.39 218.34,-326.39 218.34,-290.39 389.66,-290.39 389.66,-326.39"/>
<text text-anchor="middle" x="304" y="-304.19" font-family="Times,serif" font-size="14.00">NgRadiobuttonComponent </text>
</g>
<!-- JNetworkBootstrap4CheckboxModule&#45;&gt;NgRadiobuttonComponent  -->
<g id="edge7" class="edge">
<title>JNetworkBootstrap4CheckboxModule&#45;&gt;NgRadiobuttonComponent </title>
<path fill="none" stroke="black" stroke-dasharray="5,2" d="M304,-261.5C304,-261.5 304,-280.38 304,-280.38"/>
<polygon fill="black" stroke="black" points="300.5,-280.38 304,-290.38 307.5,-280.38 300.5,-280.38"/>
</g>
<!-- NgRadiobuttonsComponent  -->
<g id="node9" class="node">
<title>NgRadiobuttonsComponent </title>
<polygon fill="#fb8072" stroke="black" points="200.11,-326.39 23.89,-326.39 23.89,-290.39 200.11,-290.39 200.11,-326.39"/>
<text text-anchor="middle" x="112" y="-304.19" font-family="Times,serif" font-size="14.00">NgRadiobuttonsComponent </text>
</g>
<!-- JNetworkBootstrap4CheckboxModule&#45;&gt;NgRadiobuttonsComponent  -->
<g id="edge8" class="edge">
<title>JNetworkBootstrap4CheckboxModule&#45;&gt;NgRadiobuttonsComponent </title>
<path fill="none" stroke="black" stroke-dasharray="5,2" d="M192.61,-261.5C192.61,-261.5 192.61,-280.38 192.61,-280.38"/>
<polygon fill="black" stroke="black" points="189.11,-280.38 192.61,-290.38 196.11,-280.38 189.11,-280.38"/>
</g>
<!-- {
 &#160;&#160;&#160;provide: NG_VALUE_ACCESSOR, multi: true, useExisting: NgCheckboxComponent,
} -->
<g id="node5" class="node">
<title>{
 &#160;&#160;&#160;provide: NG_VALUE_ACCESSOR, multi: true, useExisting: NgCheckboxComponent,
}</title>
<ellipse fill="#fdb462" stroke="black" cx="1630" cy="-90.1" rx="369.11" ry="41.09"/>
<text text-anchor="middle" x="1630" y="-102.7" font-family="Times,serif" font-size="14.00">{</text>
<text text-anchor="middle" x="1630" y="-85.9" font-family="Times,serif" font-size="14.00"> &#160;&#160;&#160;provide: NG_VALUE_ACCESSOR, multi: true, useExisting: NgCheckboxComponent,</text>
<text text-anchor="middle" x="1630" y="-69.1" font-family="Times,serif" font-size="14.00">}</text>
</g>
<!-- {
 &#160;&#160;&#160;provide: NG_VALUE_ACCESSOR, multi: true, useExisting: NgCheckboxComponent,
}&#45;&gt;NgCheckboxComponent -->
<g id="edge2" class="edge">
<title>{
 &#160;&#160;&#160;provide: NG_VALUE_ACCESSOR, multi: true, useExisting: NgCheckboxComponent,
}&#45;&gt;NgCheckboxComponent</title>
<path fill="none" stroke="black" d="M1630,-131.4C1630,-154.38 1630,-178.39 1630,-178.39 1630,-178.39 912.92,-178.39 912.92,-178.39"/>
<polygon fill="black" stroke="black" points="912.92,-174.89 902.92,-178.39 912.92,-181.89 912.92,-174.89"/>
</g>
<!-- {
 &#160;&#160;&#160;provide: NG_VALIDATORS, useExisting: forwardRef(() =&gt; NgCheckboxComponent), multi: true,
} -->
<g id="node6" class="node">
<title>{
 &#160;&#160;&#160;provide: NG_VALIDATORS, useExisting: forwardRef(() =&gt; NgCheckboxComponent), multi: true,
}</title>
<ellipse fill="#fdb462" stroke="black" cx="825" cy="-90.1" rx="417.63" ry="41.09"/>
<text text-anchor="middle" x="825" y="-102.7" font-family="Times,serif" font-size="14.00">{</text>
<text text-anchor="middle" x="825" y="-85.9" font-family="Times,serif" font-size="14.00"> &#160;&#160;&#160;provide: NG_VALIDATORS, useExisting: forwardRef(() =&gt; NgCheckboxComponent), multi: true,</text>
<text text-anchor="middle" x="825" y="-69.1" font-family="Times,serif" font-size="14.00">}</text>
</g>
<!-- {
 &#160;&#160;&#160;provide: NG_VALIDATORS, useExisting: forwardRef(() =&gt; NgCheckboxComponent), multi: true,
}&#45;&gt;NgCheckboxComponent -->
<g id="edge3" class="edge">
<title>{
 &#160;&#160;&#160;provide: NG_VALIDATORS, useExisting: forwardRef(() =&gt; NgCheckboxComponent), multi: true,
}&#45;&gt;NgCheckboxComponent</title>
<path fill="none" stroke="black" d="M825,-131.4C825,-131.4 825,-150.06 825,-150.06"/>
<polygon fill="black" stroke="black" points="821.5,-150.06 825,-160.06 828.5,-150.06 821.5,-150.06"/>
</g>
</g>
</svg>
