<?xml version="1.0" encoding="UTF-8" standalone="no"?>
<!DOCTYPE svg PUBLIC "-//W3C//DTD SVG 1.1//EN"
 "http://www.w3.org/Graphics/SVG/1.1/DTD/svg11.dtd">
<!-- Generated by graphviz version 2.40.1 (20161225.0304)
 -->
<!-- Title: dependencies Pages: 1 -->
<svg width="1362pt" height="349pt"
 viewBox="0.00 0.00 1362.00 349.00" xmlns="http://www.w3.org/2000/svg" xmlns:xlink="http://www.w3.org/1999/xlink">
<g id="graph0" class="graph" transform="scale(1 1) rotate(0) translate(4 345)">
<title>dependencies</title>
<polygon fill="#ffffff" stroke="transparent" points="-4,4 -4,-345 1358,-345 1358,4 -4,4"/>
<text text-anchor="start" x="656.0091" y="-42.4" font-family="sans-serif" font-weight="bold" font-size="14.00" fill="#000000">Legend</text>
<polygon fill="#ffffb3" stroke="transparent" points="443,-10 443,-30 463,-30 463,-10 443,-10"/>
<text text-anchor="start" x="466.629" y="-15.4" font-family="sans-serif" font-size="14.00" fill="#000000"> &#160;Declarations</text>
<polygon fill="#8dd3c7" stroke="transparent" points="556,-10 556,-30 576,-30 576,-10 556,-10"/>
<text text-anchor="start" x="579.7251" y="-15.4" font-family="sans-serif" font-size="14.00" fill="#000000"> &#160;Module</text>
<polygon fill="#80b1d3" stroke="transparent" points="642,-10 642,-30 662,-30 662,-10 642,-10"/>
<text text-anchor="start" x="665.7812" y="-15.4" font-family="sans-serif" font-size="14.00" fill="#000000"> &#160;Bootstrap</text>
<polygon fill="#fdb462" stroke="transparent" points="739,-10 739,-30 759,-30 759,-10 739,-10"/>
<text text-anchor="start" x="762.6732" y="-15.4" font-family="sans-serif" font-size="14.00" fill="#000000"> &#160;Providers</text>
<polygon fill="#fb8072" stroke="transparent" points="835,-10 835,-30 855,-30 855,-10 835,-10"/>
<text text-anchor="start" x="858.7258" y="-15.4" font-family="sans-serif" font-size="14.00" fill="#000000"> &#160;Exports</text>
<g id="clust1" class="cluster">
<title>cluster_jNetworkBootstrap4InputModule</title>
<polygon fill="none" stroke="#000000" stroke-dasharray="1,5" points="8,-70 8,-333 1346,-333 1346,-70 8,-70"/>
</g>
<g id="clust2" class="cluster">
<title>cluster_jNetworkBootstrap4InputModule_declarations</title>
<polygon fill="none" stroke="#000000" points="94,-143 94,-195 1027,-195 1027,-143 94,-143"/>
</g>
<g id="clust3" class="cluster">
<title>cluster_jNetworkBootstrap4InputModule_NgInput_providers</title>
<polygon fill="none" stroke="#000000" points="16,-78 16,-130 1338,-130 1338,-78 16,-78"/>
</g>
<g id="clust12" class="cluster">
<title>cluster_jNetworkBootstrap4InputModule_exports</title>
<polygon fill="none" stroke="#000000" points="70,-273 70,-325 1034,-325 1034,-273 70,-273"/>
</g>
<!-- NgInput -->
<g id="node1" class="node">
<title>NgInput</title>
<polygon fill="#ffffb3" stroke="#000000" points="1019.1587,-187 956.8413,-187 956.8413,-151 1019.1587,-151 1019.1587,-187"/>
<text text-anchor="middle" x="988" y="-164.8" font-family="Times,serif" font-size="14.00" fill="#000000">NgInput</text>
</g>
<!-- jNetworkBootstrap4InputModule -->
<g id="node9" class="node">
<title>jNetworkBootstrap4InputModule</title>
<polygon fill="#8dd3c7" stroke="#000000" points="657.9086,-252 654.9086,-256 633.9086,-256 630.9086,-252 454.0914,-252 454.0914,-216 657.9086,-216 657.9086,-252"/>
<text text-anchor="middle" x="556" y="-229.8" font-family="Times,serif" font-size="14.00" fill="#000000">jNetworkBootstrap4InputModule</text>
</g>
<!-- NgInput&#45;&gt;jNetworkBootstrap4InputModule -->
<g id="edge1" class="edge">
<title>NgInput&#45;&gt;jNetworkBootstrap4InputModule</title>
<path fill="none" stroke="#000000" d="M999.5263,-187.2222C999.5263,-205.8285 999.5263,-232 999.5263,-232 999.5263,-232 667.7539,-232 667.7539,-232"/>
<polygon fill="#000000" stroke="#000000" points="667.7539,-228.5001 657.7539,-232 667.7539,-235.5001 667.7539,-228.5001"/>
</g>
<!-- NgInputArea -->
<g id="node2" class="node">
<title>NgInputArea</title>
<polygon fill="#ffffb3" stroke="#000000" points="938.8543,-187 849.1457,-187 849.1457,-151 938.8543,-151 938.8543,-187"/>
<text text-anchor="middle" x="894" y="-164.8" font-family="Times,serif" font-size="14.00" fill="#000000">NgInputArea</text>
</g>
<!-- NgInputArea&#45;&gt;jNetworkBootstrap4InputModule -->
<g id="edge4" class="edge">
<title>NgInputArea&#45;&gt;jNetworkBootstrap4InputModule</title>
<path fill="none" stroke="#000000" d="M908.9757,-187.0336C908.9757,-204.0597 908.9757,-227 908.9757,-227 908.9757,-227 668.0952,-227 668.0952,-227"/>
<polygon fill="#000000" stroke="#000000" points="668.0952,-223.5001 658.0952,-227 668.0952,-230.5001 668.0952,-223.5001"/>
</g>
<!-- NgInputCurrency -->
<g id="node3" class="node">
<title>NgInputCurrency</title>
<polygon fill="#ffffb3" stroke="#000000" points="831.2451,-187 716.7549,-187 716.7549,-151 831.2451,-151 831.2451,-187"/>
<text text-anchor="middle" x="774" y="-164.8" font-family="Times,serif" font-size="14.00" fill="#000000">NgInputCurrency</text>
</g>
<!-- NgInputCurrency&#45;&gt;jNetworkBootstrap4InputModule -->
<g id="edge5" class="edge">
<title>NgInputCurrency&#45;&gt;jNetworkBootstrap4InputModule</title>
<path fill="none" stroke="#000000" d="M754.4592,-187.2396C754.4592,-202.5706 754.4592,-222 754.4592,-222 754.4592,-222 667.8457,-222 667.8457,-222"/>
<polygon fill="#000000" stroke="#000000" points="667.8458,-218.5001 657.8457,-222 667.8457,-225.5001 667.8458,-218.5001"/>
</g>
<!-- NgInputDecimal -->
<g id="node4" class="node">
<title>NgInputDecimal</title>
<polygon fill="#ffffb3" stroke="#000000" points="699.08,-187 588.92,-187 588.92,-151 699.08,-151 699.08,-187"/>
<text text-anchor="middle" x="644" y="-164.8" font-family="Times,serif" font-size="14.00" fill="#000000">NgInputDecimal</text>
</g>
<!-- NgInputDecimal&#45;&gt;jNetworkBootstrap4InputModule -->
<g id="edge6" class="edge">
<title>NgInputDecimal&#45;&gt;jNetworkBootstrap4InputModule</title>
<path fill="none" stroke="#000000" d="M623.3321,-187.1061C623.3321,-187.1061 623.3321,-205.991 623.3321,-205.991"/>
<polygon fill="#000000" stroke="#000000" points="619.8321,-205.9909 623.3321,-215.991 626.8321,-205.991 619.8321,-205.9909"/>
</g>
<!-- NgInputEmail -->
<g id="node5" class="node">
<title>NgInputEmail</title>
<polygon fill="#ffffb3" stroke="#000000" points="571.0968,-187 474.9032,-187 474.9032,-151 571.0968,-151 571.0968,-187"/>
<text text-anchor="middle" x="523" y="-164.8" font-family="Times,serif" font-size="14.00" fill="#000000">NgInputEmail</text>
</g>
<!-- NgInputEmail&#45;&gt;jNetworkBootstrap4InputModule -->
<g id="edge7" class="edge">
<title>NgInputEmail&#45;&gt;jNetworkBootstrap4InputModule</title>
<path fill="none" stroke="#000000" d="M523,-187.1061C523,-187.1061 523,-205.991 523,-205.991"/>
<polygon fill="#000000" stroke="#000000" points="519.5001,-205.9909 523,-215.991 526.5001,-205.991 519.5001,-205.9909"/>
</g>
<!-- NgInputInteger -->
<g id="node6" class="node">
<title>NgInputInteger</title>
<polygon fill="#ffffb3" stroke="#000000" points="457.2992,-187 354.7008,-187 354.7008,-151 457.2992,-151 457.2992,-187"/>
<text text-anchor="middle" x="406" y="-164.8" font-family="Times,serif" font-size="14.00" fill="#000000">NgInputInteger</text>
</g>
<!-- NgInputInteger&#45;&gt;jNetworkBootstrap4InputModule -->
<g id="edge8" class="edge">
<title>NgInputInteger&#45;&gt;jNetworkBootstrap4InputModule</title>
<path fill="none" stroke="#000000" d="M449.0977,-187.2479C449.0977,-210.0179 449.0977,-246 449.0977,-246 449.0977,-246 449.6133,-246 449.6133,-246"/>
<polygon fill="#000000" stroke="#000000" points="444.2538,-249.5002 454.2538,-246 444.2537,-242.5002 444.2538,-249.5002"/>
</g>
<!-- NgInputPassword -->
<g id="node7" class="node">
<title>NgInputPassword</title>
<polygon fill="#ffffb3" stroke="#000000" points="337.3118,-187 220.6882,-187 220.6882,-151 337.3118,-151 337.3118,-187"/>
<text text-anchor="middle" x="279" y="-164.8" font-family="Times,serif" font-size="14.00" fill="#000000">NgInputPassword</text>
</g>
<!-- NgInputPassword&#45;&gt;jNetworkBootstrap4InputModule -->
<g id="edge9" class="edge">
<title>NgInputPassword&#45;&gt;jNetworkBootstrap4InputModule</title>
<path fill="none" stroke="#000000" d="M328.5307,-187.2396C328.5307,-202.5706 328.5307,-222 328.5307,-222 328.5307,-222 444.241,-222 444.241,-222"/>
<polygon fill="#000000" stroke="#000000" points="444.2411,-225.5001 454.241,-222 444.241,-218.5001 444.2411,-225.5001"/>
</g>
<!-- NgInputSearch -->
<g id="node8" class="node">
<title>NgInputSearch</title>
<polygon fill="#ffffb3" stroke="#000000" points="202.2451,-187 101.7549,-187 101.7549,-151 202.2451,-151 202.2451,-187"/>
<text text-anchor="middle" x="152" y="-164.8" font-family="Times,serif" font-size="14.00" fill="#000000">NgInputSearch</text>
</g>
<!-- NgInputSearch&#45;&gt;jNetworkBootstrap4InputModule -->
<g id="edge10" class="edge">
<title>NgInputSearch&#45;&gt;jNetworkBootstrap4InputModule</title>
<path fill="none" stroke="#000000" d="M191.1084,-187.0225C191.1084,-204.3734 191.1084,-228 191.1083,-228 191.1083,-228 443.8721,-228 443.8721,-228"/>
<polygon fill="#000000" stroke="#000000" points="443.8722,-231.5001 453.8721,-228 443.8721,-224.5001 443.8722,-231.5001"/>
</g>
<!-- NgInput  -->
<g id="node12" class="node">
<title>NgInput </title>
<polygon fill="#fb8072" stroke="#000000" points="1026.158,-317 959.842,-317 959.842,-281 1026.158,-281 1026.158,-317"/>
<text text-anchor="middle" x="993" y="-294.8" font-family="Times,serif" font-size="14.00" fill="#000000">NgInput </text>
</g>
<!-- jNetworkBootstrap4InputModule&#45;&gt;NgInput  -->
<g id="edge11" class="edge">
<title>jNetworkBootstrap4InputModule&#45;&gt;NgInput </title>
<path fill="none" stroke="#000000" stroke-dasharray="5,2" d="M657.7619,-237C783.1292,-237 979.7237,-237 979.7237,-237 979.7237,-237 979.7237,-270.7333 979.7237,-270.7333"/>
<polygon fill="#000000" stroke="#000000" points="976.2238,-270.7333 979.7237,-280.7333 983.2238,-270.7333 976.2238,-270.7333"/>
</g>
<!-- NgInputArea  -->
<g id="node13" class="node">
<title>NgInputArea </title>
<polygon fill="#fb8072" stroke="#000000" points="941.8549,-317 848.1451,-317 848.1451,-281 941.8549,-281 941.8549,-317"/>
<text text-anchor="middle" x="895" y="-294.8" font-family="Times,serif" font-size="14.00" fill="#000000">NgInputArea </text>
</g>
<!-- jNetworkBootstrap4InputModule&#45;&gt;NgInputArea  -->
<g id="edge12" class="edge">
<title>jNetworkBootstrap4InputModule&#45;&gt;NgInputArea </title>
<path fill="none" stroke="#000000" stroke-dasharray="5,2" d="M657.7635,-242C752.4483,-242 879.0243,-242 879.0243,-242 879.0243,-242 879.0243,-270.9648 879.0243,-270.9648"/>
<polygon fill="#000000" stroke="#000000" points="875.5244,-270.9648 879.0243,-280.9648 882.5244,-270.9649 875.5244,-270.9648"/>
</g>
<!-- NgInputCurrency  -->
<g id="node14" class="node">
<title>NgInputCurrency </title>
<polygon fill="#fb8072" stroke="#000000" points="830.2451,-317 711.7549,-317 711.7549,-281 830.2451,-281 830.2451,-317"/>
<text text-anchor="middle" x="771" y="-294.8" font-family="Times,serif" font-size="14.00" fill="#000000">NgInputCurrency </text>
</g>
<!-- jNetworkBootstrap4InputModule&#45;&gt;NgInputCurrency  -->
<g id="edge13" class="edge">
<title>jNetworkBootstrap4InputModule&#45;&gt;NgInputCurrency </title>
<path fill="none" stroke="#000000" stroke-dasharray="5,2" d="M657.923,-247C721.8749,-247 792.2908,-247 792.2908,-247 792.2908,-247 792.2908,-270.8129 792.2908,-270.8129"/>
<polygon fill="#000000" stroke="#000000" points="788.7909,-270.8129 792.2908,-280.8129 795.7909,-270.813 788.7909,-270.8129"/>
</g>
<!-- NgInputDecimal  -->
<g id="node15" class="node">
<title>NgInputDecimal </title>
<polygon fill="#fb8072" stroke="#000000" points="693.5808,-317 580.4192,-317 580.4192,-281 693.5808,-281 693.5808,-317"/>
<text text-anchor="middle" x="637" y="-294.8" font-family="Times,serif" font-size="14.00" fill="#000000">NgInputDecimal </text>
</g>
<!-- jNetworkBootstrap4InputModule&#45;&gt;NgInputDecimal  -->
<g id="edge14" class="edge">
<title>jNetworkBootstrap4InputModule&#45;&gt;NgInputDecimal </title>
<path fill="none" stroke="#000000" stroke-dasharray="5,2" d="M618.9571,-252.1061C618.9571,-252.1061 618.9571,-270.991 618.9571,-270.991"/>
<polygon fill="#000000" stroke="#000000" points="615.4571,-270.9909 618.9571,-280.991 622.4571,-270.991 615.4571,-270.9909"/>
</g>
<!-- NgInputEmail  -->
<g id="node16" class="node">
<title>NgInputEmail </title>
<polygon fill="#fb8072" stroke="#000000" points="561.5976,-317 462.4024,-317 462.4024,-281 561.5976,-281 561.5976,-317"/>
<text text-anchor="middle" x="512" y="-294.8" font-family="Times,serif" font-size="14.00" fill="#000000">NgInputEmail </text>
</g>
<!-- jNetworkBootstrap4InputModule&#45;&gt;NgInputEmail  -->
<g id="edge15" class="edge">
<title>jNetworkBootstrap4InputModule&#45;&gt;NgInputEmail </title>
<path fill="none" stroke="#000000" stroke-dasharray="5,2" d="M512,-252.1061C512,-252.1061 512,-270.991 512,-270.991"/>
<polygon fill="#000000" stroke="#000000" points="508.5001,-270.9909 512,-280.991 515.5001,-270.991 508.5001,-270.9909"/>
</g>
<!-- NgInputInteger  -->
<g id="node17" class="node">
<title>NgInputInteger </title>
<polygon fill="#fb8072" stroke="#000000" points="443.799,-317 338.201,-317 338.201,-281 443.799,-281 443.799,-317"/>
<text text-anchor="middle" x="391" y="-294.8" font-family="Times,serif" font-size="14.00" fill="#000000">NgInputInteger </text>
</g>
<!-- jNetworkBootstrap4InputModule&#45;&gt;NgInputInteger  -->
<g id="edge16" class="edge">
<title>jNetworkBootstrap4InputModule&#45;&gt;NgInputInteger </title>
<path fill="none" stroke="#000000" stroke-dasharray="5,2" d="M458.2488,-252.1061C458.2488,-271.3391 458.2488,-299 458.2488,-299 458.2488,-299 453.987,-299 453.987,-299"/>
<polygon fill="#000000" stroke="#000000" points="453.9871,-295.5001 443.987,-299 453.987,-302.5001 453.9871,-295.5001"/>
</g>
<!-- NgInputPassword  -->
<g id="node18" class="node">
<title>NgInputPassword </title>
<polygon fill="#fb8072" stroke="#000000" points="319.8115,-317 200.1885,-317 200.1885,-281 319.8115,-281 319.8115,-317"/>
<text text-anchor="middle" x="260" y="-294.8" font-family="Times,serif" font-size="14.00" fill="#000000">NgInputPassword </text>
</g>
<!-- jNetworkBootstrap4InputModule&#45;&gt;NgInputPassword  -->
<g id="edge17" class="edge">
<title>jNetworkBootstrap4InputModule&#45;&gt;NgInputPassword </title>
<path fill="none" stroke="#000000" stroke-dasharray="5,2" d="M454.0925,-240C372.0651,-240 270.375,-240 270.375,-240 270.375,-240 270.375,-270.9775 270.375,-270.9775"/>
<polygon fill="#000000" stroke="#000000" points="266.8751,-270.9774 270.375,-280.9775 273.8751,-270.9775 266.8751,-270.9774"/>
</g>
<!-- NgInputSearch  -->
<g id="node19" class="node">
<title>NgInputSearch </title>
<polygon fill="#fb8072" stroke="#000000" points="182.2451,-317 77.7549,-317 77.7549,-281 182.2451,-281 182.2451,-317"/>
<text text-anchor="middle" x="130" y="-294.8" font-family="Times,serif" font-size="14.00" fill="#000000">NgInputSearch </text>
</g>
<!-- jNetworkBootstrap4InputModule&#45;&gt;NgInputSearch  -->
<g id="edge18" class="edge">
<title>jNetworkBootstrap4InputModule&#45;&gt;NgInputSearch </title>
<path fill="none" stroke="#000000" stroke-dasharray="5,2" d="M454.1632,-234C331.5447,-234 141.875,-234 141.875,-234 141.875,-234 141.875,-270.8939 141.875,-270.8939"/>
<polygon fill="#000000" stroke="#000000" points="138.3751,-270.8938 141.875,-280.8939 145.3751,-270.8939 138.3751,-270.8938"/>
</g>
<!-- { provide: NG_VALUE_ACCESSOR, multi: true, useExisting: NgInput } -->
<g id="node10" class="node">
<title>{ provide: NG_VALUE_ACCESSOR, multi: true, useExisting: NgInput }</title>
<ellipse fill="#fdb462" stroke="#000000" cx="1032" cy="-104" rx="298.393" ry="18"/>
<text text-anchor="middle" x="1032" y="-99.8" font-family="Times,serif" font-size="14.00" fill="#000000">{ provide: NG_VALUE_ACCESSOR, multi: true, useExisting: NgInput }</text>
</g>
<!-- { provide: NG_VALUE_ACCESSOR, multi: true, useExisting: NgInput }&#45;&gt;NgInput -->
<g id="edge2" class="edge">
<title>{ provide: NG_VALUE_ACCESSOR, multi: true, useExisting: NgInput }&#45;&gt;NgInput</title>
<path fill="none" stroke="#000000" d="M998.443,-122.1061C998.443,-122.1061 998.443,-140.991 998.443,-140.991"/>
<polygon fill="#000000" stroke="#000000" points="994.9431,-140.9909 998.443,-150.991 1001.9431,-140.991 994.9431,-140.9909"/>
</g>
<!-- { provide: NG_VALIDATORS, multi: true, useExisting: forwardRef(() =&gt; NgInput) } -->
<g id="node11" class="node">
<title>{ provide: NG_VALIDATORS, multi: true, useExisting: forwardRef(() =&gt; NgInput) }</title>
<ellipse fill="#fdb462" stroke="#000000" cx="370" cy="-104" rx="345.5293" ry="18"/>
<text text-anchor="middle" x="370" y="-99.8" font-family="Times,serif" font-size="14.00" fill="#000000">{ provide: NG_VALIDATORS, multi: true, useExisting: forwardRef(() =&gt; NgInput) }</text>
</g>
<!-- { provide: NG_VALIDATORS, multi: true, useExisting: forwardRef(() =&gt; NgInput) }&#45;&gt;NgInput -->
<g id="edge3" class="edge">
<title>{ provide: NG_VALIDATORS, multi: true, useExisting: forwardRef(() =&gt; NgInput) }&#45;&gt;NgInput</title>
<path fill="none" stroke="#000000" d="M705.4588,-108.5885C705.4588,-117.656 705.4588,-137 705.4588,-137 705.4588,-137 977.557,-137 977.557,-137 977.557,-137 977.557,-140.7566 977.557,-140.7566"/>
<polygon fill="#000000" stroke="#000000" points="974.0571,-140.7566 977.557,-150.7566 981.0571,-140.7566 974.0571,-140.7566"/>
</g>
</g>
</svg>
