<?xml version="1.0" encoding="UTF-8" standalone="no"?>
<!DOCTYPE svg PUBLIC "-//W3C//DTD SVG 1.1//EN"
 "http://www.w3.org/Graphics/SVG/1.1/DTD/svg11.dtd">
<!-- Generated by graphviz version 2.47.0 (20210316.0004)
 -->
<!-- Title: dependencies Pages: 1 -->
<svg width="1042pt" height="284pt"
 viewBox="0.00 0.00 1042.00 284.00" xmlns="http://www.w3.org/2000/svg" xmlns:xlink="http://www.w3.org/1999/xlink">
<g id="graph0" class="graph" transform="scale(1 1) rotate(0) translate(4 280)">
<title>dependencies</title>
<polygon fill="white" stroke="transparent" points="-4,4 -4,-280 1038,-280 1038,4 -4,4"/>
<text text-anchor="start" x="496.01" y="-42.4" font-family="Times-12" font-weight="bold" font-size="14.00">Legend</text>
<polygon fill="#ffffb3" stroke="transparent" points="283,-10 283,-30 303,-30 303,-10 283,-10"/>
<text text-anchor="start" x="306.63" y="-15.4" font-family="Times-12" font-size="14.00"> &#160;Declarations</text>
<polygon fill="#8dd3c7" stroke="transparent" points="396,-10 396,-30 416,-30 416,-10 396,-10"/>
<text text-anchor="start" x="419.73" y="-15.4" font-family="Times-12" font-size="14.00"> &#160;Module</text>
<polygon fill="#80b1d3" stroke="transparent" points="482,-10 482,-30 502,-30 502,-10 482,-10"/>
<text text-anchor="start" x="505.78" y="-15.4" font-family="Times-12" font-size="14.00"> &#160;Bootstrap</text>
<polygon fill="#fdb462" stroke="transparent" points="579,-10 579,-30 599,-30 599,-10 579,-10"/>
<text text-anchor="start" x="602.67" y="-15.4" font-family="Times-12" font-size="14.00"> &#160;Providers</text>
<polygon fill="#fb8072" stroke="transparent" points="675,-10 675,-30 695,-30 695,-10 675,-10"/>
<text text-anchor="start" x="698.73" y="-15.4" font-family="Times-12" font-size="14.00"> &#160;Exports</text>
<g id="clust1" class="cluster">
<title>cluster_SACBootstrap4TinyMceModule</title>
<polygon fill="none" stroke="black" stroke-dasharray="1,5" points="8,-70 8,-268 1026,-268 1026,-70 8,-70"/>
</g>
<g id="clust2" class="cluster">
<title>cluster_SACBootstrap4TinyMceModule_declarations</title>
<polygon fill="none" stroke="black" points="850,-78 850,-130 1018,-130 1018,-78 850,-78"/>
</g>
<g id="clust5" class="cluster">
<title>cluster_SACBootstrap4TinyMceModule_exports</title>
<polygon fill="none" stroke="black" points="441,-208 441,-260 613,-260 613,-208 441,-208"/>
</g>
<g id="clust4" class="cluster">
<title>cluster_SACBootstrap4TinyMceModule_imports</title>
<polygon fill="none" stroke="black" points="16,-78 16,-130 842,-130 842,-78 16,-78"/>
</g>
<!-- SacTinyMceComponent -->
<g id="node1" class="node">
<title>SacTinyMceComponent</title>
<polygon fill="#ffffb3" stroke="black" points="1010.36,-122 857.64,-122 857.64,-86 1010.36,-86 1010.36,-122"/>
<text text-anchor="middle" x="934" y="-99.8" font-family="Times,serif" font-size="14.00">SacTinyMceComponent</text>
</g>
<!-- SACBootstrap4TinyMceModule -->
<g id="node2" class="node">
<title>SACBootstrap4TinyMceModule</title>
<polygon fill="#8dd3c7" stroke="black" points="626.53,-187 623.53,-191 602.53,-191 599.53,-187 427.47,-187 427.47,-151 626.53,-151 626.53,-187"/>
<text text-anchor="middle" x="527" y="-164.8" font-family="Times,serif" font-size="14.00">SACBootstrap4TinyMceModule</text>
</g>
<!-- SacTinyMceComponent&#45;&gt;SACBootstrap4TinyMceModule -->
<g id="edge1" class="edge">
<title>SacTinyMceComponent&#45;&gt;SACBootstrap4TinyMceModule</title>
<path fill="none" stroke="black" d="M934,-122.28C934,-143.32 934,-175 934,-175 934,-175 636.56,-175 636.56,-175"/>
<polygon fill="black" stroke="black" points="636.56,-171.5 626.56,-175 636.56,-178.5 636.56,-171.5"/>
</g>
<!-- SacTinyMceComponent  -->
<g id="node7" class="node">
<title>SacTinyMceComponent </title>
<polygon fill="#fb8072" stroke="black" points="605.36,-252 448.64,-252 448.64,-216 605.36,-216 605.36,-252"/>
<text text-anchor="middle" x="527" y="-229.8" font-family="Times,serif" font-size="14.00">SacTinyMceComponent </text>
</g>
<!-- SACBootstrap4TinyMceModule&#45;&gt;SacTinyMceComponent  -->
<g id="edge6" class="edge">
<title>SACBootstrap4TinyMceModule&#45;&gt;SacTinyMceComponent </title>
<path fill="none" stroke="black" stroke-dasharray="5,2" d="M527,-187.11C527,-187.11 527,-205.99 527,-205.99"/>
<polygon fill="black" stroke="black" points="523.5,-205.99 527,-215.99 530.5,-205.99 523.5,-205.99"/>
</g>
<!-- SACBootstrap4BrowserModule -->
<g id="node3" class="node">
<title>SACBootstrap4BrowserModule</title>
<polygon fill="#8dd3c7" stroke="black" points="833.64,-122 830.64,-126 809.64,-126 806.64,-122 638.36,-122 638.36,-86 833.64,-86 833.64,-122"/>
<text text-anchor="middle" x="736" y="-99.8" font-family="Times,serif" font-size="14.00">SACBootstrap4BrowserModule</text>
</g>
<!-- SACBootstrap4BrowserModule&#45;&gt;SACBootstrap4TinyMceModule -->
<g id="edge2" class="edge">
<title>SACBootstrap4BrowserModule&#45;&gt;SACBootstrap4TinyMceModule</title>
<path fill="none" stroke="black" d="M736,-122.02C736,-139.37 736,-163 736,-163 736,-163 636.6,-163 636.6,-163"/>
<polygon fill="black" stroke="black" points="636.6,-159.5 626.6,-163 636.6,-166.5 636.6,-159.5"/>
</g>
<!-- SACBootstrap4ButtonModule -->
<g id="node4" class="node">
<title>SACBootstrap4ButtonModule</title>
<polygon fill="#8dd3c7" stroke="black" points="620.33,-122 617.33,-126 596.33,-126 593.33,-122 433.67,-122 433.67,-86 620.33,-86 620.33,-122"/>
<text text-anchor="middle" x="527" y="-99.8" font-family="Times,serif" font-size="14.00">SACBootstrap4ButtonModule</text>
</g>
<!-- SACBootstrap4ButtonModule&#45;&gt;SACBootstrap4TinyMceModule -->
<g id="edge3" class="edge">
<title>SACBootstrap4ButtonModule&#45;&gt;SACBootstrap4TinyMceModule</title>
<path fill="none" stroke="black" d="M527,-122.11C527,-122.11 527,-140.99 527,-140.99"/>
<polygon fill="black" stroke="black" points="523.5,-140.99 527,-150.99 530.5,-140.99 523.5,-140.99"/>
</g>
<!-- SACBootstrap4DialogModule -->
<g id="node5" class="node">
<title>SACBootstrap4DialogModule</title>
<polygon fill="#8dd3c7" stroke="black" points="416.32,-122 413.32,-126 392.32,-126 389.32,-122 229.68,-122 229.68,-86 416.32,-86 416.32,-122"/>
<text text-anchor="middle" x="323" y="-99.8" font-family="Times,serif" font-size="14.00">SACBootstrap4DialogModule</text>
</g>
<!-- SACBootstrap4DialogModule&#45;&gt;SACBootstrap4TinyMceModule -->
<g id="edge4" class="edge">
<title>SACBootstrap4DialogModule&#45;&gt;SACBootstrap4TinyMceModule</title>
<path fill="none" stroke="black" d="M323,-122.02C323,-139.37 323,-163 323,-163 323,-163 417.39,-163 417.39,-163"/>
<polygon fill="black" stroke="black" points="417.39,-166.5 427.39,-163 417.39,-159.5 417.39,-166.5"/>
</g>
<!-- SACBootstrap4LayoutModule -->
<g id="node6" class="node">
<title>SACBootstrap4LayoutModule</title>
<polygon fill="#8dd3c7" stroke="black" points="211.87,-122 208.87,-126 187.87,-126 184.87,-122 24.13,-122 24.13,-86 211.87,-86 211.87,-122"/>
<text text-anchor="middle" x="118" y="-99.8" font-family="Times,serif" font-size="14.00">SACBootstrap4LayoutModule</text>
</g>
<!-- SACBootstrap4LayoutModule&#45;&gt;SACBootstrap4TinyMceModule -->
<g id="edge5" class="edge">
<title>SACBootstrap4LayoutModule&#45;&gt;SACBootstrap4TinyMceModule</title>
<path fill="none" stroke="black" d="M118,-122.28C118,-143.32 118,-175 118,-175 118,-175 417.21,-175 417.21,-175"/>
<polygon fill="black" stroke="black" points="417.21,-178.5 427.21,-175 417.21,-171.5 417.21,-178.5"/>
</g>
</g>
</svg>
