<?xml version="1.0" encoding="UTF-8" standalone="no"?>
<!DOCTYPE svg PUBLIC "-//W3C//DTD SVG 1.1//EN"
 "http://www.w3.org/Graphics/SVG/1.1/DTD/svg11.dtd">
<!-- Generated by graphviz version 2.47.3 (20210619.1520)
 -->
<!-- Title: dependencies Pages: 1 -->
<svg width="672pt" height="247pt"
 viewBox="0.00 0.00 672.00 246.80" xmlns="http://www.w3.org/2000/svg" xmlns:xlink="http://www.w3.org/1999/xlink">
<g id="graph0" class="graph" transform="scale(1 1) rotate(0) translate(4 242.8)">
<title>dependencies</title>
<polygon fill="white" stroke="transparent" points="-4,4 -4,-242.8 668,-242.8 668,4 -4,4"/>
<text text-anchor="middle" x="332" y="-8.2" font-family="sans-serif" font-size="14.00">dependencies</text>
<g id="clust1" class="cluster">
<title>cluster_JNetworkBootstrap4ConfirmModule</title>
<polygon fill="none" stroke="black" stroke-dasharray="1,5" points="8,-32.8 8,-230.8 656,-230.8 656,-32.8 8,-32.8"/>
</g>
<g id="clust2" class="cluster">
<title>cluster_JNetworkBootstrap4ConfirmModule_declarations</title>
<polygon fill="none" stroke="black" points="486,-40.8 486,-92.8 648,-92.8 648,-40.8 486,-40.8"/>
</g>
<g id="clust5" class="cluster">
<title>cluster_JNetworkBootstrap4ConfirmModule_exports</title>
<polygon fill="none" stroke="black" points="280,-170.8 280,-222.8 446,-222.8 446,-170.8 280,-170.8"/>
</g>
<g id="clust4" class="cluster">
<title>cluster_JNetworkBootstrap4ConfirmModule_imports</title>
<polygon fill="none" stroke="black" points="16,-40.8 16,-92.8 478,-92.8 478,-40.8 16,-40.8"/>
</g>
<!-- NgConfirmComponent -->
<g id="node1" class="node">
<title>NgConfirmComponent</title>
<polygon fill="#ffffb3" stroke="black" points="639.88,-84.8 494.12,-84.8 494.12,-48.8 639.88,-48.8 639.88,-84.8"/>
<text text-anchor="middle" x="567" y="-62.6" font-family="Times,serif" font-size="14.00">NgConfirmComponent</text>
</g>
<!-- JNetworkBootstrap4ConfirmModule -->
<g id="node2" class="node">
<title>JNetworkBootstrap4ConfirmModule</title>
<polygon fill="#8dd3c7" stroke="black" points="474.35,-149.8 471.35,-153.8 450.35,-153.8 447.35,-149.8 251.65,-149.8 251.65,-113.8 474.35,-113.8 474.35,-149.8"/>
<text text-anchor="middle" x="363" y="-127.6" font-family="Times,serif" font-size="14.00">JNetworkBootstrap4ConfirmModule</text>
</g>
<!-- NgConfirmComponent&#45;&gt;JNetworkBootstrap4ConfirmModule -->
<g id="edge1" class="edge">
<title>NgConfirmComponent&#45;&gt;JNetworkBootstrap4ConfirmModule</title>
<path fill="none" stroke="black" d="M567,-84.91C567,-104.14 567,-131.8 567,-131.8 567,-131.8 484.55,-131.8 484.55,-131.8"/>
<polygon fill="black" stroke="black" points="484.55,-128.3 474.55,-131.8 484.55,-135.3 484.55,-128.3"/>
</g>
<!-- NgConfirmComponent  -->
<g id="node5" class="node">
<title>NgConfirmComponent </title>
<polygon fill="#fb8072" stroke="black" points="437.88,-214.8 288.12,-214.8 288.12,-178.8 437.88,-178.8 437.88,-214.8"/>
<text text-anchor="middle" x="363" y="-192.6" font-family="Times,serif" font-size="14.00">NgConfirmComponent </text>
</g>
<!-- JNetworkBootstrap4ConfirmModule&#45;&gt;NgConfirmComponent  -->
<g id="edge4" class="edge">
<title>JNetworkBootstrap4ConfirmModule&#45;&gt;NgConfirmComponent </title>
<path fill="none" stroke="black" stroke-dasharray="5,2" d="M363,-149.91C363,-149.91 363,-168.79 363,-168.79"/>
<polygon fill="black" stroke="black" points="359.5,-168.79 363,-178.79 366.5,-168.79 359.5,-168.79"/>
</g>
<!-- JNetworkBootstrap4ButtonModule -->
<g id="node3" class="node">
<title>JNetworkBootstrap4ButtonModule</title>
<polygon fill="#8dd3c7" stroke="black" points="469.53,-84.8 466.53,-88.8 445.53,-88.8 442.53,-84.8 256.47,-84.8 256.47,-48.8 469.53,-48.8 469.53,-84.8"/>
<text text-anchor="middle" x="363" y="-62.6" font-family="Times,serif" font-size="14.00">JNetworkBootstrap4ButtonModule</text>
</g>
<!-- JNetworkBootstrap4ButtonModule&#45;&gt;JNetworkBootstrap4ConfirmModule -->
<g id="edge2" class="edge">
<title>JNetworkBootstrap4ButtonModule&#45;&gt;JNetworkBootstrap4ConfirmModule</title>
<path fill="none" stroke="black" d="M363,-84.91C363,-84.91 363,-103.79 363,-103.79"/>
<polygon fill="black" stroke="black" points="359.5,-103.79 363,-113.79 366.5,-103.79 359.5,-103.79"/>
</g>
<!-- JNetworkBootstrap4DialogModule -->
<g id="node4" class="node">
<title>JNetworkBootstrap4DialogModule</title>
<polygon fill="#8dd3c7" stroke="black" points="237.51,-84.8 234.51,-88.8 213.51,-88.8 210.51,-84.8 24.49,-84.8 24.49,-48.8 237.51,-48.8 237.51,-84.8"/>
<text text-anchor="middle" x="131" y="-62.6" font-family="Times,serif" font-size="14.00">JNetworkBootstrap4DialogModule</text>
</g>
<!-- JNetworkBootstrap4DialogModule&#45;&gt;JNetworkBootstrap4ConfirmModule -->
<g id="edge3" class="edge">
<title>JNetworkBootstrap4DialogModule&#45;&gt;JNetworkBootstrap4ConfirmModule</title>
<path fill="none" stroke="black" d="M131,-84.91C131,-104.14 131,-131.8 131,-131.8 131,-131.8 241.42,-131.8 241.42,-131.8"/>
<polygon fill="black" stroke="black" points="241.42,-135.3 251.42,-131.8 241.42,-128.3 241.42,-135.3"/>
</g>
</g>
</svg>
