<?xml version="1.0" encoding="UTF-8" standalone="no"?>
<!DOCTYPE svg PUBLIC "-//W3C//DTD SVG 1.1//EN"
 "http://www.w3.org/Graphics/SVG/1.1/DTD/svg11.dtd">
<!-- Generated by graphviz version 2.46.0 (20210119.1425)
 -->
<!-- Title: dependencies Pages: 1 -->
<svg width="868pt" height="276pt"
 viewBox="0.00 0.00 868.00 276.00" xmlns="http://www.w3.org/2000/svg" xmlns:xlink="http://www.w3.org/1999/xlink">
<g id="graph0" class="graph" transform="scale(1 1) rotate(0) translate(4 272)">
<title>dependencies</title>
<polygon fill="white" stroke="transparent" points="-4,4 -4,-272 864,-272 864,4 -4,4"/>
<text text-anchor="start" x="409.01" y="-42.4" font-family="sans-serif" font-weight="bold" font-size="14.00">Legend</text>
<polygon fill="#ffffb3" stroke="transparent" points="196,-10 196,-30 216,-30 216,-10 196,-10"/>
<text text-anchor="start" x="219.63" y="-15.4" font-family="sans-serif" font-size="14.00"> &#160;Declarations</text>
<polygon fill="#8dd3c7" stroke="transparent" points="309,-10 309,-30 329,-30 329,-10 309,-10"/>
<text text-anchor="start" x="332.73" y="-15.4" font-family="sans-serif" font-size="14.00"> &#160;Module</text>
<polygon fill="#80b1d3" stroke="transparent" points="395,-10 395,-30 415,-30 415,-10 395,-10"/>
<text text-anchor="start" x="418.78" y="-15.4" font-family="sans-serif" font-size="14.00"> &#160;Bootstrap</text>
<polygon fill="#fdb462" stroke="transparent" points="492,-10 492,-30 512,-30 512,-10 492,-10"/>
<text text-anchor="start" x="515.67" y="-15.4" font-family="sans-serif" font-size="14.00"> &#160;Providers</text>
<polygon fill="#fb8072" stroke="transparent" points="588,-10 588,-30 608,-30 608,-10 588,-10"/>
<text text-anchor="start" x="611.73" y="-15.4" font-family="sans-serif" font-size="14.00"> &#160;Exports</text>
<g id="clust1" class="cluster">
<title>cluster_JNetworkBootstrap4ValidationSummaryModule</title>
<polygon fill="none" stroke="black" stroke-dasharray="1,5" points="8,-70 8,-260 852,-260 852,-70 8,-70"/>
</g>
<g id="clust3" class="cluster">
<title>cluster_JNetworkBootstrap4ValidationSummaryModule_NgValidationSummaryComponent_providers</title>
<polygon fill="none" stroke="black" points="16,-78 16,-195 844,-195 844,-78 16,-78"/>
</g>
<!-- NgValidationSummaryComponent -->
<g id="node1" class="node">
<title>NgValidationSummaryComponent</title>
<polygon fill="#ffffb3" stroke="black" points="535.98,-187 324.02,-187 324.02,-151 535.98,-151 535.98,-187"/>
<text text-anchor="middle" x="430" y="-164.8" font-family="Times,serif" font-size="14.00">NgValidationSummaryComponent</text>
</g>
<!-- JNetworkBootstrap4ValidationSummaryModule -->
<g id="node2" class="node">
<title>JNetworkBootstrap4ValidationSummaryModule</title>
<polygon fill="#8dd3c7" stroke="black" points="574.45,-252 571.45,-256 550.45,-256 547.45,-252 285.55,-252 285.55,-216 574.45,-216 574.45,-252"/>
<text text-anchor="middle" x="430" y="-229.8" font-family="Times,serif" font-size="14.00">JNetworkBootstrap4ValidationSummaryModule</text>
</g>
<!-- NgValidationSummaryComponent&#45;&gt;JNetworkBootstrap4ValidationSummaryModule -->
<g id="edge1" class="edge">
<title>NgValidationSummaryComponent&#45;&gt;JNetworkBootstrap4ValidationSummaryModule</title>
<path fill="none" stroke="black" d="M430,-187.11C430,-187.11 430,-205.99 430,-205.99"/>
<polygon fill="black" stroke="black" points="426.5,-205.99 430,-215.99 433.5,-205.99 426.5,-205.99"/>
</g>
<!-- { &#160;&#160;&#160;provide: NG_VALUE_ACCESSOR, multi: true, useExisting: NgValidationSummaryComponent} -->
<g id="node3" class="node">
<title>{ &#160;&#160;&#160;provide: NG_VALUE_ACCESSOR, multi: true, useExisting: NgValidationSummaryComponent}</title>
<ellipse fill="#fdb462" stroke="black" cx="430" cy="-104" rx="406.04" ry="18"/>
<text text-anchor="middle" x="430" y="-99.8" font-family="Times,serif" font-size="14.00">{ &#160;&#160;&#160;provide: NG_VALUE_ACCESSOR, multi: true, useExisting: NgValidationSummaryComponent}</text>
</g>
<!-- { &#160;&#160;&#160;provide: NG_VALUE_ACCESSOR, multi: true, useExisting: NgValidationSummaryComponent}&#45;&gt;NgValidationSummaryComponent -->
<g id="edge2" class="edge">
<title>{ &#160;&#160;&#160;provide: NG_VALUE_ACCESSOR, multi: true, useExisting: NgValidationSummaryComponent}&#45;&gt;NgValidationSummaryComponent</title>
<path fill="none" stroke="black" d="M430,-122.11C430,-122.11 430,-140.99 430,-140.99"/>
<polygon fill="black" stroke="black" points="426.5,-140.99 430,-150.99 433.5,-140.99 426.5,-140.99"/>
</g>
</g>
</svg>
