<?xml version="1.0" encoding="UTF-8" standalone="no"?>
<!DOCTYPE svg PUBLIC "-//W3C//DTD SVG 1.1//EN"
 "http://www.w3.org/Graphics/SVG/1.1/DTD/svg11.dtd">
<!-- Generated by graphviz version 2.47.0 (20210316.0004)
 -->
<!-- Title: dependencies Pages: 1 -->
<svg width="1738pt" height="284pt"
 viewBox="0.00 0.00 1738.00 284.00" xmlns="http://www.w3.org/2000/svg" xmlns:xlink="http://www.w3.org/1999/xlink">
<g id="graph0" class="graph" transform="scale(1 1) rotate(0) translate(4 280)">
<title>dependencies</title>
<polygon fill="white" stroke="transparent" points="-4,4 -4,-280 1734,-280 1734,4 -4,4"/>
<text text-anchor="start" x="844.01" y="-42.4" font-family="Times-12" font-weight="bold" font-size="14.00">Legend</text>
<polygon fill="#ffffb3" stroke="transparent" points="631,-10 631,-30 651,-30 651,-10 631,-10"/>
<text text-anchor="start" x="654.63" y="-15.4" font-family="Times-12" font-size="14.00"> &#160;Declarations</text>
<polygon fill="#8dd3c7" stroke="transparent" points="744,-10 744,-30 764,-30 764,-10 744,-10"/>
<text text-anchor="start" x="767.73" y="-15.4" font-family="Times-12" font-size="14.00"> &#160;Module</text>
<polygon fill="#80b1d3" stroke="transparent" points="830,-10 830,-30 850,-30 850,-10 830,-10"/>
<text text-anchor="start" x="853.78" y="-15.4" font-family="Times-12" font-size="14.00"> &#160;Bootstrap</text>
<polygon fill="#fdb462" stroke="transparent" points="927,-10 927,-30 947,-30 947,-10 927,-10"/>
<text text-anchor="start" x="950.67" y="-15.4" font-family="Times-12" font-size="14.00"> &#160;Providers</text>
<polygon fill="#fb8072" stroke="transparent" points="1023,-10 1023,-30 1043,-30 1043,-10 1023,-10"/>
<text text-anchor="start" x="1046.73" y="-15.4" font-family="Times-12" font-size="14.00"> &#160;Exports</text>
<g id="clust1" class="cluster">
<title>cluster_SACBootstrap3InputModule</title>
<polygon fill="none" stroke="black" stroke-dasharray="1,5" points="8,-70 8,-268 1722,-268 1722,-70 8,-70"/>
</g>
<g id="clust2" class="cluster">
<title>cluster_SACBootstrap3InputModule_declarations</title>
<polygon fill="none" stroke="black" points="230,-78 230,-130 1714,-130 1714,-78 230,-78"/>
</g>
<g id="clust11" class="cluster">
<title>cluster_SACBootstrap3InputModule_imports</title>
<polygon fill="none" stroke="black" points="16,-78 16,-130 222,-130 222,-78 16,-78"/>
</g>
<g id="clust12" class="cluster">
<title>cluster_SACBootstrap3InputModule_exports</title>
<polygon fill="none" stroke="black" points="116,-208 116,-260 1625,-260 1625,-208 116,-208"/>
</g>
<!-- SacInputAreaComponent -->
<g id="node1" class="node">
<title>SacInputAreaComponent</title>
<polygon fill="#ffffb3" stroke="black" points="1706.29,-122 1547.71,-122 1547.71,-86 1706.29,-86 1706.29,-122"/>
<text text-anchor="middle" x="1627" y="-99.8" font-family="Times,serif" font-size="14.00">SacInputAreaComponent</text>
</g>
<!-- SACBootstrap3InputModule -->
<g id="node9" class="node">
<title>SACBootstrap3InputModule</title>
<polygon fill="#8dd3c7" stroke="black" points="988.76,-187 985.76,-191 964.76,-191 961.76,-187 811.24,-187 811.24,-151 988.76,-151 988.76,-187"/>
<text text-anchor="middle" x="900" y="-164.8" font-family="Times,serif" font-size="14.00">SACBootstrap3InputModule</text>
</g>
<!-- SacInputAreaComponent&#45;&gt;SACBootstrap3InputModule -->
<g id="edge1" class="edge">
<title>SacInputAreaComponent&#45;&gt;SACBootstrap3InputModule</title>
<path fill="none" stroke="black" d="M1582.38,-122.11C1582.38,-141.34 1582.38,-169 1582.38,-169 1582.38,-169 998.86,-169 998.86,-169"/>
<polygon fill="black" stroke="black" points="998.86,-165.5 988.86,-169 998.86,-172.5 998.86,-165.5"/>
</g>
<!-- SacInputComponent -->
<g id="node2" class="node">
<title>SacInputComponent</title>
<polygon fill="#ffffb3" stroke="black" points="1529.6,-122 1398.4,-122 1398.4,-86 1529.6,-86 1529.6,-122"/>
<text text-anchor="middle" x="1464" y="-99.8" font-family="Times,serif" font-size="14.00">SacInputComponent</text>
</g>
<!-- SacInputComponent&#45;&gt;SACBootstrap3InputModule -->
<g id="edge2" class="edge">
<title>SacInputComponent&#45;&gt;SACBootstrap3InputModule</title>
<path fill="none" stroke="black" d="M1417.88,-122.3C1417.88,-140.27 1417.88,-165 1417.88,-165 1417.88,-165 999.03,-165 999.03,-165"/>
<polygon fill="black" stroke="black" points="999.03,-161.5 989.03,-165 999.03,-168.5 999.03,-161.5"/>
</g>
<!-- SacInputCurrencyComponent -->
<g id="node3" class="node">
<title>SacInputCurrencyComponent</title>
<polygon fill="#ffffb3" stroke="black" points="1380.68,-122 1197.32,-122 1197.32,-86 1380.68,-86 1380.68,-122"/>
<text text-anchor="middle" x="1289" y="-99.8" font-family="Times,serif" font-size="14.00">SacInputCurrencyComponent</text>
</g>
<!-- SacInputCurrencyComponent&#45;&gt;SACBootstrap3InputModule -->
<g id="edge3" class="edge">
<title>SacInputCurrencyComponent&#45;&gt;SACBootstrap3InputModule</title>
<path fill="none" stroke="black" d="M1240.88,-122.03C1240.88,-138.4 1240.88,-160 1240.88,-160 1240.88,-160 999.12,-160 999.12,-160"/>
<polygon fill="black" stroke="black" points="999.12,-156.5 989.12,-160 999.12,-163.5 999.12,-156.5"/>
</g>
<!-- SacInputDecimalComponent -->
<g id="node4" class="node">
<title>SacInputDecimalComponent</title>
<polygon fill="#ffffb3" stroke="black" points="1179.02,-122 1000.98,-122 1000.98,-86 1179.02,-86 1179.02,-122"/>
<text text-anchor="middle" x="1090" y="-99.8" font-family="Times,serif" font-size="14.00">SacInputDecimalComponent</text>
</g>
<!-- SacInputDecimalComponent&#45;&gt;SACBootstrap3InputModule -->
<g id="edge4" class="edge">
<title>SacInputDecimalComponent&#45;&gt;SACBootstrap3InputModule</title>
<path fill="none" stroke="black" d="M1040.38,-122.19C1040.38,-137.18 1040.38,-156 1040.38,-156 1040.38,-156 998.9,-156 998.9,-156"/>
<polygon fill="black" stroke="black" points="998.9,-152.5 988.9,-156 998.9,-159.5 998.9,-152.5"/>
</g>
<!-- SacInputEmailComponent -->
<g id="node5" class="node">
<title>SacInputEmailComponent</title>
<polygon fill="#ffffb3" stroke="black" points="982.04,-122 817.96,-122 817.96,-86 982.04,-86 982.04,-122"/>
<text text-anchor="middle" x="900" y="-99.8" font-family="Times,serif" font-size="14.00">SacInputEmailComponent</text>
</g>
<!-- SacInputEmailComponent&#45;&gt;SACBootstrap3InputModule -->
<g id="edge5" class="edge">
<title>SacInputEmailComponent&#45;&gt;SACBootstrap3InputModule</title>
<path fill="none" stroke="black" d="M900,-122.11C900,-122.11 900,-140.99 900,-140.99"/>
<polygon fill="black" stroke="black" points="896.5,-140.99 900,-150.99 903.5,-140.99 896.5,-140.99"/>
</g>
<!-- SacInputIntegerComponent -->
<g id="node6" class="node">
<title>SacInputIntegerComponent</title>
<polygon fill="#ffffb3" stroke="black" points="799.24,-122 628.76,-122 628.76,-86 799.24,-86 799.24,-122"/>
<text text-anchor="middle" x="714" y="-99.8" font-family="Times,serif" font-size="14.00">SacInputIntegerComponent</text>
</g>
<!-- SacInputIntegerComponent&#45;&gt;SACBootstrap3InputModule -->
<g id="edge6" class="edge">
<title>SacInputIntegerComponent&#45;&gt;SACBootstrap3InputModule</title>
<path fill="none" stroke="black" d="M755.68,-122.19C755.68,-137.18 755.68,-156 755.68,-156 755.68,-156 801.06,-156 801.06,-156"/>
<polygon fill="black" stroke="black" points="801.06,-159.5 811.06,-156 801.06,-152.5 801.06,-159.5"/>
</g>
<!-- SacInputPasswordComponent -->
<g id="node7" class="node">
<title>SacInputPasswordComponent</title>
<polygon fill="#ffffb3" stroke="black" points="610.25,-122 425.75,-122 425.75,-86 610.25,-86 610.25,-122"/>
<text text-anchor="middle" x="518" y="-99.8" font-family="Times,serif" font-size="14.00">SacInputPasswordComponent</text>
</g>
<!-- SacInputPasswordComponent&#45;&gt;SACBootstrap3InputModule -->
<g id="edge7" class="edge">
<title>SacInputPasswordComponent&#45;&gt;SACBootstrap3InputModule</title>
<path fill="none" stroke="black" d="M565.13,-122.03C565.13,-138.4 565.13,-160 565.13,-160 565.13,-160 801.14,-160 801.14,-160"/>
<polygon fill="black" stroke="black" points="801.14,-163.5 811.14,-160 801.14,-156.5 801.14,-163.5"/>
</g>
<!-- SacInputSearchComponent -->
<g id="node8" class="node">
<title>SacInputSearchComponent</title>
<polygon fill="#ffffb3" stroke="black" points="407.68,-122 238.32,-122 238.32,-86 407.68,-86 407.68,-122"/>
<text text-anchor="middle" x="323" y="-99.8" font-family="Times,serif" font-size="14.00">SacInputSearchComponent</text>
</g>
<!-- SacInputSearchComponent&#45;&gt;SACBootstrap3InputModule -->
<g id="edge8" class="edge">
<title>SacInputSearchComponent&#45;&gt;SACBootstrap3InputModule</title>
<path fill="none" stroke="black" d="M360.73,-122.3C360.73,-140.27 360.73,-165 360.73,-165 360.73,-165 800.95,-165 800.95,-165"/>
<polygon fill="black" stroke="black" points="800.95,-168.5 810.95,-165 800.95,-161.5 800.95,-168.5"/>
</g>
<!-- SacInputAreaComponent  -->
<g id="node11" class="node">
<title>SacInputAreaComponent </title>
<polygon fill="#fb8072" stroke="black" points="1616.79,-252 1455.21,-252 1455.21,-216 1616.79,-216 1616.79,-252"/>
<text text-anchor="middle" x="1536" y="-229.8" font-family="Times,serif" font-size="14.00">SacInputAreaComponent </text>
</g>
<!-- SACBootstrap3InputModule&#45;&gt;SacInputAreaComponent  -->
<g id="edge10" class="edge">
<title>SACBootstrap3InputModule&#45;&gt;SacInputAreaComponent </title>
<path fill="none" stroke="black" stroke-dasharray="5,2" d="M989,-174C1154.35,-174 1492.33,-174 1492.33,-174 1492.33,-174 1492.33,-206 1492.33,-206"/>
<polygon fill="black" stroke="black" points="1488.83,-206 1492.33,-216 1495.83,-206 1488.83,-206"/>
</g>
<!-- SacInputComponent  -->
<g id="node12" class="node">
<title>SacInputComponent </title>
<polygon fill="#fb8072" stroke="black" points="1437.1,-252 1302.9,-252 1302.9,-216 1437.1,-216 1437.1,-252"/>
<text text-anchor="middle" x="1370" y="-229.8" font-family="Times,serif" font-size="14.00">SacInputComponent </text>
</g>
<!-- SACBootstrap3InputModule&#45;&gt;SacInputComponent  -->
<g id="edge11" class="edge">
<title>SACBootstrap3InputModule&#45;&gt;SacInputComponent </title>
<path fill="none" stroke="black" stroke-dasharray="5,2" d="M988.84,-178C1117.81,-178 1341.65,-178 1341.65,-178 1341.65,-178 1341.65,-205.97 1341.65,-205.97"/>
<polygon fill="black" stroke="black" points="1338.15,-205.97 1341.65,-215.97 1345.15,-205.97 1338.15,-205.97"/>
</g>
<!-- SacInputCurrencyComponent  -->
<g id="node13" class="node">
<title>SacInputCurrencyComponent </title>
<polygon fill="#fb8072" stroke="black" points="1284.18,-252 1097.82,-252 1097.82,-216 1284.18,-216 1284.18,-252"/>
<text text-anchor="middle" x="1191" y="-229.8" font-family="Times,serif" font-size="14.00">SacInputCurrencyComponent </text>
</g>
<!-- SACBootstrap3InputModule&#45;&gt;SacInputCurrencyComponent  -->
<g id="edge12" class="edge">
<title>SACBootstrap3InputModule&#45;&gt;SacInputCurrencyComponent </title>
<path fill="none" stroke="black" stroke-dasharray="5,2" d="M988.79,-183C1056.59,-183 1138.46,-183 1138.46,-183 1138.46,-183 1138.46,-205.88 1138.46,-205.88"/>
<polygon fill="black" stroke="black" points="1134.96,-205.88 1138.46,-215.88 1141.96,-205.88 1134.96,-205.88"/>
</g>
<!-- SacInputDecimalComponent  -->
<g id="node14" class="node">
<title>SacInputDecimalComponent </title>
<polygon fill="#fb8072" stroke="black" points="1080.02,-252 897.98,-252 897.98,-216 1080.02,-216 1080.02,-252"/>
<text text-anchor="middle" x="989" y="-229.8" font-family="Times,serif" font-size="14.00">SacInputDecimalComponent </text>
</g>
<!-- SACBootstrap3InputModule&#45;&gt;SacInputDecimalComponent  -->
<g id="edge13" class="edge">
<title>SACBootstrap3InputModule&#45;&gt;SacInputDecimalComponent </title>
<path fill="none" stroke="black" stroke-dasharray="5,2" d="M943.44,-187.11C943.44,-187.11 943.44,-205.99 943.44,-205.99"/>
<polygon fill="black" stroke="black" points="939.94,-205.99 943.44,-215.99 946.94,-205.99 939.94,-205.99"/>
</g>
<!-- SacInputEmailComponent  -->
<g id="node15" class="node">
<title>SacInputEmailComponent </title>
<polygon fill="#fb8072" stroke="black" points="880.03,-252 711.97,-252 711.97,-216 880.03,-216 880.03,-252"/>
<text text-anchor="middle" x="796" y="-229.8" font-family="Times,serif" font-size="14.00">SacInputEmailComponent </text>
</g>
<!-- SACBootstrap3InputModule&#45;&gt;SacInputEmailComponent  -->
<g id="edge14" class="edge">
<title>SACBootstrap3InputModule&#45;&gt;SacInputEmailComponent </title>
<path fill="none" stroke="black" stroke-dasharray="5,2" d="M845.57,-187.11C845.57,-187.11 845.57,-205.99 845.57,-205.99"/>
<polygon fill="black" stroke="black" points="842.07,-205.99 845.57,-215.99 849.07,-205.99 842.07,-205.99"/>
</g>
<!-- SacInputIntegerComponent  -->
<g id="node16" class="node">
<title>SacInputIntegerComponent </title>
<polygon fill="#fb8072" stroke="black" points="694.24,-252 519.76,-252 519.76,-216 694.24,-216 694.24,-252"/>
<text text-anchor="middle" x="607" y="-229.8" font-family="Times,serif" font-size="14.00">SacInputIntegerComponent </text>
</g>
<!-- SACBootstrap3InputModule&#45;&gt;SacInputIntegerComponent  -->
<g id="edge15" class="edge">
<title>SACBootstrap3InputModule&#45;&gt;SacInputIntegerComponent </title>
<path fill="none" stroke="black" stroke-dasharray="5,2" d="M811.14,-183C743.3,-183 661.38,-183 661.38,-183 661.38,-183 661.38,-205.88 661.38,-205.88"/>
<polygon fill="black" stroke="black" points="657.88,-205.88 661.38,-215.88 664.88,-205.88 657.88,-205.88"/>
</g>
<!-- SacInputPasswordComponent  -->
<g id="node17" class="node">
<title>SacInputPasswordComponent </title>
<polygon fill="#fb8072" stroke="black" points="502.25,-252 313.75,-252 313.75,-216 502.25,-216 502.25,-252"/>
<text text-anchor="middle" x="408" y="-229.8" font-family="Times,serif" font-size="14.00">SacInputPasswordComponent </text>
</g>
<!-- SACBootstrap3InputModule&#45;&gt;SacInputPasswordComponent  -->
<g id="edge16" class="edge">
<title>SACBootstrap3InputModule&#45;&gt;SacInputPasswordComponent </title>
<path fill="none" stroke="black" stroke-dasharray="5,2" d="M811.22,-178C683.7,-178 463.88,-178 463.88,-178 463.88,-178 463.88,-205.97 463.88,-205.97"/>
<polygon fill="black" stroke="black" points="460.38,-205.97 463.88,-215.97 467.38,-205.97 460.38,-205.97"/>
</g>
<!-- SacInputSearchComponent  -->
<g id="node18" class="node">
<title>SacInputSearchComponent </title>
<polygon fill="#fb8072" stroke="black" points="296.18,-252 123.82,-252 123.82,-216 296.18,-216 296.18,-252"/>
<text text-anchor="middle" x="210" y="-229.8" font-family="Times,serif" font-size="14.00">SacInputSearchComponent </text>
</g>
<!-- SACBootstrap3InputModule&#45;&gt;SacInputSearchComponent  -->
<g id="edge17" class="edge">
<title>SACBootstrap3InputModule&#45;&gt;SacInputSearchComponent </title>
<path fill="none" stroke="black" stroke-dasharray="5,2" d="M811.04,-174C636.79,-174 267.38,-174 267.38,-174 267.38,-174 267.38,-206 267.38,-206"/>
<polygon fill="black" stroke="black" points="263.88,-206 267.38,-216 270.88,-206 263.88,-206"/>
</g>
<!-- SACBootstrap3TooltipModule -->
<g id="node10" class="node">
<title>SACBootstrap3TooltipModule</title>
<polygon fill="#8dd3c7" stroke="black" points="213.94,-122 210.94,-126 189.94,-126 186.94,-122 24.06,-122 24.06,-86 213.94,-86 213.94,-122"/>
<text text-anchor="middle" x="119" y="-99.8" font-family="Times,serif" font-size="14.00">SACBootstrap3TooltipModule</text>
</g>
<!-- SACBootstrap3TooltipModule&#45;&gt;SACBootstrap3InputModule -->
<g id="edge9" class="edge">
<title>SACBootstrap3TooltipModule&#45;&gt;SACBootstrap3InputModule</title>
<path fill="none" stroke="black" d="M168.69,-122.11C168.69,-141.34 168.69,-169 168.69,-169 168.69,-169 801.06,-169 801.06,-169"/>
<polygon fill="black" stroke="black" points="801.06,-172.5 811.06,-169 801.06,-165.5 801.06,-172.5"/>
</g>
</g>
</svg>
