<?xml version="1.0" encoding="UTF-8" standalone="no"?>
<!DOCTYPE svg PUBLIC "-//W3C//DTD SVG 1.1//EN"
 "http://www.w3.org/Graphics/SVG/1.1/DTD/svg11.dtd">
<!-- Generated by graphviz version 2.47.0 (20210316.0004)
 -->
<!-- Title: dependencies Pages: 1 -->
<svg width="1713pt" height="284pt"
 viewBox="0.00 0.00 1713.00 284.00" xmlns="http://www.w3.org/2000/svg" xmlns:xlink="http://www.w3.org/1999/xlink">
<g id="graph0" class="graph" transform="scale(1 1) rotate(0) translate(4 280)">
<title>dependencies</title>
<polygon fill="white" stroke="transparent" points="-4,4 -4,-280 1709,-280 1709,4 -4,4"/>
<text text-anchor="start" x="831.51" y="-42.4" font-family="Times-12" font-weight="bold" font-size="14.00">Legend</text>
<polygon fill="#ffffb3" stroke="transparent" points="618.5,-10 618.5,-30 638.5,-30 638.5,-10 618.5,-10"/>
<text text-anchor="start" x="642.13" y="-15.4" font-family="Times-12" font-size="14.00"> &#160;Declarations</text>
<polygon fill="#8dd3c7" stroke="transparent" points="731.5,-10 731.5,-30 751.5,-30 751.5,-10 731.5,-10"/>
<text text-anchor="start" x="755.23" y="-15.4" font-family="Times-12" font-size="14.00"> &#160;Module</text>
<polygon fill="#80b1d3" stroke="transparent" points="817.5,-10 817.5,-30 837.5,-30 837.5,-10 817.5,-10"/>
<text text-anchor="start" x="841.28" y="-15.4" font-family="Times-12" font-size="14.00"> &#160;Bootstrap</text>
<polygon fill="#fdb462" stroke="transparent" points="914.5,-10 914.5,-30 934.5,-30 934.5,-10 914.5,-10"/>
<text text-anchor="start" x="938.17" y="-15.4" font-family="Times-12" font-size="14.00"> &#160;Providers</text>
<polygon fill="#fb8072" stroke="transparent" points="1010.5,-10 1010.5,-30 1030.5,-30 1030.5,-10 1010.5,-10"/>
<text text-anchor="start" x="1034.23" y="-15.4" font-family="Times-12" font-size="14.00"> &#160;Exports</text>
<g id="clust1" class="cluster">
<title>cluster_SACBootstrap3InputModule</title>
<polygon fill="none" stroke="black" stroke-dasharray="1,5" points="8,-70 8,-268 1697,-268 1697,-70 8,-70"/>
</g>
<g id="clust2" class="cluster">
<title>cluster_SACBootstrap3InputModule_declarations</title>
<polygon fill="none" stroke="black" points="230,-78 230,-130 1689,-130 1689,-78 230,-78"/>
</g>
<g id="clust11" class="cluster">
<title>cluster_SACBootstrap3InputModule_imports</title>
<polygon fill="none" stroke="black" points="16,-78 16,-130 222,-130 222,-78 16,-78"/>
</g>
<g id="clust12" class="cluster">
<title>cluster_SACBootstrap3InputModule_exports</title>
<polygon fill="none" stroke="black" points="117,-208 117,-260 1602,-260 1602,-208 117,-208"/>
</g>
<!-- NgInputAreaComponent -->
<g id="node1" class="node">
<title>NgInputAreaComponent</title>
<polygon fill="#ffffb3" stroke="black" points="1680.69,-122 1525.31,-122 1525.31,-86 1680.69,-86 1680.69,-122"/>
<text text-anchor="middle" x="1603" y="-99.8" font-family="Times,serif" font-size="14.00">NgInputAreaComponent</text>
</g>
<!-- SACBootstrap3InputModule -->
<g id="node9" class="node">
<title>SACBootstrap3InputModule</title>
<polygon fill="#8dd3c7" stroke="black" points="977.76,-187 974.76,-191 953.76,-191 950.76,-187 800.24,-187 800.24,-151 977.76,-151 977.76,-187"/>
<text text-anchor="middle" x="889" y="-164.8" font-family="Times,serif" font-size="14.00">SACBootstrap3InputModule</text>
</g>
<!-- NgInputAreaComponent&#45;&gt;SACBootstrap3InputModule -->
<g id="edge1" class="edge">
<title>NgInputAreaComponent&#45;&gt;SACBootstrap3InputModule</title>
<path fill="none" stroke="black" d="M1559.88,-122.22C1559.88,-140.83 1559.88,-167 1559.88,-167 1559.88,-167 988.09,-167 988.09,-167"/>
<polygon fill="black" stroke="black" points="988.09,-163.5 978.09,-167 988.09,-170.5 988.09,-163.5"/>
</g>
<!-- NgInputComponent -->
<g id="node2" class="node">
<title>NgInputComponent</title>
<polygon fill="#ffffb3" stroke="black" points="1506.99,-122 1379.01,-122 1379.01,-86 1506.99,-86 1506.99,-122"/>
<text text-anchor="middle" x="1443" y="-99.8" font-family="Times,serif" font-size="14.00">NgInputComponent</text>
</g>
<!-- NgInputComponent&#45;&gt;SACBootstrap3InputModule -->
<g id="edge2" class="edge">
<title>NgInputComponent&#45;&gt;SACBootstrap3InputModule</title>
<path fill="none" stroke="black" d="M1398.38,-122.03C1398.38,-139.06 1398.38,-162 1398.38,-162 1398.38,-162 988.02,-162 988.02,-162"/>
<polygon fill="black" stroke="black" points="988.02,-158.5 978.02,-162 988.02,-165.5 988.02,-158.5"/>
</g>
<!-- NgInputCurrencyComponent -->
<g id="node3" class="node">
<title>NgInputCurrencyComponent</title>
<polygon fill="#ffffb3" stroke="black" points="1361.08,-122 1180.92,-122 1180.92,-86 1361.08,-86 1361.08,-122"/>
<text text-anchor="middle" x="1271" y="-99.8" font-family="Times,serif" font-size="14.00">NgInputCurrencyComponent</text>
</g>
<!-- NgInputCurrencyComponent&#45;&gt;SACBootstrap3InputModule -->
<g id="edge3" class="edge">
<title>NgInputCurrencyComponent&#45;&gt;SACBootstrap3InputModule</title>
<path fill="none" stroke="black" d="M1224.38,-122.24C1224.38,-137.57 1224.38,-157 1224.38,-157 1224.38,-157 987.99,-157 987.99,-157"/>
<polygon fill="black" stroke="black" points="987.99,-153.5 977.99,-157 987.99,-160.5 987.99,-153.5"/>
</g>
<!-- NgInputDecimalComponent -->
<g id="node4" class="node">
<title>NgInputDecimalComponent</title>
<polygon fill="#ffffb3" stroke="black" points="1162.91,-122 987.09,-122 987.09,-86 1162.91,-86 1162.91,-122"/>
<text text-anchor="middle" x="1075" y="-99.8" font-family="Times,serif" font-size="14.00">NgInputDecimalComponent</text>
</g>
<!-- NgInputDecimalComponent&#45;&gt;SACBootstrap3InputModule -->
<g id="edge4" class="edge">
<title>NgInputDecimalComponent&#45;&gt;SACBootstrap3InputModule</title>
<path fill="none" stroke="black" d="M987.03,-104C978.99,-104 973.8,-104 973.8,-104 973.8,-104 973.8,-140.89 973.8,-140.89"/>
<polygon fill="black" stroke="black" points="970.3,-140.89 973.8,-150.89 977.3,-140.89 970.3,-140.89"/>
</g>
<!-- NgInputEmailComponent -->
<g id="node5" class="node">
<title>NgInputEmailComponent</title>
<polygon fill="#ffffb3" stroke="black" points="969.93,-122 808.07,-122 808.07,-86 969.93,-86 969.93,-122"/>
<text text-anchor="middle" x="889" y="-99.8" font-family="Times,serif" font-size="14.00">NgInputEmailComponent</text>
</g>
<!-- NgInputEmailComponent&#45;&gt;SACBootstrap3InputModule -->
<g id="edge5" class="edge">
<title>NgInputEmailComponent&#45;&gt;SACBootstrap3InputModule</title>
<path fill="none" stroke="black" d="M889,-122.11C889,-122.11 889,-140.99 889,-140.99"/>
<polygon fill="black" stroke="black" points="885.5,-140.99 889,-150.99 892.5,-140.99 885.5,-140.99"/>
</g>
<!-- NgInputIntegerComponent -->
<g id="node6" class="node">
<title>NgInputIntegerComponent</title>
<polygon fill="#ffffb3" stroke="black" points="789.63,-122 622.37,-122 622.37,-86 789.63,-86 789.63,-122"/>
<text text-anchor="middle" x="706" y="-99.8" font-family="Times,serif" font-size="14.00">NgInputIntegerComponent</text>
</g>
<!-- NgInputIntegerComponent&#45;&gt;SACBootstrap3InputModule -->
<g id="edge6" class="edge">
<title>NgInputIntegerComponent&#45;&gt;SACBootstrap3InputModule</title>
<path fill="none" stroke="black" d="M789.71,-104C798.44,-104 804.2,-104 804.2,-104 804.2,-104 804.2,-140.89 804.2,-140.89"/>
<polygon fill="black" stroke="black" points="800.7,-140.89 804.2,-150.89 807.7,-140.89 800.7,-140.89"/>
</g>
<!-- NgInputPasswordComponent -->
<g id="node7" class="node">
<title>NgInputPasswordComponent</title>
<polygon fill="#ffffb3" stroke="black" points="603.64,-122 422.36,-122 422.36,-86 603.64,-86 603.64,-122"/>
<text text-anchor="middle" x="513" y="-99.8" font-family="Times,serif" font-size="14.00">NgInputPasswordComponent</text>
</g>
<!-- NgInputPasswordComponent&#45;&gt;SACBootstrap3InputModule -->
<g id="edge7" class="edge">
<title>NgInputPasswordComponent&#45;&gt;SACBootstrap3InputModule</title>
<path fill="none" stroke="black" d="M559.63,-122.24C559.63,-137.57 559.63,-157 559.63,-157 559.63,-157 789.87,-157 789.87,-157"/>
<polygon fill="black" stroke="black" points="789.87,-160.5 799.87,-157 789.87,-153.5 789.87,-160.5"/>
</g>
<!-- NgInputSearchComponent -->
<g id="node8" class="node">
<title>NgInputSearchComponent</title>
<polygon fill="#ffffb3" stroke="black" points="404.08,-122 237.92,-122 237.92,-86 404.08,-86 404.08,-122"/>
<text text-anchor="middle" x="321" y="-99.8" font-family="Times,serif" font-size="14.00">NgInputSearchComponent</text>
</g>
<!-- NgInputSearchComponent&#45;&gt;SACBootstrap3InputModule -->
<g id="edge8" class="edge">
<title>NgInputSearchComponent&#45;&gt;SACBootstrap3InputModule</title>
<path fill="none" stroke="black" d="M358.23,-122.03C358.23,-139.06 358.23,-162 358.23,-162 358.23,-162 790.16,-162 790.16,-162"/>
<polygon fill="black" stroke="black" points="790.16,-165.5 800.16,-162 790.16,-158.5 790.16,-165.5"/>
</g>
<!-- NgInputAreaComponent  -->
<g id="node11" class="node">
<title>NgInputAreaComponent </title>
<polygon fill="#fb8072" stroke="black" points="1594.19,-252 1435.81,-252 1435.81,-216 1594.19,-216 1594.19,-252"/>
<text text-anchor="middle" x="1515" y="-229.8" font-family="Times,serif" font-size="14.00">NgInputAreaComponent </text>
</g>
<!-- SACBootstrap3InputModule&#45;&gt;NgInputAreaComponent  -->
<g id="edge10" class="edge">
<title>SACBootstrap3InputModule&#45;&gt;NgInputAreaComponent </title>
<path fill="none" stroke="black" stroke-dasharray="5,2" d="M978.08,-172C1141.2,-172 1471.33,-172 1471.33,-172 1471.33,-172 1471.33,-205.73 1471.33,-205.73"/>
<polygon fill="black" stroke="black" points="1467.83,-205.73 1471.33,-215.73 1474.83,-205.73 1467.83,-205.73"/>
</g>
<!-- NgInputComponent  -->
<g id="node12" class="node">
<title>NgInputComponent </title>
<polygon fill="#fb8072" stroke="black" points="1417.99,-252 1286.01,-252 1286.01,-216 1417.99,-216 1417.99,-252"/>
<text text-anchor="middle" x="1352" y="-229.8" font-family="Times,serif" font-size="14.00">NgInputComponent </text>
</g>
<!-- SACBootstrap3InputModule&#45;&gt;NgInputComponent  -->
<g id="edge11" class="edge">
<title>SACBootstrap3InputModule&#45;&gt;NgInputComponent </title>
<path fill="none" stroke="black" stroke-dasharray="5,2" d="M978.01,-177C1105.17,-177 1323.65,-177 1323.65,-177 1323.65,-177 1323.65,-205.96 1323.65,-205.96"/>
<polygon fill="black" stroke="black" points="1320.15,-205.96 1323.65,-215.96 1327.15,-205.96 1320.15,-205.96"/>
</g>
<!-- NgInputCurrencyComponent  -->
<g id="node13" class="node">
<title>NgInputCurrencyComponent </title>
<polygon fill="#fb8072" stroke="black" points="1267.58,-252 1084.42,-252 1084.42,-216 1267.58,-216 1267.58,-252"/>
<text text-anchor="middle" x="1176" y="-229.8" font-family="Times,serif" font-size="14.00">NgInputCurrencyComponent </text>
</g>
<!-- SACBootstrap3InputModule&#45;&gt;NgInputCurrencyComponent  -->
<g id="edge12" class="edge">
<title>SACBootstrap3InputModule&#45;&gt;NgInputCurrencyComponent </title>
<path fill="none" stroke="black" stroke-dasharray="5,2" d="M977.97,-182C1044.3,-182 1123.46,-182 1123.46,-182 1123.46,-182 1123.46,-205.81 1123.46,-205.81"/>
<polygon fill="black" stroke="black" points="1119.96,-205.81 1123.46,-215.81 1126.96,-205.81 1119.96,-205.81"/>
</g>
<!-- NgInputDecimalComponent  -->
<g id="node14" class="node">
<title>NgInputDecimalComponent </title>
<polygon fill="#fb8072" stroke="black" points="1066.41,-252 887.59,-252 887.59,-216 1066.41,-216 1066.41,-252"/>
<text text-anchor="middle" x="977" y="-229.8" font-family="Times,serif" font-size="14.00">NgInputDecimalComponent </text>
</g>
<!-- SACBootstrap3InputModule&#45;&gt;NgInputDecimalComponent  -->
<g id="edge13" class="edge">
<title>SACBootstrap3InputModule&#45;&gt;NgInputDecimalComponent </title>
<path fill="none" stroke="black" stroke-dasharray="5,2" d="M932.71,-187.11C932.71,-187.11 932.71,-205.99 932.71,-205.99"/>
<polygon fill="black" stroke="black" points="929.21,-205.99 932.71,-215.99 936.21,-205.99 929.21,-205.99"/>
</g>
<!-- NgInputEmailComponent  -->
<g id="node15" class="node">
<title>NgInputEmailComponent </title>
<polygon fill="#fb8072" stroke="black" points="869.43,-252 704.57,-252 704.57,-216 869.43,-216 869.43,-252"/>
<text text-anchor="middle" x="787" y="-229.8" font-family="Times,serif" font-size="14.00">NgInputEmailComponent </text>
</g>
<!-- SACBootstrap3InputModule&#45;&gt;NgInputEmailComponent  -->
<g id="edge14" class="edge">
<title>SACBootstrap3InputModule&#45;&gt;NgInputEmailComponent </title>
<path fill="none" stroke="black" stroke-dasharray="5,2" d="M834.79,-187.11C834.79,-187.11 834.79,-205.99 834.79,-205.99"/>
<polygon fill="black" stroke="black" points="831.29,-205.99 834.79,-215.99 838.29,-205.99 831.29,-205.99"/>
</g>
<!-- NgInputIntegerComponent  -->
<g id="node16" class="node">
<title>NgInputIntegerComponent </title>
<polygon fill="#fb8072" stroke="black" points="686.63,-252 515.37,-252 515.37,-216 686.63,-216 686.63,-252"/>
<text text-anchor="middle" x="601" y="-229.8" font-family="Times,serif" font-size="14.00">NgInputIntegerComponent </text>
</g>
<!-- SACBootstrap3InputModule&#45;&gt;NgInputIntegerComponent  -->
<g id="edge15" class="edge">
<title>SACBootstrap3InputModule&#45;&gt;NgInputIntegerComponent </title>
<path fill="none" stroke="black" stroke-dasharray="5,2" d="M799.96,-182C733.59,-182 654.38,-182 654.38,-182 654.38,-182 654.38,-205.81 654.38,-205.81"/>
<polygon fill="black" stroke="black" points="650.88,-205.81 654.38,-215.81 657.88,-205.81 650.88,-205.81"/>
</g>
<!-- NgInputPasswordComponent  -->
<g id="node17" class="node">
<title>NgInputPasswordComponent </title>
<polygon fill="#fb8072" stroke="black" points="497.64,-252 312.36,-252 312.36,-216 497.64,-216 497.64,-252"/>
<text text-anchor="middle" x="405" y="-229.8" font-family="Times,serif" font-size="14.00">NgInputPasswordComponent </text>
</g>
<!-- SACBootstrap3InputModule&#45;&gt;NgInputPasswordComponent  -->
<g id="edge16" class="edge">
<title>SACBootstrap3InputModule&#45;&gt;NgInputPasswordComponent </title>
<path fill="none" stroke="black" stroke-dasharray="5,2" d="M800.09,-177C674.39,-177 459.88,-177 459.88,-177 459.88,-177 459.88,-205.96 459.88,-205.96"/>
<polygon fill="black" stroke="black" points="456.38,-205.96 459.88,-215.96 463.38,-205.96 456.38,-205.96"/>
</g>
<!-- NgInputSearchComponent  -->
<g id="node18" class="node">
<title>NgInputSearchComponent </title>
<polygon fill="#fb8072" stroke="black" points="294.58,-252 125.42,-252 125.42,-216 294.58,-216 294.58,-252"/>
<text text-anchor="middle" x="210" y="-229.8" font-family="Times,serif" font-size="14.00">NgInputSearchComponent </text>
</g>
<!-- SACBootstrap3InputModule&#45;&gt;NgInputSearchComponent  -->
<g id="edge17" class="edge">
<title>SACBootstrap3InputModule&#45;&gt;NgInputSearchComponent </title>
<path fill="none" stroke="black" stroke-dasharray="5,2" d="M800.12,-172C628.09,-172 266.38,-172 266.38,-172 266.38,-172 266.38,-205.73 266.38,-205.73"/>
<polygon fill="black" stroke="black" points="262.88,-205.73 266.38,-215.73 269.88,-205.73 262.88,-205.73"/>
</g>
<!-- SACBootstrap3TooltipModule -->
<g id="node10" class="node">
<title>SACBootstrap3TooltipModule</title>
<polygon fill="#8dd3c7" stroke="black" points="213.94,-122 210.94,-126 189.94,-126 186.94,-122 24.06,-122 24.06,-86 213.94,-86 213.94,-122"/>
<text text-anchor="middle" x="119" y="-99.8" font-family="Times,serif" font-size="14.00">SACBootstrap3TooltipModule</text>
</g>
<!-- SACBootstrap3TooltipModule&#45;&gt;SACBootstrap3InputModule -->
<g id="edge9" class="edge">
<title>SACBootstrap3TooltipModule&#45;&gt;SACBootstrap3InputModule</title>
<path fill="none" stroke="black" d="M169.47,-122.22C169.47,-140.83 169.47,-167 169.47,-167 169.47,-167 790.05,-167 790.05,-167"/>
<polygon fill="black" stroke="black" points="790.05,-170.5 800.05,-167 790.05,-163.5 790.05,-170.5"/>
</g>
</g>
</svg>
