<?xml version="1.0" encoding="UTF-8" standalone="no"?>
<!DOCTYPE svg PUBLIC "-//W3C//DTD SVG 1.1//EN"
 "http://www.w3.org/Graphics/SVG/1.1/DTD/svg11.dtd">
<!-- Generated by graphviz version 2.47.0 (20210316.0004)
 -->
<!-- Title: dependencies Pages: 1 -->
<svg width="1590pt" height="284pt"
 viewBox="0.00 0.00 1590.00 284.00" xmlns="http://www.w3.org/2000/svg" xmlns:xlink="http://www.w3.org/1999/xlink">
<g id="graph0" class="graph" transform="scale(1 1) rotate(0) translate(4 280)">
<title>dependencies</title>
<polygon fill="white" stroke="transparent" points="-4,4 -4,-280 1586,-280 1586,4 -4,4"/>
<text text-anchor="start" x="770.01" y="-42.4" font-family="Times-12" font-weight="bold" font-size="14.00">Legend</text>
<polygon fill="#ffffb3" stroke="transparent" points="557,-10 557,-30 577,-30 577,-10 557,-10"/>
<text text-anchor="start" x="580.63" y="-15.4" font-family="Times-12" font-size="14.00"> &#160;Declarations</text>
<polygon fill="#8dd3c7" stroke="transparent" points="670,-10 670,-30 690,-30 690,-10 670,-10"/>
<text text-anchor="start" x="693.73" y="-15.4" font-family="Times-12" font-size="14.00"> &#160;Module</text>
<polygon fill="#80b1d3" stroke="transparent" points="756,-10 756,-30 776,-30 776,-10 756,-10"/>
<text text-anchor="start" x="779.78" y="-15.4" font-family="Times-12" font-size="14.00"> &#160;Bootstrap</text>
<polygon fill="#fdb462" stroke="transparent" points="853,-10 853,-30 873,-30 873,-10 853,-10"/>
<text text-anchor="start" x="876.67" y="-15.4" font-family="Times-12" font-size="14.00"> &#160;Providers</text>
<polygon fill="#fb8072" stroke="transparent" points="949,-10 949,-30 969,-30 969,-10 949,-10"/>
<text text-anchor="start" x="972.73" y="-15.4" font-family="Times-12" font-size="14.00"> &#160;Exports</text>
<g id="clust1" class="cluster">
<title>cluster_SACBootstrap4MultilanguageModule</title>
<polygon fill="none" stroke="black" stroke-dasharray="1,5" points="8,-70 8,-268 1574,-268 1574,-70 8,-70"/>
</g>
<g id="clust10" class="cluster">
<title>cluster_SACBootstrap4MultilanguageModule_exports</title>
<polygon fill="none" stroke="black" points="584,-208 584,-260 1078,-260 1078,-208 584,-208"/>
</g>
<g id="clust2" class="cluster">
<title>cluster_SACBootstrap4MultilanguageModule_declarations</title>
<polygon fill="none" stroke="black" points="16,-78 16,-130 1566,-130 1566,-78 16,-78"/>
</g>
<!-- SacMultilanguageInputAreaComponent -->
<g id="node1" class="node">
<title>SacMultilanguageInputAreaComponent</title>
<polygon fill="#ffffb3" stroke="black" points="1557.94,-122 1318.06,-122 1318.06,-86 1557.94,-86 1557.94,-122"/>
<text text-anchor="middle" x="1438" y="-99.8" font-family="Times,serif" font-size="14.00">SacMultilanguageInputAreaComponent</text>
</g>
<!-- SACBootstrap4MultilanguageModule -->
<g id="node7" class="node">
<title>SACBootstrap4MultilanguageModule</title>
<polygon fill="#8dd3c7" stroke="black" points="938.86,-187 935.86,-191 914.86,-191 911.86,-187 709.14,-187 709.14,-151 938.86,-151 938.86,-187"/>
<text text-anchor="middle" x="824" y="-164.8" font-family="Times,serif" font-size="14.00">SACBootstrap4MultilanguageModule</text>
</g>
<!-- SacMultilanguageInputAreaComponent&#45;&gt;SACBootstrap4MultilanguageModule -->
<g id="edge1" class="edge">
<title>SacMultilanguageInputAreaComponent&#45;&gt;SACBootstrap4MultilanguageModule</title>
<path fill="none" stroke="black" d="M1438,-122.28C1438,-143.32 1438,-175 1438,-175 1438,-175 949.13,-175 949.13,-175"/>
<polygon fill="black" stroke="black" points="949.13,-171.5 939.13,-175 949.13,-178.5 949.13,-171.5"/>
</g>
<!-- SacMultilanguageInputComponent -->
<g id="node2" class="node">
<title>SacMultilanguageInputComponent</title>
<polygon fill="#ffffb3" stroke="black" points="1300.25,-122 1087.75,-122 1087.75,-86 1300.25,-86 1300.25,-122"/>
<text text-anchor="middle" x="1194" y="-99.8" font-family="Times,serif" font-size="14.00">SacMultilanguageInputComponent</text>
</g>
<!-- SacMultilanguageInputComponent&#45;&gt;SACBootstrap4MultilanguageModule -->
<g id="edge2" class="edge">
<title>SacMultilanguageInputComponent&#45;&gt;SACBootstrap4MultilanguageModule</title>
<path fill="none" stroke="black" d="M1194,-122.02C1194,-139.37 1194,-163 1194,-163 1194,-163 949.04,-163 949.04,-163"/>
<polygon fill="black" stroke="black" points="949.04,-159.5 939.04,-163 949.04,-166.5 949.04,-159.5"/>
</g>
<!-- SacMultilanguagemenuAnchorDirective -->
<g id="node3" class="node">
<title>SacMultilanguagemenuAnchorDirective</title>
<polygon fill="#ffffb3" stroke="black" points="1069.53,-122 826.47,-122 826.47,-86 1069.53,-86 1069.53,-122"/>
<text text-anchor="middle" x="948" y="-99.8" font-family="Times,serif" font-size="14.00">SacMultilanguagemenuAnchorDirective</text>
</g>
<!-- SacMultilanguagemenuAnchorDirective&#45;&gt;SACBootstrap4MultilanguageModule -->
<g id="edge3" class="edge">
<title>SacMultilanguagemenuAnchorDirective&#45;&gt;SACBootstrap4MultilanguageModule</title>
<path fill="none" stroke="black" d="M882.71,-122.11C882.71,-122.11 882.71,-140.99 882.71,-140.99"/>
<polygon fill="black" stroke="black" points="879.21,-140.99 882.71,-150.99 886.21,-140.99 879.21,-140.99"/>
</g>
<!-- SacMultilanguagemenuComponent -->
<g id="node4" class="node">
<title>SacMultilanguagemenuComponent</title>
<polygon fill="#ffffb3" stroke="black" points="808.3,-122 593.7,-122 593.7,-86 808.3,-86 808.3,-122"/>
<text text-anchor="middle" x="701" y="-99.8" font-family="Times,serif" font-size="14.00">SacMultilanguagemenuComponent</text>
</g>
<!-- SacMultilanguagemenuComponent&#45;&gt;SACBootstrap4MultilanguageModule -->
<g id="edge4" class="edge">
<title>SacMultilanguagemenuComponent&#45;&gt;SACBootstrap4MultilanguageModule</title>
<path fill="none" stroke="black" d="M758.61,-122.11C758.61,-122.11 758.61,-140.99 758.61,-140.99"/>
<polygon fill="black" stroke="black" points="755.11,-140.99 758.61,-150.99 762.11,-140.99 755.11,-140.99"/>
</g>
<!-- SacMultilanguagemenuContainerDirective -->
<g id="node5" class="node">
<title>SacMultilanguagemenuContainerDirective</title>
<polygon fill="#ffffb3" stroke="black" points="576.26,-122 319.74,-122 319.74,-86 576.26,-86 576.26,-122"/>
<text text-anchor="middle" x="448" y="-99.8" font-family="Times,serif" font-size="14.00">SacMultilanguagemenuContainerDirective</text>
</g>
<!-- SacMultilanguagemenuContainerDirective&#45;&gt;SACBootstrap4MultilanguageModule -->
<g id="edge5" class="edge">
<title>SacMultilanguagemenuContainerDirective&#45;&gt;SACBootstrap4MultilanguageModule</title>
<path fill="none" stroke="black" d="M448,-122.02C448,-139.37 448,-163 448,-163 448,-163 698.89,-163 698.89,-163"/>
<polygon fill="black" stroke="black" points="698.89,-166.5 708.89,-163 698.89,-159.5 698.89,-166.5"/>
</g>
<!-- SacMultilanguagemenuItemButtonComponent -->
<g id="node6" class="node">
<title>SacMultilanguagemenuItemButtonComponent</title>
<polygon fill="#ffffb3" stroke="black" points="302.07,-122 23.93,-122 23.93,-86 302.07,-86 302.07,-122"/>
<text text-anchor="middle" x="163" y="-99.8" font-family="Times,serif" font-size="14.00">SacMultilanguagemenuItemButtonComponent</text>
</g>
<!-- SacMultilanguagemenuItemButtonComponent&#45;&gt;SACBootstrap4MultilanguageModule -->
<g id="edge6" class="edge">
<title>SacMultilanguagemenuItemButtonComponent&#45;&gt;SACBootstrap4MultilanguageModule</title>
<path fill="none" stroke="black" d="M163,-122.28C163,-143.32 163,-175 163,-175 163,-175 698.86,-175 698.86,-175"/>
<polygon fill="black" stroke="black" points="698.86,-178.5 708.86,-175 698.86,-171.5 698.86,-178.5"/>
</g>
<!-- SacMultilanguageInputAreaComponent  -->
<g id="node8" class="node">
<title>SacMultilanguageInputAreaComponent </title>
<polygon fill="#fb8072" stroke="black" points="1069.94,-252 826.06,-252 826.06,-216 1069.94,-216 1069.94,-252"/>
<text text-anchor="middle" x="948" y="-229.8" font-family="Times,serif" font-size="14.00">SacMultilanguageInputAreaComponent </text>
</g>
<!-- SACBootstrap4MultilanguageModule&#45;&gt;SacMultilanguageInputAreaComponent  -->
<g id="edge7" class="edge">
<title>SACBootstrap4MultilanguageModule&#45;&gt;SacMultilanguageInputAreaComponent </title>
<path fill="none" stroke="black" stroke-dasharray="5,2" d="M882.61,-187.11C882.61,-187.11 882.61,-205.99 882.61,-205.99"/>
<polygon fill="black" stroke="black" points="879.11,-205.99 882.61,-215.99 886.11,-205.99 879.11,-205.99"/>
</g>
<!-- SacMultilanguageInputComponent  -->
<g id="node9" class="node">
<title>SacMultilanguageInputComponent </title>
<polygon fill="#fb8072" stroke="black" points="808.25,-252 591.75,-252 591.75,-216 808.25,-216 808.25,-252"/>
<text text-anchor="middle" x="700" y="-229.8" font-family="Times,serif" font-size="14.00">SacMultilanguageInputComponent </text>
</g>
<!-- SACBootstrap4MultilanguageModule&#45;&gt;SacMultilanguageInputComponent  -->
<g id="edge8" class="edge">
<title>SACBootstrap4MultilanguageModule&#45;&gt;SacMultilanguageInputComponent </title>
<path fill="none" stroke="black" stroke-dasharray="5,2" d="M758.6,-187.11C758.6,-187.11 758.6,-205.99 758.6,-205.99"/>
<polygon fill="black" stroke="black" points="755.1,-205.99 758.6,-215.99 762.1,-205.99 755.1,-205.99"/>
</g>
</g>
</svg>
