<?xml version="1.0" encoding="UTF-8" standalone="no"?>
<!DOCTYPE svg PUBLIC "-//W3C//DTD SVG 1.1//EN"
 "http://www.w3.org/Graphics/SVG/1.1/DTD/svg11.dtd">
<!-- Generated by graphviz version 2.47.3 (20210619.1520)
 -->
<!-- Title: dependencies Pages: 1 -->
<svg width="3862pt" height="358pt"
 viewBox="0.00 0.00 3862.00 358.39" xmlns="http://www.w3.org/2000/svg" xmlns:xlink="http://www.w3.org/1999/xlink">
<g id="graph0" class="graph" transform="scale(1 1) rotate(0) translate(4 354.39)">
<title>dependencies</title>
<polygon fill="white" stroke="transparent" points="-4,4 -4,-354.39 3858,-354.39 3858,4 -4,4"/>
<text text-anchor="middle" x="1927" y="-8.2" font-family="sans-serif" font-size="14.00">dependencies</text>
<g id="clust1" class="cluster">
<title>cluster_JNetworkBootstrap4UploadModule</title>
<polygon fill="none" stroke="black" stroke-dasharray="1,5" points="8,-32.8 8,-342.39 3846,-342.39 3846,-32.8 8,-32.8"/>
</g>
<g id="clust8" class="cluster">
<title>cluster_JNetworkBootstrap4UploadModule_exports</title>
<polygon fill="none" stroke="black" points="286,-282.39 286,-334.39 1089,-334.39 1089,-282.39 286,-282.39"/>
</g>
<g id="clust4" class="cluster">
<title>cluster_JNetworkBootstrap4UploadModule_NgDropzoneSingleComponent_providers</title>
<polygon fill="none" stroke="black" points="2134,-40.8 2134,-204.39 3838,-204.39 3838,-40.8 2134,-40.8"/>
</g>
<g id="clust3" class="cluster">
<title>cluster_JNetworkBootstrap4UploadModule_NgDropzoneMultipleComponent_providers</title>
<polygon fill="none" stroke="black" points="386,-40.8 386,-204.39 2126,-204.39 2126,-40.8 386,-40.8"/>
</g>
<g id="clust2" class="cluster">
<title>cluster_JNetworkBootstrap4UploadModule_declarations</title>
<polygon fill="none" stroke="black" points="16,-152.39 16,-204.39 378,-204.39 378,-152.39 16,-152.39"/>
</g>
<!-- NgDropzoneMultipleComponent -->
<g id="node1" class="node">
<title>NgDropzoneMultipleComponent</title>
<polygon fill="#ffffb3" stroke="black" points="945.86,-196.39 744.14,-196.39 744.14,-160.39 945.86,-160.39 945.86,-196.39"/>
<text text-anchor="middle" x="845" y="-174.19" font-family="Times,serif" font-size="14.00">NgDropzoneMultipleComponent</text>
</g>
<!-- JNetworkBootstrap4UploadModule -->
<g id="node5" class="node">
<title>JNetworkBootstrap4UploadModule</title>
<polygon fill="#8dd3c7" stroke="black" points="776.12,-261.39 773.12,-265.39 752.12,-265.39 749.12,-261.39 559.88,-261.39 559.88,-225.39 776.12,-225.39 776.12,-261.39"/>
<text text-anchor="middle" x="668" y="-239.19" font-family="Times,serif" font-size="14.00">JNetworkBootstrap4UploadModule</text>
</g>
<!-- NgDropzoneMultipleComponent&#45;&gt;JNetworkBootstrap4UploadModule -->
<g id="edge1" class="edge">
<title>NgDropzoneMultipleComponent&#45;&gt;JNetworkBootstrap4UploadModule</title>
<path fill="none" stroke="black" d="M760.19,-196.5C760.19,-196.5 760.19,-215.38 760.19,-215.38"/>
<polygon fill="black" stroke="black" points="756.69,-215.38 760.19,-225.38 763.69,-215.38 756.69,-215.38"/>
</g>
<!-- NgDropzoneSingleComponent -->
<g id="node2" class="node">
<title>NgDropzoneSingleComponent</title>
<polygon fill="#ffffb3" stroke="black" points="2678.91,-196.39 2489.09,-196.39 2489.09,-160.39 2678.91,-160.39 2678.91,-196.39"/>
<text text-anchor="middle" x="2584" y="-174.19" font-family="Times,serif" font-size="14.00">NgDropzoneSingleComponent</text>
</g>
<!-- NgDropzoneSingleComponent&#45;&gt;JNetworkBootstrap4UploadModule -->
<g id="edge4" class="edge">
<title>NgDropzoneSingleComponent&#45;&gt;JNetworkBootstrap4UploadModule</title>
<path fill="none" stroke="black" d="M2584,-196.41C2584,-213.76 2584,-237.39 2584,-237.39 2584,-237.39 786.16,-237.39 786.16,-237.39"/>
<polygon fill="black" stroke="black" points="786.16,-233.89 776.16,-237.39 786.16,-240.89 786.16,-233.89"/>
</g>
<!-- NgUploadComponent -->
<g id="node3" class="node">
<title>NgUploadComponent</title>
<polygon fill="#ffffb3" stroke="black" points="369.65,-196.39 230.35,-196.39 230.35,-160.39 369.65,-160.39 369.65,-196.39"/>
<text text-anchor="middle" x="300" y="-174.19" font-family="Times,serif" font-size="14.00">NgUploadComponent</text>
</g>
<!-- NgUploadComponent&#45;&gt;JNetworkBootstrap4UploadModule -->
<g id="edge7" class="edge">
<title>NgUploadComponent&#45;&gt;JNetworkBootstrap4UploadModule</title>
<path fill="none" stroke="black" d="M332.07,-196.42C332.07,-212.79 332.07,-234.39 332.07,-234.39 332.07,-234.39 549.86,-234.39 549.86,-234.39"/>
<polygon fill="black" stroke="black" points="549.86,-237.89 559.86,-234.39 549.86,-230.89 549.86,-237.89"/>
</g>
<!-- NgUploadMultipleComponent -->
<g id="node4" class="node">
<title>NgUploadMultipleComponent</title>
<polygon fill="#ffffb3" stroke="black" points="211.87,-196.39 24.13,-196.39 24.13,-160.39 211.87,-160.39 211.87,-196.39"/>
<text text-anchor="middle" x="118" y="-174.19" font-family="Times,serif" font-size="14.00">NgUploadMultipleComponent</text>
</g>
<!-- NgUploadMultipleComponent&#45;&gt;JNetworkBootstrap4UploadModule -->
<g id="edge8" class="edge">
<title>NgUploadMultipleComponent&#45;&gt;JNetworkBootstrap4UploadModule</title>
<path fill="none" stroke="black" d="M118,-196.5C118,-215.73 118,-243.39 118,-243.39 118,-243.39 549.67,-243.39 549.67,-243.39"/>
<polygon fill="black" stroke="black" points="549.67,-246.89 559.67,-243.39 549.67,-239.89 549.67,-246.89"/>
</g>
<!-- NgDropzoneMultipleComponent  -->
<g id="node10" class="node">
<title>NgDropzoneMultipleComponent </title>
<polygon fill="#fb8072" stroke="black" points="1080.86,-326.39 875.14,-326.39 875.14,-290.39 1080.86,-290.39 1080.86,-326.39"/>
<text text-anchor="middle" x="978" y="-304.19" font-family="Times,serif" font-size="14.00">NgDropzoneMultipleComponent </text>
</g>
<!-- JNetworkBootstrap4UploadModule&#45;&gt;NgDropzoneMultipleComponent  -->
<g id="edge9" class="edge">
<title>JNetworkBootstrap4UploadModule&#45;&gt;NgDropzoneMultipleComponent </title>
<path fill="none" stroke="black" stroke-dasharray="5,2" d="M776.19,-249.39C840.89,-249.39 910.62,-249.39 910.62,-249.39 910.62,-249.39 910.62,-280.37 910.62,-280.37"/>
<polygon fill="black" stroke="black" points="907.13,-280.37 910.62,-290.37 914.13,-280.37 907.13,-280.37"/>
</g>
<!-- NgDropzoneSingleComponent  -->
<g id="node11" class="node">
<title>NgDropzoneSingleComponent </title>
<polygon fill="#fb8072" stroke="black" points="857.41,-326.39 664.59,-326.39 664.59,-290.39 857.41,-290.39 857.41,-326.39"/>
<text text-anchor="middle" x="761" y="-304.19" font-family="Times,serif" font-size="14.00">NgDropzoneSingleComponent </text>
</g>
<!-- JNetworkBootstrap4UploadModule&#45;&gt;NgDropzoneSingleComponent  -->
<g id="edge10" class="edge">
<title>JNetworkBootstrap4UploadModule&#45;&gt;NgDropzoneSingleComponent </title>
<path fill="none" stroke="black" stroke-dasharray="5,2" d="M720.43,-261.5C720.43,-261.5 720.43,-280.38 720.43,-280.38"/>
<polygon fill="black" stroke="black" points="716.93,-280.38 720.43,-290.38 723.93,-280.38 716.93,-280.38"/>
</g>
<!-- NgUploadComponent  -->
<g id="node12" class="node">
<title>NgUploadComponent </title>
<polygon fill="#fb8072" stroke="black" points="646.65,-326.39 503.35,-326.39 503.35,-290.39 646.65,-290.39 646.65,-326.39"/>
<text text-anchor="middle" x="575" y="-304.19" font-family="Times,serif" font-size="14.00">NgUploadComponent </text>
</g>
<!-- JNetworkBootstrap4UploadModule&#45;&gt;NgUploadComponent  -->
<g id="edge11" class="edge">
<title>JNetworkBootstrap4UploadModule&#45;&gt;NgUploadComponent </title>
<path fill="none" stroke="black" stroke-dasharray="5,2" d="M603.13,-261.5C603.13,-261.5 603.13,-280.38 603.13,-280.38"/>
<polygon fill="black" stroke="black" points="599.63,-280.38 603.13,-290.38 606.63,-280.38 599.63,-280.38"/>
</g>
<!-- NgUploadMultipleComponent  -->
<g id="node13" class="node">
<title>NgUploadMultipleComponent </title>
<polygon fill="#fb8072" stroke="black" points="485.87,-326.39 294.13,-326.39 294.13,-290.39 485.87,-290.39 485.87,-326.39"/>
<text text-anchor="middle" x="390" y="-304.19" font-family="Times,serif" font-size="14.00">NgUploadMultipleComponent </text>
</g>
<!-- JNetworkBootstrap4UploadModule&#45;&gt;NgUploadMultipleComponent  -->
<g id="edge12" class="edge">
<title>JNetworkBootstrap4UploadModule&#45;&gt;NgUploadMultipleComponent </title>
<path fill="none" stroke="black" stroke-dasharray="5,2" d="M559.65,-252.39C500.81,-252.39 439.94,-252.39 439.94,-252.39 439.94,-252.39 439.94,-280.36 439.94,-280.36"/>
<polygon fill="black" stroke="black" points="436.44,-280.36 439.94,-290.36 443.44,-280.36 436.44,-280.36"/>
</g>
<!-- {
 &#160;&#160;&#160;provide: NG_VALUE_ACCESSOR, multi: true, useExisting: NgDropzoneMultipleComponent,
} -->
<g id="node6" class="node">
<title>{
 &#160;&#160;&#160;provide: NG_VALUE_ACCESSOR, multi: true, useExisting: NgDropzoneMultipleComponent,
}</title>
<ellipse fill="#fdb462" stroke="black" cx="1716" cy="-90.1" rx="402.09" ry="41.09"/>
<text text-anchor="middle" x="1716" y="-102.7" font-family="Times,serif" font-size="14.00">{</text>
<text text-anchor="middle" x="1716" y="-85.9" font-family="Times,serif" font-size="14.00"> &#160;&#160;&#160;provide: NG_VALUE_ACCESSOR, multi: true, useExisting: NgDropzoneMultipleComponent,</text>
<text text-anchor="middle" x="1716" y="-69.1" font-family="Times,serif" font-size="14.00">}</text>
</g>
<!-- {
 &#160;&#160;&#160;provide: NG_VALUE_ACCESSOR, multi: true, useExisting: NgDropzoneMultipleComponent,
}&#45;&gt;NgDropzoneMultipleComponent -->
<g id="edge2" class="edge">
<title>{
 &#160;&#160;&#160;provide: NG_VALUE_ACCESSOR, multi: true, useExisting: NgDropzoneMultipleComponent,
}&#45;&gt;NgDropzoneMultipleComponent</title>
<path fill="none" stroke="black" d="M1716,-131.4C1716,-154.38 1716,-178.39 1716,-178.39 1716,-178.39 956.19,-178.39 956.19,-178.39"/>
<polygon fill="black" stroke="black" points="956.19,-174.89 946.19,-178.39 956.19,-181.89 956.19,-174.89"/>
</g>
<!-- {
 &#160;&#160;&#160;provide: NG_VALIDATORS, multi: true, useExisting: forwardRef(() =&gt; NgDropzoneMultipleComponent),
} -->
<g id="node7" class="node">
<title>{
 &#160;&#160;&#160;provide: NG_VALIDATORS, multi: true, useExisting: forwardRef(() =&gt; NgDropzoneMultipleComponent),
}</title>
<ellipse fill="#fdb462" stroke="black" cx="845" cy="-90.1" rx="450.6" ry="41.09"/>
<text text-anchor="middle" x="845" y="-102.7" font-family="Times,serif" font-size="14.00">{</text>
<text text-anchor="middle" x="845" y="-85.9" font-family="Times,serif" font-size="14.00"> &#160;&#160;&#160;provide: NG_VALIDATORS, multi: true, useExisting: forwardRef(() =&gt; NgDropzoneMultipleComponent),</text>
<text text-anchor="middle" x="845" y="-69.1" font-family="Times,serif" font-size="14.00">}</text>
</g>
<!-- {
 &#160;&#160;&#160;provide: NG_VALIDATORS, multi: true, useExisting: forwardRef(() =&gt; NgDropzoneMultipleComponent),
}&#45;&gt;NgDropzoneMultipleComponent -->
<g id="edge3" class="edge">
<title>{
 &#160;&#160;&#160;provide: NG_VALIDATORS, multi: true, useExisting: forwardRef(() =&gt; NgDropzoneMultipleComponent),
}&#45;&gt;NgDropzoneMultipleComponent</title>
<path fill="none" stroke="black" d="M845,-131.4C845,-131.4 845,-150.06 845,-150.06"/>
<polygon fill="black" stroke="black" points="841.5,-150.06 845,-160.06 848.5,-150.06 841.5,-150.06"/>
</g>
<!-- {
 &#160;&#160;&#160;provide: NG_VALUE_ACCESSOR, multi: true, useExisting: NgDropzoneSingleComponent,
} -->
<g id="node8" class="node">
<title>{
 &#160;&#160;&#160;provide: NG_VALUE_ACCESSOR, multi: true, useExisting: NgDropzoneSingleComponent,
}</title>
<ellipse fill="#fdb462" stroke="black" cx="3437" cy="-90.1" rx="393.49" ry="41.09"/>
<text text-anchor="middle" x="3437" y="-102.7" font-family="Times,serif" font-size="14.00">{</text>
<text text-anchor="middle" x="3437" y="-85.9" font-family="Times,serif" font-size="14.00"> &#160;&#160;&#160;provide: NG_VALUE_ACCESSOR, multi: true, useExisting: NgDropzoneSingleComponent,</text>
<text text-anchor="middle" x="3437" y="-69.1" font-family="Times,serif" font-size="14.00">}</text>
</g>
<!-- {
 &#160;&#160;&#160;provide: NG_VALUE_ACCESSOR, multi: true, useExisting: NgDropzoneSingleComponent,
}&#45;&gt;NgDropzoneSingleComponent -->
<g id="edge5" class="edge">
<title>{
 &#160;&#160;&#160;provide: NG_VALUE_ACCESSOR, multi: true, useExisting: NgDropzoneSingleComponent,
}&#45;&gt;NgDropzoneSingleComponent</title>
<path fill="none" stroke="black" d="M3437,-131.4C3437,-154.38 3437,-178.39 3437,-178.39 3437,-178.39 2688.96,-178.39 2688.96,-178.39"/>
<polygon fill="black" stroke="black" points="2688.96,-174.89 2678.96,-178.39 2688.96,-181.89 2688.96,-174.89"/>
</g>
<!-- {
 &#160;&#160;&#160;provide: NG_VALIDATORS, multi: true, useExisting: forwardRef(() =&gt; NgDropzoneSingleComponent),
} -->
<g id="node9" class="node">
<title>{
 &#160;&#160;&#160;provide: NG_VALIDATORS, multi: true, useExisting: forwardRef(() =&gt; NgDropzoneSingleComponent),
}</title>
<ellipse fill="#fdb462" stroke="black" cx="2584" cy="-90.1" rx="442" ry="41.09"/>
<text text-anchor="middle" x="2584" y="-102.7" font-family="Times,serif" font-size="14.00">{</text>
<text text-anchor="middle" x="2584" y="-85.9" font-family="Times,serif" font-size="14.00"> &#160;&#160;&#160;provide: NG_VALIDATORS, multi: true, useExisting: forwardRef(() =&gt; NgDropzoneSingleComponent),</text>
<text text-anchor="middle" x="2584" y="-69.1" font-family="Times,serif" font-size="14.00">}</text>
</g>
<!-- {
 &#160;&#160;&#160;provide: NG_VALIDATORS, multi: true, useExisting: forwardRef(() =&gt; NgDropzoneSingleComponent),
}&#45;&gt;NgDropzoneSingleComponent -->
<g id="edge6" class="edge">
<title>{
 &#160;&#160;&#160;provide: NG_VALIDATORS, multi: true, useExisting: forwardRef(() =&gt; NgDropzoneSingleComponent),
}&#45;&gt;NgDropzoneSingleComponent</title>
<path fill="none" stroke="black" d="M2584,-131.4C2584,-131.4 2584,-150.06 2584,-150.06"/>
<polygon fill="black" stroke="black" points="2580.5,-150.06 2584,-160.06 2587.5,-150.06 2580.5,-150.06"/>
</g>
</g>
</svg>
