<?xml version="1.0" encoding="UTF-8" standalone="no"?>
<!DOCTYPE svg PUBLIC "-//W3C//DTD SVG 1.1//EN"
 "http://www.w3.org/Graphics/SVG/1.1/DTD/svg11.dtd">
<!-- Generated by graphviz version 2.47.0 (20210316.0004)
 -->
<!-- Title: dependencies Pages: 1 -->
<svg width="2334pt" height="396pt"
 viewBox="0.00 0.00 2334.00 395.59" xmlns="http://www.w3.org/2000/svg" xmlns:xlink="http://www.w3.org/1999/xlink">
<g id="graph0" class="graph" transform="scale(1 1) rotate(0) translate(4 391.59)">
<title>dependencies</title>
<polygon fill="white" stroke="transparent" points="-4,4 -4,-391.59 2330,-391.59 2330,4 -4,4"/>
<text text-anchor="start" x="1142.01" y="-42.4" font-family="Times-12" font-weight="bold" font-size="14.00">Legend</text>
<polygon fill="#ffffb3" stroke="transparent" points="929,-10 929,-30 949,-30 949,-10 929,-10"/>
<text text-anchor="start" x="952.63" y="-15.4" font-family="Times-12" font-size="14.00"> &#160;Declarations</text>
<polygon fill="#8dd3c7" stroke="transparent" points="1042,-10 1042,-30 1062,-30 1062,-10 1042,-10"/>
<text text-anchor="start" x="1065.73" y="-15.4" font-family="Times-12" font-size="14.00"> &#160;Module</text>
<polygon fill="#80b1d3" stroke="transparent" points="1128,-10 1128,-30 1148,-30 1148,-10 1128,-10"/>
<text text-anchor="start" x="1151.78" y="-15.4" font-family="Times-12" font-size="14.00"> &#160;Bootstrap</text>
<polygon fill="#fdb462" stroke="transparent" points="1225,-10 1225,-30 1245,-30 1245,-10 1225,-10"/>
<text text-anchor="start" x="1248.67" y="-15.4" font-family="Times-12" font-size="14.00"> &#160;Providers</text>
<polygon fill="#fb8072" stroke="transparent" points="1321,-10 1321,-30 1341,-30 1341,-10 1321,-10"/>
<text text-anchor="start" x="1344.73" y="-15.4" font-family="Times-12" font-size="14.00"> &#160;Exports</text>
<g id="clust1" class="cluster">
<title>cluster_JNetworkBootstrap4UploadModule</title>
<polygon fill="none" stroke="black" stroke-dasharray="1,5" points="8,-70 8,-379.59 2318,-379.59 2318,-70 8,-70"/>
</g>
<g id="clust4" class="cluster">
<title>cluster_JNetworkBootstrap4UploadModule_NgDropzoneSingleComponent_providers</title>
<polygon fill="none" stroke="black" points="606,-78 606,-241.59 2310,-241.59 2310,-78 606,-78"/>
</g>
<g id="clust8" class="cluster">
<title>cluster_JNetworkBootstrap4UploadModule_exports</title>
<polygon fill="none" stroke="black" points="108,-319.59 108,-371.59 911,-371.59 911,-319.59 108,-319.59"/>
</g>
<g id="clust2" class="cluster">
<title>cluster_JNetworkBootstrap4UploadModule_declarations</title>
<polygon fill="none" stroke="black" points="16,-189.59 16,-241.59 598,-241.59 598,-189.59 16,-189.59"/>
</g>
<!-- NgDropzoneMultipleComponent -->
<g id="node1" class="node">
<title>NgDropzoneMultipleComponent</title>
<polygon fill="#ffffb3" stroke="black" points="589.86,-233.59 388.14,-233.59 388.14,-197.59 589.86,-197.59 589.86,-233.59"/>
<text text-anchor="middle" x="489" y="-211.39" font-family="Times,serif" font-size="14.00">NgDropzoneMultipleComponent</text>
</g>
<!-- JNetworkBootstrap4UploadModule -->
<g id="node5" class="node">
<title>JNetworkBootstrap4UploadModule</title>
<polygon fill="#8dd3c7" stroke="black" points="551.12,-298.59 548.12,-302.59 527.12,-302.59 524.12,-298.59 334.88,-298.59 334.88,-262.59 551.12,-262.59 551.12,-298.59"/>
<text text-anchor="middle" x="443" y="-276.39" font-family="Times,serif" font-size="14.00">JNetworkBootstrap4UploadModule</text>
</g>
<!-- NgDropzoneMultipleComponent&#45;&gt;JNetworkBootstrap4UploadModule -->
<g id="edge1" class="edge">
<title>NgDropzoneMultipleComponent&#45;&gt;JNetworkBootstrap4UploadModule</title>
<path fill="none" stroke="black" d="M469.69,-233.7C469.69,-233.7 469.69,-252.58 469.69,-252.58"/>
<polygon fill="black" stroke="black" points="466.19,-252.58 469.69,-262.58 473.19,-252.58 466.19,-252.58"/>
</g>
<!-- NgDropzoneSingleComponent -->
<g id="node2" class="node">
<title>NgDropzoneSingleComponent</title>
<polygon fill="#ffffb3" stroke="black" points="1150.91,-233.59 961.09,-233.59 961.09,-197.59 1150.91,-197.59 1150.91,-233.59"/>
<text text-anchor="middle" x="1056" y="-211.39" font-family="Times,serif" font-size="14.00">NgDropzoneSingleComponent</text>
</g>
<!-- NgDropzoneSingleComponent&#45;&gt;JNetworkBootstrap4UploadModule -->
<g id="edge2" class="edge">
<title>NgDropzoneSingleComponent&#45;&gt;JNetworkBootstrap4UploadModule</title>
<path fill="none" stroke="black" d="M1056,-233.61C1056,-250.96 1056,-274.59 1056,-274.59 1056,-274.59 561.18,-274.59 561.18,-274.59"/>
<polygon fill="black" stroke="black" points="561.18,-271.09 551.18,-274.59 561.18,-278.09 561.18,-271.09"/>
</g>
<!-- NgUploadComponent -->
<g id="node3" class="node">
<title>NgUploadComponent</title>
<polygon fill="#ffffb3" stroke="black" points="369.65,-233.59 230.35,-233.59 230.35,-197.59 369.65,-197.59 369.65,-233.59"/>
<text text-anchor="middle" x="300" y="-211.39" font-family="Times,serif" font-size="14.00">NgUploadComponent</text>
</g>
<!-- NgUploadComponent&#45;&gt;JNetworkBootstrap4UploadModule -->
<g id="edge5" class="edge">
<title>NgUploadComponent&#45;&gt;JNetworkBootstrap4UploadModule</title>
<path fill="none" stroke="black" d="M352.26,-233.7C352.26,-233.7 352.26,-252.58 352.26,-252.58"/>
<polygon fill="black" stroke="black" points="348.76,-252.58 352.26,-262.58 355.76,-252.58 348.76,-252.58"/>
</g>
<!-- NgUploadMultipleComponent -->
<g id="node4" class="node">
<title>NgUploadMultipleComponent</title>
<polygon fill="#ffffb3" stroke="black" points="211.87,-233.59 24.13,-233.59 24.13,-197.59 211.87,-197.59 211.87,-233.59"/>
<text text-anchor="middle" x="118" y="-211.39" font-family="Times,serif" font-size="14.00">NgUploadMultipleComponent</text>
</g>
<!-- NgUploadMultipleComponent&#45;&gt;JNetworkBootstrap4UploadModule -->
<g id="edge6" class="edge">
<title>NgUploadMultipleComponent&#45;&gt;JNetworkBootstrap4UploadModule</title>
<path fill="none" stroke="black" d="M164.12,-233.61C164.12,-250.96 164.12,-274.59 164.12,-274.59 164.12,-274.59 324.78,-274.59 324.78,-274.59"/>
<polygon fill="black" stroke="black" points="324.78,-278.09 334.78,-274.59 324.78,-271.09 324.78,-278.09"/>
</g>
<!-- NgDropzoneMultipleComponent  -->
<g id="node8" class="node">
<title>NgDropzoneMultipleComponent </title>
<polygon fill="#fb8072" stroke="black" points="902.86,-363.59 697.14,-363.59 697.14,-327.59 902.86,-327.59 902.86,-363.59"/>
<text text-anchor="middle" x="800" y="-341.39" font-family="Times,serif" font-size="14.00">NgDropzoneMultipleComponent </text>
</g>
<!-- JNetworkBootstrap4UploadModule&#45;&gt;NgDropzoneMultipleComponent  -->
<g id="edge7" class="edge">
<title>JNetworkBootstrap4UploadModule&#45;&gt;NgDropzoneMultipleComponent </title>
<path fill="none" stroke="black" stroke-dasharray="5,2" d="M551.57,-286.59C656.6,-286.59 800,-286.59 800,-286.59 800,-286.59 800,-317.57 800,-317.57"/>
<polygon fill="black" stroke="black" points="796.5,-317.57 800,-327.57 803.5,-317.57 796.5,-317.57"/>
</g>
<!-- NgDropzoneSingleComponent  -->
<g id="node9" class="node">
<title>NgDropzoneSingleComponent </title>
<polygon fill="#fb8072" stroke="black" points="679.41,-363.59 486.59,-363.59 486.59,-327.59 679.41,-327.59 679.41,-363.59"/>
<text text-anchor="middle" x="583" y="-341.39" font-family="Times,serif" font-size="14.00">NgDropzoneSingleComponent </text>
</g>
<!-- JNetworkBootstrap4UploadModule&#45;&gt;NgDropzoneSingleComponent  -->
<g id="edge8" class="edge">
<title>JNetworkBootstrap4UploadModule&#45;&gt;NgDropzoneSingleComponent </title>
<path fill="none" stroke="black" stroke-dasharray="5,2" d="M518.93,-298.7C518.93,-298.7 518.93,-317.58 518.93,-317.58"/>
<polygon fill="black" stroke="black" points="515.43,-317.58 518.93,-327.58 522.43,-317.58 515.43,-317.58"/>
</g>
<!-- NgUploadComponent  -->
<g id="node10" class="node">
<title>NgUploadComponent </title>
<polygon fill="#fb8072" stroke="black" points="468.65,-363.59 325.35,-363.59 325.35,-327.59 468.65,-327.59 468.65,-363.59"/>
<text text-anchor="middle" x="397" y="-341.39" font-family="Times,serif" font-size="14.00">NgUploadComponent </text>
</g>
<!-- JNetworkBootstrap4UploadModule&#45;&gt;NgUploadComponent  -->
<g id="edge9" class="edge">
<title>JNetworkBootstrap4UploadModule&#45;&gt;NgUploadComponent </title>
<path fill="none" stroke="black" stroke-dasharray="5,2" d="M401.63,-298.7C401.63,-298.7 401.63,-317.58 401.63,-317.58"/>
<polygon fill="black" stroke="black" points="398.13,-317.58 401.63,-327.58 405.13,-317.58 398.13,-317.58"/>
</g>
<!-- NgUploadMultipleComponent  -->
<g id="node11" class="node">
<title>NgUploadMultipleComponent </title>
<polygon fill="#fb8072" stroke="black" points="307.87,-363.59 116.13,-363.59 116.13,-327.59 307.87,-327.59 307.87,-363.59"/>
<text text-anchor="middle" x="212" y="-341.39" font-family="Times,serif" font-size="14.00">NgUploadMultipleComponent </text>
</g>
<!-- JNetworkBootstrap4UploadModule&#45;&gt;NgUploadMultipleComponent  -->
<g id="edge10" class="edge">
<title>JNetworkBootstrap4UploadModule&#45;&gt;NgUploadMultipleComponent </title>
<path fill="none" stroke="black" stroke-dasharray="5,2" d="M334.74,-286.59C299.34,-286.59 268.93,-286.59 268.93,-286.59 268.93,-286.59 268.93,-317.57 268.93,-317.57"/>
<polygon fill="black" stroke="black" points="265.43,-317.57 268.93,-327.57 272.43,-317.57 265.43,-317.57"/>
</g>
<!-- {
 &#160;&#160;&#160;provide: NG_VALUE_ACCESSOR, multi: true, useExisting: NgDropzoneSingleComponent,
} -->
<g id="node6" class="node">
<title>{
 &#160;&#160;&#160;provide: NG_VALUE_ACCESSOR, multi: true, useExisting: NgDropzoneSingleComponent,
}</title>
<ellipse fill="#fdb462" stroke="black" cx="1909" cy="-127.3" rx="393.49" ry="41.09"/>
<text text-anchor="middle" x="1909" y="-139.9" font-family="Times,serif" font-size="14.00">{</text>
<text text-anchor="middle" x="1909" y="-123.1" font-family="Times,serif" font-size="14.00"> &#160;&#160;&#160;provide: NG_VALUE_ACCESSOR, multi: true, useExisting: NgDropzoneSingleComponent,</text>
<text text-anchor="middle" x="1909" y="-106.3" font-family="Times,serif" font-size="14.00">}</text>
</g>
<!-- {
 &#160;&#160;&#160;provide: NG_VALUE_ACCESSOR, multi: true, useExisting: NgDropzoneSingleComponent,
}&#45;&gt;NgDropzoneSingleComponent -->
<g id="edge3" class="edge">
<title>{
 &#160;&#160;&#160;provide: NG_VALUE_ACCESSOR, multi: true, useExisting: NgDropzoneSingleComponent,
}&#45;&gt;NgDropzoneSingleComponent</title>
<path fill="none" stroke="black" d="M1909,-168.6C1909,-191.58 1909,-215.59 1909,-215.59 1909,-215.59 1160.96,-215.59 1160.96,-215.59"/>
<polygon fill="black" stroke="black" points="1160.96,-212.09 1150.96,-215.59 1160.96,-219.09 1160.96,-212.09"/>
</g>
<!-- {
 &#160;&#160;&#160;provide: NG_VALIDATORS, multi: true, useExisting: forwardRef(() =&gt; NgDropzoneSingleComponent),
} -->
<g id="node7" class="node">
<title>{
 &#160;&#160;&#160;provide: NG_VALIDATORS, multi: true, useExisting: forwardRef(() =&gt; NgDropzoneSingleComponent),
}</title>
<ellipse fill="#fdb462" stroke="black" cx="1056" cy="-127.3" rx="442" ry="41.09"/>
<text text-anchor="middle" x="1056" y="-139.9" font-family="Times,serif" font-size="14.00">{</text>
<text text-anchor="middle" x="1056" y="-123.1" font-family="Times,serif" font-size="14.00"> &#160;&#160;&#160;provide: NG_VALIDATORS, multi: true, useExisting: forwardRef(() =&gt; NgDropzoneSingleComponent),</text>
<text text-anchor="middle" x="1056" y="-106.3" font-family="Times,serif" font-size="14.00">}</text>
</g>
<!-- {
 &#160;&#160;&#160;provide: NG_VALIDATORS, multi: true, useExisting: forwardRef(() =&gt; NgDropzoneSingleComponent),
}&#45;&gt;NgDropzoneSingleComponent -->
<g id="edge4" class="edge">
<title>{
 &#160;&#160;&#160;provide: NG_VALIDATORS, multi: true, useExisting: forwardRef(() =&gt; NgDropzoneSingleComponent),
}&#45;&gt;NgDropzoneSingleComponent</title>
<path fill="none" stroke="black" d="M1056,-168.6C1056,-168.6 1056,-187.26 1056,-187.26"/>
<polygon fill="black" stroke="black" points="1052.5,-187.26 1056,-197.26 1059.5,-187.26 1052.5,-187.26"/>
</g>
</g>
</svg>
