<?xml version="1.0" encoding="UTF-8" standalone="no"?>
<!DOCTYPE svg PUBLIC "-//W3C//DTD SVG 1.1//EN"
 "http://www.w3.org/Graphics/SVG/1.1/DTD/svg11.dtd">
<!-- Generated by graphviz version 2.47.3 (20210619.1520)
 -->
<!-- Title: dependencies Pages: 1 -->
<svg width="1744pt" height="358pt"
 viewBox="0.00 0.00 1744.00 358.39" xmlns="http://www.w3.org/2000/svg" xmlns:xlink="http://www.w3.org/1999/xlink">
<g id="graph0" class="graph" transform="scale(1 1) rotate(0) translate(4 354.39)">
<title>dependencies</title>
<polygon fill="white" stroke="transparent" points="-4,4 -4,-354.39 1740,-354.39 1740,4 -4,4"/>
<text text-anchor="middle" x="868" y="-8.2" font-family="sans-serif" font-size="14.00">dependencies</text>
<g id="clust1" class="cluster">
<title>cluster_JNetworkBootstrap4UploadModule</title>
<polygon fill="none" stroke="black" stroke-dasharray="1,5" points="8,-32.8 8,-342.39 1728,-342.39 1728,-32.8 8,-32.8"/>
</g>
<g id="clust2" class="cluster">
<title>cluster_JNetworkBootstrap4UploadModule_declarations</title>
<polygon fill="none" stroke="black" points="438,-152.39 438,-204.39 1228,-204.39 1228,-152.39 438,-152.39"/>
</g>
<g id="clust4" class="cluster">
<title>cluster_JNetworkBootstrap4UploadModule_NgDropzoneSingleComponent_providers</title>
<polygon fill="none" stroke="black" points="16,-40.8 16,-139.39 1720,-139.39 1720,-40.8 16,-40.8"/>
</g>
<g id="clust8" class="cluster">
<title>cluster_JNetworkBootstrap4UploadModule_exports</title>
<polygon fill="none" stroke="black" points="431,-282.39 431,-334.39 1234,-334.39 1234,-282.39 431,-282.39"/>
</g>
<!-- NgDropzoneMultipleComponent -->
<g id="node1" class="node">
<title>NgDropzoneMultipleComponent</title>
<polygon fill="#ffffb3" stroke="black" points="1219.86,-196.39 1018.14,-196.39 1018.14,-160.39 1219.86,-160.39 1219.86,-196.39"/>
<text text-anchor="middle" x="1119" y="-174.19" font-family="Times,serif" font-size="14.00">NgDropzoneMultipleComponent</text>
</g>
<!-- JNetworkBootstrap4UploadModule -->
<g id="node5" class="node">
<title>JNetworkBootstrap4UploadModule</title>
<polygon fill="#8dd3c7" stroke="black" points="921.12,-261.39 918.12,-265.39 897.12,-265.39 894.12,-261.39 704.88,-261.39 704.88,-225.39 921.12,-225.39 921.12,-261.39"/>
<text text-anchor="middle" x="813" y="-239.19" font-family="Times,serif" font-size="14.00">JNetworkBootstrap4UploadModule</text>
</g>
<!-- NgDropzoneMultipleComponent&#45;&gt;JNetworkBootstrap4UploadModule -->
<g id="edge1" class="edge">
<title>NgDropzoneMultipleComponent&#45;&gt;JNetworkBootstrap4UploadModule</title>
<path fill="none" stroke="black" d="M1153.39,-196.41C1153.39,-213.76 1153.39,-237.39 1153.39,-237.39 1153.39,-237.39 931.17,-237.39 931.17,-237.39"/>
<polygon fill="black" stroke="black" points="931.17,-233.89 921.17,-237.39 931.17,-240.89 931.17,-233.89"/>
</g>
<!-- NgDropzoneSingleComponent -->
<g id="node2" class="node">
<title>NgDropzoneSingleComponent</title>
<polygon fill="#ffffb3" stroke="black" points="999.91,-196.39 810.09,-196.39 810.09,-160.39 999.91,-160.39 999.91,-196.39"/>
<text text-anchor="middle" x="905" y="-174.19" font-family="Times,serif" font-size="14.00">NgDropzoneSingleComponent</text>
</g>
<!-- NgDropzoneSingleComponent&#45;&gt;JNetworkBootstrap4UploadModule -->
<g id="edge2" class="edge">
<title>NgDropzoneSingleComponent&#45;&gt;JNetworkBootstrap4UploadModule</title>
<path fill="none" stroke="black" d="M865.8,-196.5C865.8,-196.5 865.8,-215.38 865.8,-215.38"/>
<polygon fill="black" stroke="black" points="862.3,-215.38 865.8,-225.38 869.3,-215.38 862.3,-215.38"/>
</g>
<!-- NgUploadComponent -->
<g id="node3" class="node">
<title>NgUploadComponent</title>
<polygon fill="#ffffb3" stroke="black" points="791.65,-196.39 652.35,-196.39 652.35,-160.39 791.65,-160.39 791.65,-196.39"/>
<text text-anchor="middle" x="722" y="-174.19" font-family="Times,serif" font-size="14.00">NgUploadComponent</text>
</g>
<!-- NgUploadComponent&#45;&gt;JNetworkBootstrap4UploadModule -->
<g id="edge5" class="edge">
<title>NgUploadComponent&#45;&gt;JNetworkBootstrap4UploadModule</title>
<path fill="none" stroke="black" d="M748.26,-196.5C748.26,-196.5 748.26,-215.38 748.26,-215.38"/>
<polygon fill="black" stroke="black" points="744.76,-215.38 748.26,-225.38 751.76,-215.38 744.76,-215.38"/>
</g>
<!-- NgUploadMultipleComponent -->
<g id="node4" class="node">
<title>NgUploadMultipleComponent</title>
<polygon fill="#ffffb3" stroke="black" points="633.87,-196.39 446.13,-196.39 446.13,-160.39 633.87,-160.39 633.87,-196.39"/>
<text text-anchor="middle" x="540" y="-174.19" font-family="Times,serif" font-size="14.00">NgUploadMultipleComponent</text>
</g>
<!-- NgUploadMultipleComponent&#45;&gt;JNetworkBootstrap4UploadModule -->
<g id="edge6" class="edge">
<title>NgUploadMultipleComponent&#45;&gt;JNetworkBootstrap4UploadModule</title>
<path fill="none" stroke="black" d="M569.15,-196.41C569.15,-213.76 569.15,-237.39 569.15,-237.39 569.15,-237.39 694.62,-237.39 694.62,-237.39"/>
<polygon fill="black" stroke="black" points="694.62,-240.89 704.62,-237.39 694.62,-233.89 694.62,-240.89"/>
</g>
<!-- NgDropzoneMultipleComponent  -->
<g id="node8" class="node">
<title>NgDropzoneMultipleComponent </title>
<polygon fill="#fb8072" stroke="black" points="1225.86,-326.39 1020.14,-326.39 1020.14,-290.39 1225.86,-290.39 1225.86,-326.39"/>
<text text-anchor="middle" x="1123" y="-304.19" font-family="Times,serif" font-size="14.00">NgDropzoneMultipleComponent </text>
</g>
<!-- JNetworkBootstrap4UploadModule&#45;&gt;NgDropzoneMultipleComponent  -->
<g id="edge7" class="edge">
<title>JNetworkBootstrap4UploadModule&#45;&gt;NgDropzoneMultipleComponent </title>
<path fill="none" stroke="black" stroke-dasharray="5,2" d="M921.24,-249.39C997.78,-249.39 1086.86,-249.39 1086.86,-249.39 1086.86,-249.39 1086.86,-280.37 1086.86,-280.37"/>
<polygon fill="black" stroke="black" points="1083.36,-280.37 1086.86,-290.37 1090.36,-280.37 1083.36,-280.37"/>
</g>
<!-- NgDropzoneSingleComponent  -->
<g id="node9" class="node">
<title>NgDropzoneSingleComponent </title>
<polygon fill="#fb8072" stroke="black" points="1002.41,-326.39 809.59,-326.39 809.59,-290.39 1002.41,-290.39 1002.41,-326.39"/>
<text text-anchor="middle" x="906" y="-304.19" font-family="Times,serif" font-size="14.00">NgDropzoneSingleComponent </text>
</g>
<!-- JNetworkBootstrap4UploadModule&#45;&gt;NgDropzoneSingleComponent  -->
<g id="edge8" class="edge">
<title>JNetworkBootstrap4UploadModule&#45;&gt;NgDropzoneSingleComponent </title>
<path fill="none" stroke="black" stroke-dasharray="5,2" d="M865.43,-261.5C865.43,-261.5 865.43,-280.38 865.43,-280.38"/>
<polygon fill="black" stroke="black" points="861.93,-280.38 865.43,-290.38 868.93,-280.38 861.93,-280.38"/>
</g>
<!-- NgUploadComponent  -->
<g id="node10" class="node">
<title>NgUploadComponent </title>
<polygon fill="#fb8072" stroke="black" points="791.65,-326.39 648.35,-326.39 648.35,-290.39 791.65,-290.39 791.65,-326.39"/>
<text text-anchor="middle" x="720" y="-304.19" font-family="Times,serif" font-size="14.00">NgUploadComponent </text>
</g>
<!-- JNetworkBootstrap4UploadModule&#45;&gt;NgUploadComponent  -->
<g id="edge9" class="edge">
<title>JNetworkBootstrap4UploadModule&#45;&gt;NgUploadComponent </title>
<path fill="none" stroke="black" stroke-dasharray="5,2" d="M748.13,-261.5C748.13,-261.5 748.13,-280.38 748.13,-280.38"/>
<polygon fill="black" stroke="black" points="744.63,-280.38 748.13,-290.38 751.63,-280.38 744.63,-280.38"/>
</g>
<!-- NgUploadMultipleComponent  -->
<g id="node11" class="node">
<title>NgUploadMultipleComponent </title>
<polygon fill="#fb8072" stroke="black" points="630.87,-326.39 439.13,-326.39 439.13,-290.39 630.87,-290.39 630.87,-326.39"/>
<text text-anchor="middle" x="535" y="-304.19" font-family="Times,serif" font-size="14.00">NgUploadMultipleComponent </text>
</g>
<!-- JNetworkBootstrap4UploadModule&#45;&gt;NgUploadMultipleComponent  -->
<g id="edge10" class="edge">
<title>JNetworkBootstrap4UploadModule&#45;&gt;NgUploadMultipleComponent </title>
<path fill="none" stroke="black" stroke-dasharray="5,2" d="M704.47,-249.39C616.69,-249.39 507.6,-249.39 507.6,-249.39 507.6,-249.39 507.6,-280.37 507.6,-280.37"/>
<polygon fill="black" stroke="black" points="504.1,-280.37 507.6,-290.37 511.1,-280.37 504.1,-280.37"/>
</g>
<!-- {
 &#160;&#160;&#160;provide: NG_VALUE_ACCESSOR, multi: true, useExisting: NgDropzoneSingleComponent,
} -->
<g id="node6" class="node">
<title>{
 &#160;&#160;&#160;provide: NG_VALUE_ACCESSOR, multi: true, useExisting: NgDropzoneSingleComponent,
}</title>
<ellipse fill="#fdb462" stroke="black" cx="1319" cy="-90.1" rx="393.49" ry="41.09"/>
<text text-anchor="middle" x="1319" y="-102.7" font-family="Times,serif" font-size="14.00">{</text>
<text text-anchor="middle" x="1319" y="-85.9" font-family="Times,serif" font-size="14.00"> &#160;&#160;&#160;provide: NG_VALUE_ACCESSOR, multi: true, useExisting: NgDropzoneSingleComponent,</text>
<text text-anchor="middle" x="1319" y="-69.1" font-family="Times,serif" font-size="14.00">}</text>
</g>
<!-- {
 &#160;&#160;&#160;provide: NG_VALUE_ACCESSOR, multi: true, useExisting: NgDropzoneSingleComponent,
}&#45;&gt;NgDropzoneSingleComponent -->
<g id="edge3" class="edge">
<title>{
 &#160;&#160;&#160;provide: NG_VALUE_ACCESSOR, multi: true, useExisting: NgDropzoneSingleComponent,
}&#45;&gt;NgDropzoneSingleComponent</title>
<path fill="none" stroke="black" d="M962.61,-107.96C962.61,-107.96 962.61,-150.25 962.61,-150.25"/>
<polygon fill="black" stroke="black" points="959.11,-150.25 962.61,-160.25 966.11,-150.25 959.11,-150.25"/>
</g>
<!-- {
 &#160;&#160;&#160;provide: NG_VALIDATORS, multi: true, useExisting: forwardRef(() =&gt; NgDropzoneSingleComponent),
} -->
<g id="node7" class="node">
<title>{
 &#160;&#160;&#160;provide: NG_VALIDATORS, multi: true, useExisting: forwardRef(() =&gt; NgDropzoneSingleComponent),
}</title>
<ellipse fill="#fdb462" stroke="black" cx="466" cy="-90.1" rx="442" ry="41.09"/>
<text text-anchor="middle" x="466" y="-102.7" font-family="Times,serif" font-size="14.00">{</text>
<text text-anchor="middle" x="466" y="-85.9" font-family="Times,serif" font-size="14.00"> &#160;&#160;&#160;provide: NG_VALIDATORS, multi: true, useExisting: forwardRef(() =&gt; NgDropzoneSingleComponent),</text>
<text text-anchor="middle" x="466" y="-69.1" font-family="Times,serif" font-size="14.00">}</text>
</g>
<!-- {
 &#160;&#160;&#160;provide: NG_VALIDATORS, multi: true, useExisting: forwardRef(() =&gt; NgDropzoneSingleComponent),
}&#45;&gt;NgDropzoneSingleComponent -->
<g id="edge4" class="edge">
<title>{
 &#160;&#160;&#160;provide: NG_VALIDATORS, multi: true, useExisting: forwardRef(() =&gt; NgDropzoneSingleComponent),
}&#45;&gt;NgDropzoneSingleComponent</title>
<path fill="none" stroke="black" d="M859.15,-109.25C859.15,-109.25 859.15,-150.17 859.15,-150.17"/>
<polygon fill="black" stroke="black" points="855.65,-150.17 859.15,-160.17 862.65,-150.17 855.65,-150.17"/>
</g>
</g>
</svg>
