<?xml version="1.0" encoding="UTF-8" standalone="no"?>
<!DOCTYPE svg PUBLIC "-//W3C//DTD SVG 1.1//EN"
 "http://www.w3.org/Graphics/SVG/1.1/DTD/svg11.dtd">
<!-- Generated by graphviz version 2.47.0 (20210316.0004)
 -->
<!-- Title: dependencies Pages: 1 -->
<svg width="3492pt" height="396pt"
 viewBox="0.00 0.00 3492.00 395.59" xmlns="http://www.w3.org/2000/svg" xmlns:xlink="http://www.w3.org/1999/xlink">
<g id="graph0" class="graph" transform="scale(1 1) rotate(0) translate(4 391.59)">
<title>dependencies</title>
<polygon fill="white" stroke="transparent" points="-4,4 -4,-391.59 3488,-391.59 3488,4 -4,4"/>
<text text-anchor="start" x="1721.01" y="-42.4" font-family="Times-12" font-weight="bold" font-size="14.00">Legend</text>
<polygon fill="#ffffb3" stroke="transparent" points="1508,-10 1508,-30 1528,-30 1528,-10 1508,-10"/>
<text text-anchor="start" x="1531.63" y="-15.4" font-family="Times-12" font-size="14.00"> &#160;Declarations</text>
<polygon fill="#8dd3c7" stroke="transparent" points="1621,-10 1621,-30 1641,-30 1641,-10 1621,-10"/>
<text text-anchor="start" x="1644.73" y="-15.4" font-family="Times-12" font-size="14.00"> &#160;Module</text>
<polygon fill="#80b1d3" stroke="transparent" points="1707,-10 1707,-30 1727,-30 1727,-10 1707,-10"/>
<text text-anchor="start" x="1730.78" y="-15.4" font-family="Times-12" font-size="14.00"> &#160;Bootstrap</text>
<polygon fill="#fdb462" stroke="transparent" points="1804,-10 1804,-30 1824,-30 1824,-10 1804,-10"/>
<text text-anchor="start" x="1827.67" y="-15.4" font-family="Times-12" font-size="14.00"> &#160;Providers</text>
<polygon fill="#fb8072" stroke="transparent" points="1900,-10 1900,-30 1920,-30 1920,-10 1900,-10"/>
<text text-anchor="start" x="1923.73" y="-15.4" font-family="Times-12" font-size="14.00"> &#160;Exports</text>
<g id="clust1" class="cluster">
<title>cluster_JNetworkBootstrap4UploadModule</title>
<polygon fill="none" stroke="black" stroke-dasharray="1,5" points="8,-70 8,-379.59 3476,-379.59 3476,-70 8,-70"/>
</g>
<g id="clust3" class="cluster">
<title>cluster_JNetworkBootstrap4UploadModule_NgDropzoneMultipleComponent_providers</title>
<polygon fill="none" stroke="black" points="1728,-78 1728,-241.59 3468,-241.59 3468,-78 1728,-78"/>
</g>
<g id="clust2" class="cluster">
<title>cluster_JNetworkBootstrap4UploadModule_declarations</title>
<polygon fill="none" stroke="black" points="852,-189.59 852,-241.59 1422,-241.59 1422,-189.59 852,-189.59"/>
</g>
<g id="clust4" class="cluster">
<title>cluster_JNetworkBootstrap4UploadModule_NgDropzoneSingleComponent_providers</title>
<polygon fill="none" stroke="black" points="16,-78 16,-176.59 1720,-176.59 1720,-78 16,-78"/>
</g>
<g id="clust8" class="cluster">
<title>cluster_JNetworkBootstrap4UploadModule_exports</title>
<polygon fill="none" stroke="black" points="845,-319.59 845,-371.59 1648,-371.59 1648,-319.59 845,-319.59"/>
</g>
<!-- NgDropzoneMultipleComponent -->
<g id="node1" class="node">
<title>NgDropzoneMultipleComponent</title>
<polygon fill="#ffffb3" stroke="black" points="2287.86,-233.59 2086.14,-233.59 2086.14,-197.59 2287.86,-197.59 2287.86,-233.59"/>
<text text-anchor="middle" x="2187" y="-211.39" font-family="Times,serif" font-size="14.00">NgDropzoneMultipleComponent</text>
</g>
<!-- JNetworkBootstrap4UploadModule -->
<g id="node5" class="node">
<title>JNetworkBootstrap4UploadModule</title>
<polygon fill="#8dd3c7" stroke="black" points="1335.12,-298.59 1332.12,-302.59 1311.12,-302.59 1308.12,-298.59 1118.88,-298.59 1118.88,-262.59 1335.12,-262.59 1335.12,-298.59"/>
<text text-anchor="middle" x="1227" y="-276.39" font-family="Times,serif" font-size="14.00">JNetworkBootstrap4UploadModule</text>
</g>
<!-- NgDropzoneMultipleComponent&#45;&gt;JNetworkBootstrap4UploadModule -->
<g id="edge1" class="edge">
<title>NgDropzoneMultipleComponent&#45;&gt;JNetworkBootstrap4UploadModule</title>
<path fill="none" stroke="black" d="M2187,-233.61C2187,-250.96 2187,-274.59 2187,-274.59 2187,-274.59 1345.26,-274.59 1345.26,-274.59"/>
<polygon fill="black" stroke="black" points="1345.26,-271.09 1335.26,-274.59 1345.26,-278.09 1345.26,-271.09"/>
</g>
<!-- NgDropzoneSingleComponent -->
<g id="node2" class="node">
<title>NgDropzoneSingleComponent</title>
<polygon fill="#ffffb3" stroke="black" points="1413.91,-233.59 1224.09,-233.59 1224.09,-197.59 1413.91,-197.59 1413.91,-233.59"/>
<text text-anchor="middle" x="1319" y="-211.39" font-family="Times,serif" font-size="14.00">NgDropzoneSingleComponent</text>
</g>
<!-- NgDropzoneSingleComponent&#45;&gt;JNetworkBootstrap4UploadModule -->
<g id="edge4" class="edge">
<title>NgDropzoneSingleComponent&#45;&gt;JNetworkBootstrap4UploadModule</title>
<path fill="none" stroke="black" d="M1279.8,-233.7C1279.8,-233.7 1279.8,-252.58 1279.8,-252.58"/>
<polygon fill="black" stroke="black" points="1276.3,-252.58 1279.8,-262.58 1283.3,-252.58 1276.3,-252.58"/>
</g>
<!-- NgUploadComponent -->
<g id="node3" class="node">
<title>NgUploadComponent</title>
<polygon fill="#ffffb3" stroke="black" points="1205.65,-233.59 1066.35,-233.59 1066.35,-197.59 1205.65,-197.59 1205.65,-233.59"/>
<text text-anchor="middle" x="1136" y="-211.39" font-family="Times,serif" font-size="14.00">NgUploadComponent</text>
</g>
<!-- NgUploadComponent&#45;&gt;JNetworkBootstrap4UploadModule -->
<g id="edge7" class="edge">
<title>NgUploadComponent&#45;&gt;JNetworkBootstrap4UploadModule</title>
<path fill="none" stroke="black" d="M1162.26,-233.7C1162.26,-233.7 1162.26,-252.58 1162.26,-252.58"/>
<polygon fill="black" stroke="black" points="1158.76,-252.58 1162.26,-262.58 1165.76,-252.58 1158.76,-252.58"/>
</g>
<!-- NgUploadMultipleComponent -->
<g id="node4" class="node">
<title>NgUploadMultipleComponent</title>
<polygon fill="#ffffb3" stroke="black" points="1047.87,-233.59 860.13,-233.59 860.13,-197.59 1047.87,-197.59 1047.87,-233.59"/>
<text text-anchor="middle" x="954" y="-211.39" font-family="Times,serif" font-size="14.00">NgUploadMultipleComponent</text>
</g>
<!-- NgUploadMultipleComponent&#45;&gt;JNetworkBootstrap4UploadModule -->
<g id="edge8" class="edge">
<title>NgUploadMultipleComponent&#45;&gt;JNetworkBootstrap4UploadModule</title>
<path fill="none" stroke="black" d="M983.15,-233.61C983.15,-250.96 983.15,-274.59 983.15,-274.59 983.15,-274.59 1108.62,-274.59 1108.62,-274.59"/>
<polygon fill="black" stroke="black" points="1108.62,-278.09 1118.62,-274.59 1108.62,-271.09 1108.62,-278.09"/>
</g>
<!-- NgDropzoneMultipleComponent  -->
<g id="node10" class="node">
<title>NgDropzoneMultipleComponent </title>
<polygon fill="#fb8072" stroke="black" points="1639.86,-363.59 1434.14,-363.59 1434.14,-327.59 1639.86,-327.59 1639.86,-363.59"/>
<text text-anchor="middle" x="1537" y="-341.39" font-family="Times,serif" font-size="14.00">NgDropzoneMultipleComponent </text>
</g>
<!-- JNetworkBootstrap4UploadModule&#45;&gt;NgDropzoneMultipleComponent  -->
<g id="edge9" class="edge">
<title>JNetworkBootstrap4UploadModule&#45;&gt;NgDropzoneMultipleComponent </title>
<path fill="none" stroke="black" stroke-dasharray="5,2" d="M1335.42,-286.59C1424.82,-286.59 1537,-286.59 1537,-286.59 1537,-286.59 1537,-317.57 1537,-317.57"/>
<polygon fill="black" stroke="black" points="1533.5,-317.57 1537,-327.57 1540.5,-317.57 1533.5,-317.57"/>
</g>
<!-- NgDropzoneSingleComponent  -->
<g id="node11" class="node">
<title>NgDropzoneSingleComponent </title>
<polygon fill="#fb8072" stroke="black" points="1416.41,-363.59 1223.59,-363.59 1223.59,-327.59 1416.41,-327.59 1416.41,-363.59"/>
<text text-anchor="middle" x="1320" y="-341.39" font-family="Times,serif" font-size="14.00">NgDropzoneSingleComponent </text>
</g>
<!-- JNetworkBootstrap4UploadModule&#45;&gt;NgDropzoneSingleComponent  -->
<g id="edge10" class="edge">
<title>JNetworkBootstrap4UploadModule&#45;&gt;NgDropzoneSingleComponent </title>
<path fill="none" stroke="black" stroke-dasharray="5,2" d="M1279.43,-298.7C1279.43,-298.7 1279.43,-317.58 1279.43,-317.58"/>
<polygon fill="black" stroke="black" points="1275.93,-317.58 1279.43,-327.58 1282.93,-317.58 1275.93,-317.58"/>
</g>
<!-- NgUploadComponent  -->
<g id="node12" class="node">
<title>NgUploadComponent </title>
<polygon fill="#fb8072" stroke="black" points="1205.65,-363.59 1062.35,-363.59 1062.35,-327.59 1205.65,-327.59 1205.65,-363.59"/>
<text text-anchor="middle" x="1134" y="-341.39" font-family="Times,serif" font-size="14.00">NgUploadComponent </text>
</g>
<!-- JNetworkBootstrap4UploadModule&#45;&gt;NgUploadComponent  -->
<g id="edge11" class="edge">
<title>JNetworkBootstrap4UploadModule&#45;&gt;NgUploadComponent </title>
<path fill="none" stroke="black" stroke-dasharray="5,2" d="M1162.13,-298.7C1162.13,-298.7 1162.13,-317.58 1162.13,-317.58"/>
<polygon fill="black" stroke="black" points="1158.63,-317.58 1162.13,-327.58 1165.63,-317.58 1158.63,-317.58"/>
</g>
<!-- NgUploadMultipleComponent  -->
<g id="node13" class="node">
<title>NgUploadMultipleComponent </title>
<polygon fill="#fb8072" stroke="black" points="1044.87,-363.59 853.13,-363.59 853.13,-327.59 1044.87,-327.59 1044.87,-363.59"/>
<text text-anchor="middle" x="949" y="-341.39" font-family="Times,serif" font-size="14.00">NgUploadMultipleComponent </text>
</g>
<!-- JNetworkBootstrap4UploadModule&#45;&gt;NgUploadMultipleComponent  -->
<g id="edge12" class="edge">
<title>JNetworkBootstrap4UploadModule&#45;&gt;NgUploadMultipleComponent </title>
<path fill="none" stroke="black" stroke-dasharray="5,2" d="M1118.47,-286.59C1030.69,-286.59 921.6,-286.59 921.6,-286.59 921.6,-286.59 921.6,-317.57 921.6,-317.57"/>
<polygon fill="black" stroke="black" points="918.1,-317.57 921.6,-327.57 925.1,-317.57 918.1,-317.57"/>
</g>
<!-- {
 &#160;&#160;&#160;provide: NG_VALUE_ACCESSOR, multi: true, useExisting: NgDropzoneMultipleComponent,
} -->
<g id="node6" class="node">
<title>{
 &#160;&#160;&#160;provide: NG_VALUE_ACCESSOR, multi: true, useExisting: NgDropzoneMultipleComponent,
}</title>
<ellipse fill="#fdb462" stroke="black" cx="3058" cy="-127.3" rx="402.09" ry="41.09"/>
<text text-anchor="middle" x="3058" y="-139.9" font-family="Times,serif" font-size="14.00">{</text>
<text text-anchor="middle" x="3058" y="-123.1" font-family="Times,serif" font-size="14.00"> &#160;&#160;&#160;provide: NG_VALUE_ACCESSOR, multi: true, useExisting: NgDropzoneMultipleComponent,</text>
<text text-anchor="middle" x="3058" y="-106.3" font-family="Times,serif" font-size="14.00">}</text>
</g>
<!-- {
 &#160;&#160;&#160;provide: NG_VALUE_ACCESSOR, multi: true, useExisting: NgDropzoneMultipleComponent,
}&#45;&gt;NgDropzoneMultipleComponent -->
<g id="edge2" class="edge">
<title>{
 &#160;&#160;&#160;provide: NG_VALUE_ACCESSOR, multi: true, useExisting: NgDropzoneMultipleComponent,
}&#45;&gt;NgDropzoneMultipleComponent</title>
<path fill="none" stroke="black" d="M3058,-168.6C3058,-191.58 3058,-215.59 3058,-215.59 3058,-215.59 2298.19,-215.59 2298.19,-215.59"/>
<polygon fill="black" stroke="black" points="2298.19,-212.09 2288.19,-215.59 2298.19,-219.09 2298.19,-212.09"/>
</g>
<!-- {
 &#160;&#160;&#160;provide: NG_VALIDATORS, multi: true, useExisting: forwardRef(() =&gt; NgDropzoneMultipleComponent),
} -->
<g id="node7" class="node">
<title>{
 &#160;&#160;&#160;provide: NG_VALIDATORS, multi: true, useExisting: forwardRef(() =&gt; NgDropzoneMultipleComponent),
}</title>
<ellipse fill="#fdb462" stroke="black" cx="2187" cy="-127.3" rx="450.6" ry="41.09"/>
<text text-anchor="middle" x="2187" y="-139.9" font-family="Times,serif" font-size="14.00">{</text>
<text text-anchor="middle" x="2187" y="-123.1" font-family="Times,serif" font-size="14.00"> &#160;&#160;&#160;provide: NG_VALIDATORS, multi: true, useExisting: forwardRef(() =&gt; NgDropzoneMultipleComponent),</text>
<text text-anchor="middle" x="2187" y="-106.3" font-family="Times,serif" font-size="14.00">}</text>
</g>
<!-- {
 &#160;&#160;&#160;provide: NG_VALIDATORS, multi: true, useExisting: forwardRef(() =&gt; NgDropzoneMultipleComponent),
}&#45;&gt;NgDropzoneMultipleComponent -->
<g id="edge3" class="edge">
<title>{
 &#160;&#160;&#160;provide: NG_VALIDATORS, multi: true, useExisting: forwardRef(() =&gt; NgDropzoneMultipleComponent),
}&#45;&gt;NgDropzoneMultipleComponent</title>
<path fill="none" stroke="black" d="M2187,-168.6C2187,-168.6 2187,-187.26 2187,-187.26"/>
<polygon fill="black" stroke="black" points="2183.5,-187.26 2187,-197.26 2190.5,-187.26 2183.5,-187.26"/>
</g>
<!-- {
 &#160;&#160;&#160;provide: NG_VALUE_ACCESSOR, multi: true, useExisting: NgDropzoneSingleComponent,
} -->
<g id="node8" class="node">
<title>{
 &#160;&#160;&#160;provide: NG_VALUE_ACCESSOR, multi: true, useExisting: NgDropzoneSingleComponent,
}</title>
<ellipse fill="#fdb462" stroke="black" cx="1319" cy="-127.3" rx="393.49" ry="41.09"/>
<text text-anchor="middle" x="1319" y="-139.9" font-family="Times,serif" font-size="14.00">{</text>
<text text-anchor="middle" x="1319" y="-123.1" font-family="Times,serif" font-size="14.00"> &#160;&#160;&#160;provide: NG_VALUE_ACCESSOR, multi: true, useExisting: NgDropzoneSingleComponent,</text>
<text text-anchor="middle" x="1319" y="-106.3" font-family="Times,serif" font-size="14.00">}</text>
</g>
<!-- {
 &#160;&#160;&#160;provide: NG_VALUE_ACCESSOR, multi: true, useExisting: NgDropzoneSingleComponent,
}&#45;&gt;NgDropzoneSingleComponent -->
<g id="edge5" class="edge">
<title>{
 &#160;&#160;&#160;provide: NG_VALUE_ACCESSOR, multi: true, useExisting: NgDropzoneSingleComponent,
}&#45;&gt;NgDropzoneSingleComponent</title>
<path fill="none" stroke="black" d="M1350.57,-168.6C1350.57,-168.6 1350.57,-187.26 1350.57,-187.26"/>
<polygon fill="black" stroke="black" points="1347.07,-187.26 1350.57,-197.26 1354.07,-187.26 1347.07,-187.26"/>
</g>
<!-- {
 &#160;&#160;&#160;provide: NG_VALIDATORS, multi: true, useExisting: forwardRef(() =&gt; NgDropzoneSingleComponent),
} -->
<g id="node9" class="node">
<title>{
 &#160;&#160;&#160;provide: NG_VALIDATORS, multi: true, useExisting: forwardRef(() =&gt; NgDropzoneSingleComponent),
}</title>
<ellipse fill="#fdb462" stroke="black" cx="466" cy="-127.3" rx="442" ry="41.09"/>
<text text-anchor="middle" x="466" y="-139.9" font-family="Times,serif" font-size="14.00">{</text>
<text text-anchor="middle" x="466" y="-123.1" font-family="Times,serif" font-size="14.00"> &#160;&#160;&#160;provide: NG_VALIDATORS, multi: true, useExisting: forwardRef(() =&gt; NgDropzoneSingleComponent),</text>
<text text-anchor="middle" x="466" y="-106.3" font-family="Times,serif" font-size="14.00">}</text>
</g>
<!-- {
 &#160;&#160;&#160;provide: NG_VALIDATORS, multi: true, useExisting: forwardRef(() =&gt; NgDropzoneSingleComponent),
}&#45;&gt;NgDropzoneSingleComponent -->
<g id="edge6" class="edge">
<title>{
 &#160;&#160;&#160;provide: NG_VALIDATORS, multi: true, useExisting: forwardRef(() =&gt; NgDropzoneSingleComponent),
}&#45;&gt;NgDropzoneSingleComponent</title>
<path fill="none" stroke="black" d="M884.03,-140.92C884.03,-157.58 884.03,-183.59 884.03,-183.59 884.03,-183.59 1287.43,-183.59 1287.43,-183.59 1287.43,-183.59 1287.43,-187.35 1287.43,-187.35"/>
<polygon fill="black" stroke="black" points="1283.93,-187.35 1287.43,-197.35 1290.93,-187.35 1283.93,-187.35"/>
</g>
</g>
</svg>
