<?xml version="1.0" encoding="UTF-8" standalone="no"?>
<!DOCTYPE svg PUBLIC "-//W3C//DTD SVG 1.1//EN"
 "http://www.w3.org/Graphics/SVG/1.1/DTD/svg11.dtd">
<!-- Generated by graphviz version 2.47.0 (20210316.0004)
 -->
<!-- Title: dependencies Pages: 1 -->
<svg width="3492pt" height="396pt"
 viewBox="0.00 0.00 3492.00 395.59" xmlns="http://www.w3.org/2000/svg" xmlns:xlink="http://www.w3.org/1999/xlink">
<g id="graph0" class="graph" transform="scale(1 1) rotate(0) translate(4 391.59)">
<title>dependencies</title>
<polygon fill="white" stroke="transparent" points="-4,4 -4,-391.59 3488,-391.59 3488,4 -4,4"/>
<text text-anchor="start" x="1721.01" y="-42.4" font-family="Times-12" font-weight="bold" font-size="14.00">Legend</text>
<polygon fill="#ffffb3" stroke="transparent" points="1508,-10 1508,-30 1528,-30 1528,-10 1508,-10"/>
<text text-anchor="start" x="1531.63" y="-15.4" font-family="Times-12" font-size="14.00"> &#160;Declarations</text>
<polygon fill="#8dd3c7" stroke="transparent" points="1621,-10 1621,-30 1641,-30 1641,-10 1621,-10"/>
<text text-anchor="start" x="1644.73" y="-15.4" font-family="Times-12" font-size="14.00"> &#160;Module</text>
<polygon fill="#80b1d3" stroke="transparent" points="1707,-10 1707,-30 1727,-30 1727,-10 1707,-10"/>
<text text-anchor="start" x="1730.78" y="-15.4" font-family="Times-12" font-size="14.00"> &#160;Bootstrap</text>
<polygon fill="#fdb462" stroke="transparent" points="1804,-10 1804,-30 1824,-30 1824,-10 1804,-10"/>
<text text-anchor="start" x="1827.67" y="-15.4" font-family="Times-12" font-size="14.00"> &#160;Providers</text>
<polygon fill="#fb8072" stroke="transparent" points="1900,-10 1900,-30 1920,-30 1920,-10 1900,-10"/>
<text text-anchor="start" x="1923.73" y="-15.4" font-family="Times-12" font-size="14.00"> &#160;Exports</text>
<g id="clust1" class="cluster">
<title>cluster_JNetworkBootstrap4UploadModule</title>
<polygon fill="none" stroke="black" stroke-dasharray="1,5" points="8,-70 8,-379.59 3476,-379.59 3476,-70 8,-70"/>
</g>
<g id="clust2" class="cluster">
<title>cluster_JNetworkBootstrap4UploadModule_declarations</title>
<polygon fill="none" stroke="black" points="1179,-189.59 1179,-241.59 1969,-241.59 1969,-189.59 1179,-189.59"/>
</g>
<g id="clust3" class="cluster">
<title>cluster_JNetworkBootstrap4UploadModule_NgDropzoneMultipleComponent_providers</title>
<polygon fill="none" stroke="black" points="1728,-78 1728,-176.59 3468,-176.59 3468,-78 1728,-78"/>
</g>
<g id="clust4" class="cluster">
<title>cluster_JNetworkBootstrap4UploadModule_NgDropzoneSingleComponent_providers</title>
<polygon fill="none" stroke="black" points="16,-78 16,-176.59 1720,-176.59 1720,-78 16,-78"/>
</g>
<g id="clust8" class="cluster">
<title>cluster_JNetworkBootstrap4UploadModule_exports</title>
<polygon fill="none" stroke="black" points="1172,-319.59 1172,-371.59 1975,-371.59 1975,-319.59 1172,-319.59"/>
</g>
<!-- NgDropzoneMultipleComponent -->
<g id="node1" class="node">
<title>NgDropzoneMultipleComponent</title>
<polygon fill="#ffffb3" stroke="black" points="1960.86,-233.59 1759.14,-233.59 1759.14,-197.59 1960.86,-197.59 1960.86,-233.59"/>
<text text-anchor="middle" x="1860" y="-211.39" font-family="Times,serif" font-size="14.00">NgDropzoneMultipleComponent</text>
</g>
<!-- JNetworkBootstrap4UploadModule -->
<g id="node5" class="node">
<title>JNetworkBootstrap4UploadModule</title>
<polygon fill="#8dd3c7" stroke="black" points="1662.12,-298.59 1659.12,-302.59 1638.12,-302.59 1635.12,-298.59 1445.88,-298.59 1445.88,-262.59 1662.12,-262.59 1662.12,-298.59"/>
<text text-anchor="middle" x="1554" y="-276.39" font-family="Times,serif" font-size="14.00">JNetworkBootstrap4UploadModule</text>
</g>
<!-- NgDropzoneMultipleComponent&#45;&gt;JNetworkBootstrap4UploadModule -->
<g id="edge1" class="edge">
<title>NgDropzoneMultipleComponent&#45;&gt;JNetworkBootstrap4UploadModule</title>
<path fill="none" stroke="black" d="M1894.39,-233.61C1894.39,-250.96 1894.39,-274.59 1894.39,-274.59 1894.39,-274.59 1672.17,-274.59 1672.17,-274.59"/>
<polygon fill="black" stroke="black" points="1672.17,-271.09 1662.17,-274.59 1672.17,-278.09 1672.17,-271.09"/>
</g>
<!-- NgDropzoneSingleComponent -->
<g id="node2" class="node">
<title>NgDropzoneSingleComponent</title>
<polygon fill="#ffffb3" stroke="black" points="1740.91,-233.59 1551.09,-233.59 1551.09,-197.59 1740.91,-197.59 1740.91,-233.59"/>
<text text-anchor="middle" x="1646" y="-211.39" font-family="Times,serif" font-size="14.00">NgDropzoneSingleComponent</text>
</g>
<!-- NgDropzoneSingleComponent&#45;&gt;JNetworkBootstrap4UploadModule -->
<g id="edge4" class="edge">
<title>NgDropzoneSingleComponent&#45;&gt;JNetworkBootstrap4UploadModule</title>
<path fill="none" stroke="black" d="M1606.8,-233.7C1606.8,-233.7 1606.8,-252.58 1606.8,-252.58"/>
<polygon fill="black" stroke="black" points="1603.3,-252.58 1606.8,-262.58 1610.3,-252.58 1603.3,-252.58"/>
</g>
<!-- NgUploadComponent -->
<g id="node3" class="node">
<title>NgUploadComponent</title>
<polygon fill="#ffffb3" stroke="black" points="1532.65,-233.59 1393.35,-233.59 1393.35,-197.59 1532.65,-197.59 1532.65,-233.59"/>
<text text-anchor="middle" x="1463" y="-211.39" font-family="Times,serif" font-size="14.00">NgUploadComponent</text>
</g>
<!-- NgUploadComponent&#45;&gt;JNetworkBootstrap4UploadModule -->
<g id="edge7" class="edge">
<title>NgUploadComponent&#45;&gt;JNetworkBootstrap4UploadModule</title>
<path fill="none" stroke="black" d="M1489.26,-233.7C1489.26,-233.7 1489.26,-252.58 1489.26,-252.58"/>
<polygon fill="black" stroke="black" points="1485.76,-252.58 1489.26,-262.58 1492.76,-252.58 1485.76,-252.58"/>
</g>
<!-- NgUploadMultipleComponent -->
<g id="node4" class="node">
<title>NgUploadMultipleComponent</title>
<polygon fill="#ffffb3" stroke="black" points="1374.87,-233.59 1187.13,-233.59 1187.13,-197.59 1374.87,-197.59 1374.87,-233.59"/>
<text text-anchor="middle" x="1281" y="-211.39" font-family="Times,serif" font-size="14.00">NgUploadMultipleComponent</text>
</g>
<!-- NgUploadMultipleComponent&#45;&gt;JNetworkBootstrap4UploadModule -->
<g id="edge8" class="edge">
<title>NgUploadMultipleComponent&#45;&gt;JNetworkBootstrap4UploadModule</title>
<path fill="none" stroke="black" d="M1310.15,-233.61C1310.15,-250.96 1310.15,-274.59 1310.15,-274.59 1310.15,-274.59 1435.62,-274.59 1435.62,-274.59"/>
<polygon fill="black" stroke="black" points="1435.62,-278.09 1445.62,-274.59 1435.62,-271.09 1435.62,-278.09"/>
</g>
<!-- NgDropzoneMultipleComponent  -->
<g id="node10" class="node">
<title>NgDropzoneMultipleComponent </title>
<polygon fill="#fb8072" stroke="black" points="1966.86,-363.59 1761.14,-363.59 1761.14,-327.59 1966.86,-327.59 1966.86,-363.59"/>
<text text-anchor="middle" x="1864" y="-341.39" font-family="Times,serif" font-size="14.00">NgDropzoneMultipleComponent </text>
</g>
<!-- JNetworkBootstrap4UploadModule&#45;&gt;NgDropzoneMultipleComponent  -->
<g id="edge9" class="edge">
<title>JNetworkBootstrap4UploadModule&#45;&gt;NgDropzoneMultipleComponent </title>
<path fill="none" stroke="black" stroke-dasharray="5,2" d="M1662.24,-286.59C1738.78,-286.59 1827.86,-286.59 1827.86,-286.59 1827.86,-286.59 1827.86,-317.57 1827.86,-317.57"/>
<polygon fill="black" stroke="black" points="1824.36,-317.57 1827.86,-327.57 1831.36,-317.57 1824.36,-317.57"/>
</g>
<!-- NgDropzoneSingleComponent  -->
<g id="node11" class="node">
<title>NgDropzoneSingleComponent </title>
<polygon fill="#fb8072" stroke="black" points="1743.41,-363.59 1550.59,-363.59 1550.59,-327.59 1743.41,-327.59 1743.41,-363.59"/>
<text text-anchor="middle" x="1647" y="-341.39" font-family="Times,serif" font-size="14.00">NgDropzoneSingleComponent </text>
</g>
<!-- JNetworkBootstrap4UploadModule&#45;&gt;NgDropzoneSingleComponent  -->
<g id="edge10" class="edge">
<title>JNetworkBootstrap4UploadModule&#45;&gt;NgDropzoneSingleComponent </title>
<path fill="none" stroke="black" stroke-dasharray="5,2" d="M1606.43,-298.7C1606.43,-298.7 1606.43,-317.58 1606.43,-317.58"/>
<polygon fill="black" stroke="black" points="1602.93,-317.58 1606.43,-327.58 1609.93,-317.58 1602.93,-317.58"/>
</g>
<!-- NgUploadComponent  -->
<g id="node12" class="node">
<title>NgUploadComponent </title>
<polygon fill="#fb8072" stroke="black" points="1532.65,-363.59 1389.35,-363.59 1389.35,-327.59 1532.65,-327.59 1532.65,-363.59"/>
<text text-anchor="middle" x="1461" y="-341.39" font-family="Times,serif" font-size="14.00">NgUploadComponent </text>
</g>
<!-- JNetworkBootstrap4UploadModule&#45;&gt;NgUploadComponent  -->
<g id="edge11" class="edge">
<title>JNetworkBootstrap4UploadModule&#45;&gt;NgUploadComponent </title>
<path fill="none" stroke="black" stroke-dasharray="5,2" d="M1489.13,-298.7C1489.13,-298.7 1489.13,-317.58 1489.13,-317.58"/>
<polygon fill="black" stroke="black" points="1485.63,-317.58 1489.13,-327.58 1492.63,-317.58 1485.63,-317.58"/>
</g>
<!-- NgUploadMultipleComponent  -->
<g id="node13" class="node">
<title>NgUploadMultipleComponent </title>
<polygon fill="#fb8072" stroke="black" points="1371.87,-363.59 1180.13,-363.59 1180.13,-327.59 1371.87,-327.59 1371.87,-363.59"/>
<text text-anchor="middle" x="1276" y="-341.39" font-family="Times,serif" font-size="14.00">NgUploadMultipleComponent </text>
</g>
<!-- JNetworkBootstrap4UploadModule&#45;&gt;NgUploadMultipleComponent  -->
<g id="edge12" class="edge">
<title>JNetworkBootstrap4UploadModule&#45;&gt;NgUploadMultipleComponent </title>
<path fill="none" stroke="black" stroke-dasharray="5,2" d="M1445.47,-286.59C1357.69,-286.59 1248.6,-286.59 1248.6,-286.59 1248.6,-286.59 1248.6,-317.57 1248.6,-317.57"/>
<polygon fill="black" stroke="black" points="1245.1,-317.57 1248.6,-327.57 1252.1,-317.57 1245.1,-317.57"/>
</g>
<!-- {
 &#160;&#160;&#160;provide: NG_VALUE_ACCESSOR, multi: true, useExisting: NgDropzoneMultipleComponent,
} -->
<g id="node6" class="node">
<title>{
 &#160;&#160;&#160;provide: NG_VALUE_ACCESSOR, multi: true, useExisting: NgDropzoneMultipleComponent,
}</title>
<ellipse fill="#fdb462" stroke="black" cx="3058" cy="-127.3" rx="402.09" ry="41.09"/>
<text text-anchor="middle" x="3058" y="-139.9" font-family="Times,serif" font-size="14.00">{</text>
<text text-anchor="middle" x="3058" y="-123.1" font-family="Times,serif" font-size="14.00"> &#160;&#160;&#160;provide: NG_VALUE_ACCESSOR, multi: true, useExisting: NgDropzoneMultipleComponent,</text>
<text text-anchor="middle" x="3058" y="-106.3" font-family="Times,serif" font-size="14.00">}</text>
</g>
<!-- {
 &#160;&#160;&#160;provide: NG_VALUE_ACCESSOR, multi: true, useExisting: NgDropzoneMultipleComponent,
}&#45;&gt;NgDropzoneMultipleComponent -->
<g id="edge2" class="edge">
<title>{
 &#160;&#160;&#160;provide: NG_VALUE_ACCESSOR, multi: true, useExisting: NgDropzoneMultipleComponent,
}&#45;&gt;NgDropzoneMultipleComponent</title>
<path fill="none" stroke="black" d="M3058,-168.6C3058,-191.58 3058,-215.59 3058,-215.59 3058,-215.59 1971.11,-215.59 1971.11,-215.59"/>
<polygon fill="black" stroke="black" points="1971.11,-212.09 1961.11,-215.59 1971.11,-219.09 1971.11,-212.09"/>
</g>
<!-- {
 &#160;&#160;&#160;provide: NG_VALIDATORS, multi: true, useExisting: forwardRef(() =&gt; NgDropzoneMultipleComponent),
} -->
<g id="node7" class="node">
<title>{
 &#160;&#160;&#160;provide: NG_VALIDATORS, multi: true, useExisting: forwardRef(() =&gt; NgDropzoneMultipleComponent),
}</title>
<ellipse fill="#fdb462" stroke="black" cx="2187" cy="-127.3" rx="450.6" ry="41.09"/>
<text text-anchor="middle" x="2187" y="-139.9" font-family="Times,serif" font-size="14.00">{</text>
<text text-anchor="middle" x="2187" y="-123.1" font-family="Times,serif" font-size="14.00"> &#160;&#160;&#160;provide: NG_VALIDATORS, multi: true, useExisting: forwardRef(() =&gt; NgDropzoneMultipleComponent),</text>
<text text-anchor="middle" x="2187" y="-106.3" font-family="Times,serif" font-size="14.00">}</text>
</g>
<!-- {
 &#160;&#160;&#160;provide: NG_VALIDATORS, multi: true, useExisting: forwardRef(() =&gt; NgDropzoneMultipleComponent),
}&#45;&gt;NgDropzoneMultipleComponent -->
<g id="edge3" class="edge">
<title>{
 &#160;&#160;&#160;provide: NG_VALIDATORS, multi: true, useExisting: forwardRef(() =&gt; NgDropzoneMultipleComponent),
}&#45;&gt;NgDropzoneMultipleComponent</title>
<path fill="none" stroke="black" d="M1860,-156.21C1860,-156.21 1860,-187.43 1860,-187.43"/>
<polygon fill="black" stroke="black" points="1856.5,-187.43 1860,-197.43 1863.5,-187.43 1856.5,-187.43"/>
</g>
<!-- {
 &#160;&#160;&#160;provide: NG_VALUE_ACCESSOR, multi: true, useExisting: NgDropzoneSingleComponent,
} -->
<g id="node8" class="node">
<title>{
 &#160;&#160;&#160;provide: NG_VALUE_ACCESSOR, multi: true, useExisting: NgDropzoneSingleComponent,
}</title>
<ellipse fill="#fdb462" stroke="black" cx="1319" cy="-127.3" rx="393.49" ry="41.09"/>
<text text-anchor="middle" x="1319" y="-139.9" font-family="Times,serif" font-size="14.00">{</text>
<text text-anchor="middle" x="1319" y="-123.1" font-family="Times,serif" font-size="14.00"> &#160;&#160;&#160;provide: NG_VALUE_ACCESSOR, multi: true, useExisting: NgDropzoneSingleComponent,</text>
<text text-anchor="middle" x="1319" y="-106.3" font-family="Times,serif" font-size="14.00">}</text>
</g>
<!-- {
 &#160;&#160;&#160;provide: NG_VALUE_ACCESSOR, multi: true, useExisting: NgDropzoneSingleComponent,
}&#45;&gt;NgDropzoneSingleComponent -->
<g id="edge5" class="edge">
<title>{
 &#160;&#160;&#160;provide: NG_VALUE_ACCESSOR, multi: true, useExisting: NgDropzoneSingleComponent,
}&#45;&gt;NgDropzoneSingleComponent</title>
<path fill="none" stroke="black" d="M1658.76,-148.22C1658.76,-148.22 1658.76,-187.5 1658.76,-187.5"/>
<polygon fill="black" stroke="black" points="1655.26,-187.5 1658.76,-197.5 1662.26,-187.5 1655.26,-187.5"/>
</g>
<!-- {
 &#160;&#160;&#160;provide: NG_VALIDATORS, multi: true, useExisting: forwardRef(() =&gt; NgDropzoneSingleComponent),
} -->
<g id="node9" class="node">
<title>{
 &#160;&#160;&#160;provide: NG_VALIDATORS, multi: true, useExisting: forwardRef(() =&gt; NgDropzoneSingleComponent),
}</title>
<ellipse fill="#fdb462" stroke="black" cx="466" cy="-127.3" rx="442" ry="41.09"/>
<text text-anchor="middle" x="466" y="-139.9" font-family="Times,serif" font-size="14.00">{</text>
<text text-anchor="middle" x="466" y="-123.1" font-family="Times,serif" font-size="14.00"> &#160;&#160;&#160;provide: NG_VALIDATORS, multi: true, useExisting: forwardRef(() =&gt; NgDropzoneSingleComponent),</text>
<text text-anchor="middle" x="466" y="-106.3" font-family="Times,serif" font-size="14.00">}</text>
</g>
<!-- {
 &#160;&#160;&#160;provide: NG_VALIDATORS, multi: true, useExisting: forwardRef(() =&gt; NgDropzoneSingleComponent),
}&#45;&gt;NgDropzoneSingleComponent -->
<g id="edge6" class="edge">
<title>{
 &#160;&#160;&#160;provide: NG_VALIDATORS, multi: true, useExisting: forwardRef(() =&gt; NgDropzoneSingleComponent),
}&#45;&gt;NgDropzoneSingleComponent</title>
<path fill="none" stroke="black" d="M466,-168.8C466,-177.24 466,-183.59 466,-183.59 466,-183.59 1605.03,-183.59 1605.03,-183.59 1605.03,-183.59 1605.03,-187.35 1605.03,-187.35"/>
<polygon fill="black" stroke="black" points="1601.53,-187.35 1605.03,-197.35 1608.53,-187.35 1601.53,-187.35"/>
</g>
</g>
</svg>
