<?xml version="1.0" encoding="UTF-8" standalone="no"?>
<!DOCTYPE svg PUBLIC "-//W3C//DTD SVG 1.1//EN"
 "http://www.w3.org/Graphics/SVG/1.1/DTD/svg11.dtd">
<!-- Generated by graphviz version 2.40.1 (20161225.0304)
 -->
<!-- Title: dependencies Pages: 1 -->
<svg width="504pt" height="284pt"
 viewBox="0.00 0.00 504.00 284.00" xmlns="http://www.w3.org/2000/svg" xmlns:xlink="http://www.w3.org/1999/xlink">
<g id="graph0" class="graph" transform="scale(1 1) rotate(0) translate(4 280)">
<title>dependencies</title>
<polygon fill="#ffffff" stroke="transparent" points="-4,4 -4,-280 500,-280 500,4 -4,4"/>
<text text-anchor="start" x="227.0091" y="-42.4" font-family="sans-serif" font-weight="bold" font-size="14.00" fill="#000000">Legend</text>
<polygon fill="#ffffb3" stroke="transparent" points="14,-10 14,-30 34,-30 34,-10 14,-10"/>
<text text-anchor="start" x="37.629" y="-15.4" font-family="sans-serif" font-size="14.00" fill="#000000"> &#160;Declarations</text>
<polygon fill="#8dd3c7" stroke="transparent" points="127,-10 127,-30 147,-30 147,-10 127,-10"/>
<text text-anchor="start" x="150.7251" y="-15.4" font-family="sans-serif" font-size="14.00" fill="#000000"> &#160;Module</text>
<polygon fill="#80b1d3" stroke="transparent" points="213,-10 213,-30 233,-30 233,-10 213,-10"/>
<text text-anchor="start" x="236.7812" y="-15.4" font-family="sans-serif" font-size="14.00" fill="#000000"> &#160;Bootstrap</text>
<polygon fill="#fdb462" stroke="transparent" points="310,-10 310,-30 330,-30 330,-10 310,-10"/>
<text text-anchor="start" x="333.6732" y="-15.4" font-family="sans-serif" font-size="14.00" fill="#000000"> &#160;Providers</text>
<polygon fill="#fb8072" stroke="transparent" points="406,-10 406,-30 426,-30 426,-10 406,-10"/>
<text text-anchor="start" x="429.7258" y="-15.4" font-family="sans-serif" font-size="14.00" fill="#000000"> &#160;Exports</text>
<g id="clust1" class="cluster">
<title>cluster_JNetworkBootstrap4UploadModule</title>
<polygon fill="none" stroke="#000000" stroke-dasharray="1,5" points="55.5,-70 55.5,-268 440.5,-268 440.5,-70 55.5,-70"/>
</g>
<g id="clust2" class="cluster">
<title>cluster_JNetworkBootstrap4UploadModule_declarations</title>
<polygon fill="none" stroke="#000000" points="66.5,-78 66.5,-130 428.5,-130 428.5,-78 66.5,-78"/>
</g>
<g id="clust6" class="cluster">
<title>cluster_JNetworkBootstrap4UploadModule_exports</title>
<polygon fill="none" stroke="#000000" points="63.5,-208 63.5,-260 432.5,-260 432.5,-208 63.5,-208"/>
</g>
<!-- NgUploadComponent -->
<g id="node1" class="node">
<title>NgUploadComponent</title>
<polygon fill="#ffffb3" stroke="#000000" points="420.1512,-122 280.8488,-122 280.8488,-86 420.1512,-86 420.1512,-122"/>
<text text-anchor="middle" x="350.5" y="-99.8" font-family="Times,serif" font-size="14.00" fill="#000000">NgUploadComponent</text>
</g>
<!-- JNetworkBootstrap4UploadModule -->
<g id="node3" class="node">
<title>JNetworkBootstrap4UploadModule</title>
<polygon fill="#8dd3c7" stroke="#000000" points="355.6231,-187 352.6231,-191 331.6231,-191 328.6231,-187 139.3769,-187 139.3769,-151 355.6231,-151 355.6231,-187"/>
<text text-anchor="middle" x="247.5" y="-164.8" font-family="Times,serif" font-size="14.00" fill="#000000">JNetworkBootstrap4UploadModule</text>
</g>
<!-- NgUploadComponent&#45;&gt;JNetworkBootstrap4UploadModule -->
<g id="edge1" class="edge">
<title>NgUploadComponent&#45;&gt;JNetworkBootstrap4UploadModule</title>
<path fill="none" stroke="#000000" d="M318.243,-122.1061C318.243,-122.1061 318.243,-140.991 318.243,-140.991"/>
<polygon fill="#000000" stroke="#000000" points="314.7431,-140.9909 318.243,-150.991 321.7431,-140.991 314.7431,-140.9909"/>
</g>
<!-- NgUploadMultipleComponent -->
<g id="node2" class="node">
<title>NgUploadMultipleComponent</title>
<polygon fill="#ffffb3" stroke="#000000" points="262.3724,-122 74.6276,-122 74.6276,-86 262.3724,-86 262.3724,-122"/>
<text text-anchor="middle" x="168.5" y="-99.8" font-family="Times,serif" font-size="14.00" fill="#000000">NgUploadMultipleComponent</text>
</g>
<!-- NgUploadMultipleComponent&#45;&gt;JNetworkBootstrap4UploadModule -->
<g id="edge2" class="edge">
<title>NgUploadMultipleComponent&#45;&gt;JNetworkBootstrap4UploadModule</title>
<path fill="none" stroke="#000000" d="M200.8124,-122.1061C200.8124,-122.1061 200.8124,-140.991 200.8124,-140.991"/>
<polygon fill="#000000" stroke="#000000" points="197.3125,-140.9909 200.8124,-150.991 204.3125,-140.991 197.3125,-140.9909"/>
</g>
<!-- NgUploadComponent  -->
<g id="node4" class="node">
<title>NgUploadComponent </title>
<polygon fill="#fb8072" stroke="#000000" points="424.1509,-252 280.8491,-252 280.8491,-216 424.1509,-216 424.1509,-252"/>
<text text-anchor="middle" x="352.5" y="-229.8" font-family="Times,serif" font-size="14.00" fill="#000000">NgUploadComponent </text>
</g>
<!-- JNetworkBootstrap4UploadModule&#45;&gt;NgUploadComponent  -->
<g id="edge3" class="edge">
<title>JNetworkBootstrap4UploadModule&#45;&gt;NgUploadComponent </title>
<path fill="none" stroke="#000000" stroke-dasharray="5,2" d="M318.368,-187.1061C318.368,-187.1061 318.368,-205.991 318.368,-205.991"/>
<polygon fill="#000000" stroke="#000000" points="314.8681,-205.9909 318.368,-215.991 321.8681,-205.991 314.8681,-205.9909"/>
</g>
<!-- NgUploadMultipleComponent  -->
<g id="node5" class="node">
<title>NgUploadMultipleComponent </title>
<polygon fill="#fb8072" stroke="#000000" points="263.3728,-252 71.6272,-252 71.6272,-216 263.3728,-216 263.3728,-252"/>
<text text-anchor="middle" x="167.5" y="-229.8" font-family="Times,serif" font-size="14.00" fill="#000000">NgUploadMultipleComponent </text>
</g>
<!-- JNetworkBootstrap4UploadModule&#45;&gt;NgUploadMultipleComponent  -->
<g id="edge4" class="edge">
<title>JNetworkBootstrap4UploadModule&#45;&gt;NgUploadMultipleComponent </title>
<path fill="none" stroke="#000000" stroke-dasharray="5,2" d="M201.1874,-187.1061C201.1874,-187.1061 201.1874,-205.991 201.1874,-205.991"/>
<polygon fill="#000000" stroke="#000000" points="197.6875,-205.9909 201.1874,-215.991 204.6875,-205.991 197.6875,-205.9909"/>
</g>
</g>
</svg>
