<?xml version="1.0" encoding="UTF-8" standalone="no"?>
<!DOCTYPE svg PUBLIC "-//W3C//DTD SVG 1.1//EN"
 "http://www.w3.org/Graphics/SVG/1.1/DTD/svg11.dtd">
<!-- Generated by graphviz version 2.40.1 (20161225.0304)
 -->
<!-- Title: dependencies Pages: 1 -->
<svg width="1394pt" height="349pt"
 viewBox="0.00 0.00 1394.00 349.00" xmlns="http://www.w3.org/2000/svg" xmlns:xlink="http://www.w3.org/1999/xlink">
<g id="graph0" class="graph" transform="scale(1 1) rotate(0) translate(4 345)">
<title>dependencies</title>
<polygon fill="#ffffff" stroke="transparent" points="-4,4 -4,-345 1390,-345 1390,4 -4,4"/>
<text text-anchor="start" x="672.0091" y="-42.4" font-family="sans-serif" font-weight="bold" font-size="14.00" fill="#000000">Legend</text>
<polygon fill="#ffffb3" stroke="transparent" points="459,-10 459,-30 479,-30 479,-10 459,-10"/>
<text text-anchor="start" x="482.629" y="-15.4" font-family="sans-serif" font-size="14.00" fill="#000000"> &#160;Declarations</text>
<polygon fill="#8dd3c7" stroke="transparent" points="572,-10 572,-30 592,-30 592,-10 572,-10"/>
<text text-anchor="start" x="595.7251" y="-15.4" font-family="sans-serif" font-size="14.00" fill="#000000"> &#160;Module</text>
<polygon fill="#80b1d3" stroke="transparent" points="658,-10 658,-30 678,-30 678,-10 658,-10"/>
<text text-anchor="start" x="681.7812" y="-15.4" font-family="sans-serif" font-size="14.00" fill="#000000"> &#160;Bootstrap</text>
<polygon fill="#fdb462" stroke="transparent" points="755,-10 755,-30 775,-30 775,-10 755,-10"/>
<text text-anchor="start" x="778.6732" y="-15.4" font-family="sans-serif" font-size="14.00" fill="#000000"> &#160;Providers</text>
<polygon fill="#fb8072" stroke="transparent" points="851,-10 851,-30 871,-30 871,-10 851,-10"/>
<text text-anchor="start" x="874.7258" y="-15.4" font-family="sans-serif" font-size="14.00" fill="#000000"> &#160;Exports</text>
<g id="clust1" class="cluster">
<title>cluster_jNetworkBootstrap3UploadModule</title>
<polygon fill="none" stroke="#000000" stroke-dasharray="1,5" points="8,-70 8,-333 1378,-333 1378,-70 8,-70"/>
</g>
<g id="clust2" class="cluster">
<title>cluster_jNetworkBootstrap3UploadModule_declarations</title>
<polygon fill="none" stroke="#000000" points="532,-143 532,-195 762,-195 762,-143 532,-143"/>
</g>
<g id="clust3" class="cluster">
<title>cluster_jNetworkBootstrap3UploadModule_NgUpload_providers</title>
<polygon fill="none" stroke="#000000" points="16,-78 16,-130 1370,-130 1370,-78 16,-78"/>
</g>
<g id="clust6" class="cluster">
<title>cluster_jNetworkBootstrap3UploadModule_exports</title>
<polygon fill="none" stroke="#000000" points="528,-273 528,-325 766,-325 766,-273 528,-273"/>
</g>
<!-- NgUpload -->
<g id="node1" class="node">
<title>NgUpload</title>
<polygon fill="#ffffb3" stroke="#000000" points="754.3191,-187 679.6809,-187 679.6809,-151 754.3191,-151 754.3191,-187"/>
<text text-anchor="middle" x="717" y="-164.8" font-family="Times,serif" font-size="14.00" fill="#000000">NgUpload</text>
</g>
<!-- jNetworkBootstrap3UploadModule -->
<g id="node3" class="node">
<title>jNetworkBootstrap3UploadModule</title>
<polygon fill="#8dd3c7" stroke="#000000" points="766.5688,-252 763.5688,-256 742.5688,-256 739.5688,-252 551.4312,-252 551.4312,-216 766.5688,-216 766.5688,-252"/>
<text text-anchor="middle" x="659" y="-229.8" font-family="Times,serif" font-size="14.00" fill="#000000">jNetworkBootstrap3UploadModule</text>
</g>
<!-- NgUpload&#45;&gt;jNetworkBootstrap3UploadModule -->
<g id="edge1" class="edge">
<title>NgUpload&#45;&gt;jNetworkBootstrap3UploadModule</title>
<path fill="none" stroke="#000000" d="M717,-187.1061C717,-187.1061 717,-205.991 717,-205.991"/>
<polygon fill="#000000" stroke="#000000" points="713.5001,-205.9909 717,-215.991 720.5001,-205.991 713.5001,-205.9909"/>
</g>
<!-- NgUploadMultiple -->
<g id="node2" class="node">
<title>NgUploadMultiple</title>
<polygon fill="#ffffb3" stroke="#000000" points="662.0409,-187 539.9591,-187 539.9591,-151 662.0409,-151 662.0409,-187"/>
<text text-anchor="middle" x="601" y="-164.8" font-family="Times,serif" font-size="14.00" fill="#000000">NgUploadMultiple</text>
</g>
<!-- NgUploadMultiple&#45;&gt;jNetworkBootstrap3UploadModule -->
<g id="edge4" class="edge">
<title>NgUploadMultiple&#45;&gt;jNetworkBootstrap3UploadModule</title>
<path fill="none" stroke="#000000" d="M606.8678,-187.1061C606.8678,-187.1061 606.8678,-205.991 606.8678,-205.991"/>
<polygon fill="#000000" stroke="#000000" points="603.3679,-205.9909 606.8678,-215.991 610.3679,-205.991 603.3679,-205.9909"/>
</g>
<!-- NgUpload  -->
<g id="node6" class="node">
<title>NgUpload </title>
<polygon fill="#fb8072" stroke="#000000" points="757.8186,-317 680.1814,-317 680.1814,-281 757.8186,-281 757.8186,-317"/>
<text text-anchor="middle" x="719" y="-294.8" font-family="Times,serif" font-size="14.00" fill="#000000">NgUpload </text>
</g>
<!-- jNetworkBootstrap3UploadModule&#45;&gt;NgUpload  -->
<g id="edge5" class="edge">
<title>jNetworkBootstrap3UploadModule&#45;&gt;NgUpload </title>
<path fill="none" stroke="#000000" stroke-dasharray="5,2" d="M719,-252.1061C719,-252.1061 719,-270.991 719,-270.991"/>
<polygon fill="#000000" stroke="#000000" points="715.5001,-270.9909 719,-280.991 722.5001,-270.991 715.5001,-270.9909"/>
</g>
<!-- NgUploadMultiple  -->
<g id="node7" class="node">
<title>NgUploadMultiple </title>
<polygon fill="#fb8072" stroke="#000000" points="662.04,-317 535.96,-317 535.96,-281 662.04,-281 662.04,-317"/>
<text text-anchor="middle" x="599" y="-294.8" font-family="Times,serif" font-size="14.00" fill="#000000">NgUploadMultiple </text>
</g>
<!-- jNetworkBootstrap3UploadModule&#45;&gt;NgUploadMultiple  -->
<g id="edge6" class="edge">
<title>jNetworkBootstrap3UploadModule&#45;&gt;NgUploadMultiple </title>
<path fill="none" stroke="#000000" stroke-dasharray="5,2" d="M606.7428,-252.1061C606.7428,-252.1061 606.7428,-270.991 606.7428,-270.991"/>
<polygon fill="#000000" stroke="#000000" points="603.2429,-270.9909 606.7428,-280.991 610.2429,-270.991 603.2429,-270.9909"/>
</g>
<!-- { provide: NG_VALUE_ACCESSOR, multi: true, useExisting: NgUpload } -->
<g id="node4" class="node">
<title>{ provide: NG_VALUE_ACCESSOR, multi: true, useExisting: NgUpload }</title>
<ellipse fill="#fdb462" stroke="#000000" cx="1056" cy="-104" rx="306.4795" ry="18"/>
<text text-anchor="middle" x="1056" y="-99.8" font-family="Times,serif" font-size="14.00" fill="#000000">{ provide: NG_VALUE_ACCESSOR, multi: true, useExisting: NgUpload }</text>
</g>
<!-- { provide: NG_VALUE_ACCESSOR, multi: true, useExisting: NgUpload }&#45;&gt;NgUpload -->
<g id="edge2" class="edge">
<title>{ provide: NG_VALUE_ACCESSOR, multi: true, useExisting: NgUpload }&#45;&gt;NgUpload</title>
<path fill="none" stroke="#000000" d="M760.3468,-109.1004C760.3468,-124.4236 760.3468,-169 760.3468,-169 760.3468,-169 759.7441,-169 759.7441,-169"/>
<polygon fill="#000000" stroke="#000000" points="764.3197,-165.5002 754.3196,-169 764.3195,-172.5002 764.3197,-165.5002"/>
</g>
<!-- { provide: NG_VALIDATORS, multi: true, useExisting: forwardRef(() =&gt; NgUpload) } -->
<g id="node5" class="node">
<title>{ provide: NG_VALIDATORS, multi: true, useExisting: forwardRef(() =&gt; NgUpload) }</title>
<ellipse fill="#fdb462" stroke="#000000" cx="378" cy="-104" rx="353.6158" ry="18"/>
<text text-anchor="middle" x="378" y="-99.8" font-family="Times,serif" font-size="14.00" fill="#000000">{ provide: NG_VALIDATORS, multi: true, useExisting: forwardRef(() =&gt; NgUpload) }</text>
</g>
<!-- { provide: NG_VALIDATORS, multi: true, useExisting: forwardRef(() =&gt; NgUpload) }&#45;&gt;NgUpload -->
<g id="edge3" class="edge">
<title>{ provide: NG_VALIDATORS, multi: true, useExisting: forwardRef(() =&gt; NgUpload) }&#45;&gt;NgUpload</title>
<path fill="none" stroke="#000000" d="M705.8243,-110.9561C705.8243,-110.9561 705.8243,-140.8074 705.8243,-140.8074"/>
<polygon fill="#000000" stroke="#000000" points="702.3244,-140.8074 705.8243,-150.8074 709.3244,-140.8075 702.3244,-140.8074"/>
</g>
</g>
</svg>
