<?xml version="1.0" encoding="UTF-8" standalone="no"?>
<!DOCTYPE svg PUBLIC "-//W3C//DTD SVG 1.1//EN"
 "http://www.w3.org/Graphics/SVG/1.1/DTD/svg11.dtd">
<!-- Generated by graphviz version 2.40.1 (20161225.0304)
 -->
<!-- Title: dependencies Pages: 1 -->
<svg width="504pt" height="284pt"
 viewBox="0.00 0.00 504.00 284.00" xmlns="http://www.w3.org/2000/svg" xmlns:xlink="http://www.w3.org/1999/xlink">
<g id="graph0" class="graph" transform="scale(1 1) rotate(0) translate(4 280)">
<title>dependencies</title>
<polygon fill="#ffffff" stroke="transparent" points="-4,4 -4,-280 500,-280 500,4 -4,4"/>
<text text-anchor="start" x="227.0091" y="-42.4" font-family="sans-serif" font-weight="bold" font-size="14.00" fill="#000000">Legend</text>
<polygon fill="#ffffb3" stroke="transparent" points="14,-10 14,-30 34,-30 34,-10 14,-10"/>
<text text-anchor="start" x="37.629" y="-15.4" font-family="sans-serif" font-size="14.00" fill="#000000"> &#160;Declarations</text>
<polygon fill="#8dd3c7" stroke="transparent" points="127,-10 127,-30 147,-30 147,-10 127,-10"/>
<text text-anchor="start" x="150.7251" y="-15.4" font-family="sans-serif" font-size="14.00" fill="#000000"> &#160;Module</text>
<polygon fill="#80b1d3" stroke="transparent" points="213,-10 213,-30 233,-30 233,-10 213,-10"/>
<text text-anchor="start" x="236.7812" y="-15.4" font-family="sans-serif" font-size="14.00" fill="#000000"> &#160;Bootstrap</text>
<polygon fill="#fdb462" stroke="transparent" points="310,-10 310,-30 330,-30 330,-10 310,-10"/>
<text text-anchor="start" x="333.6732" y="-15.4" font-family="sans-serif" font-size="14.00" fill="#000000"> &#160;Providers</text>
<polygon fill="#fb8072" stroke="transparent" points="406,-10 406,-30 426,-30 426,-10 406,-10"/>
<text text-anchor="start" x="429.7258" y="-15.4" font-family="sans-serif" font-size="14.00" fill="#000000"> &#160;Exports</text>
<g id="clust1" class="cluster">
<title>cluster_jNetworkBootstrap3UploadModule</title>
<polygon fill="none" stroke="#000000" stroke-dasharray="1,5" points="121,-70 121,-268 375,-268 375,-70 121,-70"/>
</g>
<g id="clust2" class="cluster">
<title>cluster_jNetworkBootstrap3UploadModule_declarations</title>
<polygon fill="none" stroke="#000000" points="133,-78 133,-130 363,-130 363,-78 133,-78"/>
</g>
<g id="clust6" class="cluster">
<title>cluster_jNetworkBootstrap3UploadModule_exports</title>
<polygon fill="none" stroke="#000000" points="129,-208 129,-260 367,-260 367,-208 129,-208"/>
</g>
<!-- NgUpload -->
<g id="node1" class="node">
<title>NgUpload</title>
<polygon fill="#ffffb3" stroke="#000000" points="355.3191,-122 280.6809,-122 280.6809,-86 355.3191,-86 355.3191,-122"/>
<text text-anchor="middle" x="318" y="-99.8" font-family="Times,serif" font-size="14.00" fill="#000000">NgUpload</text>
</g>
<!-- jNetworkBootstrap3UploadModule -->
<g id="node3" class="node">
<title>jNetworkBootstrap3UploadModule</title>
<polygon fill="#8dd3c7" stroke="#000000" points="355.5688,-187 352.5688,-191 331.5688,-191 328.5688,-187 140.4312,-187 140.4312,-151 355.5688,-151 355.5688,-187"/>
<text text-anchor="middle" x="248" y="-164.8" font-family="Times,serif" font-size="14.00" fill="#000000">jNetworkBootstrap3UploadModule</text>
</g>
<!-- NgUpload&#45;&gt;jNetworkBootstrap3UploadModule -->
<g id="edge1" class="edge">
<title>NgUpload&#45;&gt;jNetworkBootstrap3UploadModule</title>
<path fill="none" stroke="#000000" d="M318,-122.1061C318,-122.1061 318,-140.991 318,-140.991"/>
<polygon fill="#000000" stroke="#000000" points="314.5001,-140.9909 318,-150.991 321.5001,-140.991 314.5001,-140.9909"/>
</g>
<!-- NgUploadMultiple -->
<g id="node2" class="node">
<title>NgUploadMultiple</title>
<polygon fill="#ffffb3" stroke="#000000" points="263.0409,-122 140.9591,-122 140.9591,-86 263.0409,-86 263.0409,-122"/>
<text text-anchor="middle" x="202" y="-99.8" font-family="Times,serif" font-size="14.00" fill="#000000">NgUploadMultiple</text>
</g>
<!-- NgUploadMultiple&#45;&gt;jNetworkBootstrap3UploadModule -->
<g id="edge2" class="edge">
<title>NgUploadMultiple&#45;&gt;jNetworkBootstrap3UploadModule</title>
<path fill="none" stroke="#000000" d="M202,-122.1061C202,-122.1061 202,-140.991 202,-140.991"/>
<polygon fill="#000000" stroke="#000000" points="198.5001,-140.9909 202,-150.991 205.5001,-140.991 198.5001,-140.9909"/>
</g>
<!-- NgUpload  -->
<g id="node4" class="node">
<title>NgUpload </title>
<polygon fill="#fb8072" stroke="#000000" points="358.8186,-252 281.1814,-252 281.1814,-216 358.8186,-216 358.8186,-252"/>
<text text-anchor="middle" x="320" y="-229.8" font-family="Times,serif" font-size="14.00" fill="#000000">NgUpload </text>
</g>
<!-- jNetworkBootstrap3UploadModule&#45;&gt;NgUpload  -->
<g id="edge3" class="edge">
<title>jNetworkBootstrap3UploadModule&#45;&gt;NgUpload </title>
<path fill="none" stroke="#000000" stroke-dasharray="5,2" d="M318.3126,-187.1061C318.3126,-187.1061 318.3126,-205.991 318.3126,-205.991"/>
<polygon fill="#000000" stroke="#000000" points="314.8127,-205.9909 318.3126,-215.991 321.8127,-205.991 314.8127,-205.9909"/>
</g>
<!-- NgUploadMultiple  -->
<g id="node5" class="node">
<title>NgUploadMultiple </title>
<polygon fill="#fb8072" stroke="#000000" points="263.04,-252 136.96,-252 136.96,-216 263.04,-216 263.04,-252"/>
<text text-anchor="middle" x="200" y="-229.8" font-family="Times,serif" font-size="14.00" fill="#000000">NgUploadMultiple </text>
</g>
<!-- jNetworkBootstrap3UploadModule&#45;&gt;NgUploadMultiple  -->
<g id="edge4" class="edge">
<title>jNetworkBootstrap3UploadModule&#45;&gt;NgUploadMultiple </title>
<path fill="none" stroke="#000000" stroke-dasharray="5,2" d="M201.7428,-187.1061C201.7428,-187.1061 201.7428,-205.991 201.7428,-205.991"/>
<polygon fill="#000000" stroke="#000000" points="198.2429,-205.9909 201.7428,-215.991 205.2429,-205.991 198.2429,-205.9909"/>
</g>
</g>
</svg>
