<?xml version="1.0" encoding="UTF-8" standalone="no"?>
<!DOCTYPE svg PUBLIC "-//W3C//DTD SVG 1.1//EN"
 "http://www.w3.org/Graphics/SVG/1.1/DTD/svg11.dtd">
<!-- Generated by graphviz version 2.47.3 (20210619.1520)
 -->
<!-- Title: dependencies Pages: 1 -->
<svg width="424pt" height="247pt"
 viewBox="0.00 0.00 424.00 246.80" xmlns="http://www.w3.org/2000/svg" xmlns:xlink="http://www.w3.org/1999/xlink">
<g id="graph0" class="graph" transform="scale(1 1) rotate(0) translate(4 242.8)">
<title>dependencies</title>
<polygon fill="white" stroke="transparent" points="-4,4 -4,-242.8 420,-242.8 420,4 -4,4"/>
<text text-anchor="middle" x="208" y="-8.2" font-family="sans-serif" font-size="14.00">dependencies</text>
<g id="clust1" class="cluster">
<title>cluster_JNetworkBootstrap4DropdownModule</title>
<polygon fill="none" stroke="black" stroke-dasharray="1,5" points="8,-32.8 8,-230.8 408,-230.8 408,-32.8 8,-32.8"/>
</g>
<g id="clust6" class="cluster">
<title>cluster_JNetworkBootstrap4DropdownModule_exports</title>
<polygon fill="none" stroke="black" points="16,-170.8 16,-222.8 400,-222.8 400,-170.8 16,-170.8"/>
</g>
<g id="clust2" class="cluster">
<title>cluster_JNetworkBootstrap4DropdownModule_declarations</title>
<polygon fill="none" stroke="black" points="20,-40.8 20,-92.8 396,-92.8 396,-40.8 20,-40.8"/>
</g>
<!-- NgDropdownComponent -->
<g id="node1" class="node">
<title>NgDropdownComponent</title>
<polygon fill="#ffffb3" stroke="black" points="388.31,-84.8 229.69,-84.8 229.69,-48.8 388.31,-48.8 388.31,-84.8"/>
<text text-anchor="middle" x="309" y="-62.6" font-family="Times,serif" font-size="14.00">NgDropdownComponent</text>
</g>
<!-- JNetworkBootstrap4DropdownModule -->
<g id="node3" class="node">
<title>JNetworkBootstrap4DropdownModule</title>
<polygon fill="#8dd3c7" stroke="black" points="325.78,-149.8 322.78,-153.8 301.78,-153.8 298.78,-149.8 90.22,-149.8 90.22,-113.8 325.78,-113.8 325.78,-149.8"/>
<text text-anchor="middle" x="208" y="-127.6" font-family="Times,serif" font-size="14.00">JNetworkBootstrap4DropdownModule</text>
</g>
<!-- NgDropdownComponent&#45;&gt;JNetworkBootstrap4DropdownModule -->
<g id="edge1" class="edge">
<title>NgDropdownComponent&#45;&gt;JNetworkBootstrap4DropdownModule</title>
<path fill="none" stroke="black" d="M277.74,-84.91C277.74,-84.91 277.74,-103.79 277.74,-103.79"/>
<polygon fill="black" stroke="black" points="274.24,-103.79 277.74,-113.79 281.24,-103.79 274.24,-103.79"/>
</g>
<!-- NgDropdownOptionDirective -->
<g id="node2" class="node">
<title>NgDropdownOptionDirective</title>
<polygon fill="#ffffb3" stroke="black" points="211.95,-84.8 28.05,-84.8 28.05,-48.8 211.95,-48.8 211.95,-84.8"/>
<text text-anchor="middle" x="120" y="-62.6" font-family="Times,serif" font-size="14.00">NgDropdownOptionDirective</text>
</g>
<!-- NgDropdownOptionDirective&#45;&gt;JNetworkBootstrap4DropdownModule -->
<g id="edge2" class="edge">
<title>NgDropdownOptionDirective&#45;&gt;JNetworkBootstrap4DropdownModule</title>
<path fill="none" stroke="black" d="M151.17,-84.91C151.17,-84.91 151.17,-103.79 151.17,-103.79"/>
<polygon fill="black" stroke="black" points="147.67,-103.79 151.17,-113.79 154.67,-103.79 147.67,-103.79"/>
</g>
<!-- NgDropdownComponent  -->
<g id="node4" class="node">
<title>NgDropdownComponent </title>
<polygon fill="#fb8072" stroke="black" points="391.81,-214.8 230.19,-214.8 230.19,-178.8 391.81,-178.8 391.81,-214.8"/>
<text text-anchor="middle" x="311" y="-192.6" font-family="Times,serif" font-size="14.00">NgDropdownComponent </text>
</g>
<!-- JNetworkBootstrap4DropdownModule&#45;&gt;NgDropdownComponent  -->
<g id="edge3" class="edge">
<title>JNetworkBootstrap4DropdownModule&#45;&gt;NgDropdownComponent </title>
<path fill="none" stroke="black" stroke-dasharray="5,2" d="M277.87,-149.91C277.87,-149.91 277.87,-168.79 277.87,-168.79"/>
<polygon fill="black" stroke="black" points="274.37,-168.79 277.87,-178.79 281.37,-168.79 274.37,-168.79"/>
</g>
<!-- NgDropdownOptionDirective  -->
<g id="node5" class="node">
<title>NgDropdownOptionDirective </title>
<polygon fill="#fb8072" stroke="black" points="211.95,-214.8 24.05,-214.8 24.05,-178.8 211.95,-178.8 211.95,-214.8"/>
<text text-anchor="middle" x="118" y="-192.6" font-family="Times,serif" font-size="14.00">NgDropdownOptionDirective </text>
</g>
<!-- JNetworkBootstrap4DropdownModule&#45;&gt;NgDropdownOptionDirective  -->
<g id="edge4" class="edge">
<title>JNetworkBootstrap4DropdownModule&#45;&gt;NgDropdownOptionDirective </title>
<path fill="none" stroke="black" stroke-dasharray="5,2" d="M151.04,-149.91C151.04,-149.91 151.04,-168.79 151.04,-168.79"/>
<polygon fill="black" stroke="black" points="147.54,-168.79 151.04,-178.79 154.54,-168.79 147.54,-168.79"/>
</g>
</g>
</svg>
