<?xml version="1.0" encoding="UTF-8" standalone="no"?>
<!DOCTYPE svg PUBLIC "-//W3C//DTD SVG 1.1//EN"
 "http://www.w3.org/Graphics/SVG/1.1/DTD/svg11.dtd">
<!-- Generated by graphviz version 2.47.0 (20210316.0004)
 -->
<!-- Title: dependencies Pages: 1 -->
<svg width="504pt" height="284pt"
 viewBox="0.00 0.00 504.00 284.00" xmlns="http://www.w3.org/2000/svg" xmlns:xlink="http://www.w3.org/1999/xlink">
<g id="graph0" class="graph" transform="scale(1 1) rotate(0) translate(4 280)">
<title>dependencies</title>
<polygon fill="white" stroke="transparent" points="-4,4 -4,-280 500,-280 500,4 -4,4"/>
<text text-anchor="start" x="227.01" y="-42.4" font-family="Times-12" font-weight="bold" font-size="14.00">Legend</text>
<polygon fill="#ffffb3" stroke="transparent" points="14,-10 14,-30 34,-30 34,-10 14,-10"/>
<text text-anchor="start" x="37.63" y="-15.4" font-family="Times-12" font-size="14.00"> &#160;Declarations</text>
<polygon fill="#8dd3c7" stroke="transparent" points="127,-10 127,-30 147,-30 147,-10 127,-10"/>
<text text-anchor="start" x="150.73" y="-15.4" font-family="Times-12" font-size="14.00"> &#160;Module</text>
<polygon fill="#80b1d3" stroke="transparent" points="213,-10 213,-30 233,-30 233,-10 213,-10"/>
<text text-anchor="start" x="236.78" y="-15.4" font-family="Times-12" font-size="14.00"> &#160;Bootstrap</text>
<polygon fill="#fdb462" stroke="transparent" points="310,-10 310,-30 330,-30 330,-10 310,-10"/>
<text text-anchor="start" x="333.67" y="-15.4" font-family="Times-12" font-size="14.00"> &#160;Providers</text>
<polygon fill="#fb8072" stroke="transparent" points="406,-10 406,-30 426,-30 426,-10 406,-10"/>
<text text-anchor="start" x="429.73" y="-15.4" font-family="Times-12" font-size="14.00"> &#160;Exports</text>
<g id="clust1" class="cluster">
<title>cluster_JNetworkBootstrap4DropdownModule</title>
<polygon fill="none" stroke="black" stroke-dasharray="1,5" points="48,-70 48,-268 448,-268 448,-70 48,-70"/>
</g>
<g id="clust2" class="cluster">
<title>cluster_JNetworkBootstrap4DropdownModule_declarations</title>
<polygon fill="none" stroke="black" points="60,-78 60,-130 436,-130 436,-78 60,-78"/>
</g>
<g id="clust6" class="cluster">
<title>cluster_JNetworkBootstrap4DropdownModule_exports</title>
<polygon fill="none" stroke="black" points="56,-208 56,-260 440,-260 440,-208 56,-208"/>
</g>
<!-- NgDropdownComponent -->
<g id="node1" class="node">
<title>NgDropdownComponent</title>
<polygon fill="#ffffb3" stroke="black" points="428.31,-122 269.69,-122 269.69,-86 428.31,-86 428.31,-122"/>
<text text-anchor="middle" x="349" y="-99.8" font-family="Times,serif" font-size="14.00">NgDropdownComponent</text>
</g>
<!-- JNetworkBootstrap4DropdownModule -->
<g id="node3" class="node">
<title>JNetworkBootstrap4DropdownModule</title>
<polygon fill="#8dd3c7" stroke="black" points="365.78,-187 362.78,-191 341.78,-191 338.78,-187 130.22,-187 130.22,-151 365.78,-151 365.78,-187"/>
<text text-anchor="middle" x="248" y="-164.8" font-family="Times,serif" font-size="14.00">JNetworkBootstrap4DropdownModule</text>
</g>
<!-- NgDropdownComponent&#45;&gt;JNetworkBootstrap4DropdownModule -->
<g id="edge1" class="edge">
<title>NgDropdownComponent&#45;&gt;JNetworkBootstrap4DropdownModule</title>
<path fill="none" stroke="black" d="M317.74,-122.11C317.74,-122.11 317.74,-140.99 317.74,-140.99"/>
<polygon fill="black" stroke="black" points="314.24,-140.99 317.74,-150.99 321.24,-140.99 314.24,-140.99"/>
</g>
<!-- NgDropdownOptionDirective -->
<g id="node2" class="node">
<title>NgDropdownOptionDirective</title>
<polygon fill="#ffffb3" stroke="black" points="251.95,-122 68.05,-122 68.05,-86 251.95,-86 251.95,-122"/>
<text text-anchor="middle" x="160" y="-99.8" font-family="Times,serif" font-size="14.00">NgDropdownOptionDirective</text>
</g>
<!-- NgDropdownOptionDirective&#45;&gt;JNetworkBootstrap4DropdownModule -->
<g id="edge2" class="edge">
<title>NgDropdownOptionDirective&#45;&gt;JNetworkBootstrap4DropdownModule</title>
<path fill="none" stroke="black" d="M191.17,-122.11C191.17,-122.11 191.17,-140.99 191.17,-140.99"/>
<polygon fill="black" stroke="black" points="187.67,-140.99 191.17,-150.99 194.67,-140.99 187.67,-140.99"/>
</g>
<!-- NgDropdownComponent  -->
<g id="node4" class="node">
<title>NgDropdownComponent </title>
<polygon fill="#fb8072" stroke="black" points="431.81,-252 270.19,-252 270.19,-216 431.81,-216 431.81,-252"/>
<text text-anchor="middle" x="351" y="-229.8" font-family="Times,serif" font-size="14.00">NgDropdownComponent </text>
</g>
<!-- JNetworkBootstrap4DropdownModule&#45;&gt;NgDropdownComponent  -->
<g id="edge3" class="edge">
<title>JNetworkBootstrap4DropdownModule&#45;&gt;NgDropdownComponent </title>
<path fill="none" stroke="black" stroke-dasharray="5,2" d="M317.87,-187.11C317.87,-187.11 317.87,-205.99 317.87,-205.99"/>
<polygon fill="black" stroke="black" points="314.37,-205.99 317.87,-215.99 321.37,-205.99 314.37,-205.99"/>
</g>
<!-- NgDropdownOptionDirective  -->
<g id="node5" class="node">
<title>NgDropdownOptionDirective </title>
<polygon fill="#fb8072" stroke="black" points="251.95,-252 64.05,-252 64.05,-216 251.95,-216 251.95,-252"/>
<text text-anchor="middle" x="158" y="-229.8" font-family="Times,serif" font-size="14.00">NgDropdownOptionDirective </text>
</g>
<!-- JNetworkBootstrap4DropdownModule&#45;&gt;NgDropdownOptionDirective  -->
<g id="edge4" class="edge">
<title>JNetworkBootstrap4DropdownModule&#45;&gt;NgDropdownOptionDirective </title>
<path fill="none" stroke="black" stroke-dasharray="5,2" d="M191.04,-187.11C191.04,-187.11 191.04,-205.99 191.04,-205.99"/>
<polygon fill="black" stroke="black" points="187.54,-205.99 191.04,-215.99 194.54,-205.99 187.54,-205.99"/>
</g>
</g>
</svg>
