<?xml version="1.0" encoding="UTF-8" standalone="no"?>
<!DOCTYPE svg PUBLIC "-//W3C//DTD SVG 1.1//EN"
 "http://www.w3.org/Graphics/SVG/1.1/DTD/svg11.dtd">
<!-- Generated by graphviz version 2.40.1 (20161225.0304)
 -->
<!-- Title: dependencies Pages: 1 -->
<svg width="504pt" height="284pt"
 viewBox="0.00 0.00 504.00 284.00" xmlns="http://www.w3.org/2000/svg" xmlns:xlink="http://www.w3.org/1999/xlink">
<g id="graph0" class="graph" transform="scale(1 1) rotate(0) translate(4 280)">
<title>dependencies</title>
<polygon fill="#ffffff" stroke="transparent" points="-4,4 -4,-280 500,-280 500,4 -4,4"/>
<text text-anchor="start" x="227.0091" y="-42.4" font-family="sans-serif" font-weight="bold" font-size="14.00" fill="#000000">Legend</text>
<polygon fill="#ffffb3" stroke="transparent" points="14,-10 14,-30 34,-30 34,-10 14,-10"/>
<text text-anchor="start" x="37.629" y="-15.4" font-family="sans-serif" font-size="14.00" fill="#000000"> &#160;Declarations</text>
<polygon fill="#8dd3c7" stroke="transparent" points="127,-10 127,-30 147,-30 147,-10 127,-10"/>
<text text-anchor="start" x="150.7251" y="-15.4" font-family="sans-serif" font-size="14.00" fill="#000000"> &#160;Module</text>
<polygon fill="#80b1d3" stroke="transparent" points="213,-10 213,-30 233,-30 233,-10 213,-10"/>
<text text-anchor="start" x="236.7812" y="-15.4" font-family="sans-serif" font-size="14.00" fill="#000000"> &#160;Bootstrap</text>
<polygon fill="#fdb462" stroke="transparent" points="310,-10 310,-30 330,-30 330,-10 310,-10"/>
<text text-anchor="start" x="333.6732" y="-15.4" font-family="sans-serif" font-size="14.00" fill="#000000"> &#160;Providers</text>
<polygon fill="#fb8072" stroke="transparent" points="406,-10 406,-30 426,-30 426,-10 406,-10"/>
<text text-anchor="start" x="429.7258" y="-15.4" font-family="sans-serif" font-size="14.00" fill="#000000"> &#160;Exports</text>
<g id="clust1" class="cluster">
<title>cluster_jNetworkBootstrap3TtreeviewModule</title>
<polygon fill="none" stroke="#000000" stroke-dasharray="1,5" points="43,-70 43,-268 453,-268 453,-70 43,-70"/>
</g>
<g id="clust2" class="cluster">
<title>cluster_jNetworkBootstrap3TtreeviewModule_declarations</title>
<polygon fill="none" stroke="#000000" points="56,-78 56,-130 440,-130 440,-78 56,-78"/>
</g>
<g id="clust7" class="cluster">
<title>cluster_jNetworkBootstrap3TtreeviewModule_exports</title>
<polygon fill="none" stroke="#000000" points="51,-208 51,-260 445,-260 445,-208 51,-208"/>
</g>
<!-- NgTreeItemAction -->
<g id="node1" class="node">
<title>NgTreeItemAction</title>
<polygon fill="#ffffb3" stroke="#000000" points="432.0088,-122 309.9912,-122 309.9912,-86 432.0088,-86 432.0088,-122"/>
<text text-anchor="middle" x="371" y="-99.8" font-family="Times,serif" font-size="14.00" fill="#000000">NgTreeItemAction</text>
</g>
<!-- jNetworkBootstrap3TtreeviewModule -->
<g id="node4" class="node">
<title>jNetworkBootstrap3TtreeviewModule</title>
<polygon fill="#8dd3c7" stroke="#000000" points="362.1021,-187 359.1021,-191 338.1021,-191 335.1021,-187 131.8979,-187 131.8979,-151 362.1021,-151 362.1021,-187"/>
<text text-anchor="middle" x="247" y="-164.8" font-family="Times,serif" font-size="14.00" fill="#000000">jNetworkBootstrap3TtreeviewModule</text>
</g>
<!-- NgTreeItemAction&#45;&gt;jNetworkBootstrap3TtreeviewModule -->
<g id="edge1" class="edge">
<title>NgTreeItemAction&#45;&gt;jNetworkBootstrap3TtreeviewModule</title>
<path fill="none" stroke="#000000" d="M336.0235,-122.1061C336.0235,-122.1061 336.0235,-140.991 336.0235,-140.991"/>
<polygon fill="#000000" stroke="#000000" points="332.5236,-140.9909 336.0235,-150.991 339.5236,-140.991 332.5236,-140.9909"/>
</g>
<!-- NgTreeView -->
<g id="node2" class="node">
<title>NgTreeView</title>
<polygon fill="#ffffb3" stroke="#000000" points="291.5674,-122 202.4326,-122 202.4326,-86 291.5674,-86 291.5674,-122"/>
<text text-anchor="middle" x="247" y="-99.8" font-family="Times,serif" font-size="14.00" fill="#000000">NgTreeView</text>
</g>
<!-- NgTreeView&#45;&gt;jNetworkBootstrap3TtreeviewModule -->
<g id="edge2" class="edge">
<title>NgTreeView&#45;&gt;jNetworkBootstrap3TtreeviewModule</title>
<path fill="none" stroke="#000000" d="M247,-122.1061C247,-122.1061 247,-140.991 247,-140.991"/>
<polygon fill="#000000" stroke="#000000" points="243.5001,-140.9909 247,-150.991 250.5001,-140.991 243.5001,-140.9909"/>
</g>
<!-- NgTreeViewChild -->
<g id="node3" class="node">
<title>NgTreeViewChild</title>
<polygon fill="#ffffb3" stroke="#000000" points="184.1853,-122 63.8147,-122 63.8147,-86 184.1853,-86 184.1853,-122"/>
<text text-anchor="middle" x="124" y="-99.8" font-family="Times,serif" font-size="14.00" fill="#000000">NgTreeViewChild</text>
</g>
<!-- NgTreeViewChild&#45;&gt;jNetworkBootstrap3TtreeviewModule -->
<g id="edge3" class="edge">
<title>NgTreeViewChild&#45;&gt;jNetworkBootstrap3TtreeviewModule</title>
<path fill="none" stroke="#000000" d="M157.8959,-122.1061C157.8959,-122.1061 157.8959,-140.991 157.8959,-140.991"/>
<polygon fill="#000000" stroke="#000000" points="154.3959,-140.9909 157.8959,-150.991 161.3959,-140.991 154.3959,-140.9909"/>
</g>
<!-- NgTreeItemAction  -->
<g id="node5" class="node">
<title>NgTreeItemAction </title>
<polygon fill="#fb8072" stroke="#000000" points="437.0078,-252 310.9922,-252 310.9922,-216 437.0078,-216 437.0078,-252"/>
<text text-anchor="middle" x="374" y="-229.8" font-family="Times,serif" font-size="14.00" fill="#000000">NgTreeItemAction </text>
</g>
<!-- jNetworkBootstrap3TtreeviewModule&#45;&gt;NgTreeItemAction  -->
<g id="edge4" class="edge">
<title>jNetworkBootstrap3TtreeviewModule&#45;&gt;NgTreeItemAction </title>
<path fill="none" stroke="#000000" stroke-dasharray="5,2" d="M336.6485,-187.1061C336.6485,-187.1061 336.6485,-205.991 336.6485,-205.991"/>
<polygon fill="#000000" stroke="#000000" points="333.1486,-205.9909 336.6485,-215.991 340.1486,-205.991 333.1486,-205.9909"/>
</g>
<!-- NgTreeView  -->
<g id="node6" class="node">
<title>NgTreeView </title>
<polygon fill="#fb8072" stroke="#000000" points="293.0684,-252 200.9316,-252 200.9316,-216 293.0684,-216 293.0684,-252"/>
<text text-anchor="middle" x="247" y="-229.8" font-family="Times,serif" font-size="14.00" fill="#000000">NgTreeView </text>
</g>
<!-- jNetworkBootstrap3TtreeviewModule&#45;&gt;NgTreeView  -->
<g id="edge5" class="edge">
<title>jNetworkBootstrap3TtreeviewModule&#45;&gt;NgTreeView </title>
<path fill="none" stroke="#000000" stroke-dasharray="5,2" d="M247,-187.1061C247,-187.1061 247,-205.991 247,-205.991"/>
<polygon fill="#000000" stroke="#000000" points="243.5001,-205.9909 247,-215.991 250.5001,-205.991 243.5001,-205.9909"/>
</g>
<!-- NgTreeViewChild  -->
<g id="node7" class="node">
<title>NgTreeViewChild </title>
<polygon fill="#fb8072" stroke="#000000" points="182.6856,-252 59.3144,-252 59.3144,-216 182.6856,-216 182.6856,-252"/>
<text text-anchor="middle" x="121" y="-229.8" font-family="Times,serif" font-size="14.00" fill="#000000">NgTreeViewChild </text>
</g>
<!-- jNetworkBootstrap3TtreeviewModule&#45;&gt;NgTreeViewChild  -->
<g id="edge6" class="edge">
<title>jNetworkBootstrap3TtreeviewModule&#45;&gt;NgTreeViewChild </title>
<path fill="none" stroke="#000000" stroke-dasharray="5,2" d="M157.2709,-187.1061C157.2709,-187.1061 157.2709,-205.991 157.2709,-205.991"/>
<polygon fill="#000000" stroke="#000000" points="153.7709,-205.9909 157.2709,-215.991 160.7709,-205.991 153.7709,-205.9909"/>
</g>
</g>
</svg>
