<?xml version="1.0" encoding="UTF-8" standalone="no"?>
<!DOCTYPE svg PUBLIC "-//W3C//DTD SVG 1.1//EN"
 "http://www.w3.org/Graphics/SVG/1.1/DTD/svg11.dtd">
<!-- Generated by graphviz version 2.40.1 (20161225.0304)
 -->
<!-- Title: dependencies Pages: 1 -->
<svg width="504pt" height="284pt"
 viewBox="0.00 0.00 504.00 284.00" xmlns="http://www.w3.org/2000/svg" xmlns:xlink="http://www.w3.org/1999/xlink">
<g id="graph0" class="graph" transform="scale(1 1) rotate(0) translate(4 280)">
<title>dependencies</title>
<polygon fill="#ffffff" stroke="transparent" points="-4,4 -4,-280 500,-280 500,4 -4,4"/>
<text text-anchor="start" x="227.0091" y="-42.4" font-family="sans-serif" font-weight="bold" font-size="14.00" fill="#000000">Legend</text>
<polygon fill="#ffffb3" stroke="transparent" points="14,-10 14,-30 34,-30 34,-10 14,-10"/>
<text text-anchor="start" x="37.629" y="-15.4" font-family="sans-serif" font-size="14.00" fill="#000000"> &#160;Declarations</text>
<polygon fill="#8dd3c7" stroke="transparent" points="127,-10 127,-30 147,-30 147,-10 127,-10"/>
<text text-anchor="start" x="150.7251" y="-15.4" font-family="sans-serif" font-size="14.00" fill="#000000"> &#160;Module</text>
<polygon fill="#80b1d3" stroke="transparent" points="213,-10 213,-30 233,-30 233,-10 213,-10"/>
<text text-anchor="start" x="236.7812" y="-15.4" font-family="sans-serif" font-size="14.00" fill="#000000"> &#160;Bootstrap</text>
<polygon fill="#fdb462" stroke="transparent" points="310,-10 310,-30 330,-30 330,-10 310,-10"/>
<text text-anchor="start" x="333.6732" y="-15.4" font-family="sans-serif" font-size="14.00" fill="#000000"> &#160;Providers</text>
<polygon fill="#fb8072" stroke="transparent" points="406,-10 406,-30 426,-30 426,-10 406,-10"/>
<text text-anchor="start" x="429.7258" y="-15.4" font-family="sans-serif" font-size="14.00" fill="#000000"> &#160;Exports</text>
<g id="clust1" class="cluster">
<title>cluster_jNetworkBootstrap4FormModule</title>
<polygon fill="none" stroke="#000000" stroke-dasharray="1,5" points="69,-70 69,-268 427,-268 427,-70 69,-70"/>
</g>
<g id="clust2" class="cluster">
<title>cluster_jNetworkBootstrap4FormModule_declarations</title>
<polygon fill="none" stroke="#000000" points="80,-78 80,-130 416,-130 416,-78 80,-78"/>
</g>
<g id="clust6" class="cluster">
<title>cluster_jNetworkBootstrap4FormModule_exports</title>
<polygon fill="none" stroke="#000000" points="77,-208 77,-260 419,-260 419,-208 77,-208"/>
</g>
<!-- NgFormular -->
<g id="node1" class="node">
<title>NgFormular</title>
<polygon fill="#ffffb3" stroke="#000000" points="407.7065,-122 322.2935,-122 322.2935,-86 407.7065,-86 407.7065,-122"/>
<text text-anchor="middle" x="365" y="-99.8" font-family="Times,serif" font-size="14.00" fill="#000000">NgFormular</text>
</g>
<!-- jNetworkBootstrap4FormModule -->
<g id="node3" class="node">
<title>jNetworkBootstrap4FormModule</title>
<polygon fill="#8dd3c7" stroke="#000000" points="299.1909,-187 296.1909,-191 275.1909,-191 272.1909,-187 94.8091,-187 94.8091,-151 299.1909,-151 299.1909,-187"/>
<text text-anchor="middle" x="197" y="-164.8" font-family="Times,serif" font-size="14.00" fill="#000000">jNetworkBootstrap4FormModule</text>
</g>
<!-- NgFormular&#45;&gt;jNetworkBootstrap4FormModule -->
<g id="edge1" class="edge">
<title>NgFormular&#45;&gt;jNetworkBootstrap4FormModule</title>
<path fill="none" stroke="#000000" d="M379.2844,-122.0225C379.2844,-139.3734 379.2844,-163 379.2844,-163 379.2844,-163 309.3318,-163 309.3318,-163"/>
<polygon fill="#000000" stroke="#000000" points="309.3318,-159.5001 299.3318,-163 309.3318,-166.5001 309.3318,-159.5001"/>
</g>
<!-- ProvideParentNgFormularDirective -->
<g id="node2" class="node">
<title>ProvideParentNgFormularDirective</title>
<polygon fill="#ffffb3" stroke="#000000" points="304.1008,-122 87.8992,-122 87.8992,-86 304.1008,-86 304.1008,-122"/>
<text text-anchor="middle" x="196" y="-99.8" font-family="Times,serif" font-size="14.00" fill="#000000">ProvideParentNgFormularDirective</text>
</g>
<!-- ProvideParentNgFormularDirective&#45;&gt;jNetworkBootstrap4FormModule -->
<g id="edge2" class="edge">
<title>ProvideParentNgFormularDirective&#45;&gt;jNetworkBootstrap4FormModule</title>
<path fill="none" stroke="#000000" d="M197,-122.1061C197,-122.1061 197,-140.991 197,-140.991"/>
<polygon fill="#000000" stroke="#000000" points="193.5001,-140.9909 197,-150.991 200.5001,-140.991 193.5001,-140.9909"/>
</g>
<!-- NgFormular  -->
<g id="node4" class="node">
<title>NgFormular </title>
<polygon fill="#fb8072" stroke="#000000" points="411.2067,-252 322.7933,-252 322.7933,-216 411.2067,-216 411.2067,-252"/>
<text text-anchor="middle" x="367" y="-229.8" font-family="Times,serif" font-size="14.00" fill="#000000">NgFormular </text>
</g>
<!-- jNetworkBootstrap4FormModule&#45;&gt;NgFormular  -->
<g id="edge3" class="edge">
<title>jNetworkBootstrap4FormModule&#45;&gt;NgFormular </title>
<path fill="none" stroke="#000000" stroke-dasharray="5,2" d="M299.269,-175C327.7067,-175 350.9656,-175 350.9656,-175 350.9656,-175 350.9656,-205.9775 350.9656,-205.9775"/>
<polygon fill="#000000" stroke="#000000" points="347.4657,-205.9774 350.9656,-215.9775 354.4657,-205.9775 347.4657,-205.9774"/>
</g>
<!-- ProvideParentNgFormularDirective  -->
<g id="node5" class="node">
<title>ProvideParentNgFormularDirective </title>
<polygon fill="#fb8072" stroke="#000000" points="305.1004,-252 84.8996,-252 84.8996,-216 305.1004,-216 305.1004,-252"/>
<text text-anchor="middle" x="195" y="-229.8" font-family="Times,serif" font-size="14.00" fill="#000000">ProvideParentNgFormularDirective </text>
</g>
<!-- jNetworkBootstrap4FormModule&#45;&gt;ProvideParentNgFormularDirective  -->
<g id="edge4" class="edge">
<title>jNetworkBootstrap4FormModule&#45;&gt;ProvideParentNgFormularDirective </title>
<path fill="none" stroke="#000000" stroke-dasharray="5,2" d="M197,-187.1061C197,-187.1061 197,-205.991 197,-205.991"/>
<polygon fill="#000000" stroke="#000000" points="193.5001,-205.9909 197,-215.991 200.5001,-205.991 193.5001,-205.9909"/>
</g>
</g>
</svg>
