<?xml version="1.0" encoding="UTF-8" standalone="no"?>
<!DOCTYPE svg PUBLIC "-//W3C//DTD SVG 1.1//EN"
 "http://www.w3.org/Graphics/SVG/1.1/DTD/svg11.dtd">
<!-- Generated by graphviz version 2.47.3 (20210619.1520)
 -->
<!-- Title: dependencies Pages: 1 -->
<svg width="1502pt" height="174pt"
 viewBox="0.00 0.00 1502.00 173.80" xmlns="http://www.w3.org/2000/svg" xmlns:xlink="http://www.w3.org/1999/xlink">
<g id="graph0" class="graph" transform="scale(1 1) rotate(0) translate(4 169.8)">
<title>dependencies</title>
<polygon fill="white" stroke="transparent" points="-4,4 -4,-169.8 1498,-169.8 1498,4 -4,4"/>
<text text-anchor="middle" x="747" y="-8.2" font-family="sans-serif" font-size="14.00">dependencies</text>
<g id="clust1" class="cluster">
<title>cluster_MultilanguageModule</title>
<polygon fill="none" stroke="black" stroke-dasharray="1,5" points="8,-32.8 8,-157.8 1486,-157.8 1486,-32.8 8,-32.8"/>
</g>
<g id="clust4" class="cluster">
<title>cluster_MultilanguageModule_imports</title>
<polygon fill="none" stroke="black" points="238,-40.8 238,-92.8 1478,-92.8 1478,-40.8 238,-40.8"/>
</g>
<g id="clust2" class="cluster">
<title>cluster_MultilanguageModule_declarations</title>
<polygon fill="none" stroke="black" points="16,-40.8 16,-92.8 230,-92.8 230,-40.8 16,-40.8"/>
</g>
<!-- DemoMultilanguageComponent -->
<g id="node1" class="node">
<title>DemoMultilanguageComponent</title>
<polygon fill="#ffffb3" stroke="black" points="221.7,-84.8 24.3,-84.8 24.3,-48.8 221.7,-48.8 221.7,-84.8"/>
<text text-anchor="middle" x="123" y="-62.6" font-family="Times,serif" font-size="14.00">DemoMultilanguageComponent</text>
</g>
<!-- MultilanguageModule -->
<g id="node2" class="node">
<title>MultilanguageModule</title>
<polygon fill="#8dd3c7" stroke="black" points="810.7,-149.8 807.7,-153.8 786.7,-153.8 783.7,-149.8 669.3,-149.8 669.3,-113.8 810.7,-113.8 810.7,-149.8"/>
<text text-anchor="middle" x="740" y="-127.6" font-family="Times,serif" font-size="14.00">MultilanguageModule</text>
</g>
<!-- DemoMultilanguageComponent&#45;&gt;MultilanguageModule -->
<g id="edge1" class="edge">
<title>DemoMultilanguageComponent&#45;&gt;MultilanguageModule</title>
<path fill="none" stroke="black" d="M123,-85.08C123,-106.12 123,-137.8 123,-137.8 123,-137.8 659.22,-137.8 659.22,-137.8"/>
<polygon fill="black" stroke="black" points="659.22,-141.3 669.22,-137.8 659.22,-134.3 659.22,-141.3"/>
</g>
<!-- JNetworkBootstrap4ButtonModule -->
<g id="node3" class="node">
<title>JNetworkBootstrap4ButtonModule</title>
<polygon fill="#8dd3c7" stroke="black" points="1469.53,-84.8 1466.53,-88.8 1445.53,-88.8 1442.53,-84.8 1256.47,-84.8 1256.47,-48.8 1469.53,-48.8 1469.53,-84.8"/>
<text text-anchor="middle" x="1363" y="-62.6" font-family="Times,serif" font-size="14.00">JNetworkBootstrap4ButtonModule</text>
</g>
<!-- JNetworkBootstrap4ButtonModule&#45;&gt;MultilanguageModule -->
<g id="edge2" class="edge">
<title>JNetworkBootstrap4ButtonModule&#45;&gt;MultilanguageModule</title>
<path fill="none" stroke="black" d="M1363,-85.08C1363,-106.12 1363,-137.8 1363,-137.8 1363,-137.8 820.86,-137.8 820.86,-137.8"/>
<polygon fill="black" stroke="black" points="820.86,-134.3 810.86,-137.8 820.86,-141.3 820.86,-134.3"/>
</g>
<!-- JNetworkBootstrap4FormModule -->
<g id="node4" class="node">
<title>JNetworkBootstrap4FormModule</title>
<polygon fill="#8dd3c7" stroke="black" points="1237.74,-84.8 1234.74,-88.8 1213.74,-88.8 1210.74,-84.8 1032.26,-84.8 1032.26,-48.8 1237.74,-48.8 1237.74,-84.8"/>
<text text-anchor="middle" x="1135" y="-62.6" font-family="Times,serif" font-size="14.00">JNetworkBootstrap4FormModule</text>
</g>
<!-- JNetworkBootstrap4FormModule&#45;&gt;MultilanguageModule -->
<g id="edge3" class="edge">
<title>JNetworkBootstrap4FormModule&#45;&gt;MultilanguageModule</title>
<path fill="none" stroke="black" d="M1135,-84.82C1135,-102.17 1135,-125.8 1135,-125.8 1135,-125.8 820.62,-125.8 820.62,-125.8"/>
<polygon fill="black" stroke="black" points="820.62,-122.3 810.62,-125.8 820.62,-129.3 820.62,-122.3"/>
</g>
<!-- JNetworkBootstrap4MultilanguageModule -->
<g id="node5" class="node">
<title>JNetworkBootstrap4MultilanguageModule</title>
<polygon fill="#8dd3c7" stroke="black" points="1014.56,-84.8 1011.56,-88.8 990.56,-88.8 987.56,-84.8 757.44,-84.8 757.44,-48.8 1014.56,-48.8 1014.56,-84.8"/>
<text text-anchor="middle" x="886" y="-62.6" font-family="Times,serif" font-size="14.00">JNetworkBootstrap4MultilanguageModule</text>
</g>
<!-- JNetworkBootstrap4MultilanguageModule&#45;&gt;MultilanguageModule -->
<g id="edge4" class="edge">
<title>JNetworkBootstrap4MultilanguageModule&#45;&gt;MultilanguageModule</title>
<path fill="none" stroke="black" d="M784.03,-84.91C784.03,-84.91 784.03,-103.79 784.03,-103.79"/>
<polygon fill="black" stroke="black" points="780.53,-103.79 784.03,-113.79 787.53,-103.79 780.53,-103.79"/>
</g>
<!-- JNetworkBootstrap4ValidationSummaryModule -->
<g id="node6" class="node">
<title>JNetworkBootstrap4ValidationSummaryModule</title>
<polygon fill="#8dd3c7" stroke="black" points="739.45,-84.8 736.45,-88.8 715.45,-88.8 712.45,-84.8 450.55,-84.8 450.55,-48.8 739.45,-48.8 739.45,-84.8"/>
<text text-anchor="middle" x="595" y="-62.6" font-family="Times,serif" font-size="14.00">JNetworkBootstrap4ValidationSummaryModule</text>
</g>
<!-- JNetworkBootstrap4ValidationSummaryModule&#45;&gt;MultilanguageModule -->
<g id="edge5" class="edge">
<title>JNetworkBootstrap4ValidationSummaryModule&#45;&gt;MultilanguageModule</title>
<path fill="none" stroke="black" d="M704.44,-84.91C704.44,-84.91 704.44,-103.79 704.44,-103.79"/>
<polygon fill="black" stroke="black" points="700.94,-103.79 704.44,-113.79 707.94,-103.79 700.94,-103.79"/>
</g>
<!-- MultilanguageRoutingModule -->
<g id="node7" class="node">
<title>MultilanguageRoutingModule</title>
<polygon fill="#8dd3c7" stroke="black" points="432.32,-84.8 429.32,-88.8 408.32,-88.8 405.32,-84.8 245.68,-84.8 245.68,-48.8 432.32,-48.8 432.32,-84.8"/>
<text text-anchor="middle" x="339" y="-62.6" font-family="Times,serif" font-size="14.00">MultilanguageRoutingModule</text>
</g>
<!-- MultilanguageRoutingModule&#45;&gt;MultilanguageModule -->
<g id="edge6" class="edge">
<title>MultilanguageRoutingModule&#45;&gt;MultilanguageModule</title>
<path fill="none" stroke="black" d="M339,-84.82C339,-102.17 339,-125.8 339,-125.8 339,-125.8 659.23,-125.8 659.23,-125.8"/>
<polygon fill="black" stroke="black" points="659.23,-129.3 669.23,-125.8 659.23,-122.3 659.23,-129.3"/>
</g>
</g>
</svg>
