<?xml version="1.0" encoding="UTF-8" standalone="no"?>
<!DOCTYPE svg PUBLIC "-//W3C//DTD SVG 1.1//EN"
 "http://www.w3.org/Graphics/SVG/1.1/DTD/svg11.dtd">
<!-- Generated by graphviz version 2.40.1 (20161225.0304)
 -->
<!-- Title: dependencies Pages: 1 -->
<svg width="1438pt" height="349pt"
 viewBox="0.00 0.00 1438.00 349.00" xmlns="http://www.w3.org/2000/svg" xmlns:xlink="http://www.w3.org/1999/xlink">
<g id="graph0" class="graph" transform="scale(1 1) rotate(0) translate(4 345)">
<title>dependencies</title>
<polygon fill="#ffffff" stroke="transparent" points="-4,4 -4,-345 1434,-345 1434,4 -4,4"/>
<text text-anchor="start" x="694.0091" y="-42.4" font-family="sans-serif" font-weight="bold" font-size="14.00" fill="#000000">Legend</text>
<polygon fill="#ffffb3" stroke="transparent" points="481,-10 481,-30 501,-30 501,-10 481,-10"/>
<text text-anchor="start" x="504.629" y="-15.4" font-family="sans-serif" font-size="14.00" fill="#000000"> &#160;Declarations</text>
<polygon fill="#8dd3c7" stroke="transparent" points="594,-10 594,-30 614,-30 614,-10 594,-10"/>
<text text-anchor="start" x="617.7251" y="-15.4" font-family="sans-serif" font-size="14.00" fill="#000000"> &#160;Module</text>
<polygon fill="#80b1d3" stroke="transparent" points="680,-10 680,-30 700,-30 700,-10 680,-10"/>
<text text-anchor="start" x="703.7812" y="-15.4" font-family="sans-serif" font-size="14.00" fill="#000000"> &#160;Bootstrap</text>
<polygon fill="#fdb462" stroke="transparent" points="777,-10 777,-30 797,-30 797,-10 777,-10"/>
<text text-anchor="start" x="800.6732" y="-15.4" font-family="sans-serif" font-size="14.00" fill="#000000"> &#160;Providers</text>
<polygon fill="#fb8072" stroke="transparent" points="873,-10 873,-30 893,-30 893,-10 873,-10"/>
<text text-anchor="start" x="896.7258" y="-15.4" font-family="sans-serif" font-size="14.00" fill="#000000"> &#160;Exports</text>
<g id="clust1" class="cluster">
<title>cluster_jNetworkBootstrap3CheckboxModule</title>
<polygon fill="none" stroke="#000000" stroke-dasharray="1,5" points="8,-70 8,-333 1422,-333 1422,-70 8,-70"/>
</g>
<g id="clust2" class="cluster">
<title>cluster_jNetworkBootstrap3CheckboxModule_declarations</title>
<polygon fill="none" stroke="#000000" points="440,-143 440,-195 792,-195 792,-143 440,-143"/>
</g>
<g id="clust3" class="cluster">
<title>cluster_jNetworkBootstrap3CheckboxModule_NgCheckbox_providers</title>
<polygon fill="none" stroke="#000000" points="16,-78 16,-130 1414,-130 1414,-78 16,-78"/>
</g>
<g id="clust7" class="cluster">
<title>cluster_jNetworkBootstrap3CheckboxModule_exports</title>
<polygon fill="none" stroke="#000000" points="434,-273 434,-325 798,-325 798,-273 434,-273"/>
</g>
<!-- NgCheckbox -->
<g id="node1" class="node">
<title>NgCheckbox</title>
<polygon fill="#ffffb3" stroke="#000000" points="783.8725,-187 694.1275,-187 694.1275,-151 783.8725,-151 783.8725,-187"/>
<text text-anchor="middle" x="739" y="-164.8" font-family="Times,serif" font-size="14.00" fill="#000000">NgCheckbox</text>
</g>
<!-- jNetworkBootstrap3CheckboxModule -->
<g id="node4" class="node">
<title>jNetworkBootstrap3CheckboxModule</title>
<polygon fill="#8dd3c7" stroke="#000000" points="740.1231,-252 737.1231,-256 716.1231,-256 713.1231,-252 509.8769,-252 509.8769,-216 740.1231,-216 740.1231,-252"/>
<text text-anchor="middle" x="625" y="-229.8" font-family="Times,serif" font-size="14.00" fill="#000000">jNetworkBootstrap3CheckboxModule</text>
</g>
<!-- NgCheckbox&#45;&gt;jNetworkBootstrap3CheckboxModule -->
<g id="edge1" class="edge">
<title>NgCheckbox&#45;&gt;jNetworkBootstrap3CheckboxModule</title>
<path fill="none" stroke="#000000" d="M717.1876,-187.1061C717.1876,-187.1061 717.1876,-205.991 717.1876,-205.991"/>
<polygon fill="#000000" stroke="#000000" points="713.6877,-205.9909 717.1876,-215.991 720.6877,-205.991 713.6877,-205.9909"/>
</g>
<!-- NgRadiobutton -->
<g id="node2" class="node">
<title>NgRadiobutton</title>
<polygon fill="#ffffb3" stroke="#000000" points="676.3301,-187 573.6699,-187 573.6699,-151 676.3301,-151 676.3301,-187"/>
<text text-anchor="middle" x="625" y="-164.8" font-family="Times,serif" font-size="14.00" fill="#000000">NgRadiobutton</text>
</g>
<!-- NgRadiobutton&#45;&gt;jNetworkBootstrap3CheckboxModule -->
<g id="edge4" class="edge">
<title>NgRadiobutton&#45;&gt;jNetworkBootstrap3CheckboxModule</title>
<path fill="none" stroke="#000000" d="M625,-187.1061C625,-187.1061 625,-205.991 625,-205.991"/>
<polygon fill="#000000" stroke="#000000" points="621.5001,-205.9909 625,-215.991 628.5001,-205.991 621.5001,-205.9909"/>
</g>
<!-- NgRadiobuttons -->
<g id="node3" class="node">
<title>NgRadiobuttons</title>
<polygon fill="#ffffb3" stroke="#000000" points="555.7744,-187 448.2256,-187 448.2256,-151 555.7744,-151 555.7744,-187"/>
<text text-anchor="middle" x="502" y="-164.8" font-family="Times,serif" font-size="14.00" fill="#000000">NgRadiobuttons</text>
</g>
<!-- NgRadiobuttons&#45;&gt;jNetworkBootstrap3CheckboxModule -->
<g id="edge5" class="edge">
<title>NgRadiobuttons&#45;&gt;jNetworkBootstrap3CheckboxModule</title>
<path fill="none" stroke="#000000" d="M532.7878,-187.1061C532.7878,-187.1061 532.7878,-205.991 532.7878,-205.991"/>
<polygon fill="#000000" stroke="#000000" points="529.2879,-205.9909 532.7878,-215.991 536.2879,-205.991 529.2879,-205.9909"/>
</g>
<!-- NgCheckbox  -->
<g id="node7" class="node">
<title>NgCheckbox </title>
<polygon fill="#fb8072" stroke="#000000" points="789.8731,-317 696.1269,-317 696.1269,-281 789.8731,-281 789.8731,-317"/>
<text text-anchor="middle" x="743" y="-294.8" font-family="Times,serif" font-size="14.00" fill="#000000">NgCheckbox </text>
</g>
<!-- jNetworkBootstrap3CheckboxModule&#45;&gt;NgCheckbox  -->
<g id="edge6" class="edge">
<title>jNetworkBootstrap3CheckboxModule&#45;&gt;NgCheckbox </title>
<path fill="none" stroke="#000000" stroke-dasharray="5,2" d="M718.3126,-252.1061C718.3126,-252.1061 718.3126,-270.991 718.3126,-270.991"/>
<polygon fill="#000000" stroke="#000000" points="714.8127,-270.9909 718.3126,-280.991 721.8127,-270.991 714.8127,-270.9909"/>
</g>
<!-- NgRadiobutton  -->
<g id="node8" class="node">
<title>NgRadiobutton </title>
<polygon fill="#fb8072" stroke="#000000" points="677.8297,-317 572.1703,-317 572.1703,-281 677.8297,-281 677.8297,-317"/>
<text text-anchor="middle" x="625" y="-294.8" font-family="Times,serif" font-size="14.00" fill="#000000">NgRadiobutton </text>
</g>
<!-- jNetworkBootstrap3CheckboxModule&#45;&gt;NgRadiobutton  -->
<g id="edge7" class="edge">
<title>jNetworkBootstrap3CheckboxModule&#45;&gt;NgRadiobutton </title>
<path fill="none" stroke="#000000" stroke-dasharray="5,2" d="M625,-252.1061C625,-252.1061 625,-270.991 625,-270.991"/>
<polygon fill="#000000" stroke="#000000" points="621.5001,-270.9909 625,-280.991 628.5001,-270.991 621.5001,-270.9909"/>
</g>
<!-- NgRadiobuttons  -->
<g id="node9" class="node">
<title>NgRadiobuttons </title>
<polygon fill="#fb8072" stroke="#000000" points="553.7745,-317 442.2255,-317 442.2255,-281 553.7745,-281 553.7745,-317"/>
<text text-anchor="middle" x="498" y="-294.8" font-family="Times,serif" font-size="14.00" fill="#000000">NgRadiobuttons </text>
</g>
<!-- jNetworkBootstrap3CheckboxModule&#45;&gt;NgRadiobuttons  -->
<g id="edge8" class="edge">
<title>jNetworkBootstrap3CheckboxModule&#45;&gt;NgRadiobuttons </title>
<path fill="none" stroke="#000000" stroke-dasharray="5,2" d="M531.6628,-252.1061C531.6628,-252.1061 531.6628,-270.991 531.6628,-270.991"/>
<polygon fill="#000000" stroke="#000000" points="528.1629,-270.9909 531.6628,-280.991 535.1629,-270.991 528.1629,-270.9909"/>
</g>
<!-- { provide: NG_VALUE_ACCESSOR, multi: true, useExisting: NgCheckbox } -->
<g id="node5" class="node">
<title>{ provide: NG_VALUE_ACCESSOR, multi: true, useExisting: NgCheckbox }</title>
<ellipse fill="#fdb462" stroke="#000000" cx="1089" cy="-104" rx="317.4374" ry="18"/>
<text text-anchor="middle" x="1089" y="-99.8" font-family="Times,serif" font-size="14.00" fill="#000000">{ provide: NG_VALUE_ACCESSOR, multi: true, useExisting: NgCheckbox }</text>
</g>
<!-- { provide: NG_VALUE_ACCESSOR, multi: true, useExisting: NgCheckbox }&#45;&gt;NgCheckbox -->
<g id="edge2" class="edge">
<title>{ provide: NG_VALUE_ACCESSOR, multi: true, useExisting: NgCheckbox }&#45;&gt;NgCheckbox</title>
<path fill="none" stroke="#000000" d="M777.8588,-107.8714C777.8588,-107.8714 777.8588,-140.7507 777.8588,-140.7507"/>
<polygon fill="#000000" stroke="#000000" points="774.3589,-140.7506 777.8588,-150.7507 781.3589,-140.7507 774.3589,-140.7506"/>
</g>
<!-- { provide: NG_VALIDATORS, useExisting: forwardRef(() =&gt; NgCheckbox), multi: true } -->
<g id="node6" class="node">
<title>{ provide: NG_VALIDATORS, useExisting: forwardRef(() =&gt; NgCheckbox), multi: true }</title>
<ellipse fill="#fdb462" stroke="#000000" cx="389" cy="-104" rx="364.5734" ry="18"/>
<text text-anchor="middle" x="389" y="-99.8" font-family="Times,serif" font-size="14.00" fill="#000000">{ provide: NG_VALIDATORS, useExisting: forwardRef(() =&gt; NgCheckbox), multi: true }</text>
</g>
<!-- { provide: NG_VALIDATORS, useExisting: forwardRef(() =&gt; NgCheckbox), multi: true }&#45;&gt;NgCheckbox -->
<g id="edge3" class="edge">
<title>{ provide: NG_VALIDATORS, useExisting: forwardRef(() =&gt; NgCheckbox), multi: true }&#45;&gt;NgCheckbox</title>
<path fill="none" stroke="#000000" d="M723.8002,-111.2045C723.8002,-111.2045 723.8002,-140.9586 723.8002,-140.9586"/>
<polygon fill="#000000" stroke="#000000" points="720.3003,-140.9586 723.8002,-150.9586 727.3003,-140.9587 720.3003,-140.9586"/>
</g>
</g>
</svg>
