<?xml version="1.0" encoding="UTF-8" standalone="no"?>
<!DOCTYPE svg PUBLIC "-//W3C//DTD SVG 1.1//EN"
 "http://www.w3.org/Graphics/SVG/1.1/DTD/svg11.dtd">
<!-- Generated by graphviz version 2.47.3 (20210619.1520)
 -->
<!-- Title: dependencies Pages: 1 -->
<svg width="950pt" height="312pt"
 viewBox="0.00 0.00 950.00 311.80" xmlns="http://www.w3.org/2000/svg" xmlns:xlink="http://www.w3.org/1999/xlink">
<g id="graph0" class="graph" transform="scale(1 1) rotate(0) translate(4 307.8)">
<title>dependencies</title>
<polygon fill="white" stroke="transparent" points="-4,4 -4,-307.8 946,-307.8 946,4 -4,4"/>
<text text-anchor="middle" x="471" y="-8.2" font-family="sans-serif" font-size="14.00">dependencies</text>
<g id="clust1" class="cluster">
<title>cluster_JNetworkBootstrap3WizardModule</title>
<polygon fill="none" stroke="black" stroke-dasharray="1,5" points="8,-32.8 8,-295.8 934,-295.8 934,-32.8 8,-32.8"/>
</g>
<g id="clust3" class="cluster">
<title>cluster_JNetworkBootstrap3WizardModule_NgWizardComponent_providers</title>
<polygon fill="none" stroke="black" points="206,-40.8 206,-157.8 926,-157.8 926,-40.8 206,-40.8"/>
</g>
<g id="clust2" class="cluster">
<title>cluster_JNetworkBootstrap3WizardModule_declarations</title>
<polygon fill="none" stroke="black" points="16,-105.8 16,-157.8 198,-157.8 198,-105.8 16,-105.8"/>
</g>
<g id="clust6" class="cluster">
<title>cluster_JNetworkBootstrap3WizardModule_exports</title>
<polygon fill="none" stroke="black" points="63,-235.8 63,-287.8 409,-287.8 409,-235.8 63,-235.8"/>
</g>
<!-- NgWizardComponent -->
<g id="node1" class="node">
<title>NgWizardComponent</title>
<polygon fill="#ffffb3" stroke="black" points="494.63,-149.8 355.37,-149.8 355.37,-113.8 494.63,-113.8 494.63,-149.8"/>
<text text-anchor="middle" x="425" y="-127.6" font-family="Times,serif" font-size="14.00">NgWizardComponent</text>
</g>
<!-- JNetworkBootstrap3WizardModule -->
<g id="node3" class="node">
<title>JNetworkBootstrap3WizardModule</title>
<polygon fill="#8dd3c7" stroke="black" points="311.11,-214.8 308.11,-218.8 287.11,-218.8 284.11,-214.8 94.89,-214.8 94.89,-178.8 311.11,-178.8 311.11,-214.8"/>
<text text-anchor="middle" x="203" y="-192.6" font-family="Times,serif" font-size="14.00">JNetworkBootstrap3WizardModule</text>
</g>
<!-- NgWizardComponent&#45;&gt;JNetworkBootstrap3WizardModule -->
<g id="edge1" class="edge">
<title>NgWizardComponent&#45;&gt;JNetworkBootstrap3WizardModule</title>
<path fill="none" stroke="black" d="M377.88,-149.91C377.88,-169.14 377.88,-196.8 377.88,-196.8 377.88,-196.8 321.26,-196.8 321.26,-196.8"/>
<polygon fill="black" stroke="black" points="321.26,-193.3 311.26,-196.8 321.26,-200.3 321.26,-193.3"/>
</g>
<!-- NgWizardItemComponent -->
<g id="node2" class="node">
<title>NgWizardItemComponent</title>
<polygon fill="#ffffb3" stroke="black" points="189.79,-149.8 24.21,-149.8 24.21,-113.8 189.79,-113.8 189.79,-149.8"/>
<text text-anchor="middle" x="107" y="-127.6" font-family="Times,serif" font-size="14.00">NgWizardItemComponent</text>
</g>
<!-- NgWizardItemComponent&#45;&gt;JNetworkBootstrap3WizardModule -->
<g id="edge3" class="edge">
<title>NgWizardItemComponent&#45;&gt;JNetworkBootstrap3WizardModule</title>
<path fill="none" stroke="black" d="M142.17,-149.91C142.17,-149.91 142.17,-168.79 142.17,-168.79"/>
<polygon fill="black" stroke="black" points="138.67,-168.79 142.17,-178.79 145.67,-168.79 138.67,-168.79"/>
</g>
<!-- NgWizardComponent  -->
<g id="node5" class="node">
<title>NgWizardComponent </title>
<polygon fill="#fb8072" stroke="black" points="400.63,-279.8 257.37,-279.8 257.37,-243.8 400.63,-243.8 400.63,-279.8"/>
<text text-anchor="middle" x="329" y="-257.6" font-family="Times,serif" font-size="14.00">NgWizardComponent </text>
</g>
<!-- JNetworkBootstrap3WizardModule&#45;&gt;NgWizardComponent  -->
<g id="edge4" class="edge">
<title>JNetworkBootstrap3WizardModule&#45;&gt;NgWizardComponent </title>
<path fill="none" stroke="black" stroke-dasharray="5,2" d="M284.37,-214.91C284.37,-214.91 284.37,-233.79 284.37,-233.79"/>
<polygon fill="black" stroke="black" points="280.87,-233.79 284.37,-243.79 287.87,-233.79 280.87,-233.79"/>
</g>
<!-- NgWizardItemComponent  -->
<g id="node6" class="node">
<title>NgWizardItemComponent </title>
<polygon fill="#fb8072" stroke="black" points="239.29,-279.8 70.71,-279.8 70.71,-243.8 239.29,-243.8 239.29,-279.8"/>
<text text-anchor="middle" x="155" y="-257.6" font-family="Times,serif" font-size="14.00">NgWizardItemComponent </text>
</g>
<!-- JNetworkBootstrap3WizardModule&#45;&gt;NgWizardItemComponent  -->
<g id="edge5" class="edge">
<title>JNetworkBootstrap3WizardModule&#45;&gt;NgWizardItemComponent </title>
<path fill="none" stroke="black" stroke-dasharray="5,2" d="M167.05,-214.91C167.05,-214.91 167.05,-233.79 167.05,-233.79"/>
<polygon fill="black" stroke="black" points="163.55,-233.79 167.05,-243.79 170.55,-233.79 163.55,-233.79"/>
</g>
<!-- { provide: NG_VALUE_ACCESSOR, multi: true, useExisting: NgWizardComponent } -->
<g id="node4" class="node">
<title>{ provide: NG_VALUE_ACCESSOR, multi: true, useExisting: NgWizardComponent }</title>
<ellipse fill="#fdb462" stroke="black" cx="566" cy="-66.8" rx="351.59" ry="18"/>
<text text-anchor="middle" x="566" y="-62.6" font-family="Times,serif" font-size="14.00">{ provide: NG_VALUE_ACCESSOR, multi: true, useExisting: NgWizardComponent }</text>
</g>
<!-- { provide: NG_VALUE_ACCESSOR, multi: true, useExisting: NgWizardComponent }&#45;&gt;NgWizardComponent -->
<g id="edge2" class="edge">
<title>{ provide: NG_VALUE_ACCESSOR, multi: true, useExisting: NgWizardComponent }&#45;&gt;NgWizardComponent</title>
<path fill="none" stroke="black" d="M425,-83.54C425,-83.54 425,-103.52 425,-103.52"/>
<polygon fill="black" stroke="black" points="421.5,-103.52 425,-113.52 428.5,-103.52 421.5,-103.52"/>
</g>
</g>
</svg>
