<?xml version="1.0" encoding="UTF-8" standalone="no"?>
<!DOCTYPE svg PUBLIC "-//W3C//DTD SVG 1.1//EN"
 "http://www.w3.org/Graphics/SVG/1.1/DTD/svg11.dtd">
<!-- Generated by graphviz version 2.47.0 (20210316.0004)
 -->
<!-- Title: dependencies Pages: 1 -->
<svg width="504pt" height="284pt"
 viewBox="0.00 0.00 504.00 284.00" xmlns="http://www.w3.org/2000/svg" xmlns:xlink="http://www.w3.org/1999/xlink">
<g id="graph0" class="graph" transform="scale(1 1) rotate(0) translate(4 280)">
<title>dependencies</title>
<polygon fill="white" stroke="transparent" points="-4,4 -4,-280 500,-280 500,4 -4,4"/>
<text text-anchor="start" x="227.01" y="-42.4" font-family="Times-12" font-weight="bold" font-size="14.00">Legend</text>
<polygon fill="#ffffb3" stroke="transparent" points="14,-10 14,-30 34,-30 34,-10 14,-10"/>
<text text-anchor="start" x="37.63" y="-15.4" font-family="Times-12" font-size="14.00"> &#160;Declarations</text>
<polygon fill="#8dd3c7" stroke="transparent" points="127,-10 127,-30 147,-30 147,-10 127,-10"/>
<text text-anchor="start" x="150.73" y="-15.4" font-family="Times-12" font-size="14.00"> &#160;Module</text>
<polygon fill="#80b1d3" stroke="transparent" points="213,-10 213,-30 233,-30 233,-10 213,-10"/>
<text text-anchor="start" x="236.78" y="-15.4" font-family="Times-12" font-size="14.00"> &#160;Bootstrap</text>
<polygon fill="#fdb462" stroke="transparent" points="310,-10 310,-30 330,-30 330,-10 310,-10"/>
<text text-anchor="start" x="333.67" y="-15.4" font-family="Times-12" font-size="14.00"> &#160;Providers</text>
<polygon fill="#fb8072" stroke="transparent" points="406,-10 406,-30 426,-30 426,-10 406,-10"/>
<text text-anchor="start" x="429.73" y="-15.4" font-family="Times-12" font-size="14.00"> &#160;Exports</text>
<g id="clust1" class="cluster">
<title>cluster_JNetworkBootstrap3WizardModule</title>
<polygon fill="none" stroke="black" stroke-dasharray="1,5" points="67,-70 67,-268 429,-268 429,-70 67,-70"/>
</g>
<g id="clust2" class="cluster">
<title>cluster_JNetworkBootstrap3WizardModule_declarations</title>
<polygon fill="none" stroke="black" points="78,-78 78,-130 417,-130 417,-78 78,-78"/>
</g>
<g id="clust6" class="cluster">
<title>cluster_JNetworkBootstrap3WizardModule_exports</title>
<polygon fill="none" stroke="black" points="75,-208 75,-260 421,-260 421,-208 75,-208"/>
</g>
<!-- NgWizardComponent -->
<g id="node1" class="node">
<title>NgWizardComponent</title>
<polygon fill="#ffffb3" stroke="black" points="408.63,-122 269.37,-122 269.37,-86 408.63,-86 408.63,-122"/>
<text text-anchor="middle" x="339" y="-99.8" font-family="Times,serif" font-size="14.00">NgWizardComponent</text>
</g>
<!-- JNetworkBootstrap3WizardModule -->
<g id="node3" class="node">
<title>JNetworkBootstrap3WizardModule</title>
<polygon fill="#8dd3c7" stroke="black" points="356.11,-187 353.11,-191 332.11,-191 329.11,-187 139.89,-187 139.89,-151 356.11,-151 356.11,-187"/>
<text text-anchor="middle" x="248" y="-164.8" font-family="Times,serif" font-size="14.00">JNetworkBootstrap3WizardModule</text>
</g>
<!-- NgWizardComponent&#45;&gt;JNetworkBootstrap3WizardModule -->
<g id="edge1" class="edge">
<title>NgWizardComponent&#45;&gt;JNetworkBootstrap3WizardModule</title>
<path fill="none" stroke="black" d="M312.74,-122.11C312.74,-122.11 312.74,-140.99 312.74,-140.99"/>
<polygon fill="black" stroke="black" points="309.24,-140.99 312.74,-150.99 316.24,-140.99 309.24,-140.99"/>
</g>
<!-- NgWizardItemComponent -->
<g id="node2" class="node">
<title>NgWizardItemComponent</title>
<polygon fill="#ffffb3" stroke="black" points="251.79,-122 86.21,-122 86.21,-86 251.79,-86 251.79,-122"/>
<text text-anchor="middle" x="169" y="-99.8" font-family="Times,serif" font-size="14.00">NgWizardItemComponent</text>
</g>
<!-- NgWizardItemComponent&#45;&gt;JNetworkBootstrap3WizardModule -->
<g id="edge2" class="edge">
<title>NgWizardItemComponent&#45;&gt;JNetworkBootstrap3WizardModule</title>
<path fill="none" stroke="black" d="M195.67,-122.11C195.67,-122.11 195.67,-140.99 195.67,-140.99"/>
<polygon fill="black" stroke="black" points="192.17,-140.99 195.67,-150.99 199.17,-140.99 192.17,-140.99"/>
</g>
<!-- NgWizardComponent  -->
<g id="node4" class="node">
<title>NgWizardComponent </title>
<polygon fill="#fb8072" stroke="black" points="412.63,-252 269.37,-252 269.37,-216 412.63,-216 412.63,-252"/>
<text text-anchor="middle" x="341" y="-229.8" font-family="Times,serif" font-size="14.00">NgWizardComponent </text>
</g>
<!-- JNetworkBootstrap3WizardModule&#45;&gt;NgWizardComponent  -->
<g id="edge3" class="edge">
<title>JNetworkBootstrap3WizardModule&#45;&gt;NgWizardComponent </title>
<path fill="none" stroke="black" stroke-dasharray="5,2" d="M312.87,-187.11C312.87,-187.11 312.87,-205.99 312.87,-205.99"/>
<polygon fill="black" stroke="black" points="309.37,-205.99 312.87,-215.99 316.37,-205.99 309.37,-205.99"/>
</g>
<!-- NgWizardItemComponent  -->
<g id="node5" class="node">
<title>NgWizardItemComponent </title>
<polygon fill="#fb8072" stroke="black" points="251.29,-252 82.71,-252 82.71,-216 251.29,-216 251.29,-252"/>
<text text-anchor="middle" x="167" y="-229.8" font-family="Times,serif" font-size="14.00">NgWizardItemComponent </text>
</g>
<!-- JNetworkBootstrap3WizardModule&#45;&gt;NgWizardItemComponent  -->
<g id="edge4" class="edge">
<title>JNetworkBootstrap3WizardModule&#45;&gt;NgWizardItemComponent </title>
<path fill="none" stroke="black" stroke-dasharray="5,2" d="M195.55,-187.11C195.55,-187.11 195.55,-205.99 195.55,-205.99"/>
<polygon fill="black" stroke="black" points="192.05,-205.99 195.55,-215.99 199.05,-205.99 192.05,-205.99"/>
</g>
</g>
</svg>
