<?xml version="1.0" encoding="UTF-8" standalone="no"?>
<!DOCTYPE svg PUBLIC "-//W3C//DTD SVG 1.1//EN"
 "http://www.w3.org/Graphics/SVG/1.1/DTD/svg11.dtd">
<!-- Generated by graphviz version 2.47.0 (20210316.0004)
 -->
<!-- Title: dependencies Pages: 1 -->
<svg width="504pt" height="284pt"
 viewBox="0.00 0.00 504.00 284.00" xmlns="http://www.w3.org/2000/svg" xmlns:xlink="http://www.w3.org/1999/xlink">
<g id="graph0" class="graph" transform="scale(1 1) rotate(0) translate(4 280)">
<title>dependencies</title>
<polygon fill="white" stroke="transparent" points="-4,4 -4,-280 500,-280 500,4 -4,4"/>
<text text-anchor="start" x="227.01" y="-42.4" font-family="Times-12" font-weight="bold" font-size="14.00">Legend</text>
<polygon fill="#ffffb3" stroke="transparent" points="14,-10 14,-30 34,-30 34,-10 14,-10"/>
<text text-anchor="start" x="37.63" y="-15.4" font-family="Times-12" font-size="14.00"> &#160;Declarations</text>
<polygon fill="#8dd3c7" stroke="transparent" points="127,-10 127,-30 147,-30 147,-10 127,-10"/>
<text text-anchor="start" x="150.73" y="-15.4" font-family="Times-12" font-size="14.00"> &#160;Module</text>
<polygon fill="#80b1d3" stroke="transparent" points="213,-10 213,-30 233,-30 233,-10 213,-10"/>
<text text-anchor="start" x="236.78" y="-15.4" font-family="Times-12" font-size="14.00"> &#160;Bootstrap</text>
<polygon fill="#fdb462" stroke="transparent" points="310,-10 310,-30 330,-30 330,-10 310,-10"/>
<text text-anchor="start" x="333.67" y="-15.4" font-family="Times-12" font-size="14.00"> &#160;Providers</text>
<polygon fill="#fb8072" stroke="transparent" points="406,-10 406,-30 426,-30 426,-10 406,-10"/>
<text text-anchor="start" x="429.73" y="-15.4" font-family="Times-12" font-size="14.00"> &#160;Exports</text>
<g id="clust1" class="cluster">
<title>cluster_SACBootstrap4ListModule</title>
<polygon fill="none" stroke="black" stroke-dasharray="1,5" points="62,-70 62,-268 434,-268 434,-70 62,-70"/>
</g>
<g id="clust2" class="cluster">
<title>cluster_SACBootstrap4ListModule_declarations</title>
<polygon fill="none" stroke="black" points="74,-78 74,-130 422,-130 422,-78 74,-78"/>
</g>
<g id="clust6" class="cluster">
<title>cluster_SACBootstrap4ListModule_exports</title>
<polygon fill="none" stroke="black" points="70,-208 70,-260 426,-260 426,-208 70,-208"/>
</g>
<!-- SacListboxComponent -->
<g id="node1" class="node">
<title>SacListboxComponent</title>
<polygon fill="#ffffb3" stroke="black" points="414.32,-122 269.68,-122 269.68,-86 414.32,-86 414.32,-122"/>
<text text-anchor="middle" x="342" y="-99.8" font-family="Times,serif" font-size="14.00">SacListboxComponent</text>
</g>
<!-- SACBootstrap4ListModule -->
<g id="node3" class="node">
<title>SACBootstrap4ListModule</title>
<polygon fill="#8dd3c7" stroke="black" points="252.99,-187 249.99,-191 228.99,-191 225.99,-187 83.01,-187 83.01,-151 252.99,-151 252.99,-187"/>
<text text-anchor="middle" x="168" y="-164.8" font-family="Times,serif" font-size="14.00">SACBootstrap4ListModule</text>
</g>
<!-- SacListboxComponent&#45;&gt;SACBootstrap4ListModule -->
<g id="edge1" class="edge">
<title>SacListboxComponent&#45;&gt;SACBootstrap4ListModule</title>
<path fill="none" stroke="black" d="M366.14,-122.02C366.14,-139.37 366.14,-163 366.14,-163 366.14,-163 263.18,-163 263.18,-163"/>
<polygon fill="black" stroke="black" points="263.18,-159.5 253.18,-163 263.18,-166.5 263.18,-159.5"/>
</g>
<!-- SacListboxOptionDirective -->
<g id="node2" class="node">
<title>SacListboxOptionDirective</title>
<polygon fill="#ffffb3" stroke="black" points="251.96,-122 82.04,-122 82.04,-86 251.96,-86 251.96,-122"/>
<text text-anchor="middle" x="167" y="-99.8" font-family="Times,serif" font-size="14.00">SacListboxOptionDirective</text>
</g>
<!-- SacListboxOptionDirective&#45;&gt;SACBootstrap4ListModule -->
<g id="edge2" class="edge">
<title>SacListboxOptionDirective&#45;&gt;SACBootstrap4ListModule</title>
<path fill="none" stroke="black" d="M167.49,-122.11C167.49,-122.11 167.49,-140.99 167.49,-140.99"/>
<polygon fill="black" stroke="black" points="163.99,-140.99 167.49,-150.99 170.99,-140.99 163.99,-140.99"/>
</g>
<!-- SacListboxComponent  -->
<g id="node4" class="node">
<title>SacListboxComponent </title>
<polygon fill="#fb8072" stroke="black" points="417.82,-252 270.18,-252 270.18,-216 417.82,-216 417.82,-252"/>
<text text-anchor="middle" x="344" y="-229.8" font-family="Times,serif" font-size="14.00">SacListboxComponent </text>
</g>
<!-- SACBootstrap4ListModule&#45;&gt;SacListboxComponent  -->
<g id="edge3" class="edge">
<title>SACBootstrap4ListModule&#45;&gt;SacListboxComponent </title>
<path fill="none" stroke="black" stroke-dasharray="5,2" d="M253.14,-175C287.03,-175 318.11,-175 318.11,-175 318.11,-175 318.11,-205.98 318.11,-205.98"/>
<polygon fill="black" stroke="black" points="314.61,-205.98 318.11,-215.98 321.61,-205.98 314.61,-205.98"/>
</g>
<!-- SacListboxOptionDirective  -->
<g id="node5" class="node">
<title>SacListboxOptionDirective </title>
<polygon fill="#fb8072" stroke="black" points="251.96,-252 78.04,-252 78.04,-216 251.96,-216 251.96,-252"/>
<text text-anchor="middle" x="165" y="-229.8" font-family="Times,serif" font-size="14.00">SacListboxOptionDirective </text>
</g>
<!-- SACBootstrap4ListModule&#45;&gt;SacListboxOptionDirective  -->
<g id="edge4" class="edge">
<title>SACBootstrap4ListModule&#45;&gt;SacListboxOptionDirective </title>
<path fill="none" stroke="black" stroke-dasharray="5,2" d="M167.37,-187.11C167.37,-187.11 167.37,-205.99 167.37,-205.99"/>
<polygon fill="black" stroke="black" points="163.87,-205.99 167.37,-215.99 170.87,-205.99 163.87,-205.99"/>
</g>
</g>
</svg>
