<?xml version="1.0" encoding="UTF-8" standalone="no"?>
<!DOCTYPE svg PUBLIC "-//W3C//DTD SVG 1.1//EN"
 "http://www.w3.org/Graphics/SVG/1.1/DTD/svg11.dtd">
<!-- Generated by graphviz version 2.47.3 (20210619.1520)
 -->
<!-- Title: dependencies Pages: 1 -->
<svg width="254pt" height="247pt"
 viewBox="0.00 0.00 254.00 246.80" xmlns="http://www.w3.org/2000/svg" xmlns:xlink="http://www.w3.org/1999/xlink">
<g id="graph0" class="graph" transform="scale(1 1) rotate(0) translate(4 242.8)">
<title>dependencies</title>
<polygon fill="white" stroke="transparent" points="-4,4 -4,-242.8 250,-242.8 250,4 -4,4"/>
<text text-anchor="middle" x="123" y="-8.2" font-family="sans-serif" font-size="14.00">dependencies</text>
<g id="clust1" class="cluster">
<title>cluster_JNetworkBootstrap4ButtonModule</title>
<polygon fill="none" stroke="black" stroke-dasharray="1,5" points="8,-32.8 8,-230.8 238,-230.8 238,-32.8 8,-32.8"/>
</g>
<g id="clust2" class="cluster">
<title>cluster_JNetworkBootstrap4ButtonModule_declarations</title>
<polygon fill="none" stroke="black" points="47,-40.8 47,-92.8 199,-92.8 199,-40.8 47,-40.8"/>
</g>
<g id="clust5" class="cluster">
<title>cluster_JNetworkBootstrap4ButtonModule_exports</title>
<polygon fill="none" stroke="black" points="45,-170.8 45,-222.8 201,-222.8 201,-170.8 45,-170.8"/>
</g>
<!-- NgButtonComponent -->
<g id="node1" class="node">
<title>NgButtonComponent</title>
<polygon fill="#ffffb3" stroke="black" points="191.06,-84.8 54.94,-84.8 54.94,-48.8 191.06,-48.8 191.06,-84.8"/>
<text text-anchor="middle" x="123" y="-62.6" font-family="Times,serif" font-size="14.00">NgButtonComponent</text>
</g>
<!-- JNetworkBootstrap4ButtonModule -->
<g id="node2" class="node">
<title>JNetworkBootstrap4ButtonModule</title>
<polygon fill="#8dd3c7" stroke="black" points="229.53,-149.8 226.53,-153.8 205.53,-153.8 202.53,-149.8 16.47,-149.8 16.47,-113.8 229.53,-113.8 229.53,-149.8"/>
<text text-anchor="middle" x="123" y="-127.6" font-family="Times,serif" font-size="14.00">JNetworkBootstrap4ButtonModule</text>
</g>
<!-- NgButtonComponent&#45;&gt;JNetworkBootstrap4ButtonModule -->
<g id="edge1" class="edge">
<title>NgButtonComponent&#45;&gt;JNetworkBootstrap4ButtonModule</title>
<path fill="none" stroke="black" d="M123,-84.91C123,-84.91 123,-103.79 123,-103.79"/>
<polygon fill="black" stroke="black" points="119.5,-103.79 123,-113.79 126.5,-103.79 119.5,-103.79"/>
</g>
<!-- NgButtonComponent  -->
<g id="node3" class="node">
<title>NgButtonComponent </title>
<polygon fill="#fb8072" stroke="black" points="193.06,-214.8 52.94,-214.8 52.94,-178.8 193.06,-178.8 193.06,-214.8"/>
<text text-anchor="middle" x="123" y="-192.6" font-family="Times,serif" font-size="14.00">NgButtonComponent </text>
</g>
<!-- JNetworkBootstrap4ButtonModule&#45;&gt;NgButtonComponent  -->
<g id="edge2" class="edge">
<title>JNetworkBootstrap4ButtonModule&#45;&gt;NgButtonComponent </title>
<path fill="none" stroke="black" stroke-dasharray="5,2" d="M123,-149.91C123,-149.91 123,-168.79 123,-168.79"/>
<polygon fill="black" stroke="black" points="119.5,-168.79 123,-178.79 126.5,-168.79 119.5,-168.79"/>
</g>
</g>
</svg>
