<?xml version="1.0" encoding="UTF-8" standalone="no"?>
<!DOCTYPE svg PUBLIC "-//W3C//DTD SVG 1.1//EN"
 "http://www.w3.org/Graphics/SVG/1.1/DTD/svg11.dtd">
<!-- Generated by graphviz version 2.46.0 (20210119.1425)
 -->
<!-- Title: dependencies Pages: 1 -->
<svg width="1603pt" height="276pt"
 viewBox="0.00 0.00 1603.00 276.00" xmlns="http://www.w3.org/2000/svg" xmlns:xlink="http://www.w3.org/1999/xlink">
<g id="graph0" class="graph" transform="scale(1 1) rotate(0) translate(4 272)">
<title>dependencies</title>
<polygon fill="white" stroke="transparent" points="-4,4 -4,-272 1599,-272 1599,4 -4,4"/>
<text text-anchor="start" x="776.51" y="-42.4" font-family="sans-serif" font-weight="bold" font-size="14.00">Legend</text>
<polygon fill="#ffffb3" stroke="transparent" points="563.5,-10 563.5,-30 583.5,-30 583.5,-10 563.5,-10"/>
<text text-anchor="start" x="587.13" y="-15.4" font-family="sans-serif" font-size="14.00"> &#160;Declarations</text>
<polygon fill="#8dd3c7" stroke="transparent" points="676.5,-10 676.5,-30 696.5,-30 696.5,-10 676.5,-10"/>
<text text-anchor="start" x="700.23" y="-15.4" font-family="sans-serif" font-size="14.00"> &#160;Module</text>
<polygon fill="#80b1d3" stroke="transparent" points="762.5,-10 762.5,-30 782.5,-30 782.5,-10 762.5,-10"/>
<text text-anchor="start" x="786.28" y="-15.4" font-family="sans-serif" font-size="14.00"> &#160;Bootstrap</text>
<polygon fill="#fdb462" stroke="transparent" points="859.5,-10 859.5,-30 879.5,-30 879.5,-10 859.5,-10"/>
<text text-anchor="start" x="883.17" y="-15.4" font-family="sans-serif" font-size="14.00"> &#160;Providers</text>
<polygon fill="#fb8072" stroke="transparent" points="955.5,-10 955.5,-30 975.5,-30 975.5,-10 955.5,-10"/>
<text text-anchor="start" x="979.23" y="-15.4" font-family="sans-serif" font-size="14.00"> &#160;Exports</text>
<g id="clust1" class="cluster">
<title>cluster_JNetworkBootstrap4TinyMceModule</title>
<polygon fill="none" stroke="black" stroke-dasharray="1,5" points="8,-70 8,-260 1587,-260 1587,-70 8,-70"/>
</g>
<g id="clust2" class="cluster">
<title>cluster_JNetworkBootstrap4TinyMceModule_declarations</title>
<polygon fill="none" stroke="black" points="738,-143 738,-195 904,-195 904,-143 738,-143"/>
</g>
<g id="clust3" class="cluster">
<title>cluster_JNetworkBootstrap4TinyMceModule_NgTinyMceComponent_providers</title>
<polygon fill="none" stroke="black" points="16,-78 16,-130 1579,-130 1579,-78 16,-78"/>
</g>
<g id="clust4" class="cluster">
<title>cluster_JNetworkBootstrap4TinyMceModule_imports</title>
<polygon fill="none" stroke="black" points="516,-143 516,-195 730,-195 730,-143 516,-143"/>
</g>
<!-- NgTinyMceComponent -->
<g id="node1" class="node">
<title>NgTinyMceComponent</title>
<polygon fill="#ffffb3" stroke="black" points="895.76,-187 746.24,-187 746.24,-151 895.76,-151 895.76,-187"/>
<text text-anchor="middle" x="821" y="-164.8" font-family="Times,serif" font-size="14.00">NgTinyMceComponent</text>
</g>
<!-- JNetworkBootstrap4TinyMceModule -->
<g id="node2" class="node">
<title>JNetworkBootstrap4TinyMceModule</title>
<polygon fill="#8dd3c7" stroke="black" points="835.23,-252 832.23,-256 811.23,-256 808.23,-252 608.77,-252 608.77,-216 835.23,-216 835.23,-252"/>
<text text-anchor="middle" x="722" y="-229.8" font-family="Times,serif" font-size="14.00">JNetworkBootstrap4TinyMceModule</text>
</g>
<!-- NgTinyMceComponent&#45;&gt;JNetworkBootstrap4TinyMceModule -->
<g id="edge1" class="edge">
<title>NgTinyMceComponent&#45;&gt;JNetworkBootstrap4TinyMceModule</title>
<path fill="none" stroke="black" d="M790.74,-187.11C790.74,-187.11 790.74,-205.99 790.74,-205.99"/>
<polygon fill="black" stroke="black" points="787.24,-205.99 790.74,-215.99 794.24,-205.99 787.24,-205.99"/>
</g>
<!-- { provide: NG_VALUE_ACCESSOR, multi: true, useExisting: NgTinyMceComponent } -->
<g id="node3" class="node">
<title>{ provide: NG_VALUE_ACCESSOR, multi: true, useExisting: NgTinyMceComponent }</title>
<ellipse fill="#fdb462" stroke="black" cx="1212" cy="-104" rx="358.55" ry="18"/>
<text text-anchor="middle" x="1212" y="-99.8" font-family="Times,serif" font-size="14.00">{ provide: NG_VALUE_ACCESSOR, multi: true, useExisting: NgTinyMceComponent }</text>
</g>
<!-- { provide: NG_VALUE_ACCESSOR, multi: true, useExisting: NgTinyMceComponent }&#45;&gt;NgTinyMceComponent -->
<g id="edge2" class="edge">
<title>{ provide: NG_VALUE_ACCESSOR, multi: true, useExisting: NgTinyMceComponent }&#45;&gt;NgTinyMceComponent</title>
<path fill="none" stroke="black" d="M874.68,-110.47C874.68,-110.47 874.68,-140.78 874.68,-140.78"/>
<polygon fill="black" stroke="black" points="871.18,-140.78 874.68,-150.78 878.18,-140.78 871.18,-140.78"/>
</g>
<!-- { provide: NG_VALIDATORS, useExisting: forwardRef(() =&gt; NgTinyMceComponent), multi: true } -->
<g id="node4" class="node">
<title>{ provide: NG_VALIDATORS, useExisting: forwardRef(() =&gt; NgTinyMceComponent), multi: true }</title>
<ellipse fill="#fdb462" stroke="black" cx="430" cy="-104" rx="405.69" ry="18"/>
<text text-anchor="middle" x="430" y="-99.8" font-family="Times,serif" font-size="14.00">{ provide: NG_VALIDATORS, useExisting: forwardRef(() =&gt; NgTinyMceComponent), multi: true }</text>
</g>
<!-- { provide: NG_VALIDATORS, useExisting: forwardRef(() =&gt; NgTinyMceComponent), multi: true }&#45;&gt;NgTinyMceComponent -->
<g id="edge3" class="edge">
<title>{ provide: NG_VALIDATORS, useExisting: forwardRef(() =&gt; NgTinyMceComponent), multi: true }&#45;&gt;NgTinyMceComponent</title>
<path fill="none" stroke="black" d="M790.98,-112.23C790.98,-112.23 790.98,-140.76 790.98,-140.76"/>
<polygon fill="black" stroke="black" points="787.48,-140.76 790.98,-150.76 794.48,-140.76 787.48,-140.76"/>
</g>
<!-- jNetworkTinyMceEditorModule -->
<g id="node5" class="node">
<title>jNetworkTinyMceEditorModule</title>
<polygon fill="#8dd3c7" stroke="black" points="722.23,-187 719.23,-191 698.23,-191 695.23,-187 523.77,-187 523.77,-151 722.23,-151 722.23,-187"/>
<text text-anchor="middle" x="623" y="-164.8" font-family="Times,serif" font-size="14.00">jNetworkTinyMceEditorModule</text>
</g>
<!-- jNetworkTinyMceEditorModule&#45;&gt;JNetworkBootstrap4TinyMceModule -->
<g id="edge4" class="edge">
<title>jNetworkTinyMceEditorModule&#45;&gt;JNetworkBootstrap4TinyMceModule</title>
<path fill="none" stroke="black" d="M665.5,-187.11C665.5,-187.11 665.5,-205.99 665.5,-205.99"/>
<polygon fill="black" stroke="black" points="662,-205.99 665.5,-215.99 669,-205.99 662,-205.99"/>
</g>
</g>
</svg>
