<?xml version="1.0" encoding="UTF-8" standalone="no"?>
<!DOCTYPE svg PUBLIC "-//W3C//DTD SVG 1.1//EN"
 "http://www.w3.org/Graphics/SVG/1.1/DTD/svg11.dtd">
<!-- Generated by graphviz version 2.46.0 (20210119.1425)
 -->
<!-- Title: dependencies Pages: 1 -->
<svg width="3390pt" height="349pt"
 viewBox="0.00 0.00 3390.00 349.00" xmlns="http://www.w3.org/2000/svg" xmlns:xlink="http://www.w3.org/1999/xlink">
<g id="graph0" class="graph" transform="scale(1 1) rotate(0) translate(4 345)">
<title>dependencies</title>
<polygon fill="white" stroke="transparent" points="-4,4 -4,-345 3386,-345 3386,4 -4,4"/>
<text text-anchor="start" x="1670.01" y="-42.4" font-family="sans-serif" font-weight="bold" font-size="14.00">Legend</text>
<polygon fill="#ffffb3" stroke="transparent" points="1457,-10 1457,-30 1477,-30 1477,-10 1457,-10"/>
<text text-anchor="start" x="1480.63" y="-15.4" font-family="sans-serif" font-size="14.00"> &#160;Declarations</text>
<polygon fill="#8dd3c7" stroke="transparent" points="1570,-10 1570,-30 1590,-30 1590,-10 1570,-10"/>
<text text-anchor="start" x="1593.73" y="-15.4" font-family="sans-serif" font-size="14.00"> &#160;Module</text>
<polygon fill="#80b1d3" stroke="transparent" points="1656,-10 1656,-30 1676,-30 1676,-10 1656,-10"/>
<text text-anchor="start" x="1679.78" y="-15.4" font-family="sans-serif" font-size="14.00"> &#160;Bootstrap</text>
<polygon fill="#fdb462" stroke="transparent" points="1753,-10 1753,-30 1773,-30 1773,-10 1753,-10"/>
<text text-anchor="start" x="1776.67" y="-15.4" font-family="sans-serif" font-size="14.00"> &#160;Providers</text>
<polygon fill="#fb8072" stroke="transparent" points="1849,-10 1849,-30 1869,-30 1869,-10 1849,-10"/>
<text text-anchor="start" x="1872.73" y="-15.4" font-family="sans-serif" font-size="14.00"> &#160;Exports</text>
<g id="clust1" class="cluster">
<title>cluster_JNetworkBootstrap4StaticLabelModule</title>
<polygon fill="none" stroke="black" stroke-dasharray="1,5" points="8,-70 8,-333 3374,-333 3374,-70 8,-70"/>
</g>
<g id="clust2" class="cluster">
<title>cluster_JNetworkBootstrap4StaticLabelModule_declarations</title>
<polygon fill="none" stroke="black" points="1550,-143 1550,-195 1962,-195 1962,-143 1550,-143"/>
</g>
<g id="clust6" class="cluster">
<title>cluster_JNetworkBootstrap4StaticLabelModule_exports</title>
<polygon fill="none" stroke="black" points="1678,-273 1678,-325 1860,-325 1860,-273 1678,-273"/>
</g>
<g id="clust4" class="cluster">
<title>cluster_JNetworkBootstrap4StaticLabelModule_NgStaticLabelComponent_providers</title>
<polygon fill="none" stroke="black" points="1769,-78 1769,-130 3366,-130 3366,-78 1769,-78"/>
</g>
<g id="clust3" class="cluster">
<title>cluster_JNetworkBootstrap4StaticLabelModule_NgStaticFormContainerComponent_providers</title>
<polygon fill="none" stroke="black" points="16,-78 16,-130 1761,-130 1761,-78 16,-78"/>
</g>
<!-- NgStaticFormContainerComponent -->
<g id="node1" class="node">
<title>NgStaticFormContainerComponent</title>
<polygon fill="#ffffb3" stroke="black" points="1773.86,-187 1558.14,-187 1558.14,-151 1773.86,-151 1773.86,-187"/>
<text text-anchor="middle" x="1666" y="-164.8" font-family="Times,serif" font-size="14.00">NgStaticFormContainerComponent</text>
</g>
<!-- JNetworkBootstrap4StaticLabelModule -->
<g id="node3" class="node">
<title>JNetworkBootstrap4StaticLabelModule</title>
<polygon fill="#8dd3c7" stroke="black" points="1888.67,-252 1885.67,-256 1864.67,-256 1861.67,-252 1649.33,-252 1649.33,-216 1888.67,-216 1888.67,-252"/>
<text text-anchor="middle" x="1769" y="-229.8" font-family="Times,serif" font-size="14.00">JNetworkBootstrap4StaticLabelModule</text>
</g>
<!-- NgStaticFormContainerComponent&#45;&gt;JNetworkBootstrap4StaticLabelModule -->
<g id="edge1" class="edge">
<title>NgStaticFormContainerComponent&#45;&gt;JNetworkBootstrap4StaticLabelModule</title>
<path fill="none" stroke="black" d="M1711.67,-187.11C1711.67,-187.11 1711.67,-205.99 1711.67,-205.99"/>
<polygon fill="black" stroke="black" points="1708.17,-205.99 1711.67,-215.99 1715.17,-205.99 1708.17,-205.99"/>
</g>
<!-- NgStaticLabelComponent -->
<g id="node2" class="node">
<title>NgStaticLabelComponent</title>
<polygon fill="#ffffb3" stroke="black" points="1954.2,-187 1791.8,-187 1791.8,-151 1954.2,-151 1954.2,-187"/>
<text text-anchor="middle" x="1873" y="-164.8" font-family="Times,serif" font-size="14.00">NgStaticLabelComponent</text>
</g>
<!-- NgStaticLabelComponent&#45;&gt;JNetworkBootstrap4StaticLabelModule -->
<g id="edge4" class="edge">
<title>NgStaticLabelComponent&#45;&gt;JNetworkBootstrap4StaticLabelModule</title>
<path fill="none" stroke="black" d="M1840.24,-187.11C1840.24,-187.11 1840.24,-205.99 1840.24,-205.99"/>
<polygon fill="black" stroke="black" points="1836.74,-205.99 1840.24,-215.99 1843.74,-205.99 1836.74,-205.99"/>
</g>
<!-- NgStaticLabelComponent  -->
<g id="node8" class="node">
<title>NgStaticLabelComponent </title>
<polygon fill="#fb8072" stroke="black" points="1851.7,-317 1686.3,-317 1686.3,-281 1851.7,-281 1851.7,-317"/>
<text text-anchor="middle" x="1769" y="-294.8" font-family="Times,serif" font-size="14.00">NgStaticLabelComponent </text>
</g>
<!-- JNetworkBootstrap4StaticLabelModule&#45;&gt;NgStaticLabelComponent  -->
<g id="edge7" class="edge">
<title>JNetworkBootstrap4StaticLabelModule&#45;&gt;NgStaticLabelComponent </title>
<path fill="none" stroke="black" stroke-dasharray="5,2" d="M1769,-252.11C1769,-252.11 1769,-270.99 1769,-270.99"/>
<polygon fill="black" stroke="black" points="1765.5,-270.99 1769,-280.99 1772.5,-270.99 1765.5,-270.99"/>
</g>
<!-- { provide: NG_VALUE_ACCESSOR, multi: true, useExisting: NgStaticFormContainerComponent } -->
<g id="node4" class="node">
<title>{ provide: NG_VALUE_ACCESSOR, multi: true, useExisting: NgStaticFormContainerComponent }</title>
<ellipse fill="#fdb462" stroke="black" cx="1349" cy="-104" rx="404.25" ry="18"/>
<text text-anchor="middle" x="1349" y="-99.8" font-family="Times,serif" font-size="14.00">{ provide: NG_VALUE_ACCESSOR, multi: true, useExisting: NgStaticFormContainerComponent }</text>
</g>
<!-- { provide: NG_VALUE_ACCESSOR, multi: true, useExisting: NgStaticFormContainerComponent }&#45;&gt;NgStaticFormContainerComponent -->
<g id="edge2" class="edge">
<title>{ provide: NG_VALUE_ACCESSOR, multi: true, useExisting: NgStaticFormContainerComponent }&#45;&gt;NgStaticFormContainerComponent</title>
<path fill="none" stroke="black" d="M1655.6,-115.92C1655.6,-115.92 1655.6,-140.77 1655.6,-140.77"/>
<polygon fill="black" stroke="black" points="1652.1,-140.77 1655.6,-150.77 1659.1,-140.77 1652.1,-140.77"/>
</g>
<!-- { provide: NG_VALIDATORS, multi: true, useExisting: forwardRef(() =&gt; NgStaticFormContainerComponent) } -->
<g id="node5" class="node">
<title>{ provide: NG_VALIDATORS, multi: true, useExisting: forwardRef(() =&gt; NgStaticFormContainerComponent) }</title>
<ellipse fill="#fdb462" stroke="black" cx="475" cy="-104" rx="451.39" ry="18"/>
<text text-anchor="middle" x="475" y="-99.8" font-family="Times,serif" font-size="14.00">{ provide: NG_VALIDATORS, multi: true, useExisting: forwardRef(() =&gt; NgStaticFormContainerComponent) }</text>
</g>
<!-- { provide: NG_VALIDATORS, multi: true, useExisting: forwardRef(() =&gt; NgStaticFormContainerComponent) }&#45;&gt;NgStaticFormContainerComponent -->
<g id="edge3" class="edge">
<title>{ provide: NG_VALIDATORS, multi: true, useExisting: forwardRef(() =&gt; NgStaticFormContainerComponent) }&#45;&gt;NgStaticFormContainerComponent</title>
<path fill="none" stroke="black" d="M475,-122.11C475,-141.34 475,-169 475,-169 475,-169 1547.94,-169 1547.94,-169"/>
<polygon fill="black" stroke="black" points="1547.94,-172.5 1557.94,-169 1547.94,-165.5 1547.94,-172.5"/>
</g>
<!-- { provide: NG_VALUE_ACCESSOR, multi: true, useExisting: NgStaticLabelComponent } -->
<g id="node6" class="node">
<title>{ provide: NG_VALUE_ACCESSOR, multi: true, useExisting: NgStaticLabelComponent }</title>
<ellipse fill="#fdb462" stroke="black" cx="2991" cy="-104" rx="367.21" ry="18"/>
<text text-anchor="middle" x="2991" y="-99.8" font-family="Times,serif" font-size="14.00">{ provide: NG_VALUE_ACCESSOR, multi: true, useExisting: NgStaticLabelComponent }</text>
</g>
<!-- { provide: NG_VALUE_ACCESSOR, multi: true, useExisting: NgStaticLabelComponent }&#45;&gt;NgStaticLabelComponent -->
<g id="edge5" class="edge">
<title>{ provide: NG_VALUE_ACCESSOR, multi: true, useExisting: NgStaticLabelComponent }&#45;&gt;NgStaticLabelComponent</title>
<path fill="none" stroke="black" d="M2991,-122.11C2991,-141.34 2991,-169 2991,-169 2991,-169 1964.3,-169 1964.3,-169"/>
<polygon fill="black" stroke="black" points="1964.3,-165.5 1954.3,-169 1964.3,-172.5 1964.3,-165.5"/>
</g>
<!-- { provide: NG_VALIDATORS, multi: true, useExisting: forwardRef(() =&gt; NgStaticLabelComponent) } -->
<g id="node7" class="node">
<title>{ provide: NG_VALIDATORS, multi: true, useExisting: forwardRef(() =&gt; NgStaticLabelComponent) }</title>
<ellipse fill="#fdb462" stroke="black" cx="2191" cy="-104" rx="414.35" ry="18"/>
<text text-anchor="middle" x="2191" y="-99.8" font-family="Times,serif" font-size="14.00">{ provide: NG_VALIDATORS, multi: true, useExisting: forwardRef(() =&gt; NgStaticLabelComponent) }</text>
</g>
<!-- { provide: NG_VALIDATORS, multi: true, useExisting: forwardRef(() =&gt; NgStaticLabelComponent) }&#45;&gt;NgStaticLabelComponent -->
<g id="edge6" class="edge">
<title>{ provide: NG_VALIDATORS, multi: true, useExisting: forwardRef(() =&gt; NgStaticLabelComponent) }&#45;&gt;NgStaticLabelComponent</title>
<path fill="none" stroke="black" d="M1873,-115.62C1873,-115.62 1873,-140.85 1873,-140.85"/>
<polygon fill="black" stroke="black" points="1869.5,-140.85 1873,-150.85 1876.5,-140.85 1869.5,-140.85"/>
</g>
</g>
</svg>
