<?xml version="1.0" encoding="UTF-8" standalone="no"?>
<!DOCTYPE svg PUBLIC "-//W3C//DTD SVG 1.1//EN"
 "http://www.w3.org/Graphics/SVG/1.1/DTD/svg11.dtd">
<!-- Generated by graphviz version 2.47.0 (20210316.0004)
 -->
<!-- Title: dependencies Pages: 1 -->
<svg width="616pt" height="284pt"
 viewBox="0.00 0.00 616.00 284.00" xmlns="http://www.w3.org/2000/svg" xmlns:xlink="http://www.w3.org/1999/xlink">
<g id="graph0" class="graph" transform="scale(1 1) rotate(0) translate(4 280)">
<title>dependencies</title>
<polygon fill="white" stroke="transparent" points="-4,4 -4,-280 612,-280 612,4 -4,4"/>
<text text-anchor="start" x="283.01" y="-42.4" font-family="Times-12" font-weight="bold" font-size="14.00">Legend</text>
<polygon fill="#ffffb3" stroke="transparent" points="70,-10 70,-30 90,-30 90,-10 70,-10"/>
<text text-anchor="start" x="93.63" y="-15.4" font-family="Times-12" font-size="14.00"> &#160;Declarations</text>
<polygon fill="#8dd3c7" stroke="transparent" points="183,-10 183,-30 203,-30 203,-10 183,-10"/>
<text text-anchor="start" x="206.73" y="-15.4" font-family="Times-12" font-size="14.00"> &#160;Module</text>
<polygon fill="#80b1d3" stroke="transparent" points="269,-10 269,-30 289,-30 289,-10 269,-10"/>
<text text-anchor="start" x="292.78" y="-15.4" font-family="Times-12" font-size="14.00"> &#160;Bootstrap</text>
<polygon fill="#fdb462" stroke="transparent" points="366,-10 366,-30 386,-30 386,-10 366,-10"/>
<text text-anchor="start" x="389.67" y="-15.4" font-family="Times-12" font-size="14.00"> &#160;Providers</text>
<polygon fill="#fb8072" stroke="transparent" points="462,-10 462,-30 482,-30 482,-10 462,-10"/>
<text text-anchor="start" x="485.73" y="-15.4" font-family="Times-12" font-size="14.00"> &#160;Exports</text>
<g id="clust1" class="cluster">
<title>cluster_SACBootstrap3ConfirmModule</title>
<polygon fill="none" stroke="black" stroke-dasharray="1,5" points="8,-70 8,-268 600,-268 600,-70 8,-70"/>
</g>
<g id="clust2" class="cluster">
<title>cluster_SACBootstrap3ConfirmModule_declarations</title>
<polygon fill="none" stroke="black" points="430,-78 430,-130 592,-130 592,-78 430,-78"/>
</g>
<g id="clust4" class="cluster">
<title>cluster_SACBootstrap3ConfirmModule_imports</title>
<polygon fill="none" stroke="black" points="16,-78 16,-130 422,-130 422,-78 16,-78"/>
</g>
<g id="clust5" class="cluster">
<title>cluster_SACBootstrap3ConfirmModule_exports</title>
<polygon fill="none" stroke="black" points="238,-208 238,-260 404,-260 404,-208 238,-208"/>
</g>
<!-- NgConfirmComponent -->
<g id="node1" class="node">
<title>NgConfirmComponent</title>
<polygon fill="#ffffb3" stroke="black" points="583.88,-122 438.12,-122 438.12,-86 583.88,-86 583.88,-122"/>
<text text-anchor="middle" x="511" y="-99.8" font-family="Times,serif" font-size="14.00">NgConfirmComponent</text>
</g>
<!-- SACBootstrap3ConfirmModule -->
<g id="node2" class="node">
<title>SACBootstrap3ConfirmModule</title>
<polygon fill="#8dd3c7" stroke="black" points="418.65,-187 415.65,-191 394.65,-191 391.65,-187 223.35,-187 223.35,-151 418.65,-151 418.65,-187"/>
<text text-anchor="middle" x="321" y="-164.8" font-family="Times,serif" font-size="14.00">SACBootstrap3ConfirmModule</text>
</g>
<!-- NgConfirmComponent&#45;&gt;SACBootstrap3ConfirmModule -->
<g id="edge1" class="edge">
<title>NgConfirmComponent&#45;&gt;SACBootstrap3ConfirmModule</title>
<path fill="none" stroke="black" d="M511,-122.11C511,-141.34 511,-169 511,-169 511,-169 428.78,-169 428.78,-169"/>
<polygon fill="black" stroke="black" points="428.78,-165.5 418.78,-169 428.78,-172.5 428.78,-165.5"/>
</g>
<!-- NgConfirmComponent  -->
<g id="node5" class="node">
<title>NgConfirmComponent </title>
<polygon fill="#fb8072" stroke="black" points="395.88,-252 246.12,-252 246.12,-216 395.88,-216 395.88,-252"/>
<text text-anchor="middle" x="321" y="-229.8" font-family="Times,serif" font-size="14.00">NgConfirmComponent </text>
</g>
<!-- SACBootstrap3ConfirmModule&#45;&gt;NgConfirmComponent  -->
<g id="edge4" class="edge">
<title>SACBootstrap3ConfirmModule&#45;&gt;NgConfirmComponent </title>
<path fill="none" stroke="black" stroke-dasharray="5,2" d="M321,-187.11C321,-187.11 321,-205.99 321,-205.99"/>
<polygon fill="black" stroke="black" points="317.5,-205.99 321,-215.99 324.5,-205.99 317.5,-205.99"/>
</g>
<!-- SACBootstrap3ButtonModule -->
<g id="node3" class="node">
<title>SACBootstrap3ButtonModule</title>
<polygon fill="#8dd3c7" stroke="black" points="414.33,-122 411.33,-126 390.33,-126 387.33,-122 227.67,-122 227.67,-86 414.33,-86 414.33,-122"/>
<text text-anchor="middle" x="321" y="-99.8" font-family="Times,serif" font-size="14.00">SACBootstrap3ButtonModule</text>
</g>
<!-- SACBootstrap3ButtonModule&#45;&gt;SACBootstrap3ConfirmModule -->
<g id="edge2" class="edge">
<title>SACBootstrap3ButtonModule&#45;&gt;SACBootstrap3ConfirmModule</title>
<path fill="none" stroke="black" d="M321,-122.11C321,-122.11 321,-140.99 321,-140.99"/>
<polygon fill="black" stroke="black" points="317.5,-140.99 321,-150.99 324.5,-140.99 317.5,-140.99"/>
</g>
<!-- SACBootstrap3DialogModule -->
<g id="node4" class="node">
<title>SACBootstrap3DialogModule</title>
<polygon fill="#8dd3c7" stroke="black" points="210.32,-122 207.32,-126 186.32,-126 183.32,-122 23.68,-122 23.68,-86 210.32,-86 210.32,-122"/>
<text text-anchor="middle" x="117" y="-99.8" font-family="Times,serif" font-size="14.00">SACBootstrap3DialogModule</text>
</g>
<!-- SACBootstrap3DialogModule&#45;&gt;SACBootstrap3ConfirmModule -->
<g id="edge3" class="edge">
<title>SACBootstrap3DialogModule&#45;&gt;SACBootstrap3ConfirmModule</title>
<path fill="none" stroke="black" d="M117,-122.11C117,-141.34 117,-169 117,-169 117,-169 213.18,-169 213.18,-169"/>
<polygon fill="black" stroke="black" points="213.18,-172.5 223.18,-169 213.18,-165.5 213.18,-172.5"/>
</g>
</g>
</svg>
