<?xml version="1.0" encoding="UTF-8" standalone="no"?>
<!DOCTYPE svg PUBLIC "-//W3C//DTD SVG 1.1//EN"
 "http://www.w3.org/Graphics/SVG/1.1/DTD/svg11.dtd">
<!-- Generated by graphviz version 2.47.3 (20210619.1520)
 -->
<!-- Title: dependencies Pages: 1 -->
<svg width="1874pt" height="174pt"
 viewBox="0.00 0.00 1874.00 173.80" xmlns="http://www.w3.org/2000/svg" xmlns:xlink="http://www.w3.org/1999/xlink">
<g id="graph0" class="graph" transform="scale(1 1) rotate(0) translate(4 169.8)">
<title>dependencies</title>
<polygon fill="white" stroke="transparent" points="-4,4 -4,-169.8 1870,-169.8 1870,4 -4,4"/>
<text text-anchor="middle" x="933" y="-8.2" font-family="sans-serif" font-size="14.00">dependencies</text>
<g id="clust1" class="cluster">
<title>cluster_RichtextModule</title>
<polygon fill="none" stroke="black" stroke-dasharray="1,5" points="8,-32.8 8,-157.8 1858,-157.8 1858,-32.8 8,-32.8"/>
</g>
<g id="clust4" class="cluster">
<title>cluster_RichtextModule_imports</title>
<polygon fill="none" stroke="black" points="202,-40.8 202,-92.8 1850,-92.8 1850,-40.8 202,-40.8"/>
</g>
<g id="clust2" class="cluster">
<title>cluster_RichtextModule_declarations</title>
<polygon fill="none" stroke="black" points="16,-40.8 16,-92.8 194,-92.8 194,-40.8 16,-40.8"/>
</g>
<!-- DemoRichtextComponent -->
<g id="node1" class="node">
<title>DemoRichtextComponent</title>
<polygon fill="#ffffb3" stroke="black" points="186.48,-84.8 23.52,-84.8 23.52,-48.8 186.48,-48.8 186.48,-84.8"/>
<text text-anchor="middle" x="105" y="-62.6" font-family="Times,serif" font-size="14.00">DemoRichtextComponent</text>
</g>
<!-- RichtextModule -->
<g id="node2" class="node">
<title>RichtextModule</title>
<polygon fill="#8dd3c7" stroke="black" points="971.49,-149.8 968.49,-153.8 947.49,-153.8 944.49,-149.8 864.51,-149.8 864.51,-113.8 971.49,-113.8 971.49,-149.8"/>
<text text-anchor="middle" x="918" y="-127.6" font-family="Times,serif" font-size="14.00">RichtextModule</text>
</g>
<!-- DemoRichtextComponent&#45;&gt;RichtextModule -->
<g id="edge1" class="edge">
<title>DemoRichtextComponent&#45;&gt;RichtextModule</title>
<path fill="none" stroke="black" d="M105,-85.09C105,-107.01 105,-140.8 105,-140.8 105,-140.8 854.34,-140.8 854.34,-140.8"/>
<polygon fill="black" stroke="black" points="854.34,-144.3 864.34,-140.8 854.34,-137.3 854.34,-144.3"/>
</g>
<!-- JNetworkBootstrap4BrowserModule -->
<g id="node3" class="node">
<title>JNetworkBootstrap4BrowserModule</title>
<polygon fill="#8dd3c7" stroke="black" points="1842.33,-84.8 1839.33,-88.8 1818.33,-88.8 1815.33,-84.8 1619.67,-84.8 1619.67,-48.8 1842.33,-48.8 1842.33,-84.8"/>
<text text-anchor="middle" x="1731" y="-62.6" font-family="Times,serif" font-size="14.00">JNetworkBootstrap4BrowserModule</text>
</g>
<!-- JNetworkBootstrap4BrowserModule&#45;&gt;RichtextModule -->
<g id="edge2" class="edge">
<title>JNetworkBootstrap4BrowserModule&#45;&gt;RichtextModule</title>
<path fill="none" stroke="black" d="M1731,-85.09C1731,-107.01 1731,-140.8 1731,-140.8 1731,-140.8 981.66,-140.8 981.66,-140.8"/>
<polygon fill="black" stroke="black" points="981.66,-137.3 971.66,-140.8 981.66,-144.3 981.66,-137.3"/>
</g>
<!-- JNetworkBootstrap4ButtonModule -->
<g id="node4" class="node">
<title>JNetworkBootstrap4ButtonModule</title>
<polygon fill="#8dd3c7" stroke="black" points="1601.53,-84.8 1598.53,-88.8 1577.53,-88.8 1574.53,-84.8 1388.47,-84.8 1388.47,-48.8 1601.53,-48.8 1601.53,-84.8"/>
<text text-anchor="middle" x="1495" y="-62.6" font-family="Times,serif" font-size="14.00">JNetworkBootstrap4ButtonModule</text>
</g>
<!-- JNetworkBootstrap4ButtonModule&#45;&gt;RichtextModule -->
<g id="edge3" class="edge">
<title>JNetworkBootstrap4ButtonModule&#45;&gt;RichtextModule</title>
<path fill="none" stroke="black" d="M1495,-84.91C1495,-104.14 1495,-131.8 1495,-131.8 1495,-131.8 981.51,-131.8 981.51,-131.8"/>
<polygon fill="black" stroke="black" points="981.51,-128.3 971.51,-131.8 981.51,-135.3 981.51,-128.3"/>
</g>
<!-- JNetworkBootstrap4DialogModule -->
<g id="node5" class="node">
<title>JNetworkBootstrap4DialogModule</title>
<polygon fill="#8dd3c7" stroke="black" points="1369.51,-84.8 1366.51,-88.8 1345.51,-88.8 1342.51,-84.8 1156.49,-84.8 1156.49,-48.8 1369.51,-48.8 1369.51,-84.8"/>
<text text-anchor="middle" x="1263" y="-62.6" font-family="Times,serif" font-size="14.00">JNetworkBootstrap4DialogModule</text>
</g>
<!-- JNetworkBootstrap4DialogModule&#45;&gt;RichtextModule -->
<g id="edge4" class="edge">
<title>JNetworkBootstrap4DialogModule&#45;&gt;RichtextModule</title>
<path fill="none" stroke="black" d="M1263,-84.83C1263,-101.2 1263,-122.8 1263,-122.8 1263,-122.8 981.53,-122.8 981.53,-122.8"/>
<polygon fill="black" stroke="black" points="981.53,-119.3 971.53,-122.8 981.53,-126.3 981.53,-119.3"/>
</g>
<!-- JNetworkBootstrap4FormModule -->
<g id="node6" class="node">
<title>JNetworkBootstrap4FormModule</title>
<polygon fill="#8dd3c7" stroke="black" points="1137.74,-84.8 1134.74,-88.8 1113.74,-88.8 1110.74,-84.8 932.26,-84.8 932.26,-48.8 1137.74,-48.8 1137.74,-84.8"/>
<text text-anchor="middle" x="1035" y="-62.6" font-family="Times,serif" font-size="14.00">JNetworkBootstrap4FormModule</text>
</g>
<!-- JNetworkBootstrap4FormModule&#45;&gt;RichtextModule -->
<g id="edge5" class="edge">
<title>JNetworkBootstrap4FormModule&#45;&gt;RichtextModule</title>
<path fill="none" stroke="black" d="M951.81,-84.91C951.81,-84.91 951.81,-103.79 951.81,-103.79"/>
<polygon fill="black" stroke="black" points="948.31,-103.79 951.81,-113.79 955.31,-103.79 948.31,-103.79"/>
</g>
<!-- JNetworkBootstrap4TinyMceModule -->
<g id="node7" class="node">
<title>JNetworkBootstrap4TinyMceModule</title>
<polygon fill="#8dd3c7" stroke="black" points="914.23,-84.8 911.23,-88.8 890.23,-88.8 887.23,-84.8 687.77,-84.8 687.77,-48.8 914.23,-48.8 914.23,-84.8"/>
<text text-anchor="middle" x="801" y="-62.6" font-family="Times,serif" font-size="14.00">JNetworkBootstrap4TinyMceModule</text>
</g>
<!-- JNetworkBootstrap4TinyMceModule&#45;&gt;RichtextModule -->
<g id="edge6" class="edge">
<title>JNetworkBootstrap4TinyMceModule&#45;&gt;RichtextModule</title>
<path fill="none" stroke="black" d="M889.44,-84.91C889.44,-84.91 889.44,-103.79 889.44,-103.79"/>
<polygon fill="black" stroke="black" points="885.94,-103.79 889.44,-113.79 892.94,-103.79 885.94,-103.79"/>
</g>
<!-- JNetworkBootstrap4ValidationSummaryModule -->
<g id="node8" class="node">
<title>JNetworkBootstrap4ValidationSummaryModule</title>
<polygon fill="#8dd3c7" stroke="black" points="669.45,-84.8 666.45,-88.8 645.45,-88.8 642.45,-84.8 380.55,-84.8 380.55,-48.8 669.45,-48.8 669.45,-84.8"/>
<text text-anchor="middle" x="525" y="-62.6" font-family="Times,serif" font-size="14.00">JNetworkBootstrap4ValidationSummaryModule</text>
</g>
<!-- JNetworkBootstrap4ValidationSummaryModule&#45;&gt;RichtextModule -->
<g id="edge7" class="edge">
<title>JNetworkBootstrap4ValidationSummaryModule&#45;&gt;RichtextModule</title>
<path fill="none" stroke="black" d="M525,-84.83C525,-101.2 525,-122.8 525,-122.8 525,-122.8 854.18,-122.8 854.18,-122.8"/>
<polygon fill="black" stroke="black" points="854.18,-126.3 864.18,-122.8 854.18,-119.3 854.18,-126.3"/>
</g>
<!-- RichtextRoutingModule -->
<g id="node9" class="node">
<title>RichtextRoutingModule</title>
<polygon fill="#8dd3c7" stroke="black" points="362.11,-84.8 359.11,-88.8 338.11,-88.8 335.11,-84.8 209.89,-84.8 209.89,-48.8 362.11,-48.8 362.11,-84.8"/>
<text text-anchor="middle" x="286" y="-62.6" font-family="Times,serif" font-size="14.00">RichtextRoutingModule</text>
</g>
<!-- RichtextRoutingModule&#45;&gt;RichtextModule -->
<g id="edge8" class="edge">
<title>RichtextRoutingModule&#45;&gt;RichtextModule</title>
<path fill="none" stroke="black" d="M286,-84.91C286,-104.14 286,-131.8 286,-131.8 286,-131.8 854.39,-131.8 854.39,-131.8"/>
<polygon fill="black" stroke="black" points="854.39,-135.3 864.39,-131.8 854.39,-128.3 854.39,-135.3"/>
</g>
</g>
</svg>
