<?xml version="1.0" encoding="UTF-8" standalone="no"?>
<!DOCTYPE svg PUBLIC "-//W3C//DTD SVG 1.1//EN"
 "http://www.w3.org/Graphics/SVG/1.1/DTD/svg11.dtd">
<!-- Generated by graphviz version 2.47.0 (20210316.0004)
 -->
<!-- Title: dependencies Pages: 1 -->
<svg width="1736pt" height="284pt"
 viewBox="0.00 0.00 1736.00 284.00" xmlns="http://www.w3.org/2000/svg" xmlns:xlink="http://www.w3.org/1999/xlink">
<g id="graph0" class="graph" transform="scale(1 1) rotate(0) translate(4 280)">
<title>dependencies</title>
<polygon fill="white" stroke="transparent" points="-4,4 -4,-280 1732,-280 1732,4 -4,4"/>
<text text-anchor="start" x="843.01" y="-42.4" font-family="Times-12" font-weight="bold" font-size="14.00">Legend</text>
<polygon fill="#ffffb3" stroke="transparent" points="630,-10 630,-30 650,-30 650,-10 630,-10"/>
<text text-anchor="start" x="653.63" y="-15.4" font-family="Times-12" font-size="14.00"> &#160;Declarations</text>
<polygon fill="#8dd3c7" stroke="transparent" points="743,-10 743,-30 763,-30 763,-10 743,-10"/>
<text text-anchor="start" x="766.73" y="-15.4" font-family="Times-12" font-size="14.00"> &#160;Module</text>
<polygon fill="#80b1d3" stroke="transparent" points="829,-10 829,-30 849,-30 849,-10 829,-10"/>
<text text-anchor="start" x="852.78" y="-15.4" font-family="Times-12" font-size="14.00"> &#160;Bootstrap</text>
<polygon fill="#fdb462" stroke="transparent" points="926,-10 926,-30 946,-30 946,-10 926,-10"/>
<text text-anchor="start" x="949.67" y="-15.4" font-family="Times-12" font-size="14.00"> &#160;Providers</text>
<polygon fill="#fb8072" stroke="transparent" points="1022,-10 1022,-30 1042,-30 1042,-10 1022,-10"/>
<text text-anchor="start" x="1045.73" y="-15.4" font-family="Times-12" font-size="14.00"> &#160;Exports</text>
<g id="clust1" class="cluster">
<title>cluster_SACBootstrap4InputModule</title>
<polygon fill="none" stroke="black" stroke-dasharray="1,5" points="8,-70 8,-268 1720,-268 1720,-70 8,-70"/>
</g>
<g id="clust2" class="cluster">
<title>cluster_SACBootstrap4InputModule_declarations</title>
<polygon fill="none" stroke="black" points="228,-78 228,-130 1712,-130 1712,-78 228,-78"/>
</g>
<g id="clust11" class="cluster">
<title>cluster_SACBootstrap4InputModule_imports</title>
<polygon fill="none" stroke="black" points="16,-78 16,-130 220,-130 220,-78 16,-78"/>
</g>
<g id="clust12" class="cluster">
<title>cluster_SACBootstrap4InputModule_exports</title>
<polygon fill="none" stroke="black" points="114,-208 114,-260 1623,-260 1623,-208 114,-208"/>
</g>
<!-- SacInputAreaComponent -->
<g id="node1" class="node">
<title>SacInputAreaComponent</title>
<polygon fill="#ffffb3" stroke="black" points="1704.29,-122 1545.71,-122 1545.71,-86 1704.29,-86 1704.29,-122"/>
<text text-anchor="middle" x="1625" y="-99.8" font-family="Times,serif" font-size="14.00">SacInputAreaComponent</text>
</g>
<!-- SACBootstrap4InputModule -->
<g id="node9" class="node">
<title>SACBootstrap4InputModule</title>
<polygon fill="#8dd3c7" stroke="black" points="986.76,-187 983.76,-191 962.76,-191 959.76,-187 809.24,-187 809.24,-151 986.76,-151 986.76,-187"/>
<text text-anchor="middle" x="898" y="-164.8" font-family="Times,serif" font-size="14.00">SACBootstrap4InputModule</text>
</g>
<!-- SacInputAreaComponent&#45;&gt;SACBootstrap4InputModule -->
<g id="edge1" class="edge">
<title>SacInputAreaComponent&#45;&gt;SACBootstrap4InputModule</title>
<path fill="none" stroke="black" d="M1580.38,-122.11C1580.38,-141.34 1580.38,-169 1580.38,-169 1580.38,-169 996.86,-169 996.86,-169"/>
<polygon fill="black" stroke="black" points="996.86,-165.5 986.86,-169 996.86,-172.5 996.86,-165.5"/>
</g>
<!-- SacInputComponent -->
<g id="node2" class="node">
<title>SacInputComponent</title>
<polygon fill="#ffffb3" stroke="black" points="1527.6,-122 1396.4,-122 1396.4,-86 1527.6,-86 1527.6,-122"/>
<text text-anchor="middle" x="1462" y="-99.8" font-family="Times,serif" font-size="14.00">SacInputComponent</text>
</g>
<!-- SacInputComponent&#45;&gt;SACBootstrap4InputModule -->
<g id="edge2" class="edge">
<title>SacInputComponent&#45;&gt;SACBootstrap4InputModule</title>
<path fill="none" stroke="black" d="M1415.88,-122.3C1415.88,-140.27 1415.88,-165 1415.88,-165 1415.88,-165 997.03,-165 997.03,-165"/>
<polygon fill="black" stroke="black" points="997.03,-161.5 987.03,-165 997.03,-168.5 997.03,-161.5"/>
</g>
<!-- SacInputCurrencyComponent -->
<g id="node3" class="node">
<title>SacInputCurrencyComponent</title>
<polygon fill="#ffffb3" stroke="black" points="1378.68,-122 1195.32,-122 1195.32,-86 1378.68,-86 1378.68,-122"/>
<text text-anchor="middle" x="1287" y="-99.8" font-family="Times,serif" font-size="14.00">SacInputCurrencyComponent</text>
</g>
<!-- SacInputCurrencyComponent&#45;&gt;SACBootstrap4InputModule -->
<g id="edge3" class="edge">
<title>SacInputCurrencyComponent&#45;&gt;SACBootstrap4InputModule</title>
<path fill="none" stroke="black" d="M1238.88,-122.03C1238.88,-138.4 1238.88,-160 1238.88,-160 1238.88,-160 997.12,-160 997.12,-160"/>
<polygon fill="black" stroke="black" points="997.12,-156.5 987.12,-160 997.12,-163.5 997.12,-156.5"/>
</g>
<!-- SacInputDecimalComponent -->
<g id="node4" class="node">
<title>SacInputDecimalComponent</title>
<polygon fill="#ffffb3" stroke="black" points="1177.02,-122 998.98,-122 998.98,-86 1177.02,-86 1177.02,-122"/>
<text text-anchor="middle" x="1088" y="-99.8" font-family="Times,serif" font-size="14.00">SacInputDecimalComponent</text>
</g>
<!-- SacInputDecimalComponent&#45;&gt;SACBootstrap4InputModule -->
<g id="edge4" class="edge">
<title>SacInputDecimalComponent&#45;&gt;SACBootstrap4InputModule</title>
<path fill="none" stroke="black" d="M1038.38,-122.19C1038.38,-137.18 1038.38,-156 1038.38,-156 1038.38,-156 996.9,-156 996.9,-156"/>
<polygon fill="black" stroke="black" points="996.9,-152.5 986.9,-156 996.9,-159.5 996.9,-152.5"/>
</g>
<!-- SacInputEmailComponent -->
<g id="node5" class="node">
<title>SacInputEmailComponent</title>
<polygon fill="#ffffb3" stroke="black" points="980.04,-122 815.96,-122 815.96,-86 980.04,-86 980.04,-122"/>
<text text-anchor="middle" x="898" y="-99.8" font-family="Times,serif" font-size="14.00">SacInputEmailComponent</text>
</g>
<!-- SacInputEmailComponent&#45;&gt;SACBootstrap4InputModule -->
<g id="edge5" class="edge">
<title>SacInputEmailComponent&#45;&gt;SACBootstrap4InputModule</title>
<path fill="none" stroke="black" d="M898,-122.11C898,-122.11 898,-140.99 898,-140.99"/>
<polygon fill="black" stroke="black" points="894.5,-140.99 898,-150.99 901.5,-140.99 894.5,-140.99"/>
</g>
<!-- SacInputIntegerComponent -->
<g id="node6" class="node">
<title>SacInputIntegerComponent</title>
<polygon fill="#ffffb3" stroke="black" points="797.24,-122 626.76,-122 626.76,-86 797.24,-86 797.24,-122"/>
<text text-anchor="middle" x="712" y="-99.8" font-family="Times,serif" font-size="14.00">SacInputIntegerComponent</text>
</g>
<!-- SacInputIntegerComponent&#45;&gt;SACBootstrap4InputModule -->
<g id="edge6" class="edge">
<title>SacInputIntegerComponent&#45;&gt;SACBootstrap4InputModule</title>
<path fill="none" stroke="black" d="M753.68,-122.19C753.68,-137.18 753.68,-156 753.68,-156 753.68,-156 799.06,-156 799.06,-156"/>
<polygon fill="black" stroke="black" points="799.06,-159.5 809.06,-156 799.06,-152.5 799.06,-159.5"/>
</g>
<!-- SacInputPasswordComponent -->
<g id="node7" class="node">
<title>SacInputPasswordComponent</title>
<polygon fill="#ffffb3" stroke="black" points="608.25,-122 423.75,-122 423.75,-86 608.25,-86 608.25,-122"/>
<text text-anchor="middle" x="516" y="-99.8" font-family="Times,serif" font-size="14.00">SacInputPasswordComponent</text>
</g>
<!-- SacInputPasswordComponent&#45;&gt;SACBootstrap4InputModule -->
<g id="edge7" class="edge">
<title>SacInputPasswordComponent&#45;&gt;SACBootstrap4InputModule</title>
<path fill="none" stroke="black" d="M563.13,-122.03C563.13,-138.4 563.13,-160 563.13,-160 563.13,-160 799.14,-160 799.14,-160"/>
<polygon fill="black" stroke="black" points="799.14,-163.5 809.14,-160 799.14,-156.5 799.14,-163.5"/>
</g>
<!-- SacInputSearchComponent -->
<g id="node8" class="node">
<title>SacInputSearchComponent</title>
<polygon fill="#ffffb3" stroke="black" points="405.68,-122 236.32,-122 236.32,-86 405.68,-86 405.68,-122"/>
<text text-anchor="middle" x="321" y="-99.8" font-family="Times,serif" font-size="14.00">SacInputSearchComponent</text>
</g>
<!-- SacInputSearchComponent&#45;&gt;SACBootstrap4InputModule -->
<g id="edge8" class="edge">
<title>SacInputSearchComponent&#45;&gt;SACBootstrap4InputModule</title>
<path fill="none" stroke="black" d="M358.73,-122.3C358.73,-140.27 358.73,-165 358.73,-165 358.73,-165 798.95,-165 798.95,-165"/>
<polygon fill="black" stroke="black" points="798.95,-168.5 808.95,-165 798.95,-161.5 798.95,-168.5"/>
</g>
<!-- SacInputAreaComponent  -->
<g id="node11" class="node">
<title>SacInputAreaComponent </title>
<polygon fill="#fb8072" stroke="black" points="1614.79,-252 1453.21,-252 1453.21,-216 1614.79,-216 1614.79,-252"/>
<text text-anchor="middle" x="1534" y="-229.8" font-family="Times,serif" font-size="14.00">SacInputAreaComponent </text>
</g>
<!-- SACBootstrap4InputModule&#45;&gt;SacInputAreaComponent  -->
<g id="edge10" class="edge">
<title>SACBootstrap4InputModule&#45;&gt;SacInputAreaComponent </title>
<path fill="none" stroke="black" stroke-dasharray="5,2" d="M987,-174C1152.35,-174 1490.33,-174 1490.33,-174 1490.33,-174 1490.33,-206 1490.33,-206"/>
<polygon fill="black" stroke="black" points="1486.83,-206 1490.33,-216 1493.83,-206 1486.83,-206"/>
</g>
<!-- SacInputComponent  -->
<g id="node12" class="node">
<title>SacInputComponent </title>
<polygon fill="#fb8072" stroke="black" points="1435.1,-252 1300.9,-252 1300.9,-216 1435.1,-216 1435.1,-252"/>
<text text-anchor="middle" x="1368" y="-229.8" font-family="Times,serif" font-size="14.00">SacInputComponent </text>
</g>
<!-- SACBootstrap4InputModule&#45;&gt;SacInputComponent  -->
<g id="edge11" class="edge">
<title>SACBootstrap4InputModule&#45;&gt;SacInputComponent </title>
<path fill="none" stroke="black" stroke-dasharray="5,2" d="M986.84,-178C1115.81,-178 1339.65,-178 1339.65,-178 1339.65,-178 1339.65,-205.97 1339.65,-205.97"/>
<polygon fill="black" stroke="black" points="1336.15,-205.97 1339.65,-215.97 1343.15,-205.97 1336.15,-205.97"/>
</g>
<!-- SacInputCurrencyComponent  -->
<g id="node13" class="node">
<title>SacInputCurrencyComponent </title>
<polygon fill="#fb8072" stroke="black" points="1282.18,-252 1095.82,-252 1095.82,-216 1282.18,-216 1282.18,-252"/>
<text text-anchor="middle" x="1189" y="-229.8" font-family="Times,serif" font-size="14.00">SacInputCurrencyComponent </text>
</g>
<!-- SACBootstrap4InputModule&#45;&gt;SacInputCurrencyComponent  -->
<g id="edge12" class="edge">
<title>SACBootstrap4InputModule&#45;&gt;SacInputCurrencyComponent </title>
<path fill="none" stroke="black" stroke-dasharray="5,2" d="M986.79,-183C1054.59,-183 1136.46,-183 1136.46,-183 1136.46,-183 1136.46,-205.88 1136.46,-205.88"/>
<polygon fill="black" stroke="black" points="1132.96,-205.88 1136.46,-215.88 1139.96,-205.88 1132.96,-205.88"/>
</g>
<!-- SacInputDecimalComponent  -->
<g id="node14" class="node">
<title>SacInputDecimalComponent </title>
<polygon fill="#fb8072" stroke="black" points="1078.02,-252 895.98,-252 895.98,-216 1078.02,-216 1078.02,-252"/>
<text text-anchor="middle" x="987" y="-229.8" font-family="Times,serif" font-size="14.00">SacInputDecimalComponent </text>
</g>
<!-- SACBootstrap4InputModule&#45;&gt;SacInputDecimalComponent  -->
<g id="edge13" class="edge">
<title>SACBootstrap4InputModule&#45;&gt;SacInputDecimalComponent </title>
<path fill="none" stroke="black" stroke-dasharray="5,2" d="M941.44,-187.11C941.44,-187.11 941.44,-205.99 941.44,-205.99"/>
<polygon fill="black" stroke="black" points="937.94,-205.99 941.44,-215.99 944.94,-205.99 937.94,-205.99"/>
</g>
<!-- SacInputEmailComponent  -->
<g id="node15" class="node">
<title>SacInputEmailComponent </title>
<polygon fill="#fb8072" stroke="black" points="878.03,-252 709.97,-252 709.97,-216 878.03,-216 878.03,-252"/>
<text text-anchor="middle" x="794" y="-229.8" font-family="Times,serif" font-size="14.00">SacInputEmailComponent </text>
</g>
<!-- SACBootstrap4InputModule&#45;&gt;SacInputEmailComponent  -->
<g id="edge14" class="edge">
<title>SACBootstrap4InputModule&#45;&gt;SacInputEmailComponent </title>
<path fill="none" stroke="black" stroke-dasharray="5,2" d="M843.57,-187.11C843.57,-187.11 843.57,-205.99 843.57,-205.99"/>
<polygon fill="black" stroke="black" points="840.07,-205.99 843.57,-215.99 847.07,-205.99 840.07,-205.99"/>
</g>
<!-- SacInputIntegerComponent  -->
<g id="node16" class="node">
<title>SacInputIntegerComponent </title>
<polygon fill="#fb8072" stroke="black" points="692.24,-252 517.76,-252 517.76,-216 692.24,-216 692.24,-252"/>
<text text-anchor="middle" x="605" y="-229.8" font-family="Times,serif" font-size="14.00">SacInputIntegerComponent </text>
</g>
<!-- SACBootstrap4InputModule&#45;&gt;SacInputIntegerComponent  -->
<g id="edge15" class="edge">
<title>SACBootstrap4InputModule&#45;&gt;SacInputIntegerComponent </title>
<path fill="none" stroke="black" stroke-dasharray="5,2" d="M809.14,-183C741.3,-183 659.38,-183 659.38,-183 659.38,-183 659.38,-205.88 659.38,-205.88"/>
<polygon fill="black" stroke="black" points="655.88,-205.88 659.38,-215.88 662.88,-205.88 655.88,-205.88"/>
</g>
<!-- SacInputPasswordComponent  -->
<g id="node17" class="node">
<title>SacInputPasswordComponent </title>
<polygon fill="#fb8072" stroke="black" points="500.25,-252 311.75,-252 311.75,-216 500.25,-216 500.25,-252"/>
<text text-anchor="middle" x="406" y="-229.8" font-family="Times,serif" font-size="14.00">SacInputPasswordComponent </text>
</g>
<!-- SACBootstrap4InputModule&#45;&gt;SacInputPasswordComponent  -->
<g id="edge16" class="edge">
<title>SACBootstrap4InputModule&#45;&gt;SacInputPasswordComponent </title>
<path fill="none" stroke="black" stroke-dasharray="5,2" d="M809.22,-178C681.7,-178 461.88,-178 461.88,-178 461.88,-178 461.88,-205.97 461.88,-205.97"/>
<polygon fill="black" stroke="black" points="458.38,-205.97 461.88,-215.97 465.38,-205.97 458.38,-205.97"/>
</g>
<!-- SacInputSearchComponent  -->
<g id="node18" class="node">
<title>SacInputSearchComponent </title>
<polygon fill="#fb8072" stroke="black" points="294.18,-252 121.82,-252 121.82,-216 294.18,-216 294.18,-252"/>
<text text-anchor="middle" x="208" y="-229.8" font-family="Times,serif" font-size="14.00">SacInputSearchComponent </text>
</g>
<!-- SACBootstrap4InputModule&#45;&gt;SacInputSearchComponent  -->
<g id="edge17" class="edge">
<title>SACBootstrap4InputModule&#45;&gt;SacInputSearchComponent </title>
<path fill="none" stroke="black" stroke-dasharray="5,2" d="M809.04,-174C634.79,-174 265.38,-174 265.38,-174 265.38,-174 265.38,-206 265.38,-206"/>
<polygon fill="black" stroke="black" points="261.88,-206 265.38,-216 268.88,-206 261.88,-206"/>
</g>
<!-- SACBootstrap4LayoutModule -->
<g id="node10" class="node">
<title>SACBootstrap4LayoutModule</title>
<polygon fill="#8dd3c7" stroke="black" points="211.87,-122 208.87,-126 187.87,-126 184.87,-122 24.13,-122 24.13,-86 211.87,-86 211.87,-122"/>
<text text-anchor="middle" x="118" y="-99.8" font-family="Times,serif" font-size="14.00">SACBootstrap4LayoutModule</text>
</g>
<!-- SACBootstrap4LayoutModule&#45;&gt;SACBootstrap4InputModule -->
<g id="edge9" class="edge">
<title>SACBootstrap4LayoutModule&#45;&gt;SACBootstrap4InputModule</title>
<path fill="none" stroke="black" d="M166.8,-122.11C166.8,-141.34 166.8,-169 166.8,-169 166.8,-169 799.07,-169 799.07,-169"/>
<polygon fill="black" stroke="black" points="799.07,-172.5 809.07,-169 799.07,-165.5 799.07,-172.5"/>
</g>
</g>
</svg>
