<?xml version="1.0" encoding="UTF-8" standalone="no"?>
<!DOCTYPE svg PUBLIC "-//W3C//DTD SVG 1.1//EN"
 "http://www.w3.org/Graphics/SVG/1.1/DTD/svg11.dtd">
<!-- Generated by graphviz version 2.47.3 (20210619.1520)
 -->
<!-- Title: dependencies Pages: 1 -->
<svg width="1413pt" height="174pt"
 viewBox="0.00 0.00 1413.00 173.80" xmlns="http://www.w3.org/2000/svg" xmlns:xlink="http://www.w3.org/1999/xlink">
<g id="graph0" class="graph" transform="scale(1 1) rotate(0) translate(4 169.8)">
<title>dependencies</title>
<polygon fill="white" stroke="transparent" points="-4,4 -4,-169.8 1409,-169.8 1409,4 -4,4"/>
<text text-anchor="middle" x="702.5" y="-8.2" font-family="sans-serif" font-size="14.00">dependencies</text>
<g id="clust1" class="cluster">
<title>cluster_DatetimeModule</title>
<polygon fill="none" stroke="black" stroke-dasharray="1,5" points="8,-32.8 8,-157.8 1397,-157.8 1397,-32.8 8,-32.8"/>
</g>
<g id="clust2" class="cluster">
<title>cluster_DatetimeModule_declarations</title>
<polygon fill="none" stroke="black" points="1207,-40.8 1207,-92.8 1389,-92.8 1389,-40.8 1207,-40.8"/>
</g>
<g id="clust4" class="cluster">
<title>cluster_DatetimeModule_imports</title>
<polygon fill="none" stroke="black" points="16,-40.8 16,-92.8 1199,-92.8 1199,-40.8 16,-40.8"/>
</g>
<!-- DemoDatetimeComponent -->
<g id="node1" class="node">
<title>DemoDatetimeComponent</title>
<polygon fill="#ffffb3" stroke="black" points="1381.36,-84.8 1214.64,-84.8 1214.64,-48.8 1381.36,-48.8 1381.36,-84.8"/>
<text text-anchor="middle" x="1298" y="-62.6" font-family="Times,serif" font-size="14.00">DemoDatetimeComponent</text>
</g>
<!-- DatetimeModule -->
<g id="node2" class="node">
<title>DatetimeModule</title>
<polygon fill="#8dd3c7" stroke="black" points="845.36,-149.8 842.36,-153.8 821.36,-153.8 818.36,-149.8 734.64,-149.8 734.64,-113.8 845.36,-113.8 845.36,-149.8"/>
<text text-anchor="middle" x="790" y="-127.6" font-family="Times,serif" font-size="14.00">DatetimeModule</text>
</g>
<!-- DemoDatetimeComponent&#45;&gt;DatetimeModule -->
<g id="edge1" class="edge">
<title>DemoDatetimeComponent&#45;&gt;DatetimeModule</title>
<path fill="none" stroke="black" d="M1298,-85.08C1298,-106.12 1298,-137.8 1298,-137.8 1298,-137.8 855.82,-137.8 855.82,-137.8"/>
<polygon fill="black" stroke="black" points="855.82,-134.3 845.82,-137.8 855.82,-141.3 855.82,-134.3"/>
</g>
<!-- DatetimeRoutingModule -->
<g id="node3" class="node">
<title>DatetimeRoutingModule</title>
<polygon fill="#8dd3c7" stroke="black" points="1190.98,-84.8 1187.98,-88.8 1166.98,-88.8 1163.98,-84.8 1035.02,-84.8 1035.02,-48.8 1190.98,-48.8 1190.98,-84.8"/>
<text text-anchor="middle" x="1113" y="-62.6" font-family="Times,serif" font-size="14.00">DatetimeRoutingModule</text>
</g>
<!-- DatetimeRoutingModule&#45;&gt;DatetimeModule -->
<g id="edge2" class="edge">
<title>DatetimeRoutingModule&#45;&gt;DatetimeModule</title>
<path fill="none" stroke="black" d="M1113,-84.82C1113,-102.17 1113,-125.8 1113,-125.8 1113,-125.8 855.53,-125.8 855.53,-125.8"/>
<polygon fill="black" stroke="black" points="855.53,-122.3 845.53,-125.8 855.53,-129.3 855.53,-122.3"/>
</g>
<!-- JNetworkBootstrap4ButtonModule -->
<g id="node4" class="node">
<title>JNetworkBootstrap4ButtonModule</title>
<polygon fill="#8dd3c7" stroke="black" points="1016.53,-84.8 1013.53,-88.8 992.53,-88.8 989.53,-84.8 803.47,-84.8 803.47,-48.8 1016.53,-48.8 1016.53,-84.8"/>
<text text-anchor="middle" x="910" y="-62.6" font-family="Times,serif" font-size="14.00">JNetworkBootstrap4ButtonModule</text>
</g>
<!-- JNetworkBootstrap4ButtonModule&#45;&gt;DatetimeModule -->
<g id="edge3" class="edge">
<title>JNetworkBootstrap4ButtonModule&#45;&gt;DatetimeModule</title>
<path fill="none" stroke="black" d="M824.33,-84.91C824.33,-84.91 824.33,-103.79 824.33,-103.79"/>
<polygon fill="black" stroke="black" points="820.83,-103.79 824.33,-113.79 827.83,-103.79 820.83,-103.79"/>
</g>
<!-- JNetworkBootstrap4DateTimeModule -->
<g id="node5" class="node">
<title>JNetworkBootstrap4DateTimeModule</title>
<polygon fill="#8dd3c7" stroke="black" points="785.89,-84.8 782.89,-88.8 761.89,-88.8 758.89,-84.8 554.11,-84.8 554.11,-48.8 785.89,-48.8 785.89,-84.8"/>
<text text-anchor="middle" x="670" y="-62.6" font-family="Times,serif" font-size="14.00">JNetworkBootstrap4DateTimeModule</text>
</g>
<!-- JNetworkBootstrap4DateTimeModule&#45;&gt;DatetimeModule -->
<g id="edge4" class="edge">
<title>JNetworkBootstrap4DateTimeModule&#45;&gt;DatetimeModule</title>
<path fill="none" stroke="black" d="M760.13,-84.91C760.13,-84.91 760.13,-103.79 760.13,-103.79"/>
<polygon fill="black" stroke="black" points="756.63,-103.79 760.13,-113.79 763.63,-103.79 756.63,-103.79"/>
</g>
<!-- JNetworkBootstrap4FormModule -->
<g id="node6" class="node">
<title>JNetworkBootstrap4FormModule</title>
<polygon fill="#8dd3c7" stroke="black" points="535.74,-84.8 532.74,-88.8 511.74,-88.8 508.74,-84.8 330.26,-84.8 330.26,-48.8 535.74,-48.8 535.74,-84.8"/>
<text text-anchor="middle" x="433" y="-62.6" font-family="Times,serif" font-size="14.00">JNetworkBootstrap4FormModule</text>
</g>
<!-- JNetworkBootstrap4FormModule&#45;&gt;DatetimeModule -->
<g id="edge5" class="edge">
<title>JNetworkBootstrap4FormModule&#45;&gt;DatetimeModule</title>
<path fill="none" stroke="black" d="M433,-84.82C433,-102.17 433,-125.8 433,-125.8 433,-125.8 724.61,-125.8 724.61,-125.8"/>
<polygon fill="black" stroke="black" points="724.61,-129.3 734.61,-125.8 724.61,-122.3 724.61,-129.3"/>
</g>
<!-- JNetworkBootstrap4ValidationSummaryModule -->
<g id="node7" class="node">
<title>JNetworkBootstrap4ValidationSummaryModule</title>
<polygon fill="#8dd3c7" stroke="black" points="312.45,-84.8 309.45,-88.8 288.45,-88.8 285.45,-84.8 23.55,-84.8 23.55,-48.8 312.45,-48.8 312.45,-84.8"/>
<text text-anchor="middle" x="168" y="-62.6" font-family="Times,serif" font-size="14.00">JNetworkBootstrap4ValidationSummaryModule</text>
</g>
<!-- JNetworkBootstrap4ValidationSummaryModule&#45;&gt;DatetimeModule -->
<g id="edge6" class="edge">
<title>JNetworkBootstrap4ValidationSummaryModule&#45;&gt;DatetimeModule</title>
<path fill="none" stroke="black" d="M168,-85.08C168,-106.12 168,-137.8 168,-137.8 168,-137.8 724.53,-137.8 724.53,-137.8"/>
<polygon fill="black" stroke="black" points="724.53,-141.3 734.53,-137.8 724.53,-134.3 724.53,-141.3"/>
</g>
</g>
</svg>
