<?xml version="1.0" encoding="UTF-8" standalone="no"?>
<!DOCTYPE svg PUBLIC "-//W3C//DTD SVG 1.1//EN"
 "http://www.w3.org/Graphics/SVG/1.1/DTD/svg11.dtd">
<!-- Generated by graphviz version 2.47.0 (20210316.0004)
 -->
<!-- Title: dependencies Pages: 1 -->
<svg width="1525pt" height="284pt"
 viewBox="0.00 0.00 1525.00 284.00" xmlns="http://www.w3.org/2000/svg" xmlns:xlink="http://www.w3.org/1999/xlink">
<g id="graph0" class="graph" transform="scale(1 1) rotate(0) translate(4 280)">
<title>dependencies</title>
<polygon fill="white" stroke="transparent" points="-4,4 -4,-280 1521,-280 1521,4 -4,4"/>
<text text-anchor="start" x="737.51" y="-42.4" font-family="Times-12" font-weight="bold" font-size="14.00">Legend</text>
<polygon fill="#ffffb3" stroke="transparent" points="524.5,-10 524.5,-30 544.5,-30 544.5,-10 524.5,-10"/>
<text text-anchor="start" x="548.13" y="-15.4" font-family="Times-12" font-size="14.00"> &#160;Declarations</text>
<polygon fill="#8dd3c7" stroke="transparent" points="637.5,-10 637.5,-30 657.5,-30 657.5,-10 637.5,-10"/>
<text text-anchor="start" x="661.23" y="-15.4" font-family="Times-12" font-size="14.00"> &#160;Module</text>
<polygon fill="#80b1d3" stroke="transparent" points="723.5,-10 723.5,-30 743.5,-30 743.5,-10 723.5,-10"/>
<text text-anchor="start" x="747.28" y="-15.4" font-family="Times-12" font-size="14.00"> &#160;Bootstrap</text>
<polygon fill="#fdb462" stroke="transparent" points="820.5,-10 820.5,-30 840.5,-30 840.5,-10 820.5,-10"/>
<text text-anchor="start" x="844.17" y="-15.4" font-family="Times-12" font-size="14.00"> &#160;Providers</text>
<polygon fill="#fb8072" stroke="transparent" points="916.5,-10 916.5,-30 936.5,-30 936.5,-10 916.5,-10"/>
<text text-anchor="start" x="940.23" y="-15.4" font-family="Times-12" font-size="14.00"> &#160;Exports</text>
<g id="clust1" class="cluster">
<title>cluster_SACBootstrap4InputModule</title>
<polygon fill="none" stroke="black" stroke-dasharray="1,5" points="8,-70 8,-268 1509,-268 1509,-70 8,-70"/>
</g>
<g id="clust2" class="cluster">
<title>cluster_SACBootstrap4InputModule_declarations</title>
<polygon fill="none" stroke="black" points="32,-78 32,-130 1491,-130 1491,-78 32,-78"/>
</g>
<g id="clust12" class="cluster">
<title>cluster_SACBootstrap4InputModule_exports</title>
<polygon fill="none" stroke="black" points="16,-208 16,-260 1501,-260 1501,-208 16,-208"/>
</g>
<!-- NgInputAreaComponent -->
<g id="node1" class="node">
<title>NgInputAreaComponent</title>
<polygon fill="#ffffb3" stroke="black" points="1482.69,-122 1327.31,-122 1327.31,-86 1482.69,-86 1482.69,-122"/>
<text text-anchor="middle" x="1405" y="-99.8" font-family="Times,serif" font-size="14.00">NgInputAreaComponent</text>
</g>
<!-- SACBootstrap4InputModule -->
<g id="node9" class="node">
<title>SACBootstrap4InputModule</title>
<polygon fill="#8dd3c7" stroke="black" points="784.76,-187 781.76,-191 760.76,-191 757.76,-187 607.24,-187 607.24,-151 784.76,-151 784.76,-187"/>
<text text-anchor="middle" x="696" y="-164.8" font-family="Times,serif" font-size="14.00">SACBootstrap4InputModule</text>
</g>
<!-- NgInputAreaComponent&#45;&gt;SACBootstrap4InputModule -->
<g id="edge1" class="edge">
<title>NgInputAreaComponent&#45;&gt;SACBootstrap4InputModule</title>
<path fill="none" stroke="black" d="M1331.03,-122.22C1331.03,-140.83 1331.03,-167 1331.03,-167 1331.03,-167 794.97,-167 794.97,-167"/>
<polygon fill="black" stroke="black" points="794.97,-163.5 784.97,-167 794.97,-170.5 794.97,-163.5"/>
</g>
<!-- NgInputComponent -->
<g id="node2" class="node">
<title>NgInputComponent</title>
<polygon fill="#ffffb3" stroke="black" points="1308.99,-122 1181.01,-122 1181.01,-86 1308.99,-86 1308.99,-122"/>
<text text-anchor="middle" x="1245" y="-99.8" font-family="Times,serif" font-size="14.00">NgInputComponent</text>
</g>
<!-- NgInputComponent&#45;&gt;SACBootstrap4InputModule -->
<g id="edge2" class="edge">
<title>NgInputComponent&#45;&gt;SACBootstrap4InputModule</title>
<path fill="none" stroke="black" d="M1267.75,-122.03C1267.75,-139.06 1267.75,-162 1267.75,-162 1267.75,-162 795.02,-162 795.02,-162"/>
<polygon fill="black" stroke="black" points="795.02,-158.5 785.02,-162 795.02,-165.5 795.02,-158.5"/>
</g>
<!-- NgInputCurrencyComponent -->
<g id="node3" class="node">
<title>NgInputCurrencyComponent</title>
<polygon fill="#ffffb3" stroke="black" points="1163.08,-122 982.92,-122 982.92,-86 1163.08,-86 1163.08,-122"/>
<text text-anchor="middle" x="1073" y="-99.8" font-family="Times,serif" font-size="14.00">NgInputCurrencyComponent</text>
</g>
<!-- NgInputCurrencyComponent&#45;&gt;SACBootstrap4InputModule -->
<g id="edge3" class="edge">
<title>NgInputCurrencyComponent&#45;&gt;SACBootstrap4InputModule</title>
<path fill="none" stroke="black" d="M1103.1,-122.24C1103.1,-137.57 1103.1,-157 1103.1,-157 1103.1,-157 794.84,-157 794.84,-157"/>
<polygon fill="black" stroke="black" points="794.84,-153.5 784.84,-157 794.84,-160.5 794.84,-153.5"/>
</g>
<!-- NgInputDecimalComponent -->
<g id="node4" class="node">
<title>NgInputDecimalComponent</title>
<polygon fill="#ffffb3" stroke="black" points="964.91,-122 789.09,-122 789.09,-86 964.91,-86 964.91,-122"/>
<text text-anchor="middle" x="877" y="-99.8" font-family="Times,serif" font-size="14.00">NgInputDecimalComponent</text>
</g>
<!-- NgInputDecimalComponent&#45;&gt;SACBootstrap4InputModule -->
<g id="edge4" class="edge">
<title>NgInputDecimalComponent&#45;&gt;SACBootstrap4InputModule</title>
<path fill="none" stroke="black" d="M789.24,-104C782.53,-104 778.3,-104 778.3,-104 778.3,-104 778.3,-140.89 778.3,-140.89"/>
<polygon fill="black" stroke="black" points="774.8,-140.89 778.3,-150.89 781.8,-140.89 774.8,-140.89"/>
</g>
<!-- NgInputEmailComponent -->
<g id="node5" class="node">
<title>NgInputEmailComponent</title>
<polygon fill="#ffffb3" stroke="black" points="771.93,-122 610.07,-122 610.07,-86 771.93,-86 771.93,-122"/>
<text text-anchor="middle" x="691" y="-99.8" font-family="Times,serif" font-size="14.00">NgInputEmailComponent</text>
</g>
<!-- NgInputEmailComponent&#45;&gt;SACBootstrap4InputModule -->
<g id="edge5" class="edge">
<title>NgInputEmailComponent&#45;&gt;SACBootstrap4InputModule</title>
<path fill="none" stroke="black" d="M691,-122.11C691,-122.11 691,-140.99 691,-140.99"/>
<polygon fill="black" stroke="black" points="687.5,-140.99 691,-150.99 694.5,-140.99 687.5,-140.99"/>
</g>
<!-- NgInputIntegerComponent -->
<g id="node6" class="node">
<title>NgInputIntegerComponent</title>
<polygon fill="#ffffb3" stroke="black" points="591.63,-122 424.37,-122 424.37,-86 591.63,-86 591.63,-122"/>
<text text-anchor="middle" x="508" y="-99.8" font-family="Times,serif" font-size="14.00">NgInputIntegerComponent</text>
</g>
<!-- NgInputIntegerComponent&#45;&gt;SACBootstrap4InputModule -->
<g id="edge6" class="edge">
<title>NgInputIntegerComponent&#45;&gt;SACBootstrap4InputModule</title>
<path fill="none" stroke="black" d="M531.77,-122.24C531.77,-137.57 531.77,-157 531.77,-157 531.77,-157 597.16,-157 597.16,-157"/>
<polygon fill="black" stroke="black" points="597.16,-160.5 607.16,-157 597.16,-153.5 597.16,-160.5"/>
</g>
<!-- NgInputPasswordComponent -->
<g id="node7" class="node">
<title>NgInputPasswordComponent</title>
<polygon fill="#ffffb3" stroke="black" points="405.64,-122 224.36,-122 224.36,-86 405.64,-86 405.64,-122"/>
<text text-anchor="middle" x="315" y="-99.8" font-family="Times,serif" font-size="14.00">NgInputPasswordComponent</text>
</g>
<!-- NgInputPasswordComponent&#45;&gt;SACBootstrap4InputModule -->
<g id="edge7" class="edge">
<title>NgInputPasswordComponent&#45;&gt;SACBootstrap4InputModule</title>
<path fill="none" stroke="black" d="M401.2,-122.03C401.2,-139.06 401.2,-162 401.2,-162 401.2,-162 597.15,-162 597.15,-162"/>
<polygon fill="black" stroke="black" points="597.15,-165.5 607.15,-162 597.15,-158.5 597.15,-165.5"/>
</g>
<!-- NgInputSearchComponent -->
<g id="node8" class="node">
<title>NgInputSearchComponent</title>
<polygon fill="#ffffb3" stroke="black" points="206.08,-122 39.92,-122 39.92,-86 206.08,-86 206.08,-122"/>
<text text-anchor="middle" x="123" y="-99.8" font-family="Times,serif" font-size="14.00">NgInputSearchComponent</text>
</g>
<!-- NgInputSearchComponent&#45;&gt;SACBootstrap4InputModule -->
<g id="edge8" class="edge">
<title>NgInputSearchComponent&#45;&gt;SACBootstrap4InputModule</title>
<path fill="none" stroke="black" d="M199.91,-122.22C199.91,-140.83 199.91,-167 199.91,-167 199.91,-167 597.02,-167 597.02,-167"/>
<polygon fill="black" stroke="black" points="597.02,-170.5 607.02,-167 597.02,-163.5 597.02,-170.5"/>
</g>
<!-- NgInputAreaComponent  -->
<g id="node10" class="node">
<title>NgInputAreaComponent </title>
<polygon fill="#fb8072" stroke="black" points="1493.19,-252 1334.81,-252 1334.81,-216 1493.19,-216 1493.19,-252"/>
<text text-anchor="middle" x="1414" y="-229.8" font-family="Times,serif" font-size="14.00">NgInputAreaComponent </text>
</g>
<!-- SACBootstrap4InputModule&#45;&gt;NgInputAreaComponent  -->
<g id="edge9" class="edge">
<title>SACBootstrap4InputModule&#45;&gt;NgInputAreaComponent </title>
<path fill="none" stroke="black" stroke-dasharray="5,2" d="M784.81,-172C975.85,-172 1408.62,-172 1408.62,-172 1408.62,-172 1408.62,-205.73 1408.62,-205.73"/>
<polygon fill="black" stroke="black" points="1405.13,-205.73 1408.62,-215.73 1412.13,-205.73 1405.13,-205.73"/>
</g>
<!-- NgInputComponent  -->
<g id="node11" class="node">
<title>NgInputComponent </title>
<polygon fill="#fb8072" stroke="black" points="1316.99,-252 1185.01,-252 1185.01,-216 1316.99,-216 1316.99,-252"/>
<text text-anchor="middle" x="1251" y="-229.8" font-family="Times,serif" font-size="14.00">NgInputComponent </text>
</g>
<!-- SACBootstrap4InputModule&#45;&gt;NgInputComponent  -->
<g id="edge10" class="edge">
<title>SACBootstrap4InputModule&#45;&gt;NgInputComponent </title>
<path fill="none" stroke="black" stroke-dasharray="5,2" d="M784.79,-177C935.81,-177 1226.5,-177 1226.5,-177 1226.5,-177 1226.5,-205.96 1226.5,-205.96"/>
<polygon fill="black" stroke="black" points="1223,-205.96 1226.5,-215.96 1230,-205.96 1223,-205.96"/>
</g>
<!-- NgInputCurrencyComponent  -->
<g id="node12" class="node">
<title>NgInputCurrencyComponent </title>
<polygon fill="#fb8072" stroke="black" points="1166.58,-252 983.42,-252 983.42,-216 1166.58,-216 1166.58,-252"/>
<text text-anchor="middle" x="1075" y="-229.8" font-family="Times,serif" font-size="14.00">NgInputCurrencyComponent </text>
</g>
<!-- SACBootstrap4InputModule&#45;&gt;NgInputCurrencyComponent  -->
<g id="edge11" class="edge">
<title>SACBootstrap4InputModule&#45;&gt;NgInputCurrencyComponent </title>
<path fill="none" stroke="black" stroke-dasharray="5,2" d="M784.95,-182C887.81,-182 1043.15,-182 1043.15,-182 1043.15,-182 1043.15,-205.81 1043.15,-205.81"/>
<polygon fill="black" stroke="black" points="1039.65,-205.81 1043.15,-215.81 1046.65,-205.81 1039.65,-205.81"/>
</g>
<!-- NgInputDecimalComponent  -->
<g id="node13" class="node">
<title>NgInputDecimalComponent </title>
<polygon fill="#fb8072" stroke="black" points="965.41,-252 786.59,-252 786.59,-216 965.41,-216 965.41,-252"/>
<text text-anchor="middle" x="876" y="-229.8" font-family="Times,serif" font-size="14.00">NgInputDecimalComponent </text>
</g>
<!-- SACBootstrap4InputModule&#45;&gt;NgInputDecimalComponent  -->
<g id="edge12" class="edge">
<title>SACBootstrap4InputModule&#45;&gt;NgInputDecimalComponent </title>
<path fill="none" stroke="black" stroke-dasharray="5,2" d="M776.67,-187.11C776.67,-206.34 776.67,-234 776.67,-234 776.67,-234 777.66,-234 777.66,-234"/>
<polygon fill="black" stroke="black" points="776.56,-237.5 786.56,-234 776.56,-230.5 776.56,-237.5"/>
</g>
<!-- NgInputEmailComponent  -->
<g id="node14" class="node">
<title>NgInputEmailComponent </title>
<polygon fill="#fb8072" stroke="black" points="768.43,-252 603.57,-252 603.57,-216 768.43,-216 768.43,-252"/>
<text text-anchor="middle" x="686" y="-229.8" font-family="Times,serif" font-size="14.00">NgInputEmailComponent </text>
</g>
<!-- SACBootstrap4InputModule&#45;&gt;NgInputEmailComponent  -->
<g id="edge13" class="edge">
<title>SACBootstrap4InputModule&#45;&gt;NgInputEmailComponent </title>
<path fill="none" stroke="black" stroke-dasharray="5,2" d="M687.79,-187.11C687.79,-187.11 687.79,-205.99 687.79,-205.99"/>
<polygon fill="black" stroke="black" points="684.29,-205.99 687.79,-215.99 691.29,-205.99 684.29,-205.99"/>
</g>
<!-- NgInputIntegerComponent  -->
<g id="node15" class="node">
<title>NgInputIntegerComponent </title>
<polygon fill="#fb8072" stroke="black" points="585.63,-252 414.37,-252 414.37,-216 585.63,-216 585.63,-252"/>
<text text-anchor="middle" x="500" y="-229.8" font-family="Times,serif" font-size="14.00">NgInputIntegerComponent </text>
</g>
<!-- SACBootstrap4InputModule&#45;&gt;NgInputIntegerComponent  -->
<g id="edge14" class="edge">
<title>SACBootstrap4InputModule&#45;&gt;NgInputIntegerComponent </title>
<path fill="none" stroke="black" stroke-dasharray="5,2" d="M607.01,-182C546.72,-182 477.98,-182 477.98,-182 477.98,-182 477.98,-205.81 477.98,-205.81"/>
<polygon fill="black" stroke="black" points="474.48,-205.81 477.98,-215.81 481.48,-205.81 474.48,-205.81"/>
</g>
<!-- NgInputPasswordComponent  -->
<g id="node16" class="node">
<title>NgInputPasswordComponent </title>
<polygon fill="#fb8072" stroke="black" points="396.64,-252 211.36,-252 211.36,-216 396.64,-216 396.64,-252"/>
<text text-anchor="middle" x="304" y="-229.8" font-family="Times,serif" font-size="14.00">NgInputPasswordComponent </text>
</g>
<!-- SACBootstrap4InputModule&#45;&gt;NgInputPasswordComponent  -->
<g id="edge15" class="edge">
<title>SACBootstrap4InputModule&#45;&gt;NgInputPasswordComponent </title>
<path fill="none" stroke="black" stroke-dasharray="5,2" d="M607.05,-177C493.16,-177 310.38,-177 310.38,-177 310.38,-177 310.38,-205.96 310.38,-205.96"/>
<polygon fill="black" stroke="black" points="306.88,-205.96 310.38,-215.96 313.88,-205.96 306.88,-205.96"/>
</g>
<!-- NgInputSearchComponent  -->
<g id="node17" class="node">
<title>NgInputSearchComponent </title>
<polygon fill="#fb8072" stroke="black" points="193.58,-252 24.42,-252 24.42,-216 193.58,-216 193.58,-252"/>
<text text-anchor="middle" x="109" y="-229.8" font-family="Times,serif" font-size="14.00">NgInputSearchComponent </text>
</g>
<!-- SACBootstrap4InputModule&#45;&gt;NgInputSearchComponent  -->
<g id="edge16" class="edge">
<title>SACBootstrap4InputModule&#45;&gt;NgInputSearchComponent </title>
<path fill="none" stroke="black" stroke-dasharray="5,2" d="M607.1,-172C444.76,-172 116.88,-172 116.88,-172 116.88,-172 116.88,-205.73 116.88,-205.73"/>
<polygon fill="black" stroke="black" points="113.38,-205.73 116.88,-215.73 120.38,-205.73 113.38,-205.73"/>
</g>
</g>
</svg>
