<?xml version="1.0" encoding="UTF-8" standalone="no"?>
<!DOCTYPE svg PUBLIC "-//W3C//DTD SVG 1.1//EN"
 "http://www.w3.org/Graphics/SVG/1.1/DTD/svg11.dtd">
<!-- Generated by graphviz version 2.47.3 (20210619.1520)
 -->
<!-- Title: dependencies Pages: 1 -->
<svg width="394pt" height="174pt"
 viewBox="0.00 0.00 394.00 173.80" xmlns="http://www.w3.org/2000/svg" xmlns:xlink="http://www.w3.org/1999/xlink">
<g id="graph0" class="graph" transform="scale(1 1) rotate(0) translate(4 169.8)">
<title>dependencies</title>
<polygon fill="white" stroke="transparent" points="-4,4 -4,-169.8 390,-169.8 390,4 -4,4"/>
<text text-anchor="middle" x="193" y="-8.2" font-family="sans-serif" font-size="14.00">dependencies</text>
<g id="clust1" class="cluster">
<title>cluster_ConfirmModule</title>
<polygon fill="none" stroke="black" stroke-dasharray="1,5" points="8,-32.8 8,-157.8 378,-157.8 378,-32.8 8,-32.8"/>
</g>
<g id="clust4" class="cluster">
<title>cluster_ConfirmModule_imports</title>
<polygon fill="none" stroke="black" points="202,-40.8 202,-92.8 370,-92.8 370,-40.8 202,-40.8"/>
</g>
<g id="clust2" class="cluster">
<title>cluster_ConfirmModule_declarations</title>
<polygon fill="none" stroke="black" points="16,-40.8 16,-92.8 194,-92.8 194,-40.8 16,-40.8"/>
</g>
<!-- DemoConfirmComponent -->
<g id="node1" class="node">
<title>DemoConfirmComponent</title>
<polygon fill="#ffffb3" stroke="black" points="186.48,-84.8 23.52,-84.8 23.52,-48.8 186.48,-48.8 186.48,-84.8"/>
<text text-anchor="middle" x="105" y="-62.6" font-family="Times,serif" font-size="14.00">DemoConfirmComponent</text>
</g>
<!-- ConfirmModule -->
<g id="node2" class="node">
<title>ConfirmModule</title>
<polygon fill="#8dd3c7" stroke="black" points="248.49,-149.8 245.49,-153.8 224.49,-153.8 221.49,-149.8 141.51,-149.8 141.51,-113.8 248.49,-113.8 248.49,-149.8"/>
<text text-anchor="middle" x="195" y="-127.6" font-family="Times,serif" font-size="14.00">ConfirmModule</text>
</g>
<!-- DemoConfirmComponent&#45;&gt;ConfirmModule -->
<g id="edge1" class="edge">
<title>DemoConfirmComponent&#45;&gt;ConfirmModule</title>
<path fill="none" stroke="black" d="M164,-84.91C164,-84.91 164,-103.79 164,-103.79"/>
<polygon fill="black" stroke="black" points="160.5,-103.79 164,-113.79 167.5,-103.79 160.5,-103.79"/>
</g>
<!-- ConfirmRoutingModule -->
<g id="node3" class="node">
<title>ConfirmRoutingModule</title>
<polygon fill="#8dd3c7" stroke="black" points="362.11,-84.8 359.11,-88.8 338.11,-88.8 335.11,-84.8 209.89,-84.8 209.89,-48.8 362.11,-48.8 362.11,-84.8"/>
<text text-anchor="middle" x="286" y="-62.6" font-family="Times,serif" font-size="14.00">ConfirmRoutingModule</text>
</g>
<!-- ConfirmRoutingModule&#45;&gt;ConfirmModule -->
<g id="edge2" class="edge">
<title>ConfirmRoutingModule&#45;&gt;ConfirmModule</title>
<path fill="none" stroke="black" d="M229.22,-84.91C229.22,-84.91 229.22,-103.79 229.22,-103.79"/>
<polygon fill="black" stroke="black" points="225.72,-103.79 229.22,-113.79 232.72,-103.79 225.72,-103.79"/>
</g>
</g>
</svg>
