<?xml version="1.0" encoding="UTF-8" standalone="no"?>
<!DOCTYPE svg PUBLIC "-//W3C//DTD SVG 1.1//EN"
 "http://www.w3.org/Graphics/SVG/1.1/DTD/svg11.dtd">
<!-- Generated by graphviz version 2.47.3 (20210619.1520)
 -->
<!-- Title: dependencies Pages: 1 -->
<svg width="13163pt" height="312pt"
 viewBox="0.00 0.00 13163.00 311.80" xmlns="http://www.w3.org/2000/svg" xmlns:xlink="http://www.w3.org/1999/xlink">
<g id="graph0" class="graph" transform="scale(1 1) rotate(0) translate(4 307.8)">
<title>dependencies</title>
<polygon fill="white" stroke="transparent" points="-4,4 -4,-307.8 13159,-307.8 13159,4 -4,4"/>
<text text-anchor="middle" x="6577.5" y="-8.2" font-family="sans-serif" font-size="14.00">dependencies</text>
<g id="clust1" class="cluster">
<title>cluster_JNetworkBootstrap3InputModule</title>
<polygon fill="none" stroke="black" stroke-dasharray="1,5" points="8,-32.8 8,-295.8 13147,-295.8 13147,-32.8 8,-32.8"/>
</g>
<g id="clust4" class="cluster">
<title>cluster_JNetworkBootstrap3InputModule_NgInputComponent_providers</title>
<polygon fill="none" stroke="black" points="11636,-40.8 11636,-157.8 13139,-157.8 13139,-40.8 11636,-40.8"/>
</g>
<g id="clust11" class="cluster">
<title>cluster_JNetworkBootstrap3InputModule_imports</title>
<polygon fill="none" stroke="black" points="11396,-105.8 11396,-157.8 11628,-157.8 11628,-105.8 11396,-105.8"/>
</g>
<g id="clust3" class="cluster">
<title>cluster_JNetworkBootstrap3InputModule_NgInputAreaComponent_providers</title>
<polygon fill="none" stroke="black" points="9810,-40.8 9810,-157.8 11388,-157.8 11388,-40.8 9810,-40.8"/>
</g>
<g id="clust7" class="cluster">
<title>cluster_JNetworkBootstrap3InputModule_NgInputEmailComponent_providers</title>
<polygon fill="none" stroke="black" points="8207,-40.8 8207,-157.8 9802,-157.8 9802,-40.8 8207,-40.8"/>
</g>
<g id="clust8" class="cluster">
<title>cluster_JNetworkBootstrap3InputModule_NgInputIntegerComponent_providers</title>
<polygon fill="none" stroke="black" points="6587,-40.8 6587,-157.8 8199,-157.8 8199,-40.8 6587,-40.8"/>
</g>
<g id="clust6" class="cluster">
<title>cluster_JNetworkBootstrap3InputModule_NgInputDecimalComponent_providers</title>
<polygon fill="none" stroke="black" points="4945,-40.8 4945,-157.8 6579,-157.8 6579,-40.8 4945,-40.8"/>
</g>
<g id="clust9" class="cluster">
<title>cluster_JNetworkBootstrap3InputModule_NgInputPasswordComponent_providers</title>
<polygon fill="none" stroke="black" points="3286,-40.8 3286,-157.8 4937,-157.8 4937,-40.8 3286,-40.8"/>
</g>
<g id="clust12" class="cluster">
<title>cluster_JNetworkBootstrap3InputModule_exports</title>
<polygon fill="none" stroke="black" points="6651,-235.8 6651,-287.8 8136,-287.8 8136,-235.8 6651,-235.8"/>
</g>
<g id="clust2" class="cluster">
<title>cluster_JNetworkBootstrap3InputModule_declarations</title>
<polygon fill="none" stroke="black" points="2197,-105.8 2197,-157.8 2577,-157.8 2577,-105.8 2197,-105.8"/>
</g>
<g id="clust5" class="cluster">
<title>cluster_JNetworkBootstrap3InputModule_NgInputCurrencyComponent_providers</title>
<polygon fill="none" stroke="black" points="1632,-40.8 1632,-92.8 3278,-92.8 3278,-40.8 1632,-40.8"/>
</g>
<g id="clust10" class="cluster">
<title>cluster_JNetworkBootstrap3InputModule_NgInputSearchComponent_providers</title>
<polygon fill="none" stroke="black" points="16,-40.8 16,-92.8 1624,-92.8 1624,-40.8 16,-40.8"/>
</g>
<!-- NgInputAreaComponent -->
<g id="node1" class="node">
<title>NgInputAreaComponent</title>
<polygon fill="#ffffb3" stroke="black" points="10305.69,-149.8 10150.31,-149.8 10150.31,-113.8 10305.69,-113.8 10305.69,-149.8"/>
<text text-anchor="middle" x="10228" y="-127.6" font-family="Times,serif" font-size="14.00">NgInputAreaComponent</text>
</g>
<!-- JNetworkBootstrap3InputModule -->
<g id="node9" class="node">
<title>JNetworkBootstrap3InputModule</title>
<polygon fill="#8dd3c7" stroke="black" points="7518.46,-214.8 7515.46,-218.8 7494.46,-218.8 7491.46,-214.8 7313.54,-214.8 7313.54,-178.8 7518.46,-178.8 7518.46,-214.8"/>
<text text-anchor="middle" x="7416" y="-192.6" font-family="Times,serif" font-size="14.00">JNetworkBootstrap3InputModule</text>
</g>
<!-- NgInputAreaComponent&#45;&gt;JNetworkBootstrap3InputModule -->
<g id="edge1" class="edge">
<title>NgInputAreaComponent&#45;&gt;JNetworkBootstrap3InputModule</title>
<path fill="none" stroke="black" d="M10228,-150.04C10228,-165.37 10228,-184.8 10228,-184.8 10228,-184.8 7528.58,-184.8 7528.58,-184.8"/>
<polygon fill="black" stroke="black" points="7528.58,-181.3 7518.58,-184.8 7528.58,-188.3 7528.58,-181.3"/>
</g>
<!-- NgInputComponent -->
<g id="node2" class="node">
<title>NgInputComponent</title>
<polygon fill="#ffffb3" stroke="black" points="12098.99,-149.8 11971.01,-149.8 11971.01,-113.8 12098.99,-113.8 12098.99,-149.8"/>
<text text-anchor="middle" x="12035" y="-127.6" font-family="Times,serif" font-size="14.00">NgInputComponent</text>
</g>
<!-- NgInputComponent&#45;&gt;JNetworkBootstrap3InputModule -->
<g id="edge4" class="edge">
<title>NgInputComponent&#45;&gt;JNetworkBootstrap3InputModule</title>
<path fill="none" stroke="black" d="M12035,-150.02C12035,-168.63 12035,-194.8 12035,-194.8 12035,-194.8 7528.68,-194.8 7528.68,-194.8"/>
<polygon fill="black" stroke="black" points="7528.68,-191.3 7518.68,-194.8 7528.68,-198.3 7528.68,-191.3"/>
</g>
<!-- NgInputCurrencyComponent -->
<g id="node3" class="node">
<title>NgInputCurrencyComponent</title>
<polygon fill="#ffffb3" stroke="black" points="2569.08,-149.8 2388.92,-149.8 2388.92,-113.8 2569.08,-113.8 2569.08,-149.8"/>
<text text-anchor="middle" x="2479" y="-127.6" font-family="Times,serif" font-size="14.00">NgInputCurrencyComponent</text>
</g>
<!-- NgInputCurrencyComponent&#45;&gt;JNetworkBootstrap3InputModule -->
<g id="edge7" class="edge">
<title>NgInputCurrencyComponent&#45;&gt;JNetworkBootstrap3InputModule</title>
<path fill="none" stroke="black" d="M2479,-149.83C2479,-166.86 2479,-189.8 2479,-189.8 2479,-189.8 7303.45,-189.8 7303.45,-189.8"/>
<polygon fill="black" stroke="black" points="7303.45,-193.3 7313.45,-189.8 7303.45,-186.3 7303.45,-193.3"/>
</g>
<!-- NgInputDecimalComponent -->
<g id="node4" class="node">
<title>NgInputDecimalComponent</title>
<polygon fill="#ffffb3" stroke="black" points="6282.91,-149.8 6107.09,-149.8 6107.09,-113.8 6282.91,-113.8 6282.91,-149.8"/>
<text text-anchor="middle" x="6195" y="-127.6" font-family="Times,serif" font-size="14.00">NgInputDecimalComponent</text>
</g>
<!-- NgInputDecimalComponent&#45;&gt;JNetworkBootstrap3InputModule -->
<g id="edge10" class="edge">
<title>NgInputDecimalComponent&#45;&gt;JNetworkBootstrap3InputModule</title>
<path fill="none" stroke="black" d="M6283.03,-131.8C6548.47,-131.8 7322.85,-131.8 7322.85,-131.8 7322.85,-131.8 7322.85,-168.69 7322.85,-168.69"/>
<polygon fill="black" stroke="black" points="7319.35,-168.69 7322.85,-178.69 7326.35,-168.69 7319.35,-168.69"/>
</g>
<!-- NgInputEmailComponent -->
<g id="node5" class="node">
<title>NgInputEmailComponent</title>
<polygon fill="#ffffb3" stroke="black" points="8709.93,-149.8 8548.07,-149.8 8548.07,-113.8 8709.93,-113.8 8709.93,-149.8"/>
<text text-anchor="middle" x="8629" y="-127.6" font-family="Times,serif" font-size="14.00">NgInputEmailComponent</text>
</g>
<!-- NgInputEmailComponent&#45;&gt;JNetworkBootstrap3InputModule -->
<g id="edge13" class="edge">
<title>NgInputEmailComponent&#45;&gt;JNetworkBootstrap3InputModule</title>
<path fill="none" stroke="black" d="M8548.01,-131.8C8290.78,-131.8 7509.15,-131.8 7509.15,-131.8 7509.15,-131.8 7509.15,-168.69 7509.15,-168.69"/>
<polygon fill="black" stroke="black" points="7505.65,-168.69 7509.15,-178.69 7512.65,-168.69 7505.65,-168.69"/>
</g>
<!-- NgInputIntegerComponent -->
<g id="node6" class="node">
<title>NgInputIntegerComponent</title>
<polygon fill="#ffffb3" stroke="black" points="7499.63,-149.8 7332.37,-149.8 7332.37,-113.8 7499.63,-113.8 7499.63,-149.8"/>
<text text-anchor="middle" x="7416" y="-127.6" font-family="Times,serif" font-size="14.00">NgInputIntegerComponent</text>
</g>
<!-- NgInputIntegerComponent&#45;&gt;JNetworkBootstrap3InputModule -->
<g id="edge16" class="edge">
<title>NgInputIntegerComponent&#45;&gt;JNetworkBootstrap3InputModule</title>
<path fill="none" stroke="black" d="M7416,-149.91C7416,-149.91 7416,-168.79 7416,-168.79"/>
<polygon fill="black" stroke="black" points="7412.5,-168.79 7416,-178.79 7419.5,-168.79 7412.5,-168.79"/>
</g>
<!-- NgInputPasswordComponent -->
<g id="node7" class="node">
<title>NgInputPasswordComponent</title>
<polygon fill="#ffffb3" stroke="black" points="4638.64,-149.8 4457.36,-149.8 4457.36,-113.8 4638.64,-113.8 4638.64,-149.8"/>
<text text-anchor="middle" x="4548" y="-127.6" font-family="Times,serif" font-size="14.00">NgInputPasswordComponent</text>
</g>
<!-- NgInputPasswordComponent&#45;&gt;JNetworkBootstrap3InputModule -->
<g id="edge19" class="edge">
<title>NgInputPasswordComponent&#45;&gt;JNetworkBootstrap3InputModule</title>
<path fill="none" stroke="black" d="M4548,-150.04C4548,-165.37 4548,-184.8 4548,-184.8 4548,-184.8 7303.5,-184.8 7303.5,-184.8"/>
<polygon fill="black" stroke="black" points="7303.5,-188.3 7313.5,-184.8 7303.5,-181.3 7303.5,-188.3"/>
</g>
<!-- NgInputSearchComponent -->
<g id="node8" class="node">
<title>NgInputSearchComponent</title>
<polygon fill="#ffffb3" stroke="black" points="2371.08,-149.8 2204.92,-149.8 2204.92,-113.8 2371.08,-113.8 2371.08,-149.8"/>
<text text-anchor="middle" x="2288" y="-127.6" font-family="Times,serif" font-size="14.00">NgInputSearchComponent</text>
</g>
<!-- NgInputSearchComponent&#45;&gt;JNetworkBootstrap3InputModule -->
<g id="edge22" class="edge">
<title>NgInputSearchComponent&#45;&gt;JNetworkBootstrap3InputModule</title>
<path fill="none" stroke="black" d="M2288,-150.02C2288,-168.63 2288,-194.8 2288,-194.8 2288,-194.8 7303.28,-194.8 7303.28,-194.8"/>
<polygon fill="black" stroke="black" points="7303.28,-198.3 7313.28,-194.8 7303.28,-191.3 7303.28,-198.3"/>
</g>
<!-- NgInputAreaComponent  -->
<g id="node27" class="node">
<title>NgInputAreaComponent </title>
<polygon fill="#fb8072" stroke="black" points="8128.19,-279.8 7969.81,-279.8 7969.81,-243.8 8128.19,-243.8 8128.19,-279.8"/>
<text text-anchor="middle" x="8049" y="-257.6" font-family="Times,serif" font-size="14.00">NgInputAreaComponent </text>
</g>
<!-- JNetworkBootstrap3InputModule&#45;&gt;NgInputAreaComponent  -->
<g id="edge26" class="edge">
<title>JNetworkBootstrap3InputModule&#45;&gt;NgInputAreaComponent </title>
<path fill="none" stroke="black" stroke-dasharray="5,2" d="M7518.76,-199.8C7698.02,-199.8 8049,-199.8 8049,-199.8 8049,-199.8 8049,-233.53 8049,-233.53"/>
<polygon fill="black" stroke="black" points="8045.5,-233.53 8049,-243.53 8052.5,-233.53 8045.5,-233.53"/>
</g>
<!-- NgInputComponent  -->
<g id="node28" class="node">
<title>NgInputComponent </title>
<polygon fill="#fb8072" stroke="black" points="7951.99,-279.8 7820.01,-279.8 7820.01,-243.8 7951.99,-243.8 7951.99,-279.8"/>
<text text-anchor="middle" x="7886" y="-257.6" font-family="Times,serif" font-size="14.00">NgInputComponent </text>
</g>
<!-- JNetworkBootstrap3InputModule&#45;&gt;NgInputComponent  -->
<g id="edge27" class="edge">
<title>JNetworkBootstrap3InputModule&#45;&gt;NgInputComponent </title>
<path fill="none" stroke="black" stroke-dasharray="5,2" d="M7518.56,-204.8C7656.86,-204.8 7886,-204.8 7886,-204.8 7886,-204.8 7886,-233.76 7886,-233.76"/>
<polygon fill="black" stroke="black" points="7882.5,-233.76 7886,-243.76 7889.5,-233.76 7882.5,-233.76"/>
</g>
<!-- NgInputCurrencyComponent  -->
<g id="node29" class="node">
<title>NgInputCurrencyComponent </title>
<polygon fill="#fb8072" stroke="black" points="7801.58,-279.8 7618.42,-279.8 7618.42,-243.8 7801.58,-243.8 7801.58,-279.8"/>
<text text-anchor="middle" x="7710" y="-257.6" font-family="Times,serif" font-size="14.00">NgInputCurrencyComponent </text>
</g>
<!-- JNetworkBootstrap3InputModule&#45;&gt;NgInputCurrencyComponent  -->
<g id="edge28" class="edge">
<title>JNetworkBootstrap3InputModule&#45;&gt;NgInputCurrencyComponent </title>
<path fill="none" stroke="black" stroke-dasharray="5,2" d="M7518.83,-209.8C7603.61,-209.8 7710,-209.8 7710,-209.8 7710,-209.8 7710,-233.61 7710,-233.61"/>
<polygon fill="black" stroke="black" points="7706.5,-233.61 7710,-243.61 7713.5,-233.61 7706.5,-233.61"/>
</g>
<!-- NgInputDecimalComponent  -->
<g id="node30" class="node">
<title>NgInputDecimalComponent </title>
<polygon fill="#fb8072" stroke="black" points="7600.41,-279.8 7421.59,-279.8 7421.59,-243.8 7600.41,-243.8 7600.41,-279.8"/>
<text text-anchor="middle" x="7511" y="-257.6" font-family="Times,serif" font-size="14.00">NgInputDecimalComponent </text>
</g>
<!-- JNetworkBootstrap3InputModule&#45;&gt;NgInputDecimalComponent  -->
<g id="edge29" class="edge">
<title>JNetworkBootstrap3InputModule&#45;&gt;NgInputDecimalComponent </title>
<path fill="none" stroke="black" stroke-dasharray="5,2" d="M7470.01,-214.91C7470.01,-214.91 7470.01,-233.79 7470.01,-233.79"/>
<polygon fill="black" stroke="black" points="7466.51,-233.79 7470.01,-243.79 7473.51,-233.79 7466.51,-233.79"/>
</g>
<!-- NgInputEmailComponent  -->
<g id="node31" class="node">
<title>NgInputEmailComponent </title>
<polygon fill="#fb8072" stroke="black" points="7403.43,-279.8 7238.57,-279.8 7238.57,-243.8 7403.43,-243.8 7403.43,-279.8"/>
<text text-anchor="middle" x="7321" y="-257.6" font-family="Times,serif" font-size="14.00">NgInputEmailComponent </text>
</g>
<!-- JNetworkBootstrap3InputModule&#45;&gt;NgInputEmailComponent  -->
<g id="edge30" class="edge">
<title>JNetworkBootstrap3InputModule&#45;&gt;NgInputEmailComponent </title>
<path fill="none" stroke="black" stroke-dasharray="5,2" d="M7358.49,-214.91C7358.49,-214.91 7358.49,-233.79 7358.49,-233.79"/>
<polygon fill="black" stroke="black" points="7354.99,-233.79 7358.49,-243.79 7361.99,-233.79 7354.99,-233.79"/>
</g>
<!-- NgInputIntegerComponent  -->
<g id="node32" class="node">
<title>NgInputIntegerComponent </title>
<polygon fill="#fb8072" stroke="black" points="7220.63,-279.8 7049.37,-279.8 7049.37,-243.8 7220.63,-243.8 7220.63,-279.8"/>
<text text-anchor="middle" x="7135" y="-257.6" font-family="Times,serif" font-size="14.00">NgInputIntegerComponent </text>
</g>
<!-- JNetworkBootstrap3InputModule&#45;&gt;NgInputIntegerComponent  -->
<g id="edge31" class="edge">
<title>JNetworkBootstrap3InputModule&#45;&gt;NgInputIntegerComponent </title>
<path fill="none" stroke="black" stroke-dasharray="5,2" d="M7313.36,-209.8C7233.09,-209.8 7135,-209.8 7135,-209.8 7135,-209.8 7135,-233.61 7135,-233.61"/>
<polygon fill="black" stroke="black" points="7131.5,-233.61 7135,-243.61 7138.5,-233.61 7131.5,-233.61"/>
</g>
<!-- NgInputPasswordComponent  -->
<g id="node33" class="node">
<title>NgInputPasswordComponent </title>
<polygon fill="#fb8072" stroke="black" points="7031.64,-279.8 6846.36,-279.8 6846.36,-243.8 7031.64,-243.8 7031.64,-279.8"/>
<text text-anchor="middle" x="6939" y="-257.6" font-family="Times,serif" font-size="14.00">NgInputPasswordComponent </text>
</g>
<!-- JNetworkBootstrap3InputModule&#45;&gt;NgInputPasswordComponent  -->
<g id="edge32" class="edge">
<title>JNetworkBootstrap3InputModule&#45;&gt;NgInputPasswordComponent </title>
<path fill="none" stroke="black" stroke-dasharray="5,2" d="M7313.38,-204.8C7173.19,-204.8 6939,-204.8 6939,-204.8 6939,-204.8 6939,-233.76 6939,-233.76"/>
<polygon fill="black" stroke="black" points="6935.5,-233.76 6939,-243.76 6942.5,-233.76 6935.5,-233.76"/>
</g>
<!-- NgInputSearchComponent  -->
<g id="node34" class="node">
<title>NgInputSearchComponent </title>
<polygon fill="#fb8072" stroke="black" points="6828.58,-279.8 6659.42,-279.8 6659.42,-243.8 6828.58,-243.8 6828.58,-279.8"/>
<text text-anchor="middle" x="6744" y="-257.6" font-family="Times,serif" font-size="14.00">NgInputSearchComponent </text>
</g>
<!-- JNetworkBootstrap3InputModule&#45;&gt;NgInputSearchComponent  -->
<g id="edge33" class="edge">
<title>JNetworkBootstrap3InputModule&#45;&gt;NgInputSearchComponent </title>
<path fill="none" stroke="black" stroke-dasharray="5,2" d="M7313.21,-199.8C7124.96,-199.8 6744,-199.8 6744,-199.8 6744,-199.8 6744,-233.53 6744,-233.53"/>
<polygon fill="black" stroke="black" points="6740.5,-233.53 6744,-243.53 6747.5,-233.53 6740.5,-233.53"/>
</g>
<!-- { provide: NG_VALUE_ACCESSOR, multi: true, useExisting: NgInputAreaComponent } -->
<g id="node10" class="node">
<title>{ provide: NG_VALUE_ACCESSOR, multi: true, useExisting: NgInputAreaComponent }</title>
<ellipse fill="#fdb462" stroke="black" cx="11018" cy="-66.8" rx="362.04" ry="18"/>
<text text-anchor="middle" x="11018" y="-62.6" font-family="Times,serif" font-size="14.00">{ provide: NG_VALUE_ACCESSOR, multi: true, useExisting: NgInputAreaComponent }</text>
</g>
<!-- { provide: NG_VALUE_ACCESSOR, multi: true, useExisting: NgInputAreaComponent }&#45;&gt;NgInputAreaComponent -->
<g id="edge2" class="edge">
<title>{ provide: NG_VALUE_ACCESSOR, multi: true, useExisting: NgInputAreaComponent }&#45;&gt;NgInputAreaComponent</title>
<path fill="none" stroke="black" d="M11018,-84.91C11018,-104.14 11018,-131.8 11018,-131.8 11018,-131.8 10315.91,-131.8 10315.91,-131.8"/>
<polygon fill="black" stroke="black" points="10315.91,-128.3 10305.91,-131.8 10315.91,-135.3 10315.91,-128.3"/>
</g>
<!-- { provide: NG_VALIDATORS, multi: true, useExisting: forwardRef(() =&gt; NgInputAreaComponent) } -->
<g id="node11" class="node">
<title>{ provide: NG_VALIDATORS, multi: true, useExisting: forwardRef(() =&gt; NgInputAreaComponent) }</title>
<ellipse fill="#fdb462" stroke="black" cx="10228" cy="-66.8" rx="409.68" ry="18"/>
<text text-anchor="middle" x="10228" y="-62.6" font-family="Times,serif" font-size="14.00">{ provide: NG_VALIDATORS, multi: true, useExisting: forwardRef(() =&gt; NgInputAreaComponent) }</text>
</g>
<!-- { provide: NG_VALIDATORS, multi: true, useExisting: forwardRef(() =&gt; NgInputAreaComponent) }&#45;&gt;NgInputAreaComponent -->
<g id="edge3" class="edge">
<title>{ provide: NG_VALIDATORS, multi: true, useExisting: forwardRef(() =&gt; NgInputAreaComponent) }&#45;&gt;NgInputAreaComponent</title>
<path fill="none" stroke="black" d="M10228,-84.91C10228,-84.91 10228,-103.79 10228,-103.79"/>
<polygon fill="black" stroke="black" points="10224.5,-103.79 10228,-113.79 10231.5,-103.79 10224.5,-103.79"/>
</g>
<!-- { provide: NG_VALUE_ACCESSOR, multi: true, useExisting: NgInputComponent } -->
<g id="node12" class="node">
<title>{ provide: NG_VALUE_ACCESSOR, multi: true, useExisting: NgInputComponent }</title>
<ellipse fill="#fdb462" stroke="black" cx="12787" cy="-66.8" rx="343.52" ry="18"/>
<text text-anchor="middle" x="12787" y="-62.6" font-family="Times,serif" font-size="14.00">{ provide: NG_VALUE_ACCESSOR, multi: true, useExisting: NgInputComponent }</text>
</g>
<!-- { provide: NG_VALUE_ACCESSOR, multi: true, useExisting: NgInputComponent }&#45;&gt;NgInputComponent -->
<g id="edge5" class="edge">
<title>{ provide: NG_VALUE_ACCESSOR, multi: true, useExisting: NgInputComponent }&#45;&gt;NgInputComponent</title>
<path fill="none" stroke="black" d="M12787,-84.91C12787,-104.14 12787,-131.8 12787,-131.8 12787,-131.8 12109.12,-131.8 12109.12,-131.8"/>
<polygon fill="black" stroke="black" points="12109.12,-128.3 12099.12,-131.8 12109.12,-135.3 12109.12,-128.3"/>
</g>
<!-- { provide: NG_VALIDATORS, multi: true, useExisting: forwardRef(() =&gt; NgInputComponent) } -->
<g id="node13" class="node">
<title>{ provide: NG_VALIDATORS, multi: true, useExisting: forwardRef(() =&gt; NgInputComponent) }</title>
<ellipse fill="#fdb462" stroke="black" cx="12035" cy="-66.8" rx="390.66" ry="18"/>
<text text-anchor="middle" x="12035" y="-62.6" font-family="Times,serif" font-size="14.00">{ provide: NG_VALIDATORS, multi: true, useExisting: forwardRef(() =&gt; NgInputComponent) }</text>
</g>
<!-- { provide: NG_VALIDATORS, multi: true, useExisting: forwardRef(() =&gt; NgInputComponent) }&#45;&gt;NgInputComponent -->
<g id="edge6" class="edge">
<title>{ provide: NG_VALIDATORS, multi: true, useExisting: forwardRef(() =&gt; NgInputComponent) }&#45;&gt;NgInputComponent</title>
<path fill="none" stroke="black" d="M12035,-84.91C12035,-84.91 12035,-103.79 12035,-103.79"/>
<polygon fill="black" stroke="black" points="12031.5,-103.79 12035,-113.79 12038.5,-103.79 12031.5,-103.79"/>
</g>
<!-- { provide: NG_VALUE_ACCESSOR, multi: true, useExisting: NgInputCurrencyComponent } -->
<g id="node14" class="node">
<title>{ provide: NG_VALUE_ACCESSOR, multi: true, useExisting: NgInputCurrencyComponent }</title>
<ellipse fill="#fdb462" stroke="black" cx="2891" cy="-66.8" rx="379.38" ry="18"/>
<text text-anchor="middle" x="2891" y="-62.6" font-family="Times,serif" font-size="14.00">{ provide: NG_VALUE_ACCESSOR, multi: true, useExisting: NgInputCurrencyComponent }</text>
</g>
<!-- { provide: NG_VALUE_ACCESSOR, multi: true, useExisting: NgInputCurrencyComponent }&#45;&gt;NgInputCurrencyComponent -->
<g id="edge8" class="edge">
<title>{ provide: NG_VALUE_ACCESSOR, multi: true, useExisting: NgInputCurrencyComponent }&#45;&gt;NgInputCurrencyComponent</title>
<path fill="none" stroke="black" d="M2540.3,-73.76C2540.3,-73.76 2540.3,-103.61 2540.3,-103.61"/>
<polygon fill="black" stroke="black" points="2536.8,-103.61 2540.3,-113.61 2543.8,-103.61 2536.8,-103.61"/>
</g>
<!-- { provide: NG_VALIDATORS, multi: true, useExisting: forwardRef(() =&gt; NgInputCurrencyComponent) } -->
<g id="node15" class="node">
<title>{ provide: NG_VALIDATORS, multi: true, useExisting: forwardRef(() =&gt; NgInputCurrencyComponent) }</title>
<ellipse fill="#fdb462" stroke="black" cx="2067" cy="-66.8" rx="426.52" ry="18"/>
<text text-anchor="middle" x="2067" y="-62.6" font-family="Times,serif" font-size="14.00">{ provide: NG_VALIDATORS, multi: true, useExisting: forwardRef(() =&gt; NgInputCurrencyComponent) }</text>
</g>
<!-- { provide: NG_VALIDATORS, multi: true, useExisting: forwardRef(() =&gt; NgInputCurrencyComponent) }&#45;&gt;NgInputCurrencyComponent -->
<g id="edge9" class="edge">
<title>{ provide: NG_VALIDATORS, multi: true, useExisting: forwardRef(() =&gt; NgInputCurrencyComponent) }&#45;&gt;NgInputCurrencyComponent</title>
<path fill="none" stroke="black" d="M2441.36,-75.57C2441.36,-75.57 2441.36,-103.6 2441.36,-103.6"/>
<polygon fill="black" stroke="black" points="2437.86,-103.6 2441.36,-113.6 2444.86,-103.6 2437.86,-103.6"/>
</g>
<!-- { provide: NG_VALUE_ACCESSOR, multi: true, useExisting: NgInputDecimalComponent } -->
<g id="node16" class="node">
<title>{ provide: NG_VALUE_ACCESSOR, multi: true, useExisting: NgInputDecimalComponent }</title>
<ellipse fill="#fdb462" stroke="black" cx="6195" cy="-66.8" rx="376.45" ry="18"/>
<text text-anchor="middle" x="6195" y="-62.6" font-family="Times,serif" font-size="14.00">{ provide: NG_VALUE_ACCESSOR, multi: true, useExisting: NgInputDecimalComponent }</text>
</g>
<!-- { provide: NG_VALUE_ACCESSOR, multi: true, useExisting: NgInputDecimalComponent }&#45;&gt;NgInputDecimalComponent -->
<g id="edge11" class="edge">
<title>{ provide: NG_VALUE_ACCESSOR, multi: true, useExisting: NgInputDecimalComponent }&#45;&gt;NgInputDecimalComponent</title>
<path fill="none" stroke="black" d="M6195,-84.91C6195,-84.91 6195,-103.79 6195,-103.79"/>
<polygon fill="black" stroke="black" points="6191.5,-103.79 6195,-113.79 6198.5,-103.79 6191.5,-103.79"/>
</g>
<!-- { provide: NG_VALIDATORS, multi: true, useExisting: forwardRef(() =&gt; NgInputDecimalComponent) } -->
<g id="node17" class="node">
<title>{ provide: NG_VALIDATORS, multi: true, useExisting: forwardRef(() =&gt; NgInputDecimalComponent) }</title>
<ellipse fill="#fdb462" stroke="black" cx="5377" cy="-66.8" rx="423.58" ry="18"/>
<text text-anchor="middle" x="5377" y="-62.6" font-family="Times,serif" font-size="14.00">{ provide: NG_VALIDATORS, multi: true, useExisting: forwardRef(() =&gt; NgInputDecimalComponent) }</text>
</g>
<!-- { provide: NG_VALIDATORS, multi: true, useExisting: forwardRef(() =&gt; NgInputDecimalComponent) }&#45;&gt;NgInputDecimalComponent -->
<g id="edge12" class="edge">
<title>{ provide: NG_VALIDATORS, multi: true, useExisting: forwardRef(() =&gt; NgInputDecimalComponent) }&#45;&gt;NgInputDecimalComponent</title>
<path fill="none" stroke="black" d="M5377,-84.91C5377,-104.14 5377,-131.8 5377,-131.8 5377,-131.8 6097.07,-131.8 6097.07,-131.8"/>
<polygon fill="black" stroke="black" points="6097.07,-135.3 6107.07,-131.8 6097.07,-128.3 6097.07,-135.3"/>
</g>
<!-- { provide: NG_VALUE_ACCESSOR, multi: true, useExisting: NgInputEmailComponent } -->
<g id="node18" class="node">
<title>{ provide: NG_VALUE_ACCESSOR, multi: true, useExisting: NgInputEmailComponent }</title>
<ellipse fill="#fdb462" stroke="black" cx="9427" cy="-66.8" rx="366.65" ry="18"/>
<text text-anchor="middle" x="9427" y="-62.6" font-family="Times,serif" font-size="14.00">{ provide: NG_VALUE_ACCESSOR, multi: true, useExisting: NgInputEmailComponent }</text>
</g>
<!-- { provide: NG_VALUE_ACCESSOR, multi: true, useExisting: NgInputEmailComponent }&#45;&gt;NgInputEmailComponent -->
<g id="edge14" class="edge">
<title>{ provide: NG_VALUE_ACCESSOR, multi: true, useExisting: NgInputEmailComponent }&#45;&gt;NgInputEmailComponent</title>
<path fill="none" stroke="black" d="M9427,-84.91C9427,-104.14 9427,-131.8 9427,-131.8 9427,-131.8 8719.91,-131.8 8719.91,-131.8"/>
<polygon fill="black" stroke="black" points="8719.91,-128.3 8709.91,-131.8 8719.91,-135.3 8719.91,-128.3"/>
</g>
<!-- { provide: NG_VALIDATORS, multi: true, useExisting: forwardRef(() =&gt; NgInputEmailComponent) } -->
<g id="node19" class="node">
<title>{ provide: NG_VALIDATORS, multi: true, useExisting: forwardRef(() =&gt; NgInputEmailComponent) }</title>
<ellipse fill="#fdb462" stroke="black" cx="8629" cy="-66.8" rx="413.79" ry="18"/>
<text text-anchor="middle" x="8629" y="-62.6" font-family="Times,serif" font-size="14.00">{ provide: NG_VALIDATORS, multi: true, useExisting: forwardRef(() =&gt; NgInputEmailComponent) }</text>
</g>
<!-- { provide: NG_VALIDATORS, multi: true, useExisting: forwardRef(() =&gt; NgInputEmailComponent) }&#45;&gt;NgInputEmailComponent -->
<g id="edge15" class="edge">
<title>{ provide: NG_VALIDATORS, multi: true, useExisting: forwardRef(() =&gt; NgInputEmailComponent) }&#45;&gt;NgInputEmailComponent</title>
<path fill="none" stroke="black" d="M8629,-84.91C8629,-84.91 8629,-103.79 8629,-103.79"/>
<polygon fill="black" stroke="black" points="8625.5,-103.79 8629,-113.79 8632.5,-103.79 8625.5,-103.79"/>
</g>
<!-- { provide: NG_VALUE_ACCESSOR, multi: true, useExisting: NgInputIntegerComponent } -->
<g id="node20" class="node">
<title>{ provide: NG_VALUE_ACCESSOR, multi: true, useExisting: NgInputIntegerComponent }</title>
<ellipse fill="#fdb462" stroke="black" cx="7820" cy="-66.8" rx="370.71" ry="18"/>
<text text-anchor="middle" x="7820" y="-62.6" font-family="Times,serif" font-size="14.00">{ provide: NG_VALUE_ACCESSOR, multi: true, useExisting: NgInputIntegerComponent }</text>
</g>
<!-- { provide: NG_VALUE_ACCESSOR, multi: true, useExisting: NgInputIntegerComponent }&#45;&gt;NgInputIntegerComponent -->
<g id="edge17" class="edge">
<title>{ provide: NG_VALUE_ACCESSOR, multi: true, useExisting: NgInputIntegerComponent }&#45;&gt;NgInputIntegerComponent</title>
<path fill="none" stroke="black" d="M7474.48,-73.76C7474.48,-73.76 7474.48,-103.61 7474.48,-103.61"/>
<polygon fill="black" stroke="black" points="7470.98,-103.61 7474.48,-113.61 7477.98,-103.61 7470.98,-103.61"/>
</g>
<!-- { provide: NG_VALIDATORS, multi: true, useExisting: forwardRef(() =&gt; NgInputIntegerComponent) } -->
<g id="node21" class="node">
<title>{ provide: NG_VALIDATORS, multi: true, useExisting: forwardRef(() =&gt; NgInputIntegerComponent) }</title>
<ellipse fill="#fdb462" stroke="black" cx="7013" cy="-66.8" rx="418.35" ry="18"/>
<text text-anchor="middle" x="7013" y="-62.6" font-family="Times,serif" font-size="14.00">{ provide: NG_VALIDATORS, multi: true, useExisting: forwardRef(() =&gt; NgInputIntegerComponent) }</text>
</g>
<!-- { provide: NG_VALIDATORS, multi: true, useExisting: forwardRef(() =&gt; NgInputIntegerComponent) }&#45;&gt;NgInputIntegerComponent -->
<g id="edge18" class="edge">
<title>{ provide: NG_VALIDATORS, multi: true, useExisting: forwardRef(() =&gt; NgInputIntegerComponent) }&#45;&gt;NgInputIntegerComponent</title>
<path fill="none" stroke="black" d="M7381.68,-75.3C7381.68,-75.3 7381.68,-103.71 7381.68,-103.71"/>
<polygon fill="black" stroke="black" points="7378.18,-103.71 7381.68,-113.71 7385.18,-103.71 7378.18,-103.71"/>
</g>
<!-- { provide: NG_VALUE_ACCESSOR, multi: true, useExisting: NgInputPasswordComponent } -->
<g id="node22" class="node">
<title>{ provide: NG_VALUE_ACCESSOR, multi: true, useExisting: NgInputPasswordComponent }</title>
<ellipse fill="#fdb462" stroke="black" cx="4548" cy="-66.8" rx="380.54" ry="18"/>
<text text-anchor="middle" x="4548" y="-62.6" font-family="Times,serif" font-size="14.00">{ provide: NG_VALUE_ACCESSOR, multi: true, useExisting: NgInputPasswordComponent }</text>
</g>
<!-- { provide: NG_VALUE_ACCESSOR, multi: true, useExisting: NgInputPasswordComponent }&#45;&gt;NgInputPasswordComponent -->
<g id="edge20" class="edge">
<title>{ provide: NG_VALUE_ACCESSOR, multi: true, useExisting: NgInputPasswordComponent }&#45;&gt;NgInputPasswordComponent</title>
<path fill="none" stroke="black" d="M4548,-84.91C4548,-84.91 4548,-103.79 4548,-103.79"/>
<polygon fill="black" stroke="black" points="4544.5,-103.79 4548,-113.79 4551.5,-103.79 4544.5,-103.79"/>
</g>
<!-- { provide: NG_VALIDATORS, multi: true, useExisting: forwardRef(() =&gt; NgInputPasswordComponent) } -->
<g id="node23" class="node">
<title>{ provide: NG_VALIDATORS, multi: true, useExisting: forwardRef(() =&gt; NgInputPasswordComponent) }</title>
<ellipse fill="#fdb462" stroke="black" cx="3722" cy="-66.8" rx="427.68" ry="18"/>
<text text-anchor="middle" x="3722" y="-62.6" font-family="Times,serif" font-size="14.00">{ provide: NG_VALIDATORS, multi: true, useExisting: forwardRef(() =&gt; NgInputPasswordComponent) }</text>
</g>
<!-- { provide: NG_VALIDATORS, multi: true, useExisting: forwardRef(() =&gt; NgInputPasswordComponent) }&#45;&gt;NgInputPasswordComponent -->
<g id="edge21" class="edge">
<title>{ provide: NG_VALIDATORS, multi: true, useExisting: forwardRef(() =&gt; NgInputPasswordComponent) }&#45;&gt;NgInputPasswordComponent</title>
<path fill="none" stroke="black" d="M3722,-84.91C3722,-104.14 3722,-131.8 3722,-131.8 3722,-131.8 4447.24,-131.8 4447.24,-131.8"/>
<polygon fill="black" stroke="black" points="4447.24,-135.3 4457.24,-131.8 4447.24,-128.3 4447.24,-135.3"/>
</g>
<!-- { provide: NG_VALUE_ACCESSOR, multi: true, useExisting: NgInputSearchComponent } -->
<g id="node24" class="node">
<title>{ provide: NG_VALUE_ACCESSOR, multi: true, useExisting: NgInputSearchComponent }</title>
<ellipse fill="#fdb462" stroke="black" cx="1246" cy="-66.8" rx="369.57" ry="18"/>
<text text-anchor="middle" x="1246" y="-62.6" font-family="Times,serif" font-size="14.00">{ provide: NG_VALUE_ACCESSOR, multi: true, useExisting: NgInputSearchComponent }</text>
</g>
<!-- { provide: NG_VALUE_ACCESSOR, multi: true, useExisting: NgInputSearchComponent }&#45;&gt;NgInputSearchComponent -->
<g id="edge23" class="edge">
<title>{ provide: NG_VALUE_ACCESSOR, multi: true, useExisting: NgInputSearchComponent }&#45;&gt;NgInputSearchComponent</title>
<path fill="none" stroke="black" d="M1246,-84.82C1246,-102.17 1246,-125.8 1246,-125.8 1246,-125.8 2194.93,-125.8 2194.93,-125.8"/>
<polygon fill="black" stroke="black" points="2194.93,-129.3 2204.93,-125.8 2194.93,-122.3 2194.93,-129.3"/>
</g>
<!-- { provide: NG_VALIDATORS, multi: true, useExisting: forwardRef(() =&gt; NgInputSearchComponent) } -->
<g id="node25" class="node">
<title>{ provide: NG_VALIDATORS, multi: true, useExisting: forwardRef(() =&gt; NgInputSearchComponent) }</title>
<ellipse fill="#fdb462" stroke="black" cx="441" cy="-66.8" rx="417.2" ry="18"/>
<text text-anchor="middle" x="441" y="-62.6" font-family="Times,serif" font-size="14.00">{ provide: NG_VALIDATORS, multi: true, useExisting: forwardRef(() =&gt; NgInputSearchComponent) }</text>
</g>
<!-- { provide: NG_VALIDATORS, multi: true, useExisting: forwardRef(() =&gt; NgInputSearchComponent) }&#45;&gt;NgInputSearchComponent -->
<g id="edge24" class="edge">
<title>{ provide: NG_VALIDATORS, multi: true, useExisting: forwardRef(() =&gt; NgInputSearchComponent) }&#45;&gt;NgInputSearchComponent</title>
<path fill="none" stroke="black" d="M441,-85.08C441,-106.12 441,-137.8 441,-137.8 441,-137.8 2194.75,-137.8 2194.75,-137.8"/>
<polygon fill="black" stroke="black" points="2194.75,-141.3 2204.75,-137.8 2194.75,-134.3 2194.75,-141.3"/>
</g>
<!-- JNetworkBootstrap3TooltipModule -->
<g id="node26" class="node">
<title>JNetworkBootstrap3TooltipModule</title>
<polygon fill="#8dd3c7" stroke="black" points="11620.14,-149.8 11617.14,-153.8 11596.14,-153.8 11593.14,-149.8 11403.86,-149.8 11403.86,-113.8 11620.14,-113.8 11620.14,-149.8"/>
<text text-anchor="middle" x="11512" y="-127.6" font-family="Times,serif" font-size="14.00">JNetworkBootstrap3TooltipModule</text>
</g>
<!-- JNetworkBootstrap3TooltipModule&#45;&gt;JNetworkBootstrap3InputModule -->
<g id="edge25" class="edge">
<title>JNetworkBootstrap3TooltipModule&#45;&gt;JNetworkBootstrap3InputModule</title>
<path fill="none" stroke="black" d="M11512,-149.83C11512,-166.86 11512,-189.8 11512,-189.8 11512,-189.8 7528.53,-189.8 7528.53,-189.8"/>
<polygon fill="black" stroke="black" points="7528.53,-186.3 7518.53,-189.8 7528.53,-193.3 7528.53,-186.3"/>
</g>
</g>
</svg>
