<?xml version="1.0" encoding="UTF-8" standalone="no"?>
<!DOCTYPE svg PUBLIC "-//W3C//DTD SVG 1.1//EN"
 "http://www.w3.org/Graphics/SVG/1.1/DTD/svg11.dtd">
<!-- Generated by graphviz version 2.47.0 (20210316.0004)
 -->
<!-- Title: dependencies Pages: 1 -->
<svg width="1739pt" height="284pt"
 viewBox="0.00 0.00 1739.00 284.00" xmlns="http://www.w3.org/2000/svg" xmlns:xlink="http://www.w3.org/1999/xlink">
<g id="graph0" class="graph" transform="scale(1 1) rotate(0) translate(4 280)">
<title>dependencies</title>
<polygon fill="white" stroke="transparent" points="-4,4 -4,-280 1735,-280 1735,4 -4,4"/>
<text text-anchor="start" x="844.51" y="-42.4" font-family="Times-12" font-weight="bold" font-size="14.00">Legend</text>
<polygon fill="#ffffb3" stroke="transparent" points="631.5,-10 631.5,-30 651.5,-30 651.5,-10 631.5,-10"/>
<text text-anchor="start" x="655.13" y="-15.4" font-family="Times-12" font-size="14.00"> &#160;Declarations</text>
<polygon fill="#8dd3c7" stroke="transparent" points="744.5,-10 744.5,-30 764.5,-30 764.5,-10 744.5,-10"/>
<text text-anchor="start" x="768.23" y="-15.4" font-family="Times-12" font-size="14.00"> &#160;Module</text>
<polygon fill="#80b1d3" stroke="transparent" points="830.5,-10 830.5,-30 850.5,-30 850.5,-10 830.5,-10"/>
<text text-anchor="start" x="854.28" y="-15.4" font-family="Times-12" font-size="14.00"> &#160;Bootstrap</text>
<polygon fill="#fdb462" stroke="transparent" points="927.5,-10 927.5,-30 947.5,-30 947.5,-10 927.5,-10"/>
<text text-anchor="start" x="951.17" y="-15.4" font-family="Times-12" font-size="14.00"> &#160;Providers</text>
<polygon fill="#fb8072" stroke="transparent" points="1023.5,-10 1023.5,-30 1043.5,-30 1043.5,-10 1023.5,-10"/>
<text text-anchor="start" x="1047.23" y="-15.4" font-family="Times-12" font-size="14.00"> &#160;Exports</text>
<g id="clust1" class="cluster">
<title>cluster_JNetworkBootstrap3InputModule</title>
<polygon fill="none" stroke="black" stroke-dasharray="1,5" points="8,-70 8,-268 1723,-268 1723,-70 8,-70"/>
</g>
<g id="clust2" class="cluster">
<title>cluster_JNetworkBootstrap3InputModule_declarations</title>
<polygon fill="none" stroke="black" points="256,-78 256,-130 1715,-130 1715,-78 256,-78"/>
</g>
<g id="clust11" class="cluster">
<title>cluster_JNetworkBootstrap3InputModule_imports</title>
<polygon fill="none" stroke="black" points="16,-78 16,-130 248,-130 248,-78 16,-78"/>
</g>
<g id="clust12" class="cluster">
<title>cluster_JNetworkBootstrap3InputModule_exports</title>
<polygon fill="none" stroke="black" points="143,-208 143,-260 1628,-260 1628,-208 143,-208"/>
</g>
<!-- NgInputAreaComponent -->
<g id="node1" class="node">
<title>NgInputAreaComponent</title>
<polygon fill="#ffffb3" stroke="black" points="1706.69,-122 1551.31,-122 1551.31,-86 1706.69,-86 1706.69,-122"/>
<text text-anchor="middle" x="1629" y="-99.8" font-family="Times,serif" font-size="14.00">NgInputAreaComponent</text>
</g>
<!-- JNetworkBootstrap3InputModule -->
<g id="node9" class="node">
<title>JNetworkBootstrap3InputModule</title>
<polygon fill="#8dd3c7" stroke="black" points="1017.46,-187 1014.46,-191 993.46,-191 990.46,-187 812.54,-187 812.54,-151 1017.46,-151 1017.46,-187"/>
<text text-anchor="middle" x="915" y="-164.8" font-family="Times,serif" font-size="14.00">JNetworkBootstrap3InputModule</text>
</g>
<!-- NgInputAreaComponent&#45;&gt;JNetworkBootstrap3InputModule -->
<g id="edge1" class="edge">
<title>NgInputAreaComponent&#45;&gt;JNetworkBootstrap3InputModule</title>
<path fill="none" stroke="black" d="M1585.88,-122.22C1585.88,-140.83 1585.88,-167 1585.88,-167 1585.88,-167 1027.62,-167 1027.62,-167"/>
<polygon fill="black" stroke="black" points="1027.62,-163.5 1017.62,-167 1027.62,-170.5 1027.62,-163.5"/>
</g>
<!-- NgInputComponent -->
<g id="node2" class="node">
<title>NgInputComponent</title>
<polygon fill="#ffffb3" stroke="black" points="1532.99,-122 1405.01,-122 1405.01,-86 1532.99,-86 1532.99,-122"/>
<text text-anchor="middle" x="1469" y="-99.8" font-family="Times,serif" font-size="14.00">NgInputComponent</text>
</g>
<!-- NgInputComponent&#45;&gt;JNetworkBootstrap3InputModule -->
<g id="edge2" class="edge">
<title>NgInputComponent&#45;&gt;JNetworkBootstrap3InputModule</title>
<path fill="none" stroke="black" d="M1424.38,-122.03C1424.38,-139.06 1424.38,-162 1424.38,-162 1424.38,-162 1027.47,-162 1027.47,-162"/>
<polygon fill="black" stroke="black" points="1027.47,-158.5 1017.47,-162 1027.47,-165.5 1027.47,-158.5"/>
</g>
<!-- NgInputCurrencyComponent -->
<g id="node3" class="node">
<title>NgInputCurrencyComponent</title>
<polygon fill="#ffffb3" stroke="black" points="1387.08,-122 1206.92,-122 1206.92,-86 1387.08,-86 1387.08,-122"/>
<text text-anchor="middle" x="1297" y="-99.8" font-family="Times,serif" font-size="14.00">NgInputCurrencyComponent</text>
</g>
<!-- NgInputCurrencyComponent&#45;&gt;JNetworkBootstrap3InputModule -->
<g id="edge3" class="edge">
<title>NgInputCurrencyComponent&#45;&gt;JNetworkBootstrap3InputModule</title>
<path fill="none" stroke="black" d="M1250.38,-122.24C1250.38,-137.57 1250.38,-157 1250.38,-157 1250.38,-157 1027.9,-157 1027.9,-157"/>
<polygon fill="black" stroke="black" points="1027.9,-153.5 1017.9,-157 1027.9,-160.5 1027.9,-153.5"/>
</g>
<!-- NgInputDecimalComponent -->
<g id="node4" class="node">
<title>NgInputDecimalComponent</title>
<polygon fill="#ffffb3" stroke="black" points="1188.91,-122 1013.09,-122 1013.09,-86 1188.91,-86 1188.91,-122"/>
<text text-anchor="middle" x="1101" y="-99.8" font-family="Times,serif" font-size="14.00">NgInputDecimalComponent</text>
</g>
<!-- NgInputDecimalComponent&#45;&gt;JNetworkBootstrap3InputModule -->
<g id="edge4" class="edge">
<title>NgInputDecimalComponent&#45;&gt;JNetworkBootstrap3InputModule</title>
<path fill="none" stroke="black" d="M1013.07,-104C1007.76,-104 1004.5,-104 1004.5,-104 1004.5,-104 1004.5,-140.89 1004.5,-140.89"/>
<polygon fill="black" stroke="black" points="1001,-140.89 1004.5,-150.89 1008,-140.89 1001,-140.89"/>
</g>
<!-- NgInputEmailComponent -->
<g id="node5" class="node">
<title>NgInputEmailComponent</title>
<polygon fill="#ffffb3" stroke="black" points="995.93,-122 834.07,-122 834.07,-86 995.93,-86 995.93,-122"/>
<text text-anchor="middle" x="915" y="-99.8" font-family="Times,serif" font-size="14.00">NgInputEmailComponent</text>
</g>
<!-- NgInputEmailComponent&#45;&gt;JNetworkBootstrap3InputModule -->
<g id="edge5" class="edge">
<title>NgInputEmailComponent&#45;&gt;JNetworkBootstrap3InputModule</title>
<path fill="none" stroke="black" d="M915,-122.11C915,-122.11 915,-140.99 915,-140.99"/>
<polygon fill="black" stroke="black" points="911.5,-140.99 915,-150.99 918.5,-140.99 911.5,-140.99"/>
</g>
<!-- NgInputIntegerComponent -->
<g id="node6" class="node">
<title>NgInputIntegerComponent</title>
<polygon fill="#ffffb3" stroke="black" points="815.63,-122 648.37,-122 648.37,-86 815.63,-86 815.63,-122"/>
<text text-anchor="middle" x="732" y="-99.8" font-family="Times,serif" font-size="14.00">NgInputIntegerComponent</text>
</g>
<!-- NgInputIntegerComponent&#45;&gt;JNetworkBootstrap3InputModule -->
<g id="edge6" class="edge">
<title>NgInputIntegerComponent&#45;&gt;JNetworkBootstrap3InputModule</title>
<path fill="none" stroke="black" d="M815.79,-104C821.5,-104 825.05,-104 825.05,-104 825.05,-104 825.05,-140.89 825.05,-140.89"/>
<polygon fill="black" stroke="black" points="821.55,-140.89 825.05,-150.89 828.55,-140.89 821.55,-140.89"/>
</g>
<!-- NgInputPasswordComponent -->
<g id="node7" class="node">
<title>NgInputPasswordComponent</title>
<polygon fill="#ffffb3" stroke="black" points="629.64,-122 448.36,-122 448.36,-86 629.64,-86 629.64,-122"/>
<text text-anchor="middle" x="539" y="-99.8" font-family="Times,serif" font-size="14.00">NgInputPasswordComponent</text>
</g>
<!-- NgInputPasswordComponent&#45;&gt;JNetworkBootstrap3InputModule -->
<g id="edge7" class="edge">
<title>NgInputPasswordComponent&#45;&gt;JNetworkBootstrap3InputModule</title>
<path fill="none" stroke="black" d="M585.63,-122.24C585.63,-137.57 585.63,-157 585.63,-157 585.63,-157 802.14,-157 802.14,-157"/>
<polygon fill="black" stroke="black" points="802.14,-160.5 812.14,-157 802.14,-153.5 802.14,-160.5"/>
</g>
<!-- NgInputSearchComponent -->
<g id="node8" class="node">
<title>NgInputSearchComponent</title>
<polygon fill="#ffffb3" stroke="black" points="430.08,-122 263.92,-122 263.92,-86 430.08,-86 430.08,-122"/>
<text text-anchor="middle" x="347" y="-99.8" font-family="Times,serif" font-size="14.00">NgInputSearchComponent</text>
</g>
<!-- NgInputSearchComponent&#45;&gt;JNetworkBootstrap3InputModule -->
<g id="edge8" class="edge">
<title>NgInputSearchComponent&#45;&gt;JNetworkBootstrap3InputModule</title>
<path fill="none" stroke="black" d="M384.23,-122.03C384.23,-139.06 384.23,-162 384.23,-162 384.23,-162 802.35,-162 802.35,-162"/>
<polygon fill="black" stroke="black" points="802.35,-165.5 812.35,-162 802.35,-158.5 802.35,-165.5"/>
</g>
<!-- NgInputAreaComponent  -->
<g id="node11" class="node">
<title>NgInputAreaComponent </title>
<polygon fill="#fb8072" stroke="black" points="1620.19,-252 1461.81,-252 1461.81,-216 1620.19,-216 1620.19,-252"/>
<text text-anchor="middle" x="1541" y="-229.8" font-family="Times,serif" font-size="14.00">NgInputAreaComponent </text>
</g>
<!-- JNetworkBootstrap3InputModule&#45;&gt;NgInputAreaComponent  -->
<g id="edge10" class="edge">
<title>JNetworkBootstrap3InputModule&#45;&gt;NgInputAreaComponent </title>
<path fill="none" stroke="black" stroke-dasharray="5,2" d="M1017.77,-172C1184.94,-172 1497.33,-172 1497.33,-172 1497.33,-172 1497.33,-205.73 1497.33,-205.73"/>
<polygon fill="black" stroke="black" points="1493.83,-205.73 1497.33,-215.73 1500.83,-205.73 1493.83,-205.73"/>
</g>
<!-- NgInputComponent  -->
<g id="node12" class="node">
<title>NgInputComponent </title>
<polygon fill="#fb8072" stroke="black" points="1443.99,-252 1312.01,-252 1312.01,-216 1443.99,-216 1443.99,-252"/>
<text text-anchor="middle" x="1378" y="-229.8" font-family="Times,serif" font-size="14.00">NgInputComponent </text>
</g>
<!-- JNetworkBootstrap3InputModule&#45;&gt;NgInputComponent  -->
<g id="edge11" class="edge">
<title>JNetworkBootstrap3InputModule&#45;&gt;NgInputComponent </title>
<path fill="none" stroke="black" stroke-dasharray="5,2" d="M1017.73,-177C1146.25,-177 1349.65,-177 1349.65,-177 1349.65,-177 1349.65,-205.96 1349.65,-205.96"/>
<polygon fill="black" stroke="black" points="1346.15,-205.96 1349.65,-215.96 1353.15,-205.96 1346.15,-205.96"/>
</g>
<!-- NgInputCurrencyComponent  -->
<g id="node13" class="node">
<title>NgInputCurrencyComponent </title>
<polygon fill="#fb8072" stroke="black" points="1293.58,-252 1110.42,-252 1110.42,-216 1293.58,-216 1293.58,-252"/>
<text text-anchor="middle" x="1202" y="-229.8" font-family="Times,serif" font-size="14.00">NgInputCurrencyComponent </text>
</g>
<!-- JNetworkBootstrap3InputModule&#45;&gt;NgInputCurrencyComponent  -->
<g id="edge12" class="edge">
<title>JNetworkBootstrap3InputModule&#45;&gt;NgInputCurrencyComponent </title>
<path fill="none" stroke="black" stroke-dasharray="5,2" d="M1017.5,-182C1080.59,-182 1149.46,-182 1149.46,-182 1149.46,-182 1149.46,-205.81 1149.46,-205.81"/>
<polygon fill="black" stroke="black" points="1145.96,-205.81 1149.46,-215.81 1152.96,-205.81 1145.96,-205.81"/>
</g>
<!-- NgInputDecimalComponent  -->
<g id="node14" class="node">
<title>NgInputDecimalComponent </title>
<polygon fill="#fb8072" stroke="black" points="1092.41,-252 913.59,-252 913.59,-216 1092.41,-216 1092.41,-252"/>
<text text-anchor="middle" x="1003" y="-229.8" font-family="Times,serif" font-size="14.00">NgInputDecimalComponent </text>
</g>
<!-- JNetworkBootstrap3InputModule&#45;&gt;NgInputDecimalComponent  -->
<g id="edge13" class="edge">
<title>JNetworkBootstrap3InputModule&#45;&gt;NgInputDecimalComponent </title>
<path fill="none" stroke="black" stroke-dasharray="5,2" d="M965.51,-187.11C965.51,-187.11 965.51,-205.99 965.51,-205.99"/>
<polygon fill="black" stroke="black" points="962.01,-205.99 965.51,-215.99 969.01,-205.99 962.01,-205.99"/>
</g>
<!-- NgInputEmailComponent  -->
<g id="node15" class="node">
<title>NgInputEmailComponent </title>
<polygon fill="#fb8072" stroke="black" points="895.43,-252 730.57,-252 730.57,-216 895.43,-216 895.43,-252"/>
<text text-anchor="middle" x="813" y="-229.8" font-family="Times,serif" font-size="14.00">NgInputEmailComponent </text>
</g>
<!-- JNetworkBootstrap3InputModule&#45;&gt;NgInputEmailComponent  -->
<g id="edge14" class="edge">
<title>JNetworkBootstrap3InputModule&#45;&gt;NgInputEmailComponent </title>
<path fill="none" stroke="black" stroke-dasharray="5,2" d="M853.99,-187.11C853.99,-187.11 853.99,-205.99 853.99,-205.99"/>
<polygon fill="black" stroke="black" points="850.49,-205.99 853.99,-215.99 857.49,-205.99 850.49,-205.99"/>
</g>
<!-- NgInputIntegerComponent  -->
<g id="node16" class="node">
<title>NgInputIntegerComponent </title>
<polygon fill="#fb8072" stroke="black" points="712.63,-252 541.37,-252 541.37,-216 712.63,-216 712.63,-252"/>
<text text-anchor="middle" x="627" y="-229.8" font-family="Times,serif" font-size="14.00">NgInputIntegerComponent </text>
</g>
<!-- JNetworkBootstrap3InputModule&#45;&gt;NgInputIntegerComponent  -->
<g id="edge15" class="edge">
<title>JNetworkBootstrap3InputModule&#45;&gt;NgInputIntegerComponent </title>
<path fill="none" stroke="black" stroke-dasharray="5,2" d="M812.43,-182C749.3,-182 680.38,-182 680.38,-182 680.38,-182 680.38,-205.81 680.38,-205.81"/>
<polygon fill="black" stroke="black" points="676.88,-205.81 680.38,-215.81 683.88,-205.81 676.88,-205.81"/>
</g>
<!-- NgInputPasswordComponent  -->
<g id="node17" class="node">
<title>NgInputPasswordComponent </title>
<polygon fill="#fb8072" stroke="black" points="523.64,-252 338.36,-252 338.36,-216 523.64,-216 523.64,-252"/>
<text text-anchor="middle" x="431" y="-229.8" font-family="Times,serif" font-size="14.00">NgInputPasswordComponent </text>
</g>
<!-- JNetworkBootstrap3InputModule&#45;&gt;NgInputPasswordComponent  -->
<g id="edge16" class="edge">
<title>JNetworkBootstrap3InputModule&#45;&gt;NgInputPasswordComponent </title>
<path fill="none" stroke="black" stroke-dasharray="5,2" d="M812.49,-177C685.55,-177 485.88,-177 485.88,-177 485.88,-177 485.88,-205.96 485.88,-205.96"/>
<polygon fill="black" stroke="black" points="482.38,-205.96 485.88,-215.96 489.38,-205.96 482.38,-205.96"/>
</g>
<!-- NgInputSearchComponent  -->
<g id="node18" class="node">
<title>NgInputSearchComponent </title>
<polygon fill="#fb8072" stroke="black" points="320.58,-252 151.42,-252 151.42,-216 320.58,-216 320.58,-252"/>
<text text-anchor="middle" x="236" y="-229.8" font-family="Times,serif" font-size="14.00">NgInputSearchComponent </text>
</g>
<!-- JNetworkBootstrap3InputModule&#45;&gt;NgInputSearchComponent  -->
<g id="edge17" class="edge">
<title>JNetworkBootstrap3InputModule&#45;&gt;NgInputSearchComponent </title>
<path fill="none" stroke="black" stroke-dasharray="5,2" d="M812.53,-172C635.79,-172 292.38,-172 292.38,-172 292.38,-172 292.38,-205.73 292.38,-205.73"/>
<polygon fill="black" stroke="black" points="288.88,-205.73 292.38,-215.73 295.88,-205.73 288.88,-205.73"/>
</g>
<!-- JNetworkBootstrap3TooltipModule -->
<g id="node10" class="node">
<title>JNetworkBootstrap3TooltipModule</title>
<polygon fill="#8dd3c7" stroke="black" points="240.14,-122 237.14,-126 216.14,-126 213.14,-122 23.86,-122 23.86,-86 240.14,-86 240.14,-122"/>
<text text-anchor="middle" x="132" y="-99.8" font-family="Times,serif" font-size="14.00">JNetworkBootstrap3TooltipModule</text>
</g>
<!-- JNetworkBootstrap3TooltipModule&#45;&gt;JNetworkBootstrap3InputModule -->
<g id="edge9" class="edge">
<title>JNetworkBootstrap3TooltipModule&#45;&gt;JNetworkBootstrap3InputModule</title>
<path fill="none" stroke="black" d="M195.76,-122.22C195.76,-140.83 195.76,-167 195.76,-167 195.76,-167 802.33,-167 802.33,-167"/>
<polygon fill="black" stroke="black" points="802.33,-170.5 812.33,-167 802.33,-163.5 802.33,-170.5"/>
</g>
</g>
</svg>
