<?xml version="1.0" encoding="UTF-8" standalone="no"?>
<!DOCTYPE svg PUBLIC "-//W3C//DTD SVG 1.1//EN"
 "http://www.w3.org/Graphics/SVG/1.1/DTD/svg11.dtd">
<!-- Generated by graphviz version 2.47.3 (20210619.1520)
 -->
<!-- Title: dependencies Pages: 1 -->
<svg width="1739pt" height="247pt"
 viewBox="0.00 0.00 1739.00 246.80" xmlns="http://www.w3.org/2000/svg" xmlns:xlink="http://www.w3.org/1999/xlink">
<g id="graph0" class="graph" transform="scale(1 1) rotate(0) translate(4 242.8)">
<title>dependencies</title>
<polygon fill="white" stroke="transparent" points="-4,4 -4,-242.8 1735,-242.8 1735,4 -4,4"/>
<text text-anchor="middle" x="865.5" y="-8.2" font-family="sans-serif" font-size="14.00">dependencies</text>
<g id="clust1" class="cluster">
<title>cluster_JNetworkBootstrap3InputModule</title>
<polygon fill="none" stroke="black" stroke-dasharray="1,5" points="8,-32.8 8,-230.8 1723,-230.8 1723,-32.8 8,-32.8"/>
</g>
<g id="clust12" class="cluster">
<title>cluster_JNetworkBootstrap3InputModule_exports</title>
<polygon fill="none" stroke="black" points="143,-170.8 143,-222.8 1628,-222.8 1628,-170.8 143,-170.8"/>
</g>
<g id="clust2" class="cluster">
<title>cluster_JNetworkBootstrap3InputModule_declarations</title>
<polygon fill="none" stroke="black" points="256,-40.8 256,-92.8 1715,-92.8 1715,-40.8 256,-40.8"/>
</g>
<g id="clust11" class="cluster">
<title>cluster_JNetworkBootstrap3InputModule_imports</title>
<polygon fill="none" stroke="black" points="16,-40.8 16,-92.8 248,-92.8 248,-40.8 16,-40.8"/>
</g>
<!-- NgInputAreaComponent -->
<g id="node1" class="node">
<title>NgInputAreaComponent</title>
<polygon fill="#ffffb3" stroke="black" points="1706.69,-84.8 1551.31,-84.8 1551.31,-48.8 1706.69,-48.8 1706.69,-84.8"/>
<text text-anchor="middle" x="1629" y="-62.6" font-family="Times,serif" font-size="14.00">NgInputAreaComponent</text>
</g>
<!-- JNetworkBootstrap3InputModule -->
<g id="node9" class="node">
<title>JNetworkBootstrap3InputModule</title>
<polygon fill="#8dd3c7" stroke="black" points="1017.46,-149.8 1014.46,-153.8 993.46,-153.8 990.46,-149.8 812.54,-149.8 812.54,-113.8 1017.46,-113.8 1017.46,-149.8"/>
<text text-anchor="middle" x="915" y="-127.6" font-family="Times,serif" font-size="14.00">JNetworkBootstrap3InputModule</text>
</g>
<!-- NgInputAreaComponent&#45;&gt;JNetworkBootstrap3InputModule -->
<g id="edge1" class="edge">
<title>NgInputAreaComponent&#45;&gt;JNetworkBootstrap3InputModule</title>
<path fill="none" stroke="black" d="M1585.88,-85.02C1585.88,-103.63 1585.88,-129.8 1585.88,-129.8 1585.88,-129.8 1027.62,-129.8 1027.62,-129.8"/>
<polygon fill="black" stroke="black" points="1027.62,-126.3 1017.62,-129.8 1027.62,-133.3 1027.62,-126.3"/>
</g>
<!-- NgInputComponent -->
<g id="node2" class="node">
<title>NgInputComponent</title>
<polygon fill="#ffffb3" stroke="black" points="1532.99,-84.8 1405.01,-84.8 1405.01,-48.8 1532.99,-48.8 1532.99,-84.8"/>
<text text-anchor="middle" x="1469" y="-62.6" font-family="Times,serif" font-size="14.00">NgInputComponent</text>
</g>
<!-- NgInputComponent&#45;&gt;JNetworkBootstrap3InputModule -->
<g id="edge2" class="edge">
<title>NgInputComponent&#45;&gt;JNetworkBootstrap3InputModule</title>
<path fill="none" stroke="black" d="M1424.38,-84.83C1424.38,-101.86 1424.38,-124.8 1424.38,-124.8 1424.38,-124.8 1027.47,-124.8 1027.47,-124.8"/>
<polygon fill="black" stroke="black" points="1027.47,-121.3 1017.47,-124.8 1027.47,-128.3 1027.47,-121.3"/>
</g>
<!-- NgInputCurrencyComponent -->
<g id="node3" class="node">
<title>NgInputCurrencyComponent</title>
<polygon fill="#ffffb3" stroke="black" points="1387.08,-84.8 1206.92,-84.8 1206.92,-48.8 1387.08,-48.8 1387.08,-84.8"/>
<text text-anchor="middle" x="1297" y="-62.6" font-family="Times,serif" font-size="14.00">NgInputCurrencyComponent</text>
</g>
<!-- NgInputCurrencyComponent&#45;&gt;JNetworkBootstrap3InputModule -->
<g id="edge3" class="edge">
<title>NgInputCurrencyComponent&#45;&gt;JNetworkBootstrap3InputModule</title>
<path fill="none" stroke="black" d="M1250.38,-85.04C1250.38,-100.37 1250.38,-119.8 1250.38,-119.8 1250.38,-119.8 1027.9,-119.8 1027.9,-119.8"/>
<polygon fill="black" stroke="black" points="1027.9,-116.3 1017.9,-119.8 1027.9,-123.3 1027.9,-116.3"/>
</g>
<!-- NgInputDecimalComponent -->
<g id="node4" class="node">
<title>NgInputDecimalComponent</title>
<polygon fill="#ffffb3" stroke="black" points="1188.91,-84.8 1013.09,-84.8 1013.09,-48.8 1188.91,-48.8 1188.91,-84.8"/>
<text text-anchor="middle" x="1101" y="-62.6" font-family="Times,serif" font-size="14.00">NgInputDecimalComponent</text>
</g>
<!-- NgInputDecimalComponent&#45;&gt;JNetworkBootstrap3InputModule -->
<g id="edge4" class="edge">
<title>NgInputDecimalComponent&#45;&gt;JNetworkBootstrap3InputModule</title>
<path fill="none" stroke="black" d="M1013.07,-66.8C1007.76,-66.8 1004.5,-66.8 1004.5,-66.8 1004.5,-66.8 1004.5,-103.69 1004.5,-103.69"/>
<polygon fill="black" stroke="black" points="1001,-103.69 1004.5,-113.69 1008,-103.69 1001,-103.69"/>
</g>
<!-- NgInputEmailComponent -->
<g id="node5" class="node">
<title>NgInputEmailComponent</title>
<polygon fill="#ffffb3" stroke="black" points="995.93,-84.8 834.07,-84.8 834.07,-48.8 995.93,-48.8 995.93,-84.8"/>
<text text-anchor="middle" x="915" y="-62.6" font-family="Times,serif" font-size="14.00">NgInputEmailComponent</text>
</g>
<!-- NgInputEmailComponent&#45;&gt;JNetworkBootstrap3InputModule -->
<g id="edge5" class="edge">
<title>NgInputEmailComponent&#45;&gt;JNetworkBootstrap3InputModule</title>
<path fill="none" stroke="black" d="M915,-84.91C915,-84.91 915,-103.79 915,-103.79"/>
<polygon fill="black" stroke="black" points="911.5,-103.79 915,-113.79 918.5,-103.79 911.5,-103.79"/>
</g>
<!-- NgInputIntegerComponent -->
<g id="node6" class="node">
<title>NgInputIntegerComponent</title>
<polygon fill="#ffffb3" stroke="black" points="815.63,-84.8 648.37,-84.8 648.37,-48.8 815.63,-48.8 815.63,-84.8"/>
<text text-anchor="middle" x="732" y="-62.6" font-family="Times,serif" font-size="14.00">NgInputIntegerComponent</text>
</g>
<!-- NgInputIntegerComponent&#45;&gt;JNetworkBootstrap3InputModule -->
<g id="edge6" class="edge">
<title>NgInputIntegerComponent&#45;&gt;JNetworkBootstrap3InputModule</title>
<path fill="none" stroke="black" d="M815.79,-66.8C821.5,-66.8 825.05,-66.8 825.05,-66.8 825.05,-66.8 825.05,-103.69 825.05,-103.69"/>
<polygon fill="black" stroke="black" points="821.55,-103.69 825.05,-113.69 828.55,-103.69 821.55,-103.69"/>
</g>
<!-- NgInputPasswordComponent -->
<g id="node7" class="node">
<title>NgInputPasswordComponent</title>
<polygon fill="#ffffb3" stroke="black" points="629.64,-84.8 448.36,-84.8 448.36,-48.8 629.64,-48.8 629.64,-84.8"/>
<text text-anchor="middle" x="539" y="-62.6" font-family="Times,serif" font-size="14.00">NgInputPasswordComponent</text>
</g>
<!-- NgInputPasswordComponent&#45;&gt;JNetworkBootstrap3InputModule -->
<g id="edge7" class="edge">
<title>NgInputPasswordComponent&#45;&gt;JNetworkBootstrap3InputModule</title>
<path fill="none" stroke="black" d="M585.63,-85.04C585.63,-100.37 585.63,-119.8 585.63,-119.8 585.63,-119.8 802.14,-119.8 802.14,-119.8"/>
<polygon fill="black" stroke="black" points="802.14,-123.3 812.14,-119.8 802.14,-116.3 802.14,-123.3"/>
</g>
<!-- NgInputSearchComponent -->
<g id="node8" class="node">
<title>NgInputSearchComponent</title>
<polygon fill="#ffffb3" stroke="black" points="430.08,-84.8 263.92,-84.8 263.92,-48.8 430.08,-48.8 430.08,-84.8"/>
<text text-anchor="middle" x="347" y="-62.6" font-family="Times,serif" font-size="14.00">NgInputSearchComponent</text>
</g>
<!-- NgInputSearchComponent&#45;&gt;JNetworkBootstrap3InputModule -->
<g id="edge8" class="edge">
<title>NgInputSearchComponent&#45;&gt;JNetworkBootstrap3InputModule</title>
<path fill="none" stroke="black" d="M384.23,-84.83C384.23,-101.86 384.23,-124.8 384.23,-124.8 384.23,-124.8 802.35,-124.8 802.35,-124.8"/>
<polygon fill="black" stroke="black" points="802.35,-128.3 812.35,-124.8 802.35,-121.3 802.35,-128.3"/>
</g>
<!-- NgInputAreaComponent  -->
<g id="node11" class="node">
<title>NgInputAreaComponent </title>
<polygon fill="#fb8072" stroke="black" points="1620.19,-214.8 1461.81,-214.8 1461.81,-178.8 1620.19,-178.8 1620.19,-214.8"/>
<text text-anchor="middle" x="1541" y="-192.6" font-family="Times,serif" font-size="14.00">NgInputAreaComponent </text>
</g>
<!-- JNetworkBootstrap3InputModule&#45;&gt;NgInputAreaComponent  -->
<g id="edge10" class="edge">
<title>JNetworkBootstrap3InputModule&#45;&gt;NgInputAreaComponent </title>
<path fill="none" stroke="black" stroke-dasharray="5,2" d="M1017.77,-134.8C1184.94,-134.8 1497.33,-134.8 1497.33,-134.8 1497.33,-134.8 1497.33,-168.53 1497.33,-168.53"/>
<polygon fill="black" stroke="black" points="1493.83,-168.53 1497.33,-178.53 1500.83,-168.53 1493.83,-168.53"/>
</g>
<!-- NgInputComponent  -->
<g id="node12" class="node">
<title>NgInputComponent </title>
<polygon fill="#fb8072" stroke="black" points="1443.99,-214.8 1312.01,-214.8 1312.01,-178.8 1443.99,-178.8 1443.99,-214.8"/>
<text text-anchor="middle" x="1378" y="-192.6" font-family="Times,serif" font-size="14.00">NgInputComponent </text>
</g>
<!-- JNetworkBootstrap3InputModule&#45;&gt;NgInputComponent  -->
<g id="edge11" class="edge">
<title>JNetworkBootstrap3InputModule&#45;&gt;NgInputComponent </title>
<path fill="none" stroke="black" stroke-dasharray="5,2" d="M1017.73,-139.8C1146.25,-139.8 1349.65,-139.8 1349.65,-139.8 1349.65,-139.8 1349.65,-168.76 1349.65,-168.76"/>
<polygon fill="black" stroke="black" points="1346.15,-168.76 1349.65,-178.76 1353.15,-168.76 1346.15,-168.76"/>
</g>
<!-- NgInputCurrencyComponent  -->
<g id="node13" class="node">
<title>NgInputCurrencyComponent </title>
<polygon fill="#fb8072" stroke="black" points="1293.58,-214.8 1110.42,-214.8 1110.42,-178.8 1293.58,-178.8 1293.58,-214.8"/>
<text text-anchor="middle" x="1202" y="-192.6" font-family="Times,serif" font-size="14.00">NgInputCurrencyComponent </text>
</g>
<!-- JNetworkBootstrap3InputModule&#45;&gt;NgInputCurrencyComponent  -->
<g id="edge12" class="edge">
<title>JNetworkBootstrap3InputModule&#45;&gt;NgInputCurrencyComponent </title>
<path fill="none" stroke="black" stroke-dasharray="5,2" d="M1017.5,-144.8C1080.59,-144.8 1149.46,-144.8 1149.46,-144.8 1149.46,-144.8 1149.46,-168.61 1149.46,-168.61"/>
<polygon fill="black" stroke="black" points="1145.96,-168.61 1149.46,-178.61 1152.96,-168.61 1145.96,-168.61"/>
</g>
<!-- NgInputDecimalComponent  -->
<g id="node14" class="node">
<title>NgInputDecimalComponent </title>
<polygon fill="#fb8072" stroke="black" points="1092.41,-214.8 913.59,-214.8 913.59,-178.8 1092.41,-178.8 1092.41,-214.8"/>
<text text-anchor="middle" x="1003" y="-192.6" font-family="Times,serif" font-size="14.00">NgInputDecimalComponent </text>
</g>
<!-- JNetworkBootstrap3InputModule&#45;&gt;NgInputDecimalComponent  -->
<g id="edge13" class="edge">
<title>JNetworkBootstrap3InputModule&#45;&gt;NgInputDecimalComponent </title>
<path fill="none" stroke="black" stroke-dasharray="5,2" d="M965.51,-149.91C965.51,-149.91 965.51,-168.79 965.51,-168.79"/>
<polygon fill="black" stroke="black" points="962.01,-168.79 965.51,-178.79 969.01,-168.79 962.01,-168.79"/>
</g>
<!-- NgInputEmailComponent  -->
<g id="node15" class="node">
<title>NgInputEmailComponent </title>
<polygon fill="#fb8072" stroke="black" points="895.43,-214.8 730.57,-214.8 730.57,-178.8 895.43,-178.8 895.43,-214.8"/>
<text text-anchor="middle" x="813" y="-192.6" font-family="Times,serif" font-size="14.00">NgInputEmailComponent </text>
</g>
<!-- JNetworkBootstrap3InputModule&#45;&gt;NgInputEmailComponent  -->
<g id="edge14" class="edge">
<title>JNetworkBootstrap3InputModule&#45;&gt;NgInputEmailComponent </title>
<path fill="none" stroke="black" stroke-dasharray="5,2" d="M853.99,-149.91C853.99,-149.91 853.99,-168.79 853.99,-168.79"/>
<polygon fill="black" stroke="black" points="850.49,-168.79 853.99,-178.79 857.49,-168.79 850.49,-168.79"/>
</g>
<!-- NgInputIntegerComponent  -->
<g id="node16" class="node">
<title>NgInputIntegerComponent </title>
<polygon fill="#fb8072" stroke="black" points="712.63,-214.8 541.37,-214.8 541.37,-178.8 712.63,-178.8 712.63,-214.8"/>
<text text-anchor="middle" x="627" y="-192.6" font-family="Times,serif" font-size="14.00">NgInputIntegerComponent </text>
</g>
<!-- JNetworkBootstrap3InputModule&#45;&gt;NgInputIntegerComponent  -->
<g id="edge15" class="edge">
<title>JNetworkBootstrap3InputModule&#45;&gt;NgInputIntegerComponent </title>
<path fill="none" stroke="black" stroke-dasharray="5,2" d="M812.43,-144.8C749.3,-144.8 680.38,-144.8 680.38,-144.8 680.38,-144.8 680.38,-168.61 680.38,-168.61"/>
<polygon fill="black" stroke="black" points="676.88,-168.61 680.38,-178.61 683.88,-168.61 676.88,-168.61"/>
</g>
<!-- NgInputPasswordComponent  -->
<g id="node17" class="node">
<title>NgInputPasswordComponent </title>
<polygon fill="#fb8072" stroke="black" points="523.64,-214.8 338.36,-214.8 338.36,-178.8 523.64,-178.8 523.64,-214.8"/>
<text text-anchor="middle" x="431" y="-192.6" font-family="Times,serif" font-size="14.00">NgInputPasswordComponent </text>
</g>
<!-- JNetworkBootstrap3InputModule&#45;&gt;NgInputPasswordComponent  -->
<g id="edge16" class="edge">
<title>JNetworkBootstrap3InputModule&#45;&gt;NgInputPasswordComponent </title>
<path fill="none" stroke="black" stroke-dasharray="5,2" d="M812.49,-139.8C685.55,-139.8 485.88,-139.8 485.88,-139.8 485.88,-139.8 485.88,-168.76 485.88,-168.76"/>
<polygon fill="black" stroke="black" points="482.38,-168.76 485.88,-178.76 489.38,-168.76 482.38,-168.76"/>
</g>
<!-- NgInputSearchComponent  -->
<g id="node18" class="node">
<title>NgInputSearchComponent </title>
<polygon fill="#fb8072" stroke="black" points="320.58,-214.8 151.42,-214.8 151.42,-178.8 320.58,-178.8 320.58,-214.8"/>
<text text-anchor="middle" x="236" y="-192.6" font-family="Times,serif" font-size="14.00">NgInputSearchComponent </text>
</g>
<!-- JNetworkBootstrap3InputModule&#45;&gt;NgInputSearchComponent  -->
<g id="edge17" class="edge">
<title>JNetworkBootstrap3InputModule&#45;&gt;NgInputSearchComponent </title>
<path fill="none" stroke="black" stroke-dasharray="5,2" d="M812.53,-134.8C635.79,-134.8 292.38,-134.8 292.38,-134.8 292.38,-134.8 292.38,-168.53 292.38,-168.53"/>
<polygon fill="black" stroke="black" points="288.88,-168.53 292.38,-178.53 295.88,-168.53 288.88,-168.53"/>
</g>
<!-- JNetworkBootstrap3TooltipModule -->
<g id="node10" class="node">
<title>JNetworkBootstrap3TooltipModule</title>
<polygon fill="#8dd3c7" stroke="black" points="240.14,-84.8 237.14,-88.8 216.14,-88.8 213.14,-84.8 23.86,-84.8 23.86,-48.8 240.14,-48.8 240.14,-84.8"/>
<text text-anchor="middle" x="132" y="-62.6" font-family="Times,serif" font-size="14.00">JNetworkBootstrap3TooltipModule</text>
</g>
<!-- JNetworkBootstrap3TooltipModule&#45;&gt;JNetworkBootstrap3InputModule -->
<g id="edge9" class="edge">
<title>JNetworkBootstrap3TooltipModule&#45;&gt;JNetworkBootstrap3InputModule</title>
<path fill="none" stroke="black" d="M195.76,-85.02C195.76,-103.63 195.76,-129.8 195.76,-129.8 195.76,-129.8 802.33,-129.8 802.33,-129.8"/>
<polygon fill="black" stroke="black" points="802.33,-133.3 812.33,-129.8 802.33,-126.3 802.33,-133.3"/>
</g>
</g>
</svg>
