<?xml version="1.0" encoding="UTF-8" standalone="no"?>
<!DOCTYPE svg PUBLIC "-//W3C//DTD SVG 1.1//EN"
 "http://www.w3.org/Graphics/SVG/1.1/DTD/svg11.dtd">
<!-- Generated by graphviz version 2.47.3 (20210619.1520)
 -->
<!-- Title: dependencies Pages: 1 -->
<svg width="1105pt" height="174pt"
 viewBox="0.00 0.00 1105.00 173.80" xmlns="http://www.w3.org/2000/svg" xmlns:xlink="http://www.w3.org/1999/xlink">
<g id="graph0" class="graph" transform="scale(1 1) rotate(0) translate(4 169.8)">
<title>dependencies</title>
<polygon fill="white" stroke="transparent" points="-4,4 -4,-169.8 1101,-169.8 1101,4 -4,4"/>
<text text-anchor="middle" x="548.5" y="-8.2" font-family="sans-serif" font-size="14.00">dependencies</text>
<g id="clust1" class="cluster">
<title>cluster_TabsModule</title>
<polygon fill="none" stroke="black" stroke-dasharray="1,5" points="8,-32.8 8,-157.8 1089,-157.8 1089,-32.8 8,-32.8"/>
</g>
<g id="clust2" class="cluster">
<title>cluster_TabsModule_declarations</title>
<polygon fill="none" stroke="black" points="923,-40.8 923,-92.8 1081,-92.8 1081,-40.8 923,-40.8"/>
</g>
<g id="clust4" class="cluster">
<title>cluster_TabsModule_imports</title>
<polygon fill="none" stroke="black" points="16,-40.8 16,-92.8 915,-92.8 915,-40.8 16,-40.8"/>
</g>
<!-- DemoTabsComponent -->
<g id="node1" class="node">
<title>DemoTabsComponent</title>
<polygon fill="#ffffb3" stroke="black" points="1073.26,-84.8 930.74,-84.8 930.74,-48.8 1073.26,-48.8 1073.26,-84.8"/>
<text text-anchor="middle" x="1002" y="-62.6" font-family="Times,serif" font-size="14.00">DemoTabsComponent</text>
</g>
<!-- TabsModule -->
<g id="node2" class="node">
<title>TabsModule</title>
<polygon fill="#8dd3c7" stroke="black" points="625.26,-149.8 622.26,-153.8 601.26,-153.8 598.26,-149.8 538.74,-149.8 538.74,-113.8 625.26,-113.8 625.26,-149.8"/>
<text text-anchor="middle" x="582" y="-127.6" font-family="Times,serif" font-size="14.00">TabsModule</text>
</g>
<!-- DemoTabsComponent&#45;&gt;TabsModule -->
<g id="edge1" class="edge">
<title>DemoTabsComponent&#45;&gt;TabsModule</title>
<path fill="none" stroke="black" d="M1002,-85.08C1002,-106.12 1002,-137.8 1002,-137.8 1002,-137.8 635.37,-137.8 635.37,-137.8"/>
<polygon fill="black" stroke="black" points="635.37,-134.3 625.37,-137.8 635.37,-141.3 635.37,-134.3"/>
</g>
<!-- JNetworkBootstrap4FormModule -->
<g id="node3" class="node">
<title>JNetworkBootstrap4FormModule</title>
<polygon fill="#8dd3c7" stroke="black" points="906.74,-84.8 903.74,-88.8 882.74,-88.8 879.74,-84.8 701.26,-84.8 701.26,-48.8 906.74,-48.8 906.74,-84.8"/>
<text text-anchor="middle" x="804" y="-62.6" font-family="Times,serif" font-size="14.00">JNetworkBootstrap4FormModule</text>
</g>
<!-- JNetworkBootstrap4FormModule&#45;&gt;TabsModule -->
<g id="edge2" class="edge">
<title>JNetworkBootstrap4FormModule&#45;&gt;TabsModule</title>
<path fill="none" stroke="black" d="M804,-84.82C804,-102.17 804,-125.8 804,-125.8 804,-125.8 635.33,-125.8 635.33,-125.8"/>
<polygon fill="black" stroke="black" points="635.33,-122.3 625.33,-125.8 635.33,-129.3 635.33,-122.3"/>
</g>
<!-- JNetworkBootstrap4TabsModule -->
<g id="node4" class="node">
<title>JNetworkBootstrap4TabsModule</title>
<polygon fill="#8dd3c7" stroke="black" points="683.12,-84.8 680.12,-88.8 659.12,-88.8 656.12,-84.8 480.88,-84.8 480.88,-48.8 683.12,-48.8 683.12,-84.8"/>
<text text-anchor="middle" x="582" y="-62.6" font-family="Times,serif" font-size="14.00">JNetworkBootstrap4TabsModule</text>
</g>
<!-- JNetworkBootstrap4TabsModule&#45;&gt;TabsModule -->
<g id="edge3" class="edge">
<title>JNetworkBootstrap4TabsModule&#45;&gt;TabsModule</title>
<path fill="none" stroke="black" d="M567.54,-84.91C567.54,-84.91 567.54,-103.79 567.54,-103.79"/>
<polygon fill="black" stroke="black" points="564.04,-103.79 567.54,-113.79 571.04,-103.79 564.04,-103.79"/>
</g>
<!-- JNetworkBootstrap4TabsModule&#45;&gt;TabsModule -->
<g id="edge4" class="edge">
<title>JNetworkBootstrap4TabsModule&#45;&gt;TabsModule</title>
<path fill="none" stroke="black" d="M596.46,-84.91C596.46,-84.91 596.46,-103.79 596.46,-103.79"/>
<polygon fill="black" stroke="black" points="592.96,-103.79 596.46,-113.79 599.96,-103.79 592.96,-103.79"/>
</g>
<!-- JNetworkBootstrap4ValidationSummaryModule -->
<g id="node5" class="node">
<title>JNetworkBootstrap4ValidationSummaryModule</title>
<polygon fill="#8dd3c7" stroke="black" points="462.45,-84.8 459.45,-88.8 438.45,-88.8 435.45,-84.8 173.55,-84.8 173.55,-48.8 462.45,-48.8 462.45,-84.8"/>
<text text-anchor="middle" x="318" y="-62.6" font-family="Times,serif" font-size="14.00">JNetworkBootstrap4ValidationSummaryModule</text>
</g>
<!-- JNetworkBootstrap4ValidationSummaryModule&#45;&gt;TabsModule -->
<g id="edge5" class="edge">
<title>JNetworkBootstrap4ValidationSummaryModule&#45;&gt;TabsModule</title>
<path fill="none" stroke="black" d="M318,-84.82C318,-102.17 318,-125.8 318,-125.8 318,-125.8 528.7,-125.8 528.7,-125.8"/>
<polygon fill="black" stroke="black" points="528.7,-129.3 538.7,-125.8 528.7,-122.3 528.7,-129.3"/>
</g>
<!-- TabsRoutingModule -->
<g id="node6" class="node">
<title>TabsRoutingModule</title>
<polygon fill="#8dd3c7" stroke="black" points="155.88,-84.8 152.88,-88.8 131.88,-88.8 128.88,-84.8 24.12,-84.8 24.12,-48.8 155.88,-48.8 155.88,-84.8"/>
<text text-anchor="middle" x="90" y="-62.6" font-family="Times,serif" font-size="14.00">TabsRoutingModule</text>
</g>
<!-- TabsRoutingModule&#45;&gt;TabsModule -->
<g id="edge6" class="edge">
<title>TabsRoutingModule&#45;&gt;TabsModule</title>
<path fill="none" stroke="black" d="M90,-85.08C90,-106.12 90,-137.8 90,-137.8 90,-137.8 528.34,-137.8 528.34,-137.8"/>
<polygon fill="black" stroke="black" points="528.34,-141.3 538.34,-137.8 528.34,-134.3 528.34,-141.3"/>
</g>
</g>
</svg>
