<?xml version="1.0" encoding="UTF-8" standalone="no"?>
<!DOCTYPE svg PUBLIC "-//W3C//DTD SVG 1.1//EN"
 "http://www.w3.org/Graphics/SVG/1.1/DTD/svg11.dtd">
<!-- Generated by graphviz version 2.47.3 (20210619.1520)
 -->
<!-- Title: dependencies Pages: 1 -->
<svg width="760pt" height="312pt"
 viewBox="0.00 0.00 760.00 311.80" xmlns="http://www.w3.org/2000/svg" xmlns:xlink="http://www.w3.org/1999/xlink">
<g id="graph0" class="graph" transform="scale(1 1) rotate(0) translate(4 307.8)">
<title>dependencies</title>
<polygon fill="white" stroke="transparent" points="-4,4 -4,-307.8 756,-307.8 756,4 -4,4"/>
<text text-anchor="middle" x="376" y="-8.2" font-family="sans-serif" font-size="14.00">dependencies</text>
<g id="clust1" class="cluster">
<title>cluster_JNetworkBootstrap4WizardModule</title>
<polygon fill="none" stroke="black" stroke-dasharray="1,5" points="8,-32.8 8,-295.8 744,-295.8 744,-32.8 8,-32.8"/>
</g>
<g id="clust2" class="cluster">
<title>cluster_JNetworkBootstrap4WizardModule_declarations</title>
<polygon fill="none" stroke="black" points="115,-105.8 115,-157.8 454,-157.8 454,-105.8 115,-105.8"/>
</g>
<g id="clust6" class="cluster">
<title>cluster_JNetworkBootstrap4WizardModule_exports</title>
<polygon fill="none" stroke="black" points="84,-235.8 84,-287.8 430,-287.8 430,-235.8 84,-235.8"/>
</g>
<g id="clust3" class="cluster">
<title>cluster_JNetworkBootstrap4WizardModule_NgWizardComponent_providers</title>
<polygon fill="none" stroke="black" points="16,-40.8 16,-92.8 736,-92.8 736,-40.8 16,-40.8"/>
</g>
<!-- NgWizardComponent -->
<g id="node1" class="node">
<title>NgWizardComponent</title>
<polygon fill="#ffffb3" stroke="black" points="445.63,-149.8 306.37,-149.8 306.37,-113.8 445.63,-113.8 445.63,-149.8"/>
<text text-anchor="middle" x="376" y="-127.6" font-family="Times,serif" font-size="14.00">NgWizardComponent</text>
</g>
<!-- JNetworkBootstrap4WizardModule -->
<g id="node3" class="node">
<title>JNetworkBootstrap4WizardModule</title>
<polygon fill="#8dd3c7" stroke="black" points="352.11,-214.8 349.11,-218.8 328.11,-218.8 325.11,-214.8 135.89,-214.8 135.89,-178.8 352.11,-178.8 352.11,-214.8"/>
<text text-anchor="middle" x="244" y="-192.6" font-family="Times,serif" font-size="14.00">JNetworkBootstrap4WizardModule</text>
</g>
<!-- NgWizardComponent&#45;&gt;JNetworkBootstrap4WizardModule -->
<g id="edge1" class="edge">
<title>NgWizardComponent&#45;&gt;JNetworkBootstrap4WizardModule</title>
<path fill="none" stroke="black" d="M329.24,-149.91C329.24,-149.91 329.24,-168.79 329.24,-168.79"/>
<polygon fill="black" stroke="black" points="325.74,-168.79 329.24,-178.79 332.74,-168.79 325.74,-168.79"/>
</g>
<!-- NgWizardItemComponent -->
<g id="node2" class="node">
<title>NgWizardItemComponent</title>
<polygon fill="#ffffb3" stroke="black" points="288.79,-149.8 123.21,-149.8 123.21,-113.8 288.79,-113.8 288.79,-149.8"/>
<text text-anchor="middle" x="206" y="-127.6" font-family="Times,serif" font-size="14.00">NgWizardItemComponent</text>
</g>
<!-- NgWizardItemComponent&#45;&gt;JNetworkBootstrap4WizardModule -->
<g id="edge3" class="edge">
<title>NgWizardItemComponent&#45;&gt;JNetworkBootstrap4WizardModule</title>
<path fill="none" stroke="black" d="M212.17,-149.91C212.17,-149.91 212.17,-168.79 212.17,-168.79"/>
<polygon fill="black" stroke="black" points="208.67,-168.79 212.17,-178.79 215.67,-168.79 208.67,-168.79"/>
</g>
<!-- NgWizardComponent  -->
<g id="node5" class="node">
<title>NgWizardComponent </title>
<polygon fill="#fb8072" stroke="black" points="421.63,-279.8 278.37,-279.8 278.37,-243.8 421.63,-243.8 421.63,-279.8"/>
<text text-anchor="middle" x="350" y="-257.6" font-family="Times,serif" font-size="14.00">NgWizardComponent </text>
</g>
<!-- JNetworkBootstrap4WizardModule&#45;&gt;NgWizardComponent  -->
<g id="edge4" class="edge">
<title>JNetworkBootstrap4WizardModule&#45;&gt;NgWizardComponent </title>
<path fill="none" stroke="black" stroke-dasharray="5,2" d="M315.37,-214.91C315.37,-214.91 315.37,-233.79 315.37,-233.79"/>
<polygon fill="black" stroke="black" points="311.87,-233.79 315.37,-243.79 318.87,-233.79 311.87,-233.79"/>
</g>
<!-- NgWizardItemComponent  -->
<g id="node6" class="node">
<title>NgWizardItemComponent </title>
<polygon fill="#fb8072" stroke="black" points="260.29,-279.8 91.71,-279.8 91.71,-243.8 260.29,-243.8 260.29,-279.8"/>
<text text-anchor="middle" x="176" y="-257.6" font-family="Times,serif" font-size="14.00">NgWizardItemComponent </text>
</g>
<!-- JNetworkBootstrap4WizardModule&#45;&gt;NgWizardItemComponent  -->
<g id="edge5" class="edge">
<title>JNetworkBootstrap4WizardModule&#45;&gt;NgWizardItemComponent </title>
<path fill="none" stroke="black" stroke-dasharray="5,2" d="M198.05,-214.91C198.05,-214.91 198.05,-233.79 198.05,-233.79"/>
<polygon fill="black" stroke="black" points="194.55,-233.79 198.05,-243.79 201.55,-233.79 194.55,-233.79"/>
</g>
<!-- { provide: NG_VALUE_ACCESSOR, multi: true, useExisting: NgWizardComponent } -->
<g id="node4" class="node">
<title>{ provide: NG_VALUE_ACCESSOR, multi: true, useExisting: NgWizardComponent }</title>
<ellipse fill="#fdb462" stroke="black" cx="376" cy="-66.8" rx="351.59" ry="18"/>
<text text-anchor="middle" x="376" y="-62.6" font-family="Times,serif" font-size="14.00">{ provide: NG_VALUE_ACCESSOR, multi: true, useExisting: NgWizardComponent }</text>
</g>
<!-- { provide: NG_VALUE_ACCESSOR, multi: true, useExisting: NgWizardComponent }&#45;&gt;NgWizardComponent -->
<g id="edge2" class="edge">
<title>{ provide: NG_VALUE_ACCESSOR, multi: true, useExisting: NgWizardComponent }&#45;&gt;NgWizardComponent</title>
<path fill="none" stroke="black" d="M376,-84.91C376,-84.91 376,-103.79 376,-103.79"/>
<polygon fill="black" stroke="black" points="372.5,-103.79 376,-113.79 379.5,-103.79 372.5,-103.79"/>
</g>
</g>
</svg>
