<?xml version="1.0" encoding="UTF-8" standalone="no"?>
<!DOCTYPE svg PUBLIC "-//W3C//DTD SVG 1.1//EN"
 "http://www.w3.org/Graphics/SVG/1.1/DTD/svg11.dtd">
<!-- Generated by graphviz version 2.47.3 (20210619.1520)
 -->
<!-- Title: dependencies Pages: 1 -->
<svg width="386pt" height="247pt"
 viewBox="0.00 0.00 386.00 246.80" xmlns="http://www.w3.org/2000/svg" xmlns:xlink="http://www.w3.org/1999/xlink">
<g id="graph0" class="graph" transform="scale(1 1) rotate(0) translate(4 242.8)">
<title>dependencies</title>
<polygon fill="white" stroke="transparent" points="-4,4 -4,-242.8 382,-242.8 382,4 -4,4"/>
<text text-anchor="middle" x="189" y="-8.2" font-family="sans-serif" font-size="14.00">dependencies</text>
<g id="clust1" class="cluster">
<title>cluster_JNetworkBootstrap4WizardModule</title>
<polygon fill="none" stroke="black" stroke-dasharray="1,5" points="8,-32.8 8,-230.8 370,-230.8 370,-32.8 8,-32.8"/>
</g>
<g id="clust2" class="cluster">
<title>cluster_JNetworkBootstrap4WizardModule_declarations</title>
<polygon fill="none" stroke="black" points="19,-40.8 19,-92.8 358,-92.8 358,-40.8 19,-40.8"/>
</g>
<g id="clust6" class="cluster">
<title>cluster_JNetworkBootstrap4WizardModule_exports</title>
<polygon fill="none" stroke="black" points="16,-170.8 16,-222.8 362,-222.8 362,-170.8 16,-170.8"/>
</g>
<!-- NgWizardComponent -->
<g id="node1" class="node">
<title>NgWizardComponent</title>
<polygon fill="#ffffb3" stroke="black" points="349.63,-84.8 210.37,-84.8 210.37,-48.8 349.63,-48.8 349.63,-84.8"/>
<text text-anchor="middle" x="280" y="-62.6" font-family="Times,serif" font-size="14.00">NgWizardComponent</text>
</g>
<!-- JNetworkBootstrap4WizardModule -->
<g id="node3" class="node">
<title>JNetworkBootstrap4WizardModule</title>
<polygon fill="#8dd3c7" stroke="black" points="297.11,-149.8 294.11,-153.8 273.11,-153.8 270.11,-149.8 80.89,-149.8 80.89,-113.8 297.11,-113.8 297.11,-149.8"/>
<text text-anchor="middle" x="189" y="-127.6" font-family="Times,serif" font-size="14.00">JNetworkBootstrap4WizardModule</text>
</g>
<!-- NgWizardComponent&#45;&gt;JNetworkBootstrap4WizardModule -->
<g id="edge1" class="edge">
<title>NgWizardComponent&#45;&gt;JNetworkBootstrap4WizardModule</title>
<path fill="none" stroke="black" d="M253.74,-84.91C253.74,-84.91 253.74,-103.79 253.74,-103.79"/>
<polygon fill="black" stroke="black" points="250.24,-103.79 253.74,-113.79 257.24,-103.79 250.24,-103.79"/>
</g>
<!-- NgWizardItemComponent -->
<g id="node2" class="node">
<title>NgWizardItemComponent</title>
<polygon fill="#ffffb3" stroke="black" points="192.79,-84.8 27.21,-84.8 27.21,-48.8 192.79,-48.8 192.79,-84.8"/>
<text text-anchor="middle" x="110" y="-62.6" font-family="Times,serif" font-size="14.00">NgWizardItemComponent</text>
</g>
<!-- NgWizardItemComponent&#45;&gt;JNetworkBootstrap4WizardModule -->
<g id="edge2" class="edge">
<title>NgWizardItemComponent&#45;&gt;JNetworkBootstrap4WizardModule</title>
<path fill="none" stroke="black" d="M136.67,-84.91C136.67,-84.91 136.67,-103.79 136.67,-103.79"/>
<polygon fill="black" stroke="black" points="133.17,-103.79 136.67,-113.79 140.17,-103.79 133.17,-103.79"/>
</g>
<!-- NgWizardComponent  -->
<g id="node4" class="node">
<title>NgWizardComponent </title>
<polygon fill="#fb8072" stroke="black" points="353.63,-214.8 210.37,-214.8 210.37,-178.8 353.63,-178.8 353.63,-214.8"/>
<text text-anchor="middle" x="282" y="-192.6" font-family="Times,serif" font-size="14.00">NgWizardComponent </text>
</g>
<!-- JNetworkBootstrap4WizardModule&#45;&gt;NgWizardComponent  -->
<g id="edge3" class="edge">
<title>JNetworkBootstrap4WizardModule&#45;&gt;NgWizardComponent </title>
<path fill="none" stroke="black" stroke-dasharray="5,2" d="M253.87,-149.91C253.87,-149.91 253.87,-168.79 253.87,-168.79"/>
<polygon fill="black" stroke="black" points="250.37,-168.79 253.87,-178.79 257.37,-168.79 250.37,-168.79"/>
</g>
<!-- NgWizardItemComponent  -->
<g id="node5" class="node">
<title>NgWizardItemComponent </title>
<polygon fill="#fb8072" stroke="black" points="192.29,-214.8 23.71,-214.8 23.71,-178.8 192.29,-178.8 192.29,-214.8"/>
<text text-anchor="middle" x="108" y="-192.6" font-family="Times,serif" font-size="14.00">NgWizardItemComponent </text>
</g>
<!-- JNetworkBootstrap4WizardModule&#45;&gt;NgWizardItemComponent  -->
<g id="edge4" class="edge">
<title>JNetworkBootstrap4WizardModule&#45;&gt;NgWizardItemComponent </title>
<path fill="none" stroke="black" stroke-dasharray="5,2" d="M136.55,-149.91C136.55,-149.91 136.55,-168.79 136.55,-168.79"/>
<polygon fill="black" stroke="black" points="133.05,-168.79 136.55,-178.79 140.05,-168.79 133.05,-168.79"/>
</g>
</g>
</svg>
