<?xml version="1.0" encoding="UTF-8" standalone="no"?>
<!DOCTYPE svg PUBLIC "-//W3C//DTD SVG 1.1//EN"
 "http://www.w3.org/Graphics/SVG/1.1/DTD/svg11.dtd">
<!-- Generated by graphviz version 2.47.3 (20210619.1520)
 -->
<!-- Title: dependencies Pages: 1 -->
<svg width="603pt" height="247pt"
 viewBox="0.00 0.00 603.00 246.80" xmlns="http://www.w3.org/2000/svg" xmlns:xlink="http://www.w3.org/1999/xlink">
<g id="graph0" class="graph" transform="scale(1 1) rotate(0) translate(4 242.8)">
<title>dependencies</title>
<polygon fill="white" stroke="transparent" points="-4,4 -4,-242.8 599,-242.8 599,4 -4,4"/>
<text text-anchor="middle" x="297.5" y="-8.2" font-family="sans-serif" font-size="14.00">dependencies</text>
<g id="clust1" class="cluster">
<title>cluster_AppModule</title>
<polygon fill="none" stroke="black" stroke-dasharray="1,5" points="8,-32.8 8,-230.8 587,-230.8 587,-32.8 8,-32.8"/>
</g>
<g id="clust2" class="cluster">
<title>cluster_AppModule_declarations</title>
<polygon fill="none" stroke="black" points="457,-40.8 457,-92.8 579,-92.8 579,-40.8 457,-40.8"/>
</g>
<g id="clust4" class="cluster">
<title>cluster_AppModule_imports</title>
<polygon fill="none" stroke="black" points="16,-40.8 16,-92.8 449,-92.8 449,-40.8 16,-40.8"/>
</g>
<g id="clust6" class="cluster">
<title>cluster_AppModule_bootstrap</title>
<polygon fill="none" stroke="black" points="228,-170.8 228,-222.8 352,-222.8 352,-170.8 228,-170.8"/>
</g>
<!-- AppComponent -->
<g id="node1" class="node">
<title>AppComponent</title>
<polygon fill="#ffffb3" stroke="black" points="570.94,-84.8 465.06,-84.8 465.06,-48.8 570.94,-48.8 570.94,-84.8"/>
<text text-anchor="middle" x="518" y="-62.6" font-family="Times,serif" font-size="14.00">AppComponent</text>
</g>
<!-- AppModule -->
<g id="node2" class="node">
<title>AppModule</title>
<polygon fill="#8dd3c7" stroke="black" points="331.66,-149.8 328.66,-153.8 307.66,-153.8 304.66,-149.8 248.34,-149.8 248.34,-113.8 331.66,-113.8 331.66,-149.8"/>
<text text-anchor="middle" x="290" y="-127.6" font-family="Times,serif" font-size="14.00">AppModule</text>
</g>
<!-- AppComponent&#45;&gt;AppModule -->
<g id="edge1" class="edge">
<title>AppComponent&#45;&gt;AppModule</title>
<path fill="none" stroke="black" d="M518,-84.91C518,-104.14 518,-131.8 518,-131.8 518,-131.8 341.82,-131.8 341.82,-131.8"/>
<polygon fill="black" stroke="black" points="341.82,-128.3 331.82,-131.8 341.82,-135.3 341.82,-128.3"/>
</g>
<!-- AppComponent  -->
<g id="node6" class="node">
<title>AppComponent </title>
<polygon fill="#80b1d3" stroke="black" points="344.44,-214.8 235.56,-214.8 235.56,-178.8 344.44,-178.8 344.44,-214.8"/>
<text text-anchor="middle" x="290" y="-192.6" font-family="Times,serif" font-size="14.00">AppComponent </text>
</g>
<!-- AppModule&#45;&gt;AppComponent  -->
<g id="edge5" class="edge">
<title>AppModule&#45;&gt;AppComponent </title>
<path fill="none" stroke="black" stroke-dasharray="1,5" d="M290,-149.91C290,-149.91 290,-168.79 290,-168.79"/>
<polygon fill="black" stroke="black" points="286.5,-168.79 290,-178.79 293.5,-168.79 286.5,-168.79"/>
</g>
<!-- AppNavigationModule -->
<g id="node3" class="node">
<title>AppNavigationModule</title>
<polygon fill="#8dd3c7" stroke="black" points="440.86,-84.8 437.86,-88.8 416.86,-88.8 413.86,-84.8 295.14,-84.8 295.14,-48.8 440.86,-48.8 440.86,-84.8"/>
<text text-anchor="middle" x="368" y="-62.6" font-family="Times,serif" font-size="14.00">AppNavigationModule</text>
</g>
<!-- AppNavigationModule&#45;&gt;AppModule -->
<g id="edge2" class="edge">
<title>AppNavigationModule&#45;&gt;AppModule</title>
<path fill="none" stroke="black" d="M313.45,-84.91C313.45,-84.91 313.45,-103.79 313.45,-103.79"/>
<polygon fill="black" stroke="black" points="309.95,-103.79 313.45,-113.79 316.95,-103.79 309.95,-103.79"/>
</g>
<!-- AppRoutingModule -->
<g id="node4" class="node">
<title>AppRoutingModule</title>
<polygon fill="#8dd3c7" stroke="black" points="277.27,-84.8 274.27,-88.8 253.27,-88.8 250.27,-84.8 148.73,-84.8 148.73,-48.8 277.27,-48.8 277.27,-84.8"/>
<text text-anchor="middle" x="213" y="-62.6" font-family="Times,serif" font-size="14.00">AppRoutingModule</text>
</g>
<!-- AppRoutingModule&#45;&gt;AppModule -->
<g id="edge3" class="edge">
<title>AppRoutingModule&#45;&gt;AppModule</title>
<path fill="none" stroke="black" d="M262.78,-84.91C262.78,-84.91 262.78,-103.79 262.78,-103.79"/>
<polygon fill="black" stroke="black" points="259.28,-103.79 262.78,-113.79 266.28,-103.79 259.28,-103.79"/>
</g>
<!-- BrowserModule -->
<g id="node5" class="node">
<title>BrowserModule</title>
<polygon fill="#8dd3c7" stroke="black" points="130.47,-84.8 127.47,-88.8 106.47,-88.8 103.47,-84.8 23.53,-84.8 23.53,-48.8 130.47,-48.8 130.47,-84.8"/>
<text text-anchor="middle" x="77" y="-62.6" font-family="Times,serif" font-size="14.00">BrowserModule</text>
</g>
<!-- BrowserModule&#45;&gt;AppModule -->
<g id="edge4" class="edge">
<title>BrowserModule&#45;&gt;AppModule</title>
<path fill="none" stroke="black" d="M77,-84.91C77,-104.14 77,-131.8 77,-131.8 77,-131.8 238.17,-131.8 238.17,-131.8"/>
<polygon fill="black" stroke="black" points="238.17,-135.3 248.17,-131.8 238.17,-128.3 238.17,-135.3"/>
</g>
</g>
</svg>
