<?xml version="1.0" encoding="UTF-8" standalone="no"?>
<!DOCTYPE svg PUBLIC "-//W3C//DTD SVG 1.1//EN"
 "http://www.w3.org/Graphics/SVG/1.1/DTD/svg11.dtd">
<!-- Generated by graphviz version 2.47.3 (20210619.1520)
 -->
<!-- Title: dependencies Pages: 1 -->
<svg width="942pt" height="174pt"
 viewBox="0.00 0.00 942.00 173.80" xmlns="http://www.w3.org/2000/svg" xmlns:xlink="http://www.w3.org/1999/xlink">
<g id="graph0" class="graph" transform="scale(1 1) rotate(0) translate(4 169.8)">
<title>dependencies</title>
<polygon fill="white" stroke="transparent" points="-4,4 -4,-169.8 938,-169.8 938,4 -4,4"/>
<text text-anchor="middle" x="467" y="-8.2" font-family="sans-serif" font-size="14.00">dependencies</text>
<g id="clust1" class="cluster">
<title>cluster_ContextmenuModule</title>
<polygon fill="none" stroke="black" stroke-dasharray="1,5" points="8,-32.8 8,-157.8 926,-157.8 926,-32.8 8,-32.8"/>
</g>
<g id="clust2" class="cluster">
<title>cluster_ContextmenuModule_declarations</title>
<polygon fill="none" stroke="black" points="712,-40.8 712,-92.8 918,-92.8 918,-40.8 712,-40.8"/>
</g>
<g id="clust4" class="cluster">
<title>cluster_ContextmenuModule_imports</title>
<polygon fill="none" stroke="black" points="16,-40.8 16,-92.8 704,-92.8 704,-40.8 16,-40.8"/>
</g>
<!-- DemoContextmenuComponent -->
<g id="node1" class="node">
<title>DemoContextmenuComponent</title>
<polygon fill="#ffffb3" stroke="black" points="910.48,-84.8 719.52,-84.8 719.52,-48.8 910.48,-48.8 910.48,-84.8"/>
<text text-anchor="middle" x="815" y="-62.6" font-family="Times,serif" font-size="14.00">DemoContextmenuComponent</text>
</g>
<!-- ContextmenuModule -->
<g id="node2" class="node">
<title>ContextmenuModule</title>
<polygon fill="#8dd3c7" stroke="black" points="556.49,-149.8 553.49,-153.8 532.49,-153.8 529.49,-149.8 421.51,-149.8 421.51,-113.8 556.49,-113.8 556.49,-149.8"/>
<text text-anchor="middle" x="489" y="-127.6" font-family="Times,serif" font-size="14.00">ContextmenuModule</text>
</g>
<!-- DemoContextmenuComponent&#45;&gt;ContextmenuModule -->
<g id="edge1" class="edge">
<title>DemoContextmenuComponent&#45;&gt;ContextmenuModule</title>
<path fill="none" stroke="black" d="M815,-84.91C815,-104.14 815,-131.8 815,-131.8 815,-131.8 566.55,-131.8 566.55,-131.8"/>
<polygon fill="black" stroke="black" points="566.55,-128.3 556.55,-131.8 566.55,-135.3 566.55,-128.3"/>
</g>
<!-- ContextmenuRoutingModule -->
<g id="node3" class="node">
<title>ContextmenuRoutingModule</title>
<polygon fill="#8dd3c7" stroke="black" points="696.11,-84.8 693.11,-88.8 672.11,-88.8 669.11,-84.8 515.89,-84.8 515.89,-48.8 696.11,-48.8 696.11,-84.8"/>
<text text-anchor="middle" x="606" y="-62.6" font-family="Times,serif" font-size="14.00">ContextmenuRoutingModule</text>
</g>
<!-- ContextmenuRoutingModule&#45;&gt;ContextmenuModule -->
<g id="edge2" class="edge">
<title>ContextmenuRoutingModule&#45;&gt;ContextmenuModule</title>
<path fill="none" stroke="black" d="M536.22,-84.91C536.22,-84.91 536.22,-103.79 536.22,-103.79"/>
<polygon fill="black" stroke="black" points="532.72,-103.79 536.22,-113.79 539.72,-103.79 532.72,-103.79"/>
</g>
<!-- JNetworkBootstrap4ContextmenuModule -->
<g id="node4" class="node">
<title>JNetworkBootstrap4ContextmenuModule</title>
<polygon fill="#8dd3c7" stroke="black" points="498.35,-84.8 495.35,-88.8 474.35,-88.8 471.35,-84.8 247.65,-84.8 247.65,-48.8 498.35,-48.8 498.35,-84.8"/>
<text text-anchor="middle" x="373" y="-62.6" font-family="Times,serif" font-size="14.00">JNetworkBootstrap4ContextmenuModule</text>
</g>
<!-- JNetworkBootstrap4ContextmenuModule&#45;&gt;ContextmenuModule -->
<g id="edge3" class="edge">
<title>JNetworkBootstrap4ContextmenuModule&#45;&gt;ContextmenuModule</title>
<path fill="none" stroke="black" d="M459.97,-84.91C459.97,-84.91 459.97,-103.79 459.97,-103.79"/>
<polygon fill="black" stroke="black" points="456.47,-103.79 459.97,-113.79 463.47,-103.79 456.47,-103.79"/>
</g>
<!-- JNetworkBootstrap4FormModule -->
<g id="node5" class="node">
<title>JNetworkBootstrap4FormModule</title>
<polygon fill="#8dd3c7" stroke="black" points="229.74,-84.8 226.74,-88.8 205.74,-88.8 202.74,-84.8 24.26,-84.8 24.26,-48.8 229.74,-48.8 229.74,-84.8"/>
<text text-anchor="middle" x="127" y="-62.6" font-family="Times,serif" font-size="14.00">JNetworkBootstrap4FormModule</text>
</g>
<!-- JNetworkBootstrap4FormModule&#45;&gt;ContextmenuModule -->
<g id="edge4" class="edge">
<title>JNetworkBootstrap4FormModule&#45;&gt;ContextmenuModule</title>
<path fill="none" stroke="black" d="M127,-84.91C127,-104.14 127,-131.8 127,-131.8 127,-131.8 411.34,-131.8 411.34,-131.8"/>
<polygon fill="black" stroke="black" points="411.34,-135.3 421.34,-131.8 411.34,-128.3 411.34,-135.3"/>
</g>
</g>
</svg>
