<?xml version="1.0" encoding="UTF-8" standalone="no"?>
<!DOCTYPE svg PUBLIC "-//W3C//DTD SVG 1.1//EN"
 "http://www.w3.org/Graphics/SVG/1.1/DTD/svg11.dtd">
<!-- Generated by graphviz version 2.47.3 (20210619.1520)
 -->
<!-- Title: dependencies Pages: 1 -->
<svg width="672pt" height="247pt"
 viewBox="0.00 0.00 672.00 246.80" xmlns="http://www.w3.org/2000/svg" xmlns:xlink="http://www.w3.org/1999/xlink">
<g id="graph0" class="graph" transform="scale(1 1) rotate(0) translate(4 242.8)">
<title>dependencies</title>
<polygon fill="white" stroke="transparent" points="-4,4 -4,-242.8 668,-242.8 668,4 -4,4"/>
<text text-anchor="middle" x="332" y="-8.2" font-family="sans-serif" font-size="14.00">dependencies</text>
<g id="clust1" class="cluster">
<title>cluster_JNetworkBootstrap3ConfirmModule</title>
<polygon fill="none" stroke="black" stroke-dasharray="1,5" points="8,-32.8 8,-230.8 656,-230.8 656,-32.8 8,-32.8"/>
</g>
<g id="clust4" class="cluster">
<title>cluster_JNetworkBootstrap3ConfirmModule_imports</title>
<polygon fill="none" stroke="black" points="186,-40.8 186,-92.8 648,-92.8 648,-40.8 186,-40.8"/>
</g>
<g id="clust2" class="cluster">
<title>cluster_JNetworkBootstrap3ConfirmModule_declarations</title>
<polygon fill="none" stroke="black" points="16,-40.8 16,-92.8 178,-92.8 178,-40.8 16,-40.8"/>
</g>
<g id="clust5" class="cluster">
<title>cluster_JNetworkBootstrap3ConfirmModule_exports</title>
<polygon fill="none" stroke="black" points="218,-170.8 218,-222.8 384,-222.8 384,-170.8 218,-170.8"/>
</g>
<!-- NgConfirmComponent -->
<g id="node1" class="node">
<title>NgConfirmComponent</title>
<polygon fill="#ffffb3" stroke="black" points="169.88,-84.8 24.12,-84.8 24.12,-48.8 169.88,-48.8 169.88,-84.8"/>
<text text-anchor="middle" x="97" y="-62.6" font-family="Times,serif" font-size="14.00">NgConfirmComponent</text>
</g>
<!-- JNetworkBootstrap3ConfirmModule -->
<g id="node2" class="node">
<title>JNetworkBootstrap3ConfirmModule</title>
<polygon fill="#8dd3c7" stroke="black" points="412.35,-149.8 409.35,-153.8 388.35,-153.8 385.35,-149.8 189.65,-149.8 189.65,-113.8 412.35,-113.8 412.35,-149.8"/>
<text text-anchor="middle" x="301" y="-127.6" font-family="Times,serif" font-size="14.00">JNetworkBootstrap3ConfirmModule</text>
</g>
<!-- NgConfirmComponent&#45;&gt;JNetworkBootstrap3ConfirmModule -->
<g id="edge1" class="edge">
<title>NgConfirmComponent&#45;&gt;JNetworkBootstrap3ConfirmModule</title>
<path fill="none" stroke="black" d="M97,-84.91C97,-104.14 97,-131.8 97,-131.8 97,-131.8 179.45,-131.8 179.45,-131.8"/>
<polygon fill="black" stroke="black" points="179.45,-135.3 189.45,-131.8 179.45,-128.3 179.45,-135.3"/>
</g>
<!-- NgConfirmComponent  -->
<g id="node5" class="node">
<title>NgConfirmComponent </title>
<polygon fill="#fb8072" stroke="black" points="375.88,-214.8 226.12,-214.8 226.12,-178.8 375.88,-178.8 375.88,-214.8"/>
<text text-anchor="middle" x="301" y="-192.6" font-family="Times,serif" font-size="14.00">NgConfirmComponent </text>
</g>
<!-- JNetworkBootstrap3ConfirmModule&#45;&gt;NgConfirmComponent  -->
<g id="edge4" class="edge">
<title>JNetworkBootstrap3ConfirmModule&#45;&gt;NgConfirmComponent </title>
<path fill="none" stroke="black" stroke-dasharray="5,2" d="M301,-149.91C301,-149.91 301,-168.79 301,-168.79"/>
<polygon fill="black" stroke="black" points="297.5,-168.79 301,-178.79 304.5,-168.79 297.5,-168.79"/>
</g>
<!-- JNetworkBootstrap3ButtonModule -->
<g id="node3" class="node">
<title>JNetworkBootstrap3ButtonModule</title>
<polygon fill="#8dd3c7" stroke="black" points="639.53,-84.8 636.53,-88.8 615.53,-88.8 612.53,-84.8 426.47,-84.8 426.47,-48.8 639.53,-48.8 639.53,-84.8"/>
<text text-anchor="middle" x="533" y="-62.6" font-family="Times,serif" font-size="14.00">JNetworkBootstrap3ButtonModule</text>
</g>
<!-- JNetworkBootstrap3ButtonModule&#45;&gt;JNetworkBootstrap3ConfirmModule -->
<g id="edge2" class="edge">
<title>JNetworkBootstrap3ButtonModule&#45;&gt;JNetworkBootstrap3ConfirmModule</title>
<path fill="none" stroke="black" d="M533,-84.91C533,-104.14 533,-131.8 533,-131.8 533,-131.8 422.58,-131.8 422.58,-131.8"/>
<polygon fill="black" stroke="black" points="422.58,-128.3 412.58,-131.8 422.58,-135.3 422.58,-128.3"/>
</g>
<!-- JNetworkBootstrap3DialogModule -->
<g id="node4" class="node">
<title>JNetworkBootstrap3DialogModule</title>
<polygon fill="#8dd3c7" stroke="black" points="407.51,-84.8 404.51,-88.8 383.51,-88.8 380.51,-84.8 194.49,-84.8 194.49,-48.8 407.51,-48.8 407.51,-84.8"/>
<text text-anchor="middle" x="301" y="-62.6" font-family="Times,serif" font-size="14.00">JNetworkBootstrap3DialogModule</text>
</g>
<!-- JNetworkBootstrap3DialogModule&#45;&gt;JNetworkBootstrap3ConfirmModule -->
<g id="edge3" class="edge">
<title>JNetworkBootstrap3DialogModule&#45;&gt;JNetworkBootstrap3ConfirmModule</title>
<path fill="none" stroke="black" d="M301,-84.91C301,-84.91 301,-103.79 301,-103.79"/>
<polygon fill="black" stroke="black" points="297.5,-103.79 301,-113.79 304.5,-103.79 297.5,-103.79"/>
</g>
</g>
</svg>
