<?xml version="1.0" encoding="UTF-8" standalone="no"?>
<!DOCTYPE svg PUBLIC "-//W3C//DTD SVG 1.1//EN"
 "http://www.w3.org/Graphics/SVG/1.1/DTD/svg11.dtd">
<!-- Generated by graphviz version 2.40.1 (20161225.0304)
 -->
<!-- Title: dependencies Pages: 1 -->
<svg width="672pt" height="284pt"
 viewBox="0.00 0.00 672.00 284.00" xmlns="http://www.w3.org/2000/svg" xmlns:xlink="http://www.w3.org/1999/xlink">
<g id="graph0" class="graph" transform="scale(1 1) rotate(0) translate(4 280)">
<title>dependencies</title>
<polygon fill="#ffffff" stroke="transparent" points="-4,4 -4,-280 668,-280 668,4 -4,4"/>
<text text-anchor="start" x="311.0091" y="-42.4" font-family="sans-serif" font-weight="bold" font-size="14.00" fill="#000000">Legend</text>
<polygon fill="#ffffb3" stroke="transparent" points="98,-10 98,-30 118,-30 118,-10 98,-10"/>
<text text-anchor="start" x="121.629" y="-15.4" font-family="sans-serif" font-size="14.00" fill="#000000"> &#160;Declarations</text>
<polygon fill="#8dd3c7" stroke="transparent" points="211,-10 211,-30 231,-30 231,-10 211,-10"/>
<text text-anchor="start" x="234.7251" y="-15.4" font-family="sans-serif" font-size="14.00" fill="#000000"> &#160;Module</text>
<polygon fill="#80b1d3" stroke="transparent" points="297,-10 297,-30 317,-30 317,-10 297,-10"/>
<text text-anchor="start" x="320.7812" y="-15.4" font-family="sans-serif" font-size="14.00" fill="#000000"> &#160;Bootstrap</text>
<polygon fill="#fdb462" stroke="transparent" points="394,-10 394,-30 414,-30 414,-10 394,-10"/>
<text text-anchor="start" x="417.6732" y="-15.4" font-family="sans-serif" font-size="14.00" fill="#000000"> &#160;Providers</text>
<polygon fill="#fb8072" stroke="transparent" points="490,-10 490,-30 510,-30 510,-10 490,-10"/>
<text text-anchor="start" x="513.7258" y="-15.4" font-family="sans-serif" font-size="14.00" fill="#000000"> &#160;Exports</text>
<g id="clust1" class="cluster">
<title>cluster_JNetworkBootstrap3ConfirmModule</title>
<polygon fill="none" stroke="#000000" stroke-dasharray="1,5" points="8,-70 8,-268 656,-268 656,-70 8,-70"/>
</g>
<g id="clust2" class="cluster">
<title>cluster_JNetworkBootstrap3ConfirmModule_declarations</title>
<polygon fill="none" stroke="#000000" points="486,-78 486,-130 648,-130 648,-78 486,-78"/>
</g>
<g id="clust4" class="cluster">
<title>cluster_JNetworkBootstrap3ConfirmModule_imports</title>
<polygon fill="none" stroke="#000000" points="16,-78 16,-130 478,-130 478,-78 16,-78"/>
</g>
<g id="clust5" class="cluster">
<title>cluster_JNetworkBootstrap3ConfirmModule_exports</title>
<polygon fill="none" stroke="#000000" points="280,-208 280,-260 446,-260 446,-208 280,-208"/>
</g>
<!-- NgConfirmComponent -->
<g id="node1" class="node">
<title>NgConfirmComponent</title>
<polygon fill="#ffffb3" stroke="#000000" points="639.8781,-122 494.1219,-122 494.1219,-86 639.8781,-86 639.8781,-122"/>
<text text-anchor="middle" x="567" y="-99.8" font-family="Times,serif" font-size="14.00" fill="#000000">NgConfirmComponent</text>
</g>
<!-- JNetworkBootstrap3ConfirmModule -->
<g id="node2" class="node">
<title>JNetworkBootstrap3ConfirmModule</title>
<polygon fill="#8dd3c7" stroke="#000000" points="474.3501,-187 471.3501,-191 450.3501,-191 447.3501,-187 251.6499,-187 251.6499,-151 474.3501,-151 474.3501,-187"/>
<text text-anchor="middle" x="363" y="-164.8" font-family="Times,serif" font-size="14.00" fill="#000000">JNetworkBootstrap3ConfirmModule</text>
</g>
<!-- NgConfirmComponent&#45;&gt;JNetworkBootstrap3ConfirmModule -->
<g id="edge1" class="edge">
<title>NgConfirmComponent&#45;&gt;JNetworkBootstrap3ConfirmModule</title>
<path fill="none" stroke="#000000" d="M567,-122.1061C567,-141.3391 567,-169 567,-169 567,-169 484.55,-169 484.55,-169"/>
<polygon fill="#000000" stroke="#000000" points="484.5501,-165.5001 474.55,-169 484.55,-172.5001 484.5501,-165.5001"/>
</g>
<!-- NgConfirmComponent  -->
<g id="node5" class="node">
<title>NgConfirmComponent </title>
<polygon fill="#fb8072" stroke="#000000" points="437.8785,-252 288.1215,-252 288.1215,-216 437.8785,-216 437.8785,-252"/>
<text text-anchor="middle" x="363" y="-229.8" font-family="Times,serif" font-size="14.00" fill="#000000">NgConfirmComponent </text>
</g>
<!-- JNetworkBootstrap3ConfirmModule&#45;&gt;NgConfirmComponent  -->
<g id="edge4" class="edge">
<title>JNetworkBootstrap3ConfirmModule&#45;&gt;NgConfirmComponent </title>
<path fill="none" stroke="#000000" stroke-dasharray="5,2" d="M363,-187.1061C363,-187.1061 363,-205.991 363,-205.991"/>
<polygon fill="#000000" stroke="#000000" points="359.5001,-205.9909 363,-215.991 366.5001,-205.991 359.5001,-205.9909"/>
</g>
<!-- JNetworkBootstrap3ButtonModule -->
<g id="node3" class="node">
<title>JNetworkBootstrap3ButtonModule</title>
<polygon fill="#8dd3c7" stroke="#000000" points="469.5293,-122 466.5293,-126 445.5293,-126 442.5293,-122 256.4707,-122 256.4707,-86 469.5293,-86 469.5293,-122"/>
<text text-anchor="middle" x="363" y="-99.8" font-family="Times,serif" font-size="14.00" fill="#000000">JNetworkBootstrap3ButtonModule</text>
</g>
<!-- JNetworkBootstrap3ButtonModule&#45;&gt;JNetworkBootstrap3ConfirmModule -->
<g id="edge2" class="edge">
<title>JNetworkBootstrap3ButtonModule&#45;&gt;JNetworkBootstrap3ConfirmModule</title>
<path fill="none" stroke="#000000" d="M363,-122.1061C363,-122.1061 363,-140.991 363,-140.991"/>
<polygon fill="#000000" stroke="#000000" points="359.5001,-140.9909 363,-150.991 366.5001,-140.991 359.5001,-140.9909"/>
</g>
<!-- JNetworkBootstrap3DialogModule -->
<g id="node4" class="node">
<title>JNetworkBootstrap3DialogModule</title>
<polygon fill="#8dd3c7" stroke="#000000" points="237.514,-122 234.514,-126 213.514,-126 210.514,-122 24.486,-122 24.486,-86 237.514,-86 237.514,-122"/>
<text text-anchor="middle" x="131" y="-99.8" font-family="Times,serif" font-size="14.00" fill="#000000">JNetworkBootstrap3DialogModule</text>
</g>
<!-- JNetworkBootstrap3DialogModule&#45;&gt;JNetworkBootstrap3ConfirmModule -->
<g id="edge3" class="edge">
<title>JNetworkBootstrap3DialogModule&#45;&gt;JNetworkBootstrap3ConfirmModule</title>
<path fill="none" stroke="#000000" d="M131,-122.1061C131,-141.3391 131,-169 131,-169 131,-169 241.417,-169 241.417,-169"/>
<polygon fill="#000000" stroke="#000000" points="241.4171,-172.5001 251.417,-169 241.417,-165.5001 241.4171,-172.5001"/>
</g>
</g>
</svg>
