<?xml version="1.0" encoding="UTF-8" standalone="no"?>
<!DOCTYPE svg PUBLIC "-//W3C//DTD SVG 1.1//EN"
 "http://www.w3.org/Graphics/SVG/1.1/DTD/svg11.dtd">
<!-- Generated by graphviz version 2.47.3 (20210619.1520)
 -->
<!-- Title: dependencies Pages: 1 -->
<svg width="402pt" height="174pt"
 viewBox="0.00 0.00 402.00 173.80" xmlns="http://www.w3.org/2000/svg" xmlns:xlink="http://www.w3.org/1999/xlink">
<g id="graph0" class="graph" transform="scale(1 1) rotate(0) translate(4 169.8)">
<title>dependencies</title>
<polygon fill="white" stroke="transparent" points="-4,4 -4,-169.8 398,-169.8 398,4 -4,4"/>
<text text-anchor="middle" x="197" y="-8.2" font-family="sans-serif" font-size="14.00">dependencies</text>
<g id="clust1" class="cluster">
<title>cluster_DatetimeModule</title>
<polygon fill="none" stroke="black" stroke-dasharray="1,5" points="8,-32.8 8,-157.8 386,-157.8 386,-32.8 8,-32.8"/>
</g>
<g id="clust2" class="cluster">
<title>cluster_DatetimeModule_declarations</title>
<polygon fill="none" stroke="black" points="196,-40.8 196,-92.8 378,-92.8 378,-40.8 196,-40.8"/>
</g>
<g id="clust4" class="cluster">
<title>cluster_DatetimeModule_imports</title>
<polygon fill="none" stroke="black" points="16,-40.8 16,-92.8 188,-92.8 188,-40.8 16,-40.8"/>
</g>
<!-- DemoDatetimeComponent -->
<g id="node1" class="node">
<title>DemoDatetimeComponent</title>
<polygon fill="#ffffb3" stroke="black" points="370.36,-84.8 203.64,-84.8 203.64,-48.8 370.36,-48.8 370.36,-84.8"/>
<text text-anchor="middle" x="287" y="-62.6" font-family="Times,serif" font-size="14.00">DemoDatetimeComponent</text>
</g>
<!-- DatetimeModule -->
<g id="node2" class="node">
<title>DatetimeModule</title>
<polygon fill="#8dd3c7" stroke="black" points="249.36,-149.8 246.36,-153.8 225.36,-153.8 222.36,-149.8 138.64,-149.8 138.64,-113.8 249.36,-113.8 249.36,-149.8"/>
<text text-anchor="middle" x="194" y="-127.6" font-family="Times,serif" font-size="14.00">DatetimeModule</text>
</g>
<!-- DemoDatetimeComponent&#45;&gt;DatetimeModule -->
<g id="edge1" class="edge">
<title>DemoDatetimeComponent&#45;&gt;DatetimeModule</title>
<path fill="none" stroke="black" d="M226.5,-84.91C226.5,-84.91 226.5,-103.79 226.5,-103.79"/>
<polygon fill="black" stroke="black" points="223,-103.79 226.5,-113.79 230,-103.79 223,-103.79"/>
</g>
<!-- DatetimeRoutingModule -->
<g id="node3" class="node">
<title>DatetimeRoutingModule</title>
<polygon fill="#8dd3c7" stroke="black" points="179.98,-84.8 176.98,-88.8 155.98,-88.8 152.98,-84.8 24.02,-84.8 24.02,-48.8 179.98,-48.8 179.98,-84.8"/>
<text text-anchor="middle" x="102" y="-62.6" font-family="Times,serif" font-size="14.00">DatetimeRoutingModule</text>
</g>
<!-- DatetimeRoutingModule&#45;&gt;DatetimeModule -->
<g id="edge2" class="edge">
<title>DatetimeRoutingModule&#45;&gt;DatetimeModule</title>
<path fill="none" stroke="black" d="M159.28,-84.91C159.28,-84.91 159.28,-103.79 159.28,-103.79"/>
<polygon fill="black" stroke="black" points="155.78,-103.79 159.28,-113.79 162.78,-103.79 155.78,-103.79"/>
</g>
</g>
</svg>
