<?xml version="1.0" encoding="UTF-8" standalone="no"?>
<!DOCTYPE svg PUBLIC "-//W3C//DTD SVG 1.1//EN"
 "http://www.w3.org/Graphics/SVG/1.1/DTD/svg11.dtd">
<!-- Generated by graphviz version 2.47.3 (20210619.1520)
 -->
<!-- Title: dependencies Pages: 1 -->
<svg width="344pt" height="174pt"
 viewBox="0.00 0.00 344.00 173.80" xmlns="http://www.w3.org/2000/svg" xmlns:xlink="http://www.w3.org/1999/xlink">
<g id="graph0" class="graph" transform="scale(1 1) rotate(0) translate(4 169.8)">
<title>dependencies</title>
<polygon fill="white" stroke="transparent" points="-4,4 -4,-169.8 340,-169.8 340,4 -4,4"/>
<text text-anchor="middle" x="168" y="-8.2" font-family="sans-serif" font-size="14.00">dependencies</text>
<g id="clust1" class="cluster">
<title>cluster_ListModule</title>
<polygon fill="none" stroke="black" stroke-dasharray="1,5" points="8,-32.8 8,-157.8 328,-157.8 328,-32.8 8,-32.8"/>
</g>
<g id="clust4" class="cluster">
<title>cluster_ListModule_imports</title>
<polygon fill="none" stroke="black" points="178,-40.8 178,-92.8 320,-92.8 320,-40.8 178,-40.8"/>
</g>
<g id="clust2" class="cluster">
<title>cluster_ListModule_declarations</title>
<polygon fill="none" stroke="black" points="16,-40.8 16,-92.8 170,-92.8 170,-40.8 16,-40.8"/>
</g>
<!-- DemoListComponent -->
<g id="node1" class="node">
<title>DemoListComponent</title>
<polygon fill="#ffffb3" stroke="black" points="161.82,-84.8 24.18,-84.8 24.18,-48.8 161.82,-48.8 161.82,-84.8"/>
<text text-anchor="middle" x="93" y="-62.6" font-family="Times,serif" font-size="14.00">DemoListComponent</text>
</g>
<!-- ListModule -->
<g id="node2" class="node">
<title>ListModule</title>
<polygon fill="#8dd3c7" stroke="black" points="211.83,-149.8 208.83,-153.8 187.83,-153.8 184.83,-149.8 130.17,-149.8 130.17,-113.8 211.83,-113.8 211.83,-149.8"/>
<text text-anchor="middle" x="171" y="-127.6" font-family="Times,serif" font-size="14.00">ListModule</text>
</g>
<!-- DemoListComponent&#45;&gt;ListModule -->
<g id="edge1" class="edge">
<title>DemoListComponent&#45;&gt;ListModule</title>
<path fill="none" stroke="black" d="M146,-84.91C146,-84.91 146,-103.79 146,-103.79"/>
<polygon fill="black" stroke="black" points="142.5,-103.79 146,-113.79 149.5,-103.79 142.5,-103.79"/>
</g>
<!-- ListRoutingModule -->
<g id="node3" class="node">
<title>ListRoutingModule</title>
<polygon fill="#8dd3c7" stroke="black" points="312.45,-84.8 309.45,-88.8 288.45,-88.8 285.45,-84.8 185.55,-84.8 185.55,-48.8 312.45,-48.8 312.45,-84.8"/>
<text text-anchor="middle" x="249" y="-62.6" font-family="Times,serif" font-size="14.00">ListRoutingModule</text>
</g>
<!-- ListRoutingModule&#45;&gt;ListModule -->
<g id="edge2" class="edge">
<title>ListRoutingModule&#45;&gt;ListModule</title>
<path fill="none" stroke="black" d="M198.72,-84.91C198.72,-84.91 198.72,-103.79 198.72,-103.79"/>
<polygon fill="black" stroke="black" points="195.22,-103.79 198.72,-113.79 202.22,-103.79 195.22,-103.79"/>
</g>
</g>
</svg>
