<?xml version="1.0" encoding="UTF-8" standalone="no"?>
<!DOCTYPE svg PUBLIC "-//W3C//DTD SVG 1.1//EN"
 "http://www.w3.org/Graphics/SVG/1.1/DTD/svg11.dtd">
<!-- Generated by graphviz version 2.47.3 (20210619.1520)
 -->
<!-- Title: dependencies Pages: 1 -->
<svg width="360pt" height="174pt"
 viewBox="0.00 0.00 360.00 173.80" xmlns="http://www.w3.org/2000/svg" xmlns:xlink="http://www.w3.org/1999/xlink">
<g id="graph0" class="graph" transform="scale(1 1) rotate(0) translate(4 169.8)">
<title>dependencies</title>
<polygon fill="white" stroke="transparent" points="-4,4 -4,-169.8 356,-169.8 356,4 -4,4"/>
<text text-anchor="middle" x="176" y="-8.2" font-family="sans-serif" font-size="14.00">dependencies</text>
<g id="clust1" class="cluster">
<title>cluster_InputModule</title>
<polygon fill="none" stroke="black" stroke-dasharray="1,5" points="8,-32.8 8,-157.8 344,-157.8 344,-32.8 8,-32.8"/>
</g>
<g id="clust2" class="cluster">
<title>cluster_InputModule_declarations</title>
<polygon fill="none" stroke="black" points="174,-40.8 174,-92.8 336,-92.8 336,-40.8 174,-40.8"/>
</g>
<g id="clust4" class="cluster">
<title>cluster_InputModule_imports</title>
<polygon fill="none" stroke="black" points="16,-40.8 16,-92.8 166,-92.8 166,-40.8 16,-40.8"/>
</g>
<!-- DemoInputComponent -->
<g id="node1" class="node">
<title>DemoInputComponent</title>
<polygon fill="#ffffb3" stroke="black" points="327.6,-84.8 182.4,-84.8 182.4,-48.8 327.6,-48.8 327.6,-84.8"/>
<text text-anchor="middle" x="255" y="-62.6" font-family="Times,serif" font-size="14.00">DemoInputComponent</text>
</g>
<!-- InputModule -->
<g id="node2" class="node">
<title>InputModule</title>
<polygon fill="#8dd3c7" stroke="black" points="217.6,-149.8 214.6,-153.8 193.6,-153.8 190.6,-149.8 128.4,-149.8 128.4,-113.8 217.6,-113.8 217.6,-149.8"/>
<text text-anchor="middle" x="173" y="-127.6" font-family="Times,serif" font-size="14.00">InputModule</text>
</g>
<!-- DemoInputComponent&#45;&gt;InputModule -->
<g id="edge1" class="edge">
<title>DemoInputComponent&#45;&gt;InputModule</title>
<path fill="none" stroke="black" d="M200,-84.91C200,-84.91 200,-103.79 200,-103.79"/>
<polygon fill="black" stroke="black" points="196.5,-103.79 200,-113.79 203.5,-103.79 196.5,-103.79"/>
</g>
<!-- InputRoutingModule -->
<g id="node3" class="node">
<title>InputRoutingModule</title>
<polygon fill="#8dd3c7" stroke="black" points="158.22,-84.8 155.22,-88.8 134.22,-88.8 131.22,-84.8 23.78,-84.8 23.78,-48.8 158.22,-48.8 158.22,-84.8"/>
<text text-anchor="middle" x="91" y="-62.6" font-family="Times,serif" font-size="14.00">InputRoutingModule</text>
</g>
<!-- InputRoutingModule&#45;&gt;InputModule -->
<g id="edge2" class="edge">
<title>InputRoutingModule&#45;&gt;InputModule</title>
<path fill="none" stroke="black" d="M143.28,-84.91C143.28,-84.91 143.28,-103.79 143.28,-103.79"/>
<polygon fill="black" stroke="black" points="139.78,-103.79 143.28,-113.79 146.78,-103.79 139.78,-103.79"/>
</g>
</g>
</svg>
