<?xml version="1.0" encoding="UTF-8" standalone="no"?>
<!DOCTYPE svg PUBLIC "-//W3C//DTD SVG 1.1//EN"
 "http://www.w3.org/Graphics/SVG/1.1/DTD/svg11.dtd">
<!-- Generated by graphviz version 2.47.0 (20210316.0004)
 -->
<!-- Title: dependencies Pages: 1 -->
<svg width="528pt" height="284pt"
 viewBox="0.00 0.00 528.00 284.00" xmlns="http://www.w3.org/2000/svg" xmlns:xlink="http://www.w3.org/1999/xlink">
<g id="graph0" class="graph" transform="scale(1 1) rotate(0) translate(4 280)">
<title>dependencies</title>
<polygon fill="white" stroke="transparent" points="-4,4 -4,-280 524,-280 524,4 -4,4"/>
<text text-anchor="start" x="239.01" y="-42.4" font-family="Times-12" font-weight="bold" font-size="14.00">Legend</text>
<polygon fill="#ffffb3" stroke="transparent" points="26,-10 26,-30 46,-30 46,-10 26,-10"/>
<text text-anchor="start" x="49.63" y="-15.4" font-family="Times-12" font-size="14.00"> &#160;Declarations</text>
<polygon fill="#8dd3c7" stroke="transparent" points="139,-10 139,-30 159,-30 159,-10 139,-10"/>
<text text-anchor="start" x="162.73" y="-15.4" font-family="Times-12" font-size="14.00"> &#160;Module</text>
<polygon fill="#80b1d3" stroke="transparent" points="225,-10 225,-30 245,-30 245,-10 225,-10"/>
<text text-anchor="start" x="248.78" y="-15.4" font-family="Times-12" font-size="14.00"> &#160;Bootstrap</text>
<polygon fill="#fdb462" stroke="transparent" points="322,-10 322,-30 342,-30 342,-10 322,-10"/>
<text text-anchor="start" x="345.67" y="-15.4" font-family="Times-12" font-size="14.00"> &#160;Providers</text>
<polygon fill="#fb8072" stroke="transparent" points="418,-10 418,-30 438,-30 438,-10 418,-10"/>
<text text-anchor="start" x="441.73" y="-15.4" font-family="Times-12" font-size="14.00"> &#160;Exports</text>
<g id="clust1" class="cluster">
<title>cluster_SACBootstrap4MultilanguageModule</title>
<polygon fill="none" stroke="black" stroke-dasharray="1,5" points="8,-70 8,-268 512,-268 512,-70 8,-70"/>
</g>
<g id="clust6" class="cluster">
<title>cluster_SACBootstrap4MultilanguageModule_exports</title>
<polygon fill="none" stroke="black" points="16,-208 16,-260 504,-260 504,-208 16,-208"/>
</g>
<g id="clust2" class="cluster">
<title>cluster_SACBootstrap4MultilanguageModule_declarations</title>
<polygon fill="none" stroke="black" points="17,-78 17,-130 497,-130 497,-78 17,-78"/>
</g>
<!-- NgMultilanguageInputAreaComponent -->
<g id="node1" class="node">
<title>NgMultilanguageInputAreaComponent</title>
<polygon fill="#ffffb3" stroke="black" points="489.34,-122 252.66,-122 252.66,-86 489.34,-86 489.34,-122"/>
<text text-anchor="middle" x="371" y="-99.8" font-family="Times,serif" font-size="14.00">NgMultilanguageInputAreaComponent</text>
</g>
<!-- SACBootstrap4MultilanguageModule -->
<g id="node3" class="node">
<title>SACBootstrap4MultilanguageModule</title>
<polygon fill="#8dd3c7" stroke="black" points="365.86,-187 362.86,-191 341.86,-191 338.86,-187 136.14,-187 136.14,-151 365.86,-151 365.86,-187"/>
<text text-anchor="middle" x="251" y="-164.8" font-family="Times,serif" font-size="14.00">SACBootstrap4MultilanguageModule</text>
</g>
<!-- NgMultilanguageInputAreaComponent&#45;&gt;SACBootstrap4MultilanguageModule -->
<g id="edge1" class="edge">
<title>NgMultilanguageInputAreaComponent&#45;&gt;SACBootstrap4MultilanguageModule</title>
<path fill="none" stroke="black" d="M309.26,-122.11C309.26,-122.11 309.26,-140.99 309.26,-140.99"/>
<polygon fill="black" stroke="black" points="305.76,-140.99 309.26,-150.99 312.76,-140.99 305.76,-140.99"/>
</g>
<!-- NgMultilanguageInputComponent -->
<g id="node2" class="node">
<title>NgMultilanguageInputComponent</title>
<polygon fill="#ffffb3" stroke="black" points="234.64,-122 25.36,-122 25.36,-86 234.64,-86 234.64,-122"/>
<text text-anchor="middle" x="130" y="-99.8" font-family="Times,serif" font-size="14.00">NgMultilanguageInputComponent</text>
</g>
<!-- NgMultilanguageInputComponent&#45;&gt;SACBootstrap4MultilanguageModule -->
<g id="edge2" class="edge">
<title>NgMultilanguageInputComponent&#45;&gt;SACBootstrap4MultilanguageModule</title>
<path fill="none" stroke="black" d="M185.44,-122.11C185.44,-122.11 185.44,-140.99 185.44,-140.99"/>
<polygon fill="black" stroke="black" points="181.94,-140.99 185.44,-150.99 188.94,-140.99 181.94,-140.99"/>
</g>
<!-- NgMultilanguageInputAreaComponent  -->
<g id="node4" class="node">
<title>NgMultilanguageInputAreaComponent </title>
<polygon fill="#fb8072" stroke="black" points="496.34,-252 255.66,-252 255.66,-216 496.34,-216 496.34,-252"/>
<text text-anchor="middle" x="376" y="-229.8" font-family="Times,serif" font-size="14.00">NgMultilanguageInputAreaComponent </text>
</g>
<!-- SACBootstrap4MultilanguageModule&#45;&gt;NgMultilanguageInputAreaComponent  -->
<g id="edge3" class="edge">
<title>SACBootstrap4MultilanguageModule&#45;&gt;NgMultilanguageInputAreaComponent </title>
<path fill="none" stroke="black" stroke-dasharray="5,2" d="M310.88,-187.11C310.88,-187.11 310.88,-205.99 310.88,-205.99"/>
<polygon fill="black" stroke="black" points="307.38,-205.99 310.88,-215.99 314.38,-205.99 307.38,-205.99"/>
</g>
<!-- NgMultilanguageInputComponent  -->
<g id="node5" class="node">
<title>NgMultilanguageInputComponent </title>
<polygon fill="#fb8072" stroke="black" points="237.64,-252 24.36,-252 24.36,-216 237.64,-216 237.64,-252"/>
<text text-anchor="middle" x="131" y="-229.8" font-family="Times,serif" font-size="14.00">NgMultilanguageInputComponent </text>
</g>
<!-- SACBootstrap4MultilanguageModule&#45;&gt;NgMultilanguageInputComponent  -->
<g id="edge4" class="edge">
<title>SACBootstrap4MultilanguageModule&#45;&gt;NgMultilanguageInputComponent </title>
<path fill="none" stroke="black" stroke-dasharray="5,2" d="M186.82,-187.11C186.82,-187.11 186.82,-205.99 186.82,-205.99"/>
<polygon fill="black" stroke="black" points="183.32,-205.99 186.82,-215.99 190.32,-205.99 183.32,-205.99"/>
</g>
</g>
</svg>
