<?xml version="1.0" encoding="UTF-8" standalone="no"?>
<!DOCTYPE svg PUBLIC "-//W3C//DTD SVG 1.1//EN"
 "http://www.w3.org/Graphics/SVG/1.1/DTD/svg11.dtd">
<!-- Generated by graphviz version 2.47.0 (20210316.0004)
 -->
<!-- Title: dependencies Pages: 1 -->
<svg width="534pt" height="284pt"
 viewBox="0.00 0.00 534.00 284.00" xmlns="http://www.w3.org/2000/svg" xmlns:xlink="http://www.w3.org/1999/xlink">
<g id="graph0" class="graph" transform="scale(1 1) rotate(0) translate(4 280)">
<title>dependencies</title>
<polygon fill="white" stroke="transparent" points="-4,4 -4,-280 530,-280 530,4 -4,4"/>
<text text-anchor="start" x="242.01" y="-42.4" font-family="Times-12" font-weight="bold" font-size="14.00">Legend</text>
<polygon fill="#ffffb3" stroke="transparent" points="29,-10 29,-30 49,-30 49,-10 29,-10"/>
<text text-anchor="start" x="52.63" y="-15.4" font-family="Times-12" font-size="14.00"> &#160;Declarations</text>
<polygon fill="#8dd3c7" stroke="transparent" points="142,-10 142,-30 162,-30 162,-10 142,-10"/>
<text text-anchor="start" x="165.73" y="-15.4" font-family="Times-12" font-size="14.00"> &#160;Module</text>
<polygon fill="#80b1d3" stroke="transparent" points="228,-10 228,-30 248,-30 248,-10 228,-10"/>
<text text-anchor="start" x="251.78" y="-15.4" font-family="Times-12" font-size="14.00"> &#160;Bootstrap</text>
<polygon fill="#fdb462" stroke="transparent" points="325,-10 325,-30 345,-30 345,-10 325,-10"/>
<text text-anchor="start" x="348.67" y="-15.4" font-family="Times-12" font-size="14.00"> &#160;Providers</text>
<polygon fill="#fb8072" stroke="transparent" points="421,-10 421,-30 441,-30 441,-10 421,-10"/>
<text text-anchor="start" x="444.73" y="-15.4" font-family="Times-12" font-size="14.00"> &#160;Exports</text>
<g id="clust1" class="cluster">
<title>cluster_SACBootstrap4MultilanguageModule</title>
<polygon fill="none" stroke="black" stroke-dasharray="1,5" points="8,-70 8,-268 518,-268 518,-70 8,-70"/>
</g>
<g id="clust6" class="cluster">
<title>cluster_SACBootstrap4MultilanguageModule_exports</title>
<polygon fill="none" stroke="black" points="16,-208 16,-260 510,-260 510,-208 16,-208"/>
</g>
<g id="clust2" class="cluster">
<title>cluster_SACBootstrap4MultilanguageModule_declarations</title>
<polygon fill="none" stroke="black" points="17,-78 17,-130 503,-130 503,-78 17,-78"/>
</g>
<!-- SacMultilanguageInputAreaComponent -->
<g id="node1" class="node">
<title>SacMultilanguageInputAreaComponent</title>
<polygon fill="#ffffb3" stroke="black" points="494.94,-122 255.06,-122 255.06,-86 494.94,-86 494.94,-122"/>
<text text-anchor="middle" x="375" y="-99.8" font-family="Times,serif" font-size="14.00">SacMultilanguageInputAreaComponent</text>
</g>
<!-- SACBootstrap4MultilanguageModule -->
<g id="node3" class="node">
<title>SACBootstrap4MultilanguageModule</title>
<polygon fill="#8dd3c7" stroke="black" points="367.86,-187 364.86,-191 343.86,-191 340.86,-187 138.14,-187 138.14,-151 367.86,-151 367.86,-187"/>
<text text-anchor="middle" x="253" y="-164.8" font-family="Times,serif" font-size="14.00">SACBootstrap4MultilanguageModule</text>
</g>
<!-- SacMultilanguageInputAreaComponent&#45;&gt;SACBootstrap4MultilanguageModule -->
<g id="edge1" class="edge">
<title>SacMultilanguageInputAreaComponent&#45;&gt;SACBootstrap4MultilanguageModule</title>
<path fill="none" stroke="black" d="M311.48,-122.11C311.48,-122.11 311.48,-140.99 311.48,-140.99"/>
<polygon fill="black" stroke="black" points="307.98,-140.99 311.48,-150.99 314.98,-140.99 307.98,-140.99"/>
</g>
<!-- SacMultilanguageInputComponent -->
<g id="node2" class="node">
<title>SacMultilanguageInputComponent</title>
<polygon fill="#ffffb3" stroke="black" points="237.25,-122 24.75,-122 24.75,-86 237.25,-86 237.25,-122"/>
<text text-anchor="middle" x="131" y="-99.8" font-family="Times,serif" font-size="14.00">SacMultilanguageInputComponent</text>
</g>
<!-- SacMultilanguageInputComponent&#45;&gt;SACBootstrap4MultilanguageModule -->
<g id="edge2" class="edge">
<title>SacMultilanguageInputComponent&#45;&gt;SACBootstrap4MultilanguageModule</title>
<path fill="none" stroke="black" d="M187.72,-122.11C187.72,-122.11 187.72,-140.99 187.72,-140.99"/>
<polygon fill="black" stroke="black" points="184.22,-140.99 187.72,-150.99 191.22,-140.99 184.22,-140.99"/>
</g>
<!-- SacMultilanguageInputAreaComponent  -->
<g id="node4" class="node">
<title>SacMultilanguageInputAreaComponent </title>
<polygon fill="#fb8072" stroke="black" points="501.94,-252 258.06,-252 258.06,-216 501.94,-216 501.94,-252"/>
<text text-anchor="middle" x="380" y="-229.8" font-family="Times,serif" font-size="14.00">SacMultilanguageInputAreaComponent </text>
</g>
<!-- SACBootstrap4MultilanguageModule&#45;&gt;SacMultilanguageInputAreaComponent  -->
<g id="edge3" class="edge">
<title>SACBootstrap4MultilanguageModule&#45;&gt;SacMultilanguageInputAreaComponent </title>
<path fill="none" stroke="black" stroke-dasharray="5,2" d="M313.11,-187.11C313.11,-187.11 313.11,-205.99 313.11,-205.99"/>
<polygon fill="black" stroke="black" points="309.61,-205.99 313.11,-215.99 316.61,-205.99 309.61,-205.99"/>
</g>
<!-- SacMultilanguageInputComponent  -->
<g id="node5" class="node">
<title>SacMultilanguageInputComponent </title>
<polygon fill="#fb8072" stroke="black" points="240.25,-252 23.75,-252 23.75,-216 240.25,-216 240.25,-252"/>
<text text-anchor="middle" x="132" y="-229.8" font-family="Times,serif" font-size="14.00">SacMultilanguageInputComponent </text>
</g>
<!-- SACBootstrap4MultilanguageModule&#45;&gt;SacMultilanguageInputComponent  -->
<g id="edge4" class="edge">
<title>SACBootstrap4MultilanguageModule&#45;&gt;SacMultilanguageInputComponent </title>
<path fill="none" stroke="black" stroke-dasharray="5,2" d="M189.1,-187.11C189.1,-187.11 189.1,-205.99 189.1,-205.99"/>
<polygon fill="black" stroke="black" points="185.6,-205.99 189.1,-215.99 192.6,-205.99 185.6,-205.99"/>
</g>
</g>
</svg>
