<?xml version="1.0" encoding="UTF-8" standalone="no"?>
<!DOCTYPE svg PUBLIC "-//W3C//DTD SVG 1.1//EN"
 "http://www.w3.org/Graphics/SVG/1.1/DTD/svg11.dtd">
<!-- Generated by graphviz version 2.47.3 (20210619.1520)
 -->
<!-- Title: dependencies Pages: 1 -->
<svg width="874pt" height="358pt"
 viewBox="0.00 0.00 874.00 358.39" xmlns="http://www.w3.org/2000/svg" xmlns:xlink="http://www.w3.org/1999/xlink">
<g id="graph0" class="graph" transform="scale(1 1) rotate(0) translate(4 354.39)">
<title>dependencies</title>
<polygon fill="white" stroke="transparent" points="-4,4 -4,-354.39 870,-354.39 870,4 -4,4"/>
<text text-anchor="middle" x="433" y="-8.2" font-family="sans-serif" font-size="14.00">dependencies</text>
<g id="clust1" class="cluster">
<title>cluster_JNetworkBootstrap4ValidationSummaryModule</title>
<polygon fill="none" stroke="black" stroke-dasharray="1,5" points="8,-32.8 8,-342.39 858,-342.39 858,-32.8 8,-32.8"/>
</g>
<g id="clust3" class="cluster">
<title>cluster_JNetworkBootstrap4ValidationSummaryModule_NgValidationSummaryComponent_providers</title>
<polygon fill="none" stroke="black" points="16,-40.8 16,-204.39 850,-204.39 850,-40.8 16,-40.8"/>
</g>
<g id="clust5" class="cluster">
<title>cluster_JNetworkBootstrap4ValidationSummaryModule_exports</title>
<polygon fill="none" stroke="black" points="317,-282.39 317,-334.39 549,-334.39 549,-282.39 317,-282.39"/>
</g>
<!-- NgValidationSummaryComponent -->
<g id="node1" class="node">
<title>NgValidationSummaryComponent</title>
<polygon fill="#ffffb3" stroke="black" points="538.98,-196.39 327.02,-196.39 327.02,-160.39 538.98,-160.39 538.98,-196.39"/>
<text text-anchor="middle" x="433" y="-174.19" font-family="Times,serif" font-size="14.00">NgValidationSummaryComponent</text>
</g>
<!-- JNetworkBootstrap4ValidationSummaryModule -->
<g id="node2" class="node">
<title>JNetworkBootstrap4ValidationSummaryModule</title>
<polygon fill="#8dd3c7" stroke="black" points="577.45,-261.39 574.45,-265.39 553.45,-265.39 550.45,-261.39 288.55,-261.39 288.55,-225.39 577.45,-225.39 577.45,-261.39"/>
<text text-anchor="middle" x="433" y="-239.19" font-family="Times,serif" font-size="14.00">JNetworkBootstrap4ValidationSummaryModule</text>
</g>
<!-- NgValidationSummaryComponent&#45;&gt;JNetworkBootstrap4ValidationSummaryModule -->
<g id="edge1" class="edge">
<title>NgValidationSummaryComponent&#45;&gt;JNetworkBootstrap4ValidationSummaryModule</title>
<path fill="none" stroke="black" d="M433,-196.5C433,-196.5 433,-215.38 433,-215.38"/>
<polygon fill="black" stroke="black" points="429.5,-215.38 433,-225.38 436.5,-215.38 429.5,-215.38"/>
</g>
<!-- NgValidationSummaryComponent  -->
<g id="node4" class="node">
<title>NgValidationSummaryComponent </title>
<polygon fill="#fb8072" stroke="black" points="540.98,-326.39 325.02,-326.39 325.02,-290.39 540.98,-290.39 540.98,-326.39"/>
<text text-anchor="middle" x="433" y="-304.19" font-family="Times,serif" font-size="14.00">NgValidationSummaryComponent </text>
</g>
<!-- JNetworkBootstrap4ValidationSummaryModule&#45;&gt;NgValidationSummaryComponent  -->
<g id="edge3" class="edge">
<title>JNetworkBootstrap4ValidationSummaryModule&#45;&gt;NgValidationSummaryComponent </title>
<path fill="none" stroke="black" stroke-dasharray="5,2" d="M433,-261.5C433,-261.5 433,-280.38 433,-280.38"/>
<polygon fill="black" stroke="black" points="429.5,-280.38 433,-290.38 436.5,-280.38 429.5,-280.38"/>
</g>
<!-- {
 &#160;&#160;&#160;provide: NG_VALUE_ACCESSOR, multi: true, useExisting: NgValidationSummaryComponent,
} -->
<g id="node3" class="node">
<title>{
 &#160;&#160;&#160;provide: NG_VALUE_ACCESSOR, multi: true, useExisting: NgValidationSummaryComponent,
}</title>
<ellipse fill="#fdb462" stroke="black" cx="433" cy="-90.1" rx="409.4" ry="41.09"/>
<text text-anchor="middle" x="433" y="-102.7" font-family="Times,serif" font-size="14.00">{</text>
<text text-anchor="middle" x="433" y="-85.9" font-family="Times,serif" font-size="14.00"> &#160;&#160;&#160;provide: NG_VALUE_ACCESSOR, multi: true, useExisting: NgValidationSummaryComponent,</text>
<text text-anchor="middle" x="433" y="-69.1" font-family="Times,serif" font-size="14.00">}</text>
</g>
<!-- {
 &#160;&#160;&#160;provide: NG_VALUE_ACCESSOR, multi: true, useExisting: NgValidationSummaryComponent,
}&#45;&gt;NgValidationSummaryComponent -->
<g id="edge2" class="edge">
<title>{
 &#160;&#160;&#160;provide: NG_VALUE_ACCESSOR, multi: true, useExisting: NgValidationSummaryComponent,
}&#45;&gt;NgValidationSummaryComponent</title>
<path fill="none" stroke="black" d="M433,-131.4C433,-131.4 433,-150.06 433,-150.06"/>
<polygon fill="black" stroke="black" points="429.5,-150.06 433,-160.06 436.5,-150.06 429.5,-150.06"/>
</g>
</g>
</svg>
