<?xml version="1.0" encoding="UTF-8" standalone="no"?>
<!DOCTYPE svg PUBLIC "-//W3C//DTD SVG 1.1//EN"
 "http://www.w3.org/Graphics/SVG/1.1/DTD/svg11.dtd">
<!-- Generated by graphviz version 2.47.3 (20210619.1520)
 -->
<!-- Title: dependencies Pages: 1 -->
<svg width="328pt" height="247pt"
 viewBox="0.00 0.00 328.00 246.80" xmlns="http://www.w3.org/2000/svg" xmlns:xlink="http://www.w3.org/1999/xlink">
<g id="graph0" class="graph" transform="scale(1 1) rotate(0) translate(4 242.8)">
<title>dependencies</title>
<polygon fill="white" stroke="transparent" points="-4,4 -4,-242.8 324,-242.8 324,4 -4,4"/>
<text text-anchor="middle" x="160" y="-8.2" font-family="sans-serif" font-size="14.00">dependencies</text>
<g id="clust1" class="cluster">
<title>cluster_JNetworkBootstrap4ValidationSummaryModule</title>
<polygon fill="none" stroke="black" stroke-dasharray="1,5" points="8,-32.8 8,-230.8 312,-230.8 312,-32.8 8,-32.8"/>
</g>
<g id="clust5" class="cluster">
<title>cluster_JNetworkBootstrap4ValidationSummaryModule_exports</title>
<polygon fill="none" stroke="black" points="44,-170.8 44,-222.8 276,-222.8 276,-170.8 44,-170.8"/>
</g>
<g id="clust2" class="cluster">
<title>cluster_JNetworkBootstrap4ValidationSummaryModule_declarations</title>
<polygon fill="none" stroke="black" points="46,-40.8 46,-92.8 274,-92.8 274,-40.8 46,-40.8"/>
</g>
<!-- NgValidationSummaryComponent -->
<g id="node1" class="node">
<title>NgValidationSummaryComponent</title>
<polygon fill="#ffffb3" stroke="black" points="265.98,-84.8 54.02,-84.8 54.02,-48.8 265.98,-48.8 265.98,-84.8"/>
<text text-anchor="middle" x="160" y="-62.6" font-family="Times,serif" font-size="14.00">NgValidationSummaryComponent</text>
</g>
<!-- JNetworkBootstrap4ValidationSummaryModule -->
<g id="node2" class="node">
<title>JNetworkBootstrap4ValidationSummaryModule</title>
<polygon fill="#8dd3c7" stroke="black" points="304.45,-149.8 301.45,-153.8 280.45,-153.8 277.45,-149.8 15.55,-149.8 15.55,-113.8 304.45,-113.8 304.45,-149.8"/>
<text text-anchor="middle" x="160" y="-127.6" font-family="Times,serif" font-size="14.00">JNetworkBootstrap4ValidationSummaryModule</text>
</g>
<!-- NgValidationSummaryComponent&#45;&gt;JNetworkBootstrap4ValidationSummaryModule -->
<g id="edge1" class="edge">
<title>NgValidationSummaryComponent&#45;&gt;JNetworkBootstrap4ValidationSummaryModule</title>
<path fill="none" stroke="black" d="M160,-84.91C160,-84.91 160,-103.79 160,-103.79"/>
<polygon fill="black" stroke="black" points="156.5,-103.79 160,-113.79 163.5,-103.79 156.5,-103.79"/>
</g>
<!-- NgValidationSummaryComponent  -->
<g id="node3" class="node">
<title>NgValidationSummaryComponent </title>
<polygon fill="#fb8072" stroke="black" points="267.98,-214.8 52.02,-214.8 52.02,-178.8 267.98,-178.8 267.98,-214.8"/>
<text text-anchor="middle" x="160" y="-192.6" font-family="Times,serif" font-size="14.00">NgValidationSummaryComponent </text>
</g>
<!-- JNetworkBootstrap4ValidationSummaryModule&#45;&gt;NgValidationSummaryComponent  -->
<g id="edge2" class="edge">
<title>JNetworkBootstrap4ValidationSummaryModule&#45;&gt;NgValidationSummaryComponent </title>
<path fill="none" stroke="black" stroke-dasharray="5,2" d="M160,-149.91C160,-149.91 160,-168.79 160,-168.79"/>
<polygon fill="black" stroke="black" points="156.5,-168.79 160,-178.79 163.5,-168.79 156.5,-168.79"/>
</g>
</g>
</svg>
