<?xml version="1.0" encoding="UTF-8" standalone="no"?>
<!DOCTYPE svg PUBLIC "-//W3C//DTD SVG 1.1//EN"
 "http://www.w3.org/Graphics/SVG/1.1/DTD/svg11.dtd">
<!-- Generated by graphviz version 2.47.0 (20210316.0004)
 -->
<!-- Title: dependencies Pages: 1 -->
<svg width="1070pt" height="284pt"
 viewBox="0.00 0.00 1070.00 284.00" xmlns="http://www.w3.org/2000/svg" xmlns:xlink="http://www.w3.org/1999/xlink">
<g id="graph0" class="graph" transform="scale(1 1) rotate(0) translate(4 280)">
<title>dependencies</title>
<polygon fill="white" stroke="transparent" points="-4,4 -4,-280 1066,-280 1066,4 -4,4"/>
<text text-anchor="start" x="510.01" y="-42.4" font-family="Times-12" font-weight="bold" font-size="14.00">Legend</text>
<polygon fill="#ffffb3" stroke="transparent" points="297,-10 297,-30 317,-30 317,-10 297,-10"/>
<text text-anchor="start" x="320.63" y="-15.4" font-family="Times-12" font-size="14.00"> &#160;Declarations</text>
<polygon fill="#8dd3c7" stroke="transparent" points="410,-10 410,-30 430,-30 430,-10 410,-10"/>
<text text-anchor="start" x="433.73" y="-15.4" font-family="Times-12" font-size="14.00"> &#160;Module</text>
<polygon fill="#80b1d3" stroke="transparent" points="496,-10 496,-30 516,-30 516,-10 496,-10"/>
<text text-anchor="start" x="519.78" y="-15.4" font-family="Times-12" font-size="14.00"> &#160;Bootstrap</text>
<polygon fill="#fdb462" stroke="transparent" points="593,-10 593,-30 613,-30 613,-10 593,-10"/>
<text text-anchor="start" x="616.67" y="-15.4" font-family="Times-12" font-size="14.00"> &#160;Providers</text>
<polygon fill="#fb8072" stroke="transparent" points="689,-10 689,-30 709,-30 709,-10 689,-10"/>
<text text-anchor="start" x="712.73" y="-15.4" font-family="Times-12" font-size="14.00"> &#160;Exports</text>
<g id="clust1" class="cluster">
<title>cluster_SACBootstrap5BrowserModule</title>
<polygon fill="none" stroke="black" stroke-dasharray="1,5" points="8,-70 8,-268 1054,-268 1054,-70 8,-70"/>
</g>
<g id="clust2" class="cluster">
<title>cluster_SACBootstrap5BrowserModule_declarations</title>
<polygon fill="none" stroke="black" points="882,-78 882,-130 1046,-130 1046,-78 882,-78"/>
</g>
<g id="clust4" class="cluster">
<title>cluster_SACBootstrap5BrowserModule_imports</title>
<polygon fill="none" stroke="black" points="16,-78 16,-130 874,-130 874,-78 16,-78"/>
</g>
<g id="clust5" class="cluster">
<title>cluster_SACBootstrap5BrowserModule_exports</title>
<polygon fill="none" stroke="black" points="456,-208 456,-260 624,-260 624,-208 456,-208"/>
</g>
<!-- SacBrowserComponent -->
<g id="node1" class="node">
<title>SacBrowserComponent</title>
<polygon fill="#ffffb3" stroke="black" points="1038.47,-122 889.53,-122 889.53,-86 1038.47,-86 1038.47,-122"/>
<text text-anchor="middle" x="964" y="-99.8" font-family="Times,serif" font-size="14.00">SacBrowserComponent</text>
</g>
<!-- SACBootstrap5BrowserModule -->
<g id="node2" class="node">
<title>SACBootstrap5BrowserModule</title>
<polygon fill="#8dd3c7" stroke="black" points="637.64,-187 634.64,-191 613.64,-191 610.64,-187 442.36,-187 442.36,-151 637.64,-151 637.64,-187"/>
<text text-anchor="middle" x="540" y="-164.8" font-family="Times,serif" font-size="14.00">SACBootstrap5BrowserModule</text>
</g>
<!-- SacBrowserComponent&#45;&gt;SACBootstrap5BrowserModule -->
<g id="edge1" class="edge">
<title>SacBrowserComponent&#45;&gt;SACBootstrap5BrowserModule</title>
<path fill="none" stroke="black" d="M964,-122.28C964,-143.32 964,-175 964,-175 964,-175 647.81,-175 647.81,-175"/>
<polygon fill="black" stroke="black" points="647.81,-171.5 637.81,-175 647.81,-178.5 647.81,-171.5"/>
</g>
<!-- SacBrowserComponent  -->
<g id="node7" class="node">
<title>SacBrowserComponent </title>
<polygon fill="#fb8072" stroke="black" points="616.47,-252 463.53,-252 463.53,-216 616.47,-216 616.47,-252"/>
<text text-anchor="middle" x="540" y="-229.8" font-family="Times,serif" font-size="14.00">SacBrowserComponent </text>
</g>
<!-- SACBootstrap5BrowserModule&#45;&gt;SacBrowserComponent  -->
<g id="edge6" class="edge">
<title>SACBootstrap5BrowserModule&#45;&gt;SacBrowserComponent </title>
<path fill="none" stroke="black" stroke-dasharray="5,2" d="M565.41,-187.11C565.41,-187.11 565.41,-205.99 565.41,-205.99"/>
<polygon fill="black" stroke="black" points="561.91,-205.99 565.41,-215.99 568.91,-205.99 561.91,-205.99"/>
</g>
<!-- SACBootstrap5BrowserModule&#45;&gt;SacBrowserComponent  -->
<g id="edge7" class="edge">
<title>SACBootstrap5BrowserModule&#45;&gt;SacBrowserComponent </title>
<path fill="none" stroke="black" stroke-dasharray="1,5" d="M514.59,-187.11C514.59,-187.11 514.59,-205.99 514.59,-205.99"/>
<polygon fill="black" stroke="black" points="511.09,-205.99 514.59,-215.99 518.09,-205.99 511.09,-205.99"/>
</g>
<!-- SACBootstrap5ConfirmModule -->
<g id="node3" class="node">
<title>SACBootstrap5ConfirmModule</title>
<polygon fill="#8dd3c7" stroke="black" points="865.65,-122 862.65,-126 841.65,-126 838.65,-122 670.35,-122 670.35,-86 865.65,-86 865.65,-122"/>
<text text-anchor="middle" x="768" y="-99.8" font-family="Times,serif" font-size="14.00">SACBootstrap5ConfirmModule</text>
</g>
<!-- SACBootstrap5ConfirmModule&#45;&gt;SACBootstrap5BrowserModule -->
<g id="edge2" class="edge">
<title>SACBootstrap5ConfirmModule&#45;&gt;SACBootstrap5BrowserModule</title>
<path fill="none" stroke="black" d="M768,-122.02C768,-139.37 768,-163 768,-163 768,-163 647.68,-163 647.68,-163"/>
<polygon fill="black" stroke="black" points="647.68,-159.5 637.68,-163 647.68,-166.5 647.68,-159.5"/>
</g>
<!-- SACBootstrap5ContextmenuModule -->
<g id="node4" class="node">
<title>SACBootstrap5ContextmenuModule</title>
<polygon fill="#8dd3c7" stroke="black" points="651.65,-122 648.65,-126 627.65,-126 624.65,-122 428.35,-122 428.35,-86 651.65,-86 651.65,-122"/>
<text text-anchor="middle" x="540" y="-99.8" font-family="Times,serif" font-size="14.00">SACBootstrap5ContextmenuModule</text>
</g>
<!-- SACBootstrap5ContextmenuModule&#45;&gt;SACBootstrap5BrowserModule -->
<g id="edge3" class="edge">
<title>SACBootstrap5ContextmenuModule&#45;&gt;SACBootstrap5BrowserModule</title>
<path fill="none" stroke="black" d="M540,-122.11C540,-122.11 540,-140.99 540,-140.99"/>
<polygon fill="black" stroke="black" points="536.5,-140.99 540,-150.99 543.5,-140.99 536.5,-140.99"/>
</g>
<!-- SACBootstrap5FormModule -->
<g id="node5" class="node">
<title>SACBootstrap5FormModule</title>
<polygon fill="#8dd3c7" stroke="black" points="410.05,-122 407.05,-126 386.05,-126 383.05,-122 231.95,-122 231.95,-86 410.05,-86 410.05,-122"/>
<text text-anchor="middle" x="321" y="-99.8" font-family="Times,serif" font-size="14.00">SACBootstrap5FormModule</text>
</g>
<!-- SACBootstrap5FormModule&#45;&gt;SACBootstrap5BrowserModule -->
<g id="edge4" class="edge">
<title>SACBootstrap5FormModule&#45;&gt;SACBootstrap5BrowserModule</title>
<path fill="none" stroke="black" d="M321,-122.02C321,-139.37 321,-163 321,-163 321,-163 432.35,-163 432.35,-163"/>
<polygon fill="black" stroke="black" points="432.35,-166.5 442.35,-163 432.35,-159.5 432.35,-166.5"/>
</g>
<!-- SACBootstrap5UploadModule -->
<g id="node6" class="node">
<title>SACBootstrap5UploadModule</title>
<polygon fill="#8dd3c7" stroke="black" points="213.93,-122 210.93,-126 189.93,-126 186.93,-122 24.07,-122 24.07,-86 213.93,-86 213.93,-122"/>
<text text-anchor="middle" x="119" y="-99.8" font-family="Times,serif" font-size="14.00">SACBootstrap5UploadModule</text>
</g>
<!-- SACBootstrap5UploadModule&#45;&gt;SACBootstrap5BrowserModule -->
<g id="edge5" class="edge">
<title>SACBootstrap5UploadModule&#45;&gt;SACBootstrap5BrowserModule</title>
<path fill="none" stroke="black" d="M119,-122.28C119,-143.32 119,-175 119,-175 119,-175 432.36,-175 432.36,-175"/>
<polygon fill="black" stroke="black" points="432.36,-178.5 442.36,-175 432.36,-171.5 432.36,-178.5"/>
</g>
</g>
</svg>
