<?xml version="1.0" encoding="UTF-8" standalone="no"?>
<!DOCTYPE svg PUBLIC "-//W3C//DTD SVG 1.1//EN"
 "http://www.w3.org/Graphics/SVG/1.1/DTD/svg11.dtd">
<!-- Generated by graphviz version 2.47.3 (20210619.1520)
 -->
<!-- Title: dependencies Pages: 1 -->
<svg width="1473pt" height="174pt"
 viewBox="0.00 0.00 1473.00 173.80" xmlns="http://www.w3.org/2000/svg" xmlns:xlink="http://www.w3.org/1999/xlink">
<g id="graph0" class="graph" transform="scale(1 1) rotate(0) translate(4 169.8)">
<title>dependencies</title>
<polygon fill="white" stroke="transparent" points="-4,4 -4,-169.8 1469,-169.8 1469,4 -4,4"/>
<text text-anchor="middle" x="732.5" y="-8.2" font-family="sans-serif" font-size="14.00">dependencies</text>
<g id="clust1" class="cluster">
<title>cluster_GridModule</title>
<polygon fill="none" stroke="black" stroke-dasharray="1,5" points="8,-32.8 8,-157.8 1457,-157.8 1457,-32.8 8,-32.8"/>
</g>
<g id="clust4" class="cluster">
<title>cluster_GridModule_imports</title>
<polygon fill="none" stroke="black" points="322,-40.8 322,-92.8 1449,-92.8 1449,-40.8 322,-40.8"/>
</g>
<g id="clust7" class="cluster">
<title>cluster_GridModule_providers</title>
<polygon fill="none" stroke="black" points="182,-40.8 182,-92.8 314,-92.8 314,-40.8 182,-40.8"/>
</g>
<g id="clust2" class="cluster">
<title>cluster_GridModule_declarations</title>
<polygon fill="none" stroke="black" points="16,-40.8 16,-92.8 174,-92.8 174,-40.8 16,-40.8"/>
</g>
<!-- DemoGridComponent -->
<g id="node1" class="node">
<title>DemoGridComponent</title>
<polygon fill="#ffffb3" stroke="black" points="165.7,-84.8 24.3,-84.8 24.3,-48.8 165.7,-48.8 165.7,-84.8"/>
<text text-anchor="middle" x="95" y="-62.6" font-family="Times,serif" font-size="14.00">DemoGridComponent</text>
</g>
<!-- GridModule -->
<g id="node2" class="node">
<title>GridModule</title>
<polygon fill="#8dd3c7" stroke="black" points="779.71,-149.8 776.71,-153.8 755.71,-153.8 752.71,-149.8 694.29,-149.8 694.29,-113.8 779.71,-113.8 779.71,-149.8"/>
<text text-anchor="middle" x="737" y="-127.6" font-family="Times,serif" font-size="14.00">GridModule</text>
</g>
<!-- DemoGridComponent&#45;&gt;GridModule -->
<g id="edge1" class="edge">
<title>DemoGridComponent&#45;&gt;GridModule</title>
<path fill="none" stroke="black" d="M95,-85.09C95,-107.01 95,-140.8 95,-140.8 95,-140.8 684.38,-140.8 684.38,-140.8"/>
<polygon fill="black" stroke="black" points="684.38,-144.3 694.38,-140.8 684.38,-137.3 684.38,-144.3"/>
</g>
<!-- GridRoutingModule -->
<g id="node3" class="node">
<title>GridRoutingModule</title>
<polygon fill="#8dd3c7" stroke="black" points="1441.33,-84.8 1438.33,-88.8 1417.33,-88.8 1414.33,-84.8 1310.67,-84.8 1310.67,-48.8 1441.33,-48.8 1441.33,-84.8"/>
<text text-anchor="middle" x="1376" y="-62.6" font-family="Times,serif" font-size="14.00">GridRoutingModule</text>
</g>
<!-- GridRoutingModule&#45;&gt;GridModule -->
<g id="edge2" class="edge">
<title>GridRoutingModule&#45;&gt;GridModule</title>
<path fill="none" stroke="black" d="M1376,-85.09C1376,-107.01 1376,-140.8 1376,-140.8 1376,-140.8 789.92,-140.8 789.92,-140.8"/>
<polygon fill="black" stroke="black" points="789.92,-137.3 779.92,-140.8 789.92,-144.3 789.92,-137.3"/>
</g>
<!-- JNetworkBootstrap4ButtonModule -->
<g id="node4" class="node">
<title>JNetworkBootstrap4ButtonModule</title>
<polygon fill="#8dd3c7" stroke="black" points="1292.53,-84.8 1289.53,-88.8 1268.53,-88.8 1265.53,-84.8 1079.47,-84.8 1079.47,-48.8 1292.53,-48.8 1292.53,-84.8"/>
<text text-anchor="middle" x="1186" y="-62.6" font-family="Times,serif" font-size="14.00">JNetworkBootstrap4ButtonModule</text>
</g>
<!-- JNetworkBootstrap4ButtonModule&#45;&gt;GridModule -->
<g id="edge3" class="edge">
<title>JNetworkBootstrap4ButtonModule&#45;&gt;GridModule</title>
<path fill="none" stroke="black" d="M1186,-84.91C1186,-104.14 1186,-131.8 1186,-131.8 1186,-131.8 789.65,-131.8 789.65,-131.8"/>
<polygon fill="black" stroke="black" points="789.65,-128.3 779.65,-131.8 789.65,-135.3 789.65,-128.3"/>
</g>
<!-- JNetworkBootstrap4FormModule -->
<g id="node5" class="node">
<title>JNetworkBootstrap4FormModule</title>
<polygon fill="#8dd3c7" stroke="black" points="1060.74,-84.8 1057.74,-88.8 1036.74,-88.8 1033.74,-84.8 855.26,-84.8 855.26,-48.8 1060.74,-48.8 1060.74,-84.8"/>
<text text-anchor="middle" x="958" y="-62.6" font-family="Times,serif" font-size="14.00">JNetworkBootstrap4FormModule</text>
</g>
<!-- JNetworkBootstrap4FormModule&#45;&gt;GridModule -->
<g id="edge4" class="edge">
<title>JNetworkBootstrap4FormModule&#45;&gt;GridModule</title>
<path fill="none" stroke="black" d="M958,-84.83C958,-101.2 958,-122.8 958,-122.8 958,-122.8 789.61,-122.8 789.61,-122.8"/>
<polygon fill="black" stroke="black" points="789.61,-119.3 779.61,-122.8 789.61,-126.3 789.61,-119.3"/>
</g>
<!-- JNetworkBootstrap4GridModule -->
<g id="node6" class="node">
<title>JNetworkBootstrap4GridModule</title>
<polygon fill="#8dd3c7" stroke="black" points="837.57,-84.8 834.57,-88.8 813.57,-88.8 810.57,-84.8 636.43,-84.8 636.43,-48.8 837.57,-48.8 837.57,-84.8"/>
<text text-anchor="middle" x="737" y="-62.6" font-family="Times,serif" font-size="14.00">JNetworkBootstrap4GridModule</text>
</g>
<!-- JNetworkBootstrap4GridModule&#45;&gt;GridModule -->
<g id="edge5" class="edge">
<title>JNetworkBootstrap4GridModule&#45;&gt;GridModule</title>
<path fill="none" stroke="black" d="M737,-84.91C737,-84.91 737,-103.79 737,-103.79"/>
<polygon fill="black" stroke="black" points="733.5,-103.79 737,-113.79 740.5,-103.79 733.5,-103.79"/>
</g>
<!-- JNetworkBootstrap4ValidationSummaryModule -->
<g id="node7" class="node">
<title>JNetworkBootstrap4ValidationSummaryModule</title>
<polygon fill="#8dd3c7" stroke="black" points="618.45,-84.8 615.45,-88.8 594.45,-88.8 591.45,-84.8 329.55,-84.8 329.55,-48.8 618.45,-48.8 618.45,-84.8"/>
<text text-anchor="middle" x="474" y="-62.6" font-family="Times,serif" font-size="14.00">JNetworkBootstrap4ValidationSummaryModule</text>
</g>
<!-- JNetworkBootstrap4ValidationSummaryModule&#45;&gt;GridModule -->
<g id="edge6" class="edge">
<title>JNetworkBootstrap4ValidationSummaryModule&#45;&gt;GridModule</title>
<path fill="none" stroke="black" d="M474,-84.83C474,-101.2 474,-122.8 474,-122.8 474,-122.8 684.16,-122.8 684.16,-122.8"/>
<polygon fill="black" stroke="black" points="684.16,-126.3 694.16,-122.8 684.16,-119.3 684.16,-126.3"/>
</g>
<!-- GridService -->
<g id="node8" class="node">
<title>GridService</title>
<ellipse fill="#fdb462" stroke="black" cx="248" cy="-66.8" rx="57.88" ry="18"/>
<text text-anchor="middle" x="248" y="-62.6" font-family="Times,serif" font-size="14.00">GridService</text>
</g>
<!-- GridService&#45;&gt;GridModule -->
<g id="edge7" class="edge">
<title>GridService&#45;&gt;GridModule</title>
<path fill="none" stroke="black" d="M248,-84.91C248,-104.14 248,-131.8 248,-131.8 248,-131.8 684.03,-131.8 684.03,-131.8"/>
<polygon fill="black" stroke="black" points="684.03,-135.3 694.03,-131.8 684.03,-128.3 684.03,-135.3"/>
</g>
</g>
</svg>
