<?xml version="1.0" encoding="UTF-8" standalone="no"?>
<!DOCTYPE svg PUBLIC "-//W3C//DTD SVG 1.1//EN"
 "http://www.w3.org/Graphics/SVG/1.1/DTD/svg11.dtd">
<!-- Generated by graphviz version 2.47.0 (20210316.0004)
 -->
<!-- Title: dependencies Pages: 1 -->
<svg width="1722pt" height="396pt"
 viewBox="0.00 0.00 1722.00 395.59" xmlns="http://www.w3.org/2000/svg" xmlns:xlink="http://www.w3.org/1999/xlink">
<g id="graph0" class="graph" transform="scale(1 1) rotate(0) translate(4 391.59)">
<title>dependencies</title>
<polygon fill="white" stroke="transparent" points="-4,4 -4,-391.59 1718,-391.59 1718,4 -4,4"/>
<text text-anchor="start" x="836.01" y="-42.4" font-family="Times-12" font-weight="bold" font-size="14.00">Legend</text>
<polygon fill="#ffffb3" stroke="transparent" points="623,-10 623,-30 643,-30 643,-10 623,-10"/>
<text text-anchor="start" x="646.63" y="-15.4" font-family="Times-12" font-size="14.00"> &#160;Declarations</text>
<polygon fill="#8dd3c7" stroke="transparent" points="736,-10 736,-30 756,-30 756,-10 736,-10"/>
<text text-anchor="start" x="759.73" y="-15.4" font-family="Times-12" font-size="14.00"> &#160;Module</text>
<polygon fill="#80b1d3" stroke="transparent" points="822,-10 822,-30 842,-30 842,-10 822,-10"/>
<text text-anchor="start" x="845.78" y="-15.4" font-family="Times-12" font-size="14.00"> &#160;Bootstrap</text>
<polygon fill="#fdb462" stroke="transparent" points="919,-10 919,-30 939,-30 939,-10 919,-10"/>
<text text-anchor="start" x="942.67" y="-15.4" font-family="Times-12" font-size="14.00"> &#160;Providers</text>
<polygon fill="#fb8072" stroke="transparent" points="1015,-10 1015,-30 1035,-30 1035,-10 1015,-10"/>
<text text-anchor="start" x="1038.73" y="-15.4" font-family="Times-12" font-size="14.00"> &#160;Exports</text>
<g id="clust1" class="cluster">
<title>cluster_SACBootstrap4DateTimeModule</title>
<polygon fill="none" stroke="black" stroke-dasharray="1,5" points="8,-70 8,-379.59 1706,-379.59 1706,-70 8,-70"/>
</g>
<g id="clust2" class="cluster">
<title>cluster_SACBootstrap4DateTimeModule_declarations</title>
<polygon fill="none" stroke="black" points="349,-189.59 349,-241.59 1010,-241.59 1010,-189.59 349,-189.59"/>
</g>
<g id="clust8" class="cluster">
<title>cluster_SACBootstrap4DateTimeModule_exports</title>
<polygon fill="none" stroke="black" points="343,-319.59 343,-371.59 1017,-371.59 1017,-319.59 343,-319.59"/>
</g>
<g id="clust3" class="cluster">
<title>cluster_SACBootstrap4DateTimeModule_SacDateComponent_providers</title>
<polygon fill="none" stroke="black" points="16,-78 16,-176.59 1698,-176.59 1698,-78 16,-78"/>
</g>
<!-- SacDateComponent -->
<g id="node1" class="node">
<title>SacDateComponent</title>
<polygon fill="#ffffb3" stroke="black" points="1001.97,-233.59 874.03,-233.59 874.03,-197.59 1001.97,-197.59 1001.97,-233.59"/>
<text text-anchor="middle" x="938" y="-211.39" font-family="Times,serif" font-size="14.00">SacDateComponent</text>
</g>
<!-- SACBootstrap4DateTimeModule -->
<g id="node5" class="node">
<title>SACBootstrap4DateTimeModule</title>
<polygon fill="#8dd3c7" stroke="black" points="779.19,-298.59 776.19,-302.59 755.19,-302.59 752.19,-298.59 574.81,-298.59 574.81,-262.59 779.19,-262.59 779.19,-298.59"/>
<text text-anchor="middle" x="677" y="-276.39" font-family="Times,serif" font-size="14.00">SACBootstrap4DateTimeModule</text>
</g>
<!-- SacDateComponent&#45;&gt;SACBootstrap4DateTimeModule -->
<g id="edge1" class="edge">
<title>SacDateComponent&#45;&gt;SACBootstrap4DateTimeModule</title>
<path fill="none" stroke="black" d="M960.41,-233.61C960.41,-250.96 960.41,-274.59 960.41,-274.59 960.41,-274.59 789.32,-274.59 789.32,-274.59"/>
<polygon fill="black" stroke="black" points="789.32,-271.09 779.32,-274.59 789.32,-278.09 789.32,-271.09"/>
</g>
<!-- SacDateSelectorComponent -->
<g id="node2" class="node">
<title>SacDateSelectorComponent</title>
<polygon fill="#ffffb3" stroke="black" points="855.84,-233.59 682.16,-233.59 682.16,-197.59 855.84,-197.59 855.84,-233.59"/>
<text text-anchor="middle" x="769" y="-211.39" font-family="Times,serif" font-size="14.00">SacDateSelectorComponent</text>
</g>
<!-- SacDateSelectorComponent&#45;&gt;SACBootstrap4DateTimeModule -->
<g id="edge4" class="edge">
<title>SacDateSelectorComponent&#45;&gt;SACBootstrap4DateTimeModule</title>
<path fill="none" stroke="black" d="M730.59,-233.7C730.59,-233.7 730.59,-252.58 730.59,-252.58"/>
<polygon fill="black" stroke="black" points="727.09,-252.58 730.59,-262.58 734.09,-252.58 727.09,-252.58"/>
</g>
<!-- SacDateTimeComponent -->
<g id="node3" class="node">
<title>SacDateTimeComponent</title>
<polygon fill="#ffffb3" stroke="black" points="663.52,-233.59 506.48,-233.59 506.48,-197.59 663.52,-197.59 663.52,-233.59"/>
<text text-anchor="middle" x="585" y="-211.39" font-family="Times,serif" font-size="14.00">SacDateTimeComponent</text>
</g>
<!-- SacDateTimeComponent&#45;&gt;SACBootstrap4DateTimeModule -->
<g id="edge5" class="edge">
<title>SacDateTimeComponent&#45;&gt;SACBootstrap4DateTimeModule</title>
<path fill="none" stroke="black" d="M619.33,-233.7C619.33,-233.7 619.33,-252.58 619.33,-252.58"/>
<polygon fill="black" stroke="black" points="615.83,-252.58 619.33,-262.58 622.83,-252.58 615.83,-252.58"/>
</g>
<!-- SacTimeComponent -->
<g id="node4" class="node">
<title>SacTimeComponent</title>
<polygon fill="#ffffb3" stroke="black" points="488.59,-233.59 357.41,-233.59 357.41,-197.59 488.59,-197.59 488.59,-233.59"/>
<text text-anchor="middle" x="423" y="-211.39" font-family="Times,serif" font-size="14.00">SacTimeComponent</text>
</g>
<!-- SacTimeComponent&#45;&gt;SACBootstrap4DateTimeModule -->
<g id="edge6" class="edge">
<title>SacTimeComponent&#45;&gt;SACBootstrap4DateTimeModule</title>
<path fill="none" stroke="black" d="M442.68,-233.61C442.68,-250.96 442.68,-274.59 442.68,-274.59 442.68,-274.59 564.57,-274.59 564.57,-274.59"/>
<polygon fill="black" stroke="black" points="564.57,-278.09 574.57,-274.59 564.57,-271.09 564.57,-278.09"/>
</g>
<!-- SacDateComponent  -->
<g id="node8" class="node">
<title>SacDateComponent </title>
<polygon fill="#fb8072" stroke="black" points="1008.97,-363.59 877.03,-363.59 877.03,-327.59 1008.97,-327.59 1008.97,-363.59"/>
<text text-anchor="middle" x="943" y="-341.39" font-family="Times,serif" font-size="14.00">SacDateComponent </text>
</g>
<!-- SACBootstrap4DateTimeModule&#45;&gt;SacDateComponent  -->
<g id="edge7" class="edge">
<title>SACBootstrap4DateTimeModule&#45;&gt;SacDateComponent </title>
<path fill="none" stroke="black" stroke-dasharray="5,2" d="M779.21,-286.59C845.21,-286.59 918.84,-286.59 918.84,-286.59 918.84,-286.59 918.84,-317.57 918.84,-317.57"/>
<polygon fill="black" stroke="black" points="915.34,-317.57 918.84,-327.57 922.34,-317.57 915.34,-317.57"/>
</g>
<!-- SacDateSelectorComponent  -->
<g id="node9" class="node">
<title>SacDateSelectorComponent </title>
<polygon fill="#fb8072" stroke="black" points="859.84,-363.59 682.16,-363.59 682.16,-327.59 859.84,-327.59 859.84,-363.59"/>
<text text-anchor="middle" x="771" y="-341.39" font-family="Times,serif" font-size="14.00">SacDateSelectorComponent </text>
</g>
<!-- SACBootstrap4DateTimeModule&#45;&gt;SacDateSelectorComponent  -->
<g id="edge8" class="edge">
<title>SACBootstrap4DateTimeModule&#45;&gt;SacDateSelectorComponent </title>
<path fill="none" stroke="black" stroke-dasharray="5,2" d="M730.71,-298.7C730.71,-298.7 730.71,-317.58 730.71,-317.58"/>
<polygon fill="black" stroke="black" points="727.21,-317.58 730.71,-327.58 734.21,-317.58 727.21,-317.58"/>
</g>
<!-- SacDateTimeComponent  -->
<g id="node10" class="node">
<title>SacDateTimeComponent </title>
<polygon fill="#fb8072" stroke="black" points="664.52,-363.59 503.48,-363.59 503.48,-327.59 664.52,-327.59 664.52,-363.59"/>
<text text-anchor="middle" x="584" y="-341.39" font-family="Times,serif" font-size="14.00">SacDateTimeComponent </text>
</g>
<!-- SACBootstrap4DateTimeModule&#45;&gt;SacDateTimeComponent  -->
<g id="edge9" class="edge">
<title>SACBootstrap4DateTimeModule&#45;&gt;SacDateTimeComponent </title>
<path fill="none" stroke="black" stroke-dasharray="5,2" d="M619.71,-298.7C619.71,-298.7 619.71,-317.58 619.71,-317.58"/>
<polygon fill="black" stroke="black" points="616.21,-317.58 619.71,-327.58 623.21,-317.58 616.21,-317.58"/>
</g>
<!-- SacTimeComponent  -->
<g id="node11" class="node">
<title>SacTimeComponent </title>
<polygon fill="#fb8072" stroke="black" points="485.09,-363.59 350.91,-363.59 350.91,-327.59 485.09,-327.59 485.09,-363.59"/>
<text text-anchor="middle" x="418" y="-341.39" font-family="Times,serif" font-size="14.00">SacTimeComponent </text>
</g>
<!-- SACBootstrap4DateTimeModule&#45;&gt;SacTimeComponent  -->
<g id="edge10" class="edge">
<title>SACBootstrap4DateTimeModule&#45;&gt;SacTimeComponent </title>
<path fill="none" stroke="black" stroke-dasharray="5,2" d="M574.67,-286.59C495.78,-286.59 400.07,-286.59 400.07,-286.59 400.07,-286.59 400.07,-317.57 400.07,-317.57"/>
<polygon fill="black" stroke="black" points="396.57,-317.57 400.07,-327.57 403.57,-317.57 396.57,-317.57"/>
</g>
<!-- {
 &#160;&#160;&#160;provide: NG_VALUE_ACCESSOR, multi: true, useExisting: forwardRef(() =&gt; SacDateComponent),
} -->
<g id="node6" class="node">
<title>{
 &#160;&#160;&#160;provide: NG_VALUE_ACCESSOR, multi: true, useExisting: forwardRef(() =&gt; SacDateComponent),
}</title>
<ellipse fill="#fdb462" stroke="black" cx="1265" cy="-127.3" rx="424.93" ry="41.09"/>
<text text-anchor="middle" x="1265" y="-139.9" font-family="Times,serif" font-size="14.00">{</text>
<text text-anchor="middle" x="1265" y="-123.1" font-family="Times,serif" font-size="14.00"> &#160;&#160;&#160;provide: NG_VALUE_ACCESSOR, multi: true, useExisting: forwardRef(() =&gt; SacDateComponent),</text>
<text text-anchor="middle" x="1265" y="-106.3" font-family="Times,serif" font-size="14.00">}</text>
</g>
<!-- {
 &#160;&#160;&#160;provide: NG_VALUE_ACCESSOR, multi: true, useExisting: forwardRef(() =&gt; SacDateComponent),
}&#45;&gt;SacDateComponent -->
<g id="edge2" class="edge">
<title>{
 &#160;&#160;&#160;provide: NG_VALUE_ACCESSOR, multi: true, useExisting: forwardRef(() =&gt; SacDateComponent),
}&#45;&gt;SacDateComponent</title>
<path fill="none" stroke="black" d="M959.33,-156.21C959.33,-156.21 959.33,-187.43 959.33,-187.43"/>
<polygon fill="black" stroke="black" points="955.83,-187.43 959.33,-197.43 962.83,-187.43 955.83,-187.43"/>
</g>
<!-- {
 &#160;&#160;&#160;provide: NG_VALIDATORS, multi: true, useExisting: forwardRef(() =&gt; SacDateComponent),
} -->
<g id="node7" class="node">
<title>{
 &#160;&#160;&#160;provide: NG_VALIDATORS, multi: true, useExisting: forwardRef(() =&gt; SacDateComponent),
}</title>
<ellipse fill="#fdb462" stroke="black" cx="423" cy="-127.3" rx="398.61" ry="41.09"/>
<text text-anchor="middle" x="423" y="-139.9" font-family="Times,serif" font-size="14.00">{</text>
<text text-anchor="middle" x="423" y="-123.1" font-family="Times,serif" font-size="14.00"> &#160;&#160;&#160;provide: NG_VALIDATORS, multi: true, useExisting: forwardRef(() =&gt; SacDateComponent),</text>
<text text-anchor="middle" x="423" y="-106.3" font-family="Times,serif" font-size="14.00">}</text>
</g>
<!-- {
 &#160;&#160;&#160;provide: NG_VALIDATORS, multi: true, useExisting: forwardRef(() =&gt; SacDateComponent),
}&#45;&gt;SacDateComponent -->
<g id="edge3" class="edge">
<title>{
 &#160;&#160;&#160;provide: NG_VALIDATORS, multi: true, useExisting: forwardRef(() =&gt; SacDateComponent),
}&#45;&gt;SacDateComponent</title>
<path fill="none" stroke="black" d="M751.82,-150.84C751.82,-166.27 751.82,-183.59 751.82,-183.59 751.82,-183.59 916.67,-183.59 916.67,-183.59 916.67,-183.59 916.67,-187.35 916.67,-187.35"/>
<polygon fill="black" stroke="black" points="913.17,-187.35 916.67,-197.35 920.17,-187.35 913.17,-187.35"/>
</g>
</g>
</svg>
