<?xml version="1.0" encoding="UTF-8" standalone="no"?>
<!DOCTYPE svg PUBLIC "-//W3C//DTD SVG 1.1//EN"
 "http://www.w3.org/Graphics/SVG/1.1/DTD/svg11.dtd">
<!-- Generated by graphviz version 2.47.0 (20210316.0004)
 -->
<!-- Title: dependencies Pages: 1 -->
<svg width="1712pt" height="396pt"
 viewBox="0.00 0.00 1712.00 395.59" xmlns="http://www.w3.org/2000/svg" xmlns:xlink="http://www.w3.org/1999/xlink">
<g id="graph0" class="graph" transform="scale(1 1) rotate(0) translate(4 391.59)">
<title>dependencies</title>
<polygon fill="white" stroke="transparent" points="-4,4 -4,-391.59 1708,-391.59 1708,4 -4,4"/>
<text text-anchor="start" x="831.01" y="-42.4" font-family="Times-12" font-weight="bold" font-size="14.00">Legend</text>
<polygon fill="#ffffb3" stroke="transparent" points="618,-10 618,-30 638,-30 638,-10 618,-10"/>
<text text-anchor="start" x="641.63" y="-15.4" font-family="Times-12" font-size="14.00"> &#160;Declarations</text>
<polygon fill="#8dd3c7" stroke="transparent" points="731,-10 731,-30 751,-30 751,-10 731,-10"/>
<text text-anchor="start" x="754.73" y="-15.4" font-family="Times-12" font-size="14.00"> &#160;Module</text>
<polygon fill="#80b1d3" stroke="transparent" points="817,-10 817,-30 837,-30 837,-10 817,-10"/>
<text text-anchor="start" x="840.78" y="-15.4" font-family="Times-12" font-size="14.00"> &#160;Bootstrap</text>
<polygon fill="#fdb462" stroke="transparent" points="914,-10 914,-30 934,-30 934,-10 914,-10"/>
<text text-anchor="start" x="937.67" y="-15.4" font-family="Times-12" font-size="14.00"> &#160;Providers</text>
<polygon fill="#fb8072" stroke="transparent" points="1010,-10 1010,-30 1030,-30 1030,-10 1010,-10"/>
<text text-anchor="start" x="1033.73" y="-15.4" font-family="Times-12" font-size="14.00"> &#160;Exports</text>
<g id="clust1" class="cluster">
<title>cluster_SACBootstrap4DateTimeModule</title>
<polygon fill="none" stroke="black" stroke-dasharray="1,5" points="8,-70 8,-379.59 1696,-379.59 1696,-70 8,-70"/>
</g>
<g id="clust8" class="cluster">
<title>cluster_SACBootstrap4DateTimeModule_exports</title>
<polygon fill="none" stroke="black" points="344,-319.59 344,-371.59 1006,-371.59 1006,-319.59 344,-319.59"/>
</g>
<g id="clust2" class="cluster">
<title>cluster_SACBootstrap4DateTimeModule_declarations</title>
<polygon fill="none" stroke="black" points="352,-189.59 352,-241.59 1000,-241.59 1000,-189.59 352,-189.59"/>
</g>
<g id="clust3" class="cluster">
<title>cluster_SACBootstrap4DateTimeModule_NgDateComponent_providers</title>
<polygon fill="none" stroke="black" points="16,-78 16,-176.59 1688,-176.59 1688,-78 16,-78"/>
</g>
<!-- NgDateComponent -->
<g id="node1" class="node">
<title>NgDateComponent</title>
<polygon fill="#ffffb3" stroke="black" points="992.37,-233.59 867.63,-233.59 867.63,-197.59 992.37,-197.59 992.37,-233.59"/>
<text text-anchor="middle" x="930" y="-211.39" font-family="Times,serif" font-size="14.00">NgDateComponent</text>
</g>
<!-- SACBootstrap4DateTimeModule -->
<g id="node5" class="node">
<title>SACBootstrap4DateTimeModule</title>
<polygon fill="#8dd3c7" stroke="black" points="775.19,-298.59 772.19,-302.59 751.19,-302.59 748.19,-298.59 570.81,-298.59 570.81,-262.59 775.19,-262.59 775.19,-298.59"/>
<text text-anchor="middle" x="673" y="-276.39" font-family="Times,serif" font-size="14.00">SACBootstrap4DateTimeModule</text>
</g>
<!-- NgDateComponent&#45;&gt;SACBootstrap4DateTimeModule -->
<g id="edge1" class="edge">
<title>NgDateComponent&#45;&gt;SACBootstrap4DateTimeModule</title>
<path fill="none" stroke="black" d="M951.56,-233.61C951.56,-250.96 951.56,-274.59 951.56,-274.59 951.56,-274.59 785.14,-274.59 785.14,-274.59"/>
<polygon fill="black" stroke="black" points="785.14,-271.09 775.14,-274.59 785.14,-278.09 785.14,-271.09"/>
</g>
<!-- NgDateSelectorComponent -->
<g id="node2" class="node">
<title>NgDateSelectorComponent</title>
<polygon fill="#ffffb3" stroke="black" points="849.23,-233.59 678.77,-233.59 678.77,-197.59 849.23,-197.59 849.23,-233.59"/>
<text text-anchor="middle" x="764" y="-211.39" font-family="Times,serif" font-size="14.00">NgDateSelectorComponent</text>
</g>
<!-- NgDateSelectorComponent&#45;&gt;SACBootstrap4DateTimeModule -->
<g id="edge4" class="edge">
<title>NgDateSelectorComponent&#45;&gt;SACBootstrap4DateTimeModule</title>
<path fill="none" stroke="black" d="M726.86,-233.7C726.86,-233.7 726.86,-252.58 726.86,-252.58"/>
<polygon fill="black" stroke="black" points="723.36,-252.58 726.86,-262.58 730.36,-252.58 723.36,-252.58"/>
</g>
<!-- NgDateTimeComponent -->
<g id="node3" class="node">
<title>NgDateTimeComponent</title>
<polygon fill="#ffffb3" stroke="black" points="660.41,-233.59 505.59,-233.59 505.59,-197.59 660.41,-197.59 660.41,-233.59"/>
<text text-anchor="middle" x="583" y="-211.39" font-family="Times,serif" font-size="14.00">NgDateTimeComponent</text>
</g>
<!-- NgDateTimeComponent&#45;&gt;SACBootstrap4DateTimeModule -->
<g id="edge5" class="edge">
<title>NgDateTimeComponent&#45;&gt;SACBootstrap4DateTimeModule</title>
<path fill="none" stroke="black" d="M615.56,-233.7C615.56,-233.7 615.56,-252.58 615.56,-252.58"/>
<polygon fill="black" stroke="black" points="612.06,-252.58 615.56,-262.58 619.06,-252.58 612.06,-252.58"/>
</g>
<!-- NgTimeComponent -->
<g id="node4" class="node">
<title>NgTimeComponent</title>
<polygon fill="#ffffb3" stroke="black" points="487.99,-233.59 360.01,-233.59 360.01,-197.59 487.99,-197.59 487.99,-233.59"/>
<text text-anchor="middle" x="424" y="-211.39" font-family="Times,serif" font-size="14.00">NgTimeComponent</text>
</g>
<!-- NgTimeComponent&#45;&gt;SACBootstrap4DateTimeModule -->
<g id="edge6" class="edge">
<title>NgTimeComponent&#45;&gt;SACBootstrap4DateTimeModule</title>
<path fill="none" stroke="black" d="M442.5,-233.61C442.5,-250.96 442.5,-274.59 442.5,-274.59 442.5,-274.59 560.89,-274.59 560.89,-274.59"/>
<polygon fill="black" stroke="black" points="560.89,-278.09 570.89,-274.59 560.89,-271.09 560.89,-278.09"/>
</g>
<!-- NgDateComponent  -->
<g id="node8" class="node">
<title>NgDateComponent </title>
<polygon fill="#fb8072" stroke="black" points="998.37,-363.59 869.63,-363.59 869.63,-327.59 998.37,-327.59 998.37,-363.59"/>
<text text-anchor="middle" x="934" y="-341.39" font-family="Times,serif" font-size="14.00">NgDateComponent </text>
</g>
<!-- SACBootstrap4DateTimeModule&#45;&gt;NgDateComponent  -->
<g id="edge7" class="edge">
<title>SACBootstrap4DateTimeModule&#45;&gt;NgDateComponent </title>
<path fill="none" stroke="black" stroke-dasharray="5,2" d="M775.18,-286.59C839.6,-286.59 910.69,-286.59 910.69,-286.59 910.69,-286.59 910.69,-317.57 910.69,-317.57"/>
<polygon fill="black" stroke="black" points="907.19,-317.57 910.69,-327.57 914.19,-317.57 907.19,-317.57"/>
</g>
<!-- NgDateSelectorComponent  -->
<g id="node9" class="node">
<title>NgDateSelectorComponent </title>
<polygon fill="#fb8072" stroke="black" points="852.23,-363.59 677.77,-363.59 677.77,-327.59 852.23,-327.59 852.23,-363.59"/>
<text text-anchor="middle" x="765" y="-341.39" font-family="Times,serif" font-size="14.00">NgDateSelectorComponent </text>
</g>
<!-- SACBootstrap4DateTimeModule&#45;&gt;NgDateSelectorComponent  -->
<g id="edge8" class="edge">
<title>SACBootstrap4DateTimeModule&#45;&gt;NgDateSelectorComponent </title>
<path fill="none" stroke="black" stroke-dasharray="5,2" d="M726.49,-298.7C726.49,-298.7 726.49,-317.58 726.49,-317.58"/>
<polygon fill="black" stroke="black" points="722.99,-317.58 726.49,-327.58 729.99,-317.58 722.99,-317.58"/>
</g>
<!-- NgDateTimeComponent  -->
<g id="node10" class="node">
<title>NgDateTimeComponent </title>
<polygon fill="#fb8072" stroke="black" points="659.91,-363.59 502.09,-363.59 502.09,-327.59 659.91,-327.59 659.91,-363.59"/>
<text text-anchor="middle" x="581" y="-341.39" font-family="Times,serif" font-size="14.00">NgDateTimeComponent </text>
</g>
<!-- SACBootstrap4DateTimeModule&#45;&gt;NgDateTimeComponent  -->
<g id="edge9" class="edge">
<title>SACBootstrap4DateTimeModule&#45;&gt;NgDateTimeComponent </title>
<path fill="none" stroke="black" stroke-dasharray="5,2" d="M615.43,-298.7C615.43,-298.7 615.43,-317.58 615.43,-317.58"/>
<polygon fill="black" stroke="black" points="611.93,-317.58 615.43,-327.58 618.93,-317.58 611.93,-317.58"/>
</g>
<!-- NgTimeComponent  -->
<g id="node11" class="node">
<title>NgTimeComponent </title>
<polygon fill="#fb8072" stroke="black" points="483.99,-363.59 352.01,-363.59 352.01,-327.59 483.99,-327.59 483.99,-363.59"/>
<text text-anchor="middle" x="418" y="-341.39" font-family="Times,serif" font-size="14.00">NgTimeComponent </text>
</g>
<!-- SACBootstrap4DateTimeModule&#45;&gt;NgTimeComponent  -->
<g id="edge10" class="edge">
<title>SACBootstrap4DateTimeModule&#45;&gt;NgTimeComponent </title>
<path fill="none" stroke="black" stroke-dasharray="5,2" d="M570.65,-286.59C493.62,-286.59 401.25,-286.59 401.25,-286.59 401.25,-286.59 401.25,-317.57 401.25,-317.57"/>
<polygon fill="black" stroke="black" points="397.75,-317.57 401.25,-327.57 404.75,-317.57 397.75,-317.57"/>
</g>
<!-- {
 &#160;&#160;&#160;provide: NG_VALUE_ACCESSOR, multi: true, useExisting: forwardRef(() =&gt; NgDateComponent),
} -->
<g id="node6" class="node">
<title>{
 &#160;&#160;&#160;provide: NG_VALUE_ACCESSOR, multi: true, useExisting: forwardRef(() =&gt; NgDateComponent),
}</title>
<ellipse fill="#fdb462" stroke="black" cx="1257" cy="-127.3" rx="422.54" ry="41.09"/>
<text text-anchor="middle" x="1257" y="-139.9" font-family="Times,serif" font-size="14.00">{</text>
<text text-anchor="middle" x="1257" y="-123.1" font-family="Times,serif" font-size="14.00"> &#160;&#160;&#160;provide: NG_VALUE_ACCESSOR, multi: true, useExisting: forwardRef(() =&gt; NgDateComponent),</text>
<text text-anchor="middle" x="1257" y="-106.3" font-family="Times,serif" font-size="14.00">}</text>
</g>
<!-- {
 &#160;&#160;&#160;provide: NG_VALUE_ACCESSOR, multi: true, useExisting: forwardRef(() =&gt; NgDateComponent),
}&#45;&gt;NgDateComponent -->
<g id="edge2" class="edge">
<title>{
 &#160;&#160;&#160;provide: NG_VALUE_ACCESSOR, multi: true, useExisting: forwardRef(() =&gt; NgDateComponent),
}&#45;&gt;NgDateComponent</title>
<path fill="none" stroke="black" d="M950.81,-156.21C950.81,-156.21 950.81,-187.43 950.81,-187.43"/>
<polygon fill="black" stroke="black" points="947.31,-187.43 950.81,-197.43 954.31,-187.43 947.31,-187.43"/>
</g>
<!-- {
 &#160;&#160;&#160;provide: NG_VALIDATORS, multi: true, useExisting: forwardRef(() =&gt; NgDateComponent),
} -->
<g id="node7" class="node">
<title>{
 &#160;&#160;&#160;provide: NG_VALIDATORS, multi: true, useExisting: forwardRef(() =&gt; NgDateComponent),
}</title>
<ellipse fill="#fdb462" stroke="black" cx="420" cy="-127.3" rx="396.22" ry="41.09"/>
<text text-anchor="middle" x="420" y="-139.9" font-family="Times,serif" font-size="14.00">{</text>
<text text-anchor="middle" x="420" y="-123.1" font-family="Times,serif" font-size="14.00"> &#160;&#160;&#160;provide: NG_VALIDATORS, multi: true, useExisting: forwardRef(() =&gt; NgDateComponent),</text>
<text text-anchor="middle" x="420" y="-106.3" font-family="Times,serif" font-size="14.00">}</text>
</g>
<!-- {
 &#160;&#160;&#160;provide: NG_VALIDATORS, multi: true, useExisting: forwardRef(() =&gt; NgDateComponent),
}&#45;&gt;NgDateComponent -->
<g id="edge3" class="edge">
<title>{
 &#160;&#160;&#160;provide: NG_VALIDATORS, multi: true, useExisting: forwardRef(() =&gt; NgDateComponent),
}&#45;&gt;NgDateComponent</title>
<path fill="none" stroke="black" d="M747.5,-150.84C747.5,-166.27 747.5,-183.59 747.5,-183.59 747.5,-183.59 909.19,-183.59 909.19,-183.59 909.19,-183.59 909.19,-187.35 909.19,-187.35"/>
<polygon fill="black" stroke="black" points="905.69,-187.35 909.19,-197.35 912.69,-187.35 905.69,-187.35"/>
</g>
</g>
</svg>
