<?xml version="1.0" encoding="UTF-8" standalone="no"?>
<!DOCTYPE svg PUBLIC "-//W3C//DTD SVG 1.1//EN"
 "http://www.w3.org/Graphics/SVG/1.1/DTD/svg11.dtd">
<!-- Generated by graphviz version 2.47.0 (20210316.0004)
 -->
<!-- Title: dependencies Pages: 1 -->
<svg width="2198pt" height="349pt"
 viewBox="0.00 0.00 2198.00 349.00" xmlns="http://www.w3.org/2000/svg" xmlns:xlink="http://www.w3.org/1999/xlink">
<g id="graph0" class="graph" transform="scale(1 1) rotate(0) translate(4 345)">
<title>dependencies</title>
<polygon fill="white" stroke="transparent" points="-4,4 -4,-345 2194,-345 2194,4 -4,4"/>
<text text-anchor="start" x="1074.01" y="-42.4" font-family="Times-12" font-weight="bold" font-size="14.00">Legend</text>
<polygon fill="#ffffb3" stroke="transparent" points="861,-10 861,-30 881,-30 881,-10 861,-10"/>
<text text-anchor="start" x="884.63" y="-15.4" font-family="Times-12" font-size="14.00"> &#160;Declarations</text>
<polygon fill="#8dd3c7" stroke="transparent" points="974,-10 974,-30 994,-30 994,-10 974,-10"/>
<text text-anchor="start" x="997.73" y="-15.4" font-family="Times-12" font-size="14.00"> &#160;Module</text>
<polygon fill="#80b1d3" stroke="transparent" points="1060,-10 1060,-30 1080,-30 1080,-10 1060,-10"/>
<text text-anchor="start" x="1083.78" y="-15.4" font-family="Times-12" font-size="14.00"> &#160;Bootstrap</text>
<polygon fill="#fdb462" stroke="transparent" points="1157,-10 1157,-30 1177,-30 1177,-10 1157,-10"/>
<text text-anchor="start" x="1180.67" y="-15.4" font-family="Times-12" font-size="14.00"> &#160;Providers</text>
<polygon fill="#fb8072" stroke="transparent" points="1253,-10 1253,-30 1273,-30 1273,-10 1253,-10"/>
<text text-anchor="start" x="1276.73" y="-15.4" font-family="Times-12" font-size="14.00"> &#160;Exports</text>
<g id="clust1" class="cluster">
<title>cluster_SACBootstrap3StaticLabelModule</title>
<polygon fill="none" stroke="black" stroke-dasharray="1,5" points="8,-70 8,-333 2182,-333 2182,-70 8,-70"/>
</g>
<g id="clust3" class="cluster">
<title>cluster_SACBootstrap3StaticLabelModule_SacStaticFormContainerComponent_providers</title>
<polygon fill="none" stroke="black" points="420,-78 420,-195 2174,-195 2174,-78 420,-78"/>
</g>
<g id="clust5" class="cluster">
<title>cluster_SACBootstrap3StaticLabelModule_imports</title>
<polygon fill="none" stroke="black" points="206,-143 206,-195 412,-195 412,-143 206,-143"/>
</g>
<g id="clust6" class="cluster">
<title>cluster_SACBootstrap3StaticLabelModule_exports</title>
<polygon fill="none" stroke="black" points="116,-273 116,-325 541,-325 541,-273 116,-273"/>
</g>
<g id="clust2" class="cluster">
<title>cluster_SACBootstrap3StaticLabelModule_declarations</title>
<polygon fill="none" stroke="black" points="16,-143 16,-195 198,-195 198,-143 16,-143"/>
</g>
<!-- SacStaticFormContainerComponent -->
<g id="node1" class="node">
<title>SacStaticFormContainerComponent</title>
<polygon fill="#ffffb3" stroke="black" points="991.47,-187 772.53,-187 772.53,-151 991.47,-151 991.47,-187"/>
<text text-anchor="middle" x="882" y="-164.8" font-family="Times,serif" font-size="14.00">SacStaticFormContainerComponent</text>
</g>
<!-- SACBootstrap3StaticLabelModule -->
<g id="node3" class="node">
<title>SACBootstrap3StaticLabelModule</title>
<polygon fill="#8dd3c7" stroke="black" points="414.97,-252 411.97,-256 390.97,-256 387.97,-252 203.03,-252 203.03,-216 414.97,-216 414.97,-252"/>
<text text-anchor="middle" x="309" y="-229.8" font-family="Times,serif" font-size="14.00">SACBootstrap3StaticLabelModule</text>
</g>
<!-- SacStaticFormContainerComponent&#45;&gt;SACBootstrap3StaticLabelModule -->
<g id="edge1" class="edge">
<title>SacStaticFormContainerComponent&#45;&gt;SACBootstrap3StaticLabelModule</title>
<path fill="none" stroke="black" d="M772.38,-169C632.75,-169 409.35,-169 409.35,-169 409.35,-169 409.35,-205.89 409.35,-205.89"/>
<polygon fill="black" stroke="black" points="405.85,-205.89 409.35,-215.89 412.85,-205.89 405.85,-205.89"/>
</g>
<!-- SacStaticLabelComponent -->
<g id="node2" class="node">
<title>SacStaticLabelComponent</title>
<polygon fill="#ffffb3" stroke="black" points="189.8,-187 24.2,-187 24.2,-151 189.8,-151 189.8,-187"/>
<text text-anchor="middle" x="107" y="-164.8" font-family="Times,serif" font-size="14.00">SacStaticLabelComponent</text>
</g>
<!-- SacStaticLabelComponent&#45;&gt;SACBootstrap3StaticLabelModule -->
<g id="edge4" class="edge">
<title>SacStaticLabelComponent&#45;&gt;SACBootstrap3StaticLabelModule</title>
<path fill="none" stroke="black" d="M190,-169C201.05,-169 208.65,-169 208.65,-169 208.65,-169 208.65,-205.89 208.65,-205.89"/>
<polygon fill="black" stroke="black" points="205.15,-205.89 208.65,-215.89 212.15,-205.89 205.15,-205.89"/>
</g>
<!-- SacStaticFormContainerComponent  -->
<g id="node7" class="node">
<title>SacStaticFormContainerComponent </title>
<polygon fill="#fb8072" stroke="black" points="533.47,-317 310.53,-317 310.53,-281 533.47,-281 533.47,-317"/>
<text text-anchor="middle" x="422" y="-294.8" font-family="Times,serif" font-size="14.00">SacStaticFormContainerComponent </text>
</g>
<!-- SACBootstrap3StaticLabelModule&#45;&gt;SacStaticFormContainerComponent  -->
<g id="edge6" class="edge">
<title>SACBootstrap3StaticLabelModule&#45;&gt;SacStaticFormContainerComponent </title>
<path fill="none" stroke="black" stroke-dasharray="5,2" d="M362.88,-252.11C362.88,-252.11 362.88,-270.99 362.88,-270.99"/>
<polygon fill="black" stroke="black" points="359.38,-270.99 362.88,-280.99 366.38,-270.99 359.38,-270.99"/>
</g>
<!-- SacStaticLabelComponent  -->
<g id="node8" class="node">
<title>SacStaticLabelComponent </title>
<polygon fill="#fb8072" stroke="black" points="292.3,-317 123.7,-317 123.7,-281 292.3,-281 292.3,-317"/>
<text text-anchor="middle" x="208" y="-294.8" font-family="Times,serif" font-size="14.00">SacStaticLabelComponent </text>
</g>
<!-- SACBootstrap3StaticLabelModule&#45;&gt;SacStaticLabelComponent  -->
<g id="edge7" class="edge">
<title>SACBootstrap3StaticLabelModule&#45;&gt;SacStaticLabelComponent </title>
<path fill="none" stroke="black" stroke-dasharray="5,2" d="M247.71,-252.11C247.71,-252.11 247.71,-270.99 247.71,-270.99"/>
<polygon fill="black" stroke="black" points="244.21,-270.99 247.71,-280.99 251.21,-270.99 244.21,-270.99"/>
</g>
<!-- { provide: NG_VALUE_ACCESSOR, multi: true, useExisting: SacStaticFormContainerComponent } -->
<g id="node4" class="node">
<title>{ provide: NG_VALUE_ACCESSOR, multi: true, useExisting: SacStaticFormContainerComponent }</title>
<ellipse fill="#fdb462" stroke="black" cx="1760" cy="-104" rx="406.03" ry="18"/>
<text text-anchor="middle" x="1760" y="-99.8" font-family="Times,serif" font-size="14.00">{ provide: NG_VALUE_ACCESSOR, multi: true, useExisting: SacStaticFormContainerComponent }</text>
</g>
<!-- { provide: NG_VALUE_ACCESSOR, multi: true, useExisting: SacStaticFormContainerComponent }&#45;&gt;SacStaticFormContainerComponent -->
<g id="edge2" class="edge">
<title>{ provide: NG_VALUE_ACCESSOR, multi: true, useExisting: SacStaticFormContainerComponent }&#45;&gt;SacStaticFormContainerComponent</title>
<path fill="none" stroke="black" d="M1760,-122.11C1760,-141.34 1760,-169 1760,-169 1760,-169 1001.87,-169 1001.87,-169"/>
<polygon fill="black" stroke="black" points="1001.87,-165.5 991.87,-169 1001.87,-172.5 1001.87,-165.5"/>
</g>
<!-- { provide: NG_VALIDATORS, multi: true, useExisting: forwardRef(() =&gt; SacStaticFormContainerComponent) } -->
<g id="node5" class="node">
<title>{ provide: NG_VALIDATORS, multi: true, useExisting: forwardRef(() =&gt; SacStaticFormContainerComponent) }</title>
<ellipse fill="#fdb462" stroke="black" cx="882" cy="-104" rx="453.67" ry="18"/>
<text text-anchor="middle" x="882" y="-99.8" font-family="Times,serif" font-size="14.00">{ provide: NG_VALIDATORS, multi: true, useExisting: forwardRef(() =&gt; SacStaticFormContainerComponent) }</text>
</g>
<!-- { provide: NG_VALIDATORS, multi: true, useExisting: forwardRef(() =&gt; SacStaticFormContainerComponent) }&#45;&gt;SacStaticFormContainerComponent -->
<g id="edge3" class="edge">
<title>{ provide: NG_VALIDATORS, multi: true, useExisting: forwardRef(() =&gt; SacStaticFormContainerComponent) }&#45;&gt;SacStaticFormContainerComponent</title>
<path fill="none" stroke="black" d="M882,-122.11C882,-122.11 882,-140.99 882,-140.99"/>
<polygon fill="black" stroke="black" points="878.5,-140.99 882,-150.99 885.5,-140.99 878.5,-140.99"/>
</g>
<!-- SACBootstrap3TooltipModule -->
<g id="node6" class="node">
<title>SACBootstrap3TooltipModule</title>
<polygon fill="#8dd3c7" stroke="black" points="403.94,-187 400.94,-191 379.94,-191 376.94,-187 214.06,-187 214.06,-151 403.94,-151 403.94,-187"/>
<text text-anchor="middle" x="309" y="-164.8" font-family="Times,serif" font-size="14.00">SACBootstrap3TooltipModule</text>
</g>
<!-- SACBootstrap3TooltipModule&#45;&gt;SACBootstrap3StaticLabelModule -->
<g id="edge5" class="edge">
<title>SACBootstrap3TooltipModule&#45;&gt;SACBootstrap3StaticLabelModule</title>
<path fill="none" stroke="black" d="M309,-187.11C309,-187.11 309,-205.99 309,-205.99"/>
<polygon fill="black" stroke="black" points="305.5,-205.99 309,-215.99 312.5,-205.99 305.5,-205.99"/>
</g>
</g>
</svg>
