<?xml version="1.0" encoding="UTF-8" standalone="no"?>
<!DOCTYPE svg PUBLIC "-//W3C//DTD SVG 1.1//EN"
 "http://www.w3.org/Graphics/SVG/1.1/DTD/svg11.dtd">
<!-- Generated by graphviz version 2.40.1 (20161225.0304)
 -->
<!-- Title: dependencies Pages: 1 -->
<svg width="1604pt" height="349pt"
 viewBox="0.00 0.00 1604.00 349.00" xmlns="http://www.w3.org/2000/svg" xmlns:xlink="http://www.w3.org/1999/xlink">
<g id="graph0" class="graph" transform="scale(1 1) rotate(0) translate(4 345)">
<title>dependencies</title>
<polygon fill="#ffffff" stroke="transparent" points="-4,4 -4,-345 1600,-345 1600,4 -4,4"/>
<text text-anchor="start" x="777.0091" y="-42.4" font-family="sans-serif" font-weight="bold" font-size="14.00" fill="#000000">Legend</text>
<polygon fill="#ffffb3" stroke="transparent" points="564,-10 564,-30 584,-30 584,-10 564,-10"/>
<text text-anchor="start" x="587.629" y="-15.4" font-family="sans-serif" font-size="14.00" fill="#000000"> &#160;Declarations</text>
<polygon fill="#8dd3c7" stroke="transparent" points="677,-10 677,-30 697,-30 697,-10 677,-10"/>
<text text-anchor="start" x="700.7251" y="-15.4" font-family="sans-serif" font-size="14.00" fill="#000000"> &#160;Module</text>
<polygon fill="#80b1d3" stroke="transparent" points="763,-10 763,-30 783,-30 783,-10 763,-10"/>
<text text-anchor="start" x="786.7812" y="-15.4" font-family="sans-serif" font-size="14.00" fill="#000000"> &#160;Bootstrap</text>
<polygon fill="#fdb462" stroke="transparent" points="860,-10 860,-30 880,-30 880,-10 860,-10"/>
<text text-anchor="start" x="883.6732" y="-15.4" font-family="sans-serif" font-size="14.00" fill="#000000"> &#160;Providers</text>
<polygon fill="#fb8072" stroke="transparent" points="956,-10 956,-30 976,-30 976,-10 956,-10"/>
<text text-anchor="start" x="979.7258" y="-15.4" font-family="sans-serif" font-size="14.00" fill="#000000"> &#160;Exports</text>
<g id="clust1" class="cluster">
<title>cluster_jNetworkBootstrap3StaticLabelModule</title>
<polygon fill="none" stroke="#000000" stroke-dasharray="1,5" points="8,-70 8,-333 1588,-333 1588,-70 8,-70"/>
</g>
<g id="clust2" class="cluster">
<title>cluster_jNetworkBootstrap3StaticLabelModule_declarations</title>
<polygon fill="none" stroke="#000000" points="635,-143 635,-195 916,-195 916,-143 635,-143"/>
</g>
<g id="clust3" class="cluster">
<title>cluster_jNetworkBootstrap3StaticLabelModule_NgStaticFormContainer_providers</title>
<polygon fill="none" stroke="#000000" points="16,-78 16,-130 1580,-130 1580,-78 16,-78"/>
</g>
<g id="clust5" class="cluster">
<title>cluster_jNetworkBootstrap3StaticLabelModule_imports</title>
<polygon fill="none" stroke="#000000" points="395,-143 395,-195 627,-195 627,-143 395,-143"/>
</g>
<g id="clust6" class="cluster">
<title>cluster_jNetworkBootstrap3StaticLabelModule_exports</title>
<polygon fill="none" stroke="#000000" points="560,-273 560,-325 848,-325 848,-273 560,-273"/>
</g>
<!-- NgStaticFormContainer -->
<g id="node1" class="node">
<title>NgStaticFormContainer</title>
<polygon fill="#ffffb3" stroke="#000000" points="908.0323,-187 757.9677,-187 757.9677,-151 908.0323,-151 908.0323,-187"/>
<text text-anchor="middle" x="833" y="-164.8" font-family="Times,serif" font-size="14.00" fill="#000000">NgStaticFormContainer</text>
</g>
<!-- jNetworkBootstrap3StaticLabelModule -->
<g id="node3" class="node">
<title>jNetworkBootstrap3StaticLabelModule</title>
<polygon fill="#8dd3c7" stroke="#000000" points="809.6133,-252 806.6133,-256 785.6133,-256 782.6133,-252 572.3867,-252 572.3867,-216 809.6133,-216 809.6133,-252"/>
<text text-anchor="middle" x="691" y="-229.8" font-family="Times,serif" font-size="14.00" fill="#000000">jNetworkBootstrap3StaticLabelModule</text>
</g>
<!-- NgStaticFormContainer&#45;&gt;jNetworkBootstrap3StaticLabelModule -->
<g id="edge1" class="edge">
<title>NgStaticFormContainer&#45;&gt;jNetworkBootstrap3StaticLabelModule</title>
<path fill="none" stroke="#000000" d="M783.7704,-187.1061C783.7704,-187.1061 783.7704,-205.991 783.7704,-205.991"/>
<polygon fill="#000000" stroke="#000000" points="780.2704,-205.9909 783.7704,-215.991 787.2704,-205.991 780.2704,-205.9909"/>
</g>
<!-- NgStaticLabel -->
<g id="node2" class="node">
<title>NgStaticLabel</title>
<polygon fill="#ffffb3" stroke="#000000" points="739.3627,-187 642.6373,-187 642.6373,-151 739.3627,-151 739.3627,-187"/>
<text text-anchor="middle" x="691" y="-164.8" font-family="Times,serif" font-size="14.00" fill="#000000">NgStaticLabel</text>
</g>
<!-- NgStaticLabel&#45;&gt;jNetworkBootstrap3StaticLabelModule -->
<g id="edge4" class="edge">
<title>NgStaticLabel&#45;&gt;jNetworkBootstrap3StaticLabelModule</title>
<path fill="none" stroke="#000000" d="M691,-187.1061C691,-187.1061 691,-205.991 691,-205.991"/>
<polygon fill="#000000" stroke="#000000" points="687.5001,-205.9909 691,-215.991 694.5001,-205.991 687.5001,-205.9909"/>
</g>
<!-- NgStaticFormContainer  -->
<g id="node7" class="node">
<title>NgStaticFormContainer </title>
<polygon fill="#fb8072" stroke="#000000" points="840.0316,-317 685.9684,-317 685.9684,-281 840.0316,-281 840.0316,-317"/>
<text text-anchor="middle" x="763" y="-294.8" font-family="Times,serif" font-size="14.00" fill="#000000">NgStaticFormContainer </text>
</g>
<!-- jNetworkBootstrap3StaticLabelModule&#45;&gt;NgStaticFormContainer  -->
<g id="edge6" class="edge">
<title>jNetworkBootstrap3StaticLabelModule&#45;&gt;NgStaticFormContainer </title>
<path fill="none" stroke="#000000" stroke-dasharray="5,2" d="M747.8954,-252.1061C747.8954,-252.1061 747.8954,-270.991 747.8954,-270.991"/>
<polygon fill="#000000" stroke="#000000" points="744.3954,-270.9909 747.8954,-280.991 751.3954,-270.991 744.3954,-270.9909"/>
</g>
<!-- NgStaticLabel  -->
<g id="node8" class="node">
<title>NgStaticLabel </title>
<polygon fill="#fb8072" stroke="#000000" points="668.3633,-317 567.6367,-317 567.6367,-281 668.3633,-281 668.3633,-317"/>
<text text-anchor="middle" x="618" y="-294.8" font-family="Times,serif" font-size="14.00" fill="#000000">NgStaticLabel </text>
</g>
<!-- jNetworkBootstrap3StaticLabelModule&#45;&gt;NgStaticLabel  -->
<g id="edge7" class="edge">
<title>jNetworkBootstrap3StaticLabelModule&#45;&gt;NgStaticLabel </title>
<path fill="none" stroke="#000000" stroke-dasharray="5,2" d="M620.1874,-252.1061C620.1874,-252.1061 620.1874,-270.991 620.1874,-270.991"/>
<polygon fill="#000000" stroke="#000000" points="616.6875,-270.9909 620.1874,-280.991 623.6875,-270.991 616.6875,-270.9909"/>
</g>
<!-- { provide: NG_VALUE_ACCESSOR, multi: true, useExisting: NgStaticFormContainer } -->
<g id="node4" class="node">
<title>{ provide: NG_VALUE_ACCESSOR, multi: true, useExisting: NgStaticFormContainer }</title>
<ellipse fill="#fdb462" stroke="#000000" cx="1213" cy="-104" rx="359.1205" ry="18"/>
<text text-anchor="middle" x="1213" y="-99.8" font-family="Times,serif" font-size="14.00" fill="#000000">{ provide: NG_VALUE_ACCESSOR, multi: true, useExisting: NgStaticFormContainer }</text>
</g>
<!-- { provide: NG_VALUE_ACCESSOR, multi: true, useExisting: NgStaticFormContainer }&#45;&gt;NgStaticFormContainer -->
<g id="edge2" class="edge">
<title>{ provide: NG_VALUE_ACCESSOR, multi: true, useExisting: NgStaticFormContainer }&#45;&gt;NgStaticFormContainer</title>
<path fill="none" stroke="#000000" d="M881.1028,-110.9561C881.1028,-110.9561 881.1028,-140.8074 881.1028,-140.8074"/>
<polygon fill="#000000" stroke="#000000" points="877.6029,-140.8074 881.1028,-150.8074 884.6029,-140.8075 877.6029,-140.8074"/>
</g>
<!-- { provide: NG_VALIDATORS, multi: true, useExisting: forwardRef(() =&gt; NgStaticFormContainer) } -->
<g id="node5" class="node">
<title>{ provide: NG_VALIDATORS, multi: true, useExisting: forwardRef(() =&gt; NgStaticFormContainer) }</title>
<ellipse fill="#fdb462" stroke="#000000" cx="430" cy="-104" rx="406.2566" ry="18"/>
<text text-anchor="middle" x="430" y="-99.8" font-family="Times,serif" font-size="14.00" fill="#000000">{ provide: NG_VALIDATORS, multi: true, useExisting: forwardRef(() =&gt; NgStaticFormContainer) }</text>
</g>
<!-- { provide: NG_VALIDATORS, multi: true, useExisting: forwardRef(() =&gt; NgStaticFormContainer) }&#45;&gt;NgStaticFormContainer -->
<g id="edge3" class="edge">
<title>{ provide: NG_VALIDATORS, multi: true, useExisting: forwardRef(() =&gt; NgStaticFormContainer) }&#45;&gt;NgStaticFormContainer</title>
<path fill="none" stroke="#000000" d="M797.0563,-111.9703C797.0563,-111.9703 797.0563,-140.8723 797.0563,-140.8723"/>
<polygon fill="#000000" stroke="#000000" points="793.5564,-140.8722 797.0563,-150.8723 800.5564,-140.8723 793.5564,-140.8722"/>
</g>
<!-- jNetworkBootstrap3TooltipModule -->
<g id="node6" class="node">
<title>jNetworkBootstrap3TooltipModule</title>
<polygon fill="#8dd3c7" stroke="#000000" points="618.5814,-187 615.5814,-191 594.5814,-191 591.5814,-187 403.4186,-187 403.4186,-151 618.5814,-151 618.5814,-187"/>
<text text-anchor="middle" x="511" y="-164.8" font-family="Times,serif" font-size="14.00" fill="#000000">jNetworkBootstrap3TooltipModule</text>
</g>
<!-- jNetworkBootstrap3TooltipModule&#45;&gt;jNetworkBootstrap3StaticLabelModule -->
<g id="edge5" class="edge">
<title>jNetworkBootstrap3TooltipModule&#45;&gt;jNetworkBootstrap3StaticLabelModule</title>
<path fill="none" stroke="#000000" d="M595.3671,-187.1061C595.3671,-187.1061 595.3671,-205.991 595.3671,-205.991"/>
<polygon fill="#000000" stroke="#000000" points="591.8672,-205.9909 595.3671,-215.991 598.8672,-205.991 591.8672,-205.9909"/>
</g>
</g>
</svg>
