<?xml version="1.0" encoding="UTF-8" standalone="no"?>
<!DOCTYPE svg PUBLIC "-//W3C//DTD SVG 1.1//EN"
 "http://www.w3.org/Graphics/SVG/1.1/DTD/svg11.dtd">
<!-- Generated by graphviz version 2.40.1 (20161225.0304)
 -->
<!-- Title: dependencies Pages: 1 -->
<svg width="3028pt" height="349pt"
 viewBox="0.00 0.00 3028.00 349.00" xmlns="http://www.w3.org/2000/svg" xmlns:xlink="http://www.w3.org/1999/xlink">
<g id="graph0" class="graph" transform="scale(1 1) rotate(0) translate(4 345)">
<title>dependencies</title>
<polygon fill="#ffffff" stroke="transparent" points="-4,4 -4,-345 3024,-345 3024,4 -4,4"/>
<text text-anchor="start" x="1489.0091" y="-42.4" font-family="sans-serif" font-weight="bold" font-size="14.00" fill="#000000">Legend</text>
<polygon fill="#ffffb3" stroke="transparent" points="1276,-10 1276,-30 1296,-30 1296,-10 1276,-10"/>
<text text-anchor="start" x="1299.629" y="-15.4" font-family="sans-serif" font-size="14.00" fill="#000000"> &#160;Declarations</text>
<polygon fill="#8dd3c7" stroke="transparent" points="1389,-10 1389,-30 1409,-30 1409,-10 1389,-10"/>
<text text-anchor="start" x="1412.7251" y="-15.4" font-family="sans-serif" font-size="14.00" fill="#000000"> &#160;Module</text>
<polygon fill="#80b1d3" stroke="transparent" points="1475,-10 1475,-30 1495,-30 1495,-10 1475,-10"/>
<text text-anchor="start" x="1498.7812" y="-15.4" font-family="sans-serif" font-size="14.00" fill="#000000"> &#160;Bootstrap</text>
<polygon fill="#fdb462" stroke="transparent" points="1572,-10 1572,-30 1592,-30 1592,-10 1572,-10"/>
<text text-anchor="start" x="1595.6732" y="-15.4" font-family="sans-serif" font-size="14.00" fill="#000000"> &#160;Providers</text>
<polygon fill="#fb8072" stroke="transparent" points="1668,-10 1668,-30 1688,-30 1688,-10 1668,-10"/>
<text text-anchor="start" x="1691.7258" y="-15.4" font-family="sans-serif" font-size="14.00" fill="#000000"> &#160;Exports</text>
<g id="clust1" class="cluster">
<title>cluster_jNetworkBootstrap3StaticLabelModule</title>
<polygon fill="none" stroke="#000000" stroke-dasharray="1,5" points="8,-70 8,-333 3012,-333 3012,-70 8,-70"/>
</g>
<g id="clust2" class="cluster">
<title>cluster_jNetworkBootstrap3StaticLabelModule_declarations</title>
<polygon fill="none" stroke="#000000" points="1351,-143 1351,-195 1632,-195 1632,-143 1351,-143"/>
</g>
<g id="clust3" class="cluster">
<title>cluster_jNetworkBootstrap3StaticLabelModule_NgStaticFormContainer_providers</title>
<polygon fill="none" stroke="#000000" points="1440,-78 1440,-130 3004,-130 3004,-78 1440,-78"/>
</g>
<g id="clust4" class="cluster">
<title>cluster_jNetworkBootstrap3StaticLabelModule_NgStaticLabel_providers</title>
<polygon fill="none" stroke="#000000" points="16,-78 16,-130 1432,-130 1432,-78 16,-78"/>
</g>
<g id="clust5" class="cluster">
<title>cluster_jNetworkBootstrap3StaticLabelModule_imports</title>
<polygon fill="none" stroke="#000000" points="1111,-143 1111,-195 1343,-195 1343,-143 1111,-143"/>
</g>
<g id="clust6" class="cluster">
<title>cluster_jNetworkBootstrap3StaticLabelModule_exports</title>
<polygon fill="none" stroke="#000000" points="1276,-273 1276,-325 1564,-325 1564,-273 1276,-273"/>
</g>
<!-- NgStaticFormContainer -->
<g id="node1" class="node">
<title>NgStaticFormContainer</title>
<polygon fill="#ffffb3" stroke="#000000" points="1624.0323,-187 1473.9677,-187 1473.9677,-151 1624.0323,-151 1624.0323,-187"/>
<text text-anchor="middle" x="1549" y="-164.8" font-family="Times,serif" font-size="14.00" fill="#000000">NgStaticFormContainer</text>
</g>
<!-- jNetworkBootstrap3StaticLabelModule -->
<g id="node3" class="node">
<title>jNetworkBootstrap3StaticLabelModule</title>
<polygon fill="#8dd3c7" stroke="#000000" points="1525.6133,-252 1522.6133,-256 1501.6133,-256 1498.6133,-252 1288.3867,-252 1288.3867,-216 1525.6133,-216 1525.6133,-252"/>
<text text-anchor="middle" x="1407" y="-229.8" font-family="Times,serif" font-size="14.00" fill="#000000">jNetworkBootstrap3StaticLabelModule</text>
</g>
<!-- NgStaticFormContainer&#45;&gt;jNetworkBootstrap3StaticLabelModule -->
<g id="edge1" class="edge">
<title>NgStaticFormContainer&#45;&gt;jNetworkBootstrap3StaticLabelModule</title>
<path fill="none" stroke="#000000" d="M1499.7704,-187.1061C1499.7704,-187.1061 1499.7704,-205.991 1499.7704,-205.991"/>
<polygon fill="#000000" stroke="#000000" points="1496.2704,-205.9909 1499.7704,-215.991 1503.2704,-205.991 1496.2704,-205.9909"/>
</g>
<!-- NgStaticLabel -->
<g id="node2" class="node">
<title>NgStaticLabel</title>
<polygon fill="#ffffb3" stroke="#000000" points="1455.3627,-187 1358.6373,-187 1358.6373,-151 1455.3627,-151 1455.3627,-187"/>
<text text-anchor="middle" x="1407" y="-164.8" font-family="Times,serif" font-size="14.00" fill="#000000">NgStaticLabel</text>
</g>
<!-- NgStaticLabel&#45;&gt;jNetworkBootstrap3StaticLabelModule -->
<g id="edge4" class="edge">
<title>NgStaticLabel&#45;&gt;jNetworkBootstrap3StaticLabelModule</title>
<path fill="none" stroke="#000000" d="M1407,-187.1061C1407,-187.1061 1407,-205.991 1407,-205.991"/>
<polygon fill="#000000" stroke="#000000" points="1403.5001,-205.9909 1407,-215.991 1410.5001,-205.991 1403.5001,-205.9909"/>
</g>
<!-- NgStaticFormContainer  -->
<g id="node9" class="node">
<title>NgStaticFormContainer </title>
<polygon fill="#fb8072" stroke="#000000" points="1556.0316,-317 1401.9684,-317 1401.9684,-281 1556.0316,-281 1556.0316,-317"/>
<text text-anchor="middle" x="1479" y="-294.8" font-family="Times,serif" font-size="14.00" fill="#000000">NgStaticFormContainer </text>
</g>
<!-- jNetworkBootstrap3StaticLabelModule&#45;&gt;NgStaticFormContainer  -->
<g id="edge8" class="edge">
<title>jNetworkBootstrap3StaticLabelModule&#45;&gt;NgStaticFormContainer </title>
<path fill="none" stroke="#000000" stroke-dasharray="5,2" d="M1463.8954,-252.1061C1463.8954,-252.1061 1463.8954,-270.991 1463.8954,-270.991"/>
<polygon fill="#000000" stroke="#000000" points="1460.3954,-270.9909 1463.8954,-280.991 1467.3954,-270.991 1460.3954,-270.9909"/>
</g>
<!-- NgStaticLabel  -->
<g id="node10" class="node">
<title>NgStaticLabel </title>
<polygon fill="#fb8072" stroke="#000000" points="1384.3633,-317 1283.6367,-317 1283.6367,-281 1384.3633,-281 1384.3633,-317"/>
<text text-anchor="middle" x="1334" y="-294.8" font-family="Times,serif" font-size="14.00" fill="#000000">NgStaticLabel </text>
</g>
<!-- jNetworkBootstrap3StaticLabelModule&#45;&gt;NgStaticLabel  -->
<g id="edge9" class="edge">
<title>jNetworkBootstrap3StaticLabelModule&#45;&gt;NgStaticLabel </title>
<path fill="none" stroke="#000000" stroke-dasharray="5,2" d="M1336.1874,-252.1061C1336.1874,-252.1061 1336.1874,-270.991 1336.1874,-270.991"/>
<polygon fill="#000000" stroke="#000000" points="1332.6875,-270.9909 1336.1874,-280.991 1339.6875,-270.991 1332.6875,-270.9909"/>
</g>
<!-- { provide: NG_VALUE_ACCESSOR, multi: true, useExisting: NgStaticFormContainer } -->
<g id="node4" class="node">
<title>{ provide: NG_VALUE_ACCESSOR, multi: true, useExisting: NgStaticFormContainer }</title>
<ellipse fill="#fdb462" stroke="#000000" cx="2637" cy="-104" rx="359.1205" ry="18"/>
<text text-anchor="middle" x="2637" y="-99.8" font-family="Times,serif" font-size="14.00" fill="#000000">{ provide: NG_VALUE_ACCESSOR, multi: true, useExisting: NgStaticFormContainer }</text>
</g>
<!-- { provide: NG_VALUE_ACCESSOR, multi: true, useExisting: NgStaticFormContainer }&#45;&gt;NgStaticFormContainer -->
<g id="edge2" class="edge">
<title>{ provide: NG_VALUE_ACCESSOR, multi: true, useExisting: NgStaticFormContainer }&#45;&gt;NgStaticFormContainer</title>
<path fill="none" stroke="#000000" d="M2637,-122.1061C2637,-141.3391 2637,-169 2637,-169 2637,-169 1634.2119,-169 1634.2119,-169"/>
<polygon fill="#000000" stroke="#000000" points="1634.2119,-165.5001 1624.2119,-169 1634.2119,-172.5001 1634.2119,-165.5001"/>
</g>
<!-- { provide: NG_VALIDATORS, multi: true, useExisting: forwardRef(() =&gt; NgStaticFormContainer) } -->
<g id="node5" class="node">
<title>{ provide: NG_VALIDATORS, multi: true, useExisting: forwardRef(() =&gt; NgStaticFormContainer) }</title>
<ellipse fill="#fdb462" stroke="#000000" cx="1854" cy="-104" rx="406.2566" ry="18"/>
<text text-anchor="middle" x="1854" y="-99.8" font-family="Times,serif" font-size="14.00" fill="#000000">{ provide: NG_VALIDATORS, multi: true, useExisting: forwardRef(() =&gt; NgStaticFormContainer) }</text>
</g>
<!-- { provide: NG_VALIDATORS, multi: true, useExisting: forwardRef(() =&gt; NgStaticFormContainer) }&#45;&gt;NgStaticFormContainer -->
<g id="edge3" class="edge">
<title>{ provide: NG_VALIDATORS, multi: true, useExisting: forwardRef(() =&gt; NgStaticFormContainer) }&#45;&gt;NgStaticFormContainer</title>
<path fill="none" stroke="#000000" d="M1549,-115.922C1549,-115.922 1549,-140.7669 1549,-140.7669"/>
<polygon fill="#000000" stroke="#000000" points="1545.5001,-140.7669 1549,-150.7669 1552.5001,-140.7669 1545.5001,-140.7669"/>
</g>
<!-- { provide: NG_VALUE_ACCESSOR, multi: true, useExisting: NgStaticLabel } -->
<g id="node6" class="node">
<title>{ provide: NG_VALUE_ACCESSOR, multi: true, useExisting: NgStaticLabel }</title>
<ellipse fill="#fdb462" stroke="#000000" cx="1102" cy="-104" rx="322.0807" ry="18"/>
<text text-anchor="middle" x="1102" y="-99.8" font-family="Times,serif" font-size="14.00" fill="#000000">{ provide: NG_VALUE_ACCESSOR, multi: true, useExisting: NgStaticLabel }</text>
</g>
<!-- { provide: NG_VALUE_ACCESSOR, multi: true, useExisting: NgStaticLabel }&#45;&gt;NgStaticLabel -->
<g id="edge5" class="edge">
<title>{ provide: NG_VALUE_ACCESSOR, multi: true, useExisting: NgStaticLabel }&#45;&gt;NgStaticLabel</title>
<path fill="none" stroke="#000000" d="M1402.2165,-110.9561C1402.2165,-110.9561 1402.2165,-140.8074 1402.2165,-140.8074"/>
<polygon fill="#000000" stroke="#000000" points="1398.7166,-140.8074 1402.2165,-150.8074 1405.7166,-140.8075 1398.7166,-140.8074"/>
</g>
<!-- { provide: NG_VALIDATORS, multi: true, useExisting: forwardRef(() =&gt; NgStaticLabel) } -->
<g id="node7" class="node">
<title>{ provide: NG_VALIDATORS, multi: true, useExisting: forwardRef(() =&gt; NgStaticLabel) }</title>
<ellipse fill="#fdb462" stroke="#000000" cx="393" cy="-104" rx="369.2169" ry="18"/>
<text text-anchor="middle" x="393" y="-99.8" font-family="Times,serif" font-size="14.00" fill="#000000">{ provide: NG_VALIDATORS, multi: true, useExisting: forwardRef(() =&gt; NgStaticLabel) }</text>
</g>
<!-- { provide: NG_VALIDATORS, multi: true, useExisting: forwardRef(() =&gt; NgStaticLabel) }&#45;&gt;NgStaticLabel -->
<g id="edge6" class="edge">
<title>{ provide: NG_VALIDATORS, multi: true, useExisting: forwardRef(() =&gt; NgStaticLabel) }&#45;&gt;NgStaticLabel</title>
<path fill="none" stroke="#000000" d="M393,-122.0449C393,-129.749 393,-137 393,-137 393,-137 1380.3926,-137 1380.3926,-137 1380.3926,-137 1380.3926,-140.7566 1380.3926,-140.7566"/>
<polygon fill="#000000" stroke="#000000" points="1376.8927,-140.7566 1380.3926,-150.7566 1383.8927,-140.7566 1376.8927,-140.7566"/>
</g>
<!-- jNetworkBootstrap3TooltipModule -->
<g id="node8" class="node">
<title>jNetworkBootstrap3TooltipModule</title>
<polygon fill="#8dd3c7" stroke="#000000" points="1334.5814,-187 1331.5814,-191 1310.5814,-191 1307.5814,-187 1119.4186,-187 1119.4186,-151 1334.5814,-151 1334.5814,-187"/>
<text text-anchor="middle" x="1227" y="-164.8" font-family="Times,serif" font-size="14.00" fill="#000000">jNetworkBootstrap3TooltipModule</text>
</g>
<!-- jNetworkBootstrap3TooltipModule&#45;&gt;jNetworkBootstrap3StaticLabelModule -->
<g id="edge7" class="edge">
<title>jNetworkBootstrap3TooltipModule&#45;&gt;jNetworkBootstrap3StaticLabelModule</title>
<path fill="none" stroke="#000000" d="M1311.3671,-187.1061C1311.3671,-187.1061 1311.3671,-205.991 1311.3671,-205.991"/>
<polygon fill="#000000" stroke="#000000" points="1307.8672,-205.9909 1311.3671,-215.991 1314.8672,-205.991 1307.8672,-205.9909"/>
</g>
</g>
</svg>
