<?xml version="1.0" encoding="UTF-8" standalone="no"?>
<!DOCTYPE svg PUBLIC "-//W3C//DTD SVG 1.1//EN"
 "http://www.w3.org/Graphics/SVG/1.1/DTD/svg11.dtd">
<!-- Generated by graphviz version 2.47.3 (20210619.1520)
 -->
<!-- Title: dependencies Pages: 1 -->
<svg width="409pt" height="247pt"
 viewBox="0.00 0.00 409.00 246.80" xmlns="http://www.w3.org/2000/svg" xmlns:xlink="http://www.w3.org/1999/xlink">
<g id="graph0" class="graph" transform="scale(1 1) rotate(0) translate(4 242.8)">
<title>dependencies</title>
<polygon fill="white" stroke="transparent" points="-4,4 -4,-242.8 405,-242.8 405,4 -4,4"/>
<text text-anchor="middle" x="200.5" y="-8.2" font-family="sans-serif" font-size="14.00">dependencies</text>
<g id="clust1" class="cluster">
<title>cluster_JNetworkBootstrap3UploadModule</title>
<polygon fill="none" stroke="black" stroke-dasharray="1,5" points="8,-32.8 8,-230.8 393,-230.8 393,-32.8 8,-32.8"/>
</g>
<g id="clust2" class="cluster">
<title>cluster_JNetworkBootstrap3UploadModule_declarations</title>
<polygon fill="none" stroke="black" points="19,-40.8 19,-92.8 381,-92.8 381,-40.8 19,-40.8"/>
</g>
<g id="clust6" class="cluster">
<title>cluster_JNetworkBootstrap3UploadModule_exports</title>
<polygon fill="none" stroke="black" points="16,-170.8 16,-222.8 385,-222.8 385,-170.8 16,-170.8"/>
</g>
<!-- NgUploadComponent -->
<g id="node1" class="node">
<title>NgUploadComponent</title>
<polygon fill="#ffffb3" stroke="black" points="372.65,-84.8 233.35,-84.8 233.35,-48.8 372.65,-48.8 372.65,-84.8"/>
<text text-anchor="middle" x="303" y="-62.6" font-family="Times,serif" font-size="14.00">NgUploadComponent</text>
</g>
<!-- JNetworkBootstrap3UploadModule -->
<g id="node3" class="node">
<title>JNetworkBootstrap3UploadModule</title>
<polygon fill="#8dd3c7" stroke="black" points="308.12,-149.8 305.12,-153.8 284.12,-153.8 281.12,-149.8 91.88,-149.8 91.88,-113.8 308.12,-113.8 308.12,-149.8"/>
<text text-anchor="middle" x="200" y="-127.6" font-family="Times,serif" font-size="14.00">JNetworkBootstrap3UploadModule</text>
</g>
<!-- NgUploadComponent&#45;&gt;JNetworkBootstrap3UploadModule -->
<g id="edge1" class="edge">
<title>NgUploadComponent&#45;&gt;JNetworkBootstrap3UploadModule</title>
<path fill="none" stroke="black" d="M270.74,-84.91C270.74,-84.91 270.74,-103.79 270.74,-103.79"/>
<polygon fill="black" stroke="black" points="267.24,-103.79 270.74,-113.79 274.24,-103.79 267.24,-103.79"/>
</g>
<!-- NgUploadMultipleComponent -->
<g id="node2" class="node">
<title>NgUploadMultipleComponent</title>
<polygon fill="#ffffb3" stroke="black" points="214.87,-84.8 27.13,-84.8 27.13,-48.8 214.87,-48.8 214.87,-84.8"/>
<text text-anchor="middle" x="121" y="-62.6" font-family="Times,serif" font-size="14.00">NgUploadMultipleComponent</text>
</g>
<!-- NgUploadMultipleComponent&#45;&gt;JNetworkBootstrap3UploadModule -->
<g id="edge2" class="edge">
<title>NgUploadMultipleComponent&#45;&gt;JNetworkBootstrap3UploadModule</title>
<path fill="none" stroke="black" d="M153.31,-84.91C153.31,-84.91 153.31,-103.79 153.31,-103.79"/>
<polygon fill="black" stroke="black" points="149.81,-103.79 153.31,-113.79 156.81,-103.79 149.81,-103.79"/>
</g>
<!-- NgUploadComponent  -->
<g id="node4" class="node">
<title>NgUploadComponent </title>
<polygon fill="#fb8072" stroke="black" points="376.65,-214.8 233.35,-214.8 233.35,-178.8 376.65,-178.8 376.65,-214.8"/>
<text text-anchor="middle" x="305" y="-192.6" font-family="Times,serif" font-size="14.00">NgUploadComponent </text>
</g>
<!-- JNetworkBootstrap3UploadModule&#45;&gt;NgUploadComponent  -->
<g id="edge3" class="edge">
<title>JNetworkBootstrap3UploadModule&#45;&gt;NgUploadComponent </title>
<path fill="none" stroke="black" stroke-dasharray="5,2" d="M270.87,-149.91C270.87,-149.91 270.87,-168.79 270.87,-168.79"/>
<polygon fill="black" stroke="black" points="267.37,-168.79 270.87,-178.79 274.37,-168.79 267.37,-168.79"/>
</g>
<!-- NgUploadMultipleComponent  -->
<g id="node5" class="node">
<title>NgUploadMultipleComponent </title>
<polygon fill="#fb8072" stroke="black" points="215.87,-214.8 24.13,-214.8 24.13,-178.8 215.87,-178.8 215.87,-214.8"/>
<text text-anchor="middle" x="120" y="-192.6" font-family="Times,serif" font-size="14.00">NgUploadMultipleComponent </text>
</g>
<!-- JNetworkBootstrap3UploadModule&#45;&gt;NgUploadMultipleComponent  -->
<g id="edge4" class="edge">
<title>JNetworkBootstrap3UploadModule&#45;&gt;NgUploadMultipleComponent </title>
<path fill="none" stroke="black" stroke-dasharray="5,2" d="M153.69,-149.91C153.69,-149.91 153.69,-168.79 153.69,-168.79"/>
<polygon fill="black" stroke="black" points="150.19,-168.79 153.69,-178.79 157.19,-168.79 150.19,-168.79"/>
</g>
</g>
</svg>
