<?xml version="1.0" encoding="UTF-8" standalone="no"?>
<!DOCTYPE svg PUBLIC "-//W3C//DTD SVG 1.1//EN"
 "http://www.w3.org/Graphics/SVG/1.1/DTD/svg11.dtd">
<!-- Generated by graphviz version 2.40.1 (20161225.0304)
 -->
<!-- Title: dependencies Pages: 1 -->
<svg width="602pt" height="284pt"
 viewBox="0.00 0.00 602.00 284.00" xmlns="http://www.w3.org/2000/svg" xmlns:xlink="http://www.w3.org/1999/xlink">
<g id="graph0" class="graph" transform="scale(1 1) rotate(0) translate(4 280)">
<title>dependencies</title>
<polygon fill="#ffffff" stroke="transparent" points="-4,4 -4,-280 598,-280 598,4 -4,4"/>
<text text-anchor="start" x="276.0091" y="-42.4" font-family="sans-serif" font-weight="bold" font-size="14.00" fill="#000000">Legend</text>
<polygon fill="#ffffb3" stroke="transparent" points="63,-10 63,-30 83,-30 83,-10 63,-10"/>
<text text-anchor="start" x="86.629" y="-15.4" font-family="sans-serif" font-size="14.00" fill="#000000"> &#160;Declarations</text>
<polygon fill="#8dd3c7" stroke="transparent" points="176,-10 176,-30 196,-30 196,-10 176,-10"/>
<text text-anchor="start" x="199.7251" y="-15.4" font-family="sans-serif" font-size="14.00" fill="#000000"> &#160;Module</text>
<polygon fill="#80b1d3" stroke="transparent" points="262,-10 262,-30 282,-30 282,-10 262,-10"/>
<text text-anchor="start" x="285.7812" y="-15.4" font-family="sans-serif" font-size="14.00" fill="#000000"> &#160;Bootstrap</text>
<polygon fill="#fdb462" stroke="transparent" points="359,-10 359,-30 379,-30 379,-10 359,-10"/>
<text text-anchor="start" x="382.6732" y="-15.4" font-family="sans-serif" font-size="14.00" fill="#000000"> &#160;Providers</text>
<polygon fill="#fb8072" stroke="transparent" points="455,-10 455,-30 475,-30 475,-10 455,-10"/>
<text text-anchor="start" x="478.7258" y="-15.4" font-family="sans-serif" font-size="14.00" fill="#000000"> &#160;Exports</text>
<g id="clust1" class="cluster">
<title>cluster_jNetworkBootstrap4ConfirmModule</title>
<polygon fill="none" stroke="#000000" stroke-dasharray="1,5" points="8,-70 8,-268 586,-268 586,-70 8,-70"/>
</g>
<g id="clust2" class="cluster">
<title>cluster_jNetworkBootstrap4ConfirmModule_declarations</title>
<polygon fill="none" stroke="#000000" points="482,-78 482,-130 578,-130 578,-78 482,-78"/>
</g>
<g id="clust4" class="cluster">
<title>cluster_jNetworkBootstrap4ConfirmModule_imports</title>
<polygon fill="none" stroke="#000000" points="16,-78 16,-130 474,-130 474,-78 16,-78"/>
</g>
<g id="clust5" class="cluster">
<title>cluster_jNetworkBootstrap4ConfirmModule_exports</title>
<polygon fill="none" stroke="#000000" points="310,-208 310,-260 410,-260 410,-208 310,-208"/>
</g>
<!-- NgConfirm -->
<g id="node1" class="node">
<title>NgConfirm</title>
<polygon fill="#ffffb3" stroke="#000000" points="570.0469,-122 489.9531,-122 489.9531,-86 570.0469,-86 570.0469,-122"/>
<text text-anchor="middle" x="530" y="-99.8" font-family="Times,serif" font-size="14.00" fill="#000000">NgConfirm</text>
</g>
<!-- jNetworkBootstrap4ConfirmModule -->
<g id="node2" class="node">
<title>jNetworkBootstrap4ConfirmModule</title>
<polygon fill="#8dd3c7" stroke="#000000" points="470.7962,-187 467.7962,-191 446.7962,-191 443.7962,-187 249.2038,-187 249.2038,-151 470.7962,-151 470.7962,-187"/>
<text text-anchor="middle" x="360" y="-164.8" font-family="Times,serif" font-size="14.00" fill="#000000">jNetworkBootstrap4ConfirmModule</text>
</g>
<!-- NgConfirm&#45;&gt;jNetworkBootstrap4ConfirmModule -->
<g id="edge1" class="edge">
<title>NgConfirm&#45;&gt;jNetworkBootstrap4ConfirmModule</title>
<path fill="none" stroke="#000000" d="M530,-122.1061C530,-141.3391 530,-169 530,-169 530,-169 481.0193,-169 481.0193,-169"/>
<polygon fill="#000000" stroke="#000000" points="481.0194,-165.5001 471.0193,-169 481.0193,-172.5001 481.0194,-165.5001"/>
</g>
<!-- NgConfirm  -->
<g id="node5" class="node">
<title>NgConfirm </title>
<polygon fill="#fb8072" stroke="#000000" points="402.0456,-252 317.9544,-252 317.9544,-216 402.0456,-216 402.0456,-252"/>
<text text-anchor="middle" x="360" y="-229.8" font-family="Times,serif" font-size="14.00" fill="#000000">NgConfirm </text>
</g>
<!-- jNetworkBootstrap4ConfirmModule&#45;&gt;NgConfirm  -->
<g id="edge4" class="edge">
<title>jNetworkBootstrap4ConfirmModule&#45;&gt;NgConfirm </title>
<path fill="none" stroke="#000000" stroke-dasharray="5,2" d="M360,-187.1061C360,-187.1061 360,-205.991 360,-205.991"/>
<polygon fill="#000000" stroke="#000000" points="356.5001,-205.9909 360,-215.991 363.5001,-205.991 356.5001,-205.9909"/>
</g>
<!-- jNetworkBootstrap4ButtonModule -->
<g id="node3" class="node">
<title>jNetworkBootstrap4ButtonModule</title>
<polygon fill="#8dd3c7" stroke="#000000" points="465.9748,-122 462.9748,-126 441.9748,-126 438.9748,-122 254.0252,-122 254.0252,-86 465.9748,-86 465.9748,-122"/>
<text text-anchor="middle" x="360" y="-99.8" font-family="Times,serif" font-size="14.00" fill="#000000">jNetworkBootstrap4ButtonModule</text>
</g>
<!-- jNetworkBootstrap4ButtonModule&#45;&gt;jNetworkBootstrap4ConfirmModule -->
<g id="edge2" class="edge">
<title>jNetworkBootstrap4ButtonModule&#45;&gt;jNetworkBootstrap4ConfirmModule</title>
<path fill="none" stroke="#000000" d="M360,-122.1061C360,-122.1061 360,-140.991 360,-140.991"/>
<polygon fill="#000000" stroke="#000000" points="356.5001,-140.9909 360,-150.991 363.5001,-140.991 356.5001,-140.9909"/>
</g>
<!-- jNetworkBootstrap4DialogModule -->
<g id="node4" class="node">
<title>jNetworkBootstrap4DialogModule</title>
<polygon fill="#8dd3c7" stroke="#000000" points="235.9594,-122 232.9594,-126 211.9594,-126 208.9594,-122 24.0406,-122 24.0406,-86 235.9594,-86 235.9594,-122"/>
<text text-anchor="middle" x="130" y="-99.8" font-family="Times,serif" font-size="14.00" fill="#000000">jNetworkBootstrap4DialogModule</text>
</g>
<!-- jNetworkBootstrap4DialogModule&#45;&gt;jNetworkBootstrap4ConfirmModule -->
<g id="edge3" class="edge">
<title>jNetworkBootstrap4DialogModule&#45;&gt;jNetworkBootstrap4ConfirmModule</title>
<path fill="none" stroke="#000000" d="M130,-122.1061C130,-141.3391 130,-169 130,-169 130,-169 239.0422,-169 239.0422,-169"/>
<polygon fill="#000000" stroke="#000000" points="239.0423,-172.5001 249.0422,-169 239.0422,-165.5001 239.0423,-172.5001"/>
</g>
</g>
</svg>
