<?xml version="1.0" encoding="UTF-8" standalone="no"?>
<!DOCTYPE svg PUBLIC "-//W3C//DTD SVG 1.1//EN"
 "http://www.w3.org/Graphics/SVG/1.1/DTD/svg11.dtd">
<!-- Generated by graphviz version 2.47.3 (20210619.1520)
 -->
<!-- Title: dependencies Pages: 1 -->
<svg width="2225pt" height="358pt"
 viewBox="0.00 0.00 2225.00 358.39" xmlns="http://www.w3.org/2000/svg" xmlns:xlink="http://www.w3.org/1999/xlink">
<g id="graph0" class="graph" transform="scale(1 1) rotate(0) translate(4 354.39)">
<title>dependencies</title>
<polygon fill="white" stroke="transparent" points="-4,4 -4,-354.39 2221,-354.39 2221,4 -4,4"/>
<text text-anchor="middle" x="1108.5" y="-8.2" font-family="sans-serif" font-size="14.00">dependencies</text>
<g id="clust1" class="cluster">
<title>cluster_JNetworkBootstrap4DateTimeModule</title>
<polygon fill="none" stroke="black" stroke-dasharray="1,5" points="8,-32.8 8,-342.39 2209,-342.39 2209,-32.8 8,-32.8"/>
</g>
<g id="clust3" class="cluster">
<title>cluster_JNetworkBootstrap4DateTimeModule_NgDateComponent_providers</title>
<polygon fill="none" stroke="black" points="529,-40.8 529,-204.39 2201,-204.39 2201,-40.8 529,-40.8"/>
</g>
<g id="clust8" class="cluster">
<title>cluster_JNetworkBootstrap4DateTimeModule_exports</title>
<polygon fill="none" stroke="black" points="103,-282.39 103,-334.39 765,-334.39 765,-282.39 103,-282.39"/>
</g>
<g id="clust2" class="cluster">
<title>cluster_JNetworkBootstrap4DateTimeModule_declarations</title>
<polygon fill="none" stroke="black" points="16,-152.39 16,-204.39 521,-204.39 521,-152.39 16,-152.39"/>
</g>
<!-- NgDateComponent -->
<g id="node1" class="node">
<title>NgDateComponent</title>
<polygon fill="#ffffb3" stroke="black" points="995.37,-196.39 870.63,-196.39 870.63,-160.39 995.37,-160.39 995.37,-196.39"/>
<text text-anchor="middle" x="933" y="-174.19" font-family="Times,serif" font-size="14.00">NgDateComponent</text>
</g>
<!-- JNetworkBootstrap4DateTimeModule -->
<g id="node5" class="node">
<title>JNetworkBootstrap4DateTimeModule</title>
<polygon fill="#8dd3c7" stroke="black" points="499.89,-261.39 496.89,-265.39 475.89,-265.39 472.89,-261.39 268.11,-261.39 268.11,-225.39 499.89,-225.39 499.89,-261.39"/>
<text text-anchor="middle" x="384" y="-239.19" font-family="Times,serif" font-size="14.00">JNetworkBootstrap4DateTimeModule</text>
</g>
<!-- NgDateComponent&#45;&gt;JNetworkBootstrap4DateTimeModule -->
<g id="edge1" class="edge">
<title>NgDateComponent&#45;&gt;JNetworkBootstrap4DateTimeModule</title>
<path fill="none" stroke="black" d="M933,-196.41C933,-213.76 933,-237.39 933,-237.39 933,-237.39 509.76,-237.39 509.76,-237.39"/>
<polygon fill="black" stroke="black" points="509.76,-233.89 499.76,-237.39 509.76,-240.89 509.76,-233.89"/>
</g>
<!-- NgDateSelectorComponent -->
<g id="node2" class="node">
<title>NgDateSelectorComponent</title>
<polygon fill="#ffffb3" stroke="black" points="513.23,-196.39 342.77,-196.39 342.77,-160.39 513.23,-160.39 513.23,-196.39"/>
<text text-anchor="middle" x="428" y="-174.19" font-family="Times,serif" font-size="14.00">NgDateSelectorComponent</text>
</g>
<!-- NgDateSelectorComponent&#45;&gt;JNetworkBootstrap4DateTimeModule -->
<g id="edge4" class="edge">
<title>NgDateSelectorComponent&#45;&gt;JNetworkBootstrap4DateTimeModule</title>
<path fill="none" stroke="black" d="M421.16,-196.5C421.16,-196.5 421.16,-215.38 421.16,-215.38"/>
<polygon fill="black" stroke="black" points="417.66,-215.38 421.16,-225.38 424.66,-215.38 417.66,-215.38"/>
</g>
<!-- NgDateTimeComponent -->
<g id="node3" class="node">
<title>NgDateTimeComponent</title>
<polygon fill="#ffffb3" stroke="black" points="324.41,-196.39 169.59,-196.39 169.59,-160.39 324.41,-160.39 324.41,-196.39"/>
<text text-anchor="middle" x="247" y="-174.19" font-family="Times,serif" font-size="14.00">NgDateTimeComponent</text>
</g>
<!-- NgDateTimeComponent&#45;&gt;JNetworkBootstrap4DateTimeModule -->
<g id="edge5" class="edge">
<title>NgDateTimeComponent&#45;&gt;JNetworkBootstrap4DateTimeModule</title>
<path fill="none" stroke="black" d="M296.26,-196.5C296.26,-196.5 296.26,-215.38 296.26,-215.38"/>
<polygon fill="black" stroke="black" points="292.76,-215.38 296.26,-225.38 299.76,-215.38 292.76,-215.38"/>
</g>
<!-- NgTimeComponent -->
<g id="node4" class="node">
<title>NgTimeComponent</title>
<polygon fill="#ffffb3" stroke="black" points="151.99,-196.39 24.01,-196.39 24.01,-160.39 151.99,-160.39 151.99,-196.39"/>
<text text-anchor="middle" x="88" y="-174.19" font-family="Times,serif" font-size="14.00">NgTimeComponent</text>
</g>
<!-- NgTimeComponent&#45;&gt;JNetworkBootstrap4DateTimeModule -->
<g id="edge6" class="edge">
<title>NgTimeComponent&#45;&gt;JNetworkBootstrap4DateTimeModule</title>
<path fill="none" stroke="black" d="M131.62,-196.41C131.62,-213.76 131.62,-237.39 131.62,-237.39 131.62,-237.39 258.15,-237.39 258.15,-237.39"/>
<polygon fill="black" stroke="black" points="258.15,-240.89 268.15,-237.39 258.15,-233.89 258.15,-240.89"/>
</g>
<!-- NgDateComponent  -->
<g id="node8" class="node">
<title>NgDateComponent </title>
<polygon fill="#fb8072" stroke="black" points="757.37,-326.39 628.63,-326.39 628.63,-290.39 757.37,-290.39 757.37,-326.39"/>
<text text-anchor="middle" x="693" y="-304.19" font-family="Times,serif" font-size="14.00">NgDateComponent </text>
</g>
<!-- JNetworkBootstrap4DateTimeModule&#45;&gt;NgDateComponent  -->
<g id="edge7" class="edge">
<title>JNetworkBootstrap4DateTimeModule&#45;&gt;NgDateComponent </title>
<path fill="none" stroke="black" stroke-dasharray="5,2" d="M499.94,-249.39C587.62,-249.39 693,-249.39 693,-249.39 693,-249.39 693,-280.37 693,-280.37"/>
<polygon fill="black" stroke="black" points="689.5,-280.37 693,-290.37 696.5,-280.37 689.5,-280.37"/>
</g>
<!-- NgDateSelectorComponent  -->
<g id="node9" class="node">
<title>NgDateSelectorComponent </title>
<polygon fill="#fb8072" stroke="black" points="611.23,-326.39 436.77,-326.39 436.77,-290.39 611.23,-290.39 611.23,-326.39"/>
<text text-anchor="middle" x="524" y="-304.19" font-family="Times,serif" font-size="14.00">NgDateSelectorComponent </text>
</g>
<!-- JNetworkBootstrap4DateTimeModule&#45;&gt;NgDateSelectorComponent  -->
<g id="edge8" class="edge">
<title>JNetworkBootstrap4DateTimeModule&#45;&gt;NgDateSelectorComponent </title>
<path fill="none" stroke="black" stroke-dasharray="5,2" d="M468.29,-261.5C468.29,-261.5 468.29,-280.38 468.29,-280.38"/>
<polygon fill="black" stroke="black" points="464.79,-280.38 468.29,-290.38 471.79,-280.38 464.79,-280.38"/>
</g>
<!-- NgDateTimeComponent  -->
<g id="node10" class="node">
<title>NgDateTimeComponent </title>
<polygon fill="#fb8072" stroke="black" points="418.91,-326.39 261.09,-326.39 261.09,-290.39 418.91,-290.39 418.91,-326.39"/>
<text text-anchor="middle" x="340" y="-304.19" font-family="Times,serif" font-size="14.00">NgDateTimeComponent </text>
</g>
<!-- JNetworkBootstrap4DateTimeModule&#45;&gt;NgDateTimeComponent  -->
<g id="edge9" class="edge">
<title>JNetworkBootstrap4DateTimeModule&#45;&gt;NgDateTimeComponent </title>
<path fill="none" stroke="black" stroke-dasharray="5,2" d="M343.63,-261.5C343.63,-261.5 343.63,-280.38 343.63,-280.38"/>
<polygon fill="black" stroke="black" points="340.13,-280.38 343.63,-290.38 347.13,-280.38 340.13,-280.38"/>
</g>
<!-- NgTimeComponent  -->
<g id="node11" class="node">
<title>NgTimeComponent </title>
<polygon fill="#fb8072" stroke="black" points="242.99,-326.39 111.01,-326.39 111.01,-290.39 242.99,-290.39 242.99,-326.39"/>
<text text-anchor="middle" x="177" y="-304.19" font-family="Times,serif" font-size="14.00">NgTimeComponent </text>
</g>
<!-- JNetworkBootstrap4DateTimeModule&#45;&gt;NgTimeComponent  -->
<g id="edge10" class="edge">
<title>JNetworkBootstrap4DateTimeModule&#45;&gt;NgTimeComponent </title>
<path fill="none" stroke="black" stroke-dasharray="5,2" d="M267.93,-249.39C234.21,-249.39 206.27,-249.39 206.27,-249.39 206.27,-249.39 206.27,-280.37 206.27,-280.37"/>
<polygon fill="black" stroke="black" points="202.77,-280.37 206.27,-290.37 209.77,-280.37 202.77,-280.37"/>
</g>
<!-- {
 &#160;&#160;&#160;provide: NG_VALUE_ACCESSOR, multi: true, useExisting: forwardRef(() =&gt; NgDateComponent),
} -->
<g id="node6" class="node">
<title>{
 &#160;&#160;&#160;provide: NG_VALUE_ACCESSOR, multi: true, useExisting: forwardRef(() =&gt; NgDateComponent),
}</title>
<ellipse fill="#fdb462" stroke="black" cx="1770" cy="-90.1" rx="422.54" ry="41.09"/>
<text text-anchor="middle" x="1770" y="-102.7" font-family="Times,serif" font-size="14.00">{</text>
<text text-anchor="middle" x="1770" y="-85.9" font-family="Times,serif" font-size="14.00"> &#160;&#160;&#160;provide: NG_VALUE_ACCESSOR, multi: true, useExisting: forwardRef(() =&gt; NgDateComponent),</text>
<text text-anchor="middle" x="1770" y="-69.1" font-family="Times,serif" font-size="14.00">}</text>
</g>
<!-- {
 &#160;&#160;&#160;provide: NG_VALUE_ACCESSOR, multi: true, useExisting: forwardRef(() =&gt; NgDateComponent),
}&#45;&gt;NgDateComponent -->
<g id="edge2" class="edge">
<title>{
 &#160;&#160;&#160;provide: NG_VALUE_ACCESSOR, multi: true, useExisting: forwardRef(() =&gt; NgDateComponent),
}&#45;&gt;NgDateComponent</title>
<path fill="none" stroke="black" d="M1770,-131.4C1770,-154.38 1770,-178.39 1770,-178.39 1770,-178.39 1005.57,-178.39 1005.57,-178.39"/>
<polygon fill="black" stroke="black" points="1005.57,-174.89 995.57,-178.39 1005.57,-181.89 1005.57,-174.89"/>
</g>
<!-- {
 &#160;&#160;&#160;provide: NG_VALIDATORS, multi: true, useExisting: forwardRef(() =&gt; NgDateComponent),
} -->
<g id="node7" class="node">
<title>{
 &#160;&#160;&#160;provide: NG_VALIDATORS, multi: true, useExisting: forwardRef(() =&gt; NgDateComponent),
}</title>
<ellipse fill="#fdb462" stroke="black" cx="933" cy="-90.1" rx="396.22" ry="41.09"/>
<text text-anchor="middle" x="933" y="-102.7" font-family="Times,serif" font-size="14.00">{</text>
<text text-anchor="middle" x="933" y="-85.9" font-family="Times,serif" font-size="14.00"> &#160;&#160;&#160;provide: NG_VALIDATORS, multi: true, useExisting: forwardRef(() =&gt; NgDateComponent),</text>
<text text-anchor="middle" x="933" y="-69.1" font-family="Times,serif" font-size="14.00">}</text>
</g>
<!-- {
 &#160;&#160;&#160;provide: NG_VALIDATORS, multi: true, useExisting: forwardRef(() =&gt; NgDateComponent),
}&#45;&gt;NgDateComponent -->
<g id="edge3" class="edge">
<title>{
 &#160;&#160;&#160;provide: NG_VALIDATORS, multi: true, useExisting: forwardRef(() =&gt; NgDateComponent),
}&#45;&gt;NgDateComponent</title>
<path fill="none" stroke="black" d="M933,-131.4C933,-131.4 933,-150.06 933,-150.06"/>
<polygon fill="black" stroke="black" points="929.5,-150.06 933,-160.06 936.5,-150.06 929.5,-150.06"/>
</g>
</g>
</svg>
