<?xml version="1.0" encoding="UTF-8" standalone="no"?>
<!DOCTYPE svg PUBLIC "-//W3C//DTD SVG 1.1//EN"
 "http://www.w3.org/Graphics/SVG/1.1/DTD/svg11.dtd">
<!-- Generated by graphviz version 2.47.3 (20210619.1520)
 -->
<!-- Title: dependencies Pages: 1 -->
<svg width="5166pt" height="358pt"
 viewBox="0.00 0.00 5166.00 358.39" xmlns="http://www.w3.org/2000/svg" xmlns:xlink="http://www.w3.org/1999/xlink">
<g id="graph0" class="graph" transform="scale(1 1) rotate(0) translate(4 354.39)">
<title>dependencies</title>
<polygon fill="white" stroke="transparent" points="-4,4 -4,-354.39 5162,-354.39 5162,4 -4,4"/>
<text text-anchor="middle" x="2579" y="-8.2" font-family="sans-serif" font-size="14.00">dependencies</text>
<g id="clust1" class="cluster">
<title>cluster_JNetworkBootstrap4DateTimeModule</title>
<polygon fill="none" stroke="black" stroke-dasharray="1,5" points="8,-32.8 8,-342.39 5150,-342.39 5150,-32.8 8,-32.8"/>
</g>
<g id="clust6" class="cluster">
<title>cluster_JNetworkBootstrap4DateTimeModule_NgTimeComponent_providers</title>
<polygon fill="none" stroke="black" points="3460,-40.8 3460,-204.39 5142,-204.39 5142,-40.8 3460,-40.8"/>
</g>
<g id="clust3" class="cluster">
<title>cluster_JNetworkBootstrap4DateTimeModule_NgDateComponent_providers</title>
<polygon fill="none" stroke="black" points="1780,-40.8 1780,-204.39 3452,-204.39 3452,-40.8 1780,-40.8"/>
</g>
<g id="clust2" class="cluster">
<title>cluster_JNetworkBootstrap4DateTimeModule_declarations</title>
<polygon fill="none" stroke="black" points="1324,-152.39 1324,-204.39 1683,-204.39 1683,-152.39 1324,-152.39"/>
</g>
<g id="clust5" class="cluster">
<title>cluster_JNetworkBootstrap4DateTimeModule_NgDateTimeComponent_providers</title>
<polygon fill="none" stroke="black" points="16,-40.8 16,-139.39 1772,-139.39 1772,-40.8 16,-40.8"/>
</g>
<g id="clust8" class="cluster">
<title>cluster_JNetworkBootstrap4DateTimeModule_exports</title>
<polygon fill="none" stroke="black" points="1558,-282.39 1558,-334.39 2220,-334.39 2220,-282.39 1558,-282.39"/>
</g>
<!-- NgDateComponent -->
<g id="node1" class="node">
<title>NgDateComponent</title>
<polygon fill="#ffffb3" stroke="black" points="2246.37,-196.39 2121.63,-196.39 2121.63,-160.39 2246.37,-160.39 2246.37,-196.39"/>
<text text-anchor="middle" x="2184" y="-174.19" font-family="Times,serif" font-size="14.00">NgDateComponent</text>
</g>
<!-- JNetworkBootstrap4DateTimeModule -->
<g id="node5" class="node">
<title>JNetworkBootstrap4DateTimeModule</title>
<polygon fill="#8dd3c7" stroke="black" points="2002.89,-261.39 1999.89,-265.39 1978.89,-265.39 1975.89,-261.39 1771.11,-261.39 1771.11,-225.39 2002.89,-225.39 2002.89,-261.39"/>
<text text-anchor="middle" x="1887" y="-239.19" font-family="Times,serif" font-size="14.00">JNetworkBootstrap4DateTimeModule</text>
</g>
<!-- NgDateComponent&#45;&gt;JNetworkBootstrap4DateTimeModule -->
<g id="edge1" class="edge">
<title>NgDateComponent&#45;&gt;JNetworkBootstrap4DateTimeModule</title>
<path fill="none" stroke="black" d="M2166.88,-196.42C2166.88,-212.79 2166.88,-234.39 2166.88,-234.39 2166.88,-234.39 2012.86,-234.39 2012.86,-234.39"/>
<polygon fill="black" stroke="black" points="2012.86,-230.89 2002.86,-234.39 2012.86,-237.89 2012.86,-230.89"/>
</g>
<!-- NgDateSelectorComponent -->
<g id="node2" class="node">
<title>NgDateSelectorComponent</title>
<polygon fill="#ffffb3" stroke="black" points="1675.23,-196.39 1504.77,-196.39 1504.77,-160.39 1675.23,-160.39 1675.23,-196.39"/>
<text text-anchor="middle" x="1590" y="-174.19" font-family="Times,serif" font-size="14.00">NgDateSelectorComponent</text>
</g>
<!-- NgDateSelectorComponent&#45;&gt;JNetworkBootstrap4DateTimeModule -->
<g id="edge4" class="edge">
<title>NgDateSelectorComponent&#45;&gt;JNetworkBootstrap4DateTimeModule</title>
<path fill="none" stroke="black" d="M1675.31,-178.39C1725.61,-178.39 1779.47,-178.39 1779.47,-178.39 1779.47,-178.39 1779.47,-215.28 1779.47,-215.28"/>
<polygon fill="black" stroke="black" points="1775.97,-215.28 1779.47,-225.28 1782.97,-215.28 1775.97,-215.28"/>
</g>
<!-- NgDateTimeComponent -->
<g id="node3" class="node">
<title>NgDateTimeComponent</title>
<polygon fill="#ffffb3" stroke="black" points="1486.41,-196.39 1331.59,-196.39 1331.59,-160.39 1486.41,-160.39 1486.41,-196.39"/>
<text text-anchor="middle" x="1409" y="-174.19" font-family="Times,serif" font-size="14.00">NgDateTimeComponent</text>
</g>
<!-- NgDateTimeComponent&#45;&gt;JNetworkBootstrap4DateTimeModule -->
<g id="edge5" class="edge">
<title>NgDateTimeComponent&#45;&gt;JNetworkBootstrap4DateTimeModule</title>
<path fill="none" stroke="black" d="M1409,-196.41C1409,-213.76 1409,-237.39 1409,-237.39 1409,-237.39 1761.29,-237.39 1761.29,-237.39"/>
<polygon fill="black" stroke="black" points="1761.29,-240.89 1771.29,-237.39 1761.29,-233.89 1761.29,-240.89"/>
</g>
<!-- NgTimeComponent -->
<g id="node4" class="node">
<title>NgTimeComponent</title>
<polygon fill="#ffffb3" stroke="black" points="3930.99,-196.39 3803.01,-196.39 3803.01,-160.39 3930.99,-160.39 3930.99,-196.39"/>
<text text-anchor="middle" x="3867" y="-174.19" font-family="Times,serif" font-size="14.00">NgTimeComponent</text>
</g>
<!-- NgTimeComponent&#45;&gt;JNetworkBootstrap4DateTimeModule -->
<g id="edge8" class="edge">
<title>NgTimeComponent&#45;&gt;JNetworkBootstrap4DateTimeModule</title>
<path fill="none" stroke="black" d="M3867,-196.5C3867,-215.73 3867,-243.39 3867,-243.39 3867,-243.39 2012.74,-243.39 2012.74,-243.39"/>
<polygon fill="black" stroke="black" points="2012.74,-239.89 2002.74,-243.39 2012.74,-246.89 2012.74,-239.89"/>
</g>
<!-- NgDateComponent  -->
<g id="node12" class="node">
<title>NgDateComponent </title>
<polygon fill="#fb8072" stroke="black" points="2212.37,-326.39 2083.63,-326.39 2083.63,-290.39 2212.37,-290.39 2212.37,-326.39"/>
<text text-anchor="middle" x="2148" y="-304.19" font-family="Times,serif" font-size="14.00">NgDateComponent </text>
</g>
<!-- JNetworkBootstrap4DateTimeModule&#45;&gt;NgDateComponent  -->
<g id="edge11" class="edge">
<title>JNetworkBootstrap4DateTimeModule&#45;&gt;NgDateComponent </title>
<path fill="none" stroke="black" stroke-dasharray="5,2" d="M2002.74,-252.39C2053.91,-252.39 2102.69,-252.39 2102.69,-252.39 2102.69,-252.39 2102.69,-280.36 2102.69,-280.36"/>
<polygon fill="black" stroke="black" points="2099.19,-280.36 2102.69,-290.36 2106.19,-280.36 2099.19,-280.36"/>
</g>
<!-- NgDateSelectorComponent  -->
<g id="node13" class="node">
<title>NgDateSelectorComponent </title>
<polygon fill="#fb8072" stroke="black" points="2066.23,-326.39 1891.77,-326.39 1891.77,-290.39 2066.23,-290.39 2066.23,-326.39"/>
<text text-anchor="middle" x="1979" y="-304.19" font-family="Times,serif" font-size="14.00">NgDateSelectorComponent </text>
</g>
<!-- JNetworkBootstrap4DateTimeModule&#45;&gt;NgDateSelectorComponent  -->
<g id="edge12" class="edge">
<title>JNetworkBootstrap4DateTimeModule&#45;&gt;NgDateSelectorComponent </title>
<path fill="none" stroke="black" stroke-dasharray="5,2" d="M1947.29,-261.5C1947.29,-261.5 1947.29,-280.38 1947.29,-280.38"/>
<polygon fill="black" stroke="black" points="1943.79,-280.38 1947.29,-290.38 1950.79,-280.38 1943.79,-280.38"/>
</g>
<!-- NgDateTimeComponent  -->
<g id="node14" class="node">
<title>NgDateTimeComponent </title>
<polygon fill="#fb8072" stroke="black" points="1873.91,-326.39 1716.09,-326.39 1716.09,-290.39 1873.91,-290.39 1873.91,-326.39"/>
<text text-anchor="middle" x="1795" y="-304.19" font-family="Times,serif" font-size="14.00">NgDateTimeComponent </text>
</g>
<!-- JNetworkBootstrap4DateTimeModule&#45;&gt;NgDateTimeComponent  -->
<g id="edge13" class="edge">
<title>JNetworkBootstrap4DateTimeModule&#45;&gt;NgDateTimeComponent </title>
<path fill="none" stroke="black" stroke-dasharray="5,2" d="M1822.63,-261.5C1822.63,-261.5 1822.63,-280.38 1822.63,-280.38"/>
<polygon fill="black" stroke="black" points="1819.13,-280.38 1822.63,-290.38 1826.13,-280.38 1819.13,-280.38"/>
</g>
<!-- NgTimeComponent  -->
<g id="node15" class="node">
<title>NgTimeComponent </title>
<polygon fill="#fb8072" stroke="black" points="1697.99,-326.39 1566.01,-326.39 1566.01,-290.39 1697.99,-290.39 1697.99,-326.39"/>
<text text-anchor="middle" x="1632" y="-304.19" font-family="Times,serif" font-size="14.00">NgTimeComponent </text>
</g>
<!-- JNetworkBootstrap4DateTimeModule&#45;&gt;NgTimeComponent  -->
<g id="edge14" class="edge">
<title>JNetworkBootstrap4DateTimeModule&#45;&gt;NgTimeComponent </title>
<path fill="none" stroke="black" stroke-dasharray="5,2" d="M1771.27,-249.39C1726.83,-249.39 1686.56,-249.39 1686.56,-249.39 1686.56,-249.39 1686.56,-280.37 1686.56,-280.37"/>
<polygon fill="black" stroke="black" points="1683.06,-280.37 1686.56,-290.37 1690.06,-280.37 1683.06,-280.37"/>
</g>
<!-- {
 &#160;&#160;&#160;provide: NG_VALUE_ACCESSOR, multi: true, useExisting: forwardRef(() =&gt; NgDateComponent),
} -->
<g id="node6" class="node">
<title>{
 &#160;&#160;&#160;provide: NG_VALUE_ACCESSOR, multi: true, useExisting: forwardRef(() =&gt; NgDateComponent),
}</title>
<ellipse fill="#fdb462" stroke="black" cx="3021" cy="-90.1" rx="422.54" ry="41.09"/>
<text text-anchor="middle" x="3021" y="-102.7" font-family="Times,serif" font-size="14.00">{</text>
<text text-anchor="middle" x="3021" y="-85.9" font-family="Times,serif" font-size="14.00"> &#160;&#160;&#160;provide: NG_VALUE_ACCESSOR, multi: true, useExisting: forwardRef(() =&gt; NgDateComponent),</text>
<text text-anchor="middle" x="3021" y="-69.1" font-family="Times,serif" font-size="14.00">}</text>
</g>
<!-- {
 &#160;&#160;&#160;provide: NG_VALUE_ACCESSOR, multi: true, useExisting: forwardRef(() =&gt; NgDateComponent),
}&#45;&gt;NgDateComponent -->
<g id="edge2" class="edge">
<title>{
 &#160;&#160;&#160;provide: NG_VALUE_ACCESSOR, multi: true, useExisting: forwardRef(() =&gt; NgDateComponent),
}&#45;&gt;NgDateComponent</title>
<path fill="none" stroke="black" d="M3021,-131.4C3021,-154.38 3021,-178.39 3021,-178.39 3021,-178.39 2256.57,-178.39 2256.57,-178.39"/>
<polygon fill="black" stroke="black" points="2256.57,-174.89 2246.57,-178.39 2256.57,-181.89 2256.57,-174.89"/>
</g>
<!-- {
 &#160;&#160;&#160;provide: NG_VALIDATORS, multi: true, useExisting: forwardRef(() =&gt; NgDateComponent),
} -->
<g id="node7" class="node">
<title>{
 &#160;&#160;&#160;provide: NG_VALIDATORS, multi: true, useExisting: forwardRef(() =&gt; NgDateComponent),
}</title>
<ellipse fill="#fdb462" stroke="black" cx="2184" cy="-90.1" rx="396.22" ry="41.09"/>
<text text-anchor="middle" x="2184" y="-102.7" font-family="Times,serif" font-size="14.00">{</text>
<text text-anchor="middle" x="2184" y="-85.9" font-family="Times,serif" font-size="14.00"> &#160;&#160;&#160;provide: NG_VALIDATORS, multi: true, useExisting: forwardRef(() =&gt; NgDateComponent),</text>
<text text-anchor="middle" x="2184" y="-69.1" font-family="Times,serif" font-size="14.00">}</text>
</g>
<!-- {
 &#160;&#160;&#160;provide: NG_VALIDATORS, multi: true, useExisting: forwardRef(() =&gt; NgDateComponent),
}&#45;&gt;NgDateComponent -->
<g id="edge3" class="edge">
<title>{
 &#160;&#160;&#160;provide: NG_VALIDATORS, multi: true, useExisting: forwardRef(() =&gt; NgDateComponent),
}&#45;&gt;NgDateComponent</title>
<path fill="none" stroke="black" d="M2184,-131.4C2184,-131.4 2184,-150.06 2184,-150.06"/>
<polygon fill="black" stroke="black" points="2180.5,-150.06 2184,-160.06 2187.5,-150.06 2180.5,-150.06"/>
</g>
<!-- {
 &#160;&#160;&#160;provide: NG_VALUE_ACCESSOR, multi: true, useExisting: forwardRef(() =&gt; NgDateTimeComponent),
} -->
<g id="node8" class="node">
<title>{
 &#160;&#160;&#160;provide: NG_VALUE_ACCESSOR, multi: true, useExisting: forwardRef(() =&gt; NgDateTimeComponent),
}</title>
<ellipse fill="#fdb462" stroke="black" cx="1320" cy="-90.1" rx="443.82" ry="41.09"/>
<text text-anchor="middle" x="1320" y="-102.7" font-family="Times,serif" font-size="14.00">{</text>
<text text-anchor="middle" x="1320" y="-85.9" font-family="Times,serif" font-size="14.00"> &#160;&#160;&#160;provide: NG_VALUE_ACCESSOR, multi: true, useExisting: forwardRef(() =&gt; NgDateTimeComponent),</text>
<text text-anchor="middle" x="1320" y="-69.1" font-family="Times,serif" font-size="14.00">}</text>
</g>
<!-- {
 &#160;&#160;&#160;provide: NG_VALUE_ACCESSOR, multi: true, useExisting: forwardRef(() =&gt; NgDateTimeComponent),
}&#45;&gt;NgDateTimeComponent -->
<g id="edge6" class="edge">
<title>{
 &#160;&#160;&#160;provide: NG_VALUE_ACCESSOR, multi: true, useExisting: forwardRef(() =&gt; NgDateTimeComponent),
}&#45;&gt;NgDateTimeComponent</title>
<path fill="none" stroke="black" d="M1409,-130.62C1409,-130.62 1409,-150.15 1409,-150.15"/>
<polygon fill="black" stroke="black" points="1405.5,-150.15 1409,-160.15 1412.5,-150.15 1405.5,-150.15"/>
</g>
<!-- {
 &#160;&#160;&#160;provide: NG_VALIDATORS, multi: true, useExisting: forwardRef(() =&gt; NgDateTimeComponent),
} -->
<g id="node9" class="node">
<title>{
 &#160;&#160;&#160;provide: NG_VALIDATORS, multi: true, useExisting: forwardRef(() =&gt; NgDateTimeComponent),
}</title>
<ellipse fill="#fdb462" stroke="black" cx="441" cy="-90.1" rx="417.01" ry="41.09"/>
<text text-anchor="middle" x="441" y="-102.7" font-family="Times,serif" font-size="14.00">{</text>
<text text-anchor="middle" x="441" y="-85.9" font-family="Times,serif" font-size="14.00"> &#160;&#160;&#160;provide: NG_VALIDATORS, multi: true, useExisting: forwardRef(() =&gt; NgDateTimeComponent),</text>
<text text-anchor="middle" x="441" y="-69.1" font-family="Times,serif" font-size="14.00">}</text>
</g>
<!-- {
 &#160;&#160;&#160;provide: NG_VALIDATORS, multi: true, useExisting: forwardRef(() =&gt; NgDateTimeComponent),
}&#45;&gt;NgDateTimeComponent -->
<g id="edge7" class="edge">
<title>{
 &#160;&#160;&#160;provide: NG_VALIDATORS, multi: true, useExisting: forwardRef(() =&gt; NgDateTimeComponent),
}&#45;&gt;NgDateTimeComponent</title>
<path fill="none" stroke="black" d="M441,-131.4C441,-154.38 441,-178.39 441,-178.39 441,-178.39 1321.42,-178.39 1321.42,-178.39"/>
<polygon fill="black" stroke="black" points="1321.42,-181.89 1331.42,-178.39 1321.42,-174.89 1321.42,-181.89"/>
</g>
<!-- {
 &#160;&#160;&#160;provide: NG_VALUE_ACCESSOR, multi: true, useExisting: forwardRef(() =&gt; NgTimeComponent),
} -->
<g id="node10" class="node">
<title>{
 &#160;&#160;&#160;provide: NG_VALUE_ACCESSOR, multi: true, useExisting: forwardRef(() =&gt; NgTimeComponent),
}</title>
<ellipse fill="#fdb462" stroke="black" cx="4709" cy="-90.1" rx="424.95" ry="41.09"/>
<text text-anchor="middle" x="4709" y="-102.7" font-family="Times,serif" font-size="14.00">{</text>
<text text-anchor="middle" x="4709" y="-85.9" font-family="Times,serif" font-size="14.00"> &#160;&#160;&#160;provide: NG_VALUE_ACCESSOR, multi: true, useExisting: forwardRef(() =&gt; NgTimeComponent),</text>
<text text-anchor="middle" x="4709" y="-69.1" font-family="Times,serif" font-size="14.00">}</text>
</g>
<!-- {
 &#160;&#160;&#160;provide: NG_VALUE_ACCESSOR, multi: true, useExisting: forwardRef(() =&gt; NgTimeComponent),
}&#45;&gt;NgTimeComponent -->
<g id="edge9" class="edge">
<title>{
 &#160;&#160;&#160;provide: NG_VALUE_ACCESSOR, multi: true, useExisting: forwardRef(() =&gt; NgTimeComponent),
}&#45;&gt;NgTimeComponent</title>
<path fill="none" stroke="black" d="M4709,-131.4C4709,-154.38 4709,-178.39 4709,-178.39 4709,-178.39 3941.32,-178.39 3941.32,-178.39"/>
<polygon fill="black" stroke="black" points="3941.32,-174.89 3931.32,-178.39 3941.32,-181.89 3941.32,-174.89"/>
</g>
<!-- {
 &#160;&#160;&#160;provide: NG_VALIDATORS, multi: true, useExisting: forwardRef(() =&gt; NgTimeComponent),
} -->
<g id="node11" class="node">
<title>{
 &#160;&#160;&#160;provide: NG_VALIDATORS, multi: true, useExisting: forwardRef(() =&gt; NgTimeComponent),
}</title>
<ellipse fill="#fdb462" stroke="black" cx="3867" cy="-90.1" rx="398.63" ry="41.09"/>
<text text-anchor="middle" x="3867" y="-102.7" font-family="Times,serif" font-size="14.00">{</text>
<text text-anchor="middle" x="3867" y="-85.9" font-family="Times,serif" font-size="14.00"> &#160;&#160;&#160;provide: NG_VALIDATORS, multi: true, useExisting: forwardRef(() =&gt; NgTimeComponent),</text>
<text text-anchor="middle" x="3867" y="-69.1" font-family="Times,serif" font-size="14.00">}</text>
</g>
<!-- {
 &#160;&#160;&#160;provide: NG_VALIDATORS, multi: true, useExisting: forwardRef(() =&gt; NgTimeComponent),
}&#45;&gt;NgTimeComponent -->
<g id="edge10" class="edge">
<title>{
 &#160;&#160;&#160;provide: NG_VALIDATORS, multi: true, useExisting: forwardRef(() =&gt; NgTimeComponent),
}&#45;&gt;NgTimeComponent</title>
<path fill="none" stroke="black" d="M3867,-131.4C3867,-131.4 3867,-150.06 3867,-150.06"/>
<polygon fill="black" stroke="black" points="3863.5,-150.06 3867,-160.06 3870.5,-150.06 3863.5,-150.06"/>
</g>
</g>
</svg>
