<?xml version="1.0" encoding="UTF-8" standalone="no"?>
<!DOCTYPE svg PUBLIC "-//W3C//DTD SVG 1.1//EN"
 "http://www.w3.org/Graphics/SVG/1.1/DTD/svg11.dtd">
<!-- Generated by graphviz version 2.47.3 (20210619.1520)
 -->
<!-- Title: dependencies Pages: 1 -->
<svg width="1712pt" height="358pt"
 viewBox="0.00 0.00 1712.00 358.39" xmlns="http://www.w3.org/2000/svg" xmlns:xlink="http://www.w3.org/1999/xlink">
<g id="graph0" class="graph" transform="scale(1 1) rotate(0) translate(4 354.39)">
<title>dependencies</title>
<polygon fill="white" stroke="transparent" points="-4,4 -4,-354.39 1708,-354.39 1708,4 -4,4"/>
<text text-anchor="middle" x="852" y="-8.2" font-family="sans-serif" font-size="14.00">dependencies</text>
<g id="clust1" class="cluster">
<title>cluster_JNetworkBootstrap4DateTimeModule</title>
<polygon fill="none" stroke="black" stroke-dasharray="1,5" points="8,-32.8 8,-342.39 1696,-342.39 1696,-32.8 8,-32.8"/>
</g>
<g id="clust8" class="cluster">
<title>cluster_JNetworkBootstrap4DateTimeModule_exports</title>
<polygon fill="none" stroke="black" points="344,-282.39 344,-334.39 1006,-334.39 1006,-282.39 344,-282.39"/>
</g>
<g id="clust2" class="cluster">
<title>cluster_JNetworkBootstrap4DateTimeModule_declarations</title>
<polygon fill="none" stroke="black" points="352,-152.39 352,-204.39 1000,-204.39 1000,-152.39 352,-152.39"/>
</g>
<g id="clust3" class="cluster">
<title>cluster_JNetworkBootstrap4DateTimeModule_NgDateComponent_providers</title>
<polygon fill="none" stroke="black" points="16,-40.8 16,-139.39 1688,-139.39 1688,-40.8 16,-40.8"/>
</g>
<!-- NgDateComponent -->
<g id="node1" class="node">
<title>NgDateComponent</title>
<polygon fill="#ffffb3" stroke="black" points="992.37,-196.39 867.63,-196.39 867.63,-160.39 992.37,-160.39 992.37,-196.39"/>
<text text-anchor="middle" x="930" y="-174.19" font-family="Times,serif" font-size="14.00">NgDateComponent</text>
</g>
<!-- JNetworkBootstrap4DateTimeModule -->
<g id="node5" class="node">
<title>JNetworkBootstrap4DateTimeModule</title>
<polygon fill="#8dd3c7" stroke="black" points="788.89,-261.39 785.89,-265.39 764.89,-265.39 761.89,-261.39 557.11,-261.39 557.11,-225.39 788.89,-225.39 788.89,-261.39"/>
<text text-anchor="middle" x="673" y="-239.19" font-family="Times,serif" font-size="14.00">JNetworkBootstrap4DateTimeModule</text>
</g>
<!-- NgDateComponent&#45;&gt;JNetworkBootstrap4DateTimeModule -->
<g id="edge1" class="edge">
<title>NgDateComponent&#45;&gt;JNetworkBootstrap4DateTimeModule</title>
<path fill="none" stroke="black" d="M951.56,-196.41C951.56,-213.76 951.56,-237.39 951.56,-237.39 951.56,-237.39 798.71,-237.39 798.71,-237.39"/>
<polygon fill="black" stroke="black" points="798.71,-233.89 788.71,-237.39 798.71,-240.89 798.71,-233.89"/>
</g>
<!-- NgDateSelectorComponent -->
<g id="node2" class="node">
<title>NgDateSelectorComponent</title>
<polygon fill="#ffffb3" stroke="black" points="849.23,-196.39 678.77,-196.39 678.77,-160.39 849.23,-160.39 849.23,-196.39"/>
<text text-anchor="middle" x="764" y="-174.19" font-family="Times,serif" font-size="14.00">NgDateSelectorComponent</text>
</g>
<!-- NgDateSelectorComponent&#45;&gt;JNetworkBootstrap4DateTimeModule -->
<g id="edge4" class="edge">
<title>NgDateSelectorComponent&#45;&gt;JNetworkBootstrap4DateTimeModule</title>
<path fill="none" stroke="black" d="M733.66,-196.5C733.66,-196.5 733.66,-215.38 733.66,-215.38"/>
<polygon fill="black" stroke="black" points="730.16,-215.38 733.66,-225.38 737.16,-215.38 730.16,-215.38"/>
</g>
<!-- NgDateTimeComponent -->
<g id="node3" class="node">
<title>NgDateTimeComponent</title>
<polygon fill="#ffffb3" stroke="black" points="660.41,-196.39 505.59,-196.39 505.59,-160.39 660.41,-160.39 660.41,-196.39"/>
<text text-anchor="middle" x="583" y="-174.19" font-family="Times,serif" font-size="14.00">NgDateTimeComponent</text>
</g>
<!-- NgDateTimeComponent&#45;&gt;JNetworkBootstrap4DateTimeModule -->
<g id="edge5" class="edge">
<title>NgDateTimeComponent&#45;&gt;JNetworkBootstrap4DateTimeModule</title>
<path fill="none" stroke="black" d="M608.76,-196.5C608.76,-196.5 608.76,-215.38 608.76,-215.38"/>
<polygon fill="black" stroke="black" points="605.26,-215.38 608.76,-225.38 612.26,-215.38 605.26,-215.38"/>
</g>
<!-- NgTimeComponent -->
<g id="node4" class="node">
<title>NgTimeComponent</title>
<polygon fill="#ffffb3" stroke="black" points="487.99,-196.39 360.01,-196.39 360.01,-160.39 487.99,-160.39 487.99,-196.39"/>
<text text-anchor="middle" x="424" y="-174.19" font-family="Times,serif" font-size="14.00">NgTimeComponent</text>
</g>
<!-- NgTimeComponent&#45;&gt;JNetworkBootstrap4DateTimeModule -->
<g id="edge6" class="edge">
<title>NgTimeComponent&#45;&gt;JNetworkBootstrap4DateTimeModule</title>
<path fill="none" stroke="black" d="M442.5,-196.41C442.5,-213.76 442.5,-237.39 442.5,-237.39 442.5,-237.39 547.07,-237.39 547.07,-237.39"/>
<polygon fill="black" stroke="black" points="547.07,-240.89 557.07,-237.39 547.07,-233.89 547.07,-240.89"/>
</g>
<!-- NgDateComponent  -->
<g id="node8" class="node">
<title>NgDateComponent </title>
<polygon fill="#fb8072" stroke="black" points="998.37,-326.39 869.63,-326.39 869.63,-290.39 998.37,-290.39 998.37,-326.39"/>
<text text-anchor="middle" x="934" y="-304.19" font-family="Times,serif" font-size="14.00">NgDateComponent </text>
</g>
<!-- JNetworkBootstrap4DateTimeModule&#45;&gt;NgDateComponent  -->
<g id="edge7" class="edge">
<title>JNetworkBootstrap4DateTimeModule&#45;&gt;NgDateComponent </title>
<path fill="none" stroke="black" stroke-dasharray="5,2" d="M788.71,-249.39C849.16,-249.39 910.69,-249.39 910.69,-249.39 910.69,-249.39 910.69,-280.37 910.69,-280.37"/>
<polygon fill="black" stroke="black" points="907.19,-280.37 910.69,-290.37 914.19,-280.37 907.19,-280.37"/>
</g>
<!-- NgDateSelectorComponent  -->
<g id="node9" class="node">
<title>NgDateSelectorComponent </title>
<polygon fill="#fb8072" stroke="black" points="852.23,-326.39 677.77,-326.39 677.77,-290.39 852.23,-290.39 852.23,-326.39"/>
<text text-anchor="middle" x="765" y="-304.19" font-family="Times,serif" font-size="14.00">NgDateSelectorComponent </text>
</g>
<!-- JNetworkBootstrap4DateTimeModule&#45;&gt;NgDateSelectorComponent  -->
<g id="edge8" class="edge">
<title>JNetworkBootstrap4DateTimeModule&#45;&gt;NgDateSelectorComponent </title>
<path fill="none" stroke="black" stroke-dasharray="5,2" d="M733.29,-261.5C733.29,-261.5 733.29,-280.38 733.29,-280.38"/>
<polygon fill="black" stroke="black" points="729.79,-280.38 733.29,-290.38 736.79,-280.38 729.79,-280.38"/>
</g>
<!-- NgDateTimeComponent  -->
<g id="node10" class="node">
<title>NgDateTimeComponent </title>
<polygon fill="#fb8072" stroke="black" points="659.91,-326.39 502.09,-326.39 502.09,-290.39 659.91,-290.39 659.91,-326.39"/>
<text text-anchor="middle" x="581" y="-304.19" font-family="Times,serif" font-size="14.00">NgDateTimeComponent </text>
</g>
<!-- JNetworkBootstrap4DateTimeModule&#45;&gt;NgDateTimeComponent  -->
<g id="edge9" class="edge">
<title>JNetworkBootstrap4DateTimeModule&#45;&gt;NgDateTimeComponent </title>
<path fill="none" stroke="black" stroke-dasharray="5,2" d="M608.63,-261.5C608.63,-261.5 608.63,-280.38 608.63,-280.38"/>
<polygon fill="black" stroke="black" points="605.13,-280.38 608.63,-290.38 612.13,-280.38 605.13,-280.38"/>
</g>
<!-- NgTimeComponent  -->
<g id="node11" class="node">
<title>NgTimeComponent </title>
<polygon fill="#fb8072" stroke="black" points="483.99,-326.39 352.01,-326.39 352.01,-290.39 483.99,-290.39 483.99,-326.39"/>
<text text-anchor="middle" x="418" y="-304.19" font-family="Times,serif" font-size="14.00">NgTimeComponent </text>
</g>
<!-- JNetworkBootstrap4DateTimeModule&#45;&gt;NgTimeComponent  -->
<g id="edge10" class="edge">
<title>JNetworkBootstrap4DateTimeModule&#45;&gt;NgTimeComponent </title>
<path fill="none" stroke="black" stroke-dasharray="5,2" d="M556.97,-249.39C483.11,-249.39 401.25,-249.39 401.25,-249.39 401.25,-249.39 401.25,-280.37 401.25,-280.37"/>
<polygon fill="black" stroke="black" points="397.75,-280.37 401.25,-290.37 404.75,-280.37 397.75,-280.37"/>
</g>
<!-- {
 &#160;&#160;&#160;provide: NG_VALUE_ACCESSOR, multi: true, useExisting: forwardRef(() =&gt; NgDateComponent),
} -->
<g id="node6" class="node">
<title>{
 &#160;&#160;&#160;provide: NG_VALUE_ACCESSOR, multi: true, useExisting: forwardRef(() =&gt; NgDateComponent),
}</title>
<ellipse fill="#fdb462" stroke="black" cx="1257" cy="-90.1" rx="422.54" ry="41.09"/>
<text text-anchor="middle" x="1257" y="-102.7" font-family="Times,serif" font-size="14.00">{</text>
<text text-anchor="middle" x="1257" y="-85.9" font-family="Times,serif" font-size="14.00"> &#160;&#160;&#160;provide: NG_VALUE_ACCESSOR, multi: true, useExisting: forwardRef(() =&gt; NgDateComponent),</text>
<text text-anchor="middle" x="1257" y="-69.1" font-family="Times,serif" font-size="14.00">}</text>
</g>
<!-- {
 &#160;&#160;&#160;provide: NG_VALUE_ACCESSOR, multi: true, useExisting: forwardRef(() =&gt; NgDateComponent),
}&#45;&gt;NgDateComponent -->
<g id="edge2" class="edge">
<title>{
 &#160;&#160;&#160;provide: NG_VALUE_ACCESSOR, multi: true, useExisting: forwardRef(() =&gt; NgDateComponent),
}&#45;&gt;NgDateComponent</title>
<path fill="none" stroke="black" d="M950.81,-119.01C950.81,-119.01 950.81,-150.23 950.81,-150.23"/>
<polygon fill="black" stroke="black" points="947.31,-150.23 950.81,-160.23 954.31,-150.23 947.31,-150.23"/>
</g>
<!-- {
 &#160;&#160;&#160;provide: NG_VALIDATORS, multi: true, useExisting: forwardRef(() =&gt; NgDateComponent),
} -->
<g id="node7" class="node">
<title>{
 &#160;&#160;&#160;provide: NG_VALIDATORS, multi: true, useExisting: forwardRef(() =&gt; NgDateComponent),
}</title>
<ellipse fill="#fdb462" stroke="black" cx="420" cy="-90.1" rx="396.22" ry="41.09"/>
<text text-anchor="middle" x="420" y="-102.7" font-family="Times,serif" font-size="14.00">{</text>
<text text-anchor="middle" x="420" y="-85.9" font-family="Times,serif" font-size="14.00"> &#160;&#160;&#160;provide: NG_VALIDATORS, multi: true, useExisting: forwardRef(() =&gt; NgDateComponent),</text>
<text text-anchor="middle" x="420" y="-69.1" font-family="Times,serif" font-size="14.00">}</text>
</g>
<!-- {
 &#160;&#160;&#160;provide: NG_VALIDATORS, multi: true, useExisting: forwardRef(() =&gt; NgDateComponent),
}&#45;&gt;NgDateComponent -->
<g id="edge3" class="edge">
<title>{
 &#160;&#160;&#160;provide: NG_VALIDATORS, multi: true, useExisting: forwardRef(() =&gt; NgDateComponent),
}&#45;&gt;NgDateComponent</title>
<path fill="none" stroke="black" d="M747.5,-113.64C747.5,-129.07 747.5,-146.39 747.5,-146.39 747.5,-146.39 909.19,-146.39 909.19,-146.39 909.19,-146.39 909.19,-150.15 909.19,-150.15"/>
<polygon fill="black" stroke="black" points="905.69,-150.15 909.19,-160.15 912.69,-150.15 905.69,-150.15"/>
</g>
</g>
</svg>
