<?xml version="1.0" encoding="UTF-8" standalone="no"?>
<!DOCTYPE svg PUBLIC "-//W3C//DTD SVG 1.1//EN"
 "http://www.w3.org/Graphics/SVG/1.1/DTD/svg11.dtd">
<!-- Generated by graphviz version 2.40.1 (20161225.0304)
 -->
<!-- Title: dependencies Pages: 1 -->
<svg width="1352pt" height="349pt"
 viewBox="0.00 0.00 1352.00 349.00" xmlns="http://www.w3.org/2000/svg" xmlns:xlink="http://www.w3.org/1999/xlink">
<g id="graph0" class="graph" transform="scale(1 1) rotate(0) translate(4 345)">
<title>dependencies</title>
<polygon fill="#ffffff" stroke="transparent" points="-4,4 -4,-345 1348,-345 1348,4 -4,4"/>
<text text-anchor="start" x="651.0091" y="-42.4" font-family="sans-serif" font-weight="bold" font-size="14.00" fill="#000000">Legend</text>
<polygon fill="#ffffb3" stroke="transparent" points="438,-10 438,-30 458,-30 458,-10 438,-10"/>
<text text-anchor="start" x="461.629" y="-15.4" font-family="sans-serif" font-size="14.00" fill="#000000"> &#160;Declarations</text>
<polygon fill="#8dd3c7" stroke="transparent" points="551,-10 551,-30 571,-30 571,-10 551,-10"/>
<text text-anchor="start" x="574.7251" y="-15.4" font-family="sans-serif" font-size="14.00" fill="#000000"> &#160;Module</text>
<polygon fill="#80b1d3" stroke="transparent" points="637,-10 637,-30 657,-30 657,-10 637,-10"/>
<text text-anchor="start" x="660.7812" y="-15.4" font-family="sans-serif" font-size="14.00" fill="#000000"> &#160;Bootstrap</text>
<polygon fill="#fdb462" stroke="transparent" points="734,-10 734,-30 754,-30 754,-10 734,-10"/>
<text text-anchor="start" x="757.6732" y="-15.4" font-family="sans-serif" font-size="14.00" fill="#000000"> &#160;Providers</text>
<polygon fill="#fb8072" stroke="transparent" points="830,-10 830,-30 850,-30 850,-10 830,-10"/>
<text text-anchor="start" x="853.7258" y="-15.4" font-family="sans-serif" font-size="14.00" fill="#000000"> &#160;Exports</text>
<g id="clust1" class="cluster">
<title>cluster_jNetworkBootstrap3GridModule</title>
<polygon fill="none" stroke="#000000" stroke-dasharray="1,5" points="8,-70 8,-333 1336,-333 1336,-70 8,-70"/>
</g>
<g id="clust2" class="cluster">
<title>cluster_jNetworkBootstrap3GridModule_declarations</title>
<polygon fill="none" stroke="#000000" points="262,-143 262,-195 823,-195 823,-143 262,-143"/>
</g>
<g id="clust3" class="cluster">
<title>cluster_jNetworkBootstrap3GridModule_NgGrid_providers</title>
<polygon fill="none" stroke="#000000" points="16,-78 16,-130 1328,-130 1328,-78 16,-78"/>
</g>
<g id="clust9" class="cluster">
<title>cluster_jNetworkBootstrap3GridModule_exports</title>
<polygon fill="none" stroke="#000000" points="254,-273 254,-325 832,-325 832,-273 254,-273"/>
</g>
<!-- NgGrid -->
<g id="node1" class="node">
<title>NgGrid</title>
<polygon fill="#ffffb3" stroke="#000000" points="815.2649,-187 756.7351,-187 756.7351,-151 815.2649,-151 815.2649,-187"/>
<text text-anchor="middle" x="786" y="-164.8" font-family="Times,serif" font-size="14.00" fill="#000000">NgGrid</text>
</g>
<!-- jNetworkBootstrap3GridModule -->
<g id="node6" class="node">
<title>jNetworkBootstrap3GridModule</title>
<polygon fill="#8dd3c7" stroke="#000000" points="671.5154,-252 668.5154,-256 647.5154,-256 644.5154,-252 472.4846,-252 472.4846,-216 671.5154,-216 671.5154,-252"/>
<text text-anchor="middle" x="572" y="-229.8" font-family="Times,serif" font-size="14.00" fill="#000000">jNetworkBootstrap3GridModule</text>
</g>
<!-- NgGrid&#45;&gt;jNetworkBootstrap3GridModule -->
<g id="edge1" class="edge">
<title>NgGrid&#45;&gt;jNetworkBootstrap3GridModule</title>
<path fill="none" stroke="#000000" d="M797.5441,-187.0225C797.5441,-204.3734 797.5441,-228 797.5441,-228 797.5441,-228 681.5834,-228 681.5834,-228"/>
<polygon fill="#000000" stroke="#000000" points="681.5835,-224.5001 671.5834,-228 681.5834,-231.5001 681.5835,-224.5001"/>
</g>
<!-- NgGridButton -->
<g id="node2" class="node">
<title>NgGridButton</title>
<polygon fill="#ffffb3" stroke="#000000" points="738.3823,-187 641.6177,-187 641.6177,-151 738.3823,-151 738.3823,-187"/>
<text text-anchor="middle" x="690" y="-164.8" font-family="Times,serif" font-size="14.00" fill="#000000">NgGridButton</text>
</g>
<!-- NgGridButton&#45;&gt;jNetworkBootstrap3GridModule -->
<g id="edge4" class="edge">
<title>NgGridButton&#45;&gt;jNetworkBootstrap3GridModule</title>
<path fill="none" stroke="#000000" d="M656.6582,-187.1061C656.6582,-187.1061 656.6582,-205.991 656.6582,-205.991"/>
<polygon fill="#000000" stroke="#000000" points="653.1582,-205.9909 656.6582,-215.991 660.1582,-205.991 653.1582,-205.9909"/>
</g>
<!-- NgGridColumn -->
<g id="node3" class="node">
<title>NgGridColumn</title>
<polygon fill="#ffffb3" stroke="#000000" points="623.8823,-187 520.1177,-187 520.1177,-151 623.8823,-151 623.8823,-187"/>
<text text-anchor="middle" x="572" y="-164.8" font-family="Times,serif" font-size="14.00" fill="#000000">NgGridColumn</text>
</g>
<!-- NgGridColumn&#45;&gt;jNetworkBootstrap3GridModule -->
<g id="edge5" class="edge">
<title>NgGridColumn&#45;&gt;jNetworkBootstrap3GridModule</title>
<path fill="none" stroke="#000000" d="M572,-187.1061C572,-187.1061 572,-205.991 572,-205.991"/>
<polygon fill="#000000" stroke="#000000" points="568.5001,-205.9909 572,-215.991 575.5001,-205.991 568.5001,-205.9909"/>
</g>
<!-- NgGridColumnAction -->
<g id="node4" class="node">
<title>NgGridColumnAction</title>
<polygon fill="#ffffb3" stroke="#000000" points="501.9846,-187 360.0154,-187 360.0154,-151 501.9846,-151 501.9846,-187"/>
<text text-anchor="middle" x="431" y="-164.8" font-family="Times,serif" font-size="14.00" fill="#000000">NgGridColumnAction</text>
</g>
<!-- NgGridColumnAction&#45;&gt;jNetworkBootstrap3GridModule -->
<g id="edge6" class="edge">
<title>NgGridColumnAction&#45;&gt;jNetworkBootstrap3GridModule</title>
<path fill="none" stroke="#000000" d="M487.1175,-187.1061C487.1175,-187.1061 487.1175,-205.991 487.1175,-205.991"/>
<polygon fill="#000000" stroke="#000000" points="483.6175,-205.9909 487.1175,-215.991 490.6175,-205.991 483.6175,-205.9909"/>
</g>
<!-- NgPaging -->
<g id="node5" class="node">
<title>NgPaging</title>
<polygon fill="#ffffb3" stroke="#000000" points="341.9944,-187 270.0056,-187 270.0056,-151 341.9944,-151 341.9944,-187"/>
<text text-anchor="middle" x="306" y="-164.8" font-family="Times,serif" font-size="14.00" fill="#000000">NgPaging</text>
</g>
<!-- NgPaging&#45;&gt;jNetworkBootstrap3GridModule -->
<g id="edge7" class="edge">
<title>NgPaging&#45;&gt;jNetworkBootstrap3GridModule</title>
<path fill="none" stroke="#000000" d="M315.1657,-187.0225C315.1657,-204.3734 315.1657,-228 315.1657,-228 315.1657,-228 462.3336,-228 462.3336,-228"/>
<polygon fill="#000000" stroke="#000000" points="462.3336,-231.5001 472.3336,-228 462.3335,-224.5001 462.3336,-231.5001"/>
</g>
<!-- NgGrid  -->
<g id="node9" class="node">
<title>NgGrid </title>
<polygon fill="#fb8072" stroke="#000000" points="824.265,-317 761.735,-317 761.735,-281 824.265,-281 824.265,-317"/>
<text text-anchor="middle" x="793" y="-294.8" font-family="Times,serif" font-size="14.00" fill="#000000">NgGrid </text>
</g>
<!-- jNetworkBootstrap3GridModule&#45;&gt;NgGrid  -->
<g id="edge8" class="edge">
<title>jNetworkBootstrap3GridModule&#45;&gt;NgGrid </title>
<path fill="none" stroke="#000000" stroke-dasharray="5,2" d="M671.5944,-240C724.9009,-240 779.7059,-240 779.7059,-240 779.7059,-240 779.7059,-270.9775 779.7059,-270.9775"/>
<polygon fill="#000000" stroke="#000000" points="776.206,-270.9774 779.7059,-280.9775 783.206,-270.9775 776.206,-270.9774"/>
</g>
<!-- NgGridButton  -->
<g id="node10" class="node">
<title>NgGridButton </title>
<polygon fill="#fb8072" stroke="#000000" points="744.3829,-317 643.6171,-317 643.6171,-281 744.3829,-281 744.3829,-317"/>
<text text-anchor="middle" x="694" y="-294.8" font-family="Times,serif" font-size="14.00" fill="#000000">NgGridButton </text>
</g>
<!-- jNetworkBootstrap3GridModule&#45;&gt;NgGridButton  -->
<g id="edge9" class="edge">
<title>jNetworkBootstrap3GridModule&#45;&gt;NgGridButton </title>
<path fill="none" stroke="#000000" stroke-dasharray="5,2" d="M657.7832,-252.1061C657.7832,-252.1061 657.7832,-270.991 657.7832,-270.991"/>
<polygon fill="#000000" stroke="#000000" points="654.2832,-270.9909 657.7832,-280.991 661.2832,-270.991 654.2832,-270.9909"/>
</g>
<!-- NgGridColumn  -->
<g id="node11" class="node">
<title>NgGridColumn </title>
<polygon fill="#fb8072" stroke="#000000" points="625.8829,-317 518.1171,-317 518.1171,-281 625.8829,-281 625.8829,-317"/>
<text text-anchor="middle" x="572" y="-294.8" font-family="Times,serif" font-size="14.00" fill="#000000">NgGridColumn </text>
</g>
<!-- jNetworkBootstrap3GridModule&#45;&gt;NgGridColumn  -->
<g id="edge10" class="edge">
<title>jNetworkBootstrap3GridModule&#45;&gt;NgGridColumn </title>
<path fill="none" stroke="#000000" stroke-dasharray="5,2" d="M572,-252.1061C572,-252.1061 572,-270.991 572,-270.991"/>
<polygon fill="#000000" stroke="#000000" points="568.5001,-270.9909 572,-280.991 575.5001,-270.991 568.5001,-270.9909"/>
</g>
<!-- NgGridColumnAction  -->
<g id="node12" class="node">
<title>NgGridColumnAction </title>
<polygon fill="#fb8072" stroke="#000000" points="500.9854,-317 355.0146,-317 355.0146,-281 500.9854,-281 500.9854,-317"/>
<text text-anchor="middle" x="428" y="-294.8" font-family="Times,serif" font-size="14.00" fill="#000000">NgGridColumnAction </text>
</g>
<!-- jNetworkBootstrap3GridModule&#45;&gt;NgGridColumnAction  -->
<g id="edge11" class="edge">
<title>jNetworkBootstrap3GridModule&#45;&gt;NgGridColumnAction </title>
<path fill="none" stroke="#000000" stroke-dasharray="5,2" d="M486.4925,-252.1061C486.4925,-252.1061 486.4925,-270.991 486.4925,-270.991"/>
<polygon fill="#000000" stroke="#000000" points="482.9925,-270.9909 486.4925,-280.991 489.9925,-270.991 482.9925,-270.9909"/>
</g>
<!-- NgPaging  -->
<g id="node13" class="node">
<title>NgPaging </title>
<polygon fill="#fb8072" stroke="#000000" points="337.996,-317 262.004,-317 262.004,-281 337.996,-281 337.996,-317"/>
<text text-anchor="middle" x="300" y="-294.8" font-family="Times,serif" font-size="14.00" fill="#000000">NgPaging </text>
</g>
<!-- jNetworkBootstrap3GridModule&#45;&gt;NgPaging  -->
<g id="edge12" class="edge">
<title>jNetworkBootstrap3GridModule&#45;&gt;NgPaging </title>
<path fill="none" stroke="#000000" stroke-dasharray="5,2" d="M472.3079,-240C392.0637,-240 292.5843,-240 292.5843,-240 292.5843,-240 292.5843,-270.9775 292.5843,-270.9775"/>
<polygon fill="#000000" stroke="#000000" points="289.0844,-270.9774 292.5843,-280.9775 296.0844,-270.9775 289.0844,-270.9774"/>
</g>
<!-- { provide: NG_VALUE_ACCESSOR, multi: true, useExisting: NgGrid } -->
<g id="node7" class="node">
<title>{ provide: NG_VALUE_ACCESSOR, multi: true, useExisting: NgGrid }</title>
<ellipse fill="#fdb462" stroke="#000000" cx="1024" cy="-104" rx="295.522" ry="18"/>
<text text-anchor="middle" x="1024" y="-99.8" font-family="Times,serif" font-size="14.00" fill="#000000">{ provide: NG_VALUE_ACCESSOR, multi: true, useExisting: NgGrid }</text>
</g>
<!-- { provide: NG_VALUE_ACCESSOR, multi: true, useExisting: NgGrid }&#45;&gt;NgGrid -->
<g id="edge2" class="edge">
<title>{ provide: NG_VALUE_ACCESSOR, multi: true, useExisting: NgGrid }&#45;&gt;NgGrid</title>
<path fill="none" stroke="#000000" d="M795.7941,-115.6207C795.7941,-115.6207 795.7941,-140.8534 795.7941,-140.8534"/>
<polygon fill="#000000" stroke="#000000" points="792.2942,-140.8533 795.7941,-150.8534 799.2942,-140.8534 792.2942,-140.8533"/>
</g>
<!-- { provide: NG_VALIDATORS, multi: true, useExisting: forwardRef(() =&gt; NgGrid) } -->
<g id="node8" class="node">
<title>{ provide: NG_VALIDATORS, multi: true, useExisting: forwardRef(() =&gt; NgGrid) }</title>
<ellipse fill="#fdb462" stroke="#000000" cx="367" cy="-104" rx="343.1579" ry="18"/>
<text text-anchor="middle" x="367" y="-99.8" font-family="Times,serif" font-size="14.00" fill="#000000">{ provide: NG_VALIDATORS, multi: true, useExisting: forwardRef(() =&gt; NgGrid) }</text>
</g>
<!-- { provide: NG_VALIDATORS, multi: true, useExisting: forwardRef(() =&gt; NgGrid) }&#45;&gt;NgGrid -->
<g id="edge3" class="edge">
<title>{ provide: NG_VALIDATORS, multi: true, useExisting: forwardRef(() =&gt; NgGrid) }&#45;&gt;NgGrid</title>
<path fill="none" stroke="#000000" d="M675.8189,-111.9884C675.8189,-121.7548 675.8189,-137 675.8189,-137 675.8189,-137 776.2059,-137 776.2059,-137 776.2059,-137 776.2059,-140.7566 776.2059,-140.7566"/>
<polygon fill="#000000" stroke="#000000" points="772.706,-140.7566 776.2059,-150.7566 779.706,-140.7566 772.706,-140.7566"/>
</g>
</g>
</svg>
