<?xml version="1.0" encoding="UTF-8" standalone="no"?>
<!DOCTYPE svg PUBLIC "-//W3C//DTD SVG 1.1//EN"
 "http://www.w3.org/Graphics/SVG/1.1/DTD/svg11.dtd">
<!-- Generated by graphviz version 2.47.3 (20210619.1520)
 -->
<!-- Title: dependencies Pages: 1 -->
<svg width="1838pt" height="358pt"
 viewBox="0.00 0.00 1838.00 358.39" xmlns="http://www.w3.org/2000/svg" xmlns:xlink="http://www.w3.org/1999/xlink">
<g id="graph0" class="graph" transform="scale(1 1) rotate(0) translate(4 354.39)">
<title>dependencies</title>
<polygon fill="white" stroke="transparent" points="-4,4 -4,-354.39 1834,-354.39 1834,4 -4,4"/>
<text text-anchor="middle" x="915" y="-8.2" font-family="sans-serif" font-size="14.00">dependencies</text>
<g id="clust1" class="cluster">
<title>cluster_JNetworkBootstrap4ContextmenuModule</title>
<polygon fill="none" stroke="black" stroke-dasharray="1,5" points="8,-32.8 8,-342.39 1822,-342.39 1822,-32.8 8,-32.8"/>
</g>
<g id="clust4" class="cluster">
<title>cluster_JNetworkBootstrap4ContextmenuModule_NgContextmenuComponent_providers</title>
<polygon fill="none" stroke="black" points="990,-40.8 990,-204.39 1814,-204.39 1814,-40.8 990,-40.8"/>
</g>
<g id="clust2" class="cluster">
<title>cluster_JNetworkBootstrap4ContextmenuModule_declarations</title>
<polygon fill="none" stroke="black" points="16,-152.39 16,-204.39 982,-204.39 982,-152.39 16,-152.39"/>
</g>
<g id="clust9" class="cluster">
<title>cluster_JNetworkBootstrap4ContextmenuModule_exports</title>
<polygon fill="none" stroke="black" points="142,-282.39 142,-334.39 1081,-334.39 1081,-282.39 142,-282.39"/>
</g>
<!-- NgContextmenuAnchorDirective -->
<g id="node1" class="node">
<title>NgContextmenuAnchorDirective</title>
<polygon fill="#ffffb3" stroke="black" points="974.11,-196.39 771.89,-196.39 771.89,-160.39 974.11,-160.39 974.11,-196.39"/>
<text text-anchor="middle" x="873" y="-174.19" font-family="Times,serif" font-size="14.00">NgContextmenuAnchorDirective</text>
</g>
<!-- JNetworkBootstrap4ContextmenuModule -->
<g id="node6" class="node">
<title>JNetworkBootstrap4ContextmenuModule</title>
<polygon fill="#8dd3c7" stroke="black" points="771.35,-261.39 768.35,-265.39 747.35,-265.39 744.35,-261.39 520.65,-261.39 520.65,-225.39 771.35,-225.39 771.35,-261.39"/>
<text text-anchor="middle" x="646" y="-239.19" font-family="Times,serif" font-size="14.00">JNetworkBootstrap4ContextmenuModule</text>
</g>
<!-- NgContextmenuAnchorDirective&#45;&gt;JNetworkBootstrap4ContextmenuModule -->
<g id="edge1" class="edge">
<title>NgContextmenuAnchorDirective&#45;&gt;JNetworkBootstrap4ContextmenuModule</title>
<path fill="none" stroke="black" d="M771.7,-178.39C766.08,-178.39 762.67,-178.39 762.67,-178.39 762.67,-178.39 762.67,-215.28 762.67,-215.28"/>
<polygon fill="black" stroke="black" points="759.17,-215.28 762.67,-225.28 766.17,-215.28 759.17,-215.28"/>
</g>
<!-- NgContextmenuComponent -->
<g id="node2" class="node">
<title>NgContextmenuComponent</title>
<polygon fill="#ffffb3" stroke="black" points="1329.88,-196.39 1156.12,-196.39 1156.12,-160.39 1329.88,-160.39 1329.88,-196.39"/>
<text text-anchor="middle" x="1243" y="-174.19" font-family="Times,serif" font-size="14.00">NgContextmenuComponent</text>
</g>
<!-- NgContextmenuComponent&#45;&gt;JNetworkBootstrap4ContextmenuModule -->
<g id="edge2" class="edge">
<title>NgContextmenuComponent&#45;&gt;JNetworkBootstrap4ContextmenuModule</title>
<path fill="none" stroke="black" d="M1243,-196.41C1243,-213.76 1243,-237.39 1243,-237.39 1243,-237.39 781.51,-237.39 781.51,-237.39"/>
<polygon fill="black" stroke="black" points="781.51,-233.89 771.51,-237.39 781.51,-240.89 781.51,-233.89"/>
</g>
<!-- NgContextmenuContainerDirective -->
<g id="node3" class="node">
<title>NgContextmenuContainerDirective</title>
<polygon fill="#ffffb3" stroke="black" points="753.83,-196.39 538.17,-196.39 538.17,-160.39 753.83,-160.39 753.83,-196.39"/>
<text text-anchor="middle" x="646" y="-174.19" font-family="Times,serif" font-size="14.00">NgContextmenuContainerDirective</text>
</g>
<!-- NgContextmenuContainerDirective&#45;&gt;JNetworkBootstrap4ContextmenuModule -->
<g id="edge4" class="edge">
<title>NgContextmenuContainerDirective&#45;&gt;JNetworkBootstrap4ContextmenuModule</title>
<path fill="none" stroke="black" d="M646,-196.5C646,-196.5 646,-215.38 646,-215.38"/>
<polygon fill="black" stroke="black" points="642.5,-215.38 646,-225.38 649.5,-215.38 642.5,-215.38"/>
</g>
<!-- NgContextmenuItemButtonComponent -->
<g id="node4" class="node">
<title>NgContextmenuItemButtonComponent</title>
<polygon fill="#ffffb3" stroke="black" points="519.65,-196.39 282.35,-196.39 282.35,-160.39 519.65,-160.39 519.65,-196.39"/>
<text text-anchor="middle" x="401" y="-174.19" font-family="Times,serif" font-size="14.00">NgContextmenuItemButtonComponent</text>
</g>
<!-- NgContextmenuItemButtonComponent&#45;&gt;JNetworkBootstrap4ContextmenuModule -->
<g id="edge5" class="edge">
<title>NgContextmenuItemButtonComponent&#45;&gt;JNetworkBootstrap4ContextmenuModule</title>
<path fill="none" stroke="black" d="M519.68,-178.39C525.71,-178.39 529.33,-178.39 529.33,-178.39 529.33,-178.39 529.33,-215.28 529.33,-215.28"/>
<polygon fill="black" stroke="black" points="525.83,-215.28 529.33,-225.28 532.83,-215.28 525.83,-215.28"/>
</g>
<!-- NgContextmenuItemSplitterComponent -->
<g id="node5" class="node">
<title>NgContextmenuItemSplitterComponent</title>
<polygon fill="#ffffb3" stroke="black" points="264.25,-196.39 23.75,-196.39 23.75,-160.39 264.25,-160.39 264.25,-196.39"/>
<text text-anchor="middle" x="144" y="-174.19" font-family="Times,serif" font-size="14.00">NgContextmenuItemSplitterComponent</text>
</g>
<!-- NgContextmenuItemSplitterComponent&#45;&gt;JNetworkBootstrap4ContextmenuModule -->
<g id="edge6" class="edge">
<title>NgContextmenuItemSplitterComponent&#45;&gt;JNetworkBootstrap4ContextmenuModule</title>
<path fill="none" stroke="black" d="M207.12,-196.41C207.12,-213.76 207.12,-237.39 207.12,-237.39 207.12,-237.39 510.53,-237.39 510.53,-237.39"/>
<polygon fill="black" stroke="black" points="510.53,-240.89 520.53,-237.39 510.53,-233.89 510.53,-240.89"/>
</g>
<!-- NgContextmenuAnchorDirective  -->
<g id="node8" class="node">
<title>NgContextmenuAnchorDirective </title>
<polygon fill="#fb8072" stroke="black" points="1073.11,-326.39 866.89,-326.39 866.89,-290.39 1073.11,-290.39 1073.11,-326.39"/>
<text text-anchor="middle" x="970" y="-304.19" font-family="Times,serif" font-size="14.00">NgContextmenuAnchorDirective </text>
</g>
<!-- JNetworkBootstrap4ContextmenuModule&#45;&gt;NgContextmenuAnchorDirective  -->
<g id="edge7" class="edge">
<title>JNetworkBootstrap4ContextmenuModule&#45;&gt;NgContextmenuAnchorDirective </title>
<path fill="none" stroke="black" stroke-dasharray="5,2" d="M771.66,-249.39C843.97,-249.39 920.62,-249.39 920.62,-249.39 920.62,-249.39 920.62,-280.37 920.62,-280.37"/>
<polygon fill="black" stroke="black" points="917.13,-280.37 920.62,-290.37 924.13,-280.37 917.13,-280.37"/>
</g>
<!-- NgContextmenuComponent  -->
<g id="node9" class="node">
<title>NgContextmenuComponent </title>
<polygon fill="#fb8072" stroke="black" points="848.88,-326.39 671.12,-326.39 671.12,-290.39 848.88,-290.39 848.88,-326.39"/>
<text text-anchor="middle" x="760" y="-304.19" font-family="Times,serif" font-size="14.00">NgContextmenuComponent </text>
</g>
<!-- JNetworkBootstrap4ContextmenuModule&#45;&gt;NgContextmenuComponent  -->
<g id="edge8" class="edge">
<title>JNetworkBootstrap4ContextmenuModule&#45;&gt;NgContextmenuComponent </title>
<path fill="none" stroke="black" stroke-dasharray="5,2" d="M721.37,-261.5C721.37,-261.5 721.37,-280.38 721.37,-280.38"/>
<polygon fill="black" stroke="black" points="717.87,-280.38 721.37,-290.38 724.87,-280.38 717.87,-280.38"/>
</g>
<!-- NgContextmenuItemButtonComponent  -->
<g id="node10" class="node">
<title>NgContextmenuItemButtonComponent </title>
<polygon fill="#fb8072" stroke="black" points="653.65,-326.39 412.35,-326.39 412.35,-290.39 653.65,-290.39 653.65,-326.39"/>
<text text-anchor="middle" x="533" y="-304.19" font-family="Times,serif" font-size="14.00">NgContextmenuItemButtonComponent </text>
</g>
<!-- JNetworkBootstrap4ContextmenuModule&#45;&gt;NgContextmenuItemButtonComponent  -->
<g id="edge9" class="edge">
<title>JNetworkBootstrap4ContextmenuModule&#45;&gt;NgContextmenuItemButtonComponent </title>
<path fill="none" stroke="black" stroke-dasharray="5,2" d="M587.08,-261.5C587.08,-261.5 587.08,-280.38 587.08,-280.38"/>
<polygon fill="black" stroke="black" points="583.58,-280.38 587.08,-290.38 590.58,-280.38 583.58,-280.38"/>
</g>
<!-- NgContextmenuItemSplitterComponent  -->
<g id="node11" class="node">
<title>NgContextmenuItemSplitterComponent </title>
<polygon fill="#fb8072" stroke="black" points="394.25,-326.39 149.75,-326.39 149.75,-290.39 394.25,-290.39 394.25,-326.39"/>
<text text-anchor="middle" x="272" y="-304.19" font-family="Times,serif" font-size="14.00">NgContextmenuItemSplitterComponent </text>
</g>
<!-- JNetworkBootstrap4ContextmenuModule&#45;&gt;NgContextmenuItemSplitterComponent  -->
<g id="edge10" class="edge">
<title>JNetworkBootstrap4ContextmenuModule&#45;&gt;NgContextmenuItemSplitterComponent </title>
<path fill="none" stroke="black" stroke-dasharray="5,2" d="M520.34,-249.39C435.22,-249.39 338.15,-249.39 338.15,-249.39 338.15,-249.39 338.15,-280.37 338.15,-280.37"/>
<polygon fill="black" stroke="black" points="334.65,-280.37 338.15,-290.37 341.65,-280.37 334.65,-280.37"/>
</g>
<!-- {
 &#160;&#160;&#160;provide: NgContextmenuCommon, useExisting: forwardRef(() =&gt; NgContextmenuComponent),
} -->
<g id="node7" class="node">
<title>{
 &#160;&#160;&#160;provide: NgContextmenuCommon, useExisting: forwardRef(() =&gt; NgContextmenuComponent),
}</title>
<ellipse fill="#fdb462" stroke="black" cx="1402" cy="-90.1" rx="404.23" ry="41.09"/>
<text text-anchor="middle" x="1402" y="-102.7" font-family="Times,serif" font-size="14.00">{</text>
<text text-anchor="middle" x="1402" y="-85.9" font-family="Times,serif" font-size="14.00"> &#160;&#160;&#160;provide: NgContextmenuCommon, useExisting: forwardRef(() =&gt; NgContextmenuComponent),</text>
<text text-anchor="middle" x="1402" y="-69.1" font-family="Times,serif" font-size="14.00">}</text>
</g>
<!-- {
 &#160;&#160;&#160;provide: NgContextmenuCommon, useExisting: forwardRef(() =&gt; NgContextmenuComponent),
}&#45;&gt;NgContextmenuComponent -->
<g id="edge3" class="edge">
<title>{
 &#160;&#160;&#160;provide: NgContextmenuCommon, useExisting: forwardRef(() =&gt; NgContextmenuComponent),
}&#45;&gt;NgContextmenuComponent</title>
<path fill="none" stroke="black" d="M1243,-128.31C1243,-128.31 1243,-150.01 1243,-150.01"/>
<polygon fill="black" stroke="black" points="1239.5,-150.01 1243,-160.01 1246.5,-150.01 1239.5,-150.01"/>
</g>
</g>
</svg>
