<?xml version="1.0" encoding="UTF-8" standalone="no"?>
<!DOCTYPE svg PUBLIC "-//W3C//DTD SVG 1.1//EN"
 "http://www.w3.org/Graphics/SVG/1.1/DTD/svg11.dtd">
<!-- Generated by graphviz version 2.47.0 (20210316.0004)
 -->
<!-- Title: dependencies Pages: 1 -->
<svg width="1198pt" height="284pt"
 viewBox="0.00 0.00 1198.00 284.00" xmlns="http://www.w3.org/2000/svg" xmlns:xlink="http://www.w3.org/1999/xlink">
<g id="graph0" class="graph" transform="scale(1 1) rotate(0) translate(4 280)">
<title>dependencies</title>
<polygon fill="white" stroke="transparent" points="-4,4 -4,-280 1194,-280 1194,4 -4,4"/>
<text text-anchor="start" x="574.01" y="-42.4" font-family="Times-12" font-weight="bold" font-size="14.00">Legend</text>
<polygon fill="#ffffb3" stroke="transparent" points="361,-10 361,-30 381,-30 381,-10 361,-10"/>
<text text-anchor="start" x="384.63" y="-15.4" font-family="Times-12" font-size="14.00"> &#160;Declarations</text>
<polygon fill="#8dd3c7" stroke="transparent" points="474,-10 474,-30 494,-30 494,-10 474,-10"/>
<text text-anchor="start" x="497.73" y="-15.4" font-family="Times-12" font-size="14.00"> &#160;Module</text>
<polygon fill="#80b1d3" stroke="transparent" points="560,-10 560,-30 580,-30 580,-10 560,-10"/>
<text text-anchor="start" x="583.78" y="-15.4" font-family="Times-12" font-size="14.00"> &#160;Bootstrap</text>
<polygon fill="#fdb462" stroke="transparent" points="657,-10 657,-30 677,-30 677,-10 657,-10"/>
<text text-anchor="start" x="680.67" y="-15.4" font-family="Times-12" font-size="14.00"> &#160;Providers</text>
<polygon fill="#fb8072" stroke="transparent" points="753,-10 753,-30 773,-30 773,-10 753,-10"/>
<text text-anchor="start" x="776.73" y="-15.4" font-family="Times-12" font-size="14.00"> &#160;Exports</text>
<g id="clust1" class="cluster">
<title>cluster_JNetworkBootstrap4ContextmenuModule</title>
<polygon fill="none" stroke="black" stroke-dasharray="1,5" points="8,-70 8,-268 1182,-268 1182,-70 8,-70"/>
</g>
<g id="clust2" class="cluster">
<title>cluster_JNetworkBootstrap4ContextmenuModule_declarations</title>
<polygon fill="none" stroke="black" points="16,-78 16,-130 1174,-130 1174,-78 16,-78"/>
</g>
<g id="clust9" class="cluster">
<title>cluster_JNetworkBootstrap4ContextmenuModule_exports</title>
<polygon fill="none" stroke="black" points="132,-208 132,-260 1071,-260 1071,-208 132,-208"/>
</g>
<!-- NgContextmenuAnchorDirective -->
<g id="node1" class="node">
<title>NgContextmenuAnchorDirective</title>
<polygon fill="#ffffb3" stroke="black" points="1166.11,-122 963.89,-122 963.89,-86 1166.11,-86 1166.11,-122"/>
<text text-anchor="middle" x="1065" y="-99.8" font-family="Times,serif" font-size="14.00">NgContextmenuAnchorDirective</text>
</g>
<!-- JNetworkBootstrap4ContextmenuModule -->
<g id="node6" class="node">
<title>JNetworkBootstrap4ContextmenuModule</title>
<polygon fill="#8dd3c7" stroke="black" points="771.35,-187 768.35,-191 747.35,-191 744.35,-187 520.65,-187 520.65,-151 771.35,-151 771.35,-187"/>
<text text-anchor="middle" x="646" y="-164.8" font-family="Times,serif" font-size="14.00">JNetworkBootstrap4ContextmenuModule</text>
</g>
<!-- NgContextmenuAnchorDirective&#45;&gt;JNetworkBootstrap4ContextmenuModule -->
<g id="edge1" class="edge">
<title>NgContextmenuAnchorDirective&#45;&gt;JNetworkBootstrap4ContextmenuModule</title>
<path fill="none" stroke="black" d="M1013.38,-122.02C1013.38,-139.37 1013.38,-163 1013.38,-163 1013.38,-163 781.4,-163 781.4,-163"/>
<polygon fill="black" stroke="black" points="781.4,-159.5 771.4,-163 781.4,-166.5 781.4,-159.5"/>
</g>
<!-- NgContextmenuComponent -->
<g id="node2" class="node">
<title>NgContextmenuComponent</title>
<polygon fill="#ffffb3" stroke="black" points="945.88,-122 772.12,-122 772.12,-86 945.88,-86 945.88,-122"/>
<text text-anchor="middle" x="859" y="-99.8" font-family="Times,serif" font-size="14.00">NgContextmenuComponent</text>
</g>
<!-- NgContextmenuComponent&#45;&gt;JNetworkBootstrap4ContextmenuModule -->
<g id="edge2" class="edge">
<title>NgContextmenuComponent&#45;&gt;JNetworkBootstrap4ContextmenuModule</title>
<path fill="none" stroke="black" d="M771.91,-104C766.2,-104 762.67,-104 762.67,-104 762.67,-104 762.67,-140.89 762.67,-140.89"/>
<polygon fill="black" stroke="black" points="759.17,-140.89 762.67,-150.89 766.17,-140.89 759.17,-140.89"/>
</g>
<!-- NgContextmenuContainerDirective -->
<g id="node3" class="node">
<title>NgContextmenuContainerDirective</title>
<polygon fill="#ffffb3" stroke="black" points="753.83,-122 538.17,-122 538.17,-86 753.83,-86 753.83,-122"/>
<text text-anchor="middle" x="646" y="-99.8" font-family="Times,serif" font-size="14.00">NgContextmenuContainerDirective</text>
</g>
<!-- NgContextmenuContainerDirective&#45;&gt;JNetworkBootstrap4ContextmenuModule -->
<g id="edge3" class="edge">
<title>NgContextmenuContainerDirective&#45;&gt;JNetworkBootstrap4ContextmenuModule</title>
<path fill="none" stroke="black" d="M646,-122.11C646,-122.11 646,-140.99 646,-140.99"/>
<polygon fill="black" stroke="black" points="642.5,-140.99 646,-150.99 649.5,-140.99 642.5,-140.99"/>
</g>
<!-- NgContextmenuItemButtonComponent -->
<g id="node4" class="node">
<title>NgContextmenuItemButtonComponent</title>
<polygon fill="#ffffb3" stroke="black" points="519.65,-122 282.35,-122 282.35,-86 519.65,-86 519.65,-122"/>
<text text-anchor="middle" x="401" y="-99.8" font-family="Times,serif" font-size="14.00">NgContextmenuItemButtonComponent</text>
</g>
<!-- NgContextmenuItemButtonComponent&#45;&gt;JNetworkBootstrap4ContextmenuModule -->
<g id="edge4" class="edge">
<title>NgContextmenuItemButtonComponent&#45;&gt;JNetworkBootstrap4ContextmenuModule</title>
<path fill="none" stroke="black" d="M519.68,-104C525.71,-104 529.33,-104 529.33,-104 529.33,-104 529.33,-140.89 529.33,-140.89"/>
<polygon fill="black" stroke="black" points="525.83,-140.89 529.33,-150.89 532.83,-140.89 525.83,-140.89"/>
</g>
<!-- NgContextmenuItemSplitterComponent -->
<g id="node5" class="node">
<title>NgContextmenuItemSplitterComponent</title>
<polygon fill="#ffffb3" stroke="black" points="264.25,-122 23.75,-122 23.75,-86 264.25,-86 264.25,-122"/>
<text text-anchor="middle" x="144" y="-99.8" font-family="Times,serif" font-size="14.00">NgContextmenuItemSplitterComponent</text>
</g>
<!-- NgContextmenuItemSplitterComponent&#45;&gt;JNetworkBootstrap4ContextmenuModule -->
<g id="edge5" class="edge">
<title>NgContextmenuItemSplitterComponent&#45;&gt;JNetworkBootstrap4ContextmenuModule</title>
<path fill="none" stroke="black" d="M202.12,-122.02C202.12,-139.37 202.12,-163 202.12,-163 202.12,-163 510.58,-163 510.58,-163"/>
<polygon fill="black" stroke="black" points="510.58,-166.5 520.58,-163 510.58,-159.5 510.58,-166.5"/>
</g>
<!-- NgContextmenuAnchorDirective  -->
<g id="node7" class="node">
<title>NgContextmenuAnchorDirective </title>
<polygon fill="#fb8072" stroke="black" points="1063.11,-252 856.89,-252 856.89,-216 1063.11,-216 1063.11,-252"/>
<text text-anchor="middle" x="960" y="-229.8" font-family="Times,serif" font-size="14.00">NgContextmenuAnchorDirective </text>
</g>
<!-- JNetworkBootstrap4ContextmenuModule&#45;&gt;NgContextmenuAnchorDirective  -->
<g id="edge6" class="edge">
<title>JNetworkBootstrap4ContextmenuModule&#45;&gt;NgContextmenuAnchorDirective </title>
<path fill="none" stroke="black" stroke-dasharray="5,2" d="M771.48,-175C836.08,-175 901.44,-175 901.44,-175 901.44,-175 901.44,-205.98 901.44,-205.98"/>
<polygon fill="black" stroke="black" points="897.94,-205.98 901.44,-215.98 904.94,-205.98 897.94,-205.98"/>
</g>
<!-- NgContextmenuComponent  -->
<g id="node8" class="node">
<title>NgContextmenuComponent </title>
<polygon fill="#fb8072" stroke="black" points="838.88,-252 661.12,-252 661.12,-216 838.88,-216 838.88,-252"/>
<text text-anchor="middle" x="750" y="-229.8" font-family="Times,serif" font-size="14.00">NgContextmenuComponent </text>
</g>
<!-- JNetworkBootstrap4ContextmenuModule&#45;&gt;NgContextmenuComponent  -->
<g id="edge7" class="edge">
<title>JNetworkBootstrap4ContextmenuModule&#45;&gt;NgContextmenuComponent </title>
<path fill="none" stroke="black" stroke-dasharray="5,2" d="M716.37,-187.11C716.37,-187.11 716.37,-205.99 716.37,-205.99"/>
<polygon fill="black" stroke="black" points="712.87,-205.99 716.37,-215.99 719.87,-205.99 712.87,-205.99"/>
</g>
<!-- NgContextmenuItemButtonComponent  -->
<g id="node9" class="node">
<title>NgContextmenuItemButtonComponent </title>
<polygon fill="#fb8072" stroke="black" points="643.65,-252 402.35,-252 402.35,-216 643.65,-216 643.65,-252"/>
<text text-anchor="middle" x="523" y="-229.8" font-family="Times,serif" font-size="14.00">NgContextmenuItemButtonComponent </text>
</g>
<!-- JNetworkBootstrap4ContextmenuModule&#45;&gt;NgContextmenuItemButtonComponent  -->
<g id="edge8" class="edge">
<title>JNetworkBootstrap4ContextmenuModule&#45;&gt;NgContextmenuItemButtonComponent </title>
<path fill="none" stroke="black" stroke-dasharray="5,2" d="M582.08,-187.11C582.08,-187.11 582.08,-205.99 582.08,-205.99"/>
<polygon fill="black" stroke="black" points="578.58,-205.99 582.08,-215.99 585.58,-205.99 578.58,-205.99"/>
</g>
<!-- NgContextmenuItemSplitterComponent  -->
<g id="node10" class="node">
<title>NgContextmenuItemSplitterComponent </title>
<polygon fill="#fb8072" stroke="black" points="384.25,-252 139.75,-252 139.75,-216 384.25,-216 384.25,-252"/>
<text text-anchor="middle" x="262" y="-229.8" font-family="Times,serif" font-size="14.00">NgContextmenuItemSplitterComponent </text>
</g>
<!-- JNetworkBootstrap4ContextmenuModule&#45;&gt;NgContextmenuItemSplitterComponent  -->
<g id="edge9" class="edge">
<title>JNetworkBootstrap4ContextmenuModule&#45;&gt;NgContextmenuItemSplitterComponent </title>
<path fill="none" stroke="black" stroke-dasharray="5,2" d="M520.55,-175C433.52,-175 333.15,-175 333.15,-175 333.15,-175 333.15,-205.98 333.15,-205.98"/>
<polygon fill="black" stroke="black" points="329.65,-205.98 333.15,-215.98 336.65,-205.98 329.65,-205.98"/>
</g>
</g>
</svg>
