<?xml version="1.0" encoding="UTF-8" standalone="no"?>
<!DOCTYPE svg PUBLIC "-//W3C//DTD SVG 1.1//EN"
 "http://www.w3.org/Graphics/SVG/1.1/DTD/svg11.dtd">
<!-- Generated by graphviz version 2.47.3 (20210619.1520)
 -->
<!-- Title: dependencies Pages: 1 -->
<svg width="1198pt" height="247pt"
 viewBox="0.00 0.00 1198.00 246.80" xmlns="http://www.w3.org/2000/svg" xmlns:xlink="http://www.w3.org/1999/xlink">
<g id="graph0" class="graph" transform="scale(1 1) rotate(0) translate(4 242.8)">
<title>dependencies</title>
<polygon fill="white" stroke="transparent" points="-4,4 -4,-242.8 1194,-242.8 1194,4 -4,4"/>
<text text-anchor="middle" x="595" y="-8.2" font-family="sans-serif" font-size="14.00">dependencies</text>
<g id="clust1" class="cluster">
<title>cluster_JNetworkBootstrap4ContextmenuModule</title>
<polygon fill="none" stroke="black" stroke-dasharray="1,5" points="8,-32.8 8,-230.8 1182,-230.8 1182,-32.8 8,-32.8"/>
</g>
<g id="clust2" class="cluster">
<title>cluster_JNetworkBootstrap4ContextmenuModule_declarations</title>
<polygon fill="none" stroke="black" points="16,-40.8 16,-92.8 1174,-92.8 1174,-40.8 16,-40.8"/>
</g>
<g id="clust9" class="cluster">
<title>cluster_JNetworkBootstrap4ContextmenuModule_exports</title>
<polygon fill="none" stroke="black" points="132,-170.8 132,-222.8 1071,-222.8 1071,-170.8 132,-170.8"/>
</g>
<!-- NgContextmenuAnchorDirective -->
<g id="node1" class="node">
<title>NgContextmenuAnchorDirective</title>
<polygon fill="#ffffb3" stroke="black" points="1166.11,-84.8 963.89,-84.8 963.89,-48.8 1166.11,-48.8 1166.11,-84.8"/>
<text text-anchor="middle" x="1065" y="-62.6" font-family="Times,serif" font-size="14.00">NgContextmenuAnchorDirective</text>
</g>
<!-- JNetworkBootstrap4ContextmenuModule -->
<g id="node6" class="node">
<title>JNetworkBootstrap4ContextmenuModule</title>
<polygon fill="#8dd3c7" stroke="black" points="771.35,-149.8 768.35,-153.8 747.35,-153.8 744.35,-149.8 520.65,-149.8 520.65,-113.8 771.35,-113.8 771.35,-149.8"/>
<text text-anchor="middle" x="646" y="-127.6" font-family="Times,serif" font-size="14.00">JNetworkBootstrap4ContextmenuModule</text>
</g>
<!-- NgContextmenuAnchorDirective&#45;&gt;JNetworkBootstrap4ContextmenuModule -->
<g id="edge1" class="edge">
<title>NgContextmenuAnchorDirective&#45;&gt;JNetworkBootstrap4ContextmenuModule</title>
<path fill="none" stroke="black" d="M1013.38,-84.82C1013.38,-102.17 1013.38,-125.8 1013.38,-125.8 1013.38,-125.8 781.4,-125.8 781.4,-125.8"/>
<polygon fill="black" stroke="black" points="781.4,-122.3 771.4,-125.8 781.4,-129.3 781.4,-122.3"/>
</g>
<!-- NgContextmenuComponent -->
<g id="node2" class="node">
<title>NgContextmenuComponent</title>
<polygon fill="#ffffb3" stroke="black" points="945.88,-84.8 772.12,-84.8 772.12,-48.8 945.88,-48.8 945.88,-84.8"/>
<text text-anchor="middle" x="859" y="-62.6" font-family="Times,serif" font-size="14.00">NgContextmenuComponent</text>
</g>
<!-- NgContextmenuComponent&#45;&gt;JNetworkBootstrap4ContextmenuModule -->
<g id="edge2" class="edge">
<title>NgContextmenuComponent&#45;&gt;JNetworkBootstrap4ContextmenuModule</title>
<path fill="none" stroke="black" d="M771.91,-66.8C766.2,-66.8 762.67,-66.8 762.67,-66.8 762.67,-66.8 762.67,-103.69 762.67,-103.69"/>
<polygon fill="black" stroke="black" points="759.17,-103.69 762.67,-113.69 766.17,-103.69 759.17,-103.69"/>
</g>
<!-- NgContextmenuContainerDirective -->
<g id="node3" class="node">
<title>NgContextmenuContainerDirective</title>
<polygon fill="#ffffb3" stroke="black" points="753.83,-84.8 538.17,-84.8 538.17,-48.8 753.83,-48.8 753.83,-84.8"/>
<text text-anchor="middle" x="646" y="-62.6" font-family="Times,serif" font-size="14.00">NgContextmenuContainerDirective</text>
</g>
<!-- NgContextmenuContainerDirective&#45;&gt;JNetworkBootstrap4ContextmenuModule -->
<g id="edge3" class="edge">
<title>NgContextmenuContainerDirective&#45;&gt;JNetworkBootstrap4ContextmenuModule</title>
<path fill="none" stroke="black" d="M646,-84.91C646,-84.91 646,-103.79 646,-103.79"/>
<polygon fill="black" stroke="black" points="642.5,-103.79 646,-113.79 649.5,-103.79 642.5,-103.79"/>
</g>
<!-- NgContextmenuItemButtonComponent -->
<g id="node4" class="node">
<title>NgContextmenuItemButtonComponent</title>
<polygon fill="#ffffb3" stroke="black" points="519.65,-84.8 282.35,-84.8 282.35,-48.8 519.65,-48.8 519.65,-84.8"/>
<text text-anchor="middle" x="401" y="-62.6" font-family="Times,serif" font-size="14.00">NgContextmenuItemButtonComponent</text>
</g>
<!-- NgContextmenuItemButtonComponent&#45;&gt;JNetworkBootstrap4ContextmenuModule -->
<g id="edge4" class="edge">
<title>NgContextmenuItemButtonComponent&#45;&gt;JNetworkBootstrap4ContextmenuModule</title>
<path fill="none" stroke="black" d="M519.68,-66.8C525.71,-66.8 529.33,-66.8 529.33,-66.8 529.33,-66.8 529.33,-103.69 529.33,-103.69"/>
<polygon fill="black" stroke="black" points="525.83,-103.69 529.33,-113.69 532.83,-103.69 525.83,-103.69"/>
</g>
<!-- NgContextmenuItemSplitterComponent -->
<g id="node5" class="node">
<title>NgContextmenuItemSplitterComponent</title>
<polygon fill="#ffffb3" stroke="black" points="264.25,-84.8 23.75,-84.8 23.75,-48.8 264.25,-48.8 264.25,-84.8"/>
<text text-anchor="middle" x="144" y="-62.6" font-family="Times,serif" font-size="14.00">NgContextmenuItemSplitterComponent</text>
</g>
<!-- NgContextmenuItemSplitterComponent&#45;&gt;JNetworkBootstrap4ContextmenuModule -->
<g id="edge5" class="edge">
<title>NgContextmenuItemSplitterComponent&#45;&gt;JNetworkBootstrap4ContextmenuModule</title>
<path fill="none" stroke="black" d="M202.12,-84.82C202.12,-102.17 202.12,-125.8 202.12,-125.8 202.12,-125.8 510.58,-125.8 510.58,-125.8"/>
<polygon fill="black" stroke="black" points="510.58,-129.3 520.58,-125.8 510.58,-122.3 510.58,-129.3"/>
</g>
<!-- NgContextmenuAnchorDirective  -->
<g id="node7" class="node">
<title>NgContextmenuAnchorDirective </title>
<polygon fill="#fb8072" stroke="black" points="1063.11,-214.8 856.89,-214.8 856.89,-178.8 1063.11,-178.8 1063.11,-214.8"/>
<text text-anchor="middle" x="960" y="-192.6" font-family="Times,serif" font-size="14.00">NgContextmenuAnchorDirective </text>
</g>
<!-- JNetworkBootstrap4ContextmenuModule&#45;&gt;NgContextmenuAnchorDirective  -->
<g id="edge6" class="edge">
<title>JNetworkBootstrap4ContextmenuModule&#45;&gt;NgContextmenuAnchorDirective </title>
<path fill="none" stroke="black" stroke-dasharray="5,2" d="M771.48,-137.8C836.08,-137.8 901.44,-137.8 901.44,-137.8 901.44,-137.8 901.44,-168.78 901.44,-168.78"/>
<polygon fill="black" stroke="black" points="897.94,-168.78 901.44,-178.78 904.94,-168.78 897.94,-168.78"/>
</g>
<!-- NgContextmenuComponent  -->
<g id="node8" class="node">
<title>NgContextmenuComponent </title>
<polygon fill="#fb8072" stroke="black" points="838.88,-214.8 661.12,-214.8 661.12,-178.8 838.88,-178.8 838.88,-214.8"/>
<text text-anchor="middle" x="750" y="-192.6" font-family="Times,serif" font-size="14.00">NgContextmenuComponent </text>
</g>
<!-- JNetworkBootstrap4ContextmenuModule&#45;&gt;NgContextmenuComponent  -->
<g id="edge7" class="edge">
<title>JNetworkBootstrap4ContextmenuModule&#45;&gt;NgContextmenuComponent </title>
<path fill="none" stroke="black" stroke-dasharray="5,2" d="M716.37,-149.91C716.37,-149.91 716.37,-168.79 716.37,-168.79"/>
<polygon fill="black" stroke="black" points="712.87,-168.79 716.37,-178.79 719.87,-168.79 712.87,-168.79"/>
</g>
<!-- NgContextmenuItemButtonComponent  -->
<g id="node9" class="node">
<title>NgContextmenuItemButtonComponent </title>
<polygon fill="#fb8072" stroke="black" points="643.65,-214.8 402.35,-214.8 402.35,-178.8 643.65,-178.8 643.65,-214.8"/>
<text text-anchor="middle" x="523" y="-192.6" font-family="Times,serif" font-size="14.00">NgContextmenuItemButtonComponent </text>
</g>
<!-- JNetworkBootstrap4ContextmenuModule&#45;&gt;NgContextmenuItemButtonComponent  -->
<g id="edge8" class="edge">
<title>JNetworkBootstrap4ContextmenuModule&#45;&gt;NgContextmenuItemButtonComponent </title>
<path fill="none" stroke="black" stroke-dasharray="5,2" d="M582.08,-149.91C582.08,-149.91 582.08,-168.79 582.08,-168.79"/>
<polygon fill="black" stroke="black" points="578.58,-168.79 582.08,-178.79 585.58,-168.79 578.58,-168.79"/>
</g>
<!-- NgContextmenuItemSplitterComponent  -->
<g id="node10" class="node">
<title>NgContextmenuItemSplitterComponent </title>
<polygon fill="#fb8072" stroke="black" points="384.25,-214.8 139.75,-214.8 139.75,-178.8 384.25,-178.8 384.25,-214.8"/>
<text text-anchor="middle" x="262" y="-192.6" font-family="Times,serif" font-size="14.00">NgContextmenuItemSplitterComponent </text>
</g>
<!-- JNetworkBootstrap4ContextmenuModule&#45;&gt;NgContextmenuItemSplitterComponent  -->
<g id="edge9" class="edge">
<title>JNetworkBootstrap4ContextmenuModule&#45;&gt;NgContextmenuItemSplitterComponent </title>
<path fill="none" stroke="black" stroke-dasharray="5,2" d="M520.55,-137.8C433.52,-137.8 333.15,-137.8 333.15,-137.8 333.15,-137.8 333.15,-168.78 333.15,-168.78"/>
<polygon fill="black" stroke="black" points="329.65,-168.78 333.15,-178.78 336.65,-168.78 329.65,-168.78"/>
</g>
</g>
</svg>
