<?xml version="1.0" encoding="UTF-8" standalone="no"?>
<!DOCTYPE svg PUBLIC "-//W3C//DTD SVG 1.1//EN"
 "http://www.w3.org/Graphics/SVG/1.1/DTD/svg11.dtd">
<!-- Generated by graphviz version 2.47.3 (20210619.1520)
 -->
<!-- Title: dependencies Pages: 1 -->
<svg width="3294pt" height="358pt"
 viewBox="0.00 0.00 3294.00 358.39" xmlns="http://www.w3.org/2000/svg" xmlns:xlink="http://www.w3.org/1999/xlink">
<g id="graph0" class="graph" transform="scale(1 1) rotate(0) translate(4 354.39)">
<title>dependencies</title>
<polygon fill="white" stroke="transparent" points="-4,4 -4,-354.39 3290,-354.39 3290,4 -4,4"/>
<text text-anchor="middle" x="1643" y="-8.2" font-family="sans-serif" font-size="14.00">dependencies</text>
<g id="clust1" class="cluster">
<title>cluster_JNetworkBootstrap4ContextmenuModule</title>
<polygon fill="none" stroke="black" stroke-dasharray="1,5" points="8,-32.8 8,-342.39 3278,-342.39 3278,-32.8 8,-32.8"/>
</g>
<g id="clust3" class="cluster">
<title>cluster_JNetworkBootstrap4ContextmenuModule_NgContextmenuAnchorDirective_providers</title>
<polygon fill="none" stroke="black" points="2346,-40.8 2346,-204.39 3270,-204.39 3270,-40.8 2346,-40.8"/>
</g>
<g id="clust4" class="cluster">
<title>cluster_JNetworkBootstrap4ContextmenuModule_NgContextmenuComponent_providers</title>
<polygon fill="none" stroke="black" points="1514,-40.8 1514,-204.39 2338,-204.39 2338,-40.8 1514,-40.8"/>
</g>
<g id="clust5" class="cluster">
<title>cluster_JNetworkBootstrap4ContextmenuModule_NgContextmenuContainerDirective_providers</title>
<polygon fill="none" stroke="black" points="536,-40.8 536,-204.39 1506,-204.39 1506,-40.8 536,-40.8"/>
</g>
<g id="clust2" class="cluster">
<title>cluster_JNetworkBootstrap4ContextmenuModule_declarations</title>
<polygon fill="none" stroke="black" points="16,-152.39 16,-204.39 528,-204.39 528,-152.39 16,-152.39"/>
</g>
<g id="clust9" class="cluster">
<title>cluster_JNetworkBootstrap4ContextmenuModule_exports</title>
<polygon fill="none" stroke="black" points="517,-282.39 517,-334.39 1456,-334.39 1456,-282.39 517,-282.39"/>
</g>
<!-- NgContextmenuAnchorDirective -->
<g id="node1" class="node">
<title>NgContextmenuAnchorDirective</title>
<polygon fill="#ffffb3" stroke="black" points="2732.11,-196.39 2529.89,-196.39 2529.89,-160.39 2732.11,-160.39 2732.11,-196.39"/>
<text text-anchor="middle" x="2631" y="-174.19" font-family="Times,serif" font-size="14.00">NgContextmenuAnchorDirective</text>
</g>
<!-- JNetworkBootstrap4ContextmenuModule -->
<g id="node6" class="node">
<title>JNetworkBootstrap4ContextmenuModule</title>
<polygon fill="#8dd3c7" stroke="black" points="1146.35,-261.39 1143.35,-265.39 1122.35,-265.39 1119.35,-261.39 895.65,-261.39 895.65,-225.39 1146.35,-225.39 1146.35,-261.39"/>
<text text-anchor="middle" x="1021" y="-239.19" font-family="Times,serif" font-size="14.00">JNetworkBootstrap4ContextmenuModule</text>
</g>
<!-- NgContextmenuAnchorDirective&#45;&gt;JNetworkBootstrap4ContextmenuModule -->
<g id="edge1" class="edge">
<title>NgContextmenuAnchorDirective&#45;&gt;JNetworkBootstrap4ContextmenuModule</title>
<path fill="none" stroke="black" d="M2631,-196.41C2631,-213.76 2631,-237.39 2631,-237.39 2631,-237.39 1156.66,-237.39 1156.66,-237.39"/>
<polygon fill="black" stroke="black" points="1156.66,-233.89 1146.66,-237.39 1156.66,-240.89 1156.66,-233.89"/>
</g>
<!-- NgContextmenuComponent -->
<g id="node2" class="node">
<title>NgContextmenuComponent</title>
<polygon fill="#ffffb3" stroke="black" points="1853.88,-196.39 1680.12,-196.39 1680.12,-160.39 1853.88,-160.39 1853.88,-196.39"/>
<text text-anchor="middle" x="1767" y="-174.19" font-family="Times,serif" font-size="14.00">NgContextmenuComponent</text>
</g>
<!-- NgContextmenuComponent&#45;&gt;JNetworkBootstrap4ContextmenuModule -->
<g id="edge3" class="edge">
<title>NgContextmenuComponent&#45;&gt;JNetworkBootstrap4ContextmenuModule</title>
<path fill="none" stroke="black" d="M1679.83,-178.39C1507.04,-178.39 1137.67,-178.39 1137.67,-178.39 1137.67,-178.39 1137.67,-215.28 1137.67,-215.28"/>
<polygon fill="black" stroke="black" points="1134.17,-215.28 1137.67,-225.28 1141.17,-215.28 1134.17,-215.28"/>
</g>
<!-- NgContextmenuContainerDirective -->
<g id="node3" class="node">
<title>NgContextmenuContainerDirective</title>
<polygon fill="#ffffb3" stroke="black" points="1128.83,-196.39 913.17,-196.39 913.17,-160.39 1128.83,-160.39 1128.83,-196.39"/>
<text text-anchor="middle" x="1021" y="-174.19" font-family="Times,serif" font-size="14.00">NgContextmenuContainerDirective</text>
</g>
<!-- NgContextmenuContainerDirective&#45;&gt;JNetworkBootstrap4ContextmenuModule -->
<g id="edge5" class="edge">
<title>NgContextmenuContainerDirective&#45;&gt;JNetworkBootstrap4ContextmenuModule</title>
<path fill="none" stroke="black" d="M1021,-196.5C1021,-196.5 1021,-215.38 1021,-215.38"/>
<polygon fill="black" stroke="black" points="1017.5,-215.38 1021,-225.38 1024.5,-215.38 1017.5,-215.38"/>
</g>
<!-- NgContextmenuItemButtonComponent -->
<g id="node4" class="node">
<title>NgContextmenuItemButtonComponent</title>
<polygon fill="#ffffb3" stroke="black" points="519.65,-196.39 282.35,-196.39 282.35,-160.39 519.65,-160.39 519.65,-196.39"/>
<text text-anchor="middle" x="401" y="-174.19" font-family="Times,serif" font-size="14.00">NgContextmenuItemButtonComponent</text>
</g>
<!-- NgContextmenuItemButtonComponent&#45;&gt;JNetworkBootstrap4ContextmenuModule -->
<g id="edge7" class="edge">
<title>NgContextmenuItemButtonComponent&#45;&gt;JNetworkBootstrap4ContextmenuModule</title>
<path fill="none" stroke="black" d="M519.96,-178.39C668.79,-178.39 904.33,-178.39 904.33,-178.39 904.33,-178.39 904.33,-215.28 904.33,-215.28"/>
<polygon fill="black" stroke="black" points="900.83,-215.28 904.33,-225.28 907.83,-215.28 900.83,-215.28"/>
</g>
<!-- NgContextmenuItemSplitterComponent -->
<g id="node5" class="node">
<title>NgContextmenuItemSplitterComponent</title>
<polygon fill="#ffffb3" stroke="black" points="264.25,-196.39 23.75,-196.39 23.75,-160.39 264.25,-160.39 264.25,-196.39"/>
<text text-anchor="middle" x="144" y="-174.19" font-family="Times,serif" font-size="14.00">NgContextmenuItemSplitterComponent</text>
</g>
<!-- NgContextmenuItemSplitterComponent&#45;&gt;JNetworkBootstrap4ContextmenuModule -->
<g id="edge8" class="edge">
<title>NgContextmenuItemSplitterComponent&#45;&gt;JNetworkBootstrap4ContextmenuModule</title>
<path fill="none" stroke="black" d="M144,-196.41C144,-213.76 144,-237.39 144,-237.39 144,-237.39 885.35,-237.39 885.35,-237.39"/>
<polygon fill="black" stroke="black" points="885.35,-240.89 895.35,-237.39 885.35,-233.89 885.35,-240.89"/>
</g>
<!-- NgContextmenuAnchorDirective  -->
<g id="node10" class="node">
<title>NgContextmenuAnchorDirective </title>
<polygon fill="#fb8072" stroke="black" points="1448.11,-326.39 1241.89,-326.39 1241.89,-290.39 1448.11,-290.39 1448.11,-326.39"/>
<text text-anchor="middle" x="1345" y="-304.19" font-family="Times,serif" font-size="14.00">NgContextmenuAnchorDirective </text>
</g>
<!-- JNetworkBootstrap4ContextmenuModule&#45;&gt;NgContextmenuAnchorDirective  -->
<g id="edge9" class="edge">
<title>JNetworkBootstrap4ContextmenuModule&#45;&gt;NgContextmenuAnchorDirective </title>
<path fill="none" stroke="black" stroke-dasharray="5,2" d="M1146.73,-249.39C1237.8,-249.39 1345,-249.39 1345,-249.39 1345,-249.39 1345,-280.37 1345,-280.37"/>
<polygon fill="black" stroke="black" points="1341.5,-280.37 1345,-290.37 1348.5,-280.37 1341.5,-280.37"/>
</g>
<!-- NgContextmenuComponent  -->
<g id="node11" class="node">
<title>NgContextmenuComponent </title>
<polygon fill="#fb8072" stroke="black" points="1223.88,-326.39 1046.12,-326.39 1046.12,-290.39 1223.88,-290.39 1223.88,-326.39"/>
<text text-anchor="middle" x="1135" y="-304.19" font-family="Times,serif" font-size="14.00">NgContextmenuComponent </text>
</g>
<!-- JNetworkBootstrap4ContextmenuModule&#45;&gt;NgContextmenuComponent  -->
<g id="edge10" class="edge">
<title>JNetworkBootstrap4ContextmenuModule&#45;&gt;NgContextmenuComponent </title>
<path fill="none" stroke="black" stroke-dasharray="5,2" d="M1096.37,-261.5C1096.37,-261.5 1096.37,-280.38 1096.37,-280.38"/>
<polygon fill="black" stroke="black" points="1092.87,-280.38 1096.37,-290.38 1099.87,-280.38 1092.87,-280.38"/>
</g>
<!-- NgContextmenuItemButtonComponent  -->
<g id="node12" class="node">
<title>NgContextmenuItemButtonComponent </title>
<polygon fill="#fb8072" stroke="black" points="1028.65,-326.39 787.35,-326.39 787.35,-290.39 1028.65,-290.39 1028.65,-326.39"/>
<text text-anchor="middle" x="908" y="-304.19" font-family="Times,serif" font-size="14.00">NgContextmenuItemButtonComponent </text>
</g>
<!-- JNetworkBootstrap4ContextmenuModule&#45;&gt;NgContextmenuItemButtonComponent  -->
<g id="edge11" class="edge">
<title>JNetworkBootstrap4ContextmenuModule&#45;&gt;NgContextmenuItemButtonComponent </title>
<path fill="none" stroke="black" stroke-dasharray="5,2" d="M962.08,-261.5C962.08,-261.5 962.08,-280.38 962.08,-280.38"/>
<polygon fill="black" stroke="black" points="958.58,-280.38 962.08,-290.38 965.58,-280.38 958.58,-280.38"/>
</g>
<!-- NgContextmenuItemSplitterComponent  -->
<g id="node13" class="node">
<title>NgContextmenuItemSplitterComponent </title>
<polygon fill="#fb8072" stroke="black" points="769.25,-326.39 524.75,-326.39 524.75,-290.39 769.25,-290.39 769.25,-326.39"/>
<text text-anchor="middle" x="647" y="-304.19" font-family="Times,serif" font-size="14.00">NgContextmenuItemSplitterComponent </text>
</g>
<!-- JNetworkBootstrap4ContextmenuModule&#45;&gt;NgContextmenuItemSplitterComponent  -->
<g id="edge12" class="edge">
<title>JNetworkBootstrap4ContextmenuModule&#45;&gt;NgContextmenuItemSplitterComponent </title>
<path fill="none" stroke="black" stroke-dasharray="5,2" d="M895.5,-249.39C790.02,-249.39 656.33,-249.39 656.33,-249.39 656.33,-249.39 656.33,-280.37 656.33,-280.37"/>
<polygon fill="black" stroke="black" points="652.83,-280.37 656.33,-290.37 659.83,-280.37 652.83,-280.37"/>
</g>
<!-- {
 &#160;&#160;&#160;provide: NgContextmenuAnchorCommon, useExisting: forwardRef(() =&gt; NgContextmenuAnchorDirective),
} -->
<g id="node7" class="node">
<title>{
 &#160;&#160;&#160;provide: NgContextmenuAnchorCommon, useExisting: forwardRef(() =&gt; NgContextmenuAnchorDirective),
}</title>
<ellipse fill="#fdb462" stroke="black" cx="2808" cy="-90.1" rx="454.24" ry="41.09"/>
<text text-anchor="middle" x="2808" y="-102.7" font-family="Times,serif" font-size="14.00">{</text>
<text text-anchor="middle" x="2808" y="-85.9" font-family="Times,serif" font-size="14.00"> &#160;&#160;&#160;provide: NgContextmenuAnchorCommon, useExisting: forwardRef(() =&gt; NgContextmenuAnchorDirective),</text>
<text text-anchor="middle" x="2808" y="-69.1" font-family="Times,serif" font-size="14.00">}</text>
</g>
<!-- {
 &#160;&#160;&#160;provide: NgContextmenuAnchorCommon, useExisting: forwardRef(() =&gt; NgContextmenuAnchorDirective),
}&#45;&gt;NgContextmenuAnchorDirective -->
<g id="edge2" class="edge">
<title>{
 &#160;&#160;&#160;provide: NgContextmenuAnchorCommon, useExisting: forwardRef(() =&gt; NgContextmenuAnchorDirective),
}&#45;&gt;NgContextmenuAnchorDirective</title>
<path fill="none" stroke="black" d="M2631,-128.31C2631,-128.31 2631,-150.01 2631,-150.01"/>
<polygon fill="black" stroke="black" points="2627.5,-150.01 2631,-160.01 2634.5,-150.01 2627.5,-150.01"/>
</g>
<!-- {
 &#160;&#160;&#160;provide: NgContextmenuCommon, useExisting: forwardRef(() =&gt; NgContextmenuComponent),
} -->
<g id="node8" class="node">
<title>{
 &#160;&#160;&#160;provide: NgContextmenuCommon, useExisting: forwardRef(() =&gt; NgContextmenuComponent),
}</title>
<ellipse fill="#fdb462" stroke="black" cx="1926" cy="-90.1" rx="404.23" ry="41.09"/>
<text text-anchor="middle" x="1926" y="-102.7" font-family="Times,serif" font-size="14.00">{</text>
<text text-anchor="middle" x="1926" y="-85.9" font-family="Times,serif" font-size="14.00"> &#160;&#160;&#160;provide: NgContextmenuCommon, useExisting: forwardRef(() =&gt; NgContextmenuComponent),</text>
<text text-anchor="middle" x="1926" y="-69.1" font-family="Times,serif" font-size="14.00">}</text>
</g>
<!-- {
 &#160;&#160;&#160;provide: NgContextmenuCommon, useExisting: forwardRef(() =&gt; NgContextmenuComponent),
}&#45;&gt;NgContextmenuComponent -->
<g id="edge4" class="edge">
<title>{
 &#160;&#160;&#160;provide: NgContextmenuCommon, useExisting: forwardRef(() =&gt; NgContextmenuComponent),
}&#45;&gt;NgContextmenuComponent</title>
<path fill="none" stroke="black" d="M1767,-128.31C1767,-128.31 1767,-150.01 1767,-150.01"/>
<polygon fill="black" stroke="black" points="1763.5,-150.01 1767,-160.01 1770.5,-150.01 1763.5,-150.01"/>
</g>
<!-- {
 &#160;&#160;&#160;provide: NgContextMenuContrainerCommon, useExisting: forwardRef(() =&gt; NgContextmenuContainerDirective),
} -->
<g id="node9" class="node">
<title>{
 &#160;&#160;&#160;provide: NgContextMenuContrainerCommon, useExisting: forwardRef(() =&gt; NgContextmenuContainerDirective),
}</title>
<ellipse fill="#fdb462" stroke="black" cx="1021" cy="-90.1" rx="477.43" ry="41.09"/>
<text text-anchor="middle" x="1021" y="-102.7" font-family="Times,serif" font-size="14.00">{</text>
<text text-anchor="middle" x="1021" y="-85.9" font-family="Times,serif" font-size="14.00"> &#160;&#160;&#160;provide: NgContextMenuContrainerCommon, useExisting: forwardRef(() =&gt; NgContextmenuContainerDirective),</text>
<text text-anchor="middle" x="1021" y="-69.1" font-family="Times,serif" font-size="14.00">}</text>
</g>
<!-- {
 &#160;&#160;&#160;provide: NgContextMenuContrainerCommon, useExisting: forwardRef(() =&gt; NgContextmenuContainerDirective),
}&#45;&gt;NgContextmenuContainerDirective -->
<g id="edge6" class="edge">
<title>{
 &#160;&#160;&#160;provide: NgContextMenuContrainerCommon, useExisting: forwardRef(() =&gt; NgContextmenuContainerDirective),
}&#45;&gt;NgContextmenuContainerDirective</title>
<path fill="none" stroke="black" d="M1021,-131.4C1021,-131.4 1021,-150.06 1021,-150.06"/>
<polygon fill="black" stroke="black" points="1017.5,-150.06 1021,-160.06 1024.5,-150.06 1017.5,-150.06"/>
</g>
</g>
</svg>
