<?xml version="1.0" encoding="UTF-8" standalone="no"?>
<!DOCTYPE svg PUBLIC "-//W3C//DTD SVG 1.1//EN"
 "http://www.w3.org/Graphics/SVG/1.1/DTD/svg11.dtd">
<!-- Generated by graphviz version 2.47.3 (20210619.1520)
 -->
<!-- Title: dependencies Pages: 1 -->
<svg width="1370pt" height="174pt"
 viewBox="0.00 0.00 1370.00 173.80" xmlns="http://www.w3.org/2000/svg" xmlns:xlink="http://www.w3.org/1999/xlink">
<g id="graph0" class="graph" transform="scale(1 1) rotate(0) translate(4 169.8)">
<title>dependencies</title>
<polygon fill="white" stroke="transparent" points="-4,4 -4,-169.8 1366,-169.8 1366,4 -4,4"/>
<text text-anchor="middle" x="681" y="-8.2" font-family="sans-serif" font-size="14.00">dependencies</text>
<g id="clust1" class="cluster">
<title>cluster_DialogModule</title>
<polygon fill="none" stroke="black" stroke-dasharray="1,5" points="8,-32.8 8,-157.8 1354,-157.8 1354,-32.8 8,-32.8"/>
</g>
<g id="clust4" class="cluster">
<title>cluster_DialogModule_imports</title>
<polygon fill="none" stroke="black" points="194,-40.8 194,-92.8 1346,-92.8 1346,-40.8 194,-40.8"/>
</g>
<g id="clust2" class="cluster">
<title>cluster_DialogModule_declarations</title>
<polygon fill="none" stroke="black" points="16,-40.8 16,-92.8 186,-92.8 186,-40.8 16,-40.8"/>
</g>
<!-- DemoDialogComponent -->
<g id="node1" class="node">
<title>DemoDialogComponent</title>
<polygon fill="#ffffb3" stroke="black" points="177.65,-84.8 24.35,-84.8 24.35,-48.8 177.65,-48.8 177.65,-84.8"/>
<text text-anchor="middle" x="101" y="-62.6" font-family="Times,serif" font-size="14.00">DemoDialogComponent</text>
</g>
<!-- DialogModule -->
<g id="node2" class="node">
<title>DialogModule</title>
<polygon fill="#8dd3c7" stroke="black" points="887.65,-149.8 884.65,-153.8 863.65,-153.8 860.65,-149.8 790.35,-149.8 790.35,-113.8 887.65,-113.8 887.65,-149.8"/>
<text text-anchor="middle" x="839" y="-127.6" font-family="Times,serif" font-size="14.00">DialogModule</text>
</g>
<!-- DemoDialogComponent&#45;&gt;DialogModule -->
<g id="edge1" class="edge">
<title>DemoDialogComponent&#45;&gt;DialogModule</title>
<path fill="none" stroke="black" d="M101,-85.09C101,-107.01 101,-140.8 101,-140.8 101,-140.8 780.29,-140.8 780.29,-140.8"/>
<polygon fill="black" stroke="black" points="780.29,-144.3 790.29,-140.8 780.29,-137.3 780.29,-144.3"/>
</g>
<!-- DialogRoutingModule -->
<g id="node3" class="node">
<title>DialogRoutingModule</title>
<polygon fill="#8dd3c7" stroke="black" points="1338.27,-84.8 1335.27,-88.8 1314.27,-88.8 1311.27,-84.8 1195.73,-84.8 1195.73,-48.8 1338.27,-48.8 1338.27,-84.8"/>
<text text-anchor="middle" x="1267" y="-62.6" font-family="Times,serif" font-size="14.00">DialogRoutingModule</text>
</g>
<!-- DialogRoutingModule&#45;&gt;DialogModule -->
<g id="edge2" class="edge">
<title>DialogRoutingModule&#45;&gt;DialogModule</title>
<path fill="none" stroke="black" d="M1267,-85.08C1267,-106.12 1267,-137.8 1267,-137.8 1267,-137.8 897.68,-137.8 897.68,-137.8"/>
<polygon fill="black" stroke="black" points="897.68,-134.3 887.68,-137.8 897.68,-141.3 897.68,-134.3"/>
</g>
<!-- JNetworkBootstrap4ButtonModule -->
<g id="node4" class="node">
<title>JNetworkBootstrap4ButtonModule</title>
<polygon fill="#8dd3c7" stroke="black" points="1177.53,-84.8 1174.53,-88.8 1153.53,-88.8 1150.53,-84.8 964.47,-84.8 964.47,-48.8 1177.53,-48.8 1177.53,-84.8"/>
<text text-anchor="middle" x="1071" y="-62.6" font-family="Times,serif" font-size="14.00">JNetworkBootstrap4ButtonModule</text>
</g>
<!-- JNetworkBootstrap4ButtonModule&#45;&gt;DialogModule -->
<g id="edge3" class="edge">
<title>JNetworkBootstrap4ButtonModule&#45;&gt;DialogModule</title>
<path fill="none" stroke="black" d="M1071,-84.82C1071,-102.17 1071,-125.8 1071,-125.8 1071,-125.8 897.92,-125.8 897.92,-125.8"/>
<polygon fill="black" stroke="black" points="897.92,-122.3 887.92,-125.8 897.92,-129.3 897.92,-122.3"/>
</g>
<!-- JNetworkBootstrap4DialogModule -->
<g id="node5" class="node">
<title>JNetworkBootstrap4DialogModule</title>
<polygon fill="#8dd3c7" stroke="black" points="945.51,-84.8 942.51,-88.8 921.51,-88.8 918.51,-84.8 732.49,-84.8 732.49,-48.8 945.51,-48.8 945.51,-84.8"/>
<text text-anchor="middle" x="839" y="-62.6" font-family="Times,serif" font-size="14.00">JNetworkBootstrap4DialogModule</text>
</g>
<!-- JNetworkBootstrap4DialogModule&#45;&gt;DialogModule -->
<g id="edge4" class="edge">
<title>JNetworkBootstrap4DialogModule&#45;&gt;DialogModule</title>
<path fill="none" stroke="black" d="M822.72,-84.91C822.72,-84.91 822.72,-103.79 822.72,-103.79"/>
<polygon fill="black" stroke="black" points="819.22,-103.79 822.72,-113.79 826.22,-103.79 819.22,-103.79"/>
</g>
<!-- JNetworkBootstrap4DialogModule&#45;&gt;DialogModule -->
<g id="edge5" class="edge">
<title>JNetworkBootstrap4DialogModule&#45;&gt;DialogModule</title>
<path fill="none" stroke="black" d="M855.28,-84.91C855.28,-84.91 855.28,-103.79 855.28,-103.79"/>
<polygon fill="black" stroke="black" points="851.78,-103.79 855.28,-113.79 858.78,-103.79 851.78,-103.79"/>
</g>
<!-- JNetworkBootstrap4FormModule -->
<g id="node6" class="node">
<title>JNetworkBootstrap4FormModule</title>
<polygon fill="#8dd3c7" stroke="black" points="713.74,-84.8 710.74,-88.8 689.74,-88.8 686.74,-84.8 508.26,-84.8 508.26,-48.8 713.74,-48.8 713.74,-84.8"/>
<text text-anchor="middle" x="611" y="-62.6" font-family="Times,serif" font-size="14.00">JNetworkBootstrap4FormModule</text>
</g>
<!-- JNetworkBootstrap4FormModule&#45;&gt;DialogModule -->
<g id="edge6" class="edge">
<title>JNetworkBootstrap4FormModule&#45;&gt;DialogModule</title>
<path fill="none" stroke="black" d="M611,-84.83C611,-101.2 611,-122.8 611,-122.8 611,-122.8 780.09,-122.8 780.09,-122.8"/>
<polygon fill="black" stroke="black" points="780.09,-126.3 790.09,-122.8 780.09,-119.3 780.09,-126.3"/>
</g>
<!-- JNetworkBootstrap4ValidationSummaryModule -->
<g id="node7" class="node">
<title>JNetworkBootstrap4ValidationSummaryModule</title>
<polygon fill="#8dd3c7" stroke="black" points="490.45,-84.8 487.45,-88.8 466.45,-88.8 463.45,-84.8 201.55,-84.8 201.55,-48.8 490.45,-48.8 490.45,-84.8"/>
<text text-anchor="middle" x="346" y="-62.6" font-family="Times,serif" font-size="14.00">JNetworkBootstrap4ValidationSummaryModule</text>
</g>
<!-- JNetworkBootstrap4ValidationSummaryModule&#45;&gt;DialogModule -->
<g id="edge7" class="edge">
<title>JNetworkBootstrap4ValidationSummaryModule&#45;&gt;DialogModule</title>
<path fill="none" stroke="black" d="M346,-84.91C346,-104.14 346,-131.8 346,-131.8 346,-131.8 779.93,-131.8 779.93,-131.8"/>
<polygon fill="black" stroke="black" points="779.93,-135.3 789.93,-131.8 779.93,-128.3 779.93,-135.3"/>
</g>
</g>
</svg>
