<?xml version="1.0" encoding="UTF-8" standalone="no"?>
<!DOCTYPE svg PUBLIC "-//W3C//DTD SVG 1.1//EN"
 "http://www.w3.org/Graphics/SVG/1.1/DTD/svg11.dtd">
<!-- Generated by graphviz version 2.40.1 (20161225.0304)
 -->
<!-- Title: dependencies Pages: 1 -->
<svg width="1785pt" height="349pt"
 viewBox="0.00 0.00 1785.00 349.00" xmlns="http://www.w3.org/2000/svg" xmlns:xlink="http://www.w3.org/1999/xlink">
<g id="graph0" class="graph" transform="scale(1 1) rotate(0) translate(4 345)">
<title>dependencies</title>
<polygon fill="#ffffff" stroke="transparent" points="-4,4 -4,-345 1781,-345 1781,4 -4,4"/>
<text text-anchor="start" x="867.5091" y="-42.4" font-family="sans-serif" font-weight="bold" font-size="14.00" fill="#000000">Legend</text>
<polygon fill="#ffffb3" stroke="transparent" points="654.5,-10 654.5,-30 674.5,-30 674.5,-10 654.5,-10"/>
<text text-anchor="start" x="678.129" y="-15.4" font-family="sans-serif" font-size="14.00" fill="#000000"> &#160;Declarations</text>
<polygon fill="#8dd3c7" stroke="transparent" points="767.5,-10 767.5,-30 787.5,-30 787.5,-10 767.5,-10"/>
<text text-anchor="start" x="791.2251" y="-15.4" font-family="sans-serif" font-size="14.00" fill="#000000"> &#160;Module</text>
<polygon fill="#80b1d3" stroke="transparent" points="853.5,-10 853.5,-30 873.5,-30 873.5,-10 853.5,-10"/>
<text text-anchor="start" x="877.2812" y="-15.4" font-family="sans-serif" font-size="14.00" fill="#000000"> &#160;Bootstrap</text>
<polygon fill="#fdb462" stroke="transparent" points="950.5,-10 950.5,-30 970.5,-30 970.5,-10 950.5,-10"/>
<text text-anchor="start" x="974.1732" y="-15.4" font-family="sans-serif" font-size="14.00" fill="#000000"> &#160;Providers</text>
<polygon fill="#fb8072" stroke="transparent" points="1046.5,-10 1046.5,-30 1066.5,-30 1066.5,-10 1046.5,-10"/>
<text text-anchor="start" x="1070.2258" y="-15.4" font-family="sans-serif" font-size="14.00" fill="#000000"> &#160;Exports</text>
<g id="clust1" class="cluster">
<title>cluster_JNetworkBootstrap3StaticLabelModule</title>
<polygon fill="none" stroke="#000000" stroke-dasharray="1,5" points="8,-70 8,-333 1769,-333 1769,-70 8,-70"/>
</g>
<g id="clust2" class="cluster">
<title>cluster_JNetworkBootstrap3StaticLabelModule_declarations</title>
<polygon fill="none" stroke="#000000" points="654,-143 654,-195 1066,-195 1066,-143 654,-143"/>
</g>
<g id="clust3" class="cluster">
<title>cluster_JNetworkBootstrap3StaticLabelModule_NgStaticFormContainerComponent_providers</title>
<polygon fill="none" stroke="#000000" points="16,-78 16,-130 1761,-130 1761,-78 16,-78"/>
</g>
<g id="clust5" class="cluster">
<title>cluster_JNetworkBootstrap3StaticLabelModule_imports</title>
<polygon fill="none" stroke="#000000" points="414,-143 414,-195 646,-195 646,-143 414,-143"/>
</g>
<g id="clust6" class="cluster">
<title>cluster_JNetworkBootstrap3StaticLabelModule_exports</title>
<polygon fill="none" stroke="#000000" points="546,-273 546,-325 966,-325 966,-273 546,-273"/>
</g>
<!-- NgStaticFormContainerComponent -->
<g id="node1" class="node">
<title>NgStaticFormContainerComponent</title>
<polygon fill="#ffffb3" stroke="#000000" points="1057.864,-187 842.136,-187 842.136,-151 1057.864,-151 1057.864,-187"/>
<text text-anchor="middle" x="950" y="-164.8" font-family="Times,serif" font-size="14.00" fill="#000000">NgStaticFormContainerComponent</text>
</g>
<!-- JNetworkBootstrap3StaticLabelModule -->
<g id="node3" class="node">
<title>JNetworkBootstrap3StaticLabelModule</title>
<polygon fill="#8dd3c7" stroke="#000000" points="862.6671,-252 859.6671,-256 838.6671,-256 835.6671,-252 623.3329,-252 623.3329,-216 862.6671,-216 862.6671,-252"/>
<text text-anchor="middle" x="743" y="-229.8" font-family="Times,serif" font-size="14.00" fill="#000000">JNetworkBootstrap3StaticLabelModule</text>
</g>
<!-- NgStaticFormContainerComponent&#45;&gt;JNetworkBootstrap3StaticLabelModule -->
<g id="edge1" class="edge">
<title>NgStaticFormContainerComponent&#45;&gt;JNetworkBootstrap3StaticLabelModule</title>
<path fill="none" stroke="#000000" d="M852.3258,-187.1061C852.3258,-187.1061 852.3258,-205.991 852.3258,-205.991"/>
<polygon fill="#000000" stroke="#000000" points="848.8258,-205.9909 852.3258,-215.991 855.8258,-205.991 848.8258,-205.9909"/>
</g>
<!-- NgStaticLabelComponent -->
<g id="node2" class="node">
<title>NgStaticLabelComponent</title>
<polygon fill="#ffffb3" stroke="#000000" points="824.1951,-187 661.8049,-187 661.8049,-151 824.1951,-151 824.1951,-187"/>
<text text-anchor="middle" x="743" y="-164.8" font-family="Times,serif" font-size="14.00" fill="#000000">NgStaticLabelComponent</text>
</g>
<!-- NgStaticLabelComponent&#45;&gt;JNetworkBootstrap3StaticLabelModule -->
<g id="edge4" class="edge">
<title>NgStaticLabelComponent&#45;&gt;JNetworkBootstrap3StaticLabelModule</title>
<path fill="none" stroke="#000000" d="M743,-187.1061C743,-187.1061 743,-205.991 743,-205.991"/>
<polygon fill="#000000" stroke="#000000" points="739.5001,-205.9909 743,-215.991 746.5001,-205.991 739.5001,-205.9909"/>
</g>
<!-- NgStaticFormContainerComponent  -->
<g id="node7" class="node">
<title>NgStaticFormContainerComponent </title>
<polygon fill="#fb8072" stroke="#000000" points="957.8643,-317 738.1357,-317 738.1357,-281 957.8643,-281 957.8643,-317"/>
<text text-anchor="middle" x="848" y="-294.8" font-family="Times,serif" font-size="14.00" fill="#000000">NgStaticFormContainerComponent </text>
</g>
<!-- JNetworkBootstrap3StaticLabelModule&#45;&gt;NgStaticFormContainerComponent  -->
<g id="edge6" class="edge">
<title>JNetworkBootstrap3StaticLabelModule&#45;&gt;NgStaticFormContainerComponent </title>
<path fill="none" stroke="#000000" stroke-dasharray="5,2" d="M800.4508,-252.1061C800.4508,-252.1061 800.4508,-270.991 800.4508,-270.991"/>
<polygon fill="#000000" stroke="#000000" points="796.9508,-270.9909 800.4508,-280.991 803.9508,-270.991 796.9508,-270.9909"/>
</g>
<!-- NgStaticLabelComponent  -->
<g id="node8" class="node">
<title>NgStaticLabelComponent </title>
<polygon fill="#fb8072" stroke="#000000" points="719.6953,-317 554.3047,-317 554.3047,-281 719.6953,-281 719.6953,-317"/>
<text text-anchor="middle" x="637" y="-294.8" font-family="Times,serif" font-size="14.00" fill="#000000">NgStaticLabelComponent </text>
</g>
<!-- JNetworkBootstrap3StaticLabelModule&#45;&gt;NgStaticLabelComponent  -->
<g id="edge7" class="edge">
<title>JNetworkBootstrap3StaticLabelModule&#45;&gt;NgStaticLabelComponent </title>
<path fill="none" stroke="#000000" stroke-dasharray="5,2" d="M671.632,-252.1061C671.632,-252.1061 671.632,-270.991 671.632,-270.991"/>
<polygon fill="#000000" stroke="#000000" points="668.1321,-270.9909 671.632,-280.991 675.1321,-270.991 668.1321,-270.9909"/>
</g>
<!-- { provide: NG_VALUE_ACCESSOR, multi: true, useExisting: NgStaticFormContainerComponent } -->
<g id="node4" class="node">
<title>{ provide: NG_VALUE_ACCESSOR, multi: true, useExisting: NgStaticFormContainerComponent }</title>
<ellipse fill="#fdb462" stroke="#000000" cx="1349" cy="-104" rx="404.2507" ry="18"/>
<text text-anchor="middle" x="1349" y="-99.8" font-family="Times,serif" font-size="14.00" fill="#000000">{ provide: NG_VALUE_ACCESSOR, multi: true, useExisting: NgStaticFormContainerComponent }</text>
</g>
<!-- { provide: NG_VALUE_ACCESSOR, multi: true, useExisting: NgStaticFormContainerComponent }&#45;&gt;NgStaticFormContainerComponent -->
<g id="edge2" class="edge">
<title>{ provide: NG_VALUE_ACCESSOR, multi: true, useExisting: NgStaticFormContainerComponent }&#45;&gt;NgStaticFormContainerComponent</title>
<path fill="none" stroke="#000000" d="M1001.4033,-113.3129C1001.4033,-113.3129 1001.4033,-140.852 1001.4033,-140.852"/>
<polygon fill="#000000" stroke="#000000" points="997.9034,-140.852 1001.4033,-150.852 1004.9034,-140.8521 997.9034,-140.852"/>
</g>
<!-- { provide: NG_VALIDATORS, multi: true, useExisting: forwardRef(() =&gt; NgStaticFormContainerComponent) } -->
<g id="node5" class="node">
<title>{ provide: NG_VALIDATORS, multi: true, useExisting: forwardRef(() =&gt; NgStaticFormContainerComponent) }</title>
<ellipse fill="#fdb462" stroke="#000000" cx="475" cy="-104" rx="451.3868" ry="18"/>
<text text-anchor="middle" x="475" y="-99.8" font-family="Times,serif" font-size="14.00" fill="#000000">{ provide: NG_VALIDATORS, multi: true, useExisting: forwardRef(() =&gt; NgStaticFormContainerComponent) }</text>
</g>
<!-- { provide: NG_VALIDATORS, multi: true, useExisting: forwardRef(() =&gt; NgStaticFormContainerComponent) }&#45;&gt;NgStaticFormContainerComponent -->
<g id="edge3" class="edge">
<title>{ provide: NG_VALIDATORS, multi: true, useExisting: forwardRef(() =&gt; NgStaticFormContainerComponent) }&#45;&gt;NgStaticFormContainerComponent</title>
<path fill="none" stroke="#000000" d="M884.2557,-111.7116C884.2557,-111.7116 884.2557,-140.9896 884.2557,-140.9896"/>
<polygon fill="#000000" stroke="#000000" points="880.7558,-140.9896 884.2557,-150.9896 887.7558,-140.9897 880.7558,-140.9896"/>
</g>
<!-- JNetworkBootstrap3TooltipModule -->
<g id="node6" class="node">
<title>JNetworkBootstrap3TooltipModule</title>
<polygon fill="#8dd3c7" stroke="#000000" points="638.1357,-187 635.1357,-191 614.1357,-191 611.1357,-187 421.8643,-187 421.8643,-151 638.1357,-151 638.1357,-187"/>
<text text-anchor="middle" x="530" y="-164.8" font-family="Times,serif" font-size="14.00" fill="#000000">JNetworkBootstrap3TooltipModule</text>
</g>
<!-- JNetworkBootstrap3TooltipModule&#45;&gt;JNetworkBootstrap3StaticLabelModule -->
<g id="edge5" class="edge">
<title>JNetworkBootstrap3TooltipModule&#45;&gt;JNetworkBootstrap3StaticLabelModule</title>
<path fill="none" stroke="#000000" d="M630.8671,-187.1061C630.8671,-187.1061 630.8671,-205.991 630.8671,-205.991"/>
<polygon fill="#000000" stroke="#000000" points="627.3672,-205.9909 630.8671,-215.991 634.3672,-205.991 627.3672,-205.9909"/>
</g>
</g>
</svg>
