<?xml version="1.0" encoding="UTF-8" standalone="no"?>
<!DOCTYPE svg PUBLIC "-//W3C//DTD SVG 1.1//EN"
 "http://www.w3.org/Graphics/SVG/1.1/DTD/svg11.dtd">
<!-- Generated by graphviz version 2.47.0 (20210316.0004)
 -->
<!-- Title: dependencies Pages: 1 -->
<svg width="2211pt" height="349pt"
 viewBox="0.00 0.00 2211.00 349.00" xmlns="http://www.w3.org/2000/svg" xmlns:xlink="http://www.w3.org/1999/xlink">
<g id="graph0" class="graph" transform="scale(1 1) rotate(0) translate(4 345)">
<title>dependencies</title>
<polygon fill="white" stroke="transparent" points="-4,4 -4,-345 2207,-345 2207,4 -4,4"/>
<text text-anchor="start" x="1080.51" y="-42.4" font-family="Times-12" font-weight="bold" font-size="14.00">Legend</text>
<polygon fill="#ffffb3" stroke="transparent" points="867.5,-10 867.5,-30 887.5,-30 887.5,-10 867.5,-10"/>
<text text-anchor="start" x="891.13" y="-15.4" font-family="Times-12" font-size="14.00"> &#160;Declarations</text>
<polygon fill="#8dd3c7" stroke="transparent" points="980.5,-10 980.5,-30 1000.5,-30 1000.5,-10 980.5,-10"/>
<text text-anchor="start" x="1004.23" y="-15.4" font-family="Times-12" font-size="14.00"> &#160;Module</text>
<polygon fill="#80b1d3" stroke="transparent" points="1066.5,-10 1066.5,-30 1086.5,-30 1086.5,-10 1066.5,-10"/>
<text text-anchor="start" x="1090.28" y="-15.4" font-family="Times-12" font-size="14.00"> &#160;Bootstrap</text>
<polygon fill="#fdb462" stroke="transparent" points="1163.5,-10 1163.5,-30 1183.5,-30 1183.5,-10 1163.5,-10"/>
<text text-anchor="start" x="1187.17" y="-15.4" font-family="Times-12" font-size="14.00"> &#160;Providers</text>
<polygon fill="#fb8072" stroke="transparent" points="1259.5,-10 1259.5,-30 1279.5,-30 1279.5,-10 1259.5,-10"/>
<text text-anchor="start" x="1283.23" y="-15.4" font-family="Times-12" font-size="14.00"> &#160;Exports</text>
<g id="clust1" class="cluster">
<title>cluster_JNetworkBootstrap3StaticLabelModule</title>
<polygon fill="none" stroke="black" stroke-dasharray="1,5" points="8,-70 8,-333 2195,-333 2195,-70 8,-70"/>
</g>
<g id="clust5" class="cluster">
<title>cluster_JNetworkBootstrap3StaticLabelModule_imports</title>
<polygon fill="none" stroke="black" points="1955,-143 1955,-195 2187,-195 2187,-143 1955,-143"/>
</g>
<g id="clust6" class="cluster">
<title>cluster_JNetworkBootstrap3StaticLabelModule_exports</title>
<polygon fill="none" stroke="black" points="901,-273 901,-325 1321,-325 1321,-273 901,-273"/>
</g>
<g id="clust3" class="cluster">
<title>cluster_JNetworkBootstrap3StaticLabelModule_NgStaticFormContainerComponent_providers</title>
<polygon fill="none" stroke="black" points="202,-78 202,-195 1947,-195 1947,-78 202,-78"/>
</g>
<g id="clust2" class="cluster">
<title>cluster_JNetworkBootstrap3StaticLabelModule_declarations</title>
<polygon fill="none" stroke="black" points="16,-143 16,-195 194,-195 194,-143 16,-143"/>
</g>
<!-- NgStaticFormContainerComponent -->
<g id="node1" class="node">
<title>NgStaticFormContainerComponent</title>
<polygon fill="#ffffb3" stroke="black" points="1205.86,-187 990.14,-187 990.14,-151 1205.86,-151 1205.86,-187"/>
<text text-anchor="middle" x="1098" y="-164.8" font-family="Times,serif" font-size="14.00">NgStaticFormContainerComponent</text>
</g>
<!-- JNetworkBootstrap3StaticLabelModule -->
<g id="node3" class="node">
<title>JNetworkBootstrap3StaticLabelModule</title>
<polygon fill="#8dd3c7" stroke="black" points="1217.67,-252 1214.67,-256 1193.67,-256 1190.67,-252 978.33,-252 978.33,-216 1217.67,-216 1217.67,-252"/>
<text text-anchor="middle" x="1098" y="-229.8" font-family="Times,serif" font-size="14.00">JNetworkBootstrap3StaticLabelModule</text>
</g>
<!-- NgStaticFormContainerComponent&#45;&gt;JNetworkBootstrap3StaticLabelModule -->
<g id="edge1" class="edge">
<title>NgStaticFormContainerComponent&#45;&gt;JNetworkBootstrap3StaticLabelModule</title>
<path fill="none" stroke="black" d="M1098,-187.11C1098,-187.11 1098,-205.99 1098,-205.99"/>
<polygon fill="black" stroke="black" points="1094.5,-205.99 1098,-215.99 1101.5,-205.99 1094.5,-205.99"/>
</g>
<!-- NgStaticLabelComponent -->
<g id="node2" class="node">
<title>NgStaticLabelComponent</title>
<polygon fill="#ffffb3" stroke="black" points="186.2,-187 23.8,-187 23.8,-151 186.2,-151 186.2,-187"/>
<text text-anchor="middle" x="105" y="-164.8" font-family="Times,serif" font-size="14.00">NgStaticLabelComponent</text>
</g>
<!-- NgStaticLabelComponent&#45;&gt;JNetworkBootstrap3StaticLabelModule -->
<g id="edge4" class="edge">
<title>NgStaticLabelComponent&#45;&gt;JNetworkBootstrap3StaticLabelModule</title>
<path fill="none" stroke="black" d="M186.14,-169C403.8,-169 984.24,-169 984.24,-169 984.24,-169 984.24,-205.89 984.24,-205.89"/>
<polygon fill="black" stroke="black" points="980.74,-205.89 984.24,-215.89 987.74,-205.89 980.74,-205.89"/>
</g>
<!-- NgStaticFormContainerComponent  -->
<g id="node7" class="node">
<title>NgStaticFormContainerComponent </title>
<polygon fill="#fb8072" stroke="black" points="1312.86,-317 1093.14,-317 1093.14,-281 1312.86,-281 1312.86,-317"/>
<text text-anchor="middle" x="1203" y="-294.8" font-family="Times,serif" font-size="14.00">NgStaticFormContainerComponent </text>
</g>
<!-- JNetworkBootstrap3StaticLabelModule&#45;&gt;NgStaticFormContainerComponent  -->
<g id="edge6" class="edge">
<title>JNetworkBootstrap3StaticLabelModule&#45;&gt;NgStaticFormContainerComponent </title>
<path fill="none" stroke="black" stroke-dasharray="5,2" d="M1155.45,-252.11C1155.45,-252.11 1155.45,-270.99 1155.45,-270.99"/>
<polygon fill="black" stroke="black" points="1151.95,-270.99 1155.45,-280.99 1158.95,-270.99 1151.95,-270.99"/>
</g>
<!-- NgStaticLabelComponent  -->
<g id="node8" class="node">
<title>NgStaticLabelComponent </title>
<polygon fill="#fb8072" stroke="black" points="1074.7,-317 909.3,-317 909.3,-281 1074.7,-281 1074.7,-317"/>
<text text-anchor="middle" x="992" y="-294.8" font-family="Times,serif" font-size="14.00">NgStaticLabelComponent </text>
</g>
<!-- JNetworkBootstrap3StaticLabelModule&#45;&gt;NgStaticLabelComponent  -->
<g id="edge7" class="edge">
<title>JNetworkBootstrap3StaticLabelModule&#45;&gt;NgStaticLabelComponent </title>
<path fill="none" stroke="black" stroke-dasharray="5,2" d="M1026.63,-252.11C1026.63,-252.11 1026.63,-270.99 1026.63,-270.99"/>
<polygon fill="black" stroke="black" points="1023.13,-270.99 1026.63,-280.99 1030.13,-270.99 1023.13,-270.99"/>
</g>
<!-- { provide: NG_VALUE_ACCESSOR, multi: true, useExisting: NgStaticFormContainerComponent } -->
<g id="node4" class="node">
<title>{ provide: NG_VALUE_ACCESSOR, multi: true, useExisting: NgStaticFormContainerComponent }</title>
<ellipse fill="#fdb462" stroke="black" cx="1535" cy="-104" rx="404.25" ry="18"/>
<text text-anchor="middle" x="1535" y="-99.8" font-family="Times,serif" font-size="14.00">{ provide: NG_VALUE_ACCESSOR, multi: true, useExisting: NgStaticFormContainerComponent }</text>
</g>
<!-- { provide: NG_VALUE_ACCESSOR, multi: true, useExisting: NgStaticFormContainerComponent }&#45;&gt;NgStaticFormContainerComponent -->
<g id="edge2" class="edge">
<title>{ provide: NG_VALUE_ACCESSOR, multi: true, useExisting: NgStaticFormContainerComponent }&#45;&gt;NgStaticFormContainerComponent</title>
<path fill="none" stroke="black" d="M1168.4,-111.71C1168.4,-111.71 1168.4,-140.99 1168.4,-140.99"/>
<polygon fill="black" stroke="black" points="1164.9,-140.99 1168.4,-150.99 1171.9,-140.99 1164.9,-140.99"/>
</g>
<!-- { provide: NG_VALIDATORS, multi: true, useExisting: forwardRef(() =&gt; NgStaticFormContainerComponent) } -->
<g id="node5" class="node">
<title>{ provide: NG_VALIDATORS, multi: true, useExisting: forwardRef(() =&gt; NgStaticFormContainerComponent) }</title>
<ellipse fill="#fdb462" stroke="black" cx="661" cy="-104" rx="451.39" ry="18"/>
<text text-anchor="middle" x="661" y="-99.8" font-family="Times,serif" font-size="14.00">{ provide: NG_VALIDATORS, multi: true, useExisting: forwardRef(() =&gt; NgStaticFormContainerComponent) }</text>
</g>
<!-- { provide: NG_VALIDATORS, multi: true, useExisting: forwardRef(() =&gt; NgStaticFormContainerComponent) }&#45;&gt;NgStaticFormContainerComponent -->
<g id="edge3" class="edge">
<title>{ provide: NG_VALIDATORS, multi: true, useExisting: forwardRef(() =&gt; NgStaticFormContainerComponent) }&#45;&gt;NgStaticFormContainerComponent</title>
<path fill="none" stroke="black" d="M1051.26,-113.31C1051.26,-113.31 1051.26,-140.85 1051.26,-140.85"/>
<polygon fill="black" stroke="black" points="1047.76,-140.85 1051.26,-150.85 1054.76,-140.85 1047.76,-140.85"/>
</g>
<!-- JNetworkBootstrap3TooltipModule -->
<g id="node6" class="node">
<title>JNetworkBootstrap3TooltipModule</title>
<polygon fill="#8dd3c7" stroke="black" points="2179.14,-187 2176.14,-191 2155.14,-191 2152.14,-187 1962.86,-187 1962.86,-151 2179.14,-151 2179.14,-187"/>
<text text-anchor="middle" x="2071" y="-164.8" font-family="Times,serif" font-size="14.00">JNetworkBootstrap3TooltipModule</text>
</g>
<!-- JNetworkBootstrap3TooltipModule&#45;&gt;JNetworkBootstrap3StaticLabelModule -->
<g id="edge5" class="edge">
<title>JNetworkBootstrap3TooltipModule&#45;&gt;JNetworkBootstrap3StaticLabelModule</title>
<path fill="none" stroke="black" d="M1962.61,-169C1731.62,-169 1211.76,-169 1211.76,-169 1211.76,-169 1211.76,-205.89 1211.76,-205.89"/>
<polygon fill="black" stroke="black" points="1208.26,-205.89 1211.76,-215.89 1215.26,-205.89 1208.26,-205.89"/>
</g>
</g>
</svg>
