<?xml version="1.0" encoding="UTF-8" standalone="no"?>
<!DOCTYPE svg PUBLIC "-//W3C//DTD SVG 1.1//EN"
 "http://www.w3.org/Graphics/SVG/1.1/DTD/svg11.dtd">
<!-- Generated by graphviz version 2.47.3 (20210619.1520)
 -->
<!-- Title: dependencies Pages: 1 -->
<svg width="2211pt" height="312pt"
 viewBox="0.00 0.00 2211.00 311.80" xmlns="http://www.w3.org/2000/svg" xmlns:xlink="http://www.w3.org/1999/xlink">
<g id="graph0" class="graph" transform="scale(1 1) rotate(0) translate(4 307.8)">
<title>dependencies</title>
<polygon fill="white" stroke="transparent" points="-4,4 -4,-307.8 2207,-307.8 2207,4 -4,4"/>
<text text-anchor="middle" x="1101.5" y="-8.2" font-family="sans-serif" font-size="14.00">dependencies</text>
<g id="clust1" class="cluster">
<title>cluster_JNetworkBootstrap3StaticLabelModule</title>
<polygon fill="none" stroke="black" stroke-dasharray="1,5" points="8,-32.8 8,-295.8 2195,-295.8 2195,-32.8 8,-32.8"/>
</g>
<g id="clust5" class="cluster">
<title>cluster_JNetworkBootstrap3StaticLabelModule_imports</title>
<polygon fill="none" stroke="black" points="1955,-105.8 1955,-157.8 2187,-157.8 2187,-105.8 1955,-105.8"/>
</g>
<g id="clust6" class="cluster">
<title>cluster_JNetworkBootstrap3StaticLabelModule_exports</title>
<polygon fill="none" stroke="black" points="901,-235.8 901,-287.8 1321,-287.8 1321,-235.8 901,-235.8"/>
</g>
<g id="clust3" class="cluster">
<title>cluster_JNetworkBootstrap3StaticLabelModule_NgStaticFormContainerComponent_providers</title>
<polygon fill="none" stroke="black" points="202,-40.8 202,-157.8 1947,-157.8 1947,-40.8 202,-40.8"/>
</g>
<g id="clust2" class="cluster">
<title>cluster_JNetworkBootstrap3StaticLabelModule_declarations</title>
<polygon fill="none" stroke="black" points="16,-105.8 16,-157.8 194,-157.8 194,-105.8 16,-105.8"/>
</g>
<!-- NgStaticFormContainerComponent -->
<g id="node1" class="node">
<title>NgStaticFormContainerComponent</title>
<polygon fill="#ffffb3" stroke="black" points="1205.86,-149.8 990.14,-149.8 990.14,-113.8 1205.86,-113.8 1205.86,-149.8"/>
<text text-anchor="middle" x="1098" y="-127.6" font-family="Times,serif" font-size="14.00">NgStaticFormContainerComponent</text>
</g>
<!-- JNetworkBootstrap3StaticLabelModule -->
<g id="node3" class="node">
<title>JNetworkBootstrap3StaticLabelModule</title>
<polygon fill="#8dd3c7" stroke="black" points="1217.67,-214.8 1214.67,-218.8 1193.67,-218.8 1190.67,-214.8 978.33,-214.8 978.33,-178.8 1217.67,-178.8 1217.67,-214.8"/>
<text text-anchor="middle" x="1098" y="-192.6" font-family="Times,serif" font-size="14.00">JNetworkBootstrap3StaticLabelModule</text>
</g>
<!-- NgStaticFormContainerComponent&#45;&gt;JNetworkBootstrap3StaticLabelModule -->
<g id="edge1" class="edge">
<title>NgStaticFormContainerComponent&#45;&gt;JNetworkBootstrap3StaticLabelModule</title>
<path fill="none" stroke="black" d="M1098,-149.91C1098,-149.91 1098,-168.79 1098,-168.79"/>
<polygon fill="black" stroke="black" points="1094.5,-168.79 1098,-178.79 1101.5,-168.79 1094.5,-168.79"/>
</g>
<!-- NgStaticLabelComponent -->
<g id="node2" class="node">
<title>NgStaticLabelComponent</title>
<polygon fill="#ffffb3" stroke="black" points="186.2,-149.8 23.8,-149.8 23.8,-113.8 186.2,-113.8 186.2,-149.8"/>
<text text-anchor="middle" x="105" y="-127.6" font-family="Times,serif" font-size="14.00">NgStaticLabelComponent</text>
</g>
<!-- NgStaticLabelComponent&#45;&gt;JNetworkBootstrap3StaticLabelModule -->
<g id="edge4" class="edge">
<title>NgStaticLabelComponent&#45;&gt;JNetworkBootstrap3StaticLabelModule</title>
<path fill="none" stroke="black" d="M186.14,-131.8C403.8,-131.8 984.24,-131.8 984.24,-131.8 984.24,-131.8 984.24,-168.69 984.24,-168.69"/>
<polygon fill="black" stroke="black" points="980.74,-168.69 984.24,-178.69 987.74,-168.69 980.74,-168.69"/>
</g>
<!-- NgStaticFormContainerComponent  -->
<g id="node7" class="node">
<title>NgStaticFormContainerComponent </title>
<polygon fill="#fb8072" stroke="black" points="1312.86,-279.8 1093.14,-279.8 1093.14,-243.8 1312.86,-243.8 1312.86,-279.8"/>
<text text-anchor="middle" x="1203" y="-257.6" font-family="Times,serif" font-size="14.00">NgStaticFormContainerComponent </text>
</g>
<!-- JNetworkBootstrap3StaticLabelModule&#45;&gt;NgStaticFormContainerComponent  -->
<g id="edge6" class="edge">
<title>JNetworkBootstrap3StaticLabelModule&#45;&gt;NgStaticFormContainerComponent </title>
<path fill="none" stroke="black" stroke-dasharray="5,2" d="M1155.45,-214.91C1155.45,-214.91 1155.45,-233.79 1155.45,-233.79"/>
<polygon fill="black" stroke="black" points="1151.95,-233.79 1155.45,-243.79 1158.95,-233.79 1151.95,-233.79"/>
</g>
<!-- NgStaticLabelComponent  -->
<g id="node8" class="node">
<title>NgStaticLabelComponent </title>
<polygon fill="#fb8072" stroke="black" points="1074.7,-279.8 909.3,-279.8 909.3,-243.8 1074.7,-243.8 1074.7,-279.8"/>
<text text-anchor="middle" x="992" y="-257.6" font-family="Times,serif" font-size="14.00">NgStaticLabelComponent </text>
</g>
<!-- JNetworkBootstrap3StaticLabelModule&#45;&gt;NgStaticLabelComponent  -->
<g id="edge7" class="edge">
<title>JNetworkBootstrap3StaticLabelModule&#45;&gt;NgStaticLabelComponent </title>
<path fill="none" stroke="black" stroke-dasharray="5,2" d="M1026.63,-214.91C1026.63,-214.91 1026.63,-233.79 1026.63,-233.79"/>
<polygon fill="black" stroke="black" points="1023.13,-233.79 1026.63,-243.79 1030.13,-233.79 1023.13,-233.79"/>
</g>
<!-- { provide: NG_VALUE_ACCESSOR, multi: true, useExisting: NgStaticFormContainerComponent } -->
<g id="node4" class="node">
<title>{ provide: NG_VALUE_ACCESSOR, multi: true, useExisting: NgStaticFormContainerComponent }</title>
<ellipse fill="#fdb462" stroke="black" cx="1535" cy="-66.8" rx="404.25" ry="18"/>
<text text-anchor="middle" x="1535" y="-62.6" font-family="Times,serif" font-size="14.00">{ provide: NG_VALUE_ACCESSOR, multi: true, useExisting: NgStaticFormContainerComponent }</text>
</g>
<!-- { provide: NG_VALUE_ACCESSOR, multi: true, useExisting: NgStaticFormContainerComponent }&#45;&gt;NgStaticFormContainerComponent -->
<g id="edge2" class="edge">
<title>{ provide: NG_VALUE_ACCESSOR, multi: true, useExisting: NgStaticFormContainerComponent }&#45;&gt;NgStaticFormContainerComponent</title>
<path fill="none" stroke="black" d="M1168.4,-74.51C1168.4,-74.51 1168.4,-103.79 1168.4,-103.79"/>
<polygon fill="black" stroke="black" points="1164.9,-103.79 1168.4,-113.79 1171.9,-103.79 1164.9,-103.79"/>
</g>
<!-- { provide: NG_VALIDATORS, multi: true, useExisting: forwardRef(() =&gt; NgStaticFormContainerComponent) } -->
<g id="node5" class="node">
<title>{ provide: NG_VALIDATORS, multi: true, useExisting: forwardRef(() =&gt; NgStaticFormContainerComponent) }</title>
<ellipse fill="#fdb462" stroke="black" cx="661" cy="-66.8" rx="451.39" ry="18"/>
<text text-anchor="middle" x="661" y="-62.6" font-family="Times,serif" font-size="14.00">{ provide: NG_VALIDATORS, multi: true, useExisting: forwardRef(() =&gt; NgStaticFormContainerComponent) }</text>
</g>
<!-- { provide: NG_VALIDATORS, multi: true, useExisting: forwardRef(() =&gt; NgStaticFormContainerComponent) }&#45;&gt;NgStaticFormContainerComponent -->
<g id="edge3" class="edge">
<title>{ provide: NG_VALIDATORS, multi: true, useExisting: forwardRef(() =&gt; NgStaticFormContainerComponent) }&#45;&gt;NgStaticFormContainerComponent</title>
<path fill="none" stroke="black" d="M1051.26,-76.11C1051.26,-76.11 1051.26,-103.65 1051.26,-103.65"/>
<polygon fill="black" stroke="black" points="1047.76,-103.65 1051.26,-113.65 1054.76,-103.65 1047.76,-103.65"/>
</g>
<!-- JNetworkBootstrap3TooltipModule -->
<g id="node6" class="node">
<title>JNetworkBootstrap3TooltipModule</title>
<polygon fill="#8dd3c7" stroke="black" points="2179.14,-149.8 2176.14,-153.8 2155.14,-153.8 2152.14,-149.8 1962.86,-149.8 1962.86,-113.8 2179.14,-113.8 2179.14,-149.8"/>
<text text-anchor="middle" x="2071" y="-127.6" font-family="Times,serif" font-size="14.00">JNetworkBootstrap3TooltipModule</text>
</g>
<!-- JNetworkBootstrap3TooltipModule&#45;&gt;JNetworkBootstrap3StaticLabelModule -->
<g id="edge5" class="edge">
<title>JNetworkBootstrap3TooltipModule&#45;&gt;JNetworkBootstrap3StaticLabelModule</title>
<path fill="none" stroke="black" d="M1962.61,-131.8C1731.62,-131.8 1211.76,-131.8 1211.76,-131.8 1211.76,-131.8 1211.76,-168.69 1211.76,-168.69"/>
<polygon fill="black" stroke="black" points="1208.26,-168.69 1211.76,-178.69 1215.26,-168.69 1208.26,-168.69"/>
</g>
</g>
</svg>
