<?xml version="1.0" encoding="UTF-8" standalone="no"?>
<!DOCTYPE svg PUBLIC "-//W3C//DTD SVG 1.1//EN"
 "http://www.w3.org/Graphics/SVG/1.1/DTD/svg11.dtd">
<!-- Generated by graphviz version 2.47.3 (20210619.1520)
 -->
<!-- Title: dependencies Pages: 1 -->
<svg width="1785pt" height="312pt"
 viewBox="0.00 0.00 1785.00 311.80" xmlns="http://www.w3.org/2000/svg" xmlns:xlink="http://www.w3.org/1999/xlink">
<g id="graph0" class="graph" transform="scale(1 1) rotate(0) translate(4 307.8)">
<title>dependencies</title>
<polygon fill="white" stroke="transparent" points="-4,4 -4,-307.8 1781,-307.8 1781,4 -4,4"/>
<text text-anchor="middle" x="888.5" y="-8.2" font-family="sans-serif" font-size="14.00">dependencies</text>
<g id="clust1" class="cluster">
<title>cluster_JNetworkBootstrap3StaticLabelModule</title>
<polygon fill="none" stroke="black" stroke-dasharray="1,5" points="8,-32.8 8,-295.8 1769,-295.8 1769,-32.8 8,-32.8"/>
</g>
<g id="clust5" class="cluster">
<title>cluster_JNetworkBootstrap3StaticLabelModule_imports</title>
<polygon fill="none" stroke="black" points="1036,-105.8 1036,-157.8 1268,-157.8 1268,-105.8 1036,-105.8"/>
</g>
<g id="clust6" class="cluster">
<title>cluster_JNetworkBootstrap3StaticLabelModule_exports</title>
<polygon fill="none" stroke="black" points="715,-235.8 715,-287.8 1135,-287.8 1135,-235.8 715,-235.8"/>
</g>
<g id="clust2" class="cluster">
<title>cluster_JNetworkBootstrap3StaticLabelModule_declarations</title>
<polygon fill="none" stroke="black" points="616,-105.8 616,-157.8 1028,-157.8 1028,-105.8 616,-105.8"/>
</g>
<g id="clust3" class="cluster">
<title>cluster_JNetworkBootstrap3StaticLabelModule_NgStaticFormContainerComponent_providers</title>
<polygon fill="none" stroke="black" points="16,-40.8 16,-92.8 1761,-92.8 1761,-40.8 16,-40.8"/>
</g>
<!-- NgStaticFormContainerComponent -->
<g id="node1" class="node">
<title>NgStaticFormContainerComponent</title>
<polygon fill="#ffffb3" stroke="black" points="1019.86,-149.8 804.14,-149.8 804.14,-113.8 1019.86,-113.8 1019.86,-149.8"/>
<text text-anchor="middle" x="912" y="-127.6" font-family="Times,serif" font-size="14.00">NgStaticFormContainerComponent</text>
</g>
<!-- JNetworkBootstrap3StaticLabelModule -->
<g id="node3" class="node">
<title>JNetworkBootstrap3StaticLabelModule</title>
<polygon fill="#8dd3c7" stroke="black" points="1031.67,-214.8 1028.67,-218.8 1007.67,-218.8 1004.67,-214.8 792.33,-214.8 792.33,-178.8 1031.67,-178.8 1031.67,-214.8"/>
<text text-anchor="middle" x="912" y="-192.6" font-family="Times,serif" font-size="14.00">JNetworkBootstrap3StaticLabelModule</text>
</g>
<!-- NgStaticFormContainerComponent&#45;&gt;JNetworkBootstrap3StaticLabelModule -->
<g id="edge1" class="edge">
<title>NgStaticFormContainerComponent&#45;&gt;JNetworkBootstrap3StaticLabelModule</title>
<path fill="none" stroke="black" d="M912,-149.91C912,-149.91 912,-168.79 912,-168.79"/>
<polygon fill="black" stroke="black" points="908.5,-168.79 912,-178.79 915.5,-168.79 908.5,-168.79"/>
</g>
<!-- NgStaticLabelComponent -->
<g id="node2" class="node">
<title>NgStaticLabelComponent</title>
<polygon fill="#ffffb3" stroke="black" points="786.2,-149.8 623.8,-149.8 623.8,-113.8 786.2,-113.8 786.2,-149.8"/>
<text text-anchor="middle" x="705" y="-127.6" font-family="Times,serif" font-size="14.00">NgStaticLabelComponent</text>
</g>
<!-- NgStaticLabelComponent&#45;&gt;JNetworkBootstrap3StaticLabelModule -->
<g id="edge4" class="edge">
<title>NgStaticLabelComponent&#45;&gt;JNetworkBootstrap3StaticLabelModule</title>
<path fill="none" stroke="black" d="M786.43,-131.8C793.62,-131.8 798.24,-131.8 798.24,-131.8 798.24,-131.8 798.24,-168.69 798.24,-168.69"/>
<polygon fill="black" stroke="black" points="794.74,-168.69 798.24,-178.69 801.74,-168.69 794.74,-168.69"/>
</g>
<!-- NgStaticFormContainerComponent  -->
<g id="node7" class="node">
<title>NgStaticFormContainerComponent </title>
<polygon fill="#fb8072" stroke="black" points="1126.86,-279.8 907.14,-279.8 907.14,-243.8 1126.86,-243.8 1126.86,-279.8"/>
<text text-anchor="middle" x="1017" y="-257.6" font-family="Times,serif" font-size="14.00">NgStaticFormContainerComponent </text>
</g>
<!-- JNetworkBootstrap3StaticLabelModule&#45;&gt;NgStaticFormContainerComponent  -->
<g id="edge6" class="edge">
<title>JNetworkBootstrap3StaticLabelModule&#45;&gt;NgStaticFormContainerComponent </title>
<path fill="none" stroke="black" stroke-dasharray="5,2" d="M969.45,-214.91C969.45,-214.91 969.45,-233.79 969.45,-233.79"/>
<polygon fill="black" stroke="black" points="965.95,-233.79 969.45,-243.79 972.95,-233.79 965.95,-233.79"/>
</g>
<!-- NgStaticLabelComponent  -->
<g id="node8" class="node">
<title>NgStaticLabelComponent </title>
<polygon fill="#fb8072" stroke="black" points="888.7,-279.8 723.3,-279.8 723.3,-243.8 888.7,-243.8 888.7,-279.8"/>
<text text-anchor="middle" x="806" y="-257.6" font-family="Times,serif" font-size="14.00">NgStaticLabelComponent </text>
</g>
<!-- JNetworkBootstrap3StaticLabelModule&#45;&gt;NgStaticLabelComponent  -->
<g id="edge7" class="edge">
<title>JNetworkBootstrap3StaticLabelModule&#45;&gt;NgStaticLabelComponent </title>
<path fill="none" stroke="black" stroke-dasharray="5,2" d="M840.63,-214.91C840.63,-214.91 840.63,-233.79 840.63,-233.79"/>
<polygon fill="black" stroke="black" points="837.13,-233.79 840.63,-243.79 844.13,-233.79 837.13,-233.79"/>
</g>
<!-- { provide: NG_VALUE_ACCESSOR, multi: true, useExisting: NgStaticFormContainerComponent } -->
<g id="node4" class="node">
<title>{ provide: NG_VALUE_ACCESSOR, multi: true, useExisting: NgStaticFormContainerComponent }</title>
<ellipse fill="#fdb462" stroke="black" cx="1349" cy="-66.8" rx="404.25" ry="18"/>
<text text-anchor="middle" x="1349" y="-62.6" font-family="Times,serif" font-size="14.00">{ provide: NG_VALUE_ACCESSOR, multi: true, useExisting: NgStaticFormContainerComponent }</text>
</g>
<!-- { provide: NG_VALUE_ACCESSOR, multi: true, useExisting: NgStaticFormContainerComponent }&#45;&gt;NgStaticFormContainerComponent -->
<g id="edge2" class="edge">
<title>{ provide: NG_VALUE_ACCESSOR, multi: true, useExisting: NgStaticFormContainerComponent }&#45;&gt;NgStaticFormContainerComponent</title>
<path fill="none" stroke="black" d="M982.4,-74.51C982.4,-74.51 982.4,-103.79 982.4,-103.79"/>
<polygon fill="black" stroke="black" points="978.9,-103.79 982.4,-113.79 985.9,-103.79 978.9,-103.79"/>
</g>
<!-- { provide: NG_VALIDATORS, multi: true, useExisting: forwardRef(() =&gt; NgStaticFormContainerComponent) } -->
<g id="node5" class="node">
<title>{ provide: NG_VALIDATORS, multi: true, useExisting: forwardRef(() =&gt; NgStaticFormContainerComponent) }</title>
<ellipse fill="#fdb462" stroke="black" cx="475" cy="-66.8" rx="451.39" ry="18"/>
<text text-anchor="middle" x="475" y="-62.6" font-family="Times,serif" font-size="14.00">{ provide: NG_VALIDATORS, multi: true, useExisting: forwardRef(() =&gt; NgStaticFormContainerComponent) }</text>
</g>
<!-- { provide: NG_VALIDATORS, multi: true, useExisting: forwardRef(() =&gt; NgStaticFormContainerComponent) }&#45;&gt;NgStaticFormContainerComponent -->
<g id="edge3" class="edge">
<title>{ provide: NG_VALIDATORS, multi: true, useExisting: forwardRef(() =&gt; NgStaticFormContainerComponent) }&#45;&gt;NgStaticFormContainerComponent</title>
<path fill="none" stroke="black" d="M865.26,-76.11C865.26,-76.11 865.26,-103.65 865.26,-103.65"/>
<polygon fill="black" stroke="black" points="861.76,-103.65 865.26,-113.65 868.76,-103.65 861.76,-103.65"/>
</g>
<!-- JNetworkBootstrap3TooltipModule -->
<g id="node6" class="node">
<title>JNetworkBootstrap3TooltipModule</title>
<polygon fill="#8dd3c7" stroke="black" points="1260.14,-149.8 1257.14,-153.8 1236.14,-153.8 1233.14,-149.8 1043.86,-149.8 1043.86,-113.8 1260.14,-113.8 1260.14,-149.8"/>
<text text-anchor="middle" x="1152" y="-127.6" font-family="Times,serif" font-size="14.00">JNetworkBootstrap3TooltipModule</text>
</g>
<!-- JNetworkBootstrap3TooltipModule&#45;&gt;JNetworkBootstrap3StaticLabelModule -->
<g id="edge5" class="edge">
<title>JNetworkBootstrap3TooltipModule&#45;&gt;JNetworkBootstrap3StaticLabelModule</title>
<path fill="none" stroke="black" d="M1043.85,-131.8C1032.93,-131.8 1025.76,-131.8 1025.76,-131.8 1025.76,-131.8 1025.76,-168.69 1025.76,-168.69"/>
<polygon fill="black" stroke="black" points="1022.26,-168.69 1025.76,-178.69 1029.26,-168.69 1022.26,-168.69"/>
</g>
</g>
</svg>
