<?xml version="1.0" encoding="UTF-8" standalone="no"?>
<!DOCTYPE svg PUBLIC "-//W3C//DTD SVG 1.1//EN"
 "http://www.w3.org/Graphics/SVG/1.1/DTD/svg11.dtd">
<!-- Generated by graphviz version 2.40.1 (20161225.0304)
 -->
<!-- Title: dependencies Pages: 1 -->
<svg width="1739pt" height="349pt"
 viewBox="0.00 0.00 1739.00 349.00" xmlns="http://www.w3.org/2000/svg" xmlns:xlink="http://www.w3.org/1999/xlink">
<g id="graph0" class="graph" transform="scale(1 1) rotate(0) translate(4 345)">
<title>dependencies</title>
<polygon fill="#ffffff" stroke="transparent" points="-4,4 -4,-345 1735,-345 1735,4 -4,4"/>
<text text-anchor="start" x="844.5091" y="-42.4" font-family="sans-serif" font-weight="bold" font-size="14.00" fill="#000000">Legend</text>
<polygon fill="#ffffb3" stroke="transparent" points="631.5,-10 631.5,-30 651.5,-30 651.5,-10 631.5,-10"/>
<text text-anchor="start" x="655.129" y="-15.4" font-family="sans-serif" font-size="14.00" fill="#000000"> &#160;Declarations</text>
<polygon fill="#8dd3c7" stroke="transparent" points="744.5,-10 744.5,-30 764.5,-30 764.5,-10 744.5,-10"/>
<text text-anchor="start" x="768.2251" y="-15.4" font-family="sans-serif" font-size="14.00" fill="#000000"> &#160;Module</text>
<polygon fill="#80b1d3" stroke="transparent" points="830.5,-10 830.5,-30 850.5,-30 850.5,-10 830.5,-10"/>
<text text-anchor="start" x="854.2812" y="-15.4" font-family="sans-serif" font-size="14.00" fill="#000000"> &#160;Bootstrap</text>
<polygon fill="#fdb462" stroke="transparent" points="927.5,-10 927.5,-30 947.5,-30 947.5,-10 927.5,-10"/>
<text text-anchor="start" x="951.1732" y="-15.4" font-family="sans-serif" font-size="14.00" fill="#000000"> &#160;Providers</text>
<polygon fill="#fb8072" stroke="transparent" points="1023.5,-10 1023.5,-30 1043.5,-30 1043.5,-10 1023.5,-10"/>
<text text-anchor="start" x="1047.2258" y="-15.4" font-family="sans-serif" font-size="14.00" fill="#000000"> &#160;Exports</text>
<g id="clust1" class="cluster">
<title>cluster_JNetworkBootstrap3InputModule</title>
<polygon fill="none" stroke="#000000" stroke-dasharray="1,5" points="8,-70 8,-333 1723,-333 1723,-70 8,-70"/>
</g>
<g id="clust2" class="cluster">
<title>cluster_JNetworkBootstrap3InputModule_declarations</title>
<polygon fill="none" stroke="#000000" points="256,-143 256,-195 1715,-195 1715,-143 256,-143"/>
</g>
<g id="clust4" class="cluster">
<title>cluster_JNetworkBootstrap3InputModule_NgInputComponent_providers</title>
<polygon fill="none" stroke="#000000" points="212,-78 212,-130 1715,-130 1715,-78 212,-78"/>
</g>
<g id="clust11" class="cluster">
<title>cluster_JNetworkBootstrap3InputModule_imports</title>
<polygon fill="none" stroke="#000000" points="16,-143 16,-195 248,-195 248,-143 16,-143"/>
</g>
<g id="clust12" class="cluster">
<title>cluster_JNetworkBootstrap3InputModule_exports</title>
<polygon fill="none" stroke="#000000" points="143,-273 143,-325 1628,-325 1628,-273 143,-273"/>
</g>
<!-- NgInputAreaComponent -->
<g id="node1" class="node">
<title>NgInputAreaComponent</title>
<polygon fill="#ffffb3" stroke="#000000" points="1706.6867,-187 1551.3133,-187 1551.3133,-151 1706.6867,-151 1706.6867,-187"/>
<text text-anchor="middle" x="1629" y="-164.8" font-family="Times,serif" font-size="14.00" fill="#000000">NgInputAreaComponent</text>
</g>
<!-- JNetworkBootstrap3InputModule -->
<g id="node9" class="node">
<title>JNetworkBootstrap3InputModule</title>
<polygon fill="#8dd3c7" stroke="#000000" points="1017.4622,-252 1014.4622,-256 993.4622,-256 990.4622,-252 812.5378,-252 812.5378,-216 1017.4622,-216 1017.4622,-252"/>
<text text-anchor="middle" x="915" y="-229.8" font-family="Times,serif" font-size="14.00" fill="#000000">JNetworkBootstrap3InputModule</text>
</g>
<!-- NgInputAreaComponent&#45;&gt;JNetworkBootstrap3InputModule -->
<g id="edge1" class="edge">
<title>NgInputAreaComponent&#45;&gt;JNetworkBootstrap3InputModule</title>
<path fill="none" stroke="#000000" d="M1585.875,-187.2222C1585.875,-205.8285 1585.875,-232 1585.875,-232 1585.875,-232 1027.6218,-232 1027.6218,-232"/>
<polygon fill="#000000" stroke="#000000" points="1027.6218,-228.5001 1017.6218,-232 1027.6217,-235.5001 1027.6218,-228.5001"/>
</g>
<!-- NgInputComponent -->
<g id="node2" class="node">
<title>NgInputComponent</title>
<polygon fill="#ffffb3" stroke="#000000" points="1532.9902,-187 1405.0098,-187 1405.0098,-151 1532.9902,-151 1532.9902,-187"/>
<text text-anchor="middle" x="1469" y="-164.8" font-family="Times,serif" font-size="14.00" fill="#000000">NgInputComponent</text>
</g>
<!-- NgInputComponent&#45;&gt;JNetworkBootstrap3InputModule -->
<g id="edge2" class="edge">
<title>NgInputComponent&#45;&gt;JNetworkBootstrap3InputModule</title>
<path fill="none" stroke="#000000" d="M1424.375,-187.0336C1424.375,-204.0597 1424.375,-227 1424.375,-227 1424.375,-227 1027.4669,-227 1027.4669,-227"/>
<polygon fill="#000000" stroke="#000000" points="1027.4669,-223.5001 1017.4669,-227 1027.4669,-230.5001 1027.4669,-223.5001"/>
</g>
<!-- NgInputCurrencyComponent -->
<g id="node3" class="node">
<title>NgInputCurrencyComponent</title>
<polygon fill="#ffffb3" stroke="#000000" points="1387.0772,-187 1206.9228,-187 1206.9228,-151 1387.0772,-151 1387.0772,-187"/>
<text text-anchor="middle" x="1297" y="-164.8" font-family="Times,serif" font-size="14.00" fill="#000000">NgInputCurrencyComponent</text>
</g>
<!-- NgInputCurrencyComponent&#45;&gt;JNetworkBootstrap3InputModule -->
<g id="edge5" class="edge">
<title>NgInputCurrencyComponent&#45;&gt;JNetworkBootstrap3InputModule</title>
<path fill="none" stroke="#000000" d="M1250.375,-187.2396C1250.375,-202.5706 1250.375,-222 1250.375,-222 1250.375,-222 1027.9027,-222 1027.9027,-222"/>
<polygon fill="#000000" stroke="#000000" points="1027.9028,-218.5001 1017.9027,-222 1027.9027,-225.5001 1027.9028,-218.5001"/>
</g>
<!-- NgInputDecimalComponent -->
<g id="node4" class="node">
<title>NgInputDecimalComponent</title>
<polygon fill="#ffffb3" stroke="#000000" points="1188.9129,-187 1013.0871,-187 1013.0871,-151 1188.9129,-151 1188.9129,-187"/>
<text text-anchor="middle" x="1101" y="-164.8" font-family="Times,serif" font-size="14.00" fill="#000000">NgInputDecimalComponent</text>
</g>
<!-- NgInputDecimalComponent&#45;&gt;JNetworkBootstrap3InputModule -->
<g id="edge6" class="edge">
<title>NgInputDecimalComponent&#45;&gt;JNetworkBootstrap3InputModule</title>
<path fill="none" stroke="#000000" d="M1013.1269,-169C1009.6205,-169 1007.5617,-169 1007.5617,-169 1007.5617,-169 1007.5617,-205.8939 1007.5617,-205.8939"/>
<polygon fill="#000000" stroke="#000000" points="1004.0618,-205.8938 1007.5617,-215.8939 1011.0618,-205.8939 1004.0618,-205.8938"/>
</g>
<!-- NgInputEmailComponent -->
<g id="node5" class="node">
<title>NgInputEmailComponent</title>
<polygon fill="#ffffb3" stroke="#000000" points="995.9298,-187 834.0702,-187 834.0702,-151 995.9298,-151 995.9298,-187"/>
<text text-anchor="middle" x="915" y="-164.8" font-family="Times,serif" font-size="14.00" fill="#000000">NgInputEmailComponent</text>
</g>
<!-- NgInputEmailComponent&#45;&gt;JNetworkBootstrap3InputModule -->
<g id="edge7" class="edge">
<title>NgInputEmailComponent&#45;&gt;JNetworkBootstrap3InputModule</title>
<path fill="none" stroke="#000000" d="M915,-187.1061C915,-187.1061 915,-205.991 915,-205.991"/>
<polygon fill="#000000" stroke="#000000" points="911.5001,-205.9909 915,-215.991 918.5001,-205.991 911.5001,-205.9909"/>
</g>
<!-- NgInputIntegerComponent -->
<g id="node6" class="node">
<title>NgInputIntegerComponent</title>
<polygon fill="#ffffb3" stroke="#000000" points="815.6316,-187 648.3684,-187 648.3684,-151 815.6316,-151 815.6316,-187"/>
<text text-anchor="middle" x="732" y="-164.8" font-family="Times,serif" font-size="14.00" fill="#000000">NgInputIntegerComponent</text>
</g>
<!-- NgInputIntegerComponent&#45;&gt;JNetworkBootstrap3InputModule -->
<g id="edge8" class="edge">
<title>NgInputIntegerComponent&#45;&gt;JNetworkBootstrap3InputModule</title>
<path fill="none" stroke="#000000" d="M815.7883,-169C821.5009,-169 825.0505,-169 825.0505,-169 825.0505,-169 825.0505,-205.8939 825.0505,-205.8939"/>
<polygon fill="#000000" stroke="#000000" points="821.5506,-205.8938 825.0505,-215.8939 828.5506,-205.8939 821.5506,-205.8938"/>
</g>
<!-- NgInputPasswordComponent -->
<g id="node7" class="node">
<title>NgInputPasswordComponent</title>
<polygon fill="#ffffb3" stroke="#000000" points="629.6441,-187 448.3559,-187 448.3559,-151 629.6441,-151 629.6441,-187"/>
<text text-anchor="middle" x="539" y="-164.8" font-family="Times,serif" font-size="14.00" fill="#000000">NgInputPasswordComponent</text>
</g>
<!-- NgInputPasswordComponent&#45;&gt;JNetworkBootstrap3InputModule -->
<g id="edge9" class="edge">
<title>NgInputPasswordComponent&#45;&gt;JNetworkBootstrap3InputModule</title>
<path fill="none" stroke="#000000" d="M585.6282,-187.2396C585.6282,-202.5706 585.6282,-222 585.6282,-222 585.6282,-222 802.1395,-222 802.1395,-222"/>
<polygon fill="#000000" stroke="#000000" points="802.1396,-225.5001 812.1395,-222 802.1395,-218.5001 802.1396,-225.5001"/>
</g>
<!-- NgInputSearchComponent -->
<g id="node8" class="node">
<title>NgInputSearchComponent</title>
<polygon fill="#ffffb3" stroke="#000000" points="430.0772,-187 263.9228,-187 263.9228,-151 430.0772,-151 430.0772,-187"/>
<text text-anchor="middle" x="347" y="-164.8" font-family="Times,serif" font-size="14.00" fill="#000000">NgInputSearchComponent</text>
</g>
<!-- NgInputSearchComponent&#45;&gt;JNetworkBootstrap3InputModule -->
<g id="edge10" class="edge">
<title>NgInputSearchComponent&#45;&gt;JNetworkBootstrap3InputModule</title>
<path fill="none" stroke="#000000" d="M384.2333,-187.0336C384.2333,-204.0597 384.2333,-227 384.2333,-227 384.2333,-227 802.3483,-227 802.3483,-227"/>
<polygon fill="#000000" stroke="#000000" points="802.3484,-230.5001 812.3483,-227 802.3483,-223.5001 802.3484,-230.5001"/>
</g>
<!-- NgInputAreaComponent  -->
<g id="node13" class="node">
<title>NgInputAreaComponent </title>
<polygon fill="#fb8072" stroke="#000000" points="1620.1869,-317 1461.8131,-317 1461.8131,-281 1620.1869,-281 1620.1869,-317"/>
<text text-anchor="middle" x="1541" y="-294.8" font-family="Times,serif" font-size="14.00" fill="#000000">NgInputAreaComponent </text>
</g>
<!-- JNetworkBootstrap3InputModule&#45;&gt;NgInputAreaComponent  -->
<g id="edge12" class="edge">
<title>JNetworkBootstrap3InputModule&#45;&gt;NgInputAreaComponent </title>
<path fill="none" stroke="#000000" stroke-dasharray="5,2" d="M1017.7677,-237C1184.9419,-237 1497.3259,-237 1497.3259,-237 1497.3259,-237 1497.3259,-270.7333 1497.3259,-270.7333"/>
<polygon fill="#000000" stroke="#000000" points="1493.826,-270.7333 1497.3259,-280.7333 1500.826,-270.7333 1493.826,-270.7333"/>
</g>
<!-- NgInputComponent  -->
<g id="node14" class="node">
<title>NgInputComponent </title>
<polygon fill="#fb8072" stroke="#000000" points="1443.9911,-317 1312.0089,-317 1312.0089,-281 1443.9911,-281 1443.9911,-317"/>
<text text-anchor="middle" x="1378" y="-294.8" font-family="Times,serif" font-size="14.00" fill="#000000">NgInputComponent </text>
</g>
<!-- JNetworkBootstrap3InputModule&#45;&gt;NgInputComponent  -->
<g id="edge13" class="edge">
<title>JNetworkBootstrap3InputModule&#45;&gt;NgInputComponent </title>
<path fill="none" stroke="#000000" stroke-dasharray="5,2" d="M1017.7299,-242C1146.2459,-242 1349.6467,-242 1349.6467,-242 1349.6467,-242 1349.6467,-270.9648 1349.6467,-270.9648"/>
<polygon fill="#000000" stroke="#000000" points="1346.1468,-270.9648 1349.6467,-280.9648 1353.1468,-270.9649 1346.1468,-270.9648"/>
</g>
<!-- NgInputCurrencyComponent  -->
<g id="node15" class="node">
<title>NgInputCurrencyComponent </title>
<polygon fill="#fb8072" stroke="#000000" points="1293.5777,-317 1110.4223,-317 1110.4223,-281 1293.5777,-281 1293.5777,-317"/>
<text text-anchor="middle" x="1202" y="-294.8" font-family="Times,serif" font-size="14.00" fill="#000000">NgInputCurrencyComponent </text>
</g>
<!-- JNetworkBootstrap3InputModule&#45;&gt;NgInputCurrencyComponent  -->
<g id="edge14" class="edge">
<title>JNetworkBootstrap3InputModule&#45;&gt;NgInputCurrencyComponent </title>
<path fill="none" stroke="#000000" stroke-dasharray="5,2" d="M1017.496,-247C1080.5852,-247 1149.4588,-247 1149.4588,-247 1149.4588,-247 1149.4588,-270.8129 1149.4588,-270.8129"/>
<polygon fill="#000000" stroke="#000000" points="1145.9589,-270.8129 1149.4588,-280.8129 1152.9589,-270.813 1145.9589,-270.8129"/>
</g>
<!-- NgInputDecimalComponent  -->
<g id="node16" class="node">
<title>NgInputDecimalComponent </title>
<polygon fill="#fb8072" stroke="#000000" points="1092.4124,-317 913.5876,-317 913.5876,-281 1092.4124,-281 1092.4124,-317"/>
<text text-anchor="middle" x="1003" y="-294.8" font-family="Times,serif" font-size="14.00" fill="#000000">NgInputDecimalComponent </text>
</g>
<!-- JNetworkBootstrap3InputModule&#45;&gt;NgInputDecimalComponent  -->
<g id="edge15" class="edge">
<title>JNetworkBootstrap3InputModule&#45;&gt;NgInputDecimalComponent </title>
<path fill="none" stroke="#000000" stroke-dasharray="5,2" d="M965.5125,-252.1061C965.5125,-252.1061 965.5125,-270.991 965.5125,-270.991"/>
<polygon fill="#000000" stroke="#000000" points="962.0125,-270.9909 965.5125,-280.991 969.0125,-270.991 962.0125,-270.9909"/>
</g>
<!-- NgInputEmailComponent  -->
<g id="node17" class="node">
<title>NgInputEmailComponent </title>
<polygon fill="#fb8072" stroke="#000000" points="895.4292,-317 730.5708,-317 730.5708,-281 895.4292,-281 895.4292,-317"/>
<text text-anchor="middle" x="813" y="-294.8" font-family="Times,serif" font-size="14.00" fill="#000000">NgInputEmailComponent </text>
</g>
<!-- JNetworkBootstrap3InputModule&#45;&gt;NgInputEmailComponent  -->
<g id="edge16" class="edge">
<title>JNetworkBootstrap3InputModule&#45;&gt;NgInputEmailComponent </title>
<path fill="none" stroke="#000000" stroke-dasharray="5,2" d="M853.9918,-252.1061C853.9918,-252.1061 853.9918,-270.991 853.9918,-270.991"/>
<polygon fill="#000000" stroke="#000000" points="850.4918,-270.9909 853.9918,-280.991 857.4918,-270.991 850.4918,-270.9909"/>
</g>
<!-- NgInputIntegerComponent  -->
<g id="node18" class="node">
<title>NgInputIntegerComponent </title>
<polygon fill="#fb8072" stroke="#000000" points="712.6313,-317 541.3687,-317 541.3687,-281 712.6313,-281 712.6313,-317"/>
<text text-anchor="middle" x="627" y="-294.8" font-family="Times,serif" font-size="14.00" fill="#000000">NgInputIntegerComponent </text>
</g>
<!-- JNetworkBootstrap3InputModule&#45;&gt;NgInputIntegerComponent  -->
<g id="edge17" class="edge">
<title>JNetworkBootstrap3InputModule&#45;&gt;NgInputIntegerComponent </title>
<path fill="none" stroke="#000000" stroke-dasharray="5,2" d="M812.4314,-247C749.2974,-247 680.375,-247 680.375,-247 680.375,-247 680.375,-270.8129 680.375,-270.8129"/>
<polygon fill="#000000" stroke="#000000" points="676.8751,-270.8129 680.375,-280.8129 683.8751,-270.813 676.8751,-270.8129"/>
</g>
<!-- NgInputPasswordComponent  -->
<g id="node19" class="node">
<title>NgInputPasswordComponent </title>
<polygon fill="#fb8072" stroke="#000000" points="523.6439,-317 338.3561,-317 338.3561,-281 523.6439,-281 523.6439,-317"/>
<text text-anchor="middle" x="431" y="-294.8" font-family="Times,serif" font-size="14.00" fill="#000000">NgInputPasswordComponent </text>
</g>
<!-- JNetworkBootstrap3InputModule&#45;&gt;NgInputPasswordComponent  -->
<g id="edge18" class="edge">
<title>JNetworkBootstrap3InputModule&#45;&gt;NgInputPasswordComponent </title>
<path fill="none" stroke="#000000" stroke-dasharray="5,2" d="M812.4866,-242C685.5468,-242 485.875,-242 485.875,-242 485.875,-242 485.875,-270.9648 485.875,-270.9648"/>
<polygon fill="#000000" stroke="#000000" points="482.3751,-270.9648 485.875,-280.9648 489.3751,-270.9649 482.3751,-270.9648"/>
</g>
<!-- NgInputSearchComponent  -->
<g id="node20" class="node">
<title>NgInputSearchComponent </title>
<polygon fill="#fb8072" stroke="#000000" points="320.5777,-317 151.4223,-317 151.4223,-281 320.5777,-281 320.5777,-317"/>
<text text-anchor="middle" x="236" y="-294.8" font-family="Times,serif" font-size="14.00" fill="#000000">NgInputSearchComponent </text>
</g>
<!-- JNetworkBootstrap3InputModule&#45;&gt;NgInputSearchComponent  -->
<g id="edge19" class="edge">
<title>JNetworkBootstrap3InputModule&#45;&gt;NgInputSearchComponent </title>
<path fill="none" stroke="#000000" stroke-dasharray="5,2" d="M812.535,-237C635.7946,-237 292.375,-237 292.375,-237 292.375,-237 292.375,-270.7333 292.375,-270.7333"/>
<polygon fill="#000000" stroke="#000000" points="288.8751,-270.7333 292.375,-280.7333 295.8751,-270.7333 288.8751,-270.7333"/>
</g>
<!-- { provide: NG_VALUE_ACCESSOR, multi: true, useExisting: NgInputComponent } -->
<g id="node10" class="node">
<title>{ provide: NG_VALUE_ACCESSOR, multi: true, useExisting: NgInputComponent }</title>
<ellipse fill="#fdb462" stroke="#000000" cx="1363" cy="-104" rx="343.5232" ry="18"/>
<text text-anchor="middle" x="1363" y="-99.8" font-family="Times,serif" font-size="14.00" fill="#000000">{ provide: NG_VALUE_ACCESSOR, multi: true, useExisting: NgInputComponent }</text>
</g>
<!-- { provide: NG_VALUE_ACCESSOR, multi: true, useExisting: NgInputComponent }&#45;&gt;NgInputComponent -->
<g id="edge3" class="edge">
<title>{ provide: NG_VALUE_ACCESSOR, multi: true, useExisting: NgInputComponent }&#45;&gt;NgInputComponent</title>
<path fill="none" stroke="#000000" d="M1490.3317,-120.7391C1490.3317,-120.7391 1490.3317,-140.7182 1490.3317,-140.7182"/>
<polygon fill="#000000" stroke="#000000" points="1486.8318,-140.7182 1490.3317,-150.7182 1493.8318,-140.7182 1486.8318,-140.7182"/>
</g>
<!-- { provide: NG_VALIDATORS, multi: true, useExisting: forwardRef(() =&gt; NgInputComponent) } -->
<g id="node11" class="node">
<title>{ provide: NG_VALIDATORS, multi: true, useExisting: forwardRef(() =&gt; NgInputComponent) }</title>
<ellipse fill="#fdb462" stroke="#000000" cx="611" cy="-104" rx="390.6594" ry="18"/>
<text text-anchor="middle" x="611" y="-99.8" font-family="Times,serif" font-size="14.00" fill="#000000">{ provide: NG_VALIDATORS, multi: true, useExisting: forwardRef(() =&gt; NgInputComponent) }</text>
</g>
<!-- { provide: NG_VALIDATORS, multi: true, useExisting: forwardRef(() =&gt; NgInputComponent) }&#45;&gt;NgInputComponent -->
<g id="edge4" class="edge">
<title>{ provide: NG_VALIDATORS, multi: true, useExisting: forwardRef(() =&gt; NgInputComponent) }&#45;&gt;NgInputComponent</title>
<path fill="none" stroke="#000000" d="M915,-115.5418C915,-125.058 915,-137 915,-137 915,-137 1447.6683,-137 1447.6683,-137 1447.6683,-137 1447.6683,-140.7566 1447.6683,-140.7566"/>
<polygon fill="#000000" stroke="#000000" points="1444.1684,-140.7566 1447.6683,-150.7566 1451.1684,-140.7566 1444.1684,-140.7566"/>
</g>
<!-- JNetworkBootstrap3TooltipModule -->
<g id="node12" class="node">
<title>JNetworkBootstrap3TooltipModule</title>
<polygon fill="#8dd3c7" stroke="#000000" points="240.1357,-187 237.1357,-191 216.1357,-191 213.1357,-187 23.8643,-187 23.8643,-151 240.1357,-151 240.1357,-187"/>
<text text-anchor="middle" x="132" y="-164.8" font-family="Times,serif" font-size="14.00" fill="#000000">JNetworkBootstrap3TooltipModule</text>
</g>
<!-- JNetworkBootstrap3TooltipModule&#45;&gt;JNetworkBootstrap3InputModule -->
<g id="edge11" class="edge">
<title>JNetworkBootstrap3TooltipModule&#45;&gt;JNetworkBootstrap3InputModule</title>
<path fill="none" stroke="#000000" d="M195.7646,-187.2222C195.7646,-205.8285 195.7646,-232 195.7645,-232 195.7645,-232 802.3333,-232 802.3333,-232"/>
<polygon fill="#000000" stroke="#000000" points="802.3333,-235.5001 812.3333,-232 802.3332,-228.5001 802.3333,-235.5001"/>
</g>
</g>
</svg>
