<?xml version="1.0" encoding="UTF-8" standalone="no"?>
<!DOCTYPE svg PUBLIC "-//W3C//DTD SVG 1.1//EN"
 "http://www.w3.org/Graphics/SVG/1.1/DTD/svg11.dtd">
<!-- Generated by graphviz version 2.40.1 (20161225.0304)
 -->
<!-- Title: dependencies Pages: 1 -->
<svg width="1004pt" height="284pt"
 viewBox="0.00 0.00 1004.00 284.00" xmlns="http://www.w3.org/2000/svg" xmlns:xlink="http://www.w3.org/1999/xlink">
<g id="graph0" class="graph" transform="scale(1 1) rotate(0) translate(4 280)">
<title>dependencies</title>
<polygon fill="#ffffff" stroke="transparent" points="-4,4 -4,-280 1000,-280 1000,4 -4,4"/>
<text text-anchor="start" x="477.0091" y="-42.4" font-family="sans-serif" font-weight="bold" font-size="14.00" fill="#000000">Legend</text>
<polygon fill="#ffffb3" stroke="transparent" points="264,-10 264,-30 284,-30 284,-10 264,-10"/>
<text text-anchor="start" x="287.629" y="-15.4" font-family="sans-serif" font-size="14.00" fill="#000000"> &#160;Declarations</text>
<polygon fill="#8dd3c7" stroke="transparent" points="377,-10 377,-30 397,-30 397,-10 377,-10"/>
<text text-anchor="start" x="400.7251" y="-15.4" font-family="sans-serif" font-size="14.00" fill="#000000"> &#160;Module</text>
<polygon fill="#80b1d3" stroke="transparent" points="463,-10 463,-30 483,-30 483,-10 463,-10"/>
<text text-anchor="start" x="486.7812" y="-15.4" font-family="sans-serif" font-size="14.00" fill="#000000"> &#160;Bootstrap</text>
<polygon fill="#fdb462" stroke="transparent" points="560,-10 560,-30 580,-30 580,-10 560,-10"/>
<text text-anchor="start" x="583.6732" y="-15.4" font-family="sans-serif" font-size="14.00" fill="#000000"> &#160;Providers</text>
<polygon fill="#fb8072" stroke="transparent" points="656,-10 656,-30 676,-30 676,-10 656,-10"/>
<text text-anchor="start" x="679.7258" y="-15.4" font-family="sans-serif" font-size="14.00" fill="#000000"> &#160;Exports</text>
<g id="clust1" class="cluster">
<title>cluster_jNetworkBootstrap3InputModule</title>
<polygon fill="none" stroke="#000000" stroke-dasharray="1,5" points="8,-70 8,-268 988,-268 988,-70 8,-70"/>
</g>
<g id="clust2" class="cluster">
<title>cluster_jNetworkBootstrap3InputModule_declarations</title>
<polygon fill="none" stroke="#000000" points="35,-78 35,-130 968,-130 968,-78 35,-78"/>
</g>
<g id="clust12" class="cluster">
<title>cluster_jNetworkBootstrap3InputModule_exports</title>
<polygon fill="none" stroke="#000000" points="16,-208 16,-260 980,-260 980,-208 16,-208"/>
</g>
<!-- NgInput -->
<g id="node1" class="node">
<title>NgInput</title>
<polygon fill="#ffffb3" stroke="#000000" points="960.1587,-122 897.8413,-122 897.8413,-86 960.1587,-86 960.1587,-122"/>
<text text-anchor="middle" x="929" y="-99.8" font-family="Times,serif" font-size="14.00" fill="#000000">NgInput</text>
</g>
<!-- jNetworkBootstrap3InputModule -->
<g id="node9" class="node">
<title>jNetworkBootstrap3InputModule</title>
<polygon fill="#8dd3c7" stroke="#000000" points="571.9086,-187 568.9086,-191 547.9086,-191 544.9086,-187 368.0914,-187 368.0914,-151 571.9086,-151 571.9086,-187"/>
<text text-anchor="middle" x="470" y="-164.8" font-family="Times,serif" font-size="14.00" fill="#000000">jNetworkBootstrap3InputModule</text>
</g>
<!-- NgInput&#45;&gt;jNetworkBootstrap3InputModule -->
<g id="edge1" class="edge">
<title>NgInput&#45;&gt;jNetworkBootstrap3InputModule</title>
<path fill="none" stroke="#000000" d="M901.7961,-122.2222C901.7961,-140.8285 901.7961,-167 901.7961,-167 901.7961,-167 581.7829,-167 581.7829,-167"/>
<polygon fill="#000000" stroke="#000000" points="581.7829,-163.5001 571.7829,-167 581.7828,-170.5001 581.7829,-163.5001"/>
</g>
<!-- NgInputArea -->
<g id="node2" class="node">
<title>NgInputArea</title>
<polygon fill="#ffffb3" stroke="#000000" points="879.8543,-122 790.1457,-122 790.1457,-86 879.8543,-86 879.8543,-122"/>
<text text-anchor="middle" x="835" y="-99.8" font-family="Times,serif" font-size="14.00" fill="#000000">NgInputArea</text>
</g>
<!-- NgInputArea&#45;&gt;jNetworkBootstrap3InputModule -->
<g id="edge2" class="edge">
<title>NgInputArea&#45;&gt;jNetworkBootstrap3InputModule</title>
<path fill="none" stroke="#000000" d="M851.3924,-122.0336C851.3924,-139.0597 851.3924,-162 851.3924,-162 851.3924,-162 581.7051,-162 581.7051,-162"/>
<polygon fill="#000000" stroke="#000000" points="581.7052,-158.5001 571.7051,-162 581.7051,-165.5001 581.7052,-158.5001"/>
</g>
<!-- NgInputCurrency -->
<g id="node3" class="node">
<title>NgInputCurrency</title>
<polygon fill="#ffffb3" stroke="#000000" points="772.2451,-122 657.7549,-122 657.7549,-86 772.2451,-86 772.2451,-122"/>
<text text-anchor="middle" x="715" y="-99.8" font-family="Times,serif" font-size="14.00" fill="#000000">NgInputCurrency</text>
</g>
<!-- NgInputCurrency&#45;&gt;jNetworkBootstrap3InputModule -->
<g id="edge3" class="edge">
<title>NgInputCurrency&#45;&gt;jNetworkBootstrap3InputModule</title>
<path fill="none" stroke="#000000" d="M734.2075,-122.2396C734.2075,-137.5706 734.2075,-157 734.2075,-157 734.2075,-157 581.7716,-157 581.7716,-157"/>
<polygon fill="#000000" stroke="#000000" points="581.7716,-153.5001 571.7716,-157 581.7715,-160.5001 581.7716,-153.5001"/>
</g>
<!-- NgInputDecimal -->
<g id="node4" class="node">
<title>NgInputDecimal</title>
<polygon fill="#ffffb3" stroke="#000000" points="640.08,-122 529.92,-122 529.92,-86 640.08,-86 640.08,-122"/>
<text text-anchor="middle" x="585" y="-99.8" font-family="Times,serif" font-size="14.00" fill="#000000">NgInputDecimal</text>
</g>
<!-- NgInputDecimal&#45;&gt;jNetworkBootstrap3InputModule -->
<g id="edge4" class="edge">
<title>NgInputDecimal&#45;&gt;jNetworkBootstrap3InputModule</title>
<path fill="none" stroke="#000000" d="M550.8321,-122.1061C550.8321,-122.1061 550.8321,-140.991 550.8321,-140.991"/>
<polygon fill="#000000" stroke="#000000" points="547.3321,-140.9909 550.8321,-150.991 554.3321,-140.991 547.3321,-140.9909"/>
</g>
<!-- NgInputEmail -->
<g id="node5" class="node">
<title>NgInputEmail</title>
<polygon fill="#ffffb3" stroke="#000000" points="512.0968,-122 415.9032,-122 415.9032,-86 512.0968,-86 512.0968,-122"/>
<text text-anchor="middle" x="464" y="-99.8" font-family="Times,serif" font-size="14.00" fill="#000000">NgInputEmail</text>
</g>
<!-- NgInputEmail&#45;&gt;jNetworkBootstrap3InputModule -->
<g id="edge5" class="edge">
<title>NgInputEmail&#45;&gt;jNetworkBootstrap3InputModule</title>
<path fill="none" stroke="#000000" d="M464,-122.1061C464,-122.1061 464,-140.991 464,-140.991"/>
<polygon fill="#000000" stroke="#000000" points="460.5001,-140.9909 464,-150.991 467.5001,-140.991 460.5001,-140.9909"/>
</g>
<!-- NgInputInteger -->
<g id="node6" class="node">
<title>NgInputInteger</title>
<polygon fill="#ffffb3" stroke="#000000" points="398.2992,-122 295.7008,-122 295.7008,-86 398.2992,-86 398.2992,-122"/>
<text text-anchor="middle" x="347" y="-99.8" font-family="Times,serif" font-size="14.00" fill="#000000">NgInputInteger</text>
</g>
<!-- NgInputInteger&#45;&gt;jNetworkBootstrap3InputModule -->
<g id="edge6" class="edge">
<title>NgInputInteger&#45;&gt;jNetworkBootstrap3InputModule</title>
<path fill="none" stroke="#000000" d="M383.2227,-122.1061C383.2227,-122.1061 383.2227,-140.991 383.2227,-140.991"/>
<polygon fill="#000000" stroke="#000000" points="379.7227,-140.9909 383.2227,-150.991 386.7227,-140.991 379.7227,-140.9909"/>
</g>
<!-- NgInputPassword -->
<g id="node7" class="node">
<title>NgInputPassword</title>
<polygon fill="#ffffb3" stroke="#000000" points="278.3118,-122 161.6882,-122 161.6882,-86 278.3118,-86 278.3118,-122"/>
<text text-anchor="middle" x="220" y="-99.8" font-family="Times,serif" font-size="14.00" fill="#000000">NgInputPassword</text>
</g>
<!-- NgInputPassword&#45;&gt;jNetworkBootstrap3InputModule -->
<g id="edge7" class="edge">
<title>NgInputPassword&#45;&gt;jNetworkBootstrap3InputModule</title>
<path fill="none" stroke="#000000" d="M272.0307,-122.0091C272.0307,-138.0494 272.0307,-159 272.0307,-159 272.0307,-159 358.1158,-159 358.1158,-159"/>
<polygon fill="#000000" stroke="#000000" points="358.1158,-162.5001 368.1158,-159 358.1157,-155.5001 358.1158,-162.5001"/>
</g>
<!-- NgInputSearch -->
<g id="node8" class="node">
<title>NgInputSearch</title>
<polygon fill="#ffffb3" stroke="#000000" points="143.2451,-122 42.7549,-122 42.7549,-86 143.2451,-86 143.2451,-122"/>
<text text-anchor="middle" x="93" y="-99.8" font-family="Times,serif" font-size="14.00" fill="#000000">NgInputSearch</text>
</g>
<!-- NgInputSearch&#45;&gt;jNetworkBootstrap3InputModule -->
<g id="edge8" class="edge">
<title>NgInputSearch&#45;&gt;jNetworkBootstrap3InputModule</title>
<path fill="none" stroke="#000000" d="M135.7474,-122.2667C135.7474,-140.5552 135.7474,-166 135.7474,-166 135.7474,-166 357.897,-166 357.897,-166"/>
<polygon fill="#000000" stroke="#000000" points="357.897,-169.5001 367.897,-166 357.8969,-162.5001 357.897,-169.5001"/>
</g>
<!-- NgInput  -->
<g id="node10" class="node">
<title>NgInput </title>
<polygon fill="#fb8072" stroke="#000000" points="972.158,-252 905.842,-252 905.842,-216 972.158,-216 972.158,-252"/>
<text text-anchor="middle" x="939" y="-229.8" font-family="Times,serif" font-size="14.00" fill="#000000">NgInput </text>
</g>
<!-- jNetworkBootstrap3InputModule&#45;&gt;NgInput  -->
<g id="edge9" class="edge">
<title>jNetworkBootstrap3InputModule&#45;&gt;NgInput </title>
<path fill="none" stroke="#000000" stroke-dasharray="5,2" d="M571.9213,-172C708.2784,-172 933.125,-172 933.125,-172 933.125,-172 933.125,-205.7333 933.125,-205.7333"/>
<polygon fill="#000000" stroke="#000000" points="929.6251,-205.7333 933.125,-215.7333 936.6251,-205.7333 929.6251,-205.7333"/>
</g>
<!-- NgInputArea  -->
<g id="node11" class="node">
<title>NgInputArea </title>
<polygon fill="#fb8072" stroke="#000000" points="887.8549,-252 794.1451,-252 794.1451,-216 887.8549,-216 887.8549,-252"/>
<text text-anchor="middle" x="841" y="-229.8" font-family="Times,serif" font-size="14.00" fill="#000000">NgInputArea </text>
</g>
<!-- jNetworkBootstrap3InputModule&#45;&gt;NgInputArea  -->
<g id="edge10" class="edge">
<title>jNetworkBootstrap3InputModule&#45;&gt;NgInputArea </title>
<path fill="none" stroke="#000000" stroke-dasharray="5,2" d="M572.061,-177C676.2733,-177 822.8576,-177 822.8576,-177 822.8576,-177 822.8576,-205.9648 822.8576,-205.9648"/>
<polygon fill="#000000" stroke="#000000" points="819.3577,-205.9648 822.8576,-215.9648 826.3577,-205.9649 819.3577,-205.9648"/>
</g>
<!-- NgInputCurrency  -->
<g id="node12" class="node">
<title>NgInputCurrency </title>
<polygon fill="#fb8072" stroke="#000000" points="776.2451,-252 657.7549,-252 657.7549,-216 776.2451,-216 776.2451,-252"/>
<text text-anchor="middle" x="717" y="-229.8" font-family="Times,serif" font-size="14.00" fill="#000000">NgInputCurrency </text>
</g>
<!-- jNetworkBootstrap3InputModule&#45;&gt;NgInputCurrency  -->
<g id="edge11" class="edge">
<title>jNetworkBootstrap3InputModule&#45;&gt;NgInputCurrency </title>
<path fill="none" stroke="#000000" stroke-dasharray="5,2" d="M571.7798,-182C631.7774,-182 696.0425,-182 696.0425,-182 696.0425,-182 696.0425,-205.8129 696.0425,-205.8129"/>
<polygon fill="#000000" stroke="#000000" points="692.5426,-205.8129 696.0425,-215.8129 699.5426,-205.813 692.5426,-205.8129"/>
</g>
<!-- NgInputDecimal  -->
<g id="node13" class="node">
<title>NgInputDecimal </title>
<polygon fill="#fb8072" stroke="#000000" points="639.5808,-252 526.4192,-252 526.4192,-216 639.5808,-216 639.5808,-252"/>
<text text-anchor="middle" x="583" y="-229.8" font-family="Times,serif" font-size="14.00" fill="#000000">NgInputDecimal </text>
</g>
<!-- jNetworkBootstrap3InputModule&#45;&gt;NgInputDecimal  -->
<g id="edge12" class="edge">
<title>jNetworkBootstrap3InputModule&#45;&gt;NgInputDecimal </title>
<path fill="none" stroke="#000000" stroke-dasharray="5,2" d="M548.9571,-187.1061C548.9571,-187.1061 548.9571,-205.991 548.9571,-205.991"/>
<polygon fill="#000000" stroke="#000000" points="545.4571,-205.9909 548.9571,-215.991 552.4571,-205.991 545.4571,-205.9909"/>
</g>
<!-- NgInputEmail  -->
<g id="node14" class="node">
<title>NgInputEmail </title>
<polygon fill="#fb8072" stroke="#000000" points="507.5976,-252 408.4024,-252 408.4024,-216 507.5976,-216 507.5976,-252"/>
<text text-anchor="middle" x="458" y="-229.8" font-family="Times,serif" font-size="14.00" fill="#000000">NgInputEmail </text>
</g>
<!-- jNetworkBootstrap3InputModule&#45;&gt;NgInputEmail  -->
<g id="edge13" class="edge">
<title>jNetworkBootstrap3InputModule&#45;&gt;NgInputEmail </title>
<path fill="none" stroke="#000000" stroke-dasharray="5,2" d="M458,-187.1061C458,-187.1061 458,-205.991 458,-205.991"/>
<polygon fill="#000000" stroke="#000000" points="454.5001,-205.9909 458,-215.991 461.5001,-205.991 454.5001,-205.9909"/>
</g>
<!-- NgInputInteger  -->
<g id="node15" class="node">
<title>NgInputInteger </title>
<polygon fill="#fb8072" stroke="#000000" points="389.799,-252 284.201,-252 284.201,-216 389.799,-216 389.799,-252"/>
<text text-anchor="middle" x="337" y="-229.8" font-family="Times,serif" font-size="14.00" fill="#000000">NgInputInteger </text>
</g>
<!-- jNetworkBootstrap3InputModule&#45;&gt;NgInputInteger  -->
<g id="edge14" class="edge">
<title>jNetworkBootstrap3InputModule&#45;&gt;NgInputInteger </title>
<path fill="none" stroke="#000000" stroke-dasharray="5,2" d="M379.0977,-187.1061C379.0977,-187.1061 379.0977,-205.991 379.0977,-205.991"/>
<polygon fill="#000000" stroke="#000000" points="375.5977,-205.9909 379.0977,-215.991 382.5977,-205.991 375.5977,-205.9909"/>
</g>
<!-- NgInputPassword  -->
<g id="node16" class="node">
<title>NgInputPassword </title>
<polygon fill="#fb8072" stroke="#000000" points="265.8115,-252 146.1885,-252 146.1885,-216 265.8115,-216 265.8115,-252"/>
<text text-anchor="middle" x="206" y="-229.8" font-family="Times,serif" font-size="14.00" fill="#000000">NgInputPassword </text>
</g>
<!-- jNetworkBootstrap3InputModule&#45;&gt;NgInputPassword  -->
<g id="edge15" class="edge">
<title>jNetworkBootstrap3InputModule&#45;&gt;NgInputPassword </title>
<path fill="none" stroke="#000000" stroke-dasharray="5,2" d="M368.0367,-180C296.6117,-180 213.875,-180 213.875,-180 213.875,-180 213.875,-205.7181 213.875,-205.7181"/>
<polygon fill="#000000" stroke="#000000" points="210.3751,-205.718 213.875,-215.7181 217.3751,-205.7181 210.3751,-205.718"/>
</g>
<!-- NgInputSearch  -->
<g id="node17" class="node">
<title>NgInputSearch </title>
<polygon fill="#fb8072" stroke="#000000" points="128.2451,-252 23.7549,-252 23.7549,-216 128.2451,-216 128.2451,-252"/>
<text text-anchor="middle" x="76" y="-229.8" font-family="Times,serif" font-size="14.00" fill="#000000">NgInputSearch </text>
</g>
<!-- jNetworkBootstrap3InputModule&#45;&gt;NgInputSearch  -->
<g id="edge16" class="edge">
<title>jNetworkBootstrap3InputModule&#45;&gt;NgInputSearch </title>
<path fill="none" stroke="#000000" stroke-dasharray="5,2" d="M368.1894,-173C254.2391,-173 85.375,-173 85.375,-173 85.375,-173 85.375,-205.698 85.375,-205.698"/>
<polygon fill="#000000" stroke="#000000" points="81.8751,-205.698 85.375,-215.698 88.8751,-205.698 81.8751,-205.698"/>
</g>
</g>
</svg>
