<?xml version="1.0" encoding="UTF-8" standalone="no"?>
<!DOCTYPE svg PUBLIC "-//W3C//DTD SVG 1.1//EN"
 "http://www.w3.org/Graphics/SVG/1.1/DTD/svg11.dtd">
<!-- Generated by graphviz version 2.40.1 (20161225.0304)
 -->
<!-- Title: dependencies Pages: 1 -->
<svg width="1213pt" height="284pt"
 viewBox="0.00 0.00 1213.00 284.00" xmlns="http://www.w3.org/2000/svg" xmlns:xlink="http://www.w3.org/1999/xlink">
<g id="graph0" class="graph" transform="scale(1 1) rotate(0) translate(4 280)">
<title>dependencies</title>
<polygon fill="#ffffff" stroke="transparent" points="-4,4 -4,-280 1209,-280 1209,4 -4,4"/>
<text text-anchor="start" x="581.5091" y="-42.4" font-family="sans-serif" font-weight="bold" font-size="14.00" fill="#000000">Legend</text>
<polygon fill="#ffffb3" stroke="transparent" points="368.5,-10 368.5,-30 388.5,-30 388.5,-10 368.5,-10"/>
<text text-anchor="start" x="392.129" y="-15.4" font-family="sans-serif" font-size="14.00" fill="#000000"> &#160;Declarations</text>
<polygon fill="#8dd3c7" stroke="transparent" points="481.5,-10 481.5,-30 501.5,-30 501.5,-10 481.5,-10"/>
<text text-anchor="start" x="505.2251" y="-15.4" font-family="sans-serif" font-size="14.00" fill="#000000"> &#160;Module</text>
<polygon fill="#80b1d3" stroke="transparent" points="567.5,-10 567.5,-30 587.5,-30 587.5,-10 567.5,-10"/>
<text text-anchor="start" x="591.2812" y="-15.4" font-family="sans-serif" font-size="14.00" fill="#000000"> &#160;Bootstrap</text>
<polygon fill="#fdb462" stroke="transparent" points="664.5,-10 664.5,-30 684.5,-30 684.5,-10 664.5,-10"/>
<text text-anchor="start" x="688.1732" y="-15.4" font-family="sans-serif" font-size="14.00" fill="#000000"> &#160;Providers</text>
<polygon fill="#fb8072" stroke="transparent" points="760.5,-10 760.5,-30 780.5,-30 780.5,-10 760.5,-10"/>
<text text-anchor="start" x="784.2258" y="-15.4" font-family="sans-serif" font-size="14.00" fill="#000000"> &#160;Exports</text>
<g id="clust1" class="cluster">
<title>cluster_jNetworkBootstrap3InputModule</title>
<polygon fill="none" stroke="#000000" stroke-dasharray="1,5" points="8,-70 8,-268 1197,-268 1197,-70 8,-70"/>
</g>
<g id="clust2" class="cluster">
<title>cluster_jNetworkBootstrap3InputModule_declarations</title>
<polygon fill="none" stroke="#000000" points="256,-78 256,-130 1189,-130 1189,-78 256,-78"/>
</g>
<g id="clust11" class="cluster">
<title>cluster_jNetworkBootstrap3InputModule_imports</title>
<polygon fill="none" stroke="#000000" points="16,-78 16,-130 248,-130 248,-78 16,-78"/>
</g>
<g id="clust12" class="cluster">
<title>cluster_jNetworkBootstrap3InputModule_exports</title>
<polygon fill="none" stroke="#000000" points="172,-208 172,-260 1136,-260 1136,-208 172,-208"/>
</g>
<!-- NgInput -->
<g id="node1" class="node">
<title>NgInput</title>
<polygon fill="#ffffb3" stroke="#000000" points="1181.1587,-122 1118.8413,-122 1118.8413,-86 1181.1587,-86 1181.1587,-122"/>
<text text-anchor="middle" x="1150" y="-99.8" font-family="Times,serif" font-size="14.00" fill="#000000">NgInput</text>
</g>
<!-- jNetworkBootstrap3InputModule -->
<g id="node9" class="node">
<title>jNetworkBootstrap3InputModule</title>
<polygon fill="#8dd3c7" stroke="#000000" points="786.9086,-187 783.9086,-191 762.9086,-191 759.9086,-187 583.0914,-187 583.0914,-151 786.9086,-151 786.9086,-187"/>
<text text-anchor="middle" x="685" y="-164.8" font-family="Times,serif" font-size="14.00" fill="#000000">jNetworkBootstrap3InputModule</text>
</g>
<!-- NgInput&#45;&gt;jNetworkBootstrap3InputModule -->
<g id="edge1" class="edge">
<title>NgInput&#45;&gt;jNetworkBootstrap3InputModule</title>
<path fill="none" stroke="#000000" d="M1123.375,-122.2222C1123.375,-140.8285 1123.375,-167 1123.375,-167 1123.375,-167 796.9499,-167 796.9499,-167"/>
<polygon fill="#000000" stroke="#000000" points="796.95,-163.5001 786.9499,-167 796.9499,-170.5001 796.95,-163.5001"/>
</g>
<!-- NgInputArea -->
<g id="node2" class="node">
<title>NgInputArea</title>
<polygon fill="#ffffb3" stroke="#000000" points="1100.8543,-122 1011.1457,-122 1011.1457,-86 1100.8543,-86 1100.8543,-122"/>
<text text-anchor="middle" x="1056" y="-99.8" font-family="Times,serif" font-size="14.00" fill="#000000">NgInputArea</text>
</g>
<!-- NgInputArea&#45;&gt;jNetworkBootstrap3InputModule -->
<g id="edge2" class="edge">
<title>NgInputArea&#45;&gt;jNetworkBootstrap3InputModule</title>
<path fill="none" stroke="#000000" d="M1027.375,-122.0336C1027.375,-139.0597 1027.375,-162 1027.375,-162 1027.375,-162 796.7968,-162 796.7968,-162"/>
<polygon fill="#000000" stroke="#000000" points="796.7968,-158.5001 786.7968,-162 796.7968,-165.5001 796.7968,-158.5001"/>
</g>
<!-- NgInputCurrency -->
<g id="node3" class="node">
<title>NgInputCurrency</title>
<polygon fill="#ffffb3" stroke="#000000" points="993.2451,-122 878.7549,-122 878.7549,-86 993.2451,-86 993.2451,-122"/>
<text text-anchor="middle" x="936" y="-99.8" font-family="Times,serif" font-size="14.00" fill="#000000">NgInputCurrency</text>
</g>
<!-- NgInputCurrency&#45;&gt;jNetworkBootstrap3InputModule -->
<g id="edge3" class="edge">
<title>NgInputCurrency&#45;&gt;jNetworkBootstrap3InputModule</title>
<path fill="none" stroke="#000000" d="M905.375,-122.2396C905.375,-137.5706 905.375,-157 905.375,-157 905.375,-157 796.8015,-157 796.8015,-157"/>
<polygon fill="#000000" stroke="#000000" points="796.8016,-153.5001 786.8015,-157 796.8015,-160.5001 796.8016,-153.5001"/>
</g>
<!-- NgInputDecimal -->
<g id="node4" class="node">
<title>NgInputDecimal</title>
<polygon fill="#ffffb3" stroke="#000000" points="861.08,-122 750.92,-122 750.92,-86 861.08,-86 861.08,-122"/>
<text text-anchor="middle" x="806" y="-99.8" font-family="Times,serif" font-size="14.00" fill="#000000">NgInputDecimal</text>
</g>
<!-- NgInputDecimal&#45;&gt;jNetworkBootstrap3InputModule -->
<g id="edge4" class="edge">
<title>NgInputDecimal&#45;&gt;jNetworkBootstrap3InputModule</title>
<path fill="none" stroke="#000000" d="M768.8321,-122.1061C768.8321,-122.1061 768.8321,-140.991 768.8321,-140.991"/>
<polygon fill="#000000" stroke="#000000" points="765.3321,-140.9909 768.8321,-150.991 772.3321,-140.991 765.3321,-140.9909"/>
</g>
<!-- NgInputEmail -->
<g id="node5" class="node">
<title>NgInputEmail</title>
<polygon fill="#ffffb3" stroke="#000000" points="733.0968,-122 636.9032,-122 636.9032,-86 733.0968,-86 733.0968,-122"/>
<text text-anchor="middle" x="685" y="-99.8" font-family="Times,serif" font-size="14.00" fill="#000000">NgInputEmail</text>
</g>
<!-- NgInputEmail&#45;&gt;jNetworkBootstrap3InputModule -->
<g id="edge5" class="edge">
<title>NgInputEmail&#45;&gt;jNetworkBootstrap3InputModule</title>
<path fill="none" stroke="#000000" d="M685,-122.1061C685,-122.1061 685,-140.991 685,-140.991"/>
<polygon fill="#000000" stroke="#000000" points="681.5001,-140.9909 685,-150.991 688.5001,-140.991 681.5001,-140.9909"/>
</g>
<!-- NgInputInteger -->
<g id="node6" class="node">
<title>NgInputInteger</title>
<polygon fill="#ffffb3" stroke="#000000" points="619.2992,-122 516.7008,-122 516.7008,-86 619.2992,-86 619.2992,-122"/>
<text text-anchor="middle" x="568" y="-99.8" font-family="Times,serif" font-size="14.00" fill="#000000">NgInputInteger</text>
</g>
<!-- NgInputInteger&#45;&gt;jNetworkBootstrap3InputModule -->
<g id="edge6" class="edge">
<title>NgInputInteger&#45;&gt;jNetworkBootstrap3InputModule</title>
<path fill="none" stroke="#000000" d="M601.2227,-122.1061C601.2227,-122.1061 601.2227,-140.991 601.2227,-140.991"/>
<polygon fill="#000000" stroke="#000000" points="597.7227,-140.9909 601.2227,-150.991 604.7227,-140.991 597.7227,-140.9909"/>
</g>
<!-- NgInputPassword -->
<g id="node7" class="node">
<title>NgInputPassword</title>
<polygon fill="#ffffb3" stroke="#000000" points="499.3118,-122 382.6882,-122 382.6882,-86 499.3118,-86 499.3118,-122"/>
<text text-anchor="middle" x="441" y="-99.8" font-family="Times,serif" font-size="14.00" fill="#000000">NgInputPassword</text>
</g>
<!-- NgInputPassword&#45;&gt;jNetworkBootstrap3InputModule -->
<g id="edge7" class="edge">
<title>NgInputPassword&#45;&gt;jNetworkBootstrap3InputModule</title>
<path fill="none" stroke="#000000" d="M469.6282,-122.2396C469.6282,-137.5706 469.6282,-157 469.6282,-157 469.6282,-157 572.9905,-157 572.9905,-157"/>
<polygon fill="#000000" stroke="#000000" points="572.9905,-160.5001 582.9905,-157 572.9905,-153.5001 572.9905,-160.5001"/>
</g>
<!-- NgInputSearch -->
<g id="node8" class="node">
<title>NgInputSearch</title>
<polygon fill="#ffffb3" stroke="#000000" points="364.2451,-122 263.7549,-122 263.7549,-86 364.2451,-86 364.2451,-122"/>
<text text-anchor="middle" x="314" y="-99.8" font-family="Times,serif" font-size="14.00" fill="#000000">NgInputSearch</text>
</g>
<!-- NgInputSearch&#45;&gt;jNetworkBootstrap3InputModule -->
<g id="edge8" class="edge">
<title>NgInputSearch&#45;&gt;jNetworkBootstrap3InputModule</title>
<path fill="none" stroke="#000000" d="M333.2333,-122.0336C333.2333,-139.0597 333.2333,-162 333.2333,-162 333.2333,-162 573.2545,-162 573.2545,-162"/>
<polygon fill="#000000" stroke="#000000" points="573.2545,-165.5001 583.2545,-162 573.2545,-158.5001 573.2545,-165.5001"/>
</g>
<!-- NgInput  -->
<g id="node11" class="node">
<title>NgInput </title>
<polygon fill="#fb8072" stroke="#000000" points="1128.158,-252 1061.842,-252 1061.842,-216 1128.158,-216 1128.158,-252"/>
<text text-anchor="middle" x="1095" y="-229.8" font-family="Times,serif" font-size="14.00" fill="#000000">NgInput </text>
</g>
<!-- jNetworkBootstrap3InputModule&#45;&gt;NgInput  -->
<g id="edge10" class="edge">
<title>jNetworkBootstrap3InputModule&#45;&gt;NgInput </title>
<path fill="none" stroke="#000000" stroke-dasharray="5,2" d="M786.8316,-172C904.288,-172 1081.4241,-172 1081.4241,-172 1081.4241,-172 1081.4241,-205.7333 1081.4241,-205.7333"/>
<polygon fill="#000000" stroke="#000000" points="1077.9242,-205.7333 1081.4241,-215.7333 1084.9242,-205.7333 1077.9242,-205.7333"/>
</g>
<!-- NgInputArea  -->
<g id="node12" class="node">
<title>NgInputArea </title>
<polygon fill="#fb8072" stroke="#000000" points="1043.8549,-252 950.1451,-252 950.1451,-216 1043.8549,-216 1043.8549,-252"/>
<text text-anchor="middle" x="997" y="-229.8" font-family="Times,serif" font-size="14.00" fill="#000000">NgInputArea </text>
</g>
<!-- jNetworkBootstrap3InputModule&#45;&gt;NgInputArea  -->
<g id="edge11" class="edge">
<title>jNetworkBootstrap3InputModule&#45;&gt;NgInputArea </title>
<path fill="none" stroke="#000000" stroke-dasharray="5,2" d="M786.9394,-177C869.3877,-177 971.8477,-177 971.8477,-177 971.8477,-177 971.8477,-205.9648 971.8477,-205.9648"/>
<polygon fill="#000000" stroke="#000000" points="968.3477,-205.9648 971.8477,-215.9648 975.3477,-205.9649 968.3477,-205.9648"/>
</g>
<!-- NgInputCurrency  -->
<g id="node13" class="node">
<title>NgInputCurrency </title>
<polygon fill="#fb8072" stroke="#000000" points="932.2451,-252 813.7549,-252 813.7549,-216 932.2451,-216 932.2451,-252"/>
<text text-anchor="middle" x="873" y="-229.8" font-family="Times,serif" font-size="14.00" fill="#000000">NgInputCurrency </text>
</g>
<!-- jNetworkBootstrap3InputModule&#45;&gt;NgInputCurrency  -->
<g id="edge12" class="edge">
<title>jNetworkBootstrap3InputModule&#45;&gt;NgInputCurrency </title>
<path fill="none" stroke="#000000" stroke-dasharray="5,2" d="M787.1156,-182C814.8881,-182 837.4588,-182 837.4588,-182 837.4588,-182 837.4588,-205.8129 837.4588,-205.8129"/>
<polygon fill="#000000" stroke="#000000" points="833.9589,-205.8129 837.4588,-215.8129 840.9589,-205.813 833.9589,-205.8129"/>
</g>
<!-- NgInputDecimal  -->
<g id="node14" class="node">
<title>NgInputDecimal </title>
<polygon fill="#fb8072" stroke="#000000" points="795.5808,-252 682.4192,-252 682.4192,-216 795.5808,-216 795.5808,-252"/>
<text text-anchor="middle" x="739" y="-229.8" font-family="Times,serif" font-size="14.00" fill="#000000">NgInputDecimal </text>
</g>
<!-- jNetworkBootstrap3InputModule&#45;&gt;NgInputDecimal  -->
<g id="edge13" class="edge">
<title>jNetworkBootstrap3InputModule&#45;&gt;NgInputDecimal </title>
<path fill="none" stroke="#000000" stroke-dasharray="5,2" d="M734.4571,-187.1061C734.4571,-187.1061 734.4571,-205.991 734.4571,-205.991"/>
<polygon fill="#000000" stroke="#000000" points="730.9571,-205.9909 734.4571,-215.991 737.9571,-205.991 730.9571,-205.9909"/>
</g>
<!-- NgInputEmail  -->
<g id="node15" class="node">
<title>NgInputEmail </title>
<polygon fill="#fb8072" stroke="#000000" points="663.5976,-252 564.4024,-252 564.4024,-216 663.5976,-216 663.5976,-252"/>
<text text-anchor="middle" x="614" y="-229.8" font-family="Times,serif" font-size="14.00" fill="#000000">NgInputEmail </text>
</g>
<!-- jNetworkBootstrap3InputModule&#45;&gt;NgInputEmail  -->
<g id="edge14" class="edge">
<title>jNetworkBootstrap3InputModule&#45;&gt;NgInputEmail </title>
<path fill="none" stroke="#000000" stroke-dasharray="5,2" d="M623.5472,-187.1061C623.5472,-187.1061 623.5472,-205.991 623.5472,-205.991"/>
<polygon fill="#000000" stroke="#000000" points="620.0472,-205.9909 623.5472,-215.991 627.0472,-205.991 620.0472,-205.9909"/>
</g>
<!-- NgInputInteger  -->
<g id="node16" class="node">
<title>NgInputInteger </title>
<polygon fill="#fb8072" stroke="#000000" points="545.799,-252 440.201,-252 440.201,-216 545.799,-216 545.799,-252"/>
<text text-anchor="middle" x="493" y="-229.8" font-family="Times,serif" font-size="14.00" fill="#000000">NgInputInteger </text>
</g>
<!-- jNetworkBootstrap3InputModule&#45;&gt;NgInputInteger  -->
<g id="edge15" class="edge">
<title>jNetworkBootstrap3InputModule&#45;&gt;NgInputInteger </title>
<path fill="none" stroke="#000000" stroke-dasharray="5,2" d="M582.9573,-182C554.5825,-182 531.375,-182 531.375,-182 531.375,-182 531.375,-205.8129 531.375,-205.8129"/>
<polygon fill="#000000" stroke="#000000" points="527.8751,-205.8129 531.375,-215.8129 534.8751,-205.813 527.8751,-205.8129"/>
</g>
<!-- NgInputPassword  -->
<g id="node17" class="node">
<title>NgInputPassword </title>
<polygon fill="#fb8072" stroke="#000000" points="421.8115,-252 302.1885,-252 302.1885,-216 421.8115,-216 421.8115,-252"/>
<text text-anchor="middle" x="362" y="-229.8" font-family="Times,serif" font-size="14.00" fill="#000000">NgInputPassword </text>
</g>
<!-- jNetworkBootstrap3InputModule&#45;&gt;NgInputPassword  -->
<g id="edge16" class="edge">
<title>jNetworkBootstrap3InputModule&#45;&gt;NgInputPassword </title>
<path fill="none" stroke="#000000" stroke-dasharray="5,2" d="M582.9659,-177C502.0114,-177 402.375,-177 402.375,-177 402.375,-177 402.375,-205.9648 402.375,-205.9648"/>
<polygon fill="#000000" stroke="#000000" points="398.8751,-205.9648 402.375,-215.9648 405.8751,-205.9649 398.8751,-205.9648"/>
</g>
<!-- NgInputSearch  -->
<g id="node18" class="node">
<title>NgInputSearch </title>
<polygon fill="#fb8072" stroke="#000000" points="284.2451,-252 179.7549,-252 179.7549,-216 284.2451,-216 284.2451,-252"/>
<text text-anchor="middle" x="232" y="-229.8" font-family="Times,serif" font-size="14.00" fill="#000000">NgInputSearch </text>
</g>
<!-- jNetworkBootstrap3InputModule&#45;&gt;NgInputSearch  -->
<g id="edge17" class="edge">
<title>jNetworkBootstrap3InputModule&#45;&gt;NgInputSearch </title>
<path fill="none" stroke="#000000" stroke-dasharray="5,2" d="M583.1096,-172C461.3565,-172 273.875,-172 273.875,-172 273.875,-172 273.875,-205.7333 273.875,-205.7333"/>
<polygon fill="#000000" stroke="#000000" points="270.3751,-205.7333 273.875,-215.7333 277.3751,-205.7333 270.3751,-205.7333"/>
</g>
<!-- jNetworkBootstrap3TooltipModule -->
<g id="node10" class="node">
<title>jNetworkBootstrap3TooltipModule</title>
<polygon fill="#8dd3c7" stroke="#000000" points="239.5814,-122 236.5814,-126 215.5814,-126 212.5814,-122 24.4186,-122 24.4186,-86 239.5814,-86 239.5814,-122"/>
<text text-anchor="middle" x="132" y="-99.8" font-family="Times,serif" font-size="14.00" fill="#000000">jNetworkBootstrap3TooltipModule</text>
</g>
<!-- jNetworkBootstrap3TooltipModule&#45;&gt;jNetworkBootstrap3InputModule -->
<g id="edge9" class="edge">
<title>jNetworkBootstrap3TooltipModule&#45;&gt;jNetworkBootstrap3InputModule</title>
<path fill="none" stroke="#000000" d="M209.7092,-122.2222C209.7092,-140.8285 209.7092,-167 209.7092,-167 209.7092,-167 573.0382,-167 573.0382,-167"/>
<polygon fill="#000000" stroke="#000000" points="573.0382,-170.5001 583.0382,-167 573.0382,-163.5001 573.0382,-170.5001"/>
</g>
</g>
</svg>
