<?xml version="1.0" encoding="UTF-8" standalone="no"?>
<!DOCTYPE svg PUBLIC "-//W3C//DTD SVG 1.1//EN"
 "http://www.w3.org/Graphics/SVG/1.1/DTD/svg11.dtd">
<!-- Generated by graphviz version 2.40.1 (20161225.0304)
 -->
<!-- Title: dependencies Pages: 1 -->
<svg width="630pt" height="284pt"
 viewBox="0.00 0.00 630.00 284.00" xmlns="http://www.w3.org/2000/svg" xmlns:xlink="http://www.w3.org/1999/xlink">
<g id="graph0" class="graph" transform="scale(1 1) rotate(0) translate(4 280)">
<title>dependencies</title>
<polygon fill="#ffffff" stroke="transparent" points="-4,4 -4,-280 626,-280 626,4 -4,4"/>
<text text-anchor="start" x="290.0091" y="-42.4" font-family="sans-serif" font-weight="bold" font-size="14.00" fill="#000000">Legend</text>
<polygon fill="#ffffb3" stroke="transparent" points="77,-10 77,-30 97,-30 97,-10 77,-10"/>
<text text-anchor="start" x="100.629" y="-15.4" font-family="sans-serif" font-size="14.00" fill="#000000"> &#160;Declarations</text>
<polygon fill="#8dd3c7" stroke="transparent" points="190,-10 190,-30 210,-30 210,-10 190,-10"/>
<text text-anchor="start" x="213.7251" y="-15.4" font-family="sans-serif" font-size="14.00" fill="#000000"> &#160;Module</text>
<polygon fill="#80b1d3" stroke="transparent" points="276,-10 276,-30 296,-30 296,-10 276,-10"/>
<text text-anchor="start" x="299.7812" y="-15.4" font-family="sans-serif" font-size="14.00" fill="#000000"> &#160;Bootstrap</text>
<polygon fill="#fdb462" stroke="transparent" points="373,-10 373,-30 393,-30 393,-10 373,-10"/>
<text text-anchor="start" x="396.6732" y="-15.4" font-family="sans-serif" font-size="14.00" fill="#000000"> &#160;Providers</text>
<polygon fill="#fb8072" stroke="transparent" points="469,-10 469,-30 489,-30 489,-10 469,-10"/>
<text text-anchor="start" x="492.7258" y="-15.4" font-family="sans-serif" font-size="14.00" fill="#000000"> &#160;Exports</text>
<g id="clust1" class="cluster">
<title>cluster_JNetworkBootstrap3TtreeviewModule</title>
<polygon fill="none" stroke="#000000" stroke-dasharray="1,5" points="8,-70 8,-268 614,-268 614,-70 8,-70"/>
</g>
<g id="clust2" class="cluster">
<title>cluster_JNetworkBootstrap3TtreeviewModule_declarations</title>
<polygon fill="none" stroke="#000000" points="21,-78 21,-130 601,-130 601,-78 21,-78"/>
</g>
<g id="clust7" class="cluster">
<title>cluster_JNetworkBootstrap3TtreeviewModule_exports</title>
<polygon fill="none" stroke="#000000" points="16,-208 16,-260 606,-260 606,-208 16,-208"/>
</g>
<!-- NgTreeItemActionComponent -->
<g id="node1" class="node">
<title>NgTreeItemActionComponent</title>
<polygon fill="#ffffb3" stroke="#000000" points="592.8403,-122 405.1597,-122 405.1597,-86 592.8403,-86 592.8403,-122"/>
<text text-anchor="middle" x="499" y="-99.8" font-family="Times,serif" font-size="14.00" fill="#000000">NgTreeItemActionComponent</text>
</g>
<!-- JNetworkBootstrap3TtreeviewModule -->
<g id="node4" class="node">
<title>JNetworkBootstrap3TtreeviewModule</title>
<polygon fill="#8dd3c7" stroke="#000000" points="410.1559,-187 407.1559,-191 386.1559,-191 383.1559,-187 177.8441,-187 177.8441,-151 410.1559,-151 410.1559,-187"/>
<text text-anchor="middle" x="294" y="-164.8" font-family="Times,serif" font-size="14.00" fill="#000000">JNetworkBootstrap3TtreeviewModule</text>
</g>
<!-- NgTreeItemActionComponent&#45;&gt;JNetworkBootstrap3TtreeviewModule -->
<g id="edge1" class="edge">
<title>NgTreeItemActionComponent&#45;&gt;JNetworkBootstrap3TtreeviewModule</title>
<path fill="none" stroke="#000000" d="M405.0671,-104C399.3939,-104 395.9194,-104 395.9194,-104 395.9194,-104 395.9194,-140.8939 395.9194,-140.8939"/>
<polygon fill="#000000" stroke="#000000" points="392.4194,-140.8938 395.9194,-150.8939 399.4194,-140.8939 392.4194,-140.8938"/>
</g>
<!-- NgTreeViewChildComponent -->
<g id="node2" class="node">
<title>NgTreeViewChildComponent</title>
<polygon fill="#ffffb3" stroke="#000000" points="386.5182,-122 201.4818,-122 201.4818,-86 386.5182,-86 386.5182,-122"/>
<text text-anchor="middle" x="294" y="-99.8" font-family="Times,serif" font-size="14.00" fill="#000000">NgTreeViewChildComponent</text>
</g>
<!-- NgTreeViewChildComponent&#45;&gt;JNetworkBootstrap3TtreeviewModule -->
<g id="edge2" class="edge">
<title>NgTreeViewChildComponent&#45;&gt;JNetworkBootstrap3TtreeviewModule</title>
<path fill="none" stroke="#000000" d="M294,-122.1061C294,-122.1061 294,-140.991 294,-140.991"/>
<polygon fill="#000000" stroke="#000000" points="290.5001,-140.9909 294,-150.991 297.5001,-140.991 290.5001,-140.9909"/>
</g>
<!-- NgTreeViewComponent -->
<g id="node3" class="node">
<title>NgTreeViewComponent</title>
<polygon fill="#ffffb3" stroke="#000000" points="183.4003,-122 28.5997,-122 28.5997,-86 183.4003,-86 183.4003,-122"/>
<text text-anchor="middle" x="106" y="-99.8" font-family="Times,serif" font-size="14.00" fill="#000000">NgTreeViewComponent</text>
</g>
<!-- NgTreeViewComponent&#45;&gt;JNetworkBootstrap3TtreeviewModule -->
<g id="edge3" class="edge">
<title>NgTreeViewComponent&#45;&gt;JNetworkBootstrap3TtreeviewModule</title>
<path fill="none" stroke="#000000" d="M183.3182,-104C188.7986,-104 192.2206,-104 192.2206,-104 192.2206,-104 192.2206,-140.8939 192.2206,-140.8939"/>
<polygon fill="#000000" stroke="#000000" points="188.7206,-140.8938 192.2206,-150.8939 195.7206,-140.8939 188.7206,-140.8938"/>
</g>
<!-- NgTreeItemActionComponent  -->
<g id="node5" class="node">
<title>NgTreeItemActionComponent </title>
<polygon fill="#fb8072" stroke="#000000" points="597.8405,-252 406.1595,-252 406.1595,-216 597.8405,-216 597.8405,-252"/>
<text text-anchor="middle" x="502" y="-229.8" font-family="Times,serif" font-size="14.00" fill="#000000">NgTreeItemActionComponent </text>
</g>
<!-- JNetworkBootstrap3TtreeviewModule&#45;&gt;NgTreeItemActionComponent  -->
<g id="edge4" class="edge">
<title>JNetworkBootstrap3TtreeviewModule&#45;&gt;NgTreeItemActionComponent </title>
<path fill="none" stroke="#000000" stroke-dasharray="5,2" d="M397.4194,-187.1061C397.4194,-206.3391 397.4194,-234 397.4194,-234 397.4194,-234 398.2752,-234 398.2752,-234"/>
<polygon fill="#000000" stroke="#000000" points="395.9777,-237.5001 405.9776,-234 395.9776,-230.5001 395.9777,-237.5001"/>
</g>
<!-- NgTreeViewChildComponent  -->
<g id="node6" class="node">
<title>NgTreeViewChildComponent </title>
<polygon fill="#fb8072" stroke="#000000" points="388.5176,-252 199.4824,-252 199.4824,-216 388.5176,-216 388.5176,-252"/>
<text text-anchor="middle" x="294" y="-229.8" font-family="Times,serif" font-size="14.00" fill="#000000">NgTreeViewChildComponent </text>
</g>
<!-- JNetworkBootstrap3TtreeviewModule&#45;&gt;NgTreeViewChildComponent  -->
<g id="edge5" class="edge">
<title>JNetworkBootstrap3TtreeviewModule&#45;&gt;NgTreeViewChildComponent </title>
<path fill="none" stroke="#000000" stroke-dasharray="5,2" d="M294,-187.1061C294,-187.1061 294,-205.991 294,-205.991"/>
<polygon fill="#000000" stroke="#000000" points="290.5001,-205.9909 294,-215.991 297.5001,-205.991 290.5001,-205.9909"/>
</g>
<!-- NgTreeViewComponent  -->
<g id="node7" class="node">
<title>NgTreeViewComponent </title>
<polygon fill="#fb8072" stroke="#000000" points="181.8998,-252 24.1002,-252 24.1002,-216 181.8998,-216 181.8998,-252"/>
<text text-anchor="middle" x="103" y="-229.8" font-family="Times,serif" font-size="14.00" fill="#000000">NgTreeViewComponent </text>
</g>
<!-- JNetworkBootstrap3TtreeviewModule&#45;&gt;NgTreeViewComponent  -->
<g id="edge6" class="edge">
<title>JNetworkBootstrap3TtreeviewModule&#45;&gt;NgTreeViewComponent </title>
<path fill="none" stroke="#000000" stroke-dasharray="5,2" d="M190.7206,-187.1061C190.7206,-206.3391 190.7206,-234 190.7206,-234 190.7206,-234 189.8474,-234 189.8474,-234"/>
<polygon fill="#000000" stroke="#000000" points="191.9889,-230.5001 181.9889,-234 191.9888,-237.5001 191.9889,-230.5001"/>
</g>
</g>
</svg>
