<?xml version="1.0" encoding="UTF-8" standalone="no"?>
<!DOCTYPE svg PUBLIC "-//W3C//DTD SVG 1.1//EN"
 "http://www.w3.org/Graphics/SVG/1.1/DTD/svg11.dtd">
<!-- Generated by graphviz version 2.47.0 (20210316.0004)
 -->
<!-- Title: dependencies Pages: 1 -->
<svg width="630pt" height="284pt"
 viewBox="0.00 0.00 630.00 284.00" xmlns="http://www.w3.org/2000/svg" xmlns:xlink="http://www.w3.org/1999/xlink">
<g id="graph0" class="graph" transform="scale(1 1) rotate(0) translate(4 280)">
<title>dependencies</title>
<polygon fill="white" stroke="transparent" points="-4,4 -4,-280 626,-280 626,4 -4,4"/>
<text text-anchor="start" x="290.01" y="-42.4" font-family="Times-12" font-weight="bold" font-size="14.00">Legend</text>
<polygon fill="#ffffb3" stroke="transparent" points="77,-10 77,-30 97,-30 97,-10 77,-10"/>
<text text-anchor="start" x="100.63" y="-15.4" font-family="Times-12" font-size="14.00"> &#160;Declarations</text>
<polygon fill="#8dd3c7" stroke="transparent" points="190,-10 190,-30 210,-30 210,-10 190,-10"/>
<text text-anchor="start" x="213.73" y="-15.4" font-family="Times-12" font-size="14.00"> &#160;Module</text>
<polygon fill="#80b1d3" stroke="transparent" points="276,-10 276,-30 296,-30 296,-10 276,-10"/>
<text text-anchor="start" x="299.78" y="-15.4" font-family="Times-12" font-size="14.00"> &#160;Bootstrap</text>
<polygon fill="#fdb462" stroke="transparent" points="373,-10 373,-30 393,-30 393,-10 373,-10"/>
<text text-anchor="start" x="396.67" y="-15.4" font-family="Times-12" font-size="14.00"> &#160;Providers</text>
<polygon fill="#fb8072" stroke="transparent" points="469,-10 469,-30 489,-30 489,-10 469,-10"/>
<text text-anchor="start" x="492.73" y="-15.4" font-family="Times-12" font-size="14.00"> &#160;Exports</text>
<g id="clust1" class="cluster">
<title>cluster_JNetworkBootstrap3TtreeviewModule</title>
<polygon fill="none" stroke="black" stroke-dasharray="1,5" points="8,-70 8,-268 614,-268 614,-70 8,-70"/>
</g>
<g id="clust7" class="cluster">
<title>cluster_JNetworkBootstrap3TtreeviewModule_exports</title>
<polygon fill="none" stroke="black" points="16,-208 16,-260 606,-260 606,-208 16,-208"/>
</g>
<g id="clust2" class="cluster">
<title>cluster_JNetworkBootstrap3TtreeviewModule_declarations</title>
<polygon fill="none" stroke="black" points="21,-78 21,-130 601,-130 601,-78 21,-78"/>
</g>
<!-- NgTreeItemActionComponent -->
<g id="node1" class="node">
<title>NgTreeItemActionComponent</title>
<polygon fill="#ffffb3" stroke="black" points="592.84,-122 405.16,-122 405.16,-86 592.84,-86 592.84,-122"/>
<text text-anchor="middle" x="499" y="-99.8" font-family="Times,serif" font-size="14.00">NgTreeItemActionComponent</text>
</g>
<!-- JNetworkBootstrap3TtreeviewModule -->
<g id="node4" class="node">
<title>JNetworkBootstrap3TtreeviewModule</title>
<polygon fill="#8dd3c7" stroke="black" points="410.16,-187 407.16,-191 386.16,-191 383.16,-187 177.84,-187 177.84,-151 410.16,-151 410.16,-187"/>
<text text-anchor="middle" x="294" y="-164.8" font-family="Times,serif" font-size="14.00">JNetworkBootstrap3TtreeviewModule</text>
</g>
<!-- NgTreeItemActionComponent&#45;&gt;JNetworkBootstrap3TtreeviewModule -->
<g id="edge1" class="edge">
<title>NgTreeItemActionComponent&#45;&gt;JNetworkBootstrap3TtreeviewModule</title>
<path fill="none" stroke="black" d="M405.07,-104C399.39,-104 395.92,-104 395.92,-104 395.92,-104 395.92,-140.89 395.92,-140.89"/>
<polygon fill="black" stroke="black" points="392.42,-140.89 395.92,-150.89 399.42,-140.89 392.42,-140.89"/>
</g>
<!-- NgTreeViewChildComponent -->
<g id="node2" class="node">
<title>NgTreeViewChildComponent</title>
<polygon fill="#ffffb3" stroke="black" points="386.52,-122 201.48,-122 201.48,-86 386.52,-86 386.52,-122"/>
<text text-anchor="middle" x="294" y="-99.8" font-family="Times,serif" font-size="14.00">NgTreeViewChildComponent</text>
</g>
<!-- NgTreeViewChildComponent&#45;&gt;JNetworkBootstrap3TtreeviewModule -->
<g id="edge2" class="edge">
<title>NgTreeViewChildComponent&#45;&gt;JNetworkBootstrap3TtreeviewModule</title>
<path fill="none" stroke="black" d="M294,-122.11C294,-122.11 294,-140.99 294,-140.99"/>
<polygon fill="black" stroke="black" points="290.5,-140.99 294,-150.99 297.5,-140.99 290.5,-140.99"/>
</g>
<!-- NgTreeViewComponent -->
<g id="node3" class="node">
<title>NgTreeViewComponent</title>
<polygon fill="#ffffb3" stroke="black" points="183.4,-122 28.6,-122 28.6,-86 183.4,-86 183.4,-122"/>
<text text-anchor="middle" x="106" y="-99.8" font-family="Times,serif" font-size="14.00">NgTreeViewComponent</text>
</g>
<!-- NgTreeViewComponent&#45;&gt;JNetworkBootstrap3TtreeviewModule -->
<g id="edge3" class="edge">
<title>NgTreeViewComponent&#45;&gt;JNetworkBootstrap3TtreeviewModule</title>
<path fill="none" stroke="black" d="M183.32,-104C188.8,-104 192.22,-104 192.22,-104 192.22,-104 192.22,-140.89 192.22,-140.89"/>
<polygon fill="black" stroke="black" points="188.72,-140.89 192.22,-150.89 195.72,-140.89 188.72,-140.89"/>
</g>
<!-- NgTreeItemActionComponent  -->
<g id="node5" class="node">
<title>NgTreeItemActionComponent </title>
<polygon fill="#fb8072" stroke="black" points="597.84,-252 406.16,-252 406.16,-216 597.84,-216 597.84,-252"/>
<text text-anchor="middle" x="502" y="-229.8" font-family="Times,serif" font-size="14.00">NgTreeItemActionComponent </text>
</g>
<!-- JNetworkBootstrap3TtreeviewModule&#45;&gt;NgTreeItemActionComponent  -->
<g id="edge4" class="edge">
<title>JNetworkBootstrap3TtreeviewModule&#45;&gt;NgTreeItemActionComponent </title>
<path fill="none" stroke="black" stroke-dasharray="5,2" d="M397.42,-187.11C397.42,-206.34 397.42,-234 397.42,-234 397.42,-234 398.28,-234 398.28,-234"/>
<polygon fill="black" stroke="black" points="395.98,-237.5 405.98,-234 395.98,-230.5 395.98,-237.5"/>
</g>
<!-- NgTreeViewChildComponent  -->
<g id="node6" class="node">
<title>NgTreeViewChildComponent </title>
<polygon fill="#fb8072" stroke="black" points="388.52,-252 199.48,-252 199.48,-216 388.52,-216 388.52,-252"/>
<text text-anchor="middle" x="294" y="-229.8" font-family="Times,serif" font-size="14.00">NgTreeViewChildComponent </text>
</g>
<!-- JNetworkBootstrap3TtreeviewModule&#45;&gt;NgTreeViewChildComponent  -->
<g id="edge5" class="edge">
<title>JNetworkBootstrap3TtreeviewModule&#45;&gt;NgTreeViewChildComponent </title>
<path fill="none" stroke="black" stroke-dasharray="5,2" d="M294,-187.11C294,-187.11 294,-205.99 294,-205.99"/>
<polygon fill="black" stroke="black" points="290.5,-205.99 294,-215.99 297.5,-205.99 290.5,-205.99"/>
</g>
<!-- NgTreeViewComponent  -->
<g id="node7" class="node">
<title>NgTreeViewComponent </title>
<polygon fill="#fb8072" stroke="black" points="181.9,-252 24.1,-252 24.1,-216 181.9,-216 181.9,-252"/>
<text text-anchor="middle" x="103" y="-229.8" font-family="Times,serif" font-size="14.00">NgTreeViewComponent </text>
</g>
<!-- JNetworkBootstrap3TtreeviewModule&#45;&gt;NgTreeViewComponent  -->
<g id="edge6" class="edge">
<title>JNetworkBootstrap3TtreeviewModule&#45;&gt;NgTreeViewComponent </title>
<path fill="none" stroke="black" stroke-dasharray="5,2" d="M190.72,-187.11C190.72,-206.34 190.72,-234 190.72,-234 190.72,-234 189.85,-234 189.85,-234"/>
<polygon fill="black" stroke="black" points="191.99,-230.5 181.99,-234 191.99,-237.5 191.99,-230.5"/>
</g>
</g>
</svg>
