<?xml version="1.0" encoding="UTF-8" standalone="no"?>
<!DOCTYPE svg PUBLIC "-//W3C//DTD SVG 1.1//EN"
 "http://www.w3.org/Graphics/SVG/1.1/DTD/svg11.dtd">
<!-- Generated by graphviz version 2.47.3 (20210619.1520)
 -->
<!-- Title: dependencies Pages: 1 -->
<svg width="630pt" height="247pt"
 viewBox="0.00 0.00 630.00 246.80" xmlns="http://www.w3.org/2000/svg" xmlns:xlink="http://www.w3.org/1999/xlink">
<g id="graph0" class="graph" transform="scale(1 1) rotate(0) translate(4 242.8)">
<title>dependencies</title>
<polygon fill="white" stroke="transparent" points="-4,4 -4,-242.8 626,-242.8 626,4 -4,4"/>
<text text-anchor="middle" x="311" y="-8.2" font-family="sans-serif" font-size="14.00">dependencies</text>
<g id="clust1" class="cluster">
<title>cluster_JNetworkBootstrap3TtreeviewModule</title>
<polygon fill="none" stroke="black" stroke-dasharray="1,5" points="8,-32.8 8,-230.8 614,-230.8 614,-32.8 8,-32.8"/>
</g>
<g id="clust2" class="cluster">
<title>cluster_JNetworkBootstrap3TtreeviewModule_declarations</title>
<polygon fill="none" stroke="black" points="21,-40.8 21,-92.8 601,-92.8 601,-40.8 21,-40.8"/>
</g>
<g id="clust7" class="cluster">
<title>cluster_JNetworkBootstrap3TtreeviewModule_exports</title>
<polygon fill="none" stroke="black" points="16,-170.8 16,-222.8 606,-222.8 606,-170.8 16,-170.8"/>
</g>
<!-- NgTreeItemActionComponent -->
<g id="node1" class="node">
<title>NgTreeItemActionComponent</title>
<polygon fill="#ffffb3" stroke="black" points="592.84,-84.8 405.16,-84.8 405.16,-48.8 592.84,-48.8 592.84,-84.8"/>
<text text-anchor="middle" x="499" y="-62.6" font-family="Times,serif" font-size="14.00">NgTreeItemActionComponent</text>
</g>
<!-- JNetworkBootstrap3TtreeviewModule -->
<g id="node4" class="node">
<title>JNetworkBootstrap3TtreeviewModule</title>
<polygon fill="#8dd3c7" stroke="black" points="410.16,-149.8 407.16,-153.8 386.16,-153.8 383.16,-149.8 177.84,-149.8 177.84,-113.8 410.16,-113.8 410.16,-149.8"/>
<text text-anchor="middle" x="294" y="-127.6" font-family="Times,serif" font-size="14.00">JNetworkBootstrap3TtreeviewModule</text>
</g>
<!-- NgTreeItemActionComponent&#45;&gt;JNetworkBootstrap3TtreeviewModule -->
<g id="edge1" class="edge">
<title>NgTreeItemActionComponent&#45;&gt;JNetworkBootstrap3TtreeviewModule</title>
<path fill="none" stroke="black" d="M405.07,-66.8C399.39,-66.8 395.92,-66.8 395.92,-66.8 395.92,-66.8 395.92,-103.69 395.92,-103.69"/>
<polygon fill="black" stroke="black" points="392.42,-103.69 395.92,-113.69 399.42,-103.69 392.42,-103.69"/>
</g>
<!-- NgTreeViewChildComponent -->
<g id="node2" class="node">
<title>NgTreeViewChildComponent</title>
<polygon fill="#ffffb3" stroke="black" points="386.52,-84.8 201.48,-84.8 201.48,-48.8 386.52,-48.8 386.52,-84.8"/>
<text text-anchor="middle" x="294" y="-62.6" font-family="Times,serif" font-size="14.00">NgTreeViewChildComponent</text>
</g>
<!-- NgTreeViewChildComponent&#45;&gt;JNetworkBootstrap3TtreeviewModule -->
<g id="edge2" class="edge">
<title>NgTreeViewChildComponent&#45;&gt;JNetworkBootstrap3TtreeviewModule</title>
<path fill="none" stroke="black" d="M294,-84.91C294,-84.91 294,-103.79 294,-103.79"/>
<polygon fill="black" stroke="black" points="290.5,-103.79 294,-113.79 297.5,-103.79 290.5,-103.79"/>
</g>
<!-- NgTreeViewComponent -->
<g id="node3" class="node">
<title>NgTreeViewComponent</title>
<polygon fill="#ffffb3" stroke="black" points="183.4,-84.8 28.6,-84.8 28.6,-48.8 183.4,-48.8 183.4,-84.8"/>
<text text-anchor="middle" x="106" y="-62.6" font-family="Times,serif" font-size="14.00">NgTreeViewComponent</text>
</g>
<!-- NgTreeViewComponent&#45;&gt;JNetworkBootstrap3TtreeviewModule -->
<g id="edge3" class="edge">
<title>NgTreeViewComponent&#45;&gt;JNetworkBootstrap3TtreeviewModule</title>
<path fill="none" stroke="black" d="M183.32,-66.8C188.8,-66.8 192.22,-66.8 192.22,-66.8 192.22,-66.8 192.22,-103.69 192.22,-103.69"/>
<polygon fill="black" stroke="black" points="188.72,-103.69 192.22,-113.69 195.72,-103.69 188.72,-103.69"/>
</g>
<!-- NgTreeItemActionComponent  -->
<g id="node5" class="node">
<title>NgTreeItemActionComponent </title>
<polygon fill="#fb8072" stroke="black" points="597.84,-214.8 406.16,-214.8 406.16,-178.8 597.84,-178.8 597.84,-214.8"/>
<text text-anchor="middle" x="502" y="-192.6" font-family="Times,serif" font-size="14.00">NgTreeItemActionComponent </text>
</g>
<!-- JNetworkBootstrap3TtreeviewModule&#45;&gt;NgTreeItemActionComponent  -->
<g id="edge4" class="edge">
<title>JNetworkBootstrap3TtreeviewModule&#45;&gt;NgTreeItemActionComponent </title>
<path fill="none" stroke="black" stroke-dasharray="5,2" d="M397.42,-149.91C397.42,-169.14 397.42,-196.8 397.42,-196.8 397.42,-196.8 398.28,-196.8 398.28,-196.8"/>
<polygon fill="black" stroke="black" points="395.98,-200.3 405.98,-196.8 395.98,-193.3 395.98,-200.3"/>
</g>
<!-- NgTreeViewChildComponent  -->
<g id="node6" class="node">
<title>NgTreeViewChildComponent </title>
<polygon fill="#fb8072" stroke="black" points="388.52,-214.8 199.48,-214.8 199.48,-178.8 388.52,-178.8 388.52,-214.8"/>
<text text-anchor="middle" x="294" y="-192.6" font-family="Times,serif" font-size="14.00">NgTreeViewChildComponent </text>
</g>
<!-- JNetworkBootstrap3TtreeviewModule&#45;&gt;NgTreeViewChildComponent  -->
<g id="edge5" class="edge">
<title>JNetworkBootstrap3TtreeviewModule&#45;&gt;NgTreeViewChildComponent </title>
<path fill="none" stroke="black" stroke-dasharray="5,2" d="M294,-149.91C294,-149.91 294,-168.79 294,-168.79"/>
<polygon fill="black" stroke="black" points="290.5,-168.79 294,-178.79 297.5,-168.79 290.5,-168.79"/>
</g>
<!-- NgTreeViewComponent  -->
<g id="node7" class="node">
<title>NgTreeViewComponent </title>
<polygon fill="#fb8072" stroke="black" points="181.9,-214.8 24.1,-214.8 24.1,-178.8 181.9,-178.8 181.9,-214.8"/>
<text text-anchor="middle" x="103" y="-192.6" font-family="Times,serif" font-size="14.00">NgTreeViewComponent </text>
</g>
<!-- JNetworkBootstrap3TtreeviewModule&#45;&gt;NgTreeViewComponent  -->
<g id="edge6" class="edge">
<title>JNetworkBootstrap3TtreeviewModule&#45;&gt;NgTreeViewComponent </title>
<path fill="none" stroke="black" stroke-dasharray="5,2" d="M190.72,-149.91C190.72,-169.14 190.72,-196.8 190.72,-196.8 190.72,-196.8 189.85,-196.8 189.85,-196.8"/>
<polygon fill="black" stroke="black" points="191.99,-193.3 181.99,-196.8 191.99,-200.3 191.99,-193.3"/>
</g>
</g>
</svg>
