<?xml version="1.0" encoding="UTF-8" standalone="no"?>
<!DOCTYPE svg PUBLIC "-//W3C//DTD SVG 1.1//EN"
 "http://www.w3.org/Graphics/SVG/1.1/DTD/svg11.dtd">
<!-- Generated by graphviz version 2.47.3 (20210619.1520)
 -->
<!-- Title: dependencies Pages: 1 -->
<svg width="354pt" height="174pt"
 viewBox="0.00 0.00 354.00 173.80" xmlns="http://www.w3.org/2000/svg" xmlns:xlink="http://www.w3.org/1999/xlink">
<g id="graph0" class="graph" transform="scale(1 1) rotate(0) translate(4 169.8)">
<title>dependencies</title>
<polygon fill="white" stroke="transparent" points="-4,4 -4,-169.8 350,-169.8 350,4 -4,4"/>
<text text-anchor="middle" x="173" y="-8.2" font-family="sans-serif" font-size="14.00">dependencies</text>
<g id="clust1" class="cluster">
<title>cluster_TabsModule</title>
<polygon fill="none" stroke="black" stroke-dasharray="1,5" points="8,-32.8 8,-157.8 338,-157.8 338,-32.8 8,-32.8"/>
</g>
<g id="clust2" class="cluster">
<title>cluster_TabsModule_declarations</title>
<polygon fill="none" stroke="black" points="172,-40.8 172,-92.8 330,-92.8 330,-40.8 172,-40.8"/>
</g>
<g id="clust4" class="cluster">
<title>cluster_TabsModule_imports</title>
<polygon fill="none" stroke="black" points="16,-40.8 16,-92.8 164,-92.8 164,-40.8 16,-40.8"/>
</g>
<!-- DemoTabsComponent -->
<g id="node1" class="node">
<title>DemoTabsComponent</title>
<polygon fill="#ffffb3" stroke="black" points="322.26,-84.8 179.74,-84.8 179.74,-48.8 322.26,-48.8 322.26,-84.8"/>
<text text-anchor="middle" x="251" y="-62.6" font-family="Times,serif" font-size="14.00">DemoTabsComponent</text>
</g>
<!-- TabsModule -->
<g id="node2" class="node">
<title>TabsModule</title>
<polygon fill="#8dd3c7" stroke="black" points="213.26,-149.8 210.26,-153.8 189.26,-153.8 186.26,-149.8 126.74,-149.8 126.74,-113.8 213.26,-113.8 213.26,-149.8"/>
<text text-anchor="middle" x="170" y="-127.6" font-family="Times,serif" font-size="14.00">TabsModule</text>
</g>
<!-- DemoTabsComponent&#45;&gt;TabsModule -->
<g id="edge1" class="edge">
<title>DemoTabsComponent&#45;&gt;TabsModule</title>
<path fill="none" stroke="black" d="M196.5,-84.91C196.5,-84.91 196.5,-103.79 196.5,-103.79"/>
<polygon fill="black" stroke="black" points="193,-103.79 196.5,-113.79 200,-103.79 193,-103.79"/>
</g>
<!-- TabsRoutingModule -->
<g id="node3" class="node">
<title>TabsRoutingModule</title>
<polygon fill="#8dd3c7" stroke="black" points="155.88,-84.8 152.88,-88.8 131.88,-88.8 128.88,-84.8 24.12,-84.8 24.12,-48.8 155.88,-48.8 155.88,-84.8"/>
<text text-anchor="middle" x="90" y="-62.6" font-family="Times,serif" font-size="14.00">TabsRoutingModule</text>
</g>
<!-- TabsRoutingModule&#45;&gt;TabsModule -->
<g id="edge2" class="edge">
<title>TabsRoutingModule&#45;&gt;TabsModule</title>
<path fill="none" stroke="black" d="M141.28,-84.91C141.28,-84.91 141.28,-103.79 141.28,-103.79"/>
<polygon fill="black" stroke="black" points="137.78,-103.79 141.28,-113.79 144.78,-103.79 137.78,-103.79"/>
</g>
</g>
</svg>
