<?xml version="1.0" encoding="UTF-8" standalone="no"?>
<!DOCTYPE svg PUBLIC "-//W3C//DTD SVG 1.1//EN"
 "http://www.w3.org/Graphics/SVG/1.1/DTD/svg11.dtd">
<!-- Generated by graphviz version 2.47.0 (20210316.0004)
 -->
<!-- Title: dependencies Pages: 1 -->
<svg width="504pt" height="284pt"
 viewBox="0.00 0.00 504.00 284.00" xmlns="http://www.w3.org/2000/svg" xmlns:xlink="http://www.w3.org/1999/xlink">
<g id="graph0" class="graph" transform="scale(1 1) rotate(0) translate(4 280)">
<title>dependencies</title>
<polygon fill="white" stroke="transparent" points="-4,4 -4,-280 500,-280 500,4 -4,4"/>
<text text-anchor="start" x="227.01" y="-42.4" font-family="Times-12" font-weight="bold" font-size="14.00">Legend</text>
<polygon fill="#ffffb3" stroke="transparent" points="14,-10 14,-30 34,-30 34,-10 14,-10"/>
<text text-anchor="start" x="37.63" y="-15.4" font-family="Times-12" font-size="14.00"> &#160;Declarations</text>
<polygon fill="#8dd3c7" stroke="transparent" points="127,-10 127,-30 147,-30 147,-10 127,-10"/>
<text text-anchor="start" x="150.73" y="-15.4" font-family="Times-12" font-size="14.00"> &#160;Module</text>
<polygon fill="#80b1d3" stroke="transparent" points="213,-10 213,-30 233,-30 233,-10 213,-10"/>
<text text-anchor="start" x="236.78" y="-15.4" font-family="Times-12" font-size="14.00"> &#160;Bootstrap</text>
<polygon fill="#fdb462" stroke="transparent" points="310,-10 310,-30 330,-30 330,-10 310,-10"/>
<text text-anchor="start" x="333.67" y="-15.4" font-family="Times-12" font-size="14.00"> &#160;Providers</text>
<polygon fill="#fb8072" stroke="transparent" points="406,-10 406,-30 426,-30 426,-10 406,-10"/>
<text text-anchor="start" x="429.73" y="-15.4" font-family="Times-12" font-size="14.00"> &#160;Exports</text>
<g id="clust1" class="cluster">
<title>cluster_SACBootstrap4DropdownModule</title>
<polygon fill="none" stroke="black" stroke-dasharray="1,5" points="48,-70 48,-268 448,-268 448,-70 48,-70"/>
</g>
<g id="clust2" class="cluster">
<title>cluster_SACBootstrap4DropdownModule_declarations</title>
<polygon fill="none" stroke="black" points="60,-78 60,-130 436,-130 436,-78 60,-78"/>
</g>
<g id="clust6" class="cluster">
<title>cluster_SACBootstrap4DropdownModule_exports</title>
<polygon fill="none" stroke="black" points="56,-208 56,-260 440,-260 440,-208 56,-208"/>
</g>
<!-- NgDropdownComponent -->
<g id="node1" class="node">
<title>NgDropdownComponent</title>
<polygon fill="#ffffb3" stroke="black" points="428.31,-122 269.69,-122 269.69,-86 428.31,-86 428.31,-122"/>
<text text-anchor="middle" x="349" y="-99.8" font-family="Times,serif" font-size="14.00">NgDropdownComponent</text>
</g>
<!-- SACBootstrap4DropdownModule -->
<g id="node3" class="node">
<title>SACBootstrap4DropdownModule</title>
<polygon fill="#8dd3c7" stroke="black" points="352.09,-187 349.09,-191 328.09,-191 325.09,-187 143.91,-187 143.91,-151 352.09,-151 352.09,-187"/>
<text text-anchor="middle" x="248" y="-164.8" font-family="Times,serif" font-size="14.00">SACBootstrap4DropdownModule</text>
</g>
<!-- NgDropdownComponent&#45;&gt;SACBootstrap4DropdownModule -->
<g id="edge1" class="edge">
<title>NgDropdownComponent&#45;&gt;SACBootstrap4DropdownModule</title>
<path fill="none" stroke="black" d="M310.94,-122.11C310.94,-122.11 310.94,-140.99 310.94,-140.99"/>
<polygon fill="black" stroke="black" points="307.44,-140.99 310.94,-150.99 314.44,-140.99 307.44,-140.99"/>
</g>
<!-- NgDropdownOptionDirective -->
<g id="node2" class="node">
<title>NgDropdownOptionDirective</title>
<polygon fill="#ffffb3" stroke="black" points="251.95,-122 68.05,-122 68.05,-86 251.95,-86 251.95,-122"/>
<text text-anchor="middle" x="160" y="-99.8" font-family="Times,serif" font-size="14.00">NgDropdownOptionDirective</text>
</g>
<!-- NgDropdownOptionDirective&#45;&gt;SACBootstrap4DropdownModule -->
<g id="edge2" class="edge">
<title>NgDropdownOptionDirective&#45;&gt;SACBootstrap4DropdownModule</title>
<path fill="none" stroke="black" d="M197.97,-122.11C197.97,-122.11 197.97,-140.99 197.97,-140.99"/>
<polygon fill="black" stroke="black" points="194.47,-140.99 197.97,-150.99 201.47,-140.99 194.47,-140.99"/>
</g>
<!-- NgDropdownComponent  -->
<g id="node4" class="node">
<title>NgDropdownComponent </title>
<polygon fill="#fb8072" stroke="black" points="431.81,-252 270.19,-252 270.19,-216 431.81,-216 431.81,-252"/>
<text text-anchor="middle" x="351" y="-229.8" font-family="Times,serif" font-size="14.00">NgDropdownComponent </text>
</g>
<!-- SACBootstrap4DropdownModule&#45;&gt;NgDropdownComponent  -->
<g id="edge3" class="edge">
<title>SACBootstrap4DropdownModule&#45;&gt;NgDropdownComponent </title>
<path fill="none" stroke="black" stroke-dasharray="5,2" d="M311.07,-187.11C311.07,-187.11 311.07,-205.99 311.07,-205.99"/>
<polygon fill="black" stroke="black" points="307.57,-205.99 311.07,-215.99 314.57,-205.99 307.57,-205.99"/>
</g>
<!-- NgDropdownOptionDirective  -->
<g id="node5" class="node">
<title>NgDropdownOptionDirective </title>
<polygon fill="#fb8072" stroke="black" points="251.95,-252 64.05,-252 64.05,-216 251.95,-216 251.95,-252"/>
<text text-anchor="middle" x="158" y="-229.8" font-family="Times,serif" font-size="14.00">NgDropdownOptionDirective </text>
</g>
<!-- SACBootstrap4DropdownModule&#45;&gt;NgDropdownOptionDirective  -->
<g id="edge4" class="edge">
<title>SACBootstrap4DropdownModule&#45;&gt;NgDropdownOptionDirective </title>
<path fill="none" stroke="black" stroke-dasharray="5,2" d="M197.84,-187.11C197.84,-187.11 197.84,-205.99 197.84,-205.99"/>
<polygon fill="black" stroke="black" points="194.34,-205.99 197.84,-215.99 201.34,-205.99 194.34,-205.99"/>
</g>
</g>
</svg>
