<?xml version="1.0" encoding="UTF-8" standalone="no"?>
<!DOCTYPE svg PUBLIC "-//W3C//DTD SVG 1.1//EN"
 "http://www.w3.org/Graphics/SVG/1.1/DTD/svg11.dtd">
<!-- Generated by graphviz version 2.47.3 (20210619.1520)
 -->
<!-- Title: dependencies Pages: 1 -->
<svg width="404pt" height="174pt"
 viewBox="0.00 0.00 404.00 173.80" xmlns="http://www.w3.org/2000/svg" xmlns:xlink="http://www.w3.org/1999/xlink">
<g id="graph0" class="graph" transform="scale(1 1) rotate(0) translate(4 169.8)">
<title>dependencies</title>
<polygon fill="white" stroke="transparent" points="-4,4 -4,-169.8 400,-169.8 400,4 -4,4"/>
<text text-anchor="middle" x="198" y="-8.2" font-family="sans-serif" font-size="14.00">dependencies</text>
<g id="clust1" class="cluster">
<title>cluster_UploaderModule</title>
<polygon fill="none" stroke="black" stroke-dasharray="1,5" points="8,-32.8 8,-157.8 388,-157.8 388,-32.8 8,-32.8"/>
</g>
<g id="clust2" class="cluster">
<title>cluster_UploaderModule_declarations</title>
<polygon fill="none" stroke="black" points="196,-40.8 196,-92.8 380,-92.8 380,-40.8 196,-40.8"/>
</g>
<g id="clust4" class="cluster">
<title>cluster_UploaderModule_imports</title>
<polygon fill="none" stroke="black" points="16,-40.8 16,-92.8 188,-92.8 188,-40.8 16,-40.8"/>
</g>
<!-- DemoUploaderComponent -->
<g id="node1" class="node">
<title>DemoUploaderComponent</title>
<polygon fill="#ffffb3" stroke="black" points="371.63,-84.8 204.37,-84.8 204.37,-48.8 371.63,-48.8 371.63,-84.8"/>
<text text-anchor="middle" x="288" y="-62.6" font-family="Times,serif" font-size="14.00">DemoUploaderComponent</text>
</g>
<!-- UploaderModule -->
<g id="node2" class="node">
<title>UploaderModule</title>
<polygon fill="#8dd3c7" stroke="black" points="250.64,-149.8 247.64,-153.8 226.64,-153.8 223.64,-149.8 139.36,-149.8 139.36,-113.8 250.64,-113.8 250.64,-149.8"/>
<text text-anchor="middle" x="195" y="-127.6" font-family="Times,serif" font-size="14.00">UploaderModule</text>
</g>
<!-- DemoUploaderComponent&#45;&gt;UploaderModule -->
<g id="edge1" class="edge">
<title>DemoUploaderComponent&#45;&gt;UploaderModule</title>
<path fill="none" stroke="black" d="M227.5,-84.91C227.5,-84.91 227.5,-103.79 227.5,-103.79"/>
<polygon fill="black" stroke="black" points="224,-103.79 227.5,-113.79 231,-103.79 224,-103.79"/>
</g>
<!-- UploaderRoutingModule -->
<g id="node3" class="node">
<title>UploaderRoutingModule</title>
<polygon fill="#8dd3c7" stroke="black" points="180.25,-84.8 177.25,-88.8 156.25,-88.8 153.25,-84.8 23.75,-84.8 23.75,-48.8 180.25,-48.8 180.25,-84.8"/>
<text text-anchor="middle" x="102" y="-62.6" font-family="Times,serif" font-size="14.00">UploaderRoutingModule</text>
</g>
<!-- UploaderRoutingModule&#45;&gt;UploaderModule -->
<g id="edge2" class="edge">
<title>UploaderRoutingModule&#45;&gt;UploaderModule</title>
<path fill="none" stroke="black" d="M159.78,-84.91C159.78,-84.91 159.78,-103.79 159.78,-103.79"/>
<polygon fill="black" stroke="black" points="156.28,-103.79 159.78,-113.79 163.28,-103.79 156.28,-103.79"/>
</g>
</g>
</svg>
