<?xml version="1.0" encoding="UTF-8" standalone="no"?>
<!DOCTYPE svg PUBLIC "-//W3C//DTD SVG 1.1//EN"
 "http://www.w3.org/Graphics/SVG/1.1/DTD/svg11.dtd">
<!-- Generated by graphviz version 2.40.1 (20161225.0304)
 -->
<!-- Title: dependencies Pages: 1 -->
<svg width="1680pt" height="349pt"
 viewBox="0.00 0.00 1680.00 349.00" xmlns="http://www.w3.org/2000/svg" xmlns:xlink="http://www.w3.org/1999/xlink">
<g id="graph0" class="graph" transform="scale(1 1) rotate(0) translate(4 345)">
<title>dependencies</title>
<polygon fill="#ffffff" stroke="transparent" points="-4,4 -4,-345 1676,-345 1676,4 -4,4"/>
<text text-anchor="start" x="815.0091" y="-42.4" font-family="sans-serif" font-weight="bold" font-size="14.00" fill="#000000">Legend</text>
<polygon fill="#ffffb3" stroke="transparent" points="602,-10 602,-30 622,-30 622,-10 602,-10"/>
<text text-anchor="start" x="625.629" y="-15.4" font-family="sans-serif" font-size="14.00" fill="#000000"> &#160;Declarations</text>
<polygon fill="#8dd3c7" stroke="transparent" points="715,-10 715,-30 735,-30 735,-10 715,-10"/>
<text text-anchor="start" x="738.7251" y="-15.4" font-family="sans-serif" font-size="14.00" fill="#000000"> &#160;Module</text>
<polygon fill="#80b1d3" stroke="transparent" points="801,-10 801,-30 821,-30 821,-10 801,-10"/>
<text text-anchor="start" x="824.7812" y="-15.4" font-family="sans-serif" font-size="14.00" fill="#000000"> &#160;Bootstrap</text>
<polygon fill="#fdb462" stroke="transparent" points="898,-10 898,-30 918,-30 918,-10 898,-10"/>
<text text-anchor="start" x="921.6732" y="-15.4" font-family="sans-serif" font-size="14.00" fill="#000000"> &#160;Providers</text>
<polygon fill="#fb8072" stroke="transparent" points="994,-10 994,-30 1014,-30 1014,-10 994,-10"/>
<text text-anchor="start" x="1017.7258" y="-15.4" font-family="sans-serif" font-size="14.00" fill="#000000"> &#160;Exports</text>
<g id="clust1" class="cluster">
<title>cluster_JNetworkBootstrap3DateTimeModule</title>
<polygon fill="none" stroke="#000000" stroke-dasharray="1,5" points="8,-70 8,-333 1664,-333 1664,-70 8,-70"/>
</g>
<g id="clust2" class="cluster">
<title>cluster_JNetworkBootstrap3DateTimeModule_declarations</title>
<polygon fill="none" stroke="#000000" points="341,-143 341,-195 989,-195 989,-143 341,-143"/>
</g>
<g id="clust3" class="cluster">
<title>cluster_JNetworkBootstrap3DateTimeModule_NgDateComponent_providers</title>
<polygon fill="none" stroke="#000000" points="16,-78 16,-130 1656,-130 1656,-78 16,-78"/>
</g>
<g id="clust8" class="cluster">
<title>cluster_JNetworkBootstrap3DateTimeModule_exports</title>
<polygon fill="none" stroke="#000000" points="333,-273 333,-325 995,-325 995,-273 333,-273"/>
</g>
<!-- NgDateComponent -->
<g id="node1" class="node">
<title>NgDateComponent</title>
<polygon fill="#ffffb3" stroke="#000000" points="981.3655,-187 856.6345,-187 856.6345,-151 981.3655,-151 981.3655,-187"/>
<text text-anchor="middle" x="919" y="-164.8" font-family="Times,serif" font-size="14.00" fill="#000000">NgDateComponent</text>
</g>
<!-- JNetworkBootstrap3DateTimeModule -->
<g id="node5" class="node">
<title>JNetworkBootstrap3DateTimeModule</title>
<polygon fill="#8dd3c7" stroke="#000000" points="777.8861,-252 774.8861,-256 753.8861,-256 750.8861,-252 546.1139,-252 546.1139,-216 777.8861,-216 777.8861,-252"/>
<text text-anchor="middle" x="662" y="-229.8" font-family="Times,serif" font-size="14.00" fill="#000000">JNetworkBootstrap3DateTimeModule</text>
</g>
<!-- NgDateComponent&#45;&gt;JNetworkBootstrap3DateTimeModule -->
<g id="edge1" class="edge">
<title>NgDateComponent&#45;&gt;JNetworkBootstrap3DateTimeModule</title>
<path fill="none" stroke="#000000" d="M940.5609,-187.0225C940.5609,-204.3734 940.5609,-228 940.5609,-228 940.5609,-228 787.7149,-228 787.7149,-228"/>
<polygon fill="#000000" stroke="#000000" points="787.7149,-224.5001 777.7149,-228 787.7149,-231.5001 787.7149,-224.5001"/>
</g>
<!-- NgDateSelectorComponent -->
<g id="node2" class="node">
<title>NgDateSelectorComponent</title>
<polygon fill="#ffffb3" stroke="#000000" points="838.2338,-187 667.7662,-187 667.7662,-151 838.2338,-151 838.2338,-187"/>
<text text-anchor="middle" x="753" y="-164.8" font-family="Times,serif" font-size="14.00" fill="#000000">NgDateSelectorComponent</text>
</g>
<!-- NgDateSelectorComponent&#45;&gt;JNetworkBootstrap3DateTimeModule -->
<g id="edge4" class="edge">
<title>NgDateSelectorComponent&#45;&gt;JNetworkBootstrap3DateTimeModule</title>
<path fill="none" stroke="#000000" d="M722.6631,-187.1061C722.6631,-187.1061 722.6631,-205.991 722.6631,-205.991"/>
<polygon fill="#000000" stroke="#000000" points="719.1631,-205.9909 722.6631,-215.991 726.1631,-205.991 719.1631,-205.9909"/>
</g>
<!-- NgDateTimeComponent -->
<g id="node3" class="node">
<title>NgDateTimeComponent</title>
<polygon fill="#ffffb3" stroke="#000000" points="649.4144,-187 494.5856,-187 494.5856,-151 649.4144,-151 649.4144,-187"/>
<text text-anchor="middle" x="572" y="-164.8" font-family="Times,serif" font-size="14.00" fill="#000000">NgDateTimeComponent</text>
</g>
<!-- NgDateTimeComponent&#45;&gt;JNetworkBootstrap3DateTimeModule -->
<g id="edge5" class="edge">
<title>NgDateTimeComponent&#45;&gt;JNetworkBootstrap3DateTimeModule</title>
<path fill="none" stroke="#000000" d="M597.757,-187.1061C597.757,-187.1061 597.757,-205.991 597.757,-205.991"/>
<polygon fill="#000000" stroke="#000000" points="594.2571,-205.9909 597.757,-215.991 601.2571,-205.991 594.2571,-205.9909"/>
</g>
<!-- NgTimeComponent -->
<g id="node4" class="node">
<title>NgTimeComponent</title>
<polygon fill="#ffffb3" stroke="#000000" points="476.9874,-187 349.0126,-187 349.0126,-151 476.9874,-151 476.9874,-187"/>
<text text-anchor="middle" x="413" y="-164.8" font-family="Times,serif" font-size="14.00" fill="#000000">NgTimeComponent</text>
</g>
<!-- NgTimeComponent&#45;&gt;JNetworkBootstrap3DateTimeModule -->
<g id="edge6" class="edge">
<title>NgTimeComponent&#45;&gt;JNetworkBootstrap3DateTimeModule</title>
<path fill="none" stroke="#000000" d="M431.4979,-187.0225C431.4979,-204.3734 431.4979,-228 431.4979,-228 431.4979,-228 536.0737,-228 536.0737,-228"/>
<polygon fill="#000000" stroke="#000000" points="536.0737,-231.5001 546.0737,-228 536.0736,-224.5001 536.0737,-231.5001"/>
</g>
<!-- NgDateComponent  -->
<g id="node8" class="node">
<title>NgDateComponent </title>
<polygon fill="#fb8072" stroke="#000000" points="987.3659,-317 858.6341,-317 858.6341,-281 987.3659,-281 987.3659,-317"/>
<text text-anchor="middle" x="923" y="-294.8" font-family="Times,serif" font-size="14.00" fill="#000000">NgDateComponent </text>
</g>
<!-- JNetworkBootstrap3DateTimeModule&#45;&gt;NgDateComponent  -->
<g id="edge7" class="edge">
<title>JNetworkBootstrap3DateTimeModule&#45;&gt;NgDateComponent </title>
<path fill="none" stroke="#000000" stroke-dasharray="5,2" d="M777.7113,-240C838.1594,-240 899.6891,-240 899.6891,-240 899.6891,-240 899.6891,-270.9775 899.6891,-270.9775"/>
<polygon fill="#000000" stroke="#000000" points="896.1892,-270.9774 899.6891,-280.9775 903.1892,-270.9775 896.1892,-270.9774"/>
</g>
<!-- NgDateSelectorComponent  -->
<g id="node9" class="node">
<title>NgDateSelectorComponent </title>
<polygon fill="#fb8072" stroke="#000000" points="841.2338,-317 666.7662,-317 666.7662,-281 841.2338,-281 841.2338,-317"/>
<text text-anchor="middle" x="754" y="-294.8" font-family="Times,serif" font-size="14.00" fill="#000000">NgDateSelectorComponent </text>
</g>
<!-- JNetworkBootstrap3DateTimeModule&#45;&gt;NgDateSelectorComponent  -->
<g id="edge8" class="edge">
<title>JNetworkBootstrap3DateTimeModule&#45;&gt;NgDateSelectorComponent </title>
<path fill="none" stroke="#000000" stroke-dasharray="5,2" d="M722.2881,-252.1061C722.2881,-252.1061 722.2881,-270.991 722.2881,-270.991"/>
<polygon fill="#000000" stroke="#000000" points="718.7881,-270.9909 722.2881,-280.991 725.7881,-270.991 718.7881,-270.9909"/>
</g>
<!-- NgDateTimeComponent  -->
<g id="node10" class="node">
<title>NgDateTimeComponent </title>
<polygon fill="#fb8072" stroke="#000000" points="648.9138,-317 491.0862,-317 491.0862,-281 648.9138,-281 648.9138,-317"/>
<text text-anchor="middle" x="570" y="-294.8" font-family="Times,serif" font-size="14.00" fill="#000000">NgDateTimeComponent </text>
</g>
<!-- JNetworkBootstrap3DateTimeModule&#45;&gt;NgDateTimeComponent  -->
<g id="edge9" class="edge">
<title>JNetworkBootstrap3DateTimeModule&#45;&gt;NgDateTimeComponent </title>
<path fill="none" stroke="#000000" stroke-dasharray="5,2" d="M597.632,-252.1061C597.632,-252.1061 597.632,-270.991 597.632,-270.991"/>
<polygon fill="#000000" stroke="#000000" points="594.1321,-270.9909 597.632,-280.991 601.1321,-270.991 594.1321,-270.9909"/>
</g>
<!-- NgTimeComponent  -->
<g id="node11" class="node">
<title>NgTimeComponent </title>
<polygon fill="#fb8072" stroke="#000000" points="472.9883,-317 341.0117,-317 341.0117,-281 472.9883,-281 472.9883,-317"/>
<text text-anchor="middle" x="407" y="-294.8" font-family="Times,serif" font-size="14.00" fill="#000000">NgTimeComponent </text>
</g>
<!-- JNetworkBootstrap3DateTimeModule&#45;&gt;NgTimeComponent  -->
<g id="edge10" class="edge">
<title>JNetworkBootstrap3DateTimeModule&#45;&gt;NgTimeComponent </title>
<path fill="none" stroke="#000000" stroke-dasharray="5,2" d="M545.9662,-240C472.1059,-240 390.2521,-240 390.2521,-240 390.2521,-240 390.2521,-270.9775 390.2521,-270.9775"/>
<polygon fill="#000000" stroke="#000000" points="386.7522,-270.9774 390.2521,-280.9775 393.7522,-270.9775 386.7522,-270.9774"/>
</g>
<!-- { provide: NG_VALUE_ACCESSOR, multi: true, useExisting: forwardRef(() =&gt; NgDateComponent) } -->
<g id="node6" class="node">
<title>{ provide: NG_VALUE_ACCESSOR, multi: true, useExisting: forwardRef(() =&gt; NgDateComponent) }</title>
<ellipse fill="#fdb462" stroke="#000000" cx="1234" cy="-104" rx="414.3721" ry="18"/>
<text text-anchor="middle" x="1234" y="-99.8" font-family="Times,serif" font-size="14.00" fill="#000000">{ provide: NG_VALUE_ACCESSOR, multi: true, useExisting: forwardRef(() =&gt; NgDateComponent) }</text>
</g>
<!-- { provide: NG_VALUE_ACCESSOR, multi: true, useExisting: forwardRef(() =&gt; NgDateComponent) }&#45;&gt;NgDateComponent -->
<g id="edge2" class="edge">
<title>{ provide: NG_VALUE_ACCESSOR, multi: true, useExisting: forwardRef(() =&gt; NgDateComponent) }&#45;&gt;NgDateComponent</title>
<path fill="none" stroke="#000000" d="M939.8109,-116.8419C939.8109,-116.8419 939.8109,-140.5231 939.8109,-140.5231"/>
<polygon fill="#000000" stroke="#000000" points="936.311,-140.523 939.8109,-150.5231 943.311,-140.5231 936.311,-140.523"/>
</g>
<!-- { provide: NG_VALIDATORS, multi: true, useExisting: forwardRef(() =&gt; NgDateComponent) } -->
<g id="node7" class="node">
<title>{ provide: NG_VALIDATORS, multi: true, useExisting: forwardRef(() =&gt; NgDateComponent) }</title>
<ellipse fill="#fdb462" stroke="#000000" cx="413" cy="-104" rx="388.8485" ry="18"/>
<text text-anchor="middle" x="413" y="-99.8" font-family="Times,serif" font-size="14.00" fill="#000000">{ provide: NG_VALIDATORS, multi: true, useExisting: forwardRef(() =&gt; NgDateComponent) }</text>
</g>
<!-- { provide: NG_VALIDATORS, multi: true, useExisting: forwardRef(() =&gt; NgDateComponent) }&#45;&gt;NgDateComponent -->
<g id="edge3" class="edge">
<title>{ provide: NG_VALIDATORS, multi: true, useExisting: forwardRef(() =&gt; NgDateComponent) }&#45;&gt;NgDateComponent</title>
<path fill="none" stroke="#000000" d="M734.6537,-114.4414C734.6537,-124.1094 734.6537,-137 734.6537,-137 734.6537,-137 898.1891,-137 898.1891,-137 898.1891,-137 898.1891,-140.7566 898.1891,-140.7566"/>
<polygon fill="#000000" stroke="#000000" points="894.6892,-140.7566 898.1891,-150.7566 901.6892,-140.7566 894.6892,-140.7566"/>
</g>
</g>
</svg>
