<?xml version="1.0" encoding="UTF-8" standalone="no"?>
<!DOCTYPE svg PUBLIC "-//W3C//DTD SVG 1.1//EN"
 "http://www.w3.org/Graphics/SVG/1.1/DTD/svg11.dtd">
<!-- Generated by graphviz version 2.40.1 (20161225.0304)
 -->
<!-- Title: dependencies Pages: 1 -->
<svg width="1500pt" height="349pt"
 viewBox="0.00 0.00 1500.00 349.00" xmlns="http://www.w3.org/2000/svg" xmlns:xlink="http://www.w3.org/1999/xlink">
<g id="graph0" class="graph" transform="scale(1 1) rotate(0) translate(4 345)">
<title>dependencies</title>
<polygon fill="#ffffff" stroke="transparent" points="-4,4 -4,-345 1496,-345 1496,4 -4,4"/>
<text text-anchor="start" x="725.0091" y="-42.4" font-family="sans-serif" font-weight="bold" font-size="14.00" fill="#000000">Legend</text>
<polygon fill="#ffffb3" stroke="transparent" points="512,-10 512,-30 532,-30 532,-10 512,-10"/>
<text text-anchor="start" x="535.629" y="-15.4" font-family="sans-serif" font-size="14.00" fill="#000000"> &#160;Declarations</text>
<polygon fill="#8dd3c7" stroke="transparent" points="625,-10 625,-30 645,-30 645,-10 625,-10"/>
<text text-anchor="start" x="648.7251" y="-15.4" font-family="sans-serif" font-size="14.00" fill="#000000"> &#160;Module</text>
<polygon fill="#80b1d3" stroke="transparent" points="711,-10 711,-30 731,-30 731,-10 711,-10"/>
<text text-anchor="start" x="734.7812" y="-15.4" font-family="sans-serif" font-size="14.00" fill="#000000"> &#160;Bootstrap</text>
<polygon fill="#fdb462" stroke="transparent" points="808,-10 808,-30 828,-30 828,-10 808,-10"/>
<text text-anchor="start" x="831.6732" y="-15.4" font-family="sans-serif" font-size="14.00" fill="#000000"> &#160;Providers</text>
<polygon fill="#fb8072" stroke="transparent" points="904,-10 904,-30 924,-30 924,-10 904,-10"/>
<text text-anchor="start" x="927.7258" y="-15.4" font-family="sans-serif" font-size="14.00" fill="#000000"> &#160;Exports</text>
<g id="clust1" class="cluster">
<title>cluster_jNetworkBootstrap3DateTimeModule</title>
<polygon fill="none" stroke="#000000" stroke-dasharray="1,5" points="8,-70 8,-333 1484,-333 1484,-70 8,-70"/>
</g>
<g id="clust2" class="cluster">
<title>cluster_jNetworkBootstrap3DateTimeModule_declarations</title>
<polygon fill="none" stroke="#000000" points="388,-143 388,-195 774,-195 774,-143 388,-143"/>
</g>
<g id="clust3" class="cluster">
<title>cluster_jNetworkBootstrap3DateTimeModule_NgDate_providers</title>
<polygon fill="none" stroke="#000000" points="16,-78 16,-130 1476,-130 1476,-78 16,-78"/>
</g>
<g id="clust8" class="cluster">
<title>cluster_jNetworkBootstrap3DateTimeModule_exports</title>
<polygon fill="none" stroke="#000000" points="381,-273 381,-325 782,-325 782,-273 381,-273"/>
</g>
<!-- NgDate -->
<g id="node1" class="node">
<title>NgDate</title>
<polygon fill="#ffffb3" stroke="#000000" points="765.5348,-187 706.4652,-187 706.4652,-151 765.5348,-151 765.5348,-187"/>
<text text-anchor="middle" x="736" y="-164.8" font-family="Times,serif" font-size="14.00" fill="#000000">NgDate</text>
</g>
<!-- jNetworkBootstrap3DateTimeModule -->
<g id="node5" class="node">
<title>jNetworkBootstrap3DateTimeModule</title>
<polygon fill="#8dd3c7" stroke="#000000" points="692.8319,-252 689.8319,-256 668.8319,-256 665.8319,-252 463.1681,-252 463.1681,-216 692.8319,-216 692.8319,-252"/>
<text text-anchor="middle" x="578" y="-229.8" font-family="Times,serif" font-size="14.00" fill="#000000">jNetworkBootstrap3DateTimeModule</text>
</g>
<!-- NgDate&#45;&gt;jNetworkBootstrap3DateTimeModule -->
<g id="edge1" class="edge">
<title>NgDate&#45;&gt;jNetworkBootstrap3DateTimeModule</title>
<path fill="none" stroke="#000000" d="M747.3388,-187.0225C747.3388,-204.3734 747.3388,-228 747.3388,-228 747.3388,-228 703.2934,-228 703.2934,-228"/>
<polygon fill="#000000" stroke="#000000" points="703.2934,-224.5001 693.2934,-228 703.2933,-231.5001 703.2934,-224.5001"/>
</g>
<!-- NgDateSelector -->
<g id="node2" class="node">
<title>NgDateSelector</title>
<polygon fill="#ffffb3" stroke="#000000" points="688.902,-187 583.098,-187 583.098,-151 688.902,-151 688.902,-187"/>
<text text-anchor="middle" x="636" y="-164.8" font-family="Times,serif" font-size="14.00" fill="#000000">NgDateSelector</text>
</g>
<!-- NgDateSelector&#45;&gt;jNetworkBootstrap3DateTimeModule -->
<g id="edge4" class="edge">
<title>NgDateSelector&#45;&gt;jNetworkBootstrap3DateTimeModule</title>
<path fill="none" stroke="#000000" d="M636,-187.1061C636,-187.1061 636,-205.991 636,-205.991"/>
<polygon fill="#000000" stroke="#000000" points="632.5001,-205.9909 636,-215.991 639.5001,-205.991 632.5001,-205.9909"/>
</g>
<!-- NgDateTime -->
<g id="node3" class="node">
<title>NgDateTime</title>
<polygon fill="#ffffb3" stroke="#000000" points="565.5814,-187 476.4186,-187 476.4186,-151 565.5814,-151 565.5814,-187"/>
<text text-anchor="middle" x="521" y="-164.8" font-family="Times,serif" font-size="14.00" fill="#000000">NgDateTime</text>
</g>
<!-- NgDateTime&#45;&gt;jNetworkBootstrap3DateTimeModule -->
<g id="edge5" class="edge">
<title>NgDateTime&#45;&gt;jNetworkBootstrap3DateTimeModule</title>
<path fill="none" stroke="#000000" d="M521,-187.1061C521,-187.1061 521,-205.991 521,-205.991"/>
<polygon fill="#000000" stroke="#000000" points="517.5001,-205.9909 521,-215.991 524.5001,-205.991 517.5001,-205.9909"/>
</g>
<!-- NgTime -->
<g id="node4" class="node">
<title>NgTime</title>
<polygon fill="#ffffb3" stroke="#000000" points="458.1559,-187 395.8441,-187 395.8441,-151 458.1559,-151 458.1559,-187"/>
<text text-anchor="middle" x="427" y="-164.8" font-family="Times,serif" font-size="14.00" fill="#000000">NgTime</text>
</g>
<!-- NgTime&#45;&gt;jNetworkBootstrap3DateTimeModule -->
<g id="edge6" class="edge">
<title>NgTime&#45;&gt;jNetworkBootstrap3DateTimeModule</title>
<path fill="none" stroke="#000000" d="M458.5339,-169C464.9447,-169 469.7717,-169 469.7717,-169 469.7717,-169 469.7717,-205.8939 469.7717,-205.8939"/>
<polygon fill="#000000" stroke="#000000" points="466.2718,-205.8938 469.7717,-215.8939 473.2718,-205.8939 466.2718,-205.8938"/>
</g>
<!-- NgDate  -->
<g id="node8" class="node">
<title>NgDate </title>
<polygon fill="#fb8072" stroke="#000000" points="773.533,-317 710.467,-317 710.467,-281 773.533,-281 773.533,-317"/>
<text text-anchor="middle" x="742" y="-294.8" font-family="Times,serif" font-size="14.00" fill="#000000">NgDate </text>
</g>
<!-- jNetworkBootstrap3DateTimeModule&#45;&gt;NgDate  -->
<g id="edge7" class="edge">
<title>jNetworkBootstrap3DateTimeModule&#45;&gt;NgDate </title>
<path fill="none" stroke="#000000" stroke-dasharray="5,2" d="M693.1473,-240C713.803,-240 728.9112,-240 728.9112,-240 728.9112,-240 728.9112,-270.9775 728.9112,-270.9775"/>
<polygon fill="#000000" stroke="#000000" points="725.4113,-270.9774 728.9112,-280.9775 732.4113,-270.9775 725.4113,-270.9774"/>
</g>
<!-- NgDateSelector  -->
<g id="node9" class="node">
<title>NgDateSelector </title>
<polygon fill="#fb8072" stroke="#000000" points="692.4012,-317 583.5988,-317 583.5988,-281 692.4012,-281 692.4012,-317"/>
<text text-anchor="middle" x="638" y="-294.8" font-family="Times,serif" font-size="14.00" fill="#000000">NgDateSelector </text>
</g>
<!-- jNetworkBootstrap3DateTimeModule&#45;&gt;NgDateSelector  -->
<g id="edge8" class="edge">
<title>jNetworkBootstrap3DateTimeModule&#45;&gt;NgDateSelector </title>
<path fill="none" stroke="#000000" stroke-dasharray="5,2" d="M638,-252.1061C638,-252.1061 638,-270.991 638,-270.991"/>
<polygon fill="#000000" stroke="#000000" points="634.5001,-270.9909 638,-280.991 641.5001,-270.991 634.5001,-270.9909"/>
</g>
<!-- NgDateTime  -->
<g id="node10" class="node">
<title>NgDateTime </title>
<polygon fill="#fb8072" stroke="#000000" points="565.0823,-317 472.9177,-317 472.9177,-281 565.0823,-281 565.0823,-317"/>
<text text-anchor="middle" x="519" y="-294.8" font-family="Times,serif" font-size="14.00" fill="#000000">NgDateTime </text>
</g>
<!-- jNetworkBootstrap3DateTimeModule&#45;&gt;NgDateTime  -->
<g id="edge9" class="edge">
<title>jNetworkBootstrap3DateTimeModule&#45;&gt;NgDateTime </title>
<path fill="none" stroke="#000000" stroke-dasharray="5,2" d="M519,-252.1061C519,-252.1061 519,-270.991 519,-270.991"/>
<polygon fill="#000000" stroke="#000000" points="515.5001,-270.9909 519,-280.991 522.5001,-270.991 515.5001,-270.9909"/>
</g>
<!-- NgTime  -->
<g id="node11" class="node">
<title>NgTime </title>
<polygon fill="#fb8072" stroke="#000000" points="455.1552,-317 388.8448,-317 388.8448,-281 455.1552,-281 455.1552,-317"/>
<text text-anchor="middle" x="422" y="-294.8" font-family="Times,serif" font-size="14.00" fill="#000000">NgTime </text>
</g>
<!-- jNetworkBootstrap3DateTimeModule&#45;&gt;NgTime  -->
<g id="edge10" class="edge">
<title>jNetworkBootstrap3DateTimeModule&#45;&gt;NgTime </title>
<path fill="none" stroke="#000000" stroke-dasharray="5,2" d="M467.8967,-252.1061C467.8967,-271.3391 467.8967,-299 467.8967,-299 467.8967,-299 465.3552,-299 465.3552,-299"/>
<polygon fill="#000000" stroke="#000000" points="465.3553,-295.5001 455.3552,-299 465.3552,-302.5001 465.3553,-295.5001"/>
</g>
<!-- { provide: NG_VALUE_ACCESSOR, multi: true, useExisting: forwardRef(() =&gt; NgDate) } -->
<g id="node6" class="node">
<title>{ provide: NG_VALUE_ACCESSOR, multi: true, useExisting: forwardRef(() =&gt; NgDate) }</title>
<ellipse fill="#fdb462" stroke="#000000" cx="1099" cy="-104" rx="369.242" ry="18"/>
<text text-anchor="middle" x="1099" y="-99.8" font-family="Times,serif" font-size="14.00" fill="#000000">{ provide: NG_VALUE_ACCESSOR, multi: true, useExisting: forwardRef(() =&gt; NgDate) }</text>
</g>
<!-- { provide: NG_VALUE_ACCESSOR, multi: true, useExisting: forwardRef(() =&gt; NgDate) }&#45;&gt;NgDate -->
<g id="edge2" class="edge">
<title>{ provide: NG_VALUE_ACCESSOR, multi: true, useExisting: forwardRef(() =&gt; NgDate) }&#45;&gt;NgDate</title>
<path fill="none" stroke="#000000" d="M747.6978,-109.9985C747.6978,-109.9985 747.6978,-140.7642 747.6978,-140.7642"/>
<polygon fill="#000000" stroke="#000000" points="744.1979,-140.7642 747.6978,-150.7642 751.1979,-140.7642 744.1979,-140.7642"/>
</g>
<!-- { provide: NG_VALIDATORS, multi: true, useExisting: forwardRef(() =&gt; NgDate) } -->
<g id="node7" class="node">
<title>{ provide: NG_VALIDATORS, multi: true, useExisting: forwardRef(() =&gt; NgDate) }</title>
<ellipse fill="#fdb462" stroke="#000000" cx="368" cy="-104" rx="343.7183" ry="18"/>
<text text-anchor="middle" x="368" y="-99.8" font-family="Times,serif" font-size="14.00" fill="#000000">{ provide: NG_VALIDATORS, multi: true, useExisting: forwardRef(() =&gt; NgDate) }</text>
</g>
<!-- { provide: NG_VALIDATORS, multi: true, useExisting: forwardRef(() =&gt; NgDate) }&#45;&gt;NgDate -->
<g id="edge3" class="edge">
<title>{ provide: NG_VALIDATORS, multi: true, useExisting: forwardRef(() =&gt; NgDate) }&#45;&gt;NgDate</title>
<path fill="none" stroke="#000000" d="M699.5747,-109.1004C699.5747,-124.4236 699.5747,-169 699.5747,-169 699.5747,-169 700.2428,-169 700.2428,-169"/>
<polygon fill="#000000" stroke="#000000" points="696.2557,-172.5002 706.2557,-169 696.2556,-165.5002 696.2557,-172.5002"/>
</g>
</g>
</svg>
