<?xml version="1.0" encoding="UTF-8" standalone="no"?>
<!DOCTYPE svg PUBLIC "-//W3C//DTD SVG 1.1//EN"
 "http://www.w3.org/Graphics/SVG/1.1/DTD/svg11.dtd">
<!-- Generated by graphviz version 2.40.1 (20161225.0304)
 -->
<!-- Title: dependencies Pages: 1 -->
<svg width="3050pt" height="349pt"
 viewBox="0.00 0.00 3050.00 349.00" xmlns="http://www.w3.org/2000/svg" xmlns:xlink="http://www.w3.org/1999/xlink">
<g id="graph0" class="graph" transform="scale(1 1) rotate(0) translate(4 345)">
<title>dependencies</title>
<polygon fill="#ffffff" stroke="transparent" points="-4,4 -4,-345 3046,-345 3046,4 -4,4"/>
<text text-anchor="start" x="1500.0091" y="-42.4" font-family="sans-serif" font-weight="bold" font-size="14.00" fill="#000000">Legend</text>
<polygon fill="#ffffb3" stroke="transparent" points="1287,-10 1287,-30 1307,-30 1307,-10 1287,-10"/>
<text text-anchor="start" x="1310.629" y="-15.4" font-family="sans-serif" font-size="14.00" fill="#000000"> &#160;Declarations</text>
<polygon fill="#8dd3c7" stroke="transparent" points="1400,-10 1400,-30 1420,-30 1420,-10 1400,-10"/>
<text text-anchor="start" x="1423.7251" y="-15.4" font-family="sans-serif" font-size="14.00" fill="#000000"> &#160;Module</text>
<polygon fill="#80b1d3" stroke="transparent" points="1486,-10 1486,-30 1506,-30 1506,-10 1486,-10"/>
<text text-anchor="start" x="1509.7812" y="-15.4" font-family="sans-serif" font-size="14.00" fill="#000000"> &#160;Bootstrap</text>
<polygon fill="#fdb462" stroke="transparent" points="1583,-10 1583,-30 1603,-30 1603,-10 1583,-10"/>
<text text-anchor="start" x="1606.6732" y="-15.4" font-family="sans-serif" font-size="14.00" fill="#000000"> &#160;Providers</text>
<polygon fill="#fb8072" stroke="transparent" points="1679,-10 1679,-30 1699,-30 1699,-10 1679,-10"/>
<text text-anchor="start" x="1702.7258" y="-15.4" font-family="sans-serif" font-size="14.00" fill="#000000"> &#160;Exports</text>
<g id="clust1" class="cluster">
<title>cluster_jNetworkBootstrap3DateTimeModule</title>
<polygon fill="none" stroke="#000000" stroke-dasharray="1,5" points="8,-70 8,-333 3034,-333 3034,-70 8,-70"/>
</g>
<g id="clust2" class="cluster">
<title>cluster_jNetworkBootstrap3DateTimeModule_declarations</title>
<polygon fill="none" stroke="#000000" points="1298,-143 1298,-195 1684,-195 1684,-143 1298,-143"/>
</g>
<g id="clust3" class="cluster">
<title>cluster_jNetworkBootstrap3DateTimeModule_NgDate_providers</title>
<polygon fill="none" stroke="#000000" points="1566,-78 1566,-130 3026,-130 3026,-78 1566,-78"/>
</g>
<g id="clust5" class="cluster">
<title>cluster_jNetworkBootstrap3DateTimeModule_NgDateTime_providers</title>
<polygon fill="none" stroke="#000000" points="16,-78 16,-130 1558,-130 1558,-78 16,-78"/>
</g>
<g id="clust8" class="cluster">
<title>cluster_jNetworkBootstrap3DateTimeModule_exports</title>
<polygon fill="none" stroke="#000000" points="1291,-273 1291,-325 1692,-325 1692,-273 1291,-273"/>
</g>
<!-- NgDate -->
<g id="node1" class="node">
<title>NgDate</title>
<polygon fill="#ffffb3" stroke="#000000" points="1675.5348,-187 1616.4652,-187 1616.4652,-151 1675.5348,-151 1675.5348,-187"/>
<text text-anchor="middle" x="1646" y="-164.8" font-family="Times,serif" font-size="14.00" fill="#000000">NgDate</text>
</g>
<!-- jNetworkBootstrap3DateTimeModule -->
<g id="node5" class="node">
<title>jNetworkBootstrap3DateTimeModule</title>
<polygon fill="#8dd3c7" stroke="#000000" points="1602.8319,-252 1599.8319,-256 1578.8319,-256 1575.8319,-252 1373.1681,-252 1373.1681,-216 1602.8319,-216 1602.8319,-252"/>
<text text-anchor="middle" x="1488" y="-229.8" font-family="Times,serif" font-size="14.00" fill="#000000">jNetworkBootstrap3DateTimeModule</text>
</g>
<!-- NgDate&#45;&gt;jNetworkBootstrap3DateTimeModule -->
<g id="edge1" class="edge">
<title>NgDate&#45;&gt;jNetworkBootstrap3DateTimeModule</title>
<path fill="none" stroke="#000000" d="M1657.3388,-187.0225C1657.3388,-204.3734 1657.3388,-228 1657.3388,-228 1657.3388,-228 1613.2934,-228 1613.2934,-228"/>
<polygon fill="#000000" stroke="#000000" points="1613.2934,-224.5001 1603.2934,-228 1613.2933,-231.5001 1613.2934,-224.5001"/>
</g>
<!-- NgDateSelector -->
<g id="node2" class="node">
<title>NgDateSelector</title>
<polygon fill="#ffffb3" stroke="#000000" points="1598.902,-187 1493.098,-187 1493.098,-151 1598.902,-151 1598.902,-187"/>
<text text-anchor="middle" x="1546" y="-164.8" font-family="Times,serif" font-size="14.00" fill="#000000">NgDateSelector</text>
</g>
<!-- NgDateSelector&#45;&gt;jNetworkBootstrap3DateTimeModule -->
<g id="edge4" class="edge">
<title>NgDateSelector&#45;&gt;jNetworkBootstrap3DateTimeModule</title>
<path fill="none" stroke="#000000" d="M1546,-187.1061C1546,-187.1061 1546,-205.991 1546,-205.991"/>
<polygon fill="#000000" stroke="#000000" points="1542.5001,-205.9909 1546,-215.991 1549.5001,-205.991 1542.5001,-205.9909"/>
</g>
<!-- NgDateTime -->
<g id="node3" class="node">
<title>NgDateTime</title>
<polygon fill="#ffffb3" stroke="#000000" points="1475.5814,-187 1386.4186,-187 1386.4186,-151 1475.5814,-151 1475.5814,-187"/>
<text text-anchor="middle" x="1431" y="-164.8" font-family="Times,serif" font-size="14.00" fill="#000000">NgDateTime</text>
</g>
<!-- NgDateTime&#45;&gt;jNetworkBootstrap3DateTimeModule -->
<g id="edge5" class="edge">
<title>NgDateTime&#45;&gt;jNetworkBootstrap3DateTimeModule</title>
<path fill="none" stroke="#000000" d="M1431,-187.1061C1431,-187.1061 1431,-205.991 1431,-205.991"/>
<polygon fill="#000000" stroke="#000000" points="1427.5001,-205.9909 1431,-215.991 1434.5001,-205.991 1427.5001,-205.9909"/>
</g>
<!-- NgTime -->
<g id="node4" class="node">
<title>NgTime</title>
<polygon fill="#ffffb3" stroke="#000000" points="1368.1559,-187 1305.8441,-187 1305.8441,-151 1368.1559,-151 1368.1559,-187"/>
<text text-anchor="middle" x="1337" y="-164.8" font-family="Times,serif" font-size="14.00" fill="#000000">NgTime</text>
</g>
<!-- NgTime&#45;&gt;jNetworkBootstrap3DateTimeModule -->
<g id="edge8" class="edge">
<title>NgTime&#45;&gt;jNetworkBootstrap3DateTimeModule</title>
<path fill="none" stroke="#000000" d="M1368.5339,-169C1374.9447,-169 1379.7717,-169 1379.7717,-169 1379.7717,-169 1379.7717,-205.8939 1379.7717,-205.8939"/>
<polygon fill="#000000" stroke="#000000" points="1376.2718,-205.8938 1379.7717,-215.8939 1383.2718,-205.8939 1376.2718,-205.8938"/>
</g>
<!-- NgDate  -->
<g id="node10" class="node">
<title>NgDate </title>
<polygon fill="#fb8072" stroke="#000000" points="1683.533,-317 1620.467,-317 1620.467,-281 1683.533,-281 1683.533,-317"/>
<text text-anchor="middle" x="1652" y="-294.8" font-family="Times,serif" font-size="14.00" fill="#000000">NgDate </text>
</g>
<!-- jNetworkBootstrap3DateTimeModule&#45;&gt;NgDate  -->
<g id="edge9" class="edge">
<title>jNetworkBootstrap3DateTimeModule&#45;&gt;NgDate </title>
<path fill="none" stroke="#000000" stroke-dasharray="5,2" d="M1603.1473,-240C1623.803,-240 1638.9112,-240 1638.9112,-240 1638.9112,-240 1638.9112,-270.9775 1638.9112,-270.9775"/>
<polygon fill="#000000" stroke="#000000" points="1635.4113,-270.9774 1638.9112,-280.9775 1642.4113,-270.9775 1635.4113,-270.9774"/>
</g>
<!-- NgDateSelector  -->
<g id="node11" class="node">
<title>NgDateSelector </title>
<polygon fill="#fb8072" stroke="#000000" points="1602.4012,-317 1493.5988,-317 1493.5988,-281 1602.4012,-281 1602.4012,-317"/>
<text text-anchor="middle" x="1548" y="-294.8" font-family="Times,serif" font-size="14.00" fill="#000000">NgDateSelector </text>
</g>
<!-- jNetworkBootstrap3DateTimeModule&#45;&gt;NgDateSelector  -->
<g id="edge10" class="edge">
<title>jNetworkBootstrap3DateTimeModule&#45;&gt;NgDateSelector </title>
<path fill="none" stroke="#000000" stroke-dasharray="5,2" d="M1548,-252.1061C1548,-252.1061 1548,-270.991 1548,-270.991"/>
<polygon fill="#000000" stroke="#000000" points="1544.5001,-270.9909 1548,-280.991 1551.5001,-270.991 1544.5001,-270.9909"/>
</g>
<!-- NgDateTime  -->
<g id="node12" class="node">
<title>NgDateTime </title>
<polygon fill="#fb8072" stroke="#000000" points="1475.0823,-317 1382.9177,-317 1382.9177,-281 1475.0823,-281 1475.0823,-317"/>
<text text-anchor="middle" x="1429" y="-294.8" font-family="Times,serif" font-size="14.00" fill="#000000">NgDateTime </text>
</g>
<!-- jNetworkBootstrap3DateTimeModule&#45;&gt;NgDateTime  -->
<g id="edge11" class="edge">
<title>jNetworkBootstrap3DateTimeModule&#45;&gt;NgDateTime </title>
<path fill="none" stroke="#000000" stroke-dasharray="5,2" d="M1429,-252.1061C1429,-252.1061 1429,-270.991 1429,-270.991"/>
<polygon fill="#000000" stroke="#000000" points="1425.5001,-270.9909 1429,-280.991 1432.5001,-270.991 1425.5001,-270.9909"/>
</g>
<!-- NgTime  -->
<g id="node13" class="node">
<title>NgTime </title>
<polygon fill="#fb8072" stroke="#000000" points="1365.1552,-317 1298.8448,-317 1298.8448,-281 1365.1552,-281 1365.1552,-317"/>
<text text-anchor="middle" x="1332" y="-294.8" font-family="Times,serif" font-size="14.00" fill="#000000">NgTime </text>
</g>
<!-- jNetworkBootstrap3DateTimeModule&#45;&gt;NgTime  -->
<g id="edge12" class="edge">
<title>jNetworkBootstrap3DateTimeModule&#45;&gt;NgTime </title>
<path fill="none" stroke="#000000" stroke-dasharray="5,2" d="M1377.8967,-252.1061C1377.8967,-271.3391 1377.8967,-299 1377.8967,-299 1377.8967,-299 1375.3552,-299 1375.3552,-299"/>
<polygon fill="#000000" stroke="#000000" points="1375.3553,-295.5001 1365.3552,-299 1375.3552,-302.5001 1375.3553,-295.5001"/>
</g>
<!-- { provide: NG_VALUE_ACCESSOR, multi: true, useExisting: forwardRef(() =&gt; NgDate) } -->
<g id="node6" class="node">
<title>{ provide: NG_VALUE_ACCESSOR, multi: true, useExisting: forwardRef(() =&gt; NgDate) }</title>
<ellipse fill="#fdb462" stroke="#000000" cx="2649" cy="-104" rx="369.242" ry="18"/>
<text text-anchor="middle" x="2649" y="-99.8" font-family="Times,serif" font-size="14.00" fill="#000000">{ provide: NG_VALUE_ACCESSOR, multi: true, useExisting: forwardRef(() =&gt; NgDate) }</text>
</g>
<!-- { provide: NG_VALUE_ACCESSOR, multi: true, useExisting: forwardRef(() =&gt; NgDate) }&#45;&gt;NgDate -->
<g id="edge2" class="edge">
<title>{ provide: NG_VALUE_ACCESSOR, multi: true, useExisting: forwardRef(() =&gt; NgDate) }&#45;&gt;NgDate</title>
<path fill="none" stroke="#000000" d="M2649,-122.1061C2649,-141.3391 2649,-169 2649,-169 2649,-169 1685.7457,-169 1685.7457,-169"/>
<polygon fill="#000000" stroke="#000000" points="1685.7457,-165.5001 1675.7457,-169 1685.7456,-172.5001 1685.7457,-165.5001"/>
</g>
<!-- { provide: NG_VALIDATORS, multi: true, useExisting: forwardRef(() =&gt; NgDate) } -->
<g id="node7" class="node">
<title>{ provide: NG_VALIDATORS, multi: true, useExisting: forwardRef(() =&gt; NgDate) }</title>
<ellipse fill="#fdb462" stroke="#000000" cx="1918" cy="-104" rx="343.7183" ry="18"/>
<text text-anchor="middle" x="1918" y="-99.8" font-family="Times,serif" font-size="14.00" fill="#000000">{ provide: NG_VALIDATORS, multi: true, useExisting: forwardRef(() =&gt; NgDate) }</text>
</g>
<!-- { provide: NG_VALIDATORS, multi: true, useExisting: forwardRef(() =&gt; NgDate) }&#45;&gt;NgDate -->
<g id="edge3" class="edge">
<title>{ provide: NG_VALIDATORS, multi: true, useExisting: forwardRef(() =&gt; NgDate) }&#45;&gt;NgDate</title>
<path fill="none" stroke="#000000" d="M1646,-115.0264C1646,-115.0264 1646,-140.7791 1646,-140.7791"/>
<polygon fill="#000000" stroke="#000000" points="1642.5001,-140.779 1646,-150.7791 1649.5001,-140.7791 1642.5001,-140.779"/>
</g>
<!-- { provide: NG_VALUE_ACCESSOR, multi: true, useExisting: forwardRef(() =&gt; NgDateTime) } -->
<g id="node8" class="node">
<title>{ provide: NG_VALUE_ACCESSOR, multi: true, useExisting: forwardRef(() =&gt; NgDateTime) }</title>
<ellipse fill="#fdb462" stroke="#000000" cx="1160" cy="-104" rx="389.506" ry="18"/>
<text text-anchor="middle" x="1160" y="-99.8" font-family="Times,serif" font-size="14.00" fill="#000000">{ provide: NG_VALUE_ACCESSOR, multi: true, useExisting: forwardRef(() =&gt; NgDateTime) }</text>
</g>
<!-- { provide: NG_VALUE_ACCESSOR, multi: true, useExisting: forwardRef(() =&gt; NgDateTime) }&#45;&gt;NgDateTime -->
<g id="edge6" class="edge">
<title>{ provide: NG_VALUE_ACCESSOR, multi: true, useExisting: forwardRef(() =&gt; NgDateTime) }&#45;&gt;NgDateTime</title>
<path fill="none" stroke="#000000" d="M1445.8469,-116.5327C1445.8469,-116.5327 1445.8469,-140.8507 1445.8469,-140.8507"/>
<polygon fill="#000000" stroke="#000000" points="1442.347,-140.8506 1445.8469,-150.8507 1449.347,-140.8507 1442.347,-140.8506"/>
</g>
<!-- { provide: NG_VALIDATORS, multi: true, useExisting: forwardRef(() =&gt; NgDateTime) } -->
<g id="node9" class="node">
<title>{ provide: NG_VALIDATORS, multi: true, useExisting: forwardRef(() =&gt; NgDateTime) }</title>
<ellipse fill="#fdb462" stroke="#000000" cx="388" cy="-104" rx="363.9821" ry="18"/>
<text text-anchor="middle" x="388" y="-99.8" font-family="Times,serif" font-size="14.00" fill="#000000">{ provide: NG_VALIDATORS, multi: true, useExisting: forwardRef(() =&gt; NgDateTime) }</text>
</g>
<!-- { provide: NG_VALIDATORS, multi: true, useExisting: forwardRef(() =&gt; NgDateTime) }&#45;&gt;NgDateTime -->
<g id="edge7" class="edge">
<title>{ provide: NG_VALIDATORS, multi: true, useExisting: forwardRef(() =&gt; NgDateTime) }&#45;&gt;NgDateTime</title>
<path fill="none" stroke="#000000" d="M388,-122.0449C388,-129.749 388,-137 388,-137 388,-137 1416.1531,-137 1416.1531,-137 1416.1531,-137 1416.1531,-140.7566 1416.1531,-140.7566"/>
<polygon fill="#000000" stroke="#000000" points="1412.6532,-140.7566 1416.1531,-150.7566 1419.6532,-140.7566 1412.6532,-140.7566"/>
</g>
</g>
</svg>
