<?xml version="1.0" encoding="UTF-8" standalone="no"?>
<!DOCTYPE svg PUBLIC "-//W3C//DTD SVG 1.1//EN"
 "http://www.w3.org/Graphics/SVG/1.1/DTD/svg11.dtd">
<!-- Generated by graphviz version 2.47.0 (20210316.0004)
 -->
<!-- Title: dependencies Pages: 1 -->
<svg width="504pt" height="284pt"
 viewBox="0.00 0.00 504.00 284.00" xmlns="http://www.w3.org/2000/svg" xmlns:xlink="http://www.w3.org/1999/xlink">
<g id="graph0" class="graph" transform="scale(1 1) rotate(0) translate(4 280)">
<title>dependencies</title>
<polygon fill="white" stroke="transparent" points="-4,4 -4,-280 500,-280 500,4 -4,4"/>
<text text-anchor="start" x="227.01" y="-42.4" font-family="Times-12" font-weight="bold" font-size="14.00">Legend</text>
<polygon fill="#ffffb3" stroke="transparent" points="14,-10 14,-30 34,-30 34,-10 14,-10"/>
<text text-anchor="start" x="37.63" y="-15.4" font-family="Times-12" font-size="14.00"> &#160;Declarations</text>
<polygon fill="#8dd3c7" stroke="transparent" points="127,-10 127,-30 147,-30 147,-10 127,-10"/>
<text text-anchor="start" x="150.73" y="-15.4" font-family="Times-12" font-size="14.00"> &#160;Module</text>
<polygon fill="#80b1d3" stroke="transparent" points="213,-10 213,-30 233,-30 233,-10 213,-10"/>
<text text-anchor="start" x="236.78" y="-15.4" font-family="Times-12" font-size="14.00"> &#160;Bootstrap</text>
<polygon fill="#fdb462" stroke="transparent" points="310,-10 310,-30 330,-30 330,-10 310,-10"/>
<text text-anchor="start" x="333.67" y="-15.4" font-family="Times-12" font-size="14.00"> &#160;Providers</text>
<polygon fill="#fb8072" stroke="transparent" points="406,-10 406,-30 426,-30 426,-10 406,-10"/>
<text text-anchor="start" x="429.73" y="-15.4" font-family="Times-12" font-size="14.00"> &#160;Exports</text>
<g id="clust1" class="cluster">
<title>cluster_SACBootstrap5DropdownModule</title>
<polygon fill="none" stroke="black" stroke-dasharray="1,5" points="45.5,-70 45.5,-268 450.5,-268 450.5,-70 45.5,-70"/>
</g>
<g id="clust4" class="cluster">
<title>cluster_SACBootstrap5DropdownModule_exports</title>
<polygon fill="none" stroke="black" points="53.5,-208 53.5,-260 442.5,-260 442.5,-208 53.5,-208"/>
</g>
<g id="clust3" class="cluster">
<title>cluster_SACBootstrap5DropdownModule_imports</title>
<polygon fill="none" stroke="black" points="56.5,-78 56.5,-130 439.5,-130 439.5,-78 56.5,-78"/>
</g>
<!-- SacDropdownComponent -->
<g id="node1" class="node">
<title>SacDropdownComponent</title>
<polygon fill="#8dd3c7" stroke="black" points="431.42,-122 428.42,-126 407.42,-126 404.42,-122 269.58,-122 269.58,-86 431.42,-86 431.42,-122"/>
<text text-anchor="middle" x="350.5" y="-99.8" font-family="Times,serif" font-size="14.00">SacDropdownComponent</text>
</g>
<!-- SACBootstrap5DropdownModule -->
<g id="node3" class="node">
<title>SACBootstrap5DropdownModule</title>
<polygon fill="#8dd3c7" stroke="black" points="351.59,-187 348.59,-191 327.59,-191 324.59,-187 143.41,-187 143.41,-151 351.59,-151 351.59,-187"/>
<text text-anchor="middle" x="247.5" y="-164.8" font-family="Times,serif" font-size="14.00">SACBootstrap5DropdownModule</text>
</g>
<!-- SacDropdownComponent&#45;&gt;SACBootstrap5DropdownModule -->
<g id="edge1" class="edge">
<title>SacDropdownComponent&#45;&gt;SACBootstrap5DropdownModule</title>
<path fill="none" stroke="black" d="M310.67,-122.11C310.67,-122.11 310.67,-140.99 310.67,-140.99"/>
<polygon fill="black" stroke="black" points="307.17,-140.99 310.67,-150.99 314.17,-140.99 307.17,-140.99"/>
</g>
<!-- SacDropdownOptionDirective -->
<g id="node2" class="node">
<title>SacDropdownOptionDirective</title>
<polygon fill="#8dd3c7" stroke="black" points="252.06,-122 249.06,-126 228.06,-126 225.06,-122 64.94,-122 64.94,-86 252.06,-86 252.06,-122"/>
<text text-anchor="middle" x="158.5" y="-99.8" font-family="Times,serif" font-size="14.00">SacDropdownOptionDirective</text>
</g>
<!-- SacDropdownOptionDirective&#45;&gt;SACBootstrap5DropdownModule -->
<g id="edge2" class="edge">
<title>SacDropdownOptionDirective&#45;&gt;SACBootstrap5DropdownModule</title>
<path fill="none" stroke="black" d="M197.74,-122.11C197.74,-122.11 197.74,-140.99 197.74,-140.99"/>
<polygon fill="black" stroke="black" points="194.24,-140.99 197.74,-150.99 201.24,-140.99 194.24,-140.99"/>
</g>
<!-- SacDropdownComponent  -->
<g id="node4" class="node">
<title>SacDropdownComponent </title>
<polygon fill="#fb8072" stroke="black" points="434.92,-252 270.08,-252 270.08,-216 434.92,-216 434.92,-252"/>
<text text-anchor="middle" x="352.5" y="-229.8" font-family="Times,serif" font-size="14.00">SacDropdownComponent </text>
</g>
<!-- SACBootstrap5DropdownModule&#45;&gt;SacDropdownComponent  -->
<g id="edge3" class="edge">
<title>SACBootstrap5DropdownModule&#45;&gt;SacDropdownComponent </title>
<path fill="none" stroke="black" stroke-dasharray="5,2" d="M310.79,-187.11C310.79,-187.11 310.79,-205.99 310.79,-205.99"/>
<polygon fill="black" stroke="black" points="307.29,-205.99 310.79,-215.99 314.29,-205.99 307.29,-205.99"/>
</g>
<!-- SacDropdownOptionDirective  -->
<g id="node5" class="node">
<title>SacDropdownOptionDirective </title>
<polygon fill="#fb8072" stroke="black" points="251.56,-252 61.44,-252 61.44,-216 251.56,-216 251.56,-252"/>
<text text-anchor="middle" x="156.5" y="-229.8" font-family="Times,serif" font-size="14.00">SacDropdownOptionDirective </text>
</g>
<!-- SACBootstrap5DropdownModule&#45;&gt;SacDropdownOptionDirective  -->
<g id="edge4" class="edge">
<title>SACBootstrap5DropdownModule&#45;&gt;SacDropdownOptionDirective </title>
<path fill="none" stroke="black" stroke-dasharray="5,2" d="M197.62,-187.11C197.62,-187.11 197.62,-205.99 197.62,-205.99"/>
<polygon fill="black" stroke="black" points="194.12,-205.99 197.62,-215.99 201.12,-205.99 194.12,-205.99"/>
</g>
</g>
</svg>
