<?xml version="1.0" encoding="UTF-8" standalone="no"?>
<!DOCTYPE svg PUBLIC "-//W3C//DTD SVG 1.1//EN"
 "http://www.w3.org/Graphics/SVG/1.1/DTD/svg11.dtd">
<!-- Generated by graphviz version 2.47.0 (20210316.0004)
 -->
<!-- Title: dependencies Pages: 1 -->
<svg width="635pt" height="284pt"
 viewBox="0.00 0.00 635.00 284.00" xmlns="http://www.w3.org/2000/svg" xmlns:xlink="http://www.w3.org/1999/xlink">
<g id="graph0" class="graph" transform="scale(1 1) rotate(0) translate(4 280)">
<title>dependencies</title>
<polygon fill="white" stroke="transparent" points="-4,4 -4,-280 631,-280 631,4 -4,4"/>
<text text-anchor="start" x="292.51" y="-42.4" font-family="Times-12" font-weight="bold" font-size="14.00">Legend</text>
<polygon fill="#ffffb3" stroke="transparent" points="79.5,-10 79.5,-30 99.5,-30 99.5,-10 79.5,-10"/>
<text text-anchor="start" x="103.13" y="-15.4" font-family="Times-12" font-size="14.00"> &#160;Declarations</text>
<polygon fill="#8dd3c7" stroke="transparent" points="192.5,-10 192.5,-30 212.5,-30 212.5,-10 192.5,-10"/>
<text text-anchor="start" x="216.23" y="-15.4" font-family="Times-12" font-size="14.00"> &#160;Module</text>
<polygon fill="#80b1d3" stroke="transparent" points="278.5,-10 278.5,-30 298.5,-30 298.5,-10 278.5,-10"/>
<text text-anchor="start" x="302.28" y="-15.4" font-family="Times-12" font-size="14.00"> &#160;Bootstrap</text>
<polygon fill="#fdb462" stroke="transparent" points="375.5,-10 375.5,-30 395.5,-30 395.5,-10 375.5,-10"/>
<text text-anchor="start" x="399.17" y="-15.4" font-family="Times-12" font-size="14.00"> &#160;Providers</text>
<polygon fill="#fb8072" stroke="transparent" points="471.5,-10 471.5,-30 491.5,-30 491.5,-10 471.5,-10"/>
<text text-anchor="start" x="495.23" y="-15.4" font-family="Times-12" font-size="14.00"> &#160;Exports</text>
<g id="clust1" class="cluster">
<title>cluster_SACBootstrap5DropdownModule</title>
<polygon fill="none" stroke="black" stroke-dasharray="1,5" points="8,-70 8,-268 619,-268 619,-70 8,-70"/>
</g>
<g id="clust2" class="cluster">
<title>cluster_SACBootstrap5DropdownModule_declarations</title>
<polygon fill="none" stroke="black" points="228,-78 228,-130 611,-130 611,-78 228,-78"/>
</g>
<g id="clust5" class="cluster">
<title>cluster_SACBootstrap5DropdownModule_imports</title>
<polygon fill="none" stroke="black" points="16,-78 16,-130 220,-130 220,-78 16,-78"/>
</g>
<g id="clust6" class="cluster">
<title>cluster_SACBootstrap5DropdownModule_exports</title>
<polygon fill="none" stroke="black" points="126,-208 126,-260 515,-260 515,-208 126,-208"/>
</g>
<!-- SacDropdownComponent -->
<g id="node1" class="node">
<title>SacDropdownComponent</title>
<polygon fill="#ffffb3" stroke="black" points="602.92,-122 441.08,-122 441.08,-86 602.92,-86 602.92,-122"/>
<text text-anchor="middle" x="522" y="-99.8" font-family="Times,serif" font-size="14.00">SacDropdownComponent</text>
</g>
<!-- SACBootstrap5DropdownModule -->
<g id="node3" class="node">
<title>SACBootstrap5DropdownModule</title>
<polygon fill="#8dd3c7" stroke="black" points="434.09,-187 431.09,-191 410.09,-191 407.09,-187 225.91,-187 225.91,-151 434.09,-151 434.09,-187"/>
<text text-anchor="middle" x="330" y="-164.8" font-family="Times,serif" font-size="14.00">SACBootstrap5DropdownModule</text>
</g>
<!-- SacDropdownComponent&#45;&gt;SACBootstrap5DropdownModule -->
<g id="edge1" class="edge">
<title>SacDropdownComponent&#45;&gt;SACBootstrap5DropdownModule</title>
<path fill="none" stroke="black" d="M440.97,-104C433.57,-104 428.79,-104 428.79,-104 428.79,-104 428.79,-140.89 428.79,-140.89"/>
<polygon fill="black" stroke="black" points="425.29,-140.89 428.79,-150.89 432.29,-140.89 425.29,-140.89"/>
</g>
<!-- SacDropdownOptionDirective -->
<g id="node2" class="node">
<title>SacDropdownOptionDirective</title>
<polygon fill="#ffffb3" stroke="black" points="423.56,-122 236.44,-122 236.44,-86 423.56,-86 423.56,-122"/>
<text text-anchor="middle" x="330" y="-99.8" font-family="Times,serif" font-size="14.00">SacDropdownOptionDirective</text>
</g>
<!-- SacDropdownOptionDirective&#45;&gt;SACBootstrap5DropdownModule -->
<g id="edge2" class="edge">
<title>SacDropdownOptionDirective&#45;&gt;SACBootstrap5DropdownModule</title>
<path fill="none" stroke="black" d="M330,-122.11C330,-122.11 330,-140.99 330,-140.99"/>
<polygon fill="black" stroke="black" points="326.5,-140.99 330,-150.99 333.5,-140.99 326.5,-140.99"/>
</g>
<!-- SacDropdownComponent  -->
<g id="node5" class="node">
<title>SacDropdownComponent </title>
<polygon fill="#fb8072" stroke="black" points="507.42,-252 342.58,-252 342.58,-216 507.42,-216 507.42,-252"/>
<text text-anchor="middle" x="425" y="-229.8" font-family="Times,serif" font-size="14.00">SacDropdownComponent </text>
</g>
<!-- SACBootstrap5DropdownModule&#45;&gt;SacDropdownComponent  -->
<g id="edge4" class="edge">
<title>SACBootstrap5DropdownModule&#45;&gt;SacDropdownComponent </title>
<path fill="none" stroke="black" stroke-dasharray="5,2" d="M388.29,-187.11C388.29,-187.11 388.29,-205.99 388.29,-205.99"/>
<polygon fill="black" stroke="black" points="384.79,-205.99 388.29,-215.99 391.79,-205.99 384.79,-205.99"/>
</g>
<!-- SacDropdownOptionDirective  -->
<g id="node6" class="node">
<title>SacDropdownOptionDirective </title>
<polygon fill="#fb8072" stroke="black" points="324.06,-252 133.94,-252 133.94,-216 324.06,-216 324.06,-252"/>
<text text-anchor="middle" x="229" y="-229.8" font-family="Times,serif" font-size="14.00">SacDropdownOptionDirective </text>
</g>
<!-- SACBootstrap5DropdownModule&#45;&gt;SacDropdownOptionDirective  -->
<g id="edge5" class="edge">
<title>SACBootstrap5DropdownModule&#45;&gt;SacDropdownOptionDirective </title>
<path fill="none" stroke="black" stroke-dasharray="5,2" d="M275.12,-187.11C275.12,-187.11 275.12,-205.99 275.12,-205.99"/>
<polygon fill="black" stroke="black" points="271.62,-205.99 275.12,-215.99 278.62,-205.99 271.62,-205.99"/>
</g>
<!-- SACBootstrap5LayoutModule -->
<g id="node4" class="node">
<title>SACBootstrap5LayoutModule</title>
<polygon fill="#8dd3c7" stroke="black" points="211.87,-122 208.87,-126 187.87,-126 184.87,-122 24.13,-122 24.13,-86 211.87,-86 211.87,-122"/>
<text text-anchor="middle" x="118" y="-99.8" font-family="Times,serif" font-size="14.00">SACBootstrap5LayoutModule</text>
</g>
<!-- SACBootstrap5LayoutModule&#45;&gt;SACBootstrap5DropdownModule -->
<g id="edge3" class="edge">
<title>SACBootstrap5LayoutModule&#45;&gt;SACBootstrap5DropdownModule</title>
<path fill="none" stroke="black" d="M212.01,-104C223.46,-104 231.21,-104 231.21,-104 231.21,-104 231.21,-140.89 231.21,-140.89"/>
<polygon fill="black" stroke="black" points="227.71,-140.89 231.21,-150.89 234.71,-140.89 227.71,-140.89"/>
</g>
</g>
</svg>
