<?xml version="1.0" encoding="UTF-8" standalone="no"?>
<!DOCTYPE svg PUBLIC "-//W3C//DTD SVG 1.1//EN"
 "http://www.w3.org/Graphics/SVG/1.1/DTD/svg11.dtd">
<!-- Generated by graphviz version 2.47.0 (20210316.0004)
 -->
<!-- Title: dependencies Pages: 1 -->
<svg width="1944pt" height="284pt"
 viewBox="0.00 0.00 1944.00 284.00" xmlns="http://www.w3.org/2000/svg" xmlns:xlink="http://www.w3.org/1999/xlink">
<g id="graph0" class="graph" transform="scale(1 1) rotate(0) translate(4 280)">
<title>dependencies</title>
<polygon fill="white" stroke="transparent" points="-4,4 -4,-280 1940,-280 1940,4 -4,4"/>
<text text-anchor="start" x="947.01" y="-42.4" font-family="Times-12" font-weight="bold" font-size="14.00">Legend</text>
<polygon fill="#ffffb3" stroke="transparent" points="734,-10 734,-30 754,-30 754,-10 734,-10"/>
<text text-anchor="start" x="757.63" y="-15.4" font-family="Times-12" font-size="14.00"> &#160;Declarations</text>
<polygon fill="#8dd3c7" stroke="transparent" points="847,-10 847,-30 867,-30 867,-10 847,-10"/>
<text text-anchor="start" x="870.73" y="-15.4" font-family="Times-12" font-size="14.00"> &#160;Module</text>
<polygon fill="#80b1d3" stroke="transparent" points="933,-10 933,-30 953,-30 953,-10 933,-10"/>
<text text-anchor="start" x="956.78" y="-15.4" font-family="Times-12" font-size="14.00"> &#160;Bootstrap</text>
<polygon fill="#fdb462" stroke="transparent" points="1030,-10 1030,-30 1050,-30 1050,-10 1030,-10"/>
<text text-anchor="start" x="1053.67" y="-15.4" font-family="Times-12" font-size="14.00"> &#160;Providers</text>
<polygon fill="#fb8072" stroke="transparent" points="1126,-10 1126,-30 1146,-30 1146,-10 1126,-10"/>
<text text-anchor="start" x="1149.73" y="-15.4" font-family="Times-12" font-size="14.00"> &#160;Exports</text>
<g id="clust1" class="cluster">
<title>cluster_SACBootstrap3InputModule</title>
<polygon fill="none" stroke="black" stroke-dasharray="1,5" points="8,-70 8,-268 1928,-268 1928,-70 8,-70"/>
</g>
<g id="clust11" class="cluster">
<title>cluster_SACBootstrap3InputModule_imports</title>
<polygon fill="none" stroke="black" points="1508,-78 1508,-130 1920,-130 1920,-78 1508,-78"/>
</g>
<g id="clust2" class="cluster">
<title>cluster_SACBootstrap3InputModule_declarations</title>
<polygon fill="none" stroke="black" points="16,-78 16,-130 1500,-130 1500,-78 16,-78"/>
</g>
<g id="clust12" class="cluster">
<title>cluster_SACBootstrap3InputModule_exports</title>
<polygon fill="none" stroke="black" points="199,-208 199,-260 1708,-260 1708,-208 199,-208"/>
</g>
<!-- SacInputAreaComponent -->
<g id="node1" class="node">
<title>SacInputAreaComponent</title>
<polygon fill="#ffffb3" stroke="black" points="1492.29,-122 1333.71,-122 1333.71,-86 1492.29,-86 1492.29,-122"/>
<text text-anchor="middle" x="1413" y="-99.8" font-family="Times,serif" font-size="14.00">SacInputAreaComponent</text>
</g>
<!-- SACBootstrap3InputModule -->
<g id="node9" class="node">
<title>SACBootstrap3InputModule</title>
<polygon fill="#8dd3c7" stroke="black" points="1063.76,-187 1060.76,-191 1039.76,-191 1036.76,-187 886.24,-187 886.24,-151 1063.76,-151 1063.76,-187"/>
<text text-anchor="middle" x="975" y="-164.8" font-family="Times,serif" font-size="14.00">SACBootstrap3InputModule</text>
</g>
<!-- SacInputAreaComponent&#45;&gt;SACBootstrap3InputModule -->
<g id="edge1" class="edge">
<title>SacInputAreaComponent&#45;&gt;SACBootstrap3InputModule</title>
<path fill="none" stroke="black" d="M1350.6,-122.03C1350.6,-138.4 1350.6,-160 1350.6,-160 1350.6,-160 1074.01,-160 1074.01,-160"/>
<polygon fill="black" stroke="black" points="1074.01,-156.5 1064.01,-160 1074.01,-163.5 1074.01,-156.5"/>
</g>
<!-- SacInputComponent -->
<g id="node2" class="node">
<title>SacInputComponent</title>
<polygon fill="#ffffb3" stroke="black" points="1315.6,-122 1184.4,-122 1184.4,-86 1315.6,-86 1315.6,-122"/>
<text text-anchor="middle" x="1250" y="-99.8" font-family="Times,serif" font-size="14.00">SacInputComponent</text>
</g>
<!-- SacInputComponent&#45;&gt;SACBootstrap3InputModule -->
<g id="edge2" class="edge">
<title>SacInputComponent&#45;&gt;SACBootstrap3InputModule</title>
<path fill="none" stroke="black" d="M1271.85,-122.19C1271.85,-137.18 1271.85,-156 1271.85,-156 1271.85,-156 1074.06,-156 1074.06,-156"/>
<polygon fill="black" stroke="black" points="1074.06,-152.5 1064.06,-156 1074.06,-159.5 1074.06,-152.5"/>
</g>
<!-- SacInputCurrencyComponent -->
<g id="node3" class="node">
<title>SacInputCurrencyComponent</title>
<polygon fill="#ffffb3" stroke="black" points="1166.68,-122 983.32,-122 983.32,-86 1166.68,-86 1166.68,-122"/>
<text text-anchor="middle" x="1075" y="-99.8" font-family="Times,serif" font-size="14.00">SacInputCurrencyComponent</text>
</g>
<!-- SacInputCurrencyComponent&#45;&gt;SACBootstrap3InputModule -->
<g id="edge3" class="edge">
<title>SacInputCurrencyComponent&#45;&gt;SACBootstrap3InputModule</title>
<path fill="none" stroke="black" d="M1023.65,-122.11C1023.65,-122.11 1023.65,-140.99 1023.65,-140.99"/>
<polygon fill="black" stroke="black" points="1020.15,-140.99 1023.65,-150.99 1027.15,-140.99 1020.15,-140.99"/>
</g>
<!-- SacInputDecimalComponent -->
<g id="node4" class="node">
<title>SacInputDecimalComponent</title>
<polygon fill="#ffffb3" stroke="black" points="965.02,-122 786.98,-122 786.98,-86 965.02,-86 965.02,-122"/>
<text text-anchor="middle" x="876" y="-99.8" font-family="Times,serif" font-size="14.00">SacInputDecimalComponent</text>
</g>
<!-- SacInputDecimalComponent&#45;&gt;SACBootstrap3InputModule -->
<g id="edge4" class="edge">
<title>SacInputDecimalComponent&#45;&gt;SACBootstrap3InputModule</title>
<path fill="none" stroke="black" d="M925.69,-122.11C925.69,-122.11 925.69,-140.99 925.69,-140.99"/>
<polygon fill="black" stroke="black" points="922.19,-140.99 925.69,-150.99 929.19,-140.99 922.19,-140.99"/>
</g>
<!-- SacInputEmailComponent -->
<g id="node5" class="node">
<title>SacInputEmailComponent</title>
<polygon fill="#ffffb3" stroke="black" points="768.04,-122 603.96,-122 603.96,-86 768.04,-86 768.04,-122"/>
<text text-anchor="middle" x="686" y="-99.8" font-family="Times,serif" font-size="14.00">SacInputEmailComponent</text>
</g>
<!-- SacInputEmailComponent&#45;&gt;SACBootstrap3InputModule -->
<g id="edge5" class="edge">
<title>SacInputEmailComponent&#45;&gt;SACBootstrap3InputModule</title>
<path fill="none" stroke="black" d="M686,-122.19C686,-137.18 686,-156 686,-156 686,-156 875.93,-156 875.93,-156"/>
<polygon fill="black" stroke="black" points="875.93,-159.5 885.93,-156 875.93,-152.5 875.93,-159.5"/>
</g>
<!-- SacInputIntegerComponent -->
<g id="node6" class="node">
<title>SacInputIntegerComponent</title>
<polygon fill="#ffffb3" stroke="black" points="585.24,-122 414.76,-122 414.76,-86 585.24,-86 585.24,-122"/>
<text text-anchor="middle" x="500" y="-99.8" font-family="Times,serif" font-size="14.00">SacInputIntegerComponent</text>
</g>
<!-- SacInputIntegerComponent&#45;&gt;SACBootstrap3InputModule -->
<g id="edge6" class="edge">
<title>SacInputIntegerComponent&#45;&gt;SACBootstrap3InputModule</title>
<path fill="none" stroke="black" d="M528.29,-122.03C528.29,-138.4 528.29,-160 528.29,-160 528.29,-160 876.21,-160 876.21,-160"/>
<polygon fill="black" stroke="black" points="876.21,-163.5 886.21,-160 876.21,-156.5 876.21,-163.5"/>
</g>
<!-- SacInputPasswordComponent -->
<g id="node7" class="node">
<title>SacInputPasswordComponent</title>
<polygon fill="#ffffb3" stroke="black" points="396.25,-122 211.75,-122 211.75,-86 396.25,-86 396.25,-122"/>
<text text-anchor="middle" x="304" y="-99.8" font-family="Times,serif" font-size="14.00">SacInputPasswordComponent</text>
</g>
<!-- SacInputPasswordComponent&#45;&gt;SACBootstrap3InputModule -->
<g id="edge7" class="edge">
<title>SacInputPasswordComponent&#45;&gt;SACBootstrap3InputModule</title>
<path fill="none" stroke="black" d="M387.86,-122.3C387.86,-140.27 387.86,-165 387.86,-165 387.86,-165 876.14,-165 876.14,-165"/>
<polygon fill="black" stroke="black" points="876.14,-168.5 886.14,-165 876.14,-161.5 876.14,-168.5"/>
</g>
<!-- SacInputSearchComponent -->
<g id="node8" class="node">
<title>SacInputSearchComponent</title>
<polygon fill="#ffffb3" stroke="black" points="193.68,-122 24.32,-122 24.32,-86 193.68,-86 193.68,-122"/>
<text text-anchor="middle" x="109" y="-99.8" font-family="Times,serif" font-size="14.00">SacInputSearchComponent</text>
</g>
<!-- SacInputSearchComponent&#45;&gt;SACBootstrap3InputModule -->
<g id="edge8" class="edge">
<title>SacInputSearchComponent&#45;&gt;SACBootstrap3InputModule</title>
<path fill="none" stroke="black" d="M109,-122.11C109,-141.34 109,-169 109,-169 109,-169 875.99,-169 875.99,-169"/>
<polygon fill="black" stroke="black" points="875.99,-172.5 885.99,-169 875.99,-165.5 875.99,-172.5"/>
</g>
<!-- SacInputAreaComponent  -->
<g id="node12" class="node">
<title>SacInputAreaComponent </title>
<polygon fill="#fb8072" stroke="black" points="1699.79,-252 1538.21,-252 1538.21,-216 1699.79,-216 1699.79,-252"/>
<text text-anchor="middle" x="1619" y="-229.8" font-family="Times,serif" font-size="14.00">SacInputAreaComponent </text>
</g>
<!-- SACBootstrap3InputModule&#45;&gt;SacInputAreaComponent  -->
<g id="edge11" class="edge">
<title>SACBootstrap3InputModule&#45;&gt;SacInputAreaComponent </title>
<path fill="none" stroke="black" stroke-dasharray="5,2" d="M1063.87,-174C1240.54,-174 1619,-174 1619,-174 1619,-174 1619,-206 1619,-206"/>
<polygon fill="black" stroke="black" points="1615.5,-206 1619,-216 1622.5,-206 1615.5,-206"/>
</g>
<!-- SacInputComponent  -->
<g id="node13" class="node">
<title>SacInputComponent </title>
<polygon fill="#fb8072" stroke="black" points="1520.1,-252 1385.9,-252 1385.9,-216 1520.1,-216 1520.1,-252"/>
<text text-anchor="middle" x="1453" y="-229.8" font-family="Times,serif" font-size="14.00">SacInputComponent </text>
</g>
<!-- SACBootstrap3InputModule&#45;&gt;SacInputComponent  -->
<g id="edge12" class="edge">
<title>SACBootstrap3InputModule&#45;&gt;SacInputComponent </title>
<path fill="none" stroke="black" stroke-dasharray="5,2" d="M1063.9,-178C1198.61,-178 1438.92,-178 1438.92,-178 1438.92,-178 1438.92,-205.97 1438.92,-205.97"/>
<polygon fill="black" stroke="black" points="1435.42,-205.97 1438.92,-215.97 1442.42,-205.97 1435.42,-205.97"/>
</g>
<!-- SacInputCurrencyComponent  -->
<g id="node14" class="node">
<title>SacInputCurrencyComponent </title>
<polygon fill="#fb8072" stroke="black" points="1367.18,-252 1180.82,-252 1180.82,-216 1367.18,-216 1367.18,-252"/>
<text text-anchor="middle" x="1274" y="-229.8" font-family="Times,serif" font-size="14.00">SacInputCurrencyComponent </text>
</g>
<!-- SACBootstrap3InputModule&#45;&gt;SacInputCurrencyComponent  -->
<g id="edge13" class="edge">
<title>SACBootstrap3InputModule&#45;&gt;SacInputCurrencyComponent </title>
<path fill="none" stroke="black" stroke-dasharray="5,2" d="M1063.9,-183C1136.84,-183 1228.15,-183 1228.15,-183 1228.15,-183 1228.15,-205.88 1228.15,-205.88"/>
<polygon fill="black" stroke="black" points="1224.65,-205.88 1228.15,-215.88 1231.65,-205.88 1224.65,-205.88"/>
</g>
<!-- SacInputDecimalComponent  -->
<g id="node15" class="node">
<title>SacInputDecimalComponent </title>
<polygon fill="#fb8072" stroke="black" points="1163.02,-252 980.98,-252 980.98,-216 1163.02,-216 1163.02,-252"/>
<text text-anchor="middle" x="1072" y="-229.8" font-family="Times,serif" font-size="14.00">SacInputDecimalComponent </text>
</g>
<!-- SACBootstrap3InputModule&#45;&gt;SacInputDecimalComponent  -->
<g id="edge14" class="edge">
<title>SACBootstrap3InputModule&#45;&gt;SacInputDecimalComponent </title>
<path fill="none" stroke="black" stroke-dasharray="5,2" d="M1022.44,-187.11C1022.44,-187.11 1022.44,-205.99 1022.44,-205.99"/>
<polygon fill="black" stroke="black" points="1018.94,-205.99 1022.44,-215.99 1025.94,-205.99 1018.94,-205.99"/>
</g>
<!-- SacInputEmailComponent  -->
<g id="node16" class="node">
<title>SacInputEmailComponent </title>
<polygon fill="#fb8072" stroke="black" points="963.03,-252 794.97,-252 794.97,-216 963.03,-216 963.03,-252"/>
<text text-anchor="middle" x="879" y="-229.8" font-family="Times,serif" font-size="14.00">SacInputEmailComponent </text>
</g>
<!-- SACBootstrap3InputModule&#45;&gt;SacInputEmailComponent  -->
<g id="edge15" class="edge">
<title>SACBootstrap3InputModule&#45;&gt;SacInputEmailComponent </title>
<path fill="none" stroke="black" stroke-dasharray="5,2" d="M924.57,-187.11C924.57,-187.11 924.57,-205.99 924.57,-205.99"/>
<polygon fill="black" stroke="black" points="921.07,-205.99 924.57,-215.99 928.07,-205.99 921.07,-205.99"/>
</g>
<!-- SacInputIntegerComponent  -->
<g id="node17" class="node">
<title>SacInputIntegerComponent </title>
<polygon fill="#fb8072" stroke="black" points="777.24,-252 602.76,-252 602.76,-216 777.24,-216 777.24,-252"/>
<text text-anchor="middle" x="690" y="-229.8" font-family="Times,serif" font-size="14.00">SacInputIntegerComponent </text>
</g>
<!-- SACBootstrap3InputModule&#45;&gt;SacInputIntegerComponent  -->
<g id="edge16" class="edge">
<title>SACBootstrap3InputModule&#45;&gt;SacInputIntegerComponent </title>
<path fill="none" stroke="black" stroke-dasharray="5,2" d="M885.97,-183C831.69,-183 772.69,-183 772.69,-183 772.69,-183 772.69,-205.88 772.69,-205.88"/>
<polygon fill="black" stroke="black" points="769.19,-205.88 772.69,-215.88 776.19,-205.88 769.19,-205.88"/>
</g>
<!-- SacInputPasswordComponent  -->
<g id="node18" class="node">
<title>SacInputPasswordComponent </title>
<polygon fill="#fb8072" stroke="black" points="585.25,-252 396.75,-252 396.75,-216 585.25,-216 585.25,-252"/>
<text text-anchor="middle" x="491" y="-229.8" font-family="Times,serif" font-size="14.00">SacInputPasswordComponent </text>
</g>
<!-- SACBootstrap3InputModule&#45;&gt;SacInputPasswordComponent  -->
<g id="edge17" class="edge">
<title>SACBootstrap3InputModule&#45;&gt;SacInputPasswordComponent </title>
<path fill="none" stroke="black" stroke-dasharray="5,2" d="M886.14,-178C741.58,-178 471.46,-178 471.46,-178 471.46,-178 471.46,-205.97 471.46,-205.97"/>
<polygon fill="black" stroke="black" points="467.96,-205.97 471.46,-215.97 474.96,-205.97 467.96,-205.97"/>
</g>
<!-- SacInputSearchComponent  -->
<g id="node19" class="node">
<title>SacInputSearchComponent </title>
<polygon fill="#fb8072" stroke="black" points="379.18,-252 206.82,-252 206.82,-216 379.18,-216 379.18,-252"/>
<text text-anchor="middle" x="293" y="-229.8" font-family="Times,serif" font-size="14.00">SacInputSearchComponent </text>
</g>
<!-- SACBootstrap3InputModule&#45;&gt;SacInputSearchComponent  -->
<g id="edge18" class="edge">
<title>SACBootstrap3InputModule&#45;&gt;SacInputSearchComponent </title>
<path fill="none" stroke="black" stroke-dasharray="5,2" d="M886.17,-174C701.97,-174 295.48,-174 295.48,-174 295.48,-174 295.48,-206 295.48,-206"/>
<polygon fill="black" stroke="black" points="291.98,-206 295.48,-216 298.98,-206 291.98,-206"/>
</g>
<!-- SACBootstrap3LayoutModule -->
<g id="node10" class="node">
<title>SACBootstrap3LayoutModule</title>
<polygon fill="#8dd3c7" stroke="black" points="1911.87,-122 1908.87,-126 1887.87,-126 1884.87,-122 1724.13,-122 1724.13,-86 1911.87,-86 1911.87,-122"/>
<text text-anchor="middle" x="1818" y="-99.8" font-family="Times,serif" font-size="14.00">SACBootstrap3LayoutModule</text>
</g>
<!-- SACBootstrap3LayoutModule&#45;&gt;SACBootstrap3InputModule -->
<g id="edge9" class="edge">
<title>SACBootstrap3LayoutModule&#45;&gt;SACBootstrap3InputModule</title>
<path fill="none" stroke="black" d="M1818,-122.11C1818,-141.34 1818,-169 1818,-169 1818,-169 1074.02,-169 1074.02,-169"/>
<polygon fill="black" stroke="black" points="1074.02,-165.5 1064.02,-169 1074.02,-172.5 1074.02,-165.5"/>
</g>
<!-- SACBootstrap3TooltipModule -->
<g id="node11" class="node">
<title>SACBootstrap3TooltipModule</title>
<polygon fill="#8dd3c7" stroke="black" points="1705.94,-122 1702.94,-126 1681.94,-126 1678.94,-122 1516.06,-122 1516.06,-86 1705.94,-86 1705.94,-122"/>
<text text-anchor="middle" x="1611" y="-99.8" font-family="Times,serif" font-size="14.00">SACBootstrap3TooltipModule</text>
</g>
<!-- SACBootstrap3TooltipModule&#45;&gt;SACBootstrap3InputModule -->
<g id="edge10" class="edge">
<title>SACBootstrap3TooltipModule&#45;&gt;SACBootstrap3InputModule</title>
<path fill="none" stroke="black" d="M1529.2,-122.3C1529.2,-140.27 1529.2,-165 1529.2,-165 1529.2,-165 1074.04,-165 1074.04,-165"/>
<polygon fill="black" stroke="black" points="1074.04,-161.5 1064.04,-165 1074.04,-168.5 1074.04,-161.5"/>
</g>
</g>
</svg>
