<?xml version="1.0" encoding="UTF-8" standalone="no"?>
<!DOCTYPE svg PUBLIC "-//W3C//DTD SVG 1.1//EN"
 "http://www.w3.org/Graphics/SVG/1.1/DTD/svg11.dtd">
<!-- Generated by graphviz version 2.47.0 (20210316.0004)
 -->
<!-- Title: dependencies Pages: 1 -->
<svg width="1732pt" height="284pt"
 viewBox="0.00 0.00 1732.00 284.00" xmlns="http://www.w3.org/2000/svg" xmlns:xlink="http://www.w3.org/1999/xlink">
<g id="graph0" class="graph" transform="scale(1 1) rotate(0) translate(4 280)">
<title>dependencies</title>
<polygon fill="white" stroke="transparent" points="-4,4 -4,-280 1728,-280 1728,4 -4,4"/>
<text text-anchor="start" x="841.01" y="-42.4" font-family="Times-12" font-weight="bold" font-size="14.00">Legend</text>
<polygon fill="#ffffb3" stroke="transparent" points="628,-10 628,-30 648,-30 648,-10 628,-10"/>
<text text-anchor="start" x="651.63" y="-15.4" font-family="Times-12" font-size="14.00"> &#160;Declarations</text>
<polygon fill="#8dd3c7" stroke="transparent" points="741,-10 741,-30 761,-30 761,-10 741,-10"/>
<text text-anchor="start" x="764.73" y="-15.4" font-family="Times-12" font-size="14.00"> &#160;Module</text>
<polygon fill="#80b1d3" stroke="transparent" points="827,-10 827,-30 847,-30 847,-10 827,-10"/>
<text text-anchor="start" x="850.78" y="-15.4" font-family="Times-12" font-size="14.00"> &#160;Bootstrap</text>
<polygon fill="#fdb462" stroke="transparent" points="924,-10 924,-30 944,-30 944,-10 924,-10"/>
<text text-anchor="start" x="947.67" y="-15.4" font-family="Times-12" font-size="14.00"> &#160;Providers</text>
<polygon fill="#fb8072" stroke="transparent" points="1020,-10 1020,-30 1040,-30 1040,-10 1020,-10"/>
<text text-anchor="start" x="1043.73" y="-15.4" font-family="Times-12" font-size="14.00"> &#160;Exports</text>
<g id="clust1" class="cluster">
<title>cluster_SACBootstrap3InputModule</title>
<polygon fill="none" stroke="black" stroke-dasharray="1,5" points="8,-70 8,-268 1716,-268 1716,-70 8,-70"/>
</g>
<g id="clust4" class="cluster">
<title>cluster_SACBootstrap3InputModule_exports</title>
<polygon fill="none" stroke="black" points="106,-208 106,-260 1615,-260 1615,-208 106,-208"/>
</g>
<g id="clust3" class="cluster">
<title>cluster_SACBootstrap3InputModule_imports</title>
<polygon fill="none" stroke="black" points="16,-78 16,-130 1708,-130 1708,-78 16,-78"/>
</g>
<!-- SACBootstrap3TooltipModule -->
<g id="node1" class="node">
<title>SACBootstrap3TooltipModule</title>
<polygon fill="#8dd3c7" stroke="black" points="1699.94,-122 1696.94,-126 1675.94,-126 1672.94,-122 1510.06,-122 1510.06,-86 1699.94,-86 1699.94,-122"/>
<text text-anchor="middle" x="1605" y="-99.8" font-family="Times,serif" font-size="14.00">SACBootstrap3TooltipModule</text>
</g>
<!-- SACBootstrap3InputModule -->
<g id="node10" class="node">
<title>SACBootstrap3InputModule</title>
<polygon fill="#8dd3c7" stroke="black" points="964.76,-187 961.76,-191 940.76,-191 937.76,-187 787.24,-187 787.24,-151 964.76,-151 964.76,-187"/>
<text text-anchor="middle" x="876" y="-164.8" font-family="Times,serif" font-size="14.00">SACBootstrap3InputModule</text>
</g>
<!-- SACBootstrap3TooltipModule&#45;&gt;SACBootstrap3InputModule -->
<g id="edge1" class="edge">
<title>SACBootstrap3TooltipModule&#45;&gt;SACBootstrap3InputModule</title>
<path fill="none" stroke="black" d="M1558.59,-122.11C1558.59,-141.34 1558.59,-169 1558.59,-169 1558.59,-169 974.89,-169 974.89,-169"/>
<polygon fill="black" stroke="black" points="974.89,-165.5 964.89,-169 974.89,-172.5 974.89,-165.5"/>
</g>
<!-- SacInputAreaComponent -->
<g id="node2" class="node">
<title>SacInputAreaComponent</title>
<polygon fill="#8dd3c7" stroke="black" points="1492.29,-122 1489.29,-126 1468.29,-126 1465.29,-122 1333.71,-122 1333.71,-86 1492.29,-86 1492.29,-122"/>
<text text-anchor="middle" x="1413" y="-99.8" font-family="Times,serif" font-size="14.00">SacInputAreaComponent</text>
</g>
<!-- SacInputAreaComponent&#45;&gt;SACBootstrap3InputModule -->
<g id="edge2" class="edge">
<title>SacInputAreaComponent&#45;&gt;SACBootstrap3InputModule</title>
<path fill="none" stroke="black" d="M1380.58,-122.3C1380.58,-140.27 1380.58,-165 1380.58,-165 1380.58,-165 975.05,-165 975.05,-165"/>
<polygon fill="black" stroke="black" points="975.05,-161.5 965.05,-165 975.05,-168.5 975.05,-161.5"/>
</g>
<!-- SacInputComponent -->
<g id="node3" class="node">
<title>SacInputComponent</title>
<polygon fill="#8dd3c7" stroke="black" points="1315.6,-122 1312.6,-126 1291.6,-126 1288.6,-122 1184.4,-122 1184.4,-86 1315.6,-86 1315.6,-122"/>
<text text-anchor="middle" x="1250" y="-99.8" font-family="Times,serif" font-size="14.00">SacInputComponent</text>
</g>
<!-- SacInputComponent&#45;&gt;SACBootstrap3InputModule -->
<g id="edge3" class="edge">
<title>SacInputComponent&#45;&gt;SACBootstrap3InputModule</title>
<path fill="none" stroke="black" d="M1229.4,-122.03C1229.4,-138.4 1229.4,-160 1229.4,-160 1229.4,-160 975.18,-160 975.18,-160"/>
<polygon fill="black" stroke="black" points="975.18,-156.5 965.18,-160 975.18,-163.5 975.18,-156.5"/>
</g>
<!-- SacInputCurrencyComponent -->
<g id="node4" class="node">
<title>SacInputCurrencyComponent</title>
<polygon fill="#8dd3c7" stroke="black" points="1166.68,-122 1163.68,-126 1142.68,-126 1139.68,-122 983.32,-122 983.32,-86 1166.68,-86 1166.68,-122"/>
<text text-anchor="middle" x="1075" y="-99.8" font-family="Times,serif" font-size="14.00">SacInputCurrencyComponent</text>
</g>
<!-- SacInputCurrencyComponent&#45;&gt;SACBootstrap3InputModule -->
<g id="edge4" class="edge">
<title>SacInputCurrencyComponent&#45;&gt;SACBootstrap3InputModule</title>
<path fill="none" stroke="black" d="M1026.71,-122.19C1026.71,-137.18 1026.71,-156 1026.71,-156 1026.71,-156 974.97,-156 974.97,-156"/>
<polygon fill="black" stroke="black" points="974.97,-152.5 964.97,-156 974.97,-159.5 974.97,-152.5"/>
</g>
<!-- SacInputDecimalComponent -->
<g id="node5" class="node">
<title>SacInputDecimalComponent</title>
<polygon fill="#8dd3c7" stroke="black" points="965.02,-122 962.02,-126 941.02,-126 938.02,-122 786.98,-122 786.98,-86 965.02,-86 965.02,-122"/>
<text text-anchor="middle" x="876" y="-99.8" font-family="Times,serif" font-size="14.00">SacInputDecimalComponent</text>
</g>
<!-- SacInputDecimalComponent&#45;&gt;SACBootstrap3InputModule -->
<g id="edge5" class="edge">
<title>SacInputDecimalComponent&#45;&gt;SACBootstrap3InputModule</title>
<path fill="none" stroke="black" d="M876,-122.11C876,-122.11 876,-140.99 876,-140.99"/>
<polygon fill="black" stroke="black" points="872.5,-140.99 876,-150.99 879.5,-140.99 872.5,-140.99"/>
</g>
<!-- SacInputEmailComponent -->
<g id="node6" class="node">
<title>SacInputEmailComponent</title>
<polygon fill="#8dd3c7" stroke="black" points="768.04,-122 765.04,-126 744.04,-126 741.04,-122 603.96,-122 603.96,-86 768.04,-86 768.04,-122"/>
<text text-anchor="middle" x="686" y="-99.8" font-family="Times,serif" font-size="14.00">SacInputEmailComponent</text>
</g>
<!-- SacInputEmailComponent&#45;&gt;SACBootstrap3InputModule -->
<g id="edge6" class="edge">
<title>SacInputEmailComponent&#45;&gt;SACBootstrap3InputModule</title>
<path fill="none" stroke="black" d="M735.12,-122.19C735.12,-137.18 735.12,-156 735.12,-156 735.12,-156 777.18,-156 777.18,-156"/>
<polygon fill="black" stroke="black" points="777.18,-159.5 787.18,-156 777.18,-152.5 777.18,-159.5"/>
</g>
<!-- SacInputIntegerComponent -->
<g id="node7" class="node">
<title>SacInputIntegerComponent</title>
<polygon fill="#8dd3c7" stroke="black" points="585.24,-122 582.24,-126 561.24,-126 558.24,-122 414.76,-122 414.76,-86 585.24,-86 585.24,-122"/>
<text text-anchor="middle" x="500" y="-99.8" font-family="Times,serif" font-size="14.00">SacInputIntegerComponent</text>
</g>
<!-- SacInputIntegerComponent&#45;&gt;SACBootstrap3InputModule -->
<g id="edge7" class="edge">
<title>SacInputIntegerComponent&#45;&gt;SACBootstrap3InputModule</title>
<path fill="none" stroke="black" d="M547.62,-122.03C547.62,-138.4 547.62,-160 547.62,-160 547.62,-160 777.14,-160 777.14,-160"/>
<polygon fill="black" stroke="black" points="777.14,-163.5 787.14,-160 777.14,-156.5 777.14,-163.5"/>
</g>
<!-- SacInputPasswordComponent -->
<g id="node8" class="node">
<title>SacInputPasswordComponent</title>
<polygon fill="#8dd3c7" stroke="black" points="396.25,-122 393.25,-126 372.25,-126 369.25,-122 211.75,-122 211.75,-86 396.25,-86 396.25,-122"/>
<text text-anchor="middle" x="304" y="-99.8" font-family="Times,serif" font-size="14.00">SacInputPasswordComponent</text>
</g>
<!-- SacInputPasswordComponent&#45;&gt;SACBootstrap3InputModule -->
<g id="edge8" class="edge">
<title>SacInputPasswordComponent&#45;&gt;SACBootstrap3InputModule</title>
<path fill="none" stroke="black" d="M350.12,-122.3C350.12,-140.27 350.12,-165 350.12,-165 350.12,-165 777.09,-165 777.09,-165"/>
<polygon fill="black" stroke="black" points="777.09,-168.5 787.09,-165 777.09,-161.5 777.09,-168.5"/>
</g>
<!-- SacInputSearchComponent -->
<g id="node9" class="node">
<title>SacInputSearchComponent</title>
<polygon fill="#8dd3c7" stroke="black" points="193.68,-122 190.68,-126 169.68,-126 166.68,-122 24.32,-122 24.32,-86 193.68,-86 193.68,-122"/>
<text text-anchor="middle" x="109" y="-99.8" font-family="Times,serif" font-size="14.00">SacInputSearchComponent</text>
</g>
<!-- SacInputSearchComponent&#45;&gt;SACBootstrap3InputModule -->
<g id="edge9" class="edge">
<title>SacInputSearchComponent&#45;&gt;SACBootstrap3InputModule</title>
<path fill="none" stroke="black" d="M153.62,-122.11C153.62,-141.34 153.62,-169 153.62,-169 153.62,-169 777.06,-169 777.06,-169"/>
<polygon fill="black" stroke="black" points="777.06,-172.5 787.06,-169 777.06,-165.5 777.06,-172.5"/>
</g>
<!-- SacInputAreaComponent  -->
<g id="node11" class="node">
<title>SacInputAreaComponent </title>
<polygon fill="#fb8072" stroke="black" points="1606.79,-252 1445.21,-252 1445.21,-216 1606.79,-216 1606.79,-252"/>
<text text-anchor="middle" x="1526" y="-229.8" font-family="Times,serif" font-size="14.00">SacInputAreaComponent </text>
</g>
<!-- SACBootstrap3InputModule&#45;&gt;SacInputAreaComponent  -->
<g id="edge10" class="edge">
<title>SACBootstrap3InputModule&#45;&gt;SacInputAreaComponent </title>
<path fill="none" stroke="black" stroke-dasharray="5,2" d="M965.04,-174C1130.48,-174 1468.62,-174 1468.62,-174 1468.62,-174 1468.62,-206 1468.62,-206"/>
<polygon fill="black" stroke="black" points="1465.13,-206 1468.62,-216 1472.13,-206 1465.13,-206"/>
</g>
<!-- SacInputComponent  -->
<g id="node12" class="node">
<title>SacInputComponent </title>
<polygon fill="#fb8072" stroke="black" points="1427.1,-252 1292.9,-252 1292.9,-216 1427.1,-216 1427.1,-252"/>
<text text-anchor="middle" x="1360" y="-229.8" font-family="Times,serif" font-size="14.00">SacInputComponent </text>
</g>
<!-- SACBootstrap3InputModule&#45;&gt;SacInputComponent  -->
<g id="edge11" class="edge">
<title>SACBootstrap3InputModule&#45;&gt;SacInputComponent </title>
<path fill="none" stroke="black" stroke-dasharray="5,2" d="M964.97,-178C1090.4,-178 1304.12,-178 1304.12,-178 1304.12,-178 1304.12,-205.97 1304.12,-205.97"/>
<polygon fill="black" stroke="black" points="1300.63,-205.97 1304.12,-215.97 1307.63,-205.97 1300.63,-205.97"/>
</g>
<!-- SacInputCurrencyComponent  -->
<g id="node13" class="node">
<title>SacInputCurrencyComponent </title>
<polygon fill="#fb8072" stroke="black" points="1274.18,-252 1087.82,-252 1087.82,-216 1274.18,-216 1274.18,-252"/>
<text text-anchor="middle" x="1181" y="-229.8" font-family="Times,serif" font-size="14.00">SacInputCurrencyComponent </text>
</g>
<!-- SACBootstrap3InputModule&#45;&gt;SacInputCurrencyComponent  -->
<g id="edge12" class="edge">
<title>SACBootstrap3InputModule&#45;&gt;SacInputCurrencyComponent </title>
<path fill="none" stroke="black" stroke-dasharray="5,2" d="M964.89,-183C1037.13,-183 1127.12,-183 1127.12,-183 1127.12,-183 1127.12,-205.88 1127.12,-205.88"/>
<polygon fill="black" stroke="black" points="1123.63,-205.88 1127.12,-215.88 1130.63,-205.88 1123.63,-205.88"/>
</g>
<!-- SacInputDecimalComponent  -->
<g id="node14" class="node">
<title>SacInputDecimalComponent </title>
<polygon fill="#fb8072" stroke="black" points="1070.02,-252 887.98,-252 887.98,-216 1070.02,-216 1070.02,-252"/>
<text text-anchor="middle" x="979" y="-229.8" font-family="Times,serif" font-size="14.00">SacInputDecimalComponent </text>
</g>
<!-- SACBootstrap3InputModule&#45;&gt;SacInputDecimalComponent  -->
<g id="edge13" class="edge">
<title>SACBootstrap3InputModule&#45;&gt;SacInputDecimalComponent </title>
<path fill="none" stroke="black" stroke-dasharray="5,2" d="M926.44,-187.11C926.44,-187.11 926.44,-205.99 926.44,-205.99"/>
<polygon fill="black" stroke="black" points="922.94,-205.99 926.44,-215.99 929.94,-205.99 922.94,-205.99"/>
</g>
<!-- SacInputEmailComponent  -->
<g id="node15" class="node">
<title>SacInputEmailComponent </title>
<polygon fill="#fb8072" stroke="black" points="870.03,-252 701.97,-252 701.97,-216 870.03,-216 870.03,-252"/>
<text text-anchor="middle" x="786" y="-229.8" font-family="Times,serif" font-size="14.00">SacInputEmailComponent </text>
</g>
<!-- SACBootstrap3InputModule&#45;&gt;SacInputEmailComponent  -->
<g id="edge14" class="edge">
<title>SACBootstrap3InputModule&#45;&gt;SacInputEmailComponent </title>
<path fill="none" stroke="black" stroke-dasharray="5,2" d="M828.57,-187.11C828.57,-187.11 828.57,-205.99 828.57,-205.99"/>
<polygon fill="black" stroke="black" points="825.07,-205.99 828.57,-215.99 832.07,-205.99 825.07,-205.99"/>
</g>
<!-- SacInputIntegerComponent  -->
<g id="node16" class="node">
<title>SacInputIntegerComponent </title>
<polygon fill="#fb8072" stroke="black" points="684.24,-252 509.76,-252 509.76,-216 684.24,-216 684.24,-252"/>
<text text-anchor="middle" x="597" y="-229.8" font-family="Times,serif" font-size="14.00">SacInputIntegerComponent </text>
</g>
<!-- SACBootstrap3InputModule&#45;&gt;SacInputIntegerComponent  -->
<g id="edge15" class="edge">
<title>SACBootstrap3InputModule&#45;&gt;SacInputIntegerComponent </title>
<path fill="none" stroke="black" stroke-dasharray="5,2" d="M786.94,-183C721.49,-183 643.93,-183 643.93,-183 643.93,-183 643.93,-205.88 643.93,-205.88"/>
<polygon fill="black" stroke="black" points="640.43,-205.88 643.93,-215.88 647.43,-205.88 640.43,-205.88"/>
</g>
<!-- SacInputPasswordComponent  -->
<g id="node17" class="node">
<title>SacInputPasswordComponent </title>
<polygon fill="#fb8072" stroke="black" points="492.25,-252 303.75,-252 303.75,-216 492.25,-216 492.25,-252"/>
<text text-anchor="middle" x="398" y="-229.8" font-family="Times,serif" font-size="14.00">SacInputPasswordComponent </text>
</g>
<!-- SACBootstrap3InputModule&#45;&gt;SacInputPasswordComponent  -->
<g id="edge16" class="edge">
<title>SACBootstrap3InputModule&#45;&gt;SacInputPasswordComponent </title>
<path fill="none" stroke="black" stroke-dasharray="5,2" d="M787.15,-178C663.19,-178 453.38,-178 453.38,-178 453.38,-178 453.38,-205.97 453.38,-205.97"/>
<polygon fill="black" stroke="black" points="449.88,-205.97 453.38,-215.97 456.88,-205.97 449.88,-205.97"/>
</g>
<!-- SacInputSearchComponent  -->
<g id="node18" class="node">
<title>SacInputSearchComponent </title>
<polygon fill="#fb8072" stroke="black" points="286.18,-252 113.82,-252 113.82,-216 286.18,-216 286.18,-252"/>
<text text-anchor="middle" x="200" y="-229.8" font-family="Times,serif" font-size="14.00">SacInputSearchComponent </text>
</g>
<!-- SACBootstrap3InputModule&#45;&gt;SacInputSearchComponent  -->
<g id="edge17" class="edge">
<title>SACBootstrap3InputModule&#45;&gt;SacInputSearchComponent </title>
<path fill="none" stroke="black" stroke-dasharray="5,2" d="M787.16,-174C614.19,-174 248.98,-174 248.98,-174 248.98,-174 248.98,-206 248.98,-206"/>
<polygon fill="black" stroke="black" points="245.48,-206 248.98,-216 252.48,-206 245.48,-206"/>
</g>
</g>
</svg>
