<?xml version="1.0" encoding="UTF-8" standalone="no"?>
<!DOCTYPE svg PUBLIC "-//W3C//DTD SVG 1.1//EN"
 "http://www.w3.org/Graphics/SVG/1.1/DTD/svg11.dtd">
<!-- Generated by graphviz version 2.40.1 (20161225.0304)
 -->
<!-- Title: dependencies Pages: 1 -->
<svg width="504pt" height="284pt"
 viewBox="0.00 0.00 504.00 284.00" xmlns="http://www.w3.org/2000/svg" xmlns:xlink="http://www.w3.org/1999/xlink">
<g id="graph0" class="graph" transform="scale(1 1) rotate(0) translate(4 280)">
<title>dependencies</title>
<polygon fill="#ffffff" stroke="transparent" points="-4,4 -4,-280 500,-280 500,4 -4,4"/>
<text text-anchor="start" x="227.0091" y="-42.4" font-family="sans-serif" font-weight="bold" font-size="14.00" fill="#000000">Legend</text>
<polygon fill="#ffffb3" stroke="transparent" points="14,-10 14,-30 34,-30 34,-10 14,-10"/>
<text text-anchor="start" x="37.629" y="-15.4" font-family="sans-serif" font-size="14.00" fill="#000000"> &#160;Declarations</text>
<polygon fill="#8dd3c7" stroke="transparent" points="127,-10 127,-30 147,-30 147,-10 127,-10"/>
<text text-anchor="start" x="150.7251" y="-15.4" font-family="sans-serif" font-size="14.00" fill="#000000"> &#160;Module</text>
<polygon fill="#80b1d3" stroke="transparent" points="213,-10 213,-30 233,-30 233,-10 213,-10"/>
<text text-anchor="start" x="236.7812" y="-15.4" font-family="sans-serif" font-size="14.00" fill="#000000"> &#160;Bootstrap</text>
<polygon fill="#fdb462" stroke="transparent" points="310,-10 310,-30 330,-30 330,-10 310,-10"/>
<text text-anchor="start" x="333.6732" y="-15.4" font-family="sans-serif" font-size="14.00" fill="#000000"> &#160;Providers</text>
<polygon fill="#fb8072" stroke="transparent" points="406,-10 406,-30 426,-30 426,-10 406,-10"/>
<text text-anchor="start" x="429.7258" y="-15.4" font-family="sans-serif" font-size="14.00" fill="#000000"> &#160;Exports</text>
<g id="clust1" class="cluster">
<title>cluster_jNetworkBootstrap3WizardModule</title>
<polygon fill="none" stroke="#000000" stroke-dasharray="1,5" points="132,-70 132,-268 364,-268 364,-70 132,-70"/>
</g>
<g id="clust2" class="cluster">
<title>cluster_jNetworkBootstrap3WizardModule_declarations</title>
<polygon fill="none" stroke="#000000" points="144,-78 144,-130 352,-130 352,-78 144,-78"/>
</g>
<g id="clust6" class="cluster">
<title>cluster_jNetworkBootstrap3WizardModule_exports</title>
<polygon fill="none" stroke="#000000" points="140,-208 140,-260 356,-260 356,-208 140,-208"/>
</g>
<!-- NgWizard -->
<g id="node1" class="node">
<title>NgWizard</title>
<polygon fill="#ffffb3" stroke="#000000" points="344.3022,-122 269.6978,-122 269.6978,-86 344.3022,-86 344.3022,-122"/>
<text text-anchor="middle" x="307" y="-99.8" font-family="Times,serif" font-size="14.00" fill="#000000">NgWizard</text>
</g>
<!-- jNetworkBootstrap3WizardModule -->
<g id="node3" class="node">
<title>jNetworkBootstrap3WizardModule</title>
<polygon fill="#8dd3c7" stroke="#000000" points="355.552,-187 352.552,-191 331.552,-191 328.552,-187 140.448,-187 140.448,-151 355.552,-151 355.552,-187"/>
<text text-anchor="middle" x="248" y="-164.8" font-family="Times,serif" font-size="14.00" fill="#000000">jNetworkBootstrap3WizardModule</text>
</g>
<!-- NgWizard&#45;&gt;jNetworkBootstrap3WizardModule -->
<g id="edge1" class="edge">
<title>NgWizard&#45;&gt;jNetworkBootstrap3WizardModule</title>
<path fill="none" stroke="#000000" d="M307,-122.1061C307,-122.1061 307,-140.991 307,-140.991"/>
<polygon fill="#000000" stroke="#000000" points="303.5001,-140.9909 307,-150.991 310.5001,-140.991 303.5001,-140.9909"/>
</g>
<!-- NgWizardItem -->
<g id="node2" class="node">
<title>NgWizardItem</title>
<polygon fill="#ffffb3" stroke="#000000" points="251.958,-122 152.042,-122 152.042,-86 251.958,-86 251.958,-122"/>
<text text-anchor="middle" x="202" y="-99.8" font-family="Times,serif" font-size="14.00" fill="#000000">NgWizardItem</text>
</g>
<!-- NgWizardItem&#45;&gt;jNetworkBootstrap3WizardModule -->
<g id="edge2" class="edge">
<title>NgWizardItem&#45;&gt;jNetworkBootstrap3WizardModule</title>
<path fill="none" stroke="#000000" d="M202,-122.1061C202,-122.1061 202,-140.991 202,-140.991"/>
<polygon fill="#000000" stroke="#000000" points="198.5001,-140.9909 202,-150.991 205.5001,-140.991 198.5001,-140.9909"/>
</g>
<!-- NgWizard  -->
<g id="node4" class="node">
<title>NgWizard </title>
<polygon fill="#fb8072" stroke="#000000" points="347.8019,-252 270.1981,-252 270.1981,-216 347.8019,-216 347.8019,-252"/>
<text text-anchor="middle" x="309" y="-229.8" font-family="Times,serif" font-size="14.00" fill="#000000">NgWizard </text>
</g>
<!-- jNetworkBootstrap3WizardModule&#45;&gt;NgWizard  -->
<g id="edge3" class="edge">
<title>jNetworkBootstrap3WizardModule&#45;&gt;NgWizard </title>
<path fill="none" stroke="#000000" stroke-dasharray="5,2" d="M309,-187.1061C309,-187.1061 309,-205.991 309,-205.991"/>
<polygon fill="#000000" stroke="#000000" points="305.5001,-205.9909 309,-215.991 312.5001,-205.991 305.5001,-205.9909"/>
</g>
<!-- NgWizardItem  -->
<g id="node5" class="node">
<title>NgWizardItem </title>
<polygon fill="#fb8072" stroke="#000000" points="251.959,-252 148.041,-252 148.041,-216 251.959,-216 251.959,-252"/>
<text text-anchor="middle" x="200" y="-229.8" font-family="Times,serif" font-size="14.00" fill="#000000">NgWizardItem </text>
</g>
<!-- jNetworkBootstrap3WizardModule&#45;&gt;NgWizardItem  -->
<g id="edge4" class="edge">
<title>jNetworkBootstrap3WizardModule&#45;&gt;NgWizardItem </title>
<path fill="none" stroke="#000000" stroke-dasharray="5,2" d="M200,-187.1061C200,-187.1061 200,-205.991 200,-205.991"/>
<polygon fill="#000000" stroke="#000000" points="196.5001,-205.9909 200,-215.991 203.5001,-205.991 196.5001,-205.9909"/>
</g>
</g>
</svg>
