<?xml version="1.0" encoding="UTF-8" standalone="no"?>
<!DOCTYPE svg PUBLIC "-//W3C//DTD SVG 1.1//EN"
 "http://www.w3.org/Graphics/SVG/1.1/DTD/svg11.dtd">
<!-- Generated by graphviz version 2.40.1 (20161225.0304)
 -->
<!-- Title: dependencies Pages: 1 -->
<svg width="504pt" height="284pt"
 viewBox="0.00 0.00 504.00 284.00" xmlns="http://www.w3.org/2000/svg" xmlns:xlink="http://www.w3.org/1999/xlink">
<g id="graph0" class="graph" transform="scale(1 1) rotate(0) translate(4 280)">
<title>dependencies</title>
<polygon fill="#ffffff" stroke="transparent" points="-4,4 -4,-280 500,-280 500,4 -4,4"/>
<text text-anchor="start" x="227.0091" y="-42.4" font-family="sans-serif" font-weight="bold" font-size="14.00" fill="#000000">Legend</text>
<polygon fill="#ffffb3" stroke="transparent" points="14,-10 14,-30 34,-30 34,-10 14,-10"/>
<text text-anchor="start" x="37.629" y="-15.4" font-family="sans-serif" font-size="14.00" fill="#000000"> &#160;Declarations</text>
<polygon fill="#8dd3c7" stroke="transparent" points="127,-10 127,-30 147,-30 147,-10 127,-10"/>
<text text-anchor="start" x="150.7251" y="-15.4" font-family="sans-serif" font-size="14.00" fill="#000000"> &#160;Module</text>
<polygon fill="#80b1d3" stroke="transparent" points="213,-10 213,-30 233,-30 233,-10 213,-10"/>
<text text-anchor="start" x="236.7812" y="-15.4" font-family="sans-serif" font-size="14.00" fill="#000000"> &#160;Bootstrap</text>
<polygon fill="#fdb462" stroke="transparent" points="310,-10 310,-30 330,-30 330,-10 310,-10"/>
<text text-anchor="start" x="333.6732" y="-15.4" font-family="sans-serif" font-size="14.00" fill="#000000"> &#160;Providers</text>
<polygon fill="#fb8072" stroke="transparent" points="406,-10 406,-30 426,-30 426,-10 406,-10"/>
<text text-anchor="start" x="429.7258" y="-15.4" font-family="sans-serif" font-size="14.00" fill="#000000"> &#160;Exports</text>
<g id="clust1" class="cluster">
<title>cluster_JNetworkBootstrap3WizardModule</title>
<polygon fill="none" stroke="#000000" stroke-dasharray="1,5" points="67,-70 67,-268 429,-268 429,-70 67,-70"/>
</g>
<g id="clust2" class="cluster">
<title>cluster_JNetworkBootstrap3WizardModule_declarations</title>
<polygon fill="none" stroke="#000000" points="78,-78 78,-130 417,-130 417,-78 78,-78"/>
</g>
<g id="clust6" class="cluster">
<title>cluster_JNetworkBootstrap3WizardModule_exports</title>
<polygon fill="none" stroke="#000000" points="75,-208 75,-260 421,-260 421,-208 75,-208"/>
</g>
<!-- NgWizardComponent -->
<g id="node1" class="node">
<title>NgWizardComponent</title>
<polygon fill="#ffffb3" stroke="#000000" points="408.6345,-122 269.3655,-122 269.3655,-86 408.6345,-86 408.6345,-122"/>
<text text-anchor="middle" x="339" y="-99.8" font-family="Times,serif" font-size="14.00" fill="#000000">NgWizardComponent</text>
</g>
<!-- JNetworkBootstrap3WizardModule -->
<g id="node3" class="node">
<title>JNetworkBootstrap3WizardModule</title>
<polygon fill="#8dd3c7" stroke="#000000" points="356.1064,-187 353.1064,-191 332.1064,-191 329.1064,-187 139.8936,-187 139.8936,-151 356.1064,-151 356.1064,-187"/>
<text text-anchor="middle" x="248" y="-164.8" font-family="Times,serif" font-size="14.00" fill="#000000">JNetworkBootstrap3WizardModule</text>
</g>
<!-- NgWizardComponent&#45;&gt;JNetworkBootstrap3WizardModule -->
<g id="edge1" class="edge">
<title>NgWizardComponent&#45;&gt;JNetworkBootstrap3WizardModule</title>
<path fill="none" stroke="#000000" d="M312.743,-122.1061C312.743,-122.1061 312.743,-140.991 312.743,-140.991"/>
<polygon fill="#000000" stroke="#000000" points="309.2431,-140.9909 312.743,-150.991 316.2431,-140.991 309.2431,-140.9909"/>
</g>
<!-- NgWizardItemComponent -->
<g id="node2" class="node">
<title>NgWizardItemComponent</title>
<polygon fill="#ffffb3" stroke="#000000" points="251.7907,-122 86.2093,-122 86.2093,-86 251.7907,-86 251.7907,-122"/>
<text text-anchor="middle" x="169" y="-99.8" font-family="Times,serif" font-size="14.00" fill="#000000">NgWizardItemComponent</text>
</g>
<!-- NgWizardItemComponent&#45;&gt;JNetworkBootstrap3WizardModule -->
<g id="edge2" class="edge">
<title>NgWizardItemComponent&#45;&gt;JNetworkBootstrap3WizardModule</title>
<path fill="none" stroke="#000000" d="M195.6711,-122.1061C195.6711,-122.1061 195.6711,-140.991 195.6711,-140.991"/>
<polygon fill="#000000" stroke="#000000" points="192.1712,-140.9909 195.6711,-150.991 199.1712,-140.991 192.1712,-140.9909"/>
</g>
<!-- NgWizardComponent  -->
<g id="node4" class="node">
<title>NgWizardComponent </title>
<polygon fill="#fb8072" stroke="#000000" points="412.6341,-252 269.3659,-252 269.3659,-216 412.6341,-216 412.6341,-252"/>
<text text-anchor="middle" x="341" y="-229.8" font-family="Times,serif" font-size="14.00" fill="#000000">NgWizardComponent </text>
</g>
<!-- JNetworkBootstrap3WizardModule&#45;&gt;NgWizardComponent  -->
<g id="edge3" class="edge">
<title>JNetworkBootstrap3WizardModule&#45;&gt;NgWizardComponent </title>
<path fill="none" stroke="#000000" stroke-dasharray="5,2" d="M312.868,-187.1061C312.868,-187.1061 312.868,-205.991 312.868,-205.991"/>
<polygon fill="#000000" stroke="#000000" points="309.3681,-205.9909 312.868,-215.991 316.3681,-205.991 309.3681,-205.9909"/>
</g>
<!-- NgWizardItemComponent  -->
<g id="node5" class="node">
<title>NgWizardItemComponent </title>
<polygon fill="#fb8072" stroke="#000000" points="251.2905,-252 82.7095,-252 82.7095,-216 251.2905,-216 251.2905,-252"/>
<text text-anchor="middle" x="167" y="-229.8" font-family="Times,serif" font-size="14.00" fill="#000000">NgWizardItemComponent </text>
</g>
<!-- JNetworkBootstrap3WizardModule&#45;&gt;NgWizardItemComponent  -->
<g id="edge4" class="edge">
<title>JNetworkBootstrap3WizardModule&#45;&gt;NgWizardItemComponent </title>
<path fill="none" stroke="#000000" stroke-dasharray="5,2" d="M195.5461,-187.1061C195.5461,-187.1061 195.5461,-205.991 195.5461,-205.991"/>
<polygon fill="#000000" stroke="#000000" points="192.0462,-205.9909 195.5461,-215.991 199.0462,-205.991 192.0462,-205.9909"/>
</g>
</g>
</svg>
