<?xml version="1.0" encoding="UTF-8" standalone="no"?>
<!DOCTYPE svg PUBLIC "-//W3C//DTD SVG 1.1//EN"
 "http://www.w3.org/Graphics/SVG/1.1/DTD/svg11.dtd">
<!-- Generated by graphviz version 2.47.3 (20210619.1520)
 -->
<!-- Title: dependencies Pages: 1 -->
<svg width="1164pt" height="174pt"
 viewBox="0.00 0.00 1164.00 173.80" xmlns="http://www.w3.org/2000/svg" xmlns:xlink="http://www.w3.org/1999/xlink">
<g id="graph0" class="graph" transform="scale(1 1) rotate(0) translate(4 169.8)">
<title>dependencies</title>
<polygon fill="white" stroke="transparent" points="-4,4 -4,-169.8 1160,-169.8 1160,4 -4,4"/>
<text text-anchor="middle" x="578" y="-8.2" font-family="sans-serif" font-size="14.00">dependencies</text>
<g id="clust1" class="cluster">
<title>cluster_BrowserModule</title>
<polygon fill="none" stroke="black" stroke-dasharray="1,5" points="8,-32.8 8,-157.8 1148,-157.8 1148,-32.8 8,-32.8"/>
</g>
<g id="clust2" class="cluster">
<title>cluster_BrowserModule_declarations</title>
<polygon fill="none" stroke="black" points="962,-40.8 962,-92.8 1140,-92.8 1140,-40.8 962,-40.8"/>
</g>
<g id="clust4" class="cluster">
<title>cluster_BrowserModule_imports</title>
<polygon fill="none" stroke="black" points="16,-40.8 16,-92.8 954,-92.8 954,-40.8 16,-40.8"/>
</g>
<!-- DemoBrowserComponent -->
<g id="node1" class="node">
<title>DemoBrowserComponent</title>
<polygon fill="#ffffb3" stroke="black" points="1132.47,-84.8 969.53,-84.8 969.53,-48.8 1132.47,-48.8 1132.47,-84.8"/>
<text text-anchor="middle" x="1051" y="-62.6" font-family="Times,serif" font-size="14.00">DemoBrowserComponent</text>
</g>
<!-- BrowserModule -->
<g id="node2" class="node">
<title>BrowserModule</title>
<polygon fill="#8dd3c7" stroke="black" points="718.47,-149.8 715.47,-153.8 694.47,-153.8 691.47,-149.8 611.53,-149.8 611.53,-113.8 718.47,-113.8 718.47,-149.8"/>
<text text-anchor="middle" x="665" y="-127.6" font-family="Times,serif" font-size="14.00">BrowserModule</text>
</g>
<!-- DemoBrowserComponent&#45;&gt;BrowserModule -->
<g id="edge1" class="edge">
<title>DemoBrowserComponent&#45;&gt;BrowserModule</title>
<path fill="none" stroke="black" d="M1051,-85.08C1051,-106.12 1051,-137.8 1051,-137.8 1051,-137.8 728.67,-137.8 728.67,-137.8"/>
<polygon fill="black" stroke="black" points="728.67,-134.3 718.67,-137.8 728.67,-141.3 728.67,-134.3"/>
</g>
<!-- BrowserRoutingModule -->
<g id="node3" class="node">
<title>BrowserRoutingModule</title>
<polygon fill="#8dd3c7" stroke="black" points="946.09,-84.8 943.09,-88.8 922.09,-88.8 919.09,-84.8 793.91,-84.8 793.91,-48.8 946.09,-48.8 946.09,-84.8"/>
<text text-anchor="middle" x="870" y="-62.6" font-family="Times,serif" font-size="14.00">BrowserRoutingModule</text>
</g>
<!-- BrowserRoutingModule&#45;&gt;BrowserModule -->
<g id="edge2" class="edge">
<title>BrowserRoutingModule&#45;&gt;BrowserModule</title>
<path fill="none" stroke="black" d="M870,-84.82C870,-102.17 870,-125.8 870,-125.8 870,-125.8 728.59,-125.8 728.59,-125.8"/>
<polygon fill="black" stroke="black" points="728.59,-122.3 718.59,-125.8 728.59,-129.3 728.59,-122.3"/>
</g>
<!-- JNetworkBootstrap4BrowserModule -->
<g id="node4" class="node">
<title>JNetworkBootstrap4BrowserModule</title>
<polygon fill="#8dd3c7" stroke="black" points="776.33,-84.8 773.33,-88.8 752.33,-88.8 749.33,-84.8 553.67,-84.8 553.67,-48.8 776.33,-48.8 776.33,-84.8"/>
<text text-anchor="middle" x="665" y="-62.6" font-family="Times,serif" font-size="14.00">JNetworkBootstrap4BrowserModule</text>
</g>
<!-- JNetworkBootstrap4BrowserModule&#45;&gt;BrowserModule -->
<g id="edge3" class="edge">
<title>JNetworkBootstrap4BrowserModule&#45;&gt;BrowserModule</title>
<path fill="none" stroke="black" d="M665,-84.91C665,-84.91 665,-103.79 665,-103.79"/>
<polygon fill="black" stroke="black" points="661.5,-103.79 665,-113.79 668.5,-103.79 661.5,-103.79"/>
</g>
<!-- JNetworkBootstrap4FormModule -->
<g id="node5" class="node">
<title>JNetworkBootstrap4FormModule</title>
<polygon fill="#8dd3c7" stroke="black" points="535.74,-84.8 532.74,-88.8 511.74,-88.8 508.74,-84.8 330.26,-84.8 330.26,-48.8 535.74,-48.8 535.74,-84.8"/>
<text text-anchor="middle" x="433" y="-62.6" font-family="Times,serif" font-size="14.00">JNetworkBootstrap4FormModule</text>
</g>
<!-- JNetworkBootstrap4FormModule&#45;&gt;BrowserModule -->
<g id="edge4" class="edge">
<title>JNetworkBootstrap4FormModule&#45;&gt;BrowserModule</title>
<path fill="none" stroke="black" d="M433,-84.82C433,-102.17 433,-125.8 433,-125.8 433,-125.8 601.48,-125.8 601.48,-125.8"/>
<polygon fill="black" stroke="black" points="601.48,-129.3 611.48,-125.8 601.48,-122.3 601.48,-129.3"/>
</g>
<!-- JNetworkBootstrap4ValidationSummaryModule -->
<g id="node6" class="node">
<title>JNetworkBootstrap4ValidationSummaryModule</title>
<polygon fill="#8dd3c7" stroke="black" points="312.45,-84.8 309.45,-88.8 288.45,-88.8 285.45,-84.8 23.55,-84.8 23.55,-48.8 312.45,-48.8 312.45,-84.8"/>
<text text-anchor="middle" x="168" y="-62.6" font-family="Times,serif" font-size="14.00">JNetworkBootstrap4ValidationSummaryModule</text>
</g>
<!-- JNetworkBootstrap4ValidationSummaryModule&#45;&gt;BrowserModule -->
<g id="edge5" class="edge">
<title>JNetworkBootstrap4ValidationSummaryModule&#45;&gt;BrowserModule</title>
<path fill="none" stroke="black" d="M168,-85.08C168,-106.12 168,-137.8 168,-137.8 168,-137.8 601.34,-137.8 601.34,-137.8"/>
<polygon fill="black" stroke="black" points="601.34,-141.3 611.34,-137.8 601.34,-134.3 601.34,-141.3"/>
</g>
</g>
</svg>
