<?xml version="1.0" encoding="UTF-8" standalone="no"?>
<!DOCTYPE svg PUBLIC "-//W3C//DTD SVG 1.1//EN"
 "http://www.w3.org/Graphics/SVG/1.1/DTD/svg11.dtd">
<!-- Generated by graphviz version 2.47.0 (20210316.0004)
 -->
<!-- Title: dependencies Pages: 1 -->
<svg width="1042pt" height="284pt"
 viewBox="0.00 0.00 1042.00 284.00" xmlns="http://www.w3.org/2000/svg" xmlns:xlink="http://www.w3.org/1999/xlink">
<g id="graph0" class="graph" transform="scale(1 1) rotate(0) translate(4 280)">
<title>dependencies</title>
<polygon fill="white" stroke="transparent" points="-4,4 -4,-280 1038,-280 1038,4 -4,4"/>
<text text-anchor="start" x="496.01" y="-42.4" font-family="Times-12" font-weight="bold" font-size="14.00">Legend</text>
<polygon fill="#ffffb3" stroke="transparent" points="283,-10 283,-30 303,-30 303,-10 283,-10"/>
<text text-anchor="start" x="306.63" y="-15.4" font-family="Times-12" font-size="14.00"> &#160;Declarations</text>
<polygon fill="#8dd3c7" stroke="transparent" points="396,-10 396,-30 416,-30 416,-10 396,-10"/>
<text text-anchor="start" x="419.73" y="-15.4" font-family="Times-12" font-size="14.00"> &#160;Module</text>
<polygon fill="#80b1d3" stroke="transparent" points="482,-10 482,-30 502,-30 502,-10 482,-10"/>
<text text-anchor="start" x="505.78" y="-15.4" font-family="Times-12" font-size="14.00"> &#160;Bootstrap</text>
<polygon fill="#fdb462" stroke="transparent" points="579,-10 579,-30 599,-30 599,-10 579,-10"/>
<text text-anchor="start" x="602.67" y="-15.4" font-family="Times-12" font-size="14.00"> &#160;Providers</text>
<polygon fill="#fb8072" stroke="transparent" points="675,-10 675,-30 695,-30 695,-10 675,-10"/>
<text text-anchor="start" x="698.73" y="-15.4" font-family="Times-12" font-size="14.00"> &#160;Exports</text>
<g id="clust1" class="cluster">
<title>cluster_SACBootstrap5TinyMceModule</title>
<polygon fill="none" stroke="black" stroke-dasharray="1,5" points="8,-70 8,-268 1026,-268 1026,-70 8,-70"/>
</g>
<g id="clust4" class="cluster">
<title>cluster_SACBootstrap5TinyMceModule_imports</title>
<polygon fill="none" stroke="black" points="192,-78 192,-130 1018,-130 1018,-78 192,-78"/>
</g>
<g id="clust5" class="cluster">
<title>cluster_SACBootstrap5TinyMceModule_exports</title>
<polygon fill="none" stroke="black" points="413,-208 413,-260 585,-260 585,-208 413,-208"/>
</g>
<g id="clust2" class="cluster">
<title>cluster_SACBootstrap5TinyMceModule_declarations</title>
<polygon fill="none" stroke="black" points="16,-78 16,-130 184,-130 184,-78 16,-78"/>
</g>
<!-- SacTinyMceComponent -->
<g id="node1" class="node">
<title>SacTinyMceComponent</title>
<polygon fill="#ffffb3" stroke="black" points="176.36,-122 23.64,-122 23.64,-86 176.36,-86 176.36,-122"/>
<text text-anchor="middle" x="100" y="-99.8" font-family="Times,serif" font-size="14.00">SacTinyMceComponent</text>
</g>
<!-- SACBootstrap5TinyMceModule -->
<g id="node2" class="node">
<title>SACBootstrap5TinyMceModule</title>
<polygon fill="#8dd3c7" stroke="black" points="598.53,-187 595.53,-191 574.53,-191 571.53,-187 399.47,-187 399.47,-151 598.53,-151 598.53,-187"/>
<text text-anchor="middle" x="499" y="-164.8" font-family="Times,serif" font-size="14.00">SACBootstrap5TinyMceModule</text>
</g>
<!-- SacTinyMceComponent&#45;&gt;SACBootstrap5TinyMceModule -->
<g id="edge1" class="edge">
<title>SacTinyMceComponent&#45;&gt;SACBootstrap5TinyMceModule</title>
<path fill="none" stroke="black" d="M100,-122.28C100,-143.32 100,-175 100,-175 100,-175 389.34,-175 389.34,-175"/>
<polygon fill="black" stroke="black" points="389.34,-178.5 399.34,-175 389.34,-171.5 389.34,-178.5"/>
</g>
<!-- SacTinyMceComponent  -->
<g id="node7" class="node">
<title>SacTinyMceComponent </title>
<polygon fill="#fb8072" stroke="black" points="577.36,-252 420.64,-252 420.64,-216 577.36,-216 577.36,-252"/>
<text text-anchor="middle" x="499" y="-229.8" font-family="Times,serif" font-size="14.00">SacTinyMceComponent </text>
</g>
<!-- SACBootstrap5TinyMceModule&#45;&gt;SacTinyMceComponent  -->
<g id="edge6" class="edge">
<title>SACBootstrap5TinyMceModule&#45;&gt;SacTinyMceComponent </title>
<path fill="none" stroke="black" stroke-dasharray="5,2" d="M499,-187.11C499,-187.11 499,-205.99 499,-205.99"/>
<polygon fill="black" stroke="black" points="495.5,-205.99 499,-215.99 502.5,-205.99 495.5,-205.99"/>
</g>
<!-- SACBootstrap5BrowserModule -->
<g id="node3" class="node">
<title>SACBootstrap5BrowserModule</title>
<polygon fill="#8dd3c7" stroke="black" points="1009.64,-122 1006.64,-126 985.64,-126 982.64,-122 814.36,-122 814.36,-86 1009.64,-86 1009.64,-122"/>
<text text-anchor="middle" x="912" y="-99.8" font-family="Times,serif" font-size="14.00">SACBootstrap5BrowserModule</text>
</g>
<!-- SACBootstrap5BrowserModule&#45;&gt;SACBootstrap5TinyMceModule -->
<g id="edge2" class="edge">
<title>SACBootstrap5BrowserModule&#45;&gt;SACBootstrap5TinyMceModule</title>
<path fill="none" stroke="black" d="M912,-122.28C912,-143.32 912,-175 912,-175 912,-175 608.71,-175 608.71,-175"/>
<polygon fill="black" stroke="black" points="608.71,-171.5 598.71,-175 608.71,-178.5 608.71,-171.5"/>
</g>
<!-- SACBootstrap5ButtonModule -->
<g id="node4" class="node">
<title>SACBootstrap5ButtonModule</title>
<polygon fill="#8dd3c7" stroke="black" points="796.33,-122 793.33,-126 772.33,-126 769.33,-122 609.67,-122 609.67,-86 796.33,-86 796.33,-122"/>
<text text-anchor="middle" x="703" y="-99.8" font-family="Times,serif" font-size="14.00">SACBootstrap5ButtonModule</text>
</g>
<!-- SACBootstrap5ButtonModule&#45;&gt;SACBootstrap5TinyMceModule -->
<g id="edge3" class="edge">
<title>SACBootstrap5ButtonModule&#45;&gt;SACBootstrap5TinyMceModule</title>
<path fill="none" stroke="black" d="M703,-122.02C703,-139.37 703,-163 703,-163 703,-163 608.61,-163 608.61,-163"/>
<polygon fill="black" stroke="black" points="608.61,-159.5 598.61,-163 608.61,-166.5 608.61,-159.5"/>
</g>
<!-- SACBootstrap5DialogModule -->
<g id="node5" class="node">
<title>SACBootstrap5DialogModule</title>
<polygon fill="#8dd3c7" stroke="black" points="592.32,-122 589.32,-126 568.32,-126 565.32,-122 405.68,-122 405.68,-86 592.32,-86 592.32,-122"/>
<text text-anchor="middle" x="499" y="-99.8" font-family="Times,serif" font-size="14.00">SACBootstrap5DialogModule</text>
</g>
<!-- SACBootstrap5DialogModule&#45;&gt;SACBootstrap5TinyMceModule -->
<g id="edge4" class="edge">
<title>SACBootstrap5DialogModule&#45;&gt;SACBootstrap5TinyMceModule</title>
<path fill="none" stroke="black" d="M499,-122.11C499,-122.11 499,-140.99 499,-140.99"/>
<polygon fill="black" stroke="black" points="495.5,-140.99 499,-150.99 502.5,-140.99 495.5,-140.99"/>
</g>
<!-- SACBootstrap5LayoutModule -->
<g id="node6" class="node">
<title>SACBootstrap5LayoutModule</title>
<polygon fill="#8dd3c7" stroke="black" points="387.87,-122 384.87,-126 363.87,-126 360.87,-122 200.13,-122 200.13,-86 387.87,-86 387.87,-122"/>
<text text-anchor="middle" x="294" y="-99.8" font-family="Times,serif" font-size="14.00">SACBootstrap5LayoutModule</text>
</g>
<!-- SACBootstrap5LayoutModule&#45;&gt;SACBootstrap5TinyMceModule -->
<g id="edge5" class="edge">
<title>SACBootstrap5LayoutModule&#45;&gt;SACBootstrap5TinyMceModule</title>
<path fill="none" stroke="black" d="M294,-122.02C294,-139.37 294,-163 294,-163 294,-163 389.2,-163 389.2,-163"/>
<polygon fill="black" stroke="black" points="389.2,-166.5 399.2,-163 389.2,-159.5 389.2,-166.5"/>
</g>
</g>
</svg>
