<?xml version="1.0" encoding="UTF-8" standalone="no"?>
<!DOCTYPE svg PUBLIC "-//W3C//DTD SVG 1.1//EN"
 "http://www.w3.org/Graphics/SVG/1.1/DTD/svg11.dtd">
<!-- Generated by graphviz version 2.47.0 (20210316.0004)
 -->
<!-- Title: dependencies Pages: 1 -->
<svg width="836pt" height="284pt"
 viewBox="0.00 0.00 836.00 284.00" xmlns="http://www.w3.org/2000/svg" xmlns:xlink="http://www.w3.org/1999/xlink">
<g id="graph0" class="graph" transform="scale(1 1) rotate(0) translate(4 280)">
<title>dependencies</title>
<polygon fill="white" stroke="transparent" points="-4,4 -4,-280 832,-280 832,4 -4,4"/>
<text text-anchor="start" x="393.01" y="-42.4" font-family="Times-12" font-weight="bold" font-size="14.00">Legend</text>
<polygon fill="#ffffb3" stroke="transparent" points="180,-10 180,-30 200,-30 200,-10 180,-10"/>
<text text-anchor="start" x="203.63" y="-15.4" font-family="Times-12" font-size="14.00"> &#160;Declarations</text>
<polygon fill="#8dd3c7" stroke="transparent" points="293,-10 293,-30 313,-30 313,-10 293,-10"/>
<text text-anchor="start" x="316.73" y="-15.4" font-family="Times-12" font-size="14.00"> &#160;Module</text>
<polygon fill="#80b1d3" stroke="transparent" points="379,-10 379,-30 399,-30 399,-10 379,-10"/>
<text text-anchor="start" x="402.78" y="-15.4" font-family="Times-12" font-size="14.00"> &#160;Bootstrap</text>
<polygon fill="#fdb462" stroke="transparent" points="476,-10 476,-30 496,-30 496,-10 476,-10"/>
<text text-anchor="start" x="499.67" y="-15.4" font-family="Times-12" font-size="14.00"> &#160;Providers</text>
<polygon fill="#fb8072" stroke="transparent" points="572,-10 572,-30 592,-30 592,-10 572,-10"/>
<text text-anchor="start" x="595.73" y="-15.4" font-family="Times-12" font-size="14.00"> &#160;Exports</text>
<g id="clust1" class="cluster">
<title>cluster_SACBootstrap5TinyMceModule</title>
<polygon fill="none" stroke="black" stroke-dasharray="1,5" points="8,-70 8,-268 820,-268 820,-70 8,-70"/>
</g>
<g id="clust2" class="cluster">
<title>cluster_SACBootstrap5TinyMceModule_declarations</title>
<polygon fill="none" stroke="black" points="644,-78 644,-130 812,-130 812,-78 644,-78"/>
</g>
<g id="clust5" class="cluster">
<title>cluster_SACBootstrap5TinyMceModule_exports</title>
<polygon fill="none" stroke="black" points="339,-208 339,-260 511,-260 511,-208 339,-208"/>
</g>
<g id="clust4" class="cluster">
<title>cluster_SACBootstrap5TinyMceModule_imports</title>
<polygon fill="none" stroke="black" points="16,-78 16,-130 636,-130 636,-78 16,-78"/>
</g>
<!-- SacTinyMceComponent -->
<g id="node1" class="node">
<title>SacTinyMceComponent</title>
<polygon fill="#ffffb3" stroke="black" points="804.36,-122 651.64,-122 651.64,-86 804.36,-86 804.36,-122"/>
<text text-anchor="middle" x="728" y="-99.8" font-family="Times,serif" font-size="14.00">SacTinyMceComponent</text>
</g>
<!-- SACBootstrap5TinyMceModule -->
<g id="node2" class="node">
<title>SACBootstrap5TinyMceModule</title>
<polygon fill="#8dd3c7" stroke="black" points="524.53,-187 521.53,-191 500.53,-191 497.53,-187 325.47,-187 325.47,-151 524.53,-151 524.53,-187"/>
<text text-anchor="middle" x="425" y="-164.8" font-family="Times,serif" font-size="14.00">SACBootstrap5TinyMceModule</text>
</g>
<!-- SacTinyMceComponent&#45;&gt;SACBootstrap5TinyMceModule -->
<g id="edge1" class="edge">
<title>SacTinyMceComponent&#45;&gt;SACBootstrap5TinyMceModule</title>
<path fill="none" stroke="black" d="M728,-122.11C728,-141.34 728,-169 728,-169 728,-169 534.63,-169 534.63,-169"/>
<polygon fill="black" stroke="black" points="534.63,-165.5 524.63,-169 534.63,-172.5 534.63,-165.5"/>
</g>
<!-- SacTinyMceComponent  -->
<g id="node6" class="node">
<title>SacTinyMceComponent </title>
<polygon fill="#fb8072" stroke="black" points="503.36,-252 346.64,-252 346.64,-216 503.36,-216 503.36,-252"/>
<text text-anchor="middle" x="425" y="-229.8" font-family="Times,serif" font-size="14.00">SacTinyMceComponent </text>
</g>
<!-- SACBootstrap5TinyMceModule&#45;&gt;SacTinyMceComponent  -->
<g id="edge5" class="edge">
<title>SACBootstrap5TinyMceModule&#45;&gt;SacTinyMceComponent </title>
<path fill="none" stroke="black" stroke-dasharray="5,2" d="M425,-187.11C425,-187.11 425,-205.99 425,-205.99"/>
<polygon fill="black" stroke="black" points="421.5,-205.99 425,-215.99 428.5,-205.99 421.5,-205.99"/>
</g>
<!-- SACBootstrap5BrowserModule -->
<g id="node3" class="node">
<title>SACBootstrap5BrowserModule</title>
<polygon fill="#8dd3c7" stroke="black" points="627.64,-122 624.64,-126 603.64,-126 600.64,-122 432.36,-122 432.36,-86 627.64,-86 627.64,-122"/>
<text text-anchor="middle" x="530" y="-99.8" font-family="Times,serif" font-size="14.00">SACBootstrap5BrowserModule</text>
</g>
<!-- SACBootstrap5BrowserModule&#45;&gt;SACBootstrap5TinyMceModule -->
<g id="edge2" class="edge">
<title>SACBootstrap5BrowserModule&#45;&gt;SACBootstrap5TinyMceModule</title>
<path fill="none" stroke="black" d="M478.47,-122.11C478.47,-122.11 478.47,-140.99 478.47,-140.99"/>
<polygon fill="black" stroke="black" points="474.97,-140.99 478.47,-150.99 481.97,-140.99 474.97,-140.99"/>
</g>
<!-- SACBootstrap5ButtonModule -->
<g id="node4" class="node">
<title>SACBootstrap5ButtonModule</title>
<polygon fill="#8dd3c7" stroke="black" points="414.33,-122 411.33,-126 390.33,-126 387.33,-122 227.67,-122 227.67,-86 414.33,-86 414.33,-122"/>
<text text-anchor="middle" x="321" y="-99.8" font-family="Times,serif" font-size="14.00">SACBootstrap5ButtonModule</text>
</g>
<!-- SACBootstrap5ButtonModule&#45;&gt;SACBootstrap5TinyMceModule -->
<g id="edge3" class="edge">
<title>SACBootstrap5ButtonModule&#45;&gt;SACBootstrap5TinyMceModule</title>
<path fill="none" stroke="black" d="M369.7,-122.11C369.7,-122.11 369.7,-140.99 369.7,-140.99"/>
<polygon fill="black" stroke="black" points="366.2,-140.99 369.7,-150.99 373.2,-140.99 366.2,-140.99"/>
</g>
<!-- SACBootstrap5DialogModule -->
<g id="node5" class="node">
<title>SACBootstrap5DialogModule</title>
<polygon fill="#8dd3c7" stroke="black" points="210.32,-122 207.32,-126 186.32,-126 183.32,-122 23.68,-122 23.68,-86 210.32,-86 210.32,-122"/>
<text text-anchor="middle" x="117" y="-99.8" font-family="Times,serif" font-size="14.00">SACBootstrap5DialogModule</text>
</g>
<!-- SACBootstrap5DialogModule&#45;&gt;SACBootstrap5TinyMceModule -->
<g id="edge4" class="edge">
<title>SACBootstrap5DialogModule&#45;&gt;SACBootstrap5TinyMceModule</title>
<path fill="none" stroke="black" d="M117,-122.11C117,-141.34 117,-169 117,-169 117,-169 315.43,-169 315.43,-169"/>
<polygon fill="black" stroke="black" points="315.43,-172.5 325.43,-169 315.43,-165.5 315.43,-172.5"/>
</g>
</g>
</svg>
