<?xml version="1.0" encoding="UTF-8" standalone="no"?>
<!DOCTYPE svg PUBLIC "-//W3C//DTD SVG 1.1//EN"
 "http://www.w3.org/Graphics/SVG/1.1/DTD/svg11.dtd">
<!-- Generated by graphviz version 2.47.0 (20210316.0004)
 -->
<!-- Title: dependencies Pages: 1 -->
<svg width="836pt" height="284pt"
 viewBox="0.00 0.00 836.00 284.00" xmlns="http://www.w3.org/2000/svg" xmlns:xlink="http://www.w3.org/1999/xlink">
<g id="graph0" class="graph" transform="scale(1 1) rotate(0) translate(4 280)">
<title>dependencies</title>
<polygon fill="white" stroke="transparent" points="-4,4 -4,-280 832,-280 832,4 -4,4"/>
<text text-anchor="start" x="393.01" y="-42.4" font-family="Times-12" font-weight="bold" font-size="14.00">Legend</text>
<polygon fill="#ffffb3" stroke="transparent" points="180,-10 180,-30 200,-30 200,-10 180,-10"/>
<text text-anchor="start" x="203.63" y="-15.4" font-family="Times-12" font-size="14.00"> &#160;Declarations</text>
<polygon fill="#8dd3c7" stroke="transparent" points="293,-10 293,-30 313,-30 313,-10 293,-10"/>
<text text-anchor="start" x="316.73" y="-15.4" font-family="Times-12" font-size="14.00"> &#160;Module</text>
<polygon fill="#80b1d3" stroke="transparent" points="379,-10 379,-30 399,-30 399,-10 379,-10"/>
<text text-anchor="start" x="402.78" y="-15.4" font-family="Times-12" font-size="14.00"> &#160;Bootstrap</text>
<polygon fill="#fdb462" stroke="transparent" points="476,-10 476,-30 496,-30 496,-10 476,-10"/>
<text text-anchor="start" x="499.67" y="-15.4" font-family="Times-12" font-size="14.00"> &#160;Providers</text>
<polygon fill="#fb8072" stroke="transparent" points="572,-10 572,-30 592,-30 592,-10 572,-10"/>
<text text-anchor="start" x="595.73" y="-15.4" font-family="Times-12" font-size="14.00"> &#160;Exports</text>
<g id="clust1" class="cluster">
<title>cluster_SACBootstrap5TinyMceModule</title>
<polygon fill="none" stroke="black" stroke-dasharray="1,5" points="8,-70 8,-268 820,-268 820,-70 8,-70"/>
</g>
<g id="clust5" class="cluster">
<title>cluster_SACBootstrap5TinyMceModule_exports</title>
<polygon fill="none" stroke="black" points="309,-208 309,-260 481,-260 481,-208 309,-208"/>
</g>
<g id="clust4" class="cluster">
<title>cluster_SACBootstrap5TinyMceModule_imports</title>
<polygon fill="none" stroke="black" points="192,-78 192,-130 812,-130 812,-78 192,-78"/>
</g>
<g id="clust2" class="cluster">
<title>cluster_SACBootstrap5TinyMceModule_declarations</title>
<polygon fill="none" stroke="black" points="16,-78 16,-130 184,-130 184,-78 16,-78"/>
</g>
<!-- SacTinyMceComponent -->
<g id="node1" class="node">
<title>SacTinyMceComponent</title>
<polygon fill="#ffffb3" stroke="black" points="176.36,-122 23.64,-122 23.64,-86 176.36,-86 176.36,-122"/>
<text text-anchor="middle" x="100" y="-99.8" font-family="Times,serif" font-size="14.00">SacTinyMceComponent</text>
</g>
<!-- SACBootstrap5TinyMceModule -->
<g id="node2" class="node">
<title>SACBootstrap5TinyMceModule</title>
<polygon fill="#8dd3c7" stroke="black" points="494.53,-187 491.53,-191 470.53,-191 467.53,-187 295.47,-187 295.47,-151 494.53,-151 494.53,-187"/>
<text text-anchor="middle" x="395" y="-164.8" font-family="Times,serif" font-size="14.00">SACBootstrap5TinyMceModule</text>
</g>
<!-- SacTinyMceComponent&#45;&gt;SACBootstrap5TinyMceModule -->
<g id="edge1" class="edge">
<title>SacTinyMceComponent&#45;&gt;SACBootstrap5TinyMceModule</title>
<path fill="none" stroke="black" d="M100,-122.11C100,-141.34 100,-169 100,-169 100,-169 285.13,-169 285.13,-169"/>
<polygon fill="black" stroke="black" points="285.13,-172.5 295.13,-169 285.13,-165.5 285.13,-172.5"/>
</g>
<!-- SacTinyMceComponent  -->
<g id="node6" class="node">
<title>SacTinyMceComponent </title>
<polygon fill="#fb8072" stroke="black" points="473.36,-252 316.64,-252 316.64,-216 473.36,-216 473.36,-252"/>
<text text-anchor="middle" x="395" y="-229.8" font-family="Times,serif" font-size="14.00">SacTinyMceComponent </text>
</g>
<!-- SACBootstrap5TinyMceModule&#45;&gt;SacTinyMceComponent  -->
<g id="edge5" class="edge">
<title>SACBootstrap5TinyMceModule&#45;&gt;SacTinyMceComponent </title>
<path fill="none" stroke="black" stroke-dasharray="5,2" d="M395,-187.11C395,-187.11 395,-205.99 395,-205.99"/>
<polygon fill="black" stroke="black" points="391.5,-205.99 395,-215.99 398.5,-205.99 391.5,-205.99"/>
</g>
<!-- SACBootstrap5BrowserModule -->
<g id="node3" class="node">
<title>SACBootstrap5BrowserModule</title>
<polygon fill="#8dd3c7" stroke="black" points="803.64,-122 800.64,-126 779.64,-126 776.64,-122 608.36,-122 608.36,-86 803.64,-86 803.64,-122"/>
<text text-anchor="middle" x="706" y="-99.8" font-family="Times,serif" font-size="14.00">SACBootstrap5BrowserModule</text>
</g>
<!-- SACBootstrap5BrowserModule&#45;&gt;SACBootstrap5TinyMceModule -->
<g id="edge2" class="edge">
<title>SACBootstrap5BrowserModule&#45;&gt;SACBootstrap5TinyMceModule</title>
<path fill="none" stroke="black" d="M706,-122.11C706,-141.34 706,-169 706,-169 706,-169 504.69,-169 504.69,-169"/>
<polygon fill="black" stroke="black" points="504.69,-165.5 494.69,-169 504.69,-172.5 504.69,-165.5"/>
</g>
<!-- SACBootstrap5ButtonModule -->
<g id="node4" class="node">
<title>SACBootstrap5ButtonModule</title>
<polygon fill="#8dd3c7" stroke="black" points="590.33,-122 587.33,-126 566.33,-126 563.33,-122 403.67,-122 403.67,-86 590.33,-86 590.33,-122"/>
<text text-anchor="middle" x="497" y="-99.8" font-family="Times,serif" font-size="14.00">SACBootstrap5ButtonModule</text>
</g>
<!-- SACBootstrap5ButtonModule&#45;&gt;SACBootstrap5TinyMceModule -->
<g id="edge3" class="edge">
<title>SACBootstrap5ButtonModule&#45;&gt;SACBootstrap5TinyMceModule</title>
<path fill="none" stroke="black" d="M449.3,-122.11C449.3,-122.11 449.3,-140.99 449.3,-140.99"/>
<polygon fill="black" stroke="black" points="445.8,-140.99 449.3,-150.99 452.8,-140.99 445.8,-140.99"/>
</g>
<!-- SACBootstrap5DialogModule -->
<g id="node5" class="node">
<title>SACBootstrap5DialogModule</title>
<polygon fill="#8dd3c7" stroke="black" points="386.32,-122 383.32,-126 362.32,-126 359.32,-122 199.68,-122 199.68,-86 386.32,-86 386.32,-122"/>
<text text-anchor="middle" x="293" y="-99.8" font-family="Times,serif" font-size="14.00">SACBootstrap5DialogModule</text>
</g>
<!-- SACBootstrap5DialogModule&#45;&gt;SACBootstrap5TinyMceModule -->
<g id="edge4" class="edge">
<title>SACBootstrap5DialogModule&#45;&gt;SACBootstrap5TinyMceModule</title>
<path fill="none" stroke="black" d="M340.7,-122.11C340.7,-122.11 340.7,-140.99 340.7,-140.99"/>
<polygon fill="black" stroke="black" points="337.2,-140.99 340.7,-150.99 344.2,-140.99 337.2,-140.99"/>
</g>
</g>
</svg>
