<?xml version="1.0" encoding="UTF-8" standalone="no"?>
<!DOCTYPE svg PUBLIC "-//W3C//DTD SVG 1.1//EN"
 "http://www.w3.org/Graphics/SVG/1.1/DTD/svg11.dtd">
<!-- Generated by graphviz version 2.47.0 (20210316.0004)
 -->
<!-- Title: dependencies Pages: 1 -->
<svg width="1070pt" height="284pt"
 viewBox="0.00 0.00 1070.00 284.00" xmlns="http://www.w3.org/2000/svg" xmlns:xlink="http://www.w3.org/1999/xlink">
<g id="graph0" class="graph" transform="scale(1 1) rotate(0) translate(4 280)">
<title>dependencies</title>
<polygon fill="white" stroke="transparent" points="-4,4 -4,-280 1066,-280 1066,4 -4,4"/>
<text text-anchor="start" x="510.01" y="-42.4" font-family="Times-12" font-weight="bold" font-size="14.00">Legend</text>
<polygon fill="#ffffb3" stroke="transparent" points="297,-10 297,-30 317,-30 317,-10 297,-10"/>
<text text-anchor="start" x="320.63" y="-15.4" font-family="Times-12" font-size="14.00"> &#160;Declarations</text>
<polygon fill="#8dd3c7" stroke="transparent" points="410,-10 410,-30 430,-30 430,-10 410,-10"/>
<text text-anchor="start" x="433.73" y="-15.4" font-family="Times-12" font-size="14.00"> &#160;Module</text>
<polygon fill="#80b1d3" stroke="transparent" points="496,-10 496,-30 516,-30 516,-10 496,-10"/>
<text text-anchor="start" x="519.78" y="-15.4" font-family="Times-12" font-size="14.00"> &#160;Bootstrap</text>
<polygon fill="#fdb462" stroke="transparent" points="593,-10 593,-30 613,-30 613,-10 593,-10"/>
<text text-anchor="start" x="616.67" y="-15.4" font-family="Times-12" font-size="14.00"> &#160;Providers</text>
<polygon fill="#fb8072" stroke="transparent" points="689,-10 689,-30 709,-30 709,-10 689,-10"/>
<text text-anchor="start" x="712.73" y="-15.4" font-family="Times-12" font-size="14.00"> &#160;Exports</text>
<g id="clust1" class="cluster">
<title>cluster_SACBootstrap4BrowserModule</title>
<polygon fill="none" stroke="black" stroke-dasharray="1,5" points="8,-70 8,-268 1054,-268 1054,-70 8,-70"/>
</g>
<g id="clust4" class="cluster">
<title>cluster_SACBootstrap4BrowserModule_imports</title>
<polygon fill="none" stroke="black" points="188,-78 188,-130 1046,-130 1046,-78 188,-78"/>
</g>
<g id="clust6" class="cluster">
<title>cluster_SACBootstrap4BrowserModule_bootstrap</title>
<polygon fill="none" stroke="black" points="409,-208 409,-260 577,-260 577,-208 409,-208"/>
</g>
<g id="clust2" class="cluster">
<title>cluster_SACBootstrap4BrowserModule_declarations</title>
<polygon fill="none" stroke="black" points="16,-78 16,-130 180,-130 180,-78 16,-78"/>
</g>
<!-- SacBrowserComponent -->
<g id="node1" class="node">
<title>SacBrowserComponent</title>
<polygon fill="#ffffb3" stroke="black" points="172.47,-122 23.53,-122 23.53,-86 172.47,-86 172.47,-122"/>
<text text-anchor="middle" x="98" y="-99.8" font-family="Times,serif" font-size="14.00">SacBrowserComponent</text>
</g>
<!-- SACBootstrap4BrowserModule -->
<g id="node2" class="node">
<title>SACBootstrap4BrowserModule</title>
<polygon fill="#8dd3c7" stroke="black" points="590.64,-187 587.64,-191 566.64,-191 563.64,-187 395.36,-187 395.36,-151 590.64,-151 590.64,-187"/>
<text text-anchor="middle" x="493" y="-164.8" font-family="Times,serif" font-size="14.00">SACBootstrap4BrowserModule</text>
</g>
<!-- SacBrowserComponent&#45;&gt;SACBootstrap4BrowserModule -->
<g id="edge1" class="edge">
<title>SacBrowserComponent&#45;&gt;SACBootstrap4BrowserModule</title>
<path fill="none" stroke="black" d="M98,-122.11C98,-141.34 98,-169 98,-169 98,-169 385.36,-169 385.36,-169"/>
<polygon fill="black" stroke="black" points="385.36,-172.5 395.36,-169 385.36,-165.5 385.36,-172.5"/>
</g>
<!-- SacBrowserComponent  -->
<g id="node7" class="node">
<title>SacBrowserComponent </title>
<polygon fill="#fb8072" stroke="black" points="569.47,-252 416.53,-252 416.53,-216 569.47,-216 569.47,-252"/>
<text text-anchor="middle" x="493" y="-229.8" font-family="Times,serif" font-size="14.00">SacBrowserComponent </text>
</g>
<!-- SACBootstrap4BrowserModule&#45;&gt;SacBrowserComponent  -->
<g id="edge6" class="edge">
<title>SACBootstrap4BrowserModule&#45;&gt;SacBrowserComponent </title>
<path fill="none" stroke="black" stroke-dasharray="5,2" d="M518.41,-187.11C518.41,-187.11 518.41,-205.99 518.41,-205.99"/>
<polygon fill="black" stroke="black" points="514.91,-205.99 518.41,-215.99 521.91,-205.99 514.91,-205.99"/>
</g>
<!-- SACBootstrap4BrowserModule&#45;&gt;SacBrowserComponent  -->
<g id="edge7" class="edge">
<title>SACBootstrap4BrowserModule&#45;&gt;SacBrowserComponent </title>
<path fill="none" stroke="black" stroke-dasharray="1,5" d="M467.59,-187.11C467.59,-187.11 467.59,-205.99 467.59,-205.99"/>
<polygon fill="black" stroke="black" points="464.09,-205.99 467.59,-215.99 471.09,-205.99 464.09,-205.99"/>
</g>
<!-- SACBootstrap4ConfirmModule -->
<g id="node3" class="node">
<title>SACBootstrap4ConfirmModule</title>
<polygon fill="#8dd3c7" stroke="black" points="1037.65,-122 1034.65,-126 1013.65,-126 1010.65,-122 842.35,-122 842.35,-86 1037.65,-86 1037.65,-122"/>
<text text-anchor="middle" x="940" y="-99.8" font-family="Times,serif" font-size="14.00">SACBootstrap4ConfirmModule</text>
</g>
<!-- SACBootstrap4ConfirmModule&#45;&gt;SACBootstrap4BrowserModule -->
<g id="edge2" class="edge">
<title>SACBootstrap4ConfirmModule&#45;&gt;SACBootstrap4BrowserModule</title>
<path fill="none" stroke="black" d="M940,-122.11C940,-141.34 940,-169 940,-169 940,-169 600.82,-169 600.82,-169"/>
<polygon fill="black" stroke="black" points="600.82,-165.5 590.82,-169 600.82,-172.5 600.82,-165.5"/>
</g>
<!-- SACBootstrap4ContextmenuModule -->
<g id="node4" class="node">
<title>SACBootstrap4ContextmenuModule</title>
<polygon fill="#8dd3c7" stroke="black" points="823.65,-122 820.65,-126 799.65,-126 796.65,-122 600.35,-122 600.35,-86 823.65,-86 823.65,-122"/>
<text text-anchor="middle" x="712" y="-99.8" font-family="Times,serif" font-size="14.00">SACBootstrap4ContextmenuModule</text>
</g>
<!-- SACBootstrap4ContextmenuModule&#45;&gt;SACBootstrap4BrowserModule -->
<g id="edge3" class="edge">
<title>SACBootstrap4ContextmenuModule&#45;&gt;SACBootstrap4BrowserModule</title>
<path fill="none" stroke="black" d="M599.97,-104C591.72,-104 586.55,-104 586.55,-104 586.55,-104 586.55,-140.89 586.55,-140.89"/>
<polygon fill="black" stroke="black" points="583.05,-140.89 586.55,-150.89 590.05,-140.89 583.05,-140.89"/>
</g>
<!-- SACBootstrap4FormModule -->
<g id="node5" class="node">
<title>SACBootstrap4FormModule</title>
<polygon fill="#8dd3c7" stroke="black" points="582.05,-122 579.05,-126 558.05,-126 555.05,-122 403.95,-122 403.95,-86 582.05,-86 582.05,-122"/>
<text text-anchor="middle" x="493" y="-99.8" font-family="Times,serif" font-size="14.00">SACBootstrap4FormModule</text>
</g>
<!-- SACBootstrap4FormModule&#45;&gt;SACBootstrap4BrowserModule -->
<g id="edge4" class="edge">
<title>SACBootstrap4FormModule&#45;&gt;SACBootstrap4BrowserModule</title>
<path fill="none" stroke="black" d="M493,-122.11C493,-122.11 493,-140.99 493,-140.99"/>
<polygon fill="black" stroke="black" points="489.5,-140.99 493,-150.99 496.5,-140.99 489.5,-140.99"/>
</g>
<!-- SACBootstrap4UploadModule -->
<g id="node6" class="node">
<title>SACBootstrap4UploadModule</title>
<polygon fill="#8dd3c7" stroke="black" points="385.93,-122 382.93,-126 361.93,-126 358.93,-122 196.07,-122 196.07,-86 385.93,-86 385.93,-122"/>
<text text-anchor="middle" x="291" y="-99.8" font-family="Times,serif" font-size="14.00">SACBootstrap4UploadModule</text>
</g>
<!-- SACBootstrap4UploadModule&#45;&gt;SACBootstrap4BrowserModule -->
<g id="edge5" class="edge">
<title>SACBootstrap4UploadModule&#45;&gt;SACBootstrap4BrowserModule</title>
<path fill="none" stroke="black" d="M385.72,-104C394.08,-104 399.45,-104 399.45,-104 399.45,-104 399.45,-140.89 399.45,-140.89"/>
<polygon fill="black" stroke="black" points="395.95,-140.89 399.45,-150.89 402.95,-140.89 395.95,-140.89"/>
</g>
</g>
</svg>
