<?xml version="1.0" encoding="UTF-8" standalone="no"?>
<!DOCTYPE svg PUBLIC "-//W3C//DTD SVG 1.1//EN"
 "http://www.w3.org/Graphics/SVG/1.1/DTD/svg11.dtd">
<!-- Generated by graphviz version 2.40.1 (20161225.0304)
 -->
<!-- Title: dependencies Pages: 1 -->
<svg width="504pt" height="284pt"
 viewBox="0.00 0.00 504.00 284.00" xmlns="http://www.w3.org/2000/svg" xmlns:xlink="http://www.w3.org/1999/xlink">
<g id="graph0" class="graph" transform="scale(1 1) rotate(0) translate(4 280)">
<title>dependencies</title>
<polygon fill="#ffffff" stroke="transparent" points="-4,4 -4,-280 500,-280 500,4 -4,4"/>
<text text-anchor="start" x="227.0091" y="-42.4" font-family="sans-serif" font-weight="bold" font-size="14.00" fill="#000000">Legend</text>
<polygon fill="#ffffb3" stroke="transparent" points="14,-10 14,-30 34,-30 34,-10 14,-10"/>
<text text-anchor="start" x="37.629" y="-15.4" font-family="sans-serif" font-size="14.00" fill="#000000"> &#160;Declarations</text>
<polygon fill="#8dd3c7" stroke="transparent" points="127,-10 127,-30 147,-30 147,-10 127,-10"/>
<text text-anchor="start" x="150.7251" y="-15.4" font-family="sans-serif" font-size="14.00" fill="#000000"> &#160;Module</text>
<polygon fill="#80b1d3" stroke="transparent" points="213,-10 213,-30 233,-30 233,-10 213,-10"/>
<text text-anchor="start" x="236.7812" y="-15.4" font-family="sans-serif" font-size="14.00" fill="#000000"> &#160;Bootstrap</text>
<polygon fill="#fdb462" stroke="transparent" points="310,-10 310,-30 330,-30 330,-10 310,-10"/>
<text text-anchor="start" x="333.6732" y="-15.4" font-family="sans-serif" font-size="14.00" fill="#000000"> &#160;Providers</text>
<polygon fill="#fb8072" stroke="transparent" points="406,-10 406,-30 426,-30 426,-10 406,-10"/>
<text text-anchor="start" x="429.7258" y="-15.4" font-family="sans-serif" font-size="14.00" fill="#000000"> &#160;Exports</text>
<g id="clust1" class="cluster">
<title>cluster_JNetworkBootstrap3TinyMceModule</title>
<polygon fill="none" stroke="#000000" stroke-dasharray="1,5" points="46,-70 46,-268 450,-268 450,-70 46,-70"/>
</g>
<g id="clust2" class="cluster">
<title>cluster_JNetworkBootstrap3TinyMceModule_declarations</title>
<polygon fill="none" stroke="#000000" points="276,-78 276,-130 442,-130 442,-78 276,-78"/>
</g>
<g id="clust4" class="cluster">
<title>cluster_JNetworkBootstrap3TinyMceModule_imports</title>
<polygon fill="none" stroke="#000000" points="54,-78 54,-130 268,-130 268,-78 54,-78"/>
</g>
<g id="clust5" class="cluster">
<title>cluster_JNetworkBootstrap3TinyMceModule_exports</title>
<polygon fill="none" stroke="#000000" points="163,-208 163,-260 333,-260 333,-208 163,-208"/>
</g>
<!-- NgTinyMceComponent -->
<g id="node1" class="node">
<title>NgTinyMceComponent</title>
<polygon fill="#ffffb3" stroke="#000000" points="433.7562,-122 284.2438,-122 284.2438,-86 433.7562,-86 433.7562,-122"/>
<text text-anchor="middle" x="359" y="-99.8" font-family="Times,serif" font-size="14.00" fill="#000000">NgTinyMceComponent</text>
</g>
<!-- JNetworkBootstrap3TinyMceModule -->
<g id="node2" class="node">
<title>JNetworkBootstrap3TinyMceModule</title>
<polygon fill="#8dd3c7" stroke="#000000" points="361.2282,-187 358.2282,-191 337.2282,-191 334.2282,-187 134.7718,-187 134.7718,-151 361.2282,-151 361.2282,-187"/>
<text text-anchor="middle" x="248" y="-164.8" font-family="Times,serif" font-size="14.00" fill="#000000">JNetworkBootstrap3TinyMceModule</text>
</g>
<!-- NgTinyMceComponent&#45;&gt;JNetworkBootstrap3TinyMceModule -->
<g id="edge1" class="edge">
<title>NgTinyMceComponent&#45;&gt;JNetworkBootstrap3TinyMceModule</title>
<path fill="none" stroke="#000000" d="M322.743,-122.1061C322.743,-122.1061 322.743,-140.991 322.743,-140.991"/>
<polygon fill="#000000" stroke="#000000" points="319.2431,-140.9909 322.743,-150.991 326.2431,-140.991 319.2431,-140.9909"/>
</g>
<!-- NgTinyMceComponent  -->
<g id="node4" class="node">
<title>NgTinyMceComponent </title>
<polygon fill="#fb8072" stroke="#000000" points="324.7562,-252 171.2438,-252 171.2438,-216 324.7562,-216 324.7562,-252"/>
<text text-anchor="middle" x="248" y="-229.8" font-family="Times,serif" font-size="14.00" fill="#000000">NgTinyMceComponent </text>
</g>
<!-- JNetworkBootstrap3TinyMceModule&#45;&gt;NgTinyMceComponent  -->
<g id="edge3" class="edge">
<title>JNetworkBootstrap3TinyMceModule&#45;&gt;NgTinyMceComponent </title>
<path fill="none" stroke="#000000" stroke-dasharray="5,2" d="M248,-187.1061C248,-187.1061 248,-205.991 248,-205.991"/>
<polygon fill="#000000" stroke="#000000" points="244.5001,-205.9909 248,-215.991 251.5001,-205.991 244.5001,-205.9909"/>
</g>
<!-- jNetworkTinyMceEditorModule -->
<g id="node3" class="node">
<title>jNetworkTinyMceEditorModule</title>
<polygon fill="#8dd3c7" stroke="#000000" points="260.231,-122 257.231,-126 236.231,-126 233.231,-122 61.769,-122 61.769,-86 260.231,-86 260.231,-122"/>
<text text-anchor="middle" x="161" y="-99.8" font-family="Times,serif" font-size="14.00" fill="#000000">jNetworkTinyMceEditorModule</text>
</g>
<!-- jNetworkTinyMceEditorModule&#45;&gt;JNetworkBootstrap3TinyMceModule -->
<g id="edge2" class="edge">
<title>jNetworkTinyMceEditorModule&#45;&gt;JNetworkBootstrap3TinyMceModule</title>
<path fill="none" stroke="#000000" d="M197.5007,-122.1061C197.5007,-122.1061 197.5007,-140.991 197.5007,-140.991"/>
<polygon fill="#000000" stroke="#000000" points="194.0008,-140.9909 197.5007,-150.991 201.0008,-140.991 194.0008,-140.9909"/>
</g>
</g>
</svg>
