<?xml version="1.0" encoding="UTF-8" standalone="no"?>
<!DOCTYPE svg PUBLIC "-//W3C//DTD SVG 1.1//EN"
 "http://www.w3.org/Graphics/SVG/1.1/DTD/svg11.dtd">
<!-- Generated by graphviz version 2.40.1 (20161225.0304)
 -->
<!-- Title: dependencies Pages: 1 -->
<svg width="1422pt" height="349pt"
 viewBox="0.00 0.00 1422.00 349.00" xmlns="http://www.w3.org/2000/svg" xmlns:xlink="http://www.w3.org/1999/xlink">
<g id="graph0" class="graph" transform="scale(1 1) rotate(0) translate(4 345)">
<title>dependencies</title>
<polygon fill="#ffffff" stroke="transparent" points="-4,4 -4,-345 1418,-345 1418,4 -4,4"/>
<text text-anchor="start" x="686.0091" y="-42.4" font-family="sans-serif" font-weight="bold" font-size="14.00" fill="#000000">Legend</text>
<polygon fill="#ffffb3" stroke="transparent" points="473,-10 473,-30 493,-30 493,-10 473,-10"/>
<text text-anchor="start" x="496.629" y="-15.4" font-family="sans-serif" font-size="14.00" fill="#000000"> &#160;Declarations</text>
<polygon fill="#8dd3c7" stroke="transparent" points="586,-10 586,-30 606,-30 606,-10 586,-10"/>
<text text-anchor="start" x="609.7251" y="-15.4" font-family="sans-serif" font-size="14.00" fill="#000000"> &#160;Module</text>
<polygon fill="#80b1d3" stroke="transparent" points="672,-10 672,-30 692,-30 692,-10 672,-10"/>
<text text-anchor="start" x="695.7812" y="-15.4" font-family="sans-serif" font-size="14.00" fill="#000000"> &#160;Bootstrap</text>
<polygon fill="#fdb462" stroke="transparent" points="769,-10 769,-30 789,-30 789,-10 769,-10"/>
<text text-anchor="start" x="792.6732" y="-15.4" font-family="sans-serif" font-size="14.00" fill="#000000"> &#160;Providers</text>
<polygon fill="#fb8072" stroke="transparent" points="865,-10 865,-30 885,-30 885,-10 865,-10"/>
<text text-anchor="start" x="888.7258" y="-15.4" font-family="sans-serif" font-size="14.00" fill="#000000"> &#160;Exports</text>
<g id="clust1" class="cluster">
<title>cluster_jNetworkBootstrap3TinyMceModule</title>
<polygon fill="none" stroke="#000000" stroke-dasharray="1,5" points="8,-70 8,-333 1406,-333 1406,-70 8,-70"/>
</g>
<g id="clust2" class="cluster">
<title>cluster_jNetworkBootstrap3TinyMceModule_declarations</title>
<polygon fill="none" stroke="#000000" points="681,-143 681,-195 781,-195 781,-143 681,-143"/>
</g>
<g id="clust3" class="cluster">
<title>cluster_jNetworkBootstrap3TinyMceModule_NgTinyMce_providers</title>
<polygon fill="none" stroke="#000000" points="16,-78 16,-130 1398,-130 1398,-78 16,-78"/>
</g>
<g id="clust4" class="cluster">
<title>cluster_jNetworkBootstrap3TinyMceModule_imports</title>
<polygon fill="none" stroke="#000000" points="459,-143 459,-195 673,-195 673,-143 459,-143"/>
</g>
<g id="clust5" class="cluster">
<title>cluster_jNetworkBootstrap3TinyMceModule_exports</title>
<polygon fill="none" stroke="#000000" points="596,-273 596,-325 700,-325 700,-273 596,-273"/>
</g>
<!-- NgTinyMce -->
<g id="node1" class="node">
<title>NgTinyMce</title>
<polygon fill="#ffffb3" stroke="#000000" points="773.4247,-187 688.5753,-187 688.5753,-151 773.4247,-151 773.4247,-187"/>
<text text-anchor="middle" x="731" y="-164.8" font-family="Times,serif" font-size="14.00" fill="#000000">NgTinyMce</text>
</g>
<!-- jNetworkBootstrap3TinyMceModule -->
<g id="node2" class="node">
<title>jNetworkBootstrap3TinyMceModule</title>
<polygon fill="#8dd3c7" stroke="#000000" points="760.6741,-252 757.6741,-256 736.6741,-256 733.6741,-252 535.3259,-252 535.3259,-216 760.6741,-216 760.6741,-252"/>
<text text-anchor="middle" x="648" y="-229.8" font-family="Times,serif" font-size="14.00" fill="#000000">jNetworkBootstrap3TinyMceModule</text>
</g>
<!-- NgTinyMce&#45;&gt;jNetworkBootstrap3TinyMceModule -->
<g id="edge1" class="edge">
<title>NgTinyMce&#45;&gt;jNetworkBootstrap3TinyMceModule</title>
<path fill="none" stroke="#000000" d="M724.6876,-187.1061C724.6876,-187.1061 724.6876,-205.991 724.6876,-205.991"/>
<polygon fill="#000000" stroke="#000000" points="721.1877,-205.9909 724.6876,-215.991 728.1877,-205.991 721.1877,-205.9909"/>
</g>
<!-- NgTinyMce  -->
<g id="node6" class="node">
<title>NgTinyMce </title>
<polygon fill="#fb8072" stroke="#000000" points="691.9236,-317 604.0764,-317 604.0764,-281 691.9236,-281 691.9236,-317"/>
<text text-anchor="middle" x="648" y="-294.8" font-family="Times,serif" font-size="14.00" fill="#000000">NgTinyMce </text>
</g>
<!-- jNetworkBootstrap3TinyMceModule&#45;&gt;NgTinyMce  -->
<g id="edge5" class="edge">
<title>jNetworkBootstrap3TinyMceModule&#45;&gt;NgTinyMce </title>
<path fill="none" stroke="#000000" stroke-dasharray="5,2" d="M648,-252.1061C648,-252.1061 648,-270.991 648,-270.991"/>
<polygon fill="#000000" stroke="#000000" points="644.5001,-270.9909 648,-280.991 651.5001,-270.991 644.5001,-270.9909"/>
</g>
<!-- { provide: NG_VALUE_ACCESSOR, multi: true, useExisting: NgTinyMce } -->
<g id="node3" class="node">
<title>{ provide: NG_VALUE_ACCESSOR, multi: true, useExisting: NgTinyMce }</title>
<ellipse fill="#fdb462" stroke="#000000" cx="1077" cy="-104" rx="313.4203" ry="18"/>
<text text-anchor="middle" x="1077" y="-99.8" font-family="Times,serif" font-size="14.00" fill="#000000">{ provide: NG_VALUE_ACCESSOR, multi: true, useExisting: NgTinyMce }</text>
</g>
<!-- { provide: NG_VALUE_ACCESSOR, multi: true, useExisting: NgTinyMce }&#45;&gt;NgTinyMce -->
<g id="edge2" class="edge">
<title>{ provide: NG_VALUE_ACCESSOR, multi: true, useExisting: NgTinyMce }&#45;&gt;NgTinyMce</title>
<path fill="none" stroke="#000000" d="M768.3758,-107.4947C768.3758,-107.4947 768.3758,-140.7642 768.3758,-140.7642"/>
<polygon fill="#000000" stroke="#000000" points="764.8759,-140.7642 768.3758,-150.7642 771.8759,-140.7642 764.8759,-140.7642"/>
</g>
<!-- { provide: NG_VALIDATORS, useExisting: forwardRef(() =&gt; NgTinyMce), multi: true } -->
<g id="node4" class="node">
<title>{ provide: NG_VALIDATORS, useExisting: forwardRef(() =&gt; NgTinyMce), multi: true }</title>
<ellipse fill="#fdb462" stroke="#000000" cx="385" cy="-104" rx="360.5566" ry="18"/>
<text text-anchor="middle" x="385" y="-99.8" font-family="Times,serif" font-size="14.00" fill="#000000">{ provide: NG_VALIDATORS, useExisting: forwardRef(() =&gt; NgTinyMce), multi: true }</text>
</g>
<!-- { provide: NG_VALIDATORS, useExisting: forwardRef(() =&gt; NgTinyMce), multi: true }&#45;&gt;NgTinyMce -->
<g id="edge3" class="edge">
<title>{ provide: NG_VALIDATORS, useExisting: forwardRef(() =&gt; NgTinyMce), multi: true }&#45;&gt;NgTinyMce</title>
<path fill="none" stroke="#000000" d="M717.2832,-111.2045C717.2832,-111.2045 717.2832,-140.9586 717.2832,-140.9586"/>
<polygon fill="#000000" stroke="#000000" points="713.7833,-140.9586 717.2832,-150.9586 720.7833,-140.9587 713.7833,-140.9586"/>
</g>
<!-- jNetworkTinyMceEditorModule -->
<g id="node5" class="node">
<title>jNetworkTinyMceEditorModule</title>
<polygon fill="#8dd3c7" stroke="#000000" points="665.231,-187 662.231,-191 641.231,-191 638.231,-187 466.769,-187 466.769,-151 665.231,-151 665.231,-187"/>
<text text-anchor="middle" x="566" y="-164.8" font-family="Times,serif" font-size="14.00" fill="#000000">jNetworkTinyMceEditorModule</text>
</g>
<!-- jNetworkTinyMceEditorModule&#45;&gt;jNetworkBootstrap3TinyMceModule -->
<g id="edge4" class="edge">
<title>jNetworkTinyMceEditorModule&#45;&gt;jNetworkBootstrap3TinyMceModule</title>
<path fill="none" stroke="#000000" d="M600.3892,-187.1061C600.3892,-187.1061 600.3892,-205.991 600.3892,-205.991"/>
<polygon fill="#000000" stroke="#000000" points="596.8893,-205.9909 600.3892,-215.991 603.8893,-205.991 596.8893,-205.9909"/>
</g>
</g>
</svg>
