<?xml version="1.0" encoding="UTF-8" standalone="no"?>
<!DOCTYPE svg PUBLIC "-//W3C//DTD SVG 1.1//EN"
 "http://www.w3.org/Graphics/SVG/1.1/DTD/svg11.dtd">
<!-- Generated by graphviz version 2.40.1 (20161225.0304)
 -->
<!-- Title: dependencies Pages: 1 -->
<svg width="504pt" height="284pt"
 viewBox="0.00 0.00 504.00 284.00" xmlns="http://www.w3.org/2000/svg" xmlns:xlink="http://www.w3.org/1999/xlink">
<g id="graph0" class="graph" transform="scale(1 1) rotate(0) translate(4 280)">
<title>dependencies</title>
<polygon fill="#ffffff" stroke="transparent" points="-4,4 -4,-280 500,-280 500,4 -4,4"/>
<text text-anchor="start" x="227.0091" y="-42.4" font-family="sans-serif" font-weight="bold" font-size="14.00" fill="#000000">Legend</text>
<polygon fill="#ffffb3" stroke="transparent" points="14,-10 14,-30 34,-30 34,-10 14,-10"/>
<text text-anchor="start" x="37.629" y="-15.4" font-family="sans-serif" font-size="14.00" fill="#000000"> &#160;Declarations</text>
<polygon fill="#8dd3c7" stroke="transparent" points="127,-10 127,-30 147,-30 147,-10 127,-10"/>
<text text-anchor="start" x="150.7251" y="-15.4" font-family="sans-serif" font-size="14.00" fill="#000000"> &#160;Module</text>
<polygon fill="#80b1d3" stroke="transparent" points="213,-10 213,-30 233,-30 233,-10 213,-10"/>
<text text-anchor="start" x="236.7812" y="-15.4" font-family="sans-serif" font-size="14.00" fill="#000000"> &#160;Bootstrap</text>
<polygon fill="#fdb462" stroke="transparent" points="310,-10 310,-30 330,-30 330,-10 310,-10"/>
<text text-anchor="start" x="333.6732" y="-15.4" font-family="sans-serif" font-size="14.00" fill="#000000"> &#160;Providers</text>
<polygon fill="#fb8072" stroke="transparent" points="406,-10 406,-30 426,-30 426,-10 406,-10"/>
<text text-anchor="start" x="429.7258" y="-15.4" font-family="sans-serif" font-size="14.00" fill="#000000"> &#160;Exports</text>
<g id="clust1" class="cluster">
<title>cluster_jNetworkBootstrap3TinyMceModule</title>
<polygon fill="none" stroke="#000000" stroke-dasharray="1,5" points="79,-70 79,-268 417,-268 417,-70 79,-70"/>
</g>
<g id="clust2" class="cluster">
<title>cluster_jNetworkBootstrap3TinyMceModule_declarations</title>
<polygon fill="none" stroke="#000000" points="309,-78 309,-130 409,-130 409,-78 309,-78"/>
</g>
<g id="clust4" class="cluster">
<title>cluster_jNetworkBootstrap3TinyMceModule_imports</title>
<polygon fill="none" stroke="#000000" points="87,-78 87,-130 301,-130 301,-78 87,-78"/>
</g>
<g id="clust5" class="cluster">
<title>cluster_jNetworkBootstrap3TinyMceModule_exports</title>
<polygon fill="none" stroke="#000000" points="196,-208 196,-260 300,-260 300,-208 196,-208"/>
</g>
<!-- NgTinyMce -->
<g id="node1" class="node">
<title>NgTinyMce</title>
<polygon fill="#ffffb3" stroke="#000000" points="401.4247,-122 316.5753,-122 316.5753,-86 401.4247,-86 401.4247,-122"/>
<text text-anchor="middle" x="359" y="-99.8" font-family="Times,serif" font-size="14.00" fill="#000000">NgTinyMce</text>
</g>
<!-- jNetworkBootstrap3TinyMceModule -->
<g id="node2" class="node">
<title>jNetworkBootstrap3TinyMceModule</title>
<polygon fill="#8dd3c7" stroke="#000000" points="360.6741,-187 357.6741,-191 336.6741,-191 333.6741,-187 135.3259,-187 135.3259,-151 360.6741,-151 360.6741,-187"/>
<text text-anchor="middle" x="248" y="-164.8" font-family="Times,serif" font-size="14.00" fill="#000000">jNetworkBootstrap3TinyMceModule</text>
</g>
<!-- NgTinyMce&#45;&gt;jNetworkBootstrap3TinyMceModule -->
<g id="edge1" class="edge">
<title>NgTinyMce&#45;&gt;jNetworkBootstrap3TinyMceModule</title>
<path fill="none" stroke="#000000" d="M338.6876,-122.1061C338.6876,-122.1061 338.6876,-140.991 338.6876,-140.991"/>
<polygon fill="#000000" stroke="#000000" points="335.1877,-140.9909 338.6876,-150.991 342.1877,-140.991 335.1877,-140.9909"/>
</g>
<!-- NgTinyMce  -->
<g id="node4" class="node">
<title>NgTinyMce </title>
<polygon fill="#fb8072" stroke="#000000" points="291.9236,-252 204.0764,-252 204.0764,-216 291.9236,-216 291.9236,-252"/>
<text text-anchor="middle" x="248" y="-229.8" font-family="Times,serif" font-size="14.00" fill="#000000">NgTinyMce </text>
</g>
<!-- jNetworkBootstrap3TinyMceModule&#45;&gt;NgTinyMce  -->
<g id="edge3" class="edge">
<title>jNetworkBootstrap3TinyMceModule&#45;&gt;NgTinyMce </title>
<path fill="none" stroke="#000000" stroke-dasharray="5,2" d="M248,-187.1061C248,-187.1061 248,-205.991 248,-205.991"/>
<polygon fill="#000000" stroke="#000000" points="244.5001,-205.9909 248,-215.991 251.5001,-205.991 244.5001,-205.9909"/>
</g>
<!-- jNetworkTinyMceEditorModule -->
<g id="node3" class="node">
<title>jNetworkTinyMceEditorModule</title>
<polygon fill="#8dd3c7" stroke="#000000" points="293.231,-122 290.231,-126 269.231,-126 266.231,-122 94.769,-122 94.769,-86 293.231,-86 293.231,-122"/>
<text text-anchor="middle" x="194" y="-99.8" font-family="Times,serif" font-size="14.00" fill="#000000">jNetworkTinyMceEditorModule</text>
</g>
<!-- jNetworkTinyMceEditorModule&#45;&gt;jNetworkBootstrap3TinyMceModule -->
<g id="edge2" class="edge">
<title>jNetworkTinyMceEditorModule&#45;&gt;jNetworkBootstrap3TinyMceModule</title>
<path fill="none" stroke="#000000" d="M214.3892,-122.1061C214.3892,-122.1061 214.3892,-140.991 214.3892,-140.991"/>
<polygon fill="#000000" stroke="#000000" points="210.8893,-140.9909 214.3892,-150.991 217.8893,-140.991 210.8893,-140.9909"/>
</g>
</g>
</svg>
