<?xml version="1.0" encoding="UTF-8" standalone="no"?>
<!DOCTYPE svg PUBLIC "-//W3C//DTD SVG 1.1//EN"
 "http://www.w3.org/Graphics/SVG/1.1/DTD/svg11.dtd">
<!-- Generated by graphviz version 2.47.0 (20210316.0004)
 -->
<!-- Title: dependencies Pages: 1 -->
<svg width="504pt" height="284pt"
 viewBox="0.00 0.00 504.00 284.00" xmlns="http://www.w3.org/2000/svg" xmlns:xlink="http://www.w3.org/1999/xlink">
<g id="graph0" class="graph" transform="scale(1 1) rotate(0) translate(4 280)">
<title>dependencies</title>
<polygon fill="white" stroke="transparent" points="-4,4 -4,-280 500,-280 500,4 -4,4"/>
<text text-anchor="start" x="227.01" y="-42.4" font-family="Times-12" font-weight="bold" font-size="14.00">Legend</text>
<polygon fill="#ffffb3" stroke="transparent" points="14,-10 14,-30 34,-30 34,-10 14,-10"/>
<text text-anchor="start" x="37.63" y="-15.4" font-family="Times-12" font-size="14.00"> &#160;Declarations</text>
<polygon fill="#8dd3c7" stroke="transparent" points="127,-10 127,-30 147,-30 147,-10 127,-10"/>
<text text-anchor="start" x="150.73" y="-15.4" font-family="Times-12" font-size="14.00"> &#160;Module</text>
<polygon fill="#80b1d3" stroke="transparent" points="213,-10 213,-30 233,-30 233,-10 213,-10"/>
<text text-anchor="start" x="236.78" y="-15.4" font-family="Times-12" font-size="14.00"> &#160;Bootstrap</text>
<polygon fill="#fdb462" stroke="transparent" points="310,-10 310,-30 330,-30 330,-10 310,-10"/>
<text text-anchor="start" x="333.67" y="-15.4" font-family="Times-12" font-size="14.00"> &#160;Providers</text>
<polygon fill="#fb8072" stroke="transparent" points="406,-10 406,-30 426,-30 426,-10 406,-10"/>
<text text-anchor="start" x="429.73" y="-15.4" font-family="Times-12" font-size="14.00"> &#160;Exports</text>
<g id="clust1" class="cluster">
<title>cluster_SACBootstrap4WizardModule</title>
<polygon fill="none" stroke="black" stroke-dasharray="1,5" points="64,-70 64,-268 432,-268 432,-70 64,-70"/>
</g>
<g id="clust3" class="cluster">
<title>cluster_SACBootstrap4WizardModule_imports</title>
<polygon fill="none" stroke="black" points="75,-78 75,-130 420,-130 420,-78 75,-78"/>
</g>
<g id="clust4" class="cluster">
<title>cluster_SACBootstrap4WizardModule_exports</title>
<polygon fill="none" stroke="black" points="72,-208 72,-260 424,-260 424,-208 72,-208"/>
</g>
<!-- SacWizardComponent -->
<g id="node1" class="node">
<title>SacWizardComponent</title>
<polygon fill="#8dd3c7" stroke="black" points="412.24,-122 409.24,-126 388.24,-126 385.24,-122 269.76,-122 269.76,-86 412.24,-86 412.24,-122"/>
<text text-anchor="middle" x="341" y="-99.8" font-family="Times,serif" font-size="14.00">SacWizardComponent</text>
</g>
<!-- SACBootstrap4WizardModule -->
<g id="node3" class="node">
<title>SACBootstrap4WizardModule</title>
<polygon fill="#8dd3c7" stroke="black" points="342.91,-187 339.91,-191 318.91,-191 315.91,-187 153.09,-187 153.09,-151 342.91,-151 342.91,-187"/>
<text text-anchor="middle" x="248" y="-164.8" font-family="Times,serif" font-size="14.00">SACBootstrap4WizardModule</text>
</g>
<!-- SacWizardComponent&#45;&gt;SACBootstrap4WizardModule -->
<g id="edge1" class="edge">
<title>SacWizardComponent&#45;&gt;SACBootstrap4WizardModule</title>
<path fill="none" stroke="black" d="M306.17,-122.11C306.17,-122.11 306.17,-140.99 306.17,-140.99"/>
<polygon fill="black" stroke="black" points="302.67,-140.99 306.17,-150.99 309.67,-140.99 302.67,-140.99"/>
</g>
<!-- SacWizardItemComponent -->
<g id="node2" class="node">
<title>SacWizardItemComponent</title>
<polygon fill="#8dd3c7" stroke="black" points="251.4,-122 248.4,-126 227.4,-126 224.4,-122 82.6,-122 82.6,-86 251.4,-86 251.4,-122"/>
<text text-anchor="middle" x="167" y="-99.8" font-family="Times,serif" font-size="14.00">SacWizardItemComponent</text>
</g>
<!-- SacWizardItemComponent&#45;&gt;SACBootstrap4WizardModule -->
<g id="edge2" class="edge">
<title>SacWizardItemComponent&#45;&gt;SACBootstrap4WizardModule</title>
<path fill="none" stroke="black" d="M202.25,-122.11C202.25,-122.11 202.25,-140.99 202.25,-140.99"/>
<polygon fill="black" stroke="black" points="198.75,-140.99 202.25,-150.99 205.75,-140.99 198.75,-140.99"/>
</g>
<!-- SacWizardComponent  -->
<g id="node4" class="node">
<title>SacWizardComponent </title>
<polygon fill="#fb8072" stroke="black" points="416.24,-252 269.76,-252 269.76,-216 416.24,-216 416.24,-252"/>
<text text-anchor="middle" x="343" y="-229.8" font-family="Times,serif" font-size="14.00">SacWizardComponent </text>
</g>
<!-- SACBootstrap4WizardModule&#45;&gt;SacWizardComponent  -->
<g id="edge3" class="edge">
<title>SACBootstrap4WizardModule&#45;&gt;SacWizardComponent </title>
<path fill="none" stroke="black" stroke-dasharray="5,2" d="M306.29,-187.11C306.29,-187.11 306.29,-205.99 306.29,-205.99"/>
<polygon fill="black" stroke="black" points="302.79,-205.99 306.29,-215.99 309.79,-205.99 302.79,-205.99"/>
</g>
<!-- SacWizardItemComponent  -->
<g id="node5" class="node">
<title>SacWizardItemComponent </title>
<polygon fill="#fb8072" stroke="black" points="251.9,-252 80.1,-252 80.1,-216 251.9,-216 251.9,-252"/>
<text text-anchor="middle" x="166" y="-229.8" font-family="Times,serif" font-size="14.00">SacWizardItemComponent </text>
</g>
<!-- SACBootstrap4WizardModule&#45;&gt;SacWizardItemComponent  -->
<g id="edge4" class="edge">
<title>SACBootstrap4WizardModule&#45;&gt;SacWizardItemComponent </title>
<path fill="none" stroke="black" stroke-dasharray="5,2" d="M202.62,-187.11C202.62,-187.11 202.62,-205.99 202.62,-205.99"/>
<polygon fill="black" stroke="black" points="199.12,-205.99 202.62,-215.99 206.12,-205.99 199.12,-205.99"/>
</g>
</g>
</svg>
