<?xml version="1.0" encoding="UTF-8" standalone="no"?>
<!DOCTYPE svg PUBLIC "-//W3C//DTD SVG 1.1//EN"
 "http://www.w3.org/Graphics/SVG/1.1/DTD/svg11.dtd">
<!-- Generated by graphviz version 2.47.0 (20210316.0004)
 -->
<!-- Title: dependencies Pages: 1 -->
<svg width="598pt" height="284pt"
 viewBox="0.00 0.00 598.00 284.00" xmlns="http://www.w3.org/2000/svg" xmlns:xlink="http://www.w3.org/1999/xlink">
<g id="graph0" class="graph" transform="scale(1 1) rotate(0) translate(4 280)">
<title>dependencies</title>
<polygon fill="white" stroke="transparent" points="-4,4 -4,-280 594,-280 594,4 -4,4"/>
<text text-anchor="start" x="274.01" y="-42.4" font-family="Times-12" font-weight="bold" font-size="14.00">Legend</text>
<polygon fill="#ffffb3" stroke="transparent" points="61,-10 61,-30 81,-30 81,-10 61,-10"/>
<text text-anchor="start" x="84.63" y="-15.4" font-family="Times-12" font-size="14.00"> &#160;Declarations</text>
<polygon fill="#8dd3c7" stroke="transparent" points="174,-10 174,-30 194,-30 194,-10 174,-10"/>
<text text-anchor="start" x="197.73" y="-15.4" font-family="Times-12" font-size="14.00"> &#160;Module</text>
<polygon fill="#80b1d3" stroke="transparent" points="260,-10 260,-30 280,-30 280,-10 260,-10"/>
<text text-anchor="start" x="283.78" y="-15.4" font-family="Times-12" font-size="14.00"> &#160;Bootstrap</text>
<polygon fill="#fdb462" stroke="transparent" points="357,-10 357,-30 377,-30 377,-10 357,-10"/>
<text text-anchor="start" x="380.67" y="-15.4" font-family="Times-12" font-size="14.00"> &#160;Providers</text>
<polygon fill="#fb8072" stroke="transparent" points="453,-10 453,-30 473,-30 473,-10 453,-10"/>
<text text-anchor="start" x="476.73" y="-15.4" font-family="Times-12" font-size="14.00"> &#160;Exports</text>
<g id="clust1" class="cluster">
<title>cluster_SACBootstrap4CheckboxModule</title>
<polygon fill="none" stroke="black" stroke-dasharray="1,5" points="8,-70 8,-268 582,-268 582,-70 8,-70"/>
</g>
<g id="clust7" class="cluster">
<title>cluster_SACBootstrap4CheckboxModule_exports</title>
<polygon fill="none" stroke="black" points="16,-208 16,-260 574,-260 574,-208 16,-208"/>
</g>
<g id="clust2" class="cluster">
<title>cluster_SACBootstrap4CheckboxModule_declarations</title>
<polygon fill="none" stroke="black" points="21,-78 21,-130 569,-130 569,-78 21,-78"/>
</g>
<!-- NgCheckboxComponent -->
<g id="node1" class="node">
<title>NgCheckboxComponent</title>
<polygon fill="#ffffb3" stroke="black" points="560.7,-122 405.3,-122 405.3,-86 560.7,-86 560.7,-122"/>
<text text-anchor="middle" x="483" y="-99.8" font-family="Times,serif" font-size="14.00">NgCheckboxComponent</text>
</g>
<!-- SACBootstrap4CheckboxModule -->
<g id="node4" class="node">
<title>SACBootstrap4CheckboxModule</title>
<polygon fill="#8dd3c7" stroke="black" points="406.48,-187 403.48,-191 382.48,-191 379.48,-187 201.52,-187 201.52,-151 406.48,-151 406.48,-187"/>
<text text-anchor="middle" x="304" y="-164.8" font-family="Times,serif" font-size="14.00">SACBootstrap4CheckboxModule</text>
</g>
<!-- NgCheckboxComponent&#45;&gt;SACBootstrap4CheckboxModule -->
<g id="edge1" class="edge">
<title>NgCheckboxComponent&#45;&gt;SACBootstrap4CheckboxModule</title>
<path fill="none" stroke="black" d="M405.21,-104C399.91,-104 396.61,-104 396.61,-104 396.61,-104 396.61,-140.89 396.61,-140.89"/>
<polygon fill="black" stroke="black" points="393.11,-140.89 396.61,-150.89 400.11,-140.89 393.11,-140.89"/>
</g>
<!-- NgRadiobuttonComponent -->
<g id="node2" class="node">
<title>NgRadiobuttonComponent</title>
<polygon fill="#ffffb3" stroke="black" points="387.66,-122 220.34,-122 220.34,-86 387.66,-86 387.66,-122"/>
<text text-anchor="middle" x="304" y="-99.8" font-family="Times,serif" font-size="14.00">NgRadiobuttonComponent</text>
</g>
<!-- NgRadiobuttonComponent&#45;&gt;SACBootstrap4CheckboxModule -->
<g id="edge2" class="edge">
<title>NgRadiobuttonComponent&#45;&gt;SACBootstrap4CheckboxModule</title>
<path fill="none" stroke="black" d="M304,-122.11C304,-122.11 304,-140.99 304,-140.99"/>
<polygon fill="black" stroke="black" points="300.5,-140.99 304,-150.99 307.5,-140.99 300.5,-140.99"/>
</g>
<!-- NgRadiobuttonsComponent -->
<g id="node3" class="node">
<title>NgRadiobuttonsComponent</title>
<polygon fill="#ffffb3" stroke="black" points="202.61,-122 29.39,-122 29.39,-86 202.61,-86 202.61,-122"/>
<text text-anchor="middle" x="116" y="-99.8" font-family="Times,serif" font-size="14.00">NgRadiobuttonsComponent</text>
</g>
<!-- NgRadiobuttonsComponent&#45;&gt;SACBootstrap4CheckboxModule -->
<g id="edge3" class="edge">
<title>NgRadiobuttonsComponent&#45;&gt;SACBootstrap4CheckboxModule</title>
<path fill="none" stroke="black" d="M202.56,-104C208.01,-104 211.36,-104 211.36,-104 211.36,-104 211.36,-140.89 211.36,-140.89"/>
<polygon fill="black" stroke="black" points="207.86,-140.89 211.36,-150.89 214.86,-140.89 207.86,-140.89"/>
</g>
<!-- NgCheckboxComponent  -->
<g id="node5" class="node">
<title>NgCheckboxComponent </title>
<polygon fill="#fb8072" stroke="black" points="566.21,-252 407.79,-252 407.79,-216 566.21,-216 566.21,-252"/>
<text text-anchor="middle" x="487" y="-229.8" font-family="Times,serif" font-size="14.00">NgCheckboxComponent </text>
</g>
<!-- SACBootstrap4CheckboxModule&#45;&gt;NgCheckboxComponent  -->
<g id="edge4" class="edge">
<title>SACBootstrap4CheckboxModule&#45;&gt;NgCheckboxComponent </title>
<path fill="none" stroke="black" stroke-dasharray="5,2" d="M398.04,-187.11C398.04,-206.34 398.04,-234 398.04,-234 398.04,-234 398.99,-234 398.99,-234"/>
<polygon fill="black" stroke="black" points="397.56,-237.5 407.56,-234 397.56,-230.5 397.56,-237.5"/>
</g>
<!-- NgRadiobuttonComponent  -->
<g id="node6" class="node">
<title>NgRadiobuttonComponent </title>
<polygon fill="#fb8072" stroke="black" points="389.66,-252 218.34,-252 218.34,-216 389.66,-216 389.66,-252"/>
<text text-anchor="middle" x="304" y="-229.8" font-family="Times,serif" font-size="14.00">NgRadiobuttonComponent </text>
</g>
<!-- SACBootstrap4CheckboxModule&#45;&gt;NgRadiobuttonComponent  -->
<g id="edge5" class="edge">
<title>SACBootstrap4CheckboxModule&#45;&gt;NgRadiobuttonComponent </title>
<path fill="none" stroke="black" stroke-dasharray="5,2" d="M304,-187.11C304,-187.11 304,-205.99 304,-205.99"/>
<polygon fill="black" stroke="black" points="300.5,-205.99 304,-215.99 307.5,-205.99 300.5,-205.99"/>
</g>
<!-- NgRadiobuttonsComponent  -->
<g id="node7" class="node">
<title>NgRadiobuttonsComponent </title>
<polygon fill="#fb8072" stroke="black" points="200.11,-252 23.89,-252 23.89,-216 200.11,-216 200.11,-252"/>
<text text-anchor="middle" x="112" y="-229.8" font-family="Times,serif" font-size="14.00">NgRadiobuttonsComponent </text>
</g>
<!-- SACBootstrap4CheckboxModule&#45;&gt;NgRadiobuttonsComponent  -->
<g id="edge6" class="edge">
<title>SACBootstrap4CheckboxModule&#45;&gt;NgRadiobuttonsComponent </title>
<path fill="none" stroke="black" stroke-dasharray="5,2" d="M209.96,-187.11C209.96,-206.34 209.96,-234 209.96,-234 209.96,-234 208.99,-234 208.99,-234"/>
<polygon fill="black" stroke="black" points="210.21,-230.5 200.21,-234 210.21,-237.5 210.21,-230.5"/>
</g>
</g>
</svg>
