<?xml version="1.0" encoding="UTF-8" standalone="no"?>
<!DOCTYPE svg PUBLIC "-//W3C//DTD SVG 1.1//EN"
 "http://www.w3.org/Graphics/SVG/1.1/DTD/svg11.dtd">
<!-- Generated by graphviz version 2.47.0 (20210316.0004)
 -->
<!-- Title: dependencies Pages: 1 -->
<svg width="504pt" height="284pt"
 viewBox="0.00 0.00 504.00 284.00" xmlns="http://www.w3.org/2000/svg" xmlns:xlink="http://www.w3.org/1999/xlink">
<g id="graph0" class="graph" transform="scale(1 1) rotate(0) translate(4 280)">
<title>dependencies</title>
<polygon fill="white" stroke="transparent" points="-4,4 -4,-280 500,-280 500,4 -4,4"/>
<text text-anchor="start" x="227.01" y="-42.4" font-family="Times-12" font-weight="bold" font-size="14.00">Legend</text>
<polygon fill="#ffffb3" stroke="transparent" points="14,-10 14,-30 34,-30 34,-10 14,-10"/>
<text text-anchor="start" x="37.63" y="-15.4" font-family="Times-12" font-size="14.00"> &#160;Declarations</text>
<polygon fill="#8dd3c7" stroke="transparent" points="127,-10 127,-30 147,-30 147,-10 127,-10"/>
<text text-anchor="start" x="150.73" y="-15.4" font-family="Times-12" font-size="14.00"> &#160;Module</text>
<polygon fill="#80b1d3" stroke="transparent" points="213,-10 213,-30 233,-30 233,-10 213,-10"/>
<text text-anchor="start" x="236.78" y="-15.4" font-family="Times-12" font-size="14.00"> &#160;Bootstrap</text>
<polygon fill="#fdb462" stroke="transparent" points="310,-10 310,-30 330,-30 330,-10 310,-10"/>
<text text-anchor="start" x="333.67" y="-15.4" font-family="Times-12" font-size="14.00"> &#160;Providers</text>
<polygon fill="#fb8072" stroke="transparent" points="406,-10 406,-30 426,-30 426,-10 406,-10"/>
<text text-anchor="start" x="429.73" y="-15.4" font-family="Times-12" font-size="14.00"> &#160;Exports</text>
<g id="clust1" class="cluster">
<title>cluster_SACBootstrap5FormModule</title>
<polygon fill="none" stroke="black" stroke-dasharray="1,5" points="82,-70 82,-268 414,-268 414,-70 82,-70"/>
</g>
<g id="clust2" class="cluster">
<title>cluster_SACBootstrap5FormModule_declarations</title>
<polygon fill="none" stroke="black" points="94,-78 94,-130 402,-130 402,-78 94,-78"/>
</g>
<g id="clust6" class="cluster">
<title>cluster_SACBootstrap5FormModule_exports</title>
<polygon fill="none" stroke="black" points="90,-208 90,-260 406,-260 406,-208 90,-208"/>
</g>
<!-- SacFormDirective -->
<g id="node1" class="node">
<title>SacFormDirective</title>
<polygon fill="#ffffb3" stroke="black" points="394.13,-122 275.87,-122 275.87,-86 394.13,-86 394.13,-122"/>
<text text-anchor="middle" x="335" y="-99.8" font-family="Times,serif" font-size="14.00">SacFormDirective</text>
</g>
<!-- SACBootstrap5FormModule -->
<g id="node3" class="node">
<title>SACBootstrap5FormModule</title>
<polygon fill="#8dd3c7" stroke="black" points="337.05,-187 334.05,-191 313.05,-191 310.05,-187 158.95,-187 158.95,-151 337.05,-151 337.05,-187"/>
<text text-anchor="middle" x="248" y="-164.8" font-family="Times,serif" font-size="14.00">SACBootstrap5FormModule</text>
</g>
<!-- SacFormDirective&#45;&gt;SACBootstrap5FormModule -->
<g id="edge1" class="edge">
<title>SacFormDirective&#45;&gt;SACBootstrap5FormModule</title>
<path fill="none" stroke="black" d="M306.48,-122.11C306.48,-122.11 306.48,-140.99 306.48,-140.99"/>
<polygon fill="black" stroke="black" points="302.98,-140.99 306.48,-150.99 309.98,-140.99 302.98,-140.99"/>
</g>
<!-- SacInheritFormDirective -->
<g id="node2" class="node">
<title>SacInheritFormDirective</title>
<polygon fill="#ffffb3" stroke="black" points="257.95,-122 102.05,-122 102.05,-86 257.95,-86 257.95,-122"/>
<text text-anchor="middle" x="180" y="-99.8" font-family="Times,serif" font-size="14.00">SacInheritFormDirective</text>
</g>
<!-- SacInheritFormDirective&#45;&gt;SACBootstrap5FormModule -->
<g id="edge2" class="edge">
<title>SacInheritFormDirective&#45;&gt;SACBootstrap5FormModule</title>
<path fill="none" stroke="black" d="M208.35,-122.11C208.35,-122.11 208.35,-140.99 208.35,-140.99"/>
<polygon fill="black" stroke="black" points="204.85,-140.99 208.35,-150.99 211.85,-140.99 204.85,-140.99"/>
</g>
<!-- SacFormDirective  -->
<g id="node4" class="node">
<title>SacFormDirective </title>
<polygon fill="#fb8072" stroke="black" points="398.13,-252 275.87,-252 275.87,-216 398.13,-216 398.13,-252"/>
<text text-anchor="middle" x="337" y="-229.8" font-family="Times,serif" font-size="14.00">SacFormDirective </text>
</g>
<!-- SACBootstrap5FormModule&#45;&gt;SacFormDirective  -->
<g id="edge3" class="edge">
<title>SACBootstrap5FormModule&#45;&gt;SacFormDirective </title>
<path fill="none" stroke="black" stroke-dasharray="5,2" d="M306.6,-187.11C306.6,-187.11 306.6,-205.99 306.6,-205.99"/>
<polygon fill="black" stroke="black" points="303.1,-205.99 306.6,-215.99 310.1,-205.99 303.1,-205.99"/>
</g>
<!-- SacInheritFormDirective  -->
<g id="node5" class="node">
<title>SacInheritFormDirective </title>
<polygon fill="#fb8072" stroke="black" points="257.95,-252 98.05,-252 98.05,-216 257.95,-216 257.95,-252"/>
<text text-anchor="middle" x="178" y="-229.8" font-family="Times,serif" font-size="14.00">SacInheritFormDirective </text>
</g>
<!-- SACBootstrap5FormModule&#45;&gt;SacInheritFormDirective  -->
<g id="edge4" class="edge">
<title>SACBootstrap5FormModule&#45;&gt;SacInheritFormDirective </title>
<path fill="none" stroke="black" stroke-dasharray="5,2" d="M208.22,-187.11C208.22,-187.11 208.22,-205.99 208.22,-205.99"/>
<polygon fill="black" stroke="black" points="204.72,-205.99 208.22,-215.99 211.72,-205.99 204.72,-205.99"/>
</g>
</g>
</svg>
