<?xml version="1.0" encoding="UTF-8" standalone="no"?>
<!DOCTYPE svg PUBLIC "-//W3C//DTD SVG 1.1//EN"
 "http://www.w3.org/Graphics/SVG/1.1/DTD/svg11.dtd">
<!-- Generated by graphviz version 2.47.0 (20210316.0004)
 -->
<!-- Title: dependencies Pages: 1 -->
<svg width="1175pt" height="284pt"
 viewBox="0.00 0.00 1175.00 284.00" xmlns="http://www.w3.org/2000/svg" xmlns:xlink="http://www.w3.org/1999/xlink">
<g id="graph0" class="graph" transform="scale(1 1) rotate(0) translate(4 280)">
<title>dependencies</title>
<polygon fill="white" stroke="transparent" points="-4,4 -4,-280 1171,-280 1171,4 -4,4"/>
<text text-anchor="start" x="562.51" y="-42.4" font-family="Times-12" font-weight="bold" font-size="14.00">Legend</text>
<polygon fill="#ffffb3" stroke="transparent" points="349.5,-10 349.5,-30 369.5,-30 369.5,-10 349.5,-10"/>
<text text-anchor="start" x="373.13" y="-15.4" font-family="Times-12" font-size="14.00"> &#160;Declarations</text>
<polygon fill="#8dd3c7" stroke="transparent" points="462.5,-10 462.5,-30 482.5,-30 482.5,-10 462.5,-10"/>
<text text-anchor="start" x="486.23" y="-15.4" font-family="Times-12" font-size="14.00"> &#160;Module</text>
<polygon fill="#80b1d3" stroke="transparent" points="548.5,-10 548.5,-30 568.5,-30 568.5,-10 548.5,-10"/>
<text text-anchor="start" x="572.28" y="-15.4" font-family="Times-12" font-size="14.00"> &#160;Bootstrap</text>
<polygon fill="#fdb462" stroke="transparent" points="645.5,-10 645.5,-30 665.5,-30 665.5,-10 645.5,-10"/>
<text text-anchor="start" x="669.17" y="-15.4" font-family="Times-12" font-size="14.00"> &#160;Providers</text>
<polygon fill="#fb8072" stroke="transparent" points="741.5,-10 741.5,-30 761.5,-30 761.5,-10 741.5,-10"/>
<text text-anchor="start" x="765.23" y="-15.4" font-family="Times-12" font-size="14.00"> &#160;Exports</text>
<g id="clust1" class="cluster">
<title>cluster_JNetworkBootstrap4BrowserModule</title>
<polygon fill="none" stroke="black" stroke-dasharray="1,5" points="8,-70 8,-268 1159,-268 1159,-70 8,-70"/>
</g>
<g id="clust5" class="cluster">
<title>cluster_JNetworkBootstrap4BrowserModule_exports</title>
<polygon fill="none" stroke="black" points="524,-208 524,-260 690,-260 690,-208 524,-208"/>
</g>
<g id="clust2" class="cluster">
<title>cluster_JNetworkBootstrap4BrowserModule_declarations</title>
<polygon fill="none" stroke="black" points="989,-78 989,-130 1151,-130 1151,-78 989,-78"/>
</g>
<g id="clust4" class="cluster">
<title>cluster_JNetworkBootstrap4BrowserModule_imports</title>
<polygon fill="none" stroke="black" points="16,-78 16,-130 981,-130 981,-78 16,-78"/>
</g>
<!-- NgBrowserComponent -->
<g id="node1" class="node">
<title>NgBrowserComponent</title>
<polygon fill="#ffffb3" stroke="black" points="1142.86,-122 997.14,-122 997.14,-86 1142.86,-86 1142.86,-122"/>
<text text-anchor="middle" x="1070" y="-99.8" font-family="Times,serif" font-size="14.00">NgBrowserComponent</text>
</g>
<!-- JNetworkBootstrap4BrowserModule -->
<g id="node2" class="node">
<title>JNetworkBootstrap4BrowserModule</title>
<polygon fill="#8dd3c7" stroke="black" points="718.33,-187 715.33,-191 694.33,-191 691.33,-187 495.67,-187 495.67,-151 718.33,-151 718.33,-187"/>
<text text-anchor="middle" x="607" y="-164.8" font-family="Times,serif" font-size="14.00">JNetworkBootstrap4BrowserModule</text>
</g>
<!-- NgBrowserComponent&#45;&gt;JNetworkBootstrap4BrowserModule -->
<g id="edge1" class="edge">
<title>NgBrowserComponent&#45;&gt;JNetworkBootstrap4BrowserModule</title>
<path fill="none" stroke="black" d="M1070,-122.28C1070,-143.32 1070,-175 1070,-175 1070,-175 728.49,-175 728.49,-175"/>
<polygon fill="black" stroke="black" points="728.49,-171.5 718.49,-175 728.49,-178.5 728.49,-171.5"/>
</g>
<!-- NgBrowserComponent  -->
<g id="node7" class="node">
<title>NgBrowserComponent </title>
<polygon fill="#fb8072" stroke="black" points="681.86,-252 532.14,-252 532.14,-216 681.86,-216 681.86,-252"/>
<text text-anchor="middle" x="607" y="-229.8" font-family="Times,serif" font-size="14.00">NgBrowserComponent </text>
</g>
<!-- JNetworkBootstrap4BrowserModule&#45;&gt;NgBrowserComponent  -->
<g id="edge6" class="edge">
<title>JNetworkBootstrap4BrowserModule&#45;&gt;NgBrowserComponent </title>
<path fill="none" stroke="black" stroke-dasharray="5,2" d="M631.89,-187.11C631.89,-187.11 631.89,-205.99 631.89,-205.99"/>
<polygon fill="black" stroke="black" points="628.39,-205.99 631.89,-215.99 635.39,-205.99 628.39,-205.99"/>
</g>
<!-- JNetworkBootstrap4BrowserModule&#45;&gt;NgBrowserComponent  -->
<g id="edge7" class="edge">
<title>JNetworkBootstrap4BrowserModule&#45;&gt;NgBrowserComponent </title>
<path fill="none" stroke="black" stroke-dasharray="1,5" d="M582.11,-187.11C582.11,-187.11 582.11,-205.99 582.11,-205.99"/>
<polygon fill="black" stroke="black" points="578.61,-205.99 582.11,-215.99 585.61,-205.99 578.61,-205.99"/>
</g>
<!-- JNetworkBootstrap4ConfirmModule -->
<g id="node3" class="node">
<title>JNetworkBootstrap4ConfirmModule</title>
<polygon fill="#8dd3c7" stroke="black" points="973.35,-122 970.35,-126 949.35,-126 946.35,-122 750.65,-122 750.65,-86 973.35,-86 973.35,-122"/>
<text text-anchor="middle" x="862" y="-99.8" font-family="Times,serif" font-size="14.00">JNetworkBootstrap4ConfirmModule</text>
</g>
<!-- JNetworkBootstrap4ConfirmModule&#45;&gt;JNetworkBootstrap4BrowserModule -->
<g id="edge2" class="edge">
<title>JNetworkBootstrap4ConfirmModule&#45;&gt;JNetworkBootstrap4BrowserModule</title>
<path fill="none" stroke="black" d="M862,-122.02C862,-139.37 862,-163 862,-163 862,-163 728.48,-163 728.48,-163"/>
<polygon fill="black" stroke="black" points="728.48,-159.5 718.48,-163 728.48,-166.5 728.48,-159.5"/>
</g>
<!-- JNetworkBootstrap4ContextmenuModule -->
<g id="node4" class="node">
<title>JNetworkBootstrap4ContextmenuModule</title>
<polygon fill="#8dd3c7" stroke="black" points="732.35,-122 729.35,-126 708.35,-126 705.35,-122 481.65,-122 481.65,-86 732.35,-86 732.35,-122"/>
<text text-anchor="middle" x="607" y="-99.8" font-family="Times,serif" font-size="14.00">JNetworkBootstrap4ContextmenuModule</text>
</g>
<!-- JNetworkBootstrap4ContextmenuModule&#45;&gt;JNetworkBootstrap4BrowserModule -->
<g id="edge3" class="edge">
<title>JNetworkBootstrap4ContextmenuModule&#45;&gt;JNetworkBootstrap4BrowserModule</title>
<path fill="none" stroke="black" d="M607,-122.11C607,-122.11 607,-140.99 607,-140.99"/>
<polygon fill="black" stroke="black" points="603.5,-140.99 607,-150.99 610.5,-140.99 603.5,-140.99"/>
</g>
<!-- JNetworkBootstrap4FormModule -->
<g id="node5" class="node">
<title>JNetworkBootstrap4FormModule</title>
<polygon fill="#8dd3c7" stroke="black" points="463.74,-122 460.74,-126 439.74,-126 436.74,-122 258.26,-122 258.26,-86 463.74,-86 463.74,-122"/>
<text text-anchor="middle" x="361" y="-99.8" font-family="Times,serif" font-size="14.00">JNetworkBootstrap4FormModule</text>
</g>
<!-- JNetworkBootstrap4FormModule&#45;&gt;JNetworkBootstrap4BrowserModule -->
<g id="edge4" class="edge">
<title>JNetworkBootstrap4FormModule&#45;&gt;JNetworkBootstrap4BrowserModule</title>
<path fill="none" stroke="black" d="M361,-122.02C361,-139.37 361,-163 361,-163 361,-163 485.52,-163 485.52,-163"/>
<polygon fill="black" stroke="black" points="485.52,-166.5 495.52,-163 485.52,-159.5 485.52,-166.5"/>
</g>
<!-- JNetworkBootstrap4UploadModule -->
<g id="node6" class="node">
<title>JNetworkBootstrap4UploadModule</title>
<polygon fill="#8dd3c7" stroke="black" points="240.12,-122 237.12,-126 216.12,-126 213.12,-122 23.88,-122 23.88,-86 240.12,-86 240.12,-122"/>
<text text-anchor="middle" x="132" y="-99.8" font-family="Times,serif" font-size="14.00">JNetworkBootstrap4UploadModule</text>
</g>
<!-- JNetworkBootstrap4UploadModule&#45;&gt;JNetworkBootstrap4BrowserModule -->
<g id="edge5" class="edge">
<title>JNetworkBootstrap4UploadModule&#45;&gt;JNetworkBootstrap4BrowserModule</title>
<path fill="none" stroke="black" d="M132,-122.28C132,-143.32 132,-175 132,-175 132,-175 485.63,-175 485.63,-175"/>
<polygon fill="black" stroke="black" points="485.63,-178.5 495.63,-175 485.63,-171.5 485.63,-178.5"/>
</g>
</g>
</svg>
