<?xml version="1.0" encoding="UTF-8" standalone="no"?>
<!DOCTYPE svg PUBLIC "-//W3C//DTD SVG 1.1//EN"
 "http://www.w3.org/Graphics/SVG/1.1/DTD/svg11.dtd">
<!-- Generated by graphviz version 2.47.0 (20210316.0004)
 -->
<!-- Title: dependencies Pages: 1 -->
<svg width="1175pt" height="284pt"
 viewBox="0.00 0.00 1175.00 284.00" xmlns="http://www.w3.org/2000/svg" xmlns:xlink="http://www.w3.org/1999/xlink">
<g id="graph0" class="graph" transform="scale(1 1) rotate(0) translate(4 280)">
<title>dependencies</title>
<polygon fill="white" stroke="transparent" points="-4,4 -4,-280 1171,-280 1171,4 -4,4"/>
<text text-anchor="start" x="562.51" y="-42.4" font-family="Times-12" font-weight="bold" font-size="14.00">Legend</text>
<polygon fill="#ffffb3" stroke="transparent" points="349.5,-10 349.5,-30 369.5,-30 369.5,-10 349.5,-10"/>
<text text-anchor="start" x="373.13" y="-15.4" font-family="Times-12" font-size="14.00"> &#160;Declarations</text>
<polygon fill="#8dd3c7" stroke="transparent" points="462.5,-10 462.5,-30 482.5,-30 482.5,-10 462.5,-10"/>
<text text-anchor="start" x="486.23" y="-15.4" font-family="Times-12" font-size="14.00"> &#160;Module</text>
<polygon fill="#80b1d3" stroke="transparent" points="548.5,-10 548.5,-30 568.5,-30 568.5,-10 548.5,-10"/>
<text text-anchor="start" x="572.28" y="-15.4" font-family="Times-12" font-size="14.00"> &#160;Bootstrap</text>
<polygon fill="#fdb462" stroke="transparent" points="645.5,-10 645.5,-30 665.5,-30 665.5,-10 645.5,-10"/>
<text text-anchor="start" x="669.17" y="-15.4" font-family="Times-12" font-size="14.00"> &#160;Providers</text>
<polygon fill="#fb8072" stroke="transparent" points="741.5,-10 741.5,-30 761.5,-30 761.5,-10 741.5,-10"/>
<text text-anchor="start" x="765.23" y="-15.4" font-family="Times-12" font-size="14.00"> &#160;Exports</text>
<g id="clust1" class="cluster">
<title>cluster_JNetworkBootstrap4BrowserModule</title>
<polygon fill="none" stroke="black" stroke-dasharray="1,5" points="8,-70 8,-268 1159,-268 1159,-70 8,-70"/>
</g>
<g id="clust5" class="cluster">
<title>cluster_JNetworkBootstrap4BrowserModule_exports</title>
<polygon fill="none" stroke="black" points="448,-208 448,-260 614,-260 614,-208 448,-208"/>
</g>
<g id="clust4" class="cluster">
<title>cluster_JNetworkBootstrap4BrowserModule_imports</title>
<polygon fill="none" stroke="black" points="186,-78 186,-130 1151,-130 1151,-78 186,-78"/>
</g>
<g id="clust2" class="cluster">
<title>cluster_JNetworkBootstrap4BrowserModule_declarations</title>
<polygon fill="none" stroke="black" points="16,-78 16,-130 178,-130 178,-78 16,-78"/>
</g>
<!-- NgBrowserComponent -->
<g id="node1" class="node">
<title>NgBrowserComponent</title>
<polygon fill="#ffffb3" stroke="black" points="169.86,-122 24.14,-122 24.14,-86 169.86,-86 169.86,-122"/>
<text text-anchor="middle" x="97" y="-99.8" font-family="Times,serif" font-size="14.00">NgBrowserComponent</text>
</g>
<!-- JNetworkBootstrap4BrowserModule -->
<g id="node2" class="node">
<title>JNetworkBootstrap4BrowserModule</title>
<polygon fill="#8dd3c7" stroke="black" points="642.33,-187 639.33,-191 618.33,-191 615.33,-187 419.67,-187 419.67,-151 642.33,-151 642.33,-187"/>
<text text-anchor="middle" x="531" y="-164.8" font-family="Times,serif" font-size="14.00">JNetworkBootstrap4BrowserModule</text>
</g>
<!-- NgBrowserComponent&#45;&gt;JNetworkBootstrap4BrowserModule -->
<g id="edge1" class="edge">
<title>NgBrowserComponent&#45;&gt;JNetworkBootstrap4BrowserModule</title>
<path fill="none" stroke="black" d="M97,-122.11C97,-141.34 97,-169 97,-169 97,-169 409.52,-169 409.52,-169"/>
<polygon fill="black" stroke="black" points="409.52,-172.5 419.52,-169 409.52,-165.5 409.52,-172.5"/>
</g>
<!-- NgBrowserComponent  -->
<g id="node7" class="node">
<title>NgBrowserComponent </title>
<polygon fill="#fb8072" stroke="black" points="605.86,-252 456.14,-252 456.14,-216 605.86,-216 605.86,-252"/>
<text text-anchor="middle" x="531" y="-229.8" font-family="Times,serif" font-size="14.00">NgBrowserComponent </text>
</g>
<!-- JNetworkBootstrap4BrowserModule&#45;&gt;NgBrowserComponent  -->
<g id="edge6" class="edge">
<title>JNetworkBootstrap4BrowserModule&#45;&gt;NgBrowserComponent </title>
<path fill="none" stroke="black" stroke-dasharray="5,2" d="M555.89,-187.11C555.89,-187.11 555.89,-205.99 555.89,-205.99"/>
<polygon fill="black" stroke="black" points="552.39,-205.99 555.89,-215.99 559.39,-205.99 552.39,-205.99"/>
</g>
<!-- JNetworkBootstrap4BrowserModule&#45;&gt;NgBrowserComponent  -->
<g id="edge7" class="edge">
<title>JNetworkBootstrap4BrowserModule&#45;&gt;NgBrowserComponent </title>
<path fill="none" stroke="black" stroke-dasharray="1,5" d="M506.11,-187.11C506.11,-187.11 506.11,-205.99 506.11,-205.99"/>
<polygon fill="black" stroke="black" points="502.61,-205.99 506.11,-215.99 509.61,-205.99 502.61,-205.99"/>
</g>
<!-- JNetworkBootstrap4ConfirmModule -->
<g id="node3" class="node">
<title>JNetworkBootstrap4ConfirmModule</title>
<polygon fill="#8dd3c7" stroke="black" points="1143.35,-122 1140.35,-126 1119.35,-126 1116.35,-122 920.65,-122 920.65,-86 1143.35,-86 1143.35,-122"/>
<text text-anchor="middle" x="1032" y="-99.8" font-family="Times,serif" font-size="14.00">JNetworkBootstrap4ConfirmModule</text>
</g>
<!-- JNetworkBootstrap4ConfirmModule&#45;&gt;JNetworkBootstrap4BrowserModule -->
<g id="edge2" class="edge">
<title>JNetworkBootstrap4ConfirmModule&#45;&gt;JNetworkBootstrap4BrowserModule</title>
<path fill="none" stroke="black" d="M1032,-122.11C1032,-141.34 1032,-169 1032,-169 1032,-169 652.5,-169 652.5,-169"/>
<polygon fill="black" stroke="black" points="652.5,-165.5 642.5,-169 652.5,-172.5 652.5,-165.5"/>
</g>
<!-- JNetworkBootstrap4ContextmenuModule -->
<g id="node4" class="node">
<title>JNetworkBootstrap4ContextmenuModule</title>
<polygon fill="#8dd3c7" stroke="black" points="902.35,-122 899.35,-126 878.35,-126 875.35,-122 651.65,-122 651.65,-86 902.35,-86 902.35,-122"/>
<text text-anchor="middle" x="777" y="-99.8" font-family="Times,serif" font-size="14.00">JNetworkBootstrap4ContextmenuModule</text>
</g>
<!-- JNetworkBootstrap4ContextmenuModule&#45;&gt;JNetworkBootstrap4BrowserModule -->
<g id="edge3" class="edge">
<title>JNetworkBootstrap4ContextmenuModule&#45;&gt;JNetworkBootstrap4BrowserModule</title>
<path fill="none" stroke="black" d="M651.46,-104C643.23,-104 638.14,-104 638.14,-104 638.14,-104 638.14,-140.89 638.14,-140.89"/>
<polygon fill="black" stroke="black" points="634.64,-140.89 638.14,-150.89 641.64,-140.89 634.64,-140.89"/>
</g>
<!-- JNetworkBootstrap4FormModule -->
<g id="node5" class="node">
<title>JNetworkBootstrap4FormModule</title>
<polygon fill="#8dd3c7" stroke="black" points="633.74,-122 630.74,-126 609.74,-126 606.74,-122 428.26,-122 428.26,-86 633.74,-86 633.74,-122"/>
<text text-anchor="middle" x="531" y="-99.8" font-family="Times,serif" font-size="14.00">JNetworkBootstrap4FormModule</text>
</g>
<!-- JNetworkBootstrap4FormModule&#45;&gt;JNetworkBootstrap4BrowserModule -->
<g id="edge4" class="edge">
<title>JNetworkBootstrap4FormModule&#45;&gt;JNetworkBootstrap4BrowserModule</title>
<path fill="none" stroke="black" d="M531,-122.11C531,-122.11 531,-140.99 531,-140.99"/>
<polygon fill="black" stroke="black" points="527.5,-140.99 531,-150.99 534.5,-140.99 527.5,-140.99"/>
</g>
<!-- JNetworkBootstrap4UploadModule -->
<g id="node6" class="node">
<title>JNetworkBootstrap4UploadModule</title>
<polygon fill="#8dd3c7" stroke="black" points="410.12,-122 407.12,-126 386.12,-126 383.12,-122 193.88,-122 193.88,-86 410.12,-86 410.12,-122"/>
<text text-anchor="middle" x="302" y="-99.8" font-family="Times,serif" font-size="14.00">JNetworkBootstrap4UploadModule</text>
</g>
<!-- JNetworkBootstrap4UploadModule&#45;&gt;JNetworkBootstrap4BrowserModule -->
<g id="edge5" class="edge">
<title>JNetworkBootstrap4UploadModule&#45;&gt;JNetworkBootstrap4BrowserModule</title>
<path fill="none" stroke="black" d="M410.35,-104C418.63,-104 423.86,-104 423.86,-104 423.86,-104 423.86,-140.89 423.86,-140.89"/>
<polygon fill="black" stroke="black" points="420.36,-140.89 423.86,-150.89 427.36,-140.89 420.36,-140.89"/>
</g>
</g>
</svg>
