<?xml version="1.0" encoding="UTF-8" standalone="no"?>
<!DOCTYPE svg PUBLIC "-//W3C//DTD SVG 1.1//EN"
 "http://www.w3.org/Graphics/SVG/1.1/DTD/svg11.dtd">
<!-- Generated by graphviz version 2.47.3 (20210619.1520)
 -->
<!-- Title: dependencies Pages: 1 -->
<svg width="1175pt" height="247pt"
 viewBox="0.00 0.00 1175.00 246.80" xmlns="http://www.w3.org/2000/svg" xmlns:xlink="http://www.w3.org/1999/xlink">
<g id="graph0" class="graph" transform="scale(1 1) rotate(0) translate(4 242.8)">
<title>dependencies</title>
<polygon fill="white" stroke="transparent" points="-4,4 -4,-242.8 1171,-242.8 1171,4 -4,4"/>
<text text-anchor="middle" x="583.5" y="-8.2" font-family="sans-serif" font-size="14.00">dependencies</text>
<g id="clust1" class="cluster">
<title>cluster_JNetworkBootstrap4BrowserModule</title>
<polygon fill="none" stroke="black" stroke-dasharray="1,5" points="8,-32.8 8,-230.8 1159,-230.8 1159,-32.8 8,-32.8"/>
</g>
<g id="clust5" class="cluster">
<title>cluster_JNetworkBootstrap4BrowserModule_exports</title>
<polygon fill="none" stroke="black" points="524,-170.8 524,-222.8 690,-222.8 690,-170.8 524,-170.8"/>
</g>
<g id="clust2" class="cluster">
<title>cluster_JNetworkBootstrap4BrowserModule_declarations</title>
<polygon fill="none" stroke="black" points="989,-40.8 989,-92.8 1151,-92.8 1151,-40.8 989,-40.8"/>
</g>
<g id="clust4" class="cluster">
<title>cluster_JNetworkBootstrap4BrowserModule_imports</title>
<polygon fill="none" stroke="black" points="16,-40.8 16,-92.8 981,-92.8 981,-40.8 16,-40.8"/>
</g>
<!-- NgBrowserComponent -->
<g id="node1" class="node">
<title>NgBrowserComponent</title>
<polygon fill="#ffffb3" stroke="black" points="1142.86,-84.8 997.14,-84.8 997.14,-48.8 1142.86,-48.8 1142.86,-84.8"/>
<text text-anchor="middle" x="1070" y="-62.6" font-family="Times,serif" font-size="14.00">NgBrowserComponent</text>
</g>
<!-- JNetworkBootstrap4BrowserModule -->
<g id="node2" class="node">
<title>JNetworkBootstrap4BrowserModule</title>
<polygon fill="#8dd3c7" stroke="black" points="718.33,-149.8 715.33,-153.8 694.33,-153.8 691.33,-149.8 495.67,-149.8 495.67,-113.8 718.33,-113.8 718.33,-149.8"/>
<text text-anchor="middle" x="607" y="-127.6" font-family="Times,serif" font-size="14.00">JNetworkBootstrap4BrowserModule</text>
</g>
<!-- NgBrowserComponent&#45;&gt;JNetworkBootstrap4BrowserModule -->
<g id="edge1" class="edge">
<title>NgBrowserComponent&#45;&gt;JNetworkBootstrap4BrowserModule</title>
<path fill="none" stroke="black" d="M1070,-85.08C1070,-106.12 1070,-137.8 1070,-137.8 1070,-137.8 728.49,-137.8 728.49,-137.8"/>
<polygon fill="black" stroke="black" points="728.49,-134.3 718.49,-137.8 728.49,-141.3 728.49,-134.3"/>
</g>
<!-- NgBrowserComponent  -->
<g id="node7" class="node">
<title>NgBrowserComponent </title>
<polygon fill="#fb8072" stroke="black" points="681.86,-214.8 532.14,-214.8 532.14,-178.8 681.86,-178.8 681.86,-214.8"/>
<text text-anchor="middle" x="607" y="-192.6" font-family="Times,serif" font-size="14.00">NgBrowserComponent </text>
</g>
<!-- JNetworkBootstrap4BrowserModule&#45;&gt;NgBrowserComponent  -->
<g id="edge6" class="edge">
<title>JNetworkBootstrap4BrowserModule&#45;&gt;NgBrowserComponent </title>
<path fill="none" stroke="black" stroke-dasharray="5,2" d="M631.89,-149.91C631.89,-149.91 631.89,-168.79 631.89,-168.79"/>
<polygon fill="black" stroke="black" points="628.39,-168.79 631.89,-178.79 635.39,-168.79 628.39,-168.79"/>
</g>
<!-- JNetworkBootstrap4BrowserModule&#45;&gt;NgBrowserComponent  -->
<g id="edge7" class="edge">
<title>JNetworkBootstrap4BrowserModule&#45;&gt;NgBrowserComponent </title>
<path fill="none" stroke="black" stroke-dasharray="1,5" d="M582.11,-149.91C582.11,-149.91 582.11,-168.79 582.11,-168.79"/>
<polygon fill="black" stroke="black" points="578.61,-168.79 582.11,-178.79 585.61,-168.79 578.61,-168.79"/>
</g>
<!-- JNetworkBootstrap4ConfirmModule -->
<g id="node3" class="node">
<title>JNetworkBootstrap4ConfirmModule</title>
<polygon fill="#8dd3c7" stroke="black" points="973.35,-84.8 970.35,-88.8 949.35,-88.8 946.35,-84.8 750.65,-84.8 750.65,-48.8 973.35,-48.8 973.35,-84.8"/>
<text text-anchor="middle" x="862" y="-62.6" font-family="Times,serif" font-size="14.00">JNetworkBootstrap4ConfirmModule</text>
</g>
<!-- JNetworkBootstrap4ConfirmModule&#45;&gt;JNetworkBootstrap4BrowserModule -->
<g id="edge2" class="edge">
<title>JNetworkBootstrap4ConfirmModule&#45;&gt;JNetworkBootstrap4BrowserModule</title>
<path fill="none" stroke="black" d="M862,-84.82C862,-102.17 862,-125.8 862,-125.8 862,-125.8 728.48,-125.8 728.48,-125.8"/>
<polygon fill="black" stroke="black" points="728.48,-122.3 718.48,-125.8 728.48,-129.3 728.48,-122.3"/>
</g>
<!-- JNetworkBootstrap4ContextmenuModule -->
<g id="node4" class="node">
<title>JNetworkBootstrap4ContextmenuModule</title>
<polygon fill="#8dd3c7" stroke="black" points="732.35,-84.8 729.35,-88.8 708.35,-88.8 705.35,-84.8 481.65,-84.8 481.65,-48.8 732.35,-48.8 732.35,-84.8"/>
<text text-anchor="middle" x="607" y="-62.6" font-family="Times,serif" font-size="14.00">JNetworkBootstrap4ContextmenuModule</text>
</g>
<!-- JNetworkBootstrap4ContextmenuModule&#45;&gt;JNetworkBootstrap4BrowserModule -->
<g id="edge3" class="edge">
<title>JNetworkBootstrap4ContextmenuModule&#45;&gt;JNetworkBootstrap4BrowserModule</title>
<path fill="none" stroke="black" d="M607,-84.91C607,-84.91 607,-103.79 607,-103.79"/>
<polygon fill="black" stroke="black" points="603.5,-103.79 607,-113.79 610.5,-103.79 603.5,-103.79"/>
</g>
<!-- JNetworkBootstrap4FormModule -->
<g id="node5" class="node">
<title>JNetworkBootstrap4FormModule</title>
<polygon fill="#8dd3c7" stroke="black" points="463.74,-84.8 460.74,-88.8 439.74,-88.8 436.74,-84.8 258.26,-84.8 258.26,-48.8 463.74,-48.8 463.74,-84.8"/>
<text text-anchor="middle" x="361" y="-62.6" font-family="Times,serif" font-size="14.00">JNetworkBootstrap4FormModule</text>
</g>
<!-- JNetworkBootstrap4FormModule&#45;&gt;JNetworkBootstrap4BrowserModule -->
<g id="edge4" class="edge">
<title>JNetworkBootstrap4FormModule&#45;&gt;JNetworkBootstrap4BrowserModule</title>
<path fill="none" stroke="black" d="M361,-84.82C361,-102.17 361,-125.8 361,-125.8 361,-125.8 485.52,-125.8 485.52,-125.8"/>
<polygon fill="black" stroke="black" points="485.52,-129.3 495.52,-125.8 485.52,-122.3 485.52,-129.3"/>
</g>
<!-- JNetworkBootstrap4UploadModule -->
<g id="node6" class="node">
<title>JNetworkBootstrap4UploadModule</title>
<polygon fill="#8dd3c7" stroke="black" points="240.12,-84.8 237.12,-88.8 216.12,-88.8 213.12,-84.8 23.88,-84.8 23.88,-48.8 240.12,-48.8 240.12,-84.8"/>
<text text-anchor="middle" x="132" y="-62.6" font-family="Times,serif" font-size="14.00">JNetworkBootstrap4UploadModule</text>
</g>
<!-- JNetworkBootstrap4UploadModule&#45;&gt;JNetworkBootstrap4BrowserModule -->
<g id="edge5" class="edge">
<title>JNetworkBootstrap4UploadModule&#45;&gt;JNetworkBootstrap4BrowserModule</title>
<path fill="none" stroke="black" d="M132,-85.08C132,-106.12 132,-137.8 132,-137.8 132,-137.8 485.63,-137.8 485.63,-137.8"/>
<polygon fill="black" stroke="black" points="485.63,-141.3 495.63,-137.8 485.63,-134.3 485.63,-141.3"/>
</g>
</g>
</svg>
