<?xml version="1.0" encoding="UTF-8" standalone="no"?>
<!DOCTYPE svg PUBLIC "-//W3C//DTD SVG 1.1//EN"
 "http://www.w3.org/Graphics/SVG/1.1/DTD/svg11.dtd">
<!-- Generated by graphviz version 2.47.3 (20210619.1520)
 -->
<!-- Title: dependencies Pages: 1 -->
<svg width="1175pt" height="247pt"
 viewBox="0.00 0.00 1175.00 246.80" xmlns="http://www.w3.org/2000/svg" xmlns:xlink="http://www.w3.org/1999/xlink">
<g id="graph0" class="graph" transform="scale(1 1) rotate(0) translate(4 242.8)">
<title>dependencies</title>
<polygon fill="white" stroke="transparent" points="-4,4 -4,-242.8 1171,-242.8 1171,4 -4,4"/>
<text text-anchor="middle" x="583.5" y="-8.2" font-family="sans-serif" font-size="14.00">dependencies</text>
<g id="clust1" class="cluster">
<title>cluster_JNetworkBootstrap4BrowserModule</title>
<polygon fill="none" stroke="black" stroke-dasharray="1,5" points="8,-32.8 8,-230.8 1159,-230.8 1159,-32.8 8,-32.8"/>
</g>
<g id="clust4" class="cluster">
<title>cluster_JNetworkBootstrap4BrowserModule_imports</title>
<polygon fill="none" stroke="black" points="186,-40.8 186,-92.8 1151,-92.8 1151,-40.8 186,-40.8"/>
</g>
<g id="clust2" class="cluster">
<title>cluster_JNetworkBootstrap4BrowserModule_declarations</title>
<polygon fill="none" stroke="black" points="16,-40.8 16,-92.8 178,-92.8 178,-40.8 16,-40.8"/>
</g>
<g id="clust5" class="cluster">
<title>cluster_JNetworkBootstrap4BrowserModule_exports</title>
<polygon fill="none" stroke="black" points="448,-170.8 448,-222.8 614,-222.8 614,-170.8 448,-170.8"/>
</g>
<!-- NgBrowserComponent -->
<g id="node1" class="node">
<title>NgBrowserComponent</title>
<polygon fill="#ffffb3" stroke="black" points="169.86,-84.8 24.14,-84.8 24.14,-48.8 169.86,-48.8 169.86,-84.8"/>
<text text-anchor="middle" x="97" y="-62.6" font-family="Times,serif" font-size="14.00">NgBrowserComponent</text>
</g>
<!-- JNetworkBootstrap4BrowserModule -->
<g id="node2" class="node">
<title>JNetworkBootstrap4BrowserModule</title>
<polygon fill="#8dd3c7" stroke="black" points="642.33,-149.8 639.33,-153.8 618.33,-153.8 615.33,-149.8 419.67,-149.8 419.67,-113.8 642.33,-113.8 642.33,-149.8"/>
<text text-anchor="middle" x="531" y="-127.6" font-family="Times,serif" font-size="14.00">JNetworkBootstrap4BrowserModule</text>
</g>
<!-- NgBrowserComponent&#45;&gt;JNetworkBootstrap4BrowserModule -->
<g id="edge1" class="edge">
<title>NgBrowserComponent&#45;&gt;JNetworkBootstrap4BrowserModule</title>
<path fill="none" stroke="black" d="M97,-84.91C97,-104.14 97,-131.8 97,-131.8 97,-131.8 409.52,-131.8 409.52,-131.8"/>
<polygon fill="black" stroke="black" points="409.52,-135.3 419.52,-131.8 409.52,-128.3 409.52,-135.3"/>
</g>
<!-- NgBrowserComponent  -->
<g id="node7" class="node">
<title>NgBrowserComponent </title>
<polygon fill="#fb8072" stroke="black" points="605.86,-214.8 456.14,-214.8 456.14,-178.8 605.86,-178.8 605.86,-214.8"/>
<text text-anchor="middle" x="531" y="-192.6" font-family="Times,serif" font-size="14.00">NgBrowserComponent </text>
</g>
<!-- JNetworkBootstrap4BrowserModule&#45;&gt;NgBrowserComponent  -->
<g id="edge6" class="edge">
<title>JNetworkBootstrap4BrowserModule&#45;&gt;NgBrowserComponent </title>
<path fill="none" stroke="black" stroke-dasharray="5,2" d="M555.89,-149.91C555.89,-149.91 555.89,-168.79 555.89,-168.79"/>
<polygon fill="black" stroke="black" points="552.39,-168.79 555.89,-178.79 559.39,-168.79 552.39,-168.79"/>
</g>
<!-- JNetworkBootstrap4BrowserModule&#45;&gt;NgBrowserComponent  -->
<g id="edge7" class="edge">
<title>JNetworkBootstrap4BrowserModule&#45;&gt;NgBrowserComponent </title>
<path fill="none" stroke="black" stroke-dasharray="1,5" d="M506.11,-149.91C506.11,-149.91 506.11,-168.79 506.11,-168.79"/>
<polygon fill="black" stroke="black" points="502.61,-168.79 506.11,-178.79 509.61,-168.79 502.61,-168.79"/>
</g>
<!-- JNetworkBootstrap4ConfirmModule -->
<g id="node3" class="node">
<title>JNetworkBootstrap4ConfirmModule</title>
<polygon fill="#8dd3c7" stroke="black" points="1143.35,-84.8 1140.35,-88.8 1119.35,-88.8 1116.35,-84.8 920.65,-84.8 920.65,-48.8 1143.35,-48.8 1143.35,-84.8"/>
<text text-anchor="middle" x="1032" y="-62.6" font-family="Times,serif" font-size="14.00">JNetworkBootstrap4ConfirmModule</text>
</g>
<!-- JNetworkBootstrap4ConfirmModule&#45;&gt;JNetworkBootstrap4BrowserModule -->
<g id="edge2" class="edge">
<title>JNetworkBootstrap4ConfirmModule&#45;&gt;JNetworkBootstrap4BrowserModule</title>
<path fill="none" stroke="black" d="M1032,-84.91C1032,-104.14 1032,-131.8 1032,-131.8 1032,-131.8 652.5,-131.8 652.5,-131.8"/>
<polygon fill="black" stroke="black" points="652.5,-128.3 642.5,-131.8 652.5,-135.3 652.5,-128.3"/>
</g>
<!-- JNetworkBootstrap4ContextmenuModule -->
<g id="node4" class="node">
<title>JNetworkBootstrap4ContextmenuModule</title>
<polygon fill="#8dd3c7" stroke="black" points="902.35,-84.8 899.35,-88.8 878.35,-88.8 875.35,-84.8 651.65,-84.8 651.65,-48.8 902.35,-48.8 902.35,-84.8"/>
<text text-anchor="middle" x="777" y="-62.6" font-family="Times,serif" font-size="14.00">JNetworkBootstrap4ContextmenuModule</text>
</g>
<!-- JNetworkBootstrap4ContextmenuModule&#45;&gt;JNetworkBootstrap4BrowserModule -->
<g id="edge3" class="edge">
<title>JNetworkBootstrap4ContextmenuModule&#45;&gt;JNetworkBootstrap4BrowserModule</title>
<path fill="none" stroke="black" d="M651.46,-66.8C643.23,-66.8 638.14,-66.8 638.14,-66.8 638.14,-66.8 638.14,-103.69 638.14,-103.69"/>
<polygon fill="black" stroke="black" points="634.64,-103.69 638.14,-113.69 641.64,-103.69 634.64,-103.69"/>
</g>
<!-- JNetworkBootstrap4FormModule -->
<g id="node5" class="node">
<title>JNetworkBootstrap4FormModule</title>
<polygon fill="#8dd3c7" stroke="black" points="633.74,-84.8 630.74,-88.8 609.74,-88.8 606.74,-84.8 428.26,-84.8 428.26,-48.8 633.74,-48.8 633.74,-84.8"/>
<text text-anchor="middle" x="531" y="-62.6" font-family="Times,serif" font-size="14.00">JNetworkBootstrap4FormModule</text>
</g>
<!-- JNetworkBootstrap4FormModule&#45;&gt;JNetworkBootstrap4BrowserModule -->
<g id="edge4" class="edge">
<title>JNetworkBootstrap4FormModule&#45;&gt;JNetworkBootstrap4BrowserModule</title>
<path fill="none" stroke="black" d="M531,-84.91C531,-84.91 531,-103.79 531,-103.79"/>
<polygon fill="black" stroke="black" points="527.5,-103.79 531,-113.79 534.5,-103.79 527.5,-103.79"/>
</g>
<!-- JNetworkBootstrap4UploadModule -->
<g id="node6" class="node">
<title>JNetworkBootstrap4UploadModule</title>
<polygon fill="#8dd3c7" stroke="black" points="410.12,-84.8 407.12,-88.8 386.12,-88.8 383.12,-84.8 193.88,-84.8 193.88,-48.8 410.12,-48.8 410.12,-84.8"/>
<text text-anchor="middle" x="302" y="-62.6" font-family="Times,serif" font-size="14.00">JNetworkBootstrap4UploadModule</text>
</g>
<!-- JNetworkBootstrap4UploadModule&#45;&gt;JNetworkBootstrap4BrowserModule -->
<g id="edge5" class="edge">
<title>JNetworkBootstrap4UploadModule&#45;&gt;JNetworkBootstrap4BrowserModule</title>
<path fill="none" stroke="black" d="M410.35,-66.8C418.63,-66.8 423.86,-66.8 423.86,-66.8 423.86,-66.8 423.86,-103.69 423.86,-103.69"/>
<polygon fill="black" stroke="black" points="420.36,-103.69 423.86,-113.69 427.36,-103.69 420.36,-103.69"/>
</g>
</g>
</svg>
