<?xml version="1.0" encoding="UTF-8" standalone="no"?>
<!DOCTYPE svg PUBLIC "-//W3C//DTD SVG 1.1//EN"
 "http://www.w3.org/Graphics/SVG/1.1/DTD/svg11.dtd">
<!-- Generated by graphviz version 2.47.3 (20210619.1520)
 -->
<!-- Title: dependencies Pages: 1 -->
<svg width="1175pt" height="312pt"
 viewBox="0.00 0.00 1175.00 311.80" xmlns="http://www.w3.org/2000/svg" xmlns:xlink="http://www.w3.org/1999/xlink">
<g id="graph0" class="graph" transform="scale(1 1) rotate(0) translate(4 307.8)">
<title>dependencies</title>
<polygon fill="white" stroke="transparent" points="-4,4 -4,-307.8 1171,-307.8 1171,4 -4,4"/>
<text text-anchor="middle" x="583.5" y="-8.2" font-family="sans-serif" font-size="14.00">dependencies</text>
<g id="clust1" class="cluster">
<title>cluster_JNetworkBootstrap4BrowserModule</title>
<polygon fill="none" stroke="black" stroke-dasharray="1,5" points="8,-32.8 8,-295.8 1159,-295.8 1159,-32.8 8,-32.8"/>
</g>
<g id="clust5" class="cluster">
<title>cluster_JNetworkBootstrap4BrowserModule_exports</title>
<polygon fill="none" stroke="black" points="524,-235.8 524,-287.8 690,-287.8 690,-235.8 524,-235.8"/>
</g>
<g id="clust3" class="cluster">
<title>cluster_JNetworkBootstrap4BrowserModule_NgBrowserComponent_providers</title>
<polygon fill="none" stroke="black" points="989,-40.8 989,-157.8 1151,-157.8 1151,-40.8 989,-40.8"/>
</g>
<g id="clust4" class="cluster">
<title>cluster_JNetworkBootstrap4BrowserModule_imports</title>
<polygon fill="none" stroke="black" points="16,-105.8 16,-157.8 981,-157.8 981,-105.8 16,-105.8"/>
</g>
<!-- NgBrowserComponent -->
<g id="node1" class="node">
<title>NgBrowserComponent</title>
<polygon fill="#ffffb3" stroke="black" points="1142.86,-149.8 997.14,-149.8 997.14,-113.8 1142.86,-113.8 1142.86,-149.8"/>
<text text-anchor="middle" x="1070" y="-127.6" font-family="Times,serif" font-size="14.00">NgBrowserComponent</text>
</g>
<!-- JNetworkBootstrap4BrowserModule -->
<g id="node2" class="node">
<title>JNetworkBootstrap4BrowserModule</title>
<polygon fill="#8dd3c7" stroke="black" points="718.33,-214.8 715.33,-218.8 694.33,-218.8 691.33,-214.8 495.67,-214.8 495.67,-178.8 718.33,-178.8 718.33,-214.8"/>
<text text-anchor="middle" x="607" y="-192.6" font-family="Times,serif" font-size="14.00">JNetworkBootstrap4BrowserModule</text>
</g>
<!-- NgBrowserComponent&#45;&gt;JNetworkBootstrap4BrowserModule -->
<g id="edge1" class="edge">
<title>NgBrowserComponent&#45;&gt;JNetworkBootstrap4BrowserModule</title>
<path fill="none" stroke="black" d="M1070,-150.08C1070,-171.12 1070,-202.8 1070,-202.8 1070,-202.8 728.49,-202.8 728.49,-202.8"/>
<polygon fill="black" stroke="black" points="728.49,-199.3 718.49,-202.8 728.49,-206.3 728.49,-199.3"/>
</g>
<!-- NgBrowserComponent  -->
<g id="node8" class="node">
<title>NgBrowserComponent </title>
<polygon fill="#fb8072" stroke="black" points="681.86,-279.8 532.14,-279.8 532.14,-243.8 681.86,-243.8 681.86,-279.8"/>
<text text-anchor="middle" x="607" y="-257.6" font-family="Times,serif" font-size="14.00">NgBrowserComponent </text>
</g>
<!-- JNetworkBootstrap4BrowserModule&#45;&gt;NgBrowserComponent  -->
<g id="edge7" class="edge">
<title>JNetworkBootstrap4BrowserModule&#45;&gt;NgBrowserComponent </title>
<path fill="none" stroke="black" stroke-dasharray="5,2" d="M631.89,-214.91C631.89,-214.91 631.89,-233.79 631.89,-233.79"/>
<polygon fill="black" stroke="black" points="628.39,-233.79 631.89,-243.79 635.39,-233.79 628.39,-233.79"/>
</g>
<!-- JNetworkBootstrap4BrowserModule&#45;&gt;NgBrowserComponent  -->
<g id="edge8" class="edge">
<title>JNetworkBootstrap4BrowserModule&#45;&gt;NgBrowserComponent </title>
<path fill="none" stroke="black" stroke-dasharray="1,5" d="M582.11,-214.91C582.11,-214.91 582.11,-233.79 582.11,-233.79"/>
<polygon fill="black" stroke="black" points="578.61,-233.79 582.11,-243.79 585.61,-233.79 578.61,-233.79"/>
</g>
<!-- ServiceConfirm -->
<g id="node3" class="node">
<title>ServiceConfirm</title>
<ellipse fill="#fdb462" stroke="black" cx="1070" cy="-66.8" rx="72.93" ry="18"/>
<text text-anchor="middle" x="1070" y="-62.6" font-family="Times,serif" font-size="14.00">ServiceConfirm</text>
</g>
<!-- ServiceConfirm&#45;&gt;NgBrowserComponent -->
<g id="edge2" class="edge">
<title>ServiceConfirm&#45;&gt;NgBrowserComponent</title>
<path fill="none" stroke="black" d="M1070,-84.91C1070,-84.91 1070,-103.79 1070,-103.79"/>
<polygon fill="black" stroke="black" points="1066.5,-103.79 1070,-113.79 1073.5,-103.79 1066.5,-103.79"/>
</g>
<!-- JNetworkBootstrap4ConfirmModule -->
<g id="node4" class="node">
<title>JNetworkBootstrap4ConfirmModule</title>
<polygon fill="#8dd3c7" stroke="black" points="973.35,-149.8 970.35,-153.8 949.35,-153.8 946.35,-149.8 750.65,-149.8 750.65,-113.8 973.35,-113.8 973.35,-149.8"/>
<text text-anchor="middle" x="862" y="-127.6" font-family="Times,serif" font-size="14.00">JNetworkBootstrap4ConfirmModule</text>
</g>
<!-- JNetworkBootstrap4ConfirmModule&#45;&gt;JNetworkBootstrap4BrowserModule -->
<g id="edge3" class="edge">
<title>JNetworkBootstrap4ConfirmModule&#45;&gt;JNetworkBootstrap4BrowserModule</title>
<path fill="none" stroke="black" d="M862,-149.82C862,-167.17 862,-190.8 862,-190.8 862,-190.8 728.48,-190.8 728.48,-190.8"/>
<polygon fill="black" stroke="black" points="728.48,-187.3 718.48,-190.8 728.48,-194.3 728.48,-187.3"/>
</g>
<!-- JNetworkBootstrap4ContextmenuModule -->
<g id="node5" class="node">
<title>JNetworkBootstrap4ContextmenuModule</title>
<polygon fill="#8dd3c7" stroke="black" points="732.35,-149.8 729.35,-153.8 708.35,-153.8 705.35,-149.8 481.65,-149.8 481.65,-113.8 732.35,-113.8 732.35,-149.8"/>
<text text-anchor="middle" x="607" y="-127.6" font-family="Times,serif" font-size="14.00">JNetworkBootstrap4ContextmenuModule</text>
</g>
<!-- JNetworkBootstrap4ContextmenuModule&#45;&gt;JNetworkBootstrap4BrowserModule -->
<g id="edge4" class="edge">
<title>JNetworkBootstrap4ContextmenuModule&#45;&gt;JNetworkBootstrap4BrowserModule</title>
<path fill="none" stroke="black" d="M607,-149.91C607,-149.91 607,-168.79 607,-168.79"/>
<polygon fill="black" stroke="black" points="603.5,-168.79 607,-178.79 610.5,-168.79 603.5,-168.79"/>
</g>
<!-- JNetworkBootstrap4FormModule -->
<g id="node6" class="node">
<title>JNetworkBootstrap4FormModule</title>
<polygon fill="#8dd3c7" stroke="black" points="463.74,-149.8 460.74,-153.8 439.74,-153.8 436.74,-149.8 258.26,-149.8 258.26,-113.8 463.74,-113.8 463.74,-149.8"/>
<text text-anchor="middle" x="361" y="-127.6" font-family="Times,serif" font-size="14.00">JNetworkBootstrap4FormModule</text>
</g>
<!-- JNetworkBootstrap4FormModule&#45;&gt;JNetworkBootstrap4BrowserModule -->
<g id="edge5" class="edge">
<title>JNetworkBootstrap4FormModule&#45;&gt;JNetworkBootstrap4BrowserModule</title>
<path fill="none" stroke="black" d="M361,-149.82C361,-167.17 361,-190.8 361,-190.8 361,-190.8 485.52,-190.8 485.52,-190.8"/>
<polygon fill="black" stroke="black" points="485.52,-194.3 495.52,-190.8 485.52,-187.3 485.52,-194.3"/>
</g>
<!-- JNetworkBootstrap4UploadModule -->
<g id="node7" class="node">
<title>JNetworkBootstrap4UploadModule</title>
<polygon fill="#8dd3c7" stroke="black" points="240.12,-149.8 237.12,-153.8 216.12,-153.8 213.12,-149.8 23.88,-149.8 23.88,-113.8 240.12,-113.8 240.12,-149.8"/>
<text text-anchor="middle" x="132" y="-127.6" font-family="Times,serif" font-size="14.00">JNetworkBootstrap4UploadModule</text>
</g>
<!-- JNetworkBootstrap4UploadModule&#45;&gt;JNetworkBootstrap4BrowserModule -->
<g id="edge6" class="edge">
<title>JNetworkBootstrap4UploadModule&#45;&gt;JNetworkBootstrap4BrowserModule</title>
<path fill="none" stroke="black" d="M132,-150.08C132,-171.12 132,-202.8 132,-202.8 132,-202.8 485.63,-202.8 485.63,-202.8"/>
<polygon fill="black" stroke="black" points="485.63,-206.3 495.63,-202.8 485.63,-199.3 485.63,-206.3"/>
</g>
</g>
</svg>
