<?xml version="1.0" encoding="UTF-8" standalone="no"?>
<!DOCTYPE svg PUBLIC "-//W3C//DTD SVG 1.1//EN"
 "http://www.w3.org/Graphics/SVG/1.1/DTD/svg11.dtd">
<!-- Generated by graphviz version 2.47.0 (20210316.0004)
 -->
<!-- Title: dependencies Pages: 1 -->
<svg width="3885pt" height="396pt"
 viewBox="0.00 0.00 3885.00 395.59" xmlns="http://www.w3.org/2000/svg" xmlns:xlink="http://www.w3.org/1999/xlink">
<g id="graph0" class="graph" transform="scale(1 1) rotate(0) translate(4 391.59)">
<title>dependencies</title>
<polygon fill="white" stroke="transparent" points="-4,4 -4,-391.59 3881,-391.59 3881,4 -4,4"/>
<text text-anchor="start" x="1917.51" y="-42.4" font-family="Times-12" font-weight="bold" font-size="14.00">Legend</text>
<polygon fill="#ffffb3" stroke="transparent" points="1704.5,-10 1704.5,-30 1724.5,-30 1724.5,-10 1704.5,-10"/>
<text text-anchor="start" x="1728.13" y="-15.4" font-family="Times-12" font-size="14.00"> &#160;Declarations</text>
<polygon fill="#8dd3c7" stroke="transparent" points="1817.5,-10 1817.5,-30 1837.5,-30 1837.5,-10 1817.5,-10"/>
<text text-anchor="start" x="1841.23" y="-15.4" font-family="Times-12" font-size="14.00"> &#160;Module</text>
<polygon fill="#80b1d3" stroke="transparent" points="1903.5,-10 1903.5,-30 1923.5,-30 1923.5,-10 1903.5,-10"/>
<text text-anchor="start" x="1927.28" y="-15.4" font-family="Times-12" font-size="14.00"> &#160;Bootstrap</text>
<polygon fill="#fdb462" stroke="transparent" points="2000.5,-10 2000.5,-30 2020.5,-30 2020.5,-10 2000.5,-10"/>
<text text-anchor="start" x="2024.17" y="-15.4" font-family="Times-12" font-size="14.00"> &#160;Providers</text>
<polygon fill="#fb8072" stroke="transparent" points="2096.5,-10 2096.5,-30 2116.5,-30 2116.5,-10 2096.5,-10"/>
<text text-anchor="start" x="2120.23" y="-15.4" font-family="Times-12" font-size="14.00"> &#160;Exports</text>
<g id="clust1" class="cluster">
<title>cluster_SACBootstrap5UploadModule</title>
<polygon fill="none" stroke="black" stroke-dasharray="1,5" points="8,-70 8,-379.59 3869,-379.59 3869,-70 8,-70"/>
</g>
<g id="clust4" class="cluster">
<title>cluster_SACBootstrap5UploadModule_SacDropzoneSingleComponent_providers</title>
<polygon fill="none" stroke="black" points="2147,-78 2147,-241.59 3861,-241.59 3861,-78 2147,-78"/>
</g>
<g id="clust3" class="cluster">
<title>cluster_SACBootstrap5UploadModule_SacDropzoneMultipleComponent_providers</title>
<polygon fill="none" stroke="black" points="391,-78 391,-241.59 2139,-241.59 2139,-78 391,-78"/>
</g>
<g id="clust2" class="cluster">
<title>cluster_SACBootstrap5UploadModule_declarations</title>
<polygon fill="none" stroke="black" points="16,-189.59 16,-241.59 383,-241.59 383,-189.59 16,-189.59"/>
</g>
<g id="clust8" class="cluster">
<title>cluster_SACBootstrap5UploadModule_exports</title>
<polygon fill="none" stroke="black" points="287,-319.59 287,-371.59 1101,-371.59 1101,-319.59 287,-319.59"/>
</g>
<!-- SacDropzoneMultipleComponent -->
<g id="node1" class="node">
<title>SacDropzoneMultipleComponent</title>
<polygon fill="#ffffb3" stroke="black" points="954.46,-233.59 749.54,-233.59 749.54,-197.59 954.46,-197.59 954.46,-233.59"/>
<text text-anchor="middle" x="852" y="-211.39" font-family="Times,serif" font-size="14.00">SacDropzoneMultipleComponent</text>
</g>
<!-- SACBootstrap5UploadModule -->
<g id="node5" class="node">
<title>SACBootstrap5UploadModule</title>
<polygon fill="#8dd3c7" stroke="black" points="768.93,-298.59 765.93,-302.59 744.93,-302.59 741.93,-298.59 579.07,-298.59 579.07,-262.59 768.93,-262.59 768.93,-298.59"/>
<text text-anchor="middle" x="674" y="-276.39" font-family="Times,serif" font-size="14.00">SACBootstrap5UploadModule</text>
</g>
<!-- SacDropzoneMultipleComponent&#45;&gt;SACBootstrap5UploadModule -->
<g id="edge1" class="edge">
<title>SacDropzoneMultipleComponent&#45;&gt;SACBootstrap5UploadModule</title>
<path fill="none" stroke="black" d="M759.12,-233.7C759.12,-233.7 759.12,-252.58 759.12,-252.58"/>
<polygon fill="black" stroke="black" points="755.62,-252.58 759.12,-262.58 762.62,-252.58 755.62,-252.58"/>
</g>
<!-- SacDropzoneSingleComponent -->
<g id="node2" class="node">
<title>SacDropzoneSingleComponent</title>
<polygon fill="#ffffb3" stroke="black" points="2695.02,-233.59 2502.98,-233.59 2502.98,-197.59 2695.02,-197.59 2695.02,-233.59"/>
<text text-anchor="middle" x="2599" y="-211.39" font-family="Times,serif" font-size="14.00">SacDropzoneSingleComponent</text>
</g>
<!-- SacDropzoneSingleComponent&#45;&gt;SACBootstrap5UploadModule -->
<g id="edge4" class="edge">
<title>SacDropzoneSingleComponent&#45;&gt;SACBootstrap5UploadModule</title>
<path fill="none" stroke="black" d="M2599,-233.61C2599,-250.96 2599,-274.59 2599,-274.59 2599,-274.59 778.8,-274.59 778.8,-274.59"/>
<polygon fill="black" stroke="black" points="778.8,-271.09 768.8,-274.59 778.8,-278.09 778.8,-271.09"/>
</g>
<!-- SacUploadComponent -->
<g id="node3" class="node">
<title>SacUploadComponent</title>
<polygon fill="#ffffb3" stroke="black" points="375.26,-233.59 232.74,-233.59 232.74,-197.59 375.26,-197.59 375.26,-233.59"/>
<text text-anchor="middle" x="304" y="-211.39" font-family="Times,serif" font-size="14.00">SacUploadComponent</text>
</g>
<!-- SacUploadComponent&#45;&gt;SACBootstrap5UploadModule -->
<g id="edge7" class="edge">
<title>SacUploadComponent&#45;&gt;SACBootstrap5UploadModule</title>
<path fill="none" stroke="black" d="M335.07,-233.62C335.07,-249.99 335.07,-271.59 335.07,-271.59 335.07,-271.59 569.14,-271.59 569.14,-271.59"/>
<polygon fill="black" stroke="black" points="569.14,-275.09 579.14,-271.59 569.14,-268.09 569.14,-275.09"/>
</g>
<!-- SacUploadMultipleComponent -->
<g id="node4" class="node">
<title>SacUploadMultipleComponent</title>
<polygon fill="#ffffb3" stroke="black" points="214.48,-233.59 23.52,-233.59 23.52,-197.59 214.48,-197.59 214.48,-233.59"/>
<text text-anchor="middle" x="119" y="-211.39" font-family="Times,serif" font-size="14.00">SacUploadMultipleComponent</text>
</g>
<!-- SacUploadMultipleComponent&#45;&gt;SACBootstrap5UploadModule -->
<g id="edge8" class="edge">
<title>SacUploadMultipleComponent&#45;&gt;SACBootstrap5UploadModule</title>
<path fill="none" stroke="black" d="M119,-233.7C119,-252.93 119,-280.59 119,-280.59 119,-280.59 569.22,-280.59 569.22,-280.59"/>
<polygon fill="black" stroke="black" points="569.22,-284.09 579.22,-280.59 569.22,-277.09 569.22,-284.09"/>
</g>
<!-- SacDropzoneMultipleComponent  -->
<g id="node10" class="node">
<title>SacDropzoneMultipleComponent </title>
<polygon fill="#fb8072" stroke="black" points="1093.46,-363.59 884.54,-363.59 884.54,-327.59 1093.46,-327.59 1093.46,-363.59"/>
<text text-anchor="middle" x="989" y="-341.39" font-family="Times,serif" font-size="14.00">SacDropzoneMultipleComponent </text>
</g>
<!-- SACBootstrap5UploadModule&#45;&gt;SacDropzoneMultipleComponent  -->
<g id="edge9" class="edge">
<title>SACBootstrap5UploadModule&#45;&gt;SacDropzoneMultipleComponent </title>
<path fill="none" stroke="black" stroke-dasharray="5,2" d="M768.97,-286.59C838.08,-286.59 919.62,-286.59 919.62,-286.59 919.62,-286.59 919.62,-317.57 919.62,-317.57"/>
<polygon fill="black" stroke="black" points="916.13,-317.57 919.62,-327.57 923.13,-317.57 916.13,-317.57"/>
</g>
<!-- SacDropzoneSingleComponent  -->
<g id="node11" class="node">
<title>SacDropzoneSingleComponent </title>
<polygon fill="#fb8072" stroke="black" points="867.02,-363.59 670.98,-363.59 670.98,-327.59 867.02,-327.59 867.02,-363.59"/>
<text text-anchor="middle" x="769" y="-341.39" font-family="Times,serif" font-size="14.00">SacDropzoneSingleComponent </text>
</g>
<!-- SACBootstrap5UploadModule&#45;&gt;SacDropzoneSingleComponent  -->
<g id="edge10" class="edge">
<title>SACBootstrap5UploadModule&#45;&gt;SacDropzoneSingleComponent </title>
<path fill="none" stroke="black" stroke-dasharray="5,2" d="M719.85,-298.7C719.85,-298.7 719.85,-317.58 719.85,-317.58"/>
<polygon fill="black" stroke="black" points="716.35,-317.58 719.85,-327.58 723.35,-317.58 716.35,-317.58"/>
</g>
<!-- SacUploadComponent  -->
<g id="node12" class="node">
<title>SacUploadComponent </title>
<polygon fill="#fb8072" stroke="black" points="653.26,-363.59 506.74,-363.59 506.74,-327.59 653.26,-327.59 653.26,-363.59"/>
<text text-anchor="middle" x="580" y="-341.39" font-family="Times,serif" font-size="14.00">SacUploadComponent </text>
</g>
<!-- SACBootstrap5UploadModule&#45;&gt;SacUploadComponent  -->
<g id="edge11" class="edge">
<title>SACBootstrap5UploadModule&#45;&gt;SacUploadComponent </title>
<path fill="none" stroke="black" stroke-dasharray="5,2" d="M616.21,-298.7C616.21,-298.7 616.21,-317.58 616.21,-317.58"/>
<polygon fill="black" stroke="black" points="612.71,-317.58 616.21,-327.58 619.71,-317.58 612.71,-317.58"/>
</g>
<!-- SacUploadMultipleComponent  -->
<g id="node13" class="node">
<title>SacUploadMultipleComponent </title>
<polygon fill="#fb8072" stroke="black" points="489.48,-363.59 294.52,-363.59 294.52,-327.59 489.48,-327.59 489.48,-363.59"/>
<text text-anchor="middle" x="392" y="-341.39" font-family="Times,serif" font-size="14.00">SacUploadMultipleComponent </text>
</g>
<!-- SACBootstrap5UploadModule&#45;&gt;SacUploadMultipleComponent  -->
<g id="edge12" class="edge">
<title>SACBootstrap5UploadModule&#45;&gt;SacUploadMultipleComponent </title>
<path fill="none" stroke="black" stroke-dasharray="5,2" d="M579.17,-289.59C515.85,-289.59 444.12,-289.59 444.12,-289.59 444.12,-289.59 444.12,-317.56 444.12,-317.56"/>
<polygon fill="black" stroke="black" points="440.62,-317.56 444.12,-327.56 447.62,-317.56 440.62,-317.56"/>
</g>
<!-- {
 &#160;&#160;&#160;provide: NG_VALUE_ACCESSOR, multi: true, useExisting: SacDropzoneMultipleComponent,
} -->
<g id="node6" class="node">
<title>{
 &#160;&#160;&#160;provide: NG_VALUE_ACCESSOR, multi: true, useExisting: SacDropzoneMultipleComponent,
}</title>
<ellipse fill="#fdb462" stroke="black" cx="1727" cy="-127.3" rx="404.48" ry="41.09"/>
<text text-anchor="middle" x="1727" y="-139.9" font-family="Times,serif" font-size="14.00">{</text>
<text text-anchor="middle" x="1727" y="-123.1" font-family="Times,serif" font-size="14.00"> &#160;&#160;&#160;provide: NG_VALUE_ACCESSOR, multi: true, useExisting: SacDropzoneMultipleComponent,</text>
<text text-anchor="middle" x="1727" y="-106.3" font-family="Times,serif" font-size="14.00">}</text>
</g>
<!-- {
 &#160;&#160;&#160;provide: NG_VALUE_ACCESSOR, multi: true, useExisting: SacDropzoneMultipleComponent,
}&#45;&gt;SacDropzoneMultipleComponent -->
<g id="edge2" class="edge">
<title>{
 &#160;&#160;&#160;provide: NG_VALUE_ACCESSOR, multi: true, useExisting: SacDropzoneMultipleComponent,
}&#45;&gt;SacDropzoneMultipleComponent</title>
<path fill="none" stroke="black" d="M1727,-168.6C1727,-191.58 1727,-215.59 1727,-215.59 1727,-215.59 964.52,-215.59 964.52,-215.59"/>
<polygon fill="black" stroke="black" points="964.52,-212.09 954.52,-215.59 964.52,-219.09 964.52,-212.09"/>
</g>
<!-- {
 &#160;&#160;&#160;provide: NG_VALIDATORS, multi: true, useExisting: forwardRef(() =&gt; SacDropzoneMultipleComponent),
} -->
<g id="node7" class="node">
<title>{
 &#160;&#160;&#160;provide: NG_VALIDATORS, multi: true, useExisting: forwardRef(() =&gt; SacDropzoneMultipleComponent),
}</title>
<ellipse fill="#fdb462" stroke="black" cx="852" cy="-127.3" rx="452.99" ry="41.09"/>
<text text-anchor="middle" x="852" y="-139.9" font-family="Times,serif" font-size="14.00">{</text>
<text text-anchor="middle" x="852" y="-123.1" font-family="Times,serif" font-size="14.00"> &#160;&#160;&#160;provide: NG_VALIDATORS, multi: true, useExisting: forwardRef(() =&gt; SacDropzoneMultipleComponent),</text>
<text text-anchor="middle" x="852" y="-106.3" font-family="Times,serif" font-size="14.00">}</text>
</g>
<!-- {
 &#160;&#160;&#160;provide: NG_VALIDATORS, multi: true, useExisting: forwardRef(() =&gt; SacDropzoneMultipleComponent),
}&#45;&gt;SacDropzoneMultipleComponent -->
<g id="edge3" class="edge">
<title>{
 &#160;&#160;&#160;provide: NG_VALIDATORS, multi: true, useExisting: forwardRef(() =&gt; SacDropzoneMultipleComponent),
}&#45;&gt;SacDropzoneMultipleComponent</title>
<path fill="none" stroke="black" d="M852,-168.6C852,-168.6 852,-187.26 852,-187.26"/>
<polygon fill="black" stroke="black" points="848.5,-187.26 852,-197.26 855.5,-187.26 848.5,-187.26"/>
</g>
<!-- {
 &#160;&#160;&#160;provide: NG_VALUE_ACCESSOR, multi: true, useExisting: SacDropzoneSingleComponent,
} -->
<g id="node8" class="node">
<title>{
 &#160;&#160;&#160;provide: NG_VALUE_ACCESSOR, multi: true, useExisting: SacDropzoneSingleComponent,
}</title>
<ellipse fill="#fdb462" stroke="black" cx="3457" cy="-127.3" rx="395.88" ry="41.09"/>
<text text-anchor="middle" x="3457" y="-139.9" font-family="Times,serif" font-size="14.00">{</text>
<text text-anchor="middle" x="3457" y="-123.1" font-family="Times,serif" font-size="14.00"> &#160;&#160;&#160;provide: NG_VALUE_ACCESSOR, multi: true, useExisting: SacDropzoneSingleComponent,</text>
<text text-anchor="middle" x="3457" y="-106.3" font-family="Times,serif" font-size="14.00">}</text>
</g>
<!-- {
 &#160;&#160;&#160;provide: NG_VALUE_ACCESSOR, multi: true, useExisting: SacDropzoneSingleComponent,
}&#45;&gt;SacDropzoneSingleComponent -->
<g id="edge5" class="edge">
<title>{
 &#160;&#160;&#160;provide: NG_VALUE_ACCESSOR, multi: true, useExisting: SacDropzoneSingleComponent,
}&#45;&gt;SacDropzoneSingleComponent</title>
<path fill="none" stroke="black" d="M3457,-168.6C3457,-191.58 3457,-215.59 3457,-215.59 3457,-215.59 2705.34,-215.59 2705.34,-215.59"/>
<polygon fill="black" stroke="black" points="2705.34,-212.09 2695.34,-215.59 2705.34,-219.09 2705.34,-212.09"/>
</g>
<!-- {
 &#160;&#160;&#160;provide: NG_VALIDATORS, multi: true, useExisting: forwardRef(() =&gt; SacDropzoneSingleComponent),
} -->
<g id="node9" class="node">
<title>{
 &#160;&#160;&#160;provide: NG_VALIDATORS, multi: true, useExisting: forwardRef(() =&gt; SacDropzoneSingleComponent),
}</title>
<ellipse fill="#fdb462" stroke="black" cx="2599" cy="-127.3" rx="444.4" ry="41.09"/>
<text text-anchor="middle" x="2599" y="-139.9" font-family="Times,serif" font-size="14.00">{</text>
<text text-anchor="middle" x="2599" y="-123.1" font-family="Times,serif" font-size="14.00"> &#160;&#160;&#160;provide: NG_VALIDATORS, multi: true, useExisting: forwardRef(() =&gt; SacDropzoneSingleComponent),</text>
<text text-anchor="middle" x="2599" y="-106.3" font-family="Times,serif" font-size="14.00">}</text>
</g>
<!-- {
 &#160;&#160;&#160;provide: NG_VALIDATORS, multi: true, useExisting: forwardRef(() =&gt; SacDropzoneSingleComponent),
}&#45;&gt;SacDropzoneSingleComponent -->
<g id="edge6" class="edge">
<title>{
 &#160;&#160;&#160;provide: NG_VALIDATORS, multi: true, useExisting: forwardRef(() =&gt; SacDropzoneSingleComponent),
}&#45;&gt;SacDropzoneSingleComponent</title>
<path fill="none" stroke="black" d="M2599,-168.6C2599,-168.6 2599,-187.26 2599,-187.26"/>
<polygon fill="black" stroke="black" points="2595.5,-187.26 2599,-197.26 2602.5,-187.26 2595.5,-187.26"/>
</g>
</g>
</svg>
