<?xml version="1.0" encoding="UTF-8" standalone="no"?>
<!DOCTYPE svg PUBLIC "-//W3C//DTD SVG 1.1//EN"
 "http://www.w3.org/Graphics/SVG/1.1/DTD/svg11.dtd">
<!-- Generated by graphviz version 2.47.0 (20210316.0004)
 -->
<!-- Title: dependencies Pages: 1 -->
<svg width="3885pt" height="396pt"
 viewBox="0.00 0.00 3885.00 395.59" xmlns="http://www.w3.org/2000/svg" xmlns:xlink="http://www.w3.org/1999/xlink">
<g id="graph0" class="graph" transform="scale(1 1) rotate(0) translate(4 391.59)">
<title>dependencies</title>
<polygon fill="white" stroke="transparent" points="-4,4 -4,-391.59 3881,-391.59 3881,4 -4,4"/>
<text text-anchor="start" x="1917.51" y="-42.4" font-family="Times-12" font-weight="bold" font-size="14.00">Legend</text>
<polygon fill="#ffffb3" stroke="transparent" points="1704.5,-10 1704.5,-30 1724.5,-30 1724.5,-10 1704.5,-10"/>
<text text-anchor="start" x="1728.13" y="-15.4" font-family="Times-12" font-size="14.00"> &#160;Declarations</text>
<polygon fill="#8dd3c7" stroke="transparent" points="1817.5,-10 1817.5,-30 1837.5,-30 1837.5,-10 1817.5,-10"/>
<text text-anchor="start" x="1841.23" y="-15.4" font-family="Times-12" font-size="14.00"> &#160;Module</text>
<polygon fill="#80b1d3" stroke="transparent" points="1903.5,-10 1903.5,-30 1923.5,-30 1923.5,-10 1903.5,-10"/>
<text text-anchor="start" x="1927.28" y="-15.4" font-family="Times-12" font-size="14.00"> &#160;Bootstrap</text>
<polygon fill="#fdb462" stroke="transparent" points="2000.5,-10 2000.5,-30 2020.5,-30 2020.5,-10 2000.5,-10"/>
<text text-anchor="start" x="2024.17" y="-15.4" font-family="Times-12" font-size="14.00"> &#160;Providers</text>
<polygon fill="#fb8072" stroke="transparent" points="2096.5,-10 2096.5,-30 2116.5,-30 2116.5,-10 2096.5,-10"/>
<text text-anchor="start" x="2120.23" y="-15.4" font-family="Times-12" font-size="14.00"> &#160;Exports</text>
<g id="clust1" class="cluster">
<title>cluster_SACBootstrap5UploadModule</title>
<polygon fill="none" stroke="black" stroke-dasharray="1,5" points="8,-70 8,-379.59 3869,-379.59 3869,-70 8,-70"/>
</g>
<g id="clust3" class="cluster">
<title>cluster_SACBootstrap5UploadModule_SacDropzoneMultipleComponent_providers</title>
<polygon fill="none" stroke="black" points="2113,-78 2113,-241.59 3861,-241.59 3861,-78 2113,-78"/>
</g>
<g id="clust4" class="cluster">
<title>cluster_SACBootstrap5UploadModule_SacDropzoneSingleComponent_providers</title>
<polygon fill="none" stroke="black" points="391,-78 391,-241.59 2105,-241.59 2105,-78 391,-78"/>
</g>
<g id="clust2" class="cluster">
<title>cluster_SACBootstrap5UploadModule_declarations</title>
<polygon fill="none" stroke="black" points="16,-189.59 16,-241.59 383,-241.59 383,-189.59 16,-189.59"/>
</g>
<g id="clust8" class="cluster">
<title>cluster_SACBootstrap5UploadModule_exports</title>
<polygon fill="none" stroke="black" points="283,-319.59 283,-371.59 1097,-371.59 1097,-319.59 283,-319.59"/>
</g>
<!-- SacDropzoneMultipleComponent -->
<g id="node1" class="node">
<title>SacDropzoneMultipleComponent</title>
<polygon fill="#ffffb3" stroke="black" points="2676.46,-233.59 2471.54,-233.59 2471.54,-197.59 2676.46,-197.59 2676.46,-233.59"/>
<text text-anchor="middle" x="2574" y="-211.39" font-family="Times,serif" font-size="14.00">SacDropzoneMultipleComponent</text>
</g>
<!-- SACBootstrap5UploadModule -->
<g id="node5" class="node">
<title>SACBootstrap5UploadModule</title>
<polygon fill="#8dd3c7" stroke="black" points="764.93,-298.59 761.93,-302.59 740.93,-302.59 737.93,-298.59 575.07,-298.59 575.07,-262.59 764.93,-262.59 764.93,-298.59"/>
<text text-anchor="middle" x="670" y="-276.39" font-family="Times,serif" font-size="14.00">SACBootstrap5UploadModule</text>
</g>
<!-- SacDropzoneMultipleComponent&#45;&gt;SACBootstrap5UploadModule -->
<g id="edge1" class="edge">
<title>SacDropzoneMultipleComponent&#45;&gt;SACBootstrap5UploadModule</title>
<path fill="none" stroke="black" d="M2574,-233.61C2574,-250.96 2574,-274.59 2574,-274.59 2574,-274.59 774.75,-274.59 774.75,-274.59"/>
<polygon fill="black" stroke="black" points="774.75,-271.09 764.75,-274.59 774.75,-278.09 774.75,-271.09"/>
</g>
<!-- SacDropzoneSingleComponent -->
<g id="node2" class="node">
<title>SacDropzoneSingleComponent</title>
<polygon fill="#ffffb3" stroke="black" points="939.02,-233.59 746.98,-233.59 746.98,-197.59 939.02,-197.59 939.02,-233.59"/>
<text text-anchor="middle" x="843" y="-211.39" font-family="Times,serif" font-size="14.00">SacDropzoneSingleComponent</text>
</g>
<!-- SacDropzoneSingleComponent&#45;&gt;SACBootstrap5UploadModule -->
<g id="edge4" class="edge">
<title>SacDropzoneSingleComponent&#45;&gt;SACBootstrap5UploadModule</title>
<path fill="none" stroke="black" d="M755.73,-233.7C755.73,-233.7 755.73,-252.58 755.73,-252.58"/>
<polygon fill="black" stroke="black" points="752.23,-252.58 755.73,-262.58 759.23,-252.58 752.23,-252.58"/>
</g>
<!-- SacUploadComponent -->
<g id="node3" class="node">
<title>SacUploadComponent</title>
<polygon fill="#ffffb3" stroke="black" points="375.26,-233.59 232.74,-233.59 232.74,-197.59 375.26,-197.59 375.26,-233.59"/>
<text text-anchor="middle" x="304" y="-211.39" font-family="Times,serif" font-size="14.00">SacUploadComponent</text>
</g>
<!-- SacUploadComponent&#45;&gt;SACBootstrap5UploadModule -->
<g id="edge7" class="edge">
<title>SacUploadComponent&#45;&gt;SACBootstrap5UploadModule</title>
<path fill="none" stroke="black" d="M333.07,-233.62C333.07,-249.99 333.07,-271.59 333.07,-271.59 333.07,-271.59 565.25,-271.59 565.25,-271.59"/>
<polygon fill="black" stroke="black" points="565.25,-275.09 575.25,-271.59 565.25,-268.09 565.25,-275.09"/>
</g>
<!-- SacUploadMultipleComponent -->
<g id="node4" class="node">
<title>SacUploadMultipleComponent</title>
<polygon fill="#ffffb3" stroke="black" points="214.48,-233.59 23.52,-233.59 23.52,-197.59 214.48,-197.59 214.48,-233.59"/>
<text text-anchor="middle" x="119" y="-211.39" font-family="Times,serif" font-size="14.00">SacUploadMultipleComponent</text>
</g>
<!-- SacUploadMultipleComponent&#45;&gt;SACBootstrap5UploadModule -->
<g id="edge8" class="edge">
<title>SacUploadMultipleComponent&#45;&gt;SACBootstrap5UploadModule</title>
<path fill="none" stroke="black" d="M119,-233.7C119,-252.93 119,-280.59 119,-280.59 119,-280.59 565.28,-280.59 565.28,-280.59"/>
<polygon fill="black" stroke="black" points="565.28,-284.09 575.28,-280.59 565.28,-277.09 565.28,-284.09"/>
</g>
<!-- SacDropzoneMultipleComponent  -->
<g id="node10" class="node">
<title>SacDropzoneMultipleComponent </title>
<polygon fill="#fb8072" stroke="black" points="1089.46,-363.59 880.54,-363.59 880.54,-327.59 1089.46,-327.59 1089.46,-363.59"/>
<text text-anchor="middle" x="985" y="-341.39" font-family="Times,serif" font-size="14.00">SacDropzoneMultipleComponent </text>
</g>
<!-- SACBootstrap5UploadModule&#45;&gt;SacDropzoneMultipleComponent  -->
<g id="edge9" class="edge">
<title>SACBootstrap5UploadModule&#45;&gt;SacDropzoneMultipleComponent </title>
<path fill="none" stroke="black" stroke-dasharray="5,2" d="M764.86,-286.59C831.95,-286.59 910.01,-286.59 910.01,-286.59 910.01,-286.59 910.01,-317.57 910.01,-317.57"/>
<polygon fill="black" stroke="black" points="906.51,-317.57 910.01,-327.57 913.51,-317.57 906.51,-317.57"/>
</g>
<!-- SacDropzoneSingleComponent  -->
<g id="node11" class="node">
<title>SacDropzoneSingleComponent </title>
<polygon fill="#fb8072" stroke="black" points="863.02,-363.59 666.98,-363.59 666.98,-327.59 863.02,-327.59 863.02,-363.59"/>
<text text-anchor="middle" x="765" y="-341.39" font-family="Times,serif" font-size="14.00">SacDropzoneSingleComponent </text>
</g>
<!-- SACBootstrap5UploadModule&#45;&gt;SacDropzoneSingleComponent  -->
<g id="edge10" class="edge">
<title>SACBootstrap5UploadModule&#45;&gt;SacDropzoneSingleComponent </title>
<path fill="none" stroke="black" stroke-dasharray="5,2" d="M715.85,-298.7C715.85,-298.7 715.85,-317.58 715.85,-317.58"/>
<polygon fill="black" stroke="black" points="712.35,-317.58 715.85,-327.58 719.35,-317.58 712.35,-317.58"/>
</g>
<!-- SacUploadComponent  -->
<g id="node12" class="node">
<title>SacUploadComponent </title>
<polygon fill="#fb8072" stroke="black" points="649.26,-363.59 502.74,-363.59 502.74,-327.59 649.26,-327.59 649.26,-363.59"/>
<text text-anchor="middle" x="576" y="-341.39" font-family="Times,serif" font-size="14.00">SacUploadComponent </text>
</g>
<!-- SACBootstrap5UploadModule&#45;&gt;SacUploadComponent  -->
<g id="edge11" class="edge">
<title>SACBootstrap5UploadModule&#45;&gt;SacUploadComponent </title>
<path fill="none" stroke="black" stroke-dasharray="5,2" d="M612.21,-298.7C612.21,-298.7 612.21,-317.58 612.21,-317.58"/>
<polygon fill="black" stroke="black" points="608.71,-317.58 612.21,-327.58 615.71,-317.58 608.71,-317.58"/>
</g>
<!-- SacUploadMultipleComponent  -->
<g id="node13" class="node">
<title>SacUploadMultipleComponent </title>
<polygon fill="#fb8072" stroke="black" points="485.48,-363.59 290.52,-363.59 290.52,-327.59 485.48,-327.59 485.48,-363.59"/>
<text text-anchor="middle" x="388" y="-341.39" font-family="Times,serif" font-size="14.00">SacUploadMultipleComponent </text>
</g>
<!-- SACBootstrap5UploadModule&#45;&gt;SacUploadMultipleComponent  -->
<g id="edge12" class="edge">
<title>SACBootstrap5UploadModule&#45;&gt;SacUploadMultipleComponent </title>
<path fill="none" stroke="black" stroke-dasharray="5,2" d="M574.97,-289.59C512.41,-289.59 442.02,-289.59 442.02,-289.59 442.02,-289.59 442.02,-317.56 442.02,-317.56"/>
<polygon fill="black" stroke="black" points="438.52,-317.56 442.02,-327.56 445.52,-317.56 438.52,-317.56"/>
</g>
<!-- {
 &#160;&#160;&#160;provide: NG_VALUE_ACCESSOR, multi: true, useExisting: SacDropzoneMultipleComponent,
} -->
<g id="node6" class="node">
<title>{
 &#160;&#160;&#160;provide: NG_VALUE_ACCESSOR, multi: true, useExisting: SacDropzoneMultipleComponent,
}</title>
<ellipse fill="#fdb462" stroke="black" cx="3449" cy="-127.3" rx="404.48" ry="41.09"/>
<text text-anchor="middle" x="3449" y="-139.9" font-family="Times,serif" font-size="14.00">{</text>
<text text-anchor="middle" x="3449" y="-123.1" font-family="Times,serif" font-size="14.00"> &#160;&#160;&#160;provide: NG_VALUE_ACCESSOR, multi: true, useExisting: SacDropzoneMultipleComponent,</text>
<text text-anchor="middle" x="3449" y="-106.3" font-family="Times,serif" font-size="14.00">}</text>
</g>
<!-- {
 &#160;&#160;&#160;provide: NG_VALUE_ACCESSOR, multi: true, useExisting: SacDropzoneMultipleComponent,
}&#45;&gt;SacDropzoneMultipleComponent -->
<g id="edge2" class="edge">
<title>{
 &#160;&#160;&#160;provide: NG_VALUE_ACCESSOR, multi: true, useExisting: SacDropzoneMultipleComponent,
}&#45;&gt;SacDropzoneMultipleComponent</title>
<path fill="none" stroke="black" d="M3449,-168.6C3449,-191.58 3449,-215.59 3449,-215.59 3449,-215.59 2686.52,-215.59 2686.52,-215.59"/>
<polygon fill="black" stroke="black" points="2686.52,-212.09 2676.52,-215.59 2686.52,-219.09 2686.52,-212.09"/>
</g>
<!-- {
 &#160;&#160;&#160;provide: NG_VALIDATORS, multi: true, useExisting: forwardRef(() =&gt; SacDropzoneMultipleComponent),
} -->
<g id="node7" class="node">
<title>{
 &#160;&#160;&#160;provide: NG_VALIDATORS, multi: true, useExisting: forwardRef(() =&gt; SacDropzoneMultipleComponent),
}</title>
<ellipse fill="#fdb462" stroke="black" cx="2574" cy="-127.3" rx="452.99" ry="41.09"/>
<text text-anchor="middle" x="2574" y="-139.9" font-family="Times,serif" font-size="14.00">{</text>
<text text-anchor="middle" x="2574" y="-123.1" font-family="Times,serif" font-size="14.00"> &#160;&#160;&#160;provide: NG_VALIDATORS, multi: true, useExisting: forwardRef(() =&gt; SacDropzoneMultipleComponent),</text>
<text text-anchor="middle" x="2574" y="-106.3" font-family="Times,serif" font-size="14.00">}</text>
</g>
<!-- {
 &#160;&#160;&#160;provide: NG_VALIDATORS, multi: true, useExisting: forwardRef(() =&gt; SacDropzoneMultipleComponent),
}&#45;&gt;SacDropzoneMultipleComponent -->
<g id="edge3" class="edge">
<title>{
 &#160;&#160;&#160;provide: NG_VALIDATORS, multi: true, useExisting: forwardRef(() =&gt; SacDropzoneMultipleComponent),
}&#45;&gt;SacDropzoneMultipleComponent</title>
<path fill="none" stroke="black" d="M2574,-168.6C2574,-168.6 2574,-187.26 2574,-187.26"/>
<polygon fill="black" stroke="black" points="2570.5,-187.26 2574,-197.26 2577.5,-187.26 2570.5,-187.26"/>
</g>
<!-- {
 &#160;&#160;&#160;provide: NG_VALUE_ACCESSOR, multi: true, useExisting: SacDropzoneSingleComponent,
} -->
<g id="node8" class="node">
<title>{
 &#160;&#160;&#160;provide: NG_VALUE_ACCESSOR, multi: true, useExisting: SacDropzoneSingleComponent,
}</title>
<ellipse fill="#fdb462" stroke="black" cx="1701" cy="-127.3" rx="395.88" ry="41.09"/>
<text text-anchor="middle" x="1701" y="-139.9" font-family="Times,serif" font-size="14.00">{</text>
<text text-anchor="middle" x="1701" y="-123.1" font-family="Times,serif" font-size="14.00"> &#160;&#160;&#160;provide: NG_VALUE_ACCESSOR, multi: true, useExisting: SacDropzoneSingleComponent,</text>
<text text-anchor="middle" x="1701" y="-106.3" font-family="Times,serif" font-size="14.00">}</text>
</g>
<!-- {
 &#160;&#160;&#160;provide: NG_VALUE_ACCESSOR, multi: true, useExisting: SacDropzoneSingleComponent,
}&#45;&gt;SacDropzoneSingleComponent -->
<g id="edge5" class="edge">
<title>{
 &#160;&#160;&#160;provide: NG_VALUE_ACCESSOR, multi: true, useExisting: SacDropzoneSingleComponent,
}&#45;&gt;SacDropzoneSingleComponent</title>
<path fill="none" stroke="black" d="M1701,-168.6C1701,-191.58 1701,-215.59 1701,-215.59 1701,-215.59 949.34,-215.59 949.34,-215.59"/>
<polygon fill="black" stroke="black" points="949.34,-212.09 939.34,-215.59 949.34,-219.09 949.34,-212.09"/>
</g>
<!-- {
 &#160;&#160;&#160;provide: NG_VALIDATORS, multi: true, useExisting: forwardRef(() =&gt; SacDropzoneSingleComponent),
} -->
<g id="node9" class="node">
<title>{
 &#160;&#160;&#160;provide: NG_VALIDATORS, multi: true, useExisting: forwardRef(() =&gt; SacDropzoneSingleComponent),
}</title>
<ellipse fill="#fdb462" stroke="black" cx="843" cy="-127.3" rx="444.4" ry="41.09"/>
<text text-anchor="middle" x="843" y="-139.9" font-family="Times,serif" font-size="14.00">{</text>
<text text-anchor="middle" x="843" y="-123.1" font-family="Times,serif" font-size="14.00"> &#160;&#160;&#160;provide: NG_VALIDATORS, multi: true, useExisting: forwardRef(() =&gt; SacDropzoneSingleComponent),</text>
<text text-anchor="middle" x="843" y="-106.3" font-family="Times,serif" font-size="14.00">}</text>
</g>
<!-- {
 &#160;&#160;&#160;provide: NG_VALIDATORS, multi: true, useExisting: forwardRef(() =&gt; SacDropzoneSingleComponent),
}&#45;&gt;SacDropzoneSingleComponent -->
<g id="edge6" class="edge">
<title>{
 &#160;&#160;&#160;provide: NG_VALIDATORS, multi: true, useExisting: forwardRef(() =&gt; SacDropzoneSingleComponent),
}&#45;&gt;SacDropzoneSingleComponent</title>
<path fill="none" stroke="black" d="M843,-168.6C843,-168.6 843,-187.26 843,-187.26"/>
<polygon fill="black" stroke="black" points="839.5,-187.26 843,-197.26 846.5,-187.26 839.5,-187.26"/>
</g>
</g>
</svg>
