<?xml version="1.0" encoding="UTF-8" standalone="no"?>
<!DOCTYPE svg PUBLIC "-//W3C//DTD SVG 1.1//EN"
 "http://www.w3.org/Graphics/SVG/1.1/DTD/svg11.dtd">
<!-- Generated by graphviz version 2.47.0 (20210316.0004)
 -->
<!-- Title: dependencies Pages: 1 -->
<svg width="3510pt" height="396pt"
 viewBox="0.00 0.00 3510.00 395.59" xmlns="http://www.w3.org/2000/svg" xmlns:xlink="http://www.w3.org/1999/xlink">
<g id="graph0" class="graph" transform="scale(1 1) rotate(0) translate(4 391.59)">
<title>dependencies</title>
<polygon fill="white" stroke="transparent" points="-4,4 -4,-391.59 3506,-391.59 3506,4 -4,4"/>
<text text-anchor="start" x="1730.01" y="-42.4" font-family="Times-12" font-weight="bold" font-size="14.00">Legend</text>
<polygon fill="#ffffb3" stroke="transparent" points="1517,-10 1517,-30 1537,-30 1537,-10 1517,-10"/>
<text text-anchor="start" x="1540.63" y="-15.4" font-family="Times-12" font-size="14.00"> &#160;Declarations</text>
<polygon fill="#8dd3c7" stroke="transparent" points="1630,-10 1630,-30 1650,-30 1650,-10 1630,-10"/>
<text text-anchor="start" x="1653.73" y="-15.4" font-family="Times-12" font-size="14.00"> &#160;Module</text>
<polygon fill="#80b1d3" stroke="transparent" points="1716,-10 1716,-30 1736,-30 1736,-10 1716,-10"/>
<text text-anchor="start" x="1739.78" y="-15.4" font-family="Times-12" font-size="14.00"> &#160;Bootstrap</text>
<polygon fill="#fdb462" stroke="transparent" points="1813,-10 1813,-30 1833,-30 1833,-10 1813,-10"/>
<text text-anchor="start" x="1836.67" y="-15.4" font-family="Times-12" font-size="14.00"> &#160;Providers</text>
<polygon fill="#fb8072" stroke="transparent" points="1909,-10 1909,-30 1929,-30 1929,-10 1909,-10"/>
<text text-anchor="start" x="1932.73" y="-15.4" font-family="Times-12" font-size="14.00"> &#160;Exports</text>
<g id="clust1" class="cluster">
<title>cluster_SACBootstrap5UploadModule</title>
<polygon fill="none" stroke="black" stroke-dasharray="1,5" points="8,-70 8,-379.59 3494,-379.59 3494,-70 8,-70"/>
</g>
<g id="clust8" class="cluster">
<title>cluster_SACBootstrap5UploadModule_exports</title>
<polygon fill="none" stroke="black" points="1267,-319.59 1267,-371.59 2081,-371.59 2081,-319.59 1267,-319.59"/>
</g>
<g id="clust2" class="cluster">
<title>cluster_SACBootstrap5UploadModule_declarations</title>
<polygon fill="none" stroke="black" points="1180,-189.59 1180,-241.59 1981,-241.59 1981,-189.59 1180,-189.59"/>
</g>
<g id="clust3" class="cluster">
<title>cluster_SACBootstrap5UploadModule_SacDropzoneMultipleComponent_providers</title>
<polygon fill="none" stroke="black" points="1738,-78 1738,-176.59 3486,-176.59 3486,-78 1738,-78"/>
</g>
<g id="clust7" class="cluster">
<title>cluster_SACBootstrap5UploadModule_imports</title>
<polygon fill="none" stroke="black" points="1989,-189.59 1989,-241.59 2193,-241.59 2193,-189.59 1989,-189.59"/>
</g>
<g id="clust4" class="cluster">
<title>cluster_SACBootstrap5UploadModule_SacDropzoneSingleComponent_providers</title>
<polygon fill="none" stroke="black" points="16,-78 16,-176.59 1730,-176.59 1730,-78 16,-78"/>
</g>
<!-- SacDropzoneMultipleComponent -->
<g id="node1" class="node">
<title>SacDropzoneMultipleComponent</title>
<polygon fill="#ffffb3" stroke="black" points="1973.46,-233.59 1768.54,-233.59 1768.54,-197.59 1973.46,-197.59 1973.46,-233.59"/>
<text text-anchor="middle" x="1871" y="-211.39" font-family="Times,serif" font-size="14.00">SacDropzoneMultipleComponent</text>
</g>
<!-- SACBootstrap5UploadModule -->
<g id="node5" class="node">
<title>SACBootstrap5UploadModule</title>
<polygon fill="#8dd3c7" stroke="black" points="1748.93,-298.59 1745.93,-302.59 1724.93,-302.59 1721.93,-298.59 1559.07,-298.59 1559.07,-262.59 1748.93,-262.59 1748.93,-298.59"/>
<text text-anchor="middle" x="1654" y="-276.39" font-family="Times,serif" font-size="14.00">SACBootstrap5UploadModule</text>
</g>
<!-- SacDropzoneMultipleComponent&#45;&gt;SACBootstrap5UploadModule -->
<g id="edge1" class="edge">
<title>SacDropzoneMultipleComponent&#45;&gt;SACBootstrap5UploadModule</title>
<path fill="none" stroke="black" d="M1807.76,-233.62C1807.76,-249.99 1807.76,-271.59 1807.76,-271.59 1807.76,-271.59 1758.75,-271.59 1758.75,-271.59"/>
<polygon fill="black" stroke="black" points="1758.75,-268.09 1748.75,-271.59 1758.75,-275.09 1758.75,-268.09"/>
</g>
<!-- SacDropzoneSingleComponent -->
<g id="node2" class="node">
<title>SacDropzoneSingleComponent</title>
<polygon fill="#ffffb3" stroke="black" points="1750.02,-233.59 1557.98,-233.59 1557.98,-197.59 1750.02,-197.59 1750.02,-233.59"/>
<text text-anchor="middle" x="1654" y="-211.39" font-family="Times,serif" font-size="14.00">SacDropzoneSingleComponent</text>
</g>
<!-- SacDropzoneSingleComponent&#45;&gt;SACBootstrap5UploadModule -->
<g id="edge4" class="edge">
<title>SacDropzoneSingleComponent&#45;&gt;SACBootstrap5UploadModule</title>
<path fill="none" stroke="black" d="M1654,-233.7C1654,-233.7 1654,-252.58 1654,-252.58"/>
<polygon fill="black" stroke="black" points="1650.5,-252.58 1654,-262.58 1657.5,-252.58 1650.5,-252.58"/>
</g>
<!-- SacUploadComponent -->
<g id="node3" class="node">
<title>SacUploadComponent</title>
<polygon fill="#ffffb3" stroke="black" points="1539.26,-233.59 1396.74,-233.59 1396.74,-197.59 1539.26,-197.59 1539.26,-233.59"/>
<text text-anchor="middle" x="1468" y="-211.39" font-family="Times,serif" font-size="14.00">SacUploadComponent</text>
</g>
<!-- SacUploadComponent&#45;&gt;SACBootstrap5UploadModule -->
<g id="edge7" class="edge">
<title>SacUploadComponent&#45;&gt;SACBootstrap5UploadModule</title>
<path fill="none" stroke="black" d="M1513.12,-233.62C1513.12,-249.99 1513.12,-271.59 1513.12,-271.59 1513.12,-271.59 1549.25,-271.59 1549.25,-271.59"/>
<polygon fill="black" stroke="black" points="1549.25,-275.09 1559.25,-271.59 1549.25,-268.09 1549.25,-275.09"/>
</g>
<!-- SacUploadMultipleComponent -->
<g id="node4" class="node">
<title>SacUploadMultipleComponent</title>
<polygon fill="#ffffb3" stroke="black" points="1378.48,-233.59 1187.52,-233.59 1187.52,-197.59 1378.48,-197.59 1378.48,-233.59"/>
<text text-anchor="middle" x="1283" y="-211.39" font-family="Times,serif" font-size="14.00">SacUploadMultipleComponent</text>
</g>
<!-- SacUploadMultipleComponent&#45;&gt;SACBootstrap5UploadModule -->
<g id="edge8" class="edge">
<title>SacUploadMultipleComponent&#45;&gt;SACBootstrap5UploadModule</title>
<path fill="none" stroke="black" d="M1326.62,-233.7C1326.62,-252.93 1326.62,-280.59 1326.62,-280.59 1326.62,-280.59 1548.87,-280.59 1548.87,-280.59"/>
<polygon fill="black" stroke="black" points="1548.87,-284.09 1558.87,-280.59 1548.87,-277.09 1548.87,-284.09"/>
</g>
<!-- SacDropzoneMultipleComponent  -->
<g id="node11" class="node">
<title>SacDropzoneMultipleComponent </title>
<polygon fill="#fb8072" stroke="black" points="2073.46,-363.59 1864.54,-363.59 1864.54,-327.59 2073.46,-327.59 2073.46,-363.59"/>
<text text-anchor="middle" x="1969" y="-341.39" font-family="Times,serif" font-size="14.00">SacDropzoneMultipleComponent </text>
</g>
<!-- SACBootstrap5UploadModule&#45;&gt;SacDropzoneMultipleComponent  -->
<g id="edge10" class="edge">
<title>SACBootstrap5UploadModule&#45;&gt;SacDropzoneMultipleComponent </title>
<path fill="none" stroke="black" stroke-dasharray="5,2" d="M1748.97,-289.59C1825.04,-289.59 1919.12,-289.59 1919.12,-289.59 1919.12,-289.59 1919.12,-317.56 1919.12,-317.56"/>
<polygon fill="black" stroke="black" points="1915.63,-317.56 1919.12,-327.56 1922.63,-317.56 1915.63,-317.56"/>
</g>
<!-- SacDropzoneSingleComponent  -->
<g id="node12" class="node">
<title>SacDropzoneSingleComponent </title>
<polygon fill="#fb8072" stroke="black" points="1847.02,-363.59 1650.98,-363.59 1650.98,-327.59 1847.02,-327.59 1847.02,-363.59"/>
<text text-anchor="middle" x="1749" y="-341.39" font-family="Times,serif" font-size="14.00">SacDropzoneSingleComponent </text>
</g>
<!-- SACBootstrap5UploadModule&#45;&gt;SacDropzoneSingleComponent  -->
<g id="edge11" class="edge">
<title>SACBootstrap5UploadModule&#45;&gt;SacDropzoneSingleComponent </title>
<path fill="none" stroke="black" stroke-dasharray="5,2" d="M1699.85,-298.7C1699.85,-298.7 1699.85,-317.58 1699.85,-317.58"/>
<polygon fill="black" stroke="black" points="1696.35,-317.58 1699.85,-327.58 1703.35,-317.58 1696.35,-317.58"/>
</g>
<!-- SacUploadComponent  -->
<g id="node13" class="node">
<title>SacUploadComponent </title>
<polygon fill="#fb8072" stroke="black" points="1633.26,-363.59 1486.74,-363.59 1486.74,-327.59 1633.26,-327.59 1633.26,-363.59"/>
<text text-anchor="middle" x="1560" y="-341.39" font-family="Times,serif" font-size="14.00">SacUploadComponent </text>
</g>
<!-- SACBootstrap5UploadModule&#45;&gt;SacUploadComponent  -->
<g id="edge12" class="edge">
<title>SACBootstrap5UploadModule&#45;&gt;SacUploadComponent </title>
<path fill="none" stroke="black" stroke-dasharray="5,2" d="M1596.21,-298.7C1596.21,-298.7 1596.21,-317.58 1596.21,-317.58"/>
<polygon fill="black" stroke="black" points="1592.71,-317.58 1596.21,-327.58 1599.71,-317.58 1592.71,-317.58"/>
</g>
<!-- SacUploadMultipleComponent  -->
<g id="node14" class="node">
<title>SacUploadMultipleComponent </title>
<polygon fill="#fb8072" stroke="black" points="1469.48,-363.59 1274.52,-363.59 1274.52,-327.59 1469.48,-327.59 1469.48,-363.59"/>
<text text-anchor="middle" x="1372" y="-341.39" font-family="Times,serif" font-size="14.00">SacUploadMultipleComponent </text>
</g>
<!-- SACBootstrap5UploadModule&#45;&gt;SacUploadMultipleComponent  -->
<g id="edge13" class="edge">
<title>SACBootstrap5UploadModule&#45;&gt;SacUploadMultipleComponent </title>
<path fill="none" stroke="black" stroke-dasharray="5,2" d="M1559.28,-289.59C1499.28,-289.59 1432.93,-289.59 1432.93,-289.59 1432.93,-289.59 1432.93,-317.56 1432.93,-317.56"/>
<polygon fill="black" stroke="black" points="1429.43,-317.56 1432.93,-327.56 1436.43,-317.56 1429.43,-317.56"/>
</g>
<!-- {
 &#160;&#160;&#160;provide: NG_VALUE_ACCESSOR, multi: true, useExisting: SacDropzoneMultipleComponent,
} -->
<g id="node6" class="node">
<title>{
 &#160;&#160;&#160;provide: NG_VALUE_ACCESSOR, multi: true, useExisting: SacDropzoneMultipleComponent,
}</title>
<ellipse fill="#fdb462" stroke="black" cx="3074" cy="-127.3" rx="404.48" ry="41.09"/>
<text text-anchor="middle" x="3074" y="-139.9" font-family="Times,serif" font-size="14.00">{</text>
<text text-anchor="middle" x="3074" y="-123.1" font-family="Times,serif" font-size="14.00"> &#160;&#160;&#160;provide: NG_VALUE_ACCESSOR, multi: true, useExisting: SacDropzoneMultipleComponent,</text>
<text text-anchor="middle" x="3074" y="-106.3" font-family="Times,serif" font-size="14.00">}</text>
</g>
<!-- {
 &#160;&#160;&#160;provide: NG_VALUE_ACCESSOR, multi: true, useExisting: SacDropzoneMultipleComponent,
}&#45;&gt;SacDropzoneMultipleComponent -->
<g id="edge2" class="edge">
<title>{
 &#160;&#160;&#160;provide: NG_VALUE_ACCESSOR, multi: true, useExisting: SacDropzoneMultipleComponent,
}&#45;&gt;SacDropzoneMultipleComponent</title>
<path fill="none" stroke="black" d="M3074,-168.7C3074,-174.53 3074,-178.59 3074,-178.59 3074,-178.59 1905.16,-178.59 1905.16,-178.59 1905.16,-178.59 1905.16,-187.52 1905.16,-187.52"/>
<polygon fill="black" stroke="black" points="1901.66,-187.52 1905.16,-197.52 1908.66,-187.52 1901.66,-187.52"/>
</g>
<!-- {
 &#160;&#160;&#160;provide: NG_VALIDATORS, multi: true, useExisting: forwardRef(() =&gt; SacDropzoneMultipleComponent),
} -->
<g id="node7" class="node">
<title>{
 &#160;&#160;&#160;provide: NG_VALIDATORS, multi: true, useExisting: forwardRef(() =&gt; SacDropzoneMultipleComponent),
}</title>
<ellipse fill="#fdb462" stroke="black" cx="2199" cy="-127.3" rx="452.99" ry="41.09"/>
<text text-anchor="middle" x="2199" y="-139.9" font-family="Times,serif" font-size="14.00">{</text>
<text text-anchor="middle" x="2199" y="-123.1" font-family="Times,serif" font-size="14.00"> &#160;&#160;&#160;provide: NG_VALIDATORS, multi: true, useExisting: forwardRef(() =&gt; SacDropzoneMultipleComponent),</text>
<text text-anchor="middle" x="2199" y="-106.3" font-family="Times,serif" font-size="14.00">}</text>
</g>
<!-- {
 &#160;&#160;&#160;provide: NG_VALIDATORS, multi: true, useExisting: forwardRef(() =&gt; SacDropzoneMultipleComponent),
}&#45;&gt;SacDropzoneMultipleComponent -->
<g id="edge3" class="edge">
<title>{
 &#160;&#160;&#160;provide: NG_VALIDATORS, multi: true, useExisting: forwardRef(() =&gt; SacDropzoneMultipleComponent),
}&#45;&gt;SacDropzoneMultipleComponent</title>
<path fill="none" stroke="black" d="M1836.84,-152.36C1836.84,-152.36 1836.84,-187.48 1836.84,-187.48"/>
<polygon fill="black" stroke="black" points="1833.34,-187.48 1836.84,-197.48 1840.34,-187.48 1833.34,-187.48"/>
</g>
<!-- {
 &#160;&#160;&#160;provide: NG_VALUE_ACCESSOR, multi: true, useExisting: SacDropzoneSingleComponent,
} -->
<g id="node8" class="node">
<title>{
 &#160;&#160;&#160;provide: NG_VALUE_ACCESSOR, multi: true, useExisting: SacDropzoneSingleComponent,
}</title>
<ellipse fill="#fdb462" stroke="black" cx="1326" cy="-127.3" rx="395.88" ry="41.09"/>
<text text-anchor="middle" x="1326" y="-139.9" font-family="Times,serif" font-size="14.00">{</text>
<text text-anchor="middle" x="1326" y="-123.1" font-family="Times,serif" font-size="14.00"> &#160;&#160;&#160;provide: NG_VALUE_ACCESSOR, multi: true, useExisting: SacDropzoneSingleComponent,</text>
<text text-anchor="middle" x="1326" y="-106.3" font-family="Times,serif" font-size="14.00">}</text>
</g>
<!-- {
 &#160;&#160;&#160;provide: NG_VALUE_ACCESSOR, multi: true, useExisting: SacDropzoneSingleComponent,
}&#45;&gt;SacDropzoneSingleComponent -->
<g id="edge5" class="edge">
<title>{
 &#160;&#160;&#160;provide: NG_VALUE_ACCESSOR, multi: true, useExisting: SacDropzoneSingleComponent,
}&#45;&gt;SacDropzoneSingleComponent</title>
<path fill="none" stroke="black" d="M1667.04,-148.67C1667.04,-148.67 1667.04,-187.4 1667.04,-187.4"/>
<polygon fill="black" stroke="black" points="1663.54,-187.4 1667.04,-197.4 1670.54,-187.4 1663.54,-187.4"/>
</g>
<!-- {
 &#160;&#160;&#160;provide: NG_VALIDATORS, multi: true, useExisting: forwardRef(() =&gt; SacDropzoneSingleComponent),
} -->
<g id="node9" class="node">
<title>{
 &#160;&#160;&#160;provide: NG_VALIDATORS, multi: true, useExisting: forwardRef(() =&gt; SacDropzoneSingleComponent),
}</title>
<ellipse fill="#fdb462" stroke="black" cx="468" cy="-127.3" rx="444.4" ry="41.09"/>
<text text-anchor="middle" x="468" y="-139.9" font-family="Times,serif" font-size="14.00">{</text>
<text text-anchor="middle" x="468" y="-123.1" font-family="Times,serif" font-size="14.00"> &#160;&#160;&#160;provide: NG_VALIDATORS, multi: true, useExisting: forwardRef(() =&gt; SacDropzoneSingleComponent),</text>
<text text-anchor="middle" x="468" y="-106.3" font-family="Times,serif" font-size="14.00">}</text>
</g>
<!-- {
 &#160;&#160;&#160;provide: NG_VALIDATORS, multi: true, useExisting: forwardRef(() =&gt; SacDropzoneSingleComponent),
}&#45;&gt;SacDropzoneSingleComponent -->
<g id="edge6" class="edge">
<title>{
 &#160;&#160;&#160;provide: NG_VALIDATORS, multi: true, useExisting: forwardRef(() =&gt; SacDropzoneSingleComponent),
}&#45;&gt;SacDropzoneSingleComponent</title>
<path fill="none" stroke="black" d="M468,-168.86C468,-179.79 468,-188.59 468,-188.59 468,-188.59 1612.39,-188.59 1612.39,-188.59 1612.39,-188.59 1612.39,-189.47 1612.39,-189.47"/>
<polygon fill="black" stroke="black" points="1608.89,-187.43 1612.39,-197.43 1615.89,-187.43 1608.89,-187.43"/>
</g>
<!-- SACBootstrap5LayoutModule -->
<g id="node10" class="node">
<title>SACBootstrap5LayoutModule</title>
<polygon fill="#8dd3c7" stroke="black" points="2184.87,-233.59 2181.87,-237.59 2160.87,-237.59 2157.87,-233.59 1997.13,-233.59 1997.13,-197.59 2184.87,-197.59 2184.87,-233.59"/>
<text text-anchor="middle" x="2091" y="-211.39" font-family="Times,serif" font-size="14.00">SACBootstrap5LayoutModule</text>
</g>
<!-- SACBootstrap5LayoutModule&#45;&gt;SACBootstrap5UploadModule -->
<g id="edge9" class="edge">
<title>SACBootstrap5LayoutModule&#45;&gt;SACBootstrap5UploadModule</title>
<path fill="none" stroke="black" d="M2035.15,-233.7C2035.15,-252.93 2035.15,-280.59 2035.15,-280.59 2035.15,-280.59 1759.2,-280.59 1759.2,-280.59"/>
<polygon fill="black" stroke="black" points="1759.2,-277.09 1749.2,-280.59 1759.2,-284.09 1759.2,-277.09"/>
</g>
</g>
</svg>
