<?xml version="1.0" encoding="UTF-8" standalone="no"?>
<!DOCTYPE svg PUBLIC "-//W3C//DTD SVG 1.1//EN"
 "http://www.w3.org/Graphics/SVG/1.1/DTD/svg11.dtd">
<!-- Generated by graphviz version 2.47.0 (20210316.0004)
 -->
<!-- Title: dependencies Pages: 1 -->
<svg width="2266pt" height="349pt"
 viewBox="0.00 0.00 2266.00 349.00" xmlns="http://www.w3.org/2000/svg" xmlns:xlink="http://www.w3.org/1999/xlink">
<g id="graph0" class="graph" transform="scale(1 1) rotate(0) translate(4 345)">
<title>dependencies</title>
<polygon fill="white" stroke="transparent" points="-4,4 -4,-345 2262,-345 2262,4 -4,4"/>
<text text-anchor="start" x="1108.01" y="-42.4" font-family="Times-12" font-weight="bold" font-size="14.00">Legend</text>
<polygon fill="#ffffb3" stroke="transparent" points="895,-10 895,-30 915,-30 915,-10 895,-10"/>
<text text-anchor="start" x="918.63" y="-15.4" font-family="Times-12" font-size="14.00"> &#160;Declarations</text>
<polygon fill="#8dd3c7" stroke="transparent" points="1008,-10 1008,-30 1028,-30 1028,-10 1008,-10"/>
<text text-anchor="start" x="1031.73" y="-15.4" font-family="Times-12" font-size="14.00"> &#160;Module</text>
<polygon fill="#80b1d3" stroke="transparent" points="1094,-10 1094,-30 1114,-30 1114,-10 1094,-10"/>
<text text-anchor="start" x="1117.78" y="-15.4" font-family="Times-12" font-size="14.00"> &#160;Bootstrap</text>
<polygon fill="#fdb462" stroke="transparent" points="1191,-10 1191,-30 1211,-30 1211,-10 1191,-10"/>
<text text-anchor="start" x="1214.67" y="-15.4" font-family="Times-12" font-size="14.00"> &#160;Providers</text>
<polygon fill="#fb8072" stroke="transparent" points="1287,-10 1287,-30 1307,-30 1307,-10 1287,-10"/>
<text text-anchor="start" x="1310.73" y="-15.4" font-family="Times-12" font-size="14.00"> &#160;Exports</text>
<g id="clust1" class="cluster">
<title>cluster_JNetworkBootstrap3ListModule</title>
<polygon fill="none" stroke="black" stroke-dasharray="1,5" points="8,-70 8,-333 2250,-333 2250,-70 8,-70"/>
</g>
<g id="clust3" class="cluster">
<title>cluster_JNetworkBootstrap3ListModule_NgDropdownComponent_providers</title>
<polygon fill="none" stroke="black" points="656,-78 656,-195 2242,-195 2242,-78 656,-78"/>
</g>
<g id="clust2" class="cluster">
<title>cluster_JNetworkBootstrap3ListModule_declarations</title>
<polygon fill="none" stroke="black" points="288,-143 288,-195 648,-195 648,-143 288,-143"/>
</g>
<g id="clust6" class="cluster">
<title>cluster_JNetworkBootstrap3ListModule_imports</title>
<polygon fill="none" stroke="black" points="16,-143 16,-195 280,-195 280,-143 16,-143"/>
</g>
<g id="clust7" class="cluster">
<title>cluster_JNetworkBootstrap3ListModule_exports</title>
<polygon fill="none" stroke="black" points="193,-273 193,-325 739,-325 739,-273 193,-273"/>
</g>
<!-- NgDropdownComponent -->
<g id="node1" class="node">
<title>NgDropdownComponent</title>
<polygon fill="#ffffb3" stroke="black" points="1155.31,-187 996.69,-187 996.69,-151 1155.31,-151 1155.31,-187"/>
<text text-anchor="middle" x="1076" y="-164.8" font-family="Times,serif" font-size="14.00">NgDropdownComponent</text>
</g>
<!-- JNetworkBootstrap3ListModule -->
<g id="node4" class="node">
<title>JNetworkBootstrap3ListModule</title>
<polygon fill="#8dd3c7" stroke="black" points="555.69,-252 552.69,-256 531.69,-256 528.69,-252 358.31,-252 358.31,-216 555.69,-216 555.69,-252"/>
<text text-anchor="middle" x="457" y="-229.8" font-family="Times,serif" font-size="14.00">JNetworkBootstrap3ListModule</text>
</g>
<!-- NgDropdownComponent&#45;&gt;JNetworkBootstrap3ListModule -->
<g id="edge1" class="edge">
<title>NgDropdownComponent&#45;&gt;JNetworkBootstrap3ListModule</title>
<path fill="none" stroke="black" d="M1076,-187.02C1076,-204.37 1076,-228 1076,-228 1076,-228 565.77,-228 565.77,-228"/>
<polygon fill="black" stroke="black" points="565.77,-224.5 555.77,-228 565.77,-231.5 565.77,-224.5"/>
</g>
<!-- NgDropdownOptionDirective -->
<g id="node2" class="node">
<title>NgDropdownOptionDirective</title>
<polygon fill="#ffffb3" stroke="black" points="639.95,-187 456.05,-187 456.05,-151 639.95,-151 639.95,-187"/>
<text text-anchor="middle" x="548" y="-164.8" font-family="Times,serif" font-size="14.00">NgDropdownOptionDirective</text>
</g>
<!-- NgDropdownOptionDirective&#45;&gt;JNetworkBootstrap3ListModule -->
<g id="edge4" class="edge">
<title>NgDropdownOptionDirective&#45;&gt;JNetworkBootstrap3ListModule</title>
<path fill="none" stroke="black" d="M505.81,-187.11C505.81,-187.11 505.81,-205.99 505.81,-205.99"/>
<polygon fill="black" stroke="black" points="502.31,-205.99 505.81,-215.99 509.31,-205.99 502.31,-205.99"/>
</g>
<!-- NgListboxComponent -->
<g id="node3" class="node">
<title>NgListboxComponent</title>
<polygon fill="#ffffb3" stroke="black" points="437.72,-187 296.28,-187 296.28,-151 437.72,-151 437.72,-187"/>
<text text-anchor="middle" x="367" y="-164.8" font-family="Times,serif" font-size="14.00">NgListboxComponent</text>
</g>
<!-- NgListboxComponent&#45;&gt;JNetworkBootstrap3ListModule -->
<g id="edge5" class="edge">
<title>NgListboxComponent&#45;&gt;JNetworkBootstrap3ListModule</title>
<path fill="none" stroke="black" d="M398.01,-187.11C398.01,-187.11 398.01,-205.99 398.01,-205.99"/>
<polygon fill="black" stroke="black" points="394.51,-205.99 398.01,-215.99 401.51,-205.99 394.51,-205.99"/>
</g>
<!-- NgDropdownComponent  -->
<g id="node8" class="node">
<title>NgDropdownComponent </title>
<polygon fill="#fb8072" stroke="black" points="730.81,-317 569.19,-317 569.19,-281 730.81,-281 730.81,-317"/>
<text text-anchor="middle" x="650" y="-294.8" font-family="Times,serif" font-size="14.00">NgDropdownComponent </text>
</g>
<!-- JNetworkBootstrap3ListModule&#45;&gt;NgDropdownComponent  -->
<g id="edge7" class="edge">
<title>JNetworkBootstrap3ListModule&#45;&gt;NgDropdownComponent </title>
<path fill="none" stroke="black" stroke-dasharray="5,2" d="M555.82,-240C582.69,-240 604.53,-240 604.53,-240 604.53,-240 604.53,-270.98 604.53,-270.98"/>
<polygon fill="black" stroke="black" points="601.03,-270.98 604.53,-280.98 608.03,-270.98 601.03,-270.98"/>
</g>
<!-- NgDropdownOptionDirective  -->
<g id="node9" class="node">
<title>NgDropdownOptionDirective </title>
<polygon fill="#fb8072" stroke="black" points="550.95,-317 363.05,-317 363.05,-281 550.95,-281 550.95,-317"/>
<text text-anchor="middle" x="457" y="-294.8" font-family="Times,serif" font-size="14.00">NgDropdownOptionDirective </text>
</g>
<!-- JNetworkBootstrap3ListModule&#45;&gt;NgDropdownOptionDirective  -->
<g id="edge8" class="edge">
<title>JNetworkBootstrap3ListModule&#45;&gt;NgDropdownOptionDirective </title>
<path fill="none" stroke="black" stroke-dasharray="5,2" d="M457,-252.11C457,-252.11 457,-270.99 457,-270.99"/>
<polygon fill="black" stroke="black" points="453.5,-270.99 457,-280.99 460.5,-270.99 453.5,-270.99"/>
</g>
<!-- NgListboxComponent  -->
<g id="node10" class="node">
<title>NgListboxComponent </title>
<polygon fill="#fb8072" stroke="black" points="345.22,-317 200.78,-317 200.78,-281 345.22,-281 345.22,-317"/>
<text text-anchor="middle" x="273" y="-294.8" font-family="Times,serif" font-size="14.00">NgListboxComponent </text>
</g>
<!-- JNetworkBootstrap3ListModule&#45;&gt;NgListboxComponent  -->
<g id="edge9" class="edge">
<title>JNetworkBootstrap3ListModule&#45;&gt;NgListboxComponent </title>
<path fill="none" stroke="black" stroke-dasharray="5,2" d="M358.07,-240C336.96,-240 320.88,-240 320.88,-240 320.88,-240 320.88,-270.98 320.88,-270.98"/>
<polygon fill="black" stroke="black" points="317.38,-270.98 320.88,-280.98 324.38,-270.98 317.38,-270.98"/>
</g>
<!-- { provide: NG_VALUE_ACCESSOR, multi: true, useExisting: NgDropdownComponent } -->
<g id="node5" class="node">
<title>{ provide: NG_VALUE_ACCESSOR, multi: true, useExisting: NgDropdownComponent }</title>
<ellipse fill="#fdb462" stroke="black" cx="1870" cy="-104" rx="364.36" ry="18"/>
<text text-anchor="middle" x="1870" y="-99.8" font-family="Times,serif" font-size="14.00">{ provide: NG_VALUE_ACCESSOR, multi: true, useExisting: NgDropdownComponent }</text>
</g>
<!-- { provide: NG_VALUE_ACCESSOR, multi: true, useExisting: NgDropdownComponent }&#45;&gt;NgDropdownComponent -->
<g id="edge2" class="edge">
<title>{ provide: NG_VALUE_ACCESSOR, multi: true, useExisting: NgDropdownComponent }&#45;&gt;NgDropdownComponent</title>
<path fill="none" stroke="black" d="M1870,-122.11C1870,-141.34 1870,-169 1870,-169 1870,-169 1165.4,-169 1165.4,-169"/>
<polygon fill="black" stroke="black" points="1165.4,-165.5 1155.4,-169 1165.4,-172.5 1165.4,-165.5"/>
</g>
<!-- { provide: NG_VALIDATORS, multi: true, useExisting: forwardRef(() =&gt; NgDropdownComponent) } -->
<g id="node6" class="node">
<title>{ provide: NG_VALIDATORS, multi: true, useExisting: forwardRef(() =&gt; NgDropdownComponent) }</title>
<ellipse fill="#fdb462" stroke="black" cx="1076" cy="-104" rx="411.99" ry="18"/>
<text text-anchor="middle" x="1076" y="-99.8" font-family="Times,serif" font-size="14.00">{ provide: NG_VALIDATORS, multi: true, useExisting: forwardRef(() =&gt; NgDropdownComponent) }</text>
</g>
<!-- { provide: NG_VALIDATORS, multi: true, useExisting: forwardRef(() =&gt; NgDropdownComponent) }&#45;&gt;NgDropdownComponent -->
<g id="edge3" class="edge">
<title>{ provide: NG_VALIDATORS, multi: true, useExisting: forwardRef(() =&gt; NgDropdownComponent) }&#45;&gt;NgDropdownComponent</title>
<path fill="none" stroke="black" d="M1076,-122.11C1076,-122.11 1076,-140.99 1076,-140.99"/>
<polygon fill="black" stroke="black" points="1072.5,-140.99 1076,-150.99 1079.5,-140.99 1072.5,-140.99"/>
</g>
<!-- JNetworkCommonListboxOptionModule -->
<g id="node7" class="node">
<title>JNetworkCommonListboxOptionModule</title>
<polygon fill="#8dd3c7" stroke="black" points="271.76,-187 268.76,-191 247.76,-191 244.76,-187 24.24,-187 24.24,-151 271.76,-151 271.76,-187"/>
<text text-anchor="middle" x="148" y="-164.8" font-family="Times,serif" font-size="14.00">JNetworkCommonListboxOptionModule</text>
</g>
<!-- JNetworkCommonListboxOptionModule&#45;&gt;JNetworkBootstrap3ListModule -->
<g id="edge6" class="edge">
<title>JNetworkCommonListboxOptionModule&#45;&gt;JNetworkBootstrap3ListModule</title>
<path fill="none" stroke="black" d="M236.26,-187.02C236.26,-204.37 236.26,-228 236.26,-228 236.26,-228 348.25,-228 348.25,-228"/>
<polygon fill="black" stroke="black" points="348.25,-231.5 358.25,-228 348.25,-224.5 348.25,-231.5"/>
</g>
</g>
</svg>
