<?xml version="1.0" encoding="UTF-8" standalone="no"?>
<!DOCTYPE svg PUBLIC "-//W3C//DTD SVG 1.1//EN"
 "http://www.w3.org/Graphics/SVG/1.1/DTD/svg11.dtd">
<!-- Generated by graphviz version 2.47.3 (20210619.1520)
 -->
<!-- Title: dependencies Pages: 1 -->
<svg width="1626pt" height="312pt"
 viewBox="0.00 0.00 1626.00 311.80" xmlns="http://www.w3.org/2000/svg" xmlns:xlink="http://www.w3.org/1999/xlink">
<g id="graph0" class="graph" transform="scale(1 1) rotate(0) translate(4 307.8)">
<title>dependencies</title>
<polygon fill="white" stroke="transparent" points="-4,4 -4,-307.8 1622,-307.8 1622,4 -4,4"/>
<text text-anchor="middle" x="809" y="-8.2" font-family="sans-serif" font-size="14.00">dependencies</text>
<g id="clust1" class="cluster">
<title>cluster_JNetworkBootstrap3ListModule</title>
<polygon fill="none" stroke="black" stroke-dasharray="1,5" points="8,-32.8 8,-295.8 1610,-295.8 1610,-32.8 8,-32.8"/>
</g>
<g id="clust2" class="cluster">
<title>cluster_JNetworkBootstrap3ListModule_declarations</title>
<polygon fill="none" stroke="black" points="534,-105.8 534,-157.8 1070,-157.8 1070,-105.8 534,-105.8"/>
</g>
<g id="clust3" class="cluster">
<title>cluster_JNetworkBootstrap3ListModule_NgDropdownComponent_providers</title>
<polygon fill="none" stroke="black" points="16,-40.8 16,-92.8 1602,-92.8 1602,-40.8 16,-40.8"/>
</g>
<g id="clust6" class="cluster">
<title>cluster_JNetworkBootstrap3ListModule_imports</title>
<polygon fill="none" stroke="black" points="262,-105.8 262,-157.8 526,-157.8 526,-105.8 262,-105.8"/>
</g>
<g id="clust7" class="cluster">
<title>cluster_JNetworkBootstrap3ListModule_exports</title>
<polygon fill="none" stroke="black" points="439,-235.8 439,-287.8 985,-287.8 985,-235.8 439,-235.8"/>
</g>
<!-- NgDropdownComponent -->
<g id="node1" class="node">
<title>NgDropdownComponent</title>
<polygon fill="#ffffb3" stroke="black" points="1062.31,-149.8 903.69,-149.8 903.69,-113.8 1062.31,-113.8 1062.31,-149.8"/>
<text text-anchor="middle" x="983" y="-127.6" font-family="Times,serif" font-size="14.00">NgDropdownComponent</text>
</g>
<!-- JNetworkBootstrap3ListModule -->
<g id="node4" class="node">
<title>JNetworkBootstrap3ListModule</title>
<polygon fill="#8dd3c7" stroke="black" points="801.69,-214.8 798.69,-218.8 777.69,-218.8 774.69,-214.8 604.31,-214.8 604.31,-178.8 801.69,-178.8 801.69,-214.8"/>
<text text-anchor="middle" x="703" y="-192.6" font-family="Times,serif" font-size="14.00">JNetworkBootstrap3ListModule</text>
</g>
<!-- NgDropdownComponent&#45;&gt;JNetworkBootstrap3ListModule -->
<g id="edge1" class="edge">
<title>NgDropdownComponent&#45;&gt;JNetworkBootstrap3ListModule</title>
<path fill="none" stroke="black" d="M940.38,-149.82C940.38,-167.17 940.38,-190.8 940.38,-190.8 940.38,-190.8 811.61,-190.8 811.61,-190.8"/>
<polygon fill="black" stroke="black" points="811.61,-187.3 801.61,-190.8 811.61,-194.3 811.61,-187.3"/>
</g>
<!-- NgDropdownOptionDirective -->
<g id="node2" class="node">
<title>NgDropdownOptionDirective</title>
<polygon fill="#ffffb3" stroke="black" points="885.95,-149.8 702.05,-149.8 702.05,-113.8 885.95,-113.8 885.95,-149.8"/>
<text text-anchor="middle" x="794" y="-127.6" font-family="Times,serif" font-size="14.00">NgDropdownOptionDirective</text>
</g>
<!-- NgDropdownOptionDirective&#45;&gt;JNetworkBootstrap3ListModule -->
<g id="edge4" class="edge">
<title>NgDropdownOptionDirective&#45;&gt;JNetworkBootstrap3ListModule</title>
<path fill="none" stroke="black" d="M751.81,-149.91C751.81,-149.91 751.81,-168.79 751.81,-168.79"/>
<polygon fill="black" stroke="black" points="748.31,-168.79 751.81,-178.79 755.31,-168.79 748.31,-168.79"/>
</g>
<!-- NgListboxComponent -->
<g id="node3" class="node">
<title>NgListboxComponent</title>
<polygon fill="#ffffb3" stroke="black" points="683.72,-149.8 542.28,-149.8 542.28,-113.8 683.72,-113.8 683.72,-149.8"/>
<text text-anchor="middle" x="613" y="-127.6" font-family="Times,serif" font-size="14.00">NgListboxComponent</text>
</g>
<!-- NgListboxComponent&#45;&gt;JNetworkBootstrap3ListModule -->
<g id="edge5" class="edge">
<title>NgListboxComponent&#45;&gt;JNetworkBootstrap3ListModule</title>
<path fill="none" stroke="black" d="M644.01,-149.91C644.01,-149.91 644.01,-168.79 644.01,-168.79"/>
<polygon fill="black" stroke="black" points="640.51,-168.79 644.01,-178.79 647.51,-168.79 640.51,-168.79"/>
</g>
<!-- NgDropdownComponent  -->
<g id="node8" class="node">
<title>NgDropdownComponent </title>
<polygon fill="#fb8072" stroke="black" points="976.81,-279.8 815.19,-279.8 815.19,-243.8 976.81,-243.8 976.81,-279.8"/>
<text text-anchor="middle" x="896" y="-257.6" font-family="Times,serif" font-size="14.00">NgDropdownComponent </text>
</g>
<!-- JNetworkBootstrap3ListModule&#45;&gt;NgDropdownComponent  -->
<g id="edge7" class="edge">
<title>JNetworkBootstrap3ListModule&#45;&gt;NgDropdownComponent </title>
<path fill="none" stroke="black" stroke-dasharray="5,2" d="M801.82,-202.8C828.69,-202.8 850.53,-202.8 850.53,-202.8 850.53,-202.8 850.53,-233.78 850.53,-233.78"/>
<polygon fill="black" stroke="black" points="847.03,-233.78 850.53,-243.78 854.03,-233.78 847.03,-233.78"/>
</g>
<!-- NgDropdownOptionDirective  -->
<g id="node9" class="node">
<title>NgDropdownOptionDirective </title>
<polygon fill="#fb8072" stroke="black" points="796.95,-279.8 609.05,-279.8 609.05,-243.8 796.95,-243.8 796.95,-279.8"/>
<text text-anchor="middle" x="703" y="-257.6" font-family="Times,serif" font-size="14.00">NgDropdownOptionDirective </text>
</g>
<!-- JNetworkBootstrap3ListModule&#45;&gt;NgDropdownOptionDirective  -->
<g id="edge8" class="edge">
<title>JNetworkBootstrap3ListModule&#45;&gt;NgDropdownOptionDirective </title>
<path fill="none" stroke="black" stroke-dasharray="5,2" d="M703,-214.91C703,-214.91 703,-233.79 703,-233.79"/>
<polygon fill="black" stroke="black" points="699.5,-233.79 703,-243.79 706.5,-233.79 699.5,-233.79"/>
</g>
<!-- NgListboxComponent  -->
<g id="node10" class="node">
<title>NgListboxComponent </title>
<polygon fill="#fb8072" stroke="black" points="591.22,-279.8 446.78,-279.8 446.78,-243.8 591.22,-243.8 591.22,-279.8"/>
<text text-anchor="middle" x="519" y="-257.6" font-family="Times,serif" font-size="14.00">NgListboxComponent </text>
</g>
<!-- JNetworkBootstrap3ListModule&#45;&gt;NgListboxComponent  -->
<g id="edge9" class="edge">
<title>JNetworkBootstrap3ListModule&#45;&gt;NgListboxComponent </title>
<path fill="none" stroke="black" stroke-dasharray="5,2" d="M604.07,-202.8C582.96,-202.8 566.88,-202.8 566.88,-202.8 566.88,-202.8 566.88,-233.78 566.88,-233.78"/>
<polygon fill="black" stroke="black" points="563.38,-233.78 566.88,-243.78 570.38,-233.78 563.38,-233.78"/>
</g>
<!-- { provide: NG_VALUE_ACCESSOR, multi: true, useExisting: NgDropdownComponent } -->
<g id="node5" class="node">
<title>{ provide: NG_VALUE_ACCESSOR, multi: true, useExisting: NgDropdownComponent }</title>
<ellipse fill="#fdb462" stroke="black" cx="1230" cy="-66.8" rx="364.36" ry="18"/>
<text text-anchor="middle" x="1230" y="-62.6" font-family="Times,serif" font-size="14.00">{ provide: NG_VALUE_ACCESSOR, multi: true, useExisting: NgDropdownComponent }</text>
</g>
<!-- { provide: NG_VALUE_ACCESSOR, multi: true, useExisting: NgDropdownComponent }&#45;&gt;NgDropdownComponent -->
<g id="edge2" class="edge">
<title>{ provide: NG_VALUE_ACCESSOR, multi: true, useExisting: NgDropdownComponent }&#45;&gt;NgDropdownComponent</title>
<path fill="none" stroke="black" d="M1009.39,-81.23C1009.39,-81.23 1009.39,-103.69 1009.39,-103.69"/>
<polygon fill="black" stroke="black" points="1005.89,-103.69 1009.39,-113.69 1012.89,-103.69 1005.89,-103.69"/>
</g>
<!-- { provide: NG_VALIDATORS, multi: true, useExisting: forwardRef(() =&gt; NgDropdownComponent) } -->
<g id="node6" class="node">
<title>{ provide: NG_VALIDATORS, multi: true, useExisting: forwardRef(() =&gt; NgDropdownComponent) }</title>
<ellipse fill="#fdb462" stroke="black" cx="436" cy="-66.8" rx="411.99" ry="18"/>
<text text-anchor="middle" x="436" y="-62.6" font-family="Times,serif" font-size="14.00">{ provide: NG_VALIDATORS, multi: true, useExisting: forwardRef(() =&gt; NgDropdownComponent) }</text>
</g>
<!-- { provide: NG_VALIDATORS, multi: true, useExisting: forwardRef(() =&gt; NgDropdownComponent) }&#45;&gt;NgDropdownComponent -->
<g id="edge3" class="edge">
<title>{ provide: NG_VALIDATORS, multi: true, useExisting: forwardRef(() =&gt; NgDropdownComponent) }&#45;&gt;NgDropdownComponent</title>
<path fill="none" stroke="black" d="M774.89,-77.24C774.89,-86.91 774.89,-99.8 774.89,-99.8 774.89,-99.8 956.61,-99.8 956.61,-99.8 956.61,-99.8 956.61,-103.56 956.61,-103.56"/>
<polygon fill="black" stroke="black" points="953.11,-103.56 956.61,-113.56 960.11,-103.56 953.11,-103.56"/>
</g>
<!-- JNetworkCommonListboxOptionModule -->
<g id="node7" class="node">
<title>JNetworkCommonListboxOptionModule</title>
<polygon fill="#8dd3c7" stroke="black" points="517.76,-149.8 514.76,-153.8 493.76,-153.8 490.76,-149.8 270.24,-149.8 270.24,-113.8 517.76,-113.8 517.76,-149.8"/>
<text text-anchor="middle" x="394" y="-127.6" font-family="Times,serif" font-size="14.00">JNetworkCommonListboxOptionModule</text>
</g>
<!-- JNetworkCommonListboxOptionModule&#45;&gt;JNetworkBootstrap3ListModule -->
<g id="edge6" class="edge">
<title>JNetworkCommonListboxOptionModule&#45;&gt;JNetworkBootstrap3ListModule</title>
<path fill="none" stroke="black" d="M482.26,-149.82C482.26,-167.17 482.26,-190.8 482.26,-190.8 482.26,-190.8 594.25,-190.8 594.25,-190.8"/>
<polygon fill="black" stroke="black" points="594.25,-194.3 604.25,-190.8 594.25,-187.3 594.25,-194.3"/>
</g>
</g>
</svg>
