<?xml version="1.0" encoding="UTF-8" standalone="no"?>
<!DOCTYPE svg PUBLIC "-//W3C//DTD SVG 1.1//EN"
 "http://www.w3.org/Graphics/SVG/1.1/DTD/svg11.dtd">
<!-- Generated by graphviz version 2.47.3 (20210619.1520)
 -->
<!-- Title: dependencies Pages: 1 -->
<svg width="1126pt" height="247pt"
 viewBox="0.00 0.00 1126.00 246.80" xmlns="http://www.w3.org/2000/svg" xmlns:xlink="http://www.w3.org/1999/xlink">
<g id="graph0" class="graph" transform="scale(1 1) rotate(0) translate(4 242.8)">
<title>dependencies</title>
<polygon fill="white" stroke="transparent" points="-4,4 -4,-242.8 1122,-242.8 1122,4 -4,4"/>
<text text-anchor="middle" x="559" y="-8.2" font-family="sans-serif" font-size="14.00">dependencies</text>
<g id="clust1" class="cluster">
<title>cluster_JNetworkBootstrap3GridModule</title>
<polygon fill="none" stroke="black" stroke-dasharray="1,5" points="8,-32.8 8,-230.8 1110,-230.8 1110,-32.8 8,-32.8"/>
</g>
<g id="clust10" class="cluster">
<title>cluster_JNetworkBootstrap3GridModule_exports</title>
<polygon fill="none" stroke="black" points="16,-170.8 16,-222.8 1102,-222.8 1102,-170.8 16,-170.8"/>
</g>
<g id="clust2" class="cluster">
<title>cluster_JNetworkBootstrap3GridModule_declarations</title>
<polygon fill="none" stroke="black" points="28,-40.8 28,-92.8 1094,-92.8 1094,-40.8 28,-40.8"/>
</g>
<!-- NgGridButtonComponent -->
<g id="node1" class="node">
<title>NgGridButtonComponent</title>
<polygon fill="#ffffb3" stroke="black" points="1086.21,-84.8 923.79,-84.8 923.79,-48.8 1086.21,-48.8 1086.21,-84.8"/>
<text text-anchor="middle" x="1005" y="-62.6" font-family="Times,serif" font-size="14.00">NgGridButtonComponent</text>
</g>
<!-- JNetworkBootstrap3GridModule -->
<g id="node7" class="node">
<title>JNetworkBootstrap3GridModule</title>
<polygon fill="#8dd3c7" stroke="black" points="535.57,-149.8 532.57,-153.8 511.57,-153.8 508.57,-149.8 334.43,-149.8 334.43,-113.8 535.57,-113.8 535.57,-149.8"/>
<text text-anchor="middle" x="435" y="-127.6" font-family="Times,serif" font-size="14.00">JNetworkBootstrap3GridModule</text>
</g>
<!-- NgGridButtonComponent&#45;&gt;JNetworkBootstrap3GridModule -->
<g id="edge1" class="edge">
<title>NgGridButtonComponent&#45;&gt;JNetworkBootstrap3GridModule</title>
<path fill="none" stroke="black" d="M1033.45,-85.07C1033.45,-103.36 1033.45,-128.8 1033.45,-128.8 1033.45,-128.8 545.84,-128.8 545.84,-128.8"/>
<polygon fill="black" stroke="black" points="545.84,-125.3 535.84,-128.8 545.84,-132.3 545.84,-125.3"/>
</g>
<!-- NgGridColumnActionComponent -->
<g id="node2" class="node">
<title>NgGridColumnActionComponent</title>
<polygon fill="#ffffb3" stroke="black" points="905.82,-84.8 698.18,-84.8 698.18,-48.8 905.82,-48.8 905.82,-84.8"/>
<text text-anchor="middle" x="802" y="-62.6" font-family="Times,serif" font-size="14.00">NgGridColumnActionComponent</text>
</g>
<!-- NgGridColumnActionComponent&#45;&gt;JNetworkBootstrap3GridModule -->
<g id="edge2" class="edge">
<title>NgGridColumnActionComponent&#45;&gt;JNetworkBootstrap3GridModule</title>
<path fill="none" stroke="black" d="M836.97,-84.81C836.97,-100.85 836.97,-121.8 836.97,-121.8 836.97,-121.8 545.66,-121.8 545.66,-121.8"/>
<polygon fill="black" stroke="black" points="545.66,-118.3 535.66,-121.8 545.66,-125.3 545.66,-118.3"/>
</g>
<!-- NgGridColumnComponent -->
<g id="node3" class="node">
<title>NgGridColumnComponent</title>
<polygon fill="#ffffb3" stroke="black" points="680.71,-84.8 511.29,-84.8 511.29,-48.8 680.71,-48.8 680.71,-84.8"/>
<text text-anchor="middle" x="596" y="-62.6" font-family="Times,serif" font-size="14.00">NgGridColumnComponent</text>
</g>
<!-- NgGridColumnComponent&#45;&gt;JNetworkBootstrap3GridModule -->
<g id="edge3" class="edge">
<title>NgGridColumnComponent&#45;&gt;JNetworkBootstrap3GridModule</title>
<path fill="none" stroke="black" d="M523.46,-84.91C523.46,-84.91 523.46,-103.79 523.46,-103.79"/>
<polygon fill="black" stroke="black" points="519.96,-103.79 523.46,-113.79 526.96,-103.79 519.96,-103.79"/>
</g>
<!-- NgGridComponent -->
<g id="node4" class="node">
<title>NgGridComponent</title>
<polygon fill="#ffffb3" stroke="black" points="493.1,-84.8 368.9,-84.8 368.9,-48.8 493.1,-48.8 493.1,-84.8"/>
<text text-anchor="middle" x="431" y="-62.6" font-family="Times,serif" font-size="14.00">NgGridComponent</text>
</g>
<!-- NgGridComponent&#45;&gt;JNetworkBootstrap3GridModule -->
<g id="edge4" class="edge">
<title>NgGridComponent&#45;&gt;JNetworkBootstrap3GridModule</title>
<path fill="none" stroke="black" d="M431,-84.91C431,-84.91 431,-103.79 431,-103.79"/>
<polygon fill="black" stroke="black" points="427.5,-103.79 431,-113.79 434.5,-103.79 427.5,-103.79"/>
</g>
<!-- NgGridImageComponent -->
<g id="node5" class="node">
<title>NgGridImageComponent</title>
<polygon fill="#ffffb3" stroke="black" points="350.58,-84.8 191.42,-84.8 191.42,-48.8 350.58,-48.8 350.58,-84.8"/>
<text text-anchor="middle" x="271" y="-62.6" font-family="Times,serif" font-size="14.00">NgGridImageComponent</text>
</g>
<!-- NgGridImageComponent&#45;&gt;JNetworkBootstrap3GridModule -->
<g id="edge5" class="edge">
<title>NgGridImageComponent&#45;&gt;JNetworkBootstrap3GridModule</title>
<path fill="none" stroke="black" d="M342.5,-84.91C342.5,-84.91 342.5,-103.79 342.5,-103.79"/>
<polygon fill="black" stroke="black" points="339,-103.79 342.5,-113.79 346,-103.79 339,-103.79"/>
</g>
<!-- NgPagingComponent -->
<g id="node6" class="node">
<title>NgPagingComponent</title>
<polygon fill="#ffffb3" stroke="black" points="173.83,-84.8 36.17,-84.8 36.17,-48.8 173.83,-48.8 173.83,-84.8"/>
<text text-anchor="middle" x="105" y="-62.6" font-family="Times,serif" font-size="14.00">NgPagingComponent</text>
</g>
<!-- NgPagingComponent&#45;&gt;JNetworkBootstrap3GridModule -->
<g id="edge6" class="edge">
<title>NgPagingComponent&#45;&gt;JNetworkBootstrap3GridModule</title>
<path fill="none" stroke="black" d="M169.04,-84.82C169.04,-102.17 169.04,-125.8 169.04,-125.8 169.04,-125.8 324.45,-125.8 324.45,-125.8"/>
<polygon fill="black" stroke="black" points="324.45,-129.3 334.45,-125.8 324.45,-122.3 324.45,-129.3"/>
</g>
<!-- NgGridButtonComponent  -->
<g id="node8" class="node">
<title>NgGridButtonComponent </title>
<polygon fill="#fb8072" stroke="black" points="1093.71,-214.8 928.29,-214.8 928.29,-178.8 1093.71,-178.8 1093.71,-214.8"/>
<text text-anchor="middle" x="1011" y="-192.6" font-family="Times,serif" font-size="14.00">NgGridButtonComponent </text>
</g>
<!-- JNetworkBootstrap3GridModule&#45;&gt;NgGridButtonComponent  -->
<g id="edge7" class="edge">
<title>JNetworkBootstrap3GridModule&#45;&gt;NgGridButtonComponent </title>
<path fill="none" stroke="black" stroke-dasharray="5,2" d="M535.74,-135.8C693.45,-135.8 980.8,-135.8 980.8,-135.8 980.8,-135.8 980.8,-168.5 980.8,-168.5"/>
<polygon fill="black" stroke="black" points="977.3,-168.5 980.8,-178.5 984.3,-168.5 977.3,-168.5"/>
</g>
<!-- NgGridColumnActionComponent  -->
<g id="node9" class="node">
<title>NgGridColumnActionComponent </title>
<polygon fill="#fb8072" stroke="black" points="910.32,-214.8 699.68,-214.8 699.68,-178.8 910.32,-178.8 910.32,-214.8"/>
<text text-anchor="middle" x="805" y="-192.6" font-family="Times,serif" font-size="14.00">NgGridColumnActionComponent </text>
</g>
<!-- JNetworkBootstrap3GridModule&#45;&gt;NgGridColumnActionComponent  -->
<g id="edge8" class="edge">
<title>JNetworkBootstrap3GridModule&#45;&gt;NgGridColumnActionComponent </title>
<path fill="none" stroke="black" stroke-dasharray="5,2" d="M535.9,-142.8C633.99,-142.8 768.28,-142.8 768.28,-142.8 768.28,-142.8 768.28,-168.52 768.28,-168.52"/>
<polygon fill="black" stroke="black" points="764.78,-168.52 768.28,-178.52 771.78,-168.52 764.78,-168.52"/>
</g>
<!-- NgGridColumnComponent  -->
<g id="node10" class="node">
<title>NgGridColumnComponent </title>
<polygon fill="#fb8072" stroke="black" points="681.21,-214.8 508.79,-214.8 508.79,-178.8 681.21,-178.8 681.21,-214.8"/>
<text text-anchor="middle" x="595" y="-192.6" font-family="Times,serif" font-size="14.00">NgGridColumnComponent </text>
</g>
<!-- JNetworkBootstrap3GridModule&#45;&gt;NgGridColumnComponent  -->
<g id="edge9" class="edge">
<title>JNetworkBootstrap3GridModule&#45;&gt;NgGridColumnComponent </title>
<path fill="none" stroke="black" stroke-dasharray="5,2" d="M522.09,-149.91C522.09,-149.91 522.09,-168.79 522.09,-168.79"/>
<polygon fill="black" stroke="black" points="518.59,-168.79 522.09,-178.79 525.59,-168.79 518.59,-168.79"/>
</g>
<!-- NgGridComponent  -->
<g id="node11" class="node">
<title>NgGridComponent </title>
<polygon fill="#fb8072" stroke="black" points="490.6,-214.8 363.4,-214.8 363.4,-178.8 490.6,-178.8 490.6,-214.8"/>
<text text-anchor="middle" x="427" y="-192.6" font-family="Times,serif" font-size="14.00">NgGridComponent </text>
</g>
<!-- JNetworkBootstrap3GridModule&#45;&gt;NgGridComponent  -->
<g id="edge10" class="edge">
<title>JNetworkBootstrap3GridModule&#45;&gt;NgGridComponent </title>
<path fill="none" stroke="black" stroke-dasharray="5,2" d="M427,-149.91C427,-149.91 427,-168.79 427,-168.79"/>
<polygon fill="black" stroke="black" points="423.5,-168.79 427,-178.79 430.5,-168.79 423.5,-168.79"/>
</g>
<!-- NgGridImageComponent  -->
<g id="node12" class="node">
<title>NgGridImageComponent </title>
<polygon fill="#fb8072" stroke="black" points="345.08,-214.8 182.92,-214.8 182.92,-178.8 345.08,-178.8 345.08,-214.8"/>
<text text-anchor="middle" x="264" y="-192.6" font-family="Times,serif" font-size="14.00">NgGridImageComponent </text>
</g>
<!-- JNetworkBootstrap3GridModule&#45;&gt;NgGridImageComponent  -->
<g id="edge11" class="edge">
<title>JNetworkBootstrap3GridModule&#45;&gt;NgGridImageComponent </title>
<path fill="none" stroke="black" stroke-dasharray="5,2" d="M339.88,-149.91C339.88,-149.91 339.88,-168.79 339.88,-168.79"/>
<polygon fill="black" stroke="black" points="336.38,-168.79 339.88,-178.79 343.38,-168.79 336.38,-168.79"/>
</g>
<!-- NgPagingComponent  -->
<g id="node13" class="node">
<title>NgPagingComponent </title>
<polygon fill="#fb8072" stroke="black" points="164.33,-214.8 23.67,-214.8 23.67,-178.8 164.33,-178.8 164.33,-214.8"/>
<text text-anchor="middle" x="94" y="-192.6" font-family="Times,serif" font-size="14.00">NgPagingComponent </text>
</g>
<!-- JNetworkBootstrap3GridModule&#45;&gt;NgPagingComponent  -->
<g id="edge12" class="edge">
<title>JNetworkBootstrap3GridModule&#45;&gt;NgPagingComponent </title>
<path fill="none" stroke="black" stroke-dasharray="5,2" d="M334.15,-137.8C235.62,-137.8 100.38,-137.8 100.38,-137.8 100.38,-137.8 100.38,-168.78 100.38,-168.78"/>
<polygon fill="black" stroke="black" points="96.88,-168.78 100.38,-178.78 103.88,-168.78 96.88,-168.78"/>
</g>
</g>
</svg>
