<?xml version="1.0" encoding="UTF-8" standalone="no"?>
<!DOCTYPE svg PUBLIC "-//W3C//DTD SVG 1.1//EN"
 "http://www.w3.org/Graphics/SVG/1.1/DTD/svg11.dtd">
<!-- Generated by graphviz version 2.40.1 (20161225.0304)
 -->
<!-- Title: dependencies Pages: 1 -->
<svg width="1126pt" height="284pt"
 viewBox="0.00 0.00 1126.00 284.00" xmlns="http://www.w3.org/2000/svg" xmlns:xlink="http://www.w3.org/1999/xlink">
<g id="graph0" class="graph" transform="scale(1 1) rotate(0) translate(4 280)">
<title>dependencies</title>
<polygon fill="#ffffff" stroke="transparent" points="-4,4 -4,-280 1122,-280 1122,4 -4,4"/>
<text text-anchor="start" x="538.0091" y="-42.4" font-family="sans-serif" font-weight="bold" font-size="14.00" fill="#000000">Legend</text>
<polygon fill="#ffffb3" stroke="transparent" points="325,-10 325,-30 345,-30 345,-10 325,-10"/>
<text text-anchor="start" x="348.629" y="-15.4" font-family="sans-serif" font-size="14.00" fill="#000000"> &#160;Declarations</text>
<polygon fill="#8dd3c7" stroke="transparent" points="438,-10 438,-30 458,-30 458,-10 438,-10"/>
<text text-anchor="start" x="461.7251" y="-15.4" font-family="sans-serif" font-size="14.00" fill="#000000"> &#160;Module</text>
<polygon fill="#80b1d3" stroke="transparent" points="524,-10 524,-30 544,-30 544,-10 524,-10"/>
<text text-anchor="start" x="547.7812" y="-15.4" font-family="sans-serif" font-size="14.00" fill="#000000"> &#160;Bootstrap</text>
<polygon fill="#fdb462" stroke="transparent" points="621,-10 621,-30 641,-30 641,-10 621,-10"/>
<text text-anchor="start" x="644.6732" y="-15.4" font-family="sans-serif" font-size="14.00" fill="#000000"> &#160;Providers</text>
<polygon fill="#fb8072" stroke="transparent" points="717,-10 717,-30 737,-30 737,-10 717,-10"/>
<text text-anchor="start" x="740.7258" y="-15.4" font-family="sans-serif" font-size="14.00" fill="#000000"> &#160;Exports</text>
<g id="clust1" class="cluster">
<title>cluster_JNetworkBootstrap3GridModule</title>
<polygon fill="none" stroke="#000000" stroke-dasharray="1,5" points="8,-70 8,-268 1110,-268 1110,-70 8,-70"/>
</g>
<g id="clust2" class="cluster">
<title>cluster_JNetworkBootstrap3GridModule_declarations</title>
<polygon fill="none" stroke="#000000" points="28,-78 28,-130 1094,-130 1094,-78 28,-78"/>
</g>
<g id="clust10" class="cluster">
<title>cluster_JNetworkBootstrap3GridModule_exports</title>
<polygon fill="none" stroke="#000000" points="16,-208 16,-260 1102,-260 1102,-208 16,-208"/>
</g>
<!-- NgGridButtonComponent -->
<g id="node1" class="node">
<title>NgGridButtonComponent</title>
<polygon fill="#ffffb3" stroke="#000000" points="1086.2147,-122 923.7853,-122 923.7853,-86 1086.2147,-86 1086.2147,-122"/>
<text text-anchor="middle" x="1005" y="-99.8" font-family="Times,serif" font-size="14.00" fill="#000000">NgGridButtonComponent</text>
</g>
<!-- JNetworkBootstrap3GridModule -->
<g id="node7" class="node">
<title>JNetworkBootstrap3GridModule</title>
<polygon fill="#8dd3c7" stroke="#000000" points="535.5688,-187 532.5688,-191 511.5688,-191 508.5688,-187 334.4312,-187 334.4312,-151 535.5688,-151 535.5688,-187"/>
<text text-anchor="middle" x="435" y="-164.8" font-family="Times,serif" font-size="14.00" fill="#000000">JNetworkBootstrap3GridModule</text>
</g>
<!-- NgGridButtonComponent&#45;&gt;JNetworkBootstrap3GridModule -->
<g id="edge1" class="edge">
<title>NgGridButtonComponent&#45;&gt;JNetworkBootstrap3GridModule</title>
<path fill="none" stroke="#000000" d="M1033.4524,-122.2667C1033.4524,-140.5552 1033.4524,-166 1033.4524,-166 1033.4524,-166 545.8426,-166 545.8426,-166"/>
<polygon fill="#000000" stroke="#000000" points="545.8426,-162.5001 535.8426,-166 545.8425,-169.5001 545.8426,-162.5001"/>
</g>
<!-- NgGridColumnActionComponent -->
<g id="node2" class="node">
<title>NgGridColumnActionComponent</title>
<polygon fill="#ffffb3" stroke="#000000" points="905.8172,-122 698.1828,-122 698.1828,-86 905.8172,-86 905.8172,-122"/>
<text text-anchor="middle" x="802" y="-99.8" font-family="Times,serif" font-size="14.00" fill="#000000">NgGridColumnActionComponent</text>
</g>
<!-- NgGridColumnActionComponent&#45;&gt;JNetworkBootstrap3GridModule -->
<g id="edge2" class="edge">
<title>NgGridColumnActionComponent&#45;&gt;JNetworkBootstrap3GridModule</title>
<path fill="none" stroke="#000000" d="M836.9695,-122.0091C836.9695,-138.0494 836.9695,-159 836.9695,-159 836.9695,-159 545.6559,-159 545.6559,-159"/>
<polygon fill="#000000" stroke="#000000" points="545.6559,-155.5001 535.6559,-159 545.6559,-162.5001 545.6559,-155.5001"/>
</g>
<!-- NgGridColumnComponent -->
<g id="node3" class="node">
<title>NgGridColumnComponent</title>
<polygon fill="#ffffb3" stroke="#000000" points="680.7147,-122 511.2853,-122 511.2853,-86 680.7147,-86 680.7147,-122"/>
<text text-anchor="middle" x="596" y="-99.8" font-family="Times,serif" font-size="14.00" fill="#000000">NgGridColumnComponent</text>
</g>
<!-- NgGridColumnComponent&#45;&gt;JNetworkBootstrap3GridModule -->
<g id="edge3" class="edge">
<title>NgGridColumnComponent&#45;&gt;JNetworkBootstrap3GridModule</title>
<path fill="none" stroke="#000000" d="M523.4635,-122.1061C523.4635,-122.1061 523.4635,-140.991 523.4635,-140.991"/>
<polygon fill="#000000" stroke="#000000" points="519.9636,-140.9909 523.4635,-150.991 526.9636,-140.991 519.9636,-140.9909"/>
</g>
<!-- NgGridComponent -->
<g id="node4" class="node">
<title>NgGridComponent</title>
<polygon fill="#ffffb3" stroke="#000000" points="493.0968,-122 368.9032,-122 368.9032,-86 493.0968,-86 493.0968,-122"/>
<text text-anchor="middle" x="431" y="-99.8" font-family="Times,serif" font-size="14.00" fill="#000000">NgGridComponent</text>
</g>
<!-- NgGridComponent&#45;&gt;JNetworkBootstrap3GridModule -->
<g id="edge4" class="edge">
<title>NgGridComponent&#45;&gt;JNetworkBootstrap3GridModule</title>
<path fill="none" stroke="#000000" d="M431,-122.1061C431,-122.1061 431,-140.991 431,-140.991"/>
<polygon fill="#000000" stroke="#000000" points="427.5001,-140.9909 431,-150.991 434.5001,-140.991 427.5001,-140.9909"/>
</g>
<!-- NgGridImageComponent -->
<g id="node5" class="node">
<title>NgGridImageComponent</title>
<polygon fill="#ffffb3" stroke="#000000" points="350.5772,-122 191.4228,-122 191.4228,-86 350.5772,-86 350.5772,-122"/>
<text text-anchor="middle" x="271" y="-99.8" font-family="Times,serif" font-size="14.00" fill="#000000">NgGridImageComponent</text>
</g>
<!-- NgGridImageComponent&#45;&gt;JNetworkBootstrap3GridModule -->
<g id="edge5" class="edge">
<title>NgGridImageComponent&#45;&gt;JNetworkBootstrap3GridModule</title>
<path fill="none" stroke="#000000" d="M342.5021,-122.1061C342.5021,-122.1061 342.5021,-140.991 342.5021,-140.991"/>
<polygon fill="#000000" stroke="#000000" points="339.0022,-140.9909 342.5021,-150.991 346.0022,-140.991 339.0022,-140.9909"/>
</g>
<!-- NgPagingComponent -->
<g id="node6" class="node">
<title>NgPagingComponent</title>
<polygon fill="#ffffb3" stroke="#000000" points="173.8272,-122 36.1728,-122 36.1728,-86 173.8272,-86 173.8272,-122"/>
<text text-anchor="middle" x="105" y="-99.8" font-family="Times,serif" font-size="14.00" fill="#000000">NgPagingComponent</text>
</g>
<!-- NgPagingComponent&#45;&gt;JNetworkBootstrap3GridModule -->
<g id="edge6" class="edge">
<title>NgPagingComponent&#45;&gt;JNetworkBootstrap3GridModule</title>
<path fill="none" stroke="#000000" d="M169.0384,-122.0225C169.0384,-139.3734 169.0384,-163 169.0384,-163 169.0384,-163 324.4513,-163 324.4513,-163"/>
<polygon fill="#000000" stroke="#000000" points="324.4514,-166.5001 334.4513,-163 324.4513,-159.5001 324.4514,-166.5001"/>
</g>
<!-- NgGridButtonComponent  -->
<g id="node8" class="node">
<title>NgGridButtonComponent </title>
<polygon fill="#fb8072" stroke="#000000" points="1093.7148,-252 928.2852,-252 928.2852,-216 1093.7148,-216 1093.7148,-252"/>
<text text-anchor="middle" x="1011" y="-229.8" font-family="Times,serif" font-size="14.00" fill="#000000">NgGridButtonComponent </text>
</g>
<!-- JNetworkBootstrap3GridModule&#45;&gt;NgGridButtonComponent  -->
<g id="edge7" class="edge">
<title>JNetworkBootstrap3GridModule&#45;&gt;NgGridButtonComponent </title>
<path fill="none" stroke="#000000" stroke-dasharray="5,2" d="M535.7437,-173C693.4488,-173 980.7976,-173 980.7976,-173 980.7976,-173 980.7976,-205.698 980.7976,-205.698"/>
<polygon fill="#000000" stroke="#000000" points="977.2977,-205.698 980.7976,-215.698 984.2977,-205.698 977.2977,-205.698"/>
</g>
<!-- NgGridColumnActionComponent  -->
<g id="node9" class="node">
<title>NgGridColumnActionComponent </title>
<polygon fill="#fb8072" stroke="#000000" points="910.3171,-252 699.6829,-252 699.6829,-216 910.3171,-216 910.3171,-252"/>
<text text-anchor="middle" x="805" y="-229.8" font-family="Times,serif" font-size="14.00" fill="#000000">NgGridColumnActionComponent </text>
</g>
<!-- JNetworkBootstrap3GridModule&#45;&gt;NgGridColumnActionComponent  -->
<g id="edge8" class="edge">
<title>JNetworkBootstrap3GridModule&#45;&gt;NgGridColumnActionComponent </title>
<path fill="none" stroke="#000000" stroke-dasharray="5,2" d="M535.8996,-180C633.9927,-180 768.2805,-180 768.2805,-180 768.2805,-180 768.2805,-205.7181 768.2805,-205.7181"/>
<polygon fill="#000000" stroke="#000000" points="764.7806,-205.718 768.2805,-215.7181 771.7806,-205.7181 764.7806,-205.718"/>
</g>
<!-- NgGridColumnComponent  -->
<g id="node10" class="node">
<title>NgGridColumnComponent </title>
<polygon fill="#fb8072" stroke="#000000" points="681.2148,-252 508.7852,-252 508.7852,-216 681.2148,-216 681.2148,-252"/>
<text text-anchor="middle" x="595" y="-229.8" font-family="Times,serif" font-size="14.00" fill="#000000">NgGridColumnComponent </text>
</g>
<!-- JNetworkBootstrap3GridModule&#45;&gt;NgGridColumnComponent  -->
<g id="edge9" class="edge">
<title>JNetworkBootstrap3GridModule&#45;&gt;NgGridColumnComponent </title>
<path fill="none" stroke="#000000" stroke-dasharray="5,2" d="M522.0885,-187.1061C522.0885,-187.1061 522.0885,-205.991 522.0885,-205.991"/>
<polygon fill="#000000" stroke="#000000" points="518.5886,-205.9909 522.0885,-215.991 525.5886,-205.991 518.5886,-205.9909"/>
</g>
<!-- NgGridComponent  -->
<g id="node11" class="node">
<title>NgGridComponent </title>
<polygon fill="#fb8072" stroke="#000000" points="490.5974,-252 363.4026,-252 363.4026,-216 490.5974,-216 490.5974,-252"/>
<text text-anchor="middle" x="427" y="-229.8" font-family="Times,serif" font-size="14.00" fill="#000000">NgGridComponent </text>
</g>
<!-- JNetworkBootstrap3GridModule&#45;&gt;NgGridComponent  -->
<g id="edge10" class="edge">
<title>JNetworkBootstrap3GridModule&#45;&gt;NgGridComponent </title>
<path fill="none" stroke="#000000" stroke-dasharray="5,2" d="M427,-187.1061C427,-187.1061 427,-205.991 427,-205.991"/>
<polygon fill="#000000" stroke="#000000" points="423.5001,-205.9909 427,-215.991 430.5001,-205.991 423.5001,-205.9909"/>
</g>
<!-- NgGridImageComponent  -->
<g id="node12" class="node">
<title>NgGridImageComponent </title>
<polygon fill="#fb8072" stroke="#000000" points="345.0777,-252 182.9223,-252 182.9223,-216 345.0777,-216 345.0777,-252"/>
<text text-anchor="middle" x="264" y="-229.8" font-family="Times,serif" font-size="14.00" fill="#000000">NgGridImageComponent </text>
</g>
<!-- JNetworkBootstrap3GridModule&#45;&gt;NgGridImageComponent  -->
<g id="edge11" class="edge">
<title>JNetworkBootstrap3GridModule&#45;&gt;NgGridImageComponent </title>
<path fill="none" stroke="#000000" stroke-dasharray="5,2" d="M339.8771,-187.1061C339.8771,-187.1061 339.8771,-205.991 339.8771,-205.991"/>
<polygon fill="#000000" stroke="#000000" points="336.3772,-205.9909 339.8771,-215.991 343.3772,-205.991 336.3772,-205.9909"/>
</g>
<!-- NgPagingComponent  -->
<g id="node13" class="node">
<title>NgPagingComponent </title>
<polygon fill="#fb8072" stroke="#000000" points="164.3269,-252 23.6731,-252 23.6731,-216 164.3269,-216 164.3269,-252"/>
<text text-anchor="middle" x="94" y="-229.8" font-family="Times,serif" font-size="14.00" fill="#000000">NgPagingComponent </text>
</g>
<!-- JNetworkBootstrap3GridModule&#45;&gt;NgPagingComponent  -->
<g id="edge12" class="edge">
<title>JNetworkBootstrap3GridModule&#45;&gt;NgPagingComponent </title>
<path fill="none" stroke="#000000" stroke-dasharray="5,2" d="M334.1477,-175C235.6198,-175 100.375,-175 100.375,-175 100.375,-175 100.375,-205.9775 100.375,-205.9775"/>
<polygon fill="#000000" stroke="#000000" points="96.8751,-205.9774 100.375,-215.9775 103.8751,-205.9775 96.8751,-205.9774"/>
</g>
</g>
</svg>
