<?xml version="1.0" encoding="UTF-8" standalone="no"?>
<!DOCTYPE svg PUBLIC "-//W3C//DTD SVG 1.1//EN"
 "http://www.w3.org/Graphics/SVG/1.1/DTD/svg11.dtd">
<!-- Generated by graphviz version 2.40.1 (20161225.0304)
 -->
<!-- Title: dependencies Pages: 1 -->
<svg width="504pt" height="349pt"
 viewBox="0.00 0.00 504.00 349.00" xmlns="http://www.w3.org/2000/svg" xmlns:xlink="http://www.w3.org/1999/xlink">
<g id="graph0" class="graph" transform="scale(1 1) rotate(0) translate(4 345)">
<title>dependencies</title>
<polygon fill="#ffffff" stroke="transparent" points="-4,4 -4,-345 500,-345 500,4 -4,4"/>
<text text-anchor="start" x="227.0091" y="-42.4" font-family="sans-serif" font-weight="bold" font-size="14.00" fill="#000000">Legend</text>
<polygon fill="#ffffb3" stroke="transparent" points="14,-10 14,-30 34,-30 34,-10 14,-10"/>
<text text-anchor="start" x="37.629" y="-15.4" font-family="sans-serif" font-size="14.00" fill="#000000"> &#160;Declarations</text>
<polygon fill="#8dd3c7" stroke="transparent" points="127,-10 127,-30 147,-30 147,-10 127,-10"/>
<text text-anchor="start" x="150.7251" y="-15.4" font-family="sans-serif" font-size="14.00" fill="#000000"> &#160;Module</text>
<polygon fill="#80b1d3" stroke="transparent" points="213,-10 213,-30 233,-30 233,-10 213,-10"/>
<text text-anchor="start" x="236.7812" y="-15.4" font-family="sans-serif" font-size="14.00" fill="#000000"> &#160;Bootstrap</text>
<polygon fill="#fdb462" stroke="transparent" points="310,-10 310,-30 330,-30 330,-10 310,-10"/>
<text text-anchor="start" x="333.6732" y="-15.4" font-family="sans-serif" font-size="14.00" fill="#000000"> &#160;Providers</text>
<polygon fill="#fb8072" stroke="transparent" points="406,-10 406,-30 426,-30 426,-10 406,-10"/>
<text text-anchor="start" x="429.7258" y="-15.4" font-family="sans-serif" font-size="14.00" fill="#000000"> &#160;Exports</text>
<g id="clust1" class="cluster">
<title>cluster_jNetworkTinyMceEditorModule</title>
<polygon fill="none" stroke="#000000" stroke-dasharray="1,5" points="28,-70 28,-333 468,-333 468,-70 28,-70"/>
</g>
<g id="clust2" class="cluster">
<title>cluster_jNetworkTinyMceEditorModule_declarations</title>
<polygon fill="none" stroke="#000000" points="148,-143 148,-195 348,-195 348,-143 148,-143"/>
</g>
<g id="clust3" class="cluster">
<title>cluster_jNetworkTinyMceEditorModule_NgTinyMceEditorComponent_providers</title>
<polygon fill="none" stroke="#000000" points="36,-78 36,-130 460,-130 460,-78 36,-78"/>
</g>
<g id="clust5" class="cluster">
<title>cluster_jNetworkTinyMceEditorModule_exports</title>
<polygon fill="none" stroke="#000000" points="146,-273 146,-325 350,-325 350,-273 146,-273"/>
</g>
<!-- NgTinyMceEditorComponent -->
<g id="node1" class="node">
<title>NgTinyMceEditorComponent</title>
<polygon fill="#ffffb3" stroke="#000000" points="340.2506,-187 155.7494,-187 155.7494,-151 340.2506,-151 340.2506,-187"/>
<text text-anchor="middle" x="248" y="-164.8" font-family="Times,serif" font-size="14.00" fill="#000000">NgTinyMceEditorComponent</text>
</g>
<!-- jNetworkTinyMceEditorModule -->
<g id="node2" class="node">
<title>jNetworkTinyMceEditorModule</title>
<polygon fill="#8dd3c7" stroke="#000000" points="347.231,-252 344.231,-256 323.231,-256 320.231,-252 148.769,-252 148.769,-216 347.231,-216 347.231,-252"/>
<text text-anchor="middle" x="248" y="-229.8" font-family="Times,serif" font-size="14.00" fill="#000000">jNetworkTinyMceEditorModule</text>
</g>
<!-- NgTinyMceEditorComponent&#45;&gt;jNetworkTinyMceEditorModule -->
<g id="edge1" class="edge">
<title>NgTinyMceEditorComponent&#45;&gt;jNetworkTinyMceEditorModule</title>
<path fill="none" stroke="#000000" d="M248,-187.1061C248,-187.1061 248,-205.991 248,-205.991"/>
<polygon fill="#000000" stroke="#000000" points="244.5001,-205.9909 248,-215.991 251.5001,-205.991 244.5001,-205.9909"/>
</g>
<!-- NgTinyMceEditorComponent  -->
<g id="node4" class="node">
<title>NgTinyMceEditorComponent </title>
<polygon fill="#fb8072" stroke="#000000" points="342.2506,-317 153.7494,-317 153.7494,-281 342.2506,-281 342.2506,-317"/>
<text text-anchor="middle" x="248" y="-294.8" font-family="Times,serif" font-size="14.00" fill="#000000">NgTinyMceEditorComponent </text>
</g>
<!-- jNetworkTinyMceEditorModule&#45;&gt;NgTinyMceEditorComponent  -->
<g id="edge3" class="edge">
<title>jNetworkTinyMceEditorModule&#45;&gt;NgTinyMceEditorComponent </title>
<path fill="none" stroke="#000000" stroke-dasharray="5,2" d="M248,-252.1061C248,-252.1061 248,-270.991 248,-270.991"/>
<polygon fill="#000000" stroke="#000000" points="244.5001,-270.9909 248,-280.991 251.5001,-270.991 244.5001,-270.9909"/>
</g>
<!-- EDITOR_COMPONENT_VALUE_ACCESSOR -->
<g id="node3" class="node">
<title>EDITOR_COMPONENT_VALUE_ACCESSOR</title>
<ellipse fill="#fdb462" stroke="#000000" cx="248" cy="-104" rx="203.7152" ry="18"/>
<text text-anchor="middle" x="248" y="-99.8" font-family="Times,serif" font-size="14.00" fill="#000000">EDITOR_COMPONENT_VALUE_ACCESSOR</text>
</g>
<!-- EDITOR_COMPONENT_VALUE_ACCESSOR&#45;&gt;NgTinyMceEditorComponent -->
<g id="edge2" class="edge">
<title>EDITOR_COMPONENT_VALUE_ACCESSOR&#45;&gt;NgTinyMceEditorComponent</title>
<path fill="none" stroke="#000000" d="M248,-122.1061C248,-122.1061 248,-140.991 248,-140.991"/>
<polygon fill="#000000" stroke="#000000" points="244.5001,-140.9909 248,-150.991 251.5001,-140.991 244.5001,-140.9909"/>
</g>
</g>
</svg>
