<?xml version="1.0" encoding="UTF-8" standalone="no"?>
<!DOCTYPE svg PUBLIC "-//W3C//DTD SVG 1.1//EN"
 "http://www.w3.org/Graphics/SVG/1.1/DTD/svg11.dtd">
<!-- Generated by graphviz version 2.47.0 (20210316.0004)
 -->
<!-- Title: dependencies Pages: 1 -->
<svg width="640pt" height="284pt"
 viewBox="0.00 0.00 640.00 284.00" xmlns="http://www.w3.org/2000/svg" xmlns:xlink="http://www.w3.org/1999/xlink">
<g id="graph0" class="graph" transform="scale(1 1) rotate(0) translate(4 280)">
<title>dependencies</title>
<polygon fill="white" stroke="transparent" points="-4,4 -4,-280 636,-280 636,4 -4,4"/>
<text text-anchor="start" x="295.01" y="-42.4" font-family="Times-12" font-weight="bold" font-size="14.00">Legend</text>
<polygon fill="#ffffb3" stroke="transparent" points="82,-10 82,-30 102,-30 102,-10 82,-10"/>
<text text-anchor="start" x="105.63" y="-15.4" font-family="Times-12" font-size="14.00"> &#160;Declarations</text>
<polygon fill="#8dd3c7" stroke="transparent" points="195,-10 195,-30 215,-30 215,-10 195,-10"/>
<text text-anchor="start" x="218.73" y="-15.4" font-family="Times-12" font-size="14.00"> &#160;Module</text>
<polygon fill="#80b1d3" stroke="transparent" points="281,-10 281,-30 301,-30 301,-10 281,-10"/>
<text text-anchor="start" x="304.78" y="-15.4" font-family="Times-12" font-size="14.00"> &#160;Bootstrap</text>
<polygon fill="#fdb462" stroke="transparent" points="378,-10 378,-30 398,-30 398,-10 378,-10"/>
<text text-anchor="start" x="401.67" y="-15.4" font-family="Times-12" font-size="14.00"> &#160;Providers</text>
<polygon fill="#fb8072" stroke="transparent" points="474,-10 474,-30 494,-30 494,-10 474,-10"/>
<text text-anchor="start" x="497.73" y="-15.4" font-family="Times-12" font-size="14.00"> &#160;Exports</text>
<g id="clust1" class="cluster">
<title>cluster_SACBootstrap3TtreeviewModule</title>
<polygon fill="none" stroke="black" stroke-dasharray="1,5" points="8,-70 8,-268 624,-268 624,-70 8,-70"/>
</g>
<g id="clust4" class="cluster">
<title>cluster_SACBootstrap3TtreeviewModule_exports</title>
<polygon fill="none" stroke="black" points="16,-208 16,-260 616,-260 616,-208 16,-208"/>
</g>
<g id="clust3" class="cluster">
<title>cluster_SACBootstrap3TtreeviewModule_imports</title>
<polygon fill="none" stroke="black" points="22,-78 22,-130 611,-130 611,-78 22,-78"/>
</g>
<!-- SacTreeItemActionComponent -->
<g id="node1" class="node">
<title>SacTreeItemActionComponent</title>
<polygon fill="#8dd3c7" stroke="black" points="603.45,-122 600.45,-126 579.45,-126 576.45,-122 412.55,-122 412.55,-86 603.45,-86 603.45,-122"/>
<text text-anchor="middle" x="508" y="-99.8" font-family="Times,serif" font-size="14.00">SacTreeItemActionComponent</text>
</g>
<!-- SACBootstrap3TtreeviewModule -->
<g id="node4" class="node">
<title>SACBootstrap3TtreeviewModule</title>
<polygon fill="#8dd3c7" stroke="black" points="402.46,-187 399.46,-191 378.46,-191 375.46,-187 197.54,-187 197.54,-151 402.46,-151 402.46,-187"/>
<text text-anchor="middle" x="300" y="-164.8" font-family="Times,serif" font-size="14.00">SACBootstrap3TtreeviewModule</text>
</g>
<!-- SacTreeItemActionComponent&#45;&gt;SACBootstrap3TtreeviewModule -->
<g id="edge1" class="edge">
<title>SacTreeItemActionComponent&#45;&gt;SACBootstrap3TtreeviewModule</title>
<path fill="none" stroke="black" d="M412.28,-104C403.83,-104 398.4,-104 398.4,-104 398.4,-104 398.4,-140.89 398.4,-140.89"/>
<polygon fill="black" stroke="black" points="394.9,-140.89 398.4,-150.89 401.9,-140.89 394.9,-140.89"/>
</g>
<!-- SacTreeViewChildComponent -->
<g id="node2" class="node">
<title>SacTreeViewChildComponent</title>
<polygon fill="#8dd3c7" stroke="black" points="394.12,-122 391.12,-126 370.12,-126 367.12,-122 205.88,-122 205.88,-86 394.12,-86 394.12,-122"/>
<text text-anchor="middle" x="300" y="-99.8" font-family="Times,serif" font-size="14.00">SacTreeViewChildComponent</text>
</g>
<!-- SacTreeViewChildComponent&#45;&gt;SACBootstrap3TtreeviewModule -->
<g id="edge2" class="edge">
<title>SacTreeViewChildComponent&#45;&gt;SACBootstrap3TtreeviewModule</title>
<path fill="none" stroke="black" d="M300,-122.11C300,-122.11 300,-140.99 300,-140.99"/>
<polygon fill="black" stroke="black" points="296.5,-140.99 300,-150.99 303.5,-140.99 296.5,-140.99"/>
</g>
<!-- SacTreeViewComponent -->
<g id="node3" class="node">
<title>SacTreeViewComponent</title>
<polygon fill="#8dd3c7" stroke="black" points="187.51,-122 184.51,-126 163.51,-126 160.51,-122 30.49,-122 30.49,-86 187.51,-86 187.51,-122"/>
<text text-anchor="middle" x="109" y="-99.8" font-family="Times,serif" font-size="14.00">SacTreeViewComponent</text>
</g>
<!-- SacTreeViewComponent&#45;&gt;SACBootstrap3TtreeviewModule -->
<g id="edge3" class="edge">
<title>SacTreeViewComponent&#45;&gt;SACBootstrap3TtreeviewModule</title>
<path fill="none" stroke="black" d="M187.54,-104C196,-104 201.6,-104 201.6,-104 201.6,-104 201.6,-140.89 201.6,-140.89"/>
<polygon fill="black" stroke="black" points="198.1,-140.89 201.6,-150.89 205.1,-140.89 198.1,-140.89"/>
</g>
<!-- SacTreeItemActionComponent  -->
<g id="node5" class="node">
<title>SacTreeItemActionComponent </title>
<polygon fill="#fb8072" stroke="black" points="608.45,-252 413.55,-252 413.55,-216 608.45,-216 608.45,-252"/>
<text text-anchor="middle" x="511" y="-229.8" font-family="Times,serif" font-size="14.00">SacTreeItemActionComponent </text>
</g>
<!-- SACBootstrap3TtreeviewModule&#45;&gt;SacTreeItemActionComponent  -->
<g id="edge4" class="edge">
<title>SACBootstrap3TtreeviewModule&#45;&gt;SacTreeItemActionComponent </title>
<path fill="none" stroke="black" stroke-dasharray="5,2" d="M402.48,-169C455.24,-169 508.62,-169 508.62,-169 508.62,-169 508.62,-205.89 508.62,-205.89"/>
<polygon fill="black" stroke="black" points="505.13,-205.89 508.62,-215.89 512.13,-205.89 505.13,-205.89"/>
</g>
<!-- SacTreeViewChildComponent  -->
<g id="node6" class="node">
<title>SacTreeViewChildComponent </title>
<polygon fill="#fb8072" stroke="black" points="396.12,-252 203.88,-252 203.88,-216 396.12,-216 396.12,-252"/>
<text text-anchor="middle" x="300" y="-229.8" font-family="Times,serif" font-size="14.00">SacTreeViewChildComponent </text>
</g>
<!-- SACBootstrap3TtreeviewModule&#45;&gt;SacTreeViewChildComponent  -->
<g id="edge5" class="edge">
<title>SACBootstrap3TtreeviewModule&#45;&gt;SacTreeViewChildComponent </title>
<path fill="none" stroke="black" stroke-dasharray="5,2" d="M300,-187.11C300,-187.11 300,-205.99 300,-205.99"/>
<polygon fill="black" stroke="black" points="296.5,-205.99 300,-215.99 303.5,-205.99 296.5,-205.99"/>
</g>
<!-- SacTreeViewComponent  -->
<g id="node7" class="node">
<title>SacTreeViewComponent </title>
<polygon fill="#fb8072" stroke="black" points="185.51,-252 24.49,-252 24.49,-216 185.51,-216 185.51,-252"/>
<text text-anchor="middle" x="105" y="-229.8" font-family="Times,serif" font-size="14.00">SacTreeViewComponent </text>
</g>
<!-- SACBootstrap3TtreeviewModule&#45;&gt;SacTreeViewComponent  -->
<g id="edge6" class="edge">
<title>SACBootstrap3TtreeviewModule&#45;&gt;SacTreeViewComponent </title>
<path fill="none" stroke="black" stroke-dasharray="5,2" d="M197.47,-169C151.69,-169 107.88,-169 107.88,-169 107.88,-169 107.88,-205.89 107.88,-205.89"/>
<polygon fill="black" stroke="black" points="104.38,-205.89 107.88,-215.89 111.38,-205.89 104.38,-205.89"/>
</g>
</g>
</svg>
