<?xml version="1.0" encoding="UTF-8" standalone="no"?>
<!DOCTYPE svg PUBLIC "-//W3C//DTD SVG 1.1//EN"
 "http://www.w3.org/Graphics/SVG/1.1/DTD/svg11.dtd">
<!-- Generated by graphviz version 2.47.3 (20210619.1520)
 -->
<!-- Title: dependencies Pages: 1 -->
<svg width="1658pt" height="358pt"
 viewBox="0.00 0.00 1658.00 358.39" xmlns="http://www.w3.org/2000/svg" xmlns:xlink="http://www.w3.org/1999/xlink">
<g id="graph0" class="graph" transform="scale(1 1) rotate(0) translate(4 354.39)">
<title>dependencies</title>
<polygon fill="white" stroke="transparent" points="-4,4 -4,-354.39 1654,-354.39 1654,4 -4,4"/>
<text text-anchor="middle" x="825" y="-8.2" font-family="sans-serif" font-size="14.00">dependencies</text>
<g id="clust1" class="cluster">
<title>cluster_JNetworkBootstrap4ListModule</title>
<polygon fill="none" stroke="black" stroke-dasharray="1,5" points="8,-32.8 8,-342.39 1642,-342.39 1642,-32.8 8,-32.8"/>
</g>
<g id="clust8" class="cluster">
<title>cluster_JNetworkBootstrap4ListModule_exports</title>
<polygon fill="none" stroke="black" points="315,-282.39 315,-334.39 1050,-334.39 1050,-282.39 315,-282.39"/>
</g>
<g id="clust2" class="cluster">
<title>cluster_JNetworkBootstrap4ListModule_declarations</title>
<polygon fill="none" stroke="black" points="323,-152.39 323,-204.39 1043,-204.39 1043,-152.39 323,-152.39"/>
</g>
<g id="clust3" class="cluster">
<title>cluster_JNetworkBootstrap4ListModule_NgDropdownComponent_providers</title>
<polygon fill="none" stroke="black" points="16,-40.8 16,-139.39 1634,-139.39 1634,-40.8 16,-40.8"/>
</g>
<!-- NgDropdownComponent -->
<g id="node1" class="node">
<title>NgDropdownComponent</title>
<polygon fill="#ffffb3" stroke="black" points="1035.31,-196.39 876.69,-196.39 876.69,-160.39 1035.31,-160.39 1035.31,-196.39"/>
<text text-anchor="middle" x="956" y="-174.19" font-family="Times,serif" font-size="14.00">NgDropdownComponent</text>
</g>
<!-- JNetworkBootstrap4ListModule -->
<g id="node5" class="node">
<title>JNetworkBootstrap4ListModule</title>
<polygon fill="#8dd3c7" stroke="black" points="774.69,-261.39 771.69,-265.39 750.69,-265.39 747.69,-261.39 577.31,-261.39 577.31,-225.39 774.69,-225.39 774.69,-261.39"/>
<text text-anchor="middle" x="676" y="-239.19" font-family="Times,serif" font-size="14.00">JNetworkBootstrap4ListModule</text>
</g>
<!-- NgDropdownComponent&#45;&gt;JNetworkBootstrap4ListModule -->
<g id="edge1" class="edge">
<title>NgDropdownComponent&#45;&gt;JNetworkBootstrap4ListModule</title>
<path fill="none" stroke="black" d="M983.47,-196.41C983.47,-213.76 983.47,-237.39 983.47,-237.39 983.47,-237.39 784.98,-237.39 784.98,-237.39"/>
<polygon fill="black" stroke="black" points="784.98,-233.89 774.98,-237.39 784.98,-240.89 784.98,-233.89"/>
</g>
<!-- NgDropdownOptionDirective -->
<g id="node2" class="node">
<title>NgDropdownOptionDirective</title>
<polygon fill="#ffffb3" stroke="black" points="858.95,-196.39 675.05,-196.39 675.05,-160.39 858.95,-160.39 858.95,-196.39"/>
<text text-anchor="middle" x="767" y="-174.19" font-family="Times,serif" font-size="14.00">NgDropdownOptionDirective</text>
</g>
<!-- NgDropdownOptionDirective&#45;&gt;JNetworkBootstrap4ListModule -->
<g id="edge4" class="edge">
<title>NgDropdownOptionDirective&#45;&gt;JNetworkBootstrap4ListModule</title>
<path fill="none" stroke="black" d="M724.81,-196.5C724.81,-196.5 724.81,-215.38 724.81,-215.38"/>
<polygon fill="black" stroke="black" points="721.31,-215.38 724.81,-225.38 728.31,-215.38 721.31,-215.38"/>
</g>
<!-- NgListboxComponent -->
<g id="node3" class="node">
<title>NgListboxComponent</title>
<polygon fill="#ffffb3" stroke="black" points="656.72,-196.39 515.28,-196.39 515.28,-160.39 656.72,-160.39 656.72,-196.39"/>
<text text-anchor="middle" x="586" y="-174.19" font-family="Times,serif" font-size="14.00">NgListboxComponent</text>
</g>
<!-- NgListboxComponent&#45;&gt;JNetworkBootstrap4ListModule -->
<g id="edge5" class="edge">
<title>NgListboxComponent&#45;&gt;JNetworkBootstrap4ListModule</title>
<path fill="none" stroke="black" d="M617.01,-196.5C617.01,-196.5 617.01,-215.38 617.01,-215.38"/>
<polygon fill="black" stroke="black" points="613.51,-215.38 617.01,-225.38 620.51,-215.38 613.51,-215.38"/>
</g>
<!-- NgListboxOptionDirective -->
<g id="node4" class="node">
<title>NgListboxOptionDirective</title>
<polygon fill="#ffffb3" stroke="black" points="497.36,-196.39 330.64,-196.39 330.64,-160.39 497.36,-160.39 497.36,-196.39"/>
<text text-anchor="middle" x="414" y="-174.19" font-family="Times,serif" font-size="14.00">NgListboxOptionDirective</text>
</g>
<!-- NgListboxOptionDirective&#45;&gt;JNetworkBootstrap4ListModule -->
<g id="edge6" class="edge">
<title>NgListboxOptionDirective&#45;&gt;JNetworkBootstrap4ListModule</title>
<path fill="none" stroke="black" d="M438.98,-196.41C438.98,-213.76 438.98,-237.39 438.98,-237.39 438.98,-237.39 567.2,-237.39 567.2,-237.39"/>
<polygon fill="black" stroke="black" points="567.2,-240.89 577.2,-237.39 567.2,-233.89 567.2,-240.89"/>
</g>
<!-- NgDropdownComponent  -->
<g id="node8" class="node">
<title>NgDropdownComponent </title>
<polygon fill="#fb8072" stroke="black" points="1041.81,-326.39 880.19,-326.39 880.19,-290.39 1041.81,-290.39 1041.81,-326.39"/>
<text text-anchor="middle" x="961" y="-304.19" font-family="Times,serif" font-size="14.00">NgDropdownComponent </text>
</g>
<!-- JNetworkBootstrap4ListModule&#45;&gt;NgDropdownComponent  -->
<g id="edge7" class="edge">
<title>JNetworkBootstrap4ListModule&#45;&gt;NgDropdownComponent </title>
<path fill="none" stroke="black" stroke-dasharray="5,2" d="M774.89,-249.39C846.87,-249.39 931.78,-249.39 931.78,-249.39 931.78,-249.39 931.78,-280.37 931.78,-280.37"/>
<polygon fill="black" stroke="black" points="928.28,-280.37 931.78,-290.37 935.28,-280.37 928.28,-280.37"/>
</g>
<!-- NgDropdownOptionDirective  -->
<g id="node9" class="node">
<title>NgDropdownOptionDirective </title>
<polygon fill="#fb8072" stroke="black" points="861.95,-326.39 674.05,-326.39 674.05,-290.39 861.95,-290.39 861.95,-326.39"/>
<text text-anchor="middle" x="768" y="-304.19" font-family="Times,serif" font-size="14.00">NgDropdownOptionDirective </text>
</g>
<!-- JNetworkBootstrap4ListModule&#45;&gt;NgDropdownOptionDirective  -->
<g id="edge8" class="edge">
<title>JNetworkBootstrap4ListModule&#45;&gt;NgDropdownOptionDirective </title>
<path fill="none" stroke="black" stroke-dasharray="5,2" d="M724.43,-261.5C724.43,-261.5 724.43,-280.38 724.43,-280.38"/>
<polygon fill="black" stroke="black" points="720.93,-280.38 724.43,-290.38 727.93,-280.38 720.93,-280.38"/>
</g>
<!-- NgListboxComponent  -->
<g id="node10" class="node">
<title>NgListboxComponent </title>
<polygon fill="#fb8072" stroke="black" points="656.22,-326.39 511.78,-326.39 511.78,-290.39 656.22,-290.39 656.22,-326.39"/>
<text text-anchor="middle" x="584" y="-304.19" font-family="Times,serif" font-size="14.00">NgListboxComponent </text>
</g>
<!-- JNetworkBootstrap4ListModule&#45;&gt;NgListboxComponent  -->
<g id="edge9" class="edge">
<title>JNetworkBootstrap4ListModule&#45;&gt;NgListboxComponent </title>
<path fill="none" stroke="black" stroke-dasharray="5,2" d="M616.88,-261.5C616.88,-261.5 616.88,-280.38 616.88,-280.38"/>
<polygon fill="black" stroke="black" points="613.38,-280.38 616.88,-290.38 620.38,-280.38 613.38,-280.38"/>
</g>
<!-- NgListboxOptionDirective  -->
<g id="node11" class="node">
<title>NgListboxOptionDirective </title>
<polygon fill="#fb8072" stroke="black" points="493.36,-326.39 322.64,-326.39 322.64,-290.39 493.36,-290.39 493.36,-326.39"/>
<text text-anchor="middle" x="408" y="-304.19" font-family="Times,serif" font-size="14.00">NgListboxOptionDirective </text>
</g>
<!-- JNetworkBootstrap4ListModule&#45;&gt;NgListboxOptionDirective  -->
<g id="edge10" class="edge">
<title>JNetworkBootstrap4ListModule&#45;&gt;NgListboxOptionDirective </title>
<path fill="none" stroke="black" stroke-dasharray="5,2" d="M577.4,-249.39C492.92,-249.39 384.77,-249.39 384.77,-249.39 384.77,-249.39 384.77,-280.37 384.77,-280.37"/>
<polygon fill="black" stroke="black" points="381.27,-280.37 384.77,-290.37 388.27,-280.37 381.27,-280.37"/>
</g>
<!-- {
 &#160;&#160;&#160;provide: NG_VALUE_ACCESSOR, multi: true, useExisting: NgDropdownComponent,
} -->
<g id="node6" class="node">
<title>{
 &#160;&#160;&#160;provide: NG_VALUE_ACCESSOR, multi: true, useExisting: NgDropdownComponent,
}</title>
<ellipse fill="#fdb462" stroke="black" cx="1254" cy="-90.1" rx="371.51" ry="41.09"/>
<text text-anchor="middle" x="1254" y="-102.7" font-family="Times,serif" font-size="14.00">{</text>
<text text-anchor="middle" x="1254" y="-85.9" font-family="Times,serif" font-size="14.00"> &#160;&#160;&#160;provide: NG_VALUE_ACCESSOR, multi: true, useExisting: NgDropdownComponent,</text>
<text text-anchor="middle" x="1254" y="-69.1" font-family="Times,serif" font-size="14.00">}</text>
</g>
<!-- {
 &#160;&#160;&#160;provide: NG_VALUE_ACCESSOR, multi: true, useExisting: NgDropdownComponent,
}&#45;&gt;NgDropdownComponent -->
<g id="edge2" class="edge">
<title>{
 &#160;&#160;&#160;provide: NG_VALUE_ACCESSOR, multi: true, useExisting: NgDropdownComponent,
}&#45;&gt;NgDropdownComponent</title>
<path fill="none" stroke="black" d="M958.83,-115.63C958.83,-115.63 958.83,-150.2 958.83,-150.2"/>
<polygon fill="black" stroke="black" points="955.33,-150.2 958.83,-160.2 962.33,-150.2 955.33,-150.2"/>
</g>
<!-- {
 &#160;&#160;&#160;provide: NG_VALIDATORS, multi: true, useExisting: forwardRef(() =&gt; NgDropdownComponent),
} -->
<g id="node7" class="node">
<title>{
 &#160;&#160;&#160;provide: NG_VALIDATORS, multi: true, useExisting: forwardRef(() =&gt; NgDropdownComponent),
}</title>
<ellipse fill="#fdb462" stroke="black" cx="444" cy="-90.1" rx="420.02" ry="41.09"/>
<text text-anchor="middle" x="444" y="-102.7" font-family="Times,serif" font-size="14.00">{</text>
<text text-anchor="middle" x="444" y="-85.9" font-family="Times,serif" font-size="14.00"> &#160;&#160;&#160;provide: NG_VALIDATORS, multi: true, useExisting: forwardRef(() =&gt; NgDropdownComponent),</text>
<text text-anchor="middle" x="444" y="-69.1" font-family="Times,serif" font-size="14.00">}</text>
</g>
<!-- {
 &#160;&#160;&#160;provide: NG_VALIDATORS, multi: true, useExisting: forwardRef(() =&gt; NgDropdownComponent),
}&#45;&gt;NgDropdownComponent -->
<g id="edge3" class="edge">
<title>{
 &#160;&#160;&#160;provide: NG_VALIDATORS, multi: true, useExisting: forwardRef(() =&gt; NgDropdownComponent),
}&#45;&gt;NgDropdownComponent</title>
<path fill="none" stroke="black" d="M864.07,-90.39C868.2,-90.39 870.43,-90.39 870.43,-90.39 870.43,-90.39 870.43,-178.39 870.43,-178.39 870.43,-178.39 871.04,-178.39 871.04,-178.39"/>
<polygon fill="black" stroke="black" points="866.58,-181.89 876.58,-178.39 866.58,-174.89 866.58,-181.89"/>
</g>
</g>
</svg>
