<?xml version="1.0" encoding="UTF-8" standalone="no"?>
<!DOCTYPE svg PUBLIC "-//W3C//DTD SVG 1.1//EN"
 "http://www.w3.org/Graphics/SVG/1.1/DTD/svg11.dtd">
<!-- Generated by graphviz version 2.47.0 (20210316.0004)
 -->
<!-- Title: dependencies Pages: 1 -->
<svg width="504pt" height="284pt"
 viewBox="0.00 0.00 504.00 284.00" xmlns="http://www.w3.org/2000/svg" xmlns:xlink="http://www.w3.org/1999/xlink">
<g id="graph0" class="graph" transform="scale(1 1) rotate(0) translate(4 280)">
<title>dependencies</title>
<polygon fill="white" stroke="transparent" points="-4,4 -4,-280 500,-280 500,4 -4,4"/>
<text text-anchor="start" x="227.01" y="-42.4" font-family="Times-12" font-weight="bold" font-size="14.00">Legend</text>
<polygon fill="#ffffb3" stroke="transparent" points="14,-10 14,-30 34,-30 34,-10 14,-10"/>
<text text-anchor="start" x="37.63" y="-15.4" font-family="Times-12" font-size="14.00"> &#160;Declarations</text>
<polygon fill="#8dd3c7" stroke="transparent" points="127,-10 127,-30 147,-30 147,-10 127,-10"/>
<text text-anchor="start" x="150.73" y="-15.4" font-family="Times-12" font-size="14.00"> &#160;Module</text>
<polygon fill="#80b1d3" stroke="transparent" points="213,-10 213,-30 233,-30 233,-10 213,-10"/>
<text text-anchor="start" x="236.78" y="-15.4" font-family="Times-12" font-size="14.00"> &#160;Bootstrap</text>
<polygon fill="#fdb462" stroke="transparent" points="310,-10 310,-30 330,-30 330,-10 310,-10"/>
<text text-anchor="start" x="333.67" y="-15.4" font-family="Times-12" font-size="14.00"> &#160;Providers</text>
<polygon fill="#fb8072" stroke="transparent" points="406,-10 406,-30 426,-30 426,-10 406,-10"/>
<text text-anchor="start" x="429.73" y="-15.4" font-family="Times-12" font-size="14.00"> &#160;Exports</text>
<g id="clust1" class="cluster">
<title>cluster_JNetworkBootstrap4ListModule</title>
<polygon fill="none" stroke="black" stroke-dasharray="1,5" points="65.5,-70 65.5,-268 430.5,-268 430.5,-70 65.5,-70"/>
</g>
<g id="clust2" class="cluster">
<title>cluster_JNetworkBootstrap4ListModule_declarations</title>
<polygon fill="none" stroke="black" points="76.5,-78 76.5,-130 418.5,-130 418.5,-78 76.5,-78"/>
</g>
<g id="clust6" class="cluster">
<title>cluster_JNetworkBootstrap4ListModule_exports</title>
<polygon fill="none" stroke="black" points="73.5,-208 73.5,-260 422.5,-260 422.5,-208 73.5,-208"/>
</g>
<!-- NgListboxComponent -->
<g id="node1" class="node">
<title>NgListboxComponent</title>
<polygon fill="#ffffb3" stroke="black" points="410.22,-122 268.78,-122 268.78,-86 410.22,-86 410.22,-122"/>
<text text-anchor="middle" x="339.5" y="-99.8" font-family="Times,serif" font-size="14.00">NgListboxComponent</text>
</g>
<!-- JNetworkBootstrap4ListModule -->
<g id="node3" class="node">
<title>JNetworkBootstrap4ListModule</title>
<polygon fill="#8dd3c7" stroke="black" points="346.19,-187 343.19,-191 322.19,-191 319.19,-187 148.81,-187 148.81,-151 346.19,-151 346.19,-187"/>
<text text-anchor="middle" x="247.5" y="-164.8" font-family="Times,serif" font-size="14.00">JNetworkBootstrap4ListModule</text>
</g>
<!-- NgListboxComponent&#45;&gt;JNetworkBootstrap4ListModule -->
<g id="edge1" class="edge">
<title>NgListboxComponent&#45;&gt;JNetworkBootstrap4ListModule</title>
<path fill="none" stroke="black" d="M307.49,-122.11C307.49,-122.11 307.49,-140.99 307.49,-140.99"/>
<polygon fill="black" stroke="black" points="303.99,-140.99 307.49,-150.99 310.99,-140.99 303.99,-140.99"/>
</g>
<!-- NgListboxOptionDirective -->
<g id="node2" class="node">
<title>NgListboxOptionDirective</title>
<polygon fill="#ffffb3" stroke="black" points="250.86,-122 84.14,-122 84.14,-86 250.86,-86 250.86,-122"/>
<text text-anchor="middle" x="167.5" y="-99.8" font-family="Times,serif" font-size="14.00">NgListboxOptionDirective</text>
</g>
<!-- NgListboxOptionDirective&#45;&gt;JNetworkBootstrap4ListModule -->
<g id="edge2" class="edge">
<title>NgListboxOptionDirective&#45;&gt;JNetworkBootstrap4ListModule</title>
<path fill="none" stroke="black" d="M199.92,-122.11C199.92,-122.11 199.92,-140.99 199.92,-140.99"/>
<polygon fill="black" stroke="black" points="196.42,-140.99 199.92,-150.99 203.42,-140.99 196.42,-140.99"/>
</g>
<!-- NgListboxComponent  -->
<g id="node4" class="node">
<title>NgListboxComponent </title>
<polygon fill="#fb8072" stroke="black" points="414.72,-252 270.28,-252 270.28,-216 414.72,-216 414.72,-252"/>
<text text-anchor="middle" x="342.5" y="-229.8" font-family="Times,serif" font-size="14.00">NgListboxComponent </text>
</g>
<!-- JNetworkBootstrap4ListModule&#45;&gt;NgListboxComponent  -->
<g id="edge3" class="edge">
<title>JNetworkBootstrap4ListModule&#45;&gt;NgListboxComponent </title>
<path fill="none" stroke="black" stroke-dasharray="5,2" d="M308.12,-187.11C308.12,-187.11 308.12,-205.99 308.12,-205.99"/>
<polygon fill="black" stroke="black" points="304.62,-205.99 308.12,-215.99 311.62,-205.99 304.62,-205.99"/>
</g>
<!-- NgListboxOptionDirective  -->
<g id="node5" class="node">
<title>NgListboxOptionDirective </title>
<polygon fill="#fb8072" stroke="black" points="251.86,-252 81.14,-252 81.14,-216 251.86,-216 251.86,-252"/>
<text text-anchor="middle" x="166.5" y="-229.8" font-family="Times,serif" font-size="14.00">NgListboxOptionDirective </text>
</g>
<!-- JNetworkBootstrap4ListModule&#45;&gt;NgListboxOptionDirective  -->
<g id="edge4" class="edge">
<title>JNetworkBootstrap4ListModule&#45;&gt;NgListboxOptionDirective </title>
<path fill="none" stroke="black" stroke-dasharray="5,2" d="M200.29,-187.11C200.29,-187.11 200.29,-205.99 200.29,-205.99"/>
<polygon fill="black" stroke="black" points="196.79,-205.99 200.29,-215.99 203.79,-205.99 196.79,-205.99"/>
</g>
</g>
</svg>
