<?xml version="1.0" encoding="UTF-8" standalone="no"?>
<!DOCTYPE svg PUBLIC "-//W3C//DTD SVG 1.1//EN"
 "http://www.w3.org/Graphics/SVG/1.1/DTD/svg11.dtd">
<!-- Generated by graphviz version 2.47.3 (20210619.1520)
 -->
<!-- Title: dependencies Pages: 1 -->
<svg width="1626pt" height="312pt"
 viewBox="0.00 0.00 1626.00 311.80" xmlns="http://www.w3.org/2000/svg" xmlns:xlink="http://www.w3.org/1999/xlink">
<g id="graph0" class="graph" transform="scale(1 1) rotate(0) translate(4 307.8)">
<title>dependencies</title>
<polygon fill="white" stroke="transparent" points="-4,4 -4,-307.8 1622,-307.8 1622,4 -4,4"/>
<text text-anchor="middle" x="809" y="-8.2" font-family="sans-serif" font-size="14.00">dependencies</text>
<g id="clust1" class="cluster">
<title>cluster_JNetworkBootstrap4ListModule</title>
<polygon fill="none" stroke="black" stroke-dasharray="1,5" points="8,-32.8 8,-295.8 1610,-295.8 1610,-32.8 8,-32.8"/>
</g>
<g id="clust2" class="cluster">
<title>cluster_JNetworkBootstrap4ListModule_declarations</title>
<polygon fill="none" stroke="black" points="311,-105.8 311,-157.8 1031,-157.8 1031,-105.8 311,-105.8"/>
</g>
<g id="clust3" class="cluster">
<title>cluster_JNetworkBootstrap4ListModule_NgDropdownComponent_providers</title>
<polygon fill="none" stroke="black" points="16,-40.8 16,-92.8 1602,-92.8 1602,-40.8 16,-40.8"/>
</g>
<g id="clust8" class="cluster">
<title>cluster_JNetworkBootstrap4ListModule_exports</title>
<polygon fill="none" stroke="black" points="303,-235.8 303,-287.8 1038,-287.8 1038,-235.8 303,-235.8"/>
</g>
<!-- NgDropdownComponent -->
<g id="node1" class="node">
<title>NgDropdownComponent</title>
<polygon fill="#ffffb3" stroke="black" points="1023.31,-149.8 864.69,-149.8 864.69,-113.8 1023.31,-113.8 1023.31,-149.8"/>
<text text-anchor="middle" x="944" y="-127.6" font-family="Times,serif" font-size="14.00">NgDropdownComponent</text>
</g>
<!-- JNetworkBootstrap4ListModule -->
<g id="node5" class="node">
<title>JNetworkBootstrap4ListModule</title>
<polygon fill="#8dd3c7" stroke="black" points="762.69,-214.8 759.69,-218.8 738.69,-218.8 735.69,-214.8 565.31,-214.8 565.31,-178.8 762.69,-178.8 762.69,-214.8"/>
<text text-anchor="middle" x="664" y="-192.6" font-family="Times,serif" font-size="14.00">JNetworkBootstrap4ListModule</text>
</g>
<!-- NgDropdownComponent&#45;&gt;JNetworkBootstrap4ListModule -->
<g id="edge1" class="edge">
<title>NgDropdownComponent&#45;&gt;JNetworkBootstrap4ListModule</title>
<path fill="none" stroke="black" d="M971.47,-149.82C971.47,-167.17 971.47,-190.8 971.47,-190.8 971.47,-190.8 772.98,-190.8 772.98,-190.8"/>
<polygon fill="black" stroke="black" points="772.98,-187.3 762.98,-190.8 772.98,-194.3 772.98,-187.3"/>
</g>
<!-- NgDropdownOptionDirective -->
<g id="node2" class="node">
<title>NgDropdownOptionDirective</title>
<polygon fill="#ffffb3" stroke="black" points="846.95,-149.8 663.05,-149.8 663.05,-113.8 846.95,-113.8 846.95,-149.8"/>
<text text-anchor="middle" x="755" y="-127.6" font-family="Times,serif" font-size="14.00">NgDropdownOptionDirective</text>
</g>
<!-- NgDropdownOptionDirective&#45;&gt;JNetworkBootstrap4ListModule -->
<g id="edge4" class="edge">
<title>NgDropdownOptionDirective&#45;&gt;JNetworkBootstrap4ListModule</title>
<path fill="none" stroke="black" d="M712.81,-149.91C712.81,-149.91 712.81,-168.79 712.81,-168.79"/>
<polygon fill="black" stroke="black" points="709.31,-168.79 712.81,-178.79 716.31,-168.79 709.31,-168.79"/>
</g>
<!-- NgListboxComponent -->
<g id="node3" class="node">
<title>NgListboxComponent</title>
<polygon fill="#ffffb3" stroke="black" points="644.72,-149.8 503.28,-149.8 503.28,-113.8 644.72,-113.8 644.72,-149.8"/>
<text text-anchor="middle" x="574" y="-127.6" font-family="Times,serif" font-size="14.00">NgListboxComponent</text>
</g>
<!-- NgListboxComponent&#45;&gt;JNetworkBootstrap4ListModule -->
<g id="edge5" class="edge">
<title>NgListboxComponent&#45;&gt;JNetworkBootstrap4ListModule</title>
<path fill="none" stroke="black" d="M605.01,-149.91C605.01,-149.91 605.01,-168.79 605.01,-168.79"/>
<polygon fill="black" stroke="black" points="601.51,-168.79 605.01,-178.79 608.51,-168.79 601.51,-168.79"/>
</g>
<!-- NgListboxOptionDirective -->
<g id="node4" class="node">
<title>NgListboxOptionDirective</title>
<polygon fill="#ffffb3" stroke="black" points="485.36,-149.8 318.64,-149.8 318.64,-113.8 485.36,-113.8 485.36,-149.8"/>
<text text-anchor="middle" x="402" y="-127.6" font-family="Times,serif" font-size="14.00">NgListboxOptionDirective</text>
</g>
<!-- NgListboxOptionDirective&#45;&gt;JNetworkBootstrap4ListModule -->
<g id="edge6" class="edge">
<title>NgListboxOptionDirective&#45;&gt;JNetworkBootstrap4ListModule</title>
<path fill="none" stroke="black" d="M426.98,-149.82C426.98,-167.17 426.98,-190.8 426.98,-190.8 426.98,-190.8 555.2,-190.8 555.2,-190.8"/>
<polygon fill="black" stroke="black" points="555.2,-194.3 565.2,-190.8 555.2,-187.3 555.2,-194.3"/>
</g>
<!-- NgDropdownComponent  -->
<g id="node8" class="node">
<title>NgDropdownComponent </title>
<polygon fill="#fb8072" stroke="black" points="1029.81,-279.8 868.19,-279.8 868.19,-243.8 1029.81,-243.8 1029.81,-279.8"/>
<text text-anchor="middle" x="949" y="-257.6" font-family="Times,serif" font-size="14.00">NgDropdownComponent </text>
</g>
<!-- JNetworkBootstrap4ListModule&#45;&gt;NgDropdownComponent  -->
<g id="edge7" class="edge">
<title>JNetworkBootstrap4ListModule&#45;&gt;NgDropdownComponent </title>
<path fill="none" stroke="black" stroke-dasharray="5,2" d="M762.89,-202.8C834.87,-202.8 919.78,-202.8 919.78,-202.8 919.78,-202.8 919.78,-233.78 919.78,-233.78"/>
<polygon fill="black" stroke="black" points="916.28,-233.78 919.78,-243.78 923.28,-233.78 916.28,-233.78"/>
</g>
<!-- NgDropdownOptionDirective  -->
<g id="node9" class="node">
<title>NgDropdownOptionDirective </title>
<polygon fill="#fb8072" stroke="black" points="849.95,-279.8 662.05,-279.8 662.05,-243.8 849.95,-243.8 849.95,-279.8"/>
<text text-anchor="middle" x="756" y="-257.6" font-family="Times,serif" font-size="14.00">NgDropdownOptionDirective </text>
</g>
<!-- JNetworkBootstrap4ListModule&#45;&gt;NgDropdownOptionDirective  -->
<g id="edge8" class="edge">
<title>JNetworkBootstrap4ListModule&#45;&gt;NgDropdownOptionDirective </title>
<path fill="none" stroke="black" stroke-dasharray="5,2" d="M712.43,-214.91C712.43,-214.91 712.43,-233.79 712.43,-233.79"/>
<polygon fill="black" stroke="black" points="708.93,-233.79 712.43,-243.79 715.93,-233.79 708.93,-233.79"/>
</g>
<!-- NgListboxComponent  -->
<g id="node10" class="node">
<title>NgListboxComponent </title>
<polygon fill="#fb8072" stroke="black" points="644.22,-279.8 499.78,-279.8 499.78,-243.8 644.22,-243.8 644.22,-279.8"/>
<text text-anchor="middle" x="572" y="-257.6" font-family="Times,serif" font-size="14.00">NgListboxComponent </text>
</g>
<!-- JNetworkBootstrap4ListModule&#45;&gt;NgListboxComponent  -->
<g id="edge9" class="edge">
<title>JNetworkBootstrap4ListModule&#45;&gt;NgListboxComponent </title>
<path fill="none" stroke="black" stroke-dasharray="5,2" d="M604.88,-214.91C604.88,-214.91 604.88,-233.79 604.88,-233.79"/>
<polygon fill="black" stroke="black" points="601.38,-233.79 604.88,-243.79 608.38,-233.79 601.38,-233.79"/>
</g>
<!-- NgListboxOptionDirective  -->
<g id="node11" class="node">
<title>NgListboxOptionDirective </title>
<polygon fill="#fb8072" stroke="black" points="481.36,-279.8 310.64,-279.8 310.64,-243.8 481.36,-243.8 481.36,-279.8"/>
<text text-anchor="middle" x="396" y="-257.6" font-family="Times,serif" font-size="14.00">NgListboxOptionDirective </text>
</g>
<!-- JNetworkBootstrap4ListModule&#45;&gt;NgListboxOptionDirective  -->
<g id="edge10" class="edge">
<title>JNetworkBootstrap4ListModule&#45;&gt;NgListboxOptionDirective </title>
<path fill="none" stroke="black" stroke-dasharray="5,2" d="M565.4,-202.8C480.92,-202.8 372.77,-202.8 372.77,-202.8 372.77,-202.8 372.77,-233.78 372.77,-233.78"/>
<polygon fill="black" stroke="black" points="369.27,-233.78 372.77,-243.78 376.27,-233.78 369.27,-233.78"/>
</g>
<!-- { provide: NG_VALUE_ACCESSOR, multi: true, useExisting: NgDropdownComponent } -->
<g id="node6" class="node">
<title>{ provide: NG_VALUE_ACCESSOR, multi: true, useExisting: NgDropdownComponent }</title>
<ellipse fill="#fdb462" stroke="black" cx="1230" cy="-66.8" rx="364.36" ry="18"/>
<text text-anchor="middle" x="1230" y="-62.6" font-family="Times,serif" font-size="14.00">{ provide: NG_VALUE_ACCESSOR, multi: true, useExisting: NgDropdownComponent }</text>
</g>
<!-- { provide: NG_VALUE_ACCESSOR, multi: true, useExisting: NgDropdownComponent }&#45;&gt;NgDropdownComponent -->
<g id="edge2" class="edge">
<title>{ provide: NG_VALUE_ACCESSOR, multi: true, useExisting: NgDropdownComponent }&#45;&gt;NgDropdownComponent</title>
<path fill="none" stroke="black" d="M944.36,-78.12C944.36,-78.12 944.36,-103.74 944.36,-103.74"/>
<polygon fill="black" stroke="black" points="940.86,-103.74 944.36,-113.74 947.86,-103.74 940.86,-103.74"/>
</g>
<!-- { provide: NG_VALIDATORS, multi: true, useExisting: forwardRef(() =&gt; NgDropdownComponent) } -->
<g id="node7" class="node">
<title>{ provide: NG_VALIDATORS, multi: true, useExisting: forwardRef(() =&gt; NgDropdownComponent) }</title>
<ellipse fill="#fdb462" stroke="black" cx="436" cy="-66.8" rx="411.99" ry="18"/>
<text text-anchor="middle" x="436" y="-62.6" font-family="Times,serif" font-size="14.00">{ provide: NG_VALIDATORS, multi: true, useExisting: forwardRef(() =&gt; NgDropdownComponent) }</text>
</g>
<!-- { provide: NG_VALIDATORS, multi: true, useExisting: forwardRef(() =&gt; NgDropdownComponent) }&#45;&gt;NgDropdownComponent -->
<g id="edge3" class="edge">
<title>{ provide: NG_VALIDATORS, multi: true, useExisting: forwardRef(() =&gt; NgDropdownComponent) }&#45;&gt;NgDropdownComponent</title>
<path fill="none" stroke="black" d="M848.09,-66.8C854.03,-66.8 857.28,-66.8 857.28,-66.8 857.28,-66.8 857.28,-131.8 857.28,-131.8 857.28,-131.8 858.02,-131.8 858.02,-131.8"/>
<polygon fill="black" stroke="black" points="854.68,-135.3 864.68,-131.8 854.68,-128.3 854.68,-135.3"/>
</g>
</g>
</svg>
