<?xml version="1.0" encoding="UTF-8" standalone="no"?>
<!DOCTYPE svg PUBLIC "-//W3C//DTD SVG 1.1//EN"
 "http://www.w3.org/Graphics/SVG/1.1/DTD/svg11.dtd">
<!-- Generated by graphviz version 2.47.3 (20210619.1520)
 -->
<!-- Title: dependencies Pages: 1 -->
<svg width="2210pt" height="358pt"
 viewBox="0.00 0.00 2210.00 358.39" xmlns="http://www.w3.org/2000/svg" xmlns:xlink="http://www.w3.org/1999/xlink">
<g id="graph0" class="graph" transform="scale(1 1) rotate(0) translate(4 354.39)">
<title>dependencies</title>
<polygon fill="white" stroke="transparent" points="-4,4 -4,-354.39 2206,-354.39 2206,4 -4,4"/>
<text text-anchor="middle" x="1101" y="-8.2" font-family="sans-serif" font-size="14.00">dependencies</text>
<g id="clust1" class="cluster">
<title>cluster_JNetworkBootstrap4ListModule</title>
<polygon fill="none" stroke="black" stroke-dasharray="1,5" points="8,-32.8 8,-342.39 2194,-342.39 2194,-32.8 8,-32.8"/>
</g>
<g id="clust3" class="cluster">
<title>cluster_JNetworkBootstrap4ListModule_NgDropdownComponent_providers</title>
<polygon fill="none" stroke="black" points="568,-40.8 568,-204.39 2186,-204.39 2186,-40.8 568,-40.8"/>
</g>
<g id="clust2" class="cluster">
<title>cluster_JNetworkBootstrap4ListModule_declarations</title>
<polygon fill="none" stroke="black" points="16,-152.39 16,-204.39 560,-204.39 560,-152.39 16,-152.39"/>
</g>
<g id="clust8" class="cluster">
<title>cluster_JNetworkBootstrap4ListModule_exports</title>
<polygon fill="none" stroke="black" points="103,-282.39 103,-334.39 838,-334.39 838,-282.39 103,-282.39"/>
</g>
<!-- NgDropdownComponent -->
<g id="node1" class="node">
<title>NgDropdownComponent</title>
<polygon fill="#ffffb3" stroke="black" points="1075.31,-196.39 916.69,-196.39 916.69,-160.39 1075.31,-160.39 1075.31,-196.39"/>
<text text-anchor="middle" x="996" y="-174.19" font-family="Times,serif" font-size="14.00">NgDropdownComponent</text>
</g>
<!-- JNetworkBootstrap4ListModule -->
<g id="node5" class="node">
<title>JNetworkBootstrap4ListModule</title>
<polygon fill="#8dd3c7" stroke="black" points="514.69,-261.39 511.69,-265.39 490.69,-265.39 487.69,-261.39 317.31,-261.39 317.31,-225.39 514.69,-225.39 514.69,-261.39"/>
<text text-anchor="middle" x="416" y="-239.19" font-family="Times,serif" font-size="14.00">JNetworkBootstrap4ListModule</text>
</g>
<!-- NgDropdownComponent&#45;&gt;JNetworkBootstrap4ListModule -->
<g id="edge1" class="edge">
<title>NgDropdownComponent&#45;&gt;JNetworkBootstrap4ListModule</title>
<path fill="none" stroke="black" d="M996,-196.41C996,-213.76 996,-237.39 996,-237.39 996,-237.39 524.72,-237.39 524.72,-237.39"/>
<polygon fill="black" stroke="black" points="524.72,-233.89 514.72,-237.39 524.72,-240.89 524.72,-233.89"/>
</g>
<!-- NgDropdownOptionDirective -->
<g id="node2" class="node">
<title>NgDropdownOptionDirective</title>
<polygon fill="#ffffb3" stroke="black" points="551.95,-196.39 368.05,-196.39 368.05,-160.39 551.95,-160.39 551.95,-196.39"/>
<text text-anchor="middle" x="460" y="-174.19" font-family="Times,serif" font-size="14.00">NgDropdownOptionDirective</text>
</g>
<!-- NgDropdownOptionDirective&#45;&gt;JNetworkBootstrap4ListModule -->
<g id="edge4" class="edge">
<title>NgDropdownOptionDirective&#45;&gt;JNetworkBootstrap4ListModule</title>
<path fill="none" stroke="black" d="M441.31,-196.5C441.31,-196.5 441.31,-215.38 441.31,-215.38"/>
<polygon fill="black" stroke="black" points="437.81,-215.38 441.31,-225.38 444.81,-215.38 437.81,-215.38"/>
</g>
<!-- NgListboxComponent -->
<g id="node3" class="node">
<title>NgListboxComponent</title>
<polygon fill="#ffffb3" stroke="black" points="349.72,-196.39 208.28,-196.39 208.28,-160.39 349.72,-160.39 349.72,-196.39"/>
<text text-anchor="middle" x="279" y="-174.19" font-family="Times,serif" font-size="14.00">NgListboxComponent</text>
</g>
<!-- NgListboxComponent&#45;&gt;JNetworkBootstrap4ListModule -->
<g id="edge5" class="edge">
<title>NgListboxComponent&#45;&gt;JNetworkBootstrap4ListModule</title>
<path fill="none" stroke="black" d="M333.51,-196.5C333.51,-196.5 333.51,-215.38 333.51,-215.38"/>
<polygon fill="black" stroke="black" points="330.01,-215.38 333.51,-225.38 337.01,-215.38 330.01,-215.38"/>
</g>
<!-- NgListboxOptionDirective -->
<g id="node4" class="node">
<title>NgListboxOptionDirective</title>
<polygon fill="#ffffb3" stroke="black" points="190.36,-196.39 23.64,-196.39 23.64,-160.39 190.36,-160.39 190.36,-196.39"/>
<text text-anchor="middle" x="107" y="-174.19" font-family="Times,serif" font-size="14.00">NgListboxOptionDirective</text>
</g>
<!-- NgListboxOptionDirective&#45;&gt;JNetworkBootstrap4ListModule -->
<g id="edge6" class="edge">
<title>NgListboxOptionDirective&#45;&gt;JNetworkBootstrap4ListModule</title>
<path fill="none" stroke="black" d="M150.62,-196.41C150.62,-213.76 150.62,-237.39 150.62,-237.39 150.62,-237.39 307.18,-237.39 307.18,-237.39"/>
<polygon fill="black" stroke="black" points="307.18,-240.89 317.18,-237.39 307.18,-233.89 307.18,-240.89"/>
</g>
<!-- NgDropdownComponent  -->
<g id="node8" class="node">
<title>NgDropdownComponent </title>
<polygon fill="#fb8072" stroke="black" points="829.81,-326.39 668.19,-326.39 668.19,-290.39 829.81,-290.39 829.81,-326.39"/>
<text text-anchor="middle" x="749" y="-304.19" font-family="Times,serif" font-size="14.00">NgDropdownComponent </text>
</g>
<!-- JNetworkBootstrap4ListModule&#45;&gt;NgDropdownComponent  -->
<g id="edge7" class="edge">
<title>JNetworkBootstrap4ListModule&#45;&gt;NgDropdownComponent </title>
<path fill="none" stroke="black" stroke-dasharray="5,2" d="M515.01,-249.39C613.17,-249.39 749,-249.39 749,-249.39 749,-249.39 749,-280.37 749,-280.37"/>
<polygon fill="black" stroke="black" points="745.5,-280.37 749,-290.37 752.5,-280.37 745.5,-280.37"/>
</g>
<!-- NgDropdownOptionDirective  -->
<g id="node9" class="node">
<title>NgDropdownOptionDirective </title>
<polygon fill="#fb8072" stroke="black" points="649.95,-326.39 462.05,-326.39 462.05,-290.39 649.95,-290.39 649.95,-326.39"/>
<text text-anchor="middle" x="556" y="-304.19" font-family="Times,serif" font-size="14.00">NgDropdownOptionDirective </text>
</g>
<!-- JNetworkBootstrap4ListModule&#45;&gt;NgDropdownOptionDirective  -->
<g id="edge8" class="edge">
<title>JNetworkBootstrap4ListModule&#45;&gt;NgDropdownOptionDirective </title>
<path fill="none" stroke="black" stroke-dasharray="5,2" d="M488.43,-261.5C488.43,-261.5 488.43,-280.38 488.43,-280.38"/>
<polygon fill="black" stroke="black" points="484.93,-280.38 488.43,-290.38 491.93,-280.38 484.93,-280.38"/>
</g>
<!-- NgListboxComponent  -->
<g id="node10" class="node">
<title>NgListboxComponent </title>
<polygon fill="#fb8072" stroke="black" points="444.22,-326.39 299.78,-326.39 299.78,-290.39 444.22,-290.39 444.22,-326.39"/>
<text text-anchor="middle" x="372" y="-304.19" font-family="Times,serif" font-size="14.00">NgListboxComponent </text>
</g>
<!-- JNetworkBootstrap4ListModule&#45;&gt;NgListboxComponent  -->
<g id="edge9" class="edge">
<title>JNetworkBootstrap4ListModule&#45;&gt;NgListboxComponent </title>
<path fill="none" stroke="black" stroke-dasharray="5,2" d="M380.88,-261.5C380.88,-261.5 380.88,-280.38 380.88,-280.38"/>
<polygon fill="black" stroke="black" points="377.38,-280.38 380.88,-290.38 384.38,-280.38 377.38,-280.38"/>
</g>
<!-- NgListboxOptionDirective  -->
<g id="node11" class="node">
<title>NgListboxOptionDirective </title>
<polygon fill="#fb8072" stroke="black" points="281.36,-326.39 110.64,-326.39 110.64,-290.39 281.36,-290.39 281.36,-326.39"/>
<text text-anchor="middle" x="196" y="-304.19" font-family="Times,serif" font-size="14.00">NgListboxOptionDirective </text>
</g>
<!-- JNetworkBootstrap4ListModule&#45;&gt;NgListboxOptionDirective  -->
<g id="edge10" class="edge">
<title>JNetworkBootstrap4ListModule&#45;&gt;NgListboxOptionDirective </title>
<path fill="none" stroke="black" stroke-dasharray="5,2" d="M317.4,-249.39C279.34,-249.39 244.78,-249.39 244.78,-249.39 244.78,-249.39 244.78,-280.37 244.78,-280.37"/>
<polygon fill="black" stroke="black" points="241.28,-280.37 244.78,-290.37 248.28,-280.37 241.28,-280.37"/>
</g>
<!-- {
 &#160;&#160;&#160;provide: NG_VALUE_ACCESSOR, multi: true, useExisting: NgDropdownComponent,
} -->
<g id="node6" class="node">
<title>{
 &#160;&#160;&#160;provide: NG_VALUE_ACCESSOR, multi: true, useExisting: NgDropdownComponent,
}</title>
<ellipse fill="#fdb462" stroke="black" cx="1806" cy="-90.1" rx="371.51" ry="41.09"/>
<text text-anchor="middle" x="1806" y="-102.7" font-family="Times,serif" font-size="14.00">{</text>
<text text-anchor="middle" x="1806" y="-85.9" font-family="Times,serif" font-size="14.00"> &#160;&#160;&#160;provide: NG_VALUE_ACCESSOR, multi: true, useExisting: NgDropdownComponent,</text>
<text text-anchor="middle" x="1806" y="-69.1" font-family="Times,serif" font-size="14.00">}</text>
</g>
<!-- {
 &#160;&#160;&#160;provide: NG_VALUE_ACCESSOR, multi: true, useExisting: NgDropdownComponent,
}&#45;&gt;NgDropdownComponent -->
<g id="edge2" class="edge">
<title>{
 &#160;&#160;&#160;provide: NG_VALUE_ACCESSOR, multi: true, useExisting: NgDropdownComponent,
}&#45;&gt;NgDropdownComponent</title>
<path fill="none" stroke="black" d="M1806,-131.4C1806,-154.38 1806,-178.39 1806,-178.39 1806,-178.39 1085.51,-178.39 1085.51,-178.39"/>
<polygon fill="black" stroke="black" points="1085.51,-174.89 1075.51,-178.39 1085.51,-181.89 1085.51,-174.89"/>
</g>
<!-- {
 &#160;&#160;&#160;provide: NG_VALIDATORS, multi: true, useExisting: forwardRef(() =&gt; NgDropdownComponent),
} -->
<g id="node7" class="node">
<title>{
 &#160;&#160;&#160;provide: NG_VALIDATORS, multi: true, useExisting: forwardRef(() =&gt; NgDropdownComponent),
}</title>
<ellipse fill="#fdb462" stroke="black" cx="996" cy="-90.1" rx="420.02" ry="41.09"/>
<text text-anchor="middle" x="996" y="-102.7" font-family="Times,serif" font-size="14.00">{</text>
<text text-anchor="middle" x="996" y="-85.9" font-family="Times,serif" font-size="14.00"> &#160;&#160;&#160;provide: NG_VALIDATORS, multi: true, useExisting: forwardRef(() =&gt; NgDropdownComponent),</text>
<text text-anchor="middle" x="996" y="-69.1" font-family="Times,serif" font-size="14.00">}</text>
</g>
<!-- {
 &#160;&#160;&#160;provide: NG_VALIDATORS, multi: true, useExisting: forwardRef(() =&gt; NgDropdownComponent),
}&#45;&gt;NgDropdownComponent -->
<g id="edge3" class="edge">
<title>{
 &#160;&#160;&#160;provide: NG_VALIDATORS, multi: true, useExisting: forwardRef(() =&gt; NgDropdownComponent),
}&#45;&gt;NgDropdownComponent</title>
<path fill="none" stroke="black" d="M996,-131.4C996,-131.4 996,-150.06 996,-150.06"/>
<polygon fill="black" stroke="black" points="992.5,-150.06 996,-160.06 999.5,-150.06 992.5,-150.06"/>
</g>
</g>
</svg>
