<?xml version="1.0" encoding="UTF-8" standalone="no"?>
<!DOCTYPE svg PUBLIC "-//W3C//DTD SVG 1.1//EN"
 "http://www.w3.org/Graphics/SVG/1.1/DTD/svg11.dtd">
<!-- Generated by graphviz version 2.47.3 (20210619.1520)
 -->
<!-- Title: dependencies Pages: 1 -->
<svg width="2178pt" height="312pt"
 viewBox="0.00 0.00 2178.00 311.80" xmlns="http://www.w3.org/2000/svg" xmlns:xlink="http://www.w3.org/1999/xlink">
<g id="graph0" class="graph" transform="scale(1 1) rotate(0) translate(4 307.8)">
<title>dependencies</title>
<polygon fill="white" stroke="transparent" points="-4,4 -4,-307.8 2174,-307.8 2174,4 -4,4"/>
<text text-anchor="middle" x="1085" y="-8.2" font-family="sans-serif" font-size="14.00">dependencies</text>
<g id="clust1" class="cluster">
<title>cluster_JNetworkBootstrap4ListModule</title>
<polygon fill="none" stroke="black" stroke-dasharray="1,5" points="8,-32.8 8,-295.8 2162,-295.8 2162,-32.8 8,-32.8"/>
</g>
<g id="clust3" class="cluster">
<title>cluster_JNetworkBootstrap4ListModule_NgDropdownComponent_providers</title>
<polygon fill="none" stroke="black" points="568,-40.8 568,-157.8 2154,-157.8 2154,-40.8 568,-40.8"/>
</g>
<g id="clust2" class="cluster">
<title>cluster_JNetworkBootstrap4ListModule_declarations</title>
<polygon fill="none" stroke="black" points="16,-105.8 16,-157.8 560,-157.8 560,-105.8 16,-105.8"/>
</g>
<g id="clust8" class="cluster">
<title>cluster_JNetworkBootstrap4ListModule_exports</title>
<polygon fill="none" stroke="black" points="103,-235.8 103,-287.8 838,-287.8 838,-235.8 103,-235.8"/>
</g>
<!-- NgDropdownComponent -->
<g id="node1" class="node">
<title>NgDropdownComponent</title>
<polygon fill="#ffffb3" stroke="black" points="1067.31,-149.8 908.69,-149.8 908.69,-113.8 1067.31,-113.8 1067.31,-149.8"/>
<text text-anchor="middle" x="988" y="-127.6" font-family="Times,serif" font-size="14.00">NgDropdownComponent</text>
</g>
<!-- JNetworkBootstrap4ListModule -->
<g id="node5" class="node">
<title>JNetworkBootstrap4ListModule</title>
<polygon fill="#8dd3c7" stroke="black" points="514.69,-214.8 511.69,-218.8 490.69,-218.8 487.69,-214.8 317.31,-214.8 317.31,-178.8 514.69,-178.8 514.69,-214.8"/>
<text text-anchor="middle" x="416" y="-192.6" font-family="Times,serif" font-size="14.00">JNetworkBootstrap4ListModule</text>
</g>
<!-- NgDropdownComponent&#45;&gt;JNetworkBootstrap4ListModule -->
<g id="edge1" class="edge">
<title>NgDropdownComponent&#45;&gt;JNetworkBootstrap4ListModule</title>
<path fill="none" stroke="black" d="M988,-149.82C988,-167.17 988,-190.8 988,-190.8 988,-190.8 524.66,-190.8 524.66,-190.8"/>
<polygon fill="black" stroke="black" points="524.66,-187.3 514.66,-190.8 524.66,-194.3 524.66,-187.3"/>
</g>
<!-- NgDropdownOptionDirective -->
<g id="node2" class="node">
<title>NgDropdownOptionDirective</title>
<polygon fill="#ffffb3" stroke="black" points="551.95,-149.8 368.05,-149.8 368.05,-113.8 551.95,-113.8 551.95,-149.8"/>
<text text-anchor="middle" x="460" y="-127.6" font-family="Times,serif" font-size="14.00">NgDropdownOptionDirective</text>
</g>
<!-- NgDropdownOptionDirective&#45;&gt;JNetworkBootstrap4ListModule -->
<g id="edge4" class="edge">
<title>NgDropdownOptionDirective&#45;&gt;JNetworkBootstrap4ListModule</title>
<path fill="none" stroke="black" d="M441.31,-149.91C441.31,-149.91 441.31,-168.79 441.31,-168.79"/>
<polygon fill="black" stroke="black" points="437.81,-168.79 441.31,-178.79 444.81,-168.79 437.81,-168.79"/>
</g>
<!-- NgListboxComponent -->
<g id="node3" class="node">
<title>NgListboxComponent</title>
<polygon fill="#ffffb3" stroke="black" points="349.72,-149.8 208.28,-149.8 208.28,-113.8 349.72,-113.8 349.72,-149.8"/>
<text text-anchor="middle" x="279" y="-127.6" font-family="Times,serif" font-size="14.00">NgListboxComponent</text>
</g>
<!-- NgListboxComponent&#45;&gt;JNetworkBootstrap4ListModule -->
<g id="edge5" class="edge">
<title>NgListboxComponent&#45;&gt;JNetworkBootstrap4ListModule</title>
<path fill="none" stroke="black" d="M333.51,-149.91C333.51,-149.91 333.51,-168.79 333.51,-168.79"/>
<polygon fill="black" stroke="black" points="330.01,-168.79 333.51,-178.79 337.01,-168.79 330.01,-168.79"/>
</g>
<!-- NgListboxOptionDirective -->
<g id="node4" class="node">
<title>NgListboxOptionDirective</title>
<polygon fill="#ffffb3" stroke="black" points="190.36,-149.8 23.64,-149.8 23.64,-113.8 190.36,-113.8 190.36,-149.8"/>
<text text-anchor="middle" x="107" y="-127.6" font-family="Times,serif" font-size="14.00">NgListboxOptionDirective</text>
</g>
<!-- NgListboxOptionDirective&#45;&gt;JNetworkBootstrap4ListModule -->
<g id="edge6" class="edge">
<title>NgListboxOptionDirective&#45;&gt;JNetworkBootstrap4ListModule</title>
<path fill="none" stroke="black" d="M150.62,-149.82C150.62,-167.17 150.62,-190.8 150.62,-190.8 150.62,-190.8 307.18,-190.8 307.18,-190.8"/>
<polygon fill="black" stroke="black" points="307.18,-194.3 317.18,-190.8 307.18,-187.3 307.18,-194.3"/>
</g>
<!-- NgDropdownComponent  -->
<g id="node8" class="node">
<title>NgDropdownComponent </title>
<polygon fill="#fb8072" stroke="black" points="829.81,-279.8 668.19,-279.8 668.19,-243.8 829.81,-243.8 829.81,-279.8"/>
<text text-anchor="middle" x="749" y="-257.6" font-family="Times,serif" font-size="14.00">NgDropdownComponent </text>
</g>
<!-- JNetworkBootstrap4ListModule&#45;&gt;NgDropdownComponent  -->
<g id="edge7" class="edge">
<title>JNetworkBootstrap4ListModule&#45;&gt;NgDropdownComponent </title>
<path fill="none" stroke="black" stroke-dasharray="5,2" d="M515.01,-202.8C613.17,-202.8 749,-202.8 749,-202.8 749,-202.8 749,-233.78 749,-233.78"/>
<polygon fill="black" stroke="black" points="745.5,-233.78 749,-243.78 752.5,-233.78 745.5,-233.78"/>
</g>
<!-- NgDropdownOptionDirective  -->
<g id="node9" class="node">
<title>NgDropdownOptionDirective </title>
<polygon fill="#fb8072" stroke="black" points="649.95,-279.8 462.05,-279.8 462.05,-243.8 649.95,-243.8 649.95,-279.8"/>
<text text-anchor="middle" x="556" y="-257.6" font-family="Times,serif" font-size="14.00">NgDropdownOptionDirective </text>
</g>
<!-- JNetworkBootstrap4ListModule&#45;&gt;NgDropdownOptionDirective  -->
<g id="edge8" class="edge">
<title>JNetworkBootstrap4ListModule&#45;&gt;NgDropdownOptionDirective </title>
<path fill="none" stroke="black" stroke-dasharray="5,2" d="M488.43,-214.91C488.43,-214.91 488.43,-233.79 488.43,-233.79"/>
<polygon fill="black" stroke="black" points="484.93,-233.79 488.43,-243.79 491.93,-233.79 484.93,-233.79"/>
</g>
<!-- NgListboxComponent  -->
<g id="node10" class="node">
<title>NgListboxComponent </title>
<polygon fill="#fb8072" stroke="black" points="444.22,-279.8 299.78,-279.8 299.78,-243.8 444.22,-243.8 444.22,-279.8"/>
<text text-anchor="middle" x="372" y="-257.6" font-family="Times,serif" font-size="14.00">NgListboxComponent </text>
</g>
<!-- JNetworkBootstrap4ListModule&#45;&gt;NgListboxComponent  -->
<g id="edge9" class="edge">
<title>JNetworkBootstrap4ListModule&#45;&gt;NgListboxComponent </title>
<path fill="none" stroke="black" stroke-dasharray="5,2" d="M380.88,-214.91C380.88,-214.91 380.88,-233.79 380.88,-233.79"/>
<polygon fill="black" stroke="black" points="377.38,-233.79 380.88,-243.79 384.38,-233.79 377.38,-233.79"/>
</g>
<!-- NgListboxOptionDirective  -->
<g id="node11" class="node">
<title>NgListboxOptionDirective </title>
<polygon fill="#fb8072" stroke="black" points="281.36,-279.8 110.64,-279.8 110.64,-243.8 281.36,-243.8 281.36,-279.8"/>
<text text-anchor="middle" x="196" y="-257.6" font-family="Times,serif" font-size="14.00">NgListboxOptionDirective </text>
</g>
<!-- JNetworkBootstrap4ListModule&#45;&gt;NgListboxOptionDirective  -->
<g id="edge10" class="edge">
<title>JNetworkBootstrap4ListModule&#45;&gt;NgListboxOptionDirective </title>
<path fill="none" stroke="black" stroke-dasharray="5,2" d="M317.4,-202.8C279.34,-202.8 244.78,-202.8 244.78,-202.8 244.78,-202.8 244.78,-233.78 244.78,-233.78"/>
<polygon fill="black" stroke="black" points="241.28,-233.78 244.78,-243.78 248.28,-233.78 241.28,-233.78"/>
</g>
<!-- { provide: NG_VALUE_ACCESSOR, multi: true, useExisting: NgDropdownComponent } -->
<g id="node6" class="node">
<title>{ provide: NG_VALUE_ACCESSOR, multi: true, useExisting: NgDropdownComponent }</title>
<ellipse fill="#fdb462" stroke="black" cx="1782" cy="-66.8" rx="364.36" ry="18"/>
<text text-anchor="middle" x="1782" y="-62.6" font-family="Times,serif" font-size="14.00">{ provide: NG_VALUE_ACCESSOR, multi: true, useExisting: NgDropdownComponent }</text>
</g>
<!-- { provide: NG_VALUE_ACCESSOR, multi: true, useExisting: NgDropdownComponent }&#45;&gt;NgDropdownComponent -->
<g id="edge2" class="edge">
<title>{ provide: NG_VALUE_ACCESSOR, multi: true, useExisting: NgDropdownComponent }&#45;&gt;NgDropdownComponent</title>
<path fill="none" stroke="black" d="M1782,-84.91C1782,-104.14 1782,-131.8 1782,-131.8 1782,-131.8 1077.4,-131.8 1077.4,-131.8"/>
<polygon fill="black" stroke="black" points="1077.4,-128.3 1067.4,-131.8 1077.4,-135.3 1077.4,-128.3"/>
</g>
<!-- { provide: NG_VALIDATORS, multi: true, useExisting: forwardRef(() =&gt; NgDropdownComponent) } -->
<g id="node7" class="node">
<title>{ provide: NG_VALIDATORS, multi: true, useExisting: forwardRef(() =&gt; NgDropdownComponent) }</title>
<ellipse fill="#fdb462" stroke="black" cx="988" cy="-66.8" rx="411.99" ry="18"/>
<text text-anchor="middle" x="988" y="-62.6" font-family="Times,serif" font-size="14.00">{ provide: NG_VALIDATORS, multi: true, useExisting: forwardRef(() =&gt; NgDropdownComponent) }</text>
</g>
<!-- { provide: NG_VALIDATORS, multi: true, useExisting: forwardRef(() =&gt; NgDropdownComponent) }&#45;&gt;NgDropdownComponent -->
<g id="edge3" class="edge">
<title>{ provide: NG_VALIDATORS, multi: true, useExisting: forwardRef(() =&gt; NgDropdownComponent) }&#45;&gt;NgDropdownComponent</title>
<path fill="none" stroke="black" d="M988,-84.91C988,-84.91 988,-103.79 988,-103.79"/>
<polygon fill="black" stroke="black" points="984.5,-103.79 988,-113.79 991.5,-103.79 984.5,-103.79"/>
</g>
</g>
</svg>
