<?xml version="1.0" encoding="UTF-8" standalone="no"?>
<!DOCTYPE svg PUBLIC "-//W3C//DTD SVG 1.1//EN"
 "http://www.w3.org/Graphics/SVG/1.1/DTD/svg11.dtd">
<!-- Generated by graphviz version 2.47.3 (20210619.1520)
 -->
<!-- Title: dependencies Pages: 1 -->
<svg width="389pt" height="247pt"
 viewBox="0.00 0.00 389.00 246.80" xmlns="http://www.w3.org/2000/svg" xmlns:xlink="http://www.w3.org/1999/xlink">
<g id="graph0" class="graph" transform="scale(1 1) rotate(0) translate(4 242.8)">
<title>dependencies</title>
<polygon fill="white" stroke="transparent" points="-4,4 -4,-242.8 385,-242.8 385,4 -4,4"/>
<text text-anchor="middle" x="190.5" y="-8.2" font-family="sans-serif" font-size="14.00">dependencies</text>
<g id="clust1" class="cluster">
<title>cluster_JNetworkBootstrap4ListModule</title>
<polygon fill="none" stroke="black" stroke-dasharray="1,5" points="8,-32.8 8,-230.8 373,-230.8 373,-32.8 8,-32.8"/>
</g>
<g id="clust6" class="cluster">
<title>cluster_JNetworkBootstrap4ListModule_exports</title>
<polygon fill="none" stroke="black" points="16,-170.8 16,-222.8 365,-222.8 365,-170.8 16,-170.8"/>
</g>
<g id="clust2" class="cluster">
<title>cluster_JNetworkBootstrap4ListModule_declarations</title>
<polygon fill="none" stroke="black" points="19,-40.8 19,-92.8 361,-92.8 361,-40.8 19,-40.8"/>
</g>
<!-- NgListboxComponent -->
<g id="node1" class="node">
<title>NgListboxComponent</title>
<polygon fill="#ffffb3" stroke="black" points="352.72,-84.8 211.28,-84.8 211.28,-48.8 352.72,-48.8 352.72,-84.8"/>
<text text-anchor="middle" x="282" y="-62.6" font-family="Times,serif" font-size="14.00">NgListboxComponent</text>
</g>
<!-- JNetworkBootstrap4ListModule -->
<g id="node3" class="node">
<title>JNetworkBootstrap4ListModule</title>
<polygon fill="#8dd3c7" stroke="black" points="288.69,-149.8 285.69,-153.8 264.69,-153.8 261.69,-149.8 91.31,-149.8 91.31,-113.8 288.69,-113.8 288.69,-149.8"/>
<text text-anchor="middle" x="190" y="-127.6" font-family="Times,serif" font-size="14.00">JNetworkBootstrap4ListModule</text>
</g>
<!-- NgListboxComponent&#45;&gt;JNetworkBootstrap4ListModule -->
<g id="edge1" class="edge">
<title>NgListboxComponent&#45;&gt;JNetworkBootstrap4ListModule</title>
<path fill="none" stroke="black" d="M249.99,-84.91C249.99,-84.91 249.99,-103.79 249.99,-103.79"/>
<polygon fill="black" stroke="black" points="246.49,-103.79 249.99,-113.79 253.49,-103.79 246.49,-103.79"/>
</g>
<!-- NgListboxOptionDirective -->
<g id="node2" class="node">
<title>NgListboxOptionDirective</title>
<polygon fill="#ffffb3" stroke="black" points="193.36,-84.8 26.64,-84.8 26.64,-48.8 193.36,-48.8 193.36,-84.8"/>
<text text-anchor="middle" x="110" y="-62.6" font-family="Times,serif" font-size="14.00">NgListboxOptionDirective</text>
</g>
<!-- NgListboxOptionDirective&#45;&gt;JNetworkBootstrap4ListModule -->
<g id="edge2" class="edge">
<title>NgListboxOptionDirective&#45;&gt;JNetworkBootstrap4ListModule</title>
<path fill="none" stroke="black" d="M142.42,-84.91C142.42,-84.91 142.42,-103.79 142.42,-103.79"/>
<polygon fill="black" stroke="black" points="138.92,-103.79 142.42,-113.79 145.92,-103.79 138.92,-103.79"/>
</g>
<!-- NgListboxComponent  -->
<g id="node4" class="node">
<title>NgListboxComponent </title>
<polygon fill="#fb8072" stroke="black" points="357.22,-214.8 212.78,-214.8 212.78,-178.8 357.22,-178.8 357.22,-214.8"/>
<text text-anchor="middle" x="285" y="-192.6" font-family="Times,serif" font-size="14.00">NgListboxComponent </text>
</g>
<!-- JNetworkBootstrap4ListModule&#45;&gt;NgListboxComponent  -->
<g id="edge3" class="edge">
<title>JNetworkBootstrap4ListModule&#45;&gt;NgListboxComponent </title>
<path fill="none" stroke="black" stroke-dasharray="5,2" d="M250.62,-149.91C250.62,-149.91 250.62,-168.79 250.62,-168.79"/>
<polygon fill="black" stroke="black" points="247.12,-168.79 250.62,-178.79 254.12,-168.79 247.12,-168.79"/>
</g>
<!-- NgListboxOptionDirective  -->
<g id="node5" class="node">
<title>NgListboxOptionDirective </title>
<polygon fill="#fb8072" stroke="black" points="194.36,-214.8 23.64,-214.8 23.64,-178.8 194.36,-178.8 194.36,-214.8"/>
<text text-anchor="middle" x="109" y="-192.6" font-family="Times,serif" font-size="14.00">NgListboxOptionDirective </text>
</g>
<!-- JNetworkBootstrap4ListModule&#45;&gt;NgListboxOptionDirective  -->
<g id="edge4" class="edge">
<title>JNetworkBootstrap4ListModule&#45;&gt;NgListboxOptionDirective </title>
<path fill="none" stroke="black" stroke-dasharray="5,2" d="M142.79,-149.91C142.79,-149.91 142.79,-168.79 142.79,-168.79"/>
<polygon fill="black" stroke="black" points="139.29,-168.79 142.79,-178.79 146.29,-168.79 139.29,-168.79"/>
</g>
</g>
</svg>
