<?xml version="1.0" encoding="UTF-8" standalone="no"?>
<!DOCTYPE svg PUBLIC "-//W3C//DTD SVG 1.1//EN"
 "http://www.w3.org/Graphics/SVG/1.1/DTD/svg11.dtd">
<!-- Generated by graphviz version 2.47.3 (20210619.1520)
 -->
<!-- Title: dependencies Pages: 1 -->
<svg width="1608pt" height="358pt"
 viewBox="0.00 0.00 1608.00 358.39" xmlns="http://www.w3.org/2000/svg" xmlns:xlink="http://www.w3.org/1999/xlink">
<g id="graph0" class="graph" transform="scale(1 1) rotate(0) translate(4 354.39)">
<title>dependencies</title>
<polygon fill="white" stroke="transparent" points="-4,4 -4,-354.39 1604,-354.39 1604,4 -4,4"/>
<text text-anchor="middle" x="800" y="-8.2" font-family="sans-serif" font-size="14.00">dependencies</text>
<g id="clust1" class="cluster">
<title>cluster_JNetworkBootstrap4ListModule</title>
<polygon fill="none" stroke="black" stroke-dasharray="1,5" points="8,-32.8 8,-342.39 1592,-342.39 1592,-32.8 8,-32.8"/>
</g>
<g id="clust2" class="cluster">
<title>cluster_JNetworkBootstrap4ListModule_declarations</title>
<polygon fill="none" stroke="black" points="216,-152.39 216,-204.39 558,-204.39 558,-152.39 216,-152.39"/>
</g>
<g id="clust6" class="cluster">
<title>cluster_JNetworkBootstrap4ListModule_exports</title>
<polygon fill="none" stroke="black" points="97,-282.39 97,-334.39 446,-334.39 446,-282.39 97,-282.39"/>
</g>
<g id="clust3" class="cluster">
<title>cluster_JNetworkBootstrap4ListModule_NgListboxComponent_providers</title>
<polygon fill="none" stroke="black" points="16,-40.8 16,-139.39 1584,-139.39 1584,-40.8 16,-40.8"/>
</g>
<!-- NgListboxComponent -->
<g id="node1" class="node">
<title>NgListboxComponent</title>
<polygon fill="#ffffb3" stroke="black" points="549.72,-196.39 408.28,-196.39 408.28,-160.39 549.72,-160.39 549.72,-196.39"/>
<text text-anchor="middle" x="479" y="-174.19" font-family="Times,serif" font-size="14.00">NgListboxComponent</text>
</g>
<!-- JNetworkBootstrap4ListModule -->
<g id="node3" class="node">
<title>JNetworkBootstrap4ListModule</title>
<polygon fill="#8dd3c7" stroke="black" points="417.69,-261.39 414.69,-265.39 393.69,-265.39 390.69,-261.39 220.31,-261.39 220.31,-225.39 417.69,-225.39 417.69,-261.39"/>
<text text-anchor="middle" x="319" y="-239.19" font-family="Times,serif" font-size="14.00">JNetworkBootstrap4ListModule</text>
</g>
<!-- NgListboxComponent&#45;&gt;JNetworkBootstrap4ListModule -->
<g id="edge1" class="edge">
<title>NgListboxComponent&#45;&gt;JNetworkBootstrap4ListModule</title>
<path fill="none" stroke="black" d="M412.99,-196.5C412.99,-196.5 412.99,-215.38 412.99,-215.38"/>
<polygon fill="black" stroke="black" points="409.49,-215.38 412.99,-225.38 416.49,-215.38 409.49,-215.38"/>
</g>
<!-- NgListboxOptionDirective -->
<g id="node2" class="node">
<title>NgListboxOptionDirective</title>
<polygon fill="#ffffb3" stroke="black" points="390.36,-196.39 223.64,-196.39 223.64,-160.39 390.36,-160.39 390.36,-196.39"/>
<text text-anchor="middle" x="307" y="-174.19" font-family="Times,serif" font-size="14.00">NgListboxOptionDirective</text>
</g>
<!-- NgListboxOptionDirective&#45;&gt;JNetworkBootstrap4ListModule -->
<g id="edge4" class="edge">
<title>NgListboxOptionDirective&#45;&gt;JNetworkBootstrap4ListModule</title>
<path fill="none" stroke="black" d="M307,-196.5C307,-196.5 307,-215.38 307,-215.38"/>
<polygon fill="black" stroke="black" points="303.5,-215.38 307,-225.38 310.5,-215.38 303.5,-215.38"/>
</g>
<!-- NgListboxComponent  -->
<g id="node6" class="node">
<title>NgListboxComponent </title>
<polygon fill="#fb8072" stroke="black" points="438.22,-326.39 293.78,-326.39 293.78,-290.39 438.22,-290.39 438.22,-326.39"/>
<text text-anchor="middle" x="366" y="-304.19" font-family="Times,serif" font-size="14.00">NgListboxComponent </text>
</g>
<!-- JNetworkBootstrap4ListModule&#45;&gt;NgListboxComponent  -->
<g id="edge5" class="edge">
<title>JNetworkBootstrap4ListModule&#45;&gt;NgListboxComponent </title>
<path fill="none" stroke="black" stroke-dasharray="5,2" d="M355.62,-261.5C355.62,-261.5 355.62,-280.38 355.62,-280.38"/>
<polygon fill="black" stroke="black" points="352.12,-280.38 355.62,-290.38 359.12,-280.38 352.12,-280.38"/>
</g>
<!-- NgListboxOptionDirective  -->
<g id="node7" class="node">
<title>NgListboxOptionDirective </title>
<polygon fill="#fb8072" stroke="black" points="275.36,-326.39 104.64,-326.39 104.64,-290.39 275.36,-290.39 275.36,-326.39"/>
<text text-anchor="middle" x="190" y="-304.19" font-family="Times,serif" font-size="14.00">NgListboxOptionDirective </text>
</g>
<!-- JNetworkBootstrap4ListModule&#45;&gt;NgListboxOptionDirective  -->
<g id="edge6" class="edge">
<title>JNetworkBootstrap4ListModule&#45;&gt;NgListboxOptionDirective </title>
<path fill="none" stroke="black" stroke-dasharray="5,2" d="M247.79,-261.5C247.79,-261.5 247.79,-280.38 247.79,-280.38"/>
<polygon fill="black" stroke="black" points="244.29,-280.38 247.79,-290.38 251.29,-280.38 244.29,-280.38"/>
</g>
<!-- {
 &#160;&#160;&#160;provide: NG_VALUE_ACCESSOR, multi: true, useExisting: NgListboxComponent,
} -->
<g id="node4" class="node">
<title>{
 &#160;&#160;&#160;provide: NG_VALUE_ACCESSOR, multi: true, useExisting: NgListboxComponent,
}</title>
<ellipse fill="#fdb462" stroke="black" cx="1217" cy="-90.1" rx="359.33" ry="41.09"/>
<text text-anchor="middle" x="1217" y="-102.7" font-family="Times,serif" font-size="14.00">{</text>
<text text-anchor="middle" x="1217" y="-85.9" font-family="Times,serif" font-size="14.00"> &#160;&#160;&#160;provide: NG_VALUE_ACCESSOR, multi: true, useExisting: NgListboxComponent,</text>
<text text-anchor="middle" x="1217" y="-69.1" font-family="Times,serif" font-size="14.00">}</text>
</g>
<!-- {
 &#160;&#160;&#160;provide: NG_VALUE_ACCESSOR, multi: true, useExisting: NgListboxComponent,
}&#45;&gt;NgListboxComponent -->
<g id="edge2" class="edge">
<title>{
 &#160;&#160;&#160;provide: NG_VALUE_ACCESSOR, multi: true, useExisting: NgListboxComponent,
}&#45;&gt;NgListboxComponent</title>
<path fill="none" stroke="black" d="M1217,-131.4C1217,-154.38 1217,-178.39 1217,-178.39 1217,-178.39 559.76,-178.39 559.76,-178.39"/>
<polygon fill="black" stroke="black" points="559.76,-174.89 549.76,-178.39 559.76,-181.89 559.76,-174.89"/>
</g>
<!-- {
 &#160;&#160;&#160;provide: NG_VALIDATORS, multi: true, useExisting: forwardRef(() =&gt; NgListboxComponent),
} -->
<g id="node5" class="node">
<title>{
 &#160;&#160;&#160;provide: NG_VALIDATORS, multi: true, useExisting: forwardRef(() =&gt; NgListboxComponent),
}</title>
<ellipse fill="#fdb462" stroke="black" cx="432" cy="-90.1" rx="407.84" ry="41.09"/>
<text text-anchor="middle" x="432" y="-102.7" font-family="Times,serif" font-size="14.00">{</text>
<text text-anchor="middle" x="432" y="-85.9" font-family="Times,serif" font-size="14.00"> &#160;&#160;&#160;provide: NG_VALIDATORS, multi: true, useExisting: forwardRef(() =&gt; NgListboxComponent),</text>
<text text-anchor="middle" x="432" y="-69.1" font-family="Times,serif" font-size="14.00">}</text>
</g>
<!-- {
 &#160;&#160;&#160;provide: NG_VALIDATORS, multi: true, useExisting: forwardRef(() =&gt; NgListboxComponent),
}&#45;&gt;NgListboxComponent -->
<g id="edge3" class="edge">
<title>{
 &#160;&#160;&#160;provide: NG_VALIDATORS, multi: true, useExisting: forwardRef(() =&gt; NgListboxComponent),
}&#45;&gt;NgListboxComponent</title>
<path fill="none" stroke="black" d="M479,-131.14C479,-131.14 479,-150.38 479,-150.38"/>
<polygon fill="black" stroke="black" points="475.5,-150.38 479,-160.38 482.5,-150.38 475.5,-150.38"/>
</g>
</g>
</svg>
