<?xml version="1.0" encoding="UTF-8" standalone="no"?>
<!DOCTYPE svg PUBLIC "-//W3C//DTD SVG 1.1//EN"
 "http://www.w3.org/Graphics/SVG/1.1/DTD/svg11.dtd">
<!-- Generated by graphviz version 2.47.3 (20210619.1520)
 -->
<!-- Title: dependencies Pages: 1 -->
<svg width="254pt" height="247pt"
 viewBox="0.00 0.00 254.00 246.80" xmlns="http://www.w3.org/2000/svg" xmlns:xlink="http://www.w3.org/1999/xlink">
<g id="graph0" class="graph" transform="scale(1 1) rotate(0) translate(4 242.8)">
<title>dependencies</title>
<polygon fill="white" stroke="transparent" points="-4,4 -4,-242.8 250,-242.8 250,4 -4,4"/>
<text text-anchor="middle" x="123" y="-8.2" font-family="sans-serif" font-size="14.00">dependencies</text>
<g id="clust1" class="cluster">
<title>cluster_JNetworkBootstrap4DialogModule</title>
<polygon fill="none" stroke="black" stroke-dasharray="1,5" points="8,-32.8 8,-230.8 238,-230.8 238,-32.8 8,-32.8"/>
</g>
<g id="clust2" class="cluster">
<title>cluster_JNetworkBootstrap4DialogModule_declarations</title>
<polygon fill="none" stroke="black" points="47,-40.8 47,-92.8 199,-92.8 199,-40.8 47,-40.8"/>
</g>
<g id="clust5" class="cluster">
<title>cluster_JNetworkBootstrap4DialogModule_exports</title>
<polygon fill="none" stroke="black" points="45,-170.8 45,-222.8 201,-222.8 201,-170.8 45,-170.8"/>
</g>
<!-- NgDialogComponent -->
<g id="node1" class="node">
<title>NgDialogComponent</title>
<polygon fill="#ffffb3" stroke="black" points="191.04,-84.8 54.96,-84.8 54.96,-48.8 191.04,-48.8 191.04,-84.8"/>
<text text-anchor="middle" x="123" y="-62.6" font-family="Times,serif" font-size="14.00">NgDialogComponent</text>
</g>
<!-- JNetworkBootstrap4DialogModule -->
<g id="node2" class="node">
<title>JNetworkBootstrap4DialogModule</title>
<polygon fill="#8dd3c7" stroke="black" points="229.51,-149.8 226.51,-153.8 205.51,-153.8 202.51,-149.8 16.49,-149.8 16.49,-113.8 229.51,-113.8 229.51,-149.8"/>
<text text-anchor="middle" x="123" y="-127.6" font-family="Times,serif" font-size="14.00">JNetworkBootstrap4DialogModule</text>
</g>
<!-- NgDialogComponent&#45;&gt;JNetworkBootstrap4DialogModule -->
<g id="edge1" class="edge">
<title>NgDialogComponent&#45;&gt;JNetworkBootstrap4DialogModule</title>
<path fill="none" stroke="black" d="M123,-84.91C123,-84.91 123,-103.79 123,-103.79"/>
<polygon fill="black" stroke="black" points="119.5,-103.79 123,-113.79 126.5,-103.79 119.5,-103.79"/>
</g>
<!-- NgDialogComponent  -->
<g id="node3" class="node">
<title>NgDialogComponent </title>
<polygon fill="#fb8072" stroke="black" points="193.04,-214.8 52.96,-214.8 52.96,-178.8 193.04,-178.8 193.04,-214.8"/>
<text text-anchor="middle" x="123" y="-192.6" font-family="Times,serif" font-size="14.00">NgDialogComponent </text>
</g>
<!-- JNetworkBootstrap4DialogModule&#45;&gt;NgDialogComponent  -->
<g id="edge2" class="edge">
<title>JNetworkBootstrap4DialogModule&#45;&gt;NgDialogComponent </title>
<path fill="none" stroke="black" stroke-dasharray="5,2" d="M123,-149.91C123,-149.91 123,-168.79 123,-168.79"/>
<polygon fill="black" stroke="black" points="119.5,-168.79 123,-178.79 126.5,-168.79 119.5,-168.79"/>
</g>
</g>
</svg>
