<?xml version="1.0" encoding="UTF-8" standalone="no"?>
<!DOCTYPE svg PUBLIC "-//W3C//DTD SVG 1.1//EN"
 "http://www.w3.org/Graphics/SVG/1.1/DTD/svg11.dtd">
<!-- Generated by graphviz version 2.40.1 (20161225.0304)
 -->
<!-- Title: dependencies Pages: 1 -->
<svg width="1604pt" height="349pt"
 viewBox="0.00 0.00 1604.00 349.00" xmlns="http://www.w3.org/2000/svg" xmlns:xlink="http://www.w3.org/1999/xlink">
<g id="graph0" class="graph" transform="scale(1 1) rotate(0) translate(4 345)">
<title>dependencies</title>
<polygon fill="#ffffff" stroke="transparent" points="-4,4 -4,-345 1600,-345 1600,4 -4,4"/>
<text text-anchor="start" x="777.0091" y="-42.4" font-family="sans-serif" font-weight="bold" font-size="14.00" fill="#000000">Legend</text>
<polygon fill="#ffffb3" stroke="transparent" points="564,-10 564,-30 584,-30 584,-10 564,-10"/>
<text text-anchor="start" x="587.629" y="-15.4" font-family="sans-serif" font-size="14.00" fill="#000000"> &#160;Declarations</text>
<polygon fill="#8dd3c7" stroke="transparent" points="677,-10 677,-30 697,-30 697,-10 677,-10"/>
<text text-anchor="start" x="700.7251" y="-15.4" font-family="sans-serif" font-size="14.00" fill="#000000"> &#160;Module</text>
<polygon fill="#80b1d3" stroke="transparent" points="763,-10 763,-30 783,-30 783,-10 763,-10"/>
<text text-anchor="start" x="786.7812" y="-15.4" font-family="sans-serif" font-size="14.00" fill="#000000"> &#160;Bootstrap</text>
<polygon fill="#fdb462" stroke="transparent" points="860,-10 860,-30 880,-30 880,-10 860,-10"/>
<text text-anchor="start" x="883.6732" y="-15.4" font-family="sans-serif" font-size="14.00" fill="#000000"> &#160;Providers</text>
<polygon fill="#fb8072" stroke="transparent" points="956,-10 956,-30 976,-30 976,-10 956,-10"/>
<text text-anchor="start" x="979.7258" y="-15.4" font-family="sans-serif" font-size="14.00" fill="#000000"> &#160;Exports</text>
<g id="clust1" class="cluster">
<title>cluster_jNetworkBootstrap4StaticLabelModule</title>
<polygon fill="none" stroke="#000000" stroke-dasharray="1,5" points="8,-70 8,-333 1588,-333 1588,-70 8,-70"/>
</g>
<g id="clust2" class="cluster">
<title>cluster_jNetworkBootstrap4StaticLabelModule_declarations</title>
<polygon fill="none" stroke="#000000" points="623,-143 623,-195 904,-195 904,-143 623,-143"/>
</g>
<g id="clust3" class="cluster">
<title>cluster_jNetworkBootstrap4StaticLabelModule_NgStaticFormContainer_providers</title>
<polygon fill="none" stroke="#000000" points="16,-78 16,-130 1580,-130 1580,-78 16,-78"/>
</g>
<g id="clust6" class="cluster">
<title>cluster_jNetworkBootstrap4StaticLabelModule_exports</title>
<polygon fill="none" stroke="#000000" points="619,-273 619,-325 907,-325 907,-273 619,-273"/>
</g>
<!-- NgStaticFormContainer -->
<g id="node1" class="node">
<title>NgStaticFormContainer</title>
<polygon fill="#ffffb3" stroke="#000000" points="896.0323,-187 745.9677,-187 745.9677,-151 896.0323,-151 896.0323,-187"/>
<text text-anchor="middle" x="821" y="-164.8" font-family="Times,serif" font-size="14.00" fill="#000000">NgStaticFormContainer</text>
</g>
<!-- jNetworkBootstrap4StaticLabelModule -->
<g id="node3" class="node">
<title>jNetworkBootstrap4StaticLabelModule</title>
<polygon fill="#8dd3c7" stroke="#000000" points="868.6133,-252 865.6133,-256 844.6133,-256 841.6133,-252 631.3867,-252 631.3867,-216 868.6133,-216 868.6133,-252"/>
<text text-anchor="middle" x="750" y="-229.8" font-family="Times,serif" font-size="14.00" fill="#000000">jNetworkBootstrap4StaticLabelModule</text>
</g>
<!-- NgStaticFormContainer&#45;&gt;jNetworkBootstrap4StaticLabelModule -->
<g id="edge1" class="edge">
<title>NgStaticFormContainer&#45;&gt;jNetworkBootstrap4StaticLabelModule</title>
<path fill="none" stroke="#000000" d="M807.2704,-187.1061C807.2704,-187.1061 807.2704,-205.991 807.2704,-205.991"/>
<polygon fill="#000000" stroke="#000000" points="803.7704,-205.9909 807.2704,-215.991 810.7704,-205.991 803.7704,-205.9909"/>
</g>
<!-- NgStaticLabel -->
<g id="node2" class="node">
<title>NgStaticLabel</title>
<polygon fill="#ffffb3" stroke="#000000" points="727.3627,-187 630.6373,-187 630.6373,-151 727.3627,-151 727.3627,-187"/>
<text text-anchor="middle" x="679" y="-164.8" font-family="Times,serif" font-size="14.00" fill="#000000">NgStaticLabel</text>
</g>
<!-- NgStaticLabel&#45;&gt;jNetworkBootstrap4StaticLabelModule -->
<g id="edge4" class="edge">
<title>NgStaticLabel&#45;&gt;jNetworkBootstrap4StaticLabelModule</title>
<path fill="none" stroke="#000000" d="M679.3124,-187.1061C679.3124,-187.1061 679.3124,-205.991 679.3124,-205.991"/>
<polygon fill="#000000" stroke="#000000" points="675.8125,-205.9909 679.3124,-215.991 682.8125,-205.991 675.8125,-205.9909"/>
</g>
<!-- NgStaticFormContainer  -->
<g id="node6" class="node">
<title>NgStaticFormContainer </title>
<polygon fill="#fb8072" stroke="#000000" points="899.0316,-317 744.9684,-317 744.9684,-281 899.0316,-281 899.0316,-317"/>
<text text-anchor="middle" x="822" y="-294.8" font-family="Times,serif" font-size="14.00" fill="#000000">NgStaticFormContainer </text>
</g>
<!-- jNetworkBootstrap4StaticLabelModule&#45;&gt;NgStaticFormContainer  -->
<g id="edge5" class="edge">
<title>jNetworkBootstrap4StaticLabelModule&#45;&gt;NgStaticFormContainer </title>
<path fill="none" stroke="#000000" stroke-dasharray="5,2" d="M806.8954,-252.1061C806.8954,-252.1061 806.8954,-270.991 806.8954,-270.991"/>
<polygon fill="#000000" stroke="#000000" points="803.3954,-270.9909 806.8954,-280.991 810.3954,-270.991 803.3954,-270.9909"/>
</g>
<!-- NgStaticLabel  -->
<g id="node7" class="node">
<title>NgStaticLabel </title>
<polygon fill="#fb8072" stroke="#000000" points="727.3633,-317 626.6367,-317 626.6367,-281 727.3633,-281 727.3633,-317"/>
<text text-anchor="middle" x="677" y="-294.8" font-family="Times,serif" font-size="14.00" fill="#000000">NgStaticLabel </text>
</g>
<!-- jNetworkBootstrap4StaticLabelModule&#45;&gt;NgStaticLabel  -->
<g id="edge6" class="edge">
<title>jNetworkBootstrap4StaticLabelModule&#45;&gt;NgStaticLabel </title>
<path fill="none" stroke="#000000" stroke-dasharray="5,2" d="M679.1874,-252.1061C679.1874,-252.1061 679.1874,-270.991 679.1874,-270.991"/>
<polygon fill="#000000" stroke="#000000" points="675.6875,-270.9909 679.1874,-280.991 682.6875,-270.991 675.6875,-270.9909"/>
</g>
<!-- { provide: NG_VALUE_ACCESSOR, multi: true, useExisting: NgStaticFormContainer } -->
<g id="node4" class="node">
<title>{ provide: NG_VALUE_ACCESSOR, multi: true, useExisting: NgStaticFormContainer }</title>
<ellipse fill="#fdb462" stroke="#000000" cx="1213" cy="-104" rx="359.1205" ry="18"/>
<text text-anchor="middle" x="1213" y="-99.8" font-family="Times,serif" font-size="14.00" fill="#000000">{ provide: NG_VALUE_ACCESSOR, multi: true, useExisting: NgStaticFormContainer }</text>
</g>
<!-- { provide: NG_VALUE_ACCESSOR, multi: true, useExisting: NgStaticFormContainer }&#45;&gt;NgStaticFormContainer -->
<g id="edge2" class="edge">
<title>{ provide: NG_VALUE_ACCESSOR, multi: true, useExisting: NgStaticFormContainer }&#45;&gt;NgStaticFormContainer</title>
<path fill="none" stroke="#000000" d="M875.1028,-110.4701C875.1028,-110.4701 875.1028,-140.7831 875.1028,-140.7831"/>
<polygon fill="#000000" stroke="#000000" points="871.6029,-140.7831 875.1028,-150.7831 878.6029,-140.7831 871.6029,-140.7831"/>
</g>
<!-- { provide: NG_VALIDATORS, multi: true, useExisting: forwardRef(() =&gt; NgStaticFormContainer) } -->
<g id="node5" class="node">
<title>{ provide: NG_VALIDATORS, multi: true, useExisting: forwardRef(() =&gt; NgStaticFormContainer) }</title>
<ellipse fill="#fdb462" stroke="#000000" cx="430" cy="-104" rx="406.2566" ry="18"/>
<text text-anchor="middle" x="430" y="-99.8" font-family="Times,serif" font-size="14.00" fill="#000000">{ provide: NG_VALIDATORS, multi: true, useExisting: forwardRef(() =&gt; NgStaticFormContainer) }</text>
</g>
<!-- { provide: NG_VALIDATORS, multi: true, useExisting: forwardRef(() =&gt; NgStaticFormContainer) }&#45;&gt;NgStaticFormContainer -->
<g id="edge3" class="edge">
<title>{ provide: NG_VALIDATORS, multi: true, useExisting: forwardRef(() =&gt; NgStaticFormContainer) }&#45;&gt;NgStaticFormContainer</title>
<path fill="none" stroke="#000000" d="M791.0563,-112.4976C791.0563,-112.4976 791.0563,-140.9128 791.0563,-140.9128"/>
<polygon fill="#000000" stroke="#000000" points="787.5564,-140.9127 791.0563,-150.9128 794.5564,-140.9128 787.5564,-140.9127"/>
</g>
</g>
</svg>
