<?xml version="1.0" encoding="UTF-8" standalone="no"?>
<!DOCTYPE svg PUBLIC "-//W3C//DTD SVG 1.1//EN"
 "http://www.w3.org/Graphics/SVG/1.1/DTD/svg11.dtd">
<!-- Generated by graphviz version 2.40.1 (20161225.0304)
 -->
<!-- Title: dependencies Pages: 1 -->
<svg width="528pt" height="284pt"
 viewBox="0.00 0.00 528.00 284.00" xmlns="http://www.w3.org/2000/svg" xmlns:xlink="http://www.w3.org/1999/xlink">
<g id="graph0" class="graph" transform="scale(1 1) rotate(0) translate(4 280)">
<title>dependencies</title>
<polygon fill="#ffffff" stroke="transparent" points="-4,4 -4,-280 524,-280 524,4 -4,4"/>
<text text-anchor="start" x="239.0091" y="-42.4" font-family="sans-serif" font-weight="bold" font-size="14.00" fill="#000000">Legend</text>
<polygon fill="#ffffb3" stroke="transparent" points="26,-10 26,-30 46,-30 46,-10 26,-10"/>
<text text-anchor="start" x="49.629" y="-15.4" font-family="sans-serif" font-size="14.00" fill="#000000"> &#160;Declarations</text>
<polygon fill="#8dd3c7" stroke="transparent" points="139,-10 139,-30 159,-30 159,-10 139,-10"/>
<text text-anchor="start" x="162.7251" y="-15.4" font-family="sans-serif" font-size="14.00" fill="#000000"> &#160;Module</text>
<polygon fill="#80b1d3" stroke="transparent" points="225,-10 225,-30 245,-30 245,-10 225,-10"/>
<text text-anchor="start" x="248.7812" y="-15.4" font-family="sans-serif" font-size="14.00" fill="#000000"> &#160;Bootstrap</text>
<polygon fill="#fdb462" stroke="transparent" points="322,-10 322,-30 342,-30 342,-10 322,-10"/>
<text text-anchor="start" x="345.6732" y="-15.4" font-family="sans-serif" font-size="14.00" fill="#000000"> &#160;Providers</text>
<polygon fill="#fb8072" stroke="transparent" points="418,-10 418,-30 438,-30 438,-10 418,-10"/>
<text text-anchor="start" x="441.7258" y="-15.4" font-family="sans-serif" font-size="14.00" fill="#000000"> &#160;Exports</text>
<g id="clust1" class="cluster">
<title>cluster_JNetworkBootstrap4MultilanguageModule</title>
<polygon fill="none" stroke="#000000" stroke-dasharray="1,5" points="8,-70 8,-268 512,-268 512,-70 8,-70"/>
</g>
<g id="clust2" class="cluster">
<title>cluster_JNetworkBootstrap4MultilanguageModule_declarations</title>
<polygon fill="none" stroke="#000000" points="20,-78 20,-130 500,-130 500,-78 20,-78"/>
</g>
<g id="clust6" class="cluster">
<title>cluster_JNetworkBootstrap4MultilanguageModule_exports</title>
<polygon fill="none" stroke="#000000" points="16,-208 16,-260 504,-260 504,-208 16,-208"/>
</g>
<!-- NgMultilanguageInputAreaComponent -->
<g id="node1" class="node">
<title>NgMultilanguageInputAreaComponent</title>
<polygon fill="#ffffb3" stroke="#000000" points="492.3375,-122 255.6625,-122 255.6625,-86 492.3375,-86 492.3375,-122"/>
<text text-anchor="middle" x="374" y="-99.8" font-family="Times,serif" font-size="14.00" fill="#000000">NgMultilanguageInputAreaComponent</text>
</g>
<!-- JNetworkBootstrap4MultilanguageModule -->
<g id="node3" class="node">
<title>JNetworkBootstrap4MultilanguageModule</title>
<polygon fill="#8dd3c7" stroke="#000000" points="385.5618,-187 382.5618,-191 361.5618,-191 358.5618,-187 128.4382,-187 128.4382,-151 385.5618,-151 385.5618,-187"/>
<text text-anchor="middle" x="257" y="-164.8" font-family="Times,serif" font-size="14.00" fill="#000000">JNetworkBootstrap4MultilanguageModule</text>
</g>
<!-- NgMultilanguageInputAreaComponent&#45;&gt;JNetworkBootstrap4MultilanguageModule -->
<g id="edge1" class="edge">
<title>NgMultilanguageInputAreaComponent&#45;&gt;JNetworkBootstrap4MultilanguageModule</title>
<path fill="none" stroke="#000000" d="M320.5561,-122.1061C320.5561,-122.1061 320.5561,-140.991 320.5561,-140.991"/>
<polygon fill="#000000" stroke="#000000" points="317.0562,-140.9909 320.5561,-150.991 324.0562,-140.991 317.0562,-140.9909"/>
</g>
<!-- NgMultilanguageInputComponent -->
<g id="node2" class="node">
<title>NgMultilanguageInputComponent</title>
<polygon fill="#ffffb3" stroke="#000000" points="237.6413,-122 28.3587,-122 28.3587,-86 237.6413,-86 237.6413,-122"/>
<text text-anchor="middle" x="133" y="-99.8" font-family="Times,serif" font-size="14.00" fill="#000000">NgMultilanguageInputComponent</text>
</g>
<!-- NgMultilanguageInputComponent&#45;&gt;JNetworkBootstrap4MultilanguageModule -->
<g id="edge2" class="edge">
<title>NgMultilanguageInputComponent&#45;&gt;JNetworkBootstrap4MultilanguageModule</title>
<path fill="none" stroke="#000000" d="M183.1448,-122.1061C183.1448,-122.1061 183.1448,-140.991 183.1448,-140.991"/>
<polygon fill="#000000" stroke="#000000" points="179.6449,-140.9909 183.1448,-150.991 186.6449,-140.991 179.6449,-140.9909"/>
</g>
<!-- NgMultilanguageInputAreaComponent  -->
<g id="node4" class="node">
<title>NgMultilanguageInputAreaComponent </title>
<polygon fill="#fb8072" stroke="#000000" points="496.3376,-252 255.6624,-252 255.6624,-216 496.3376,-216 496.3376,-252"/>
<text text-anchor="middle" x="376" y="-229.8" font-family="Times,serif" font-size="14.00" fill="#000000">NgMultilanguageInputAreaComponent </text>
</g>
<!-- JNetworkBootstrap4MultilanguageModule&#45;&gt;NgMultilanguageInputAreaComponent  -->
<g id="edge3" class="edge">
<title>JNetworkBootstrap4MultilanguageModule&#45;&gt;NgMultilanguageInputAreaComponent </title>
<path fill="none" stroke="#000000" stroke-dasharray="5,2" d="M320.6811,-187.1061C320.6811,-187.1061 320.6811,-205.991 320.6811,-205.991"/>
<polygon fill="#000000" stroke="#000000" points="317.1812,-205.9909 320.6811,-215.991 324.1812,-205.991 317.1812,-205.9909"/>
</g>
<!-- NgMultilanguageInputComponent  -->
<g id="node5" class="node">
<title>NgMultilanguageInputComponent </title>
<polygon fill="#fb8072" stroke="#000000" points="237.641,-252 24.359,-252 24.359,-216 237.641,-216 237.641,-252"/>
<text text-anchor="middle" x="131" y="-229.8" font-family="Times,serif" font-size="14.00" fill="#000000">NgMultilanguageInputComponent </text>
</g>
<!-- JNetworkBootstrap4MultilanguageModule&#45;&gt;NgMultilanguageInputComponent  -->
<g id="edge4" class="edge">
<title>JNetworkBootstrap4MultilanguageModule&#45;&gt;NgMultilanguageInputComponent </title>
<path fill="none" stroke="#000000" stroke-dasharray="5,2" d="M183.0198,-187.1061C183.0198,-187.1061 183.0198,-205.991 183.0198,-205.991"/>
<polygon fill="#000000" stroke="#000000" points="179.5199,-205.9909 183.0198,-215.991 186.5199,-205.991 179.5199,-205.9909"/>
</g>
</g>
</svg>
