<?xml version="1.0" encoding="UTF-8" standalone="no"?>
<!DOCTYPE svg PUBLIC "-//W3C//DTD SVG 1.1//EN"
 "http://www.w3.org/Graphics/SVG/1.1/DTD/svg11.dtd">
<!-- Generated by graphviz version 2.47.0 (20210316.0004)
 -->
<!-- Title: dependencies Pages: 1 -->
<svg width="504pt" height="284pt"
 viewBox="0.00 0.00 504.00 284.00" xmlns="http://www.w3.org/2000/svg" xmlns:xlink="http://www.w3.org/1999/xlink">
<g id="graph0" class="graph" transform="scale(1 1) rotate(0) translate(4 280)">
<title>dependencies</title>
<polygon fill="white" stroke="transparent" points="-4,4 -4,-280 500,-280 500,4 -4,4"/>
<text text-anchor="start" x="227.01" y="-42.4" font-family="Times-12" font-weight="bold" font-size="14.00">Legend</text>
<polygon fill="#ffffb3" stroke="transparent" points="14,-10 14,-30 34,-30 34,-10 14,-10"/>
<text text-anchor="start" x="37.63" y="-15.4" font-family="Times-12" font-size="14.00"> &#160;Declarations</text>
<polygon fill="#8dd3c7" stroke="transparent" points="127,-10 127,-30 147,-30 147,-10 127,-10"/>
<text text-anchor="start" x="150.73" y="-15.4" font-family="Times-12" font-size="14.00"> &#160;Module</text>
<polygon fill="#80b1d3" stroke="transparent" points="213,-10 213,-30 233,-30 233,-10 213,-10"/>
<text text-anchor="start" x="236.78" y="-15.4" font-family="Times-12" font-size="14.00"> &#160;Bootstrap</text>
<polygon fill="#fdb462" stroke="transparent" points="310,-10 310,-30 330,-30 330,-10 310,-10"/>
<text text-anchor="start" x="333.67" y="-15.4" font-family="Times-12" font-size="14.00"> &#160;Providers</text>
<polygon fill="#fb8072" stroke="transparent" points="406,-10 406,-30 426,-30 426,-10 406,-10"/>
<text text-anchor="start" x="429.73" y="-15.4" font-family="Times-12" font-size="14.00"> &#160;Exports</text>
<g id="clust1" class="cluster">
<title>cluster_SACBootstrap3UploadModule</title>
<polygon fill="none" stroke="black" stroke-dasharray="1,5" points="53,-70 53,-268 443,-268 443,-70 53,-70"/>
</g>
<g id="clust4" class="cluster">
<title>cluster_SACBootstrap3UploadModule_exports</title>
<polygon fill="none" stroke="black" points="61,-208 61,-260 435,-260 435,-208 61,-208"/>
</g>
<g id="clust3" class="cluster">
<title>cluster_SACBootstrap3UploadModule_imports</title>
<polygon fill="none" stroke="black" points="65,-78 65,-130 432,-130 432,-78 65,-78"/>
</g>
<!-- SacUploadComponent -->
<g id="node1" class="node">
<title>SacUploadComponent</title>
<polygon fill="#8dd3c7" stroke="black" points="424.26,-122 421.26,-126 400.26,-126 397.26,-122 281.74,-122 281.74,-86 424.26,-86 424.26,-122"/>
<text text-anchor="middle" x="353" y="-99.8" font-family="Times,serif" font-size="14.00">SacUploadComponent</text>
</g>
<!-- SACBootstrap3UploadModule -->
<g id="node3" class="node">
<title>SACBootstrap3UploadModule</title>
<polygon fill="#8dd3c7" stroke="black" points="263.93,-187 260.93,-191 239.93,-191 236.93,-187 74.07,-187 74.07,-151 263.93,-151 263.93,-187"/>
<text text-anchor="middle" x="169" y="-164.8" font-family="Times,serif" font-size="14.00">SACBootstrap3UploadModule</text>
</g>
<!-- SacUploadComponent&#45;&gt;SACBootstrap3UploadModule -->
<g id="edge1" class="edge">
<title>SacUploadComponent&#45;&gt;SACBootstrap3UploadModule</title>
<path fill="none" stroke="black" d="M376.79,-122.02C376.79,-139.37 376.79,-163 376.79,-163 376.79,-163 273.78,-163 273.78,-163"/>
<polygon fill="black" stroke="black" points="273.78,-159.5 263.78,-163 273.78,-166.5 273.78,-159.5"/>
</g>
<!-- SacUploadMultipleComponent -->
<g id="node2" class="node">
<title>SacUploadMultipleComponent</title>
<polygon fill="#8dd3c7" stroke="black" points="263.48,-122 260.48,-126 239.48,-126 236.48,-122 72.52,-122 72.52,-86 263.48,-86 263.48,-122"/>
<text text-anchor="middle" x="168" y="-99.8" font-family="Times,serif" font-size="14.00">SacUploadMultipleComponent</text>
</g>
<!-- SacUploadMultipleComponent&#45;&gt;SACBootstrap3UploadModule -->
<g id="edge2" class="edge">
<title>SacUploadMultipleComponent&#45;&gt;SACBootstrap3UploadModule</title>
<path fill="none" stroke="black" d="M168.89,-122.11C168.89,-122.11 168.89,-140.99 168.89,-140.99"/>
<polygon fill="black" stroke="black" points="165.39,-140.99 168.89,-150.99 172.39,-140.99 165.39,-140.99"/>
</g>
<!-- SacUploadComponent  -->
<g id="node4" class="node">
<title>SacUploadComponent </title>
<polygon fill="#fb8072" stroke="black" points="427.26,-252 280.74,-252 280.74,-216 427.26,-216 427.26,-252"/>
<text text-anchor="middle" x="354" y="-229.8" font-family="Times,serif" font-size="14.00">SacUploadComponent </text>
</g>
<!-- SACBootstrap3UploadModule&#45;&gt;SacUploadComponent  -->
<g id="edge3" class="edge">
<title>SACBootstrap3UploadModule&#45;&gt;SacUploadComponent </title>
<path fill="none" stroke="black" stroke-dasharray="5,2" d="M264.04,-175C298.54,-175 329.21,-175 329.21,-175 329.21,-175 329.21,-205.98 329.21,-205.98"/>
<polygon fill="black" stroke="black" points="325.71,-205.98 329.21,-215.98 332.71,-205.98 325.71,-205.98"/>
</g>
<!-- SacUploadMultipleComponent  -->
<g id="node5" class="node">
<title>SacUploadMultipleComponent </title>
<polygon fill="#fb8072" stroke="black" points="263.48,-252 68.52,-252 68.52,-216 263.48,-216 263.48,-252"/>
<text text-anchor="middle" x="166" y="-229.8" font-family="Times,serif" font-size="14.00">SacUploadMultipleComponent </text>
</g>
<!-- SACBootstrap3UploadModule&#45;&gt;SacUploadMultipleComponent  -->
<g id="edge4" class="edge">
<title>SACBootstrap3UploadModule&#45;&gt;SacUploadMultipleComponent </title>
<path fill="none" stroke="black" stroke-dasharray="5,2" d="M168.76,-187.11C168.76,-187.11 168.76,-205.99 168.76,-205.99"/>
<polygon fill="black" stroke="black" points="165.26,-205.99 168.76,-215.99 172.26,-205.99 165.26,-205.99"/>
</g>
</g>
</svg>
