<?xml version="1.0" encoding="UTF-8" standalone="no"?>
<!DOCTYPE svg PUBLIC "-//W3C//DTD SVG 1.1//EN"
 "http://www.w3.org/Graphics/SVG/1.1/DTD/svg11.dtd">
<!-- Generated by graphviz version 2.47.0 (20210316.0004)
 -->
<!-- Title: dependencies Pages: 1 -->
<svg width="619pt" height="284pt"
 viewBox="0.00 0.00 619.00 284.00" xmlns="http://www.w3.org/2000/svg" xmlns:xlink="http://www.w3.org/1999/xlink">
<g id="graph0" class="graph" transform="scale(1 1) rotate(0) translate(4 280)">
<title>dependencies</title>
<polygon fill="white" stroke="transparent" points="-4,4 -4,-280 615,-280 615,4 -4,4"/>
<text text-anchor="start" x="284.51" y="-42.4" font-family="Times-12" font-weight="bold" font-size="14.00">Legend</text>
<polygon fill="#ffffb3" stroke="transparent" points="71.5,-10 71.5,-30 91.5,-30 91.5,-10 71.5,-10"/>
<text text-anchor="start" x="95.13" y="-15.4" font-family="Times-12" font-size="14.00"> &#160;Declarations</text>
<polygon fill="#8dd3c7" stroke="transparent" points="184.5,-10 184.5,-30 204.5,-30 204.5,-10 184.5,-10"/>
<text text-anchor="start" x="208.23" y="-15.4" font-family="Times-12" font-size="14.00"> &#160;Module</text>
<polygon fill="#80b1d3" stroke="transparent" points="270.5,-10 270.5,-30 290.5,-30 290.5,-10 270.5,-10"/>
<text text-anchor="start" x="294.28" y="-15.4" font-family="Times-12" font-size="14.00"> &#160;Bootstrap</text>
<polygon fill="#fdb462" stroke="transparent" points="367.5,-10 367.5,-30 387.5,-30 387.5,-10 367.5,-10"/>
<text text-anchor="start" x="391.17" y="-15.4" font-family="Times-12" font-size="14.00"> &#160;Providers</text>
<polygon fill="#fb8072" stroke="transparent" points="463.5,-10 463.5,-30 483.5,-30 483.5,-10 463.5,-10"/>
<text text-anchor="start" x="487.23" y="-15.4" font-family="Times-12" font-size="14.00"> &#160;Exports</text>
<g id="clust1" class="cluster">
<title>cluster_SACBootstrap3UploadModule</title>
<polygon fill="none" stroke="black" stroke-dasharray="1,5" points="8,-70 8,-268 603,-268 603,-70 8,-70"/>
</g>
<g id="clust2" class="cluster">
<title>cluster_SACBootstrap3UploadModule_declarations</title>
<polygon fill="none" stroke="black" points="228,-78 228,-130 595,-130 595,-78 228,-78"/>
</g>
<g id="clust5" class="cluster">
<title>cluster_SACBootstrap3UploadModule_imports</title>
<polygon fill="none" stroke="black" points="16,-78 16,-130 220,-130 220,-78 16,-78"/>
</g>
<g id="clust6" class="cluster">
<title>cluster_SACBootstrap3UploadModule_exports</title>
<polygon fill="none" stroke="black" points="130,-208 130,-260 504,-260 504,-208 130,-208"/>
</g>
<!-- SacUploadComponent -->
<g id="node1" class="node">
<title>SacUploadComponent</title>
<polygon fill="#ffffb3" stroke="black" points="587.26,-122 444.74,-122 444.74,-86 587.26,-86 587.26,-122"/>
<text text-anchor="middle" x="516" y="-99.8" font-family="Times,serif" font-size="14.00">SacUploadComponent</text>
</g>
<!-- SACBootstrap3UploadModule -->
<g id="node3" class="node">
<title>SACBootstrap3UploadModule</title>
<polygon fill="#8dd3c7" stroke="black" points="425.93,-187 422.93,-191 401.93,-191 398.93,-187 236.07,-187 236.07,-151 425.93,-151 425.93,-187"/>
<text text-anchor="middle" x="331" y="-164.8" font-family="Times,serif" font-size="14.00">SACBootstrap3UploadModule</text>
</g>
<!-- SacUploadComponent&#45;&gt;SACBootstrap3UploadModule -->
<g id="edge1" class="edge">
<title>SacUploadComponent&#45;&gt;SACBootstrap3UploadModule</title>
<path fill="none" stroke="black" d="M470.38,-122.11C470.38,-141.34 470.38,-169 470.38,-169 470.38,-169 435.89,-169 435.89,-169"/>
<polygon fill="black" stroke="black" points="435.89,-165.5 425.89,-169 435.89,-172.5 435.89,-165.5"/>
</g>
<!-- SacUploadMultipleComponent -->
<g id="node2" class="node">
<title>SacUploadMultipleComponent</title>
<polygon fill="#ffffb3" stroke="black" points="426.48,-122 235.52,-122 235.52,-86 426.48,-86 426.48,-122"/>
<text text-anchor="middle" x="331" y="-99.8" font-family="Times,serif" font-size="14.00">SacUploadMultipleComponent</text>
</g>
<!-- SacUploadMultipleComponent&#45;&gt;SACBootstrap3UploadModule -->
<g id="edge2" class="edge">
<title>SacUploadMultipleComponent&#45;&gt;SACBootstrap3UploadModule</title>
<path fill="none" stroke="black" d="M331,-122.11C331,-122.11 331,-140.99 331,-140.99"/>
<polygon fill="black" stroke="black" points="327.5,-140.99 331,-150.99 334.5,-140.99 327.5,-140.99"/>
</g>
<!-- SacUploadComponent  -->
<g id="node5" class="node">
<title>SacUploadComponent </title>
<polygon fill="#fb8072" stroke="black" points="496.26,-252 349.74,-252 349.74,-216 496.26,-216 496.26,-252"/>
<text text-anchor="middle" x="423" y="-229.8" font-family="Times,serif" font-size="14.00">SacUploadComponent </text>
</g>
<!-- SACBootstrap3UploadModule&#45;&gt;SacUploadComponent  -->
<g id="edge4" class="edge">
<title>SACBootstrap3UploadModule&#45;&gt;SacUploadComponent </title>
<path fill="none" stroke="black" stroke-dasharray="5,2" d="M387.79,-187.11C387.79,-187.11 387.79,-205.99 387.79,-205.99"/>
<polygon fill="black" stroke="black" points="384.29,-205.99 387.79,-215.99 391.29,-205.99 384.29,-205.99"/>
</g>
<!-- SacUploadMultipleComponent  -->
<g id="node6" class="node">
<title>SacUploadMultipleComponent </title>
<polygon fill="#fb8072" stroke="black" points="332.48,-252 137.52,-252 137.52,-216 332.48,-216 332.48,-252"/>
<text text-anchor="middle" x="235" y="-229.8" font-family="Times,serif" font-size="14.00">SacUploadMultipleComponent </text>
</g>
<!-- SACBootstrap3UploadModule&#45;&gt;SacUploadMultipleComponent  -->
<g id="edge5" class="edge">
<title>SACBootstrap3UploadModule&#45;&gt;SacUploadMultipleComponent </title>
<path fill="none" stroke="black" stroke-dasharray="5,2" d="M284.26,-187.11C284.26,-187.11 284.26,-205.99 284.26,-205.99"/>
<polygon fill="black" stroke="black" points="280.76,-205.99 284.26,-215.99 287.76,-205.99 280.76,-205.99"/>
</g>
<!-- SACBootstrap3LayoutModule -->
<g id="node4" class="node">
<title>SACBootstrap3LayoutModule</title>
<polygon fill="#8dd3c7" stroke="black" points="211.87,-122 208.87,-126 187.87,-126 184.87,-122 24.13,-122 24.13,-86 211.87,-86 211.87,-122"/>
<text text-anchor="middle" x="118" y="-99.8" font-family="Times,serif" font-size="14.00">SACBootstrap3LayoutModule</text>
</g>
<!-- SACBootstrap3LayoutModule&#45;&gt;SACBootstrap3UploadModule -->
<g id="edge3" class="edge">
<title>SACBootstrap3LayoutModule&#45;&gt;SACBootstrap3UploadModule</title>
<path fill="none" stroke="black" d="M174.85,-122.11C174.85,-141.34 174.85,-169 174.85,-169 174.85,-169 226.12,-169 226.12,-169"/>
<polygon fill="black" stroke="black" points="226.12,-172.5 236.12,-169 226.12,-165.5 226.12,-172.5"/>
</g>
</g>
</svg>
