<?xml version="1.0" encoding="UTF-8" standalone="no"?>
<!DOCTYPE svg PUBLIC "-//W3C//DTD SVG 1.1//EN"
 "http://www.w3.org/Graphics/SVG/1.1/DTD/svg11.dtd">
<!-- Generated by graphviz version 2.47.0 (20210316.0004)
 -->
<!-- Title: dependencies Pages: 1 -->
<svg width="1504pt" height="349pt"
 viewBox="0.00 0.00 1504.00 349.00" xmlns="http://www.w3.org/2000/svg" xmlns:xlink="http://www.w3.org/1999/xlink">
<g id="graph0" class="graph" transform="scale(1 1) rotate(0) translate(4 345)">
<title>dependencies</title>
<polygon fill="white" stroke="transparent" points="-4,4 -4,-345 1500,-345 1500,4 -4,4"/>
<text text-anchor="start" x="727.01" y="-42.4" font-family="Times-12" font-weight="bold" font-size="14.00">Legend</text>
<polygon fill="#ffffb3" stroke="transparent" points="514,-10 514,-30 534,-30 534,-10 514,-10"/>
<text text-anchor="start" x="537.63" y="-15.4" font-family="Times-12" font-size="14.00"> &#160;Declarations</text>
<polygon fill="#8dd3c7" stroke="transparent" points="627,-10 627,-30 647,-30 647,-10 627,-10"/>
<text text-anchor="start" x="650.73" y="-15.4" font-family="Times-12" font-size="14.00"> &#160;Module</text>
<polygon fill="#80b1d3" stroke="transparent" points="713,-10 713,-30 733,-30 733,-10 713,-10"/>
<text text-anchor="start" x="736.78" y="-15.4" font-family="Times-12" font-size="14.00"> &#160;Bootstrap</text>
<polygon fill="#fdb462" stroke="transparent" points="810,-10 810,-30 830,-30 830,-10 810,-10"/>
<text text-anchor="start" x="833.67" y="-15.4" font-family="Times-12" font-size="14.00"> &#160;Providers</text>
<polygon fill="#fb8072" stroke="transparent" points="906,-10 906,-30 926,-30 926,-10 906,-10"/>
<text text-anchor="start" x="929.73" y="-15.4" font-family="Times-12" font-size="14.00"> &#160;Exports</text>
<g id="clust1" class="cluster">
<title>cluster_SACBootstrap3UploadModule</title>
<polygon fill="none" stroke="black" stroke-dasharray="1,5" points="8,-70 8,-333 1488,-333 1488,-70 8,-70"/>
</g>
<g id="clust8" class="cluster">
<title>cluster_SACBootstrap3UploadModule_exports</title>
<polygon fill="none" stroke="black" points="343,-273 343,-325 1157,-325 1157,-273 343,-273"/>
</g>
<g id="clust7" class="cluster">
<title>cluster_SACBootstrap3UploadModule_imports</title>
<polygon fill="none" stroke="black" points="866,-143 866,-195 1480,-195 1480,-143 866,-143"/>
</g>
<g id="clust4" class="cluster">
<title>cluster_SACBootstrap3UploadModule_SacDropzoneSingleComponent_providers</title>
<polygon fill="none" stroke="black" points="16,-78 16,-195 242,-195 242,-78 16,-78"/>
</g>
<g id="clust2" class="cluster">
<title>cluster_SACBootstrap3UploadModule_declarations</title>
<polygon fill="none" stroke="black" points="250,-143 250,-195 858,-195 858,-143 250,-143"/>
</g>
<!-- SacDropzoneMultipleComponent -->
<g id="node1" class="node">
<title>SacDropzoneMultipleComponent</title>
<polygon fill="#ffffb3" stroke="black" points="832.46,-187 627.54,-187 627.54,-151 832.46,-151 832.46,-187"/>
<text text-anchor="middle" x="730" y="-164.8" font-family="Times,serif" font-size="14.00">SacDropzoneMultipleComponent</text>
</g>
<!-- SacDropzoneMultipleComponent&#45;&gt;SacDropzoneMultipleComponent -->
<g id="edge2" class="edge">
<title>SacDropzoneMultipleComponent&#45;&gt;SacDropzoneMultipleComponent</title>
<path fill="none" stroke="black" d="M695.84,-150.84C695.84,-145.96 695.84,-142 695.84,-142 695.84,-142 618.45,-142 618.45,-142 618.45,-142 618.45,-207 618.45,-207 618.45,-207 631.4,-207 631.4,-207 631.4,-207 631.4,-197.11 631.4,-197.11"/>
<polygon fill="black" stroke="black" points="634.9,-197.11 631.4,-187.11 627.9,-197.11 634.9,-197.11"/>
</g>
<!-- SACBootstrap3UploadModule -->
<g id="node5" class="node">
<title>SACBootstrap3UploadModule</title>
<polygon fill="#8dd3c7" stroke="black" points="824.93,-252 821.93,-256 800.93,-256 797.93,-252 635.07,-252 635.07,-216 824.93,-216 824.93,-252"/>
<text text-anchor="middle" x="730" y="-229.8" font-family="Times,serif" font-size="14.00">SACBootstrap3UploadModule</text>
</g>
<!-- SacDropzoneMultipleComponent&#45;&gt;SACBootstrap3UploadModule -->
<g id="edge1" class="edge">
<title>SacDropzoneMultipleComponent&#45;&gt;SACBootstrap3UploadModule</title>
<path fill="none" stroke="black" d="M730,-187.11C730,-187.11 730,-205.99 730,-205.99"/>
<polygon fill="black" stroke="black" points="726.5,-205.99 730,-215.99 733.5,-205.99 726.5,-205.99"/>
</g>
<!-- SacDropzoneSingleComponent -->
<g id="node2" class="node">
<title>SacDropzoneSingleComponent</title>
<polygon fill="#ffffb3" stroke="black" points="216.02,-187 23.98,-187 23.98,-151 216.02,-151 216.02,-187"/>
<text text-anchor="middle" x="120" y="-164.8" font-family="Times,serif" font-size="14.00">SacDropzoneSingleComponent</text>
</g>
<!-- SacDropzoneSingleComponent&#45;&gt;SacDropzoneSingleComponent -->
<g id="edge5" class="edge">
<title>SacDropzoneSingleComponent&#45;&gt;SacDropzoneSingleComponent</title>
<path fill="none" stroke="black" d="M203.13,-150.93C203.13,-141.54 203.13,-132 203.13,-132 203.13,-132 236.89,-132 236.89,-132 236.89,-132 236.89,-197 236.89,-197 236.89,-197 152.09,-197 152.09,-197 152.09,-197 152.09,-196.02 152.09,-196.02"/>
<polygon fill="black" stroke="black" points="155.59,-197.21 152.09,-187.21 148.59,-197.21 155.59,-197.21"/>
</g>
<!-- SacDropzoneSingleComponent&#45;&gt;SACBootstrap3UploadModule -->
<g id="edge4" class="edge">
<title>SacDropzoneSingleComponent&#45;&gt;SACBootstrap3UploadModule</title>
<path fill="none" stroke="black" d="M87.91,-187.13C87.91,-207.57 87.91,-238 87.91,-238 87.91,-238 625.26,-238 625.26,-238"/>
<polygon fill="black" stroke="black" points="625.26,-241.5 635.26,-238 625.26,-234.5 625.26,-241.5"/>
</g>
<!-- SacUploadComponent -->
<g id="node3" class="node">
<title>SacUploadComponent</title>
<polygon fill="#ffffb3" stroke="black" points="609.26,-187 466.74,-187 466.74,-151 609.26,-151 609.26,-187"/>
<text text-anchor="middle" x="538" y="-164.8" font-family="Times,serif" font-size="14.00">SacUploadComponent</text>
</g>
<!-- SacUploadComponent&#45;&gt;SACBootstrap3UploadModule -->
<g id="edge7" class="edge">
<title>SacUploadComponent&#45;&gt;SACBootstrap3UploadModule</title>
<path fill="none" stroke="black" d="M586.12,-187.01C586.12,-203.05 586.12,-224 586.12,-224 586.12,-224 625.24,-224 625.24,-224"/>
<polygon fill="black" stroke="black" points="625.24,-227.5 635.24,-224 625.24,-220.5 625.24,-227.5"/>
</g>
<!-- SacUploadMultipleComponent -->
<g id="node4" class="node">
<title>SacUploadMultipleComponent</title>
<polygon fill="#ffffb3" stroke="black" points="448.48,-187 257.52,-187 257.52,-151 448.48,-151 448.48,-187"/>
<text text-anchor="middle" x="353" y="-164.8" font-family="Times,serif" font-size="14.00">SacUploadMultipleComponent</text>
</g>
<!-- SacUploadMultipleComponent&#45;&gt;SACBootstrap3UploadModule -->
<g id="edge8" class="edge">
<title>SacUploadMultipleComponent&#45;&gt;SACBootstrap3UploadModule</title>
<path fill="none" stroke="black" d="M399.62,-187.27C399.62,-205.56 399.62,-231 399.62,-231 399.62,-231 624.89,-231 624.89,-231"/>
<polygon fill="black" stroke="black" points="624.89,-234.5 634.89,-231 624.89,-227.5 624.89,-234.5"/>
</g>
<!-- SacDropzoneMultipleComponent  -->
<g id="node10" class="node">
<title>SacDropzoneMultipleComponent </title>
<polygon fill="#fb8072" stroke="black" points="1149.46,-317 940.54,-317 940.54,-281 1149.46,-281 1149.46,-317"/>
<text text-anchor="middle" x="1045" y="-294.8" font-family="Times,serif" font-size="14.00">SacDropzoneMultipleComponent </text>
</g>
<!-- SACBootstrap3UploadModule&#45;&gt;SacDropzoneMultipleComponent  -->
<g id="edge12" class="edge">
<title>SACBootstrap3UploadModule&#45;&gt;SacDropzoneMultipleComponent </title>
<path fill="none" stroke="black" stroke-dasharray="5,2" d="M824.98,-245C902.53,-245 999.39,-245 999.39,-245 999.39,-245 999.39,-270.72 999.39,-270.72"/>
<polygon fill="black" stroke="black" points="995.89,-270.72 999.39,-280.72 1002.89,-270.72 995.89,-270.72"/>
</g>
<!-- SacDropzoneSingleComponent  -->
<g id="node11" class="node">
<title>SacDropzoneSingleComponent </title>
<polygon fill="#fb8072" stroke="black" points="923.02,-317 726.98,-317 726.98,-281 923.02,-281 923.02,-317"/>
<text text-anchor="middle" x="825" y="-294.8" font-family="Times,serif" font-size="14.00">SacDropzoneSingleComponent </text>
</g>
<!-- SACBootstrap3UploadModule&#45;&gt;SacDropzoneSingleComponent  -->
<g id="edge13" class="edge">
<title>SACBootstrap3UploadModule&#45;&gt;SacDropzoneSingleComponent </title>
<path fill="none" stroke="black" stroke-dasharray="5,2" d="M775.85,-252.11C775.85,-252.11 775.85,-270.99 775.85,-270.99"/>
<polygon fill="black" stroke="black" points="772.35,-270.99 775.85,-280.99 779.35,-270.99 772.35,-270.99"/>
</g>
<!-- SacUploadComponent  -->
<g id="node12" class="node">
<title>SacUploadComponent </title>
<polygon fill="#fb8072" stroke="black" points="709.26,-317 562.74,-317 562.74,-281 709.26,-281 709.26,-317"/>
<text text-anchor="middle" x="636" y="-294.8" font-family="Times,serif" font-size="14.00">SacUploadComponent </text>
</g>
<!-- SACBootstrap3UploadModule&#45;&gt;SacUploadComponent  -->
<g id="edge14" class="edge">
<title>SACBootstrap3UploadModule&#45;&gt;SacUploadComponent </title>
<path fill="none" stroke="black" stroke-dasharray="5,2" d="M672.21,-252.11C672.21,-252.11 672.21,-270.99 672.21,-270.99"/>
<polygon fill="black" stroke="black" points="668.71,-270.99 672.21,-280.99 675.71,-270.99 668.71,-270.99"/>
</g>
<!-- SacUploadMultipleComponent  -->
<g id="node13" class="node">
<title>SacUploadMultipleComponent </title>
<polygon fill="#fb8072" stroke="black" points="545.48,-317 350.52,-317 350.52,-281 545.48,-281 545.48,-317"/>
<text text-anchor="middle" x="448" y="-294.8" font-family="Times,serif" font-size="14.00">SacUploadMultipleComponent </text>
</g>
<!-- SACBootstrap3UploadModule&#45;&gt;SacUploadMultipleComponent  -->
<g id="edge15" class="edge">
<title>SACBootstrap3UploadModule&#45;&gt;SacUploadMultipleComponent </title>
<path fill="none" stroke="black" stroke-dasharray="5,2" d="M634.97,-245C573.9,-245 505.93,-245 505.93,-245 505.93,-245 505.93,-270.72 505.93,-270.72"/>
<polygon fill="black" stroke="black" points="502.43,-270.72 505.93,-280.72 509.43,-270.72 502.43,-270.72"/>
</g>
<!-- ) -->
<g id="node6" class="node">
<title>)</title>
<ellipse fill="#fdb462" stroke="black" cx="163" cy="-104" rx="27" ry="18"/>
<text text-anchor="middle" x="163" y="-99.8" font-family="Times,serif" font-size="14.00">)</text>
</g>
<!-- )&#45;&gt;SacDropzoneMultipleComponent -->
<g id="edge3" class="edge">
<title>)&#45;&gt;SacDropzoneMultipleComponent</title>
<path fill="none" stroke="black" d="M190.39,-104C308,-104 764.16,-104 764.16,-104 764.16,-104 764.16,-140.89 764.16,-140.89"/>
<polygon fill="black" stroke="black" points="760.66,-140.89 764.16,-150.89 767.66,-140.89 760.66,-140.89"/>
</g>
<!-- )&#45;&gt;SacDropzoneSingleComponent -->
<g id="edge6" class="edge">
<title>)&#45;&gt;SacDropzoneSingleComponent</title>
<path fill="none" stroke="black" d="M163,-122.11C163,-122.11 163,-140.99 163,-140.99"/>
<polygon fill="black" stroke="black" points="159.5,-140.99 163,-150.99 166.5,-140.99 159.5,-140.99"/>
</g>
<!-- SACBootstrap3LayoutModule -->
<g id="node7" class="node">
<title>SACBootstrap3LayoutModule</title>
<polygon fill="#8dd3c7" stroke="black" points="1471.87,-187 1468.87,-191 1447.87,-191 1444.87,-187 1284.13,-187 1284.13,-151 1471.87,-151 1471.87,-187"/>
<text text-anchor="middle" x="1378" y="-164.8" font-family="Times,serif" font-size="14.00">SACBootstrap3LayoutModule</text>
</g>
<!-- SACBootstrap3LayoutModule&#45;&gt;SACBootstrap3UploadModule -->
<g id="edge9" class="edge">
<title>SACBootstrap3LayoutModule&#45;&gt;SACBootstrap3UploadModule</title>
<path fill="none" stroke="black" d="M1378,-187.13C1378,-207.57 1378,-238 1378,-238 1378,-238 834.92,-238 834.92,-238"/>
<polygon fill="black" stroke="black" points="834.92,-234.5 824.92,-238 834.92,-241.5 834.92,-234.5"/>
</g>
<!-- SACBootstrap3TooltipModule -->
<g id="node8" class="node">
<title>SACBootstrap3TooltipModule</title>
<polygon fill="#8dd3c7" stroke="black" points="1265.94,-187 1262.94,-191 1241.94,-191 1238.94,-187 1076.06,-187 1076.06,-151 1265.94,-151 1265.94,-187"/>
<text text-anchor="middle" x="1171" y="-164.8" font-family="Times,serif" font-size="14.00">SACBootstrap3TooltipModule</text>
</g>
<!-- SACBootstrap3TooltipModule&#45;&gt;SACBootstrap3UploadModule -->
<g id="edge10" class="edge">
<title>SACBootstrap3TooltipModule&#45;&gt;SACBootstrap3UploadModule</title>
<path fill="none" stroke="black" d="M1112.76,-187.27C1112.76,-205.56 1112.76,-231 1112.76,-231 1112.76,-231 835.11,-231 835.11,-231"/>
<polygon fill="black" stroke="black" points="835.11,-227.5 825.11,-231 835.11,-234.5 835.11,-227.5"/>
</g>
<!-- SACCommonUtliltiesModule -->
<g id="node9" class="node">
<title>SACCommonUtliltiesModule</title>
<polygon fill="#8dd3c7" stroke="black" points="1058,-187 1055,-191 1034,-191 1031,-187 874,-187 874,-151 1058,-151 1058,-187"/>
<text text-anchor="middle" x="966" y="-164.8" font-family="Times,serif" font-size="14.00">SACCommonUtliltiesModule</text>
</g>
<!-- SACCommonUtliltiesModule&#45;&gt;SACBootstrap3UploadModule -->
<g id="edge11" class="edge">
<title>SACCommonUtliltiesModule&#45;&gt;SACBootstrap3UploadModule</title>
<path fill="none" stroke="black" d="M898.5,-187.01C898.5,-203.05 898.5,-224 898.5,-224 898.5,-224 835.09,-224 835.09,-224"/>
<polygon fill="black" stroke="black" points="835.09,-220.5 825.09,-224 835.09,-227.5 835.09,-220.5"/>
</g>
</g>
</svg>
