<?xml version="1.0" encoding="UTF-8" standalone="no"?>
<!DOCTYPE svg PUBLIC "-//W3C//DTD SVG 1.1//EN"
 "http://www.w3.org/Graphics/SVG/1.1/DTD/svg11.dtd">
<!-- Generated by graphviz version 2.47.0 (20210316.0004)
 -->
<!-- Title: dependencies Pages: 1 -->
<svg width="1499pt" height="349pt"
 viewBox="0.00 0.00 1499.00 349.00" xmlns="http://www.w3.org/2000/svg" xmlns:xlink="http://www.w3.org/1999/xlink">
<g id="graph0" class="graph" transform="scale(1 1) rotate(0) translate(4 345)">
<title>dependencies</title>
<polygon fill="white" stroke="transparent" points="-4,4 -4,-345 1495,-345 1495,4 -4,4"/>
<text text-anchor="start" x="724.51" y="-42.4" font-family="Times-12" font-weight="bold" font-size="14.00">Legend</text>
<polygon fill="#ffffb3" stroke="transparent" points="511.5,-10 511.5,-30 531.5,-30 531.5,-10 511.5,-10"/>
<text text-anchor="start" x="535.13" y="-15.4" font-family="Times-12" font-size="14.00"> &#160;Declarations</text>
<polygon fill="#8dd3c7" stroke="transparent" points="624.5,-10 624.5,-30 644.5,-30 644.5,-10 624.5,-10"/>
<text text-anchor="start" x="648.23" y="-15.4" font-family="Times-12" font-size="14.00"> &#160;Module</text>
<polygon fill="#80b1d3" stroke="transparent" points="710.5,-10 710.5,-30 730.5,-30 730.5,-10 710.5,-10"/>
<text text-anchor="start" x="734.28" y="-15.4" font-family="Times-12" font-size="14.00"> &#160;Bootstrap</text>
<polygon fill="#fdb462" stroke="transparent" points="807.5,-10 807.5,-30 827.5,-30 827.5,-10 807.5,-10"/>
<text text-anchor="start" x="831.17" y="-15.4" font-family="Times-12" font-size="14.00"> &#160;Providers</text>
<polygon fill="#fb8072" stroke="transparent" points="903.5,-10 903.5,-30 923.5,-30 923.5,-10 903.5,-10"/>
<text text-anchor="start" x="927.23" y="-15.4" font-family="Times-12" font-size="14.00"> &#160;Exports</text>
<g id="clust1" class="cluster">
<title>cluster_SACBootstrap3UploadModule</title>
<polygon fill="none" stroke="black" stroke-dasharray="1,5" points="8,-70 8,-333 1483,-333 1483,-70 8,-70"/>
</g>
<g id="clust7" class="cluster">
<title>cluster_SACBootstrap3UploadModule_imports</title>
<polygon fill="none" stroke="black" points="861,-143 861,-195 1475,-195 1475,-143 861,-143"/>
</g>
<g id="clust2" class="cluster">
<title>cluster_SACBootstrap3UploadModule_declarations</title>
<polygon fill="none" stroke="black" points="16,-143 16,-195 853,-195 853,-143 16,-143"/>
</g>
<g id="clust3" class="cluster">
<title>cluster_SACBootstrap3UploadModule_SacDropzoneMultipleComponent_providers</title>
<polygon fill="none" stroke="black" points="572,-78 572,-130 642,-130 642,-78 572,-78"/>
</g>
<g id="clust8" class="cluster">
<title>cluster_SACBootstrap3UploadModule_exports</title>
<polygon fill="none" stroke="black" points="338,-273 338,-325 1152,-325 1152,-273 338,-273"/>
</g>
<!-- SacDropzoneMultipleComponent -->
<g id="node1" class="node">
<title>SacDropzoneMultipleComponent</title>
<polygon fill="#ffffb3" stroke="black" points="827.46,-187 622.54,-187 622.54,-151 827.46,-151 827.46,-187"/>
<text text-anchor="middle" x="725" y="-164.8" font-family="Times,serif" font-size="14.00">SacDropzoneMultipleComponent</text>
</g>
<!-- SacDropzoneMultipleComponent&#45;&gt;SacDropzoneMultipleComponent -->
<g id="edge2" class="edge">
<title>SacDropzoneMultipleComponent&#45;&gt;SacDropzoneMultipleComponent</title>
<path fill="none" stroke="black" d="M626.35,-150.84C626.35,-145.96 626.35,-142 626.35,-142 626.35,-142 613.45,-142 613.45,-142 613.45,-142 613.45,-207 613.45,-207 613.45,-207 626.4,-207 626.4,-207 626.4,-207 626.4,-197.11 626.4,-197.11"/>
<polygon fill="black" stroke="black" points="629.9,-197.11 626.4,-187.11 622.9,-197.11 629.9,-197.11"/>
</g>
<!-- SACBootstrap3UploadModule -->
<g id="node5" class="node">
<title>SACBootstrap3UploadModule</title>
<polygon fill="#8dd3c7" stroke="black" points="819.93,-252 816.93,-256 795.93,-256 792.93,-252 630.07,-252 630.07,-216 819.93,-216 819.93,-252"/>
<text text-anchor="middle" x="725" y="-229.8" font-family="Times,serif" font-size="14.00">SACBootstrap3UploadModule</text>
</g>
<!-- SacDropzoneMultipleComponent&#45;&gt;SACBootstrap3UploadModule -->
<g id="edge1" class="edge">
<title>SacDropzoneMultipleComponent&#45;&gt;SACBootstrap3UploadModule</title>
<path fill="none" stroke="black" d="M725,-187.11C725,-187.11 725,-205.99 725,-205.99"/>
<polygon fill="black" stroke="black" points="721.5,-205.99 725,-215.99 728.5,-205.99 721.5,-205.99"/>
</g>
<!-- SacDropzoneSingleComponent -->
<g id="node2" class="node">
<title>SacDropzoneSingleComponent</title>
<polygon fill="#ffffb3" stroke="black" points="586.02,-187 393.98,-187 393.98,-151 586.02,-151 586.02,-187"/>
<text text-anchor="middle" x="490" y="-164.8" font-family="Times,serif" font-size="14.00">SacDropzoneSingleComponent</text>
</g>
<!-- SacDropzoneSingleComponent&#45;&gt;SacDropzoneSingleComponent -->
<g id="edge5" class="edge">
<title>SacDropzoneSingleComponent&#45;&gt;SacDropzoneSingleComponent</title>
<path fill="none" stroke="black" d="M486.87,-150.93C486.87,-141.54 486.87,-132 486.87,-132 486.87,-132 604.39,-132 604.39,-132 604.39,-132 604.39,-197 604.39,-197 604.39,-197 576.8,-197 576.8,-197 576.8,-197 576.8,-196.02 576.8,-196.02"/>
<polygon fill="black" stroke="black" points="580.3,-197.21 576.8,-187.21 573.3,-197.21 580.3,-197.21"/>
</g>
<!-- SacDropzoneSingleComponent&#45;&gt;SACBootstrap3UploadModule -->
<g id="edge4" class="edge">
<title>SacDropzoneSingleComponent&#45;&gt;SACBootstrap3UploadModule</title>
<path fill="none" stroke="black" d="M567.33,-187.01C567.33,-203.05 567.33,-224 567.33,-224 567.33,-224 620.1,-224 620.1,-224"/>
<polygon fill="black" stroke="black" points="620.1,-227.5 630.1,-224 620.1,-220.5 620.1,-227.5"/>
</g>
<!-- SacUploadComponent -->
<g id="node3" class="node">
<title>SacUploadComponent</title>
<polygon fill="#ffffb3" stroke="black" points="375.26,-187 232.74,-187 232.74,-151 375.26,-151 375.26,-187"/>
<text text-anchor="middle" x="304" y="-164.8" font-family="Times,serif" font-size="14.00">SacUploadComponent</text>
</g>
<!-- SacUploadComponent&#45;&gt;SACBootstrap3UploadModule -->
<g id="edge7" class="edge">
<title>SacUploadComponent&#45;&gt;SACBootstrap3UploadModule</title>
<path fill="none" stroke="black" d="M360.57,-187.27C360.57,-205.56 360.57,-231 360.57,-231 360.57,-231 620.2,-231 620.2,-231"/>
<polygon fill="black" stroke="black" points="620.2,-234.5 630.2,-231 620.2,-227.5 620.2,-234.5"/>
</g>
<!-- SacUploadMultipleComponent -->
<g id="node4" class="node">
<title>SacUploadMultipleComponent</title>
<polygon fill="#ffffb3" stroke="black" points="214.48,-187 23.52,-187 23.52,-151 214.48,-151 214.48,-187"/>
<text text-anchor="middle" x="119" y="-164.8" font-family="Times,serif" font-size="14.00">SacUploadMultipleComponent</text>
</g>
<!-- SacUploadMultipleComponent&#45;&gt;SACBootstrap3UploadModule -->
<g id="edge8" class="edge">
<title>SacUploadMultipleComponent&#45;&gt;SACBootstrap3UploadModule</title>
<path fill="none" stroke="black" d="M119,-187.13C119,-207.57 119,-238 119,-238 119,-238 619.98,-238 619.98,-238"/>
<polygon fill="black" stroke="black" points="619.98,-241.5 629.98,-238 619.98,-234.5 619.98,-241.5"/>
</g>
<!-- SacDropzoneMultipleComponent  -->
<g id="node10" class="node">
<title>SacDropzoneMultipleComponent </title>
<polygon fill="#fb8072" stroke="black" points="1144.46,-317 935.54,-317 935.54,-281 1144.46,-281 1144.46,-317"/>
<text text-anchor="middle" x="1040" y="-294.8" font-family="Times,serif" font-size="14.00">SacDropzoneMultipleComponent </text>
</g>
<!-- SACBootstrap3UploadModule&#45;&gt;SacDropzoneMultipleComponent  -->
<g id="edge12" class="edge">
<title>SACBootstrap3UploadModule&#45;&gt;SacDropzoneMultipleComponent </title>
<path fill="none" stroke="black" stroke-dasharray="5,2" d="M819.98,-245C897.53,-245 994.39,-245 994.39,-245 994.39,-245 994.39,-270.72 994.39,-270.72"/>
<polygon fill="black" stroke="black" points="990.89,-270.72 994.39,-280.72 997.89,-270.72 990.89,-270.72"/>
</g>
<!-- SacDropzoneSingleComponent  -->
<g id="node11" class="node">
<title>SacDropzoneSingleComponent </title>
<polygon fill="#fb8072" stroke="black" points="918.02,-317 721.98,-317 721.98,-281 918.02,-281 918.02,-317"/>
<text text-anchor="middle" x="820" y="-294.8" font-family="Times,serif" font-size="14.00">SacDropzoneSingleComponent </text>
</g>
<!-- SACBootstrap3UploadModule&#45;&gt;SacDropzoneSingleComponent  -->
<g id="edge13" class="edge">
<title>SACBootstrap3UploadModule&#45;&gt;SacDropzoneSingleComponent </title>
<path fill="none" stroke="black" stroke-dasharray="5,2" d="M770.85,-252.11C770.85,-252.11 770.85,-270.99 770.85,-270.99"/>
<polygon fill="black" stroke="black" points="767.35,-270.99 770.85,-280.99 774.35,-270.99 767.35,-270.99"/>
</g>
<!-- SacUploadComponent  -->
<g id="node12" class="node">
<title>SacUploadComponent </title>
<polygon fill="#fb8072" stroke="black" points="704.26,-317 557.74,-317 557.74,-281 704.26,-281 704.26,-317"/>
<text text-anchor="middle" x="631" y="-294.8" font-family="Times,serif" font-size="14.00">SacUploadComponent </text>
</g>
<!-- SACBootstrap3UploadModule&#45;&gt;SacUploadComponent  -->
<g id="edge14" class="edge">
<title>SACBootstrap3UploadModule&#45;&gt;SacUploadComponent </title>
<path fill="none" stroke="black" stroke-dasharray="5,2" d="M667.21,-252.11C667.21,-252.11 667.21,-270.99 667.21,-270.99"/>
<polygon fill="black" stroke="black" points="663.71,-270.99 667.21,-280.99 670.71,-270.99 663.71,-270.99"/>
</g>
<!-- SacUploadMultipleComponent  -->
<g id="node13" class="node">
<title>SacUploadMultipleComponent </title>
<polygon fill="#fb8072" stroke="black" points="540.48,-317 345.52,-317 345.52,-281 540.48,-281 540.48,-317"/>
<text text-anchor="middle" x="443" y="-294.8" font-family="Times,serif" font-size="14.00">SacUploadMultipleComponent </text>
</g>
<!-- SACBootstrap3UploadModule&#45;&gt;SacUploadMultipleComponent  -->
<g id="edge15" class="edge">
<title>SACBootstrap3UploadModule&#45;&gt;SacUploadMultipleComponent </title>
<path fill="none" stroke="black" stroke-dasharray="5,2" d="M630.03,-245C556.46,-245 466.99,-245 466.99,-245 466.99,-245 466.99,-270.72 466.99,-270.72"/>
<polygon fill="black" stroke="black" points="463.49,-270.72 466.99,-280.72 470.49,-270.72 463.49,-270.72"/>
</g>
<!-- ) -->
<g id="node6" class="node">
<title>)</title>
<ellipse fill="#fdb462" stroke="black" cx="607" cy="-104" rx="27" ry="18"/>
<text text-anchor="middle" x="607" y="-99.8" font-family="Times,serif" font-size="14.00">)</text>
</g>
<!-- )&#45;&gt;SacDropzoneMultipleComponent -->
<g id="edge3" class="edge">
<title>)&#45;&gt;SacDropzoneMultipleComponent</title>
<path fill="none" stroke="black" d="M630.17,-113.31C630.17,-113.31 630.17,-140.85 630.17,-140.85"/>
<polygon fill="black" stroke="black" points="626.67,-140.85 630.17,-150.85 633.67,-140.85 626.67,-140.85"/>
</g>
<!-- )&#45;&gt;SacDropzoneSingleComponent -->
<g id="edge6" class="edge">
<title>)&#45;&gt;SacDropzoneSingleComponent</title>
<path fill="none" stroke="black" d="M595.32,-120.4C595.32,-139.66 595.32,-169 595.32,-169 595.32,-169 594.43,-169 594.43,-169"/>
<polygon fill="black" stroke="black" points="596.34,-165.5 586.34,-169 596.34,-172.5 596.34,-165.5"/>
</g>
<!-- SACBootstrap3LayoutModule -->
<g id="node7" class="node">
<title>SACBootstrap3LayoutModule</title>
<polygon fill="#8dd3c7" stroke="black" points="1466.87,-187 1463.87,-191 1442.87,-191 1439.87,-187 1279.13,-187 1279.13,-151 1466.87,-151 1466.87,-187"/>
<text text-anchor="middle" x="1373" y="-164.8" font-family="Times,serif" font-size="14.00">SACBootstrap3LayoutModule</text>
</g>
<!-- SACBootstrap3LayoutModule&#45;&gt;SACBootstrap3UploadModule -->
<g id="edge9" class="edge">
<title>SACBootstrap3LayoutModule&#45;&gt;SACBootstrap3UploadModule</title>
<path fill="none" stroke="black" d="M1373,-187.13C1373,-207.57 1373,-238 1373,-238 1373,-238 829.92,-238 829.92,-238"/>
<polygon fill="black" stroke="black" points="829.92,-234.5 819.92,-238 829.92,-241.5 829.92,-234.5"/>
</g>
<!-- SACBootstrap3TooltipModule -->
<g id="node8" class="node">
<title>SACBootstrap3TooltipModule</title>
<polygon fill="#8dd3c7" stroke="black" points="1260.94,-187 1257.94,-191 1236.94,-191 1233.94,-187 1071.06,-187 1071.06,-151 1260.94,-151 1260.94,-187"/>
<text text-anchor="middle" x="1166" y="-164.8" font-family="Times,serif" font-size="14.00">SACBootstrap3TooltipModule</text>
</g>
<!-- SACBootstrap3TooltipModule&#45;&gt;SACBootstrap3UploadModule -->
<g id="edge10" class="edge">
<title>SACBootstrap3TooltipModule&#45;&gt;SACBootstrap3UploadModule</title>
<path fill="none" stroke="black" d="M1107.76,-187.27C1107.76,-205.56 1107.76,-231 1107.76,-231 1107.76,-231 830.11,-231 830.11,-231"/>
<polygon fill="black" stroke="black" points="830.11,-227.5 820.11,-231 830.11,-234.5 830.11,-227.5"/>
</g>
<!-- SACCommonUtliltiesModule -->
<g id="node9" class="node">
<title>SACCommonUtliltiesModule</title>
<polygon fill="#8dd3c7" stroke="black" points="1053,-187 1050,-191 1029,-191 1026,-187 869,-187 869,-151 1053,-151 1053,-187"/>
<text text-anchor="middle" x="961" y="-164.8" font-family="Times,serif" font-size="14.00">SACCommonUtliltiesModule</text>
</g>
<!-- SACCommonUtliltiesModule&#45;&gt;SACBootstrap3UploadModule -->
<g id="edge11" class="edge">
<title>SACCommonUtliltiesModule&#45;&gt;SACBootstrap3UploadModule</title>
<path fill="none" stroke="black" d="M893.5,-187.01C893.5,-203.05 893.5,-224 893.5,-224 893.5,-224 830.09,-224 830.09,-224"/>
<polygon fill="black" stroke="black" points="830.09,-220.5 820.09,-224 830.09,-227.5 830.09,-220.5"/>
</g>
</g>
</svg>
