<?xml version="1.0" encoding="UTF-8" standalone="no"?>
<!DOCTYPE svg PUBLIC "-//W3C//DTD SVG 1.1//EN"
 "http://www.w3.org/Graphics/SVG/1.1/DTD/svg11.dtd">
<!-- Generated by graphviz version 2.47.0 (20210316.0004)
 -->
<!-- Title: dependencies Pages: 1 -->
<svg width="1802pt" height="284pt"
 viewBox="0.00 0.00 1802.00 284.00" xmlns="http://www.w3.org/2000/svg" xmlns:xlink="http://www.w3.org/1999/xlink">
<g id="graph0" class="graph" transform="scale(1 1) rotate(0) translate(4 280)">
<title>dependencies</title>
<polygon fill="white" stroke="transparent" points="-4,4 -4,-280 1798,-280 1798,4 -4,4"/>
<text text-anchor="start" x="876.01" y="-42.4" font-family="Times-12" font-weight="bold" font-size="14.00">Legend</text>
<polygon fill="#ffffb3" stroke="transparent" points="663,-10 663,-30 683,-30 683,-10 663,-10"/>
<text text-anchor="start" x="686.63" y="-15.4" font-family="Times-12" font-size="14.00"> &#160;Declarations</text>
<polygon fill="#8dd3c7" stroke="transparent" points="776,-10 776,-30 796,-30 796,-10 776,-10"/>
<text text-anchor="start" x="799.73" y="-15.4" font-family="Times-12" font-size="14.00"> &#160;Module</text>
<polygon fill="#80b1d3" stroke="transparent" points="862,-10 862,-30 882,-30 882,-10 862,-10"/>
<text text-anchor="start" x="885.78" y="-15.4" font-family="Times-12" font-size="14.00"> &#160;Bootstrap</text>
<polygon fill="#fdb462" stroke="transparent" points="959,-10 959,-30 979,-30 979,-10 959,-10"/>
<text text-anchor="start" x="982.67" y="-15.4" font-family="Times-12" font-size="14.00"> &#160;Providers</text>
<polygon fill="#fb8072" stroke="transparent" points="1055,-10 1055,-30 1075,-30 1075,-10 1055,-10"/>
<text text-anchor="start" x="1078.73" y="-15.4" font-family="Times-12" font-size="14.00"> &#160;Exports</text>
<g id="clust1" class="cluster">
<title>cluster_SACBootstrap4MultilanguageModule</title>
<polygon fill="none" stroke="black" stroke-dasharray="1,5" points="8,-70 8,-268 1786,-268 1786,-70 8,-70"/>
</g>
<g id="clust9" class="cluster">
<title>cluster_SACBootstrap4MultilanguageModule_imports</title>
<polygon fill="none" stroke="black" points="1574,-78 1574,-130 1778,-130 1778,-78 1574,-78"/>
</g>
<g id="clust10" class="cluster">
<title>cluster_SACBootstrap4MultilanguageModule_exports</title>
<polygon fill="none" stroke="black" points="708,-208 708,-260 1202,-260 1202,-208 708,-208"/>
</g>
<g id="clust2" class="cluster">
<title>cluster_SACBootstrap4MultilanguageModule_declarations</title>
<polygon fill="none" stroke="black" points="16,-78 16,-130 1566,-130 1566,-78 16,-78"/>
</g>
<!-- SacMultilanguageInputAreaComponent -->
<g id="node1" class="node">
<title>SacMultilanguageInputAreaComponent</title>
<polygon fill="#ffffb3" stroke="black" points="1557.94,-122 1318.06,-122 1318.06,-86 1557.94,-86 1557.94,-122"/>
<text text-anchor="middle" x="1438" y="-99.8" font-family="Times,serif" font-size="14.00">SacMultilanguageInputAreaComponent</text>
</g>
<!-- SACBootstrap4MultilanguageModule -->
<g id="node7" class="node">
<title>SACBootstrap4MultilanguageModule</title>
<polygon fill="#8dd3c7" stroke="black" points="1062.86,-187 1059.86,-191 1038.86,-191 1035.86,-187 833.14,-187 833.14,-151 1062.86,-151 1062.86,-187"/>
<text text-anchor="middle" x="948" y="-164.8" font-family="Times,serif" font-size="14.00">SACBootstrap4MultilanguageModule</text>
</g>
<!-- SacMultilanguageInputAreaComponent&#45;&gt;SACBootstrap4MultilanguageModule -->
<g id="edge1" class="edge">
<title>SacMultilanguageInputAreaComponent&#45;&gt;SACBootstrap4MultilanguageModule</title>
<path fill="none" stroke="black" d="M1438,-122.11C1438,-141.34 1438,-169 1438,-169 1438,-169 1072.88,-169 1072.88,-169"/>
<polygon fill="black" stroke="black" points="1072.88,-165.5 1062.88,-169 1072.88,-172.5 1072.88,-165.5"/>
</g>
<!-- SacMultilanguageInputComponent -->
<g id="node2" class="node">
<title>SacMultilanguageInputComponent</title>
<polygon fill="#ffffb3" stroke="black" points="1300.25,-122 1087.75,-122 1087.75,-86 1300.25,-86 1300.25,-122"/>
<text text-anchor="middle" x="1194" y="-99.8" font-family="Times,serif" font-size="14.00">SacMultilanguageInputComponent</text>
</g>
<!-- SacMultilanguageInputComponent&#45;&gt;SACBootstrap4MultilanguageModule -->
<g id="edge2" class="edge">
<title>SacMultilanguageInputComponent&#45;&gt;SACBootstrap4MultilanguageModule</title>
<path fill="none" stroke="black" d="M1140.67,-122.03C1140.67,-138.4 1140.67,-160 1140.67,-160 1140.67,-160 1073.14,-160 1073.14,-160"/>
<polygon fill="black" stroke="black" points="1073.14,-156.5 1063.14,-160 1073.14,-163.5 1073.14,-156.5"/>
</g>
<!-- SacMultilanguagemenuAnchorDirective -->
<g id="node3" class="node">
<title>SacMultilanguagemenuAnchorDirective</title>
<polygon fill="#ffffb3" stroke="black" points="1069.53,-122 826.47,-122 826.47,-86 1069.53,-86 1069.53,-122"/>
<text text-anchor="middle" x="948" y="-99.8" font-family="Times,serif" font-size="14.00">SacMultilanguagemenuAnchorDirective</text>
</g>
<!-- SacMultilanguagemenuAnchorDirective&#45;&gt;SACBootstrap4MultilanguageModule -->
<g id="edge3" class="edge">
<title>SacMultilanguagemenuAnchorDirective&#45;&gt;SACBootstrap4MultilanguageModule</title>
<path fill="none" stroke="black" d="M948,-122.11C948,-122.11 948,-140.99 948,-140.99"/>
<polygon fill="black" stroke="black" points="944.5,-140.99 948,-150.99 951.5,-140.99 944.5,-140.99"/>
</g>
<!-- SacMultilanguagemenuComponent -->
<g id="node4" class="node">
<title>SacMultilanguagemenuComponent</title>
<polygon fill="#ffffb3" stroke="black" points="808.3,-122 593.7,-122 593.7,-86 808.3,-86 808.3,-122"/>
<text text-anchor="middle" x="701" y="-99.8" font-family="Times,serif" font-size="14.00">SacMultilanguagemenuComponent</text>
</g>
<!-- SacMultilanguagemenuComponent&#45;&gt;SACBootstrap4MultilanguageModule -->
<g id="edge4" class="edge">
<title>SacMultilanguagemenuComponent&#45;&gt;SACBootstrap4MultilanguageModule</title>
<path fill="none" stroke="black" d="M762.01,-122.03C762.01,-138.4 762.01,-160 762.01,-160 762.01,-160 823.12,-160 823.12,-160"/>
<polygon fill="black" stroke="black" points="823.12,-163.5 833.12,-160 823.12,-156.5 823.12,-163.5"/>
</g>
<!-- SacMultilanguagemenuContainerDirective -->
<g id="node5" class="node">
<title>SacMultilanguagemenuContainerDirective</title>
<polygon fill="#ffffb3" stroke="black" points="576.26,-122 319.74,-122 319.74,-86 576.26,-86 576.26,-122"/>
<text text-anchor="middle" x="448" y="-99.8" font-family="Times,serif" font-size="14.00">SacMultilanguagemenuContainerDirective</text>
</g>
<!-- SacMultilanguagemenuContainerDirective&#45;&gt;SACBootstrap4MultilanguageModule -->
<g id="edge5" class="edge">
<title>SacMultilanguagemenuContainerDirective&#45;&gt;SACBootstrap4MultilanguageModule</title>
<path fill="none" stroke="black" d="M448,-122.11C448,-141.34 448,-169 448,-169 448,-169 822.98,-169 822.98,-169"/>
<polygon fill="black" stroke="black" points="822.98,-172.5 832.98,-169 822.98,-165.5 822.98,-172.5"/>
</g>
<!-- SacMultilanguagemenuItemButtonComponent -->
<g id="node6" class="node">
<title>SacMultilanguagemenuItemButtonComponent</title>
<polygon fill="#ffffb3" stroke="black" points="302.07,-122 23.93,-122 23.93,-86 302.07,-86 302.07,-122"/>
<text text-anchor="middle" x="163" y="-99.8" font-family="Times,serif" font-size="14.00">SacMultilanguagemenuItemButtonComponent</text>
</g>
<!-- SacMultilanguagemenuItemButtonComponent&#45;&gt;SACBootstrap4MultilanguageModule -->
<g id="edge6" class="edge">
<title>SacMultilanguagemenuItemButtonComponent&#45;&gt;SACBootstrap4MultilanguageModule</title>
<path fill="none" stroke="black" d="M163,-122.29C163,-144.21 163,-178 163,-178 163,-178 823.01,-178 823.01,-178"/>
<polygon fill="black" stroke="black" points="823.01,-181.5 833.01,-178 823.01,-174.5 823.01,-181.5"/>
</g>
<!-- SacMultilanguageInputAreaComponent  -->
<g id="node9" class="node">
<title>SacMultilanguageInputAreaComponent </title>
<polygon fill="#fb8072" stroke="black" points="1193.94,-252 950.06,-252 950.06,-216 1193.94,-216 1193.94,-252"/>
<text text-anchor="middle" x="1072" y="-229.8" font-family="Times,serif" font-size="14.00">SacMultilanguageInputAreaComponent </text>
</g>
<!-- SACBootstrap4MultilanguageModule&#45;&gt;SacMultilanguageInputAreaComponent  -->
<g id="edge8" class="edge">
<title>SACBootstrap4MultilanguageModule&#45;&gt;SacMultilanguageInputAreaComponent </title>
<path fill="none" stroke="black" stroke-dasharray="5,2" d="M1006.61,-187.11C1006.61,-187.11 1006.61,-205.99 1006.61,-205.99"/>
<polygon fill="black" stroke="black" points="1003.11,-205.99 1006.61,-215.99 1010.11,-205.99 1003.11,-205.99"/>
</g>
<!-- SacMultilanguageInputComponent  -->
<g id="node10" class="node">
<title>SacMultilanguageInputComponent </title>
<polygon fill="#fb8072" stroke="black" points="932.25,-252 715.75,-252 715.75,-216 932.25,-216 932.25,-252"/>
<text text-anchor="middle" x="824" y="-229.8" font-family="Times,serif" font-size="14.00">SacMultilanguageInputComponent </text>
</g>
<!-- SACBootstrap4MultilanguageModule&#45;&gt;SacMultilanguageInputComponent  -->
<g id="edge9" class="edge">
<title>SACBootstrap4MultilanguageModule&#45;&gt;SacMultilanguageInputComponent </title>
<path fill="none" stroke="black" stroke-dasharray="5,2" d="M882.6,-187.11C882.6,-187.11 882.6,-205.99 882.6,-205.99"/>
<polygon fill="black" stroke="black" points="879.1,-205.99 882.6,-215.99 886.1,-205.99 879.1,-205.99"/>
</g>
<!-- SACBootstrap4LayoutModule -->
<g id="node8" class="node">
<title>SACBootstrap4LayoutModule</title>
<polygon fill="#8dd3c7" stroke="black" points="1769.87,-122 1766.87,-126 1745.87,-126 1742.87,-122 1582.13,-122 1582.13,-86 1769.87,-86 1769.87,-122"/>
<text text-anchor="middle" x="1676" y="-99.8" font-family="Times,serif" font-size="14.00">SACBootstrap4LayoutModule</text>
</g>
<!-- SACBootstrap4LayoutModule&#45;&gt;SACBootstrap4MultilanguageModule -->
<g id="edge7" class="edge">
<title>SACBootstrap4LayoutModule&#45;&gt;SACBootstrap4MultilanguageModule</title>
<path fill="none" stroke="black" d="M1676,-122.29C1676,-144.21 1676,-178 1676,-178 1676,-178 1072.95,-178 1072.95,-178"/>
<polygon fill="black" stroke="black" points="1072.95,-174.5 1062.95,-178 1072.95,-181.5 1072.95,-174.5"/>
</g>
</g>
</svg>
