<?xml version="1.0" encoding="UTF-8" standalone="no"?>
<!DOCTYPE svg PUBLIC "-//W3C//DTD SVG 1.1//EN"
 "http://www.w3.org/Graphics/SVG/1.1/DTD/svg11.dtd">
<!-- Generated by graphviz version 2.40.1 (20161225.0304)
 -->
<!-- Title: dependencies Pages: 1 -->
<svg width="504pt" height="284pt"
 viewBox="0.00 0.00 504.00 284.00" xmlns="http://www.w3.org/2000/svg" xmlns:xlink="http://www.w3.org/1999/xlink">
<g id="graph0" class="graph" transform="scale(1 1) rotate(0) translate(4 280)">
<title>dependencies</title>
<polygon fill="#ffffff" stroke="transparent" points="-4,4 -4,-280 500,-280 500,4 -4,4"/>
<text text-anchor="start" x="227.0091" y="-42.4" font-family="sans-serif" font-weight="bold" font-size="14.00" fill="#000000">Legend</text>
<polygon fill="#ffffb3" stroke="transparent" points="14,-10 14,-30 34,-30 34,-10 14,-10"/>
<text text-anchor="start" x="37.629" y="-15.4" font-family="sans-serif" font-size="14.00" fill="#000000"> &#160;Declarations</text>
<polygon fill="#8dd3c7" stroke="transparent" points="127,-10 127,-30 147,-30 147,-10 127,-10"/>
<text text-anchor="start" x="150.7251" y="-15.4" font-family="sans-serif" font-size="14.00" fill="#000000"> &#160;Module</text>
<polygon fill="#80b1d3" stroke="transparent" points="213,-10 213,-30 233,-30 233,-10 213,-10"/>
<text text-anchor="start" x="236.7812" y="-15.4" font-family="sans-serif" font-size="14.00" fill="#000000"> &#160;Bootstrap</text>
<polygon fill="#fdb462" stroke="transparent" points="310,-10 310,-30 330,-30 330,-10 310,-10"/>
<text text-anchor="start" x="333.6732" y="-15.4" font-family="sans-serif" font-size="14.00" fill="#000000"> &#160;Providers</text>
<polygon fill="#fb8072" stroke="transparent" points="406,-10 406,-30 426,-30 426,-10 406,-10"/>
<text text-anchor="start" x="429.7258" y="-15.4" font-family="sans-serif" font-size="14.00" fill="#000000"> &#160;Exports</text>
<g id="clust1" class="cluster">
<title>cluster_JNetworkBootstrap3FormModule</title>
<polygon fill="none" stroke="#000000" stroke-dasharray="1,5" points="43,-70 43,-268 453,-268 453,-70 43,-70"/>
</g>
<g id="clust2" class="cluster">
<title>cluster_JNetworkBootstrap3FormModule_declarations</title>
<polygon fill="none" stroke="#000000" points="54,-78 54,-130 442,-130 442,-78 54,-78"/>
</g>
<g id="clust6" class="cluster">
<title>cluster_JNetworkBootstrap3FormModule_exports</title>
<polygon fill="none" stroke="#000000" points="51,-208 51,-260 445,-260 445,-208 51,-208"/>
</g>
<!-- NgFormularDirective -->
<g id="node1" class="node">
<title>NgFormularDirective</title>
<polygon fill="#ffffb3" stroke="#000000" points="433.7893,-122 296.2107,-122 296.2107,-86 433.7893,-86 433.7893,-122"/>
<text text-anchor="middle" x="365" y="-99.8" font-family="Times,serif" font-size="14.00" fill="#000000">NgFormularDirective</text>
</g>
<!-- JNetworkBootstrap3FormModule -->
<g id="node3" class="node">
<title>JNetworkBootstrap3FormModule</title>
<polygon fill="#8dd3c7" stroke="#000000" points="273.745,-187 270.745,-191 249.745,-191 246.745,-187 68.255,-187 68.255,-151 273.745,-151 273.745,-187"/>
<text text-anchor="middle" x="171" y="-164.8" font-family="Times,serif" font-size="14.00" fill="#000000">JNetworkBootstrap3FormModule</text>
</g>
<!-- NgFormularDirective&#45;&gt;JNetworkBootstrap3FormModule -->
<g id="edge1" class="edge">
<title>NgFormularDirective&#45;&gt;JNetworkBootstrap3FormModule</title>
<path fill="none" stroke="#000000" d="M387.9648,-122.0225C387.9648,-139.3734 387.9648,-163 387.9648,-163 387.9648,-163 283.764,-163 283.764,-163"/>
<polygon fill="#000000" stroke="#000000" points="283.7641,-159.5001 273.764,-163 283.764,-166.5001 283.7641,-159.5001"/>
</g>
<!-- ProvideParentNgFormularDirective -->
<g id="node2" class="node">
<title>ProvideParentNgFormularDirective</title>
<polygon fill="#ffffb3" stroke="#000000" points="278.1008,-122 61.8992,-122 61.8992,-86 278.1008,-86 278.1008,-122"/>
<text text-anchor="middle" x="170" y="-99.8" font-family="Times,serif" font-size="14.00" fill="#000000">ProvideParentNgFormularDirective</text>
</g>
<!-- ProvideParentNgFormularDirective&#45;&gt;JNetworkBootstrap3FormModule -->
<g id="edge2" class="edge">
<title>ProvideParentNgFormularDirective&#45;&gt;JNetworkBootstrap3FormModule</title>
<path fill="none" stroke="#000000" d="M171,-122.1061C171,-122.1061 171,-140.991 171,-140.991"/>
<polygon fill="#000000" stroke="#000000" points="167.5001,-140.9909 171,-150.991 174.5001,-140.991 167.5001,-140.9909"/>
</g>
<!-- NgFormularDirective  -->
<g id="node4" class="node">
<title>NgFormularDirective </title>
<polygon fill="#fb8072" stroke="#000000" points="437.2892,-252 296.7108,-252 296.7108,-216 437.2892,-216 437.2892,-252"/>
<text text-anchor="middle" x="367" y="-229.8" font-family="Times,serif" font-size="14.00" fill="#000000">NgFormularDirective </text>
</g>
<!-- JNetworkBootstrap3FormModule&#45;&gt;NgFormularDirective  -->
<g id="edge3" class="edge">
<title>JNetworkBootstrap3FormModule&#45;&gt;NgFormularDirective </title>
<path fill="none" stroke="#000000" stroke-dasharray="5,2" d="M274.0966,-175C310.3724,-175 342.2852,-175 342.2852,-175 342.2852,-175 342.2852,-205.9775 342.2852,-205.9775"/>
<polygon fill="#000000" stroke="#000000" points="338.7853,-205.9774 342.2852,-215.9775 345.7853,-205.9775 338.7853,-205.9774"/>
</g>
<!-- ProvideParentNgFormularDirective  -->
<g id="node5" class="node">
<title>ProvideParentNgFormularDirective </title>
<polygon fill="#fb8072" stroke="#000000" points="279.1004,-252 58.8996,-252 58.8996,-216 279.1004,-216 279.1004,-252"/>
<text text-anchor="middle" x="169" y="-229.8" font-family="Times,serif" font-size="14.00" fill="#000000">ProvideParentNgFormularDirective </text>
</g>
<!-- JNetworkBootstrap3FormModule&#45;&gt;ProvideParentNgFormularDirective  -->
<g id="edge4" class="edge">
<title>JNetworkBootstrap3FormModule&#45;&gt;ProvideParentNgFormularDirective </title>
<path fill="none" stroke="#000000" stroke-dasharray="5,2" d="M171,-187.1061C171,-187.1061 171,-205.991 171,-205.991"/>
<polygon fill="#000000" stroke="#000000" points="167.5001,-205.9909 171,-215.991 174.5001,-205.991 167.5001,-205.9909"/>
</g>
</g>
</svg>
