<?xml version="1.0" encoding="UTF-8" standalone="no"?>
<!DOCTYPE svg PUBLIC "-//W3C//DTD SVG 1.1//EN"
 "http://www.w3.org/Graphics/SVG/1.1/DTD/svg11.dtd">
<!-- Generated by graphviz version 2.40.1 (20161225.0304)
 -->
<!-- Title: dependencies Pages: 1 -->
<svg width="870pt" height="396pt"
 viewBox="0.00 0.00 870.00 395.59" xmlns="http://www.w3.org/2000/svg" xmlns:xlink="http://www.w3.org/1999/xlink">
<g id="graph0" class="graph" transform="scale(1 1) rotate(0) translate(4 391.5901)">
<title>dependencies</title>
<polygon fill="#ffffff" stroke="transparent" points="-4,4 -4,-391.5901 866,-391.5901 866,4 -4,4"/>
<text text-anchor="start" x="410.0091" y="-42.4" font-family="sans-serif" font-weight="bold" font-size="14.00" fill="#000000">Legend</text>
<polygon fill="#ffffb3" stroke="transparent" points="197,-10 197,-30 217,-30 217,-10 197,-10"/>
<text text-anchor="start" x="220.629" y="-15.4" font-family="sans-serif" font-size="14.00" fill="#000000"> &#160;Declarations</text>
<polygon fill="#8dd3c7" stroke="transparent" points="310,-10 310,-30 330,-30 330,-10 310,-10"/>
<text text-anchor="start" x="333.7251" y="-15.4" font-family="sans-serif" font-size="14.00" fill="#000000"> &#160;Module</text>
<polygon fill="#80b1d3" stroke="transparent" points="396,-10 396,-30 416,-30 416,-10 396,-10"/>
<text text-anchor="start" x="419.7812" y="-15.4" font-family="sans-serif" font-size="14.00" fill="#000000"> &#160;Bootstrap</text>
<polygon fill="#fdb462" stroke="transparent" points="493,-10 493,-30 513,-30 513,-10 493,-10"/>
<text text-anchor="start" x="516.6732" y="-15.4" font-family="sans-serif" font-size="14.00" fill="#000000"> &#160;Providers</text>
<polygon fill="#fb8072" stroke="transparent" points="589,-10 589,-30 609,-30 609,-10 589,-10"/>
<text text-anchor="start" x="612.7258" y="-15.4" font-family="sans-serif" font-size="14.00" fill="#000000"> &#160;Exports</text>
<g id="clust1" class="cluster">
<title>cluster_JNetworkBootstrap3ValidationSummaryModule</title>
<polygon fill="none" stroke="#000000" stroke-dasharray="1,5" points="8,-70 8,-379.5901 854,-379.5901 854,-70 8,-70"/>
</g>
<g id="clust2" class="cluster">
<title>cluster_JNetworkBootstrap3ValidationSummaryModule_declarations</title>
<polygon fill="none" stroke="#000000" points="317,-189.5901 317,-241.5901 545,-241.5901 545,-189.5901 317,-189.5901"/>
</g>
<g id="clust3" class="cluster">
<title>cluster_JNetworkBootstrap3ValidationSummaryModule_NgValidationSummaryComponent_providers</title>
<polygon fill="none" stroke="#000000" points="16,-78 16,-176.5901 846,-176.5901 846,-78 16,-78"/>
</g>
<g id="clust5" class="cluster">
<title>cluster_JNetworkBootstrap3ValidationSummaryModule_exports</title>
<polygon fill="none" stroke="#000000" points="315,-319.5901 315,-371.5901 547,-371.5901 547,-319.5901 315,-319.5901"/>
</g>
<!-- NgValidationSummaryComponent -->
<g id="node1" class="node">
<title>NgValidationSummaryComponent</title>
<polygon fill="#ffffb3" stroke="#000000" points="536.9762,-233.5901 325.0238,-233.5901 325.0238,-197.5901 536.9762,-197.5901 536.9762,-233.5901"/>
<text text-anchor="middle" x="431" y="-211.3901" font-family="Times,serif" font-size="14.00" fill="#000000">NgValidationSummaryComponent</text>
</g>
<!-- JNetworkBootstrap3ValidationSummaryModule -->
<g id="node2" class="node">
<title>JNetworkBootstrap3ValidationSummaryModule</title>
<polygon fill="#8dd3c7" stroke="#000000" points="575.4482,-298.5901 572.4482,-302.5901 551.4482,-302.5901 548.4482,-298.5901 286.5518,-298.5901 286.5518,-262.5901 575.4482,-262.5901 575.4482,-298.5901"/>
<text text-anchor="middle" x="431" y="-276.3901" font-family="Times,serif" font-size="14.00" fill="#000000">JNetworkBootstrap3ValidationSummaryModule</text>
</g>
<!-- NgValidationSummaryComponent&#45;&gt;JNetworkBootstrap3ValidationSummaryModule -->
<g id="edge1" class="edge">
<title>NgValidationSummaryComponent&#45;&gt;JNetworkBootstrap3ValidationSummaryModule</title>
<path fill="none" stroke="#000000" d="M431,-233.6962C431,-233.6962 431,-252.581 431,-252.581"/>
<polygon fill="#000000" stroke="#000000" points="427.5001,-252.581 431,-262.581 434.5001,-252.5811 427.5001,-252.581"/>
</g>
<!-- NgValidationSummaryComponent  -->
<g id="node4" class="node">
<title>NgValidationSummaryComponent </title>
<polygon fill="#fb8072" stroke="#000000" points="538.9767,-363.5901 323.0233,-363.5901 323.0233,-327.5901 538.9767,-327.5901 538.9767,-363.5901"/>
<text text-anchor="middle" x="431" y="-341.3901" font-family="Times,serif" font-size="14.00" fill="#000000">NgValidationSummaryComponent </text>
</g>
<!-- JNetworkBootstrap3ValidationSummaryModule&#45;&gt;NgValidationSummaryComponent  -->
<g id="edge3" class="edge">
<title>JNetworkBootstrap3ValidationSummaryModule&#45;&gt;NgValidationSummaryComponent </title>
<path fill="none" stroke="#000000" stroke-dasharray="5,2" d="M431,-298.6962C431,-298.6962 431,-317.581 431,-317.581"/>
<polygon fill="#000000" stroke="#000000" points="427.5001,-317.581 431,-327.581 434.5001,-317.5811 427.5001,-317.581"/>
</g>
<!-- {
 &#160;&#160;&#160;provide: NG_VALUE_ACCESSOR, multi: true, useExisting: NgValidationSummaryComponent
} -->
<g id="node3" class="node">
<title>{
 &#160;&#160;&#160;provide: NG_VALUE_ACCESSOR, multi: true, useExisting: NgValidationSummaryComponent
}</title>
<ellipse fill="#fdb462" stroke="#000000" cx="431" cy="-127.295" rx="406.9495" ry="41.0911"/>
<text text-anchor="middle" x="431" y="-139.895" font-family="Times,serif" font-size="14.00" fill="#000000">{</text>
<text text-anchor="middle" x="431" y="-123.095" font-family="Times,serif" font-size="14.00" fill="#000000"> &#160;&#160;&#160;provide: NG_VALUE_ACCESSOR, multi: true, useExisting: NgValidationSummaryComponent</text>
<text text-anchor="middle" x="431" y="-106.295" font-family="Times,serif" font-size="14.00" fill="#000000">}</text>
</g>
<!-- {
 &#160;&#160;&#160;provide: NG_VALUE_ACCESSOR, multi: true, useExisting: NgValidationSummaryComponent
}&#45;&gt;NgValidationSummaryComponent -->
<g id="edge2" class="edge">
<title>{
 &#160;&#160;&#160;provide: NG_VALUE_ACCESSOR, multi: true, useExisting: NgValidationSummaryComponent
}&#45;&gt;NgValidationSummaryComponent</title>
<path fill="none" stroke="#000000" d="M431,-168.5989C431,-168.5989 431,-187.2551 431,-187.2551"/>
<polygon fill="#000000" stroke="#000000" points="427.5001,-187.255 431,-197.2551 434.5001,-187.2551 427.5001,-187.255"/>
</g>
</g>
</svg>
