<?xml version="1.0" encoding="UTF-8" standalone="no"?>
<!DOCTYPE svg PUBLIC "-//W3C//DTD SVG 1.1//EN"
 "http://www.w3.org/Graphics/SVG/1.1/DTD/svg11.dtd">
<!-- Generated by graphviz version 2.47.0 (20210316.0004)
 -->
<!-- Title: dependencies Pages: 1 -->
<svg width="3510pt" height="396pt"
 viewBox="0.00 0.00 3510.00 395.59" xmlns="http://www.w3.org/2000/svg" xmlns:xlink="http://www.w3.org/1999/xlink">
<g id="graph0" class="graph" transform="scale(1 1) rotate(0) translate(4 391.59)">
<title>dependencies</title>
<polygon fill="white" stroke="transparent" points="-4,4 -4,-391.59 3506,-391.59 3506,4 -4,4"/>
<text text-anchor="start" x="1730.01" y="-42.4" font-family="Times-12" font-weight="bold" font-size="14.00">Legend</text>
<polygon fill="#ffffb3" stroke="transparent" points="1517,-10 1517,-30 1537,-30 1537,-10 1517,-10"/>
<text text-anchor="start" x="1540.63" y="-15.4" font-family="Times-12" font-size="14.00"> &#160;Declarations</text>
<polygon fill="#8dd3c7" stroke="transparent" points="1630,-10 1630,-30 1650,-30 1650,-10 1630,-10"/>
<text text-anchor="start" x="1653.73" y="-15.4" font-family="Times-12" font-size="14.00"> &#160;Module</text>
<polygon fill="#80b1d3" stroke="transparent" points="1716,-10 1716,-30 1736,-30 1736,-10 1716,-10"/>
<text text-anchor="start" x="1739.78" y="-15.4" font-family="Times-12" font-size="14.00"> &#160;Bootstrap</text>
<polygon fill="#fdb462" stroke="transparent" points="1813,-10 1813,-30 1833,-30 1833,-10 1813,-10"/>
<text text-anchor="start" x="1836.67" y="-15.4" font-family="Times-12" font-size="14.00"> &#160;Providers</text>
<polygon fill="#fb8072" stroke="transparent" points="1909,-10 1909,-30 1929,-30 1929,-10 1909,-10"/>
<text text-anchor="start" x="1932.73" y="-15.4" font-family="Times-12" font-size="14.00"> &#160;Exports</text>
<g id="clust1" class="cluster">
<title>cluster_SACBootstrap4UploadModule</title>
<polygon fill="none" stroke="black" stroke-dasharray="1,5" points="8,-70 8,-379.59 3494,-379.59 3494,-70 8,-70"/>
</g>
<g id="clust2" class="cluster">
<title>cluster_SACBootstrap4UploadModule_declarations</title>
<polygon fill="none" stroke="black" points="1199,-189.59 1199,-241.59 2000,-241.59 2000,-189.59 1199,-189.59"/>
</g>
<g id="clust4" class="cluster">
<title>cluster_SACBootstrap4UploadModule_SacDropzoneSingleComponent_providers</title>
<polygon fill="none" stroke="black" points="1772,-78 1772,-176.59 3486,-176.59 3486,-78 1772,-78"/>
</g>
<g id="clust3" class="cluster">
<title>cluster_SACBootstrap4UploadModule_SacDropzoneMultipleComponent_providers</title>
<polygon fill="none" stroke="black" points="16,-78 16,-176.59 1764,-176.59 1764,-78 16,-78"/>
</g>
<g id="clust7" class="cluster">
<title>cluster_SACBootstrap4UploadModule_imports</title>
<polygon fill="none" stroke="black" points="779,-189.59 779,-241.59 1191,-241.59 1191,-189.59 779,-189.59"/>
</g>
<g id="clust8" class="cluster">
<title>cluster_SACBootstrap4UploadModule_exports</title>
<polygon fill="none" stroke="black" points="1007,-319.59 1007,-371.59 1821,-371.59 1821,-319.59 1007,-319.59"/>
</g>
<!-- SacDropzoneMultipleComponent -->
<g id="node1" class="node">
<title>SacDropzoneMultipleComponent</title>
<polygon fill="#ffffb3" stroke="black" points="1781.46,-233.59 1576.54,-233.59 1576.54,-197.59 1781.46,-197.59 1781.46,-233.59"/>
<text text-anchor="middle" x="1679" y="-211.39" font-family="Times,serif" font-size="14.00">SacDropzoneMultipleComponent</text>
</g>
<!-- SACBootstrap4UploadModule -->
<g id="node5" class="node">
<title>SACBootstrap4UploadModule</title>
<polygon fill="#8dd3c7" stroke="black" points="1488.93,-298.59 1485.93,-302.59 1464.93,-302.59 1461.93,-298.59 1299.07,-298.59 1299.07,-262.59 1488.93,-262.59 1488.93,-298.59"/>
<text text-anchor="middle" x="1394" y="-276.39" font-family="Times,serif" font-size="14.00">SACBootstrap4UploadModule</text>
</g>
<!-- SacDropzoneMultipleComponent&#45;&gt;SACBootstrap4UploadModule -->
<g id="edge1" class="edge">
<title>SacDropzoneMultipleComponent&#45;&gt;SACBootstrap4UploadModule</title>
<path fill="none" stroke="black" d="M1581.76,-233.62C1581.76,-249.99 1581.76,-271.59 1581.76,-271.59 1581.76,-271.59 1498.98,-271.59 1498.98,-271.59"/>
<polygon fill="black" stroke="black" points="1498.98,-268.09 1488.98,-271.59 1498.98,-275.09 1498.98,-268.09"/>
</g>
<!-- SacDropzoneSingleComponent -->
<g id="node2" class="node">
<title>SacDropzoneSingleComponent</title>
<polygon fill="#ffffb3" stroke="black" points="1992.02,-233.59 1799.98,-233.59 1799.98,-197.59 1992.02,-197.59 1992.02,-233.59"/>
<text text-anchor="middle" x="1896" y="-211.39" font-family="Times,serif" font-size="14.00">SacDropzoneSingleComponent</text>
</g>
<!-- SacDropzoneSingleComponent&#45;&gt;SACBootstrap4UploadModule -->
<g id="edge4" class="edge">
<title>SacDropzoneSingleComponent&#45;&gt;SACBootstrap4UploadModule</title>
<path fill="none" stroke="black" d="M1806.49,-233.7C1806.49,-252.93 1806.49,-280.59 1806.49,-280.59 1806.49,-280.59 1498.89,-280.59 1498.89,-280.59"/>
<polygon fill="black" stroke="black" points="1498.89,-277.09 1488.89,-280.59 1498.89,-284.09 1498.89,-277.09"/>
</g>
<!-- SacUploadComponent -->
<g id="node3" class="node">
<title>SacUploadComponent</title>
<polygon fill="#ffffb3" stroke="black" points="1558.26,-233.59 1415.74,-233.59 1415.74,-197.59 1558.26,-197.59 1558.26,-233.59"/>
<text text-anchor="middle" x="1487" y="-211.39" font-family="Times,serif" font-size="14.00">SacUploadComponent</text>
</g>
<!-- SacUploadComponent&#45;&gt;SACBootstrap4UploadModule -->
<g id="edge7" class="edge">
<title>SacUploadComponent&#45;&gt;SACBootstrap4UploadModule</title>
<path fill="none" stroke="black" d="M1452.17,-233.7C1452.17,-233.7 1452.17,-252.58 1452.17,-252.58"/>
<polygon fill="black" stroke="black" points="1448.67,-252.58 1452.17,-262.58 1455.67,-252.58 1448.67,-252.58"/>
</g>
<!-- SacUploadMultipleComponent -->
<g id="node4" class="node">
<title>SacUploadMultipleComponent</title>
<polygon fill="#ffffb3" stroke="black" points="1397.48,-233.59 1206.52,-233.59 1206.52,-197.59 1397.48,-197.59 1397.48,-233.59"/>
<text text-anchor="middle" x="1302" y="-211.39" font-family="Times,serif" font-size="14.00">SacUploadMultipleComponent</text>
</g>
<!-- SacUploadMultipleComponent&#45;&gt;SACBootstrap4UploadModule -->
<g id="edge8" class="edge">
<title>SacUploadMultipleComponent&#45;&gt;SACBootstrap4UploadModule</title>
<path fill="none" stroke="black" d="M1348.39,-233.7C1348.39,-233.7 1348.39,-252.58 1348.39,-252.58"/>
<polygon fill="black" stroke="black" points="1344.89,-252.58 1348.39,-262.58 1351.89,-252.58 1344.89,-252.58"/>
</g>
<!-- SacDropzoneMultipleComponent  -->
<g id="node12" class="node">
<title>SacDropzoneMultipleComponent </title>
<polygon fill="#fb8072" stroke="black" points="1813.46,-363.59 1604.54,-363.59 1604.54,-327.59 1813.46,-327.59 1813.46,-363.59"/>
<text text-anchor="middle" x="1709" y="-341.39" font-family="Times,serif" font-size="14.00">SacDropzoneMultipleComponent </text>
</g>
<!-- SACBootstrap4UploadModule&#45;&gt;SacDropzoneMultipleComponent  -->
<g id="edge11" class="edge">
<title>SACBootstrap4UploadModule&#45;&gt;SacDropzoneMultipleComponent </title>
<path fill="none" stroke="black" stroke-dasharray="5,2" d="M1489.06,-289.59C1576.64,-289.59 1693.12,-289.59 1693.12,-289.59 1693.12,-289.59 1693.12,-317.56 1693.12,-317.56"/>
<polygon fill="black" stroke="black" points="1689.63,-317.56 1693.12,-327.56 1696.63,-317.56 1689.63,-317.56"/>
</g>
<!-- SacDropzoneSingleComponent  -->
<g id="node13" class="node">
<title>SacDropzoneSingleComponent </title>
<polygon fill="#fb8072" stroke="black" points="1587.02,-363.59 1390.98,-363.59 1390.98,-327.59 1587.02,-327.59 1587.02,-363.59"/>
<text text-anchor="middle" x="1489" y="-341.39" font-family="Times,serif" font-size="14.00">SacDropzoneSingleComponent </text>
</g>
<!-- SACBootstrap4UploadModule&#45;&gt;SacDropzoneSingleComponent  -->
<g id="edge12" class="edge">
<title>SACBootstrap4UploadModule&#45;&gt;SacDropzoneSingleComponent </title>
<path fill="none" stroke="black" stroke-dasharray="5,2" d="M1439.85,-298.7C1439.85,-298.7 1439.85,-317.58 1439.85,-317.58"/>
<polygon fill="black" stroke="black" points="1436.35,-317.58 1439.85,-327.58 1443.35,-317.58 1436.35,-317.58"/>
</g>
<!-- SacUploadComponent  -->
<g id="node14" class="node">
<title>SacUploadComponent </title>
<polygon fill="#fb8072" stroke="black" points="1373.26,-363.59 1226.74,-363.59 1226.74,-327.59 1373.26,-327.59 1373.26,-363.59"/>
<text text-anchor="middle" x="1300" y="-341.39" font-family="Times,serif" font-size="14.00">SacUploadComponent </text>
</g>
<!-- SACBootstrap4UploadModule&#45;&gt;SacUploadComponent  -->
<g id="edge13" class="edge">
<title>SACBootstrap4UploadModule&#45;&gt;SacUploadComponent </title>
<path fill="none" stroke="black" stroke-dasharray="5,2" d="M1336.21,-298.7C1336.21,-298.7 1336.21,-317.58 1336.21,-317.58"/>
<polygon fill="black" stroke="black" points="1332.71,-317.58 1336.21,-327.58 1339.71,-317.58 1332.71,-317.58"/>
</g>
<!-- SacUploadMultipleComponent  -->
<g id="node15" class="node">
<title>SacUploadMultipleComponent </title>
<polygon fill="#fb8072" stroke="black" points="1209.48,-363.59 1014.52,-363.59 1014.52,-327.59 1209.48,-327.59 1209.48,-363.59"/>
<text text-anchor="middle" x="1112" y="-341.39" font-family="Times,serif" font-size="14.00">SacUploadMultipleComponent </text>
</g>
<!-- SACBootstrap4UploadModule&#45;&gt;SacUploadMultipleComponent  -->
<g id="edge14" class="edge">
<title>SACBootstrap4UploadModule&#45;&gt;SacUploadMultipleComponent </title>
<path fill="none" stroke="black" stroke-dasharray="5,2" d="M1299.03,-289.59C1247.7,-289.59 1194.72,-289.59 1194.72,-289.59 1194.72,-289.59 1194.72,-317.56 1194.72,-317.56"/>
<polygon fill="black" stroke="black" points="1191.22,-317.56 1194.72,-327.56 1198.22,-317.56 1191.22,-317.56"/>
</g>
<!-- {
 &#160;&#160;&#160;provide: NG_VALUE_ACCESSOR, multi: true, useExisting: SacDropzoneMultipleComponent,
} -->
<g id="node6" class="node">
<title>{
 &#160;&#160;&#160;provide: NG_VALUE_ACCESSOR, multi: true, useExisting: SacDropzoneMultipleComponent,
}</title>
<ellipse fill="#fdb462" stroke="black" cx="1352" cy="-127.3" rx="404.48" ry="41.09"/>
<text text-anchor="middle" x="1352" y="-139.9" font-family="Times,serif" font-size="14.00">{</text>
<text text-anchor="middle" x="1352" y="-123.1" font-family="Times,serif" font-size="14.00"> &#160;&#160;&#160;provide: NG_VALUE_ACCESSOR, multi: true, useExisting: SacDropzoneMultipleComponent,</text>
<text text-anchor="middle" x="1352" y="-106.3" font-family="Times,serif" font-size="14.00">}</text>
</g>
<!-- {
 &#160;&#160;&#160;provide: NG_VALUE_ACCESSOR, multi: true, useExisting: SacDropzoneMultipleComponent,
}&#45;&gt;SacDropzoneMultipleComponent -->
<g id="edge2" class="edge">
<title>{
 &#160;&#160;&#160;provide: NG_VALUE_ACCESSOR, multi: true, useExisting: SacDropzoneMultipleComponent,
}&#45;&gt;SacDropzoneMultipleComponent</title>
<path fill="none" stroke="black" d="M1696.5,-149.12C1696.5,-149.12 1696.5,-187.58 1696.5,-187.58"/>
<polygon fill="black" stroke="black" points="1693,-187.58 1696.5,-197.58 1700,-187.58 1693,-187.58"/>
</g>
<!-- {
 &#160;&#160;&#160;provide: NG_VALIDATORS, multi: true, useExisting: forwardRef(() =&gt; SacDropzoneMultipleComponent),
} -->
<g id="node7" class="node">
<title>{
 &#160;&#160;&#160;provide: NG_VALIDATORS, multi: true, useExisting: forwardRef(() =&gt; SacDropzoneMultipleComponent),
}</title>
<ellipse fill="#fdb462" stroke="black" cx="477" cy="-127.3" rx="452.99" ry="41.09"/>
<text text-anchor="middle" x="477" y="-139.9" font-family="Times,serif" font-size="14.00">{</text>
<text text-anchor="middle" x="477" y="-123.1" font-family="Times,serif" font-size="14.00"> &#160;&#160;&#160;provide: NG_VALIDATORS, multi: true, useExisting: forwardRef(() =&gt; SacDropzoneMultipleComponent),</text>
<text text-anchor="middle" x="477" y="-106.3" font-family="Times,serif" font-size="14.00">}</text>
</g>
<!-- {
 &#160;&#160;&#160;provide: NG_VALIDATORS, multi: true, useExisting: forwardRef(() =&gt; SacDropzoneMultipleComponent),
}&#45;&gt;SacDropzoneMultipleComponent -->
<g id="edge3" class="edge">
<title>{
 &#160;&#160;&#160;provide: NG_VALIDATORS, multi: true, useExisting: forwardRef(() =&gt; SacDropzoneMultipleComponent),
}&#45;&gt;SacDropzoneMultipleComponent</title>
<path fill="none" stroke="black" d="M858.64,-149.54C858.64,-165.28 858.64,-183.59 858.64,-183.59 858.64,-183.59 1636.51,-183.59 1636.51,-183.59 1636.51,-183.59 1636.51,-187.35 1636.51,-187.35"/>
<polygon fill="black" stroke="black" points="1633.01,-187.35 1636.51,-197.35 1640.01,-187.35 1633.01,-187.35"/>
</g>
<!-- {
 &#160;&#160;&#160;provide: NG_VALUE_ACCESSOR, multi: true, useExisting: SacDropzoneSingleComponent,
} -->
<g id="node8" class="node">
<title>{
 &#160;&#160;&#160;provide: NG_VALUE_ACCESSOR, multi: true, useExisting: SacDropzoneSingleComponent,
}</title>
<ellipse fill="#fdb462" stroke="black" cx="3082" cy="-127.3" rx="395.88" ry="41.09"/>
<text text-anchor="middle" x="3082" y="-139.9" font-family="Times,serif" font-size="14.00">{</text>
<text text-anchor="middle" x="3082" y="-123.1" font-family="Times,serif" font-size="14.00"> &#160;&#160;&#160;provide: NG_VALUE_ACCESSOR, multi: true, useExisting: SacDropzoneSingleComponent,</text>
<text text-anchor="middle" x="3082" y="-106.3" font-family="Times,serif" font-size="14.00">}</text>
</g>
<!-- {
 &#160;&#160;&#160;provide: NG_VALUE_ACCESSOR, multi: true, useExisting: SacDropzoneSingleComponent,
}&#45;&gt;SacDropzoneSingleComponent -->
<g id="edge5" class="edge">
<title>{
 &#160;&#160;&#160;provide: NG_VALUE_ACCESSOR, multi: true, useExisting: SacDropzoneSingleComponent,
}&#45;&gt;SacDropzoneSingleComponent</title>
<path fill="none" stroke="black" d="M3082,-168.6C3082,-191.58 3082,-215.59 3082,-215.59 3082,-215.59 2002.05,-215.59 2002.05,-215.59"/>
<polygon fill="black" stroke="black" points="2002.05,-212.09 1992.05,-215.59 2002.05,-219.09 2002.05,-212.09"/>
</g>
<!-- {
 &#160;&#160;&#160;provide: NG_VALIDATORS, multi: true, useExisting: forwardRef(() =&gt; SacDropzoneSingleComponent),
} -->
<g id="node9" class="node">
<title>{
 &#160;&#160;&#160;provide: NG_VALIDATORS, multi: true, useExisting: forwardRef(() =&gt; SacDropzoneSingleComponent),
}</title>
<ellipse fill="#fdb462" stroke="black" cx="2224" cy="-127.3" rx="444.4" ry="41.09"/>
<text text-anchor="middle" x="2224" y="-139.9" font-family="Times,serif" font-size="14.00">{</text>
<text text-anchor="middle" x="2224" y="-123.1" font-family="Times,serif" font-size="14.00"> &#160;&#160;&#160;provide: NG_VALIDATORS, multi: true, useExisting: forwardRef(() =&gt; SacDropzoneSingleComponent),</text>
<text text-anchor="middle" x="2224" y="-106.3" font-family="Times,serif" font-size="14.00">}</text>
</g>
<!-- {
 &#160;&#160;&#160;provide: NG_VALIDATORS, multi: true, useExisting: forwardRef(() =&gt; SacDropzoneSingleComponent),
}&#45;&gt;SacDropzoneSingleComponent -->
<g id="edge6" class="edge">
<title>{
 &#160;&#160;&#160;provide: NG_VALIDATORS, multi: true, useExisting: forwardRef(() =&gt; SacDropzoneSingleComponent),
}&#45;&gt;SacDropzoneSingleComponent</title>
<path fill="none" stroke="black" d="M1896,-155.23C1896,-155.23 1896,-187.56 1896,-187.56"/>
<polygon fill="black" stroke="black" points="1892.5,-187.56 1896,-197.56 1899.5,-187.56 1892.5,-187.56"/>
</g>
<!-- SACBootstrap4LayoutModule -->
<g id="node10" class="node">
<title>SACBootstrap4LayoutModule</title>
<polygon fill="#8dd3c7" stroke="black" points="1182.87,-233.59 1179.87,-237.59 1158.87,-237.59 1155.87,-233.59 995.13,-233.59 995.13,-197.59 1182.87,-197.59 1182.87,-233.59"/>
<text text-anchor="middle" x="1089" y="-211.39" font-family="Times,serif" font-size="14.00">SACBootstrap4LayoutModule</text>
</g>
<!-- SACBootstrap4LayoutModule&#45;&gt;SACBootstrap4UploadModule -->
<g id="edge9" class="edge">
<title>SACBootstrap4LayoutModule&#45;&gt;SACBootstrap4UploadModule</title>
<path fill="none" stroke="black" d="M1098.85,-233.62C1098.85,-249.99 1098.85,-271.59 1098.85,-271.59 1098.85,-271.59 1288.99,-271.59 1288.99,-271.59"/>
<polygon fill="black" stroke="black" points="1288.99,-275.09 1298.99,-271.59 1288.99,-268.09 1288.99,-275.09"/>
</g>
<!-- SACBootstrap4TooltipModule -->
<g id="node11" class="node">
<title>SACBootstrap4TooltipModule</title>
<polygon fill="#8dd3c7" stroke="black" points="976.94,-233.59 973.94,-237.59 952.94,-237.59 949.94,-233.59 787.06,-233.59 787.06,-197.59 976.94,-197.59 976.94,-233.59"/>
<text text-anchor="middle" x="882" y="-211.39" font-family="Times,serif" font-size="14.00">SACBootstrap4TooltipModule</text>
</g>
<!-- SACBootstrap4TooltipModule&#45;&gt;SACBootstrap4UploadModule -->
<g id="edge10" class="edge">
<title>SACBootstrap4TooltipModule&#45;&gt;SACBootstrap4UploadModule</title>
<path fill="none" stroke="black" d="M882,-233.7C882,-252.93 882,-280.59 882,-280.59 882,-280.59 1289.2,-280.59 1289.2,-280.59"/>
<polygon fill="black" stroke="black" points="1289.2,-284.09 1299.2,-280.59 1289.2,-277.09 1289.2,-284.09"/>
</g>
</g>
</svg>
