<?xml version="1.0" encoding="UTF-8" standalone="no"?>
<!DOCTYPE svg PUBLIC "-//W3C//DTD SVG 1.1//EN"
 "http://www.w3.org/Graphics/SVG/1.1/DTD/svg11.dtd">
<!-- Generated by graphviz version 2.47.0 (20210316.0004)
 -->
<!-- Title: dependencies Pages: 1 -->
<svg width="854pt" height="284pt"
 viewBox="0.00 0.00 854.00 284.00" xmlns="http://www.w3.org/2000/svg" xmlns:xlink="http://www.w3.org/1999/xlink">
<g id="graph0" class="graph" transform="scale(1 1) rotate(0) translate(4 280)">
<title>dependencies</title>
<polygon fill="white" stroke="transparent" points="-4,4 -4,-280 850,-280 850,4 -4,4"/>
<text text-anchor="start" x="402.01" y="-42.4" font-family="Times-12" font-weight="bold" font-size="14.00">Legend</text>
<polygon fill="#ffffb3" stroke="transparent" points="189,-10 189,-30 209,-30 209,-10 189,-10"/>
<text text-anchor="start" x="212.63" y="-15.4" font-family="Times-12" font-size="14.00"> &#160;Declarations</text>
<polygon fill="#8dd3c7" stroke="transparent" points="302,-10 302,-30 322,-30 322,-10 302,-10"/>
<text text-anchor="start" x="325.73" y="-15.4" font-family="Times-12" font-size="14.00"> &#160;Module</text>
<polygon fill="#80b1d3" stroke="transparent" points="388,-10 388,-30 408,-30 408,-10 388,-10"/>
<text text-anchor="start" x="411.78" y="-15.4" font-family="Times-12" font-size="14.00"> &#160;Bootstrap</text>
<polygon fill="#fdb462" stroke="transparent" points="485,-10 485,-30 505,-30 505,-10 485,-10"/>
<text text-anchor="start" x="508.67" y="-15.4" font-family="Times-12" font-size="14.00"> &#160;Providers</text>
<polygon fill="#fb8072" stroke="transparent" points="581,-10 581,-30 601,-30 601,-10 581,-10"/>
<text text-anchor="start" x="604.73" y="-15.4" font-family="Times-12" font-size="14.00"> &#160;Exports</text>
<g id="clust1" class="cluster">
<title>cluster_SACBootstrap4UploadModule</title>
<polygon fill="none" stroke="black" stroke-dasharray="1,5" points="8,-70 8,-268 838,-268 838,-70 8,-70"/>
</g>
<g id="clust3" class="cluster">
<title>cluster_SACBootstrap4UploadModule_imports</title>
<polygon fill="none" stroke="black" points="24,-78 24,-130 825,-130 825,-78 24,-78"/>
</g>
<g id="clust4" class="cluster">
<title>cluster_SACBootstrap4UploadModule_exports</title>
<polygon fill="none" stroke="black" points="16,-208 16,-260 830,-260 830,-208 16,-208"/>
</g>
<!-- SacDropzoneMultipleComponent -->
<g id="node1" class="node">
<title>SacDropzoneMultipleComponent</title>
<polygon fill="#8dd3c7" stroke="black" points="817.46,-122 814.46,-126 793.46,-126 790.46,-122 612.54,-122 612.54,-86 817.46,-86 817.46,-122"/>
<text text-anchor="middle" x="715" y="-99.8" font-family="Times,serif" font-size="14.00">SacDropzoneMultipleComponent</text>
</g>
<!-- SACBootstrap4UploadModule -->
<g id="node5" class="node">
<title>SACBootstrap4UploadModule</title>
<polygon fill="#8dd3c7" stroke="black" points="408.93,-187 405.93,-191 384.93,-191 381.93,-187 219.07,-187 219.07,-151 408.93,-151 408.93,-187"/>
<text text-anchor="middle" x="314" y="-164.8" font-family="Times,serif" font-size="14.00">SACBootstrap4UploadModule</text>
</g>
<!-- SacDropzoneMultipleComponent&#45;&gt;SACBootstrap4UploadModule -->
<g id="edge1" class="edge">
<title>SacDropzoneMultipleComponent&#45;&gt;SACBootstrap4UploadModule</title>
<path fill="none" stroke="black" d="M749.58,-122.02C749.58,-139.37 749.58,-163 749.58,-163 749.58,-163 418.78,-163 418.78,-163"/>
<polygon fill="black" stroke="black" points="418.78,-159.5 408.78,-163 418.78,-166.5 418.78,-159.5"/>
</g>
<!-- SacDropzoneSingleComponent -->
<g id="node2" class="node">
<title>SacDropzoneSingleComponent</title>
<polygon fill="#8dd3c7" stroke="black" points="594.02,-122 591.02,-126 570.02,-126 567.02,-122 401.98,-122 401.98,-86 594.02,-86 594.02,-122"/>
<text text-anchor="middle" x="498" y="-99.8" font-family="Times,serif" font-size="14.00">SacDropzoneSingleComponent</text>
</g>
<!-- SacDropzoneSingleComponent&#45;&gt;SACBootstrap4UploadModule -->
<g id="edge2" class="edge">
<title>SacDropzoneSingleComponent&#45;&gt;SACBootstrap4UploadModule</title>
<path fill="none" stroke="black" d="M401.92,-104C396.11,-104 392.56,-104 392.56,-104 392.56,-104 392.56,-140.89 392.56,-140.89"/>
<polygon fill="black" stroke="black" points="389.06,-140.89 392.56,-150.89 396.06,-140.89 389.06,-140.89"/>
</g>
<!-- SacUploadComponent -->
<g id="node3" class="node">
<title>SacUploadComponent</title>
<polygon fill="#8dd3c7" stroke="black" points="383.26,-122 380.26,-126 359.26,-126 356.26,-122 240.74,-122 240.74,-86 383.26,-86 383.26,-122"/>
<text text-anchor="middle" x="312" y="-99.8" font-family="Times,serif" font-size="14.00">SacUploadComponent</text>
</g>
<!-- SacUploadComponent&#45;&gt;SACBootstrap4UploadModule -->
<g id="edge3" class="edge">
<title>SacUploadComponent&#45;&gt;SACBootstrap4UploadModule</title>
<path fill="none" stroke="black" d="M312,-122.11C312,-122.11 312,-140.99 312,-140.99"/>
<polygon fill="black" stroke="black" points="308.5,-140.99 312,-150.99 315.5,-140.99 308.5,-140.99"/>
</g>
<!-- SacUploadMultipleComponent -->
<g id="node4" class="node">
<title>SacUploadMultipleComponent</title>
<polygon fill="#8dd3c7" stroke="black" points="222.48,-122 219.48,-126 198.48,-126 195.48,-122 31.52,-122 31.52,-86 222.48,-86 222.48,-122"/>
<text text-anchor="middle" x="127" y="-99.8" font-family="Times,serif" font-size="14.00">SacUploadMultipleComponent</text>
</g>
<!-- SacUploadMultipleComponent&#45;&gt;SACBootstrap4UploadModule -->
<g id="edge4" class="edge">
<title>SacUploadMultipleComponent&#45;&gt;SACBootstrap4UploadModule</title>
<path fill="none" stroke="black" d="M222.64,-104C228.18,-104 231.56,-104 231.56,-104 231.56,-104 231.56,-140.89 231.56,-140.89"/>
<polygon fill="black" stroke="black" points="228.06,-140.89 231.56,-150.89 235.06,-140.89 228.06,-140.89"/>
</g>
<!-- SacDropzoneMultipleComponent  -->
<g id="node6" class="node">
<title>SacDropzoneMultipleComponent </title>
<polygon fill="#fb8072" stroke="black" points="822.46,-252 613.54,-252 613.54,-216 822.46,-216 822.46,-252"/>
<text text-anchor="middle" x="718" y="-229.8" font-family="Times,serif" font-size="14.00">SacDropzoneMultipleComponent </text>
</g>
<!-- SACBootstrap4UploadModule&#45;&gt;SacDropzoneMultipleComponent  -->
<g id="edge5" class="edge">
<title>SACBootstrap4UploadModule&#45;&gt;SacDropzoneMultipleComponent </title>
<path fill="none" stroke="black" stroke-dasharray="5,2" d="M409.16,-175C518.1,-175 681.67,-175 681.67,-175 681.67,-175 681.67,-205.98 681.67,-205.98"/>
<polygon fill="black" stroke="black" points="678.17,-205.98 681.67,-215.98 685.17,-205.98 678.17,-205.98"/>
</g>
<!-- SacDropzoneSingleComponent  -->
<g id="node7" class="node">
<title>SacDropzoneSingleComponent </title>
<polygon fill="#fb8072" stroke="black" points="596.02,-252 399.98,-252 399.98,-216 596.02,-216 596.02,-252"/>
<text text-anchor="middle" x="498" y="-229.8" font-family="Times,serif" font-size="14.00">SacDropzoneSingleComponent </text>
</g>
<!-- SACBootstrap4UploadModule&#45;&gt;SacDropzoneSingleComponent  -->
<g id="edge6" class="edge">
<title>SACBootstrap4UploadModule&#45;&gt;SacDropzoneSingleComponent </title>
<path fill="none" stroke="black" stroke-dasharray="5,2" d="M404.35,-187.11C404.35,-187.11 404.35,-205.99 404.35,-205.99"/>
<polygon fill="black" stroke="black" points="400.85,-205.99 404.35,-215.99 407.85,-205.99 400.85,-205.99"/>
</g>
<!-- SacUploadComponent  -->
<g id="node8" class="node">
<title>SacUploadComponent </title>
<polygon fill="#fb8072" stroke="black" points="382.26,-252 235.74,-252 235.74,-216 382.26,-216 382.26,-252"/>
<text text-anchor="middle" x="309" y="-229.8" font-family="Times,serif" font-size="14.00">SacUploadComponent </text>
</g>
<!-- SACBootstrap4UploadModule&#45;&gt;SacUploadComponent  -->
<g id="edge7" class="edge">
<title>SACBootstrap4UploadModule&#45;&gt;SacUploadComponent </title>
<path fill="none" stroke="black" stroke-dasharray="5,2" d="M309,-187.11C309,-187.11 309,-205.99 309,-205.99"/>
<polygon fill="black" stroke="black" points="305.5,-205.99 309,-215.99 312.5,-205.99 305.5,-205.99"/>
</g>
<!-- SacUploadMultipleComponent  -->
<g id="node9" class="node">
<title>SacUploadMultipleComponent </title>
<polygon fill="#fb8072" stroke="black" points="218.48,-252 23.52,-252 23.52,-216 218.48,-216 218.48,-252"/>
<text text-anchor="middle" x="121" y="-229.8" font-family="Times,serif" font-size="14.00">SacUploadMultipleComponent </text>
</g>
<!-- SACBootstrap4UploadModule&#45;&gt;SacUploadMultipleComponent  -->
<g id="edge8" class="edge">
<title>SACBootstrap4UploadModule&#45;&gt;SacUploadMultipleComponent </title>
<path fill="none" stroke="black" stroke-dasharray="5,2" d="M227.58,-187.11C227.58,-206.34 227.58,-234 227.58,-234 227.58,-234 226.67,-234 226.67,-234"/>
<polygon fill="black" stroke="black" points="228.49,-230.5 218.49,-234 228.49,-237.5 228.49,-230.5"/>
</g>
</g>
</svg>
