<?xml version="1.0" encoding="UTF-8" standalone="no"?>
<!DOCTYPE svg PUBLIC "-//W3C//DTD SVG 1.1//EN"
 "http://www.w3.org/Graphics/SVG/1.1/DTD/svg11.dtd">
<!-- Generated by graphviz version 2.47.0 (20210316.0004)
 -->
<!-- Title: dependencies Pages: 1 -->
<svg width="3510pt" height="396pt"
 viewBox="0.00 0.00 3510.00 395.59" xmlns="http://www.w3.org/2000/svg" xmlns:xlink="http://www.w3.org/1999/xlink">
<g id="graph0" class="graph" transform="scale(1 1) rotate(0) translate(4 391.59)">
<title>dependencies</title>
<polygon fill="white" stroke="transparent" points="-4,4 -4,-391.59 3506,-391.59 3506,4 -4,4"/>
<text text-anchor="start" x="1730.01" y="-42.4" font-family="Times-12" font-weight="bold" font-size="14.00">Legend</text>
<polygon fill="#ffffb3" stroke="transparent" points="1517,-10 1517,-30 1537,-30 1537,-10 1517,-10"/>
<text text-anchor="start" x="1540.63" y="-15.4" font-family="Times-12" font-size="14.00"> &#160;Declarations</text>
<polygon fill="#8dd3c7" stroke="transparent" points="1630,-10 1630,-30 1650,-30 1650,-10 1630,-10"/>
<text text-anchor="start" x="1653.73" y="-15.4" font-family="Times-12" font-size="14.00"> &#160;Module</text>
<polygon fill="#80b1d3" stroke="transparent" points="1716,-10 1716,-30 1736,-30 1736,-10 1716,-10"/>
<text text-anchor="start" x="1739.78" y="-15.4" font-family="Times-12" font-size="14.00"> &#160;Bootstrap</text>
<polygon fill="#fdb462" stroke="transparent" points="1813,-10 1813,-30 1833,-30 1833,-10 1813,-10"/>
<text text-anchor="start" x="1836.67" y="-15.4" font-family="Times-12" font-size="14.00"> &#160;Providers</text>
<polygon fill="#fb8072" stroke="transparent" points="1909,-10 1909,-30 1929,-30 1929,-10 1909,-10"/>
<text text-anchor="start" x="1932.73" y="-15.4" font-family="Times-12" font-size="14.00"> &#160;Exports</text>
<g id="clust1" class="cluster">
<title>cluster_SACBootstrap4UploadModule</title>
<polygon fill="none" stroke="black" stroke-dasharray="1,5" points="8,-70 8,-379.59 3494,-379.59 3494,-70 8,-70"/>
</g>
<g id="clust8" class="cluster">
<title>cluster_SACBootstrap4UploadModule_exports</title>
<polygon fill="none" stroke="black" points="1100,-319.59 1100,-371.59 1914,-371.59 1914,-319.59 1100,-319.59"/>
</g>
<g id="clust2" class="cluster">
<title>cluster_SACBootstrap4UploadModule_declarations</title>
<polygon fill="none" stroke="black" points="1199,-189.59 1199,-241.59 2000,-241.59 2000,-189.59 1199,-189.59"/>
</g>
<g id="clust4" class="cluster">
<title>cluster_SACBootstrap4UploadModule_SacDropzoneSingleComponent_providers</title>
<polygon fill="none" stroke="black" points="1772,-78 1772,-176.59 3486,-176.59 3486,-78 1772,-78"/>
</g>
<g id="clust3" class="cluster">
<title>cluster_SACBootstrap4UploadModule_SacDropzoneMultipleComponent_providers</title>
<polygon fill="none" stroke="black" points="16,-78 16,-176.59 1764,-176.59 1764,-78 16,-78"/>
</g>
<g id="clust7" class="cluster">
<title>cluster_SACBootstrap4UploadModule_imports</title>
<polygon fill="none" stroke="black" points="987,-189.59 987,-241.59 1191,-241.59 1191,-189.59 987,-189.59"/>
</g>
<!-- SacDropzoneMultipleComponent -->
<g id="node1" class="node">
<title>SacDropzoneMultipleComponent</title>
<polygon fill="#ffffb3" stroke="black" points="1781.46,-233.59 1576.54,-233.59 1576.54,-197.59 1781.46,-197.59 1781.46,-233.59"/>
<text text-anchor="middle" x="1679" y="-211.39" font-family="Times,serif" font-size="14.00">SacDropzoneMultipleComponent</text>
</g>
<!-- SACBootstrap4UploadModule -->
<g id="node5" class="node">
<title>SACBootstrap4UploadModule</title>
<polygon fill="#8dd3c7" stroke="black" points="1581.93,-298.59 1578.93,-302.59 1557.93,-302.59 1554.93,-298.59 1392.07,-298.59 1392.07,-262.59 1581.93,-262.59 1581.93,-298.59"/>
<text text-anchor="middle" x="1487" y="-276.39" font-family="Times,serif" font-size="14.00">SACBootstrap4UploadModule</text>
</g>
<!-- SacDropzoneMultipleComponent&#45;&gt;SACBootstrap4UploadModule -->
<g id="edge1" class="edge">
<title>SacDropzoneMultipleComponent&#45;&gt;SACBootstrap4UploadModule</title>
<path fill="none" stroke="black" d="M1576.2,-215.59C1570.74,-215.59 1567.45,-215.59 1567.45,-215.59 1567.45,-215.59 1567.45,-252.48 1567.45,-252.48"/>
<polygon fill="black" stroke="black" points="1563.95,-252.48 1567.45,-262.48 1570.95,-252.48 1563.95,-252.48"/>
</g>
<!-- SacDropzoneSingleComponent -->
<g id="node2" class="node">
<title>SacDropzoneSingleComponent</title>
<polygon fill="#ffffb3" stroke="black" points="1992.02,-233.59 1799.98,-233.59 1799.98,-197.59 1992.02,-197.59 1992.02,-233.59"/>
<text text-anchor="middle" x="1896" y="-211.39" font-family="Times,serif" font-size="14.00">SacDropzoneSingleComponent</text>
</g>
<!-- SacDropzoneSingleComponent&#45;&gt;SACBootstrap4UploadModule -->
<g id="edge4" class="edge">
<title>SacDropzoneSingleComponent&#45;&gt;SACBootstrap4UploadModule</title>
<path fill="none" stroke="black" d="M1852.99,-233.61C1852.99,-250.96 1852.99,-274.59 1852.99,-274.59 1852.99,-274.59 1591.73,-274.59 1591.73,-274.59"/>
<polygon fill="black" stroke="black" points="1591.73,-271.09 1581.73,-274.59 1591.73,-278.09 1591.73,-271.09"/>
</g>
<!-- SacUploadComponent -->
<g id="node3" class="node">
<title>SacUploadComponent</title>
<polygon fill="#ffffb3" stroke="black" points="1558.26,-233.59 1415.74,-233.59 1415.74,-197.59 1558.26,-197.59 1558.26,-233.59"/>
<text text-anchor="middle" x="1487" y="-211.39" font-family="Times,serif" font-size="14.00">SacUploadComponent</text>
</g>
<!-- SacUploadComponent&#45;&gt;SACBootstrap4UploadModule -->
<g id="edge7" class="edge">
<title>SacUploadComponent&#45;&gt;SACBootstrap4UploadModule</title>
<path fill="none" stroke="black" d="M1487,-233.7C1487,-233.7 1487,-252.58 1487,-252.58"/>
<polygon fill="black" stroke="black" points="1483.5,-252.58 1487,-262.58 1490.5,-252.58 1483.5,-252.58"/>
</g>
<!-- SacUploadMultipleComponent -->
<g id="node4" class="node">
<title>SacUploadMultipleComponent</title>
<polygon fill="#ffffb3" stroke="black" points="1397.48,-233.59 1206.52,-233.59 1206.52,-197.59 1397.48,-197.59 1397.48,-233.59"/>
<text text-anchor="middle" x="1302" y="-211.39" font-family="Times,serif" font-size="14.00">SacUploadMultipleComponent</text>
</g>
<!-- SacUploadMultipleComponent&#45;&gt;SACBootstrap4UploadModule -->
<g id="edge8" class="edge">
<title>SacUploadMultipleComponent&#45;&gt;SACBootstrap4UploadModule</title>
<path fill="none" stroke="black" d="M1397.64,-215.59C1403.18,-215.59 1406.56,-215.59 1406.56,-215.59 1406.56,-215.59 1406.56,-252.48 1406.56,-252.48"/>
<polygon fill="black" stroke="black" points="1403.06,-252.48 1406.56,-262.48 1410.06,-252.48 1403.06,-252.48"/>
</g>
<!-- SacDropzoneMultipleComponent  -->
<g id="node11" class="node">
<title>SacDropzoneMultipleComponent </title>
<polygon fill="#fb8072" stroke="black" points="1906.46,-363.59 1697.54,-363.59 1697.54,-327.59 1906.46,-327.59 1906.46,-363.59"/>
<text text-anchor="middle" x="1802" y="-341.39" font-family="Times,serif" font-size="14.00">SacDropzoneMultipleComponent </text>
</g>
<!-- SACBootstrap4UploadModule&#45;&gt;SacDropzoneMultipleComponent  -->
<g id="edge10" class="edge">
<title>SACBootstrap4UploadModule&#45;&gt;SacDropzoneMultipleComponent </title>
<path fill="none" stroke="black" stroke-dasharray="5,2" d="M1581.79,-286.59C1653.47,-286.59 1739.62,-286.59 1739.62,-286.59 1739.62,-286.59 1739.62,-317.57 1739.62,-317.57"/>
<polygon fill="black" stroke="black" points="1736.13,-317.57 1739.62,-327.57 1743.13,-317.57 1736.13,-317.57"/>
</g>
<!-- SacDropzoneSingleComponent  -->
<g id="node12" class="node">
<title>SacDropzoneSingleComponent </title>
<polygon fill="#fb8072" stroke="black" points="1680.02,-363.59 1483.98,-363.59 1483.98,-327.59 1680.02,-327.59 1680.02,-363.59"/>
<text text-anchor="middle" x="1582" y="-341.39" font-family="Times,serif" font-size="14.00">SacDropzoneSingleComponent </text>
</g>
<!-- SACBootstrap4UploadModule&#45;&gt;SacDropzoneSingleComponent  -->
<g id="edge11" class="edge">
<title>SACBootstrap4UploadModule&#45;&gt;SacDropzoneSingleComponent </title>
<path fill="none" stroke="black" stroke-dasharray="5,2" d="M1532.85,-298.7C1532.85,-298.7 1532.85,-317.58 1532.85,-317.58"/>
<polygon fill="black" stroke="black" points="1529.35,-317.58 1532.85,-327.58 1536.35,-317.58 1529.35,-317.58"/>
</g>
<!-- SacUploadComponent  -->
<g id="node13" class="node">
<title>SacUploadComponent </title>
<polygon fill="#fb8072" stroke="black" points="1466.26,-363.59 1319.74,-363.59 1319.74,-327.59 1466.26,-327.59 1466.26,-363.59"/>
<text text-anchor="middle" x="1393" y="-341.39" font-family="Times,serif" font-size="14.00">SacUploadComponent </text>
</g>
<!-- SACBootstrap4UploadModule&#45;&gt;SacUploadComponent  -->
<g id="edge12" class="edge">
<title>SACBootstrap4UploadModule&#45;&gt;SacUploadComponent </title>
<path fill="none" stroke="black" stroke-dasharray="5,2" d="M1429.21,-298.7C1429.21,-298.7 1429.21,-317.58 1429.21,-317.58"/>
<polygon fill="black" stroke="black" points="1425.71,-317.58 1429.21,-327.58 1432.71,-317.58 1425.71,-317.58"/>
</g>
<!-- SacUploadMultipleComponent  -->
<g id="node14" class="node">
<title>SacUploadMultipleComponent </title>
<polygon fill="#fb8072" stroke="black" points="1302.48,-363.59 1107.52,-363.59 1107.52,-327.59 1302.48,-327.59 1302.48,-363.59"/>
<text text-anchor="middle" x="1205" y="-341.39" font-family="Times,serif" font-size="14.00">SacUploadMultipleComponent </text>
</g>
<!-- SACBootstrap4UploadModule&#45;&gt;SacUploadMultipleComponent  -->
<g id="edge13" class="edge">
<title>SACBootstrap4UploadModule&#45;&gt;SacUploadMultipleComponent </title>
<path fill="none" stroke="black" stroke-dasharray="5,2" d="M1392.05,-286.59C1327.72,-286.59 1254.38,-286.59 1254.38,-286.59 1254.38,-286.59 1254.38,-317.57 1254.38,-317.57"/>
<polygon fill="black" stroke="black" points="1250.88,-317.57 1254.38,-327.57 1257.88,-317.57 1250.88,-317.57"/>
</g>
<!-- {
 &#160;&#160;&#160;provide: NG_VALUE_ACCESSOR, multi: true, useExisting: SacDropzoneMultipleComponent,
} -->
<g id="node6" class="node">
<title>{
 &#160;&#160;&#160;provide: NG_VALUE_ACCESSOR, multi: true, useExisting: SacDropzoneMultipleComponent,
}</title>
<ellipse fill="#fdb462" stroke="black" cx="1352" cy="-127.3" rx="404.48" ry="41.09"/>
<text text-anchor="middle" x="1352" y="-139.9" font-family="Times,serif" font-size="14.00">{</text>
<text text-anchor="middle" x="1352" y="-123.1" font-family="Times,serif" font-size="14.00"> &#160;&#160;&#160;provide: NG_VALUE_ACCESSOR, multi: true, useExisting: SacDropzoneMultipleComponent,</text>
<text text-anchor="middle" x="1352" y="-106.3" font-family="Times,serif" font-size="14.00">}</text>
</g>
<!-- {
 &#160;&#160;&#160;provide: NG_VALUE_ACCESSOR, multi: true, useExisting: SacDropzoneMultipleComponent,
}&#45;&gt;SacDropzoneMultipleComponent -->
<g id="edge2" class="edge">
<title>{
 &#160;&#160;&#160;provide: NG_VALUE_ACCESSOR, multi: true, useExisting: SacDropzoneMultipleComponent,
}&#45;&gt;SacDropzoneMultipleComponent</title>
<path fill="none" stroke="black" d="M1696.5,-149.12C1696.5,-149.12 1696.5,-187.58 1696.5,-187.58"/>
<polygon fill="black" stroke="black" points="1693,-187.58 1696.5,-197.58 1700,-187.58 1693,-187.58"/>
</g>
<!-- {
 &#160;&#160;&#160;provide: NG_VALIDATORS, multi: true, useExisting: forwardRef(() =&gt; SacDropzoneMultipleComponent),
} -->
<g id="node7" class="node">
<title>{
 &#160;&#160;&#160;provide: NG_VALIDATORS, multi: true, useExisting: forwardRef(() =&gt; SacDropzoneMultipleComponent),
}</title>
<ellipse fill="#fdb462" stroke="black" cx="477" cy="-127.3" rx="452.99" ry="41.09"/>
<text text-anchor="middle" x="477" y="-139.9" font-family="Times,serif" font-size="14.00">{</text>
<text text-anchor="middle" x="477" y="-123.1" font-family="Times,serif" font-size="14.00"> &#160;&#160;&#160;provide: NG_VALIDATORS, multi: true, useExisting: forwardRef(() =&gt; SacDropzoneMultipleComponent),</text>
<text text-anchor="middle" x="477" y="-106.3" font-family="Times,serif" font-size="14.00">}</text>
</g>
<!-- {
 &#160;&#160;&#160;provide: NG_VALIDATORS, multi: true, useExisting: forwardRef(() =&gt; SacDropzoneMultipleComponent),
}&#45;&gt;SacDropzoneMultipleComponent -->
<g id="edge3" class="edge">
<title>{
 &#160;&#160;&#160;provide: NG_VALIDATORS, multi: true, useExisting: forwardRef(() =&gt; SacDropzoneMultipleComponent),
}&#45;&gt;SacDropzoneMultipleComponent</title>
<path fill="none" stroke="black" d="M477,-168.8C477,-177.24 477,-183.59 477,-183.59 477,-183.59 1636.51,-183.59 1636.51,-183.59 1636.51,-183.59 1636.51,-187.35 1636.51,-187.35"/>
<polygon fill="black" stroke="black" points="1633.01,-187.35 1636.51,-197.35 1640.01,-187.35 1633.01,-187.35"/>
</g>
<!-- {
 &#160;&#160;&#160;provide: NG_VALUE_ACCESSOR, multi: true, useExisting: SacDropzoneSingleComponent,
} -->
<g id="node8" class="node">
<title>{
 &#160;&#160;&#160;provide: NG_VALUE_ACCESSOR, multi: true, useExisting: SacDropzoneSingleComponent,
}</title>
<ellipse fill="#fdb462" stroke="black" cx="3082" cy="-127.3" rx="395.88" ry="41.09"/>
<text text-anchor="middle" x="3082" y="-139.9" font-family="Times,serif" font-size="14.00">{</text>
<text text-anchor="middle" x="3082" y="-123.1" font-family="Times,serif" font-size="14.00"> &#160;&#160;&#160;provide: NG_VALUE_ACCESSOR, multi: true, useExisting: SacDropzoneSingleComponent,</text>
<text text-anchor="middle" x="3082" y="-106.3" font-family="Times,serif" font-size="14.00">}</text>
</g>
<!-- {
 &#160;&#160;&#160;provide: NG_VALUE_ACCESSOR, multi: true, useExisting: SacDropzoneSingleComponent,
}&#45;&gt;SacDropzoneSingleComponent -->
<g id="edge5" class="edge">
<title>{
 &#160;&#160;&#160;provide: NG_VALUE_ACCESSOR, multi: true, useExisting: SacDropzoneSingleComponent,
}&#45;&gt;SacDropzoneSingleComponent</title>
<path fill="none" stroke="black" d="M3082,-168.6C3082,-191.58 3082,-215.59 3082,-215.59 3082,-215.59 2002.05,-215.59 2002.05,-215.59"/>
<polygon fill="black" stroke="black" points="2002.05,-212.09 1992.05,-215.59 2002.05,-219.09 2002.05,-212.09"/>
</g>
<!-- {
 &#160;&#160;&#160;provide: NG_VALIDATORS, multi: true, useExisting: forwardRef(() =&gt; SacDropzoneSingleComponent),
} -->
<g id="node9" class="node">
<title>{
 &#160;&#160;&#160;provide: NG_VALIDATORS, multi: true, useExisting: forwardRef(() =&gt; SacDropzoneSingleComponent),
}</title>
<ellipse fill="#fdb462" stroke="black" cx="2224" cy="-127.3" rx="444.4" ry="41.09"/>
<text text-anchor="middle" x="2224" y="-139.9" font-family="Times,serif" font-size="14.00">{</text>
<text text-anchor="middle" x="2224" y="-123.1" font-family="Times,serif" font-size="14.00"> &#160;&#160;&#160;provide: NG_VALIDATORS, multi: true, useExisting: forwardRef(() =&gt; SacDropzoneSingleComponent),</text>
<text text-anchor="middle" x="2224" y="-106.3" font-family="Times,serif" font-size="14.00">}</text>
</g>
<!-- {
 &#160;&#160;&#160;provide: NG_VALIDATORS, multi: true, useExisting: forwardRef(() =&gt; SacDropzoneSingleComponent),
}&#45;&gt;SacDropzoneSingleComponent -->
<g id="edge6" class="edge">
<title>{
 &#160;&#160;&#160;provide: NG_VALIDATORS, multi: true, useExisting: forwardRef(() =&gt; SacDropzoneSingleComponent),
}&#45;&gt;SacDropzoneSingleComponent</title>
<path fill="none" stroke="black" d="M1896,-155.23C1896,-155.23 1896,-187.56 1896,-187.56"/>
<polygon fill="black" stroke="black" points="1892.5,-187.56 1896,-197.56 1899.5,-187.56 1892.5,-187.56"/>
</g>
<!-- SACBootstrap4LayoutModule -->
<g id="node10" class="node">
<title>SACBootstrap4LayoutModule</title>
<polygon fill="#8dd3c7" stroke="black" points="1182.87,-233.59 1179.87,-237.59 1158.87,-237.59 1155.87,-233.59 995.13,-233.59 995.13,-197.59 1182.87,-197.59 1182.87,-233.59"/>
<text text-anchor="middle" x="1089" y="-211.39" font-family="Times,serif" font-size="14.00">SACBootstrap4LayoutModule</text>
</g>
<!-- SACBootstrap4LayoutModule&#45;&gt;SACBootstrap4UploadModule -->
<g id="edge9" class="edge">
<title>SACBootstrap4LayoutModule&#45;&gt;SACBootstrap4UploadModule</title>
<path fill="none" stroke="black" d="M1145.35,-233.61C1145.35,-250.96 1145.35,-274.59 1145.35,-274.59 1145.35,-274.59 1382.28,-274.59 1382.28,-274.59"/>
<polygon fill="black" stroke="black" points="1382.28,-278.09 1392.28,-274.59 1382.28,-271.09 1382.28,-278.09"/>
</g>
</g>
</svg>
