<?xml version="1.0" encoding="UTF-8" standalone="no"?>
<!DOCTYPE svg PUBLIC "-//W3C//DTD SVG 1.1//EN"
 "http://www.w3.org/Graphics/SVG/1.1/DTD/svg11.dtd">
<!-- Generated by graphviz version 2.47.0 (20210316.0004)
 -->
<!-- Title: dependencies Pages: 1 -->
<svg width="3510pt" height="396pt"
 viewBox="0.00 0.00 3510.00 395.59" xmlns="http://www.w3.org/2000/svg" xmlns:xlink="http://www.w3.org/1999/xlink">
<g id="graph0" class="graph" transform="scale(1 1) rotate(0) translate(4 391.59)">
<title>dependencies</title>
<polygon fill="white" stroke="transparent" points="-4,4 -4,-391.59 3506,-391.59 3506,4 -4,4"/>
<text text-anchor="start" x="1730.01" y="-42.4" font-family="Times-12" font-weight="bold" font-size="14.00">Legend</text>
<polygon fill="#ffffb3" stroke="transparent" points="1517,-10 1517,-30 1537,-30 1537,-10 1517,-10"/>
<text text-anchor="start" x="1540.63" y="-15.4" font-family="Times-12" font-size="14.00"> &#160;Declarations</text>
<polygon fill="#8dd3c7" stroke="transparent" points="1630,-10 1630,-30 1650,-30 1650,-10 1630,-10"/>
<text text-anchor="start" x="1653.73" y="-15.4" font-family="Times-12" font-size="14.00"> &#160;Module</text>
<polygon fill="#80b1d3" stroke="transparent" points="1716,-10 1716,-30 1736,-30 1736,-10 1716,-10"/>
<text text-anchor="start" x="1739.78" y="-15.4" font-family="Times-12" font-size="14.00"> &#160;Bootstrap</text>
<polygon fill="#fdb462" stroke="transparent" points="1813,-10 1813,-30 1833,-30 1833,-10 1813,-10"/>
<text text-anchor="start" x="1836.67" y="-15.4" font-family="Times-12" font-size="14.00"> &#160;Providers</text>
<polygon fill="#fb8072" stroke="transparent" points="1909,-10 1909,-30 1929,-30 1929,-10 1909,-10"/>
<text text-anchor="start" x="1932.73" y="-15.4" font-family="Times-12" font-size="14.00"> &#160;Exports</text>
<g id="clust1" class="cluster">
<title>cluster_SACBootstrap4UploadModule</title>
<polygon fill="none" stroke="black" stroke-dasharray="1,5" points="8,-70 8,-379.59 3494,-379.59 3494,-70 8,-70"/>
</g>
<g id="clust4" class="cluster">
<title>cluster_SACBootstrap4UploadModule_SacDropzoneSingleComponent_providers</title>
<polygon fill="none" stroke="black" points="1772,-78 1772,-241.59 3486,-241.59 3486,-78 1772,-78"/>
</g>
<g id="clust2" class="cluster">
<title>cluster_SACBootstrap4UploadModule_declarations</title>
<polygon fill="none" stroke="black" points="872,-189.59 872,-241.59 1462,-241.59 1462,-189.59 872,-189.59"/>
</g>
<g id="clust8" class="cluster">
<title>cluster_SACBootstrap4UploadModule_exports</title>
<polygon fill="none" stroke="black" points="588,-319.59 588,-371.59 1402,-371.59 1402,-319.59 588,-319.59"/>
</g>
<g id="clust3" class="cluster">
<title>cluster_SACBootstrap4UploadModule_SacDropzoneMultipleComponent_providers</title>
<polygon fill="none" stroke="black" points="16,-78 16,-176.59 1764,-176.59 1764,-78 16,-78"/>
</g>
<g id="clust7" class="cluster">
<title>cluster_SACBootstrap4UploadModule_imports</title>
<polygon fill="none" stroke="black" points="250,-189.59 250,-241.59 864,-241.59 864,-189.59 250,-189.59"/>
</g>
<!-- SacDropzoneMultipleComponent -->
<g id="node1" class="node">
<title>SacDropzoneMultipleComponent</title>
<polygon fill="#ffffb3" stroke="black" points="1454.46,-233.59 1249.54,-233.59 1249.54,-197.59 1454.46,-197.59 1454.46,-233.59"/>
<text text-anchor="middle" x="1352" y="-211.39" font-family="Times,serif" font-size="14.00">SacDropzoneMultipleComponent</text>
</g>
<!-- SACBootstrap4UploadModule -->
<g id="node5" class="node">
<title>SACBootstrap4UploadModule</title>
<polygon fill="#8dd3c7" stroke="black" points="1069.93,-298.59 1066.93,-302.59 1045.93,-302.59 1042.93,-298.59 880.07,-298.59 880.07,-262.59 1069.93,-262.59 1069.93,-298.59"/>
<text text-anchor="middle" x="975" y="-276.39" font-family="Times,serif" font-size="14.00">SACBootstrap4UploadModule</text>
</g>
<!-- SacDropzoneMultipleComponent&#45;&gt;SACBootstrap4UploadModule -->
<g id="edge1" class="edge">
<title>SacDropzoneMultipleComponent&#45;&gt;SACBootstrap4UploadModule</title>
<path fill="none" stroke="black" d="M1321.88,-233.86C1321.88,-252.15 1321.88,-277.59 1321.88,-277.59 1321.88,-277.59 1079.79,-277.59 1079.79,-277.59"/>
<polygon fill="black" stroke="black" points="1079.79,-274.09 1069.79,-277.59 1079.79,-281.09 1079.79,-274.09"/>
</g>
<!-- SacDropzoneSingleComponent -->
<g id="node2" class="node">
<title>SacDropzoneSingleComponent</title>
<polygon fill="#ffffb3" stroke="black" points="2320.02,-233.59 2127.98,-233.59 2127.98,-197.59 2320.02,-197.59 2320.02,-233.59"/>
<text text-anchor="middle" x="2224" y="-211.39" font-family="Times,serif" font-size="14.00">SacDropzoneSingleComponent</text>
</g>
<!-- SacDropzoneSingleComponent&#45;&gt;SACBootstrap4UploadModule -->
<g id="edge4" class="edge">
<title>SacDropzoneSingleComponent&#45;&gt;SACBootstrap4UploadModule</title>
<path fill="none" stroke="black" d="M2224,-233.72C2224,-254.16 2224,-284.59 2224,-284.59 2224,-284.59 1079.9,-284.59 1079.9,-284.59"/>
<polygon fill="black" stroke="black" points="1079.9,-281.09 1069.9,-284.59 1079.9,-288.09 1079.9,-281.09"/>
</g>
<!-- SacUploadComponent -->
<g id="node3" class="node">
<title>SacUploadComponent</title>
<polygon fill="#ffffb3" stroke="black" points="1231.26,-233.59 1088.74,-233.59 1088.74,-197.59 1231.26,-197.59 1231.26,-233.59"/>
<text text-anchor="middle" x="1160" y="-211.39" font-family="Times,serif" font-size="14.00">SacUploadComponent</text>
</g>
<!-- SacUploadComponent&#45;&gt;SACBootstrap4UploadModule -->
<g id="edge7" class="edge">
<title>SacUploadComponent&#45;&gt;SACBootstrap4UploadModule</title>
<path fill="none" stroke="black" d="M1128.32,-233.6C1128.32,-249.64 1128.32,-270.59 1128.32,-270.59 1128.32,-270.59 1079.92,-270.59 1079.92,-270.59"/>
<polygon fill="black" stroke="black" points="1079.92,-267.09 1069.92,-270.59 1079.92,-274.09 1079.92,-267.09"/>
</g>
<!-- SacUploadMultipleComponent -->
<g id="node4" class="node">
<title>SacUploadMultipleComponent</title>
<polygon fill="#ffffb3" stroke="black" points="1070.48,-233.59 879.52,-233.59 879.52,-197.59 1070.48,-197.59 1070.48,-233.59"/>
<text text-anchor="middle" x="975" y="-211.39" font-family="Times,serif" font-size="14.00">SacUploadMultipleComponent</text>
</g>
<!-- SacUploadMultipleComponent&#45;&gt;SACBootstrap4UploadModule -->
<g id="edge8" class="edge">
<title>SacUploadMultipleComponent&#45;&gt;SACBootstrap4UploadModule</title>
<path fill="none" stroke="black" d="M975,-233.7C975,-233.7 975,-252.58 975,-252.58"/>
<polygon fill="black" stroke="black" points="971.5,-252.58 975,-262.58 978.5,-252.58 971.5,-252.58"/>
</g>
<!-- SacDropzoneMultipleComponent  -->
<g id="node13" class="node">
<title>SacDropzoneMultipleComponent </title>
<polygon fill="#fb8072" stroke="black" points="1394.46,-363.59 1185.54,-363.59 1185.54,-327.59 1394.46,-327.59 1394.46,-363.59"/>
<text text-anchor="middle" x="1290" y="-341.39" font-family="Times,serif" font-size="14.00">SacDropzoneMultipleComponent </text>
</g>
<!-- SACBootstrap4UploadModule&#45;&gt;SacDropzoneMultipleComponent  -->
<g id="edge12" class="edge">
<title>SACBootstrap4UploadModule&#45;&gt;SacDropzoneMultipleComponent </title>
<path fill="none" stroke="black" stroke-dasharray="5,2" d="M1070,-291.59C1134.67,-291.59 1208.57,-291.59 1208.57,-291.59 1208.57,-291.59 1208.57,-317.31 1208.57,-317.31"/>
<polygon fill="black" stroke="black" points="1205.07,-317.31 1208.57,-327.31 1212.07,-317.31 1205.07,-317.31"/>
</g>
<!-- SacDropzoneSingleComponent  -->
<g id="node14" class="node">
<title>SacDropzoneSingleComponent </title>
<polygon fill="#fb8072" stroke="black" points="1168.02,-363.59 971.98,-363.59 971.98,-327.59 1168.02,-327.59 1168.02,-363.59"/>
<text text-anchor="middle" x="1070" y="-341.39" font-family="Times,serif" font-size="14.00">SacDropzoneSingleComponent </text>
</g>
<!-- SACBootstrap4UploadModule&#45;&gt;SacDropzoneSingleComponent  -->
<g id="edge13" class="edge">
<title>SACBootstrap4UploadModule&#45;&gt;SacDropzoneSingleComponent </title>
<path fill="none" stroke="black" stroke-dasharray="5,2" d="M1020.85,-298.7C1020.85,-298.7 1020.85,-317.58 1020.85,-317.58"/>
<polygon fill="black" stroke="black" points="1017.35,-317.58 1020.85,-327.58 1024.35,-317.58 1017.35,-317.58"/>
</g>
<!-- SacUploadComponent  -->
<g id="node15" class="node">
<title>SacUploadComponent </title>
<polygon fill="#fb8072" stroke="black" points="954.26,-363.59 807.74,-363.59 807.74,-327.59 954.26,-327.59 954.26,-363.59"/>
<text text-anchor="middle" x="881" y="-341.39" font-family="Times,serif" font-size="14.00">SacUploadComponent </text>
</g>
<!-- SACBootstrap4UploadModule&#45;&gt;SacUploadComponent  -->
<g id="edge14" class="edge">
<title>SACBootstrap4UploadModule&#45;&gt;SacUploadComponent </title>
<path fill="none" stroke="black" stroke-dasharray="5,2" d="M917.21,-298.7C917.21,-298.7 917.21,-317.58 917.21,-317.58"/>
<polygon fill="black" stroke="black" points="913.71,-317.58 917.21,-327.58 920.71,-317.58 913.71,-317.58"/>
</g>
<!-- SacUploadMultipleComponent  -->
<g id="node16" class="node">
<title>SacUploadMultipleComponent </title>
<polygon fill="#fb8072" stroke="black" points="790.48,-363.59 595.52,-363.59 595.52,-327.59 790.48,-327.59 790.48,-363.59"/>
<text text-anchor="middle" x="693" y="-341.39" font-family="Times,serif" font-size="14.00">SacUploadMultipleComponent </text>
</g>
<!-- SACBootstrap4UploadModule&#45;&gt;SacUploadMultipleComponent  -->
<g id="edge15" class="edge">
<title>SACBootstrap4UploadModule&#45;&gt;SacUploadMultipleComponent </title>
<path fill="none" stroke="black" stroke-dasharray="5,2" d="M879.95,-291.59C810.77,-291.59 729.15,-291.59 729.15,-291.59 729.15,-291.59 729.15,-317.31 729.15,-317.31"/>
<polygon fill="black" stroke="black" points="725.65,-317.31 729.15,-327.31 732.65,-317.31 725.65,-317.31"/>
</g>
<!-- {
 &#160;&#160;&#160;provide: NG_VALUE_ACCESSOR, multi: true, useExisting: SacDropzoneMultipleComponent,
} -->
<g id="node6" class="node">
<title>{
 &#160;&#160;&#160;provide: NG_VALUE_ACCESSOR, multi: true, useExisting: SacDropzoneMultipleComponent,
}</title>
<ellipse fill="#fdb462" stroke="black" cx="1352" cy="-127.3" rx="404.48" ry="41.09"/>
<text text-anchor="middle" x="1352" y="-139.9" font-family="Times,serif" font-size="14.00">{</text>
<text text-anchor="middle" x="1352" y="-123.1" font-family="Times,serif" font-size="14.00"> &#160;&#160;&#160;provide: NG_VALUE_ACCESSOR, multi: true, useExisting: SacDropzoneMultipleComponent,</text>
<text text-anchor="middle" x="1352" y="-106.3" font-family="Times,serif" font-size="14.00">}</text>
</g>
<!-- {
 &#160;&#160;&#160;provide: NG_VALUE_ACCESSOR, multi: true, useExisting: SacDropzoneMultipleComponent,
}&#45;&gt;SacDropzoneMultipleComponent -->
<g id="edge2" class="edge">
<title>{
 &#160;&#160;&#160;provide: NG_VALUE_ACCESSOR, multi: true, useExisting: SacDropzoneMultipleComponent,
}&#45;&gt;SacDropzoneMultipleComponent</title>
<path fill="none" stroke="black" d="M1386.16,-168.6C1386.16,-168.6 1386.16,-187.26 1386.16,-187.26"/>
<polygon fill="black" stroke="black" points="1382.66,-187.26 1386.16,-197.26 1389.66,-187.26 1382.66,-187.26"/>
</g>
<!-- {
 &#160;&#160;&#160;provide: NG_VALIDATORS, multi: true, useExisting: forwardRef(() =&gt; SacDropzoneMultipleComponent),
} -->
<g id="node7" class="node">
<title>{
 &#160;&#160;&#160;provide: NG_VALIDATORS, multi: true, useExisting: forwardRef(() =&gt; SacDropzoneMultipleComponent),
}</title>
<ellipse fill="#fdb462" stroke="black" cx="477" cy="-127.3" rx="452.99" ry="41.09"/>
<text text-anchor="middle" x="477" y="-139.9" font-family="Times,serif" font-size="14.00">{</text>
<text text-anchor="middle" x="477" y="-123.1" font-family="Times,serif" font-size="14.00"> &#160;&#160;&#160;provide: NG_VALIDATORS, multi: true, useExisting: forwardRef(() =&gt; SacDropzoneMultipleComponent),</text>
<text text-anchor="middle" x="477" y="-106.3" font-family="Times,serif" font-size="14.00">}</text>
</g>
<!-- {
 &#160;&#160;&#160;provide: NG_VALIDATORS, multi: true, useExisting: forwardRef(() =&gt; SacDropzoneMultipleComponent),
}&#45;&gt;SacDropzoneMultipleComponent -->
<g id="edge3" class="edge">
<title>{
 &#160;&#160;&#160;provide: NG_VALIDATORS, multi: true, useExisting: forwardRef(() =&gt; SacDropzoneMultipleComponent),
}&#45;&gt;SacDropzoneMultipleComponent</title>
<path fill="none" stroke="black" d="M904.75,-140.92C904.75,-157.58 904.75,-183.59 904.75,-183.59 904.75,-183.59 1317.84,-183.59 1317.84,-183.59 1317.84,-183.59 1317.84,-187.35 1317.84,-187.35"/>
<polygon fill="black" stroke="black" points="1314.34,-187.35 1317.84,-197.35 1321.34,-187.35 1314.34,-187.35"/>
</g>
<!-- {
 &#160;&#160;&#160;provide: NG_VALUE_ACCESSOR, multi: true, useExisting: SacDropzoneSingleComponent,
} -->
<g id="node8" class="node">
<title>{
 &#160;&#160;&#160;provide: NG_VALUE_ACCESSOR, multi: true, useExisting: SacDropzoneSingleComponent,
}</title>
<ellipse fill="#fdb462" stroke="black" cx="3082" cy="-127.3" rx="395.88" ry="41.09"/>
<text text-anchor="middle" x="3082" y="-139.9" font-family="Times,serif" font-size="14.00">{</text>
<text text-anchor="middle" x="3082" y="-123.1" font-family="Times,serif" font-size="14.00"> &#160;&#160;&#160;provide: NG_VALUE_ACCESSOR, multi: true, useExisting: SacDropzoneSingleComponent,</text>
<text text-anchor="middle" x="3082" y="-106.3" font-family="Times,serif" font-size="14.00">}</text>
</g>
<!-- {
 &#160;&#160;&#160;provide: NG_VALUE_ACCESSOR, multi: true, useExisting: SacDropzoneSingleComponent,
}&#45;&gt;SacDropzoneSingleComponent -->
<g id="edge5" class="edge">
<title>{
 &#160;&#160;&#160;provide: NG_VALUE_ACCESSOR, multi: true, useExisting: SacDropzoneSingleComponent,
}&#45;&gt;SacDropzoneSingleComponent</title>
<path fill="none" stroke="black" d="M3082,-168.6C3082,-191.58 3082,-215.59 3082,-215.59 3082,-215.59 2330.34,-215.59 2330.34,-215.59"/>
<polygon fill="black" stroke="black" points="2330.34,-212.09 2320.34,-215.59 2330.34,-219.09 2330.34,-212.09"/>
</g>
<!-- {
 &#160;&#160;&#160;provide: NG_VALIDATORS, multi: true, useExisting: forwardRef(() =&gt; SacDropzoneSingleComponent),
} -->
<g id="node9" class="node">
<title>{
 &#160;&#160;&#160;provide: NG_VALIDATORS, multi: true, useExisting: forwardRef(() =&gt; SacDropzoneSingleComponent),
}</title>
<ellipse fill="#fdb462" stroke="black" cx="2224" cy="-127.3" rx="444.4" ry="41.09"/>
<text text-anchor="middle" x="2224" y="-139.9" font-family="Times,serif" font-size="14.00">{</text>
<text text-anchor="middle" x="2224" y="-123.1" font-family="Times,serif" font-size="14.00"> &#160;&#160;&#160;provide: NG_VALIDATORS, multi: true, useExisting: forwardRef(() =&gt; SacDropzoneSingleComponent),</text>
<text text-anchor="middle" x="2224" y="-106.3" font-family="Times,serif" font-size="14.00">}</text>
</g>
<!-- {
 &#160;&#160;&#160;provide: NG_VALIDATORS, multi: true, useExisting: forwardRef(() =&gt; SacDropzoneSingleComponent),
}&#45;&gt;SacDropzoneSingleComponent -->
<g id="edge6" class="edge">
<title>{
 &#160;&#160;&#160;provide: NG_VALIDATORS, multi: true, useExisting: forwardRef(() =&gt; SacDropzoneSingleComponent),
}&#45;&gt;SacDropzoneSingleComponent</title>
<path fill="none" stroke="black" d="M2224,-168.6C2224,-168.6 2224,-187.26 2224,-187.26"/>
<polygon fill="black" stroke="black" points="2220.5,-187.26 2224,-197.26 2227.5,-187.26 2220.5,-187.26"/>
</g>
<!-- SACBootstrap4LayoutModule -->
<g id="node10" class="node">
<title>SACBootstrap4LayoutModule</title>
<polygon fill="#8dd3c7" stroke="black" points="855.87,-233.59 852.87,-237.59 831.87,-237.59 828.87,-233.59 668.13,-233.59 668.13,-197.59 855.87,-197.59 855.87,-233.59"/>
<text text-anchor="middle" x="762" y="-211.39" font-family="Times,serif" font-size="14.00">SACBootstrap4LayoutModule</text>
</g>
<!-- SACBootstrap4LayoutModule&#45;&gt;SACBootstrap4UploadModule -->
<g id="edge9" class="edge">
<title>SACBootstrap4LayoutModule&#45;&gt;SACBootstrap4UploadModule</title>
<path fill="none" stroke="black" d="M831.9,-233.6C831.9,-249.64 831.9,-270.59 831.9,-270.59 831.9,-270.59 869.95,-270.59 869.95,-270.59"/>
<polygon fill="black" stroke="black" points="869.95,-274.09 879.95,-270.59 869.95,-267.09 869.95,-274.09"/>
</g>
<!-- SACBootstrap4TooltipModule -->
<g id="node11" class="node">
<title>SACBootstrap4TooltipModule</title>
<polygon fill="#8dd3c7" stroke="black" points="649.94,-233.59 646.94,-237.59 625.94,-237.59 622.94,-233.59 460.06,-233.59 460.06,-197.59 649.94,-197.59 649.94,-233.59"/>
<text text-anchor="middle" x="555" y="-211.39" font-family="Times,serif" font-size="14.00">SACBootstrap4TooltipModule</text>
</g>
<!-- SACBootstrap4TooltipModule&#45;&gt;SACBootstrap4UploadModule -->
<g id="edge10" class="edge">
<title>SACBootstrap4TooltipModule&#45;&gt;SACBootstrap4UploadModule</title>
<path fill="none" stroke="black" d="M622.74,-233.86C622.74,-252.15 622.74,-277.59 622.74,-277.59 622.74,-277.59 870.14,-277.59 870.14,-277.59"/>
<polygon fill="black" stroke="black" points="870.14,-281.09 880.14,-277.59 870.14,-274.09 870.14,-281.09"/>
</g>
<!-- SACCommonUtliltiesModule -->
<g id="node12" class="node">
<title>SACCommonUtliltiesModule</title>
<polygon fill="#8dd3c7" stroke="black" points="442,-233.59 439,-237.59 418,-237.59 415,-233.59 258,-233.59 258,-197.59 442,-197.59 442,-233.59"/>
<text text-anchor="middle" x="350" y="-211.39" font-family="Times,serif" font-size="14.00">SACCommonUtliltiesModule</text>
</g>
<!-- SACCommonUtliltiesModule&#45;&gt;SACBootstrap4UploadModule -->
<g id="edge11" class="edge">
<title>SACCommonUtliltiesModule&#45;&gt;SACBootstrap4UploadModule</title>
<path fill="none" stroke="black" d="M350,-233.72C350,-254.16 350,-284.59 350,-284.59 350,-284.59 870.08,-284.59 870.08,-284.59"/>
<polygon fill="black" stroke="black" points="870.08,-288.09 880.08,-284.59 870.08,-281.09 870.08,-288.09"/>
</g>
</g>
</svg>
