<?xml version="1.0" encoding="UTF-8" standalone="no"?>
<!DOCTYPE svg PUBLIC "-//W3C//DTD SVG 1.1//EN"
 "http://www.w3.org/Graphics/SVG/1.1/DTD/svg11.dtd">
<!-- Generated by graphviz version 2.47.0 (20210316.0004)
 -->
<!-- Title: dependencies Pages: 1 -->
<svg width="3510pt" height="396pt"
 viewBox="0.00 0.00 3510.00 395.59" xmlns="http://www.w3.org/2000/svg" xmlns:xlink="http://www.w3.org/1999/xlink">
<g id="graph0" class="graph" transform="scale(1 1) rotate(0) translate(4 391.59)">
<title>dependencies</title>
<polygon fill="white" stroke="transparent" points="-4,4 -4,-391.59 3506,-391.59 3506,4 -4,4"/>
<text text-anchor="start" x="1730.01" y="-42.4" font-family="Times-12" font-weight="bold" font-size="14.00">Legend</text>
<polygon fill="#ffffb3" stroke="transparent" points="1517,-10 1517,-30 1537,-30 1537,-10 1517,-10"/>
<text text-anchor="start" x="1540.63" y="-15.4" font-family="Times-12" font-size="14.00"> &#160;Declarations</text>
<polygon fill="#8dd3c7" stroke="transparent" points="1630,-10 1630,-30 1650,-30 1650,-10 1630,-10"/>
<text text-anchor="start" x="1653.73" y="-15.4" font-family="Times-12" font-size="14.00"> &#160;Module</text>
<polygon fill="#80b1d3" stroke="transparent" points="1716,-10 1716,-30 1736,-30 1736,-10 1716,-10"/>
<text text-anchor="start" x="1739.78" y="-15.4" font-family="Times-12" font-size="14.00"> &#160;Bootstrap</text>
<polygon fill="#fdb462" stroke="transparent" points="1813,-10 1813,-30 1833,-30 1833,-10 1813,-10"/>
<text text-anchor="start" x="1836.67" y="-15.4" font-family="Times-12" font-size="14.00"> &#160;Providers</text>
<polygon fill="#fb8072" stroke="transparent" points="1909,-10 1909,-30 1929,-30 1929,-10 1909,-10"/>
<text text-anchor="start" x="1932.73" y="-15.4" font-family="Times-12" font-size="14.00"> &#160;Exports</text>
<g id="clust1" class="cluster">
<title>cluster_SACBootstrap4UploadModule</title>
<polygon fill="none" stroke="black" stroke-dasharray="1,5" points="8,-70 8,-379.59 3494,-379.59 3494,-70 8,-70"/>
</g>
<g id="clust2" class="cluster">
<title>cluster_SACBootstrap4UploadModule_declarations</title>
<polygon fill="none" stroke="black" points="1180,-189.59 1180,-241.59 1981,-241.59 1981,-189.59 1180,-189.59"/>
</g>
<g id="clust3" class="cluster">
<title>cluster_SACBootstrap4UploadModule_SacDropzoneMultipleComponent_providers</title>
<polygon fill="none" stroke="black" points="1738,-78 1738,-176.59 3486,-176.59 3486,-78 1738,-78"/>
</g>
<g id="clust8" class="cluster">
<title>cluster_SACBootstrap4UploadModule_exports</title>
<polygon fill="none" stroke="black" points="988,-319.59 988,-371.59 1802,-371.59 1802,-319.59 988,-319.59"/>
</g>
<g id="clust4" class="cluster">
<title>cluster_SACBootstrap4UploadModule_SacDropzoneSingleComponent_providers</title>
<polygon fill="none" stroke="black" points="16,-78 16,-176.59 1730,-176.59 1730,-78 16,-78"/>
</g>
<g id="clust7" class="cluster">
<title>cluster_SACBootstrap4UploadModule_imports</title>
<polygon fill="none" stroke="black" points="760,-189.59 760,-241.59 1172,-241.59 1172,-189.59 760,-189.59"/>
</g>
<!-- SacDropzoneMultipleComponent -->
<g id="node1" class="node">
<title>SacDropzoneMultipleComponent</title>
<polygon fill="#ffffb3" stroke="black" points="1973.46,-233.59 1768.54,-233.59 1768.54,-197.59 1973.46,-197.59 1973.46,-233.59"/>
<text text-anchor="middle" x="1871" y="-211.39" font-family="Times,serif" font-size="14.00">SacDropzoneMultipleComponent</text>
</g>
<!-- SACBootstrap4UploadModule -->
<g id="node5" class="node">
<title>SACBootstrap4UploadModule</title>
<polygon fill="#8dd3c7" stroke="black" points="1469.93,-298.59 1466.93,-302.59 1445.93,-302.59 1442.93,-298.59 1280.07,-298.59 1280.07,-262.59 1469.93,-262.59 1469.93,-298.59"/>
<text text-anchor="middle" x="1375" y="-276.39" font-family="Times,serif" font-size="14.00">SACBootstrap4UploadModule</text>
</g>
<!-- SacDropzoneMultipleComponent&#45;&gt;SACBootstrap4UploadModule -->
<g id="edge1" class="edge">
<title>SacDropzoneMultipleComponent&#45;&gt;SACBootstrap4UploadModule</title>
<path fill="none" stroke="black" d="M1781.38,-233.7C1781.38,-252.93 1781.38,-280.59 1781.38,-280.59 1781.38,-280.59 1479.76,-280.59 1479.76,-280.59"/>
<polygon fill="black" stroke="black" points="1479.76,-277.09 1469.76,-280.59 1479.76,-284.09 1479.76,-277.09"/>
</g>
<!-- SacDropzoneSingleComponent -->
<g id="node2" class="node">
<title>SacDropzoneSingleComponent</title>
<polygon fill="#ffffb3" stroke="black" points="1750.02,-233.59 1557.98,-233.59 1557.98,-197.59 1750.02,-197.59 1750.02,-233.59"/>
<text text-anchor="middle" x="1654" y="-211.39" font-family="Times,serif" font-size="14.00">SacDropzoneSingleComponent</text>
</g>
<!-- SacDropzoneSingleComponent&#45;&gt;SACBootstrap4UploadModule -->
<g id="edge4" class="edge">
<title>SacDropzoneSingleComponent&#45;&gt;SACBootstrap4UploadModule</title>
<path fill="none" stroke="black" d="M1562.88,-233.62C1562.88,-249.99 1562.88,-271.59 1562.88,-271.59 1562.88,-271.59 1479.76,-271.59 1479.76,-271.59"/>
<polygon fill="black" stroke="black" points="1479.76,-268.09 1469.76,-271.59 1479.76,-275.09 1479.76,-268.09"/>
</g>
<!-- SacUploadComponent -->
<g id="node3" class="node">
<title>SacUploadComponent</title>
<polygon fill="#ffffb3" stroke="black" points="1539.26,-233.59 1396.74,-233.59 1396.74,-197.59 1539.26,-197.59 1539.26,-233.59"/>
<text text-anchor="middle" x="1468" y="-211.39" font-family="Times,serif" font-size="14.00">SacUploadComponent</text>
</g>
<!-- SacUploadComponent&#45;&gt;SACBootstrap4UploadModule -->
<g id="edge7" class="edge">
<title>SacUploadComponent&#45;&gt;SACBootstrap4UploadModule</title>
<path fill="none" stroke="black" d="M1433.17,-233.7C1433.17,-233.7 1433.17,-252.58 1433.17,-252.58"/>
<polygon fill="black" stroke="black" points="1429.67,-252.58 1433.17,-262.58 1436.67,-252.58 1429.67,-252.58"/>
</g>
<!-- SacUploadMultipleComponent -->
<g id="node4" class="node">
<title>SacUploadMultipleComponent</title>
<polygon fill="#ffffb3" stroke="black" points="1378.48,-233.59 1187.52,-233.59 1187.52,-197.59 1378.48,-197.59 1378.48,-233.59"/>
<text text-anchor="middle" x="1283" y="-211.39" font-family="Times,serif" font-size="14.00">SacUploadMultipleComponent</text>
</g>
<!-- SacUploadMultipleComponent&#45;&gt;SACBootstrap4UploadModule -->
<g id="edge8" class="edge">
<title>SacUploadMultipleComponent&#45;&gt;SACBootstrap4UploadModule</title>
<path fill="none" stroke="black" d="M1329.39,-233.7C1329.39,-233.7 1329.39,-252.58 1329.39,-252.58"/>
<polygon fill="black" stroke="black" points="1325.89,-252.58 1329.39,-262.58 1332.89,-252.58 1325.89,-252.58"/>
</g>
<!-- SacDropzoneMultipleComponent  -->
<g id="node12" class="node">
<title>SacDropzoneMultipleComponent </title>
<polygon fill="#fb8072" stroke="black" points="1794.46,-363.59 1585.54,-363.59 1585.54,-327.59 1794.46,-327.59 1794.46,-363.59"/>
<text text-anchor="middle" x="1690" y="-341.39" font-family="Times,serif" font-size="14.00">SacDropzoneMultipleComponent </text>
</g>
<!-- SACBootstrap4UploadModule&#45;&gt;SacDropzoneMultipleComponent  -->
<g id="edge11" class="edge">
<title>SACBootstrap4UploadModule&#45;&gt;SacDropzoneMultipleComponent </title>
<path fill="none" stroke="black" stroke-dasharray="5,2" d="M1469.73,-289.59C1555.34,-289.59 1668.01,-289.59 1668.01,-289.59 1668.01,-289.59 1668.01,-317.56 1668.01,-317.56"/>
<polygon fill="black" stroke="black" points="1664.51,-317.56 1668.01,-327.56 1671.51,-317.56 1664.51,-317.56"/>
</g>
<!-- SacDropzoneSingleComponent  -->
<g id="node13" class="node">
<title>SacDropzoneSingleComponent </title>
<polygon fill="#fb8072" stroke="black" points="1568.02,-363.59 1371.98,-363.59 1371.98,-327.59 1568.02,-327.59 1568.02,-363.59"/>
<text text-anchor="middle" x="1470" y="-341.39" font-family="Times,serif" font-size="14.00">SacDropzoneSingleComponent </text>
</g>
<!-- SACBootstrap4UploadModule&#45;&gt;SacDropzoneSingleComponent  -->
<g id="edge12" class="edge">
<title>SACBootstrap4UploadModule&#45;&gt;SacDropzoneSingleComponent </title>
<path fill="none" stroke="black" stroke-dasharray="5,2" d="M1420.85,-298.7C1420.85,-298.7 1420.85,-317.58 1420.85,-317.58"/>
<polygon fill="black" stroke="black" points="1417.35,-317.58 1420.85,-327.58 1424.35,-317.58 1417.35,-317.58"/>
</g>
<!-- SacUploadComponent  -->
<g id="node14" class="node">
<title>SacUploadComponent </title>
<polygon fill="#fb8072" stroke="black" points="1354.26,-363.59 1207.74,-363.59 1207.74,-327.59 1354.26,-327.59 1354.26,-363.59"/>
<text text-anchor="middle" x="1281" y="-341.39" font-family="Times,serif" font-size="14.00">SacUploadComponent </text>
</g>
<!-- SACBootstrap4UploadModule&#45;&gt;SacUploadComponent  -->
<g id="edge13" class="edge">
<title>SACBootstrap4UploadModule&#45;&gt;SacUploadComponent </title>
<path fill="none" stroke="black" stroke-dasharray="5,2" d="M1317.21,-298.7C1317.21,-298.7 1317.21,-317.58 1317.21,-317.58"/>
<polygon fill="black" stroke="black" points="1313.71,-317.58 1317.21,-327.58 1320.71,-317.58 1313.71,-317.58"/>
</g>
<!-- SacUploadMultipleComponent  -->
<g id="node15" class="node">
<title>SacUploadMultipleComponent </title>
<polygon fill="#fb8072" stroke="black" points="1190.48,-363.59 995.52,-363.59 995.52,-327.59 1190.48,-327.59 1190.48,-363.59"/>
<text text-anchor="middle" x="1093" y="-341.39" font-family="Times,serif" font-size="14.00">SacUploadMultipleComponent </text>
</g>
<!-- SACBootstrap4UploadModule&#45;&gt;SacUploadMultipleComponent  -->
<g id="edge14" class="edge">
<title>SACBootstrap4UploadModule&#45;&gt;SacUploadMultipleComponent </title>
<path fill="none" stroke="black" stroke-dasharray="5,2" d="M1280.03,-289.59C1228.7,-289.59 1175.72,-289.59 1175.72,-289.59 1175.72,-289.59 1175.72,-317.56 1175.72,-317.56"/>
<polygon fill="black" stroke="black" points="1172.22,-317.56 1175.72,-327.56 1179.22,-317.56 1172.22,-317.56"/>
</g>
<!-- {
 &#160;&#160;&#160;provide: NG_VALUE_ACCESSOR, multi: true, useExisting: SacDropzoneMultipleComponent,
} -->
<g id="node6" class="node">
<title>{
 &#160;&#160;&#160;provide: NG_VALUE_ACCESSOR, multi: true, useExisting: SacDropzoneMultipleComponent,
}</title>
<ellipse fill="#fdb462" stroke="black" cx="3074" cy="-127.3" rx="404.48" ry="41.09"/>
<text text-anchor="middle" x="3074" y="-139.9" font-family="Times,serif" font-size="14.00">{</text>
<text text-anchor="middle" x="3074" y="-123.1" font-family="Times,serif" font-size="14.00"> &#160;&#160;&#160;provide: NG_VALUE_ACCESSOR, multi: true, useExisting: SacDropzoneMultipleComponent,</text>
<text text-anchor="middle" x="3074" y="-106.3" font-family="Times,serif" font-size="14.00">}</text>
</g>
<!-- {
 &#160;&#160;&#160;provide: NG_VALUE_ACCESSOR, multi: true, useExisting: SacDropzoneMultipleComponent,
}&#45;&gt;SacDropzoneMultipleComponent -->
<g id="edge2" class="edge">
<title>{
 &#160;&#160;&#160;provide: NG_VALUE_ACCESSOR, multi: true, useExisting: SacDropzoneMultipleComponent,
}&#45;&gt;SacDropzoneMultipleComponent</title>
<path fill="none" stroke="black" d="M3074,-168.6C3074,-191.58 3074,-215.59 3074,-215.59 3074,-215.59 1983.57,-215.59 1983.57,-215.59"/>
<polygon fill="black" stroke="black" points="1983.57,-212.09 1973.57,-215.59 1983.57,-219.09 1983.57,-212.09"/>
</g>
<!-- {
 &#160;&#160;&#160;provide: NG_VALIDATORS, multi: true, useExisting: forwardRef(() =&gt; SacDropzoneMultipleComponent),
} -->
<g id="node7" class="node">
<title>{
 &#160;&#160;&#160;provide: NG_VALIDATORS, multi: true, useExisting: forwardRef(() =&gt; SacDropzoneMultipleComponent),
}</title>
<ellipse fill="#fdb462" stroke="black" cx="2199" cy="-127.3" rx="452.99" ry="41.09"/>
<text text-anchor="middle" x="2199" y="-139.9" font-family="Times,serif" font-size="14.00">{</text>
<text text-anchor="middle" x="2199" y="-123.1" font-family="Times,serif" font-size="14.00"> &#160;&#160;&#160;provide: NG_VALIDATORS, multi: true, useExisting: forwardRef(() =&gt; SacDropzoneMultipleComponent),</text>
<text text-anchor="middle" x="2199" y="-106.3" font-family="Times,serif" font-size="14.00">}</text>
</g>
<!-- {
 &#160;&#160;&#160;provide: NG_VALIDATORS, multi: true, useExisting: forwardRef(() =&gt; SacDropzoneMultipleComponent),
}&#45;&gt;SacDropzoneMultipleComponent -->
<g id="edge3" class="edge">
<title>{
 &#160;&#160;&#160;provide: NG_VALIDATORS, multi: true, useExisting: forwardRef(() =&gt; SacDropzoneMultipleComponent),
}&#45;&gt;SacDropzoneMultipleComponent</title>
<path fill="none" stroke="black" d="M1871,-156.21C1871,-156.21 1871,-187.43 1871,-187.43"/>
<polygon fill="black" stroke="black" points="1867.5,-187.43 1871,-197.43 1874.5,-187.43 1867.5,-187.43"/>
</g>
<!-- {
 &#160;&#160;&#160;provide: NG_VALUE_ACCESSOR, multi: true, useExisting: SacDropzoneSingleComponent,
} -->
<g id="node8" class="node">
<title>{
 &#160;&#160;&#160;provide: NG_VALUE_ACCESSOR, multi: true, useExisting: SacDropzoneSingleComponent,
}</title>
<ellipse fill="#fdb462" stroke="black" cx="1326" cy="-127.3" rx="395.88" ry="41.09"/>
<text text-anchor="middle" x="1326" y="-139.9" font-family="Times,serif" font-size="14.00">{</text>
<text text-anchor="middle" x="1326" y="-123.1" font-family="Times,serif" font-size="14.00"> &#160;&#160;&#160;provide: NG_VALUE_ACCESSOR, multi: true, useExisting: SacDropzoneSingleComponent,</text>
<text text-anchor="middle" x="1326" y="-106.3" font-family="Times,serif" font-size="14.00">}</text>
</g>
<!-- {
 &#160;&#160;&#160;provide: NG_VALUE_ACCESSOR, multi: true, useExisting: SacDropzoneSingleComponent,
}&#45;&gt;SacDropzoneSingleComponent -->
<g id="edge5" class="edge">
<title>{
 &#160;&#160;&#160;provide: NG_VALUE_ACCESSOR, multi: true, useExisting: SacDropzoneSingleComponent,
}&#45;&gt;SacDropzoneSingleComponent</title>
<path fill="none" stroke="black" d="M1667.04,-148.67C1667.04,-148.67 1667.04,-187.4 1667.04,-187.4"/>
<polygon fill="black" stroke="black" points="1663.54,-187.4 1667.04,-197.4 1670.54,-187.4 1663.54,-187.4"/>
</g>
<!-- {
 &#160;&#160;&#160;provide: NG_VALIDATORS, multi: true, useExisting: forwardRef(() =&gt; SacDropzoneSingleComponent),
} -->
<g id="node9" class="node">
<title>{
 &#160;&#160;&#160;provide: NG_VALIDATORS, multi: true, useExisting: forwardRef(() =&gt; SacDropzoneSingleComponent),
}</title>
<ellipse fill="#fdb462" stroke="black" cx="468" cy="-127.3" rx="444.4" ry="41.09"/>
<text text-anchor="middle" x="468" y="-139.9" font-family="Times,serif" font-size="14.00">{</text>
<text text-anchor="middle" x="468" y="-123.1" font-family="Times,serif" font-size="14.00"> &#160;&#160;&#160;provide: NG_VALIDATORS, multi: true, useExisting: forwardRef(() =&gt; SacDropzoneSingleComponent),</text>
<text text-anchor="middle" x="468" y="-106.3" font-family="Times,serif" font-size="14.00">}</text>
</g>
<!-- {
 &#160;&#160;&#160;provide: NG_VALIDATORS, multi: true, useExisting: forwardRef(() =&gt; SacDropzoneSingleComponent),
}&#45;&gt;SacDropzoneSingleComponent -->
<g id="edge6" class="edge">
<title>{
 &#160;&#160;&#160;provide: NG_VALIDATORS, multi: true, useExisting: forwardRef(() =&gt; SacDropzoneSingleComponent),
}&#45;&gt;SacDropzoneSingleComponent</title>
<path fill="none" stroke="black" d="M840.24,-149.87C840.24,-165.53 840.24,-183.59 840.24,-183.59 840.24,-183.59 1612.39,-183.59 1612.39,-183.59 1612.39,-183.59 1612.39,-187.35 1612.39,-187.35"/>
<polygon fill="black" stroke="black" points="1608.89,-187.35 1612.39,-197.35 1615.89,-187.35 1608.89,-187.35"/>
</g>
<!-- SACBootstrap4LayoutModule -->
<g id="node10" class="node">
<title>SACBootstrap4LayoutModule</title>
<polygon fill="#8dd3c7" stroke="black" points="1163.87,-233.59 1160.87,-237.59 1139.87,-237.59 1136.87,-233.59 976.13,-233.59 976.13,-197.59 1163.87,-197.59 1163.87,-233.59"/>
<text text-anchor="middle" x="1070" y="-211.39" font-family="Times,serif" font-size="14.00">SACBootstrap4LayoutModule</text>
</g>
<!-- SACBootstrap4LayoutModule&#45;&gt;SACBootstrap4UploadModule -->
<g id="edge9" class="edge">
<title>SACBootstrap4LayoutModule&#45;&gt;SACBootstrap4UploadModule</title>
<path fill="none" stroke="black" d="M1079.85,-233.62C1079.85,-249.99 1079.85,-271.59 1079.85,-271.59 1079.85,-271.59 1269.99,-271.59 1269.99,-271.59"/>
<polygon fill="black" stroke="black" points="1269.99,-275.09 1279.99,-271.59 1269.99,-268.09 1269.99,-275.09"/>
</g>
<!-- SACBootstrap4TooltipModule -->
<g id="node11" class="node">
<title>SACBootstrap4TooltipModule</title>
<polygon fill="#8dd3c7" stroke="black" points="957.94,-233.59 954.94,-237.59 933.94,-237.59 930.94,-233.59 768.06,-233.59 768.06,-197.59 957.94,-197.59 957.94,-233.59"/>
<text text-anchor="middle" x="863" y="-211.39" font-family="Times,serif" font-size="14.00">SACBootstrap4TooltipModule</text>
</g>
<!-- SACBootstrap4TooltipModule&#45;&gt;SACBootstrap4UploadModule -->
<g id="edge10" class="edge">
<title>SACBootstrap4TooltipModule&#45;&gt;SACBootstrap4UploadModule</title>
<path fill="none" stroke="black" d="M863,-233.7C863,-252.93 863,-280.59 863,-280.59 863,-280.59 1270.2,-280.59 1270.2,-280.59"/>
<polygon fill="black" stroke="black" points="1270.2,-284.09 1280.2,-280.59 1270.2,-277.09 1270.2,-284.09"/>
</g>
</g>
</svg>
