<?xml version="1.0" encoding="UTF-8" standalone="no"?>
<!DOCTYPE svg PUBLIC "-//W3C//DTD SVG 1.1//EN"
 "http://www.w3.org/Graphics/SVG/1.1/DTD/svg11.dtd">
<!-- Generated by graphviz version 2.46.0 (20210119.1425)
 -->
<!-- Title: dependencies Pages: 1 -->
<svg width="528pt" height="284pt"
 viewBox="0.00 0.00 528.00 284.00" xmlns="http://www.w3.org/2000/svg" xmlns:xlink="http://www.w3.org/1999/xlink">
<g id="graph0" class="graph" transform="scale(1 1) rotate(0) translate(4 280)">
<title>dependencies</title>
<polygon fill="white" stroke="transparent" points="-4,4 -4,-280 524,-280 524,4 -4,4"/>
<text text-anchor="start" x="239.01" y="-42.4" font-family="sans-serif" font-weight="bold" font-size="14.00">Legend</text>
<polygon fill="#ffffb3" stroke="transparent" points="26,-10 26,-30 46,-30 46,-10 26,-10"/>
<text text-anchor="start" x="49.63" y="-15.4" font-family="sans-serif" font-size="14.00"> &#160;Declarations</text>
<polygon fill="#8dd3c7" stroke="transparent" points="139,-10 139,-30 159,-30 159,-10 139,-10"/>
<text text-anchor="start" x="162.73" y="-15.4" font-family="sans-serif" font-size="14.00"> &#160;Module</text>
<polygon fill="#80b1d3" stroke="transparent" points="225,-10 225,-30 245,-30 245,-10 225,-10"/>
<text text-anchor="start" x="248.78" y="-15.4" font-family="sans-serif" font-size="14.00"> &#160;Bootstrap</text>
<polygon fill="#fdb462" stroke="transparent" points="322,-10 322,-30 342,-30 342,-10 322,-10"/>
<text text-anchor="start" x="345.67" y="-15.4" font-family="sans-serif" font-size="14.00"> &#160;Providers</text>
<polygon fill="#fb8072" stroke="transparent" points="418,-10 418,-30 438,-30 438,-10 418,-10"/>
<text text-anchor="start" x="441.73" y="-15.4" font-family="sans-serif" font-size="14.00"> &#160;Exports</text>
<g id="clust1" class="cluster">
<title>cluster_JNetworkBootstrap4MultilanguageModule</title>
<polygon fill="none" stroke="black" stroke-dasharray="1,5" points="8,-70 8,-268 512,-268 512,-70 8,-70"/>
</g>
<g id="clust2" class="cluster">
<title>cluster_JNetworkBootstrap4MultilanguageModule_declarations</title>
<polygon fill="none" stroke="black" points="20,-78 20,-130 500,-130 500,-78 20,-78"/>
</g>
<g id="clust6" class="cluster">
<title>cluster_JNetworkBootstrap4MultilanguageModule_exports</title>
<polygon fill="none" stroke="black" points="16,-208 16,-260 504,-260 504,-208 16,-208"/>
</g>
<!-- NgMultilanguageInputAreaComponent -->
<g id="node1" class="node">
<title>NgMultilanguageInputAreaComponent</title>
<polygon fill="#ffffb3" stroke="black" points="492.34,-122 255.66,-122 255.66,-86 492.34,-86 492.34,-122"/>
<text text-anchor="middle" x="374" y="-99.8" font-family="Times,serif" font-size="14.00">NgMultilanguageInputAreaComponent</text>
</g>
<!-- JNetworkBootstrap4MultilanguageModule -->
<g id="node3" class="node">
<title>JNetworkBootstrap4MultilanguageModule</title>
<polygon fill="#8dd3c7" stroke="black" points="385.56,-187 382.56,-191 361.56,-191 358.56,-187 128.44,-187 128.44,-151 385.56,-151 385.56,-187"/>
<text text-anchor="middle" x="257" y="-164.8" font-family="Times,serif" font-size="14.00">JNetworkBootstrap4MultilanguageModule</text>
</g>
<!-- NgMultilanguageInputAreaComponent&#45;&gt;JNetworkBootstrap4MultilanguageModule -->
<g id="edge1" class="edge">
<title>NgMultilanguageInputAreaComponent&#45;&gt;JNetworkBootstrap4MultilanguageModule</title>
<path fill="none" stroke="black" d="M320.56,-122.11C320.56,-122.11 320.56,-140.99 320.56,-140.99"/>
<polygon fill="black" stroke="black" points="317.06,-140.99 320.56,-150.99 324.06,-140.99 317.06,-140.99"/>
</g>
<!-- NgMultilanguageInputComponent -->
<g id="node2" class="node">
<title>NgMultilanguageInputComponent</title>
<polygon fill="#ffffb3" stroke="black" points="237.64,-122 28.36,-122 28.36,-86 237.64,-86 237.64,-122"/>
<text text-anchor="middle" x="133" y="-99.8" font-family="Times,serif" font-size="14.00">NgMultilanguageInputComponent</text>
</g>
<!-- NgMultilanguageInputComponent&#45;&gt;JNetworkBootstrap4MultilanguageModule -->
<g id="edge2" class="edge">
<title>NgMultilanguageInputComponent&#45;&gt;JNetworkBootstrap4MultilanguageModule</title>
<path fill="none" stroke="black" d="M183.14,-122.11C183.14,-122.11 183.14,-140.99 183.14,-140.99"/>
<polygon fill="black" stroke="black" points="179.64,-140.99 183.14,-150.99 186.64,-140.99 179.64,-140.99"/>
</g>
<!-- NgMultilanguageInputAreaComponent  -->
<g id="node4" class="node">
<title>NgMultilanguageInputAreaComponent </title>
<polygon fill="#fb8072" stroke="black" points="496.34,-252 255.66,-252 255.66,-216 496.34,-216 496.34,-252"/>
<text text-anchor="middle" x="376" y="-229.8" font-family="Times,serif" font-size="14.00">NgMultilanguageInputAreaComponent </text>
</g>
<!-- JNetworkBootstrap4MultilanguageModule&#45;&gt;NgMultilanguageInputAreaComponent  -->
<g id="edge3" class="edge">
<title>JNetworkBootstrap4MultilanguageModule&#45;&gt;NgMultilanguageInputAreaComponent </title>
<path fill="none" stroke="black" stroke-dasharray="5,2" d="M320.68,-187.11C320.68,-187.11 320.68,-205.99 320.68,-205.99"/>
<polygon fill="black" stroke="black" points="317.18,-205.99 320.68,-215.99 324.18,-205.99 317.18,-205.99"/>
</g>
<!-- NgMultilanguageInputComponent  -->
<g id="node5" class="node">
<title>NgMultilanguageInputComponent </title>
<polygon fill="#fb8072" stroke="black" points="237.64,-252 24.36,-252 24.36,-216 237.64,-216 237.64,-252"/>
<text text-anchor="middle" x="131" y="-229.8" font-family="Times,serif" font-size="14.00">NgMultilanguageInputComponent </text>
</g>
<!-- JNetworkBootstrap4MultilanguageModule&#45;&gt;NgMultilanguageInputComponent  -->
<g id="edge4" class="edge">
<title>JNetworkBootstrap4MultilanguageModule&#45;&gt;NgMultilanguageInputComponent </title>
<path fill="none" stroke="black" stroke-dasharray="5,2" d="M183.02,-187.11C183.02,-187.11 183.02,-205.99 183.02,-205.99"/>
<polygon fill="black" stroke="black" points="179.52,-205.99 183.02,-215.99 186.52,-205.99 179.52,-205.99"/>
</g>
</g>
</svg>
