<?xml version="1.0" encoding="UTF-8" standalone="no"?>
<!DOCTYPE svg PUBLIC "-//W3C//DTD SVG 1.1//EN"
 "http://www.w3.org/Graphics/SVG/1.1/DTD/svg11.dtd">
<!-- Generated by graphviz version 2.46.0 (20210119.1425)
 -->
<!-- Title: dependencies Pages: 1 -->
<svg width="950pt" height="349pt"
 viewBox="0.00 0.00 950.00 349.00" xmlns="http://www.w3.org/2000/svg" xmlns:xlink="http://www.w3.org/1999/xlink">
<g id="graph0" class="graph" transform="scale(1 1) rotate(0) translate(4 345)">
<title>dependencies</title>
<polygon fill="white" stroke="transparent" points="-4,4 -4,-345 946,-345 946,4 -4,4"/>
<text text-anchor="start" x="450.01" y="-42.4" font-family="sans-serif" font-weight="bold" font-size="14.00">Legend</text>
<polygon fill="#ffffb3" stroke="transparent" points="237,-10 237,-30 257,-30 257,-10 237,-10"/>
<text text-anchor="start" x="260.63" y="-15.4" font-family="sans-serif" font-size="14.00"> &#160;Declarations</text>
<polygon fill="#8dd3c7" stroke="transparent" points="350,-10 350,-30 370,-30 370,-10 350,-10"/>
<text text-anchor="start" x="373.73" y="-15.4" font-family="sans-serif" font-size="14.00"> &#160;Module</text>
<polygon fill="#80b1d3" stroke="transparent" points="436,-10 436,-30 456,-30 456,-10 436,-10"/>
<text text-anchor="start" x="459.78" y="-15.4" font-family="sans-serif" font-size="14.00"> &#160;Bootstrap</text>
<polygon fill="#fdb462" stroke="transparent" points="533,-10 533,-30 553,-30 553,-10 533,-10"/>
<text text-anchor="start" x="556.67" y="-15.4" font-family="sans-serif" font-size="14.00"> &#160;Providers</text>
<polygon fill="#fb8072" stroke="transparent" points="629,-10 629,-30 649,-30 649,-10 629,-10"/>
<text text-anchor="start" x="652.73" y="-15.4" font-family="sans-serif" font-size="14.00"> &#160;Exports</text>
<g id="clust1" class="cluster">
<title>cluster_JNetworkBootstrap4WizardModule</title>
<polygon fill="none" stroke="black" stroke-dasharray="1,5" points="8,-70 8,-333 934,-333 934,-70 8,-70"/>
</g>
<g id="clust3" class="cluster">
<title>cluster_JNetworkBootstrap4WizardModule_NgWizardComponent_providers</title>
<polygon fill="none" stroke="black" points="206,-78 206,-195 926,-195 926,-78 206,-78"/>
</g>
<g id="clust2" class="cluster">
<title>cluster_JNetworkBootstrap4WizardModule_declarations</title>
<polygon fill="none" stroke="black" points="16,-143 16,-195 198,-195 198,-143 16,-143"/>
</g>
<g id="clust6" class="cluster">
<title>cluster_JNetworkBootstrap4WizardModule_exports</title>
<polygon fill="none" stroke="black" points="112,-273 112,-325 296,-325 296,-273 112,-273"/>
</g>
<!-- NgWizardComponent -->
<g id="node1" class="node">
<title>NgWizardComponent</title>
<polygon fill="#ffffb3" stroke="black" points="494.63,-187 355.37,-187 355.37,-151 494.63,-151 494.63,-187"/>
<text text-anchor="middle" x="425" y="-164.8" font-family="Times,serif" font-size="14.00">NgWizardComponent</text>
</g>
<!-- JNetworkBootstrap4WizardModule -->
<g id="node3" class="node">
<title>JNetworkBootstrap4WizardModule</title>
<polygon fill="#8dd3c7" stroke="black" points="312.11,-252 309.11,-256 288.11,-256 285.11,-252 95.89,-252 95.89,-216 312.11,-216 312.11,-252"/>
<text text-anchor="middle" x="204" y="-229.8" font-family="Times,serif" font-size="14.00">JNetworkBootstrap4WizardModule</text>
</g>
<!-- NgWizardComponent&#45;&gt;JNetworkBootstrap4WizardModule -->
<g id="edge1" class="edge">
<title>NgWizardComponent&#45;&gt;JNetworkBootstrap4WizardModule</title>
<path fill="none" stroke="black" d="M355.05,-169C311.37,-169 263.38,-169 263.38,-169 263.38,-169 263.38,-205.89 263.38,-205.89"/>
<polygon fill="black" stroke="black" points="259.88,-205.89 263.38,-215.89 266.88,-205.89 259.88,-205.89"/>
</g>
<!-- NgWizardItemComponent -->
<g id="node2" class="node">
<title>NgWizardItemComponent</title>
<polygon fill="#ffffb3" stroke="black" points="189.79,-187 24.21,-187 24.21,-151 189.79,-151 189.79,-187"/>
<text text-anchor="middle" x="107" y="-164.8" font-family="Times,serif" font-size="14.00">NgWizardItemComponent</text>
</g>
<!-- NgWizardItemComponent&#45;&gt;JNetworkBootstrap4WizardModule -->
<g id="edge3" class="edge">
<title>NgWizardItemComponent&#45;&gt;JNetworkBootstrap4WizardModule</title>
<path fill="none" stroke="black" d="M142.67,-187.11C142.67,-187.11 142.67,-205.99 142.67,-205.99"/>
<polygon fill="black" stroke="black" points="139.17,-205.99 142.67,-215.99 146.17,-205.99 139.17,-205.99"/>
</g>
<!-- NgWizardItemComponent  -->
<g id="node5" class="node">
<title>NgWizardItemComponent </title>
<polygon fill="#fb8072" stroke="black" points="288.29,-317 119.71,-317 119.71,-281 288.29,-281 288.29,-317"/>
<text text-anchor="middle" x="204" y="-294.8" font-family="Times,serif" font-size="14.00">NgWizardItemComponent </text>
</g>
<!-- JNetworkBootstrap4WizardModule&#45;&gt;NgWizardItemComponent  -->
<g id="edge4" class="edge">
<title>JNetworkBootstrap4WizardModule&#45;&gt;NgWizardItemComponent </title>
<path fill="none" stroke="black" stroke-dasharray="5,2" d="M204,-252.11C204,-252.11 204,-270.99 204,-270.99"/>
<polygon fill="black" stroke="black" points="200.5,-270.99 204,-280.99 207.5,-270.99 200.5,-270.99"/>
</g>
<!-- { provide: NG_VALUE_ACCESSOR, multi: true, useExisting: NgWizardComponent } -->
<g id="node4" class="node">
<title>{ provide: NG_VALUE_ACCESSOR, multi: true, useExisting: NgWizardComponent }</title>
<ellipse fill="#fdb462" stroke="black" cx="566" cy="-104" rx="351.59" ry="18"/>
<text text-anchor="middle" x="566" y="-99.8" font-family="Times,serif" font-size="14.00">{ provide: NG_VALUE_ACCESSOR, multi: true, useExisting: NgWizardComponent }</text>
</g>
<!-- { provide: NG_VALUE_ACCESSOR, multi: true, useExisting: NgWizardComponent }&#45;&gt;NgWizardComponent -->
<g id="edge2" class="edge">
<title>{ provide: NG_VALUE_ACCESSOR, multi: true, useExisting: NgWizardComponent }&#45;&gt;NgWizardComponent</title>
<path fill="none" stroke="black" d="M425,-120.74C425,-120.74 425,-140.72 425,-140.72"/>
<polygon fill="black" stroke="black" points="421.5,-140.72 425,-150.72 428.5,-140.72 421.5,-140.72"/>
</g>
</g>
</svg>
