<?xml version="1.0" encoding="UTF-8" standalone="no"?>
<!DOCTYPE svg PUBLIC "-//W3C//DTD SVG 1.1//EN"
 "http://www.w3.org/Graphics/SVG/1.1/DTD/svg11.dtd">
<!-- Generated by graphviz version 2.47.3 (20210619.1520)
 -->
<!-- Title: dependencies Pages: 1 -->
<svg width="450pt" height="174pt"
 viewBox="0.00 0.00 450.00 173.80" xmlns="http://www.w3.org/2000/svg" xmlns:xlink="http://www.w3.org/1999/xlink">
<g id="graph0" class="graph" transform="scale(1 1) rotate(0) translate(4 169.8)">
<title>dependencies</title>
<polygon fill="white" stroke="transparent" points="-4,4 -4,-169.8 446,-169.8 446,4 -4,4"/>
<text text-anchor="middle" x="221" y="-8.2" font-family="sans-serif" font-size="14.00">dependencies</text>
<g id="clust1" class="cluster">
<title>cluster_ContextmenuModule</title>
<polygon fill="none" stroke="black" stroke-dasharray="1,5" points="8,-32.8 8,-157.8 434,-157.8 434,-32.8 8,-32.8"/>
</g>
<g id="clust4" class="cluster">
<title>cluster_ContextmenuModule_imports</title>
<polygon fill="none" stroke="black" points="230,-40.8 230,-92.8 426,-92.8 426,-40.8 230,-40.8"/>
</g>
<g id="clust2" class="cluster">
<title>cluster_ContextmenuModule_declarations</title>
<polygon fill="none" stroke="black" points="16,-40.8 16,-92.8 222,-92.8 222,-40.8 16,-40.8"/>
</g>
<!-- DemoContextmenuComponent -->
<g id="node1" class="node">
<title>DemoContextmenuComponent</title>
<polygon fill="#ffffb3" stroke="black" points="214.48,-84.8 23.52,-84.8 23.52,-48.8 214.48,-48.8 214.48,-84.8"/>
<text text-anchor="middle" x="119" y="-62.6" font-family="Times,serif" font-size="14.00">DemoContextmenuComponent</text>
</g>
<!-- ContextmenuModule -->
<g id="node2" class="node">
<title>ContextmenuModule</title>
<polygon fill="#8dd3c7" stroke="black" points="290.49,-149.8 287.49,-153.8 266.49,-153.8 263.49,-149.8 155.51,-149.8 155.51,-113.8 290.49,-113.8 290.49,-149.8"/>
<text text-anchor="middle" x="223" y="-127.6" font-family="Times,serif" font-size="14.00">ContextmenuModule</text>
</g>
<!-- DemoContextmenuComponent&#45;&gt;ContextmenuModule -->
<g id="edge1" class="edge">
<title>DemoContextmenuComponent&#45;&gt;ContextmenuModule</title>
<path fill="none" stroke="black" d="M185,-84.91C185,-84.91 185,-103.79 185,-103.79"/>
<polygon fill="black" stroke="black" points="181.5,-103.79 185,-113.79 188.5,-103.79 181.5,-103.79"/>
</g>
<!-- ContextmenuRoutingModule -->
<g id="node3" class="node">
<title>ContextmenuRoutingModule</title>
<polygon fill="#8dd3c7" stroke="black" points="418.11,-84.8 415.11,-88.8 394.11,-88.8 391.11,-84.8 237.89,-84.8 237.89,-48.8 418.11,-48.8 418.11,-84.8"/>
<text text-anchor="middle" x="328" y="-62.6" font-family="Times,serif" font-size="14.00">ContextmenuRoutingModule</text>
</g>
<!-- ContextmenuRoutingModule&#45;&gt;ContextmenuModule -->
<g id="edge2" class="edge">
<title>ContextmenuRoutingModule&#45;&gt;ContextmenuModule</title>
<path fill="none" stroke="black" d="M264.22,-84.91C264.22,-84.91 264.22,-103.79 264.22,-103.79"/>
<polygon fill="black" stroke="black" points="260.72,-103.79 264.22,-113.79 267.72,-103.79 260.72,-103.79"/>
</g>
</g>
</svg>
