<?xml version="1.0" encoding="UTF-8" standalone="no"?>
<!DOCTYPE svg PUBLIC "-//W3C//DTD SVG 1.1//EN"
 "http://www.w3.org/Graphics/SVG/1.1/DTD/svg11.dtd">
<!-- Generated by graphviz version 2.47.0 (20210316.0004)
 -->
<!-- Title: dependencies Pages: 1 -->
<svg width="1635pt" height="349pt"
 viewBox="0.00 0.00 1635.00 349.00" xmlns="http://www.w3.org/2000/svg" xmlns:xlink="http://www.w3.org/1999/xlink">
<g id="graph0" class="graph" transform="scale(1 1) rotate(0) translate(4 345)">
<title>dependencies</title>
<polygon fill="white" stroke="transparent" points="-4,4 -4,-345 1631,-345 1631,4 -4,4"/>
<text text-anchor="start" x="792.51" y="-42.4" font-family="Times-12" font-weight="bold" font-size="14.00">Legend</text>
<polygon fill="#ffffb3" stroke="transparent" points="579.5,-10 579.5,-30 599.5,-30 599.5,-10 579.5,-10"/>
<text text-anchor="start" x="603.13" y="-15.4" font-family="Times-12" font-size="14.00"> &#160;Declarations</text>
<polygon fill="#8dd3c7" stroke="transparent" points="692.5,-10 692.5,-30 712.5,-30 712.5,-10 692.5,-10"/>
<text text-anchor="start" x="716.23" y="-15.4" font-family="Times-12" font-size="14.00"> &#160;Module</text>
<polygon fill="#80b1d3" stroke="transparent" points="778.5,-10 778.5,-30 798.5,-30 798.5,-10 778.5,-10"/>
<text text-anchor="start" x="802.28" y="-15.4" font-family="Times-12" font-size="14.00"> &#160;Bootstrap</text>
<polygon fill="#fdb462" stroke="transparent" points="875.5,-10 875.5,-30 895.5,-30 895.5,-10 875.5,-10"/>
<text text-anchor="start" x="899.17" y="-15.4" font-family="Times-12" font-size="14.00"> &#160;Providers</text>
<polygon fill="#fb8072" stroke="transparent" points="971.5,-10 971.5,-30 991.5,-30 991.5,-10 971.5,-10"/>
<text text-anchor="start" x="995.23" y="-15.4" font-family="Times-12" font-size="14.00"> &#160;Exports</text>
<g id="clust1" class="cluster">
<title>cluster_SACBootstrap3ListModule</title>
<polygon fill="none" stroke="black" stroke-dasharray="1,5" points="8,-70 8,-333 1619,-333 1619,-70 8,-70"/>
</g>
<g id="clust2" class="cluster">
<title>cluster_SACBootstrap3ListModule_declarations</title>
<polygon fill="none" stroke="black" points="520,-143 520,-195 1065,-195 1065,-143 520,-143"/>
</g>
<g id="clust3" class="cluster">
<title>cluster_SACBootstrap3ListModule_SacDropdownComponent_providers</title>
<polygon fill="none" stroke="black" points="16,-78 16,-130 1611,-130 1611,-78 16,-78"/>
</g>
<g id="clust6" class="cluster">
<title>cluster_SACBootstrap3ListModule_imports</title>
<polygon fill="none" stroke="black" points="276,-143 276,-195 512,-195 512,-143 276,-143"/>
</g>
<g id="clust7" class="cluster">
<title>cluster_SACBootstrap3ListModule_exports</title>
<polygon fill="none" stroke="black" points="423,-273 423,-325 978,-325 978,-273 423,-273"/>
</g>
<!-- SacDropdownComponent -->
<g id="node1" class="node">
<title>SacDropdownComponent</title>
<polygon fill="#ffffb3" stroke="black" points="1056.92,-187 895.08,-187 895.08,-151 1056.92,-151 1056.92,-187"/>
<text text-anchor="middle" x="976" y="-164.8" font-family="Times,serif" font-size="14.00">SacDropdownComponent</text>
</g>
<!-- SACBootstrap3ListModule -->
<g id="node4" class="node">
<title>SACBootstrap3ListModule</title>
<polygon fill="#8dd3c7" stroke="black" points="776.99,-252 773.99,-256 752.99,-256 749.99,-252 607.01,-252 607.01,-216 776.99,-216 776.99,-252"/>
<text text-anchor="middle" x="692" y="-229.8" font-family="Times,serif" font-size="14.00">SACBootstrap3ListModule</text>
</g>
<!-- SacDropdownComponent&#45;&gt;SACBootstrap3ListModule -->
<g id="edge1" class="edge">
<title>SacDropdownComponent&#45;&gt;SACBootstrap3ListModule</title>
<path fill="none" stroke="black" d="M932.88,-187.02C932.88,-204.37 932.88,-228 932.88,-228 932.88,-228 787.26,-228 787.26,-228"/>
<polygon fill="black" stroke="black" points="787.26,-224.5 777.26,-228 787.26,-231.5 787.26,-224.5"/>
</g>
<!-- SacDropdownOptionDirective -->
<g id="node2" class="node">
<title>SacDropdownOptionDirective</title>
<polygon fill="#ffffb3" stroke="black" points="877.56,-187 690.44,-187 690.44,-151 877.56,-151 877.56,-187"/>
<text text-anchor="middle" x="784" y="-164.8" font-family="Times,serif" font-size="14.00">SacDropdownOptionDirective</text>
</g>
<!-- SacDropdownOptionDirective&#45;&gt;SACBootstrap3ListModule -->
<g id="edge4" class="edge">
<title>SacDropdownOptionDirective&#45;&gt;SACBootstrap3ListModule</title>
<path fill="none" stroke="black" d="M733.73,-187.11C733.73,-187.11 733.73,-205.99 733.73,-205.99"/>
<polygon fill="black" stroke="black" points="730.23,-205.99 733.73,-215.99 737.23,-205.99 730.23,-205.99"/>
</g>
<!-- SacListboxComponent -->
<g id="node3" class="node">
<title>SacListboxComponent</title>
<polygon fill="#ffffb3" stroke="black" points="672.32,-187 527.68,-187 527.68,-151 672.32,-151 672.32,-187"/>
<text text-anchor="middle" x="600" y="-164.8" font-family="Times,serif" font-size="14.00">SacListboxComponent</text>
</g>
<!-- SacListboxComponent&#45;&gt;SACBootstrap3ListModule -->
<g id="edge5" class="edge">
<title>SacListboxComponent&#45;&gt;SACBootstrap3ListModule</title>
<path fill="none" stroke="black" d="M639.58,-187.11C639.58,-187.11 639.58,-205.99 639.58,-205.99"/>
<polygon fill="black" stroke="black" points="636.08,-205.99 639.58,-215.99 643.08,-205.99 636.08,-205.99"/>
</g>
<!-- SacDropdownComponent  -->
<g id="node8" class="node">
<title>SacDropdownComponent </title>
<polygon fill="#fb8072" stroke="black" points="970.42,-317 805.58,-317 805.58,-281 970.42,-281 970.42,-317"/>
<text text-anchor="middle" x="888" y="-294.8" font-family="Times,serif" font-size="14.00">SacDropdownComponent </text>
</g>
<!-- SACBootstrap3ListModule&#45;&gt;SacDropdownComponent  -->
<g id="edge7" class="edge">
<title>SACBootstrap3ListModule&#45;&gt;SacDropdownComponent </title>
<path fill="none" stroke="black" stroke-dasharray="5,2" d="M777.25,-240C810.83,-240 841.53,-240 841.53,-240 841.53,-240 841.53,-270.98 841.53,-270.98"/>
<polygon fill="black" stroke="black" points="838.03,-270.98 841.53,-280.98 845.03,-270.98 838.03,-270.98"/>
</g>
<!-- SacDropdownOptionDirective  -->
<g id="node9" class="node">
<title>SacDropdownOptionDirective </title>
<polygon fill="#fb8072" stroke="black" points="787.06,-317 596.94,-317 596.94,-281 787.06,-281 787.06,-317"/>
<text text-anchor="middle" x="692" y="-294.8" font-family="Times,serif" font-size="14.00">SacDropdownOptionDirective </text>
</g>
<!-- SACBootstrap3ListModule&#45;&gt;SacDropdownOptionDirective  -->
<g id="edge8" class="edge">
<title>SACBootstrap3ListModule&#45;&gt;SacDropdownOptionDirective </title>
<path fill="none" stroke="black" stroke-dasharray="5,2" d="M692,-252.11C692,-252.11 692,-270.99 692,-270.99"/>
<polygon fill="black" stroke="black" points="688.5,-270.99 692,-280.99 695.5,-270.99 688.5,-270.99"/>
</g>
<!-- SacListboxComponent  -->
<g id="node10" class="node">
<title>SacListboxComponent </title>
<polygon fill="#fb8072" stroke="black" points="578.82,-317 431.18,-317 431.18,-281 578.82,-281 578.82,-317"/>
<text text-anchor="middle" x="505" y="-294.8" font-family="Times,serif" font-size="14.00">SacListboxComponent </text>
</g>
<!-- SACBootstrap3ListModule&#45;&gt;SacListboxComponent  -->
<g id="edge9" class="edge">
<title>SACBootstrap3ListModule&#45;&gt;SacListboxComponent </title>
<path fill="none" stroke="black" stroke-dasharray="5,2" d="M606.97,-240C578.28,-240 553.38,-240 553.38,-240 553.38,-240 553.38,-270.98 553.38,-270.98"/>
<polygon fill="black" stroke="black" points="549.88,-270.98 553.38,-280.98 556.88,-270.98 549.88,-270.98"/>
</g>
<!-- { provide: NG_VALUE_ACCESSOR, multi: true, useExisting: SacDropdownComponent } -->
<g id="node5" class="node">
<title>{ provide: NG_VALUE_ACCESSOR, multi: true, useExisting: SacDropdownComponent }</title>
<ellipse fill="#fdb462" stroke="black" cx="1236" cy="-104" rx="366.64" ry="18"/>
<text text-anchor="middle" x="1236" y="-99.8" font-family="Times,serif" font-size="14.00">{ provide: NG_VALUE_ACCESSOR, multi: true, useExisting: SacDropdownComponent }</text>
</g>
<!-- { provide: NG_VALUE_ACCESSOR, multi: true, useExisting: SacDropdownComponent }&#45;&gt;SacDropdownComponent -->
<g id="edge2" class="edge">
<title>{ provide: NG_VALUE_ACCESSOR, multi: true, useExisting: SacDropdownComponent }&#45;&gt;SacDropdownComponent</title>
<path fill="none" stroke="black" d="M1002.9,-118.1C1002.9,-118.1 1002.9,-140.72 1002.9,-140.72"/>
<polygon fill="black" stroke="black" points="999.4,-140.72 1002.9,-150.72 1006.4,-140.72 999.4,-140.72"/>
</g>
<!-- { provide: NG_VALIDATORS, multi: true, useExisting: forwardRef(() =&gt; SacDropdownComponent) } -->
<g id="node6" class="node">
<title>{ provide: NG_VALIDATORS, multi: true, useExisting: forwardRef(() =&gt; SacDropdownComponent) }</title>
<ellipse fill="#fdb462" stroke="black" cx="438" cy="-104" rx="413.78" ry="18"/>
<text text-anchor="middle" x="438" y="-99.8" font-family="Times,serif" font-size="14.00">{ provide: NG_VALIDATORS, multi: true, useExisting: forwardRef(() =&gt; SacDropdownComponent) }</text>
</g>
<!-- { provide: NG_VALIDATORS, multi: true, useExisting: forwardRef(() =&gt; SacDropdownComponent) }&#45;&gt;SacDropdownComponent -->
<g id="edge3" class="edge">
<title>{ provide: NG_VALIDATORS, multi: true, useExisting: forwardRef(() =&gt; SacDropdownComponent) }&#45;&gt;SacDropdownComponent</title>
<path fill="none" stroke="black" d="M771.18,-114.81C771.18,-124.43 771.18,-137 771.18,-137 771.18,-137 949.1,-137 949.1,-137 949.1,-137 949.1,-140.76 949.1,-140.76"/>
<polygon fill="black" stroke="black" points="945.6,-140.76 949.1,-150.76 952.6,-140.76 945.6,-140.76"/>
</g>
<!-- SACCommonListboxOptionModule -->
<g id="node7" class="node">
<title>SACCommonListboxOptionModule</title>
<polygon fill="#8dd3c7" stroke="black" points="504.06,-187 501.06,-191 480.06,-191 477.06,-187 283.94,-187 283.94,-151 504.06,-151 504.06,-187"/>
<text text-anchor="middle" x="394" y="-164.8" font-family="Times,serif" font-size="14.00">SACCommonListboxOptionModule</text>
</g>
<!-- SACCommonListboxOptionModule&#45;&gt;SACBootstrap3ListModule -->
<g id="edge6" class="edge">
<title>SACCommonListboxOptionModule&#45;&gt;SACBootstrap3ListModule</title>
<path fill="none" stroke="black" d="M467.68,-187.02C467.68,-204.37 467.68,-228 467.68,-228 467.68,-228 596.88,-228 596.88,-228"/>
<polygon fill="black" stroke="black" points="596.88,-231.5 606.88,-228 596.88,-224.5 596.88,-231.5"/>
</g>
</g>
</svg>
