<?xml version="1.0" encoding="UTF-8" standalone="no"?>
<!DOCTYPE svg PUBLIC "-//W3C//DTD SVG 1.1//EN"
 "http://www.w3.org/Graphics/SVG/1.1/DTD/svg11.dtd">
<!-- Generated by graphviz version 2.47.0 (20210316.0004)
 -->
<!-- Title: dependencies Pages: 1 -->
<svg width="597pt" height="284pt"
 viewBox="0.00 0.00 597.00 284.00" xmlns="http://www.w3.org/2000/svg" xmlns:xlink="http://www.w3.org/1999/xlink">
<g id="graph0" class="graph" transform="scale(1 1) rotate(0) translate(4 280)">
<title>dependencies</title>
<polygon fill="white" stroke="transparent" points="-4,4 -4,-280 593,-280 593,4 -4,4"/>
<text text-anchor="start" x="273.51" y="-42.4" font-family="Times-12" font-weight="bold" font-size="14.00">Legend</text>
<polygon fill="#ffffb3" stroke="transparent" points="60.5,-10 60.5,-30 80.5,-30 80.5,-10 60.5,-10"/>
<text text-anchor="start" x="84.13" y="-15.4" font-family="Times-12" font-size="14.00"> &#160;Declarations</text>
<polygon fill="#8dd3c7" stroke="transparent" points="173.5,-10 173.5,-30 193.5,-30 193.5,-10 173.5,-10"/>
<text text-anchor="start" x="197.23" y="-15.4" font-family="Times-12" font-size="14.00"> &#160;Module</text>
<polygon fill="#80b1d3" stroke="transparent" points="259.5,-10 259.5,-30 279.5,-30 279.5,-10 259.5,-10"/>
<text text-anchor="start" x="283.28" y="-15.4" font-family="Times-12" font-size="14.00"> &#160;Bootstrap</text>
<polygon fill="#fdb462" stroke="transparent" points="356.5,-10 356.5,-30 376.5,-30 376.5,-10 356.5,-10"/>
<text text-anchor="start" x="380.17" y="-15.4" font-family="Times-12" font-size="14.00"> &#160;Providers</text>
<polygon fill="#fb8072" stroke="transparent" points="452.5,-10 452.5,-30 472.5,-30 472.5,-10 452.5,-10"/>
<text text-anchor="start" x="476.23" y="-15.4" font-family="Times-12" font-size="14.00"> &#160;Exports</text>
<g id="clust1" class="cluster">
<title>cluster_SACBootstrap5WizardModule</title>
<polygon fill="none" stroke="black" stroke-dasharray="1,5" points="8,-70 8,-268 581,-268 581,-70 8,-70"/>
</g>
<g id="clust6" class="cluster">
<title>cluster_SACBootstrap5WizardModule_exports</title>
<polygon fill="none" stroke="black" points="135,-208 135,-260 487,-260 487,-208 135,-208"/>
</g>
<g id="clust2" class="cluster">
<title>cluster_SACBootstrap5WizardModule_declarations</title>
<polygon fill="none" stroke="black" points="228,-78 228,-130 573,-130 573,-78 228,-78"/>
</g>
<g id="clust5" class="cluster">
<title>cluster_SACBootstrap5WizardModule_imports</title>
<polygon fill="none" stroke="black" points="16,-78 16,-130 220,-130 220,-78 16,-78"/>
</g>
<!-- SacWizardComponent -->
<g id="node1" class="node">
<title>SacWizardComponent</title>
<polygon fill="#ffffb3" stroke="black" points="565.24,-122 422.76,-122 422.76,-86 565.24,-86 565.24,-122"/>
<text text-anchor="middle" x="494" y="-99.8" font-family="Times,serif" font-size="14.00">SacWizardComponent</text>
</g>
<!-- SACBootstrap5WizardModule -->
<g id="node3" class="node">
<title>SACBootstrap5WizardModule</title>
<polygon fill="#8dd3c7" stroke="black" points="414.91,-187 411.91,-191 390.91,-191 387.91,-187 225.09,-187 225.09,-151 414.91,-151 414.91,-187"/>
<text text-anchor="middle" x="320" y="-164.8" font-family="Times,serif" font-size="14.00">SACBootstrap5WizardModule</text>
</g>
<!-- SacWizardComponent&#45;&gt;SACBootstrap5WizardModule -->
<g id="edge1" class="edge">
<title>SacWizardComponent&#45;&gt;SACBootstrap5WizardModule</title>
<path fill="none" stroke="black" d="M422.66,-104C414.74,-104 409.45,-104 409.45,-104 409.45,-104 409.45,-140.89 409.45,-140.89"/>
<polygon fill="black" stroke="black" points="405.95,-140.89 409.45,-150.89 412.95,-140.89 405.95,-140.89"/>
</g>
<!-- SacWizardItemComponent -->
<g id="node2" class="node">
<title>SacWizardItemComponent</title>
<polygon fill="#ffffb3" stroke="black" points="404.4,-122 235.6,-122 235.6,-86 404.4,-86 404.4,-122"/>
<text text-anchor="middle" x="320" y="-99.8" font-family="Times,serif" font-size="14.00">SacWizardItemComponent</text>
</g>
<!-- SacWizardItemComponent&#45;&gt;SACBootstrap5WizardModule -->
<g id="edge2" class="edge">
<title>SacWizardItemComponent&#45;&gt;SACBootstrap5WizardModule</title>
<path fill="none" stroke="black" d="M320,-122.11C320,-122.11 320,-140.99 320,-140.99"/>
<polygon fill="black" stroke="black" points="316.5,-140.99 320,-150.99 323.5,-140.99 316.5,-140.99"/>
</g>
<!-- SacWizardComponent  -->
<g id="node5" class="node">
<title>SacWizardComponent </title>
<polygon fill="#fb8072" stroke="black" points="479.24,-252 332.76,-252 332.76,-216 479.24,-216 479.24,-252"/>
<text text-anchor="middle" x="406" y="-229.8" font-family="Times,serif" font-size="14.00">SacWizardComponent </text>
</g>
<!-- SACBootstrap5WizardModule&#45;&gt;SacWizardComponent  -->
<g id="edge4" class="edge">
<title>SACBootstrap5WizardModule&#45;&gt;SacWizardComponent </title>
<path fill="none" stroke="black" stroke-dasharray="5,2" d="M373.79,-187.11C373.79,-187.11 373.79,-205.99 373.79,-205.99"/>
<polygon fill="black" stroke="black" points="370.29,-205.99 373.79,-215.99 377.29,-205.99 370.29,-205.99"/>
</g>
<!-- SacWizardItemComponent  -->
<g id="node6" class="node">
<title>SacWizardItemComponent </title>
<polygon fill="#fb8072" stroke="black" points="314.9,-252 143.1,-252 143.1,-216 314.9,-216 314.9,-252"/>
<text text-anchor="middle" x="229" y="-229.8" font-family="Times,serif" font-size="14.00">SacWizardItemComponent </text>
</g>
<!-- SACBootstrap5WizardModule&#45;&gt;SacWizardItemComponent  -->
<g id="edge5" class="edge">
<title>SACBootstrap5WizardModule&#45;&gt;SacWizardItemComponent </title>
<path fill="none" stroke="black" stroke-dasharray="5,2" d="M270.12,-187.11C270.12,-187.11 270.12,-205.99 270.12,-205.99"/>
<polygon fill="black" stroke="black" points="266.62,-205.99 270.12,-215.99 273.62,-205.99 266.62,-205.99"/>
</g>
<!-- SACBootstrap5LayoutModule -->
<g id="node4" class="node">
<title>SACBootstrap5LayoutModule</title>
<polygon fill="#8dd3c7" stroke="black" points="211.87,-122 208.87,-126 187.87,-126 184.87,-122 24.13,-122 24.13,-86 211.87,-86 211.87,-122"/>
<text text-anchor="middle" x="118" y="-99.8" font-family="Times,serif" font-size="14.00">SACBootstrap5LayoutModule</text>
</g>
<!-- SACBootstrap5LayoutModule&#45;&gt;SACBootstrap5WizardModule -->
<g id="edge3" class="edge">
<title>SACBootstrap5LayoutModule&#45;&gt;SACBootstrap5WizardModule</title>
<path fill="none" stroke="black" d="M211.96,-104C223.07,-104 230.55,-104 230.55,-104 230.55,-104 230.55,-140.89 230.55,-140.89"/>
<polygon fill="black" stroke="black" points="227.05,-140.89 230.55,-150.89 234.05,-140.89 227.05,-140.89"/>
</g>
</g>
</svg>
