<?xml version="1.0" encoding="UTF-8" standalone="no"?>
<!DOCTYPE svg PUBLIC "-//W3C//DTD SVG 1.1//EN"
 "http://www.w3.org/Graphics/SVG/1.1/DTD/svg11.dtd">
<!-- Generated by graphviz version 2.47.0 (20210316.0004)
 -->
<!-- Title: dependencies Pages: 1 -->
<svg width="597pt" height="284pt"
 viewBox="0.00 0.00 597.00 284.00" xmlns="http://www.w3.org/2000/svg" xmlns:xlink="http://www.w3.org/1999/xlink">
<g id="graph0" class="graph" transform="scale(1 1) rotate(0) translate(4 280)">
<title>dependencies</title>
<polygon fill="white" stroke="transparent" points="-4,4 -4,-280 593,-280 593,4 -4,4"/>
<text text-anchor="start" x="273.51" y="-42.4" font-family="Times-12" font-weight="bold" font-size="14.00">Legend</text>
<polygon fill="#ffffb3" stroke="transparent" points="60.5,-10 60.5,-30 80.5,-30 80.5,-10 60.5,-10"/>
<text text-anchor="start" x="84.13" y="-15.4" font-family="Times-12" font-size="14.00"> &#160;Declarations</text>
<polygon fill="#8dd3c7" stroke="transparent" points="173.5,-10 173.5,-30 193.5,-30 193.5,-10 173.5,-10"/>
<text text-anchor="start" x="197.23" y="-15.4" font-family="Times-12" font-size="14.00"> &#160;Module</text>
<polygon fill="#80b1d3" stroke="transparent" points="259.5,-10 259.5,-30 279.5,-30 279.5,-10 259.5,-10"/>
<text text-anchor="start" x="283.28" y="-15.4" font-family="Times-12" font-size="14.00"> &#160;Bootstrap</text>
<polygon fill="#fdb462" stroke="transparent" points="356.5,-10 356.5,-30 376.5,-30 376.5,-10 356.5,-10"/>
<text text-anchor="start" x="380.17" y="-15.4" font-family="Times-12" font-size="14.00"> &#160;Providers</text>
<polygon fill="#fb8072" stroke="transparent" points="452.5,-10 452.5,-30 472.5,-30 472.5,-10 452.5,-10"/>
<text text-anchor="start" x="476.23" y="-15.4" font-family="Times-12" font-size="14.00"> &#160;Exports</text>
<g id="clust1" class="cluster">
<title>cluster_SACBootstrap5WizardModule</title>
<polygon fill="none" stroke="black" stroke-dasharray="1,5" points="8,-70 8,-268 581,-268 581,-70 8,-70"/>
</g>
<g id="clust6" class="cluster">
<title>cluster_SACBootstrap5WizardModule_exports</title>
<polygon fill="none" stroke="black" points="102,-208 102,-260 454,-260 454,-208 102,-208"/>
</g>
<g id="clust5" class="cluster">
<title>cluster_SACBootstrap5WizardModule_imports</title>
<polygon fill="none" stroke="black" points="369,-78 369,-130 573,-130 573,-78 369,-78"/>
</g>
<g id="clust2" class="cluster">
<title>cluster_SACBootstrap5WizardModule_declarations</title>
<polygon fill="none" stroke="black" points="16,-78 16,-130 361,-130 361,-78 16,-78"/>
</g>
<!-- SacWizardComponent -->
<g id="node1" class="node">
<title>SacWizardComponent</title>
<polygon fill="#ffffb3" stroke="black" points="353.24,-122 210.76,-122 210.76,-86 353.24,-86 353.24,-122"/>
<text text-anchor="middle" x="282" y="-99.8" font-family="Times,serif" font-size="14.00">SacWizardComponent</text>
</g>
<!-- SACBootstrap5WizardModule -->
<g id="node3" class="node">
<title>SACBootstrap5WizardModule</title>
<polygon fill="#8dd3c7" stroke="black" points="376.91,-187 373.91,-191 352.91,-191 349.91,-187 187.09,-187 187.09,-151 376.91,-151 376.91,-187"/>
<text text-anchor="middle" x="282" y="-164.8" font-family="Times,serif" font-size="14.00">SACBootstrap5WizardModule</text>
</g>
<!-- SacWizardComponent&#45;&gt;SACBootstrap5WizardModule -->
<g id="edge1" class="edge">
<title>SacWizardComponent&#45;&gt;SACBootstrap5WizardModule</title>
<path fill="none" stroke="black" d="M282,-122.11C282,-122.11 282,-140.99 282,-140.99"/>
<polygon fill="black" stroke="black" points="278.5,-140.99 282,-150.99 285.5,-140.99 278.5,-140.99"/>
</g>
<!-- SacWizardItemComponent -->
<g id="node2" class="node">
<title>SacWizardItemComponent</title>
<polygon fill="#ffffb3" stroke="black" points="192.4,-122 23.6,-122 23.6,-86 192.4,-86 192.4,-122"/>
<text text-anchor="middle" x="108" y="-99.8" font-family="Times,serif" font-size="14.00">SacWizardItemComponent</text>
</g>
<!-- SacWizardItemComponent&#45;&gt;SACBootstrap5WizardModule -->
<g id="edge2" class="edge">
<title>SacWizardItemComponent&#45;&gt;SACBootstrap5WizardModule</title>
<path fill="none" stroke="black" d="M192.46,-104C197.99,-104 201.41,-104 201.41,-104 201.41,-104 201.41,-140.89 201.41,-140.89"/>
<polygon fill="black" stroke="black" points="197.91,-140.89 201.41,-150.89 204.91,-140.89 197.91,-140.89"/>
</g>
<!-- SacWizardComponent  -->
<g id="node5" class="node">
<title>SacWizardComponent </title>
<polygon fill="#fb8072" stroke="black" points="446.24,-252 299.76,-252 299.76,-216 446.24,-216 446.24,-252"/>
<text text-anchor="middle" x="373" y="-229.8" font-family="Times,serif" font-size="14.00">SacWizardComponent </text>
</g>
<!-- SACBootstrap5WizardModule&#45;&gt;SacWizardComponent  -->
<g id="edge4" class="edge">
<title>SACBootstrap5WizardModule&#45;&gt;SacWizardComponent </title>
<path fill="none" stroke="black" stroke-dasharray="5,2" d="M338.29,-187.11C338.29,-187.11 338.29,-205.99 338.29,-205.99"/>
<polygon fill="black" stroke="black" points="334.79,-205.99 338.29,-215.99 341.79,-205.99 334.79,-205.99"/>
</g>
<!-- SacWizardItemComponent  -->
<g id="node6" class="node">
<title>SacWizardItemComponent </title>
<polygon fill="#fb8072" stroke="black" points="281.9,-252 110.1,-252 110.1,-216 281.9,-216 281.9,-252"/>
<text text-anchor="middle" x="196" y="-229.8" font-family="Times,serif" font-size="14.00">SacWizardItemComponent </text>
</g>
<!-- SACBootstrap5WizardModule&#45;&gt;SacWizardItemComponent  -->
<g id="edge5" class="edge">
<title>SACBootstrap5WizardModule&#45;&gt;SacWizardItemComponent </title>
<path fill="none" stroke="black" stroke-dasharray="5,2" d="M234.62,-187.11C234.62,-187.11 234.62,-205.99 234.62,-205.99"/>
<polygon fill="black" stroke="black" points="231.12,-205.99 234.62,-215.99 238.12,-205.99 231.12,-205.99"/>
</g>
<!-- SACBootstrap5LayoutModule -->
<g id="node4" class="node">
<title>SACBootstrap5LayoutModule</title>
<polygon fill="#8dd3c7" stroke="black" points="564.87,-122 561.87,-126 540.87,-126 537.87,-122 377.13,-122 377.13,-86 564.87,-86 564.87,-122"/>
<text text-anchor="middle" x="471" y="-99.8" font-family="Times,serif" font-size="14.00">SACBootstrap5LayoutModule</text>
</g>
<!-- SACBootstrap5LayoutModule&#45;&gt;SACBootstrap5WizardModule -->
<g id="edge3" class="edge">
<title>SACBootstrap5LayoutModule&#45;&gt;SACBootstrap5WizardModule</title>
<path fill="none" stroke="black" d="M376.78,-104C369.58,-104 365.04,-104 365.04,-104 365.04,-104 365.04,-140.89 365.04,-140.89"/>
<polygon fill="black" stroke="black" points="361.54,-140.89 365.04,-150.89 368.54,-140.89 361.54,-140.89"/>
</g>
</g>
</svg>
