<?xml version="1.0" encoding="UTF-8" standalone="no"?>
<!DOCTYPE svg PUBLIC "-//W3C//DTD SVG 1.1//EN"
 "http://www.w3.org/Graphics/SVG/1.1/DTD/svg11.dtd">
<!-- Generated by graphviz version 2.46.0 (20210119.1425)
 -->
<!-- Title: dependencies Pages: 1 -->
<svg width="1785pt" height="349pt"
 viewBox="0.00 0.00 1785.00 349.00" xmlns="http://www.w3.org/2000/svg" xmlns:xlink="http://www.w3.org/1999/xlink">
<g id="graph0" class="graph" transform="scale(1 1) rotate(0) translate(4 345)">
<title>dependencies</title>
<polygon fill="white" stroke="transparent" points="-4,4 -4,-345 1781,-345 1781,4 -4,4"/>
<text text-anchor="start" x="867.51" y="-42.4" font-family="sans-serif" font-weight="bold" font-size="14.00">Legend</text>
<polygon fill="#ffffb3" stroke="transparent" points="654.5,-10 654.5,-30 674.5,-30 674.5,-10 654.5,-10"/>
<text text-anchor="start" x="678.13" y="-15.4" font-family="sans-serif" font-size="14.00"> &#160;Declarations</text>
<polygon fill="#8dd3c7" stroke="transparent" points="767.5,-10 767.5,-30 787.5,-30 787.5,-10 767.5,-10"/>
<text text-anchor="start" x="791.23" y="-15.4" font-family="sans-serif" font-size="14.00"> &#160;Module</text>
<polygon fill="#80b1d3" stroke="transparent" points="853.5,-10 853.5,-30 873.5,-30 873.5,-10 853.5,-10"/>
<text text-anchor="start" x="877.28" y="-15.4" font-family="sans-serif" font-size="14.00"> &#160;Bootstrap</text>
<polygon fill="#fdb462" stroke="transparent" points="950.5,-10 950.5,-30 970.5,-30 970.5,-10 950.5,-10"/>
<text text-anchor="start" x="974.17" y="-15.4" font-family="sans-serif" font-size="14.00"> &#160;Providers</text>
<polygon fill="#fb8072" stroke="transparent" points="1046.5,-10 1046.5,-30 1066.5,-30 1066.5,-10 1046.5,-10"/>
<text text-anchor="start" x="1070.23" y="-15.4" font-family="sans-serif" font-size="14.00"> &#160;Exports</text>
<g id="clust1" class="cluster">
<title>cluster_JNetworkBootstrap3StaticLabelModule</title>
<polygon fill="none" stroke="black" stroke-dasharray="1,5" points="8,-70 8,-333 1769,-333 1769,-70 8,-70"/>
</g>
<g id="clust2" class="cluster">
<title>cluster_JNetworkBootstrap3StaticLabelModule_declarations</title>
<polygon fill="none" stroke="black" points="654,-143 654,-195 1066,-195 1066,-143 654,-143"/>
</g>
<g id="clust3" class="cluster">
<title>cluster_JNetworkBootstrap3StaticLabelModule_NgStaticFormContainerComponent_providers</title>
<polygon fill="none" stroke="black" points="16,-78 16,-130 1761,-130 1761,-78 16,-78"/>
</g>
<g id="clust5" class="cluster">
<title>cluster_JNetworkBootstrap3StaticLabelModule_imports</title>
<polygon fill="none" stroke="black" points="414,-143 414,-195 646,-195 646,-143 414,-143"/>
</g>
<g id="clust6" class="cluster">
<title>cluster_JNetworkBootstrap3StaticLabelModule_exports</title>
<polygon fill="none" stroke="black" points="546,-273 546,-325 966,-325 966,-273 546,-273"/>
</g>
<!-- NgStaticFormContainerComponent -->
<g id="node1" class="node">
<title>NgStaticFormContainerComponent</title>
<polygon fill="#ffffb3" stroke="black" points="1057.86,-187 842.14,-187 842.14,-151 1057.86,-151 1057.86,-187"/>
<text text-anchor="middle" x="950" y="-164.8" font-family="Times,serif" font-size="14.00">NgStaticFormContainerComponent</text>
</g>
<!-- JNetworkBootstrap3StaticLabelModule -->
<g id="node3" class="node">
<title>JNetworkBootstrap3StaticLabelModule</title>
<polygon fill="#8dd3c7" stroke="black" points="862.67,-252 859.67,-256 838.67,-256 835.67,-252 623.33,-252 623.33,-216 862.67,-216 862.67,-252"/>
<text text-anchor="middle" x="743" y="-229.8" font-family="Times,serif" font-size="14.00">JNetworkBootstrap3StaticLabelModule</text>
</g>
<!-- NgStaticFormContainerComponent&#45;&gt;JNetworkBootstrap3StaticLabelModule -->
<g id="edge1" class="edge">
<title>NgStaticFormContainerComponent&#45;&gt;JNetworkBootstrap3StaticLabelModule</title>
<path fill="none" stroke="black" d="M852.33,-187.11C852.33,-187.11 852.33,-205.99 852.33,-205.99"/>
<polygon fill="black" stroke="black" points="848.83,-205.99 852.33,-215.99 855.83,-205.99 848.83,-205.99"/>
</g>
<!-- NgStaticLabelComponent -->
<g id="node2" class="node">
<title>NgStaticLabelComponent</title>
<polygon fill="#ffffb3" stroke="black" points="824.2,-187 661.8,-187 661.8,-151 824.2,-151 824.2,-187"/>
<text text-anchor="middle" x="743" y="-164.8" font-family="Times,serif" font-size="14.00">NgStaticLabelComponent</text>
</g>
<!-- NgStaticLabelComponent&#45;&gt;JNetworkBootstrap3StaticLabelModule -->
<g id="edge4" class="edge">
<title>NgStaticLabelComponent&#45;&gt;JNetworkBootstrap3StaticLabelModule</title>
<path fill="none" stroke="black" d="M743,-187.11C743,-187.11 743,-205.99 743,-205.99"/>
<polygon fill="black" stroke="black" points="739.5,-205.99 743,-215.99 746.5,-205.99 739.5,-205.99"/>
</g>
<!-- NgStaticFormContainerComponent  -->
<g id="node7" class="node">
<title>NgStaticFormContainerComponent </title>
<polygon fill="#fb8072" stroke="black" points="957.86,-317 738.14,-317 738.14,-281 957.86,-281 957.86,-317"/>
<text text-anchor="middle" x="848" y="-294.8" font-family="Times,serif" font-size="14.00">NgStaticFormContainerComponent </text>
</g>
<!-- JNetworkBootstrap3StaticLabelModule&#45;&gt;NgStaticFormContainerComponent  -->
<g id="edge6" class="edge">
<title>JNetworkBootstrap3StaticLabelModule&#45;&gt;NgStaticFormContainerComponent </title>
<path fill="none" stroke="black" stroke-dasharray="5,2" d="M800.45,-252.11C800.45,-252.11 800.45,-270.99 800.45,-270.99"/>
<polygon fill="black" stroke="black" points="796.95,-270.99 800.45,-280.99 803.95,-270.99 796.95,-270.99"/>
</g>
<!-- NgStaticLabelComponent  -->
<g id="node8" class="node">
<title>NgStaticLabelComponent </title>
<polygon fill="#fb8072" stroke="black" points="719.7,-317 554.3,-317 554.3,-281 719.7,-281 719.7,-317"/>
<text text-anchor="middle" x="637" y="-294.8" font-family="Times,serif" font-size="14.00">NgStaticLabelComponent </text>
</g>
<!-- JNetworkBootstrap3StaticLabelModule&#45;&gt;NgStaticLabelComponent  -->
<g id="edge7" class="edge">
<title>JNetworkBootstrap3StaticLabelModule&#45;&gt;NgStaticLabelComponent </title>
<path fill="none" stroke="black" stroke-dasharray="5,2" d="M671.63,-252.11C671.63,-252.11 671.63,-270.99 671.63,-270.99"/>
<polygon fill="black" stroke="black" points="668.13,-270.99 671.63,-280.99 675.13,-270.99 668.13,-270.99"/>
</g>
<!-- { provide: NG_VALUE_ACCESSOR, multi: true, useExisting: NgStaticFormContainerComponent } -->
<g id="node4" class="node">
<title>{ provide: NG_VALUE_ACCESSOR, multi: true, useExisting: NgStaticFormContainerComponent }</title>
<ellipse fill="#fdb462" stroke="black" cx="1349" cy="-104" rx="404.25" ry="18"/>
<text text-anchor="middle" x="1349" y="-99.8" font-family="Times,serif" font-size="14.00">{ provide: NG_VALUE_ACCESSOR, multi: true, useExisting: NgStaticFormContainerComponent }</text>
</g>
<!-- { provide: NG_VALUE_ACCESSOR, multi: true, useExisting: NgStaticFormContainerComponent }&#45;&gt;NgStaticFormContainerComponent -->
<g id="edge2" class="edge">
<title>{ provide: NG_VALUE_ACCESSOR, multi: true, useExisting: NgStaticFormContainerComponent }&#45;&gt;NgStaticFormContainerComponent</title>
<path fill="none" stroke="black" d="M1001.4,-113.31C1001.4,-113.31 1001.4,-140.85 1001.4,-140.85"/>
<polygon fill="black" stroke="black" points="997.9,-140.85 1001.4,-150.85 1004.9,-140.85 997.9,-140.85"/>
</g>
<!-- { provide: NG_VALIDATORS, multi: true, useExisting: forwardRef(() =&gt; NgStaticFormContainerComponent) } -->
<g id="node5" class="node">
<title>{ provide: NG_VALIDATORS, multi: true, useExisting: forwardRef(() =&gt; NgStaticFormContainerComponent) }</title>
<ellipse fill="#fdb462" stroke="black" cx="475" cy="-104" rx="451.39" ry="18"/>
<text text-anchor="middle" x="475" y="-99.8" font-family="Times,serif" font-size="14.00">{ provide: NG_VALIDATORS, multi: true, useExisting: forwardRef(() =&gt; NgStaticFormContainerComponent) }</text>
</g>
<!-- { provide: NG_VALIDATORS, multi: true, useExisting: forwardRef(() =&gt; NgStaticFormContainerComponent) }&#45;&gt;NgStaticFormContainerComponent -->
<g id="edge3" class="edge">
<title>{ provide: NG_VALIDATORS, multi: true, useExisting: forwardRef(() =&gt; NgStaticFormContainerComponent) }&#45;&gt;NgStaticFormContainerComponent</title>
<path fill="none" stroke="black" d="M884.26,-111.71C884.26,-111.71 884.26,-140.99 884.26,-140.99"/>
<polygon fill="black" stroke="black" points="880.76,-140.99 884.26,-150.99 887.76,-140.99 880.76,-140.99"/>
</g>
<!-- JNetworkBootstrap3TooltipModule -->
<g id="node6" class="node">
<title>JNetworkBootstrap3TooltipModule</title>
<polygon fill="#8dd3c7" stroke="black" points="638.14,-187 635.14,-191 614.14,-191 611.14,-187 421.86,-187 421.86,-151 638.14,-151 638.14,-187"/>
<text text-anchor="middle" x="530" y="-164.8" font-family="Times,serif" font-size="14.00">JNetworkBootstrap3TooltipModule</text>
</g>
<!-- JNetworkBootstrap3TooltipModule&#45;&gt;JNetworkBootstrap3StaticLabelModule -->
<g id="edge5" class="edge">
<title>JNetworkBootstrap3TooltipModule&#45;&gt;JNetworkBootstrap3StaticLabelModule</title>
<path fill="none" stroke="black" d="M630.87,-187.11C630.87,-187.11 630.87,-205.99 630.87,-205.99"/>
<polygon fill="black" stroke="black" points="627.37,-205.99 630.87,-215.99 634.37,-205.99 627.37,-205.99"/>
</g>
</g>
</svg>
