<?xml version="1.0" encoding="UTF-8" standalone="no"?>
<!DOCTYPE svg PUBLIC "-//W3C//DTD SVG 1.1//EN"
 "http://www.w3.org/Graphics/SVG/1.1/DTD/svg11.dtd">
<!-- Generated by graphviz version 2.47.0 (20210316.0004)
 -->
<!-- Title: dependencies Pages: 1 -->
<svg width="2230pt" height="396pt"
 viewBox="0.00 0.00 2230.00 395.59" xmlns="http://www.w3.org/2000/svg" xmlns:xlink="http://www.w3.org/1999/xlink">
<g id="graph0" class="graph" transform="scale(1 1) rotate(0) translate(4 391.59)">
<title>dependencies</title>
<polygon fill="white" stroke="transparent" points="-4,4 -4,-391.59 2226,-391.59 2226,4 -4,4"/>
<text text-anchor="start" x="1090.01" y="-42.4" font-family="Times-12" font-weight="bold" font-size="14.00">Legend</text>
<polygon fill="#ffffb3" stroke="transparent" points="877,-10 877,-30 897,-30 897,-10 877,-10"/>
<text text-anchor="start" x="900.63" y="-15.4" font-family="Times-12" font-size="14.00"> &#160;Declarations</text>
<polygon fill="#8dd3c7" stroke="transparent" points="990,-10 990,-30 1010,-30 1010,-10 990,-10"/>
<text text-anchor="start" x="1013.73" y="-15.4" font-family="Times-12" font-size="14.00"> &#160;Module</text>
<polygon fill="#80b1d3" stroke="transparent" points="1076,-10 1076,-30 1096,-30 1096,-10 1076,-10"/>
<text text-anchor="start" x="1099.78" y="-15.4" font-family="Times-12" font-size="14.00"> &#160;Bootstrap</text>
<polygon fill="#fdb462" stroke="transparent" points="1173,-10 1173,-30 1193,-30 1193,-10 1173,-10"/>
<text text-anchor="start" x="1196.67" y="-15.4" font-family="Times-12" font-size="14.00"> &#160;Providers</text>
<polygon fill="#fb8072" stroke="transparent" points="1269,-10 1269,-30 1289,-30 1289,-10 1269,-10"/>
<text text-anchor="start" x="1292.73" y="-15.4" font-family="Times-12" font-size="14.00"> &#160;Exports</text>
<g id="clust1" class="cluster">
<title>cluster_SACBootstrap4StaticLabelModule</title>
<polygon fill="none" stroke="black" stroke-dasharray="1,5" points="8,-70 8,-379.59 2214,-379.59 2214,-70 8,-70"/>
</g>
<g id="clust6" class="cluster">
<title>cluster_SACBootstrap4StaticLabelModule_exports</title>
<polygon fill="none" stroke="black" points="121,-319.59 121,-371.59 546,-371.59 546,-319.59 121,-319.59"/>
</g>
<g id="clust3" class="cluster">
<title>cluster_SACBootstrap4StaticLabelModule_SacStaticFormContainerComponent_providers</title>
<polygon fill="none" stroke="black" points="418,-78 418,-241.59 2206,-241.59 2206,-78 418,-78"/>
</g>
<g id="clust2" class="cluster">
<title>cluster_SACBootstrap4StaticLabelModule_declarations</title>
<polygon fill="none" stroke="black" points="228,-189.59 228,-241.59 410,-241.59 410,-189.59 228,-189.59"/>
</g>
<g id="clust5" class="cluster">
<title>cluster_SACBootstrap4StaticLabelModule_imports</title>
<polygon fill="none" stroke="black" points="16,-189.59 16,-241.59 220,-241.59 220,-189.59 16,-189.59"/>
</g>
<!-- SacStaticFormContainerComponent -->
<g id="node1" class="node">
<title>SacStaticFormContainerComponent</title>
<polygon fill="#ffffb3" stroke="black" points="998.47,-233.59 779.53,-233.59 779.53,-197.59 998.47,-197.59 998.47,-233.59"/>
<text text-anchor="middle" x="889" y="-211.39" font-family="Times,serif" font-size="14.00">SacStaticFormContainerComponent</text>
</g>
<!-- SACBootstrap4StaticLabelModule -->
<g id="node3" class="node">
<title>SACBootstrap4StaticLabelModule</title>
<polygon fill="#8dd3c7" stroke="black" points="424.97,-298.59 421.97,-302.59 400.97,-302.59 397.97,-298.59 213.03,-298.59 213.03,-262.59 424.97,-262.59 424.97,-298.59"/>
<text text-anchor="middle" x="319" y="-276.39" font-family="Times,serif" font-size="14.00">SACBootstrap4StaticLabelModule</text>
</g>
<!-- SacStaticFormContainerComponent&#45;&gt;SACBootstrap4StaticLabelModule -->
<g id="edge1" class="edge">
<title>SacStaticFormContainerComponent&#45;&gt;SACBootstrap4StaticLabelModule</title>
<path fill="none" stroke="black" d="M779.27,-215.59C638.79,-215.59 413.32,-215.59 413.32,-215.59 413.32,-215.59 413.32,-252.48 413.32,-252.48"/>
<polygon fill="black" stroke="black" points="409.82,-252.48 413.32,-262.48 416.82,-252.48 409.82,-252.48"/>
</g>
<!-- SacStaticLabelComponent -->
<g id="node2" class="node">
<title>SacStaticLabelComponent</title>
<polygon fill="#ffffb3" stroke="black" points="401.8,-233.59 236.2,-233.59 236.2,-197.59 401.8,-197.59 401.8,-233.59"/>
<text text-anchor="middle" x="319" y="-211.39" font-family="Times,serif" font-size="14.00">SacStaticLabelComponent</text>
</g>
<!-- SacStaticLabelComponent&#45;&gt;SACBootstrap4StaticLabelModule -->
<g id="edge4" class="edge">
<title>SacStaticLabelComponent&#45;&gt;SACBootstrap4StaticLabelModule</title>
<path fill="none" stroke="black" d="M319,-233.7C319,-233.7 319,-252.58 319,-252.58"/>
<polygon fill="black" stroke="black" points="315.5,-252.58 319,-262.58 322.5,-252.58 315.5,-252.58"/>
</g>
<!-- SacStaticFormContainerComponent  -->
<g id="node7" class="node">
<title>SacStaticFormContainerComponent </title>
<polygon fill="#fb8072" stroke="black" points="538.47,-363.59 315.53,-363.59 315.53,-327.59 538.47,-327.59 538.47,-363.59"/>
<text text-anchor="middle" x="427" y="-341.39" font-family="Times,serif" font-size="14.00">SacStaticFormContainerComponent </text>
</g>
<!-- SACBootstrap4StaticLabelModule&#45;&gt;SacStaticFormContainerComponent  -->
<g id="edge6" class="edge">
<title>SACBootstrap4StaticLabelModule&#45;&gt;SacStaticFormContainerComponent </title>
<path fill="none" stroke="black" stroke-dasharray="5,2" d="M370.38,-298.7C370.38,-298.7 370.38,-317.58 370.38,-317.58"/>
<polygon fill="black" stroke="black" points="366.88,-317.58 370.38,-327.58 373.88,-317.58 366.88,-317.58"/>
</g>
<!-- SacStaticLabelComponent  -->
<g id="node8" class="node">
<title>SacStaticLabelComponent </title>
<polygon fill="#fb8072" stroke="black" points="297.3,-363.59 128.7,-363.59 128.7,-327.59 297.3,-327.59 297.3,-363.59"/>
<text text-anchor="middle" x="213" y="-341.39" font-family="Times,serif" font-size="14.00">SacStaticLabelComponent </text>
</g>
<!-- SACBootstrap4StaticLabelModule&#45;&gt;SacStaticLabelComponent  -->
<g id="edge7" class="edge">
<title>SACBootstrap4StaticLabelModule&#45;&gt;SacStaticLabelComponent </title>
<path fill="none" stroke="black" stroke-dasharray="5,2" d="M255.21,-298.7C255.21,-298.7 255.21,-317.58 255.21,-317.58"/>
<polygon fill="black" stroke="black" points="251.71,-317.58 255.21,-327.58 258.71,-317.58 251.71,-317.58"/>
</g>
<!-- {
 &#160;&#160;&#160;provide: NG_VALUE_ACCESSOR, multi: true, useExisting: SacStaticFormContainerComponent,
} -->
<g id="node4" class="node">
<title>{
 &#160;&#160;&#160;provide: NG_VALUE_ACCESSOR, multi: true, useExisting: SacStaticFormContainerComponent,
}</title>
<ellipse fill="#fdb462" stroke="black" cx="1784" cy="-127.3" rx="414.29" ry="41.09"/>
<text text-anchor="middle" x="1784" y="-139.9" font-family="Times,serif" font-size="14.00">{</text>
<text text-anchor="middle" x="1784" y="-123.1" font-family="Times,serif" font-size="14.00"> &#160;&#160;&#160;provide: NG_VALUE_ACCESSOR, multi: true, useExisting: SacStaticFormContainerComponent,</text>
<text text-anchor="middle" x="1784" y="-106.3" font-family="Times,serif" font-size="14.00">}</text>
</g>
<!-- {
 &#160;&#160;&#160;provide: NG_VALUE_ACCESSOR, multi: true, useExisting: SacStaticFormContainerComponent,
}&#45;&gt;SacStaticFormContainerComponent -->
<g id="edge2" class="edge">
<title>{
 &#160;&#160;&#160;provide: NG_VALUE_ACCESSOR, multi: true, useExisting: SacStaticFormContainerComponent,
}&#45;&gt;SacStaticFormContainerComponent</title>
<path fill="none" stroke="black" d="M1784,-168.6C1784,-191.58 1784,-215.59 1784,-215.59 1784,-215.59 1008.74,-215.59 1008.74,-215.59"/>
<polygon fill="black" stroke="black" points="1008.74,-212.09 998.74,-215.59 1008.74,-219.09 1008.74,-212.09"/>
</g>
<!-- {
 &#160;&#160;&#160;provide: NG_VALIDATORS, multi: true, useExisting: forwardRef(() =&gt; SacStaticFormContainerComponent),
} -->
<g id="node5" class="node">
<title>{
 &#160;&#160;&#160;provide: NG_VALIDATORS, multi: true, useExisting: forwardRef(() =&gt; SacStaticFormContainerComponent),
}</title>
<ellipse fill="#fdb462" stroke="black" cx="889" cy="-127.3" rx="462.8" ry="41.09"/>
<text text-anchor="middle" x="889" y="-139.9" font-family="Times,serif" font-size="14.00">{</text>
<text text-anchor="middle" x="889" y="-123.1" font-family="Times,serif" font-size="14.00"> &#160;&#160;&#160;provide: NG_VALIDATORS, multi: true, useExisting: forwardRef(() =&gt; SacStaticFormContainerComponent),</text>
<text text-anchor="middle" x="889" y="-106.3" font-family="Times,serif" font-size="14.00">}</text>
</g>
<!-- {
 &#160;&#160;&#160;provide: NG_VALIDATORS, multi: true, useExisting: forwardRef(() =&gt; SacStaticFormContainerComponent),
}&#45;&gt;SacStaticFormContainerComponent -->
<g id="edge3" class="edge">
<title>{
 &#160;&#160;&#160;provide: NG_VALIDATORS, multi: true, useExisting: forwardRef(() =&gt; SacStaticFormContainerComponent),
}&#45;&gt;SacStaticFormContainerComponent</title>
<path fill="none" stroke="black" d="M889,-168.6C889,-168.6 889,-187.26 889,-187.26"/>
<polygon fill="black" stroke="black" points="885.5,-187.26 889,-197.26 892.5,-187.26 885.5,-187.26"/>
</g>
<!-- SACBootstrap4LayoutModule -->
<g id="node6" class="node">
<title>SACBootstrap4LayoutModule</title>
<polygon fill="#8dd3c7" stroke="black" points="211.87,-233.59 208.87,-237.59 187.87,-237.59 184.87,-233.59 24.13,-233.59 24.13,-197.59 211.87,-197.59 211.87,-233.59"/>
<text text-anchor="middle" x="118" y="-211.39" font-family="Times,serif" font-size="14.00">SACBootstrap4LayoutModule</text>
</g>
<!-- SACBootstrap4LayoutModule&#45;&gt;SACBootstrap4StaticLabelModule -->
<g id="edge5" class="edge">
<title>SACBootstrap4LayoutModule&#45;&gt;SACBootstrap4StaticLabelModule</title>
<path fill="none" stroke="black" d="M212.03,-215.59C219.76,-215.59 224.68,-215.59 224.68,-215.59 224.68,-215.59 224.68,-252.48 224.68,-252.48"/>
<polygon fill="black" stroke="black" points="221.18,-252.48 224.68,-262.48 228.18,-252.48 221.18,-252.48"/>
</g>
</g>
</svg>
