<?xml version="1.0" encoding="UTF-8" standalone="no"?>
<!DOCTYPE svg PUBLIC "-//W3C//DTD SVG 1.1//EN"
 "http://www.w3.org/Graphics/SVG/1.1/DTD/svg11.dtd">
<!-- Generated by graphviz version 2.47.0 (20210316.0004)
 -->
<!-- Title: dependencies Pages: 1 -->
<svg width="1828pt" height="396pt"
 viewBox="0.00 0.00 1828.00 395.59" xmlns="http://www.w3.org/2000/svg" xmlns:xlink="http://www.w3.org/1999/xlink">
<g id="graph0" class="graph" transform="scale(1 1) rotate(0) translate(4 391.59)">
<title>dependencies</title>
<polygon fill="white" stroke="transparent" points="-4,4 -4,-391.59 1824,-391.59 1824,4 -4,4"/>
<text text-anchor="start" x="889.01" y="-42.4" font-family="Times-12" font-weight="bold" font-size="14.00">Legend</text>
<polygon fill="#ffffb3" stroke="transparent" points="676,-10 676,-30 696,-30 696,-10 676,-10"/>
<text text-anchor="start" x="699.63" y="-15.4" font-family="Times-12" font-size="14.00"> &#160;Declarations</text>
<polygon fill="#8dd3c7" stroke="transparent" points="789,-10 789,-30 809,-30 809,-10 789,-10"/>
<text text-anchor="start" x="812.73" y="-15.4" font-family="Times-12" font-size="14.00"> &#160;Module</text>
<polygon fill="#80b1d3" stroke="transparent" points="875,-10 875,-30 895,-30 895,-10 875,-10"/>
<text text-anchor="start" x="898.78" y="-15.4" font-family="Times-12" font-size="14.00"> &#160;Bootstrap</text>
<polygon fill="#fdb462" stroke="transparent" points="972,-10 972,-30 992,-30 992,-10 972,-10"/>
<text text-anchor="start" x="995.67" y="-15.4" font-family="Times-12" font-size="14.00"> &#160;Providers</text>
<polygon fill="#fb8072" stroke="transparent" points="1068,-10 1068,-30 1088,-30 1088,-10 1068,-10"/>
<text text-anchor="start" x="1091.73" y="-15.4" font-family="Times-12" font-size="14.00"> &#160;Exports</text>
<g id="clust1" class="cluster">
<title>cluster_SACBootstrap4StaticLabelModule</title>
<polygon fill="none" stroke="black" stroke-dasharray="1,5" points="8,-70 8,-379.59 1812,-379.59 1812,-70 8,-70"/>
</g>
<g id="clust6" class="cluster">
<title>cluster_SACBootstrap4StaticLabelModule_exports</title>
<polygon fill="none" stroke="black" points="735,-319.59 735,-371.59 1160,-371.59 1160,-319.59 735,-319.59"/>
</g>
<g id="clust5" class="cluster">
<title>cluster_SACBootstrap4StaticLabelModule_imports</title>
<polygon fill="none" stroke="black" points="1059,-189.59 1059,-241.59 1263,-241.59 1263,-189.59 1059,-189.59"/>
</g>
<g id="clust2" class="cluster">
<title>cluster_SACBootstrap4StaticLabelModule_declarations</title>
<polygon fill="none" stroke="black" points="633,-189.59 633,-241.59 1051,-241.59 1051,-189.59 633,-189.59"/>
</g>
<g id="clust3" class="cluster">
<title>cluster_SACBootstrap4StaticLabelModule_SacStaticFormContainerComponent_providers</title>
<polygon fill="none" stroke="black" points="16,-78 16,-176.59 1804,-176.59 1804,-78 16,-78"/>
</g>
<!-- SacStaticFormContainerComponent -->
<g id="node1" class="node">
<title>SacStaticFormContainerComponent</title>
<polygon fill="#ffffb3" stroke="black" points="1043.47,-233.59 824.53,-233.59 824.53,-197.59 1043.47,-197.59 1043.47,-233.59"/>
<text text-anchor="middle" x="934" y="-211.39" font-family="Times,serif" font-size="14.00">SacStaticFormContainerComponent</text>
</g>
<!-- SACBootstrap4StaticLabelModule -->
<g id="node3" class="node">
<title>SACBootstrap4StaticLabelModule</title>
<polygon fill="#8dd3c7" stroke="black" points="1039.97,-298.59 1036.97,-302.59 1015.97,-302.59 1012.97,-298.59 828.03,-298.59 828.03,-262.59 1039.97,-262.59 1039.97,-298.59"/>
<text text-anchor="middle" x="934" y="-276.39" font-family="Times,serif" font-size="14.00">SACBootstrap4StaticLabelModule</text>
</g>
<!-- SacStaticFormContainerComponent&#45;&gt;SACBootstrap4StaticLabelModule -->
<g id="edge1" class="edge">
<title>SacStaticFormContainerComponent&#45;&gt;SACBootstrap4StaticLabelModule</title>
<path fill="none" stroke="black" d="M934,-233.7C934,-233.7 934,-252.58 934,-252.58"/>
<polygon fill="black" stroke="black" points="930.5,-252.58 934,-262.58 937.5,-252.58 930.5,-252.58"/>
</g>
<!-- SacStaticLabelComponent -->
<g id="node2" class="node">
<title>SacStaticLabelComponent</title>
<polygon fill="#ffffb3" stroke="black" points="806.8,-233.59 641.2,-233.59 641.2,-197.59 806.8,-197.59 806.8,-233.59"/>
<text text-anchor="middle" x="724" y="-211.39" font-family="Times,serif" font-size="14.00">SacStaticLabelComponent</text>
</g>
<!-- SacStaticLabelComponent&#45;&gt;SACBootstrap4StaticLabelModule -->
<g id="edge4" class="edge">
<title>SacStaticLabelComponent&#45;&gt;SACBootstrap4StaticLabelModule</title>
<path fill="none" stroke="black" d="M774.62,-233.7C774.62,-252.93 774.62,-280.59 774.62,-280.59 774.62,-280.59 817.69,-280.59 817.69,-280.59"/>
<polygon fill="black" stroke="black" points="817.69,-284.09 827.69,-280.59 817.69,-277.09 817.69,-284.09"/>
</g>
<!-- SacStaticFormContainerComponent  -->
<g id="node7" class="node">
<title>SacStaticFormContainerComponent </title>
<polygon fill="#fb8072" stroke="black" points="1152.47,-363.59 929.53,-363.59 929.53,-327.59 1152.47,-327.59 1152.47,-363.59"/>
<text text-anchor="middle" x="1041" y="-341.39" font-family="Times,serif" font-size="14.00">SacStaticFormContainerComponent </text>
</g>
<!-- SACBootstrap4StaticLabelModule&#45;&gt;SacStaticFormContainerComponent  -->
<g id="edge6" class="edge">
<title>SACBootstrap4StaticLabelModule&#45;&gt;SacStaticFormContainerComponent </title>
<path fill="none" stroke="black" stroke-dasharray="5,2" d="M984.88,-298.7C984.88,-298.7 984.88,-317.58 984.88,-317.58"/>
<polygon fill="black" stroke="black" points="981.38,-317.58 984.88,-327.58 988.38,-317.58 981.38,-317.58"/>
</g>
<!-- SacStaticLabelComponent  -->
<g id="node8" class="node">
<title>SacStaticLabelComponent </title>
<polygon fill="#fb8072" stroke="black" points="911.3,-363.59 742.7,-363.59 742.7,-327.59 911.3,-327.59 911.3,-363.59"/>
<text text-anchor="middle" x="827" y="-341.39" font-family="Times,serif" font-size="14.00">SacStaticLabelComponent </text>
</g>
<!-- SACBootstrap4StaticLabelModule&#45;&gt;SacStaticLabelComponent  -->
<g id="edge7" class="edge">
<title>SACBootstrap4StaticLabelModule&#45;&gt;SacStaticLabelComponent </title>
<path fill="none" stroke="black" stroke-dasharray="5,2" d="M869.71,-298.7C869.71,-298.7 869.71,-317.58 869.71,-317.58"/>
<polygon fill="black" stroke="black" points="866.21,-317.58 869.71,-327.58 873.21,-317.58 866.21,-317.58"/>
</g>
<!-- {
 &#160;&#160;&#160;provide: NG_VALUE_ACCESSOR, multi: true, useExisting: SacStaticFormContainerComponent,
} -->
<g id="node4" class="node">
<title>{
 &#160;&#160;&#160;provide: NG_VALUE_ACCESSOR, multi: true, useExisting: SacStaticFormContainerComponent,
}</title>
<ellipse fill="#fdb462" stroke="black" cx="1382" cy="-127.3" rx="414.29" ry="41.09"/>
<text text-anchor="middle" x="1382" y="-139.9" font-family="Times,serif" font-size="14.00">{</text>
<text text-anchor="middle" x="1382" y="-123.1" font-family="Times,serif" font-size="14.00"> &#160;&#160;&#160;provide: NG_VALUE_ACCESSOR, multi: true, useExisting: SacStaticFormContainerComponent,</text>
<text text-anchor="middle" x="1382" y="-106.3" font-family="Times,serif" font-size="14.00">}</text>
</g>
<!-- {
 &#160;&#160;&#160;provide: NG_VALUE_ACCESSOR, multi: true, useExisting: SacStaticFormContainerComponent,
}&#45;&gt;SacStaticFormContainerComponent -->
<g id="edge2" class="edge">
<title>{
 &#160;&#160;&#160;provide: NG_VALUE_ACCESSOR, multi: true, useExisting: SacStaticFormContainerComponent,
}&#45;&gt;SacStaticFormContainerComponent</title>
<path fill="none" stroke="black" d="M1005.55,-144.74C1005.55,-144.74 1005.55,-187.58 1005.55,-187.58"/>
<polygon fill="black" stroke="black" points="1002.05,-187.58 1005.55,-197.58 1009.05,-187.58 1002.05,-187.58"/>
</g>
<!-- {
 &#160;&#160;&#160;provide: NG_VALIDATORS, multi: true, useExisting: forwardRef(() =&gt; SacStaticFormContainerComponent),
} -->
<g id="node5" class="node">
<title>{
 &#160;&#160;&#160;provide: NG_VALIDATORS, multi: true, useExisting: forwardRef(() =&gt; SacStaticFormContainerComponent),
}</title>
<ellipse fill="#fdb462" stroke="black" cx="487" cy="-127.3" rx="462.8" ry="41.09"/>
<text text-anchor="middle" x="487" y="-139.9" font-family="Times,serif" font-size="14.00">{</text>
<text text-anchor="middle" x="487" y="-123.1" font-family="Times,serif" font-size="14.00"> &#160;&#160;&#160;provide: NG_VALIDATORS, multi: true, useExisting: forwardRef(() =&gt; SacStaticFormContainerComponent),</text>
<text text-anchor="middle" x="487" y="-106.3" font-family="Times,serif" font-size="14.00">}</text>
</g>
<!-- {
 &#160;&#160;&#160;provide: NG_VALIDATORS, multi: true, useExisting: forwardRef(() =&gt; SacStaticFormContainerComponent),
}&#45;&gt;SacStaticFormContainerComponent -->
<g id="edge3" class="edge">
<title>{
 &#160;&#160;&#160;provide: NG_VALIDATORS, multi: true, useExisting: forwardRef(() =&gt; SacStaticFormContainerComponent),
}&#45;&gt;SacStaticFormContainerComponent</title>
<path fill="none" stroke="black" d="M887.21,-148.22C887.21,-148.22 887.21,-187.5 887.21,-187.5"/>
<polygon fill="black" stroke="black" points="883.71,-187.5 887.21,-197.5 890.71,-187.5 883.71,-187.5"/>
</g>
<!-- SACBootstrap4LayoutModule -->
<g id="node6" class="node">
<title>SACBootstrap4LayoutModule</title>
<polygon fill="#8dd3c7" stroke="black" points="1254.87,-233.59 1251.87,-237.59 1230.87,-237.59 1227.87,-233.59 1067.13,-233.59 1067.13,-197.59 1254.87,-197.59 1254.87,-233.59"/>
<text text-anchor="middle" x="1161" y="-211.39" font-family="Times,serif" font-size="14.00">SACBootstrap4LayoutModule</text>
</g>
<!-- SACBootstrap4LayoutModule&#45;&gt;SACBootstrap4StaticLabelModule -->
<g id="edge5" class="edge">
<title>SACBootstrap4LayoutModule&#45;&gt;SACBootstrap4StaticLabelModule</title>
<path fill="none" stroke="black" d="M1109.65,-233.7C1109.65,-252.93 1109.65,-280.59 1109.65,-280.59 1109.65,-280.59 1049.98,-280.59 1049.98,-280.59"/>
<polygon fill="black" stroke="black" points="1049.98,-277.09 1039.98,-280.59 1049.98,-284.09 1049.98,-277.09"/>
</g>
</g>
</svg>
