<?xml version="1.0" encoding="UTF-8" standalone="no"?>
<!DOCTYPE svg PUBLIC "-//W3C//DTD SVG 1.1//EN"
 "http://www.w3.org/Graphics/SVG/1.1/DTD/svg11.dtd">
<!-- Generated by graphviz version 2.46.0 (20210119.1425)
 -->
<!-- Title: dependencies Pages: 1 -->
<svg width="3174pt" height="276pt"
 viewBox="0.00 0.00 3174.00 276.00" xmlns="http://www.w3.org/2000/svg" xmlns:xlink="http://www.w3.org/1999/xlink">
<g id="graph0" class="graph" transform="scale(1 1) rotate(0) translate(4 272)">
<title>dependencies</title>
<polygon fill="white" stroke="transparent" points="-4,4 -4,-272 3170,-272 3170,4 -4,4"/>
<text text-anchor="start" x="1562.01" y="-42.4" font-family="sans-serif" font-weight="bold" font-size="14.00">Legend</text>
<polygon fill="#ffffb3" stroke="transparent" points="1349,-10 1349,-30 1369,-30 1369,-10 1349,-10"/>
<text text-anchor="start" x="1372.63" y="-15.4" font-family="sans-serif" font-size="14.00"> &#160;Declarations</text>
<polygon fill="#8dd3c7" stroke="transparent" points="1462,-10 1462,-30 1482,-30 1482,-10 1462,-10"/>
<text text-anchor="start" x="1485.73" y="-15.4" font-family="sans-serif" font-size="14.00"> &#160;Module</text>
<polygon fill="#80b1d3" stroke="transparent" points="1548,-10 1548,-30 1568,-30 1568,-10 1548,-10"/>
<text text-anchor="start" x="1571.78" y="-15.4" font-family="sans-serif" font-size="14.00"> &#160;Bootstrap</text>
<polygon fill="#fdb462" stroke="transparent" points="1645,-10 1645,-30 1665,-30 1665,-10 1645,-10"/>
<text text-anchor="start" x="1668.67" y="-15.4" font-family="sans-serif" font-size="14.00"> &#160;Providers</text>
<polygon fill="#fb8072" stroke="transparent" points="1741,-10 1741,-30 1761,-30 1761,-10 1741,-10"/>
<text text-anchor="start" x="1764.73" y="-15.4" font-family="sans-serif" font-size="14.00"> &#160;Exports</text>
<g id="clust1" class="cluster">
<title>cluster_JNetworkBootstrap4ListModule</title>
<polygon fill="none" stroke="black" stroke-dasharray="1,5" points="8,-70 8,-260 3158,-260 3158,-70 8,-70"/>
</g>
<g id="clust2" class="cluster">
<title>cluster_JNetworkBootstrap4ListModule_declarations</title>
<polygon fill="none" stroke="black" points="1352,-143 1352,-195 1888,-195 1888,-143 1352,-143"/>
</g>
<g id="clust5" class="cluster">
<title>cluster_JNetworkBootstrap4ListModule_NgListboxComponent_providers</title>
<polygon fill="none" stroke="black" points="1610,-78 1610,-130 3150,-130 3150,-78 1610,-78"/>
</g>
<g id="clust3" class="cluster">
<title>cluster_JNetworkBootstrap4ListModule_NgDropdownComponent_providers</title>
<polygon fill="none" stroke="black" points="16,-78 16,-130 1602,-130 1602,-78 16,-78"/>
</g>
<!-- NgDropdownComponent -->
<g id="node1" class="node">
<title>NgDropdownComponent</title>
<polygon fill="#ffffb3" stroke="black" points="1518.31,-187 1359.69,-187 1359.69,-151 1518.31,-151 1518.31,-187"/>
<text text-anchor="middle" x="1439" y="-164.8" font-family="Times,serif" font-size="14.00">NgDropdownComponent</text>
</g>
<!-- JNetworkBootstrap4ListModule -->
<g id="node4" class="node">
<title>JNetworkBootstrap4ListModule</title>
<polygon fill="#8dd3c7" stroke="black" points="1726.69,-252 1723.69,-256 1702.69,-256 1699.69,-252 1529.31,-252 1529.31,-216 1726.69,-216 1726.69,-252"/>
<text text-anchor="middle" x="1628" y="-229.8" font-family="Times,serif" font-size="14.00">JNetworkBootstrap4ListModule</text>
</g>
<!-- NgDropdownComponent&#45;&gt;JNetworkBootstrap4ListModule -->
<g id="edge1" class="edge">
<title>NgDropdownComponent&#45;&gt;JNetworkBootstrap4ListModule</title>
<path fill="none" stroke="black" d="M1439,-187.11C1439,-206.34 1439,-234 1439,-234 1439,-234 1519.35,-234 1519.35,-234"/>
<polygon fill="black" stroke="black" points="1519.35,-237.5 1529.35,-234 1519.35,-230.5 1519.35,-237.5"/>
</g>
<!-- NgDropdownOptionDirective -->
<g id="node2" class="node">
<title>NgDropdownOptionDirective</title>
<polygon fill="#ffffb3" stroke="black" points="1719.95,-187 1536.05,-187 1536.05,-151 1719.95,-151 1719.95,-187"/>
<text text-anchor="middle" x="1628" y="-164.8" font-family="Times,serif" font-size="14.00">NgDropdownOptionDirective</text>
</g>
<!-- NgDropdownOptionDirective&#45;&gt;JNetworkBootstrap4ListModule -->
<g id="edge4" class="edge">
<title>NgDropdownOptionDirective&#45;&gt;JNetworkBootstrap4ListModule</title>
<path fill="none" stroke="black" d="M1628,-187.11C1628,-187.11 1628,-205.99 1628,-205.99"/>
<polygon fill="black" stroke="black" points="1624.5,-205.99 1628,-215.99 1631.5,-205.99 1624.5,-205.99"/>
</g>
<!-- NgListboxComponent -->
<g id="node3" class="node">
<title>NgListboxComponent</title>
<polygon fill="#ffffb3" stroke="black" points="1879.72,-187 1738.28,-187 1738.28,-151 1879.72,-151 1879.72,-187"/>
<text text-anchor="middle" x="1809" y="-164.8" font-family="Times,serif" font-size="14.00">NgListboxComponent</text>
</g>
<!-- NgListboxComponent&#45;&gt;JNetworkBootstrap4ListModule -->
<g id="edge5" class="edge">
<title>NgListboxComponent&#45;&gt;JNetworkBootstrap4ListModule</title>
<path fill="none" stroke="black" d="M1809,-187.11C1809,-206.34 1809,-234 1809,-234 1809,-234 1736.71,-234 1736.71,-234"/>
<polygon fill="black" stroke="black" points="1736.71,-230.5 1726.71,-234 1736.71,-237.5 1736.71,-230.5"/>
</g>
<!-- { provide: NG_VALUE_ACCESSOR, multi: true, useExisting: NgDropdownComponent } -->
<g id="node5" class="node">
<title>{ provide: NG_VALUE_ACCESSOR, multi: true, useExisting: NgDropdownComponent }</title>
<ellipse fill="#fdb462" stroke="black" cx="1230" cy="-104" rx="364.36" ry="18"/>
<text text-anchor="middle" x="1230" y="-99.8" font-family="Times,serif" font-size="14.00">{ provide: NG_VALUE_ACCESSOR, multi: true, useExisting: NgDropdownComponent }</text>
</g>
<!-- { provide: NG_VALUE_ACCESSOR, multi: true, useExisting: NgDropdownComponent }&#45;&gt;NgDropdownComponent -->
<g id="edge2" class="edge">
<title>{ provide: NG_VALUE_ACCESSOR, multi: true, useExisting: NgDropdownComponent }&#45;&gt;NgDropdownComponent</title>
<path fill="none" stroke="black" d="M1439,-118.75C1439,-118.75 1439,-140.59 1439,-140.59"/>
<polygon fill="black" stroke="black" points="1435.5,-140.59 1439,-150.59 1442.5,-140.59 1435.5,-140.59"/>
</g>
<!-- { provide: NG_VALIDATORS, multi: true, useExisting: forwardRef(() =&gt; NgDropdownComponent) } -->
<g id="node6" class="node">
<title>{ provide: NG_VALIDATORS, multi: true, useExisting: forwardRef(() =&gt; NgDropdownComponent) }</title>
<ellipse fill="#fdb462" stroke="black" cx="436" cy="-104" rx="411.99" ry="18"/>
<text text-anchor="middle" x="436" y="-99.8" font-family="Times,serif" font-size="14.00">{ provide: NG_VALIDATORS, multi: true, useExisting: forwardRef(() =&gt; NgDropdownComponent) }</text>
</g>
<!-- { provide: NG_VALIDATORS, multi: true, useExisting: forwardRef(() =&gt; NgDropdownComponent) }&#45;&gt;NgDropdownComponent -->
<g id="edge3" class="edge">
<title>{ provide: NG_VALIDATORS, multi: true, useExisting: forwardRef(() =&gt; NgDropdownComponent) }&#45;&gt;NgDropdownComponent</title>
<path fill="none" stroke="black" d="M436,-122.11C436,-141.34 436,-169 436,-169 436,-169 1349.46,-169 1349.46,-169"/>
<polygon fill="black" stroke="black" points="1349.46,-172.5 1359.46,-169 1349.46,-165.5 1349.46,-172.5"/>
</g>
<!-- { provide: NG_VALUE_ACCESSOR, multi: true, useExisting: NgListboxComponent } -->
<g id="node7" class="node">
<title>{ provide: NG_VALUE_ACCESSOR, multi: true, useExisting: NgListboxComponent }</title>
<ellipse fill="#fdb462" stroke="black" cx="2789" cy="-104" rx="352.77" ry="18"/>
<text text-anchor="middle" x="2789" y="-99.8" font-family="Times,serif" font-size="14.00">{ provide: NG_VALUE_ACCESSOR, multi: true, useExisting: NgListboxComponent }</text>
</g>
<!-- { provide: NG_VALUE_ACCESSOR, multi: true, useExisting: NgListboxComponent }&#45;&gt;NgListboxComponent -->
<g id="edge6" class="edge">
<title>{ provide: NG_VALUE_ACCESSOR, multi: true, useExisting: NgListboxComponent }&#45;&gt;NgListboxComponent</title>
<path fill="none" stroke="black" d="M2789,-122.11C2789,-141.34 2789,-169 2789,-169 2789,-169 1889.87,-169 1889.87,-169"/>
<polygon fill="black" stroke="black" points="1889.87,-165.5 1879.87,-169 1889.87,-172.5 1889.87,-165.5"/>
</g>
<!-- { provide: NG_VALIDATORS, multi: true, useExisting: forwardRef(() =&gt; NgListboxComponent) } -->
<g id="node8" class="node">
<title>{ provide: NG_VALIDATORS, multi: true, useExisting: forwardRef(() =&gt; NgListboxComponent) }</title>
<ellipse fill="#fdb462" stroke="black" cx="2018" cy="-104" rx="399.91" ry="18"/>
<text text-anchor="middle" x="2018" y="-99.8" font-family="Times,serif" font-size="14.00">{ provide: NG_VALIDATORS, multi: true, useExisting: forwardRef(() =&gt; NgListboxComponent) }</text>
</g>
<!-- { provide: NG_VALIDATORS, multi: true, useExisting: forwardRef(() =&gt; NgListboxComponent) }&#45;&gt;NgListboxComponent -->
<g id="edge7" class="edge">
<title>{ provide: NG_VALIDATORS, multi: true, useExisting: forwardRef(() =&gt; NgListboxComponent) }&#45;&gt;NgListboxComponent</title>
<path fill="none" stroke="black" d="M1809,-119.4C1809,-119.4 1809,-140.94 1809,-140.94"/>
<polygon fill="black" stroke="black" points="1805.5,-140.94 1809,-150.94 1812.5,-140.94 1805.5,-140.94"/>
</g>
</g>
</svg>
