<?xml version="1.0" encoding="UTF-8" standalone="no"?>
<!DOCTYPE svg PUBLIC "-//W3C//DTD SVG 1.1//EN"
 "http://www.w3.org/Graphics/SVG/1.1/DTD/svg11.dtd">
<!-- Generated by graphviz version 2.47.0 (20210316.0004)
 -->
<!-- Title: dependencies Pages: 1 -->
<svg width="504pt" height="284pt"
 viewBox="0.00 0.00 504.00 284.00" xmlns="http://www.w3.org/2000/svg" xmlns:xlink="http://www.w3.org/1999/xlink">
<g id="graph0" class="graph" transform="scale(1 1) rotate(0) translate(4 280)">
<title>dependencies</title>
<polygon fill="white" stroke="transparent" points="-4,4 -4,-280 500,-280 500,4 -4,4"/>
<text text-anchor="start" x="227.01" y="-42.4" font-family="Times-12" font-weight="bold" font-size="14.00">Legend</text>
<polygon fill="#ffffb3" stroke="transparent" points="14,-10 14,-30 34,-30 34,-10 14,-10"/>
<text text-anchor="start" x="37.63" y="-15.4" font-family="Times-12" font-size="14.00"> &#160;Declarations</text>
<polygon fill="#8dd3c7" stroke="transparent" points="127,-10 127,-30 147,-30 147,-10 127,-10"/>
<text text-anchor="start" x="150.73" y="-15.4" font-family="Times-12" font-size="14.00"> &#160;Module</text>
<polygon fill="#80b1d3" stroke="transparent" points="213,-10 213,-30 233,-30 233,-10 213,-10"/>
<text text-anchor="start" x="236.78" y="-15.4" font-family="Times-12" font-size="14.00"> &#160;Bootstrap</text>
<polygon fill="#fdb462" stroke="transparent" points="310,-10 310,-30 330,-30 330,-10 310,-10"/>
<text text-anchor="start" x="333.67" y="-15.4" font-family="Times-12" font-size="14.00"> &#160;Providers</text>
<polygon fill="#fb8072" stroke="transparent" points="406,-10 406,-30 426,-30 426,-10 406,-10"/>
<text text-anchor="start" x="429.73" y="-15.4" font-family="Times-12" font-size="14.00"> &#160;Exports</text>
<g id="clust1" class="cluster">
<title>cluster_SACBootstrap5TabsModule</title>
<polygon fill="none" stroke="black" stroke-dasharray="1,5" points="83.5,-70 83.5,-268 412.5,-268 412.5,-70 83.5,-70"/>
</g>
<g id="clust4" class="cluster">
<title>cluster_SACBootstrap5TabsModule_exports</title>
<polygon fill="none" stroke="black" points="91.5,-208 91.5,-260 404.5,-260 404.5,-208 91.5,-208"/>
</g>
<g id="clust3" class="cluster">
<title>cluster_SACBootstrap5TabsModule_imports</title>
<polygon fill="none" stroke="black" points="94.5,-78 94.5,-130 400.5,-130 400.5,-78 94.5,-78"/>
</g>
<!-- SacTabComponent -->
<g id="node1" class="node">
<title>SacTabComponent</title>
<polygon fill="#8dd3c7" stroke="black" points="392.31,-122 389.31,-126 368.31,-126 365.31,-122 268.69,-122 268.69,-86 392.31,-86 392.31,-122"/>
<text text-anchor="middle" x="330.5" y="-99.8" font-family="Times,serif" font-size="14.00">SacTabComponent</text>
</g>
<!-- SACBootstrap5TabsModule -->
<g id="node3" class="node">
<title>SACBootstrap5TabsModule</title>
<polygon fill="#8dd3c7" stroke="black" points="335.43,-187 332.43,-191 311.43,-191 308.43,-187 159.57,-187 159.57,-151 335.43,-151 335.43,-187"/>
<text text-anchor="middle" x="247.5" y="-164.8" font-family="Times,serif" font-size="14.00">SACBootstrap5TabsModule</text>
</g>
<!-- SacTabComponent&#45;&gt;SACBootstrap5TabsModule -->
<g id="edge1" class="edge">
<title>SacTabComponent&#45;&gt;SACBootstrap5TabsModule</title>
<path fill="none" stroke="black" d="M302.03,-122.11C302.03,-122.11 302.03,-140.99 302.03,-140.99"/>
<polygon fill="black" stroke="black" points="298.53,-140.99 302.03,-150.99 305.53,-140.99 298.53,-140.99"/>
</g>
<!-- SacTabItemComponent -->
<g id="node2" class="node">
<title>SacTabItemComponent</title>
<polygon fill="#8dd3c7" stroke="black" points="250.97,-122 247.97,-126 226.97,-126 223.97,-122 102.03,-122 102.03,-86 250.97,-86 250.97,-122"/>
<text text-anchor="middle" x="176.5" y="-99.8" font-family="Times,serif" font-size="14.00">SacTabItemComponent</text>
</g>
<!-- SacTabItemComponent&#45;&gt;SACBootstrap5TabsModule -->
<g id="edge2" class="edge">
<title>SacTabItemComponent&#45;&gt;SACBootstrap5TabsModule</title>
<path fill="none" stroke="black" d="M205.39,-122.11C205.39,-122.11 205.39,-140.99 205.39,-140.99"/>
<polygon fill="black" stroke="black" points="201.89,-140.99 205.39,-150.99 208.89,-140.99 201.89,-140.99"/>
</g>
<!-- SacTabComponent  -->
<g id="node4" class="node">
<title>SacTabComponent </title>
<polygon fill="#fb8072" stroke="black" points="396.81,-252 270.19,-252 270.19,-216 396.81,-216 396.81,-252"/>
<text text-anchor="middle" x="333.5" y="-229.8" font-family="Times,serif" font-size="14.00">SacTabComponent </text>
</g>
<!-- SACBootstrap5TabsModule&#45;&gt;SacTabComponent  -->
<g id="edge3" class="edge">
<title>SACBootstrap5TabsModule&#45;&gt;SacTabComponent </title>
<path fill="none" stroke="black" stroke-dasharray="5,2" d="M302.65,-187.11C302.65,-187.11 302.65,-205.99 302.65,-205.99"/>
<polygon fill="black" stroke="black" points="299.15,-205.99 302.65,-215.99 306.15,-205.99 299.15,-205.99"/>
</g>
<!-- SacTabItemComponent  -->
<g id="node5" class="node">
<title>SacTabItemComponent </title>
<polygon fill="#fb8072" stroke="black" points="251.97,-252 99.03,-252 99.03,-216 251.97,-216 251.97,-252"/>
<text text-anchor="middle" x="175.5" y="-229.8" font-family="Times,serif" font-size="14.00">SacTabItemComponent </text>
</g>
<!-- SACBootstrap5TabsModule&#45;&gt;SacTabItemComponent  -->
<g id="edge4" class="edge">
<title>SACBootstrap5TabsModule&#45;&gt;SacTabItemComponent </title>
<path fill="none" stroke="black" stroke-dasharray="5,2" d="M205.76,-187.11C205.76,-187.11 205.76,-205.99 205.76,-205.99"/>
<polygon fill="black" stroke="black" points="202.26,-205.99 205.76,-215.99 209.26,-205.99 202.26,-205.99"/>
</g>
</g>
</svg>
