<?xml version="1.0" encoding="UTF-8" standalone="no"?>
<!DOCTYPE svg PUBLIC "-//W3C//DTD SVG 1.1//EN"
 "http://www.w3.org/Graphics/SVG/1.1/DTD/svg11.dtd">
<!-- Generated by graphviz version 2.40.1 (20161225.0304)
 -->
<!-- Title: dependencies Pages: 1 -->
<svg width="733pt" height="284pt"
 viewBox="0.00 0.00 733.00 284.00" xmlns="http://www.w3.org/2000/svg" xmlns:xlink="http://www.w3.org/1999/xlink">
<g id="graph0" class="graph" transform="scale(1 1) rotate(0) translate(4 280)">
<title>dependencies</title>
<polygon fill="#ffffff" stroke="transparent" points="-4,4 -4,-280 729,-280 729,4 -4,4"/>
<text text-anchor="start" x="341.5091" y="-42.4" font-family="sans-serif" font-weight="bold" font-size="14.00" fill="#000000">Legend</text>
<polygon fill="#ffffb3" stroke="transparent" points="128.5,-10 128.5,-30 148.5,-30 148.5,-10 128.5,-10"/>
<text text-anchor="start" x="152.129" y="-15.4" font-family="sans-serif" font-size="14.00" fill="#000000"> &#160;Declarations</text>
<polygon fill="#8dd3c7" stroke="transparent" points="241.5,-10 241.5,-30 261.5,-30 261.5,-10 241.5,-10"/>
<text text-anchor="start" x="265.2251" y="-15.4" font-family="sans-serif" font-size="14.00" fill="#000000"> &#160;Module</text>
<polygon fill="#80b1d3" stroke="transparent" points="327.5,-10 327.5,-30 347.5,-30 347.5,-10 327.5,-10"/>
<text text-anchor="start" x="351.2812" y="-15.4" font-family="sans-serif" font-size="14.00" fill="#000000"> &#160;Bootstrap</text>
<polygon fill="#fdb462" stroke="transparent" points="424.5,-10 424.5,-30 444.5,-30 444.5,-10 424.5,-10"/>
<text text-anchor="start" x="448.1732" y="-15.4" font-family="sans-serif" font-size="14.00" fill="#000000"> &#160;Providers</text>
<polygon fill="#fb8072" stroke="transparent" points="520.5,-10 520.5,-30 540.5,-30 540.5,-10 520.5,-10"/>
<text text-anchor="start" x="544.2258" y="-15.4" font-family="sans-serif" font-size="14.00" fill="#000000"> &#160;Exports</text>
<g id="clust1" class="cluster">
<title>cluster_jNetworkBootstrap4GridModule</title>
<polygon fill="none" stroke="#000000" stroke-dasharray="1,5" points="8,-70 8,-268 717,-268 717,-70 8,-70"/>
</g>
<g id="clust2" class="cluster">
<title>cluster_jNetworkBootstrap4GridModule_declarations</title>
<polygon fill="none" stroke="#000000" points="28,-78 28,-130 701,-130 701,-78 28,-78"/>
</g>
<g id="clust10" class="cluster">
<title>cluster_jNetworkBootstrap4GridModule_exports</title>
<polygon fill="none" stroke="#000000" points="16,-208 16,-260 709,-260 709,-208 16,-208"/>
</g>
<!-- NgGrid -->
<g id="node1" class="node">
<title>NgGrid</title>
<polygon fill="#ffffb3" stroke="#000000" points="693.2649,-122 634.7351,-122 634.7351,-86 693.2649,-86 693.2649,-122"/>
<text text-anchor="middle" x="664" y="-99.8" font-family="Times,serif" font-size="14.00" fill="#000000">NgGrid</text>
</g>
<!-- jNetworkBootstrap4GridModule -->
<g id="node7" class="node">
<title>jNetworkBootstrap4GridModule</title>
<polygon fill="#8dd3c7" stroke="#000000" points="412.5154,-187 409.5154,-191 388.5154,-191 385.5154,-187 213.4846,-187 213.4846,-151 412.5154,-151 412.5154,-187"/>
<text text-anchor="middle" x="313" y="-164.8" font-family="Times,serif" font-size="14.00" fill="#000000">jNetworkBootstrap4GridModule</text>
</g>
<!-- NgGrid&#45;&gt;jNetworkBootstrap4GridModule -->
<g id="edge1" class="edge">
<title>NgGrid&#45;&gt;jNetworkBootstrap4GridModule</title>
<path fill="none" stroke="#000000" d="M675.2107,-122.2667C675.2107,-140.5552 675.2107,-166 675.2107,-166 675.2107,-166 422.9345,-166 422.9345,-166"/>
<polygon fill="#000000" stroke="#000000" points="422.9345,-162.5001 412.9345,-166 422.9345,-169.5001 422.9345,-162.5001"/>
</g>
<!-- NgGridButton -->
<g id="node2" class="node">
<title>NgGridButton</title>
<polygon fill="#ffffb3" stroke="#000000" points="616.3823,-122 519.6177,-122 519.6177,-86 616.3823,-86 616.3823,-122"/>
<text text-anchor="middle" x="568" y="-99.8" font-family="Times,serif" font-size="14.00" fill="#000000">NgGridButton</text>
</g>
<!-- NgGridButton&#45;&gt;jNetworkBootstrap4GridModule -->
<g id="edge2" class="edge">
<title>NgGridButton&#45;&gt;jNetworkBootstrap4GridModule</title>
<path fill="none" stroke="#000000" d="M584.5637,-122.0091C584.5637,-138.0494 584.5637,-159 584.5637,-159 584.5637,-159 422.5783,-159 422.5783,-159"/>
<polygon fill="#000000" stroke="#000000" points="422.5783,-155.5001 412.5783,-159 422.5782,-162.5001 422.5783,-155.5001"/>
</g>
<!-- NgGridColumn -->
<g id="node3" class="node">
<title>NgGridColumn</title>
<polygon fill="#ffffb3" stroke="#000000" points="501.8823,-122 398.1177,-122 398.1177,-86 501.8823,-86 501.8823,-122"/>
<text text-anchor="middle" x="450" y="-99.8" font-family="Times,serif" font-size="14.00" fill="#000000">NgGridColumn</text>
</g>
<!-- NgGridColumn&#45;&gt;jNetworkBootstrap4GridModule -->
<g id="edge3" class="edge">
<title>NgGridColumn&#45;&gt;jNetworkBootstrap4GridModule</title>
<path fill="none" stroke="#000000" d="M405.4082,-122.1061C405.4082,-122.1061 405.4082,-140.991 405.4082,-140.991"/>
<polygon fill="#000000" stroke="#000000" points="401.9082,-140.9909 405.4082,-150.991 408.9082,-140.991 401.9082,-140.9909"/>
</g>
<!-- NgGridColumnAction -->
<g id="node4" class="node">
<title>NgGridColumnAction</title>
<polygon fill="#ffffb3" stroke="#000000" points="379.9846,-122 238.0154,-122 238.0154,-86 379.9846,-86 379.9846,-122"/>
<text text-anchor="middle" x="309" y="-99.8" font-family="Times,serif" font-size="14.00" fill="#000000">NgGridColumnAction</text>
</g>
<!-- NgGridColumnAction&#45;&gt;jNetworkBootstrap4GridModule -->
<g id="edge4" class="edge">
<title>NgGridColumnAction&#45;&gt;jNetworkBootstrap4GridModule</title>
<path fill="none" stroke="#000000" d="M309,-122.1061C309,-122.1061 309,-140.991 309,-140.991"/>
<polygon fill="#000000" stroke="#000000" points="305.5001,-140.9909 309,-150.991 312.5001,-140.991 305.5001,-140.9909"/>
</g>
<!-- NgGridImage -->
<g id="node5" class="node">
<title>NgGridImage</title>
<polygon fill="#ffffb3" stroke="#000000" points="219.7451,-122 126.2549,-122 126.2549,-86 219.7451,-86 219.7451,-122"/>
<text text-anchor="middle" x="173" y="-99.8" font-family="Times,serif" font-size="14.00" fill="#000000">NgGridImage</text>
</g>
<!-- NgGridImage&#45;&gt;jNetworkBootstrap4GridModule -->
<g id="edge5" class="edge">
<title>NgGridImage&#45;&gt;jNetworkBootstrap4GridModule</title>
<path fill="none" stroke="#000000" d="M219.9523,-104C225.3337,-104 228.9401,-104 228.9401,-104 228.9401,-104 228.9401,-140.8939 228.9401,-140.8939"/>
<polygon fill="#000000" stroke="#000000" points="225.4401,-140.8938 228.9401,-150.8939 232.4401,-140.8939 225.4401,-140.8938"/>
</g>
<!-- NgPaging -->
<g id="node6" class="node">
<title>NgPaging</title>
<polygon fill="#ffffb3" stroke="#000000" points="107.9944,-122 36.0056,-122 36.0056,-86 107.9944,-86 107.9944,-122"/>
<text text-anchor="middle" x="72" y="-99.8" font-family="Times,serif" font-size="14.00" fill="#000000">NgPaging</text>
</g>
<!-- NgPaging&#45;&gt;jNetworkBootstrap4GridModule -->
<g id="edge6" class="edge">
<title>NgPaging&#45;&gt;jNetworkBootstrap4GridModule</title>
<path fill="none" stroke="#000000" d="M103.8722,-122.0225C103.8722,-139.3734 103.8722,-163 103.8722,-163 103.8722,-163 203.3359,-163 203.3359,-163"/>
<polygon fill="#000000" stroke="#000000" points="203.336,-166.5001 213.3359,-163 203.3359,-159.5001 203.336,-166.5001"/>
</g>
<!-- NgGrid  -->
<g id="node8" class="node">
<title>NgGrid </title>
<polygon fill="#fb8072" stroke="#000000" points="701.265,-252 638.735,-252 638.735,-216 701.265,-216 701.265,-252"/>
<text text-anchor="middle" x="670" y="-229.8" font-family="Times,serif" font-size="14.00" fill="#000000">NgGrid </text>
</g>
<!-- jNetworkBootstrap4GridModule&#45;&gt;NgGrid  -->
<g id="edge7" class="edge">
<title>jNetworkBootstrap4GridModule&#45;&gt;NgGrid </title>
<path fill="none" stroke="#000000" stroke-dasharray="5,2" d="M412.9725,-173C514.5511,-173 657.0393,-173 657.0393,-173 657.0393,-173 657.0393,-205.698 657.0393,-205.698"/>
<polygon fill="#000000" stroke="#000000" points="653.5394,-205.698 657.0393,-215.698 660.5394,-205.698 653.5394,-205.698"/>
</g>
<!-- NgGridButton  -->
<g id="node9" class="node">
<title>NgGridButton </title>
<polygon fill="#fb8072" stroke="#000000" points="621.3829,-252 520.6171,-252 520.6171,-216 621.3829,-216 621.3829,-252"/>
<text text-anchor="middle" x="571" y="-229.8" font-family="Times,serif" font-size="14.00" fill="#000000">NgGridButton </text>
</g>
<!-- jNetworkBootstrap4GridModule&#45;&gt;NgGridButton  -->
<g id="edge8" class="edge">
<title>jNetworkBootstrap4GridModule&#45;&gt;NgGridButton </title>
<path fill="none" stroke="#000000" stroke-dasharray="5,2" d="M412.5663,-180C478.4198,-180 552.6863,-180 552.6863,-180 552.6863,-180 552.6863,-205.7181 552.6863,-205.7181"/>
<polygon fill="#000000" stroke="#000000" points="549.1864,-205.718 552.6863,-215.7181 556.1864,-205.7181 549.1864,-205.718"/>
</g>
<!-- NgGridColumn  -->
<g id="node10" class="node">
<title>NgGridColumn </title>
<polygon fill="#fb8072" stroke="#000000" points="502.8829,-252 395.1171,-252 395.1171,-216 502.8829,-216 502.8829,-252"/>
<text text-anchor="middle" x="449" y="-229.8" font-family="Times,serif" font-size="14.00" fill="#000000">NgGridColumn </text>
</g>
<!-- jNetworkBootstrap4GridModule&#45;&gt;NgGridColumn  -->
<g id="edge9" class="edge">
<title>jNetworkBootstrap4GridModule&#45;&gt;NgGridColumn </title>
<path fill="none" stroke="#000000" stroke-dasharray="5,2" d="M404.0332,-187.1061C404.0332,-187.1061 404.0332,-205.991 404.0332,-205.991"/>
<polygon fill="#000000" stroke="#000000" points="400.5332,-205.9909 404.0332,-215.991 407.5332,-205.991 400.5332,-205.9909"/>
</g>
<!-- NgGridColumnAction  -->
<g id="node11" class="node">
<title>NgGridColumnAction </title>
<polygon fill="#fb8072" stroke="#000000" points="377.9854,-252 232.0146,-252 232.0146,-216 377.9854,-216 377.9854,-252"/>
<text text-anchor="middle" x="305" y="-229.8" font-family="Times,serif" font-size="14.00" fill="#000000">NgGridColumnAction </text>
</g>
<!-- jNetworkBootstrap4GridModule&#45;&gt;NgGridColumnAction  -->
<g id="edge10" class="edge">
<title>jNetworkBootstrap4GridModule&#45;&gt;NgGridColumnAction </title>
<path fill="none" stroke="#000000" stroke-dasharray="5,2" d="M305,-187.1061C305,-187.1061 305,-205.991 305,-205.991"/>
<polygon fill="#000000" stroke="#000000" points="301.5001,-205.9909 305,-215.991 308.5001,-205.991 301.5001,-205.9909"/>
</g>
<!-- NgGridImage  -->
<g id="node12" class="node">
<title>NgGridImage </title>
<polygon fill="#fb8072" stroke="#000000" points="214.7451,-252 117.2549,-252 117.2549,-216 214.7451,-216 214.7451,-252"/>
<text text-anchor="middle" x="166" y="-229.8" font-family="Times,serif" font-size="14.00" fill="#000000">NgGridImage </text>
</g>
<!-- jNetworkBootstrap4GridModule&#45;&gt;NgGridImage  -->
<g id="edge11" class="edge">
<title>jNetworkBootstrap4GridModule&#45;&gt;NgGridImage </title>
<path fill="none" stroke="#000000" stroke-dasharray="5,2" d="M223.4401,-187.1061C223.4401,-206.3391 223.4401,-234 223.4401,-234 223.4401,-234 222.5925,-234 222.5925,-234"/>
<polygon fill="#000000" stroke="#000000" points="224.9646,-230.5001 214.9646,-234 224.9645,-237.5001 224.9646,-230.5001"/>
</g>
<!-- NgPaging  -->
<g id="node13" class="node">
<title>NgPaging </title>
<polygon fill="#fb8072" stroke="#000000" points="99.996,-252 24.004,-252 24.004,-216 99.996,-216 99.996,-252"/>
<text text-anchor="middle" x="62" y="-229.8" font-family="Times,serif" font-size="14.00" fill="#000000">NgPaging </text>
</g>
<!-- jNetworkBootstrap4GridModule&#45;&gt;NgPaging  -->
<g id="edge12" class="edge">
<title>jNetworkBootstrap4GridModule&#45;&gt;NgPaging </title>
<path fill="none" stroke="#000000" stroke-dasharray="5,2" d="M213.2983,-175C145.4341,-175 67.875,-175 67.875,-175 67.875,-175 67.875,-205.9775 67.875,-205.9775"/>
<polygon fill="#000000" stroke="#000000" points="64.3751,-205.9774 67.875,-215.9775 71.3751,-205.9775 64.3751,-205.9774"/>
</g>
</g>
</svg>
