<?xml version="1.0" encoding="UTF-8" standalone="no"?>
<!DOCTYPE svg PUBLIC "-//W3C//DTD SVG 1.1//EN"
 "http://www.w3.org/Graphics/SVG/1.1/DTD/svg11.dtd">
<!-- Generated by graphviz version 2.47.3 (20210619.1520)
 -->
<!-- Title: dependencies Pages: 1 -->
<svg width="394pt" height="174pt"
 viewBox="0.00 0.00 394.00 173.80" xmlns="http://www.w3.org/2000/svg" xmlns:xlink="http://www.w3.org/1999/xlink">
<g id="graph0" class="graph" transform="scale(1 1) rotate(0) translate(4 169.8)">
<title>dependencies</title>
<polygon fill="white" stroke="transparent" points="-4,4 -4,-169.8 390,-169.8 390,4 -4,4"/>
<text text-anchor="middle" x="193" y="-8.2" font-family="sans-serif" font-size="14.00">dependencies</text>
<g id="clust1" class="cluster">
<title>cluster_RichtextModule</title>
<polygon fill="none" stroke="black" stroke-dasharray="1,5" points="8,-32.8 8,-157.8 378,-157.8 378,-32.8 8,-32.8"/>
</g>
<g id="clust2" class="cluster">
<title>cluster_RichtextModule_declarations</title>
<polygon fill="none" stroke="black" points="192,-40.8 192,-92.8 370,-92.8 370,-40.8 192,-40.8"/>
</g>
<g id="clust4" class="cluster">
<title>cluster_RichtextModule_imports</title>
<polygon fill="none" stroke="black" points="16,-40.8 16,-92.8 184,-92.8 184,-40.8 16,-40.8"/>
</g>
<!-- DemoRichtextComponent -->
<g id="node1" class="node">
<title>DemoRichtextComponent</title>
<polygon fill="#ffffb3" stroke="black" points="362.48,-84.8 199.52,-84.8 199.52,-48.8 362.48,-48.8 362.48,-84.8"/>
<text text-anchor="middle" x="281" y="-62.6" font-family="Times,serif" font-size="14.00">DemoRichtextComponent</text>
</g>
<!-- RichtextModule -->
<g id="node2" class="node">
<title>RichtextModule</title>
<polygon fill="#8dd3c7" stroke="black" points="243.49,-149.8 240.49,-153.8 219.49,-153.8 216.49,-149.8 136.51,-149.8 136.51,-113.8 243.49,-113.8 243.49,-149.8"/>
<text text-anchor="middle" x="190" y="-127.6" font-family="Times,serif" font-size="14.00">RichtextModule</text>
</g>
<!-- DemoRichtextComponent&#45;&gt;RichtextModule -->
<g id="edge1" class="edge">
<title>DemoRichtextComponent&#45;&gt;RichtextModule</title>
<path fill="none" stroke="black" d="M221.5,-84.91C221.5,-84.91 221.5,-103.79 221.5,-103.79"/>
<polygon fill="black" stroke="black" points="218,-103.79 221.5,-113.79 225,-103.79 218,-103.79"/>
</g>
<!-- RichtextRoutingModule -->
<g id="node3" class="node">
<title>RichtextRoutingModule</title>
<polygon fill="#8dd3c7" stroke="black" points="176.11,-84.8 173.11,-88.8 152.11,-88.8 149.11,-84.8 23.89,-84.8 23.89,-48.8 176.11,-48.8 176.11,-84.8"/>
<text text-anchor="middle" x="100" y="-62.6" font-family="Times,serif" font-size="14.00">RichtextRoutingModule</text>
</g>
<!-- RichtextRoutingModule&#45;&gt;RichtextModule -->
<g id="edge2" class="edge">
<title>RichtextRoutingModule&#45;&gt;RichtextModule</title>
<path fill="none" stroke="black" d="M156.28,-84.91C156.28,-84.91 156.28,-103.79 156.28,-103.79"/>
<polygon fill="black" stroke="black" points="152.78,-103.79 156.28,-113.79 159.78,-103.79 152.78,-103.79"/>
</g>
</g>
</svg>
