<?xml version="1.0" encoding="UTF-8" standalone="no"?>
<!DOCTYPE svg PUBLIC "-//W3C//DTD SVG 1.1//EN"
 "http://www.w3.org/Graphics/SVG/1.1/DTD/svg11.dtd">
<!-- Generated by graphviz version 2.46.0 (20210119.1425)
 -->
<!-- Title: dependencies Pages: 1 -->
<svg width="5067pt" height="276pt"
 viewBox="0.00 0.00 5067.00 276.00" xmlns="http://www.w3.org/2000/svg" xmlns:xlink="http://www.w3.org/1999/xlink">
<g id="graph0" class="graph" transform="scale(1 1) rotate(0) translate(4 272)">
<title>dependencies</title>
<polygon fill="white" stroke="transparent" points="-4,4 -4,-272 5063,-272 5063,4 -4,4"/>
<text text-anchor="start" x="2508.51" y="-42.4" font-family="sans-serif" font-weight="bold" font-size="14.00">Legend</text>
<polygon fill="#ffffb3" stroke="transparent" points="2295.5,-10 2295.5,-30 2315.5,-30 2315.5,-10 2295.5,-10"/>
<text text-anchor="start" x="2319.13" y="-15.4" font-family="sans-serif" font-size="14.00"> &#160;Declarations</text>
<polygon fill="#8dd3c7" stroke="transparent" points="2408.5,-10 2408.5,-30 2428.5,-30 2428.5,-10 2408.5,-10"/>
<text text-anchor="start" x="2432.23" y="-15.4" font-family="sans-serif" font-size="14.00"> &#160;Module</text>
<polygon fill="#80b1d3" stroke="transparent" points="2494.5,-10 2494.5,-30 2514.5,-30 2514.5,-10 2494.5,-10"/>
<text text-anchor="start" x="2518.28" y="-15.4" font-family="sans-serif" font-size="14.00"> &#160;Bootstrap</text>
<polygon fill="#fdb462" stroke="transparent" points="2591.5,-10 2591.5,-30 2611.5,-30 2611.5,-10 2591.5,-10"/>
<text text-anchor="start" x="2615.17" y="-15.4" font-family="sans-serif" font-size="14.00"> &#160;Providers</text>
<polygon fill="#fb8072" stroke="transparent" points="2687.5,-10 2687.5,-30 2707.5,-30 2707.5,-10 2687.5,-10"/>
<text text-anchor="start" x="2711.23" y="-15.4" font-family="sans-serif" font-size="14.00"> &#160;Exports</text>
<g id="clust1" class="cluster">
<title>cluster_JNetworkBootstrap4DateTimeModule</title>
<polygon fill="none" stroke="black" stroke-dasharray="1,5" points="8,-70 8,-260 5051,-260 5051,-70 8,-70"/>
</g>
<g id="clust2" class="cluster">
<title>cluster_JNetworkBootstrap4DateTimeModule_declarations</title>
<polygon fill="none" stroke="black" points="2313,-143 2313,-195 2960,-195 2960,-143 2313,-143"/>
</g>
<g id="clust3" class="cluster">
<title>cluster_JNetworkBootstrap4DateTimeModule_NgDateComponent_providers</title>
<polygon fill="none" stroke="black" points="3403,-78 3403,-130 5043,-130 5043,-78 3403,-78"/>
</g>
<g id="clust6" class="cluster">
<title>cluster_JNetworkBootstrap4DateTimeModule_NgTimeComponent_providers</title>
<polygon fill="none" stroke="black" points="1746,-78 1746,-130 3395,-130 3395,-78 1746,-78"/>
</g>
<g id="clust5" class="cluster">
<title>cluster_JNetworkBootstrap4DateTimeModule_NgDateTimeComponent_providers</title>
<polygon fill="none" stroke="black" points="16,-78 16,-130 1738,-130 1738,-78 16,-78"/>
</g>
<!-- NgDateComponent -->
<g id="node1" class="node">
<title>NgDateComponent</title>
<polygon fill="#ffffb3" stroke="black" points="2952.37,-187 2827.63,-187 2827.63,-151 2952.37,-151 2952.37,-187"/>
<text text-anchor="middle" x="2890" y="-164.8" font-family="Times,serif" font-size="14.00">NgDateComponent</text>
</g>
<!-- JNetworkBootstrap4DateTimeModule -->
<g id="node5" class="node">
<title>JNetworkBootstrap4DateTimeModule</title>
<polygon fill="#8dd3c7" stroke="black" points="2755.89,-252 2752.89,-256 2731.89,-256 2728.89,-252 2524.11,-252 2524.11,-216 2755.89,-216 2755.89,-252"/>
<text text-anchor="middle" x="2640" y="-229.8" font-family="Times,serif" font-size="14.00">JNetworkBootstrap4DateTimeModule</text>
</g>
<!-- NgDateComponent&#45;&gt;JNetworkBootstrap4DateTimeModule -->
<g id="edge1" class="edge">
<title>NgDateComponent&#45;&gt;JNetworkBootstrap4DateTimeModule</title>
<path fill="none" stroke="black" d="M2890,-187.11C2890,-206.34 2890,-234 2890,-234 2890,-234 2765.85,-234 2765.85,-234"/>
<polygon fill="black" stroke="black" points="2765.85,-230.5 2755.85,-234 2765.85,-237.5 2765.85,-230.5"/>
</g>
<!-- NgDateSelectorComponent -->
<g id="node2" class="node">
<title>NgDateSelectorComponent</title>
<polygon fill="#ffffb3" stroke="black" points="2809.23,-187 2638.77,-187 2638.77,-151 2809.23,-151 2809.23,-187"/>
<text text-anchor="middle" x="2724" y="-164.8" font-family="Times,serif" font-size="14.00">NgDateSelectorComponent</text>
</g>
<!-- NgDateSelectorComponent&#45;&gt;JNetworkBootstrap4DateTimeModule -->
<g id="edge4" class="edge">
<title>NgDateSelectorComponent&#45;&gt;JNetworkBootstrap4DateTimeModule</title>
<path fill="none" stroke="black" d="M2697.16,-187.11C2697.16,-187.11 2697.16,-205.99 2697.16,-205.99"/>
<polygon fill="black" stroke="black" points="2693.66,-205.99 2697.16,-215.99 2700.66,-205.99 2693.66,-205.99"/>
</g>
<!-- NgDateTimeComponent -->
<g id="node3" class="node">
<title>NgDateTimeComponent</title>
<polygon fill="#ffffb3" stroke="black" points="2475.41,-187 2320.59,-187 2320.59,-151 2475.41,-151 2475.41,-187"/>
<text text-anchor="middle" x="2398" y="-164.8" font-family="Times,serif" font-size="14.00">NgDateTimeComponent</text>
</g>
<!-- NgDateTimeComponent&#45;&gt;JNetworkBootstrap4DateTimeModule -->
<g id="edge5" class="edge">
<title>NgDateTimeComponent&#45;&gt;JNetworkBootstrap4DateTimeModule</title>
<path fill="none" stroke="black" d="M2398,-187.11C2398,-206.34 2398,-234 2398,-234 2398,-234 2513.96,-234 2513.96,-234"/>
<polygon fill="black" stroke="black" points="2513.96,-237.5 2523.96,-234 2513.96,-230.5 2513.96,-237.5"/>
</g>
<!-- NgTimeComponent -->
<g id="node4" class="node">
<title>NgTimeComponent</title>
<polygon fill="#ffffb3" stroke="black" points="2620.99,-187 2493.01,-187 2493.01,-151 2620.99,-151 2620.99,-187"/>
<text text-anchor="middle" x="2557" y="-164.8" font-family="Times,serif" font-size="14.00">NgTimeComponent</text>
</g>
<!-- NgTimeComponent&#45;&gt;JNetworkBootstrap4DateTimeModule -->
<g id="edge8" class="edge">
<title>NgTimeComponent&#45;&gt;JNetworkBootstrap4DateTimeModule</title>
<path fill="none" stroke="black" d="M2572.65,-187.11C2572.65,-187.11 2572.65,-205.99 2572.65,-205.99"/>
<polygon fill="black" stroke="black" points="2569.15,-205.99 2572.65,-215.99 2576.15,-205.99 2569.15,-205.99"/>
</g>
<!-- { provide: NG_VALUE_ACCESSOR, multi: true, useExisting: forwardRef(() =&gt; NgDateComponent) } -->
<g id="node6" class="node">
<title>{ provide: NG_VALUE_ACCESSOR, multi: true, useExisting: forwardRef(() =&gt; NgDateComponent) }</title>
<ellipse fill="#fdb462" stroke="black" cx="4621" cy="-104" rx="414.37" ry="18"/>
<text text-anchor="middle" x="4621" y="-99.8" font-family="Times,serif" font-size="14.00">{ provide: NG_VALUE_ACCESSOR, multi: true, useExisting: forwardRef(() =&gt; NgDateComponent) }</text>
</g>
<!-- { provide: NG_VALUE_ACCESSOR, multi: true, useExisting: forwardRef(() =&gt; NgDateComponent) }&#45;&gt;NgDateComponent -->
<g id="edge2" class="edge">
<title>{ provide: NG_VALUE_ACCESSOR, multi: true, useExisting: forwardRef(() =&gt; NgDateComponent) }&#45;&gt;NgDateComponent</title>
<path fill="none" stroke="black" d="M4621,-122.28C4621,-143.32 4621,-175 4621,-175 4621,-175 2962.37,-175 2962.37,-175"/>
<polygon fill="black" stroke="black" points="2962.37,-171.5 2952.37,-175 2962.37,-178.5 2962.37,-171.5"/>
</g>
<!-- { provide: NG_VALIDATORS, multi: true, useExisting: forwardRef(() =&gt; NgDateComponent) } -->
<g id="node7" class="node">
<title>{ provide: NG_VALIDATORS, multi: true, useExisting: forwardRef(() =&gt; NgDateComponent) }</title>
<ellipse fill="#fdb462" stroke="black" cx="3800" cy="-104" rx="388.85" ry="18"/>
<text text-anchor="middle" x="3800" y="-99.8" font-family="Times,serif" font-size="14.00">{ provide: NG_VALIDATORS, multi: true, useExisting: forwardRef(() =&gt; NgDateComponent) }</text>
</g>
<!-- { provide: NG_VALIDATORS, multi: true, useExisting: forwardRef(() =&gt; NgDateComponent) }&#45;&gt;NgDateComponent -->
<g id="edge3" class="edge">
<title>{ provide: NG_VALIDATORS, multi: true, useExisting: forwardRef(() =&gt; NgDateComponent) }&#45;&gt;NgDateComponent</title>
<path fill="none" stroke="black" d="M3800,-122.02C3800,-139.37 3800,-163 3800,-163 3800,-163 2962.55,-163 2962.55,-163"/>
<polygon fill="black" stroke="black" points="2962.55,-159.5 2952.55,-163 2962.55,-166.5 2962.55,-159.5"/>
</g>
<!-- { provide: NG_VALUE_ACCESSOR, multi: true, useExisting: forwardRef(() =&gt; NgDateTimeComponent) } -->
<g id="node8" class="node">
<title>{ provide: NG_VALUE_ACCESSOR, multi: true, useExisting: forwardRef(() =&gt; NgDateTimeComponent) }</title>
<ellipse fill="#fdb462" stroke="black" cx="1295" cy="-104" rx="434.64" ry="18"/>
<text text-anchor="middle" x="1295" y="-99.8" font-family="Times,serif" font-size="14.00">{ provide: NG_VALUE_ACCESSOR, multi: true, useExisting: forwardRef(() =&gt; NgDateTimeComponent) }</text>
</g>
<!-- { provide: NG_VALUE_ACCESSOR, multi: true, useExisting: forwardRef(() =&gt; NgDateTimeComponent) }&#45;&gt;NgDateTimeComponent -->
<g id="edge6" class="edge">
<title>{ provide: NG_VALUE_ACCESSOR, multi: true, useExisting: forwardRef(() =&gt; NgDateTimeComponent) }&#45;&gt;NgDateTimeComponent</title>
<path fill="none" stroke="black" d="M1295,-122.02C1295,-139.37 1295,-163 1295,-163 1295,-163 2310.44,-163 2310.44,-163"/>
<polygon fill="black" stroke="black" points="2310.44,-166.5 2320.44,-163 2310.44,-159.5 2310.44,-166.5"/>
</g>
<!-- { provide: NG_VALIDATORS, multi: true, useExisting: forwardRef(() =&gt; NgDateTimeComponent) } -->
<g id="node9" class="node">
<title>{ provide: NG_VALIDATORS, multi: true, useExisting: forwardRef(() =&gt; NgDateTimeComponent) }</title>
<ellipse fill="#fdb462" stroke="black" cx="433" cy="-104" rx="409.11" ry="18"/>
<text text-anchor="middle" x="433" y="-99.8" font-family="Times,serif" font-size="14.00">{ provide: NG_VALIDATORS, multi: true, useExisting: forwardRef(() =&gt; NgDateTimeComponent) }</text>
</g>
<!-- { provide: NG_VALIDATORS, multi: true, useExisting: forwardRef(() =&gt; NgDateTimeComponent) }&#45;&gt;NgDateTimeComponent -->
<g id="edge7" class="edge">
<title>{ provide: NG_VALIDATORS, multi: true, useExisting: forwardRef(() =&gt; NgDateTimeComponent) }&#45;&gt;NgDateTimeComponent</title>
<path fill="none" stroke="black" d="M433,-122.28C433,-143.32 433,-175 433,-175 433,-175 2310.67,-175 2310.67,-175"/>
<polygon fill="black" stroke="black" points="2310.67,-178.5 2320.67,-175 2310.67,-171.5 2310.67,-178.5"/>
</g>
<!-- { provide: NG_VALUE_ACCESSOR, multi: true, useExisting: forwardRef(() =&gt; NgTimeComponent) } -->
<g id="node10" class="node">
<title>{ provide: NG_VALUE_ACCESSOR, multi: true, useExisting: forwardRef(() =&gt; NgTimeComponent) }</title>
<ellipse fill="#fdb462" stroke="black" cx="2970" cy="-104" rx="416.68" ry="18"/>
<text text-anchor="middle" x="2970" y="-99.8" font-family="Times,serif" font-size="14.00">{ provide: NG_VALUE_ACCESSOR, multi: true, useExisting: forwardRef(() =&gt; NgTimeComponent) }</text>
</g>
<!-- { provide: NG_VALUE_ACCESSOR, multi: true, useExisting: forwardRef(() =&gt; NgTimeComponent) }&#45;&gt;NgTimeComponent -->
<g id="edge9" class="edge">
<title>{ provide: NG_VALUE_ACCESSOR, multi: true, useExisting: forwardRef(() =&gt; NgTimeComponent) }&#45;&gt;NgTimeComponent</title>
<path fill="none" stroke="black" d="M2587.2,-111.2C2587.2,-111.2 2587.2,-140.96 2587.2,-140.96"/>
<polygon fill="black" stroke="black" points="2583.7,-140.96 2587.2,-150.96 2590.7,-140.96 2583.7,-140.96"/>
</g>
<!-- { provide: NG_VALIDATORS, multi: true, useExisting: forwardRef(() =&gt; NgTimeComponent) } -->
<g id="node11" class="node">
<title>{ provide: NG_VALIDATORS, multi: true, useExisting: forwardRef(() =&gt; NgTimeComponent) }</title>
<ellipse fill="#fdb462" stroke="black" cx="2145" cy="-104" rx="390.66" ry="18"/>
<text text-anchor="middle" x="2145" y="-99.8" font-family="Times,serif" font-size="14.00">{ provide: NG_VALIDATORS, multi: true, useExisting: forwardRef(() =&gt; NgTimeComponent) }</text>
</g>
<!-- { provide: NG_VALIDATORS, multi: true, useExisting: forwardRef(() =&gt; NgTimeComponent) }&#45;&gt;NgTimeComponent -->
<g id="edge10" class="edge">
<title>{ provide: NG_VALIDATORS, multi: true, useExisting: forwardRef(() =&gt; NgTimeComponent) }&#45;&gt;NgTimeComponent</title>
<path fill="none" stroke="black" d="M2514.42,-110C2514.42,-110 2514.42,-140.76 2514.42,-140.76"/>
<polygon fill="black" stroke="black" points="2510.92,-140.76 2514.42,-150.76 2517.92,-140.76 2510.92,-140.76"/>
</g>
</g>
</svg>
