<?xml version="1.0" encoding="UTF-8" standalone="no"?>
<!DOCTYPE svg PUBLIC "-//W3C//DTD SVG 1.1//EN"
 "http://www.w3.org/Graphics/SVG/1.1/DTD/svg11.dtd">
<!-- Generated by graphviz version 2.47.0 (20210316.0004)
 -->
<!-- Title: dependencies Pages: 1 -->
<svg width="809pt" height="284pt"
 viewBox="0.00 0.00 809.00 284.00" xmlns="http://www.w3.org/2000/svg" xmlns:xlink="http://www.w3.org/1999/xlink">
<g id="graph0" class="graph" transform="scale(1 1) rotate(0) translate(4 280)">
<title>dependencies</title>
<polygon fill="white" stroke="transparent" points="-4,4 -4,-280 805,-280 805,4 -4,4"/>
<text text-anchor="start" x="379.51" y="-42.4" font-family="Times-12" font-weight="bold" font-size="14.00">Legend</text>
<polygon fill="#ffffb3" stroke="transparent" points="166.5,-10 166.5,-30 186.5,-30 186.5,-10 166.5,-10"/>
<text text-anchor="start" x="190.13" y="-15.4" font-family="Times-12" font-size="14.00"> &#160;Declarations</text>
<polygon fill="#8dd3c7" stroke="transparent" points="279.5,-10 279.5,-30 299.5,-30 299.5,-10 279.5,-10"/>
<text text-anchor="start" x="303.23" y="-15.4" font-family="Times-12" font-size="14.00"> &#160;Module</text>
<polygon fill="#80b1d3" stroke="transparent" points="365.5,-10 365.5,-30 385.5,-30 385.5,-10 365.5,-10"/>
<text text-anchor="start" x="389.28" y="-15.4" font-family="Times-12" font-size="14.00"> &#160;Bootstrap</text>
<polygon fill="#fdb462" stroke="transparent" points="462.5,-10 462.5,-30 482.5,-30 482.5,-10 462.5,-10"/>
<text text-anchor="start" x="486.17" y="-15.4" font-family="Times-12" font-size="14.00"> &#160;Providers</text>
<polygon fill="#fb8072" stroke="transparent" points="558.5,-10 558.5,-30 578.5,-30 578.5,-10 558.5,-10"/>
<text text-anchor="start" x="582.23" y="-15.4" font-family="Times-12" font-size="14.00"> &#160;Exports</text>
<g id="clust1" class="cluster">
<title>cluster_SACBootstrap3CheckboxModule</title>
<polygon fill="none" stroke="black" stroke-dasharray="1,5" points="8,-70 8,-268 793,-268 793,-70 8,-70"/>
</g>
<g id="clust6" class="cluster">
<title>cluster_SACBootstrap3CheckboxModule_imports</title>
<polygon fill="none" stroke="black" points="581,-78 581,-130 785,-130 785,-78 581,-78"/>
</g>
<g id="clust7" class="cluster">
<title>cluster_SACBootstrap3CheckboxModule_exports</title>
<polygon fill="none" stroke="black" points="104,-208 104,-260 672,-260 672,-208 104,-208"/>
</g>
<g id="clust2" class="cluster">
<title>cluster_SACBootstrap3CheckboxModule_declarations</title>
<polygon fill="none" stroke="black" points="16,-78 16,-130 573,-130 573,-78 16,-78"/>
</g>
<!-- SacCheckboxComponent -->
<g id="node1" class="node">
<title>SacCheckboxComponent</title>
<polygon fill="#ffffb3" stroke="black" points="565.31,-122 406.69,-122 406.69,-86 565.31,-86 565.31,-122"/>
<text text-anchor="middle" x="486" y="-99.8" font-family="Times,serif" font-size="14.00">SacCheckboxComponent</text>
</g>
<!-- SACBootstrap3CheckboxModule -->
<g id="node4" class="node">
<title>SACBootstrap3CheckboxModule</title>
<polygon fill="#8dd3c7" stroke="black" points="499.48,-187 496.48,-191 475.48,-191 472.48,-187 294.52,-187 294.52,-151 499.48,-151 499.48,-187"/>
<text text-anchor="middle" x="397" y="-164.8" font-family="Times,serif" font-size="14.00">SACBootstrap3CheckboxModule</text>
</g>
<!-- SacCheckboxComponent&#45;&gt;SACBootstrap3CheckboxModule -->
<g id="edge1" class="edge">
<title>SacCheckboxComponent&#45;&gt;SACBootstrap3CheckboxModule</title>
<path fill="none" stroke="black" d="M453.17,-122.11C453.17,-122.11 453.17,-140.99 453.17,-140.99"/>
<polygon fill="black" stroke="black" points="449.67,-140.99 453.17,-150.99 456.67,-140.99 449.67,-140.99"/>
</g>
<!-- SacRadiobuttonComponent -->
<g id="node2" class="node">
<title>SacRadiobuttonComponent</title>
<polygon fill="#ffffb3" stroke="black" points="388.27,-122 217.73,-122 217.73,-86 388.27,-86 388.27,-122"/>
<text text-anchor="middle" x="303" y="-99.8" font-family="Times,serif" font-size="14.00">SacRadiobuttonComponent</text>
</g>
<!-- SacRadiobuttonComponent&#45;&gt;SACBootstrap3CheckboxModule -->
<g id="edge2" class="edge">
<title>SacRadiobuttonComponent&#45;&gt;SACBootstrap3CheckboxModule</title>
<path fill="none" stroke="black" d="M341.45,-122.11C341.45,-122.11 341.45,-140.99 341.45,-140.99"/>
<polygon fill="black" stroke="black" points="337.95,-140.99 341.45,-150.99 344.95,-140.99 337.95,-140.99"/>
</g>
<!-- SacRadiobuttonsComponent -->
<g id="node3" class="node">
<title>SacRadiobuttonsComponent</title>
<polygon fill="#ffffb3" stroke="black" points="200.21,-122 23.79,-122 23.79,-86 200.21,-86 200.21,-122"/>
<text text-anchor="middle" x="112" y="-99.8" font-family="Times,serif" font-size="14.00">SacRadiobuttonsComponent</text>
</g>
<!-- SacRadiobuttonsComponent&#45;&gt;SACBootstrap3CheckboxModule -->
<g id="edge3" class="edge">
<title>SacRadiobuttonsComponent&#45;&gt;SACBootstrap3CheckboxModule</title>
<path fill="none" stroke="black" d="M156.12,-122.11C156.12,-141.34 156.12,-169 156.12,-169 156.12,-169 284.5,-169 284.5,-169"/>
<polygon fill="black" stroke="black" points="284.5,-172.5 294.5,-169 284.5,-165.5 284.5,-172.5"/>
</g>
<!-- SacCheckboxComponent  -->
<g id="node6" class="node">
<title>SacCheckboxComponent </title>
<polygon fill="#fb8072" stroke="black" points="663.81,-252 502.19,-252 502.19,-216 663.81,-216 663.81,-252"/>
<text text-anchor="middle" x="583" y="-229.8" font-family="Times,serif" font-size="14.00">SacCheckboxComponent </text>
</g>
<!-- SACBootstrap3CheckboxModule&#45;&gt;SacCheckboxComponent  -->
<g id="edge5" class="edge">
<title>SACBootstrap3CheckboxModule&#45;&gt;SacCheckboxComponent </title>
<path fill="none" stroke="black" stroke-dasharray="5,2" d="M491.81,-187.11C491.81,-206.34 491.81,-234 491.81,-234 491.81,-234 492.82,-234 492.82,-234"/>
<polygon fill="black" stroke="black" points="491.92,-237.5 501.92,-234 491.92,-230.5 491.92,-237.5"/>
</g>
<!-- SacRadiobuttonComponent  -->
<g id="node7" class="node">
<title>SacRadiobuttonComponent </title>
<polygon fill="#fb8072" stroke="black" points="484.27,-252 309.73,-252 309.73,-216 484.27,-216 484.27,-252"/>
<text text-anchor="middle" x="397" y="-229.8" font-family="Times,serif" font-size="14.00">SacRadiobuttonComponent </text>
</g>
<!-- SACBootstrap3CheckboxModule&#45;&gt;SacRadiobuttonComponent  -->
<g id="edge6" class="edge">
<title>SACBootstrap3CheckboxModule&#45;&gt;SacRadiobuttonComponent </title>
<path fill="none" stroke="black" stroke-dasharray="5,2" d="M397,-187.11C397,-187.11 397,-205.99 397,-205.99"/>
<polygon fill="black" stroke="black" points="393.5,-205.99 397,-215.99 400.5,-205.99 393.5,-205.99"/>
</g>
<!-- SacRadiobuttonsComponent  -->
<g id="node8" class="node">
<title>SacRadiobuttonsComponent </title>
<polygon fill="#fb8072" stroke="black" points="291.71,-252 112.29,-252 112.29,-216 291.71,-216 291.71,-252"/>
<text text-anchor="middle" x="202" y="-229.8" font-family="Times,serif" font-size="14.00">SacRadiobuttonsComponent </text>
</g>
<!-- SACBootstrap3CheckboxModule&#45;&gt;SacRadiobuttonsComponent  -->
<g id="edge7" class="edge">
<title>SACBootstrap3CheckboxModule&#45;&gt;SacRadiobuttonsComponent </title>
<path fill="none" stroke="black" stroke-dasharray="5,2" d="M302.19,-187.11C302.19,-206.34 302.19,-234 302.19,-234 302.19,-234 301.15,-234 301.15,-234"/>
<polygon fill="black" stroke="black" points="301.84,-230.5 291.84,-234 301.84,-237.5 301.84,-230.5"/>
</g>
<!-- SACBootstrap3LayoutModule -->
<g id="node5" class="node">
<title>SACBootstrap3LayoutModule</title>
<polygon fill="#8dd3c7" stroke="black" points="776.87,-122 773.87,-126 752.87,-126 749.87,-122 589.13,-122 589.13,-86 776.87,-86 776.87,-122"/>
<text text-anchor="middle" x="683" y="-99.8" font-family="Times,serif" font-size="14.00">SACBootstrap3LayoutModule</text>
</g>
<!-- SACBootstrap3LayoutModule&#45;&gt;SACBootstrap3CheckboxModule -->
<g id="edge4" class="edge">
<title>SACBootstrap3LayoutModule&#45;&gt;SACBootstrap3CheckboxModule</title>
<path fill="none" stroke="black" d="M626.48,-122.11C626.48,-141.34 626.48,-169 626.48,-169 626.48,-169 509.66,-169 509.66,-169"/>
<polygon fill="black" stroke="black" points="509.66,-165.5 499.66,-169 509.66,-172.5 509.66,-165.5"/>
</g>
</g>
</svg>
