<?xml version="1.0" encoding="UTF-8" standalone="no"?>
<!DOCTYPE svg PUBLIC "-//W3C//DTD SVG 1.1//EN"
 "http://www.w3.org/Graphics/SVG/1.1/DTD/svg11.dtd">
<!-- Generated by graphviz version 2.47.0 (20210316.0004)
 -->
<!-- Title: dependencies Pages: 1 -->
<svg width="622pt" height="284pt"
 viewBox="0.00 0.00 622.00 284.00" xmlns="http://www.w3.org/2000/svg" xmlns:xlink="http://www.w3.org/1999/xlink">
<g id="graph0" class="graph" transform="scale(1 1) rotate(0) translate(4 280)">
<title>dependencies</title>
<polygon fill="white" stroke="transparent" points="-4,4 -4,-280 618,-280 618,4 -4,4"/>
<text text-anchor="start" x="286.01" y="-42.4" font-family="Times-12" font-weight="bold" font-size="14.00">Legend</text>
<polygon fill="#ffffb3" stroke="transparent" points="73,-10 73,-30 93,-30 93,-10 73,-10"/>
<text text-anchor="start" x="96.63" y="-15.4" font-family="Times-12" font-size="14.00"> &#160;Declarations</text>
<polygon fill="#8dd3c7" stroke="transparent" points="186,-10 186,-30 206,-30 206,-10 186,-10"/>
<text text-anchor="start" x="209.73" y="-15.4" font-family="Times-12" font-size="14.00"> &#160;Module</text>
<polygon fill="#80b1d3" stroke="transparent" points="272,-10 272,-30 292,-30 292,-10 272,-10"/>
<text text-anchor="start" x="295.78" y="-15.4" font-family="Times-12" font-size="14.00"> &#160;Bootstrap</text>
<polygon fill="#fdb462" stroke="transparent" points="369,-10 369,-30 389,-30 389,-10 369,-10"/>
<text text-anchor="start" x="392.67" y="-15.4" font-family="Times-12" font-size="14.00"> &#160;Providers</text>
<polygon fill="#fb8072" stroke="transparent" points="465,-10 465,-30 485,-30 485,-10 465,-10"/>
<text text-anchor="start" x="488.73" y="-15.4" font-family="Times-12" font-size="14.00"> &#160;Exports</text>
<g id="clust1" class="cluster">
<title>cluster_SACBootstrap3TinyMceModule</title>
<polygon fill="none" stroke="black" stroke-dasharray="1,5" points="8,-70 8,-268 606,-268 606,-70 8,-70"/>
</g>
<g id="clust4" class="cluster">
<title>cluster_SACBootstrap3TinyMceModule_imports</title>
<polygon fill="none" stroke="black" points="192,-78 192,-130 598,-130 598,-78 192,-78"/>
</g>
<g id="clust2" class="cluster">
<title>cluster_SACBootstrap3TinyMceModule_declarations</title>
<polygon fill="none" stroke="black" points="16,-78 16,-130 184,-130 184,-78 16,-78"/>
</g>
<g id="clust5" class="cluster">
<title>cluster_SACBootstrap3TinyMceModule_exports</title>
<polygon fill="none" stroke="black" points="207,-208 207,-260 379,-260 379,-208 207,-208"/>
</g>
<!-- SacTinyMceComponent -->
<g id="node1" class="node">
<title>SacTinyMceComponent</title>
<polygon fill="#ffffb3" stroke="black" points="176.36,-122 23.64,-122 23.64,-86 176.36,-86 176.36,-122"/>
<text text-anchor="middle" x="100" y="-99.8" font-family="Times,serif" font-size="14.00">SacTinyMceComponent</text>
</g>
<!-- SACBootstrap3TinyMceModule -->
<g id="node2" class="node">
<title>SACBootstrap3TinyMceModule</title>
<polygon fill="#8dd3c7" stroke="black" points="392.53,-187 389.53,-191 368.53,-191 365.53,-187 193.47,-187 193.47,-151 392.53,-151 392.53,-187"/>
<text text-anchor="middle" x="293" y="-164.8" font-family="Times,serif" font-size="14.00">SACBootstrap3TinyMceModule</text>
</g>
<!-- SacTinyMceComponent&#45;&gt;SACBootstrap3TinyMceModule -->
<g id="edge1" class="edge">
<title>SacTinyMceComponent&#45;&gt;SACBootstrap3TinyMceModule</title>
<path fill="none" stroke="black" d="M100,-122.11C100,-141.34 100,-169 100,-169 100,-169 183.39,-169 183.39,-169"/>
<polygon fill="black" stroke="black" points="183.39,-172.5 193.39,-169 183.39,-165.5 183.39,-172.5"/>
</g>
<!-- SacTinyMceComponent  -->
<g id="node5" class="node">
<title>SacTinyMceComponent </title>
<polygon fill="#fb8072" stroke="black" points="371.36,-252 214.64,-252 214.64,-216 371.36,-216 371.36,-252"/>
<text text-anchor="middle" x="293" y="-229.8" font-family="Times,serif" font-size="14.00">SacTinyMceComponent </text>
</g>
<!-- SACBootstrap3TinyMceModule&#45;&gt;SacTinyMceComponent  -->
<g id="edge4" class="edge">
<title>SACBootstrap3TinyMceModule&#45;&gt;SacTinyMceComponent </title>
<path fill="none" stroke="black" stroke-dasharray="5,2" d="M293,-187.11C293,-187.11 293,-205.99 293,-205.99"/>
<polygon fill="black" stroke="black" points="289.5,-205.99 293,-215.99 296.5,-205.99 289.5,-205.99"/>
</g>
<!-- SACBootstrap3ButtonModule -->
<g id="node3" class="node">
<title>SACBootstrap3ButtonModule</title>
<polygon fill="#8dd3c7" stroke="black" points="590.33,-122 587.33,-126 566.33,-126 563.33,-122 403.67,-122 403.67,-86 590.33,-86 590.33,-122"/>
<text text-anchor="middle" x="497" y="-99.8" font-family="Times,serif" font-size="14.00">SACBootstrap3ButtonModule</text>
</g>
<!-- SACBootstrap3ButtonModule&#45;&gt;SACBootstrap3TinyMceModule -->
<g id="edge2" class="edge">
<title>SACBootstrap3ButtonModule&#45;&gt;SACBootstrap3TinyMceModule</title>
<path fill="none" stroke="black" d="M497,-122.11C497,-141.34 497,-169 497,-169 497,-169 402.61,-169 402.61,-169"/>
<polygon fill="black" stroke="black" points="402.61,-165.5 392.61,-169 402.61,-172.5 402.61,-165.5"/>
</g>
<!-- SACBootstrap3DialogModule -->
<g id="node4" class="node">
<title>SACBootstrap3DialogModule</title>
<polygon fill="#8dd3c7" stroke="black" points="386.32,-122 383.32,-126 362.32,-126 359.32,-122 199.68,-122 199.68,-86 386.32,-86 386.32,-122"/>
<text text-anchor="middle" x="293" y="-99.8" font-family="Times,serif" font-size="14.00">SACBootstrap3DialogModule</text>
</g>
<!-- SACBootstrap3DialogModule&#45;&gt;SACBootstrap3TinyMceModule -->
<g id="edge3" class="edge">
<title>SACBootstrap3DialogModule&#45;&gt;SACBootstrap3TinyMceModule</title>
<path fill="none" stroke="black" d="M293,-122.11C293,-122.11 293,-140.99 293,-140.99"/>
<polygon fill="black" stroke="black" points="289.5,-140.99 293,-150.99 296.5,-140.99 289.5,-140.99"/>
</g>
</g>
</svg>
