<?xml version="1.0" encoding="UTF-8" standalone="no"?>
<!DOCTYPE svg PUBLIC "-//W3C//DTD SVG 1.1//EN"
 "http://www.w3.org/Graphics/SVG/1.1/DTD/svg11.dtd">
<!-- Generated by graphviz version 2.47.0 (20210316.0004)
 -->
<!-- Title: dependencies Pages: 1 -->
<svg width="828pt" height="284pt"
 viewBox="0.00 0.00 828.00 284.00" xmlns="http://www.w3.org/2000/svg" xmlns:xlink="http://www.w3.org/1999/xlink">
<g id="graph0" class="graph" transform="scale(1 1) rotate(0) translate(4 280)">
<title>dependencies</title>
<polygon fill="white" stroke="transparent" points="-4,4 -4,-280 824,-280 824,4 -4,4"/>
<text text-anchor="start" x="389.01" y="-42.4" font-family="Times-12" font-weight="bold" font-size="14.00">Legend</text>
<polygon fill="#ffffb3" stroke="transparent" points="176,-10 176,-30 196,-30 196,-10 176,-10"/>
<text text-anchor="start" x="199.63" y="-15.4" font-family="Times-12" font-size="14.00"> &#160;Declarations</text>
<polygon fill="#8dd3c7" stroke="transparent" points="289,-10 289,-30 309,-30 309,-10 289,-10"/>
<text text-anchor="start" x="312.73" y="-15.4" font-family="Times-12" font-size="14.00"> &#160;Module</text>
<polygon fill="#80b1d3" stroke="transparent" points="375,-10 375,-30 395,-30 395,-10 375,-10"/>
<text text-anchor="start" x="398.78" y="-15.4" font-family="Times-12" font-size="14.00"> &#160;Bootstrap</text>
<polygon fill="#fdb462" stroke="transparent" points="472,-10 472,-30 492,-30 492,-10 472,-10"/>
<text text-anchor="start" x="495.67" y="-15.4" font-family="Times-12" font-size="14.00"> &#160;Providers</text>
<polygon fill="#fb8072" stroke="transparent" points="568,-10 568,-30 588,-30 588,-10 568,-10"/>
<text text-anchor="start" x="591.73" y="-15.4" font-family="Times-12" font-size="14.00"> &#160;Exports</text>
<g id="clust1" class="cluster">
<title>cluster_SACBootstrap3TinyMceModule</title>
<polygon fill="none" stroke="black" stroke-dasharray="1,5" points="8,-70 8,-268 812,-268 812,-70 8,-70"/>
</g>
<g id="clust4" class="cluster">
<title>cluster_SACBootstrap3TinyMceModule_imports</title>
<polygon fill="none" stroke="black" points="192,-78 192,-130 804,-130 804,-78 192,-78"/>
</g>
<g id="clust5" class="cluster">
<title>cluster_SACBootstrap3TinyMceModule_exports</title>
<polygon fill="none" stroke="black" points="310,-208 310,-260 482,-260 482,-208 310,-208"/>
</g>
<g id="clust2" class="cluster">
<title>cluster_SACBootstrap3TinyMceModule_declarations</title>
<polygon fill="none" stroke="black" points="16,-78 16,-130 184,-130 184,-78 16,-78"/>
</g>
<!-- SacTinyMceComponent -->
<g id="node1" class="node">
<title>SacTinyMceComponent</title>
<polygon fill="#ffffb3" stroke="black" points="176.36,-122 23.64,-122 23.64,-86 176.36,-86 176.36,-122"/>
<text text-anchor="middle" x="100" y="-99.8" font-family="Times,serif" font-size="14.00">SacTinyMceComponent</text>
</g>
<!-- SACBootstrap3TinyMceModule -->
<g id="node2" class="node">
<title>SACBootstrap3TinyMceModule</title>
<polygon fill="#8dd3c7" stroke="black" points="495.53,-187 492.53,-191 471.53,-191 468.53,-187 296.47,-187 296.47,-151 495.53,-151 495.53,-187"/>
<text text-anchor="middle" x="396" y="-164.8" font-family="Times,serif" font-size="14.00">SACBootstrap3TinyMceModule</text>
</g>
<!-- SacTinyMceComponent&#45;&gt;SACBootstrap3TinyMceModule -->
<g id="edge1" class="edge">
<title>SacTinyMceComponent&#45;&gt;SACBootstrap3TinyMceModule</title>
<path fill="none" stroke="black" d="M100,-122.11C100,-141.34 100,-169 100,-169 100,-169 286.2,-169 286.2,-169"/>
<polygon fill="black" stroke="black" points="286.2,-172.5 296.2,-169 286.2,-165.5 286.2,-172.5"/>
</g>
<!-- SacTinyMceComponent  -->
<g id="node6" class="node">
<title>SacTinyMceComponent </title>
<polygon fill="#fb8072" stroke="black" points="474.36,-252 317.64,-252 317.64,-216 474.36,-216 474.36,-252"/>
<text text-anchor="middle" x="396" y="-229.8" font-family="Times,serif" font-size="14.00">SacTinyMceComponent </text>
</g>
<!-- SACBootstrap3TinyMceModule&#45;&gt;SacTinyMceComponent  -->
<g id="edge5" class="edge">
<title>SACBootstrap3TinyMceModule&#45;&gt;SacTinyMceComponent </title>
<path fill="none" stroke="black" stroke-dasharray="5,2" d="M396,-187.11C396,-187.11 396,-205.99 396,-205.99"/>
<polygon fill="black" stroke="black" points="392.5,-205.99 396,-215.99 399.5,-205.99 392.5,-205.99"/>
</g>
<!-- SACBootstrap3ButtonModule -->
<g id="node3" class="node">
<title>SACBootstrap3ButtonModule</title>
<polygon fill="#8dd3c7" stroke="black" points="796.33,-122 793.33,-126 772.33,-126 769.33,-122 609.67,-122 609.67,-86 796.33,-86 796.33,-122"/>
<text text-anchor="middle" x="703" y="-99.8" font-family="Times,serif" font-size="14.00">SACBootstrap3ButtonModule</text>
</g>
<!-- SACBootstrap3ButtonModule&#45;&gt;SACBootstrap3TinyMceModule -->
<g id="edge2" class="edge">
<title>SACBootstrap3ButtonModule&#45;&gt;SACBootstrap3TinyMceModule</title>
<path fill="none" stroke="black" d="M703,-122.11C703,-141.34 703,-169 703,-169 703,-169 505.67,-169 505.67,-169"/>
<polygon fill="black" stroke="black" points="505.67,-165.5 495.67,-169 505.67,-172.5 505.67,-165.5"/>
</g>
<!-- SACBootstrap3DialogModule -->
<g id="node4" class="node">
<title>SACBootstrap3DialogModule</title>
<polygon fill="#8dd3c7" stroke="black" points="592.32,-122 589.32,-126 568.32,-126 565.32,-122 405.68,-122 405.68,-86 592.32,-86 592.32,-122"/>
<text text-anchor="middle" x="499" y="-99.8" font-family="Times,serif" font-size="14.00">SACBootstrap3DialogModule</text>
</g>
<!-- SACBootstrap3DialogModule&#45;&gt;SACBootstrap3TinyMceModule -->
<g id="edge3" class="edge">
<title>SACBootstrap3DialogModule&#45;&gt;SACBootstrap3TinyMceModule</title>
<path fill="none" stroke="black" d="M450.8,-122.11C450.8,-122.11 450.8,-140.99 450.8,-140.99"/>
<polygon fill="black" stroke="black" points="447.3,-140.99 450.8,-150.99 454.3,-140.99 447.3,-140.99"/>
</g>
<!-- SACBootstrap3LayoutModule -->
<g id="node5" class="node">
<title>SACBootstrap3LayoutModule</title>
<polygon fill="#8dd3c7" stroke="black" points="387.87,-122 384.87,-126 363.87,-126 360.87,-122 200.13,-122 200.13,-86 387.87,-86 387.87,-122"/>
<text text-anchor="middle" x="294" y="-99.8" font-family="Times,serif" font-size="14.00">SACBootstrap3LayoutModule</text>
</g>
<!-- SACBootstrap3LayoutModule&#45;&gt;SACBootstrap3TinyMceModule -->
<g id="edge4" class="edge">
<title>SACBootstrap3LayoutModule&#45;&gt;SACBootstrap3TinyMceModule</title>
<path fill="none" stroke="black" d="M342.09,-122.11C342.09,-122.11 342.09,-140.99 342.09,-140.99"/>
<polygon fill="black" stroke="black" points="338.59,-140.99 342.09,-150.99 345.59,-140.99 338.59,-140.99"/>
</g>
</g>
</svg>
