<?xml version="1.0" encoding="UTF-8" standalone="no"?>
<!DOCTYPE svg PUBLIC "-//W3C//DTD SVG 1.1//EN"
 "http://www.w3.org/Graphics/SVG/1.1/DTD/svg11.dtd">
<!-- Generated by graphviz version 2.40.1 (20161225.0304)
 -->
<!-- Title: dependencies Pages: 1 -->
<svg width="504pt" height="284pt"
 viewBox="0.00 0.00 504.00 284.00" xmlns="http://www.w3.org/2000/svg" xmlns:xlink="http://www.w3.org/1999/xlink">
<g id="graph0" class="graph" transform="scale(1 1) rotate(0) translate(4 280)">
<title>dependencies</title>
<polygon fill="#ffffff" stroke="transparent" points="-4,4 -4,-280 500,-280 500,4 -4,4"/>
<text text-anchor="start" x="227.0091" y="-42.4" font-family="sans-serif" font-weight="bold" font-size="14.00" fill="#000000">Legend</text>
<polygon fill="#ffffb3" stroke="transparent" points="14,-10 14,-30 34,-30 34,-10 14,-10"/>
<text text-anchor="start" x="37.629" y="-15.4" font-family="sans-serif" font-size="14.00" fill="#000000"> &#160;Declarations</text>
<polygon fill="#8dd3c7" stroke="transparent" points="127,-10 127,-30 147,-30 147,-10 127,-10"/>
<text text-anchor="start" x="150.7251" y="-15.4" font-family="sans-serif" font-size="14.00" fill="#000000"> &#160;Module</text>
<polygon fill="#80b1d3" stroke="transparent" points="213,-10 213,-30 233,-30 233,-10 213,-10"/>
<text text-anchor="start" x="236.7812" y="-15.4" font-family="sans-serif" font-size="14.00" fill="#000000"> &#160;Bootstrap</text>
<polygon fill="#fdb462" stroke="transparent" points="310,-10 310,-30 330,-30 330,-10 310,-10"/>
<text text-anchor="start" x="333.6732" y="-15.4" font-family="sans-serif" font-size="14.00" fill="#000000"> &#160;Providers</text>
<polygon fill="#fb8072" stroke="transparent" points="406,-10 406,-30 426,-30 426,-10 406,-10"/>
<text text-anchor="start" x="429.7258" y="-15.4" font-family="sans-serif" font-size="14.00" fill="#000000"> &#160;Exports</text>
<g id="clust1" class="cluster">
<title>cluster_jNetworkBootstrap3TabsModule</title>
<polygon fill="none" stroke="#000000" stroke-dasharray="1,5" points="139,-70 139,-268 357,-268 357,-70 139,-70"/>
</g>
<g id="clust2" class="cluster">
<title>cluster_jNetworkBootstrap3TabsModule_declarations</title>
<polygon fill="none" stroke="#000000" points="163,-78 163,-130 332,-130 332,-78 163,-78"/>
</g>
<g id="clust6" class="cluster">
<title>cluster_jNetworkBootstrap3TabsModule_exports</title>
<polygon fill="none" stroke="#000000" points="160,-208 160,-260 336,-260 336,-208 160,-208"/>
</g>
<!-- NgTab -->
<g id="node1" class="node">
<title>NgTab</title>
<polygon fill="#ffffb3" stroke="#000000" points="324.3739,-122 269.6261,-122 269.6261,-86 324.3739,-86 324.3739,-122"/>
<text text-anchor="middle" x="297" y="-99.8" font-family="Times,serif" font-size="14.00" fill="#000000">NgTab</text>
</g>
<!-- jNetworkBootstrap3TabsModule -->
<g id="node3" class="node">
<title>jNetworkBootstrap3TabsModule</title>
<polygon fill="#8dd3c7" stroke="#000000" points="348.5688,-187 345.5688,-191 324.5688,-191 321.5688,-187 147.4312,-187 147.4312,-151 348.5688,-151 348.5688,-187"/>
<text text-anchor="middle" x="248" y="-164.8" font-family="Times,serif" font-size="14.00" fill="#000000">jNetworkBootstrap3TabsModule</text>
</g>
<!-- NgTab&#45;&gt;jNetworkBootstrap3TabsModule -->
<g id="edge1" class="edge">
<title>NgTab&#45;&gt;jNetworkBootstrap3TabsModule</title>
<path fill="none" stroke="#000000" d="M297,-122.1061C297,-122.1061 297,-140.991 297,-140.991"/>
<polygon fill="#000000" stroke="#000000" points="293.5001,-140.9909 297,-150.991 300.5001,-140.991 293.5001,-140.9909"/>
</g>
<!-- NgTabItem -->
<g id="node2" class="node">
<title>NgTabItem</title>
<polygon fill="#ffffb3" stroke="#000000" points="251.0316,-122 170.9684,-122 170.9684,-86 251.0316,-86 251.0316,-122"/>
<text text-anchor="middle" x="211" y="-99.8" font-family="Times,serif" font-size="14.00" fill="#000000">NgTabItem</text>
</g>
<!-- NgTabItem&#45;&gt;jNetworkBootstrap3TabsModule -->
<g id="edge2" class="edge">
<title>NgTabItem&#45;&gt;jNetworkBootstrap3TabsModule</title>
<path fill="none" stroke="#000000" d="M211,-122.1061C211,-122.1061 211,-140.991 211,-140.991"/>
<polygon fill="#000000" stroke="#000000" points="207.5001,-140.9909 211,-150.991 214.5001,-140.991 207.5001,-140.9909"/>
</g>
<!-- NgTab  -->
<g id="node4" class="node">
<title>NgTab </title>
<polygon fill="#fb8072" stroke="#000000" points="328.375,-252 269.625,-252 269.625,-216 328.375,-216 328.375,-252"/>
<text text-anchor="middle" x="299" y="-229.8" font-family="Times,serif" font-size="14.00" fill="#000000">NgTab </text>
</g>
<!-- jNetworkBootstrap3TabsModule&#45;&gt;NgTab  -->
<g id="edge3" class="edge">
<title>jNetworkBootstrap3TabsModule&#45;&gt;NgTab </title>
<path fill="none" stroke="#000000" stroke-dasharray="5,2" d="M299,-187.1061C299,-187.1061 299,-205.991 299,-205.991"/>
<polygon fill="#000000" stroke="#000000" points="295.5001,-205.9909 299,-215.991 302.5001,-205.991 295.5001,-205.9909"/>
</g>
<!-- NgTabItem  -->
<g id="node5" class="node">
<title>NgTabItem </title>
<polygon fill="#fb8072" stroke="#000000" points="252.0302,-252 167.9698,-252 167.9698,-216 252.0302,-216 252.0302,-252"/>
<text text-anchor="middle" x="210" y="-229.8" font-family="Times,serif" font-size="14.00" fill="#000000">NgTabItem </text>
</g>
<!-- jNetworkBootstrap3TabsModule&#45;&gt;NgTabItem  -->
<g id="edge4" class="edge">
<title>jNetworkBootstrap3TabsModule&#45;&gt;NgTabItem </title>
<path fill="none" stroke="#000000" stroke-dasharray="5,2" d="M210,-187.1061C210,-187.1061 210,-205.991 210,-205.991"/>
<polygon fill="#000000" stroke="#000000" points="206.5001,-205.9909 210,-215.991 213.5001,-205.991 206.5001,-205.9909"/>
</g>
</g>
</svg>
