<?xml version="1.0" encoding="UTF-8" standalone="no"?>
<!DOCTYPE svg PUBLIC "-//W3C//DTD SVG 1.1//EN"
 "http://www.w3.org/Graphics/SVG/1.1/DTD/svg11.dtd">
<!-- Generated by graphviz version 2.46.0 (20210119.1425)
 -->
<!-- Title: dependencies Pages: 1 -->
<svg width="3400pt" height="276pt"
 viewBox="0.00 0.00 3400.00 276.00" xmlns="http://www.w3.org/2000/svg" xmlns:xlink="http://www.w3.org/1999/xlink">
<g id="graph0" class="graph" transform="scale(1 1) rotate(0) translate(4 272)">
<title>dependencies</title>
<polygon fill="white" stroke="transparent" points="-4,4 -4,-272 3396,-272 3396,4 -4,4"/>
<text text-anchor="start" x="1675.01" y="-42.4" font-family="sans-serif" font-weight="bold" font-size="14.00">Legend</text>
<polygon fill="#ffffb3" stroke="transparent" points="1462,-10 1462,-30 1482,-30 1482,-10 1462,-10"/>
<text text-anchor="start" x="1485.63" y="-15.4" font-family="sans-serif" font-size="14.00"> &#160;Declarations</text>
<polygon fill="#8dd3c7" stroke="transparent" points="1575,-10 1575,-30 1595,-30 1595,-10 1575,-10"/>
<text text-anchor="start" x="1598.73" y="-15.4" font-family="sans-serif" font-size="14.00"> &#160;Module</text>
<polygon fill="#80b1d3" stroke="transparent" points="1661,-10 1661,-30 1681,-30 1681,-10 1661,-10"/>
<text text-anchor="start" x="1684.78" y="-15.4" font-family="sans-serif" font-size="14.00"> &#160;Bootstrap</text>
<polygon fill="#fdb462" stroke="transparent" points="1758,-10 1758,-30 1778,-30 1778,-10 1758,-10"/>
<text text-anchor="start" x="1781.67" y="-15.4" font-family="sans-serif" font-size="14.00"> &#160;Providers</text>
<polygon fill="#fb8072" stroke="transparent" points="1854,-10 1854,-30 1874,-30 1874,-10 1854,-10"/>
<text text-anchor="start" x="1877.73" y="-15.4" font-family="sans-serif" font-size="14.00"> &#160;Exports</text>
<g id="clust1" class="cluster">
<title>cluster_JNetworkBootstrap4CheckboxModule</title>
<polygon fill="none" stroke="black" stroke-dasharray="1,5" points="8,-70 8,-260 3384,-260 3384,-70 8,-70"/>
</g>
<g id="clust2" class="cluster">
<title>cluster_JNetworkBootstrap4CheckboxModule_declarations</title>
<polygon fill="none" stroke="black" points="1496,-143 1496,-195 2044,-195 2044,-143 1496,-143"/>
</g>
<g id="clust3" class="cluster">
<title>cluster_JNetworkBootstrap4CheckboxModule_NgCheckboxComponent_providers</title>
<polygon fill="none" stroke="black" points="1798,-78 1798,-130 3376,-130 3376,-78 1798,-78"/>
</g>
<g id="clust5" class="cluster">
<title>cluster_JNetworkBootstrap4CheckboxModule_NgRadiobuttonsComponent_providers</title>
<polygon fill="none" stroke="black" points="16,-78 16,-130 1790,-130 1790,-78 16,-78"/>
</g>
<!-- NgCheckboxComponent -->
<g id="node1" class="node">
<title>NgCheckboxComponent</title>
<polygon fill="#ffffb3" stroke="black" points="2035.7,-187 1880.3,-187 1880.3,-151 2035.7,-151 2035.7,-187"/>
<text text-anchor="middle" x="1958" y="-164.8" font-family="Times,serif" font-size="14.00">NgCheckboxComponent</text>
</g>
<!-- JNetworkBootstrap4CheckboxModule -->
<g id="node4" class="node">
<title>JNetworkBootstrap4CheckboxModule</title>
<polygon fill="#8dd3c7" stroke="black" points="1895.18,-252 1892.18,-256 1871.18,-256 1868.18,-252 1662.82,-252 1662.82,-216 1895.18,-216 1895.18,-252"/>
<text text-anchor="middle" x="1779" y="-229.8" font-family="Times,serif" font-size="14.00">JNetworkBootstrap4CheckboxModule</text>
</g>
<!-- NgCheckboxComponent&#45;&gt;JNetworkBootstrap4CheckboxModule -->
<g id="edge1" class="edge">
<title>NgCheckboxComponent&#45;&gt;JNetworkBootstrap4CheckboxModule</title>
<path fill="none" stroke="black" d="M1887.74,-187.11C1887.74,-187.11 1887.74,-205.99 1887.74,-205.99"/>
<polygon fill="black" stroke="black" points="1884.24,-205.99 1887.74,-215.99 1891.24,-205.99 1884.24,-205.99"/>
</g>
<!-- NgRadiobuttonComponent -->
<g id="node2" class="node">
<title>NgRadiobuttonComponent</title>
<polygon fill="#ffffb3" stroke="black" points="1862.66,-187 1695.34,-187 1695.34,-151 1862.66,-151 1862.66,-187"/>
<text text-anchor="middle" x="1779" y="-164.8" font-family="Times,serif" font-size="14.00">NgRadiobuttonComponent</text>
</g>
<!-- NgRadiobuttonComponent&#45;&gt;JNetworkBootstrap4CheckboxModule -->
<g id="edge4" class="edge">
<title>NgRadiobuttonComponent&#45;&gt;JNetworkBootstrap4CheckboxModule</title>
<path fill="none" stroke="black" d="M1779,-187.11C1779,-187.11 1779,-205.99 1779,-205.99"/>
<polygon fill="black" stroke="black" points="1775.5,-205.99 1779,-215.99 1782.5,-205.99 1775.5,-205.99"/>
</g>
<!-- NgRadiobuttonsComponent -->
<g id="node3" class="node">
<title>NgRadiobuttonsComponent</title>
<polygon fill="#ffffb3" stroke="black" points="1677.61,-187 1504.39,-187 1504.39,-151 1677.61,-151 1677.61,-187"/>
<text text-anchor="middle" x="1591" y="-164.8" font-family="Times,serif" font-size="14.00">NgRadiobuttonsComponent</text>
</g>
<!-- NgRadiobuttonsComponent&#45;&gt;JNetworkBootstrap4CheckboxModule -->
<g id="edge5" class="edge">
<title>NgRadiobuttonsComponent&#45;&gt;JNetworkBootstrap4CheckboxModule</title>
<path fill="none" stroke="black" d="M1670.23,-187.11C1670.23,-187.11 1670.23,-205.99 1670.23,-205.99"/>
<polygon fill="black" stroke="black" points="1666.73,-205.99 1670.23,-215.99 1673.73,-205.99 1666.73,-205.99"/>
</g>
<!-- { provide: NG_VALUE_ACCESSOR, multi: true, useExisting: NgCheckboxComponent } -->
<g id="node5" class="node">
<title>{ provide: NG_VALUE_ACCESSOR, multi: true, useExisting: NgCheckboxComponent }</title>
<ellipse fill="#fdb462" stroke="black" cx="3006" cy="-104" rx="362.07" ry="18"/>
<text text-anchor="middle" x="3006" y="-99.8" font-family="Times,serif" font-size="14.00">{ provide: NG_VALUE_ACCESSOR, multi: true, useExisting: NgCheckboxComponent }</text>
</g>
<!-- { provide: NG_VALUE_ACCESSOR, multi: true, useExisting: NgCheckboxComponent }&#45;&gt;NgCheckboxComponent -->
<g id="edge2" class="edge">
<title>{ provide: NG_VALUE_ACCESSOR, multi: true, useExisting: NgCheckboxComponent }&#45;&gt;NgCheckboxComponent</title>
<path fill="none" stroke="black" d="M3006,-122.11C3006,-141.34 3006,-169 3006,-169 3006,-169 2045.91,-169 2045.91,-169"/>
<polygon fill="black" stroke="black" points="2045.91,-165.5 2035.91,-169 2045.91,-172.5 2045.91,-165.5"/>
</g>
<!-- { provide: NG_VALIDATORS, useExisting: forwardRef(() =&gt; NgCheckboxComponent), multi: true } -->
<g id="node6" class="node">
<title>{ provide: NG_VALIDATORS, useExisting: forwardRef(() =&gt; NgCheckboxComponent), multi: true }</title>
<ellipse fill="#fdb462" stroke="black" cx="2216" cy="-104" rx="409.7" ry="18"/>
<text text-anchor="middle" x="2216" y="-99.8" font-family="Times,serif" font-size="14.00">{ provide: NG_VALIDATORS, useExisting: forwardRef(() =&gt; NgCheckboxComponent), multi: true }</text>
</g>
<!-- { provide: NG_VALIDATORS, useExisting: forwardRef(() =&gt; NgCheckboxComponent), multi: true }&#45;&gt;NgCheckboxComponent -->
<g id="edge3" class="edge">
<title>{ provide: NG_VALIDATORS, useExisting: forwardRef(() =&gt; NgCheckboxComponent), multi: true }&#45;&gt;NgCheckboxComponent</title>
<path fill="none" stroke="black" d="M1958,-118.1C1958,-118.1 1958,-140.72 1958,-140.72"/>
<polygon fill="black" stroke="black" points="1954.5,-140.72 1958,-150.72 1961.5,-140.72 1954.5,-140.72"/>
</g>
<!-- { provide: NG_VALUE_ACCESSOR, useExisting: forwardRef(() =&gt; NgRadiobuttonsComponent), multi: true } -->
<g id="node7" class="node">
<title>{ provide: NG_VALUE_ACCESSOR, useExisting: forwardRef(() =&gt; NgRadiobuttonsComponent), multi: true }</title>
<ellipse fill="#fdb462" stroke="black" cx="1334" cy="-104" rx="447.92" ry="18"/>
<text text-anchor="middle" x="1334" y="-99.8" font-family="Times,serif" font-size="14.00">{ provide: NG_VALUE_ACCESSOR, useExisting: forwardRef(() =&gt; NgRadiobuttonsComponent), multi: true }</text>
</g>
<!-- { provide: NG_VALUE_ACCESSOR, useExisting: forwardRef(() =&gt; NgRadiobuttonsComponent), multi: true }&#45;&gt;NgRadiobuttonsComponent -->
<g id="edge6" class="edge">
<title>{ provide: NG_VALUE_ACCESSOR, useExisting: forwardRef(() =&gt; NgRadiobuttonsComponent), multi: true }&#45;&gt;NgRadiobuttonsComponent</title>
<path fill="none" stroke="black" d="M1591,-118.75C1591,-118.75 1591,-140.59 1591,-140.59"/>
<polygon fill="black" stroke="black" points="1587.5,-140.59 1591,-150.59 1594.5,-140.59 1587.5,-140.59"/>
</g>
<!-- { provide: NG_VALIDATORS, useExisting: forwardRef(() =&gt; NgRadiobuttonsComponent), multi: true } -->
<g id="node8" class="node">
<title>{ provide: NG_VALIDATORS, useExisting: forwardRef(() =&gt; NgRadiobuttonsComponent), multi: true }</title>
<ellipse fill="#fdb462" stroke="black" cx="446" cy="-104" rx="421.9" ry="18"/>
<text text-anchor="middle" x="446" y="-99.8" font-family="Times,serif" font-size="14.00">{ provide: NG_VALIDATORS, useExisting: forwardRef(() =&gt; NgRadiobuttonsComponent), multi: true }</text>
</g>
<!-- { provide: NG_VALIDATORS, useExisting: forwardRef(() =&gt; NgRadiobuttonsComponent), multi: true }&#45;&gt;NgRadiobuttonsComponent -->
<g id="edge7" class="edge">
<title>{ provide: NG_VALIDATORS, useExisting: forwardRef(() =&gt; NgRadiobuttonsComponent), multi: true }&#45;&gt;NgRadiobuttonsComponent</title>
<path fill="none" stroke="black" d="M446,-122.11C446,-141.34 446,-169 446,-169 446,-169 1494,-169 1494,-169"/>
<polygon fill="black" stroke="black" points="1494,-172.5 1504,-169 1494,-165.5 1494,-172.5"/>
</g>
</g>
</svg>
