<?xml version="1.0" encoding="UTF-8" standalone="no"?>
<!DOCTYPE svg PUBLIC "-//W3C//DTD SVG 1.1//EN"
 "http://www.w3.org/Graphics/SVG/1.1/DTD/svg11.dtd">
<!-- Generated by graphviz version 2.46.0 (20210119.1425)
 -->
<!-- Title: dependencies Pages: 1 -->
<svg width="3251pt" height="276pt"
 viewBox="0.00 0.00 3251.00 276.00" xmlns="http://www.w3.org/2000/svg" xmlns:xlink="http://www.w3.org/1999/xlink">
<g id="graph0" class="graph" transform="scale(1 1) rotate(0) translate(4 272)">
<title>dependencies</title>
<polygon fill="white" stroke="transparent" points="-4,4 -4,-272 3247,-272 3247,4 -4,4"/>
<text text-anchor="start" x="1600.51" y="-42.4" font-family="sans-serif" font-weight="bold" font-size="14.00">Legend</text>
<polygon fill="#ffffb3" stroke="transparent" points="1387.5,-10 1387.5,-30 1407.5,-30 1407.5,-10 1387.5,-10"/>
<text text-anchor="start" x="1411.13" y="-15.4" font-family="sans-serif" font-size="14.00"> &#160;Declarations</text>
<polygon fill="#8dd3c7" stroke="transparent" points="1500.5,-10 1500.5,-30 1520.5,-30 1520.5,-10 1500.5,-10"/>
<text text-anchor="start" x="1524.23" y="-15.4" font-family="sans-serif" font-size="14.00"> &#160;Module</text>
<polygon fill="#80b1d3" stroke="transparent" points="1586.5,-10 1586.5,-30 1606.5,-30 1606.5,-10 1586.5,-10"/>
<text text-anchor="start" x="1610.28" y="-15.4" font-family="sans-serif" font-size="14.00"> &#160;Bootstrap</text>
<polygon fill="#fdb462" stroke="transparent" points="1683.5,-10 1683.5,-30 1703.5,-30 1703.5,-10 1683.5,-10"/>
<text text-anchor="start" x="1707.17" y="-15.4" font-family="sans-serif" font-size="14.00"> &#160;Providers</text>
<polygon fill="#fb8072" stroke="transparent" points="1779.5,-10 1779.5,-30 1799.5,-30 1799.5,-10 1779.5,-10"/>
<text text-anchor="start" x="1803.23" y="-15.4" font-family="sans-serif" font-size="14.00"> &#160;Exports</text>
<g id="clust1" class="cluster">
<title>cluster_JNetworkBootstrap4UploadModule</title>
<polygon fill="none" stroke="black" stroke-dasharray="1,5" points="8,-70 8,-260 3235,-260 3235,-70 8,-70"/>
</g>
<g id="clust3" class="cluster">
<title>cluster_JNetworkBootstrap4UploadModule_NgUploadComponent_providers</title>
<polygon fill="none" stroke="black" points="1692,-78 1692,-195 3227,-195 3227,-78 1692,-78"/>
</g>
<g id="clust2" class="cluster">
<title>cluster_JNetworkBootstrap4UploadModule_declarations</title>
<polygon fill="none" stroke="black" points="1189,-143 1189,-195 1393,-195 1393,-143 1189,-143"/>
</g>
<g id="clust4" class="cluster">
<title>cluster_JNetworkBootstrap4UploadModule_NgUploadMultipleComponent_providers</title>
<polygon fill="none" stroke="black" points="16,-78 16,-130 1684,-130 1684,-78 16,-78"/>
</g>
<!-- NgUploadComponent -->
<g id="node1" class="node">
<title>NgUploadComponent</title>
<polygon fill="#ffffb3" stroke="black" points="2168.65,-187 2029.35,-187 2029.35,-151 2168.65,-151 2168.65,-187"/>
<text text-anchor="middle" x="2099" y="-164.8" font-family="Times,serif" font-size="14.00">NgUploadComponent</text>
</g>
<!-- JNetworkBootstrap4UploadModule -->
<g id="node3" class="node">
<title>JNetworkBootstrap4UploadModule</title>
<polygon fill="#8dd3c7" stroke="black" points="1803.12,-252 1800.12,-256 1779.12,-256 1776.12,-252 1586.88,-252 1586.88,-216 1803.12,-216 1803.12,-252"/>
<text text-anchor="middle" x="1695" y="-229.8" font-family="Times,serif" font-size="14.00">JNetworkBootstrap4UploadModule</text>
</g>
<!-- NgUploadComponent&#45;&gt;JNetworkBootstrap4UploadModule -->
<g id="edge1" class="edge">
<title>NgUploadComponent&#45;&gt;JNetworkBootstrap4UploadModule</title>
<path fill="none" stroke="black" d="M2029.14,-163C1927.73,-163 1751.72,-163 1751.72,-163 1751.72,-163 1751.72,-205.72 1751.72,-205.72"/>
<polygon fill="black" stroke="black" points="1748.22,-205.72 1751.72,-215.72 1755.22,-205.72 1748.22,-205.72"/>
</g>
<!-- NgUploadMultipleComponent -->
<g id="node2" class="node">
<title>NgUploadMultipleComponent</title>
<polygon fill="#ffffb3" stroke="black" points="1384.87,-187 1197.13,-187 1197.13,-151 1384.87,-151 1384.87,-187"/>
<text text-anchor="middle" x="1291" y="-164.8" font-family="Times,serif" font-size="14.00">NgUploadMultipleComponent</text>
</g>
<!-- NgUploadMultipleComponent&#45;&gt;JNetworkBootstrap4UploadModule -->
<g id="edge4" class="edge">
<title>NgUploadMultipleComponent&#45;&gt;JNetworkBootstrap4UploadModule</title>
<path fill="none" stroke="black" d="M1384.88,-175C1485.59,-175 1631.25,-175 1631.25,-175 1631.25,-175 1631.25,-205.98 1631.25,-205.98"/>
<polygon fill="black" stroke="black" points="1627.75,-205.98 1631.25,-215.98 1634.75,-205.98 1627.75,-205.98"/>
</g>
<!-- { provide: NG_VALUE_ACCESSOR, multi: true, useExisting: NgUploadComponent } -->
<g id="node4" class="node">
<title>{ provide: NG_VALUE_ACCESSOR, multi: true, useExisting: NgUploadComponent }</title>
<ellipse fill="#fdb462" stroke="black" cx="2867" cy="-104" rx="351.61" ry="18"/>
<text text-anchor="middle" x="2867" y="-99.8" font-family="Times,serif" font-size="14.00">{ provide: NG_VALUE_ACCESSOR, multi: true, useExisting: NgUploadComponent }</text>
</g>
<!-- { provide: NG_VALUE_ACCESSOR, multi: true, useExisting: NgUploadComponent }&#45;&gt;NgUploadComponent -->
<g id="edge2" class="edge">
<title>{ provide: NG_VALUE_ACCESSOR, multi: true, useExisting: NgUploadComponent }&#45;&gt;NgUploadComponent</title>
<path fill="none" stroke="black" d="M2867,-122.11C2867,-141.34 2867,-169 2867,-169 2867,-169 2178.85,-169 2178.85,-169"/>
<polygon fill="black" stroke="black" points="2178.85,-165.5 2168.85,-169 2178.85,-172.5 2178.85,-165.5"/>
</g>
<!-- { provide: NG_VALIDATORS, multi: true, useExisting: forwardRef(() =&gt; NgUploadComponent) } -->
<g id="node5" class="node">
<title>{ provide: NG_VALIDATORS, multi: true, useExisting: forwardRef(() =&gt; NgUploadComponent) }</title>
<ellipse fill="#fdb462" stroke="black" cx="2099" cy="-104" rx="398.75" ry="18"/>
<text text-anchor="middle" x="2099" y="-99.8" font-family="Times,serif" font-size="14.00">{ provide: NG_VALIDATORS, multi: true, useExisting: forwardRef(() =&gt; NgUploadComponent) }</text>
</g>
<!-- { provide: NG_VALIDATORS, multi: true, useExisting: forwardRef(() =&gt; NgUploadComponent) }&#45;&gt;NgUploadComponent -->
<g id="edge3" class="edge">
<title>{ provide: NG_VALIDATORS, multi: true, useExisting: forwardRef(() =&gt; NgUploadComponent) }&#45;&gt;NgUploadComponent</title>
<path fill="none" stroke="black" d="M2099,-122.11C2099,-122.11 2099,-140.99 2099,-140.99"/>
<polygon fill="black" stroke="black" points="2095.5,-140.99 2099,-150.99 2102.5,-140.99 2095.5,-140.99"/>
</g>
<!-- { provide: NG_VALUE_ACCESSOR, multi: true, useExisting: NgUploadMultipleComponent } -->
<g id="node6" class="node">
<title>{ provide: NG_VALUE_ACCESSOR, multi: true, useExisting: NgUploadMultipleComponent }</title>
<ellipse fill="#fdb462" stroke="black" cx="1291" cy="-104" rx="384.63" ry="18"/>
<text text-anchor="middle" x="1291" y="-99.8" font-family="Times,serif" font-size="14.00">{ provide: NG_VALUE_ACCESSOR, multi: true, useExisting: NgUploadMultipleComponent }</text>
</g>
<!-- { provide: NG_VALUE_ACCESSOR, multi: true, useExisting: NgUploadMultipleComponent }&#45;&gt;NgUploadMultipleComponent -->
<g id="edge5" class="edge">
<title>{ provide: NG_VALUE_ACCESSOR, multi: true, useExisting: NgUploadMultipleComponent }&#45;&gt;NgUploadMultipleComponent</title>
<path fill="none" stroke="black" d="M1291,-122.11C1291,-122.11 1291,-140.99 1291,-140.99"/>
<polygon fill="black" stroke="black" points="1287.5,-140.99 1291,-150.99 1294.5,-140.99 1287.5,-140.99"/>
</g>
<!-- { provide: NG_VALIDATORS, multi: true, useExisting: forwardRef(() =&gt; NgUploadMultipleComponent) } -->
<g id="node7" class="node">
<title>{ provide: NG_VALIDATORS, multi: true, useExisting: forwardRef(() =&gt; NgUploadMultipleComponent) }</title>
<ellipse fill="#fdb462" stroke="black" cx="456" cy="-104" rx="432.27" ry="18"/>
<text text-anchor="middle" x="456" y="-99.8" font-family="Times,serif" font-size="14.00">{ provide: NG_VALIDATORS, multi: true, useExisting: forwardRef(() =&gt; NgUploadMultipleComponent) }</text>
</g>
<!-- { provide: NG_VALIDATORS, multi: true, useExisting: forwardRef(() =&gt; NgUploadMultipleComponent) }&#45;&gt;NgUploadMultipleComponent -->
<g id="edge6" class="edge">
<title>{ provide: NG_VALIDATORS, multi: true, useExisting: forwardRef(() =&gt; NgUploadMultipleComponent) }&#45;&gt;NgUploadMultipleComponent</title>
<path fill="none" stroke="black" d="M456,-122.11C456,-141.34 456,-169 456,-169 456,-169 1186.84,-169 1186.84,-169"/>
<polygon fill="black" stroke="black" points="1186.84,-172.5 1196.84,-169 1186.84,-165.5 1186.84,-172.5"/>
</g>
</g>
</svg>
