<?xml version="1.0" encoding="UTF-8" standalone="no"?>
<!DOCTYPE svg PUBLIC "-//W3C//DTD SVG 1.1//EN"
 "http://www.w3.org/Graphics/SVG/1.1/DTD/svg11.dtd">
<!-- Generated by graphviz version 2.47.0 (20210316.0004)
 -->
<!-- Title: dependencies Pages: 1 -->
<svg width="1549pt" height="284pt"
 viewBox="0.00 0.00 1549.00 284.00" xmlns="http://www.w3.org/2000/svg" xmlns:xlink="http://www.w3.org/1999/xlink">
<g id="graph0" class="graph" transform="scale(1 1) rotate(0) translate(4 280)">
<title>dependencies</title>
<polygon fill="white" stroke="transparent" points="-4,4 -4,-280 1545,-280 1545,4 -4,4"/>
<text text-anchor="start" x="749.51" y="-42.4" font-family="Times-12" font-weight="bold" font-size="14.00">Legend</text>
<polygon fill="#ffffb3" stroke="transparent" points="536.5,-10 536.5,-30 556.5,-30 556.5,-10 536.5,-10"/>
<text text-anchor="start" x="560.13" y="-15.4" font-family="Times-12" font-size="14.00"> &#160;Declarations</text>
<polygon fill="#8dd3c7" stroke="transparent" points="649.5,-10 649.5,-30 669.5,-30 669.5,-10 649.5,-10"/>
<text text-anchor="start" x="673.23" y="-15.4" font-family="Times-12" font-size="14.00"> &#160;Module</text>
<polygon fill="#80b1d3" stroke="transparent" points="735.5,-10 735.5,-30 755.5,-30 755.5,-10 735.5,-10"/>
<text text-anchor="start" x="759.28" y="-15.4" font-family="Times-12" font-size="14.00"> &#160;Bootstrap</text>
<polygon fill="#fdb462" stroke="transparent" points="832.5,-10 832.5,-30 852.5,-30 852.5,-10 832.5,-10"/>
<text text-anchor="start" x="856.17" y="-15.4" font-family="Times-12" font-size="14.00"> &#160;Providers</text>
<polygon fill="#fb8072" stroke="transparent" points="928.5,-10 928.5,-30 948.5,-30 948.5,-10 928.5,-10"/>
<text text-anchor="start" x="952.23" y="-15.4" font-family="Times-12" font-size="14.00"> &#160;Exports</text>
<g id="clust1" class="cluster">
<title>cluster_SACBootstrap4InputModule</title>
<polygon fill="none" stroke="black" stroke-dasharray="1,5" points="8,-70 8,-268 1533,-268 1533,-70 8,-70"/>
</g>
<g id="clust2" class="cluster">
<title>cluster_SACBootstrap4InputModule_declarations</title>
<polygon fill="none" stroke="black" points="31,-78 31,-130 1515,-130 1515,-78 31,-78"/>
</g>
<g id="clust12" class="cluster">
<title>cluster_SACBootstrap4InputModule_exports</title>
<polygon fill="none" stroke="black" points="16,-208 16,-260 1525,-260 1525,-208 16,-208"/>
</g>
<!-- SacInputAreaComponent -->
<g id="node1" class="node">
<title>SacInputAreaComponent</title>
<polygon fill="#ffffb3" stroke="black" points="1507.29,-122 1348.71,-122 1348.71,-86 1507.29,-86 1507.29,-122"/>
<text text-anchor="middle" x="1428" y="-99.8" font-family="Times,serif" font-size="14.00">SacInputAreaComponent</text>
</g>
<!-- SACBootstrap4InputModule -->
<g id="node9" class="node">
<title>SACBootstrap4InputModule</title>
<polygon fill="#8dd3c7" stroke="black" points="794.76,-187 791.76,-191 770.76,-191 767.76,-187 617.24,-187 617.24,-151 794.76,-151 794.76,-187"/>
<text text-anchor="middle" x="706" y="-164.8" font-family="Times,serif" font-size="14.00">SACBootstrap4InputModule</text>
</g>
<!-- SacInputAreaComponent&#45;&gt;SACBootstrap4InputModule -->
<g id="edge1" class="edge">
<title>SacInputAreaComponent&#45;&gt;SACBootstrap4InputModule</title>
<path fill="none" stroke="black" d="M1456.47,-122.22C1456.47,-140.83 1456.47,-167 1456.47,-167 1456.47,-167 805.04,-167 805.04,-167"/>
<polygon fill="black" stroke="black" points="805.04,-163.5 795.04,-167 805.04,-170.5 805.04,-163.5"/>
</g>
<!-- SacInputComponent -->
<g id="node2" class="node">
<title>SacInputComponent</title>
<polygon fill="#ffffb3" stroke="black" points="1330.6,-122 1199.4,-122 1199.4,-86 1330.6,-86 1330.6,-122"/>
<text text-anchor="middle" x="1265" y="-99.8" font-family="Times,serif" font-size="14.00">SacInputComponent</text>
</g>
<!-- SacInputComponent&#45;&gt;SACBootstrap4InputModule -->
<g id="edge2" class="edge">
<title>SacInputComponent&#45;&gt;SACBootstrap4InputModule</title>
<path fill="none" stroke="black" d="M1287.93,-122.03C1287.93,-139.06 1287.93,-162 1287.93,-162 1287.93,-162 805.02,-162 805.02,-162"/>
<polygon fill="black" stroke="black" points="805.02,-158.5 795.02,-162 805.02,-165.5 805.02,-158.5"/>
</g>
<!-- SacInputCurrencyComponent -->
<g id="node3" class="node">
<title>SacInputCurrencyComponent</title>
<polygon fill="#ffffb3" stroke="black" points="1181.68,-122 998.32,-122 998.32,-86 1181.68,-86 1181.68,-122"/>
<text text-anchor="middle" x="1090" y="-99.8" font-family="Times,serif" font-size="14.00">SacInputCurrencyComponent</text>
</g>
<!-- SacInputCurrencyComponent&#45;&gt;SACBootstrap4InputModule -->
<g id="edge3" class="edge">
<title>SacInputCurrencyComponent&#45;&gt;SACBootstrap4InputModule</title>
<path fill="none" stroke="black" d="M1120.53,-122.24C1120.53,-137.57 1120.53,-157 1120.53,-157 1120.53,-157 804.93,-157 804.93,-157"/>
<polygon fill="black" stroke="black" points="804.93,-153.5 794.93,-157 804.93,-160.5 804.93,-153.5"/>
</g>
<!-- SacInputDecimalComponent -->
<g id="node4" class="node">
<title>SacInputDecimalComponent</title>
<polygon fill="#ffffb3" stroke="black" points="980.02,-122 801.98,-122 801.98,-86 980.02,-86 980.02,-122"/>
<text text-anchor="middle" x="891" y="-99.8" font-family="Times,serif" font-size="14.00">SacInputDecimalComponent</text>
</g>
<!-- SacInputDecimalComponent&#45;&gt;SACBootstrap4InputModule -->
<g id="edge4" class="edge">
<title>SacInputDecimalComponent&#45;&gt;SACBootstrap4InputModule</title>
<path fill="none" stroke="black" d="M801.57,-104C793.95,-104 789.07,-104 789.07,-104 789.07,-104 789.07,-140.89 789.07,-140.89"/>
<polygon fill="black" stroke="black" points="785.57,-140.89 789.07,-150.89 792.57,-140.89 785.57,-140.89"/>
</g>
<!-- SacInputEmailComponent -->
<g id="node5" class="node">
<title>SacInputEmailComponent</title>
<polygon fill="#ffffb3" stroke="black" points="783.04,-122 618.96,-122 618.96,-86 783.04,-86 783.04,-122"/>
<text text-anchor="middle" x="701" y="-99.8" font-family="Times,serif" font-size="14.00">SacInputEmailComponent</text>
</g>
<!-- SacInputEmailComponent&#45;&gt;SACBootstrap4InputModule -->
<g id="edge5" class="edge">
<title>SacInputEmailComponent&#45;&gt;SACBootstrap4InputModule</title>
<path fill="none" stroke="black" d="M701,-122.11C701,-122.11 701,-140.99 701,-140.99"/>
<polygon fill="black" stroke="black" points="697.5,-140.99 701,-150.99 704.5,-140.99 697.5,-140.99"/>
</g>
<!-- SacInputIntegerComponent -->
<g id="node6" class="node">
<title>SacInputIntegerComponent</title>
<polygon fill="#ffffb3" stroke="black" points="600.24,-122 429.76,-122 429.76,-86 600.24,-86 600.24,-122"/>
<text text-anchor="middle" x="515" y="-99.8" font-family="Times,serif" font-size="14.00">SacInputIntegerComponent</text>
</g>
<!-- SacInputIntegerComponent&#45;&gt;SACBootstrap4InputModule -->
<g id="edge6" class="edge">
<title>SacInputIntegerComponent&#45;&gt;SACBootstrap4InputModule</title>
<path fill="none" stroke="black" d="M539.29,-122.24C539.29,-137.57 539.29,-157 539.29,-157 539.29,-157 606.79,-157 606.79,-157"/>
<polygon fill="black" stroke="black" points="606.79,-160.5 616.79,-157 606.79,-153.5 606.79,-160.5"/>
</g>
<!-- SacInputPasswordComponent -->
<g id="node7" class="node">
<title>SacInputPasswordComponent</title>
<polygon fill="#ffffb3" stroke="black" points="411.25,-122 226.75,-122 226.75,-86 411.25,-86 411.25,-122"/>
<text text-anchor="middle" x="319" y="-99.8" font-family="Times,serif" font-size="14.00">SacInputPasswordComponent</text>
</g>
<!-- SacInputPasswordComponent&#45;&gt;SACBootstrap4InputModule -->
<g id="edge7" class="edge">
<title>SacInputPasswordComponent&#45;&gt;SACBootstrap4InputModule</title>
<path fill="none" stroke="black" d="M406.75,-122.03C406.75,-139.06 406.75,-162 406.75,-162 406.75,-162 607.03,-162 607.03,-162"/>
<polygon fill="black" stroke="black" points="607.03,-165.5 617.03,-162 607.03,-158.5 607.03,-165.5"/>
</g>
<!-- SacInputSearchComponent -->
<g id="node8" class="node">
<title>SacInputSearchComponent</title>
<polygon fill="#ffffb3" stroke="black" points="208.68,-122 39.32,-122 39.32,-86 208.68,-86 208.68,-122"/>
<text text-anchor="middle" x="124" y="-99.8" font-family="Times,serif" font-size="14.00">SacInputSearchComponent</text>
</g>
<!-- SacInputSearchComponent&#45;&gt;SACBootstrap4InputModule -->
<g id="edge8" class="edge">
<title>SacInputSearchComponent&#45;&gt;SACBootstrap4InputModule</title>
<path fill="none" stroke="black" d="M202.47,-122.22C202.47,-140.83 202.47,-167 202.47,-167 202.47,-167 607.14,-167 607.14,-167"/>
<polygon fill="black" stroke="black" points="607.14,-170.5 617.14,-167 607.14,-163.5 607.14,-170.5"/>
</g>
<!-- SacInputAreaComponent  -->
<g id="node10" class="node">
<title>SacInputAreaComponent </title>
<polygon fill="#fb8072" stroke="black" points="1516.79,-252 1355.21,-252 1355.21,-216 1516.79,-216 1516.79,-252"/>
<text text-anchor="middle" x="1436" y="-229.8" font-family="Times,serif" font-size="14.00">SacInputAreaComponent </text>
</g>
<!-- SACBootstrap4InputModule&#45;&gt;SacInputAreaComponent  -->
<g id="edge9" class="edge">
<title>SACBootstrap4InputModule&#45;&gt;SacInputAreaComponent </title>
<path fill="none" stroke="black" stroke-dasharray="5,2" d="M794.98,-172C983.46,-172 1405.78,-172 1405.78,-172 1405.78,-172 1405.78,-205.73 1405.78,-205.73"/>
<polygon fill="black" stroke="black" points="1402.28,-205.73 1405.78,-215.73 1409.28,-205.73 1402.28,-205.73"/>
</g>
<!-- SacInputComponent  -->
<g id="node11" class="node">
<title>SacInputComponent </title>
<polygon fill="#fb8072" stroke="black" points="1337.1,-252 1202.9,-252 1202.9,-216 1337.1,-216 1337.1,-252"/>
<text text-anchor="middle" x="1270" y="-229.8" font-family="Times,serif" font-size="14.00">SacInputComponent </text>
</g>
<!-- SACBootstrap4InputModule&#45;&gt;SacInputComponent  -->
<g id="edge10" class="edge">
<title>SACBootstrap4InputModule&#45;&gt;SacInputComponent </title>
<path fill="none" stroke="black" stroke-dasharray="5,2" d="M795.06,-177C948.24,-177 1245.32,-177 1245.32,-177 1245.32,-177 1245.32,-205.96 1245.32,-205.96"/>
<polygon fill="black" stroke="black" points="1241.82,-205.96 1245.32,-215.96 1248.82,-205.96 1241.82,-205.96"/>
</g>
<!-- SacInputCurrencyComponent  -->
<g id="node12" class="node">
<title>SacInputCurrencyComponent </title>
<polygon fill="#fb8072" stroke="black" points="1184.18,-252 997.82,-252 997.82,-216 1184.18,-216 1184.18,-252"/>
<text text-anchor="middle" x="1091" y="-229.8" font-family="Times,serif" font-size="14.00">SacInputCurrencyComponent </text>
</g>
<!-- SACBootstrap4InputModule&#45;&gt;SacInputCurrencyComponent  -->
<g id="edge11" class="edge">
<title>SACBootstrap4InputModule&#45;&gt;SacInputCurrencyComponent </title>
<path fill="none" stroke="black" stroke-dasharray="5,2" d="M795.2,-182C899.91,-182 1059.47,-182 1059.47,-182 1059.47,-182 1059.47,-205.81 1059.47,-205.81"/>
<polygon fill="black" stroke="black" points="1055.97,-205.81 1059.47,-215.81 1062.97,-205.81 1055.97,-205.81"/>
</g>
<!-- SacInputDecimalComponent  -->
<g id="node13" class="node">
<title>SacInputDecimalComponent </title>
<polygon fill="#fb8072" stroke="black" points="980.02,-252 797.98,-252 797.98,-216 980.02,-216 980.02,-252"/>
<text text-anchor="middle" x="889" y="-229.8" font-family="Times,serif" font-size="14.00">SacInputDecimalComponent </text>
</g>
<!-- SACBootstrap4InputModule&#45;&gt;SacInputDecimalComponent  -->
<g id="edge12" class="edge">
<title>SACBootstrap4InputModule&#45;&gt;SacInputDecimalComponent </title>
<path fill="none" stroke="black" stroke-dasharray="5,2" d="M787.45,-187.11C787.45,-206.34 787.45,-234 787.45,-234 787.45,-234 788.5,-234 788.5,-234"/>
<polygon fill="black" stroke="black" points="787.93,-237.5 797.93,-234 787.93,-230.5 787.93,-237.5"/>
</g>
<!-- SacInputEmailComponent  -->
<g id="node14" class="node">
<title>SacInputEmailComponent </title>
<polygon fill="#fb8072" stroke="black" points="780.03,-252 611.97,-252 611.97,-216 780.03,-216 780.03,-252"/>
<text text-anchor="middle" x="696" y="-229.8" font-family="Times,serif" font-size="14.00">SacInputEmailComponent </text>
</g>
<!-- SACBootstrap4InputModule&#45;&gt;SacInputEmailComponent  -->
<g id="edge13" class="edge">
<title>SACBootstrap4InputModule&#45;&gt;SacInputEmailComponent </title>
<path fill="none" stroke="black" stroke-dasharray="5,2" d="M698.57,-187.11C698.57,-187.11 698.57,-205.99 698.57,-205.99"/>
<polygon fill="black" stroke="black" points="695.07,-205.99 698.57,-215.99 702.07,-205.99 695.07,-205.99"/>
</g>
<!-- SacInputIntegerComponent  -->
<g id="node15" class="node">
<title>SacInputIntegerComponent </title>
<polygon fill="#fb8072" stroke="black" points="594.24,-252 419.76,-252 419.76,-216 594.24,-216 594.24,-252"/>
<text text-anchor="middle" x="507" y="-229.8" font-family="Times,serif" font-size="14.00">SacInputIntegerComponent </text>
</g>
<!-- SACBootstrap4InputModule&#45;&gt;SacInputIntegerComponent  -->
<g id="edge14" class="edge">
<title>SACBootstrap4InputModule&#45;&gt;SacInputIntegerComponent </title>
<path fill="none" stroke="black" stroke-dasharray="5,2" d="M617.17,-182C555.53,-182 484.46,-182 484.46,-182 484.46,-182 484.46,-205.81 484.46,-205.81"/>
<polygon fill="black" stroke="black" points="480.96,-205.81 484.46,-215.81 487.96,-205.81 480.96,-205.81"/>
</g>
<!-- SacInputPasswordComponent  -->
<g id="node16" class="node">
<title>SacInputPasswordComponent </title>
<polygon fill="#fb8072" stroke="black" points="402.25,-252 213.75,-252 213.75,-216 402.25,-216 402.25,-252"/>
<text text-anchor="middle" x="308" y="-229.8" font-family="Times,serif" font-size="14.00">SacInputPasswordComponent </text>
</g>
<!-- SACBootstrap4InputModule&#45;&gt;SacInputPasswordComponent  -->
<g id="edge15" class="edge">
<title>SACBootstrap4InputModule&#45;&gt;SacInputPasswordComponent </title>
<path fill="none" stroke="black" stroke-dasharray="5,2" d="M617.13,-177C501.59,-177 314.38,-177 314.38,-177 314.38,-177 314.38,-205.96 314.38,-205.96"/>
<polygon fill="black" stroke="black" points="310.88,-205.96 314.38,-215.96 317.88,-205.96 310.88,-205.96"/>
</g>
<!-- SacInputSearchComponent  -->
<g id="node17" class="node">
<title>SacInputSearchComponent </title>
<polygon fill="#fb8072" stroke="black" points="196.18,-252 23.82,-252 23.82,-216 196.18,-216 196.18,-252"/>
<text text-anchor="middle" x="110" y="-229.8" font-family="Times,serif" font-size="14.00">SacInputSearchComponent </text>
</g>
<!-- SACBootstrap4InputModule&#45;&gt;SacInputSearchComponent  -->
<g id="edge16" class="edge">
<title>SACBootstrap4InputModule&#45;&gt;SacInputSearchComponent </title>
<path fill="none" stroke="black" stroke-dasharray="5,2" d="M617,-172C452.58,-172 117.88,-172 117.88,-172 117.88,-172 117.88,-205.73 117.88,-205.73"/>
<polygon fill="black" stroke="black" points="114.38,-205.73 117.88,-215.73 121.38,-205.73 114.38,-205.73"/>
</g>
</g>
</svg>
