<?xml version="1.0" encoding="UTF-8"?>
<!DOCTYPE svg PUBLIC "-//W3C//DTD SVG 1.1//EN" "http://www.w3.org/Graphics/SVG/1.1/DTD/svg11.dtd">
<svg viewBox="0 0 1024 1024" xmlns="http://www.w3.org/2000/svg" xmlns:xlink="http://www.w3.org/1999/xlink">
  <style>:root>svg{display:none}:root>svg:target{display:block}</style>
  <svg xml:space="preserve" shape-rendering="geometricPrecision" text-rendering="geometricPrecision" image-rendering="optimizeQuality" fill-rule="nonzero" clip-rule="evenodd" viewBox="0 0 10240 10240" id="3d_glasses" xmlns="http://www.w3.org/2000/svg">
	<title>3D_glasses icon</title>
	<desc>3D_glasses icon from the IconExperience.com O-Collection. Copyright by INCORS GmbH (www.incors.com).</desc>
	<path id="acurve2" fill="#3E9BD5" d="M6669 6080c-89,-175 -174,-356 -261,-531 -39,-78 -85,-152 -137,-222 -131,-175 -191,-356 -191,-575l0 -592 2560 0 0 1920 -1971 0z"/>
	<path id="acurve1" fill="#3E9BD5" d="M3571 6080c89,-175 174,-356 261,-531 39,-78 85,-152 137,-222 131,-175 191,-356 191,-575l0 -592 -2560 0 0 1920 1971 0z"/>
	<path id="acurve0" fill="#252525" d="M960 3200l8320 0c176,0 320,144 320,320l0 3200c0,176 -144,320 -320,320l-2804 0c-249,0 -462,-132 -573,-354l-354 -707c-83,-167 -243,-266 -429,-266 -186,0 -346,99 -429,266l-354 707c-111,222 -324,354 -573,354l-2804 0c-176,0 -320,-144 -320,-320l0 -3200c0,-176 144,-320 320,-320zm5162 2492c120,240 249,708 547,708l1971 0c176,0 320,-144 320,-320l0 -1920c0,-176 -144,-320 -320,-320l-2560 0c-176,0 -320,144 -320,320l0 592c0,288 83,536 255,767 41,54 76,113 107,173zm-2551 708c123,0 229,-65 285,-175 90,-177 174,-356 262,-533 31,-60 67,-119 107,-173 172,-231 255,-479 255,-767l0 -592c0,-176 -144,-320 -320,-320l-2560 0c-176,0 -320,144 -320,320l0 1920c0,176 144,320 320,320l1971 0z"/>
</svg>
  <svg xml:space="preserve" shape-rendering="geometricPrecision" text-rendering="geometricPrecision" image-rendering="optimizeQuality" fill-rule="nonzero" clip-rule="evenodd" viewBox="0 0 10240 10240" id="about" xmlns="http://www.w3.org/2000/svg">
	<title>about icon</title>
	<desc>about icon from the IconExperience.com O-Collection. Copyright by INCORS GmbH (www.incors.com).</desc>
	<path id="bcurve1" fill="#3E9BD5" d="M4700 6720l853 0c118,0 213,96 213,214l0 853c0,117 -95,213 -213,213l-853 0c-117,0 -213,-96 -213,-213l0 -853c0,-118 96,-214 213,-214zm-220 -4480l1280 0c88,0 160,72 160,160l0 1059c0,273 -20,505 -68,773l-309 1736c-13,77 -79,132 -157,132l-532 0c-78,0 -144,-55 -157,-132l-309 -1736c-48,-268 -68,-500 -68,-773l0 -1059c0,-88 72,-160 160,-160z"/>
	<path id="bcurve0" fill="#252525" d="M5120 640c2474,0 4480,2006 4480,4480 0,2474 -2006,4480 -4480,4480 -2474,0 -4480,-2006 -4480,-4480 0,-2474 2006,-4480 4480,-4480zm0 640c-2121,0 -3840,1719 -3840,3840 0,2121 1719,3840 3840,3840 2121,0 3840,-1719 3840,-3840 0,-2121 -1719,-3840 -3840,-3840z"/>
</svg>
  <svg xml:space="preserve" shape-rendering="geometricPrecision" text-rendering="geometricPrecision" image-rendering="optimizeQuality" fill-rule="nonzero" clip-rule="evenodd" viewBox="0 0 10240 10240" id="add" xmlns="http://www.w3.org/2000/svg">
	<title>add icon</title>
	<desc>add icon from the IconExperience.com O-Collection. Copyright by INCORS GmbH (www.incors.com).</desc>
	<path id="ccurve0" fill="#252525" d="M5120 640c2474,0 4480,2006 4480,4480 0,2474 -2006,4480 -4480,4480 -2474,0 -4480,-2006 -4480,-4480 0,-2474 2006,-4480 4480,-4480zm-2880 3520c-176,0 -320,144 -320,320l0 1280c0,176 144,320 320,320l1920 0 0 1920c0,176 144,320 320,320l1280 0c176,0 320,-144 320,-320l0 -1920 1920 0c176,0 320,-144 320,-320l0 -1280c0,-176 -144,-320 -320,-320l-1920 0 0 -1920c0,-176 -144,-320 -320,-320l-1280 0c-176,0 -320,144 -320,320l0 1920 -1920 0z"/>
</svg>
  <svg xml:space="preserve" shape-rendering="geometricPrecision" text-rendering="geometricPrecision" image-rendering="optimizeQuality" fill-rule="nonzero" clip-rule="evenodd" viewBox="0 0 10240 10240" id="address_book2" xmlns="http://www.w3.org/2000/svg">
	<title>address_book2 icon</title>
	<desc>address_book2 icon from the IconExperience.com O-Collection. Copyright by INCORS GmbH (www.incors.com).</desc>
	<path id="dcurve0" fill="#252525" d="M2560 640c-707,0 -1280,573 -1280,1280l0 6400c0,707 573,1280 1280,1280 2027,0 4053,0 6080,0 177,0 320,-143 320,-320l0 -6720c0,-353 -287,-640 -640,-640l-5760 0c-176,0 -320,-144 -320,-320 0,-176 144,-320 320,-320l5440 0c176,0 320,144 320,320 246,0 470,92 640,245l0 -565c0,-362 -287,-645 -640,-640 -1921,-1 -3844,0 -5760,0zm3280 6095c-198,116 -463,170 -691,135 -485,-75 -839,-498 -839,-986 0,-55 5,-112 14,-171 82,-536 549,-1073 1116,-1073 176,0 332,19 465,64l20 -117 630 105c-79,470 -158,938 -237,1406 -29,168 40,302 146,373 94,63 214,80 316,23 218,-123 260,-503 260,-734 0,-884 -716,-1600 -1600,-1600 -884,0 -1600,716 -1600,1600 0,884 716,1600 1600,1600 177,0 347,-29 506,-82 182,119 393,191 611,207 114,8 228,0 339,-22 -392,335 -900,537 -1456,537 -1237,0 -2240,-1003 -2240,-2240 0,-1237 1003,-2240 2240,-2240 1237,0 2240,1003 2240,2240 0,66 -3,130 -8,195 -47,621 -394,1261 -1092,1211 -298,-22 -573,-184 -740,-431zm-66 -1256c8,-79 1,-125 -19,-143 -44,-40 -153,-56 -315,-56 -87,0 -196,56 -292,152 -94,94 -168,223 -192,376 -18,116 4,232 88,321 58,62 149,111 236,111 236,0 372,-114 422,-343l72 -418z"/>
</svg>
  <svg xml:space="preserve" shape-rendering="geometricPrecision" text-rendering="geometricPrecision" image-rendering="optimizeQuality" fill-rule="nonzero" clip-rule="evenodd" viewBox="0 0 10240 10240" id="adhesive_tape" xmlns="http://www.w3.org/2000/svg">
	<title>adhesive_tape icon</title>
	<desc>adhesive_tape icon from the IconExperience.com O-Collection. Copyright by INCORS GmbH (www.incors.com).</desc>
	<path id="ecurve1" fill="#252525" d="M640 6080l1038 259c144,36 242,162 242,311l0 390c0,352 287,640 640,640l1280 0c705,0 1280,-575 1280,-1280l0 -640c0,-884 716,-1600 1600,-1600 884,0 1600,716 1600,1600 0,1067 0,2133 0,3200 0,352 -288,640 -640,640l-6400 0c-352,0 -640,-287 -640,-640l0 -2880zm6080 -960c-353,0 -640,287 -640,640 0,353 287,640 640,640 353,0 640,-287 640,-640 0,-353 -287,-640 -640,-640z"/>
	<path id="ecurve0" fill="#3E9BD5" d="M6720 2880c1591,0 2880,1289 2880,2880 0,853 -371,1619 -960,2146l0 -2146c0,-1060 -860,-1920 -1920,-1920 -1060,0 -1920,860 -1920,1920l0 640c0,377 -220,705 -538,862 -268,-438 -422,-952 -422,-1502 0,-374 71,-732 201,-1060l-1889 1071c-297,168 -619,211 -949,126l-563 -145 0 -658 721 185c169,44 323,23 476,-63l3608 -2039c384,-190 817,-297 1275,-297z"/>
</svg>
  <svg xml:space="preserve" shape-rendering="geometricPrecision" text-rendering="geometricPrecision" image-rendering="optimizeQuality" fill-rule="nonzero" clip-rule="evenodd" viewBox="0 0 10240 10240" id="air_tube_carrier" xmlns="http://www.w3.org/2000/svg">
	<title>air_tube_carrier icon</title>
	<desc>air_tube_carrier icon from the IconExperience.com O-Collection. Copyright by INCORS GmbH (www.incors.com).</desc>
	<path id="fcurve1" fill="#3E9BD5" d="M960 3200l0 3840c-352,0 -640,-288 -640,-640l0 -2560c0,-353 287,-640 640,-640zm2560 640c-176,0 -320,144 -320,320 0,176 144,320 320,320l3200 0c176,0 320,-144 320,-320 0,-176 -144,-320 -320,-320l-3200 0zm-640 -640l4480 0 0 3840 -4480 0 0 -3840zm6400 0c353,0 640,288 640,640l0 2560c0,352 -288,640 -640,640l0 -3840z"/>
	<path id="fcurve0" fill="#252525" d="M8000 2880l640 0c176,0 320,144 320,320l0 3840c0,176 -144,320 -320,320l-640 0c-176,0 -320,-144 -320,-320l0 -3840c0,-176 144,-320 320,-320zm-6400 0l640 0c176,0 320,144 320,320l0 3840c0,176 -144,320 -320,320l-640 0c-176,0 -320,-144 -320,-320l0 -3840c0,-176 144,-320 320,-320z"/>
</svg>
  <svg xml:space="preserve" shape-rendering="geometricPrecision" text-rendering="geometricPrecision" image-rendering="optimizeQuality" fill-rule="nonzero" clip-rule="evenodd" viewBox="0 0 10240 10240" id="airbrush" xmlns="http://www.w3.org/2000/svg">
	<title>airbrush icon</title>
	<desc>airbrush icon from the IconExperience.com O-Collection. Copyright by INCORS GmbH (www.incors.com).</desc>
	<path id="gcurve2" fill="#3E9BD5" d="M2240 8960c177,0 320,143 320,320 0,177 -143,320 -320,320 -177,0 -320,-143 -320,-320 0,-177 143,-320 320,-320zm320 -960c177,0 320,143 320,320 0,177 -143,320 -320,320 -177,0 -320,-143 -320,-320 0,-177 143,-320 320,-320zm320 -960c177,0 320,143 320,320 0,177 -143,320 -320,320 -177,0 -320,-143 -320,-320 0,-177 143,-320 320,-320zm-960 320c177,0 320,143 320,320 0,177 -143,320 -320,320 -177,0 -320,-143 -320,-320 0,-177 143,-320 320,-320zm-960 320c177,0 320,143 320,320 0,177 -143,320 -320,320 -177,0 -320,-143 -320,-320 0,-177 143,-320 320,-320zm640 640c177,0 320,143 320,320 0,177 -143,320 -320,320 -177,0 -320,-143 -320,-320 0,-177 143,-320 320,-320z"/>
	<path id="gcurve1" fill="#3E9BD5" d="M4508 3863c316,-316 701,-444 859,-286 158,158 30,543 -286,859 -316,316 -701,444 -859,286 -158,-158 -30,-543 286,-859z"/>
	<path id="gcurve0" fill="#252525" d="M3701 5259l303 -303c187,180 455,182 689,104 230,-76 444,-228 614,-398 170,-170 322,-384 398,-614 78,-234 76,-502 -104,-689l799 -799c640,-640 2880,-2240 3200,-1920 320,320 -1280,2560 -1920,3200l0 3200c0,352 -288,640 -640,640l-320 0c-352,0 -640,-287 -640,-640l0 -187c0,-133 -75,-246 -198,-296 -91,-38 -189,-33 -271,12 -127,68 -276,46 -378,-56l-113 -113 -139 139c-343,343 -718,555 -1189,673l-277 69c-36,-290 -266,-521 -556,-556l69 -277c118,-471 330,-846 673,-1189z"/>
</svg>
  <svg xml:space="preserve" shape-rendering="geometricPrecision" text-rendering="geometricPrecision" image-rendering="optimizeQuality" fill-rule="nonzero" clip-rule="evenodd" viewBox="0 0 10240 10240" id="airplane" xmlns="http://www.w3.org/2000/svg">
	<title>airplane icon</title>
	<desc>airplane icon from the IconExperience.com O-Collection. Copyright by INCORS GmbH (www.incors.com).</desc>
	<path id="hcurve0" fill="#252525" d="M3840 9920l591 -3840 -1231 0c-265,0 -628,-49 -1015,-126l-809 971c-63,75 -148,115 -246,115l-490 0 455 -1364c-613,-190 -1095,-408 -1095,-556 0,-148 482,-366 1095,-556l-455 -1364 490 0c98,0 183,40 246,115l810 972c388,-78 754,-127 1022,-127l1223 0 -591 -3840 461 0c115,0 219,51 273,152l1975 3688 1771 0c707,0 1920,430 1920,960l0 0 0 0c0,530 -1213,960 -1920,960l-1771 0 -1975 3688c-54,100 -158,152 -273,152l-461 0z"/>
</svg>
  <svg xml:space="preserve" shape-rendering="geometricPrecision" text-rendering="geometricPrecision" image-rendering="optimizeQuality" fill-rule="nonzero" clip-rule="evenodd" viewBox="0 0 10240 10240" id="airplane2" xmlns="http://www.w3.org/2000/svg">
	<title>airplane2 icon</title>
	<desc>airplane2 icon from the IconExperience.com O-Collection. Copyright by INCORS GmbH (www.incors.com).</desc>
	<path id="icurve0" fill="#252525" d="M1867 6417c-707,0 -1547,-447 -1547,-977 0,-530 893,-960 1600,-960l4535 0c176,0 328,-63 452,-187l1639 -1639c63,-63 138,-94 227,-94l703 0c106,0 198,47 260,133 62,86 77,187 44,288l-484 1450c-11,34 -16,65 -16,101l0 135c0,89 31,164 94,227l132 132c63,63 94,138 94,227l0 374c0,89 -31,164 -94,227l-139 139c-52,52 -112,82 -185,91l-1863 239 -881 -735c-120,-99 -254,-148 -410,-148l-268 0 1581 1317c52,44 71,113 48,177 -24,65 -82,106 -151,106l-687 0c-104,0 -193,-21 -286,-68l-3065 -1532 0 160c0,124 66,231 177,286l1061 531 -2571 0z"/>
</svg>
  <svg xml:space="preserve" shape-rendering="geometricPrecision" text-rendering="geometricPrecision" image-rendering="optimizeQuality" fill-rule="nonzero" clip-rule="evenodd" viewBox="0 0 10240 10240" id="airplane2_landing" xmlns="http://www.w3.org/2000/svg">
	<title>airplane2_landing icon</title>
	<desc>airplane2_landing icon from the IconExperience.com O-Collection. Copyright by INCORS GmbH (www.incors.com).</desc>
	<path id="jcurve0" fill="#252525" d="M5991 5493l1858 728c62,25 101,82 99,149 -2,66 -43,122 -106,143l-633 210c-95,32 -184,40 -284,26l-3290 -472 49 147c38,114 131,192 250,209l1140 164 -2367 787c-651,217 -1561,63 -1723,-425 -162,-488 528,-1157 1179,-1374l4174 -1388c162,-54 283,-159 359,-312l1007 -2010c38,-76 98,-128 179,-155l648 -216c98,-32 196,-17 280,43 83,60 128,149 128,252l-1 1482c0,35 5,65 16,98l42 125c27,81 79,141 155,180l163 81c76,38 129,98 155,180l115 345c27,81 22,160 -17,237l-85 170c-32,64 -79,110 -143,141l-1641 790 -1036 -406c-141,-55 -279,-59 -423,-11l-247 82z"/>
</svg>
  <svg xml:space="preserve" shape-rendering="geometricPrecision" text-rendering="geometricPrecision" image-rendering="optimizeQuality" fill-rule="nonzero" clip-rule="evenodd" viewBox="0 0 10240 10240" id="airplane2_starting" xmlns="http://www.w3.org/2000/svg">
	<title>airplane2_starting icon</title>
	<desc>airplane2_starting icon from the IconExperience.com O-Collection. Copyright by INCORS GmbH (www.incors.com).</desc>
	<path id="kcurve0" fill="#252525" d="M5380 5374l1057 1705c36,57 32,127 -10,179 -41,53 -108,73 -172,52l-635 -212c-97,-32 -173,-79 -244,-150l-2365 -2362 -49 148c-39,115 -10,234 75,319l819 818 -2379 -791c-655,-218 -1294,-890 -1131,-1381 163,-490 1122,-613 1776,-396l4197 1397c163,54 322,42 476,-35l2021 -1012c77,-38 157,-44 239,-17l651 217c98,32 168,104 199,203 31,98 14,197 -48,280l-894 1193c-21,28 -35,55 -46,88l-42 126c-27,81 -21,161 17,238l82 163c39,77 45,157 17,239l-115 347c-27,81 -80,142 -156,180l-172 86c-64,32 -129,41 -200,27l-1797 -352 -589 -951c-80,-129 -190,-215 -334,-263l-248 -83z"/>
</svg>
  <svg xml:space="preserve" shape-rendering="geometricPrecision" text-rendering="geometricPrecision" image-rendering="optimizeQuality" fill-rule="nonzero" clip-rule="evenodd" viewBox="0 0 10240 10240" id="airship" xmlns="http://www.w3.org/2000/svg">
	<title>airship icon</title>
	<desc>airship icon from the IconExperience.com O-Collection. Copyright by INCORS GmbH (www.incors.com).</desc>
	<path id="lcurve1" fill="#252525" d="M9460 4480c177,0 320,143 320,320 0,177 -143,320 -320,320l-1780 0c-177,0 -320,-143 -320,-320 0,-177 143,-320 320,-320l1780 0zm-63 -554l324 -649c48,-95 47,-197 -2,-292 -50,-94 -133,-153 -238,-168l-1344 -192c-249,-35 -484,71 -620,274 650,267 1275,611 1880,1027zm-3 1742l327 655c48,95 47,197 -2,292 -50,94 -133,153 -238,168l-1344 192c-251,36 -487,-72 -623,-278 650,-268 1275,-614 1880,-1029z"/>
	<path id="lcurve0" fill="#252525" d="M5120 6987l0 53c0,352 -288,640 -640,640l-1920 0c-352,0 -640,-287 -640,-640l0 -292c-915,-300 -1600,-879 -1600,-1948 0,-1867 2089,-2240 3840,-2240 1882,0 3520,585 5011,1600l-1491 0c-353,0 -640,287 -640,640 0,353 287,640 640,640l1480 0c-1229,835 -2557,1382 -4040,1547z"/>
</svg>
</svg>