<?xml version="1.0" encoding="UTF-8" standalone="no"?>
<!DOCTYPE svg PUBLIC "-//W3C//DTD SVG 1.1//EN"
 "http://www.w3.org/Graphics/SVG/1.1/DTD/svg11.dtd">
<!-- Generated by graphviz version 2.47.0 (20210316.0004)
 -->
<!-- Title: dependencies Pages: 1 -->
<svg width="1828pt" height="396pt"
 viewBox="0.00 0.00 1828.00 395.59" xmlns="http://www.w3.org/2000/svg" xmlns:xlink="http://www.w3.org/1999/xlink">
<g id="graph0" class="graph" transform="scale(1 1) rotate(0) translate(4 391.59)">
<title>dependencies</title>
<polygon fill="white" stroke="transparent" points="-4,4 -4,-391.59 1824,-391.59 1824,4 -4,4"/>
<text text-anchor="start" x="889.01" y="-42.4" font-family="Times-12" font-weight="bold" font-size="14.00">Legend</text>
<polygon fill="#ffffb3" stroke="transparent" points="676,-10 676,-30 696,-30 696,-10 676,-10"/>
<text text-anchor="start" x="699.63" y="-15.4" font-family="Times-12" font-size="14.00"> &#160;Declarations</text>
<polygon fill="#8dd3c7" stroke="transparent" points="789,-10 789,-30 809,-30 809,-10 789,-10"/>
<text text-anchor="start" x="812.73" y="-15.4" font-family="Times-12" font-size="14.00"> &#160;Module</text>
<polygon fill="#80b1d3" stroke="transparent" points="875,-10 875,-30 895,-30 895,-10 875,-10"/>
<text text-anchor="start" x="898.78" y="-15.4" font-family="Times-12" font-size="14.00"> &#160;Bootstrap</text>
<polygon fill="#fdb462" stroke="transparent" points="972,-10 972,-30 992,-30 992,-10 972,-10"/>
<text text-anchor="start" x="995.67" y="-15.4" font-family="Times-12" font-size="14.00"> &#160;Providers</text>
<polygon fill="#fb8072" stroke="transparent" points="1068,-10 1068,-30 1088,-30 1088,-10 1068,-10"/>
<text text-anchor="start" x="1091.73" y="-15.4" font-family="Times-12" font-size="14.00"> &#160;Exports</text>
<g id="clust1" class="cluster">
<title>cluster_SACBootstrap3StaticLabelModule</title>
<polygon fill="none" stroke="black" stroke-dasharray="1,5" points="8,-70 8,-379.59 1812,-379.59 1812,-70 8,-70"/>
</g>
<g id="clust5" class="cluster">
<title>cluster_SACBootstrap3StaticLabelModule_imports</title>
<polygon fill="none" stroke="black" points="1002,-189.59 1002,-241.59 1414,-241.59 1414,-189.59 1002,-189.59"/>
</g>
<g id="clust2" class="cluster">
<title>cluster_SACBootstrap3StaticLabelModule_declarations</title>
<polygon fill="none" stroke="black" points="576,-189.59 576,-241.59 994,-241.59 994,-189.59 576,-189.59"/>
</g>
<g id="clust3" class="cluster">
<title>cluster_SACBootstrap3StaticLabelModule_SacStaticFormContainerComponent_providers</title>
<polygon fill="none" stroke="black" points="16,-78 16,-176.59 1804,-176.59 1804,-78 16,-78"/>
</g>
<g id="clust6" class="cluster">
<title>cluster_SACBootstrap3StaticLabelModule_exports</title>
<polygon fill="none" stroke="black" points="792,-319.59 792,-371.59 1217,-371.59 1217,-319.59 792,-319.59"/>
</g>
<!-- SacStaticFormContainerComponent -->
<g id="node1" class="node">
<title>SacStaticFormContainerComponent</title>
<polygon fill="#ffffb3" stroke="black" points="986.47,-233.59 767.53,-233.59 767.53,-197.59 986.47,-197.59 986.47,-233.59"/>
<text text-anchor="middle" x="877" y="-211.39" font-family="Times,serif" font-size="14.00">SacStaticFormContainerComponent</text>
</g>
<!-- SACBootstrap3StaticLabelModule -->
<g id="node3" class="node">
<title>SACBootstrap3StaticLabelModule</title>
<polygon fill="#8dd3c7" stroke="black" points="1096.97,-298.59 1093.97,-302.59 1072.97,-302.59 1069.97,-298.59 885.03,-298.59 885.03,-262.59 1096.97,-262.59 1096.97,-298.59"/>
<text text-anchor="middle" x="991" y="-276.39" font-family="Times,serif" font-size="14.00">SACBootstrap3StaticLabelModule</text>
</g>
<!-- SacStaticFormContainerComponent&#45;&gt;SACBootstrap3StaticLabelModule -->
<g id="edge1" class="edge">
<title>SacStaticFormContainerComponent&#45;&gt;SACBootstrap3StaticLabelModule</title>
<path fill="none" stroke="black" d="M935.75,-233.7C935.75,-233.7 935.75,-252.58 935.75,-252.58"/>
<polygon fill="black" stroke="black" points="932.25,-252.58 935.75,-262.58 939.25,-252.58 932.25,-252.58"/>
</g>
<!-- SacStaticLabelComponent -->
<g id="node2" class="node">
<title>SacStaticLabelComponent</title>
<polygon fill="#ffffb3" stroke="black" points="749.8,-233.59 584.2,-233.59 584.2,-197.59 749.8,-197.59 749.8,-233.59"/>
<text text-anchor="middle" x="667" y="-211.39" font-family="Times,serif" font-size="14.00">SacStaticLabelComponent</text>
</g>
<!-- SacStaticLabelComponent&#45;&gt;SACBootstrap3StaticLabelModule -->
<g id="edge4" class="edge">
<title>SacStaticLabelComponent&#45;&gt;SACBootstrap3StaticLabelModule</title>
<path fill="none" stroke="black" d="M667,-233.7C667,-252.93 667,-280.59 667,-280.59 667,-280.59 874.91,-280.59 874.91,-280.59"/>
<polygon fill="black" stroke="black" points="874.91,-284.09 884.91,-280.59 874.91,-277.09 874.91,-284.09"/>
</g>
<!-- SacStaticFormContainerComponent  -->
<g id="node8" class="node">
<title>SacStaticFormContainerComponent </title>
<polygon fill="#fb8072" stroke="black" points="1209.47,-363.59 986.53,-363.59 986.53,-327.59 1209.47,-327.59 1209.47,-363.59"/>
<text text-anchor="middle" x="1098" y="-341.39" font-family="Times,serif" font-size="14.00">SacStaticFormContainerComponent </text>
</g>
<!-- SACBootstrap3StaticLabelModule&#45;&gt;SacStaticFormContainerComponent  -->
<g id="edge7" class="edge">
<title>SACBootstrap3StaticLabelModule&#45;&gt;SacStaticFormContainerComponent </title>
<path fill="none" stroke="black" stroke-dasharray="5,2" d="M1041.88,-298.7C1041.88,-298.7 1041.88,-317.58 1041.88,-317.58"/>
<polygon fill="black" stroke="black" points="1038.38,-317.58 1041.88,-327.58 1045.38,-317.58 1038.38,-317.58"/>
</g>
<!-- SacStaticLabelComponent  -->
<g id="node9" class="node">
<title>SacStaticLabelComponent </title>
<polygon fill="#fb8072" stroke="black" points="968.3,-363.59 799.7,-363.59 799.7,-327.59 968.3,-327.59 968.3,-363.59"/>
<text text-anchor="middle" x="884" y="-341.39" font-family="Times,serif" font-size="14.00">SacStaticLabelComponent </text>
</g>
<!-- SACBootstrap3StaticLabelModule&#45;&gt;SacStaticLabelComponent  -->
<g id="edge8" class="edge">
<title>SACBootstrap3StaticLabelModule&#45;&gt;SacStaticLabelComponent </title>
<path fill="none" stroke="black" stroke-dasharray="5,2" d="M926.71,-298.7C926.71,-298.7 926.71,-317.58 926.71,-317.58"/>
<polygon fill="black" stroke="black" points="923.21,-317.58 926.71,-327.58 930.21,-317.58 923.21,-317.58"/>
</g>
<!-- {
 &#160;&#160;&#160;provide: NG_VALUE_ACCESSOR, multi: true, useExisting: SacStaticFormContainerComponent,
} -->
<g id="node4" class="node">
<title>{
 &#160;&#160;&#160;provide: NG_VALUE_ACCESSOR, multi: true, useExisting: SacStaticFormContainerComponent,
}</title>
<ellipse fill="#fdb462" stroke="black" cx="1382" cy="-127.3" rx="414.29" ry="41.09"/>
<text text-anchor="middle" x="1382" y="-139.9" font-family="Times,serif" font-size="14.00">{</text>
<text text-anchor="middle" x="1382" y="-123.1" font-family="Times,serif" font-size="14.00"> &#160;&#160;&#160;provide: NG_VALUE_ACCESSOR, multi: true, useExisting: SacStaticFormContainerComponent,</text>
<text text-anchor="middle" x="1382" y="-106.3" font-family="Times,serif" font-size="14.00">}</text>
</g>
<!-- {
 &#160;&#160;&#160;provide: NG_VALUE_ACCESSOR, multi: true, useExisting: SacStaticFormContainerComponent,
}&#45;&gt;SacStaticFormContainerComponent -->
<g id="edge2" class="edge">
<title>{
 &#160;&#160;&#160;provide: NG_VALUE_ACCESSOR, multi: true, useExisting: SacStaticFormContainerComponent,
}&#45;&gt;SacStaticFormContainerComponent</title>
<path fill="none" stroke="black" d="M977.05,-136.08C977.05,-136.08 977.05,-187.37 977.05,-187.37"/>
<polygon fill="black" stroke="black" points="973.55,-187.37 977.05,-197.37 980.55,-187.37 973.55,-187.37"/>
</g>
<!-- {
 &#160;&#160;&#160;provide: NG_VALIDATORS, multi: true, useExisting: forwardRef(() =&gt; SacStaticFormContainerComponent),
} -->
<g id="node5" class="node">
<title>{
 &#160;&#160;&#160;provide: NG_VALIDATORS, multi: true, useExisting: forwardRef(() =&gt; SacStaticFormContainerComponent),
}</title>
<ellipse fill="#fdb462" stroke="black" cx="487" cy="-127.3" rx="462.8" ry="41.09"/>
<text text-anchor="middle" x="487" y="-139.9" font-family="Times,serif" font-size="14.00">{</text>
<text text-anchor="middle" x="487" y="-123.1" font-family="Times,serif" font-size="14.00"> &#160;&#160;&#160;provide: NG_VALIDATORS, multi: true, useExisting: forwardRef(() =&gt; SacStaticFormContainerComponent),</text>
<text text-anchor="middle" x="487" y="-106.3" font-family="Times,serif" font-size="14.00">}</text>
</g>
<!-- {
 &#160;&#160;&#160;provide: NG_VALIDATORS, multi: true, useExisting: forwardRef(() =&gt; SacStaticFormContainerComponent),
}&#45;&gt;SacStaticFormContainerComponent -->
<g id="edge3" class="edge">
<title>{
 &#160;&#160;&#160;provide: NG_VALIDATORS, multi: true, useExisting: forwardRef(() =&gt; SacStaticFormContainerComponent),
}&#45;&gt;SacStaticFormContainerComponent</title>
<path fill="none" stroke="black" d="M858.71,-152.36C858.71,-152.36 858.71,-187.48 858.71,-187.48"/>
<polygon fill="black" stroke="black" points="855.21,-187.48 858.71,-197.48 862.21,-187.48 855.21,-187.48"/>
</g>
<!-- SACBootstrap3LayoutModule -->
<g id="node6" class="node">
<title>SACBootstrap3LayoutModule</title>
<polygon fill="#8dd3c7" stroke="black" points="1405.87,-233.59 1402.87,-237.59 1381.87,-237.59 1378.87,-233.59 1218.13,-233.59 1218.13,-197.59 1405.87,-197.59 1405.87,-233.59"/>
<text text-anchor="middle" x="1312" y="-211.39" font-family="Times,serif" font-size="14.00">SACBootstrap3LayoutModule</text>
</g>
<!-- SACBootstrap3LayoutModule&#45;&gt;SACBootstrap3StaticLabelModule -->
<g id="edge5" class="edge">
<title>SACBootstrap3LayoutModule&#45;&gt;SACBootstrap3StaticLabelModule</title>
<path fill="none" stroke="black" d="M1312,-233.7C1312,-252.93 1312,-280.59 1312,-280.59 1312,-280.59 1107,-280.59 1107,-280.59"/>
<polygon fill="black" stroke="black" points="1107,-277.09 1097,-280.59 1107,-284.09 1107,-277.09"/>
</g>
<!-- SACBootstrap3TooltipModule -->
<g id="node7" class="node">
<title>SACBootstrap3TooltipModule</title>
<polygon fill="#8dd3c7" stroke="black" points="1199.94,-233.59 1196.94,-237.59 1175.94,-237.59 1172.94,-233.59 1010.06,-233.59 1010.06,-197.59 1199.94,-197.59 1199.94,-233.59"/>
<text text-anchor="middle" x="1105" y="-211.39" font-family="Times,serif" font-size="14.00">SACBootstrap3TooltipModule</text>
</g>
<!-- SACBootstrap3TooltipModule&#45;&gt;SACBootstrap3StaticLabelModule -->
<g id="edge6" class="edge">
<title>SACBootstrap3TooltipModule&#45;&gt;SACBootstrap3StaticLabelModule</title>
<path fill="none" stroke="black" d="M1053.63,-233.7C1053.63,-233.7 1053.63,-252.58 1053.63,-252.58"/>
<polygon fill="black" stroke="black" points="1050.13,-252.58 1053.63,-262.58 1057.13,-252.58 1050.13,-252.58"/>
</g>
</g>
</svg>
