<?xml version="1.0" encoding="UTF-8" standalone="no"?>
<!DOCTYPE svg PUBLIC "-//W3C//DTD SVG 1.1//EN"
 "http://www.w3.org/Graphics/SVG/1.1/DTD/svg11.dtd">
<!-- Generated by graphviz version 2.47.0 (20210316.0004)
 -->
<!-- Title: dependencies Pages: 1 -->
<svg width="2438pt" height="396pt"
 viewBox="0.00 0.00 2438.00 395.59" xmlns="http://www.w3.org/2000/svg" xmlns:xlink="http://www.w3.org/1999/xlink">
<g id="graph0" class="graph" transform="scale(1 1) rotate(0) translate(4 391.59)">
<title>dependencies</title>
<polygon fill="white" stroke="transparent" points="-4,4 -4,-391.59 2434,-391.59 2434,4 -4,4"/>
<text text-anchor="start" x="1194.01" y="-42.4" font-family="Times-12" font-weight="bold" font-size="14.00">Legend</text>
<polygon fill="#ffffb3" stroke="transparent" points="981,-10 981,-30 1001,-30 1001,-10 981,-10"/>
<text text-anchor="start" x="1004.63" y="-15.4" font-family="Times-12" font-size="14.00"> &#160;Declarations</text>
<polygon fill="#8dd3c7" stroke="transparent" points="1094,-10 1094,-30 1114,-30 1114,-10 1094,-10"/>
<text text-anchor="start" x="1117.73" y="-15.4" font-family="Times-12" font-size="14.00"> &#160;Module</text>
<polygon fill="#80b1d3" stroke="transparent" points="1180,-10 1180,-30 1200,-30 1200,-10 1180,-10"/>
<text text-anchor="start" x="1203.78" y="-15.4" font-family="Times-12" font-size="14.00"> &#160;Bootstrap</text>
<polygon fill="#fdb462" stroke="transparent" points="1277,-10 1277,-30 1297,-30 1297,-10 1277,-10"/>
<text text-anchor="start" x="1300.67" y="-15.4" font-family="Times-12" font-size="14.00"> &#160;Providers</text>
<polygon fill="#fb8072" stroke="transparent" points="1373,-10 1373,-30 1393,-30 1393,-10 1373,-10"/>
<text text-anchor="start" x="1396.73" y="-15.4" font-family="Times-12" font-size="14.00"> &#160;Exports</text>
<g id="clust1" class="cluster">
<title>cluster_SACBootstrap3StaticLabelModule</title>
<polygon fill="none" stroke="black" stroke-dasharray="1,5" points="8,-70 8,-379.59 2422,-379.59 2422,-70 8,-70"/>
</g>
<g id="clust3" class="cluster">
<title>cluster_SACBootstrap3StaticLabelModule_SacStaticFormContainerComponent_providers</title>
<polygon fill="none" stroke="black" points="626,-78 626,-241.59 2414,-241.59 2414,-78 626,-78"/>
</g>
<g id="clust5" class="cluster">
<title>cluster_SACBootstrap3StaticLabelModule_imports</title>
<polygon fill="none" stroke="black" points="206,-189.59 206,-241.59 618,-241.59 618,-189.59 206,-189.59"/>
</g>
<g id="clust6" class="cluster">
<title>cluster_SACBootstrap3StaticLabelModule_exports</title>
<polygon fill="none" stroke="black" points="116,-319.59 116,-371.59 541,-371.59 541,-319.59 116,-319.59"/>
</g>
<g id="clust2" class="cluster">
<title>cluster_SACBootstrap3StaticLabelModule_declarations</title>
<polygon fill="none" stroke="black" points="16,-189.59 16,-241.59 198,-241.59 198,-189.59 16,-189.59"/>
</g>
<!-- SacStaticFormContainerComponent -->
<g id="node1" class="node">
<title>SacStaticFormContainerComponent</title>
<polygon fill="#ffffb3" stroke="black" points="1206.47,-233.59 987.53,-233.59 987.53,-197.59 1206.47,-197.59 1206.47,-233.59"/>
<text text-anchor="middle" x="1097" y="-211.39" font-family="Times,serif" font-size="14.00">SacStaticFormContainerComponent</text>
</g>
<!-- SACBootstrap3StaticLabelModule -->
<g id="node3" class="node">
<title>SACBootstrap3StaticLabelModule</title>
<polygon fill="#8dd3c7" stroke="black" points="470.97,-298.59 467.97,-302.59 446.97,-302.59 443.97,-298.59 259.03,-298.59 259.03,-262.59 470.97,-262.59 470.97,-298.59"/>
<text text-anchor="middle" x="365" y="-276.39" font-family="Times,serif" font-size="14.00">SACBootstrap3StaticLabelModule</text>
</g>
<!-- SacStaticFormContainerComponent&#45;&gt;SACBootstrap3StaticLabelModule -->
<g id="edge1" class="edge">
<title>SacStaticFormContainerComponent&#45;&gt;SACBootstrap3StaticLabelModule</title>
<path fill="none" stroke="black" d="M1097,-233.7C1097,-252.93 1097,-280.59 1097,-280.59 1097,-280.59 481.05,-280.59 481.05,-280.59"/>
<polygon fill="black" stroke="black" points="481.05,-277.09 471.05,-280.59 481.05,-284.09 481.05,-277.09"/>
</g>
<!-- SacStaticLabelComponent -->
<g id="node2" class="node">
<title>SacStaticLabelComponent</title>
<polygon fill="#ffffb3" stroke="black" points="189.8,-233.59 24.2,-233.59 24.2,-197.59 189.8,-197.59 189.8,-233.59"/>
<text text-anchor="middle" x="107" y="-211.39" font-family="Times,serif" font-size="14.00">SacStaticLabelComponent</text>
</g>
<!-- SacStaticLabelComponent&#45;&gt;SACBootstrap3StaticLabelModule -->
<g id="edge4" class="edge">
<title>SacStaticLabelComponent&#45;&gt;SACBootstrap3StaticLabelModule</title>
<path fill="none" stroke="black" d="M156.62,-233.7C156.62,-252.93 156.62,-280.59 156.62,-280.59 156.62,-280.59 248.98,-280.59 248.98,-280.59"/>
<polygon fill="black" stroke="black" points="248.98,-284.09 258.98,-280.59 248.98,-277.09 248.98,-284.09"/>
</g>
<!-- SacStaticFormContainerComponent  -->
<g id="node8" class="node">
<title>SacStaticFormContainerComponent </title>
<polygon fill="#fb8072" stroke="black" points="533.47,-363.59 310.53,-363.59 310.53,-327.59 533.47,-327.59 533.47,-363.59"/>
<text text-anchor="middle" x="422" y="-341.39" font-family="Times,serif" font-size="14.00">SacStaticFormContainerComponent </text>
</g>
<!-- SACBootstrap3StaticLabelModule&#45;&gt;SacStaticFormContainerComponent  -->
<g id="edge7" class="edge">
<title>SACBootstrap3StaticLabelModule&#45;&gt;SacStaticFormContainerComponent </title>
<path fill="none" stroke="black" stroke-dasharray="5,2" d="M390.88,-298.7C390.88,-298.7 390.88,-317.58 390.88,-317.58"/>
<polygon fill="black" stroke="black" points="387.38,-317.58 390.88,-327.58 394.38,-317.58 387.38,-317.58"/>
</g>
<!-- SacStaticLabelComponent  -->
<g id="node9" class="node">
<title>SacStaticLabelComponent </title>
<polygon fill="#fb8072" stroke="black" points="292.3,-363.59 123.7,-363.59 123.7,-327.59 292.3,-327.59 292.3,-363.59"/>
<text text-anchor="middle" x="208" y="-341.39" font-family="Times,serif" font-size="14.00">SacStaticLabelComponent </text>
</g>
<!-- SACBootstrap3StaticLabelModule&#45;&gt;SacStaticLabelComponent  -->
<g id="edge8" class="edge">
<title>SACBootstrap3StaticLabelModule&#45;&gt;SacStaticLabelComponent </title>
<path fill="none" stroke="black" stroke-dasharray="5,2" d="M275.71,-298.7C275.71,-298.7 275.71,-317.58 275.71,-317.58"/>
<polygon fill="black" stroke="black" points="272.21,-317.58 275.71,-327.58 279.21,-317.58 272.21,-317.58"/>
</g>
<!-- {
 &#160;&#160;&#160;provide: NG_VALUE_ACCESSOR, multi: true, useExisting: SacStaticFormContainerComponent,
} -->
<g id="node4" class="node">
<title>{
 &#160;&#160;&#160;provide: NG_VALUE_ACCESSOR, multi: true, useExisting: SacStaticFormContainerComponent,
}</title>
<ellipse fill="#fdb462" stroke="black" cx="1992" cy="-127.3" rx="414.29" ry="41.09"/>
<text text-anchor="middle" x="1992" y="-139.9" font-family="Times,serif" font-size="14.00">{</text>
<text text-anchor="middle" x="1992" y="-123.1" font-family="Times,serif" font-size="14.00"> &#160;&#160;&#160;provide: NG_VALUE_ACCESSOR, multi: true, useExisting: SacStaticFormContainerComponent,</text>
<text text-anchor="middle" x="1992" y="-106.3" font-family="Times,serif" font-size="14.00">}</text>
</g>
<!-- {
 &#160;&#160;&#160;provide: NG_VALUE_ACCESSOR, multi: true, useExisting: SacStaticFormContainerComponent,
}&#45;&gt;SacStaticFormContainerComponent -->
<g id="edge2" class="edge">
<title>{
 &#160;&#160;&#160;provide: NG_VALUE_ACCESSOR, multi: true, useExisting: SacStaticFormContainerComponent,
}&#45;&gt;SacStaticFormContainerComponent</title>
<path fill="none" stroke="black" d="M1992,-168.6C1992,-191.58 1992,-215.59 1992,-215.59 1992,-215.59 1216.74,-215.59 1216.74,-215.59"/>
<polygon fill="black" stroke="black" points="1216.74,-212.09 1206.74,-215.59 1216.74,-219.09 1216.74,-212.09"/>
</g>
<!-- {
 &#160;&#160;&#160;provide: NG_VALIDATORS, multi: true, useExisting: forwardRef(() =&gt; SacStaticFormContainerComponent),
} -->
<g id="node5" class="node">
<title>{
 &#160;&#160;&#160;provide: NG_VALIDATORS, multi: true, useExisting: forwardRef(() =&gt; SacStaticFormContainerComponent),
}</title>
<ellipse fill="#fdb462" stroke="black" cx="1097" cy="-127.3" rx="462.8" ry="41.09"/>
<text text-anchor="middle" x="1097" y="-139.9" font-family="Times,serif" font-size="14.00">{</text>
<text text-anchor="middle" x="1097" y="-123.1" font-family="Times,serif" font-size="14.00"> &#160;&#160;&#160;provide: NG_VALIDATORS, multi: true, useExisting: forwardRef(() =&gt; SacStaticFormContainerComponent),</text>
<text text-anchor="middle" x="1097" y="-106.3" font-family="Times,serif" font-size="14.00">}</text>
</g>
<!-- {
 &#160;&#160;&#160;provide: NG_VALIDATORS, multi: true, useExisting: forwardRef(() =&gt; SacStaticFormContainerComponent),
}&#45;&gt;SacStaticFormContainerComponent -->
<g id="edge3" class="edge">
<title>{
 &#160;&#160;&#160;provide: NG_VALIDATORS, multi: true, useExisting: forwardRef(() =&gt; SacStaticFormContainerComponent),
}&#45;&gt;SacStaticFormContainerComponent</title>
<path fill="none" stroke="black" d="M1097,-168.6C1097,-168.6 1097,-187.26 1097,-187.26"/>
<polygon fill="black" stroke="black" points="1093.5,-187.26 1097,-197.26 1100.5,-187.26 1093.5,-187.26"/>
</g>
<!-- SACBootstrap3LayoutModule -->
<g id="node6" class="node">
<title>SACBootstrap3LayoutModule</title>
<polygon fill="#8dd3c7" stroke="black" points="609.87,-233.59 606.87,-237.59 585.87,-237.59 582.87,-233.59 422.13,-233.59 422.13,-197.59 609.87,-197.59 609.87,-233.59"/>
<text text-anchor="middle" x="516" y="-211.39" font-family="Times,serif" font-size="14.00">SACBootstrap3LayoutModule</text>
</g>
<!-- SACBootstrap3LayoutModule&#45;&gt;SACBootstrap3StaticLabelModule -->
<g id="edge5" class="edge">
<title>SACBootstrap3LayoutModule&#45;&gt;SACBootstrap3StaticLabelModule</title>
<path fill="none" stroke="black" d="M446.52,-233.7C446.52,-233.7 446.52,-252.58 446.52,-252.58"/>
<polygon fill="black" stroke="black" points="443.02,-252.58 446.52,-262.58 450.02,-252.58 443.02,-252.58"/>
</g>
<!-- SACBootstrap3TooltipModule -->
<g id="node7" class="node">
<title>SACBootstrap3TooltipModule</title>
<polygon fill="#8dd3c7" stroke="black" points="403.94,-233.59 400.94,-237.59 379.94,-237.59 376.94,-233.59 214.06,-233.59 214.06,-197.59 403.94,-197.59 403.94,-233.59"/>
<text text-anchor="middle" x="309" y="-211.39" font-family="Times,serif" font-size="14.00">SACBootstrap3TooltipModule</text>
</g>
<!-- SACBootstrap3TooltipModule&#45;&gt;SACBootstrap3StaticLabelModule -->
<g id="edge6" class="edge">
<title>SACBootstrap3TooltipModule&#45;&gt;SACBootstrap3StaticLabelModule</title>
<path fill="none" stroke="black" d="M331.37,-233.7C331.37,-233.7 331.37,-252.58 331.37,-252.58"/>
<polygon fill="black" stroke="black" points="327.87,-252.58 331.37,-262.58 334.87,-252.58 327.87,-252.58"/>
</g>
</g>
</svg>
