<?xml version="1.0" encoding="UTF-8" standalone="no"?>
<!DOCTYPE svg PUBLIC "-//W3C//DTD SVG 1.1//EN"
 "http://www.w3.org/Graphics/SVG/1.1/DTD/svg11.dtd">
<!-- Generated by graphviz version 2.47.0 (20210316.0004)
 -->
<!-- Title: dependencies Pages: 1 -->
<svg width="916pt" height="284pt"
 viewBox="0.00 0.00 916.00 284.00" xmlns="http://www.w3.org/2000/svg" xmlns:xlink="http://www.w3.org/1999/xlink">
<g id="graph0" class="graph" transform="scale(1 1) rotate(0) translate(4 280)">
<title>dependencies</title>
<polygon fill="white" stroke="transparent" points="-4,4 -4,-280 912,-280 912,4 -4,4"/>
<text text-anchor="start" x="433.01" y="-42.4" font-family="Times-12" font-weight="bold" font-size="14.00">Legend</text>
<polygon fill="#ffffb3" stroke="transparent" points="220,-10 220,-30 240,-30 240,-10 220,-10"/>
<text text-anchor="start" x="243.63" y="-15.4" font-family="Times-12" font-size="14.00"> &#160;Declarations</text>
<polygon fill="#8dd3c7" stroke="transparent" points="333,-10 333,-30 353,-30 353,-10 333,-10"/>
<text text-anchor="start" x="356.73" y="-15.4" font-family="Times-12" font-size="14.00"> &#160;Module</text>
<polygon fill="#80b1d3" stroke="transparent" points="419,-10 419,-30 439,-30 439,-10 419,-10"/>
<text text-anchor="start" x="442.78" y="-15.4" font-family="Times-12" font-size="14.00"> &#160;Bootstrap</text>
<polygon fill="#fdb462" stroke="transparent" points="516,-10 516,-30 536,-30 536,-10 516,-10"/>
<text text-anchor="start" x="539.67" y="-15.4" font-family="Times-12" font-size="14.00"> &#160;Providers</text>
<polygon fill="#fb8072" stroke="transparent" points="612,-10 612,-30 632,-30 632,-10 612,-10"/>
<text text-anchor="start" x="635.73" y="-15.4" font-family="Times-12" font-size="14.00"> &#160;Exports</text>
<g id="clust1" class="cluster">
<title>cluster_JNetworkBootstrap4TinyMceModule</title>
<polygon fill="none" stroke="black" stroke-dasharray="1,5" points="8,-70 8,-268 900,-268 900,-70 8,-70"/>
</g>
<g id="clust2" class="cluster">
<title>cluster_JNetworkBootstrap4TinyMceModule_declarations</title>
<polygon fill="none" stroke="black" points="726,-78 726,-130 892,-130 892,-78 726,-78"/>
</g>
<g id="clust4" class="cluster">
<title>cluster_JNetworkBootstrap4TinyMceModule_imports</title>
<polygon fill="none" stroke="black" points="16,-78 16,-130 718,-130 718,-78 16,-78"/>
</g>
<g id="clust5" class="cluster">
<title>cluster_JNetworkBootstrap4TinyMceModule_exports</title>
<polygon fill="none" stroke="black" points="396,-208 396,-260 566,-260 566,-208 396,-208"/>
</g>
<!-- NgTinyMceComponent -->
<g id="node1" class="node">
<title>NgTinyMceComponent</title>
<polygon fill="#ffffb3" stroke="black" points="883.76,-122 734.24,-122 734.24,-86 883.76,-86 883.76,-122"/>
<text text-anchor="middle" x="809" y="-99.8" font-family="Times,serif" font-size="14.00">NgTinyMceComponent</text>
</g>
<!-- JNetworkBootstrap4TinyMceModule -->
<g id="node2" class="node">
<title>JNetworkBootstrap4TinyMceModule</title>
<polygon fill="#8dd3c7" stroke="black" points="594.23,-187 591.23,-191 570.23,-191 567.23,-187 367.77,-187 367.77,-151 594.23,-151 594.23,-187"/>
<text text-anchor="middle" x="481" y="-164.8" font-family="Times,serif" font-size="14.00">JNetworkBootstrap4TinyMceModule</text>
</g>
<!-- NgTinyMceComponent&#45;&gt;JNetworkBootstrap4TinyMceModule -->
<g id="edge1" class="edge">
<title>NgTinyMceComponent&#45;&gt;JNetworkBootstrap4TinyMceModule</title>
<path fill="none" stroke="black" d="M809,-122.11C809,-141.34 809,-169 809,-169 809,-169 604.34,-169 604.34,-169"/>
<polygon fill="black" stroke="black" points="604.34,-165.5 594.34,-169 604.34,-172.5 604.34,-165.5"/>
</g>
<!-- NgTinyMceComponent  -->
<g id="node6" class="node">
<title>NgTinyMceComponent </title>
<polygon fill="#fb8072" stroke="black" points="557.76,-252 404.24,-252 404.24,-216 557.76,-216 557.76,-252"/>
<text text-anchor="middle" x="481" y="-229.8" font-family="Times,serif" font-size="14.00">NgTinyMceComponent </text>
</g>
<!-- JNetworkBootstrap4TinyMceModule&#45;&gt;NgTinyMceComponent  -->
<g id="edge5" class="edge">
<title>JNetworkBootstrap4TinyMceModule&#45;&gt;NgTinyMceComponent </title>
<path fill="none" stroke="black" stroke-dasharray="5,2" d="M481,-187.11C481,-187.11 481,-205.99 481,-205.99"/>
<polygon fill="black" stroke="black" points="477.5,-205.99 481,-215.99 484.5,-205.99 477.5,-205.99"/>
</g>
<!-- JNetworkBootstrap4BrowserModule -->
<g id="node3" class="node">
<title>JNetworkBootstrap4BrowserModule</title>
<polygon fill="#8dd3c7" stroke="black" points="710.33,-122 707.33,-126 686.33,-126 683.33,-122 487.67,-122 487.67,-86 710.33,-86 710.33,-122"/>
<text text-anchor="middle" x="599" y="-99.8" font-family="Times,serif" font-size="14.00">JNetworkBootstrap4BrowserModule</text>
</g>
<!-- JNetworkBootstrap4BrowserModule&#45;&gt;JNetworkBootstrap4TinyMceModule -->
<g id="edge2" class="edge">
<title>JNetworkBootstrap4BrowserModule&#45;&gt;JNetworkBootstrap4TinyMceModule</title>
<path fill="none" stroke="black" d="M540.97,-122.11C540.97,-122.11 540.97,-140.99 540.97,-140.99"/>
<polygon fill="black" stroke="black" points="537.47,-140.99 540.97,-150.99 544.47,-140.99 537.47,-140.99"/>
</g>
<!-- JNetworkBootstrap4ButtonModule -->
<g id="node4" class="node">
<title>JNetworkBootstrap4ButtonModule</title>
<polygon fill="#8dd3c7" stroke="black" points="469.53,-122 466.53,-126 445.53,-126 442.53,-122 256.47,-122 256.47,-86 469.53,-86 469.53,-122"/>
<text text-anchor="middle" x="363" y="-99.8" font-family="Times,serif" font-size="14.00">JNetworkBootstrap4ButtonModule</text>
</g>
<!-- JNetworkBootstrap4ButtonModule&#45;&gt;JNetworkBootstrap4TinyMceModule -->
<g id="edge3" class="edge">
<title>JNetworkBootstrap4ButtonModule&#45;&gt;JNetworkBootstrap4TinyMceModule</title>
<path fill="none" stroke="black" d="M418.7,-122.11C418.7,-122.11 418.7,-140.99 418.7,-140.99"/>
<polygon fill="black" stroke="black" points="415.2,-140.99 418.7,-150.99 422.2,-140.99 415.2,-140.99"/>
</g>
<!-- JNetworkBootstrap4DialogModule -->
<g id="node5" class="node">
<title>JNetworkBootstrap4DialogModule</title>
<polygon fill="#8dd3c7" stroke="black" points="237.51,-122 234.51,-126 213.51,-126 210.51,-122 24.49,-122 24.49,-86 237.51,-86 237.51,-122"/>
<text text-anchor="middle" x="131" y="-99.8" font-family="Times,serif" font-size="14.00">JNetworkBootstrap4DialogModule</text>
</g>
<!-- JNetworkBootstrap4DialogModule&#45;&gt;JNetworkBootstrap4TinyMceModule -->
<g id="edge4" class="edge">
<title>JNetworkBootstrap4DialogModule&#45;&gt;JNetworkBootstrap4TinyMceModule</title>
<path fill="none" stroke="black" d="M131,-122.11C131,-141.34 131,-169 131,-169 131,-169 357.37,-169 357.37,-169"/>
<polygon fill="black" stroke="black" points="357.37,-172.5 367.37,-169 357.36,-165.5 357.37,-172.5"/>
</g>
</g>
</svg>
