<?xml version="1.0" encoding="UTF-8" standalone="no"?>
<!DOCTYPE svg PUBLIC "-//W3C//DTD SVG 1.1//EN"
 "http://www.w3.org/Graphics/SVG/1.1/DTD/svg11.dtd">
<!-- Generated by graphviz version 2.47.0 (20210316.0004)
 -->
<!-- Title: dependencies Pages: 1 -->
<svg width="916pt" height="284pt"
 viewBox="0.00 0.00 916.00 284.00" xmlns="http://www.w3.org/2000/svg" xmlns:xlink="http://www.w3.org/1999/xlink">
<g id="graph0" class="graph" transform="scale(1 1) rotate(0) translate(4 280)">
<title>dependencies</title>
<polygon fill="white" stroke="transparent" points="-4,4 -4,-280 912,-280 912,4 -4,4"/>
<text text-anchor="start" x="433.01" y="-42.4" font-family="Times-12" font-weight="bold" font-size="14.00">Legend</text>
<polygon fill="#ffffb3" stroke="transparent" points="220,-10 220,-30 240,-30 240,-10 220,-10"/>
<text text-anchor="start" x="243.63" y="-15.4" font-family="Times-12" font-size="14.00"> &#160;Declarations</text>
<polygon fill="#8dd3c7" stroke="transparent" points="333,-10 333,-30 353,-30 353,-10 333,-10"/>
<text text-anchor="start" x="356.73" y="-15.4" font-family="Times-12" font-size="14.00"> &#160;Module</text>
<polygon fill="#80b1d3" stroke="transparent" points="419,-10 419,-30 439,-30 439,-10 419,-10"/>
<text text-anchor="start" x="442.78" y="-15.4" font-family="Times-12" font-size="14.00"> &#160;Bootstrap</text>
<polygon fill="#fdb462" stroke="transparent" points="516,-10 516,-30 536,-30 536,-10 516,-10"/>
<text text-anchor="start" x="539.67" y="-15.4" font-family="Times-12" font-size="14.00"> &#160;Providers</text>
<polygon fill="#fb8072" stroke="transparent" points="612,-10 612,-30 632,-30 632,-10 612,-10"/>
<text text-anchor="start" x="635.73" y="-15.4" font-family="Times-12" font-size="14.00"> &#160;Exports</text>
<g id="clust1" class="cluster">
<title>cluster_JNetworkBootstrap4TinyMceModule</title>
<polygon fill="none" stroke="black" stroke-dasharray="1,5" points="8,-70 8,-268 900,-268 900,-70 8,-70"/>
</g>
<g id="clust5" class="cluster">
<title>cluster_JNetworkBootstrap4TinyMceModule_exports</title>
<polygon fill="none" stroke="black" points="336,-208 336,-260 506,-260 506,-208 336,-208"/>
</g>
<g id="clust4" class="cluster">
<title>cluster_JNetworkBootstrap4TinyMceModule_imports</title>
<polygon fill="none" stroke="black" points="190,-78 190,-130 892,-130 892,-78 190,-78"/>
</g>
<g id="clust2" class="cluster">
<title>cluster_JNetworkBootstrap4TinyMceModule_declarations</title>
<polygon fill="none" stroke="black" points="16,-78 16,-130 182,-130 182,-78 16,-78"/>
</g>
<!-- NgTinyMceComponent -->
<g id="node1" class="node">
<title>NgTinyMceComponent</title>
<polygon fill="#ffffb3" stroke="black" points="173.76,-122 24.24,-122 24.24,-86 173.76,-86 173.76,-122"/>
<text text-anchor="middle" x="99" y="-99.8" font-family="Times,serif" font-size="14.00">NgTinyMceComponent</text>
</g>
<!-- JNetworkBootstrap4TinyMceModule -->
<g id="node2" class="node">
<title>JNetworkBootstrap4TinyMceModule</title>
<polygon fill="#8dd3c7" stroke="black" points="534.23,-187 531.23,-191 510.23,-191 507.23,-187 307.77,-187 307.77,-151 534.23,-151 534.23,-187"/>
<text text-anchor="middle" x="421" y="-164.8" font-family="Times,serif" font-size="14.00">JNetworkBootstrap4TinyMceModule</text>
</g>
<!-- NgTinyMceComponent&#45;&gt;JNetworkBootstrap4TinyMceModule -->
<g id="edge1" class="edge">
<title>NgTinyMceComponent&#45;&gt;JNetworkBootstrap4TinyMceModule</title>
<path fill="none" stroke="black" d="M99,-122.11C99,-141.34 99,-169 99,-169 99,-169 297.47,-169 297.47,-169"/>
<polygon fill="black" stroke="black" points="297.47,-172.5 307.47,-169 297.47,-165.5 297.47,-172.5"/>
</g>
<!-- NgTinyMceComponent  -->
<g id="node6" class="node">
<title>NgTinyMceComponent </title>
<polygon fill="#fb8072" stroke="black" points="497.76,-252 344.24,-252 344.24,-216 497.76,-216 497.76,-252"/>
<text text-anchor="middle" x="421" y="-229.8" font-family="Times,serif" font-size="14.00">NgTinyMceComponent </text>
</g>
<!-- JNetworkBootstrap4TinyMceModule&#45;&gt;NgTinyMceComponent  -->
<g id="edge5" class="edge">
<title>JNetworkBootstrap4TinyMceModule&#45;&gt;NgTinyMceComponent </title>
<path fill="none" stroke="black" stroke-dasharray="5,2" d="M421,-187.11C421,-187.11 421,-205.99 421,-205.99"/>
<polygon fill="black" stroke="black" points="417.5,-205.99 421,-215.99 424.5,-205.99 417.5,-205.99"/>
</g>
<!-- JNetworkBootstrap4BrowserModule -->
<g id="node3" class="node">
<title>JNetworkBootstrap4BrowserModule</title>
<polygon fill="#8dd3c7" stroke="black" points="884.33,-122 881.33,-126 860.33,-126 857.33,-122 661.67,-122 661.67,-86 884.33,-86 884.33,-122"/>
<text text-anchor="middle" x="773" y="-99.8" font-family="Times,serif" font-size="14.00">JNetworkBootstrap4BrowserModule</text>
</g>
<!-- JNetworkBootstrap4BrowserModule&#45;&gt;JNetworkBootstrap4TinyMceModule -->
<g id="edge2" class="edge">
<title>JNetworkBootstrap4BrowserModule&#45;&gt;JNetworkBootstrap4TinyMceModule</title>
<path fill="none" stroke="black" d="M773,-122.11C773,-141.34 773,-169 773,-169 773,-169 544.31,-169 544.31,-169"/>
<polygon fill="black" stroke="black" points="544.31,-165.5 534.31,-169 544.31,-172.5 544.31,-165.5"/>
</g>
<!-- JNetworkBootstrap4ButtonModule -->
<g id="node4" class="node">
<title>JNetworkBootstrap4ButtonModule</title>
<polygon fill="#8dd3c7" stroke="black" points="643.53,-122 640.53,-126 619.53,-126 616.53,-122 430.47,-122 430.47,-86 643.53,-86 643.53,-122"/>
<text text-anchor="middle" x="537" y="-99.8" font-family="Times,serif" font-size="14.00">JNetworkBootstrap4ButtonModule</text>
</g>
<!-- JNetworkBootstrap4ButtonModule&#45;&gt;JNetworkBootstrap4TinyMceModule -->
<g id="edge3" class="edge">
<title>JNetworkBootstrap4ButtonModule&#45;&gt;JNetworkBootstrap4TinyMceModule</title>
<path fill="none" stroke="black" d="M482.3,-122.11C482.3,-122.11 482.3,-140.99 482.3,-140.99"/>
<polygon fill="black" stroke="black" points="478.8,-140.99 482.3,-150.99 485.8,-140.99 478.8,-140.99"/>
</g>
<!-- JNetworkBootstrap4DialogModule -->
<g id="node5" class="node">
<title>JNetworkBootstrap4DialogModule</title>
<polygon fill="#8dd3c7" stroke="black" points="411.51,-122 408.51,-126 387.51,-126 384.51,-122 198.49,-122 198.49,-86 411.51,-86 411.51,-122"/>
<text text-anchor="middle" x="305" y="-99.8" font-family="Times,serif" font-size="14.00">JNetworkBootstrap4DialogModule</text>
</g>
<!-- JNetworkBootstrap4DialogModule&#45;&gt;JNetworkBootstrap4TinyMceModule -->
<g id="edge4" class="edge">
<title>JNetworkBootstrap4DialogModule&#45;&gt;JNetworkBootstrap4TinyMceModule</title>
<path fill="none" stroke="black" d="M359.7,-122.11C359.7,-122.11 359.7,-140.99 359.7,-140.99"/>
<polygon fill="black" stroke="black" points="356.2,-140.99 359.7,-150.99 363.2,-140.99 356.2,-140.99"/>
</g>
</g>
</svg>
