<?xml version="1.0" encoding="UTF-8" standalone="no"?>
<!DOCTYPE svg PUBLIC "-//W3C//DTD SVG 1.1//EN"
 "http://www.w3.org/Graphics/SVG/1.1/DTD/svg11.dtd">
<!-- Generated by graphviz version 2.47.3 (20210619.1520)
 -->
<!-- Title: dependencies Pages: 1 -->
<svg width="916pt" height="247pt"
 viewBox="0.00 0.00 916.00 246.80" xmlns="http://www.w3.org/2000/svg" xmlns:xlink="http://www.w3.org/1999/xlink">
<g id="graph0" class="graph" transform="scale(1 1) rotate(0) translate(4 242.8)">
<title>dependencies</title>
<polygon fill="white" stroke="transparent" points="-4,4 -4,-242.8 912,-242.8 912,4 -4,4"/>
<text text-anchor="middle" x="454" y="-8.2" font-family="sans-serif" font-size="14.00">dependencies</text>
<g id="clust1" class="cluster">
<title>cluster_JNetworkBootstrap4TinyMceModule</title>
<polygon fill="none" stroke="black" stroke-dasharray="1,5" points="8,-32.8 8,-230.8 900,-230.8 900,-32.8 8,-32.8"/>
</g>
<g id="clust5" class="cluster">
<title>cluster_JNetworkBootstrap4TinyMceModule_exports</title>
<polygon fill="none" stroke="black" points="336,-170.8 336,-222.8 506,-222.8 506,-170.8 336,-170.8"/>
</g>
<g id="clust4" class="cluster">
<title>cluster_JNetworkBootstrap4TinyMceModule_imports</title>
<polygon fill="none" stroke="black" points="190,-40.8 190,-92.8 892,-92.8 892,-40.8 190,-40.8"/>
</g>
<g id="clust2" class="cluster">
<title>cluster_JNetworkBootstrap4TinyMceModule_declarations</title>
<polygon fill="none" stroke="black" points="16,-40.8 16,-92.8 182,-92.8 182,-40.8 16,-40.8"/>
</g>
<!-- NgTinyMceComponent -->
<g id="node1" class="node">
<title>NgTinyMceComponent</title>
<polygon fill="#ffffb3" stroke="black" points="173.76,-84.8 24.24,-84.8 24.24,-48.8 173.76,-48.8 173.76,-84.8"/>
<text text-anchor="middle" x="99" y="-62.6" font-family="Times,serif" font-size="14.00">NgTinyMceComponent</text>
</g>
<!-- JNetworkBootstrap4TinyMceModule -->
<g id="node2" class="node">
<title>JNetworkBootstrap4TinyMceModule</title>
<polygon fill="#8dd3c7" stroke="black" points="534.23,-149.8 531.23,-153.8 510.23,-153.8 507.23,-149.8 307.77,-149.8 307.77,-113.8 534.23,-113.8 534.23,-149.8"/>
<text text-anchor="middle" x="421" y="-127.6" font-family="Times,serif" font-size="14.00">JNetworkBootstrap4TinyMceModule</text>
</g>
<!-- NgTinyMceComponent&#45;&gt;JNetworkBootstrap4TinyMceModule -->
<g id="edge1" class="edge">
<title>NgTinyMceComponent&#45;&gt;JNetworkBootstrap4TinyMceModule</title>
<path fill="none" stroke="black" d="M99,-84.91C99,-104.14 99,-131.8 99,-131.8 99,-131.8 297.47,-131.8 297.47,-131.8"/>
<polygon fill="black" stroke="black" points="297.47,-135.3 307.47,-131.8 297.47,-128.3 297.47,-135.3"/>
</g>
<!-- NgTinyMceComponent  -->
<g id="node6" class="node">
<title>NgTinyMceComponent </title>
<polygon fill="#fb8072" stroke="black" points="497.76,-214.8 344.24,-214.8 344.24,-178.8 497.76,-178.8 497.76,-214.8"/>
<text text-anchor="middle" x="421" y="-192.6" font-family="Times,serif" font-size="14.00">NgTinyMceComponent </text>
</g>
<!-- JNetworkBootstrap4TinyMceModule&#45;&gt;NgTinyMceComponent  -->
<g id="edge5" class="edge">
<title>JNetworkBootstrap4TinyMceModule&#45;&gt;NgTinyMceComponent </title>
<path fill="none" stroke="black" stroke-dasharray="5,2" d="M421,-149.91C421,-149.91 421,-168.79 421,-168.79"/>
<polygon fill="black" stroke="black" points="417.5,-168.79 421,-178.79 424.5,-168.79 417.5,-168.79"/>
</g>
<!-- JNetworkBootstrap4BrowserModule -->
<g id="node3" class="node">
<title>JNetworkBootstrap4BrowserModule</title>
<polygon fill="#8dd3c7" stroke="black" points="884.33,-84.8 881.33,-88.8 860.33,-88.8 857.33,-84.8 661.67,-84.8 661.67,-48.8 884.33,-48.8 884.33,-84.8"/>
<text text-anchor="middle" x="773" y="-62.6" font-family="Times,serif" font-size="14.00">JNetworkBootstrap4BrowserModule</text>
</g>
<!-- JNetworkBootstrap4BrowserModule&#45;&gt;JNetworkBootstrap4TinyMceModule -->
<g id="edge2" class="edge">
<title>JNetworkBootstrap4BrowserModule&#45;&gt;JNetworkBootstrap4TinyMceModule</title>
<path fill="none" stroke="black" d="M773,-84.91C773,-104.14 773,-131.8 773,-131.8 773,-131.8 544.31,-131.8 544.31,-131.8"/>
<polygon fill="black" stroke="black" points="544.31,-128.3 534.31,-131.8 544.31,-135.3 544.31,-128.3"/>
</g>
<!-- JNetworkBootstrap4ButtonModule -->
<g id="node4" class="node">
<title>JNetworkBootstrap4ButtonModule</title>
<polygon fill="#8dd3c7" stroke="black" points="643.53,-84.8 640.53,-88.8 619.53,-88.8 616.53,-84.8 430.47,-84.8 430.47,-48.8 643.53,-48.8 643.53,-84.8"/>
<text text-anchor="middle" x="537" y="-62.6" font-family="Times,serif" font-size="14.00">JNetworkBootstrap4ButtonModule</text>
</g>
<!-- JNetworkBootstrap4ButtonModule&#45;&gt;JNetworkBootstrap4TinyMceModule -->
<g id="edge3" class="edge">
<title>JNetworkBootstrap4ButtonModule&#45;&gt;JNetworkBootstrap4TinyMceModule</title>
<path fill="none" stroke="black" d="M482.3,-84.91C482.3,-84.91 482.3,-103.79 482.3,-103.79"/>
<polygon fill="black" stroke="black" points="478.8,-103.79 482.3,-113.79 485.8,-103.79 478.8,-103.79"/>
</g>
<!-- JNetworkBootstrap4DialogModule -->
<g id="node5" class="node">
<title>JNetworkBootstrap4DialogModule</title>
<polygon fill="#8dd3c7" stroke="black" points="411.51,-84.8 408.51,-88.8 387.51,-88.8 384.51,-84.8 198.49,-84.8 198.49,-48.8 411.51,-48.8 411.51,-84.8"/>
<text text-anchor="middle" x="305" y="-62.6" font-family="Times,serif" font-size="14.00">JNetworkBootstrap4DialogModule</text>
</g>
<!-- JNetworkBootstrap4DialogModule&#45;&gt;JNetworkBootstrap4TinyMceModule -->
<g id="edge4" class="edge">
<title>JNetworkBootstrap4DialogModule&#45;&gt;JNetworkBootstrap4TinyMceModule</title>
<path fill="none" stroke="black" d="M359.7,-84.91C359.7,-84.91 359.7,-103.79 359.7,-103.79"/>
<polygon fill="black" stroke="black" points="356.2,-103.79 359.7,-113.79 363.2,-103.79 356.2,-103.79"/>
</g>
</g>
</svg>
