<?xml version="1.0" encoding="UTF-8" standalone="no"?>
<!DOCTYPE svg PUBLIC "-//W3C//DTD SVG 1.1//EN"
 "http://www.w3.org/Graphics/SVG/1.1/DTD/svg11.dtd">
<!-- Generated by graphviz version 2.47.3 (20210619.1520)
 -->
<!-- Title: dependencies Pages: 1 -->
<svg width="916pt" height="247pt"
 viewBox="0.00 0.00 916.00 246.80" xmlns="http://www.w3.org/2000/svg" xmlns:xlink="http://www.w3.org/1999/xlink">
<g id="graph0" class="graph" transform="scale(1 1) rotate(0) translate(4 242.8)">
<title>dependencies</title>
<polygon fill="white" stroke="transparent" points="-4,4 -4,-242.8 912,-242.8 912,4 -4,4"/>
<text text-anchor="middle" x="454" y="-8.2" font-family="sans-serif" font-size="14.00">dependencies</text>
<g id="clust1" class="cluster">
<title>cluster_JNetworkBootstrap4TinyMceModule</title>
<polygon fill="none" stroke="black" stroke-dasharray="1,5" points="8,-32.8 8,-230.8 900,-230.8 900,-32.8 8,-32.8"/>
</g>
<g id="clust2" class="cluster">
<title>cluster_JNetworkBootstrap4TinyMceModule_declarations</title>
<polygon fill="none" stroke="black" points="726,-40.8 726,-92.8 892,-92.8 892,-40.8 726,-40.8"/>
</g>
<g id="clust4" class="cluster">
<title>cluster_JNetworkBootstrap4TinyMceModule_imports</title>
<polygon fill="none" stroke="black" points="16,-40.8 16,-92.8 718,-92.8 718,-40.8 16,-40.8"/>
</g>
<g id="clust5" class="cluster">
<title>cluster_JNetworkBootstrap4TinyMceModule_exports</title>
<polygon fill="none" stroke="black" points="396,-170.8 396,-222.8 566,-222.8 566,-170.8 396,-170.8"/>
</g>
<!-- NgTinyMceComponent -->
<g id="node1" class="node">
<title>NgTinyMceComponent</title>
<polygon fill="#ffffb3" stroke="black" points="883.76,-84.8 734.24,-84.8 734.24,-48.8 883.76,-48.8 883.76,-84.8"/>
<text text-anchor="middle" x="809" y="-62.6" font-family="Times,serif" font-size="14.00">NgTinyMceComponent</text>
</g>
<!-- JNetworkBootstrap4TinyMceModule -->
<g id="node2" class="node">
<title>JNetworkBootstrap4TinyMceModule</title>
<polygon fill="#8dd3c7" stroke="black" points="594.23,-149.8 591.23,-153.8 570.23,-153.8 567.23,-149.8 367.77,-149.8 367.77,-113.8 594.23,-113.8 594.23,-149.8"/>
<text text-anchor="middle" x="481" y="-127.6" font-family="Times,serif" font-size="14.00">JNetworkBootstrap4TinyMceModule</text>
</g>
<!-- NgTinyMceComponent&#45;&gt;JNetworkBootstrap4TinyMceModule -->
<g id="edge1" class="edge">
<title>NgTinyMceComponent&#45;&gt;JNetworkBootstrap4TinyMceModule</title>
<path fill="none" stroke="black" d="M809,-84.91C809,-104.14 809,-131.8 809,-131.8 809,-131.8 604.34,-131.8 604.34,-131.8"/>
<polygon fill="black" stroke="black" points="604.34,-128.3 594.34,-131.8 604.34,-135.3 604.34,-128.3"/>
</g>
<!-- NgTinyMceComponent  -->
<g id="node6" class="node">
<title>NgTinyMceComponent </title>
<polygon fill="#fb8072" stroke="black" points="557.76,-214.8 404.24,-214.8 404.24,-178.8 557.76,-178.8 557.76,-214.8"/>
<text text-anchor="middle" x="481" y="-192.6" font-family="Times,serif" font-size="14.00">NgTinyMceComponent </text>
</g>
<!-- JNetworkBootstrap4TinyMceModule&#45;&gt;NgTinyMceComponent  -->
<g id="edge5" class="edge">
<title>JNetworkBootstrap4TinyMceModule&#45;&gt;NgTinyMceComponent </title>
<path fill="none" stroke="black" stroke-dasharray="5,2" d="M481,-149.91C481,-149.91 481,-168.79 481,-168.79"/>
<polygon fill="black" stroke="black" points="477.5,-168.79 481,-178.79 484.5,-168.79 477.5,-168.79"/>
</g>
<!-- JNetworkBootstrap4BrowserModule -->
<g id="node3" class="node">
<title>JNetworkBootstrap4BrowserModule</title>
<polygon fill="#8dd3c7" stroke="black" points="710.33,-84.8 707.33,-88.8 686.33,-88.8 683.33,-84.8 487.67,-84.8 487.67,-48.8 710.33,-48.8 710.33,-84.8"/>
<text text-anchor="middle" x="599" y="-62.6" font-family="Times,serif" font-size="14.00">JNetworkBootstrap4BrowserModule</text>
</g>
<!-- JNetworkBootstrap4BrowserModule&#45;&gt;JNetworkBootstrap4TinyMceModule -->
<g id="edge2" class="edge">
<title>JNetworkBootstrap4BrowserModule&#45;&gt;JNetworkBootstrap4TinyMceModule</title>
<path fill="none" stroke="black" d="M540.97,-84.91C540.97,-84.91 540.97,-103.79 540.97,-103.79"/>
<polygon fill="black" stroke="black" points="537.47,-103.79 540.97,-113.79 544.47,-103.79 537.47,-103.79"/>
</g>
<!-- JNetworkBootstrap4ButtonModule -->
<g id="node4" class="node">
<title>JNetworkBootstrap4ButtonModule</title>
<polygon fill="#8dd3c7" stroke="black" points="469.53,-84.8 466.53,-88.8 445.53,-88.8 442.53,-84.8 256.47,-84.8 256.47,-48.8 469.53,-48.8 469.53,-84.8"/>
<text text-anchor="middle" x="363" y="-62.6" font-family="Times,serif" font-size="14.00">JNetworkBootstrap4ButtonModule</text>
</g>
<!-- JNetworkBootstrap4ButtonModule&#45;&gt;JNetworkBootstrap4TinyMceModule -->
<g id="edge3" class="edge">
<title>JNetworkBootstrap4ButtonModule&#45;&gt;JNetworkBootstrap4TinyMceModule</title>
<path fill="none" stroke="black" d="M418.7,-84.91C418.7,-84.91 418.7,-103.79 418.7,-103.79"/>
<polygon fill="black" stroke="black" points="415.2,-103.79 418.7,-113.79 422.2,-103.79 415.2,-103.79"/>
</g>
<!-- JNetworkBootstrap4DialogModule -->
<g id="node5" class="node">
<title>JNetworkBootstrap4DialogModule</title>
<polygon fill="#8dd3c7" stroke="black" points="237.51,-84.8 234.51,-88.8 213.51,-88.8 210.51,-84.8 24.49,-84.8 24.49,-48.8 237.51,-48.8 237.51,-84.8"/>
<text text-anchor="middle" x="131" y="-62.6" font-family="Times,serif" font-size="14.00">JNetworkBootstrap4DialogModule</text>
</g>
<!-- JNetworkBootstrap4DialogModule&#45;&gt;JNetworkBootstrap4TinyMceModule -->
<g id="edge4" class="edge">
<title>JNetworkBootstrap4DialogModule&#45;&gt;JNetworkBootstrap4TinyMceModule</title>
<path fill="none" stroke="black" d="M131,-84.91C131,-104.14 131,-131.8 131,-131.8 131,-131.8 357.37,-131.8 357.37,-131.8"/>
<polygon fill="black" stroke="black" points="357.37,-135.3 367.37,-131.8 357.36,-128.3 357.37,-135.3"/>
</g>
</g>
</svg>
