<?xml version="1.0" encoding="UTF-8" standalone="no"?>
<!DOCTYPE svg PUBLIC "-//W3C//DTD SVG 1.1//EN"
 "http://www.w3.org/Graphics/SVG/1.1/DTD/svg11.dtd">
<!-- Generated by graphviz version 2.47.0 (20210316.0004)
 -->
<!-- Title: dependencies Pages: 1 -->
<svg width="504pt" height="284pt"
 viewBox="0.00 0.00 504.00 284.00" xmlns="http://www.w3.org/2000/svg" xmlns:xlink="http://www.w3.org/1999/xlink">
<g id="graph0" class="graph" transform="scale(1 1) rotate(0) translate(4 280)">
<title>dependencies</title>
<polygon fill="white" stroke="transparent" points="-4,4 -4,-280 500,-280 500,4 -4,4"/>
<text text-anchor="start" x="227.01" y="-42.4" font-family="Times-12" font-weight="bold" font-size="14.00">Legend</text>
<polygon fill="#ffffb3" stroke="transparent" points="14,-10 14,-30 34,-30 34,-10 14,-10"/>
<text text-anchor="start" x="37.63" y="-15.4" font-family="Times-12" font-size="14.00"> &#160;Declarations</text>
<polygon fill="#8dd3c7" stroke="transparent" points="127,-10 127,-30 147,-30 147,-10 127,-10"/>
<text text-anchor="start" x="150.73" y="-15.4" font-family="Times-12" font-size="14.00"> &#160;Module</text>
<polygon fill="#80b1d3" stroke="transparent" points="213,-10 213,-30 233,-30 233,-10 213,-10"/>
<text text-anchor="start" x="236.78" y="-15.4" font-family="Times-12" font-size="14.00"> &#160;Bootstrap</text>
<polygon fill="#fdb462" stroke="transparent" points="310,-10 310,-30 330,-30 330,-10 310,-10"/>
<text text-anchor="start" x="333.67" y="-15.4" font-family="Times-12" font-size="14.00"> &#160;Providers</text>
<polygon fill="#fb8072" stroke="transparent" points="406,-10 406,-30 426,-30 426,-10 406,-10"/>
<text text-anchor="start" x="429.73" y="-15.4" font-family="Times-12" font-size="14.00"> &#160;Exports</text>
<g id="clust1" class="cluster">
<title>cluster_SACBootstrap3TabsModule</title>
<polygon fill="none" stroke="black" stroke-dasharray="1,5" points="86,-70 86,-268 410,-268 410,-70 86,-70"/>
</g>
<g id="clust2" class="cluster">
<title>cluster_SACBootstrap3TabsModule_declarations</title>
<polygon fill="none" stroke="black" points="98,-78 98,-130 398,-130 398,-78 98,-78"/>
</g>
<g id="clust6" class="cluster">
<title>cluster_SACBootstrap3TabsModule_exports</title>
<polygon fill="none" stroke="black" points="94,-208 94,-260 402,-260 402,-208 94,-208"/>
</g>
<!-- NgTabComponent -->
<g id="node1" class="node">
<title>NgTabComponent</title>
<polygon fill="#ffffb3" stroke="black" points="390.21,-122 269.79,-122 269.79,-86 390.21,-86 390.21,-122"/>
<text text-anchor="middle" x="330" y="-99.8" font-family="Times,serif" font-size="14.00">NgTabComponent</text>
</g>
<!-- SACBootstrap3TabsModule -->
<g id="node3" class="node">
<title>SACBootstrap3TabsModule</title>
<polygon fill="#8dd3c7" stroke="black" points="335.93,-187 332.93,-191 311.93,-191 308.93,-187 160.07,-187 160.07,-151 335.93,-151 335.93,-187"/>
<text text-anchor="middle" x="248" y="-164.8" font-family="Times,serif" font-size="14.00">SACBootstrap3TabsModule</text>
</g>
<!-- NgTabComponent&#45;&gt;SACBootstrap3TabsModule -->
<g id="edge1" class="edge">
<title>NgTabComponent&#45;&gt;SACBootstrap3TabsModule</title>
<path fill="none" stroke="black" d="M302.8,-122.11C302.8,-122.11 302.8,-140.99 302.8,-140.99"/>
<polygon fill="black" stroke="black" points="299.3,-140.99 302.8,-150.99 306.3,-140.99 299.3,-140.99"/>
</g>
<!-- NgTabItemComponent -->
<g id="node2" class="node">
<title>NgTabItemComponent</title>
<polygon fill="#ffffb3" stroke="black" points="251.86,-122 106.14,-122 106.14,-86 251.86,-86 251.86,-122"/>
<text text-anchor="middle" x="179" y="-99.8" font-family="Times,serif" font-size="14.00">NgTabItemComponent</text>
</g>
<!-- NgTabItemComponent&#45;&gt;SACBootstrap3TabsModule -->
<g id="edge2" class="edge">
<title>NgTabItemComponent&#45;&gt;SACBootstrap3TabsModule</title>
<path fill="none" stroke="black" d="M206.11,-122.11C206.11,-122.11 206.11,-140.99 206.11,-140.99"/>
<polygon fill="black" stroke="black" points="202.61,-140.99 206.11,-150.99 209.61,-140.99 202.61,-140.99"/>
</g>
<!-- NgTabComponent  -->
<g id="node4" class="node">
<title>NgTabComponent </title>
<polygon fill="#fb8072" stroke="black" points="393.71,-252 270.29,-252 270.29,-216 393.71,-216 393.71,-252"/>
<text text-anchor="middle" x="332" y="-229.8" font-family="Times,serif" font-size="14.00">NgTabComponent </text>
</g>
<!-- SACBootstrap3TabsModule&#45;&gt;NgTabComponent  -->
<g id="edge3" class="edge">
<title>SACBootstrap3TabsModule&#45;&gt;NgTabComponent </title>
<path fill="none" stroke="black" stroke-dasharray="5,2" d="M302.93,-187.11C302.93,-187.11 302.93,-205.99 302.93,-205.99"/>
<polygon fill="black" stroke="black" points="299.43,-205.99 302.93,-215.99 306.43,-205.99 299.43,-205.99"/>
</g>
<!-- NgTabItemComponent  -->
<g id="node5" class="node">
<title>NgTabItemComponent </title>
<polygon fill="#fb8072" stroke="black" points="251.86,-252 102.14,-252 102.14,-216 251.86,-216 251.86,-252"/>
<text text-anchor="middle" x="177" y="-229.8" font-family="Times,serif" font-size="14.00">NgTabItemComponent </text>
</g>
<!-- SACBootstrap3TabsModule&#45;&gt;NgTabItemComponent  -->
<g id="edge4" class="edge">
<title>SACBootstrap3TabsModule&#45;&gt;NgTabItemComponent </title>
<path fill="none" stroke="black" stroke-dasharray="5,2" d="M205.98,-187.11C205.98,-187.11 205.98,-205.99 205.98,-205.99"/>
<polygon fill="black" stroke="black" points="202.48,-205.99 205.98,-215.99 209.48,-205.99 202.48,-205.99"/>
</g>
</g>
</svg>
