<?xml version="1.0" encoding="UTF-8" standalone="no"?>
<!DOCTYPE svg PUBLIC "-//W3C//DTD SVG 1.1//EN"
 "http://www.w3.org/Graphics/SVG/1.1/DTD/svg11.dtd">
<!-- Generated by graphviz version 2.47.0 (20210316.0004)
 -->
<!-- Title: dependencies Pages: 1 -->
<svg width="2185pt" height="349pt"
 viewBox="0.00 0.00 2185.00 349.00" xmlns="http://www.w3.org/2000/svg" xmlns:xlink="http://www.w3.org/1999/xlink">
<g id="graph0" class="graph" transform="scale(1 1) rotate(0) translate(4 345)">
<title>dependencies</title>
<polygon fill="white" stroke="transparent" points="-4,4 -4,-345 2181,-345 2181,4 -4,4"/>
<text text-anchor="start" x="1067.51" y="-42.4" font-family="Times-12" font-weight="bold" font-size="14.00">Legend</text>
<polygon fill="#ffffb3" stroke="transparent" points="854.5,-10 854.5,-30 874.5,-30 874.5,-10 854.5,-10"/>
<text text-anchor="start" x="878.13" y="-15.4" font-family="Times-12" font-size="14.00"> &#160;Declarations</text>
<polygon fill="#8dd3c7" stroke="transparent" points="967.5,-10 967.5,-30 987.5,-30 987.5,-10 967.5,-10"/>
<text text-anchor="start" x="991.23" y="-15.4" font-family="Times-12" font-size="14.00"> &#160;Module</text>
<polygon fill="#80b1d3" stroke="transparent" points="1053.5,-10 1053.5,-30 1073.5,-30 1073.5,-10 1053.5,-10"/>
<text text-anchor="start" x="1077.28" y="-15.4" font-family="Times-12" font-size="14.00"> &#160;Bootstrap</text>
<polygon fill="#fdb462" stroke="transparent" points="1150.5,-10 1150.5,-30 1170.5,-30 1170.5,-10 1150.5,-10"/>
<text text-anchor="start" x="1174.17" y="-15.4" font-family="Times-12" font-size="14.00"> &#160;Providers</text>
<polygon fill="#fb8072" stroke="transparent" points="1246.5,-10 1246.5,-30 1266.5,-30 1266.5,-10 1246.5,-10"/>
<text text-anchor="start" x="1270.23" y="-15.4" font-family="Times-12" font-size="14.00"> &#160;Exports</text>
<g id="clust1" class="cluster">
<title>cluster_SACBootstrap3StaticLabelModule</title>
<polygon fill="none" stroke="black" stroke-dasharray="1,5" points="8,-70 8,-333 2169,-333 2169,-70 8,-70"/>
</g>
<g id="clust6" class="cluster">
<title>cluster_SACBootstrap3StaticLabelModule_exports</title>
<polygon fill="none" stroke="black" points="115,-273 115,-325 535,-325 535,-273 115,-273"/>
</g>
<g id="clust3" class="cluster">
<title>cluster_SACBootstrap3StaticLabelModule_NgStaticFormContainerComponent_providers</title>
<polygon fill="none" stroke="black" points="416,-78 416,-195 2161,-195 2161,-78 416,-78"/>
</g>
<g id="clust5" class="cluster">
<title>cluster_SACBootstrap3StaticLabelModule_imports</title>
<polygon fill="none" stroke="black" points="202,-143 202,-195 408,-195 408,-143 202,-143"/>
</g>
<g id="clust2" class="cluster">
<title>cluster_SACBootstrap3StaticLabelModule_declarations</title>
<polygon fill="none" stroke="black" points="16,-143 16,-195 194,-195 194,-143 16,-143"/>
</g>
<!-- NgStaticFormContainerComponent -->
<g id="node1" class="node">
<title>NgStaticFormContainerComponent</title>
<polygon fill="#ffffb3" stroke="black" points="982.86,-187 767.14,-187 767.14,-151 982.86,-151 982.86,-187"/>
<text text-anchor="middle" x="875" y="-164.8" font-family="Times,serif" font-size="14.00">NgStaticFormContainerComponent</text>
</g>
<!-- SACBootstrap3StaticLabelModule -->
<g id="node3" class="node">
<title>SACBootstrap3StaticLabelModule</title>
<polygon fill="#8dd3c7" stroke="black" points="410.97,-252 407.97,-256 386.97,-256 383.97,-252 199.03,-252 199.03,-216 410.97,-216 410.97,-252"/>
<text text-anchor="middle" x="305" y="-229.8" font-family="Times,serif" font-size="14.00">SACBootstrap3StaticLabelModule</text>
</g>
<!-- NgStaticFormContainerComponent&#45;&gt;SACBootstrap3StaticLabelModule -->
<g id="edge1" class="edge">
<title>NgStaticFormContainerComponent&#45;&gt;SACBootstrap3StaticLabelModule</title>
<path fill="none" stroke="black" d="M766.96,-169C628.28,-169 405.35,-169 405.35,-169 405.35,-169 405.35,-205.89 405.35,-205.89"/>
<polygon fill="black" stroke="black" points="401.85,-205.89 405.35,-215.89 408.85,-205.89 401.85,-205.89"/>
</g>
<!-- NgStaticLabelComponent -->
<g id="node2" class="node">
<title>NgStaticLabelComponent</title>
<polygon fill="#ffffb3" stroke="black" points="186.2,-187 23.8,-187 23.8,-151 186.2,-151 186.2,-187"/>
<text text-anchor="middle" x="105" y="-164.8" font-family="Times,serif" font-size="14.00">NgStaticLabelComponent</text>
</g>
<!-- NgStaticLabelComponent&#45;&gt;SACBootstrap3StaticLabelModule -->
<g id="edge4" class="edge">
<title>NgStaticLabelComponent&#45;&gt;SACBootstrap3StaticLabelModule</title>
<path fill="none" stroke="black" d="M186.37,-169C197.2,-169 204.65,-169 204.65,-169 204.65,-169 204.65,-205.89 204.65,-205.89"/>
<polygon fill="black" stroke="black" points="201.15,-205.89 204.65,-215.89 208.15,-205.89 201.15,-205.89"/>
</g>
<!-- NgStaticFormContainerComponent  -->
<g id="node7" class="node">
<title>NgStaticFormContainerComponent </title>
<polygon fill="#fb8072" stroke="black" points="526.86,-317 307.14,-317 307.14,-281 526.86,-281 526.86,-317"/>
<text text-anchor="middle" x="417" y="-294.8" font-family="Times,serif" font-size="14.00">NgStaticFormContainerComponent </text>
</g>
<!-- SACBootstrap3StaticLabelModule&#45;&gt;NgStaticFormContainerComponent  -->
<g id="edge6" class="edge">
<title>SACBootstrap3StaticLabelModule&#45;&gt;NgStaticFormContainerComponent </title>
<path fill="none" stroke="black" stroke-dasharray="5,2" d="M359.15,-252.11C359.15,-252.11 359.15,-270.99 359.15,-270.99"/>
<polygon fill="black" stroke="black" points="355.65,-270.99 359.15,-280.99 362.65,-270.99 355.65,-270.99"/>
</g>
<!-- NgStaticLabelComponent  -->
<g id="node8" class="node">
<title>NgStaticLabelComponent </title>
<polygon fill="#fb8072" stroke="black" points="288.7,-317 123.3,-317 123.3,-281 288.7,-281 288.7,-317"/>
<text text-anchor="middle" x="206" y="-294.8" font-family="Times,serif" font-size="14.00">NgStaticLabelComponent </text>
</g>
<!-- SACBootstrap3StaticLabelModule&#45;&gt;NgStaticLabelComponent  -->
<g id="edge7" class="edge">
<title>SACBootstrap3StaticLabelModule&#45;&gt;NgStaticLabelComponent </title>
<path fill="none" stroke="black" stroke-dasharray="5,2" d="M243.93,-252.11C243.93,-252.11 243.93,-270.99 243.93,-270.99"/>
<polygon fill="black" stroke="black" points="240.43,-270.99 243.93,-280.99 247.43,-270.99 240.43,-270.99"/>
</g>
<!-- { provide: NG_VALUE_ACCESSOR, multi: true, useExisting: NgStaticFormContainerComponent } -->
<g id="node4" class="node">
<title>{ provide: NG_VALUE_ACCESSOR, multi: true, useExisting: NgStaticFormContainerComponent }</title>
<ellipse fill="#fdb462" stroke="black" cx="1749" cy="-104" rx="404.25" ry="18"/>
<text text-anchor="middle" x="1749" y="-99.8" font-family="Times,serif" font-size="14.00">{ provide: NG_VALUE_ACCESSOR, multi: true, useExisting: NgStaticFormContainerComponent }</text>
</g>
<!-- { provide: NG_VALUE_ACCESSOR, multi: true, useExisting: NgStaticFormContainerComponent }&#45;&gt;NgStaticFormContainerComponent -->
<g id="edge2" class="edge">
<title>{ provide: NG_VALUE_ACCESSOR, multi: true, useExisting: NgStaticFormContainerComponent }&#45;&gt;NgStaticFormContainerComponent</title>
<path fill="none" stroke="black" d="M1749,-122.11C1749,-141.34 1749,-169 1749,-169 1749,-169 993.05,-169 993.05,-169"/>
<polygon fill="black" stroke="black" points="993.05,-165.5 983.05,-169 993.05,-172.5 993.05,-165.5"/>
</g>
<!-- { provide: NG_VALIDATORS, multi: true, useExisting: forwardRef(() =&gt; NgStaticFormContainerComponent) } -->
<g id="node5" class="node">
<title>{ provide: NG_VALIDATORS, multi: true, useExisting: forwardRef(() =&gt; NgStaticFormContainerComponent) }</title>
<ellipse fill="#fdb462" stroke="black" cx="875" cy="-104" rx="451.39" ry="18"/>
<text text-anchor="middle" x="875" y="-99.8" font-family="Times,serif" font-size="14.00">{ provide: NG_VALIDATORS, multi: true, useExisting: forwardRef(() =&gt; NgStaticFormContainerComponent) }</text>
</g>
<!-- { provide: NG_VALIDATORS, multi: true, useExisting: forwardRef(() =&gt; NgStaticFormContainerComponent) }&#45;&gt;NgStaticFormContainerComponent -->
<g id="edge3" class="edge">
<title>{ provide: NG_VALIDATORS, multi: true, useExisting: forwardRef(() =&gt; NgStaticFormContainerComponent) }&#45;&gt;NgStaticFormContainerComponent</title>
<path fill="none" stroke="black" d="M875,-122.11C875,-122.11 875,-140.99 875,-140.99"/>
<polygon fill="black" stroke="black" points="871.5,-140.99 875,-150.99 878.5,-140.99 871.5,-140.99"/>
</g>
<!-- SACBootstrap3TooltipModule -->
<g id="node6" class="node">
<title>SACBootstrap3TooltipModule</title>
<polygon fill="#8dd3c7" stroke="black" points="399.94,-187 396.94,-191 375.94,-191 372.94,-187 210.06,-187 210.06,-151 399.94,-151 399.94,-187"/>
<text text-anchor="middle" x="305" y="-164.8" font-family="Times,serif" font-size="14.00">SACBootstrap3TooltipModule</text>
</g>
<!-- SACBootstrap3TooltipModule&#45;&gt;SACBootstrap3StaticLabelModule -->
<g id="edge5" class="edge">
<title>SACBootstrap3TooltipModule&#45;&gt;SACBootstrap3StaticLabelModule</title>
<path fill="none" stroke="black" d="M305,-187.11C305,-187.11 305,-205.99 305,-205.99"/>
<polygon fill="black" stroke="black" points="301.5,-205.99 305,-215.99 308.5,-205.99 301.5,-205.99"/>
</g>
</g>
</svg>
