<?xml version="1.0" encoding="UTF-8" standalone="no"?>
<!DOCTYPE svg PUBLIC "-//W3C//DTD SVG 1.1//EN"
 "http://www.w3.org/Graphics/SVG/1.1/DTD/svg11.dtd">
<!-- Generated by graphviz version 2.47.0 (20210316.0004)
 -->
<!-- Title: dependencies Pages: 1 -->
<svg width="1794pt" height="349pt"
 viewBox="0.00 0.00 1794.00 349.00" xmlns="http://www.w3.org/2000/svg" xmlns:xlink="http://www.w3.org/1999/xlink">
<g id="graph0" class="graph" transform="scale(1 1) rotate(0) translate(4 345)">
<title>dependencies</title>
<polygon fill="white" stroke="transparent" points="-4,4 -4,-345 1790,-345 1790,4 -4,4"/>
<text text-anchor="start" x="872.01" y="-42.4" font-family="Times-12" font-weight="bold" font-size="14.00">Legend</text>
<polygon fill="#ffffb3" stroke="transparent" points="659,-10 659,-30 679,-30 679,-10 659,-10"/>
<text text-anchor="start" x="682.63" y="-15.4" font-family="Times-12" font-size="14.00"> &#160;Declarations</text>
<polygon fill="#8dd3c7" stroke="transparent" points="772,-10 772,-30 792,-30 792,-10 772,-10"/>
<text text-anchor="start" x="795.73" y="-15.4" font-family="Times-12" font-size="14.00"> &#160;Module</text>
<polygon fill="#80b1d3" stroke="transparent" points="858,-10 858,-30 878,-30 878,-10 858,-10"/>
<text text-anchor="start" x="881.78" y="-15.4" font-family="Times-12" font-size="14.00"> &#160;Bootstrap</text>
<polygon fill="#fdb462" stroke="transparent" points="955,-10 955,-30 975,-30 975,-10 955,-10"/>
<text text-anchor="start" x="978.67" y="-15.4" font-family="Times-12" font-size="14.00"> &#160;Providers</text>
<polygon fill="#fb8072" stroke="transparent" points="1051,-10 1051,-30 1071,-30 1071,-10 1051,-10"/>
<text text-anchor="start" x="1074.73" y="-15.4" font-family="Times-12" font-size="14.00"> &#160;Exports</text>
<g id="clust1" class="cluster">
<title>cluster_SACBootstrap3StaticLabelModule</title>
<polygon fill="none" stroke="black" stroke-dasharray="1,5" points="8,-70 8,-333 1778,-333 1778,-70 8,-70"/>
</g>
<g id="clust6" class="cluster">
<title>cluster_SACBootstrap3StaticLabelModule_exports</title>
<polygon fill="none" stroke="black" points="718,-273 718,-325 1143,-325 1143,-273 718,-273"/>
</g>
<g id="clust5" class="cluster">
<title>cluster_SACBootstrap3StaticLabelModule_imports</title>
<polygon fill="none" stroke="black" points="1042,-143 1042,-195 1248,-195 1248,-143 1042,-143"/>
</g>
<g id="clust2" class="cluster">
<title>cluster_SACBootstrap3StaticLabelModule_declarations</title>
<polygon fill="none" stroke="black" points="616,-143 616,-195 1034,-195 1034,-143 616,-143"/>
</g>
<g id="clust3" class="cluster">
<title>cluster_SACBootstrap3StaticLabelModule_SacStaticFormContainerComponent_providers</title>
<polygon fill="none" stroke="black" points="16,-78 16,-130 1770,-130 1770,-78 16,-78"/>
</g>
<!-- SacStaticFormContainerComponent -->
<g id="node1" class="node">
<title>SacStaticFormContainerComponent</title>
<polygon fill="#ffffb3" stroke="black" points="1026.47,-187 807.53,-187 807.53,-151 1026.47,-151 1026.47,-187"/>
<text text-anchor="middle" x="917" y="-164.8" font-family="Times,serif" font-size="14.00">SacStaticFormContainerComponent</text>
</g>
<!-- SACBootstrap3StaticLabelModule -->
<g id="node3" class="node">
<title>SACBootstrap3StaticLabelModule</title>
<polygon fill="#8dd3c7" stroke="black" points="1022.97,-252 1019.97,-256 998.97,-256 995.97,-252 811.03,-252 811.03,-216 1022.97,-216 1022.97,-252"/>
<text text-anchor="middle" x="917" y="-229.8" font-family="Times,serif" font-size="14.00">SACBootstrap3StaticLabelModule</text>
</g>
<!-- SacStaticFormContainerComponent&#45;&gt;SACBootstrap3StaticLabelModule -->
<g id="edge1" class="edge">
<title>SacStaticFormContainerComponent&#45;&gt;SACBootstrap3StaticLabelModule</title>
<path fill="none" stroke="black" d="M917,-187.11C917,-187.11 917,-205.99 917,-205.99"/>
<polygon fill="black" stroke="black" points="913.5,-205.99 917,-215.99 920.5,-205.99 913.5,-205.99"/>
</g>
<!-- SacStaticLabelComponent -->
<g id="node2" class="node">
<title>SacStaticLabelComponent</title>
<polygon fill="#ffffb3" stroke="black" points="789.8,-187 624.2,-187 624.2,-151 789.8,-151 789.8,-187"/>
<text text-anchor="middle" x="707" y="-164.8" font-family="Times,serif" font-size="14.00">SacStaticLabelComponent</text>
</g>
<!-- SacStaticLabelComponent&#45;&gt;SACBootstrap3StaticLabelModule -->
<g id="edge4" class="edge">
<title>SacStaticLabelComponent&#45;&gt;SACBootstrap3StaticLabelModule</title>
<path fill="none" stroke="black" d="M757.62,-187.11C757.62,-206.34 757.62,-234 757.62,-234 757.62,-234 800.69,-234 800.69,-234"/>
<polygon fill="black" stroke="black" points="800.69,-237.5 810.69,-234 800.69,-230.5 800.69,-237.5"/>
</g>
<!-- SacStaticFormContainerComponent  -->
<g id="node7" class="node">
<title>SacStaticFormContainerComponent </title>
<polygon fill="#fb8072" stroke="black" points="1135.47,-317 912.53,-317 912.53,-281 1135.47,-281 1135.47,-317"/>
<text text-anchor="middle" x="1024" y="-294.8" font-family="Times,serif" font-size="14.00">SacStaticFormContainerComponent </text>
</g>
<!-- SACBootstrap3StaticLabelModule&#45;&gt;SacStaticFormContainerComponent  -->
<g id="edge6" class="edge">
<title>SACBootstrap3StaticLabelModule&#45;&gt;SacStaticFormContainerComponent </title>
<path fill="none" stroke="black" stroke-dasharray="5,2" d="M967.88,-252.11C967.88,-252.11 967.88,-270.99 967.88,-270.99"/>
<polygon fill="black" stroke="black" points="964.38,-270.99 967.88,-280.99 971.38,-270.99 964.38,-270.99"/>
</g>
<!-- SacStaticLabelComponent  -->
<g id="node8" class="node">
<title>SacStaticLabelComponent </title>
<polygon fill="#fb8072" stroke="black" points="894.3,-317 725.7,-317 725.7,-281 894.3,-281 894.3,-317"/>
<text text-anchor="middle" x="810" y="-294.8" font-family="Times,serif" font-size="14.00">SacStaticLabelComponent </text>
</g>
<!-- SACBootstrap3StaticLabelModule&#45;&gt;SacStaticLabelComponent  -->
<g id="edge7" class="edge">
<title>SACBootstrap3StaticLabelModule&#45;&gt;SacStaticLabelComponent </title>
<path fill="none" stroke="black" stroke-dasharray="5,2" d="M852.71,-252.11C852.71,-252.11 852.71,-270.99 852.71,-270.99"/>
<polygon fill="black" stroke="black" points="849.21,-270.99 852.71,-280.99 856.21,-270.99 849.21,-270.99"/>
</g>
<!-- { provide: NG_VALUE_ACCESSOR, multi: true, useExisting: SacStaticFormContainerComponent } -->
<g id="node4" class="node">
<title>{ provide: NG_VALUE_ACCESSOR, multi: true, useExisting: SacStaticFormContainerComponent }</title>
<ellipse fill="#fdb462" stroke="black" cx="1356" cy="-104" rx="406.03" ry="18"/>
<text text-anchor="middle" x="1356" y="-99.8" font-family="Times,serif" font-size="14.00">{ provide: NG_VALUE_ACCESSOR, multi: true, useExisting: SacStaticFormContainerComponent }</text>
</g>
<!-- { provide: NG_VALUE_ACCESSOR, multi: true, useExisting: SacStaticFormContainerComponent }&#45;&gt;SacStaticFormContainerComponent -->
<g id="edge2" class="edge">
<title>{ provide: NG_VALUE_ACCESSOR, multi: true, useExisting: SacStaticFormContainerComponent }&#45;&gt;SacStaticFormContainerComponent</title>
<path fill="none" stroke="black" d="M988.11,-111.71C988.11,-111.71 988.11,-140.99 988.11,-140.99"/>
<polygon fill="black" stroke="black" points="984.61,-140.99 988.11,-150.99 991.61,-140.99 984.61,-140.99"/>
</g>
<!-- { provide: NG_VALIDATORS, multi: true, useExisting: forwardRef(() =&gt; SacStaticFormContainerComponent) } -->
<g id="node5" class="node">
<title>{ provide: NG_VALIDATORS, multi: true, useExisting: forwardRef(() =&gt; SacStaticFormContainerComponent) }</title>
<ellipse fill="#fdb462" stroke="black" cx="478" cy="-104" rx="453.67" ry="18"/>
<text text-anchor="middle" x="478" y="-99.8" font-family="Times,serif" font-size="14.00">{ provide: NG_VALIDATORS, multi: true, useExisting: forwardRef(() =&gt; SacStaticFormContainerComponent) }</text>
</g>
<!-- { provide: NG_VALIDATORS, multi: true, useExisting: forwardRef(() =&gt; SacStaticFormContainerComponent) }&#45;&gt;SacStaticFormContainerComponent -->
<g id="edge3" class="edge">
<title>{ provide: NG_VALIDATORS, multi: true, useExisting: forwardRef(() =&gt; SacStaticFormContainerComponent) }&#45;&gt;SacStaticFormContainerComponent</title>
<path fill="none" stroke="black" d="M869.55,-113.31C869.55,-113.31 869.55,-140.85 869.55,-140.85"/>
<polygon fill="black" stroke="black" points="866.05,-140.85 869.55,-150.85 873.05,-140.85 866.05,-140.85"/>
</g>
<!-- SACBootstrap3TooltipModule -->
<g id="node6" class="node">
<title>SACBootstrap3TooltipModule</title>
<polygon fill="#8dd3c7" stroke="black" points="1239.94,-187 1236.94,-191 1215.94,-191 1212.94,-187 1050.06,-187 1050.06,-151 1239.94,-151 1239.94,-187"/>
<text text-anchor="middle" x="1145" y="-164.8" font-family="Times,serif" font-size="14.00">SACBootstrap3TooltipModule</text>
</g>
<!-- SACBootstrap3TooltipModule&#45;&gt;SACBootstrap3StaticLabelModule -->
<g id="edge5" class="edge">
<title>SACBootstrap3TooltipModule&#45;&gt;SACBootstrap3StaticLabelModule</title>
<path fill="none" stroke="black" d="M1092.76,-187.11C1092.76,-206.34 1092.76,-234 1092.76,-234 1092.76,-234 1033.04,-234 1033.04,-234"/>
<polygon fill="black" stroke="black" points="1033.04,-230.5 1023.04,-234 1033.04,-237.5 1033.04,-230.5"/>
</g>
</g>
</svg>
