<?xml version="1.0" encoding="UTF-8" standalone="no"?>
<!DOCTYPE svg PUBLIC "-//W3C//DTD SVG 1.1//EN"
 "http://www.w3.org/Graphics/SVG/1.1/DTD/svg11.dtd">
<!-- Generated by graphviz version 2.46.0 (20210119.1425)
 -->
<!-- Title: dependencies Pages: 1 -->
<svg width="5168pt" height="349pt"
 viewBox="0.00 0.00 5168.00 349.00" xmlns="http://www.w3.org/2000/svg" xmlns:xlink="http://www.w3.org/1999/xlink">
<g id="graph0" class="graph" transform="scale(1 1) rotate(0) translate(4 345)">
<title>dependencies</title>
<polygon fill="white" stroke="transparent" points="-4,4 -4,-345 5164,-345 5164,4 -4,4"/>
<text text-anchor="start" x="2559.01" y="-42.4" font-family="sans-serif" font-weight="bold" font-size="14.00">Legend</text>
<polygon fill="#ffffb3" stroke="transparent" points="2346,-10 2346,-30 2366,-30 2366,-10 2346,-10"/>
<text text-anchor="start" x="2369.63" y="-15.4" font-family="sans-serif" font-size="14.00"> &#160;Declarations</text>
<polygon fill="#8dd3c7" stroke="transparent" points="2459,-10 2459,-30 2479,-30 2479,-10 2459,-10"/>
<text text-anchor="start" x="2482.73" y="-15.4" font-family="sans-serif" font-size="14.00"> &#160;Module</text>
<polygon fill="#80b1d3" stroke="transparent" points="2545,-10 2545,-30 2565,-30 2565,-10 2545,-10"/>
<text text-anchor="start" x="2568.78" y="-15.4" font-family="sans-serif" font-size="14.00"> &#160;Bootstrap</text>
<polygon fill="#fdb462" stroke="transparent" points="2642,-10 2642,-30 2662,-30 2662,-10 2642,-10"/>
<text text-anchor="start" x="2665.67" y="-15.4" font-family="sans-serif" font-size="14.00"> &#160;Providers</text>
<polygon fill="#fb8072" stroke="transparent" points="2738,-10 2738,-30 2758,-30 2758,-10 2738,-10"/>
<text text-anchor="start" x="2761.73" y="-15.4" font-family="sans-serif" font-size="14.00"> &#160;Exports</text>
<g id="clust1" class="cluster">
<title>cluster_JNetworkBootstrap4GridModule</title>
<polygon fill="none" stroke="black" stroke-dasharray="1,5" points="8,-70 8,-333 5152,-333 5152,-70 8,-70"/>
</g>
<g id="clust4" class="cluster">
<title>cluster_JNetworkBootstrap4GridModule_NgGridColumnActionComponent_providers</title>
<polygon fill="none" stroke="black" points="4258,-78 4258,-195 5144,-195 5144,-78 4258,-78"/>
</g>
<g id="clust8" class="cluster">
<title>cluster_JNetworkBootstrap4GridModule_NgPagingComponent_providers</title>
<polygon fill="none" stroke="black" points="2722,-78 2722,-195 4250,-195 4250,-78 2722,-78"/>
</g>
<g id="clust10" class="cluster">
<title>cluster_JNetworkBootstrap4GridModule_exports</title>
<polygon fill="none" stroke="black" points="1735,-273 1735,-325 1923,-325 1923,-273 1735,-273"/>
</g>
<g id="clust5" class="cluster">
<title>cluster_JNetworkBootstrap4GridModule_NgGridColumnComponent_providers</title>
<polygon fill="none" stroke="black" points="1880,-78 1880,-195 2714,-195 2714,-78 1880,-78"/>
</g>
<g id="clust6" class="cluster">
<title>cluster_JNetworkBootstrap4GridModule_NgGridComponent_providers</title>
<polygon fill="none" stroke="black" points="380,-78 380,-195 1872,-195 1872,-78 380,-78"/>
</g>
<g id="clust2" class="cluster">
<title>cluster_JNetworkBootstrap4GridModule_declarations</title>
<polygon fill="none" stroke="black" points="16,-143 16,-195 372,-195 372,-143 16,-143"/>
</g>
<!-- NgGridButtonComponent -->
<g id="node1" class="node">
<title>NgGridButtonComponent</title>
<polygon fill="#ffffb3" stroke="black" points="364.21,-187 201.79,-187 201.79,-151 364.21,-151 364.21,-187"/>
<text text-anchor="middle" x="283" y="-164.8" font-family="Times,serif" font-size="14.00">NgGridButtonComponent</text>
</g>
<!-- JNetworkBootstrap4GridModule -->
<g id="node7" class="node">
<title>JNetworkBootstrap4GridModule</title>
<polygon fill="#8dd3c7" stroke="black" points="1929.57,-252 1926.57,-256 1905.57,-256 1902.57,-252 1728.43,-252 1728.43,-216 1929.57,-216 1929.57,-252"/>
<text text-anchor="middle" x="1829" y="-229.8" font-family="Times,serif" font-size="14.00">JNetworkBootstrap4GridModule</text>
</g>
<!-- NgGridButtonComponent&#45;&gt;JNetworkBootstrap4GridModule -->
<g id="edge1" class="edge">
<title>NgGridButtonComponent&#45;&gt;JNetworkBootstrap4GridModule</title>
<path fill="none" stroke="black" d="M283,-187.11C283,-206.34 283,-234 283,-234 283,-234 1718.46,-234 1718.46,-234"/>
<polygon fill="black" stroke="black" points="1718.46,-237.5 1728.46,-234 1718.46,-230.5 1718.46,-237.5"/>
</g>
<!-- NgGridColumnActionComponent -->
<g id="node2" class="node">
<title>NgGridColumnActionComponent</title>
<polygon fill="#ffffb3" stroke="black" points="4638.82,-187 4431.18,-187 4431.18,-151 4638.82,-151 4638.82,-187"/>
<text text-anchor="middle" x="4535" y="-164.8" font-family="Times,serif" font-size="14.00">NgGridColumnActionComponent</text>
</g>
<!-- NgGridColumnActionComponent&#45;&gt;JNetworkBootstrap4GridModule -->
<g id="edge2" class="edge">
<title>NgGridColumnActionComponent&#45;&gt;JNetworkBootstrap4GridModule</title>
<path fill="none" stroke="black" d="M4535,-187.28C4535,-208.32 4535,-240 4535,-240 4535,-240 1939.73,-240 1939.73,-240"/>
<polygon fill="black" stroke="black" points="1939.73,-236.5 1929.73,-240 1939.73,-243.5 1939.73,-236.5"/>
</g>
<!-- NgGridColumnComponent -->
<g id="node3" class="node">
<title>NgGridColumnComponent</title>
<polygon fill="#ffffb3" stroke="black" points="2219.71,-187 2050.29,-187 2050.29,-151 2219.71,-151 2219.71,-187"/>
<text text-anchor="middle" x="2135" y="-164.8" font-family="Times,serif" font-size="14.00">NgGridColumnComponent</text>
</g>
<!-- NgGridColumnComponent&#45;&gt;JNetworkBootstrap4GridModule -->
<g id="edge4" class="edge">
<title>NgGridColumnComponent&#45;&gt;JNetworkBootstrap4GridModule</title>
<path fill="none" stroke="black" d="M2050.15,-169C1985.98,-169 1908.86,-169 1908.86,-169 1908.86,-169 1908.86,-205.89 1908.86,-205.89"/>
<polygon fill="black" stroke="black" points="1905.36,-205.89 1908.86,-215.89 1912.36,-205.89 1905.36,-205.89"/>
</g>
<!-- NgGridComponent -->
<g id="node4" class="node">
<title>NgGridComponent</title>
<polygon fill="#ffffb3" stroke="black" points="1585.1,-187 1460.9,-187 1460.9,-151 1585.1,-151 1585.1,-187"/>
<text text-anchor="middle" x="1523" y="-164.8" font-family="Times,serif" font-size="14.00">NgGridComponent</text>
</g>
<!-- NgGridComponent&#45;&gt;JNetworkBootstrap4GridModule -->
<g id="edge6" class="edge">
<title>NgGridComponent&#45;&gt;JNetworkBootstrap4GridModule</title>
<path fill="none" stroke="black" d="M1523,-187.03C1523,-203.4 1523,-225 1523,-225 1523,-225 1718.38,-225 1718.38,-225"/>
<polygon fill="black" stroke="black" points="1718.38,-228.5 1728.38,-225 1718.38,-221.5 1718.38,-228.5"/>
</g>
<!-- NgGridImageComponent -->
<g id="node5" class="node">
<title>NgGridImageComponent</title>
<polygon fill="#ffffb3" stroke="black" points="183.58,-187 24.42,-187 24.42,-151 183.58,-151 183.58,-187"/>
<text text-anchor="middle" x="104" y="-164.8" font-family="Times,serif" font-size="14.00">NgGridImageComponent</text>
</g>
<!-- NgGridImageComponent&#45;&gt;JNetworkBootstrap4GridModule -->
<g id="edge9" class="edge">
<title>NgGridImageComponent&#45;&gt;JNetworkBootstrap4GridModule</title>
<path fill="none" stroke="black" d="M104,-187.29C104,-209.21 104,-243 104,-243 104,-243 1718.17,-243 1718.17,-243"/>
<polygon fill="black" stroke="black" points="1718.17,-246.5 1728.17,-243 1718.17,-239.5 1718.17,-246.5"/>
</g>
<!-- NgPagingComponent -->
<g id="node6" class="node">
<title>NgPagingComponent</title>
<polygon fill="#ffffb3" stroke="black" points="3195.83,-187 3058.17,-187 3058.17,-151 3195.83,-151 3195.83,-187"/>
<text text-anchor="middle" x="3127" y="-164.8" font-family="Times,serif" font-size="14.00">NgPagingComponent</text>
</g>
<!-- NgPagingComponent&#45;&gt;JNetworkBootstrap4GridModule -->
<g id="edge10" class="edge">
<title>NgPagingComponent&#45;&gt;JNetworkBootstrap4GridModule</title>
<path fill="none" stroke="black" d="M3127,-187.02C3127,-204.37 3127,-228 3127,-228 3127,-228 1939.77,-228 1939.77,-228"/>
<polygon fill="black" stroke="black" points="1939.77,-224.5 1929.77,-228 1939.77,-231.5 1939.77,-224.5"/>
</g>
<!-- NgGridColumnComponent  -->
<g id="node14" class="node">
<title>NgGridColumnComponent </title>
<polygon fill="#fb8072" stroke="black" points="1915.21,-317 1742.79,-317 1742.79,-281 1915.21,-281 1915.21,-317"/>
<text text-anchor="middle" x="1829" y="-294.8" font-family="Times,serif" font-size="14.00">NgGridColumnComponent </text>
</g>
<!-- JNetworkBootstrap4GridModule&#45;&gt;NgGridColumnComponent  -->
<g id="edge13" class="edge">
<title>JNetworkBootstrap4GridModule&#45;&gt;NgGridColumnComponent </title>
<path fill="none" stroke="black" stroke-dasharray="5,2" d="M1829,-252.11C1829,-252.11 1829,-270.99 1829,-270.99"/>
<polygon fill="black" stroke="black" points="1825.5,-270.99 1829,-280.99 1832.5,-270.99 1825.5,-270.99"/>
</g>
<!-- { provide: NgGridColumnBaseCommon, useExisting: forwardRef(() =&gt; NgGridColumnActionComponent) } -->
<g id="node8" class="node">
<title>{ provide: NgGridColumnBaseCommon, useExisting: forwardRef(() =&gt; NgGridColumnActionComponent) }</title>
<ellipse fill="#fdb462" stroke="black" cx="4701" cy="-104" rx="435.21" ry="18"/>
<text text-anchor="middle" x="4701" y="-99.8" font-family="Times,serif" font-size="14.00">{ provide: NgGridColumnBaseCommon, useExisting: forwardRef(() =&gt; NgGridColumnActionComponent) }</text>
</g>
<!-- { provide: NgGridColumnBaseCommon, useExisting: forwardRef(() =&gt; NgGridColumnActionComponent) }&#45;&gt;NgGridColumnActionComponent -->
<g id="edge3" class="edge">
<title>{ provide: NgGridColumnBaseCommon, useExisting: forwardRef(() =&gt; NgGridColumnActionComponent) }&#45;&gt;NgGridColumnActionComponent</title>
<path fill="none" stroke="black" d="M4535,-120.74C4535,-120.74 4535,-140.72 4535,-140.72"/>
<polygon fill="black" stroke="black" points="4531.5,-140.72 4535,-150.72 4538.5,-140.72 4531.5,-140.72"/>
</g>
<!-- { provide: NgGridColumnBaseCommon, useExisting: forwardRef(() =&gt; NgGridColumnComponent) } -->
<g id="node9" class="node">
<title>{ provide: NgGridColumnBaseCommon, useExisting: forwardRef(() =&gt; NgGridColumnComponent) }</title>
<ellipse fill="#fdb462" stroke="black" cx="2297" cy="-104" rx="408.65" ry="18"/>
<text text-anchor="middle" x="2297" y="-99.8" font-family="Times,serif" font-size="14.00">{ provide: NgGridColumnBaseCommon, useExisting: forwardRef(() =&gt; NgGridColumnComponent) }</text>
</g>
<!-- { provide: NgGridColumnBaseCommon, useExisting: forwardRef(() =&gt; NgGridColumnComponent) }&#45;&gt;NgGridColumnComponent -->
<g id="edge5" class="edge">
<title>{ provide: NgGridColumnBaseCommon, useExisting: forwardRef(() =&gt; NgGridColumnComponent) }&#45;&gt;NgGridColumnComponent</title>
<path fill="none" stroke="black" d="M2135,-120.74C2135,-120.74 2135,-140.72 2135,-140.72"/>
<polygon fill="black" stroke="black" points="2131.5,-140.72 2135,-150.72 2138.5,-140.72 2131.5,-140.72"/>
</g>
<!-- { provide: NG_VALUE_ACCESSOR, multi: true, useExisting: NgGridComponent } -->
<g id="node10" class="node">
<title>{ provide: NG_VALUE_ACCESSOR, multi: true, useExisting: NgGridComponent }</title>
<ellipse fill="#fdb462" stroke="black" cx="1523" cy="-104" rx="340.65" ry="18"/>
<text text-anchor="middle" x="1523" y="-99.8" font-family="Times,serif" font-size="14.00">{ provide: NG_VALUE_ACCESSOR, multi: true, useExisting: NgGridComponent }</text>
</g>
<!-- { provide: NG_VALUE_ACCESSOR, multi: true, useExisting: NgGridComponent }&#45;&gt;NgGridComponent -->
<g id="edge7" class="edge">
<title>{ provide: NG_VALUE_ACCESSOR, multi: true, useExisting: NgGridComponent }&#45;&gt;NgGridComponent</title>
<path fill="none" stroke="black" d="M1523,-122.11C1523,-122.11 1523,-140.99 1523,-140.99"/>
<polygon fill="black" stroke="black" points="1519.5,-140.99 1523,-150.99 1526.5,-140.99 1519.5,-140.99"/>
</g>
<!-- { provide: NG_VALIDATORS, multi: true, useExisting: forwardRef(() =&gt; NgGridComponent) } -->
<g id="node11" class="node">
<title>{ provide: NG_VALIDATORS, multi: true, useExisting: forwardRef(() =&gt; NgGridComponent) }</title>
<ellipse fill="#fdb462" stroke="black" cx="776" cy="-104" rx="388.29" ry="18"/>
<text text-anchor="middle" x="776" y="-99.8" font-family="Times,serif" font-size="14.00">{ provide: NG_VALIDATORS, multi: true, useExisting: forwardRef(() =&gt; NgGridComponent) }</text>
</g>
<!-- { provide: NG_VALIDATORS, multi: true, useExisting: forwardRef(() =&gt; NgGridComponent) }&#45;&gt;NgGridComponent -->
<g id="edge8" class="edge">
<title>{ provide: NG_VALIDATORS, multi: true, useExisting: forwardRef(() =&gt; NgGridComponent) }&#45;&gt;NgGridComponent</title>
<path fill="none" stroke="black" d="M776,-122.11C776,-141.34 776,-169 776,-169 776,-169 1450.92,-169 1450.92,-169"/>
<polygon fill="black" stroke="black" points="1450.92,-172.5 1460.92,-169 1450.92,-165.5 1450.92,-172.5"/>
</g>
<!-- { provide: NG_VALUE_ACCESSOR, multi: true, useExisting: NgPagingComponent } -->
<g id="node12" class="node">
<title>{ provide: NG_VALUE_ACCESSOR, multi: true, useExisting: NgPagingComponent }</title>
<ellipse fill="#fdb462" stroke="black" cx="3892" cy="-104" rx="349.9" ry="18"/>
<text text-anchor="middle" x="3892" y="-99.8" font-family="Times,serif" font-size="14.00">{ provide: NG_VALUE_ACCESSOR, multi: true, useExisting: NgPagingComponent }</text>
</g>
<!-- { provide: NG_VALUE_ACCESSOR, multi: true, useExisting: NgPagingComponent }&#45;&gt;NgPagingComponent -->
<g id="edge11" class="edge">
<title>{ provide: NG_VALUE_ACCESSOR, multi: true, useExisting: NgPagingComponent }&#45;&gt;NgPagingComponent</title>
<path fill="none" stroke="black" d="M3892,-122.11C3892,-141.34 3892,-169 3892,-169 3892,-169 3205.9,-169 3205.9,-169"/>
<polygon fill="black" stroke="black" points="3205.9,-165.5 3195.9,-169 3205.9,-172.5 3205.9,-165.5"/>
</g>
<!-- { provide: NG_VALIDATORS, multi: true, useExisting: forwardRef(() =&gt; NgPagingComponent) } -->
<g id="node13" class="node">
<title>{ provide: NG_VALIDATORS, multi: true, useExisting: forwardRef(() =&gt; NgPagingComponent) }</title>
<ellipse fill="#fdb462" stroke="black" cx="3127" cy="-104" rx="397.04" ry="18"/>
<text text-anchor="middle" x="3127" y="-99.8" font-family="Times,serif" font-size="14.00">{ provide: NG_VALIDATORS, multi: true, useExisting: forwardRef(() =&gt; NgPagingComponent) }</text>
</g>
<!-- { provide: NG_VALIDATORS, multi: true, useExisting: forwardRef(() =&gt; NgPagingComponent) }&#45;&gt;NgPagingComponent -->
<g id="edge12" class="edge">
<title>{ provide: NG_VALIDATORS, multi: true, useExisting: forwardRef(() =&gt; NgPagingComponent) }&#45;&gt;NgPagingComponent</title>
<path fill="none" stroke="black" d="M3127,-122.11C3127,-122.11 3127,-140.99 3127,-140.99"/>
<polygon fill="black" stroke="black" points="3123.5,-140.99 3127,-150.99 3130.5,-140.99 3123.5,-140.99"/>
</g>
</g>
</svg>
