<?xml version="1.0" encoding="UTF-8" standalone="no"?>
<!DOCTYPE svg PUBLIC "-//W3C//DTD SVG 1.1//EN"
 "http://www.w3.org/Graphics/SVG/1.1/DTD/svg11.dtd">
<!-- Generated by graphviz version 2.47.0 (20210316.0004)
 -->
<!-- Title: dependencies Pages: 1 -->
<svg width="2212pt" height="349pt"
 viewBox="0.00 0.00 2212.00 349.00" xmlns="http://www.w3.org/2000/svg" xmlns:xlink="http://www.w3.org/1999/xlink">
<g id="graph0" class="graph" transform="scale(1 1) rotate(0) translate(4 345)">
<title>dependencies</title>
<polygon fill="white" stroke="transparent" points="-4,4 -4,-345 2208,-345 2208,4 -4,4"/>
<text text-anchor="start" x="1081.01" y="-42.4" font-family="Times-12" font-weight="bold" font-size="14.00">Legend</text>
<polygon fill="#ffffb3" stroke="transparent" points="868,-10 868,-30 888,-30 888,-10 868,-10"/>
<text text-anchor="start" x="891.63" y="-15.4" font-family="Times-12" font-size="14.00"> &#160;Declarations</text>
<polygon fill="#8dd3c7" stroke="transparent" points="981,-10 981,-30 1001,-30 1001,-10 981,-10"/>
<text text-anchor="start" x="1004.73" y="-15.4" font-family="Times-12" font-size="14.00"> &#160;Module</text>
<polygon fill="#80b1d3" stroke="transparent" points="1067,-10 1067,-30 1087,-30 1087,-10 1067,-10"/>
<text text-anchor="start" x="1090.78" y="-15.4" font-family="Times-12" font-size="14.00"> &#160;Bootstrap</text>
<polygon fill="#fdb462" stroke="transparent" points="1164,-10 1164,-30 1184,-30 1184,-10 1164,-10"/>
<text text-anchor="start" x="1187.67" y="-15.4" font-family="Times-12" font-size="14.00"> &#160;Providers</text>
<polygon fill="#fb8072" stroke="transparent" points="1260,-10 1260,-30 1280,-30 1280,-10 1260,-10"/>
<text text-anchor="start" x="1283.73" y="-15.4" font-family="Times-12" font-size="14.00"> &#160;Exports</text>
<g id="clust1" class="cluster">
<title>cluster_SACBootstrap3DateTimeModule</title>
<polygon fill="none" stroke="black" stroke-dasharray="1,5" points="8,-70 8,-333 2196,-333 2196,-70 8,-70"/>
</g>
<g id="clust3" class="cluster">
<title>cluster_SACBootstrap3DateTimeModule_SacDateComponent_providers</title>
<polygon fill="none" stroke="black" points="539,-78 539,-195 2188,-195 2188,-78 539,-78"/>
</g>
<g id="clust8" class="cluster">
<title>cluster_SACBootstrap3DateTimeModule_exports</title>
<polygon fill="none" stroke="black" points="105,-273 105,-325 779,-325 779,-273 105,-273"/>
</g>
<g id="clust2" class="cluster">
<title>cluster_SACBootstrap3DateTimeModule_declarations</title>
<polygon fill="none" stroke="black" points="16,-143 16,-195 531,-195 531,-143 16,-143"/>
</g>
<!-- SacDateComponent -->
<g id="node1" class="node">
<title>SacDateComponent</title>
<polygon fill="#ffffb3" stroke="black" points="1001.97,-187 874.03,-187 874.03,-151 1001.97,-151 1001.97,-187"/>
<text text-anchor="middle" x="938" y="-164.8" font-family="Times,serif" font-size="14.00">SacDateComponent</text>
</g>
<!-- SACBootstrap3DateTimeModule -->
<g id="node5" class="node">
<title>SACBootstrap3DateTimeModule</title>
<polygon fill="#8dd3c7" stroke="black" points="493.19,-252 490.19,-256 469.19,-256 466.19,-252 288.81,-252 288.81,-216 493.19,-216 493.19,-252"/>
<text text-anchor="middle" x="391" y="-229.8" font-family="Times,serif" font-size="14.00">SACBootstrap3DateTimeModule</text>
</g>
<!-- SacDateComponent&#45;&gt;SACBootstrap3DateTimeModule -->
<g id="edge1" class="edge">
<title>SacDateComponent&#45;&gt;SACBootstrap3DateTimeModule</title>
<path fill="none" stroke="black" d="M938,-187.02C938,-204.37 938,-228 938,-228 938,-228 503.24,-228 503.24,-228"/>
<polygon fill="black" stroke="black" points="503.24,-224.5 493.24,-228 503.24,-231.5 503.24,-224.5"/>
</g>
<!-- SacDateSelectorComponent -->
<g id="node2" class="node">
<title>SacDateSelectorComponent</title>
<polygon fill="#ffffb3" stroke="black" points="522.84,-187 349.16,-187 349.16,-151 522.84,-151 522.84,-187"/>
<text text-anchor="middle" x="436" y="-164.8" font-family="Times,serif" font-size="14.00">SacDateSelectorComponent</text>
</g>
<!-- SacDateSelectorComponent&#45;&gt;SACBootstrap3DateTimeModule -->
<g id="edge4" class="edge">
<title>SacDateSelectorComponent&#45;&gt;SACBootstrap3DateTimeModule</title>
<path fill="none" stroke="black" d="M421.09,-187.11C421.09,-187.11 421.09,-205.99 421.09,-205.99"/>
<polygon fill="black" stroke="black" points="417.59,-205.99 421.09,-215.99 424.59,-205.99 417.59,-205.99"/>
</g>
<!-- SacDateTimeComponent -->
<g id="node3" class="node">
<title>SacDateTimeComponent</title>
<polygon fill="#ffffb3" stroke="black" points="330.52,-187 173.48,-187 173.48,-151 330.52,-151 330.52,-187"/>
<text text-anchor="middle" x="252" y="-164.8" font-family="Times,serif" font-size="14.00">SacDateTimeComponent</text>
</g>
<!-- SacDateTimeComponent&#45;&gt;SACBootstrap3DateTimeModule -->
<g id="edge5" class="edge">
<title>SacDateTimeComponent&#45;&gt;SACBootstrap3DateTimeModule</title>
<path fill="none" stroke="black" d="M309.83,-187.11C309.83,-187.11 309.83,-205.99 309.83,-205.99"/>
<polygon fill="black" stroke="black" points="306.33,-205.99 309.83,-215.99 313.33,-205.99 306.33,-205.99"/>
</g>
<!-- SacTimeComponent -->
<g id="node4" class="node">
<title>SacTimeComponent</title>
<polygon fill="#ffffb3" stroke="black" points="155.59,-187 24.41,-187 24.41,-151 155.59,-151 155.59,-187"/>
<text text-anchor="middle" x="90" y="-164.8" font-family="Times,serif" font-size="14.00">SacTimeComponent</text>
</g>
<!-- SacTimeComponent&#45;&gt;SACBootstrap3DateTimeModule -->
<g id="edge6" class="edge">
<title>SacTimeComponent&#45;&gt;SACBootstrap3DateTimeModule</title>
<path fill="none" stroke="black" d="M134.12,-187.02C134.12,-204.37 134.12,-228 134.12,-228 134.12,-228 278.74,-228 278.74,-228"/>
<polygon fill="black" stroke="black" points="278.74,-231.5 288.74,-228 278.74,-224.5 278.74,-231.5"/>
</g>
<!-- SacDateComponent  -->
<g id="node8" class="node">
<title>SacDateComponent </title>
<polygon fill="#fb8072" stroke="black" points="770.97,-317 639.03,-317 639.03,-281 770.97,-281 770.97,-317"/>
<text text-anchor="middle" x="705" y="-294.8" font-family="Times,serif" font-size="14.00">SacDateComponent </text>
</g>
<!-- SACBootstrap3DateTimeModule&#45;&gt;SacDateComponent  -->
<g id="edge7" class="edge">
<title>SACBootstrap3DateTimeModule&#45;&gt;SacDateComponent </title>
<path fill="none" stroke="black" stroke-dasharray="5,2" d="M493.38,-240C585.01,-240 705,-240 705,-240 705,-240 705,-270.98 705,-270.98"/>
<polygon fill="black" stroke="black" points="701.5,-270.98 705,-280.98 708.5,-270.98 701.5,-270.98"/>
</g>
<!-- SacDateSelectorComponent  -->
<g id="node9" class="node">
<title>SacDateSelectorComponent </title>
<polygon fill="#fb8072" stroke="black" points="621.84,-317 444.16,-317 444.16,-281 621.84,-281 621.84,-317"/>
<text text-anchor="middle" x="533" y="-294.8" font-family="Times,serif" font-size="14.00">SacDateSelectorComponent </text>
</g>
<!-- SACBootstrap3DateTimeModule&#45;&gt;SacDateSelectorComponent  -->
<g id="edge8" class="edge">
<title>SACBootstrap3DateTimeModule&#45;&gt;SacDateSelectorComponent </title>
<path fill="none" stroke="black" stroke-dasharray="5,2" d="M468.71,-252.11C468.71,-252.11 468.71,-270.99 468.71,-270.99"/>
<polygon fill="black" stroke="black" points="465.21,-270.99 468.71,-280.99 472.21,-270.99 465.21,-270.99"/>
</g>
<!-- SacDateTimeComponent  -->
<g id="node10" class="node">
<title>SacDateTimeComponent </title>
<polygon fill="#fb8072" stroke="black" points="426.52,-317 265.48,-317 265.48,-281 426.52,-281 426.52,-317"/>
<text text-anchor="middle" x="346" y="-294.8" font-family="Times,serif" font-size="14.00">SacDateTimeComponent </text>
</g>
<!-- SACBootstrap3DateTimeModule&#45;&gt;SacDateTimeComponent  -->
<g id="edge9" class="edge">
<title>SACBootstrap3DateTimeModule&#45;&gt;SacDateTimeComponent </title>
<path fill="none" stroke="black" stroke-dasharray="5,2" d="M357.71,-252.11C357.71,-252.11 357.71,-270.99 357.71,-270.99"/>
<polygon fill="black" stroke="black" points="354.21,-270.99 357.71,-280.99 361.21,-270.99 354.21,-270.99"/>
</g>
<!-- SacTimeComponent  -->
<g id="node11" class="node">
<title>SacTimeComponent </title>
<polygon fill="#fb8072" stroke="black" points="247.09,-317 112.91,-317 112.91,-281 247.09,-281 247.09,-317"/>
<text text-anchor="middle" x="180" y="-294.8" font-family="Times,serif" font-size="14.00">SacTimeComponent </text>
</g>
<!-- SACBootstrap3DateTimeModule&#45;&gt;SacTimeComponent  -->
<g id="edge10" class="edge">
<title>SACBootstrap3DateTimeModule&#45;&gt;SacTimeComponent </title>
<path fill="none" stroke="black" stroke-dasharray="5,2" d="M288.75,-240C247.86,-240 210.27,-240 210.27,-240 210.27,-240 210.27,-270.98 210.27,-270.98"/>
<polygon fill="black" stroke="black" points="206.77,-270.98 210.27,-280.98 213.77,-270.98 206.77,-270.98"/>
</g>
<!-- { provide: NG_VALUE_ACCESSOR, multi: true, useExisting: forwardRef(() =&gt; SacDateComponent) } -->
<g id="node6" class="node">
<title>{ provide: NG_VALUE_ACCESSOR, multi: true, useExisting: forwardRef(() =&gt; SacDateComponent) }</title>
<ellipse fill="#fdb462" stroke="black" cx="1763" cy="-104" rx="416.66" ry="18"/>
<text text-anchor="middle" x="1763" y="-99.8" font-family="Times,serif" font-size="14.00">{ provide: NG_VALUE_ACCESSOR, multi: true, useExisting: forwardRef(() =&gt; SacDateComponent) }</text>
</g>
<!-- { provide: NG_VALUE_ACCESSOR, multi: true, useExisting: forwardRef(() =&gt; SacDateComponent) }&#45;&gt;SacDateComponent -->
<g id="edge2" class="edge">
<title>{ provide: NG_VALUE_ACCESSOR, multi: true, useExisting: forwardRef(() =&gt; SacDateComponent) }&#45;&gt;SacDateComponent</title>
<path fill="none" stroke="black" d="M1763,-122.11C1763,-141.34 1763,-169 1763,-169 1763,-169 1012.05,-169 1012.05,-169"/>
<polygon fill="black" stroke="black" points="1012.05,-165.5 1002.05,-169 1012.05,-172.5 1012.05,-165.5"/>
</g>
<!-- { provide: NG_VALIDATORS, multi: true, useExisting: forwardRef(() =&gt; SacDateComponent) } -->
<g id="node7" class="node">
<title>{ provide: NG_VALIDATORS, multi: true, useExisting: forwardRef(() =&gt; SacDateComponent) }</title>
<ellipse fill="#fdb462" stroke="black" cx="938" cy="-104" rx="390.63" ry="18"/>
<text text-anchor="middle" x="938" y="-99.8" font-family="Times,serif" font-size="14.00">{ provide: NG_VALIDATORS, multi: true, useExisting: forwardRef(() =&gt; SacDateComponent) }</text>
</g>
<!-- { provide: NG_VALIDATORS, multi: true, useExisting: forwardRef(() =&gt; SacDateComponent) }&#45;&gt;SacDateComponent -->
<g id="edge3" class="edge">
<title>{ provide: NG_VALIDATORS, multi: true, useExisting: forwardRef(() =&gt; SacDateComponent) }&#45;&gt;SacDateComponent</title>
<path fill="none" stroke="black" d="M938,-122.11C938,-122.11 938,-140.99 938,-140.99"/>
<polygon fill="black" stroke="black" points="934.5,-140.99 938,-150.99 941.5,-140.99 934.5,-140.99"/>
</g>
</g>
</svg>
