<?xml version="1.0" encoding="UTF-8" standalone="no"?>
<!DOCTYPE svg PUBLIC "-//W3C//DTD SVG 1.1//EN"
 "http://www.w3.org/Graphics/SVG/1.1/DTD/svg11.dtd">
<!-- Generated by graphviz version 2.40.1 (20161225.0304)
 -->
<!-- Title: dependencies Pages: 1 -->
<svg width="504pt" height="284pt"
 viewBox="0.00 0.00 504.00 284.00" xmlns="http://www.w3.org/2000/svg" xmlns:xlink="http://www.w3.org/1999/xlink">
<g id="graph0" class="graph" transform="scale(1 1) rotate(0) translate(4 280)">
<title>dependencies</title>
<polygon fill="#ffffff" stroke="transparent" points="-4,4 -4,-280 500,-280 500,4 -4,4"/>
<text text-anchor="start" x="227.0091" y="-42.4" font-family="sans-serif" font-weight="bold" font-size="14.00" fill="#000000">Legend</text>
<polygon fill="#ffffb3" stroke="transparent" points="14,-10 14,-30 34,-30 34,-10 14,-10"/>
<text text-anchor="start" x="37.629" y="-15.4" font-family="sans-serif" font-size="14.00" fill="#000000"> &#160;Declarations</text>
<polygon fill="#8dd3c7" stroke="transparent" points="127,-10 127,-30 147,-30 147,-10 127,-10"/>
<text text-anchor="start" x="150.7251" y="-15.4" font-family="sans-serif" font-size="14.00" fill="#000000"> &#160;Module</text>
<polygon fill="#80b1d3" stroke="transparent" points="213,-10 213,-30 233,-30 233,-10 213,-10"/>
<text text-anchor="start" x="236.7812" y="-15.4" font-family="sans-serif" font-size="14.00" fill="#000000"> &#160;Bootstrap</text>
<polygon fill="#fdb462" stroke="transparent" points="310,-10 310,-30 330,-30 330,-10 310,-10"/>
<text text-anchor="start" x="333.6732" y="-15.4" font-family="sans-serif" font-size="14.00" fill="#000000"> &#160;Providers</text>
<polygon fill="#fb8072" stroke="transparent" points="406,-10 406,-30 426,-30 426,-10 406,-10"/>
<text text-anchor="start" x="429.7258" y="-15.4" font-family="sans-serif" font-size="14.00" fill="#000000"> &#160;Exports</text>
<g id="clust1" class="cluster">
<title>cluster_JNetworkCommonListboxOptionModule</title>
<polygon fill="none" stroke="#000000" stroke-dasharray="1,5" points="116,-70 116,-268 380,-268 380,-70 116,-70"/>
</g>
<g id="clust2" class="cluster">
<title>cluster_JNetworkCommonListboxOptionModule_declarations</title>
<polygon fill="none" stroke="#000000" points="157,-78 157,-130 339,-130 339,-78 157,-78"/>
</g>
<g id="clust5" class="cluster">
<title>cluster_JNetworkCommonListboxOptionModule_exports</title>
<polygon fill="none" stroke="#000000" points="155,-208 155,-260 341,-260 341,-208 155,-208"/>
</g>
<!-- NgListboxOptionDirective -->
<g id="node1" class="node">
<title>NgListboxOptionDirective</title>
<polygon fill="#ffffb3" stroke="#000000" points="331.3557,-122 164.6443,-122 164.6443,-86 331.3557,-86 331.3557,-122"/>
<text text-anchor="middle" x="248" y="-99.8" font-family="Times,serif" font-size="14.00" fill="#000000">NgListboxOptionDirective</text>
</g>
<!-- JNetworkCommonListboxOptionModule -->
<g id="node2" class="node">
<title>JNetworkCommonListboxOptionModule</title>
<polygon fill="#8dd3c7" stroke="#000000" points="371.7575,-187 368.7575,-191 347.7575,-191 344.7575,-187 124.2425,-187 124.2425,-151 371.7575,-151 371.7575,-187"/>
<text text-anchor="middle" x="248" y="-164.8" font-family="Times,serif" font-size="14.00" fill="#000000">JNetworkCommonListboxOptionModule</text>
</g>
<!-- NgListboxOptionDirective&#45;&gt;JNetworkCommonListboxOptionModule -->
<g id="edge1" class="edge">
<title>NgListboxOptionDirective&#45;&gt;JNetworkCommonListboxOptionModule</title>
<path fill="none" stroke="#000000" d="M248,-122.1061C248,-122.1061 248,-140.991 248,-140.991"/>
<polygon fill="#000000" stroke="#000000" points="244.5001,-140.9909 248,-150.991 251.5001,-140.991 244.5001,-140.9909"/>
</g>
<!-- NgListboxOptionDirective  -->
<g id="node3" class="node">
<title>NgListboxOptionDirective </title>
<polygon fill="#fb8072" stroke="#000000" points="333.356,-252 162.644,-252 162.644,-216 333.356,-216 333.356,-252"/>
<text text-anchor="middle" x="248" y="-229.8" font-family="Times,serif" font-size="14.00" fill="#000000">NgListboxOptionDirective </text>
</g>
<!-- JNetworkCommonListboxOptionModule&#45;&gt;NgListboxOptionDirective  -->
<g id="edge2" class="edge">
<title>JNetworkCommonListboxOptionModule&#45;&gt;NgListboxOptionDirective </title>
<path fill="none" stroke="#000000" stroke-dasharray="5,2" d="M248,-187.1061C248,-187.1061 248,-205.991 248,-205.991"/>
<polygon fill="#000000" stroke="#000000" points="244.5001,-205.9909 248,-215.991 251.5001,-205.991 244.5001,-205.9909"/>
</g>
</g>
</svg>
