<?xml version="1.0" encoding="UTF-8" standalone="no"?>
<!DOCTYPE svg PUBLIC "-//W3C//DTD SVG 1.1//EN"
 "http://www.w3.org/Graphics/SVG/1.1/DTD/svg11.dtd">
<!-- Generated by graphviz version 2.47.3 (20210619.1520)
 -->
<!-- Title: dependencies Pages: 1 -->
<svg width="1525pt" height="247pt"
 viewBox="0.00 0.00 1525.00 246.80" xmlns="http://www.w3.org/2000/svg" xmlns:xlink="http://www.w3.org/1999/xlink">
<g id="graph0" class="graph" transform="scale(1 1) rotate(0) translate(4 242.8)">
<title>dependencies</title>
<polygon fill="white" stroke="transparent" points="-4,4 -4,-242.8 1521,-242.8 1521,4 -4,4"/>
<text text-anchor="middle" x="758.5" y="-8.2" font-family="sans-serif" font-size="14.00">dependencies</text>
<g id="clust1" class="cluster">
<title>cluster_JNetworkBootstrap4InputModule</title>
<polygon fill="none" stroke="black" stroke-dasharray="1,5" points="8,-32.8 8,-230.8 1509,-230.8 1509,-32.8 8,-32.8"/>
</g>
<g id="clust12" class="cluster">
<title>cluster_JNetworkBootstrap4InputModule_exports</title>
<polygon fill="none" stroke="black" points="16,-170.8 16,-222.8 1501,-222.8 1501,-170.8 16,-170.8"/>
</g>
<g id="clust2" class="cluster">
<title>cluster_JNetworkBootstrap4InputModule_declarations</title>
<polygon fill="none" stroke="black" points="32,-40.8 32,-92.8 1491,-92.8 1491,-40.8 32,-40.8"/>
</g>
<!-- NgInputAreaComponent -->
<g id="node1" class="node">
<title>NgInputAreaComponent</title>
<polygon fill="#ffffb3" stroke="black" points="1482.69,-84.8 1327.31,-84.8 1327.31,-48.8 1482.69,-48.8 1482.69,-84.8"/>
<text text-anchor="middle" x="1405" y="-62.6" font-family="Times,serif" font-size="14.00">NgInputAreaComponent</text>
</g>
<!-- JNetworkBootstrap4InputModule -->
<g id="node9" class="node">
<title>JNetworkBootstrap4InputModule</title>
<polygon fill="#8dd3c7" stroke="black" points="798.46,-149.8 795.46,-153.8 774.46,-153.8 771.46,-149.8 593.54,-149.8 593.54,-113.8 798.46,-113.8 798.46,-149.8"/>
<text text-anchor="middle" x="696" y="-127.6" font-family="Times,serif" font-size="14.00">JNetworkBootstrap4InputModule</text>
</g>
<!-- NgInputAreaComponent&#45;&gt;JNetworkBootstrap4InputModule -->
<g id="edge1" class="edge">
<title>NgInputAreaComponent&#45;&gt;JNetworkBootstrap4InputModule</title>
<path fill="none" stroke="black" d="M1331.03,-85.02C1331.03,-103.63 1331.03,-129.8 1331.03,-129.8 1331.03,-129.8 808.73,-129.8 808.73,-129.8"/>
<polygon fill="black" stroke="black" points="808.73,-126.3 798.73,-129.8 808.73,-133.3 808.73,-126.3"/>
</g>
<!-- NgInputComponent -->
<g id="node2" class="node">
<title>NgInputComponent</title>
<polygon fill="#ffffb3" stroke="black" points="1308.99,-84.8 1181.01,-84.8 1181.01,-48.8 1308.99,-48.8 1308.99,-84.8"/>
<text text-anchor="middle" x="1245" y="-62.6" font-family="Times,serif" font-size="14.00">NgInputComponent</text>
</g>
<!-- NgInputComponent&#45;&gt;JNetworkBootstrap4InputModule -->
<g id="edge2" class="edge">
<title>NgInputComponent&#45;&gt;JNetworkBootstrap4InputModule</title>
<path fill="none" stroke="black" d="M1267.75,-84.83C1267.75,-101.86 1267.75,-124.8 1267.75,-124.8 1267.75,-124.8 808.55,-124.8 808.55,-124.8"/>
<polygon fill="black" stroke="black" points="808.55,-121.3 798.55,-124.8 808.55,-128.3 808.55,-121.3"/>
</g>
<!-- NgInputCurrencyComponent -->
<g id="node3" class="node">
<title>NgInputCurrencyComponent</title>
<polygon fill="#ffffb3" stroke="black" points="1163.08,-84.8 982.92,-84.8 982.92,-48.8 1163.08,-48.8 1163.08,-84.8"/>
<text text-anchor="middle" x="1073" y="-62.6" font-family="Times,serif" font-size="14.00">NgInputCurrencyComponent</text>
</g>
<!-- NgInputCurrencyComponent&#45;&gt;JNetworkBootstrap4InputModule -->
<g id="edge3" class="edge">
<title>NgInputCurrencyComponent&#45;&gt;JNetworkBootstrap4InputModule</title>
<path fill="none" stroke="black" d="M1103.1,-85.04C1103.1,-100.37 1103.1,-119.8 1103.1,-119.8 1103.1,-119.8 808.46,-119.8 808.46,-119.8"/>
<polygon fill="black" stroke="black" points="808.46,-116.3 798.46,-119.8 808.46,-123.3 808.46,-116.3"/>
</g>
<!-- NgInputDecimalComponent -->
<g id="node4" class="node">
<title>NgInputDecimalComponent</title>
<polygon fill="#ffffb3" stroke="black" points="964.91,-84.8 789.09,-84.8 789.09,-48.8 964.91,-48.8 964.91,-84.8"/>
<text text-anchor="middle" x="877" y="-62.6" font-family="Times,serif" font-size="14.00">NgInputDecimalComponent</text>
</g>
<!-- NgInputDecimalComponent&#45;&gt;JNetworkBootstrap4InputModule -->
<g id="edge4" class="edge">
<title>NgInputDecimalComponent&#45;&gt;JNetworkBootstrap4InputModule</title>
<path fill="none" stroke="black" d="M793.89,-84.91C793.89,-84.91 793.89,-103.79 793.89,-103.79"/>
<polygon fill="black" stroke="black" points="790.39,-103.79 793.89,-113.79 797.39,-103.79 790.39,-103.79"/>
</g>
<!-- NgInputEmailComponent -->
<g id="node5" class="node">
<title>NgInputEmailComponent</title>
<polygon fill="#ffffb3" stroke="black" points="771.93,-84.8 610.07,-84.8 610.07,-48.8 771.93,-48.8 771.93,-84.8"/>
<text text-anchor="middle" x="691" y="-62.6" font-family="Times,serif" font-size="14.00">NgInputEmailComponent</text>
</g>
<!-- NgInputEmailComponent&#45;&gt;JNetworkBootstrap4InputModule -->
<g id="edge5" class="edge">
<title>NgInputEmailComponent&#45;&gt;JNetworkBootstrap4InputModule</title>
<path fill="none" stroke="black" d="M691,-84.91C691,-84.91 691,-103.79 691,-103.79"/>
<polygon fill="black" stroke="black" points="687.5,-103.79 691,-113.79 694.5,-103.79 687.5,-103.79"/>
</g>
<!-- NgInputIntegerComponent -->
<g id="node6" class="node">
<title>NgInputIntegerComponent</title>
<polygon fill="#ffffb3" stroke="black" points="591.63,-84.8 424.37,-84.8 424.37,-48.8 591.63,-48.8 591.63,-84.8"/>
<text text-anchor="middle" x="508" y="-62.6" font-family="Times,serif" font-size="14.00">NgInputIntegerComponent</text>
</g>
<!-- NgInputIntegerComponent&#45;&gt;JNetworkBootstrap4InputModule -->
<g id="edge6" class="edge">
<title>NgInputIntegerComponent&#45;&gt;JNetworkBootstrap4InputModule</title>
<path fill="none" stroke="black" d="M591.85,-66.8C598.03,-66.8 601.9,-66.8 601.9,-66.8 601.9,-66.8 601.9,-103.69 601.9,-103.69"/>
<polygon fill="black" stroke="black" points="598.4,-103.69 601.9,-113.69 605.4,-103.69 598.4,-103.69"/>
</g>
<!-- NgInputPasswordComponent -->
<g id="node7" class="node">
<title>NgInputPasswordComponent</title>
<polygon fill="#ffffb3" stroke="black" points="405.64,-84.8 224.36,-84.8 224.36,-48.8 405.64,-48.8 405.64,-84.8"/>
<text text-anchor="middle" x="315" y="-62.6" font-family="Times,serif" font-size="14.00">NgInputPasswordComponent</text>
</g>
<!-- NgInputPasswordComponent&#45;&gt;JNetworkBootstrap4InputModule -->
<g id="edge7" class="edge">
<title>NgInputPasswordComponent&#45;&gt;JNetworkBootstrap4InputModule</title>
<path fill="none" stroke="black" d="M401.2,-84.81C401.2,-100.85 401.2,-121.8 401.2,-121.8 401.2,-121.8 583.31,-121.8 583.31,-121.8"/>
<polygon fill="black" stroke="black" points="583.31,-125.3 593.31,-121.8 583.31,-118.3 583.31,-125.3"/>
</g>
<!-- NgInputSearchComponent -->
<g id="node8" class="node">
<title>NgInputSearchComponent</title>
<polygon fill="#ffffb3" stroke="black" points="206.08,-84.8 39.92,-84.8 39.92,-48.8 206.08,-48.8 206.08,-84.8"/>
<text text-anchor="middle" x="123" y="-62.6" font-family="Times,serif" font-size="14.00">NgInputSearchComponent</text>
</g>
<!-- NgInputSearchComponent&#45;&gt;JNetworkBootstrap4InputModule -->
<g id="edge8" class="edge">
<title>NgInputSearchComponent&#45;&gt;JNetworkBootstrap4InputModule</title>
<path fill="none" stroke="black" d="M199.91,-85.07C199.91,-103.36 199.91,-128.8 199.91,-128.8 199.91,-128.8 583.51,-128.8 583.51,-128.8"/>
<polygon fill="black" stroke="black" points="583.51,-132.3 593.51,-128.8 583.51,-125.3 583.51,-132.3"/>
</g>
<!-- NgInputAreaComponent  -->
<g id="node10" class="node">
<title>NgInputAreaComponent </title>
<polygon fill="#fb8072" stroke="black" points="1493.19,-214.8 1334.81,-214.8 1334.81,-178.8 1493.19,-178.8 1493.19,-214.8"/>
<text text-anchor="middle" x="1414" y="-192.6" font-family="Times,serif" font-size="14.00">NgInputAreaComponent </text>
</g>
<!-- JNetworkBootstrap4InputModule&#45;&gt;NgInputAreaComponent  -->
<g id="edge9" class="edge">
<title>JNetworkBootstrap4InputModule&#45;&gt;NgInputAreaComponent </title>
<path fill="none" stroke="black" stroke-dasharray="5,2" d="M798.48,-134.8C995.68,-134.8 1408.62,-134.8 1408.62,-134.8 1408.62,-134.8 1408.62,-168.53 1408.62,-168.53"/>
<polygon fill="black" stroke="black" points="1405.13,-168.53 1408.62,-178.53 1412.13,-168.53 1405.13,-168.53"/>
</g>
<!-- NgInputComponent  -->
<g id="node11" class="node">
<title>NgInputComponent </title>
<polygon fill="#fb8072" stroke="black" points="1316.99,-214.8 1185.01,-214.8 1185.01,-178.8 1316.99,-178.8 1316.99,-214.8"/>
<text text-anchor="middle" x="1251" y="-192.6" font-family="Times,serif" font-size="14.00">NgInputComponent </text>
</g>
<!-- JNetworkBootstrap4InputModule&#45;&gt;NgInputComponent  -->
<g id="edge10" class="edge">
<title>JNetworkBootstrap4InputModule&#45;&gt;NgInputComponent </title>
<path fill="none" stroke="black" stroke-dasharray="5,2" d="M798.6,-139.8C952.82,-139.8 1226.5,-139.8 1226.5,-139.8 1226.5,-139.8 1226.5,-168.76 1226.5,-168.76"/>
<polygon fill="black" stroke="black" points="1223,-168.76 1226.5,-178.76 1230,-168.76 1223,-168.76"/>
</g>
<!-- NgInputCurrencyComponent  -->
<g id="node12" class="node">
<title>NgInputCurrencyComponent </title>
<polygon fill="#fb8072" stroke="black" points="1166.58,-214.8 983.42,-214.8 983.42,-178.8 1166.58,-178.8 1166.58,-214.8"/>
<text text-anchor="middle" x="1075" y="-192.6" font-family="Times,serif" font-size="14.00">NgInputCurrencyComponent </text>
</g>
<!-- JNetworkBootstrap4InputModule&#45;&gt;NgInputCurrencyComponent  -->
<g id="edge11" class="edge">
<title>JNetworkBootstrap4InputModule&#45;&gt;NgInputCurrencyComponent </title>
<path fill="none" stroke="black" stroke-dasharray="5,2" d="M798.75,-144.8C901.12,-144.8 1043.15,-144.8 1043.15,-144.8 1043.15,-144.8 1043.15,-168.61 1043.15,-168.61"/>
<polygon fill="black" stroke="black" points="1039.65,-168.61 1043.15,-178.61 1046.65,-168.61 1039.65,-168.61"/>
</g>
<!-- NgInputDecimalComponent  -->
<g id="node13" class="node">
<title>NgInputDecimalComponent </title>
<polygon fill="#fb8072" stroke="black" points="965.41,-214.8 786.59,-214.8 786.59,-178.8 965.41,-178.8 965.41,-214.8"/>
<text text-anchor="middle" x="876" y="-192.6" font-family="Times,serif" font-size="14.00">NgInputDecimalComponent </text>
</g>
<!-- JNetworkBootstrap4InputModule&#45;&gt;NgInputDecimalComponent  -->
<g id="edge12" class="edge">
<title>JNetworkBootstrap4InputModule&#45;&gt;NgInputDecimalComponent </title>
<path fill="none" stroke="black" stroke-dasharray="5,2" d="M792.51,-149.91C792.51,-149.91 792.51,-168.79 792.51,-168.79"/>
<polygon fill="black" stroke="black" points="789.01,-168.79 792.51,-178.79 796.01,-168.79 789.01,-168.79"/>
</g>
<!-- NgInputEmailComponent  -->
<g id="node14" class="node">
<title>NgInputEmailComponent </title>
<polygon fill="#fb8072" stroke="black" points="768.43,-214.8 603.57,-214.8 603.57,-178.8 768.43,-178.8 768.43,-214.8"/>
<text text-anchor="middle" x="686" y="-192.6" font-family="Times,serif" font-size="14.00">NgInputEmailComponent </text>
</g>
<!-- JNetworkBootstrap4InputModule&#45;&gt;NgInputEmailComponent  -->
<g id="edge13" class="edge">
<title>JNetworkBootstrap4InputModule&#45;&gt;NgInputEmailComponent </title>
<path fill="none" stroke="black" stroke-dasharray="5,2" d="M686,-149.91C686,-149.91 686,-168.79 686,-168.79"/>
<polygon fill="black" stroke="black" points="682.5,-168.79 686,-178.79 689.5,-168.79 682.5,-168.79"/>
</g>
<!-- NgInputIntegerComponent  -->
<g id="node15" class="node">
<title>NgInputIntegerComponent </title>
<polygon fill="#fb8072" stroke="black" points="585.63,-214.8 414.37,-214.8 414.37,-178.8 585.63,-178.8 585.63,-214.8"/>
<text text-anchor="middle" x="500" y="-192.6" font-family="Times,serif" font-size="14.00">NgInputIntegerComponent </text>
</g>
<!-- JNetworkBootstrap4InputModule&#45;&gt;NgInputIntegerComponent  -->
<g id="edge14" class="edge">
<title>JNetworkBootstrap4InputModule&#45;&gt;NgInputIntegerComponent </title>
<path fill="none" stroke="black" stroke-dasharray="5,2" d="M598.53,-149.91C598.53,-169.14 598.53,-196.8 598.53,-196.8 598.53,-196.8 595.65,-196.8 595.65,-196.8"/>
<polygon fill="black" stroke="black" points="595.65,-193.3 585.65,-196.8 595.65,-200.3 595.65,-193.3"/>
</g>
<!-- NgInputPasswordComponent  -->
<g id="node16" class="node">
<title>NgInputPasswordComponent </title>
<polygon fill="#fb8072" stroke="black" points="396.64,-214.8 211.36,-214.8 211.36,-178.8 396.64,-178.8 396.64,-214.8"/>
<text text-anchor="middle" x="304" y="-192.6" font-family="Times,serif" font-size="14.00">NgInputPasswordComponent </text>
</g>
<!-- JNetworkBootstrap4InputModule&#45;&gt;NgInputPasswordComponent  -->
<g id="edge15" class="edge">
<title>JNetworkBootstrap4InputModule&#45;&gt;NgInputPasswordComponent </title>
<path fill="none" stroke="black" stroke-dasharray="5,2" d="M593.42,-142.8C479.18,-142.8 310.38,-142.8 310.38,-142.8 310.38,-142.8 310.38,-168.52 310.38,-168.52"/>
<polygon fill="black" stroke="black" points="306.88,-168.52 310.38,-178.52 313.88,-168.52 306.88,-168.52"/>
</g>
<!-- NgInputSearchComponent  -->
<g id="node17" class="node">
<title>NgInputSearchComponent </title>
<polygon fill="#fb8072" stroke="black" points="193.58,-214.8 24.42,-214.8 24.42,-178.8 193.58,-178.8 193.58,-214.8"/>
<text text-anchor="middle" x="109" y="-192.6" font-family="Times,serif" font-size="14.00">NgInputSearchComponent </text>
</g>
<!-- JNetworkBootstrap4InputModule&#45;&gt;NgInputSearchComponent  -->
<g id="edge16" class="edge">
<title>JNetworkBootstrap4InputModule&#45;&gt;NgInputSearchComponent </title>
<path fill="none" stroke="black" stroke-dasharray="5,2" d="M593.46,-135.8C427.13,-135.8 116.88,-135.8 116.88,-135.8 116.88,-135.8 116.88,-168.5 116.88,-168.5"/>
<polygon fill="black" stroke="black" points="113.38,-168.5 116.88,-178.5 120.38,-168.5 113.38,-168.5"/>
</g>
</g>
</svg>
