<?xml version="1.0" encoding="UTF-8" standalone="no"?>
<!DOCTYPE svg PUBLIC "-//W3C//DTD SVG 1.1//EN"
 "http://www.w3.org/Graphics/SVG/1.1/DTD/svg11.dtd">
<!-- Generated by graphviz version 2.47.3 (20210619.1520)
 -->
<!-- Title: dependencies Pages: 1 -->
<svg width="6535pt" height="358pt"
 viewBox="0.00 0.00 6535.00 358.39" xmlns="http://www.w3.org/2000/svg" xmlns:xlink="http://www.w3.org/1999/xlink">
<g id="graph0" class="graph" transform="scale(1 1) rotate(0) translate(4 354.39)">
<title>dependencies</title>
<polygon fill="white" stroke="transparent" points="-4,4 -4,-354.39 6531,-354.39 6531,4 -4,4"/>
<text text-anchor="middle" x="3263.5" y="-8.2" font-family="sans-serif" font-size="14.00">dependencies</text>
<g id="clust1" class="cluster">
<title>cluster_JNetworkBootstrap4InputModule</title>
<polygon fill="none" stroke="black" stroke-dasharray="1,5" points="8,-32.8 8,-342.39 6519,-342.39 6519,-32.8 8,-32.8"/>
</g>
<g id="clust2" class="cluster">
<title>cluster_JNetworkBootstrap4InputModule_declarations</title>
<polygon fill="none" stroke="black" points="2253,-152.39 2253,-204.39 3712,-204.39 3712,-152.39 2253,-152.39"/>
</g>
<g id="clust4" class="cluster">
<title>cluster_JNetworkBootstrap4InputModule_NgInputComponent_providers</title>
<polygon fill="none" stroke="black" points="4992,-40.8 4992,-139.39 6511,-139.39 6511,-40.8 4992,-40.8"/>
</g>
<g id="clust12" class="cluster">
<title>cluster_JNetworkBootstrap4InputModule_exports</title>
<polygon fill="none" stroke="black" points="2240,-282.39 2240,-334.39 3725,-334.39 3725,-282.39 2240,-282.39"/>
</g>
<g id="clust3" class="cluster">
<title>cluster_JNetworkBootstrap4InputModule_NgInputAreaComponent_providers</title>
<polygon fill="none" stroke="black" points="3376,-40.8 3376,-139.39 4984,-139.39 4984,-40.8 3376,-40.8"/>
</g>
<g id="clust5" class="cluster">
<title>cluster_JNetworkBootstrap4InputModule_NgInputCurrencyComponent_providers</title>
<polygon fill="none" stroke="black" points="1690,-40.8 1690,-139.39 3368,-139.39 3368,-40.8 1690,-40.8"/>
</g>
<g id="clust6" class="cluster">
<title>cluster_JNetworkBootstrap4InputModule_NgInputDecimalComponent_providers</title>
<polygon fill="none" stroke="black" points="16,-40.8 16,-139.39 1682,-139.39 1682,-40.8 16,-40.8"/>
</g>
<!-- NgInputAreaComponent -->
<g id="node1" class="node">
<title>NgInputAreaComponent</title>
<polygon fill="#ffffb3" stroke="black" points="3557.69,-196.39 3402.31,-196.39 3402.31,-160.39 3557.69,-160.39 3557.69,-196.39"/>
<text text-anchor="middle" x="3480" y="-174.19" font-family="Times,serif" font-size="14.00">NgInputAreaComponent</text>
</g>
<!-- JNetworkBootstrap4InputModule -->
<g id="node9" class="node">
<title>JNetworkBootstrap4InputModule</title>
<polygon fill="#8dd3c7" stroke="black" points="3107.46,-261.39 3104.46,-265.39 3083.46,-265.39 3080.46,-261.39 2902.54,-261.39 2902.54,-225.39 3107.46,-225.39 3107.46,-261.39"/>
<text text-anchor="middle" x="3005" y="-239.19" font-family="Times,serif" font-size="14.00">JNetworkBootstrap4InputModule</text>
</g>
<!-- NgInputAreaComponent&#45;&gt;JNetworkBootstrap4InputModule -->
<g id="edge1" class="edge">
<title>NgInputAreaComponent&#45;&gt;JNetworkBootstrap4InputModule</title>
<path fill="none" stroke="black" d="M3453.08,-196.42C3453.08,-213.45 3453.08,-236.39 3453.08,-236.39 3453.08,-236.39 3117.52,-236.39 3117.52,-236.39"/>
<polygon fill="black" stroke="black" points="3117.52,-232.89 3107.52,-236.39 3117.52,-239.89 3117.52,-232.89"/>
</g>
<!-- NgInputComponent -->
<g id="node2" class="node">
<title>NgInputComponent</title>
<polygon fill="#ffffb3" stroke="black" points="3703.99,-196.39 3576.01,-196.39 3576.01,-160.39 3703.99,-160.39 3703.99,-196.39"/>
<text text-anchor="middle" x="3640" y="-174.19" font-family="Times,serif" font-size="14.00">NgInputComponent</text>
</g>
<!-- NgInputComponent&#45;&gt;JNetworkBootstrap4InputModule -->
<g id="edge4" class="edge">
<title>NgInputComponent&#45;&gt;JNetworkBootstrap4InputModule</title>
<path fill="none" stroke="black" d="M3640,-196.61C3640,-215.22 3640,-241.39 3640,-241.39 3640,-241.39 3117.73,-241.39 3117.73,-241.39"/>
<polygon fill="black" stroke="black" points="3117.73,-237.89 3107.73,-241.39 3117.73,-244.89 3117.73,-237.89"/>
</g>
<!-- NgInputCurrencyComponent -->
<g id="node3" class="node">
<title>NgInputCurrencyComponent</title>
<polygon fill="#ffffb3" stroke="black" points="3384.08,-196.39 3203.92,-196.39 3203.92,-160.39 3384.08,-160.39 3384.08,-196.39"/>
<text text-anchor="middle" x="3294" y="-174.19" font-family="Times,serif" font-size="14.00">NgInputCurrencyComponent</text>
</g>
<!-- NgInputCurrencyComponent&#45;&gt;JNetworkBootstrap4InputModule -->
<g id="edge7" class="edge">
<title>NgInputCurrencyComponent&#45;&gt;JNetworkBootstrap4InputModule</title>
<path fill="none" stroke="black" d="M3325.1,-196.63C3325.1,-211.96 3325.1,-231.39 3325.1,-231.39 3325.1,-231.39 3117.6,-231.39 3117.6,-231.39"/>
<polygon fill="black" stroke="black" points="3117.6,-227.89 3107.6,-231.39 3117.6,-234.89 3117.6,-227.89"/>
</g>
<!-- NgInputDecimalComponent -->
<g id="node4" class="node">
<title>NgInputDecimalComponent</title>
<polygon fill="#ffffb3" stroke="black" points="3185.91,-196.39 3010.09,-196.39 3010.09,-160.39 3185.91,-160.39 3185.91,-196.39"/>
<text text-anchor="middle" x="3098" y="-174.19" font-family="Times,serif" font-size="14.00">NgInputDecimalComponent</text>
</g>
<!-- NgInputDecimalComponent&#45;&gt;JNetworkBootstrap4InputModule -->
<g id="edge10" class="edge">
<title>NgInputDecimalComponent&#45;&gt;JNetworkBootstrap4InputModule</title>
<path fill="none" stroke="black" d="M3058.89,-196.5C3058.89,-196.5 3058.89,-215.38 3058.89,-215.38"/>
<polygon fill="black" stroke="black" points="3055.39,-215.38 3058.89,-225.38 3062.39,-215.38 3055.39,-215.38"/>
</g>
<!-- NgInputEmailComponent -->
<g id="node5" class="node">
<title>NgInputEmailComponent</title>
<polygon fill="#ffffb3" stroke="black" points="2992.93,-196.39 2831.07,-196.39 2831.07,-160.39 2992.93,-160.39 2992.93,-196.39"/>
<text text-anchor="middle" x="2912" y="-174.19" font-family="Times,serif" font-size="14.00">NgInputEmailComponent</text>
</g>
<!-- NgInputEmailComponent&#45;&gt;JNetworkBootstrap4InputModule -->
<g id="edge13" class="edge">
<title>NgInputEmailComponent&#45;&gt;JNetworkBootstrap4InputModule</title>
<path fill="none" stroke="black" d="M2947.62,-196.5C2947.62,-196.5 2947.62,-215.38 2947.62,-215.38"/>
<polygon fill="black" stroke="black" points="2944.12,-215.38 2947.62,-225.38 2951.12,-215.38 2944.12,-215.38"/>
</g>
<!-- NgInputIntegerComponent -->
<g id="node6" class="node">
<title>NgInputIntegerComponent</title>
<polygon fill="#ffffb3" stroke="black" points="2812.63,-196.39 2645.37,-196.39 2645.37,-160.39 2812.63,-160.39 2812.63,-196.39"/>
<text text-anchor="middle" x="2729" y="-174.19" font-family="Times,serif" font-size="14.00">NgInputIntegerComponent</text>
</g>
<!-- NgInputIntegerComponent&#45;&gt;JNetworkBootstrap4InputModule -->
<g id="edge14" class="edge">
<title>NgInputIntegerComponent&#45;&gt;JNetworkBootstrap4InputModule</title>
<path fill="none" stroke="black" d="M2754.77,-196.63C2754.77,-211.96 2754.77,-231.39 2754.77,-231.39 2754.77,-231.39 2892.5,-231.39 2892.5,-231.39"/>
<polygon fill="black" stroke="black" points="2892.5,-234.89 2902.5,-231.39 2892.5,-227.89 2892.5,-234.89"/>
</g>
<!-- NgInputPasswordComponent -->
<g id="node7" class="node">
<title>NgInputPasswordComponent</title>
<polygon fill="#ffffb3" stroke="black" points="2626.64,-196.39 2445.36,-196.39 2445.36,-160.39 2626.64,-160.39 2626.64,-196.39"/>
<text text-anchor="middle" x="2536" y="-174.19" font-family="Times,serif" font-size="14.00">NgInputPasswordComponent</text>
</g>
<!-- NgInputPasswordComponent&#45;&gt;JNetworkBootstrap4InputModule -->
<g id="edge15" class="edge">
<title>NgInputPasswordComponent&#45;&gt;JNetworkBootstrap4InputModule</title>
<path fill="none" stroke="black" d="M2562.11,-196.42C2562.11,-213.45 2562.11,-236.39 2562.11,-236.39 2562.11,-236.39 2892.28,-236.39 2892.28,-236.39"/>
<polygon fill="black" stroke="black" points="2892.28,-239.89 2902.28,-236.39 2892.28,-232.89 2892.28,-239.89"/>
</g>
<!-- NgInputSearchComponent -->
<g id="node8" class="node">
<title>NgInputSearchComponent</title>
<polygon fill="#ffffb3" stroke="black" points="2427.08,-196.39 2260.92,-196.39 2260.92,-160.39 2427.08,-160.39 2427.08,-196.39"/>
<text text-anchor="middle" x="2344" y="-174.19" font-family="Times,serif" font-size="14.00">NgInputSearchComponent</text>
</g>
<!-- NgInputSearchComponent&#45;&gt;JNetworkBootstrap4InputModule -->
<g id="edge16" class="edge">
<title>NgInputSearchComponent&#45;&gt;JNetworkBootstrap4InputModule</title>
<path fill="none" stroke="black" d="M2422.41,-196.61C2422.41,-215.22 2422.41,-241.39 2422.41,-241.39 2422.41,-241.39 2892.52,-241.39 2892.52,-241.39"/>
<polygon fill="black" stroke="black" points="2892.52,-244.89 2902.52,-241.39 2892.52,-237.89 2892.52,-244.89"/>
</g>
<!-- NgInputAreaComponent  -->
<g id="node18" class="node">
<title>NgInputAreaComponent </title>
<polygon fill="#fb8072" stroke="black" points="3717.19,-326.39 3558.81,-326.39 3558.81,-290.39 3717.19,-290.39 3717.19,-326.39"/>
<text text-anchor="middle" x="3638" y="-304.19" font-family="Times,serif" font-size="14.00">NgInputAreaComponent </text>
</g>
<!-- JNetworkBootstrap4InputModule&#45;&gt;NgInputAreaComponent  -->
<g id="edge17" class="edge">
<title>JNetworkBootstrap4InputModule&#45;&gt;NgInputAreaComponent </title>
<path fill="none" stroke="black" stroke-dasharray="5,2" d="M3107.49,-246.39C3269.68,-246.39 3567.33,-246.39 3567.33,-246.39 3567.33,-246.39 3567.33,-280.12 3567.33,-280.12"/>
<polygon fill="black" stroke="black" points="3563.83,-280.12 3567.33,-290.12 3570.83,-280.12 3563.83,-280.12"/>
</g>
<!-- NgInputComponent  -->
<g id="node19" class="node">
<title>NgInputComponent </title>
<polygon fill="#fb8072" stroke="black" points="3540.99,-326.39 3409.01,-326.39 3409.01,-290.39 3540.99,-290.39 3540.99,-326.39"/>
<text text-anchor="middle" x="3475" y="-304.19" font-family="Times,serif" font-size="14.00">NgInputComponent </text>
</g>
<!-- JNetworkBootstrap4InputModule&#45;&gt;NgInputComponent  -->
<g id="edge18" class="edge">
<title>JNetworkBootstrap4InputModule&#45;&gt;NgInputComponent </title>
<path fill="none" stroke="black" stroke-dasharray="5,2" d="M3107.52,-251.39C3251.69,-251.39 3496.92,-251.39 3496.92,-251.39 3496.92,-251.39 3496.92,-280.35 3496.92,-280.35"/>
<polygon fill="black" stroke="black" points="3493.42,-280.35 3496.92,-290.35 3500.42,-280.35 3493.42,-280.35"/>
</g>
<!-- NgInputCurrencyComponent  -->
<g id="node20" class="node">
<title>NgInputCurrencyComponent </title>
<polygon fill="#fb8072" stroke="black" points="3390.58,-326.39 3207.42,-326.39 3207.42,-290.39 3390.58,-290.39 3390.58,-326.39"/>
<text text-anchor="middle" x="3299" y="-304.19" font-family="Times,serif" font-size="14.00">NgInputCurrencyComponent </text>
</g>
<!-- JNetworkBootstrap4InputModule&#45;&gt;NgInputCurrencyComponent  -->
<g id="edge19" class="edge">
<title>JNetworkBootstrap4InputModule&#45;&gt;NgInputCurrencyComponent </title>
<path fill="none" stroke="black" stroke-dasharray="5,2" d="M3107.47,-256.39C3180.63,-256.39 3266.15,-256.39 3266.15,-256.39 3266.15,-256.39 3266.15,-280.2 3266.15,-280.2"/>
<polygon fill="black" stroke="black" points="3262.65,-280.2 3266.15,-290.2 3269.65,-280.2 3262.65,-280.2"/>
</g>
<!-- NgInputDecimalComponent  -->
<g id="node21" class="node">
<title>NgInputDecimalComponent </title>
<polygon fill="#fb8072" stroke="black" points="3189.41,-326.39 3010.59,-326.39 3010.59,-290.39 3189.41,-290.39 3189.41,-326.39"/>
<text text-anchor="middle" x="3100" y="-304.19" font-family="Times,serif" font-size="14.00">NgInputDecimalComponent </text>
</g>
<!-- JNetworkBootstrap4InputModule&#45;&gt;NgInputDecimalComponent  -->
<g id="edge20" class="edge">
<title>JNetworkBootstrap4InputModule&#45;&gt;NgInputDecimalComponent </title>
<path fill="none" stroke="black" stroke-dasharray="5,2" d="M3059.01,-261.5C3059.01,-261.5 3059.01,-280.38 3059.01,-280.38"/>
<polygon fill="black" stroke="black" points="3055.51,-280.38 3059.01,-290.38 3062.51,-280.38 3055.51,-280.38"/>
</g>
<!-- NgInputEmailComponent  -->
<g id="node22" class="node">
<title>NgInputEmailComponent </title>
<polygon fill="#fb8072" stroke="black" points="2992.43,-326.39 2827.57,-326.39 2827.57,-290.39 2992.43,-290.39 2992.43,-326.39"/>
<text text-anchor="middle" x="2910" y="-304.19" font-family="Times,serif" font-size="14.00">NgInputEmailComponent </text>
</g>
<!-- JNetworkBootstrap4InputModule&#45;&gt;NgInputEmailComponent  -->
<g id="edge21" class="edge">
<title>JNetworkBootstrap4InputModule&#45;&gt;NgInputEmailComponent </title>
<path fill="none" stroke="black" stroke-dasharray="5,2" d="M2947.49,-261.5C2947.49,-261.5 2947.49,-280.38 2947.49,-280.38"/>
<polygon fill="black" stroke="black" points="2943.99,-280.38 2947.49,-290.38 2950.99,-280.38 2943.99,-280.38"/>
</g>
<!-- NgInputIntegerComponent  -->
<g id="node23" class="node">
<title>NgInputIntegerComponent </title>
<polygon fill="#fb8072" stroke="black" points="2809.63,-326.39 2638.37,-326.39 2638.37,-290.39 2809.63,-290.39 2809.63,-326.39"/>
<text text-anchor="middle" x="2724" y="-304.19" font-family="Times,serif" font-size="14.00">NgInputIntegerComponent </text>
</g>
<!-- JNetworkBootstrap4InputModule&#45;&gt;NgInputIntegerComponent  -->
<g id="edge22" class="edge">
<title>JNetworkBootstrap4InputModule&#45;&gt;NgInputIntegerComponent </title>
<path fill="none" stroke="black" stroke-dasharray="5,2" d="M2902.16,-256.39C2813.61,-256.39 2699.98,-256.39 2699.98,-256.39 2699.98,-256.39 2699.98,-280.2 2699.98,-280.2"/>
<polygon fill="black" stroke="black" points="2696.48,-280.2 2699.98,-290.2 2703.48,-280.2 2696.48,-280.2"/>
</g>
<!-- NgInputPasswordComponent  -->
<g id="node24" class="node">
<title>NgInputPasswordComponent </title>
<polygon fill="#fb8072" stroke="black" points="2620.64,-326.39 2435.36,-326.39 2435.36,-290.39 2620.64,-290.39 2620.64,-326.39"/>
<text text-anchor="middle" x="2528" y="-304.19" font-family="Times,serif" font-size="14.00">NgInputPasswordComponent </text>
</g>
<!-- JNetworkBootstrap4InputModule&#45;&gt;NgInputPasswordComponent  -->
<g id="edge23" class="edge">
<title>JNetworkBootstrap4InputModule&#45;&gt;NgInputPasswordComponent </title>
<path fill="none" stroke="black" stroke-dasharray="5,2" d="M2902.33,-251.39C2755.65,-251.39 2503.64,-251.39 2503.64,-251.39 2503.64,-251.39 2503.64,-280.35 2503.64,-280.35"/>
<polygon fill="black" stroke="black" points="2500.14,-280.35 2503.64,-290.35 2507.14,-280.35 2500.14,-280.35"/>
</g>
<!-- NgInputSearchComponent  -->
<g id="node25" class="node">
<title>NgInputSearchComponent </title>
<polygon fill="#fb8072" stroke="black" points="2417.58,-326.39 2248.42,-326.39 2248.42,-290.39 2417.58,-290.39 2417.58,-326.39"/>
<text text-anchor="middle" x="2333" y="-304.19" font-family="Times,serif" font-size="14.00">NgInputSearchComponent </text>
</g>
<!-- JNetworkBootstrap4InputModule&#45;&gt;NgInputSearchComponent  -->
<g id="edge24" class="edge">
<title>JNetworkBootstrap4InputModule&#45;&gt;NgInputSearchComponent </title>
<path fill="none" stroke="black" stroke-dasharray="5,2" d="M2902.45,-246.39C2715.74,-246.39 2339.38,-246.39 2339.38,-246.39 2339.38,-246.39 2339.38,-280.12 2339.38,-280.12"/>
<polygon fill="black" stroke="black" points="2335.88,-280.12 2339.38,-290.12 2342.88,-280.12 2335.88,-280.12"/>
</g>
<!-- {
 &#160;&#160;&#160;provide: NG_VALUE_ACCESSOR, multi: true, useExisting: NgInputAreaComponent,
} -->
<g id="node10" class="node">
<title>{
 &#160;&#160;&#160;provide: NG_VALUE_ACCESSOR, multi: true, useExisting: NgInputAreaComponent,
}</title>
<ellipse fill="#fdb462" stroke="black" cx="4607" cy="-90.1" rx="369.09" ry="41.09"/>
<text text-anchor="middle" x="4607" y="-102.7" font-family="Times,serif" font-size="14.00">{</text>
<text text-anchor="middle" x="4607" y="-85.9" font-family="Times,serif" font-size="14.00"> &#160;&#160;&#160;provide: NG_VALUE_ACCESSOR, multi: true, useExisting: NgInputAreaComponent,</text>
<text text-anchor="middle" x="4607" y="-69.1" font-family="Times,serif" font-size="14.00">}</text>
</g>
<!-- {
 &#160;&#160;&#160;provide: NG_VALUE_ACCESSOR, multi: true, useExisting: NgInputAreaComponent,
}&#45;&gt;NgInputAreaComponent -->
<g id="edge2" class="edge">
<title>{
 &#160;&#160;&#160;provide: NG_VALUE_ACCESSOR, multi: true, useExisting: NgInputAreaComponent,
}&#45;&gt;NgInputAreaComponent</title>
<path fill="none" stroke="black" d="M4607,-131.5C4607,-166.64 4607,-211.39 4607,-211.39 4607,-211.39 3549.17,-211.39 3549.17,-211.39 3549.17,-211.39 3549.17,-206.43 3549.17,-206.43"/>
<polygon fill="black" stroke="black" points="3552.67,-206.43 3549.17,-196.43 3545.67,-206.43 3552.67,-206.43"/>
</g>
<!-- {
 &#160;&#160;&#160;provide: NG_VALIDATORS, multi: true, useExisting: forwardRef(() =&gt; NgInputAreaComponent),
} -->
<g id="node11" class="node">
<title>{
 &#160;&#160;&#160;provide: NG_VALIDATORS, multi: true, useExisting: forwardRef(() =&gt; NgInputAreaComponent),
}</title>
<ellipse fill="#fdb462" stroke="black" cx="3802" cy="-90.1" rx="417.6" ry="41.09"/>
<text text-anchor="middle" x="3802" y="-102.7" font-family="Times,serif" font-size="14.00">{</text>
<text text-anchor="middle" x="3802" y="-85.9" font-family="Times,serif" font-size="14.00"> &#160;&#160;&#160;provide: NG_VALIDATORS, multi: true, useExisting: forwardRef(() =&gt; NgInputAreaComponent),</text>
<text text-anchor="middle" x="3802" y="-69.1" font-family="Times,serif" font-size="14.00">}</text>
</g>
<!-- {
 &#160;&#160;&#160;provide: NG_VALIDATORS, multi: true, useExisting: forwardRef(() =&gt; NgInputAreaComponent),
}&#45;&gt;NgInputAreaComponent -->
<g id="edge3" class="edge">
<title>{
 &#160;&#160;&#160;provide: NG_VALIDATORS, multi: true, useExisting: forwardRef(() =&gt; NgInputAreaComponent),
}&#45;&gt;NgInputAreaComponent</title>
<path fill="none" stroke="black" d="M3480,-116.59C3480,-116.59 3480,-150.31 3480,-150.31"/>
<polygon fill="black" stroke="black" points="3476.5,-150.31 3480,-160.31 3483.5,-150.31 3476.5,-150.31"/>
</g>
<!-- { provide: NG_VALUE_ACCESSOR, multi: true, useExisting: NgInputComponent } -->
<g id="node12" class="node">
<title>{ provide: NG_VALUE_ACCESSOR, multi: true, useExisting: NgInputComponent }</title>
<ellipse fill="#fdb462" stroke="black" cx="6159" cy="-90.1" rx="343.52" ry="18"/>
<text text-anchor="middle" x="6159" y="-85.9" font-family="Times,serif" font-size="14.00">{ provide: NG_VALUE_ACCESSOR, multi: true, useExisting: NgInputComponent }</text>
</g>
<!-- { provide: NG_VALUE_ACCESSOR, multi: true, useExisting: NgInputComponent }&#45;&gt;NgInputComponent -->
<g id="edge5" class="edge">
<title>{ provide: NG_VALUE_ACCESSOR, multi: true, useExisting: NgInputComponent }&#45;&gt;NgInputComponent</title>
<path fill="none" stroke="black" d="M6159,-108.28C6159,-135.68 6159,-184.39 6159,-184.39 6159,-184.39 3714.16,-184.39 3714.16,-184.39"/>
<polygon fill="black" stroke="black" points="3714.16,-180.89 3704.16,-184.39 3714.16,-187.89 3714.16,-180.89"/>
</g>
<!-- {
 &#160;&#160;&#160;provide: NG_VALIDATORS, multi: true, useExisting: forwardRef(() =&gt; NgInputComponent),
} -->
<g id="node13" class="node">
<title>{
 &#160;&#160;&#160;provide: NG_VALIDATORS, multi: true, useExisting: forwardRef(() =&gt; NgInputComponent),
}</title>
<ellipse fill="#fdb462" stroke="black" cx="5399" cy="-90.1" rx="398.64" ry="41.09"/>
<text text-anchor="middle" x="5399" y="-102.7" font-family="Times,serif" font-size="14.00">{</text>
<text text-anchor="middle" x="5399" y="-85.9" font-family="Times,serif" font-size="14.00"> &#160;&#160;&#160;provide: NG_VALIDATORS, multi: true, useExisting: forwardRef(() =&gt; NgInputComponent),</text>
<text text-anchor="middle" x="5399" y="-69.1" font-family="Times,serif" font-size="14.00">}</text>
</g>
<!-- {
 &#160;&#160;&#160;provide: NG_VALIDATORS, multi: true, useExisting: forwardRef(() =&gt; NgInputComponent),
}&#45;&gt;NgInputComponent -->
<g id="edge6" class="edge">
<title>{
 &#160;&#160;&#160;provide: NG_VALIDATORS, multi: true, useExisting: forwardRef(() =&gt; NgInputComponent),
}&#45;&gt;NgInputComponent</title>
<path fill="none" stroke="black" d="M5399,-131.72C5399,-152.14 5399,-172.39 5399,-172.39 5399,-172.39 3714.17,-172.39 3714.17,-172.39"/>
<polygon fill="black" stroke="black" points="3714.17,-168.89 3704.17,-172.39 3714.17,-175.89 3714.17,-168.89"/>
</g>
<!-- {
 &#160;&#160;&#160;provide: NG_VALUE_ACCESSOR, multi: true, useExisting: NgInputCurrencyComponent,
} -->
<g id="node14" class="node">
<title>{
 &#160;&#160;&#160;provide: NG_VALUE_ACCESSOR, multi: true, useExisting: NgInputCurrencyComponent,
}</title>
<ellipse fill="#fdb462" stroke="black" cx="2973" cy="-90.1" rx="386.79" ry="41.09"/>
<text text-anchor="middle" x="2973" y="-102.7" font-family="Times,serif" font-size="14.00">{</text>
<text text-anchor="middle" x="2973" y="-85.9" font-family="Times,serif" font-size="14.00"> &#160;&#160;&#160;provide: NG_VALUE_ACCESSOR, multi: true, useExisting: NgInputCurrencyComponent,</text>
<text text-anchor="middle" x="2973" y="-69.1" font-family="Times,serif" font-size="14.00">}</text>
</g>
<!-- {
 &#160;&#160;&#160;provide: NG_VALUE_ACCESSOR, multi: true, useExisting: NgInputCurrencyComponent,
}&#45;&gt;NgInputCurrencyComponent -->
<g id="edge8" class="edge">
<title>{
 &#160;&#160;&#160;provide: NG_VALUE_ACCESSOR, multi: true, useExisting: NgInputCurrencyComponent,
}&#45;&gt;NgInputCurrencyComponent</title>
<path fill="none" stroke="black" d="M3307.92,-111.02C3307.92,-111.02 3307.92,-150.3 3307.92,-150.3"/>
<polygon fill="black" stroke="black" points="3304.42,-150.3 3307.92,-160.3 3311.42,-150.3 3304.42,-150.3"/>
</g>
<!-- {
 &#160;&#160;&#160;provide: NG_VALIDATORS, multi: true, useExisting: forwardRef(() =&gt; NgInputCurrencyComponent),
} -->
<g id="node15" class="node">
<title>{
 &#160;&#160;&#160;provide: NG_VALIDATORS, multi: true, useExisting: forwardRef(() =&gt; NgInputCurrencyComponent),
}</title>
<ellipse fill="#fdb462" stroke="black" cx="2133" cy="-90.1" rx="435.3" ry="41.09"/>
<text text-anchor="middle" x="2133" y="-102.7" font-family="Times,serif" font-size="14.00">{</text>
<text text-anchor="middle" x="2133" y="-85.9" font-family="Times,serif" font-size="14.00"> &#160;&#160;&#160;provide: NG_VALIDATORS, multi: true, useExisting: forwardRef(() =&gt; NgInputCurrencyComponent),</text>
<text text-anchor="middle" x="2133" y="-69.1" font-family="Times,serif" font-size="14.00">}</text>
</g>
<!-- {
 &#160;&#160;&#160;provide: NG_VALIDATORS, multi: true, useExisting: forwardRef(() =&gt; NgInputCurrencyComponent),
}&#45;&gt;NgInputCurrencyComponent -->
<g id="edge9" class="edge">
<title>{
 &#160;&#160;&#160;provide: NG_VALIDATORS, multi: true, useExisting: forwardRef(() =&gt; NgInputCurrencyComponent),
}&#45;&gt;NgInputCurrencyComponent</title>
<path fill="none" stroke="black" d="M2506.79,-111.29C2506.79,-124.65 2506.79,-139.39 2506.79,-139.39 2506.79,-139.39 3255.94,-139.39 3255.94,-139.39 3255.94,-139.39 3255.94,-150.26 3255.94,-150.26"/>
<polygon fill="black" stroke="black" points="3252.44,-150.26 3255.94,-160.26 3259.44,-150.26 3252.44,-150.26"/>
</g>
<!-- {
 &#160;&#160;&#160;provide: NG_VALUE_ACCESSOR, multi: true, useExisting: NgInputDecimalComponent,
} -->
<g id="node16" class="node">
<title>{
 &#160;&#160;&#160;provide: NG_VALUE_ACCESSOR, multi: true, useExisting: NgInputDecimalComponent,
}</title>
<ellipse fill="#fdb462" stroke="black" cx="1290" cy="-90.1" rx="383.69" ry="41.09"/>
<text text-anchor="middle" x="1290" y="-102.7" font-family="Times,serif" font-size="14.00">{</text>
<text text-anchor="middle" x="1290" y="-85.9" font-family="Times,serif" font-size="14.00"> &#160;&#160;&#160;provide: NG_VALUE_ACCESSOR, multi: true, useExisting: NgInputDecimalComponent,</text>
<text text-anchor="middle" x="1290" y="-69.1" font-family="Times,serif" font-size="14.00">}</text>
</g>
<!-- {
 &#160;&#160;&#160;provide: NG_VALUE_ACCESSOR, multi: true, useExisting: NgInputDecimalComponent,
}&#45;&gt;NgInputDecimalComponent -->
<g id="edge11" class="edge">
<title>{
 &#160;&#160;&#160;provide: NG_VALUE_ACCESSOR, multi: true, useExisting: NgInputDecimalComponent,
}&#45;&gt;NgInputDecimalComponent</title>
<path fill="none" stroke="black" d="M1290,-131.6C1290,-140.04 1290,-146.39 1290,-146.39 1290,-146.39 3127.24,-146.39 3127.24,-146.39 3127.24,-146.39 3127.24,-150.15 3127.24,-150.15"/>
<polygon fill="black" stroke="black" points="3123.74,-150.15 3127.24,-160.15 3130.74,-150.15 3123.74,-150.15"/>
</g>
<!-- {
 &#160;&#160;&#160;provide: NG_VALIDATORS, multi: true, useExisting: forwardRef(() =&gt; NgInputDecimalComponent),
} -->
<g id="node17" class="node">
<title>{
 &#160;&#160;&#160;provide: NG_VALIDATORS, multi: true, useExisting: forwardRef(() =&gt; NgInputDecimalComponent),
}</title>
<ellipse fill="#fdb462" stroke="black" cx="456" cy="-90.1" rx="432.2" ry="41.09"/>
<text text-anchor="middle" x="456" y="-102.7" font-family="Times,serif" font-size="14.00">{</text>
<text text-anchor="middle" x="456" y="-85.9" font-family="Times,serif" font-size="14.00"> &#160;&#160;&#160;provide: NG_VALIDATORS, multi: true, useExisting: forwardRef(() =&gt; NgInputDecimalComponent),</text>
<text text-anchor="middle" x="456" y="-69.1" font-family="Times,serif" font-size="14.00">}</text>
</g>
<!-- {
 &#160;&#160;&#160;provide: NG_VALIDATORS, multi: true, useExisting: forwardRef(() =&gt; NgInputDecimalComponent),
}&#45;&gt;NgInputDecimalComponent -->
<g id="edge12" class="edge">
<title>{
 &#160;&#160;&#160;provide: NG_VALIDATORS, multi: true, useExisting: forwardRef(() =&gt; NgInputDecimalComponent),
}&#45;&gt;NgInputDecimalComponent</title>
<path fill="none" stroke="black" d="M456,-131.61C456,-143.54 456,-153.39 456,-153.39 456,-153.39 3068.76,-153.39 3068.76,-153.39 3068.76,-153.39 3068.76,-154.07 3068.76,-154.07"/>
<polygon fill="black" stroke="black" points="3065.26,-150.22 3068.76,-160.22 3072.26,-150.22 3065.26,-150.22"/>
</g>
</g>
</svg>
