<?xml version="1.0" encoding="UTF-8" standalone="no"?>
<!DOCTYPE svg PUBLIC "-//W3C//DTD SVG 1.1//EN"
 "http://www.w3.org/Graphics/SVG/1.1/DTD/svg11.dtd">
<!-- Generated by graphviz version 2.47.3 (20210619.1520)
 -->
<!-- Title: dependencies Pages: 1 -->
<svg width="376pt" height="174pt"
 viewBox="0.00 0.00 376.00 173.80" xmlns="http://www.w3.org/2000/svg" xmlns:xlink="http://www.w3.org/1999/xlink">
<g id="graph0" class="graph" transform="scale(1 1) rotate(0) translate(4 169.8)">
<title>dependencies</title>
<polygon fill="white" stroke="transparent" points="-4,4 -4,-169.8 372,-169.8 372,4 -4,4"/>
<text text-anchor="middle" x="184" y="-8.2" font-family="sans-serif" font-size="14.00">dependencies</text>
<g id="clust1" class="cluster">
<title>cluster_ButtonModule</title>
<polygon fill="none" stroke="black" stroke-dasharray="1,5" points="8,-32.8 8,-157.8 360,-157.8 360,-32.8 8,-32.8"/>
</g>
<g id="clust2" class="cluster">
<title>cluster_ButtonModule_declarations</title>
<polygon fill="none" stroke="black" points="182,-40.8 182,-92.8 352,-92.8 352,-40.8 182,-40.8"/>
</g>
<g id="clust4" class="cluster">
<title>cluster_ButtonModule_imports</title>
<polygon fill="none" stroke="black" points="16,-40.8 16,-92.8 174,-92.8 174,-40.8 16,-40.8"/>
</g>
<!-- DemoButtonComponent -->
<g id="node1" class="node">
<title>DemoButtonComponent</title>
<polygon fill="#ffffb3" stroke="black" points="343.66,-84.8 190.34,-84.8 190.34,-48.8 343.66,-48.8 343.66,-84.8"/>
<text text-anchor="middle" x="267" y="-62.6" font-family="Times,serif" font-size="14.00">DemoButtonComponent</text>
</g>
<!-- ButtonModule -->
<g id="node2" class="node">
<title>ButtonModule</title>
<polygon fill="#8dd3c7" stroke="black" points="229.67,-149.8 226.67,-153.8 205.67,-153.8 202.67,-149.8 132.33,-149.8 132.33,-113.8 229.67,-113.8 229.67,-149.8"/>
<text text-anchor="middle" x="181" y="-127.6" font-family="Times,serif" font-size="14.00">ButtonModule</text>
</g>
<!-- DemoButtonComponent&#45;&gt;ButtonModule -->
<g id="edge1" class="edge">
<title>DemoButtonComponent&#45;&gt;ButtonModule</title>
<path fill="none" stroke="black" d="M210,-84.91C210,-84.91 210,-103.79 210,-103.79"/>
<polygon fill="black" stroke="black" points="206.5,-103.79 210,-113.79 213.5,-103.79 206.5,-103.79"/>
</g>
<!-- ButtonRoutingModule -->
<g id="node3" class="node">
<title>ButtonRoutingModule</title>
<polygon fill="#8dd3c7" stroke="black" points="166.29,-84.8 163.29,-88.8 142.29,-88.8 139.29,-84.8 23.71,-84.8 23.71,-48.8 166.29,-48.8 166.29,-84.8"/>
<text text-anchor="middle" x="95" y="-62.6" font-family="Times,serif" font-size="14.00">ButtonRoutingModule</text>
</g>
<!-- ButtonRoutingModule&#45;&gt;ButtonModule -->
<g id="edge2" class="edge">
<title>ButtonRoutingModule&#45;&gt;ButtonModule</title>
<path fill="none" stroke="black" d="M149.28,-84.91C149.28,-84.91 149.28,-103.79 149.28,-103.79"/>
<polygon fill="black" stroke="black" points="145.78,-103.79 149.28,-113.79 152.78,-103.79 145.78,-103.79"/>
</g>
</g>
</svg>
