<?xml version="1.0" encoding="UTF-8" standalone="no"?>
<!DOCTYPE svg PUBLIC "-//W3C//DTD SVG 1.1//EN"
 "http://www.w3.org/Graphics/SVG/1.1/DTD/svg11.dtd">
<!-- Generated by graphviz version 2.47.3 (20210619.1520)
 -->
<!-- Title: dependencies Pages: 1 -->
<svg width="256pt" height="247pt"
 viewBox="0.00 0.00 256.00 246.80" xmlns="http://www.w3.org/2000/svg" xmlns:xlink="http://www.w3.org/1999/xlink">
<g id="graph0" class="graph" transform="scale(1 1) rotate(0) translate(4 242.8)">
<title>dependencies</title>
<polygon fill="white" stroke="transparent" points="-4,4 -4,-242.8 252,-242.8 252,4 -4,4"/>
<text text-anchor="middle" x="124" y="-8.2" font-family="sans-serif" font-size="14.00">dependencies</text>
<g id="clust1" class="cluster">
<title>cluster_JNetworkBootstrap3TooltipModule</title>
<polygon fill="none" stroke="black" stroke-dasharray="1,5" points="8,-32.8 8,-230.8 240,-230.8 240,-32.8 8,-32.8"/>
</g>
<g id="clust5" class="cluster">
<title>cluster_JNetworkBootstrap3TooltipModule_exports</title>
<polygon fill="none" stroke="black" points="44,-170.8 44,-222.8 204,-222.8 204,-170.8 44,-170.8"/>
</g>
<g id="clust2" class="cluster">
<title>cluster_JNetworkBootstrap3TooltipModule_declarations</title>
<polygon fill="none" stroke="black" points="46,-40.8 46,-92.8 202,-92.8 202,-40.8 46,-40.8"/>
</g>
<!-- NgTooltipComponent -->
<g id="node1" class="node">
<title>NgTooltipComponent</title>
<polygon fill="#ffffb3" stroke="black" points="193.66,-84.8 54.34,-84.8 54.34,-48.8 193.66,-48.8 193.66,-84.8"/>
<text text-anchor="middle" x="124" y="-62.6" font-family="Times,serif" font-size="14.00">NgTooltipComponent</text>
</g>
<!-- JNetworkBootstrap3TooltipModule -->
<g id="node2" class="node">
<title>JNetworkBootstrap3TooltipModule</title>
<polygon fill="#8dd3c7" stroke="black" points="232.14,-149.8 229.14,-153.8 208.14,-153.8 205.14,-149.8 15.86,-149.8 15.86,-113.8 232.14,-113.8 232.14,-149.8"/>
<text text-anchor="middle" x="124" y="-127.6" font-family="Times,serif" font-size="14.00">JNetworkBootstrap3TooltipModule</text>
</g>
<!-- NgTooltipComponent&#45;&gt;JNetworkBootstrap3TooltipModule -->
<g id="edge1" class="edge">
<title>NgTooltipComponent&#45;&gt;JNetworkBootstrap3TooltipModule</title>
<path fill="none" stroke="black" d="M124,-84.91C124,-84.91 124,-103.79 124,-103.79"/>
<polygon fill="black" stroke="black" points="120.5,-103.79 124,-113.79 127.5,-103.79 120.5,-103.79"/>
</g>
<!-- NgTooltipComponent  -->
<g id="node3" class="node">
<title>NgTooltipComponent </title>
<polygon fill="#fb8072" stroke="black" points="195.66,-214.8 52.34,-214.8 52.34,-178.8 195.66,-178.8 195.66,-214.8"/>
<text text-anchor="middle" x="124" y="-192.6" font-family="Times,serif" font-size="14.00">NgTooltipComponent </text>
</g>
<!-- JNetworkBootstrap3TooltipModule&#45;&gt;NgTooltipComponent  -->
<g id="edge2" class="edge">
<title>JNetworkBootstrap3TooltipModule&#45;&gt;NgTooltipComponent </title>
<path fill="none" stroke="black" stroke-dasharray="5,2" d="M124,-149.91C124,-149.91 124,-168.79 124,-168.79"/>
<polygon fill="black" stroke="black" points="120.5,-168.79 124,-178.79 127.5,-168.79 120.5,-168.79"/>
</g>
</g>
</svg>
