<?xml version="1.0" encoding="UTF-8" standalone="no"?>
<!DOCTYPE svg PUBLIC "-//W3C//DTD SVG 1.1//EN"
 "http://www.w3.org/Graphics/SVG/1.1/DTD/svg11.dtd">
<!-- Generated by graphviz version 2.47.0 (20210316.0004)
 -->
<!-- Title: dependencies Pages: 1 -->
<svg width="595pt" height="284pt"
 viewBox="0.00 0.00 595.00 284.00" xmlns="http://www.w3.org/2000/svg" xmlns:xlink="http://www.w3.org/1999/xlink">
<g id="graph0" class="graph" transform="scale(1 1) rotate(0) translate(4 280)">
<title>dependencies</title>
<polygon fill="white" stroke="transparent" points="-4,4 -4,-280 591,-280 591,4 -4,4"/>
<text text-anchor="start" x="272.51" y="-42.4" font-family="Times-12" font-weight="bold" font-size="14.00">Legend</text>
<polygon fill="#ffffb3" stroke="transparent" points="59.5,-10 59.5,-30 79.5,-30 79.5,-10 59.5,-10"/>
<text text-anchor="start" x="83.13" y="-15.4" font-family="Times-12" font-size="14.00"> &#160;Declarations</text>
<polygon fill="#8dd3c7" stroke="transparent" points="172.5,-10 172.5,-30 192.5,-30 192.5,-10 172.5,-10"/>
<text text-anchor="start" x="196.23" y="-15.4" font-family="Times-12" font-size="14.00"> &#160;Module</text>
<polygon fill="#80b1d3" stroke="transparent" points="258.5,-10 258.5,-30 278.5,-30 278.5,-10 258.5,-10"/>
<text text-anchor="start" x="282.28" y="-15.4" font-family="Times-12" font-size="14.00"> &#160;Bootstrap</text>
<polygon fill="#fdb462" stroke="transparent" points="355.5,-10 355.5,-30 375.5,-30 375.5,-10 355.5,-10"/>
<text text-anchor="start" x="379.17" y="-15.4" font-family="Times-12" font-size="14.00"> &#160;Providers</text>
<polygon fill="#fb8072" stroke="transparent" points="451.5,-10 451.5,-30 471.5,-30 471.5,-10 451.5,-10"/>
<text text-anchor="start" x="475.23" y="-15.4" font-family="Times-12" font-size="14.00"> &#160;Exports</text>
<g id="clust1" class="cluster">
<title>cluster_SACBootstrap3ListModule</title>
<polygon fill="none" stroke="black" stroke-dasharray="1,5" points="8,-70 8,-268 579,-268 579,-70 8,-70"/>
</g>
<g id="clust3" class="cluster">
<title>cluster_SACBootstrap3ListModule_imports</title>
<polygon fill="none" stroke="black" points="21,-78 21,-130 566,-130 566,-78 21,-78"/>
</g>
<g id="clust4" class="cluster">
<title>cluster_SACBootstrap3ListModule_exports</title>
<polygon fill="none" stroke="black" points="16,-208 16,-260 571,-260 571,-208 16,-208"/>
</g>
<!-- SacDropdownComponent -->
<g id="node1" class="node">
<title>SacDropdownComponent</title>
<polygon fill="#8dd3c7" stroke="black" points="557.92,-122 554.92,-126 533.92,-126 530.92,-122 396.08,-122 396.08,-86 557.92,-86 557.92,-122"/>
<text text-anchor="middle" x="477" y="-99.8" font-family="Times,serif" font-size="14.00">SacDropdownComponent</text>
</g>
<!-- SACBootstrap3ListModule -->
<g id="node4" class="node">
<title>SACBootstrap3ListModule</title>
<polygon fill="#8dd3c7" stroke="black" points="369.99,-187 366.99,-191 345.99,-191 342.99,-187 200.01,-187 200.01,-151 369.99,-151 369.99,-187"/>
<text text-anchor="middle" x="285" y="-164.8" font-family="Times,serif" font-size="14.00">SACBootstrap3ListModule</text>
</g>
<!-- SacDropdownComponent&#45;&gt;SACBootstrap3ListModule -->
<g id="edge1" class="edge">
<title>SacDropdownComponent&#45;&gt;SACBootstrap3ListModule</title>
<path fill="none" stroke="black" d="M504.65,-122.02C504.65,-139.37 504.65,-163 504.65,-163 504.65,-163 380.24,-163 380.24,-163"/>
<polygon fill="black" stroke="black" points="380.24,-159.5 370.24,-163 380.24,-166.5 380.24,-159.5"/>
</g>
<!-- SacDropdownOptionDirective -->
<g id="node2" class="node">
<title>SacDropdownOptionDirective</title>
<polygon fill="#8dd3c7" stroke="black" points="378.56,-122 375.56,-126 354.56,-126 351.56,-122 191.44,-122 191.44,-86 378.56,-86 378.56,-122"/>
<text text-anchor="middle" x="285" y="-99.8" font-family="Times,serif" font-size="14.00">SacDropdownOptionDirective</text>
</g>
<!-- SacDropdownOptionDirective&#45;&gt;SACBootstrap3ListModule -->
<g id="edge2" class="edge">
<title>SacDropdownOptionDirective&#45;&gt;SACBootstrap3ListModule</title>
<path fill="none" stroke="black" d="M285,-122.11C285,-122.11 285,-140.99 285,-140.99"/>
<polygon fill="black" stroke="black" points="281.5,-140.99 285,-150.99 288.5,-140.99 281.5,-140.99"/>
</g>
<!-- SacListboxComponent -->
<g id="node3" class="node">
<title>SacListboxComponent</title>
<polygon fill="#8dd3c7" stroke="black" points="173.32,-122 170.32,-126 149.32,-126 146.32,-122 28.68,-122 28.68,-86 173.32,-86 173.32,-122"/>
<text text-anchor="middle" x="101" y="-99.8" font-family="Times,serif" font-size="14.00">SacListboxComponent</text>
</g>
<!-- SacListboxComponent&#45;&gt;SACBootstrap3ListModule -->
<g id="edge3" class="edge">
<title>SacListboxComponent&#45;&gt;SACBootstrap3ListModule</title>
<path fill="none" stroke="black" d="M124.22,-122.02C124.22,-139.37 124.22,-163 124.22,-163 124.22,-163 189.9,-163 189.9,-163"/>
<polygon fill="black" stroke="black" points="189.9,-166.5 199.9,-163 189.9,-159.5 189.9,-166.5"/>
</g>
<!-- SacDropdownComponent  -->
<g id="node5" class="node">
<title>SacDropdownComponent </title>
<polygon fill="#fb8072" stroke="black" points="563.42,-252 398.58,-252 398.58,-216 563.42,-216 563.42,-252"/>
<text text-anchor="middle" x="481" y="-229.8" font-family="Times,serif" font-size="14.00">SacDropdownComponent </text>
</g>
<!-- SACBootstrap3ListModule&#45;&gt;SacDropdownComponent  -->
<g id="edge4" class="edge">
<title>SACBootstrap3ListModule&#45;&gt;SacDropdownComponent </title>
<path fill="none" stroke="black" stroke-dasharray="5,2" d="M370.25,-175C411.24,-175 451.6,-175 451.6,-175 451.6,-175 451.6,-205.98 451.6,-205.98"/>
<polygon fill="black" stroke="black" points="448.1,-205.98 451.6,-215.98 455.1,-205.98 448.1,-205.98"/>
</g>
<!-- SacDropdownOptionDirective  -->
<g id="node6" class="node">
<title>SacDropdownOptionDirective </title>
<polygon fill="#fb8072" stroke="black" points="380.06,-252 189.94,-252 189.94,-216 380.06,-216 380.06,-252"/>
<text text-anchor="middle" x="285" y="-229.8" font-family="Times,serif" font-size="14.00">SacDropdownOptionDirective </text>
</g>
<!-- SACBootstrap3ListModule&#45;&gt;SacDropdownOptionDirective  -->
<g id="edge5" class="edge">
<title>SACBootstrap3ListModule&#45;&gt;SacDropdownOptionDirective </title>
<path fill="none" stroke="black" stroke-dasharray="5,2" d="M285,-187.11C285,-187.11 285,-205.99 285,-205.99"/>
<polygon fill="black" stroke="black" points="281.5,-205.99 285,-215.99 288.5,-205.99 281.5,-205.99"/>
</g>
<!-- SacListboxComponent  -->
<g id="node7" class="node">
<title>SacListboxComponent </title>
<polygon fill="#fb8072" stroke="black" points="171.82,-252 24.18,-252 24.18,-216 171.82,-216 171.82,-252"/>
<text text-anchor="middle" x="98" y="-229.8" font-family="Times,serif" font-size="14.00">SacListboxComponent </text>
</g>
<!-- SACBootstrap3ListModule&#45;&gt;SacListboxComponent  -->
<g id="edge6" class="edge">
<title>SACBootstrap3ListModule&#45;&gt;SacListboxComponent </title>
<path fill="none" stroke="black" stroke-dasharray="5,2" d="M199.91,-175C142.26,-175 76.53,-175 76.53,-175 76.53,-175 76.53,-205.98 76.53,-205.98"/>
<polygon fill="black" stroke="black" points="73.03,-205.98 76.53,-215.98 80.03,-205.98 73.03,-205.98"/>
</g>
</g>
</svg>
