<?xml version="1.0" encoding="UTF-8" standalone="no"?>
<!DOCTYPE svg PUBLIC "-//W3C//DTD SVG 1.1//EN"
 "http://www.w3.org/Graphics/SVG/1.1/DTD/svg11.dtd">
<!-- Generated by graphviz version 2.47.0 (20210316.0004)
 -->
<!-- Title: dependencies Pages: 1 -->
<svg width="1666pt" height="396pt"
 viewBox="0.00 0.00 1666.00 395.59" xmlns="http://www.w3.org/2000/svg" xmlns:xlink="http://www.w3.org/1999/xlink">
<g id="graph0" class="graph" transform="scale(1 1) rotate(0) translate(4 391.59)">
<title>dependencies</title>
<polygon fill="white" stroke="transparent" points="-4,4 -4,-391.59 1662,-391.59 1662,4 -4,4"/>
<text text-anchor="start" x="808.01" y="-42.4" font-family="Times-12" font-weight="bold" font-size="14.00">Legend</text>
<polygon fill="#ffffb3" stroke="transparent" points="595,-10 595,-30 615,-30 615,-10 595,-10"/>
<text text-anchor="start" x="618.63" y="-15.4" font-family="Times-12" font-size="14.00"> &#160;Declarations</text>
<polygon fill="#8dd3c7" stroke="transparent" points="708,-10 708,-30 728,-30 728,-10 708,-10"/>
<text text-anchor="start" x="731.73" y="-15.4" font-family="Times-12" font-size="14.00"> &#160;Module</text>
<polygon fill="#80b1d3" stroke="transparent" points="794,-10 794,-30 814,-30 814,-10 794,-10"/>
<text text-anchor="start" x="817.78" y="-15.4" font-family="Times-12" font-size="14.00"> &#160;Bootstrap</text>
<polygon fill="#fdb462" stroke="transparent" points="891,-10 891,-30 911,-30 911,-10 891,-10"/>
<text text-anchor="start" x="914.67" y="-15.4" font-family="Times-12" font-size="14.00"> &#160;Providers</text>
<polygon fill="#fb8072" stroke="transparent" points="987,-10 987,-30 1007,-30 1007,-10 987,-10"/>
<text text-anchor="start" x="1010.73" y="-15.4" font-family="Times-12" font-size="14.00"> &#160;Exports</text>
<g id="clust1" class="cluster">
<title>cluster_SACBootstrap3ListModule</title>
<polygon fill="none" stroke="black" stroke-dasharray="1,5" points="8,-70 8,-379.59 1650,-379.59 1650,-70 8,-70"/>
</g>
<g id="clust2" class="cluster">
<title>cluster_SACBootstrap3ListModule_declarations</title>
<polygon fill="none" stroke="black" points="331,-189.59 331,-241.59 876,-241.59 876,-189.59 331,-189.59"/>
</g>
<g id="clust6" class="cluster">
<title>cluster_SACBootstrap3ListModule_imports</title>
<polygon fill="none" stroke="black" points="884,-189.59 884,-241.59 1326,-241.59 1326,-189.59 884,-189.59"/>
</g>
<g id="clust3" class="cluster">
<title>cluster_SACBootstrap3ListModule_SacDropdownComponent_providers</title>
<polygon fill="none" stroke="black" points="16,-78 16,-176.59 1642,-176.59 1642,-78 16,-78"/>
</g>
<g id="clust7" class="cluster">
<title>cluster_SACBootstrap3ListModule_exports</title>
<polygon fill="none" stroke="black" points="518,-319.59 518,-371.59 1073,-371.59 1073,-319.59 518,-319.59"/>
</g>
<!-- SacDropdownComponent -->
<g id="node1" class="node">
<title>SacDropdownComponent</title>
<polygon fill="#ffffb3" stroke="black" points="867.92,-233.59 706.08,-233.59 706.08,-197.59 867.92,-197.59 867.92,-233.59"/>
<text text-anchor="middle" x="787" y="-211.39" font-family="Times,serif" font-size="14.00">SacDropdownComponent</text>
</g>
<!-- SACBootstrap3ListModule -->
<g id="node4" class="node">
<title>SACBootstrap3ListModule</title>
<polygon fill="#8dd3c7" stroke="black" points="871.99,-298.59 868.99,-302.59 847.99,-302.59 844.99,-298.59 702.01,-298.59 702.01,-262.59 871.99,-262.59 871.99,-298.59"/>
<text text-anchor="middle" x="787" y="-276.39" font-family="Times,serif" font-size="14.00">SACBootstrap3ListModule</text>
</g>
<!-- SacDropdownComponent&#45;&gt;SACBootstrap3ListModule -->
<g id="edge1" class="edge">
<title>SacDropdownComponent&#45;&gt;SACBootstrap3ListModule</title>
<path fill="none" stroke="black" d="M787,-233.7C787,-233.7 787,-252.58 787,-252.58"/>
<polygon fill="black" stroke="black" points="783.5,-252.58 787,-262.58 790.5,-252.58 783.5,-252.58"/>
</g>
<!-- SacDropdownOptionDirective -->
<g id="node2" class="node">
<title>SacDropdownOptionDirective</title>
<polygon fill="#ffffb3" stroke="black" points="688.56,-233.59 501.44,-233.59 501.44,-197.59 688.56,-197.59 688.56,-233.59"/>
<text text-anchor="middle" x="595" y="-211.39" font-family="Times,serif" font-size="14.00">SacDropdownOptionDirective</text>
</g>
<!-- SacDropdownOptionDirective&#45;&gt;SACBootstrap3ListModule -->
<g id="edge4" class="edge">
<title>SacDropdownOptionDirective&#45;&gt;SACBootstrap3ListModule</title>
<path fill="none" stroke="black" d="M681.22,-233.62C681.22,-249.99 681.22,-271.59 681.22,-271.59 681.22,-271.59 691.87,-271.59 691.87,-271.59"/>
<polygon fill="black" stroke="black" points="691.87,-275.09 701.87,-271.59 691.87,-268.09 691.87,-275.09"/>
</g>
<!-- SacListboxComponent -->
<g id="node3" class="node">
<title>SacListboxComponent</title>
<polygon fill="#ffffb3" stroke="black" points="483.32,-233.59 338.68,-233.59 338.68,-197.59 483.32,-197.59 483.32,-233.59"/>
<text text-anchor="middle" x="411" y="-211.39" font-family="Times,serif" font-size="14.00">SacListboxComponent</text>
</g>
<!-- SacListboxComponent&#45;&gt;SACBootstrap3ListModule -->
<g id="edge5" class="edge">
<title>SacListboxComponent&#45;&gt;SACBootstrap3ListModule</title>
<path fill="none" stroke="black" d="M411,-233.7C411,-252.93 411,-280.59 411,-280.59 411,-280.59 691.68,-280.59 691.68,-280.59"/>
<polygon fill="black" stroke="black" points="691.68,-284.09 701.68,-280.59 691.68,-277.09 691.68,-284.09"/>
</g>
<!-- SacDropdownComponent  -->
<g id="node9" class="node">
<title>SacDropdownComponent </title>
<polygon fill="#fb8072" stroke="black" points="1065.42,-363.59 900.58,-363.59 900.58,-327.59 1065.42,-327.59 1065.42,-363.59"/>
<text text-anchor="middle" x="983" y="-341.39" font-family="Times,serif" font-size="14.00">SacDropdownComponent </text>
</g>
<!-- SACBootstrap3ListModule&#45;&gt;SacDropdownComponent  -->
<g id="edge8" class="edge">
<title>SACBootstrap3ListModule&#45;&gt;SacDropdownComponent </title>
<path fill="none" stroke="black" stroke-dasharray="5,2" d="M872.11,-289.59C925.01,-289.59 983,-289.59 983,-289.59 983,-289.59 983,-317.56 983,-317.56"/>
<polygon fill="black" stroke="black" points="979.5,-317.56 983,-327.56 986.5,-317.56 979.5,-317.56"/>
</g>
<!-- SacDropdownOptionDirective  -->
<g id="node10" class="node">
<title>SacDropdownOptionDirective </title>
<polygon fill="#fb8072" stroke="black" points="882.06,-363.59 691.94,-363.59 691.94,-327.59 882.06,-327.59 882.06,-363.59"/>
<text text-anchor="middle" x="787" y="-341.39" font-family="Times,serif" font-size="14.00">SacDropdownOptionDirective </text>
</g>
<!-- SACBootstrap3ListModule&#45;&gt;SacDropdownOptionDirective  -->
<g id="edge9" class="edge">
<title>SACBootstrap3ListModule&#45;&gt;SacDropdownOptionDirective </title>
<path fill="none" stroke="black" stroke-dasharray="5,2" d="M787,-298.7C787,-298.7 787,-317.58 787,-317.58"/>
<polygon fill="black" stroke="black" points="783.5,-317.58 787,-327.58 790.5,-317.58 783.5,-317.58"/>
</g>
<!-- SacListboxComponent  -->
<g id="node11" class="node">
<title>SacListboxComponent </title>
<polygon fill="#fb8072" stroke="black" points="673.82,-363.59 526.18,-363.59 526.18,-327.59 673.82,-327.59 673.82,-363.59"/>
<text text-anchor="middle" x="600" y="-341.39" font-family="Times,serif" font-size="14.00">SacListboxComponent </text>
</g>
<!-- SACBootstrap3ListModule&#45;&gt;SacListboxComponent  -->
<g id="edge10" class="edge">
<title>SACBootstrap3ListModule&#45;&gt;SacListboxComponent </title>
<path fill="none" stroke="black" stroke-dasharray="5,2" d="M701.98,-289.59C652.58,-289.59 600,-289.59 600,-289.59 600,-289.59 600,-317.56 600,-317.56"/>
<polygon fill="black" stroke="black" points="596.5,-317.56 600,-327.56 603.5,-317.56 596.5,-317.56"/>
</g>
<!-- {
 &#160;&#160;&#160;provide: NG_VALUE_ACCESSOR, multi: true, useExisting: SacDropdownComponent,
} -->
<g id="node5" class="node">
<title>{
 &#160;&#160;&#160;provide: NG_VALUE_ACCESSOR, multi: true, useExisting: SacDropdownComponent,
}</title>
<ellipse fill="#fdb462" stroke="black" cx="1260" cy="-127.3" rx="373.9" ry="41.09"/>
<text text-anchor="middle" x="1260" y="-139.9" font-family="Times,serif" font-size="14.00">{</text>
<text text-anchor="middle" x="1260" y="-123.1" font-family="Times,serif" font-size="14.00"> &#160;&#160;&#160;provide: NG_VALUE_ACCESSOR, multi: true, useExisting: SacDropdownComponent,</text>
<text text-anchor="middle" x="1260" y="-106.3" font-family="Times,serif" font-size="14.00">}</text>
</g>
<!-- {
 &#160;&#160;&#160;provide: NG_VALUE_ACCESSOR, multi: true, useExisting: SacDropdownComponent,
}&#45;&gt;SacDropdownComponent -->
<g id="edge2" class="edge">
<title>{
 &#160;&#160;&#160;provide: NG_VALUE_ACCESSOR, multi: true, useExisting: SacDropdownComponent,
}&#45;&gt;SacDropdownComponent</title>
<path fill="none" stroke="black" d="M886.22,-127.59C880.36,-127.59 877.14,-127.59 877.14,-127.59 877.14,-127.59 877.14,-215.59 877.14,-215.59 877.14,-215.59 876.21,-215.59 876.21,-215.59"/>
<polygon fill="black" stroke="black" points="877.83,-212.09 867.83,-215.59 877.83,-219.09 877.83,-212.09"/>
</g>
<!-- {
 &#160;&#160;&#160;provide: NG_VALIDATORS, multi: true, useExisting: forwardRef(() =&gt; SacDropdownComponent),
} -->
<g id="node6" class="node">
<title>{
 &#160;&#160;&#160;provide: NG_VALIDATORS, multi: true, useExisting: forwardRef(() =&gt; SacDropdownComponent),
}</title>
<ellipse fill="#fdb462" stroke="black" cx="446" cy="-127.3" rx="422.41" ry="41.09"/>
<text text-anchor="middle" x="446" y="-139.9" font-family="Times,serif" font-size="14.00">{</text>
<text text-anchor="middle" x="446" y="-123.1" font-family="Times,serif" font-size="14.00"> &#160;&#160;&#160;provide: NG_VALIDATORS, multi: true, useExisting: forwardRef(() =&gt; SacDropdownComponent),</text>
<text text-anchor="middle" x="446" y="-106.3" font-family="Times,serif" font-size="14.00">}</text>
</g>
<!-- {
 &#160;&#160;&#160;provide: NG_VALIDATORS, multi: true, useExisting: forwardRef(() =&gt; SacDropdownComponent),
}&#45;&gt;SacDropdownComponent -->
<g id="edge3" class="edge">
<title>{
 &#160;&#160;&#160;provide: NG_VALIDATORS, multi: true, useExisting: forwardRef(() =&gt; SacDropdownComponent),
}&#45;&gt;SacDropdownComponent</title>
<path fill="none" stroke="black" d="M787,-151.89C787,-151.89 787,-187.57 787,-187.57"/>
<polygon fill="black" stroke="black" points="783.5,-187.57 787,-197.57 790.5,-187.57 783.5,-187.57"/>
</g>
<!-- SACBootstrap3LayoutModule -->
<g id="node7" class="node">
<title>SACBootstrap3LayoutModule</title>
<polygon fill="#8dd3c7" stroke="black" points="1317.87,-233.59 1314.87,-237.59 1293.87,-237.59 1290.87,-233.59 1130.13,-233.59 1130.13,-197.59 1317.87,-197.59 1317.87,-233.59"/>
<text text-anchor="middle" x="1224" y="-211.39" font-family="Times,serif" font-size="14.00">SACBootstrap3LayoutModule</text>
</g>
<!-- SACBootstrap3LayoutModule&#45;&gt;SACBootstrap3ListModule -->
<g id="edge6" class="edge">
<title>SACBootstrap3LayoutModule&#45;&gt;SACBootstrap3ListModule</title>
<path fill="none" stroke="black" d="M1224,-233.7C1224,-252.93 1224,-280.59 1224,-280.59 1224,-280.59 882.04,-280.59 882.04,-280.59"/>
<polygon fill="black" stroke="black" points="882.04,-277.09 872.04,-280.59 882.04,-284.09 882.04,-277.09"/>
</g>
<!-- SACCommonListboxOptionModule -->
<g id="node8" class="node">
<title>SACCommonListboxOptionModule</title>
<polygon fill="#8dd3c7" stroke="black" points="1112.06,-233.59 1109.06,-237.59 1088.06,-237.59 1085.06,-233.59 891.94,-233.59 891.94,-197.59 1112.06,-197.59 1112.06,-233.59"/>
<text text-anchor="middle" x="1002" y="-211.39" font-family="Times,serif" font-size="14.00">SACCommonListboxOptionModule</text>
</g>
<!-- SACCommonListboxOptionModule&#45;&gt;SACBootstrap3ListModule -->
<g id="edge7" class="edge">
<title>SACCommonListboxOptionModule&#45;&gt;SACBootstrap3ListModule</title>
<path fill="none" stroke="black" d="M896.13,-233.62C896.13,-249.99 896.13,-271.59 896.13,-271.59 896.13,-271.59 882.18,-271.59 882.18,-271.59"/>
<polygon fill="black" stroke="black" points="882.18,-268.09 872.18,-271.59 882.18,-275.09 882.18,-268.09"/>
</g>
</g>
</svg>
