<?xml version="1.0" encoding="UTF-8" standalone="no"?>
<!DOCTYPE svg PUBLIC "-//W3C//DTD SVG 1.1//EN"
 "http://www.w3.org/Graphics/SVG/1.1/DTD/svg11.dtd">
<!-- Generated by graphviz version 2.47.0 (20210316.0004)
 -->
<!-- Title: dependencies Pages: 1 -->
<svg width="2253pt" height="349pt"
 viewBox="0.00 0.00 2253.00 349.00" xmlns="http://www.w3.org/2000/svg" xmlns:xlink="http://www.w3.org/1999/xlink">
<g id="graph0" class="graph" transform="scale(1 1) rotate(0) translate(4 345)">
<title>dependencies</title>
<polygon fill="white" stroke="transparent" points="-4,4 -4,-345 2249,-345 2249,4 -4,4"/>
<text text-anchor="start" x="1101.51" y="-42.4" font-family="Times-12" font-weight="bold" font-size="14.00">Legend</text>
<polygon fill="#ffffb3" stroke="transparent" points="888.5,-10 888.5,-30 908.5,-30 908.5,-10 888.5,-10"/>
<text text-anchor="start" x="912.13" y="-15.4" font-family="Times-12" font-size="14.00"> &#160;Declarations</text>
<polygon fill="#8dd3c7" stroke="transparent" points="1001.5,-10 1001.5,-30 1021.5,-30 1021.5,-10 1001.5,-10"/>
<text text-anchor="start" x="1025.23" y="-15.4" font-family="Times-12" font-size="14.00"> &#160;Module</text>
<polygon fill="#80b1d3" stroke="transparent" points="1087.5,-10 1087.5,-30 1107.5,-30 1107.5,-10 1087.5,-10"/>
<text text-anchor="start" x="1111.28" y="-15.4" font-family="Times-12" font-size="14.00"> &#160;Bootstrap</text>
<polygon fill="#fdb462" stroke="transparent" points="1184.5,-10 1184.5,-30 1204.5,-30 1204.5,-10 1184.5,-10"/>
<text text-anchor="start" x="1208.17" y="-15.4" font-family="Times-12" font-size="14.00"> &#160;Providers</text>
<polygon fill="#fb8072" stroke="transparent" points="1280.5,-10 1280.5,-30 1300.5,-30 1300.5,-10 1280.5,-10"/>
<text text-anchor="start" x="1304.23" y="-15.4" font-family="Times-12" font-size="14.00"> &#160;Exports</text>
<g id="clust1" class="cluster">
<title>cluster_SACBootstrap3ListModule</title>
<polygon fill="none" stroke="black" stroke-dasharray="1,5" points="8,-70 8,-333 2237,-333 2237,-70 8,-70"/>
</g>
<g id="clust3" class="cluster">
<title>cluster_SACBootstrap3ListModule_SacDropdownComponent_providers</title>
<polygon fill="none" stroke="black" points="634,-78 634,-195 2229,-195 2229,-78 634,-78"/>
</g>
<g id="clust2" class="cluster">
<title>cluster_SACBootstrap3ListModule_declarations</title>
<polygon fill="none" stroke="black" points="260,-143 260,-195 626,-195 626,-143 260,-143"/>
</g>
<g id="clust6" class="cluster">
<title>cluster_SACBootstrap3ListModule_imports</title>
<polygon fill="none" stroke="black" points="16,-143 16,-195 252,-195 252,-143 16,-143"/>
</g>
<g id="clust7" class="cluster">
<title>cluster_SACBootstrap3ListModule_exports</title>
<polygon fill="none" stroke="black" points="163,-273 163,-325 718,-325 718,-273 163,-273"/>
</g>
<!-- SacDropdownComponent -->
<g id="node1" class="node">
<title>SacDropdownComponent</title>
<polygon fill="#ffffb3" stroke="black" points="1136.92,-187 975.08,-187 975.08,-151 1136.92,-151 1136.92,-187"/>
<text text-anchor="middle" x="1056" y="-164.8" font-family="Times,serif" font-size="14.00">SacDropdownComponent</text>
</g>
<!-- SACBootstrap3ListModule -->
<g id="node4" class="node">
<title>SACBootstrap3ListModule</title>
<polygon fill="#8dd3c7" stroke="black" points="516.99,-252 513.99,-256 492.99,-256 489.99,-252 347.01,-252 347.01,-216 516.99,-216 516.99,-252"/>
<text text-anchor="middle" x="432" y="-229.8" font-family="Times,serif" font-size="14.00">SACBootstrap3ListModule</text>
</g>
<!-- SacDropdownComponent&#45;&gt;SACBootstrap3ListModule -->
<g id="edge1" class="edge">
<title>SacDropdownComponent&#45;&gt;SACBootstrap3ListModule</title>
<path fill="none" stroke="black" d="M1056,-187.02C1056,-204.37 1056,-228 1056,-228 1056,-228 527.13,-228 527.13,-228"/>
<polygon fill="black" stroke="black" points="527.13,-224.5 517.13,-228 527.13,-231.5 527.13,-224.5"/>
</g>
<!-- SacDropdownOptionDirective -->
<g id="node2" class="node">
<title>SacDropdownOptionDirective</title>
<polygon fill="#ffffb3" stroke="black" points="617.56,-187 430.44,-187 430.44,-151 617.56,-151 617.56,-187"/>
<text text-anchor="middle" x="524" y="-164.8" font-family="Times,serif" font-size="14.00">SacDropdownOptionDirective</text>
</g>
<!-- SacDropdownOptionDirective&#45;&gt;SACBootstrap3ListModule -->
<g id="edge4" class="edge">
<title>SacDropdownOptionDirective&#45;&gt;SACBootstrap3ListModule</title>
<path fill="none" stroke="black" d="M473.73,-187.11C473.73,-187.11 473.73,-205.99 473.73,-205.99"/>
<polygon fill="black" stroke="black" points="470.23,-205.99 473.73,-215.99 477.23,-205.99 470.23,-205.99"/>
</g>
<!-- SacListboxComponent -->
<g id="node3" class="node">
<title>SacListboxComponent</title>
<polygon fill="#ffffb3" stroke="black" points="412.32,-187 267.68,-187 267.68,-151 412.32,-151 412.32,-187"/>
<text text-anchor="middle" x="340" y="-164.8" font-family="Times,serif" font-size="14.00">SacListboxComponent</text>
</g>
<!-- SacListboxComponent&#45;&gt;SACBootstrap3ListModule -->
<g id="edge5" class="edge">
<title>SacListboxComponent&#45;&gt;SACBootstrap3ListModule</title>
<path fill="none" stroke="black" d="M379.58,-187.11C379.58,-187.11 379.58,-205.99 379.58,-205.99"/>
<polygon fill="black" stroke="black" points="376.08,-205.99 379.58,-215.99 383.08,-205.99 376.08,-205.99"/>
</g>
<!-- SacDropdownComponent  -->
<g id="node8" class="node">
<title>SacDropdownComponent </title>
<polygon fill="#fb8072" stroke="black" points="710.42,-317 545.58,-317 545.58,-281 710.42,-281 710.42,-317"/>
<text text-anchor="middle" x="628" y="-294.8" font-family="Times,serif" font-size="14.00">SacDropdownComponent </text>
</g>
<!-- SACBootstrap3ListModule&#45;&gt;SacDropdownComponent  -->
<g id="edge7" class="edge">
<title>SACBootstrap3ListModule&#45;&gt;SacDropdownComponent </title>
<path fill="none" stroke="black" stroke-dasharray="5,2" d="M517.25,-240C550.83,-240 581.53,-240 581.53,-240 581.53,-240 581.53,-270.98 581.53,-270.98"/>
<polygon fill="black" stroke="black" points="578.03,-270.98 581.53,-280.98 585.03,-270.98 578.03,-270.98"/>
</g>
<!-- SacDropdownOptionDirective  -->
<g id="node9" class="node">
<title>SacDropdownOptionDirective </title>
<polygon fill="#fb8072" stroke="black" points="527.06,-317 336.94,-317 336.94,-281 527.06,-281 527.06,-317"/>
<text text-anchor="middle" x="432" y="-294.8" font-family="Times,serif" font-size="14.00">SacDropdownOptionDirective </text>
</g>
<!-- SACBootstrap3ListModule&#45;&gt;SacDropdownOptionDirective  -->
<g id="edge8" class="edge">
<title>SACBootstrap3ListModule&#45;&gt;SacDropdownOptionDirective </title>
<path fill="none" stroke="black" stroke-dasharray="5,2" d="M432,-252.11C432,-252.11 432,-270.99 432,-270.99"/>
<polygon fill="black" stroke="black" points="428.5,-270.99 432,-280.99 435.5,-270.99 428.5,-270.99"/>
</g>
<!-- SacListboxComponent  -->
<g id="node10" class="node">
<title>SacListboxComponent </title>
<polygon fill="#fb8072" stroke="black" points="318.82,-317 171.18,-317 171.18,-281 318.82,-281 318.82,-317"/>
<text text-anchor="middle" x="245" y="-294.8" font-family="Times,serif" font-size="14.00">SacListboxComponent </text>
</g>
<!-- SACBootstrap3ListModule&#45;&gt;SacListboxComponent  -->
<g id="edge9" class="edge">
<title>SACBootstrap3ListModule&#45;&gt;SacListboxComponent </title>
<path fill="none" stroke="black" stroke-dasharray="5,2" d="M346.97,-240C318.28,-240 293.38,-240 293.38,-240 293.38,-240 293.38,-270.98 293.38,-270.98"/>
<polygon fill="black" stroke="black" points="289.88,-270.98 293.38,-280.98 296.88,-270.98 289.88,-270.98"/>
</g>
<!-- { provide: NG_VALUE_ACCESSOR, multi: true, useExisting: SacDropdownComponent } -->
<g id="node5" class="node">
<title>{ provide: NG_VALUE_ACCESSOR, multi: true, useExisting: SacDropdownComponent }</title>
<ellipse fill="#fdb462" stroke="black" cx="1854" cy="-104" rx="366.64" ry="18"/>
<text text-anchor="middle" x="1854" y="-99.8" font-family="Times,serif" font-size="14.00">{ provide: NG_VALUE_ACCESSOR, multi: true, useExisting: SacDropdownComponent }</text>
</g>
<!-- { provide: NG_VALUE_ACCESSOR, multi: true, useExisting: SacDropdownComponent }&#45;&gt;SacDropdownComponent -->
<g id="edge2" class="edge">
<title>{ provide: NG_VALUE_ACCESSOR, multi: true, useExisting: SacDropdownComponent }&#45;&gt;SacDropdownComponent</title>
<path fill="none" stroke="black" d="M1854,-122.11C1854,-141.34 1854,-169 1854,-169 1854,-169 1146.91,-169 1146.91,-169"/>
<polygon fill="black" stroke="black" points="1146.91,-165.5 1136.91,-169 1146.91,-172.5 1146.91,-165.5"/>
</g>
<!-- { provide: NG_VALIDATORS, multi: true, useExisting: forwardRef(() =&gt; SacDropdownComponent) } -->
<g id="node6" class="node">
<title>{ provide: NG_VALIDATORS, multi: true, useExisting: forwardRef(() =&gt; SacDropdownComponent) }</title>
<ellipse fill="#fdb462" stroke="black" cx="1056" cy="-104" rx="413.78" ry="18"/>
<text text-anchor="middle" x="1056" y="-99.8" font-family="Times,serif" font-size="14.00">{ provide: NG_VALIDATORS, multi: true, useExisting: forwardRef(() =&gt; SacDropdownComponent) }</text>
</g>
<!-- { provide: NG_VALIDATORS, multi: true, useExisting: forwardRef(() =&gt; SacDropdownComponent) }&#45;&gt;SacDropdownComponent -->
<g id="edge3" class="edge">
<title>{ provide: NG_VALIDATORS, multi: true, useExisting: forwardRef(() =&gt; SacDropdownComponent) }&#45;&gt;SacDropdownComponent</title>
<path fill="none" stroke="black" d="M1056,-122.11C1056,-122.11 1056,-140.99 1056,-140.99"/>
<polygon fill="black" stroke="black" points="1052.5,-140.99 1056,-150.99 1059.5,-140.99 1052.5,-140.99"/>
</g>
<!-- SACCommonListboxOptionModule -->
<g id="node7" class="node">
<title>SACCommonListboxOptionModule</title>
<polygon fill="#8dd3c7" stroke="black" points="244.06,-187 241.06,-191 220.06,-191 217.06,-187 23.94,-187 23.94,-151 244.06,-151 244.06,-187"/>
<text text-anchor="middle" x="134" y="-164.8" font-family="Times,serif" font-size="14.00">SACCommonListboxOptionModule</text>
</g>
<!-- SACCommonListboxOptionModule&#45;&gt;SACBootstrap3ListModule -->
<g id="edge6" class="edge">
<title>SACCommonListboxOptionModule&#45;&gt;SACBootstrap3ListModule</title>
<path fill="none" stroke="black" d="M207.68,-187.02C207.68,-204.37 207.68,-228 207.68,-228 207.68,-228 336.88,-228 336.88,-228"/>
<polygon fill="black" stroke="black" points="336.88,-231.5 346.88,-228 336.88,-224.5 336.88,-231.5"/>
</g>
</g>
</svg>
