<?xml version="1.0" encoding="UTF-8" standalone="no"?>
<!DOCTYPE svg PUBLIC "-//W3C//DTD SVG 1.1//EN"
 "http://www.w3.org/Graphics/SVG/1.1/DTD/svg11.dtd">
<!-- Generated by graphviz version 2.47.0 (20210316.0004)
 -->
<!-- Title: dependencies Pages: 1 -->
<svg width="2253pt" height="349pt"
 viewBox="0.00 0.00 2253.00 349.00" xmlns="http://www.w3.org/2000/svg" xmlns:xlink="http://www.w3.org/1999/xlink">
<g id="graph0" class="graph" transform="scale(1 1) rotate(0) translate(4 345)">
<title>dependencies</title>
<polygon fill="white" stroke="transparent" points="-4,4 -4,-345 2249,-345 2249,4 -4,4"/>
<text text-anchor="start" x="1101.51" y="-42.4" font-family="Times-12" font-weight="bold" font-size="14.00">Legend</text>
<polygon fill="#ffffb3" stroke="transparent" points="888.5,-10 888.5,-30 908.5,-30 908.5,-10 888.5,-10"/>
<text text-anchor="start" x="912.13" y="-15.4" font-family="Times-12" font-size="14.00"> &#160;Declarations</text>
<polygon fill="#8dd3c7" stroke="transparent" points="1001.5,-10 1001.5,-30 1021.5,-30 1021.5,-10 1001.5,-10"/>
<text text-anchor="start" x="1025.23" y="-15.4" font-family="Times-12" font-size="14.00"> &#160;Module</text>
<polygon fill="#80b1d3" stroke="transparent" points="1087.5,-10 1087.5,-30 1107.5,-30 1107.5,-10 1087.5,-10"/>
<text text-anchor="start" x="1111.28" y="-15.4" font-family="Times-12" font-size="14.00"> &#160;Bootstrap</text>
<polygon fill="#fdb462" stroke="transparent" points="1184.5,-10 1184.5,-30 1204.5,-30 1204.5,-10 1184.5,-10"/>
<text text-anchor="start" x="1208.17" y="-15.4" font-family="Times-12" font-size="14.00"> &#160;Providers</text>
<polygon fill="#fb8072" stroke="transparent" points="1280.5,-10 1280.5,-30 1300.5,-30 1300.5,-10 1280.5,-10"/>
<text text-anchor="start" x="1304.23" y="-15.4" font-family="Times-12" font-size="14.00"> &#160;Exports</text>
<g id="clust1" class="cluster">
<title>cluster_SACBootstrap3ListModule</title>
<polygon fill="none" stroke="black" stroke-dasharray="1,5" points="8,-70 8,-333 2237,-333 2237,-70 8,-70"/>
</g>
<g id="clust6" class="cluster">
<title>cluster_SACBootstrap3ListModule_imports</title>
<polygon fill="none" stroke="black" points="1993,-143 1993,-195 2229,-195 2229,-143 1993,-143"/>
</g>
<g id="clust3" class="cluster">
<title>cluster_SACBootstrap3ListModule_SacDropdownComponent_providers</title>
<polygon fill="none" stroke="black" points="390,-78 390,-195 1985,-195 1985,-78 390,-78"/>
</g>
<g id="clust2" class="cluster">
<title>cluster_SACBootstrap3ListModule_declarations</title>
<polygon fill="none" stroke="black" points="16,-143 16,-195 382,-195 382,-143 16,-143"/>
</g>
<g id="clust7" class="cluster">
<title>cluster_SACBootstrap3ListModule_exports</title>
<polygon fill="none" stroke="black" points="279,-273 279,-325 834,-325 834,-273 279,-273"/>
</g>
<!-- SacDropdownComponent -->
<g id="node1" class="node">
<title>SacDropdownComponent</title>
<polygon fill="#ffffb3" stroke="black" points="892.92,-187 731.08,-187 731.08,-151 892.92,-151 892.92,-187"/>
<text text-anchor="middle" x="812" y="-164.8" font-family="Times,serif" font-size="14.00">SacDropdownComponent</text>
</g>
<!-- SACBootstrap3ListModule -->
<g id="node4" class="node">
<title>SACBootstrap3ListModule</title>
<polygon fill="#8dd3c7" stroke="black" points="632.99,-252 629.99,-256 608.99,-256 605.99,-252 463.01,-252 463.01,-216 632.99,-216 632.99,-252"/>
<text text-anchor="middle" x="548" y="-229.8" font-family="Times,serif" font-size="14.00">SACBootstrap3ListModule</text>
</g>
<!-- SacDropdownComponent&#45;&gt;SACBootstrap3ListModule -->
<g id="edge1" class="edge">
<title>SacDropdownComponent&#45;&gt;SACBootstrap3ListModule</title>
<path fill="none" stroke="black" d="M778.88,-187.03C778.88,-203.4 778.88,-225 778.88,-225 778.88,-225 643.31,-225 643.31,-225"/>
<polygon fill="black" stroke="black" points="643.31,-221.5 633.31,-225 643.31,-228.5 643.31,-221.5"/>
</g>
<!-- SacDropdownOptionDirective -->
<g id="node2" class="node">
<title>SacDropdownOptionDirective</title>
<polygon fill="#ffffb3" stroke="black" points="373.56,-187 186.44,-187 186.44,-151 373.56,-151 373.56,-187"/>
<text text-anchor="middle" x="280" y="-164.8" font-family="Times,serif" font-size="14.00">SacDropdownOptionDirective</text>
</g>
<!-- SacDropdownOptionDirective&#45;&gt;SACBootstrap3ListModule -->
<g id="edge4" class="edge">
<title>SacDropdownOptionDirective&#45;&gt;SACBootstrap3ListModule</title>
<path fill="none" stroke="black" d="M330.31,-187.03C330.31,-203.4 330.31,-225 330.31,-225 330.31,-225 452.9,-225 452.9,-225"/>
<polygon fill="black" stroke="black" points="452.9,-228.5 462.9,-225 452.9,-221.5 452.9,-228.5"/>
</g>
<!-- SacListboxComponent -->
<g id="node3" class="node">
<title>SacListboxComponent</title>
<polygon fill="#ffffb3" stroke="black" points="168.32,-187 23.68,-187 23.68,-151 168.32,-151 168.32,-187"/>
<text text-anchor="middle" x="96" y="-164.8" font-family="Times,serif" font-size="14.00">SacListboxComponent</text>
</g>
<!-- SacListboxComponent&#45;&gt;SACBootstrap3ListModule -->
<g id="edge5" class="edge">
<title>SacListboxComponent&#45;&gt;SACBootstrap3ListModule</title>
<path fill="none" stroke="black" d="M96,-187.11C96,-206.34 96,-234 96,-234 96,-234 452.98,-234 452.98,-234"/>
<polygon fill="black" stroke="black" points="452.98,-237.5 462.98,-234 452.98,-230.5 452.98,-237.5"/>
</g>
<!-- SacDropdownComponent  -->
<g id="node8" class="node">
<title>SacDropdownComponent </title>
<polygon fill="#fb8072" stroke="black" points="826.42,-317 661.58,-317 661.58,-281 826.42,-281 826.42,-317"/>
<text text-anchor="middle" x="744" y="-294.8" font-family="Times,serif" font-size="14.00">SacDropdownComponent </text>
</g>
<!-- SACBootstrap3ListModule&#45;&gt;SacDropdownComponent  -->
<g id="edge7" class="edge">
<title>SACBootstrap3ListModule&#45;&gt;SacDropdownComponent </title>
<path fill="none" stroke="black" stroke-dasharray="5,2" d="M633.04,-243C666.21,-243 696.42,-243 696.42,-243 696.42,-243 696.42,-270.97 696.42,-270.97"/>
<polygon fill="black" stroke="black" points="692.92,-270.97 696.42,-280.97 699.92,-270.97 692.92,-270.97"/>
</g>
<!-- SacDropdownOptionDirective  -->
<g id="node9" class="node">
<title>SacDropdownOptionDirective </title>
<polygon fill="#fb8072" stroke="black" points="643.06,-317 452.94,-317 452.94,-281 643.06,-281 643.06,-317"/>
<text text-anchor="middle" x="548" y="-294.8" font-family="Times,serif" font-size="14.00">SacDropdownOptionDirective </text>
</g>
<!-- SACBootstrap3ListModule&#45;&gt;SacDropdownOptionDirective  -->
<g id="edge8" class="edge">
<title>SACBootstrap3ListModule&#45;&gt;SacDropdownOptionDirective </title>
<path fill="none" stroke="black" stroke-dasharray="5,2" d="M548,-252.11C548,-252.11 548,-270.99 548,-270.99"/>
<polygon fill="black" stroke="black" points="544.5,-270.99 548,-280.99 551.5,-270.99 544.5,-270.99"/>
</g>
<!-- SacListboxComponent  -->
<g id="node10" class="node">
<title>SacListboxComponent </title>
<polygon fill="#fb8072" stroke="black" points="434.82,-317 287.18,-317 287.18,-281 434.82,-281 434.82,-317"/>
<text text-anchor="middle" x="361" y="-294.8" font-family="Times,serif" font-size="14.00">SacListboxComponent </text>
</g>
<!-- SACBootstrap3ListModule&#45;&gt;SacListboxComponent  -->
<g id="edge9" class="edge">
<title>SACBootstrap3ListModule&#45;&gt;SacListboxComponent </title>
<path fill="none" stroke="black" stroke-dasharray="5,2" d="M462.87,-243C437.59,-243 416.51,-243 416.51,-243 416.51,-243 416.51,-270.97 416.51,-270.97"/>
<polygon fill="black" stroke="black" points="413.01,-270.97 416.51,-280.97 420.01,-270.97 413.01,-270.97"/>
</g>
<!-- { provide: NG_VALUE_ACCESSOR, multi: true, useExisting: SacDropdownComponent } -->
<g id="node5" class="node">
<title>{ provide: NG_VALUE_ACCESSOR, multi: true, useExisting: SacDropdownComponent }</title>
<ellipse fill="#fdb462" stroke="black" cx="1610" cy="-104" rx="366.64" ry="18"/>
<text text-anchor="middle" x="1610" y="-99.8" font-family="Times,serif" font-size="14.00">{ provide: NG_VALUE_ACCESSOR, multi: true, useExisting: SacDropdownComponent }</text>
</g>
<!-- { provide: NG_VALUE_ACCESSOR, multi: true, useExisting: SacDropdownComponent }&#45;&gt;SacDropdownComponent -->
<g id="edge2" class="edge">
<title>{ provide: NG_VALUE_ACCESSOR, multi: true, useExisting: SacDropdownComponent }&#45;&gt;SacDropdownComponent</title>
<path fill="none" stroke="black" d="M1610,-122.11C1610,-141.34 1610,-169 1610,-169 1610,-169 902.91,-169 902.91,-169"/>
<polygon fill="black" stroke="black" points="902.91,-165.5 892.91,-169 902.91,-172.5 902.91,-165.5"/>
</g>
<!-- { provide: NG_VALIDATORS, multi: true, useExisting: forwardRef(() =&gt; SacDropdownComponent) } -->
<g id="node6" class="node">
<title>{ provide: NG_VALIDATORS, multi: true, useExisting: forwardRef(() =&gt; SacDropdownComponent) }</title>
<ellipse fill="#fdb462" stroke="black" cx="812" cy="-104" rx="413.78" ry="18"/>
<text text-anchor="middle" x="812" y="-99.8" font-family="Times,serif" font-size="14.00">{ provide: NG_VALIDATORS, multi: true, useExisting: forwardRef(() =&gt; SacDropdownComponent) }</text>
</g>
<!-- { provide: NG_VALIDATORS, multi: true, useExisting: forwardRef(() =&gt; SacDropdownComponent) }&#45;&gt;SacDropdownComponent -->
<g id="edge3" class="edge">
<title>{ provide: NG_VALIDATORS, multi: true, useExisting: forwardRef(() =&gt; SacDropdownComponent) }&#45;&gt;SacDropdownComponent</title>
<path fill="none" stroke="black" d="M812,-122.11C812,-122.11 812,-140.99 812,-140.99"/>
<polygon fill="black" stroke="black" points="808.5,-140.99 812,-150.99 815.5,-140.99 808.5,-140.99"/>
</g>
<!-- SACCommonListboxOptionModule -->
<g id="node7" class="node">
<title>SACCommonListboxOptionModule</title>
<polygon fill="#8dd3c7" stroke="black" points="2221.06,-187 2218.06,-191 2197.06,-191 2194.06,-187 2000.94,-187 2000.94,-151 2221.06,-151 2221.06,-187"/>
<text text-anchor="middle" x="2111" y="-164.8" font-family="Times,serif" font-size="14.00">SACCommonListboxOptionModule</text>
</g>
<!-- SACCommonListboxOptionModule&#45;&gt;SACBootstrap3ListModule -->
<g id="edge6" class="edge">
<title>SACCommonListboxOptionModule&#45;&gt;SACBootstrap3ListModule</title>
<path fill="none" stroke="black" d="M2111,-187.11C2111,-206.34 2111,-234 2111,-234 2111,-234 643.14,-234 643.14,-234"/>
<polygon fill="black" stroke="black" points="643.14,-230.5 633.14,-234 643.14,-237.5 643.14,-230.5"/>
</g>
</g>
</svg>
