<?xml version="1.0" encoding="UTF-8" standalone="no"?>
<!DOCTYPE svg PUBLIC "-//W3C//DTD SVG 1.1//EN"
 "http://www.w3.org/Graphics/SVG/1.1/DTD/svg11.dtd">
<!-- Generated by graphviz version 2.47.0 (20210316.0004)
 -->
<!-- Title: dependencies Pages: 1 -->
<svg width="2446pt" height="396pt"
 viewBox="0.00 0.00 2446.00 395.59" xmlns="http://www.w3.org/2000/svg" xmlns:xlink="http://www.w3.org/1999/xlink">
<g id="graph0" class="graph" transform="scale(1 1) rotate(0) translate(4 391.59)">
<title>dependencies</title>
<polygon fill="white" stroke="transparent" points="-4,4 -4,-391.59 2442,-391.59 2442,4 -4,4"/>
<text text-anchor="start" x="1198.01" y="-42.4" font-family="Times-12" font-weight="bold" font-size="14.00">Legend</text>
<polygon fill="#ffffb3" stroke="transparent" points="985,-10 985,-30 1005,-30 1005,-10 985,-10"/>
<text text-anchor="start" x="1008.63" y="-15.4" font-family="Times-12" font-size="14.00"> &#160;Declarations</text>
<polygon fill="#8dd3c7" stroke="transparent" points="1098,-10 1098,-30 1118,-30 1118,-10 1098,-10"/>
<text text-anchor="start" x="1121.73" y="-15.4" font-family="Times-12" font-size="14.00"> &#160;Module</text>
<polygon fill="#80b1d3" stroke="transparent" points="1184,-10 1184,-30 1204,-30 1204,-10 1184,-10"/>
<text text-anchor="start" x="1207.78" y="-15.4" font-family="Times-12" font-size="14.00"> &#160;Bootstrap</text>
<polygon fill="#fdb462" stroke="transparent" points="1281,-10 1281,-30 1301,-30 1301,-10 1281,-10"/>
<text text-anchor="start" x="1304.67" y="-15.4" font-family="Times-12" font-size="14.00"> &#160;Providers</text>
<polygon fill="#fb8072" stroke="transparent" points="1377,-10 1377,-30 1397,-30 1397,-10 1377,-10"/>
<text text-anchor="start" x="1400.73" y="-15.4" font-family="Times-12" font-size="14.00"> &#160;Exports</text>
<g id="clust1" class="cluster">
<title>cluster_SACBootstrap3ListModule</title>
<polygon fill="none" stroke="black" stroke-dasharray="1,5" points="8,-70 8,-379.59 2430,-379.59 2430,-70 8,-70"/>
</g>
<g id="clust2" class="cluster">
<title>cluster_SACBootstrap3ListModule_declarations</title>
<polygon fill="none" stroke="black" points="616,-189.59 616,-241.59 1349,-241.59 1349,-189.59 616,-189.59"/>
</g>
<g id="clust7" class="cluster">
<title>cluster_SACBootstrap3ListModule_imports</title>
<polygon fill="none" stroke="black" points="1357,-189.59 1357,-241.59 2209,-241.59 2209,-189.59 1357,-189.59"/>
</g>
<g id="clust3" class="cluster">
<title>cluster_SACBootstrap3ListModule_SacDropdownComponent_providers</title>
<polygon fill="none" stroke="black" points="16,-78 16,-176.59 2422,-176.59 2422,-78 16,-78"/>
</g>
<g id="clust8" class="cluster">
<title>cluster_SACBootstrap3ListModule_exports</title>
<polygon fill="none" stroke="black" points="991,-319.59 991,-371.59 1738,-371.59 1738,-319.59 991,-319.59"/>
</g>
<!-- SacDropdownComponent -->
<g id="node1" class="node">
<title>SacDropdownComponent</title>
<polygon fill="#ffffb3" stroke="black" points="1340.92,-233.59 1179.08,-233.59 1179.08,-197.59 1340.92,-197.59 1340.92,-233.59"/>
<text text-anchor="middle" x="1260" y="-211.39" font-family="Times,serif" font-size="14.00">SacDropdownComponent</text>
</g>
<!-- SACBootstrap3ListModule -->
<g id="node5" class="node">
<title>SACBootstrap3ListModule</title>
<polygon fill="#8dd3c7" stroke="black" points="1442.99,-298.59 1439.99,-302.59 1418.99,-302.59 1415.99,-298.59 1273.01,-298.59 1273.01,-262.59 1442.99,-262.59 1442.99,-298.59"/>
<text text-anchor="middle" x="1358" y="-276.39" font-family="Times,serif" font-size="14.00">SACBootstrap3ListModule</text>
</g>
<!-- SacDropdownComponent&#45;&gt;SACBootstrap3ListModule -->
<g id="edge1" class="edge">
<title>SacDropdownComponent&#45;&gt;SACBootstrap3ListModule</title>
<path fill="none" stroke="black" d="M1306.86,-233.7C1306.86,-233.7 1306.86,-252.58 1306.86,-252.58"/>
<polygon fill="black" stroke="black" points="1303.36,-252.58 1306.86,-262.58 1310.36,-252.58 1303.36,-252.58"/>
</g>
<!-- SacDropdownOptionDirective -->
<g id="node2" class="node">
<title>SacDropdownOptionDirective</title>
<polygon fill="#ffffb3" stroke="black" points="1161.56,-233.59 974.44,-233.59 974.44,-197.59 1161.56,-197.59 1161.56,-233.59"/>
<text text-anchor="middle" x="1068" y="-211.39" font-family="Times,serif" font-size="14.00">SacDropdownOptionDirective</text>
</g>
<!-- SacDropdownOptionDirective&#45;&gt;SACBootstrap3ListModule -->
<g id="edge5" class="edge">
<title>SacDropdownOptionDirective&#45;&gt;SACBootstrap3ListModule</title>
<path fill="none" stroke="black" d="M1080.4,-233.6C1080.4,-249.64 1080.4,-270.59 1080.4,-270.59 1080.4,-270.59 1262.82,-270.59 1262.82,-270.59"/>
<polygon fill="black" stroke="black" points="1262.82,-274.09 1272.82,-270.59 1262.82,-267.09 1262.82,-274.09"/>
</g>
<!-- SacListboxComponent -->
<g id="node3" class="node">
<title>SacListboxComponent</title>
<polygon fill="#ffffb3" stroke="black" points="956.32,-233.59 811.68,-233.59 811.68,-197.59 956.32,-197.59 956.32,-233.59"/>
<text text-anchor="middle" x="884" y="-211.39" font-family="Times,serif" font-size="14.00">SacListboxComponent</text>
</g>
<!-- SacListboxComponent&#45;&gt;SACBootstrap3ListModule -->
<g id="edge6" class="edge">
<title>SacListboxComponent&#45;&gt;SACBootstrap3ListModule</title>
<path fill="none" stroke="black" d="M884,-233.86C884,-252.15 884,-277.59 884,-277.59 884,-277.59 1262.98,-277.59 1262.98,-277.59"/>
<polygon fill="black" stroke="black" points="1262.98,-281.09 1272.98,-277.59 1262.98,-274.09 1262.98,-281.09"/>
</g>
<!-- SacListboxOptionDirective -->
<g id="node4" class="node">
<title>SacListboxOptionDirective</title>
<polygon fill="#ffffb3" stroke="black" points="793.96,-233.59 624.04,-233.59 624.04,-197.59 793.96,-197.59 793.96,-233.59"/>
<text text-anchor="middle" x="709" y="-211.39" font-family="Times,serif" font-size="14.00">SacListboxOptionDirective</text>
</g>
<!-- SacListboxOptionDirective&#45;&gt;SACBootstrap3ListModule -->
<g id="edge7" class="edge">
<title>SacListboxOptionDirective&#45;&gt;SACBootstrap3ListModule</title>
<path fill="none" stroke="black" d="M709,-233.72C709,-254.16 709,-284.59 709,-284.59 709,-284.59 1262.82,-284.59 1262.82,-284.59"/>
<polygon fill="black" stroke="black" points="1262.82,-288.09 1272.82,-284.59 1262.82,-281.09 1262.82,-288.09"/>
</g>
<!-- SacDropdownComponent  -->
<g id="node13" class="node">
<title>SacDropdownComponent </title>
<polygon fill="#fb8072" stroke="black" points="1730.42,-363.59 1565.58,-363.59 1565.58,-327.59 1730.42,-327.59 1730.42,-363.59"/>
<text text-anchor="middle" x="1648" y="-341.39" font-family="Times,serif" font-size="14.00">SacDropdownComponent </text>
</g>
<!-- SACBootstrap3ListModule&#45;&gt;SacDropdownComponent  -->
<g id="edge12" class="edge">
<title>SACBootstrap3ListModule&#45;&gt;SacDropdownComponent </title>
<path fill="none" stroke="black" stroke-dasharray="5,2" d="M1443.19,-291.59C1537.35,-291.59 1675.88,-291.59 1675.88,-291.59 1675.88,-291.59 1675.88,-317.31 1675.88,-317.31"/>
<polygon fill="black" stroke="black" points="1672.38,-317.31 1675.88,-327.31 1679.38,-317.31 1672.38,-317.31"/>
</g>
<!-- SacDropdownOptionDirective  -->
<g id="node14" class="node">
<title>SacDropdownOptionDirective </title>
<polygon fill="#fb8072" stroke="black" points="1547.06,-363.59 1356.94,-363.59 1356.94,-327.59 1547.06,-327.59 1547.06,-363.59"/>
<text text-anchor="middle" x="1452" y="-341.39" font-family="Times,serif" font-size="14.00">SacDropdownOptionDirective </text>
</g>
<!-- SACBootstrap3ListModule&#45;&gt;SacDropdownOptionDirective  -->
<g id="edge13" class="edge">
<title>SACBootstrap3ListModule&#45;&gt;SacDropdownOptionDirective </title>
<path fill="none" stroke="black" stroke-dasharray="5,2" d="M1399.86,-298.7C1399.86,-298.7 1399.86,-317.58 1399.86,-317.58"/>
<polygon fill="black" stroke="black" points="1396.36,-317.58 1399.86,-327.58 1403.36,-317.58 1396.36,-317.58"/>
</g>
<!-- SacListboxComponent  -->
<g id="node15" class="node">
<title>SacListboxComponent </title>
<polygon fill="#fb8072" stroke="black" points="1338.82,-363.59 1191.18,-363.59 1191.18,-327.59 1338.82,-327.59 1338.82,-363.59"/>
<text text-anchor="middle" x="1265" y="-341.39" font-family="Times,serif" font-size="14.00">SacListboxComponent </text>
</g>
<!-- SACBootstrap3ListModule&#45;&gt;SacListboxComponent  -->
<g id="edge14" class="edge">
<title>SACBootstrap3ListModule&#45;&gt;SacListboxComponent </title>
<path fill="none" stroke="black" stroke-dasharray="5,2" d="M1305.96,-298.7C1305.96,-298.7 1305.96,-317.58 1305.96,-317.58"/>
<polygon fill="black" stroke="black" points="1302.46,-317.58 1305.96,-327.58 1309.46,-317.58 1302.46,-317.58"/>
</g>
<!-- SacListboxOptionDirective  -->
<g id="node16" class="node">
<title>SacListboxOptionDirective </title>
<polygon fill="#fb8072" stroke="black" points="1172.96,-363.59 999.04,-363.59 999.04,-327.59 1172.96,-327.59 1172.96,-363.59"/>
<text text-anchor="middle" x="1086" y="-341.39" font-family="Times,serif" font-size="14.00">SacListboxOptionDirective </text>
</g>
<!-- SACBootstrap3ListModule&#45;&gt;SacListboxOptionDirective  -->
<g id="edge15" class="edge">
<title>SACBootstrap3ListModule&#45;&gt;SacListboxOptionDirective </title>
<path fill="none" stroke="black" stroke-dasharray="5,2" d="M1272.89,-291.59C1221.99,-291.59 1167.13,-291.59 1167.13,-291.59 1167.13,-291.59 1167.13,-317.31 1167.13,-317.31"/>
<polygon fill="black" stroke="black" points="1163.63,-317.31 1167.13,-327.31 1170.63,-317.31 1163.63,-317.31"/>
</g>
<!-- { provide: DROPDOWN_TOKEN, useExisting: forwardRef(() =&gt; SacDropdownComponent) } -->
<g id="node6" class="node">
<title>{ provide: DROPDOWN_TOKEN, useExisting: forwardRef(() =&gt; SacDropdownComponent) }</title>
<ellipse fill="#fdb462" stroke="black" cx="2033" cy="-127.3" rx="381.36" ry="18"/>
<text text-anchor="middle" x="2033" y="-123.1" font-family="Times,serif" font-size="14.00">{ provide: DROPDOWN_TOKEN, useExisting: forwardRef(() =&gt; SacDropdownComponent) }</text>
</g>
<!-- { provide: DROPDOWN_TOKEN, useExisting: forwardRef(() =&gt; SacDropdownComponent) }&#45;&gt;SacDropdownComponent -->
<g id="edge2" class="edge">
<title>{ provide: DROPDOWN_TOKEN, useExisting: forwardRef(() =&gt; SacDropdownComponent) }&#45;&gt;SacDropdownComponent</title>
<path fill="none" stroke="black" d="M1719.43,-137.69C1719.43,-155.18 1719.43,-188.59 1719.43,-188.59 1719.43,-188.59 1300.35,-188.59 1300.35,-188.59 1300.35,-188.59 1300.35,-189.47 1300.35,-189.47"/>
<polygon fill="black" stroke="black" points="1296.85,-187.43 1300.35,-197.43 1303.85,-187.43 1296.85,-187.43"/>
</g>
<!-- {
 &#160;&#160;&#160;provide: NG_VALUE_ACCESSOR, multi: true, useExisting: SacDropdownComponent,
} -->
<g id="node7" class="node">
<title>{
 &#160;&#160;&#160;provide: NG_VALUE_ACCESSOR, multi: true, useExisting: SacDropdownComponent,
}</title>
<ellipse fill="#fdb462" stroke="black" cx="1260" cy="-127.3" rx="373.9" ry="41.09"/>
<text text-anchor="middle" x="1260" y="-139.9" font-family="Times,serif" font-size="14.00">{</text>
<text text-anchor="middle" x="1260" y="-123.1" font-family="Times,serif" font-size="14.00"> &#160;&#160;&#160;provide: NG_VALUE_ACCESSOR, multi: true, useExisting: SacDropdownComponent,</text>
<text text-anchor="middle" x="1260" y="-106.3" font-family="Times,serif" font-size="14.00">}</text>
</g>
<!-- {
 &#160;&#160;&#160;provide: NG_VALUE_ACCESSOR, multi: true, useExisting: SacDropdownComponent,
}&#45;&gt;SacDropdownComponent -->
<g id="edge3" class="edge">
<title>{
 &#160;&#160;&#160;provide: NG_VALUE_ACCESSOR, multi: true, useExisting: SacDropdownComponent,
}&#45;&gt;SacDropdownComponent</title>
<path fill="none" stroke="black" d="M1260,-168.6C1260,-168.6 1260,-187.26 1260,-187.26"/>
<polygon fill="black" stroke="black" points="1256.5,-187.26 1260,-197.26 1263.5,-187.26 1256.5,-187.26"/>
</g>
<!-- {
 &#160;&#160;&#160;provide: NG_VALIDATORS, multi: true, useExisting: forwardRef(() =&gt; SacDropdownComponent),
} -->
<g id="node8" class="node">
<title>{
 &#160;&#160;&#160;provide: NG_VALIDATORS, multi: true, useExisting: forwardRef(() =&gt; SacDropdownComponent),
}</title>
<ellipse fill="#fdb462" stroke="black" cx="446" cy="-127.3" rx="422.41" ry="41.09"/>
<text text-anchor="middle" x="446" y="-139.9" font-family="Times,serif" font-size="14.00">{</text>
<text text-anchor="middle" x="446" y="-123.1" font-family="Times,serif" font-size="14.00"> &#160;&#160;&#160;provide: NG_VALIDATORS, multi: true, useExisting: forwardRef(() =&gt; SacDropdownComponent),</text>
<text text-anchor="middle" x="446" y="-106.3" font-family="Times,serif" font-size="14.00">}</text>
</g>
<!-- {
 &#160;&#160;&#160;provide: NG_VALIDATORS, multi: true, useExisting: forwardRef(() =&gt; SacDropdownComponent),
}&#45;&gt;SacDropdownComponent -->
<g id="edge4" class="edge">
<title>{
 &#160;&#160;&#160;provide: NG_VALIDATORS, multi: true, useExisting: forwardRef(() =&gt; SacDropdownComponent),
}&#45;&gt;SacDropdownComponent</title>
<path fill="none" stroke="black" d="M840.02,-142.13C840.02,-157.28 840.02,-178.59 840.02,-178.59 840.02,-178.59 1219.65,-178.59 1219.65,-178.59 1219.65,-178.59 1219.65,-187.52 1219.65,-187.52"/>
<polygon fill="black" stroke="black" points="1216.15,-187.52 1219.65,-197.52 1223.15,-187.52 1216.15,-187.52"/>
</g>
<!-- SACBootstrap3LayoutModule -->
<g id="node9" class="node">
<title>SACBootstrap3LayoutModule</title>
<polygon fill="#8dd3c7" stroke="black" points="2200.87,-233.59 2197.87,-237.59 2176.87,-237.59 2173.87,-233.59 2013.13,-233.59 2013.13,-197.59 2200.87,-197.59 2200.87,-233.59"/>
<text text-anchor="middle" x="2107" y="-211.39" font-family="Times,serif" font-size="14.00">SACBootstrap3LayoutModule</text>
</g>
<!-- SACBootstrap3LayoutModule&#45;&gt;SACBootstrap3ListModule -->
<g id="edge8" class="edge">
<title>SACBootstrap3LayoutModule&#45;&gt;SACBootstrap3ListModule</title>
<path fill="none" stroke="black" d="M2107,-233.72C2107,-254.16 2107,-284.59 2107,-284.59 2107,-284.59 1453.19,-284.59 1453.19,-284.59"/>
<polygon fill="black" stroke="black" points="1453.19,-281.09 1443.19,-284.59 1453.19,-288.09 1453.19,-281.09"/>
</g>
<!-- SACBootstrap3TooltipModule -->
<g id="node10" class="node">
<title>SACBootstrap3TooltipModule</title>
<polygon fill="#8dd3c7" stroke="black" points="1994.94,-233.59 1991.94,-237.59 1970.94,-237.59 1967.94,-233.59 1805.06,-233.59 1805.06,-197.59 1994.94,-197.59 1994.94,-233.59"/>
<text text-anchor="middle" x="1900" y="-211.39" font-family="Times,serif" font-size="14.00">SACBootstrap3TooltipModule</text>
</g>
<!-- SACBootstrap3TooltipModule&#45;&gt;SACBootstrap3ListModule -->
<g id="edge9" class="edge">
<title>SACBootstrap3TooltipModule&#45;&gt;SACBootstrap3ListModule</title>
<path fill="none" stroke="black" d="M1900,-233.86C1900,-252.15 1900,-277.59 1900,-277.59 1900,-277.59 1453.28,-277.59 1453.28,-277.59"/>
<polygon fill="black" stroke="black" points="1453.28,-274.09 1443.28,-277.59 1453.28,-281.09 1453.28,-274.09"/>
</g>
<!-- SACCommonListboxOptionModule -->
<g id="node11" class="node">
<title>SACCommonListboxOptionModule</title>
<polygon fill="#8dd3c7" stroke="black" points="1787.06,-233.59 1784.06,-237.59 1763.06,-237.59 1760.06,-233.59 1566.94,-233.59 1566.94,-197.59 1787.06,-197.59 1787.06,-233.59"/>
<text text-anchor="middle" x="1677" y="-211.39" font-family="Times,serif" font-size="14.00">SACCommonListboxOptionModule</text>
</g>
<!-- SACCommonListboxOptionModule&#45;&gt;SACBootstrap3ListModule -->
<g id="edge10" class="edge">
<title>SACCommonListboxOptionModule&#45;&gt;SACBootstrap3ListModule</title>
<path fill="none" stroke="black" d="M1621.3,-233.6C1621.3,-249.64 1621.3,-270.59 1621.3,-270.59 1621.3,-270.59 1453.12,-270.59 1453.12,-270.59"/>
<polygon fill="black" stroke="black" points="1453.12,-267.09 1443.12,-270.59 1453.12,-274.09 1453.12,-267.09"/>
</g>
<!-- SACCommonUtliltiesModule -->
<g id="node12" class="node">
<title>SACCommonUtliltiesModule</title>
<polygon fill="#8dd3c7" stroke="black" points="1549,-233.59 1546,-237.59 1525,-237.59 1522,-233.59 1365,-233.59 1365,-197.59 1549,-197.59 1549,-233.59"/>
<text text-anchor="middle" x="1457" y="-211.39" font-family="Times,serif" font-size="14.00">SACCommonUtliltiesModule</text>
</g>
<!-- SACCommonUtliltiesModule&#45;&gt;SACBootstrap3ListModule -->
<g id="edge11" class="edge">
<title>SACCommonUtliltiesModule&#45;&gt;SACBootstrap3ListModule</title>
<path fill="none" stroke="black" d="M1404,-233.7C1404,-233.7 1404,-252.58 1404,-252.58"/>
<polygon fill="black" stroke="black" points="1400.5,-252.58 1404,-262.58 1407.5,-252.58 1400.5,-252.58"/>
</g>
</g>
</svg>
