<?xml version="1.0" encoding="UTF-8" standalone="no"?>
<!DOCTYPE svg PUBLIC "-//W3C//DTD SVG 1.1//EN"
 "http://www.w3.org/Graphics/SVG/1.1/DTD/svg11.dtd">
<!-- Generated by graphviz version 2.47.0 (20210316.0004)
 -->
<!-- Title: dependencies Pages: 1 -->
<svg width="2490pt" height="396pt"
 viewBox="0.00 0.00 2490.00 395.59" xmlns="http://www.w3.org/2000/svg" xmlns:xlink="http://www.w3.org/1999/xlink">
<g id="graph0" class="graph" transform="scale(1 1) rotate(0) translate(4 391.59)">
<title>dependencies</title>
<polygon fill="white" stroke="transparent" points="-4,4 -4,-391.59 2486,-391.59 2486,4 -4,4"/>
<text text-anchor="start" x="1220.01" y="-42.4" font-family="Times-12" font-weight="bold" font-size="14.00">Legend</text>
<polygon fill="#ffffb3" stroke="transparent" points="1007,-10 1007,-30 1027,-30 1027,-10 1007,-10"/>
<text text-anchor="start" x="1030.63" y="-15.4" font-family="Times-12" font-size="14.00"> &#160;Declarations</text>
<polygon fill="#8dd3c7" stroke="transparent" points="1120,-10 1120,-30 1140,-30 1140,-10 1120,-10"/>
<text text-anchor="start" x="1143.73" y="-15.4" font-family="Times-12" font-size="14.00"> &#160;Module</text>
<polygon fill="#80b1d3" stroke="transparent" points="1206,-10 1206,-30 1226,-30 1226,-10 1206,-10"/>
<text text-anchor="start" x="1229.78" y="-15.4" font-family="Times-12" font-size="14.00"> &#160;Bootstrap</text>
<polygon fill="#fdb462" stroke="transparent" points="1303,-10 1303,-30 1323,-30 1323,-10 1303,-10"/>
<text text-anchor="start" x="1326.67" y="-15.4" font-family="Times-12" font-size="14.00"> &#160;Providers</text>
<polygon fill="#fb8072" stroke="transparent" points="1399,-10 1399,-30 1419,-30 1419,-10 1399,-10"/>
<text text-anchor="start" x="1422.73" y="-15.4" font-family="Times-12" font-size="14.00"> &#160;Exports</text>
<g id="clust1" class="cluster">
<title>cluster_SACBootstrap3ListModule</title>
<polygon fill="none" stroke="black" stroke-dasharray="1,5" points="8,-70 8,-379.59 2474,-379.59 2474,-70 8,-70"/>
</g>
<g id="clust6" class="cluster">
<title>cluster_SACBootstrap3ListModule_imports</title>
<polygon fill="none" stroke="black" points="2024,-189.59 2024,-241.59 2466,-241.59 2466,-189.59 2024,-189.59"/>
</g>
<g id="clust3" class="cluster">
<title>cluster_SACBootstrap3ListModule_SacDropdownComponent_providers</title>
<polygon fill="none" stroke="black" points="390,-78 390,-241.59 2016,-241.59 2016,-78 390,-78"/>
</g>
<g id="clust7" class="cluster">
<title>cluster_SACBootstrap3ListModule_exports</title>
<polygon fill="none" stroke="black" points="958,-319.59 958,-371.59 1513,-371.59 1513,-319.59 958,-319.59"/>
</g>
<g id="clust2" class="cluster">
<title>cluster_SACBootstrap3ListModule_declarations</title>
<polygon fill="none" stroke="black" points="16,-189.59 16,-241.59 382,-241.59 382,-189.59 16,-189.59"/>
</g>
<!-- SacDropdownComponent -->
<g id="node1" class="node">
<title>SacDropdownComponent</title>
<polygon fill="#ffffb3" stroke="black" points="1307.92,-233.59 1146.08,-233.59 1146.08,-197.59 1307.92,-197.59 1307.92,-233.59"/>
<text text-anchor="middle" x="1227" y="-211.39" font-family="Times,serif" font-size="14.00">SacDropdownComponent</text>
</g>
<!-- SACBootstrap3ListModule -->
<g id="node4" class="node">
<title>SACBootstrap3ListModule</title>
<polygon fill="#8dd3c7" stroke="black" points="1311.99,-298.59 1308.99,-302.59 1287.99,-302.59 1284.99,-298.59 1142.01,-298.59 1142.01,-262.59 1311.99,-262.59 1311.99,-298.59"/>
<text text-anchor="middle" x="1227" y="-276.39" font-family="Times,serif" font-size="14.00">SACBootstrap3ListModule</text>
</g>
<!-- SacDropdownComponent&#45;&gt;SACBootstrap3ListModule -->
<g id="edge1" class="edge">
<title>SacDropdownComponent&#45;&gt;SACBootstrap3ListModule</title>
<path fill="none" stroke="black" d="M1227,-233.7C1227,-233.7 1227,-252.58 1227,-252.58"/>
<polygon fill="black" stroke="black" points="1223.5,-252.58 1227,-262.58 1230.5,-252.58 1223.5,-252.58"/>
</g>
<!-- SacDropdownOptionDirective -->
<g id="node2" class="node">
<title>SacDropdownOptionDirective</title>
<polygon fill="#ffffb3" stroke="black" points="373.56,-233.59 186.44,-233.59 186.44,-197.59 373.56,-197.59 373.56,-233.59"/>
<text text-anchor="middle" x="280" y="-211.39" font-family="Times,serif" font-size="14.00">SacDropdownOptionDirective</text>
</g>
<!-- SacDropdownOptionDirective&#45;&gt;SACBootstrap3ListModule -->
<g id="edge4" class="edge">
<title>SacDropdownOptionDirective&#45;&gt;SACBootstrap3ListModule</title>
<path fill="none" stroke="black" d="M280,-233.62C280,-249.99 280,-271.59 280,-271.59 280,-271.59 1131.71,-271.59 1131.71,-271.59"/>
<polygon fill="black" stroke="black" points="1131.71,-275.09 1141.71,-271.59 1131.71,-268.09 1131.71,-275.09"/>
</g>
<!-- SacListboxComponent -->
<g id="node3" class="node">
<title>SacListboxComponent</title>
<polygon fill="#ffffb3" stroke="black" points="168.32,-233.59 23.68,-233.59 23.68,-197.59 168.32,-197.59 168.32,-233.59"/>
<text text-anchor="middle" x="96" y="-211.39" font-family="Times,serif" font-size="14.00">SacListboxComponent</text>
</g>
<!-- SacListboxComponent&#45;&gt;SACBootstrap3ListModule -->
<g id="edge5" class="edge">
<title>SacListboxComponent&#45;&gt;SACBootstrap3ListModule</title>
<path fill="none" stroke="black" d="M96,-233.7C96,-252.93 96,-280.59 96,-280.59 96,-280.59 1131.99,-280.59 1131.99,-280.59"/>
<polygon fill="black" stroke="black" points="1131.99,-284.09 1141.99,-280.59 1131.99,-277.09 1131.99,-284.09"/>
</g>
<!-- SacDropdownComponent  -->
<g id="node9" class="node">
<title>SacDropdownComponent </title>
<polygon fill="#fb8072" stroke="black" points="1505.42,-363.59 1340.58,-363.59 1340.58,-327.59 1505.42,-327.59 1505.42,-363.59"/>
<text text-anchor="middle" x="1423" y="-341.39" font-family="Times,serif" font-size="14.00">SacDropdownComponent </text>
</g>
<!-- SACBootstrap3ListModule&#45;&gt;SacDropdownComponent  -->
<g id="edge8" class="edge">
<title>SACBootstrap3ListModule&#45;&gt;SacDropdownComponent </title>
<path fill="none" stroke="black" stroke-dasharray="5,2" d="M1312.11,-289.59C1365.01,-289.59 1423,-289.59 1423,-289.59 1423,-289.59 1423,-317.56 1423,-317.56"/>
<polygon fill="black" stroke="black" points="1419.5,-317.56 1423,-327.56 1426.5,-317.56 1419.5,-317.56"/>
</g>
<!-- SacDropdownOptionDirective  -->
<g id="node10" class="node">
<title>SacDropdownOptionDirective </title>
<polygon fill="#fb8072" stroke="black" points="1322.06,-363.59 1131.94,-363.59 1131.94,-327.59 1322.06,-327.59 1322.06,-363.59"/>
<text text-anchor="middle" x="1227" y="-341.39" font-family="Times,serif" font-size="14.00">SacDropdownOptionDirective </text>
</g>
<!-- SACBootstrap3ListModule&#45;&gt;SacDropdownOptionDirective  -->
<g id="edge9" class="edge">
<title>SACBootstrap3ListModule&#45;&gt;SacDropdownOptionDirective </title>
<path fill="none" stroke="black" stroke-dasharray="5,2" d="M1227,-298.7C1227,-298.7 1227,-317.58 1227,-317.58"/>
<polygon fill="black" stroke="black" points="1223.5,-317.58 1227,-327.58 1230.5,-317.58 1223.5,-317.58"/>
</g>
<!-- SacListboxComponent  -->
<g id="node11" class="node">
<title>SacListboxComponent </title>
<polygon fill="#fb8072" stroke="black" points="1113.82,-363.59 966.18,-363.59 966.18,-327.59 1113.82,-327.59 1113.82,-363.59"/>
<text text-anchor="middle" x="1040" y="-341.39" font-family="Times,serif" font-size="14.00">SacListboxComponent </text>
</g>
<!-- SACBootstrap3ListModule&#45;&gt;SacListboxComponent  -->
<g id="edge10" class="edge">
<title>SACBootstrap3ListModule&#45;&gt;SacListboxComponent </title>
<path fill="none" stroke="black" stroke-dasharray="5,2" d="M1141.98,-289.59C1092.58,-289.59 1040,-289.59 1040,-289.59 1040,-289.59 1040,-317.56 1040,-317.56"/>
<polygon fill="black" stroke="black" points="1036.5,-317.56 1040,-327.56 1043.5,-317.56 1036.5,-317.56"/>
</g>
<!-- {
 &#160;&#160;&#160;provide: NG_VALUE_ACCESSOR, multi: true, useExisting: SacDropdownComponent,
} -->
<g id="node5" class="node">
<title>{
 &#160;&#160;&#160;provide: NG_VALUE_ACCESSOR, multi: true, useExisting: SacDropdownComponent,
}</title>
<ellipse fill="#fdb462" stroke="black" cx="1634" cy="-127.3" rx="373.9" ry="41.09"/>
<text text-anchor="middle" x="1634" y="-139.9" font-family="Times,serif" font-size="14.00">{</text>
<text text-anchor="middle" x="1634" y="-123.1" font-family="Times,serif" font-size="14.00"> &#160;&#160;&#160;provide: NG_VALUE_ACCESSOR, multi: true, useExisting: SacDropdownComponent,</text>
<text text-anchor="middle" x="1634" y="-106.3" font-family="Times,serif" font-size="14.00">}</text>
</g>
<!-- {
 &#160;&#160;&#160;provide: NG_VALUE_ACCESSOR, multi: true, useExisting: SacDropdownComponent,
}&#45;&gt;SacDropdownComponent -->
<g id="edge2" class="edge">
<title>{
 &#160;&#160;&#160;provide: NG_VALUE_ACCESSOR, multi: true, useExisting: SacDropdownComponent,
}&#45;&gt;SacDropdownComponent</title>
<path fill="none" stroke="black" d="M1284,-141.88C1284,-141.88 1284,-187.31 1284,-187.31"/>
<polygon fill="black" stroke="black" points="1280.5,-187.31 1284,-197.31 1287.5,-187.31 1280.5,-187.31"/>
</g>
<!-- {
 &#160;&#160;&#160;provide: NG_VALIDATORS, multi: true, useExisting: forwardRef(() =&gt; SacDropdownComponent),
} -->
<g id="node6" class="node">
<title>{
 &#160;&#160;&#160;provide: NG_VALIDATORS, multi: true, useExisting: forwardRef(() =&gt; SacDropdownComponent),
}</title>
<ellipse fill="#fdb462" stroke="black" cx="820" cy="-127.3" rx="422.41" ry="41.09"/>
<text text-anchor="middle" x="820" y="-139.9" font-family="Times,serif" font-size="14.00">{</text>
<text text-anchor="middle" x="820" y="-123.1" font-family="Times,serif" font-size="14.00"> &#160;&#160;&#160;provide: NG_VALIDATORS, multi: true, useExisting: forwardRef(() =&gt; SacDropdownComponent),</text>
<text text-anchor="middle" x="820" y="-106.3" font-family="Times,serif" font-size="14.00">}</text>
</g>
<!-- {
 &#160;&#160;&#160;provide: NG_VALIDATORS, multi: true, useExisting: forwardRef(() =&gt; SacDropdownComponent),
}&#45;&gt;SacDropdownComponent -->
<g id="edge3" class="edge">
<title>{
 &#160;&#160;&#160;provide: NG_VALIDATORS, multi: true, useExisting: forwardRef(() =&gt; SacDropdownComponent),
}&#45;&gt;SacDropdownComponent</title>
<path fill="none" stroke="black" d="M1194.25,-146.45C1194.25,-146.45 1194.25,-187.37 1194.25,-187.37"/>
<polygon fill="black" stroke="black" points="1190.75,-187.37 1194.25,-197.37 1197.75,-187.37 1190.75,-187.37"/>
</g>
<!-- SACBootstrap3LayoutModule -->
<g id="node7" class="node">
<title>SACBootstrap3LayoutModule</title>
<polygon fill="#8dd3c7" stroke="black" points="2457.87,-233.59 2454.87,-237.59 2433.87,-237.59 2430.87,-233.59 2270.13,-233.59 2270.13,-197.59 2457.87,-197.59 2457.87,-233.59"/>
<text text-anchor="middle" x="2364" y="-211.39" font-family="Times,serif" font-size="14.00">SACBootstrap3LayoutModule</text>
</g>
<!-- SACBootstrap3LayoutModule&#45;&gt;SACBootstrap3ListModule -->
<g id="edge6" class="edge">
<title>SACBootstrap3LayoutModule&#45;&gt;SACBootstrap3ListModule</title>
<path fill="none" stroke="black" d="M2364,-233.7C2364,-252.93 2364,-280.59 2364,-280.59 2364,-280.59 1321.99,-280.59 1321.99,-280.59"/>
<polygon fill="black" stroke="black" points="1321.99,-277.09 1311.99,-280.59 1321.99,-284.09 1321.99,-277.09"/>
</g>
<!-- SACCommonListboxOptionModule -->
<g id="node8" class="node">
<title>SACCommonListboxOptionModule</title>
<polygon fill="#8dd3c7" stroke="black" points="2252.06,-233.59 2249.06,-237.59 2228.06,-237.59 2225.06,-233.59 2031.94,-233.59 2031.94,-197.59 2252.06,-197.59 2252.06,-233.59"/>
<text text-anchor="middle" x="2142" y="-211.39" font-family="Times,serif" font-size="14.00">SACCommonListboxOptionModule</text>
</g>
<!-- SACCommonListboxOptionModule&#45;&gt;SACBootstrap3ListModule -->
<g id="edge7" class="edge">
<title>SACCommonListboxOptionModule&#45;&gt;SACBootstrap3ListModule</title>
<path fill="none" stroke="black" d="M2142,-233.62C2142,-249.99 2142,-271.59 2142,-271.59 2142,-271.59 1322.26,-271.59 1322.26,-271.59"/>
<polygon fill="black" stroke="black" points="1322.26,-268.09 1312.26,-271.59 1322.26,-275.09 1322.26,-268.09"/>
</g>
</g>
</svg>
