<?xml version="1.0" encoding="UTF-8" standalone="no"?>
<!DOCTYPE svg PUBLIC "-//W3C//DTD SVG 1.1//EN"
 "http://www.w3.org/Graphics/SVG/1.1/DTD/svg11.dtd">
<!-- Generated by graphviz version 2.47.0 (20210316.0004)
 -->
<!-- Title: dependencies Pages: 1 -->
<svg width="1268pt" height="349pt"
 viewBox="0.00 0.00 1268.00 349.00" xmlns="http://www.w3.org/2000/svg" xmlns:xlink="http://www.w3.org/1999/xlink">
<g id="graph0" class="graph" transform="scale(1 1) rotate(0) translate(4 345)">
<title>dependencies</title>
<polygon fill="white" stroke="transparent" points="-4,4 -4,-345 1264,-345 1264,4 -4,4"/>
<text text-anchor="start" x="609.01" y="-42.4" font-family="Times-12" font-weight="bold" font-size="14.00">Legend</text>
<polygon fill="#ffffb3" stroke="transparent" points="396,-10 396,-30 416,-30 416,-10 396,-10"/>
<text text-anchor="start" x="419.63" y="-15.4" font-family="Times-12" font-size="14.00"> &#160;Declarations</text>
<polygon fill="#8dd3c7" stroke="transparent" points="509,-10 509,-30 529,-30 529,-10 509,-10"/>
<text text-anchor="start" x="532.73" y="-15.4" font-family="Times-12" font-size="14.00"> &#160;Module</text>
<polygon fill="#80b1d3" stroke="transparent" points="595,-10 595,-30 615,-30 615,-10 595,-10"/>
<text text-anchor="start" x="618.78" y="-15.4" font-family="Times-12" font-size="14.00"> &#160;Bootstrap</text>
<polygon fill="#fdb462" stroke="transparent" points="692,-10 692,-30 712,-30 712,-10 692,-10"/>
<text text-anchor="start" x="715.67" y="-15.4" font-family="Times-12" font-size="14.00"> &#160;Providers</text>
<polygon fill="#fb8072" stroke="transparent" points="788,-10 788,-30 808,-30 808,-10 788,-10"/>
<text text-anchor="start" x="811.73" y="-15.4" font-family="Times-12" font-size="14.00"> &#160;Exports</text>
<g id="clust1" class="cluster">
<title>cluster_SACBootstrap3ListModule</title>
<polygon fill="none" stroke="black" stroke-dasharray="1,5" points="8,-70 8,-333 1252,-333 1252,-70 8,-70"/>
</g>
<g id="clust7" class="cluster">
<title>cluster_SACBootstrap3ListModule_exports</title>
<polygon fill="none" stroke="black" points="350,-273 350,-325 905,-325 905,-273 350,-273"/>
</g>
<g id="clust3" class="cluster">
<title>cluster_SACBootstrap3ListModule_SacDropdownComponent_providers</title>
<polygon fill="none" stroke="black" points="1048,-78 1048,-195 1244,-195 1244,-78 1048,-78"/>
</g>
<g id="clust6" class="cluster">
<title>cluster_SACBootstrap3ListModule_imports</title>
<polygon fill="none" stroke="black" points="390,-143 390,-195 1040,-195 1040,-143 390,-143"/>
</g>
<g id="clust2" class="cluster">
<title>cluster_SACBootstrap3ListModule_declarations</title>
<polygon fill="none" stroke="black" points="16,-143 16,-195 382,-195 382,-143 16,-143"/>
</g>
<!-- SacDropdownComponent -->
<g id="node1" class="node">
<title>SacDropdownComponent</title>
<polygon fill="#ffffb3" stroke="black" points="1217.92,-187 1056.08,-187 1056.08,-151 1217.92,-151 1217.92,-187"/>
<text text-anchor="middle" x="1137" y="-164.8" font-family="Times,serif" font-size="14.00">SacDropdownComponent</text>
</g>
<!-- SacDropdownComponent&#45;&gt;SacDropdownComponent -->
<g id="edge2" class="edge">
<title>SacDropdownComponent&#45;&gt;SacDropdownComponent</title>
<path fill="none" stroke="black" d="M1083.15,-150.76C1083.15,-143.57 1083.15,-137 1083.15,-137 1083.15,-137 1044.11,-137 1044.11,-137 1044.11,-137 1044.11,-202 1044.11,-202 1044.11,-202 1163.9,-202 1163.9,-202 1163.9,-202 1163.9,-197.04 1163.9,-197.04"/>
<polygon fill="black" stroke="black" points="1167.4,-197.04 1163.9,-187.04 1160.4,-197.04 1167.4,-197.04"/>
</g>
<!-- SACBootstrap3ListModule -->
<g id="node4" class="node">
<title>SACBootstrap3ListModule</title>
<polygon fill="#8dd3c7" stroke="black" points="703.99,-252 700.99,-256 679.99,-256 676.99,-252 534.01,-252 534.01,-216 703.99,-216 703.99,-252"/>
<text text-anchor="middle" x="619" y="-229.8" font-family="Times,serif" font-size="14.00">SACBootstrap3ListModule</text>
</g>
<!-- SacDropdownComponent&#45;&gt;SACBootstrap3ListModule -->
<g id="edge1" class="edge">
<title>SacDropdownComponent&#45;&gt;SACBootstrap3ListModule</title>
<path fill="none" stroke="black" d="M1110.1,-187.11C1110.1,-206.34 1110.1,-234 1110.1,-234 1110.1,-234 714.26,-234 714.26,-234"/>
<polygon fill="black" stroke="black" points="714.26,-230.5 704.26,-234 714.26,-237.5 714.26,-230.5"/>
</g>
<!-- SacDropdownOptionDirective -->
<g id="node2" class="node">
<title>SacDropdownOptionDirective</title>
<polygon fill="#ffffb3" stroke="black" points="373.56,-187 186.44,-187 186.44,-151 373.56,-151 373.56,-187"/>
<text text-anchor="middle" x="280" y="-164.8" font-family="Times,serif" font-size="14.00">SacDropdownOptionDirective</text>
</g>
<!-- SacDropdownOptionDirective&#45;&gt;SACBootstrap3ListModule -->
<g id="edge4" class="edge">
<title>SacDropdownOptionDirective&#45;&gt;SACBootstrap3ListModule</title>
<path fill="none" stroke="black" d="M365.81,-187.03C365.81,-203.4 365.81,-225 365.81,-225 365.81,-225 523.99,-225 523.99,-225"/>
<polygon fill="black" stroke="black" points="523.99,-228.5 533.99,-225 523.99,-221.5 523.99,-228.5"/>
</g>
<!-- SacListboxComponent -->
<g id="node3" class="node">
<title>SacListboxComponent</title>
<polygon fill="#ffffb3" stroke="black" points="168.32,-187 23.68,-187 23.68,-151 168.32,-151 168.32,-187"/>
<text text-anchor="middle" x="96" y="-164.8" font-family="Times,serif" font-size="14.00">SacListboxComponent</text>
</g>
<!-- SacListboxComponent&#45;&gt;SACBootstrap3ListModule -->
<g id="edge5" class="edge">
<title>SacListboxComponent&#45;&gt;SACBootstrap3ListModule</title>
<path fill="none" stroke="black" d="M96,-187.11C96,-206.34 96,-234 96,-234 96,-234 523.81,-234 523.81,-234"/>
<polygon fill="black" stroke="black" points="523.81,-237.5 533.81,-234 523.81,-230.5 523.81,-237.5"/>
</g>
<!-- SacDropdownComponent  -->
<g id="node9" class="node">
<title>SacDropdownComponent </title>
<polygon fill="#fb8072" stroke="black" points="897.42,-317 732.58,-317 732.58,-281 897.42,-281 897.42,-317"/>
<text text-anchor="middle" x="815" y="-294.8" font-family="Times,serif" font-size="14.00">SacDropdownComponent </text>
</g>
<!-- SACBootstrap3ListModule&#45;&gt;SacDropdownComponent  -->
<g id="edge9" class="edge">
<title>SACBootstrap3ListModule&#45;&gt;SacDropdownComponent </title>
<path fill="none" stroke="black" stroke-dasharray="5,2" d="M704.22,-243C742.46,-243 779.13,-243 779.13,-243 779.13,-243 779.13,-270.97 779.13,-270.97"/>
<polygon fill="black" stroke="black" points="775.63,-270.97 779.13,-280.97 782.63,-270.97 775.63,-270.97"/>
</g>
<!-- SacDropdownOptionDirective  -->
<g id="node10" class="node">
<title>SacDropdownOptionDirective </title>
<polygon fill="#fb8072" stroke="black" points="714.06,-317 523.94,-317 523.94,-281 714.06,-281 714.06,-317"/>
<text text-anchor="middle" x="619" y="-294.8" font-family="Times,serif" font-size="14.00">SacDropdownOptionDirective </text>
</g>
<!-- SACBootstrap3ListModule&#45;&gt;SacDropdownOptionDirective  -->
<g id="edge10" class="edge">
<title>SACBootstrap3ListModule&#45;&gt;SacDropdownOptionDirective </title>
<path fill="none" stroke="black" stroke-dasharray="5,2" d="M619,-252.11C619,-252.11 619,-270.99 619,-270.99"/>
<polygon fill="black" stroke="black" points="615.5,-270.99 619,-280.99 622.5,-270.99 615.5,-270.99"/>
</g>
<!-- SacListboxComponent  -->
<g id="node11" class="node">
<title>SacListboxComponent </title>
<polygon fill="#fb8072" stroke="black" points="505.82,-317 358.18,-317 358.18,-281 505.82,-281 505.82,-317"/>
<text text-anchor="middle" x="432" y="-294.8" font-family="Times,serif" font-size="14.00">SacListboxComponent </text>
</g>
<!-- SACBootstrap3ListModule&#45;&gt;SacListboxComponent  -->
<g id="edge11" class="edge">
<title>SACBootstrap3ListModule&#45;&gt;SacListboxComponent </title>
<path fill="none" stroke="black" stroke-dasharray="5,2" d="M533.94,-243C492.64,-243 451.82,-243 451.82,-243 451.82,-243 451.82,-270.97 451.82,-270.97"/>
<polygon fill="black" stroke="black" points="448.32,-270.97 451.82,-280.97 455.32,-270.97 448.32,-270.97"/>
</g>
<!-- ) -->
<g id="node5" class="node">
<title>)</title>
<ellipse fill="#fdb462" stroke="black" cx="1137" cy="-104" rx="27" ry="18"/>
<text text-anchor="middle" x="1137" y="-99.8" font-family="Times,serif" font-size="14.00">)</text>
</g>
<!-- )&#45;&gt;SacDropdownComponent -->
<g id="edge3" class="edge">
<title>)&#45;&gt;SacDropdownComponent</title>
<path fill="none" stroke="black" d="M1137,-122.11C1137,-122.11 1137,-140.99 1137,-140.99"/>
<polygon fill="black" stroke="black" points="1133.5,-140.99 1137,-150.99 1140.5,-140.99 1133.5,-140.99"/>
</g>
<!-- SACBootstrap3LayoutModule -->
<g id="node6" class="node">
<title>SACBootstrap3LayoutModule</title>
<polygon fill="#8dd3c7" stroke="black" points="1031.87,-187 1028.87,-191 1007.87,-191 1004.87,-187 844.13,-187 844.13,-151 1031.87,-151 1031.87,-187"/>
<text text-anchor="middle" x="938" y="-164.8" font-family="Times,serif" font-size="14.00">SACBootstrap3LayoutModule</text>
</g>
<!-- SACBootstrap3LayoutModule&#45;&gt;SACBootstrap3ListModule -->
<g id="edge6" class="edge">
<title>SACBootstrap3LayoutModule&#45;&gt;SACBootstrap3ListModule</title>
<path fill="none" stroke="black" d="M870.76,-187.03C870.76,-203.4 870.76,-225 870.76,-225 870.76,-225 714.24,-225 714.24,-225"/>
<polygon fill="black" stroke="black" points="714.24,-221.5 704.24,-225 714.24,-228.5 714.24,-221.5"/>
</g>
<!-- SACBootstrap3TooltipModule -->
<g id="node7" class="node">
<title>SACBootstrap3TooltipModule</title>
<polygon fill="#8dd3c7" stroke="black" points="825.94,-187 822.94,-191 801.94,-191 798.94,-187 636.06,-187 636.06,-151 825.94,-151 825.94,-187"/>
<text text-anchor="middle" x="731" y="-164.8" font-family="Times,serif" font-size="14.00">SACBootstrap3TooltipModule</text>
</g>
<!-- SACBootstrap3TooltipModule&#45;&gt;SACBootstrap3ListModule -->
<g id="edge7" class="edge">
<title>SACBootstrap3TooltipModule&#45;&gt;SACBootstrap3ListModule</title>
<path fill="none" stroke="black" d="M670.14,-187.11C670.14,-187.11 670.14,-205.99 670.14,-205.99"/>
<polygon fill="black" stroke="black" points="666.64,-205.99 670.14,-215.99 673.64,-205.99 666.64,-205.99"/>
</g>
<!-- SACCommonListboxOptionModule -->
<g id="node8" class="node">
<title>SACCommonListboxOptionModule</title>
<polygon fill="#8dd3c7" stroke="black" points="618.06,-187 615.06,-191 594.06,-191 591.06,-187 397.94,-187 397.94,-151 618.06,-151 618.06,-187"/>
<text text-anchor="middle" x="508" y="-164.8" font-family="Times,serif" font-size="14.00">SACCommonListboxOptionModule</text>
</g>
<!-- SACCommonListboxOptionModule&#45;&gt;SACBootstrap3ListModule -->
<g id="edge8" class="edge">
<title>SACCommonListboxOptionModule&#45;&gt;SACBootstrap3ListModule</title>
<path fill="none" stroke="black" d="M576.14,-187.11C576.14,-187.11 576.14,-205.99 576.14,-205.99"/>
<polygon fill="black" stroke="black" points="572.64,-205.99 576.14,-215.99 579.64,-205.99 572.64,-205.99"/>
</g>
</g>
</svg>
