<?xml version="1.0" encoding="UTF-8" standalone="no"?>
<!DOCTYPE svg PUBLIC "-//W3C//DTD SVG 1.1//EN"
 "http://www.w3.org/Graphics/SVG/1.1/DTD/svg11.dtd">
<!-- Generated by graphviz version 2.47.0 (20210316.0004)
 -->
<!-- Title: dependencies Pages: 1 -->
<svg width="1828pt" height="396pt"
 viewBox="0.00 0.00 1828.00 395.59" xmlns="http://www.w3.org/2000/svg" xmlns:xlink="http://www.w3.org/1999/xlink">
<g id="graph0" class="graph" transform="scale(1 1) rotate(0) translate(4 391.59)">
<title>dependencies</title>
<polygon fill="white" stroke="transparent" points="-4,4 -4,-391.59 1824,-391.59 1824,4 -4,4"/>
<text text-anchor="start" x="889.01" y="-42.4" font-family="Times-12" font-weight="bold" font-size="14.00">Legend</text>
<polygon fill="#ffffb3" stroke="transparent" points="676,-10 676,-30 696,-30 696,-10 676,-10"/>
<text text-anchor="start" x="699.63" y="-15.4" font-family="Times-12" font-size="14.00"> &#160;Declarations</text>
<polygon fill="#8dd3c7" stroke="transparent" points="789,-10 789,-30 809,-30 809,-10 789,-10"/>
<text text-anchor="start" x="812.73" y="-15.4" font-family="Times-12" font-size="14.00"> &#160;Module</text>
<polygon fill="#80b1d3" stroke="transparent" points="875,-10 875,-30 895,-30 895,-10 875,-10"/>
<text text-anchor="start" x="898.78" y="-15.4" font-family="Times-12" font-size="14.00"> &#160;Bootstrap</text>
<polygon fill="#fdb462" stroke="transparent" points="972,-10 972,-30 992,-30 992,-10 972,-10"/>
<text text-anchor="start" x="995.67" y="-15.4" font-family="Times-12" font-size="14.00"> &#160;Providers</text>
<polygon fill="#fb8072" stroke="transparent" points="1068,-10 1068,-30 1088,-30 1088,-10 1068,-10"/>
<text text-anchor="start" x="1091.73" y="-15.4" font-family="Times-12" font-size="14.00"> &#160;Exports</text>
<g id="clust1" class="cluster">
<title>cluster_SACBootstrap4StaticLabelModule</title>
<polygon fill="none" stroke="black" stroke-dasharray="1,5" points="8,-70 8,-379.59 1812,-379.59 1812,-70 8,-70"/>
</g>
<g id="clust6" class="cluster">
<title>cluster_SACBootstrap4StaticLabelModule_exports</title>
<polygon fill="none" stroke="black" points="100,-319.59 100,-371.59 525,-371.59 525,-319.59 100,-319.59"/>
</g>
<g id="clust2" class="cluster">
<title>cluster_SACBootstrap4StaticLabelModule_declarations</title>
<polygon fill="none" stroke="black" points="218,-189.59 218,-241.59 636,-241.59 636,-189.59 218,-189.59"/>
</g>
<g id="clust3" class="cluster">
<title>cluster_SACBootstrap4StaticLabelModule_SacStaticFormContainerComponent_providers</title>
<polygon fill="none" stroke="black" points="16,-78 16,-176.59 1804,-176.59 1804,-78 16,-78"/>
</g>
<!-- SacStaticFormContainerComponent -->
<g id="node1" class="node">
<title>SacStaticFormContainerComponent</title>
<polygon fill="#ffffb3" stroke="black" points="628.47,-233.59 409.53,-233.59 409.53,-197.59 628.47,-197.59 628.47,-233.59"/>
<text text-anchor="middle" x="519" y="-211.39" font-family="Times,serif" font-size="14.00">SacStaticFormContainerComponent</text>
</g>
<!-- SACBootstrap4StaticLabelModule -->
<g id="node3" class="node">
<title>SACBootstrap4StaticLabelModule</title>
<polygon fill="#8dd3c7" stroke="black" points="478.97,-298.59 475.97,-302.59 454.97,-302.59 451.97,-298.59 267.03,-298.59 267.03,-262.59 478.97,-262.59 478.97,-298.59"/>
<text text-anchor="middle" x="373" y="-276.39" font-family="Times,serif" font-size="14.00">SACBootstrap4StaticLabelModule</text>
</g>
<!-- SacStaticFormContainerComponent&#45;&gt;SACBootstrap4StaticLabelModule -->
<g id="edge1" class="edge">
<title>SacStaticFormContainerComponent&#45;&gt;SACBootstrap4StaticLabelModule</title>
<path fill="none" stroke="black" d="M444.25,-233.7C444.25,-233.7 444.25,-252.58 444.25,-252.58"/>
<polygon fill="black" stroke="black" points="440.75,-252.58 444.25,-262.58 447.75,-252.58 440.75,-252.58"/>
</g>
<!-- SacStaticLabelComponent -->
<g id="node2" class="node">
<title>SacStaticLabelComponent</title>
<polygon fill="#ffffb3" stroke="black" points="391.8,-233.59 226.2,-233.59 226.2,-197.59 391.8,-197.59 391.8,-233.59"/>
<text text-anchor="middle" x="309" y="-211.39" font-family="Times,serif" font-size="14.00">SacStaticLabelComponent</text>
</g>
<!-- SacStaticLabelComponent&#45;&gt;SACBootstrap4StaticLabelModule -->
<g id="edge4" class="edge">
<title>SacStaticLabelComponent&#45;&gt;SACBootstrap4StaticLabelModule</title>
<path fill="none" stroke="black" d="M329.33,-233.7C329.33,-233.7 329.33,-252.58 329.33,-252.58"/>
<polygon fill="black" stroke="black" points="325.83,-252.58 329.33,-262.58 332.83,-252.58 325.83,-252.58"/>
</g>
<!-- SacStaticFormContainerComponent  -->
<g id="node6" class="node">
<title>SacStaticFormContainerComponent </title>
<polygon fill="#fb8072" stroke="black" points="517.47,-363.59 294.53,-363.59 294.53,-327.59 517.47,-327.59 517.47,-363.59"/>
<text text-anchor="middle" x="406" y="-341.39" font-family="Times,serif" font-size="14.00">SacStaticFormContainerComponent </text>
</g>
<!-- SACBootstrap4StaticLabelModule&#45;&gt;SacStaticFormContainerComponent  -->
<g id="edge5" class="edge">
<title>SACBootstrap4StaticLabelModule&#45;&gt;SacStaticFormContainerComponent </title>
<path fill="none" stroke="black" stroke-dasharray="5,2" d="M386.88,-298.7C386.88,-298.7 386.88,-317.58 386.88,-317.58"/>
<polygon fill="black" stroke="black" points="383.38,-317.58 386.88,-327.58 390.38,-317.58 383.38,-317.58"/>
</g>
<!-- SacStaticLabelComponent  -->
<g id="node7" class="node">
<title>SacStaticLabelComponent </title>
<polygon fill="#fb8072" stroke="black" points="276.3,-363.59 107.7,-363.59 107.7,-327.59 276.3,-327.59 276.3,-363.59"/>
<text text-anchor="middle" x="192" y="-341.39" font-family="Times,serif" font-size="14.00">SacStaticLabelComponent </text>
</g>
<!-- SACBootstrap4StaticLabelModule&#45;&gt;SacStaticLabelComponent  -->
<g id="edge6" class="edge">
<title>SACBootstrap4StaticLabelModule&#45;&gt;SacStaticLabelComponent </title>
<path fill="none" stroke="black" stroke-dasharray="5,2" d="M271.71,-298.7C271.71,-298.7 271.71,-317.58 271.71,-317.58"/>
<polygon fill="black" stroke="black" points="268.21,-317.58 271.71,-327.58 275.21,-317.58 268.21,-317.58"/>
</g>
<!-- {
 &#160;&#160;&#160;provide: NG_VALUE_ACCESSOR, multi: true, useExisting: SacStaticFormContainerComponent,
} -->
<g id="node4" class="node">
<title>{
 &#160;&#160;&#160;provide: NG_VALUE_ACCESSOR, multi: true, useExisting: SacStaticFormContainerComponent,
}</title>
<ellipse fill="#fdb462" stroke="black" cx="1382" cy="-127.3" rx="414.29" ry="41.09"/>
<text text-anchor="middle" x="1382" y="-139.9" font-family="Times,serif" font-size="14.00">{</text>
<text text-anchor="middle" x="1382" y="-123.1" font-family="Times,serif" font-size="14.00"> &#160;&#160;&#160;provide: NG_VALUE_ACCESSOR, multi: true, useExisting: SacStaticFormContainerComponent,</text>
<text text-anchor="middle" x="1382" y="-106.3" font-family="Times,serif" font-size="14.00">}</text>
</g>
<!-- {
 &#160;&#160;&#160;provide: NG_VALUE_ACCESSOR, multi: true, useExisting: SacStaticFormContainerComponent,
}&#45;&gt;SacStaticFormContainerComponent -->
<g id="edge2" class="edge">
<title>{
 &#160;&#160;&#160;provide: NG_VALUE_ACCESSOR, multi: true, useExisting: SacStaticFormContainerComponent,
}&#45;&gt;SacStaticFormContainerComponent</title>
<path fill="none" stroke="black" d="M1382,-168.6C1382,-191.58 1382,-215.59 1382,-215.59 1382,-215.59 638.74,-215.59 638.74,-215.59"/>
<polygon fill="black" stroke="black" points="638.74,-212.09 628.74,-215.59 638.74,-219.09 638.74,-212.09"/>
</g>
<!-- {
 &#160;&#160;&#160;provide: NG_VALIDATORS, multi: true, useExisting: forwardRef(() =&gt; SacStaticFormContainerComponent),
} -->
<g id="node5" class="node">
<title>{
 &#160;&#160;&#160;provide: NG_VALIDATORS, multi: true, useExisting: forwardRef(() =&gt; SacStaticFormContainerComponent),
}</title>
<ellipse fill="#fdb462" stroke="black" cx="487" cy="-127.3" rx="462.8" ry="41.09"/>
<text text-anchor="middle" x="487" y="-139.9" font-family="Times,serif" font-size="14.00">{</text>
<text text-anchor="middle" x="487" y="-123.1" font-family="Times,serif" font-size="14.00"> &#160;&#160;&#160;provide: NG_VALIDATORS, multi: true, useExisting: forwardRef(() =&gt; SacStaticFormContainerComponent),</text>
<text text-anchor="middle" x="487" y="-106.3" font-family="Times,serif" font-size="14.00">}</text>
</g>
<!-- {
 &#160;&#160;&#160;provide: NG_VALIDATORS, multi: true, useExisting: forwardRef(() =&gt; SacStaticFormContainerComponent),
}&#45;&gt;SacStaticFormContainerComponent -->
<g id="edge3" class="edge">
<title>{
 &#160;&#160;&#160;provide: NG_VALIDATORS, multi: true, useExisting: forwardRef(() =&gt; SacStaticFormContainerComponent),
}&#45;&gt;SacStaticFormContainerComponent</title>
<path fill="none" stroke="black" d="M519,-168.6C519,-168.6 519,-187.26 519,-187.26"/>
<polygon fill="black" stroke="black" points="515.5,-187.26 519,-197.26 522.5,-187.26 515.5,-187.26"/>
</g>
</g>
</svg>
