<?xml version="1.0" encoding="UTF-8" standalone="no"?>
<!DOCTYPE svg PUBLIC "-//W3C//DTD SVG 1.1//EN"
 "http://www.w3.org/Graphics/SVG/1.1/DTD/svg11.dtd">
<!-- Generated by graphviz version 2.47.3 (20210619.1520)
 -->
<!-- Title: dependencies Pages: 1 -->
<svg width="492pt" height="174pt"
 viewBox="0.00 0.00 492.00 173.80" xmlns="http://www.w3.org/2000/svg" xmlns:xlink="http://www.w3.org/1999/xlink">
<g id="graph0" class="graph" transform="scale(1 1) rotate(0) translate(4 169.8)">
<title>dependencies</title>
<polygon fill="white" stroke="transparent" points="-4,4 -4,-169.8 488,-169.8 488,4 -4,4"/>
<text text-anchor="middle" x="242" y="-8.2" font-family="sans-serif" font-size="14.00">dependencies</text>
<g id="clust1" class="cluster">
<title>cluster_GridModule</title>
<polygon fill="none" stroke="black" stroke-dasharray="1,5" points="8,-32.8 8,-157.8 476,-157.8 476,-32.8 8,-32.8"/>
</g>
<g id="clust2" class="cluster">
<title>cluster_GridModule_declarations</title>
<polygon fill="none" stroke="black" points="310,-40.8 310,-92.8 468,-92.8 468,-40.8 310,-40.8"/>
</g>
<g id="clust4" class="cluster">
<title>cluster_GridModule_imports</title>
<polygon fill="none" stroke="black" points="156,-40.8 156,-92.8 302,-92.8 302,-40.8 156,-40.8"/>
</g>
<g id="clust7" class="cluster">
<title>cluster_GridModule_providers</title>
<polygon fill="none" stroke="black" points="16,-40.8 16,-92.8 148,-92.8 148,-40.8 16,-40.8"/>
</g>
<!-- DemoGridComponent -->
<g id="node1" class="node">
<title>DemoGridComponent</title>
<polygon fill="#ffffb3" stroke="black" points="459.7,-84.8 318.3,-84.8 318.3,-48.8 459.7,-48.8 459.7,-84.8"/>
<text text-anchor="middle" x="389" y="-62.6" font-family="Times,serif" font-size="14.00">DemoGridComponent</text>
</g>
<!-- GridModule -->
<g id="node2" class="node">
<title>GridModule</title>
<polygon fill="#8dd3c7" stroke="black" points="271.71,-149.8 268.71,-153.8 247.71,-153.8 244.71,-149.8 186.29,-149.8 186.29,-113.8 271.71,-113.8 271.71,-149.8"/>
<text text-anchor="middle" x="229" y="-127.6" font-family="Times,serif" font-size="14.00">GridModule</text>
</g>
<!-- DemoGridComponent&#45;&gt;GridModule -->
<g id="edge1" class="edge">
<title>DemoGridComponent&#45;&gt;GridModule</title>
<path fill="none" stroke="black" d="M389,-84.91C389,-104.14 389,-131.8 389,-131.8 389,-131.8 281.88,-131.8 281.88,-131.8"/>
<polygon fill="black" stroke="black" points="281.88,-128.3 271.88,-131.8 281.88,-135.3 281.88,-128.3"/>
</g>
<!-- GridRoutingModule -->
<g id="node3" class="node">
<title>GridRoutingModule</title>
<polygon fill="#8dd3c7" stroke="black" points="294.33,-84.8 291.33,-88.8 270.33,-88.8 267.33,-84.8 163.67,-84.8 163.67,-48.8 294.33,-48.8 294.33,-84.8"/>
<text text-anchor="middle" x="229" y="-62.6" font-family="Times,serif" font-size="14.00">GridRoutingModule</text>
</g>
<!-- GridRoutingModule&#45;&gt;GridModule -->
<g id="edge2" class="edge">
<title>GridRoutingModule&#45;&gt;GridModule</title>
<path fill="none" stroke="black" d="M229,-84.91C229,-84.91 229,-103.79 229,-103.79"/>
<polygon fill="black" stroke="black" points="225.5,-103.79 229,-113.79 232.5,-103.79 225.5,-103.79"/>
</g>
<!-- GridService -->
<g id="node4" class="node">
<title>GridService</title>
<ellipse fill="#fdb462" stroke="black" cx="82" cy="-66.8" rx="57.88" ry="18"/>
<text text-anchor="middle" x="82" y="-62.6" font-family="Times,serif" font-size="14.00">GridService</text>
</g>
<!-- GridService&#45;&gt;GridModule -->
<g id="edge3" class="edge">
<title>GridService&#45;&gt;GridModule</title>
<path fill="none" stroke="black" d="M82,-84.91C82,-104.14 82,-131.8 82,-131.8 82,-131.8 176.09,-131.8 176.09,-131.8"/>
<polygon fill="black" stroke="black" points="176.09,-135.3 186.09,-131.8 176.09,-128.3 176.09,-135.3"/>
</g>
</g>
</svg>
