<?xml version="1.0" encoding="UTF-8" standalone="no"?>
<!DOCTYPE svg PUBLIC "-//W3C//DTD SVG 1.1//EN"
 "http://www.w3.org/Graphics/SVG/1.1/DTD/svg11.dtd">
<!-- Generated by graphviz version 2.47.0 (20210316.0004)
 -->
<!-- Title: dependencies Pages: 1 -->
<svg width="809pt" height="284pt"
 viewBox="0.00 0.00 809.00 284.00" xmlns="http://www.w3.org/2000/svg" xmlns:xlink="http://www.w3.org/1999/xlink">
<g id="graph0" class="graph" transform="scale(1 1) rotate(0) translate(4 280)">
<title>dependencies</title>
<polygon fill="white" stroke="transparent" points="-4,4 -4,-280 805,-280 805,4 -4,4"/>
<text text-anchor="start" x="379.51" y="-42.4" font-family="Times-12" font-weight="bold" font-size="14.00">Legend</text>
<polygon fill="#ffffb3" stroke="transparent" points="166.5,-10 166.5,-30 186.5,-30 186.5,-10 166.5,-10"/>
<text text-anchor="start" x="190.13" y="-15.4" font-family="Times-12" font-size="14.00"> &#160;Declarations</text>
<polygon fill="#8dd3c7" stroke="transparent" points="279.5,-10 279.5,-30 299.5,-30 299.5,-10 279.5,-10"/>
<text text-anchor="start" x="303.23" y="-15.4" font-family="Times-12" font-size="14.00"> &#160;Module</text>
<polygon fill="#80b1d3" stroke="transparent" points="365.5,-10 365.5,-30 385.5,-30 385.5,-10 365.5,-10"/>
<text text-anchor="start" x="389.28" y="-15.4" font-family="Times-12" font-size="14.00"> &#160;Bootstrap</text>
<polygon fill="#fdb462" stroke="transparent" points="462.5,-10 462.5,-30 482.5,-30 482.5,-10 462.5,-10"/>
<text text-anchor="start" x="486.17" y="-15.4" font-family="Times-12" font-size="14.00"> &#160;Providers</text>
<polygon fill="#fb8072" stroke="transparent" points="558.5,-10 558.5,-30 578.5,-30 578.5,-10 558.5,-10"/>
<text text-anchor="start" x="582.23" y="-15.4" font-family="Times-12" font-size="14.00"> &#160;Exports</text>
<g id="clust1" class="cluster">
<title>cluster_SACBootstrap4CheckboxModule</title>
<polygon fill="none" stroke="black" stroke-dasharray="1,5" points="8,-70 8,-268 793,-268 793,-70 8,-70"/>
</g>
<g id="clust2" class="cluster">
<title>cluster_SACBootstrap4CheckboxModule_declarations</title>
<polygon fill="none" stroke="black" points="228,-78 228,-130 785,-130 785,-78 228,-78"/>
</g>
<g id="clust6" class="cluster">
<title>cluster_SACBootstrap4CheckboxModule_imports</title>
<polygon fill="none" stroke="black" points="16,-78 16,-130 220,-130 220,-78 16,-78"/>
</g>
<g id="clust7" class="cluster">
<title>cluster_SACBootstrap4CheckboxModule_exports</title>
<polygon fill="none" stroke="black" points="124,-208 124,-260 692,-260 692,-208 124,-208"/>
</g>
<!-- SacCheckboxComponent -->
<g id="node1" class="node">
<title>SacCheckboxComponent</title>
<polygon fill="#ffffb3" stroke="black" points="777.31,-122 618.69,-122 618.69,-86 777.31,-86 777.31,-122"/>
<text text-anchor="middle" x="698" y="-99.8" font-family="Times,serif" font-size="14.00">SacCheckboxComponent</text>
</g>
<!-- SACBootstrap4CheckboxModule -->
<g id="node4" class="node">
<title>SACBootstrap4CheckboxModule</title>
<polygon fill="#8dd3c7" stroke="black" points="519.48,-187 516.48,-191 495.48,-191 492.48,-187 314.52,-187 314.52,-151 519.48,-151 519.48,-187"/>
<text text-anchor="middle" x="417" y="-164.8" font-family="Times,serif" font-size="14.00">SACBootstrap4CheckboxModule</text>
</g>
<!-- SacCheckboxComponent&#45;&gt;SACBootstrap4CheckboxModule -->
<g id="edge1" class="edge">
<title>SacCheckboxComponent&#45;&gt;SACBootstrap4CheckboxModule</title>
<path fill="none" stroke="black" d="M651.38,-122.11C651.38,-141.34 651.38,-169 651.38,-169 651.38,-169 529.8,-169 529.8,-169"/>
<polygon fill="black" stroke="black" points="529.8,-165.5 519.8,-169 529.8,-172.5 529.8,-165.5"/>
</g>
<!-- SacRadiobuttonComponent -->
<g id="node2" class="node">
<title>SacRadiobuttonComponent</title>
<polygon fill="#ffffb3" stroke="black" points="600.27,-122 429.73,-122 429.73,-86 600.27,-86 600.27,-122"/>
<text text-anchor="middle" x="515" y="-99.8" font-family="Times,serif" font-size="14.00">SacRadiobuttonComponent</text>
</g>
<!-- SacRadiobuttonComponent&#45;&gt;SACBootstrap4CheckboxModule -->
<g id="edge2" class="edge">
<title>SacRadiobuttonComponent&#45;&gt;SACBootstrap4CheckboxModule</title>
<path fill="none" stroke="black" d="M474.55,-122.11C474.55,-122.11 474.55,-140.99 474.55,-140.99"/>
<polygon fill="black" stroke="black" points="471.05,-140.99 474.55,-150.99 478.05,-140.99 471.05,-140.99"/>
</g>
<!-- SacRadiobuttonsComponent -->
<g id="node3" class="node">
<title>SacRadiobuttonsComponent</title>
<polygon fill="#ffffb3" stroke="black" points="412.21,-122 235.79,-122 235.79,-86 412.21,-86 412.21,-122"/>
<text text-anchor="middle" x="324" y="-99.8" font-family="Times,serif" font-size="14.00">SacRadiobuttonsComponent</text>
</g>
<!-- SacRadiobuttonsComponent&#45;&gt;SACBootstrap4CheckboxModule -->
<g id="edge3" class="edge">
<title>SacRadiobuttonsComponent&#45;&gt;SACBootstrap4CheckboxModule</title>
<path fill="none" stroke="black" d="M363.31,-122.11C363.31,-122.11 363.31,-140.99 363.31,-140.99"/>
<polygon fill="black" stroke="black" points="359.81,-140.99 363.31,-150.99 366.81,-140.99 359.81,-140.99"/>
</g>
<!-- SacCheckboxComponent  -->
<g id="node6" class="node">
<title>SacCheckboxComponent </title>
<polygon fill="#fb8072" stroke="black" points="683.81,-252 522.19,-252 522.19,-216 683.81,-216 683.81,-252"/>
<text text-anchor="middle" x="603" y="-229.8" font-family="Times,serif" font-size="14.00">SacCheckboxComponent </text>
</g>
<!-- SACBootstrap4CheckboxModule&#45;&gt;SacCheckboxComponent  -->
<g id="edge5" class="edge">
<title>SACBootstrap4CheckboxModule&#45;&gt;SacCheckboxComponent </title>
<path fill="none" stroke="black" stroke-dasharray="5,2" d="M511.81,-187.11C511.81,-206.34 511.81,-234 511.81,-234 511.81,-234 512.82,-234 512.82,-234"/>
<polygon fill="black" stroke="black" points="511.92,-237.5 521.92,-234 511.92,-230.5 511.92,-237.5"/>
</g>
<!-- SacRadiobuttonComponent  -->
<g id="node7" class="node">
<title>SacRadiobuttonComponent </title>
<polygon fill="#fb8072" stroke="black" points="504.27,-252 329.73,-252 329.73,-216 504.27,-216 504.27,-252"/>
<text text-anchor="middle" x="417" y="-229.8" font-family="Times,serif" font-size="14.00">SacRadiobuttonComponent </text>
</g>
<!-- SACBootstrap4CheckboxModule&#45;&gt;SacRadiobuttonComponent  -->
<g id="edge6" class="edge">
<title>SACBootstrap4CheckboxModule&#45;&gt;SacRadiobuttonComponent </title>
<path fill="none" stroke="black" stroke-dasharray="5,2" d="M417,-187.11C417,-187.11 417,-205.99 417,-205.99"/>
<polygon fill="black" stroke="black" points="413.5,-205.99 417,-215.99 420.5,-205.99 413.5,-205.99"/>
</g>
<!-- SacRadiobuttonsComponent  -->
<g id="node8" class="node">
<title>SacRadiobuttonsComponent </title>
<polygon fill="#fb8072" stroke="black" points="311.71,-252 132.29,-252 132.29,-216 311.71,-216 311.71,-252"/>
<text text-anchor="middle" x="222" y="-229.8" font-family="Times,serif" font-size="14.00">SacRadiobuttonsComponent </text>
</g>
<!-- SACBootstrap4CheckboxModule&#45;&gt;SacRadiobuttonsComponent  -->
<g id="edge7" class="edge">
<title>SACBootstrap4CheckboxModule&#45;&gt;SacRadiobuttonsComponent </title>
<path fill="none" stroke="black" stroke-dasharray="5,2" d="M322.19,-187.11C322.19,-206.34 322.19,-234 322.19,-234 322.19,-234 321.15,-234 321.15,-234"/>
<polygon fill="black" stroke="black" points="321.84,-230.5 311.84,-234 321.84,-237.5 321.84,-230.5"/>
</g>
<!-- SACBootstrap4LayoutModule -->
<g id="node5" class="node">
<title>SACBootstrap4LayoutModule</title>
<polygon fill="#8dd3c7" stroke="black" points="211.87,-122 208.87,-126 187.87,-126 184.87,-122 24.13,-122 24.13,-86 211.87,-86 211.87,-122"/>
<text text-anchor="middle" x="118" y="-99.8" font-family="Times,serif" font-size="14.00">SACBootstrap4LayoutModule</text>
</g>
<!-- SACBootstrap4LayoutModule&#45;&gt;SACBootstrap4CheckboxModule -->
<g id="edge4" class="edge">
<title>SACBootstrap4LayoutModule&#45;&gt;SACBootstrap4CheckboxModule</title>
<path fill="none" stroke="black" d="M172.04,-122.11C172.04,-141.34 172.04,-169 172.04,-169 172.04,-169 304.18,-169 304.18,-169"/>
<polygon fill="black" stroke="black" points="304.18,-172.5 314.18,-169 304.18,-165.5 304.18,-172.5"/>
</g>
</g>
</svg>
