<?xml version="1.0" encoding="UTF-8" standalone="no"?>
<!DOCTYPE svg PUBLIC "-//W3C//DTD SVG 1.1//EN"
 "http://www.w3.org/Graphics/SVG/1.1/DTD/svg11.dtd">
<!-- Generated by graphviz version 2.47.0 (20210316.0004)
 -->
<!-- Title: dependencies Pages: 1 -->
<svg width="608pt" height="284pt"
 viewBox="0.00 0.00 608.00 284.00" xmlns="http://www.w3.org/2000/svg" xmlns:xlink="http://www.w3.org/1999/xlink">
<g id="graph0" class="graph" transform="scale(1 1) rotate(0) translate(4 280)">
<title>dependencies</title>
<polygon fill="white" stroke="transparent" points="-4,4 -4,-280 604,-280 604,4 -4,4"/>
<text text-anchor="start" x="279.01" y="-42.4" font-family="Times-12" font-weight="bold" font-size="14.00">Legend</text>
<polygon fill="#ffffb3" stroke="transparent" points="66,-10 66,-30 86,-30 86,-10 66,-10"/>
<text text-anchor="start" x="89.63" y="-15.4" font-family="Times-12" font-size="14.00"> &#160;Declarations</text>
<polygon fill="#8dd3c7" stroke="transparent" points="179,-10 179,-30 199,-30 199,-10 179,-10"/>
<text text-anchor="start" x="202.73" y="-15.4" font-family="Times-12" font-size="14.00"> &#160;Module</text>
<polygon fill="#80b1d3" stroke="transparent" points="265,-10 265,-30 285,-30 285,-10 265,-10"/>
<text text-anchor="start" x="288.78" y="-15.4" font-family="Times-12" font-size="14.00"> &#160;Bootstrap</text>
<polygon fill="#fdb462" stroke="transparent" points="362,-10 362,-30 382,-30 382,-10 362,-10"/>
<text text-anchor="start" x="385.67" y="-15.4" font-family="Times-12" font-size="14.00"> &#160;Providers</text>
<polygon fill="#fb8072" stroke="transparent" points="458,-10 458,-30 478,-30 478,-10 458,-10"/>
<text text-anchor="start" x="481.73" y="-15.4" font-family="Times-12" font-size="14.00"> &#160;Exports</text>
<g id="clust1" class="cluster">
<title>cluster_SACBootstrap4CheckboxModule</title>
<polygon fill="none" stroke="black" stroke-dasharray="1,5" points="8,-70 8,-268 592,-268 592,-70 8,-70"/>
</g>
<g id="clust3" class="cluster">
<title>cluster_SACBootstrap4CheckboxModule_imports</title>
<polygon fill="none" stroke="black" points="22,-78 22,-130 579,-130 579,-78 22,-78"/>
</g>
<g id="clust4" class="cluster">
<title>cluster_SACBootstrap4CheckboxModule_exports</title>
<polygon fill="none" stroke="black" points="16,-208 16,-260 584,-260 584,-208 16,-208"/>
</g>
<!-- SacCheckboxComponent -->
<g id="node1" class="node">
<title>SacCheckboxComponent</title>
<polygon fill="#8dd3c7" stroke="black" points="571.31,-122 568.31,-126 547.31,-126 544.31,-122 412.69,-122 412.69,-86 571.31,-86 571.31,-122"/>
<text text-anchor="middle" x="492" y="-99.8" font-family="Times,serif" font-size="14.00">SacCheckboxComponent</text>
</g>
<!-- SACBootstrap4CheckboxModule -->
<g id="node4" class="node">
<title>SACBootstrap4CheckboxModule</title>
<polygon fill="#8dd3c7" stroke="black" points="411.48,-187 408.48,-191 387.48,-191 384.48,-187 206.52,-187 206.52,-151 411.48,-151 411.48,-187"/>
<text text-anchor="middle" x="309" y="-164.8" font-family="Times,serif" font-size="14.00">SACBootstrap4CheckboxModule</text>
</g>
<!-- SacCheckboxComponent&#45;&gt;SACBootstrap4CheckboxModule -->
<g id="edge1" class="edge">
<title>SacCheckboxComponent&#45;&gt;SACBootstrap4CheckboxModule</title>
<path fill="none" stroke="black" d="M412.81,-104C406.75,-104 402.94,-104 402.94,-104 402.94,-104 402.94,-140.89 402.94,-140.89"/>
<polygon fill="black" stroke="black" points="399.44,-140.89 402.94,-150.89 406.44,-140.89 399.44,-140.89"/>
</g>
<!-- SacRadiobuttonComponent -->
<g id="node2" class="node">
<title>SacRadiobuttonComponent</title>
<polygon fill="#8dd3c7" stroke="black" points="394.27,-122 391.27,-126 370.27,-126 367.27,-122 223.73,-122 223.73,-86 394.27,-86 394.27,-122"/>
<text text-anchor="middle" x="309" y="-99.8" font-family="Times,serif" font-size="14.00">SacRadiobuttonComponent</text>
</g>
<!-- SacRadiobuttonComponent&#45;&gt;SACBootstrap4CheckboxModule -->
<g id="edge2" class="edge">
<title>SacRadiobuttonComponent&#45;&gt;SACBootstrap4CheckboxModule</title>
<path fill="none" stroke="black" d="M309,-122.11C309,-122.11 309,-140.99 309,-140.99"/>
<polygon fill="black" stroke="black" points="305.5,-140.99 309,-150.99 312.5,-140.99 305.5,-140.99"/>
</g>
<!-- SacRadiobuttonsComponent -->
<g id="node3" class="node">
<title>SacRadiobuttonsComponent</title>
<polygon fill="#8dd3c7" stroke="black" points="206.21,-122 203.21,-126 182.21,-126 179.21,-122 29.79,-122 29.79,-86 206.21,-86 206.21,-122"/>
<text text-anchor="middle" x="118" y="-99.8" font-family="Times,serif" font-size="14.00">SacRadiobuttonsComponent</text>
</g>
<!-- SacRadiobuttonsComponent&#45;&gt;SACBootstrap4CheckboxModule -->
<g id="edge3" class="edge">
<title>SacRadiobuttonsComponent&#45;&gt;SACBootstrap4CheckboxModule</title>
<path fill="none" stroke="black" d="M206.11,-104C211.65,-104 215.06,-104 215.06,-104 215.06,-104 215.06,-140.89 215.06,-140.89"/>
<polygon fill="black" stroke="black" points="211.56,-140.89 215.06,-150.89 218.56,-140.89 211.56,-140.89"/>
</g>
<!-- SacCheckboxComponent  -->
<g id="node5" class="node">
<title>SacCheckboxComponent </title>
<polygon fill="#fb8072" stroke="black" points="575.81,-252 414.19,-252 414.19,-216 575.81,-216 575.81,-252"/>
<text text-anchor="middle" x="495" y="-229.8" font-family="Times,serif" font-size="14.00">SacCheckboxComponent </text>
</g>
<!-- SACBootstrap4CheckboxModule&#45;&gt;SacCheckboxComponent  -->
<g id="edge4" class="edge">
<title>SACBootstrap4CheckboxModule&#45;&gt;SacCheckboxComponent </title>
<path fill="none" stroke="black" stroke-dasharray="5,2" d="M403.81,-187.11C403.81,-206.34 403.81,-234 403.81,-234 403.81,-234 404.82,-234 404.82,-234"/>
<polygon fill="black" stroke="black" points="403.92,-237.5 413.92,-234 403.92,-230.5 403.92,-237.5"/>
</g>
<!-- SacRadiobuttonComponent  -->
<g id="node6" class="node">
<title>SacRadiobuttonComponent </title>
<polygon fill="#fb8072" stroke="black" points="396.27,-252 221.73,-252 221.73,-216 396.27,-216 396.27,-252"/>
<text text-anchor="middle" x="309" y="-229.8" font-family="Times,serif" font-size="14.00">SacRadiobuttonComponent </text>
</g>
<!-- SACBootstrap4CheckboxModule&#45;&gt;SacRadiobuttonComponent  -->
<g id="edge5" class="edge">
<title>SACBootstrap4CheckboxModule&#45;&gt;SacRadiobuttonComponent </title>
<path fill="none" stroke="black" stroke-dasharray="5,2" d="M309,-187.11C309,-187.11 309,-205.99 309,-205.99"/>
<polygon fill="black" stroke="black" points="305.5,-205.99 309,-215.99 312.5,-205.99 305.5,-205.99"/>
</g>
<!-- SacRadiobuttonsComponent  -->
<g id="node7" class="node">
<title>SacRadiobuttonsComponent </title>
<polygon fill="#fb8072" stroke="black" points="203.71,-252 24.29,-252 24.29,-216 203.71,-216 203.71,-252"/>
<text text-anchor="middle" x="114" y="-229.8" font-family="Times,serif" font-size="14.00">SacRadiobuttonsComponent </text>
</g>
<!-- SACBootstrap4CheckboxModule&#45;&gt;SacRadiobuttonsComponent  -->
<g id="edge6" class="edge">
<title>SACBootstrap4CheckboxModule&#45;&gt;SacRadiobuttonsComponent </title>
<path fill="none" stroke="black" stroke-dasharray="5,2" d="M214.19,-187.11C214.19,-206.34 214.19,-234 214.19,-234 214.19,-234 213.15,-234 213.15,-234"/>
<polygon fill="black" stroke="black" points="213.84,-230.5 203.84,-234 213.84,-237.5 213.84,-230.5"/>
</g>
</g>
</svg>
