<?xml version="1.0" encoding="UTF-8" standalone="no"?>
<!DOCTYPE svg PUBLIC "-//W3C//DTD SVG 1.1//EN"
 "http://www.w3.org/Graphics/SVG/1.1/DTD/svg11.dtd">
<!-- Generated by graphviz version 2.47.0 (20210316.0004)
 -->
<!-- Title: dependencies Pages: 1 -->
<svg width="1144pt" height="284pt"
 viewBox="0.00 0.00 1144.00 284.00" xmlns="http://www.w3.org/2000/svg" xmlns:xlink="http://www.w3.org/1999/xlink">
<g id="graph0" class="graph" transform="scale(1 1) rotate(0) translate(4 280)">
<title>dependencies</title>
<polygon fill="white" stroke="transparent" points="-4,4 -4,-280 1140,-280 1140,4 -4,4"/>
<text text-anchor="start" x="547.01" y="-42.4" font-family="Times-12" font-weight="bold" font-size="14.00">Legend</text>
<polygon fill="#ffffb3" stroke="transparent" points="334,-10 334,-30 354,-30 354,-10 334,-10"/>
<text text-anchor="start" x="357.63" y="-15.4" font-family="Times-12" font-size="14.00"> &#160;Declarations</text>
<polygon fill="#8dd3c7" stroke="transparent" points="447,-10 447,-30 467,-30 467,-10 447,-10"/>
<text text-anchor="start" x="470.73" y="-15.4" font-family="Times-12" font-size="14.00"> &#160;Module</text>
<polygon fill="#80b1d3" stroke="transparent" points="533,-10 533,-30 553,-30 553,-10 533,-10"/>
<text text-anchor="start" x="556.78" y="-15.4" font-family="Times-12" font-size="14.00"> &#160;Bootstrap</text>
<polygon fill="#fdb462" stroke="transparent" points="630,-10 630,-30 650,-30 650,-10 630,-10"/>
<text text-anchor="start" x="653.67" y="-15.4" font-family="Times-12" font-size="14.00"> &#160;Providers</text>
<polygon fill="#fb8072" stroke="transparent" points="726,-10 726,-30 746,-30 746,-10 726,-10"/>
<text text-anchor="start" x="749.73" y="-15.4" font-family="Times-12" font-size="14.00"> &#160;Exports</text>
<g id="clust1" class="cluster">
<title>cluster_SACBootstrap3GridModule</title>
<polygon fill="none" stroke="black" stroke-dasharray="1,5" points="8,-70 8,-268 1128,-268 1128,-70 8,-70"/>
</g>
<g id="clust3" class="cluster">
<title>cluster_SACBootstrap3GridModule_imports</title>
<polygon fill="none" stroke="black" points="28,-78 28,-130 1112,-130 1112,-78 28,-78"/>
</g>
<g id="clust4" class="cluster">
<title>cluster_SACBootstrap3GridModule_exports</title>
<polygon fill="none" stroke="black" points="16,-208 16,-260 1120,-260 1120,-208 16,-208"/>
</g>
<!-- SacGridButtonComponent -->
<g id="node1" class="node">
<title>SacGridButtonComponent</title>
<polygon fill="#8dd3c7" stroke="black" points="1103.82,-122 1100.82,-126 1079.82,-126 1076.82,-122 938.18,-122 938.18,-86 1103.82,-86 1103.82,-122"/>
<text text-anchor="middle" x="1021" y="-99.8" font-family="Times,serif" font-size="14.00">SacGridButtonComponent</text>
</g>
<!-- SACBootstrap3GridModule -->
<g id="node7" class="node">
<title>SACBootstrap3GridModule</title>
<polygon fill="#8dd3c7" stroke="black" points="528.87,-187 525.87,-191 504.87,-191 501.87,-187 355.13,-187 355.13,-151 528.87,-151 528.87,-187"/>
<text text-anchor="middle" x="442" y="-164.8" font-family="Times,serif" font-size="14.00">SACBootstrap3GridModule</text>
</g>
<!-- SacGridButtonComponent&#45;&gt;SACBootstrap3GridModule -->
<g id="edge1" class="edge">
<title>SacGridButtonComponent&#45;&gt;SACBootstrap3GridModule</title>
<path fill="none" stroke="black" d="M1050.3,-122.27C1050.3,-140.56 1050.3,-166 1050.3,-166 1050.3,-166 539.16,-166 539.16,-166"/>
<polygon fill="black" stroke="black" points="539.16,-162.5 529.16,-166 539.15,-169.5 539.16,-162.5"/>
</g>
<!-- SacGridColumnActionComponent -->
<g id="node2" class="node">
<title>SacGridColumnActionComponent</title>
<polygon fill="#8dd3c7" stroke="black" points="920.42,-122 917.42,-126 896.42,-126 893.42,-122 709.58,-122 709.58,-86 920.42,-86 920.42,-122"/>
<text text-anchor="middle" x="815" y="-99.8" font-family="Times,serif" font-size="14.00">SacGridColumnActionComponent</text>
</g>
<!-- SacGridColumnActionComponent&#45;&gt;SACBootstrap3GridModule -->
<g id="edge2" class="edge">
<title>SacGridColumnActionComponent&#45;&gt;SACBootstrap3GridModule</title>
<path fill="none" stroke="black" d="M850.82,-122.01C850.82,-138.05 850.82,-159 850.82,-159 850.82,-159 538.95,-159 538.95,-159"/>
<polygon fill="black" stroke="black" points="538.95,-155.5 528.95,-159 538.95,-162.5 538.95,-155.5"/>
</g>
<!-- SacGridColumnComponent -->
<g id="node3" class="node">
<title>SacGridColumnComponent</title>
<polygon fill="#8dd3c7" stroke="black" points="692.32,-122 689.32,-126 668.32,-126 665.32,-122 519.68,-122 519.68,-86 692.32,-86 692.32,-122"/>
<text text-anchor="middle" x="606" y="-99.8" font-family="Times,serif" font-size="14.00">SacGridColumnComponent</text>
</g>
<!-- SacGridColumnComponent&#45;&gt;SACBootstrap3GridModule -->
<g id="edge3" class="edge">
<title>SacGridColumnComponent&#45;&gt;SACBootstrap3GridModule</title>
<path fill="none" stroke="black" d="M524.39,-122.11C524.39,-122.11 524.39,-140.99 524.39,-140.99"/>
<polygon fill="black" stroke="black" points="520.89,-140.99 524.39,-150.99 527.89,-140.99 520.89,-140.99"/>
</g>
<!-- SacGridComponent -->
<g id="node4" class="node">
<title>SacGridComponent</title>
<polygon fill="#8dd3c7" stroke="black" points="501.7,-122 498.7,-126 477.7,-126 474.7,-122 374.3,-122 374.3,-86 501.7,-86 501.7,-122"/>
<text text-anchor="middle" x="438" y="-99.8" font-family="Times,serif" font-size="14.00">SacGridComponent</text>
</g>
<!-- SacGridComponent&#45;&gt;SACBootstrap3GridModule -->
<g id="edge4" class="edge">
<title>SacGridComponent&#45;&gt;SACBootstrap3GridModule</title>
<path fill="none" stroke="black" d="M438,-122.11C438,-122.11 438,-140.99 438,-140.99"/>
<polygon fill="black" stroke="black" points="434.5,-140.99 438,-150.99 441.5,-140.99 434.5,-140.99"/>
</g>
<!-- SacGridImageComponent -->
<g id="node5" class="node">
<title>SacGridImageComponent</title>
<polygon fill="#8dd3c7" stroke="black" points="356.18,-122 353.18,-126 332.18,-126 329.18,-122 193.82,-122 193.82,-86 356.18,-86 356.18,-122"/>
<text text-anchor="middle" x="275" y="-99.8" font-family="Times,serif" font-size="14.00">SacGridImageComponent</text>
</g>
<!-- SacGridImageComponent&#45;&gt;SACBootstrap3GridModule -->
<g id="edge5" class="edge">
<title>SacGridImageComponent&#45;&gt;SACBootstrap3GridModule</title>
<path fill="none" stroke="black" d="M356.26,-104C361.8,-104 365.25,-104 365.25,-104 365.25,-104 365.25,-140.89 365.25,-140.89"/>
<polygon fill="black" stroke="black" points="361.75,-140.89 365.25,-150.89 368.75,-140.89 361.75,-140.89"/>
</g>
<!-- SacPagingComponent -->
<g id="node6" class="node">
<title>SacPagingComponent</title>
<polygon fill="#8dd3c7" stroke="black" points="176.43,-122 173.43,-126 152.43,-126 149.43,-122 35.57,-122 35.57,-86 176.43,-86 176.43,-122"/>
<text text-anchor="middle" x="106" y="-99.8" font-family="Times,serif" font-size="14.00">SacPagingComponent</text>
</g>
<!-- SacPagingComponent&#45;&gt;SACBootstrap3GridModule -->
<g id="edge6" class="edge">
<title>SacPagingComponent&#45;&gt;SACBootstrap3GridModule</title>
<path fill="none" stroke="black" d="M172.09,-122.02C172.09,-139.37 172.09,-163 172.09,-163 172.09,-163 345.11,-163 345.11,-163"/>
<polygon fill="black" stroke="black" points="345.11,-166.5 355.11,-163 345.11,-159.5 345.11,-166.5"/>
</g>
<!-- SacGridButtonComponent  -->
<g id="node8" class="node">
<title>SacGridButtonComponent </title>
<polygon fill="#fb8072" stroke="black" points="1112.32,-252 943.68,-252 943.68,-216 1112.32,-216 1112.32,-252"/>
<text text-anchor="middle" x="1028" y="-229.8" font-family="Times,serif" font-size="14.00">SacGridButtonComponent </text>
</g>
<!-- SACBootstrap3GridModule&#45;&gt;SacGridButtonComponent  -->
<g id="edge7" class="edge">
<title>SACBootstrap3GridModule&#45;&gt;SacGridButtonComponent </title>
<path fill="none" stroke="black" stroke-dasharray="5,2" d="M529.02,-173C685.2,-173 996.95,-173 996.95,-173 996.95,-173 996.95,-205.7 996.95,-205.7"/>
<polygon fill="black" stroke="black" points="993.45,-205.7 996.95,-215.7 1000.45,-205.7 993.45,-205.7"/>
</g>
<!-- SacGridColumnActionComponent  -->
<g id="node9" class="node">
<title>SacGridColumnActionComponent </title>
<polygon fill="#fb8072" stroke="black" points="925.92,-252 712.08,-252 712.08,-216 925.92,-216 925.92,-252"/>
<text text-anchor="middle" x="819" y="-229.8" font-family="Times,serif" font-size="14.00">SacGridColumnActionComponent </text>
</g>
<!-- SACBootstrap3GridModule&#45;&gt;SacGridColumnActionComponent  -->
<g id="edge8" class="edge">
<title>SACBootstrap3GridModule&#45;&gt;SacGridColumnActionComponent </title>
<path fill="none" stroke="black" stroke-dasharray="5,2" d="M528.97,-180C629.54,-180 781.43,-180 781.43,-180 781.43,-180 781.43,-205.72 781.43,-205.72"/>
<polygon fill="black" stroke="black" points="777.93,-205.72 781.43,-215.72 784.93,-205.72 777.93,-205.72"/>
</g>
<!-- SacGridColumnComponent  -->
<g id="node10" class="node">
<title>SacGridColumnComponent </title>
<polygon fill="#fb8072" stroke="black" points="693.82,-252 518.18,-252 518.18,-216 693.82,-216 693.82,-252"/>
<text text-anchor="middle" x="606" y="-229.8" font-family="Times,serif" font-size="14.00">SacGridColumnComponent </text>
</g>
<!-- SACBootstrap3GridModule&#45;&gt;SacGridColumnComponent  -->
<g id="edge9" class="edge">
<title>SACBootstrap3GridModule&#45;&gt;SacGridColumnComponent </title>
<path fill="none" stroke="black" stroke-dasharray="5,2" d="M523.51,-187.11C523.51,-187.11 523.51,-205.99 523.51,-205.99"/>
<polygon fill="black" stroke="black" points="520.01,-205.99 523.51,-215.99 527.01,-205.99 520.01,-205.99"/>
</g>
<!-- SacGridComponent  -->
<g id="node11" class="node">
<title>SacGridComponent </title>
<polygon fill="#fb8072" stroke="black" points="500.2,-252 369.8,-252 369.8,-216 500.2,-216 500.2,-252"/>
<text text-anchor="middle" x="435" y="-229.8" font-family="Times,serif" font-size="14.00">SacGridComponent </text>
</g>
<!-- SACBootstrap3GridModule&#45;&gt;SacGridComponent  -->
<g id="edge10" class="edge">
<title>SACBootstrap3GridModule&#45;&gt;SacGridComponent </title>
<path fill="none" stroke="black" stroke-dasharray="5,2" d="M435,-187.11C435,-187.11 435,-205.99 435,-205.99"/>
<polygon fill="black" stroke="black" points="431.5,-205.99 435,-215.99 438.5,-205.99 431.5,-205.99"/>
</g>
<!-- SacGridImageComponent  -->
<g id="node12" class="node">
<title>SacGridImageComponent </title>
<polygon fill="#fb8072" stroke="black" points="351.68,-252 186.32,-252 186.32,-216 351.68,-216 351.68,-252"/>
<text text-anchor="middle" x="269" y="-229.8" font-family="Times,serif" font-size="14.00">SacGridImageComponent </text>
</g>
<!-- SACBootstrap3GridModule&#45;&gt;SacGridImageComponent  -->
<g id="edge11" class="edge">
<title>SACBootstrap3GridModule&#45;&gt;SacGridImageComponent </title>
<path fill="none" stroke="black" stroke-dasharray="5,2" d="M362.36,-187.11C362.36,-206.34 362.36,-234 362.36,-234 362.36,-234 361.32,-234 361.32,-234"/>
<polygon fill="black" stroke="black" points="362.01,-230.5 352.01,-234 362.01,-237.5 362.01,-230.5"/>
</g>
<!-- SacPagingComponent  -->
<g id="node13" class="node">
<title>SacPagingComponent </title>
<polygon fill="#fb8072" stroke="black" points="167.93,-252 24.07,-252 24.07,-216 167.93,-216 167.93,-252"/>
<text text-anchor="middle" x="96" y="-229.8" font-family="Times,serif" font-size="14.00">SacPagingComponent </text>
</g>
<!-- SACBootstrap3GridModule&#45;&gt;SacPagingComponent  -->
<g id="edge12" class="edge">
<title>SACBootstrap3GridModule&#45;&gt;SacPagingComponent </title>
<path fill="none" stroke="black" stroke-dasharray="5,2" d="M354.85,-175C254.08,-175 101.88,-175 101.88,-175 101.88,-175 101.88,-205.98 101.88,-205.98"/>
<polygon fill="black" stroke="black" points="98.38,-205.98 101.88,-215.98 105.38,-205.98 98.38,-205.98"/>
</g>
</g>
</svg>
