<?xml version="1.0" encoding="UTF-8" standalone="no"?>
<!DOCTYPE svg PUBLIC "-//W3C//DTD SVG 1.1//EN"
 "http://www.w3.org/Graphics/SVG/1.1/DTD/svg11.dtd">
<!-- Generated by graphviz version 2.47.0 (20210316.0004)
 -->
<!-- Title: dependencies Pages: 1 -->
<svg width="600pt" height="284pt"
 viewBox="0.00 0.00 600.00 284.00" xmlns="http://www.w3.org/2000/svg" xmlns:xlink="http://www.w3.org/1999/xlink">
<g id="graph0" class="graph" transform="scale(1 1) rotate(0) translate(4 280)">
<title>dependencies</title>
<polygon fill="white" stroke="transparent" points="-4,4 -4,-280 596,-280 596,4 -4,4"/>
<text text-anchor="start" x="275.01" y="-42.4" font-family="Times-12" font-weight="bold" font-size="14.00">Legend</text>
<polygon fill="#ffffb3" stroke="transparent" points="62,-10 62,-30 82,-30 82,-10 62,-10"/>
<text text-anchor="start" x="85.63" y="-15.4" font-family="Times-12" font-size="14.00"> &#160;Declarations</text>
<polygon fill="#8dd3c7" stroke="transparent" points="175,-10 175,-30 195,-30 195,-10 175,-10"/>
<text text-anchor="start" x="198.73" y="-15.4" font-family="Times-12" font-size="14.00"> &#160;Module</text>
<polygon fill="#80b1d3" stroke="transparent" points="261,-10 261,-30 281,-30 281,-10 261,-10"/>
<text text-anchor="start" x="284.78" y="-15.4" font-family="Times-12" font-size="14.00"> &#160;Bootstrap</text>
<polygon fill="#fdb462" stroke="transparent" points="358,-10 358,-30 378,-30 378,-10 358,-10"/>
<text text-anchor="start" x="381.67" y="-15.4" font-family="Times-12" font-size="14.00"> &#160;Providers</text>
<polygon fill="#fb8072" stroke="transparent" points="454,-10 454,-30 474,-30 474,-10 454,-10"/>
<text text-anchor="start" x="477.73" y="-15.4" font-family="Times-12" font-size="14.00"> &#160;Exports</text>
<g id="clust1" class="cluster">
<title>cluster_SACBootstrap5LayoutModule</title>
<polygon fill="none" stroke="black" stroke-dasharray="1,5" points="8,-70 8,-268 584,-268 584,-70 8,-70"/>
</g>
<g id="clust7" class="cluster">
<title>cluster_SACBootstrap5LayoutModule_exports</title>
<polygon fill="none" stroke="black" points="16,-208 16,-260 576,-260 576,-208 16,-208"/>
</g>
<g id="clust2" class="cluster">
<title>cluster_SACBootstrap5LayoutModule_declarations</title>
<polygon fill="none" stroke="black" points="22,-78 22,-130 570,-130 570,-78 22,-78"/>
</g>
<!-- SacFormLayoutDirective -->
<g id="node1" class="node">
<title>SacFormLayoutDirective</title>
<polygon fill="#ffffb3" stroke="black" points="562.29,-122 403.71,-122 403.71,-86 562.29,-86 562.29,-122"/>
<text text-anchor="middle" x="483" y="-99.8" font-family="Times,serif" font-size="14.00">SacFormLayoutDirective</text>
</g>
<!-- SACBootstrap5LayoutModule -->
<g id="node4" class="node">
<title>SACBootstrap5LayoutModule</title>
<polygon fill="#8dd3c7" stroke="black" points="392.87,-187 389.87,-191 368.87,-191 365.87,-187 205.13,-187 205.13,-151 392.87,-151 392.87,-187"/>
<text text-anchor="middle" x="299" y="-164.8" font-family="Times,serif" font-size="14.00">SACBootstrap5LayoutModule</text>
</g>
<!-- SacFormLayoutDirective&#45;&gt;SACBootstrap5LayoutModule -->
<g id="edge1" class="edge">
<title>SacFormLayoutDirective&#45;&gt;SACBootstrap5LayoutModule</title>
<path fill="none" stroke="black" d="M510.13,-122.02C510.13,-139.37 510.13,-163 510.13,-163 510.13,-163 403.14,-163 403.14,-163"/>
<polygon fill="black" stroke="black" points="403.14,-159.5 393.14,-163 403.14,-166.5 403.14,-159.5"/>
</g>
<!-- SacToControlWidthCssPipe -->
<g id="node2" class="node">
<title>SacToControlWidthCssPipe</title>
<polygon fill="#ffffb3" stroke="black" points="386.15,-122 211.85,-122 211.85,-86 386.15,-86 386.15,-122"/>
<text text-anchor="middle" x="299" y="-99.8" font-family="Times,serif" font-size="14.00">SacToControlWidthCssPipe</text>
</g>
<!-- SacToControlWidthCssPipe&#45;&gt;SACBootstrap5LayoutModule -->
<g id="edge2" class="edge">
<title>SacToControlWidthCssPipe&#45;&gt;SACBootstrap5LayoutModule</title>
<path fill="none" stroke="black" d="M299,-122.11C299,-122.11 299,-140.99 299,-140.99"/>
<polygon fill="black" stroke="black" points="295.5,-140.99 299,-150.99 302.5,-140.99 295.5,-140.99"/>
</g>
<!-- SacToLabelWidthCssPipe -->
<g id="node3" class="node">
<title>SacToLabelWidthCssPipe</title>
<polygon fill="#ffffb3" stroke="black" points="193.75,-122 30.25,-122 30.25,-86 193.75,-86 193.75,-122"/>
<text text-anchor="middle" x="112" y="-99.8" font-family="Times,serif" font-size="14.00">SacToLabelWidthCssPipe</text>
</g>
<!-- SacToLabelWidthCssPipe&#45;&gt;SACBootstrap5LayoutModule -->
<g id="edge3" class="edge">
<title>SacToLabelWidthCssPipe&#45;&gt;SACBootstrap5LayoutModule</title>
<path fill="none" stroke="black" d="M137.79,-122.02C137.79,-139.37 137.79,-163 137.79,-163 137.79,-163 194.76,-163 194.76,-163"/>
<polygon fill="black" stroke="black" points="194.76,-166.5 204.76,-163 194.76,-159.5 194.76,-166.5"/>
</g>
<!-- SacFormLayoutDirective  -->
<g id="node5" class="node">
<title>SacFormLayoutDirective </title>
<polygon fill="#fb8072" stroke="black" points="567.79,-252 406.21,-252 406.21,-216 567.79,-216 567.79,-252"/>
<text text-anchor="middle" x="487" y="-229.8" font-family="Times,serif" font-size="14.00">SacFormLayoutDirective </text>
</g>
<!-- SACBootstrap5LayoutModule&#45;&gt;SacFormLayoutDirective  -->
<g id="edge4" class="edge">
<title>SACBootstrap5LayoutModule&#45;&gt;SacFormLayoutDirective </title>
<path fill="none" stroke="black" stroke-dasharray="5,2" d="M392.94,-175C427.39,-175 458.12,-175 458.12,-175 458.12,-175 458.12,-205.98 458.12,-205.98"/>
<polygon fill="black" stroke="black" points="454.62,-205.98 458.12,-215.98 461.62,-205.98 454.62,-205.98"/>
</g>
<!-- SacToControlWidthCssPipe  -->
<g id="node6" class="node">
<title>SacToControlWidthCssPipe </title>
<polygon fill="#fb8072" stroke="black" points="388.15,-252 209.85,-252 209.85,-216 388.15,-216 388.15,-252"/>
<text text-anchor="middle" x="299" y="-229.8" font-family="Times,serif" font-size="14.00">SacToControlWidthCssPipe </text>
</g>
<!-- SACBootstrap5LayoutModule&#45;&gt;SacToControlWidthCssPipe  -->
<g id="edge5" class="edge">
<title>SACBootstrap5LayoutModule&#45;&gt;SacToControlWidthCssPipe </title>
<path fill="none" stroke="black" stroke-dasharray="5,2" d="M299,-187.11C299,-187.11 299,-205.99 299,-205.99"/>
<polygon fill="black" stroke="black" points="295.5,-205.99 299,-215.99 302.5,-205.99 295.5,-205.99"/>
</g>
<!-- SacToLabelWidthCssPipe  -->
<g id="node7" class="node">
<title>SacToLabelWidthCssPipe </title>
<polygon fill="#fb8072" stroke="black" points="191.75,-252 24.25,-252 24.25,-216 191.75,-216 191.75,-252"/>
<text text-anchor="middle" x="108" y="-229.8" font-family="Times,serif" font-size="14.00">SacToLabelWidthCssPipe </text>
</g>
<!-- SACBootstrap5LayoutModule&#45;&gt;SacToLabelWidthCssPipe  -->
<g id="edge6" class="edge">
<title>SACBootstrap5LayoutModule&#45;&gt;SacToLabelWidthCssPipe </title>
<path fill="none" stroke="black" stroke-dasharray="5,2" d="M204.99,-175C147.13,-175 83.96,-175 83.96,-175 83.96,-175 83.96,-205.98 83.96,-205.98"/>
<polygon fill="black" stroke="black" points="80.46,-205.98 83.96,-215.98 87.46,-205.98 80.46,-205.98"/>
</g>
</g>
</svg>
