<?xml version="1.0" encoding="UTF-8" standalone="no"?>
<!DOCTYPE svg PUBLIC "-//W3C//DTD SVG 1.1//EN"
 "http://www.w3.org/Graphics/SVG/1.1/DTD/svg11.dtd">
<!-- Generated by graphviz version 2.47.3 (20210619.1520)
 -->
<!-- Title: dependencies Pages: 1 -->
<svg width="348pt" height="247pt"
 viewBox="0.00 0.00 348.00 246.80" xmlns="http://www.w3.org/2000/svg" xmlns:xlink="http://www.w3.org/1999/xlink">
<g id="graph0" class="graph" transform="scale(1 1) rotate(0) translate(4 242.8)">
<title>dependencies</title>
<polygon fill="white" stroke="transparent" points="-4,4 -4,-242.8 344,-242.8 344,4 -4,4"/>
<text text-anchor="middle" x="170" y="-8.2" font-family="sans-serif" font-size="14.00">dependencies</text>
<g id="clust1" class="cluster">
<title>cluster_JNetworkBootstrap4TabsModule</title>
<polygon fill="none" stroke="black" stroke-dasharray="1,5" points="8,-32.8 8,-230.8 332,-230.8 332,-32.8 8,-32.8"/>
</g>
<g id="clust6" class="cluster">
<title>cluster_JNetworkBootstrap4TabsModule_exports</title>
<polygon fill="none" stroke="black" points="16,-170.8 16,-222.8 324,-222.8 324,-170.8 16,-170.8"/>
</g>
<g id="clust2" class="cluster">
<title>cluster_JNetworkBootstrap4TabsModule_declarations</title>
<polygon fill="none" stroke="black" points="20,-40.8 20,-92.8 320,-92.8 320,-40.8 20,-40.8"/>
</g>
<!-- NgTabComponent -->
<g id="node1" class="node">
<title>NgTabComponent</title>
<polygon fill="#ffffb3" stroke="black" points="312.21,-84.8 191.79,-84.8 191.79,-48.8 312.21,-48.8 312.21,-84.8"/>
<text text-anchor="middle" x="252" y="-62.6" font-family="Times,serif" font-size="14.00">NgTabComponent</text>
</g>
<!-- JNetworkBootstrap4TabsModule -->
<g id="node3" class="node">
<title>JNetworkBootstrap4TabsModule</title>
<polygon fill="#8dd3c7" stroke="black" points="271.12,-149.8 268.12,-153.8 247.12,-153.8 244.12,-149.8 68.88,-149.8 68.88,-113.8 271.12,-113.8 271.12,-149.8"/>
<text text-anchor="middle" x="170" y="-127.6" font-family="Times,serif" font-size="14.00">JNetworkBootstrap4TabsModule</text>
</g>
<!-- NgTabComponent&#45;&gt;JNetworkBootstrap4TabsModule -->
<g id="edge1" class="edge">
<title>NgTabComponent&#45;&gt;JNetworkBootstrap4TabsModule</title>
<path fill="none" stroke="black" d="M231.6,-84.91C231.6,-84.91 231.6,-103.79 231.6,-103.79"/>
<polygon fill="black" stroke="black" points="228.1,-103.79 231.6,-113.79 235.1,-103.79 228.1,-103.79"/>
</g>
<!-- NgTabItemComponent -->
<g id="node2" class="node">
<title>NgTabItemComponent</title>
<polygon fill="#ffffb3" stroke="black" points="173.86,-84.8 28.14,-84.8 28.14,-48.8 173.86,-48.8 173.86,-84.8"/>
<text text-anchor="middle" x="101" y="-62.6" font-family="Times,serif" font-size="14.00">NgTabItemComponent</text>
</g>
<!-- NgTabItemComponent&#45;&gt;JNetworkBootstrap4TabsModule -->
<g id="edge2" class="edge">
<title>NgTabItemComponent&#45;&gt;JNetworkBootstrap4TabsModule</title>
<path fill="none" stroke="black" d="M121.31,-84.91C121.31,-84.91 121.31,-103.79 121.31,-103.79"/>
<polygon fill="black" stroke="black" points="117.81,-103.79 121.31,-113.79 124.81,-103.79 117.81,-103.79"/>
</g>
<!-- NgTabComponent  -->
<g id="node4" class="node">
<title>NgTabComponent </title>
<polygon fill="#fb8072" stroke="black" points="315.71,-214.8 192.29,-214.8 192.29,-178.8 315.71,-178.8 315.71,-214.8"/>
<text text-anchor="middle" x="254" y="-192.6" font-family="Times,serif" font-size="14.00">NgTabComponent </text>
</g>
<!-- JNetworkBootstrap4TabsModule&#45;&gt;NgTabComponent  -->
<g id="edge3" class="edge">
<title>JNetworkBootstrap4TabsModule&#45;&gt;NgTabComponent </title>
<path fill="none" stroke="black" stroke-dasharray="5,2" d="M231.73,-149.91C231.73,-149.91 231.73,-168.79 231.73,-168.79"/>
<polygon fill="black" stroke="black" points="228.23,-168.79 231.73,-178.79 235.23,-168.79 228.23,-168.79"/>
</g>
<!-- NgTabItemComponent  -->
<g id="node5" class="node">
<title>NgTabItemComponent </title>
<polygon fill="#fb8072" stroke="black" points="173.86,-214.8 24.14,-214.8 24.14,-178.8 173.86,-178.8 173.86,-214.8"/>
<text text-anchor="middle" x="99" y="-192.6" font-family="Times,serif" font-size="14.00">NgTabItemComponent </text>
</g>
<!-- JNetworkBootstrap4TabsModule&#45;&gt;NgTabItemComponent  -->
<g id="edge4" class="edge">
<title>JNetworkBootstrap4TabsModule&#45;&gt;NgTabItemComponent </title>
<path fill="none" stroke="black" stroke-dasharray="5,2" d="M121.18,-149.91C121.18,-149.91 121.18,-168.79 121.18,-168.79"/>
<polygon fill="black" stroke="black" points="117.69,-168.79 121.18,-178.79 124.69,-168.79 117.69,-168.79"/>
</g>
</g>
</svg>
