<?xml version="1.0" encoding="UTF-8" standalone="no"?>
<!DOCTYPE svg PUBLIC "-//W3C//DTD SVG 1.1//EN"
 "http://www.w3.org/Graphics/SVG/1.1/DTD/svg11.dtd">
<!-- Generated by graphviz version 2.40.1 (20161225.0304)
 -->
<!-- Title: dependencies Pages: 1 -->
<svg width="504pt" height="284pt"
 viewBox="0.00 0.00 504.00 284.00" xmlns="http://www.w3.org/2000/svg" xmlns:xlink="http://www.w3.org/1999/xlink">
<g id="graph0" class="graph" transform="scale(1 1) rotate(0) translate(4 280)">
<title>dependencies</title>
<polygon fill="#ffffff" stroke="transparent" points="-4,4 -4,-280 500,-280 500,4 -4,4"/>
<text text-anchor="start" x="227.0091" y="-42.4" font-family="sans-serif" font-weight="bold" font-size="14.00" fill="#000000">Legend</text>
<polygon fill="#ffffb3" stroke="transparent" points="14,-10 14,-30 34,-30 34,-10 14,-10"/>
<text text-anchor="start" x="37.629" y="-15.4" font-family="sans-serif" font-size="14.00" fill="#000000"> &#160;Declarations</text>
<polygon fill="#8dd3c7" stroke="transparent" points="127,-10 127,-30 147,-30 147,-10 127,-10"/>
<text text-anchor="start" x="150.7251" y="-15.4" font-family="sans-serif" font-size="14.00" fill="#000000"> &#160;Module</text>
<polygon fill="#80b1d3" stroke="transparent" points="213,-10 213,-30 233,-30 233,-10 213,-10"/>
<text text-anchor="start" x="236.7812" y="-15.4" font-family="sans-serif" font-size="14.00" fill="#000000"> &#160;Bootstrap</text>
<polygon fill="#fdb462" stroke="transparent" points="310,-10 310,-30 330,-30 330,-10 310,-10"/>
<text text-anchor="start" x="333.6732" y="-15.4" font-family="sans-serif" font-size="14.00" fill="#000000"> &#160;Providers</text>
<polygon fill="#fb8072" stroke="transparent" points="406,-10 406,-30 426,-30 426,-10 406,-10"/>
<text text-anchor="start" x="429.7258" y="-15.4" font-family="sans-serif" font-size="14.00" fill="#000000"> &#160;Exports</text>
<g id="clust1" class="cluster">
<title>cluster_JNetworkBootstrap4TabsModule</title>
<polygon fill="none" stroke="#000000" stroke-dasharray="1,5" points="86,-70 86,-268 410,-268 410,-70 86,-70"/>
</g>
<g id="clust2" class="cluster">
<title>cluster_JNetworkBootstrap4TabsModule_declarations</title>
<polygon fill="none" stroke="#000000" points="98,-78 98,-130 398,-130 398,-78 98,-78"/>
</g>
<g id="clust6" class="cluster">
<title>cluster_JNetworkBootstrap4TabsModule_exports</title>
<polygon fill="none" stroke="#000000" points="94,-208 94,-260 402,-260 402,-208 94,-208"/>
</g>
<!-- NgTabComponent -->
<g id="node1" class="node">
<title>NgTabComponent</title>
<polygon fill="#ffffb3" stroke="#000000" points="390.2064,-122 269.7936,-122 269.7936,-86 390.2064,-86 390.2064,-122"/>
<text text-anchor="middle" x="330" y="-99.8" font-family="Times,serif" font-size="14.00" fill="#000000">NgTabComponent</text>
</g>
<!-- JNetworkBootstrap4TabsModule -->
<g id="node3" class="node">
<title>JNetworkBootstrap4TabsModule</title>
<polygon fill="#8dd3c7" stroke="#000000" points="349.1232,-187 346.1232,-191 325.1232,-191 322.1232,-187 146.8768,-187 146.8768,-151 349.1232,-151 349.1232,-187"/>
<text text-anchor="middle" x="248" y="-164.8" font-family="Times,serif" font-size="14.00" fill="#000000">JNetworkBootstrap4TabsModule</text>
</g>
<!-- NgTabComponent&#45;&gt;JNetworkBootstrap4TabsModule -->
<g id="edge1" class="edge">
<title>NgTabComponent&#45;&gt;JNetworkBootstrap4TabsModule</title>
<path fill="none" stroke="#000000" d="M309.6042,-122.1061C309.6042,-122.1061 309.6042,-140.991 309.6042,-140.991"/>
<polygon fill="#000000" stroke="#000000" points="306.1042,-140.9909 309.6042,-150.991 313.1042,-140.991 306.1042,-140.9909"/>
</g>
<!-- NgTabItemComponent -->
<g id="node2" class="node">
<title>NgTabItemComponent</title>
<polygon fill="#ffffb3" stroke="#000000" points="251.8627,-122 106.1373,-122 106.1373,-86 251.8627,-86 251.8627,-122"/>
<text text-anchor="middle" x="179" y="-99.8" font-family="Times,serif" font-size="14.00" fill="#000000">NgTabItemComponent</text>
</g>
<!-- NgTabItemComponent&#45;&gt;JNetworkBootstrap4TabsModule -->
<g id="edge2" class="edge">
<title>NgTabItemComponent&#45;&gt;JNetworkBootstrap4TabsModule</title>
<path fill="none" stroke="#000000" d="M199.31,-122.1061C199.31,-122.1061 199.31,-140.991 199.31,-140.991"/>
<polygon fill="#000000" stroke="#000000" points="195.81,-140.9909 199.31,-150.991 202.81,-140.991 195.81,-140.9909"/>
</g>
<!-- NgTabComponent  -->
<g id="node4" class="node">
<title>NgTabComponent </title>
<polygon fill="#fb8072" stroke="#000000" points="393.7065,-252 270.2935,-252 270.2935,-216 393.7065,-216 393.7065,-252"/>
<text text-anchor="middle" x="332" y="-229.8" font-family="Times,serif" font-size="14.00" fill="#000000">NgTabComponent </text>
</g>
<!-- JNetworkBootstrap4TabsModule&#45;&gt;NgTabComponent  -->
<g id="edge3" class="edge">
<title>JNetworkBootstrap4TabsModule&#45;&gt;NgTabComponent </title>
<path fill="none" stroke="#000000" stroke-dasharray="5,2" d="M309.7292,-187.1061C309.7292,-187.1061 309.7292,-205.991 309.7292,-205.991"/>
<polygon fill="#000000" stroke="#000000" points="306.2292,-205.9909 309.7292,-215.991 313.2292,-205.991 306.2292,-205.9909"/>
</g>
<!-- NgTabItemComponent  -->
<g id="node5" class="node">
<title>NgTabItemComponent </title>
<polygon fill="#fb8072" stroke="#000000" points="251.863,-252 102.137,-252 102.137,-216 251.863,-216 251.863,-252"/>
<text text-anchor="middle" x="177" y="-229.8" font-family="Times,serif" font-size="14.00" fill="#000000">NgTabItemComponent </text>
</g>
<!-- JNetworkBootstrap4TabsModule&#45;&gt;NgTabItemComponent  -->
<g id="edge4" class="edge">
<title>JNetworkBootstrap4TabsModule&#45;&gt;NgTabItemComponent </title>
<path fill="none" stroke="#000000" stroke-dasharray="5,2" d="M199.185,-187.1061C199.185,-187.1061 199.185,-205.991 199.185,-205.991"/>
<polygon fill="#000000" stroke="#000000" points="195.685,-205.9909 199.185,-215.991 202.685,-205.991 195.685,-205.9909"/>
</g>
</g>
</svg>
