<?xml version="1.0" encoding="UTF-8" standalone="no"?>
<!DOCTYPE svg PUBLIC "-//W3C//DTD SVG 1.1//EN"
 "http://www.w3.org/Graphics/SVG/1.1/DTD/svg11.dtd">
<!-- Generated by graphviz version 2.47.3 (20210619.1520)
 -->
<!-- Title: dependencies Pages: 1 -->
<svg width="464pt" height="174pt"
 viewBox="0.00 0.00 464.00 173.80" xmlns="http://www.w3.org/2000/svg" xmlns:xlink="http://www.w3.org/1999/xlink">
<g id="graph0" class="graph" transform="scale(1 1) rotate(0) translate(4 169.8)">
<title>dependencies</title>
<polygon fill="white" stroke="transparent" points="-4,4 -4,-169.8 460,-169.8 460,4 -4,4"/>
<text text-anchor="middle" x="228" y="-8.2" font-family="sans-serif" font-size="14.00">dependencies</text>
<g id="clust1" class="cluster">
<title>cluster_MultilanguageModule</title>
<polygon fill="none" stroke="black" stroke-dasharray="1,5" points="8,-32.8 8,-157.8 448,-157.8 448,-32.8 8,-32.8"/>
</g>
<g id="clust4" class="cluster">
<title>cluster_MultilanguageModule_imports</title>
<polygon fill="none" stroke="black" points="238,-40.8 238,-92.8 440,-92.8 440,-40.8 238,-40.8"/>
</g>
<g id="clust2" class="cluster">
<title>cluster_MultilanguageModule_declarations</title>
<polygon fill="none" stroke="black" points="16,-40.8 16,-92.8 230,-92.8 230,-40.8 16,-40.8"/>
</g>
<!-- DemoMultilanguageComponent -->
<g id="node1" class="node">
<title>DemoMultilanguageComponent</title>
<polygon fill="#ffffb3" stroke="black" points="221.7,-84.8 24.3,-84.8 24.3,-48.8 221.7,-48.8 221.7,-84.8"/>
<text text-anchor="middle" x="123" y="-62.6" font-family="Times,serif" font-size="14.00">DemoMultilanguageComponent</text>
</g>
<!-- MultilanguageModule -->
<g id="node2" class="node">
<title>MultilanguageModule</title>
<polygon fill="#8dd3c7" stroke="black" points="301.7,-149.8 298.7,-153.8 277.7,-153.8 274.7,-149.8 160.3,-149.8 160.3,-113.8 301.7,-113.8 301.7,-149.8"/>
<text text-anchor="middle" x="231" y="-127.6" font-family="Times,serif" font-size="14.00">MultilanguageModule</text>
</g>
<!-- DemoMultilanguageComponent&#45;&gt;MultilanguageModule -->
<g id="edge1" class="edge">
<title>DemoMultilanguageComponent&#45;&gt;MultilanguageModule</title>
<path fill="none" stroke="black" d="M191,-84.91C191,-84.91 191,-103.79 191,-103.79"/>
<polygon fill="black" stroke="black" points="187.5,-103.79 191,-113.79 194.5,-103.79 187.5,-103.79"/>
</g>
<!-- MultilanguageRoutingModule -->
<g id="node3" class="node">
<title>MultilanguageRoutingModule</title>
<polygon fill="#8dd3c7" stroke="black" points="432.32,-84.8 429.32,-88.8 408.32,-88.8 405.32,-84.8 245.68,-84.8 245.68,-48.8 432.32,-48.8 432.32,-84.8"/>
<text text-anchor="middle" x="339" y="-62.6" font-family="Times,serif" font-size="14.00">MultilanguageRoutingModule</text>
</g>
<!-- MultilanguageRoutingModule&#45;&gt;MultilanguageModule -->
<g id="edge2" class="edge">
<title>MultilanguageRoutingModule&#45;&gt;MultilanguageModule</title>
<path fill="none" stroke="black" d="M273.72,-84.91C273.72,-84.91 273.72,-103.79 273.72,-103.79"/>
<polygon fill="black" stroke="black" points="270.22,-103.79 273.72,-113.79 277.22,-103.79 270.22,-103.79"/>
</g>
</g>
</svg>
