<?xml version="1.0" encoding="UTF-8" standalone="no"?>
<!DOCTYPE svg PUBLIC "-//W3C//DTD SVG 1.1//EN"
 "http://www.w3.org/Graphics/SVG/1.1/DTD/svg11.dtd">
<!-- Generated by graphviz version 2.47.0 (20210316.0004)
 -->
<!-- Title: dependencies Pages: 1 -->
<svg width="616pt" height="284pt"
 viewBox="0.00 0.00 616.00 284.00" xmlns="http://www.w3.org/2000/svg" xmlns:xlink="http://www.w3.org/1999/xlink">
<g id="graph0" class="graph" transform="scale(1 1) rotate(0) translate(4 280)">
<title>dependencies</title>
<polygon fill="white" stroke="transparent" points="-4,4 -4,-280 612,-280 612,4 -4,4"/>
<text text-anchor="start" x="283.01" y="-42.4" font-family="Times-12" font-weight="bold" font-size="14.00">Legend</text>
<polygon fill="#ffffb3" stroke="transparent" points="70,-10 70,-30 90,-30 90,-10 70,-10"/>
<text text-anchor="start" x="93.63" y="-15.4" font-family="Times-12" font-size="14.00"> &#160;Declarations</text>
<polygon fill="#8dd3c7" stroke="transparent" points="183,-10 183,-30 203,-30 203,-10 183,-10"/>
<text text-anchor="start" x="206.73" y="-15.4" font-family="Times-12" font-size="14.00"> &#160;Module</text>
<polygon fill="#80b1d3" stroke="transparent" points="269,-10 269,-30 289,-30 289,-10 269,-10"/>
<text text-anchor="start" x="292.78" y="-15.4" font-family="Times-12" font-size="14.00"> &#160;Bootstrap</text>
<polygon fill="#fdb462" stroke="transparent" points="366,-10 366,-30 386,-30 386,-10 366,-10"/>
<text text-anchor="start" x="389.67" y="-15.4" font-family="Times-12" font-size="14.00"> &#160;Providers</text>
<polygon fill="#fb8072" stroke="transparent" points="462,-10 462,-30 482,-30 482,-10 462,-10"/>
<text text-anchor="start" x="485.73" y="-15.4" font-family="Times-12" font-size="14.00"> &#160;Exports</text>
<g id="clust1" class="cluster">
<title>cluster_SACBootstrap4ConfirmModule</title>
<polygon fill="none" stroke="black" stroke-dasharray="1,5" points="8,-70 8,-268 600,-268 600,-70 8,-70"/>
</g>
<g id="clust4" class="cluster">
<title>cluster_SACBootstrap4ConfirmModule_imports</title>
<polygon fill="none" stroke="black" points="186,-78 186,-130 592,-130 592,-78 186,-78"/>
</g>
<g id="clust2" class="cluster">
<title>cluster_SACBootstrap4ConfirmModule_declarations</title>
<polygon fill="none" stroke="black" points="16,-78 16,-130 178,-130 178,-78 16,-78"/>
</g>
<g id="clust5" class="cluster">
<title>cluster_SACBootstrap4ConfirmModule_exports</title>
<polygon fill="none" stroke="black" points="204,-208 204,-260 370,-260 370,-208 204,-208"/>
</g>
<!-- NgConfirmComponent -->
<g id="node1" class="node">
<title>NgConfirmComponent</title>
<polygon fill="#ffffb3" stroke="black" points="169.88,-122 24.12,-122 24.12,-86 169.88,-86 169.88,-122"/>
<text text-anchor="middle" x="97" y="-99.8" font-family="Times,serif" font-size="14.00">NgConfirmComponent</text>
</g>
<!-- SACBootstrap4ConfirmModule -->
<g id="node2" class="node">
<title>SACBootstrap4ConfirmModule</title>
<polygon fill="#8dd3c7" stroke="black" points="384.65,-187 381.65,-191 360.65,-191 357.65,-187 189.35,-187 189.35,-151 384.65,-151 384.65,-187"/>
<text text-anchor="middle" x="287" y="-164.8" font-family="Times,serif" font-size="14.00">SACBootstrap4ConfirmModule</text>
</g>
<!-- NgConfirmComponent&#45;&gt;SACBootstrap4ConfirmModule -->
<g id="edge1" class="edge">
<title>NgConfirmComponent&#45;&gt;SACBootstrap4ConfirmModule</title>
<path fill="none" stroke="black" d="M97,-122.11C97,-141.34 97,-169 97,-169 97,-169 179.22,-169 179.22,-169"/>
<polygon fill="black" stroke="black" points="179.22,-172.5 189.22,-169 179.22,-165.5 179.22,-172.5"/>
</g>
<!-- NgConfirmComponent  -->
<g id="node5" class="node">
<title>NgConfirmComponent </title>
<polygon fill="#fb8072" stroke="black" points="361.88,-252 212.12,-252 212.12,-216 361.88,-216 361.88,-252"/>
<text text-anchor="middle" x="287" y="-229.8" font-family="Times,serif" font-size="14.00">NgConfirmComponent </text>
</g>
<!-- SACBootstrap4ConfirmModule&#45;&gt;NgConfirmComponent  -->
<g id="edge4" class="edge">
<title>SACBootstrap4ConfirmModule&#45;&gt;NgConfirmComponent </title>
<path fill="none" stroke="black" stroke-dasharray="5,2" d="M287,-187.11C287,-187.11 287,-205.99 287,-205.99"/>
<polygon fill="black" stroke="black" points="283.5,-205.99 287,-215.99 290.5,-205.99 283.5,-205.99"/>
</g>
<!-- SACBootstrap4ButtonModule -->
<g id="node3" class="node">
<title>SACBootstrap4ButtonModule</title>
<polygon fill="#8dd3c7" stroke="black" points="584.33,-122 581.33,-126 560.33,-126 557.33,-122 397.67,-122 397.67,-86 584.33,-86 584.33,-122"/>
<text text-anchor="middle" x="491" y="-99.8" font-family="Times,serif" font-size="14.00">SACBootstrap4ButtonModule</text>
</g>
<!-- SACBootstrap4ButtonModule&#45;&gt;SACBootstrap4ConfirmModule -->
<g id="edge2" class="edge">
<title>SACBootstrap4ButtonModule&#45;&gt;SACBootstrap4ConfirmModule</title>
<path fill="none" stroke="black" d="M491,-122.11C491,-141.34 491,-169 491,-169 491,-169 394.82,-169 394.82,-169"/>
<polygon fill="black" stroke="black" points="394.82,-165.5 384.82,-169 394.82,-172.5 394.82,-165.5"/>
</g>
<!-- SACBootstrap4DialogModule -->
<g id="node4" class="node">
<title>SACBootstrap4DialogModule</title>
<polygon fill="#8dd3c7" stroke="black" points="380.32,-122 377.32,-126 356.32,-126 353.32,-122 193.68,-122 193.68,-86 380.32,-86 380.32,-122"/>
<text text-anchor="middle" x="287" y="-99.8" font-family="Times,serif" font-size="14.00">SACBootstrap4DialogModule</text>
</g>
<!-- SACBootstrap4DialogModule&#45;&gt;SACBootstrap4ConfirmModule -->
<g id="edge3" class="edge">
<title>SACBootstrap4DialogModule&#45;&gt;SACBootstrap4ConfirmModule</title>
<path fill="none" stroke="black" d="M287,-122.11C287,-122.11 287,-140.99 287,-140.99"/>
<polygon fill="black" stroke="black" points="283.5,-140.99 287,-150.99 290.5,-140.99 283.5,-140.99"/>
</g>
</g>
</svg>
