<?xml version="1.0" encoding="UTF-8" standalone="no"?>
<!DOCTYPE svg PUBLIC "-//W3C//DTD SVG 1.1//EN"
 "http://www.w3.org/Graphics/SVG/1.1/DTD/svg11.dtd">
<!-- Generated by graphviz version 2.47.0 (20210316.0004)
 -->
<!-- Title: dependencies Pages: 1 -->
<svg width="618pt" height="284pt"
 viewBox="0.00 0.00 618.00 284.00" xmlns="http://www.w3.org/2000/svg" xmlns:xlink="http://www.w3.org/1999/xlink">
<g id="graph0" class="graph" transform="scale(1 1) rotate(0) translate(4 280)">
<title>dependencies</title>
<polygon fill="white" stroke="transparent" points="-4,4 -4,-280 614,-280 614,4 -4,4"/>
<text text-anchor="start" x="284.01" y="-42.4" font-family="Times-12" font-weight="bold" font-size="14.00">Legend</text>
<polygon fill="#ffffb3" stroke="transparent" points="71,-10 71,-30 91,-30 91,-10 71,-10"/>
<text text-anchor="start" x="94.63" y="-15.4" font-family="Times-12" font-size="14.00"> &#160;Declarations</text>
<polygon fill="#8dd3c7" stroke="transparent" points="184,-10 184,-30 204,-30 204,-10 184,-10"/>
<text text-anchor="start" x="207.73" y="-15.4" font-family="Times-12" font-size="14.00"> &#160;Module</text>
<polygon fill="#80b1d3" stroke="transparent" points="270,-10 270,-30 290,-30 290,-10 270,-10"/>
<text text-anchor="start" x="293.78" y="-15.4" font-family="Times-12" font-size="14.00"> &#160;Bootstrap</text>
<polygon fill="#fdb462" stroke="transparent" points="367,-10 367,-30 387,-30 387,-10 367,-10"/>
<text text-anchor="start" x="390.67" y="-15.4" font-family="Times-12" font-size="14.00"> &#160;Providers</text>
<polygon fill="#fb8072" stroke="transparent" points="463,-10 463,-30 483,-30 483,-10 463,-10"/>
<text text-anchor="start" x="486.73" y="-15.4" font-family="Times-12" font-size="14.00"> &#160;Exports</text>
<g id="clust1" class="cluster">
<title>cluster_SACBootstrap4ConfirmModule</title>
<polygon fill="none" stroke="black" stroke-dasharray="1,5" points="8,-70 8,-268 602,-268 602,-70 8,-70"/>
</g>
<g id="clust4" class="cluster">
<title>cluster_SACBootstrap4ConfirmModule_imports</title>
<polygon fill="none" stroke="black" points="188,-78 188,-130 594,-130 594,-78 188,-78"/>
</g>
<g id="clust2" class="cluster">
<title>cluster_SACBootstrap4ConfirmModule_declarations</title>
<polygon fill="none" stroke="black" points="16,-78 16,-130 180,-130 180,-78 16,-78"/>
</g>
<g id="clust5" class="cluster">
<title>cluster_SACBootstrap4ConfirmModule_exports</title>
<polygon fill="none" stroke="black" points="205,-208 205,-260 373,-260 373,-208 205,-208"/>
</g>
<!-- SacConfirmComponent -->
<g id="node1" class="node">
<title>SacConfirmComponent</title>
<polygon fill="#ffffb3" stroke="black" points="172.48,-122 23.52,-122 23.52,-86 172.48,-86 172.48,-122"/>
<text text-anchor="middle" x="98" y="-99.8" font-family="Times,serif" font-size="14.00">SacConfirmComponent</text>
</g>
<!-- SACBootstrap4ConfirmModule -->
<g id="node2" class="node">
<title>SACBootstrap4ConfirmModule</title>
<polygon fill="#8dd3c7" stroke="black" points="386.65,-187 383.65,-191 362.65,-191 359.65,-187 191.35,-187 191.35,-151 386.65,-151 386.65,-187"/>
<text text-anchor="middle" x="289" y="-164.8" font-family="Times,serif" font-size="14.00">SACBootstrap4ConfirmModule</text>
</g>
<!-- SacConfirmComponent&#45;&gt;SACBootstrap4ConfirmModule -->
<g id="edge1" class="edge">
<title>SacConfirmComponent&#45;&gt;SACBootstrap4ConfirmModule</title>
<path fill="none" stroke="black" d="M98,-122.11C98,-141.34 98,-169 98,-169 98,-169 181.26,-169 181.26,-169"/>
<polygon fill="black" stroke="black" points="181.26,-172.5 191.26,-169 181.26,-165.5 181.26,-172.5"/>
</g>
<!-- SacConfirmComponent  -->
<g id="node5" class="node">
<title>SacConfirmComponent </title>
<polygon fill="#fb8072" stroke="black" points="365.48,-252 212.52,-252 212.52,-216 365.48,-216 365.48,-252"/>
<text text-anchor="middle" x="289" y="-229.8" font-family="Times,serif" font-size="14.00">SacConfirmComponent </text>
</g>
<!-- SACBootstrap4ConfirmModule&#45;&gt;SacConfirmComponent  -->
<g id="edge4" class="edge">
<title>SACBootstrap4ConfirmModule&#45;&gt;SacConfirmComponent </title>
<path fill="none" stroke="black" stroke-dasharray="5,2" d="M289,-187.11C289,-187.11 289,-205.99 289,-205.99"/>
<polygon fill="black" stroke="black" points="285.5,-205.99 289,-215.99 292.5,-205.99 285.5,-205.99"/>
</g>
<!-- SACBootstrap4ButtonModule -->
<g id="node3" class="node">
<title>SACBootstrap4ButtonModule</title>
<polygon fill="#8dd3c7" stroke="black" points="586.33,-122 583.33,-126 562.33,-126 559.33,-122 399.67,-122 399.67,-86 586.33,-86 586.33,-122"/>
<text text-anchor="middle" x="493" y="-99.8" font-family="Times,serif" font-size="14.00">SACBootstrap4ButtonModule</text>
</g>
<!-- SACBootstrap4ButtonModule&#45;&gt;SACBootstrap4ConfirmModule -->
<g id="edge2" class="edge">
<title>SACBootstrap4ButtonModule&#45;&gt;SACBootstrap4ConfirmModule</title>
<path fill="none" stroke="black" d="M493,-122.11C493,-141.34 493,-169 493,-169 493,-169 396.82,-169 396.82,-169"/>
<polygon fill="black" stroke="black" points="396.82,-165.5 386.82,-169 396.82,-172.5 396.82,-165.5"/>
</g>
<!-- SACBootstrap4DialogModule -->
<g id="node4" class="node">
<title>SACBootstrap4DialogModule</title>
<polygon fill="#8dd3c7" stroke="black" points="382.32,-122 379.32,-126 358.32,-126 355.32,-122 195.68,-122 195.68,-86 382.32,-86 382.32,-122"/>
<text text-anchor="middle" x="289" y="-99.8" font-family="Times,serif" font-size="14.00">SACBootstrap4DialogModule</text>
</g>
<!-- SACBootstrap4DialogModule&#45;&gt;SACBootstrap4ConfirmModule -->
<g id="edge3" class="edge">
<title>SACBootstrap4DialogModule&#45;&gt;SACBootstrap4ConfirmModule</title>
<path fill="none" stroke="black" d="M289,-122.11C289,-122.11 289,-140.99 289,-140.99"/>
<polygon fill="black" stroke="black" points="285.5,-140.99 289,-150.99 292.5,-140.99 285.5,-140.99"/>
</g>
</g>
</svg>
