<?xml version="1.0" encoding="UTF-8" standalone="no"?>
<!DOCTYPE svg PUBLIC "-//W3C//DTD SVG 1.1//EN"
 "http://www.w3.org/Graphics/SVG/1.1/DTD/svg11.dtd">
<!-- Generated by graphviz version 2.47.0 (20210316.0004)
 -->
<!-- Title: dependencies Pages: 1 -->
<svg width="618pt" height="284pt"
 viewBox="0.00 0.00 618.00 284.00" xmlns="http://www.w3.org/2000/svg" xmlns:xlink="http://www.w3.org/1999/xlink">
<g id="graph0" class="graph" transform="scale(1 1) rotate(0) translate(4 280)">
<title>dependencies</title>
<polygon fill="white" stroke="transparent" points="-4,4 -4,-280 614,-280 614,4 -4,4"/>
<text text-anchor="start" x="284.01" y="-42.4" font-family="Times-12" font-weight="bold" font-size="14.00">Legend</text>
<polygon fill="#ffffb3" stroke="transparent" points="71,-10 71,-30 91,-30 91,-10 71,-10"/>
<text text-anchor="start" x="94.63" y="-15.4" font-family="Times-12" font-size="14.00"> &#160;Declarations</text>
<polygon fill="#8dd3c7" stroke="transparent" points="184,-10 184,-30 204,-30 204,-10 184,-10"/>
<text text-anchor="start" x="207.73" y="-15.4" font-family="Times-12" font-size="14.00"> &#160;Module</text>
<polygon fill="#80b1d3" stroke="transparent" points="270,-10 270,-30 290,-30 290,-10 270,-10"/>
<text text-anchor="start" x="293.78" y="-15.4" font-family="Times-12" font-size="14.00"> &#160;Bootstrap</text>
<polygon fill="#fdb462" stroke="transparent" points="367,-10 367,-30 387,-30 387,-10 367,-10"/>
<text text-anchor="start" x="390.67" y="-15.4" font-family="Times-12" font-size="14.00"> &#160;Providers</text>
<polygon fill="#fb8072" stroke="transparent" points="463,-10 463,-30 483,-30 483,-10 463,-10"/>
<text text-anchor="start" x="486.73" y="-15.4" font-family="Times-12" font-size="14.00"> &#160;Exports</text>
<g id="clust1" class="cluster">
<title>cluster_SACBootstrap4ConfirmModule</title>
<polygon fill="none" stroke="black" stroke-dasharray="1,5" points="8,-70 8,-268 602,-268 602,-70 8,-70"/>
</g>
<g id="clust5" class="cluster">
<title>cluster_SACBootstrap4ConfirmModule_exports</title>
<polygon fill="none" stroke="black" points="237,-208 237,-260 405,-260 405,-208 237,-208"/>
</g>
<g id="clust2" class="cluster">
<title>cluster_SACBootstrap4ConfirmModule_declarations</title>
<polygon fill="none" stroke="black" points="430,-78 430,-130 594,-130 594,-78 430,-78"/>
</g>
<g id="clust4" class="cluster">
<title>cluster_SACBootstrap4ConfirmModule_imports</title>
<polygon fill="none" stroke="black" points="16,-78 16,-130 422,-130 422,-78 16,-78"/>
</g>
<!-- SacConfirmComponent -->
<g id="node1" class="node">
<title>SacConfirmComponent</title>
<polygon fill="#ffffb3" stroke="black" points="586.48,-122 437.52,-122 437.52,-86 586.48,-86 586.48,-122"/>
<text text-anchor="middle" x="512" y="-99.8" font-family="Times,serif" font-size="14.00">SacConfirmComponent</text>
</g>
<!-- SACBootstrap4ConfirmModule -->
<g id="node2" class="node">
<title>SACBootstrap4ConfirmModule</title>
<polygon fill="#8dd3c7" stroke="black" points="418.65,-187 415.65,-191 394.65,-191 391.65,-187 223.35,-187 223.35,-151 418.65,-151 418.65,-187"/>
<text text-anchor="middle" x="321" y="-164.8" font-family="Times,serif" font-size="14.00">SACBootstrap4ConfirmModule</text>
</g>
<!-- SacConfirmComponent&#45;&gt;SACBootstrap4ConfirmModule -->
<g id="edge1" class="edge">
<title>SacConfirmComponent&#45;&gt;SACBootstrap4ConfirmModule</title>
<path fill="none" stroke="black" d="M512,-122.11C512,-141.34 512,-169 512,-169 512,-169 428.74,-169 428.74,-169"/>
<polygon fill="black" stroke="black" points="428.74,-165.5 418.74,-169 428.74,-172.5 428.74,-165.5"/>
</g>
<!-- SacConfirmComponent  -->
<g id="node5" class="node">
<title>SacConfirmComponent </title>
<polygon fill="#fb8072" stroke="black" points="397.48,-252 244.52,-252 244.52,-216 397.48,-216 397.48,-252"/>
<text text-anchor="middle" x="321" y="-229.8" font-family="Times,serif" font-size="14.00">SacConfirmComponent </text>
</g>
<!-- SACBootstrap4ConfirmModule&#45;&gt;SacConfirmComponent  -->
<g id="edge4" class="edge">
<title>SACBootstrap4ConfirmModule&#45;&gt;SacConfirmComponent </title>
<path fill="none" stroke="black" stroke-dasharray="5,2" d="M321,-187.11C321,-187.11 321,-205.99 321,-205.99"/>
<polygon fill="black" stroke="black" points="317.5,-205.99 321,-215.99 324.5,-205.99 317.5,-205.99"/>
</g>
<!-- SACBootstrap4ButtonModule -->
<g id="node3" class="node">
<title>SACBootstrap4ButtonModule</title>
<polygon fill="#8dd3c7" stroke="black" points="414.33,-122 411.33,-126 390.33,-126 387.33,-122 227.67,-122 227.67,-86 414.33,-86 414.33,-122"/>
<text text-anchor="middle" x="321" y="-99.8" font-family="Times,serif" font-size="14.00">SACBootstrap4ButtonModule</text>
</g>
<!-- SACBootstrap4ButtonModule&#45;&gt;SACBootstrap4ConfirmModule -->
<g id="edge2" class="edge">
<title>SACBootstrap4ButtonModule&#45;&gt;SACBootstrap4ConfirmModule</title>
<path fill="none" stroke="black" d="M321,-122.11C321,-122.11 321,-140.99 321,-140.99"/>
<polygon fill="black" stroke="black" points="317.5,-140.99 321,-150.99 324.5,-140.99 317.5,-140.99"/>
</g>
<!-- SACBootstrap4DialogModule -->
<g id="node4" class="node">
<title>SACBootstrap4DialogModule</title>
<polygon fill="#8dd3c7" stroke="black" points="210.32,-122 207.32,-126 186.32,-126 183.32,-122 23.68,-122 23.68,-86 210.32,-86 210.32,-122"/>
<text text-anchor="middle" x="117" y="-99.8" font-family="Times,serif" font-size="14.00">SACBootstrap4DialogModule</text>
</g>
<!-- SACBootstrap4DialogModule&#45;&gt;SACBootstrap4ConfirmModule -->
<g id="edge3" class="edge">
<title>SACBootstrap4DialogModule&#45;&gt;SACBootstrap4ConfirmModule</title>
<path fill="none" stroke="black" d="M117,-122.11C117,-141.34 117,-169 117,-169 117,-169 213.18,-169 213.18,-169"/>
<polygon fill="black" stroke="black" points="213.18,-172.5 223.18,-169 213.18,-165.5 213.18,-172.5"/>
</g>
</g>
</svg>
