<?xml version="1.0" encoding="UTF-8" standalone="no"?>
<!DOCTYPE svg PUBLIC "-//W3C//DTD SVG 1.1//EN"
 "http://www.w3.org/Graphics/SVG/1.1/DTD/svg11.dtd">
<!-- Generated by graphviz version 2.47.3 (20210619.1520)
 -->
<!-- Title: dependencies Pages: 1 -->
<svg width="1425pt" height="174pt"
 viewBox="0.00 0.00 1425.00 173.80" xmlns="http://www.w3.org/2000/svg" xmlns:xlink="http://www.w3.org/1999/xlink">
<g id="graph0" class="graph" transform="scale(1 1) rotate(0) translate(4 169.8)">
<title>dependencies</title>
<polygon fill="white" stroke="transparent" points="-4,4 -4,-169.8 1421,-169.8 1421,4 -4,4"/>
<text text-anchor="middle" x="708.5" y="-8.2" font-family="sans-serif" font-size="14.00">dependencies</text>
<g id="clust1" class="cluster">
<title>cluster_CheckboxModule</title>
<polygon fill="none" stroke="black" stroke-dasharray="1,5" points="8,-32.8 8,-157.8 1409,-157.8 1409,-32.8 8,-32.8"/>
</g>
<g id="clust2" class="cluster">
<title>cluster_CheckboxModule_declarations</title>
<polygon fill="none" stroke="black" points="1213,-40.8 1213,-92.8 1401,-92.8 1401,-40.8 1213,-40.8"/>
</g>
<g id="clust4" class="cluster">
<title>cluster_CheckboxModule_imports</title>
<polygon fill="none" stroke="black" points="16,-40.8 16,-92.8 1205,-92.8 1205,-40.8 16,-40.8"/>
</g>
<!-- DemoCheckboxComponent -->
<g id="node1" class="node">
<title>DemoCheckboxComponent</title>
<polygon fill="#ffffb3" stroke="black" points="1393.31,-84.8 1220.69,-84.8 1220.69,-48.8 1393.31,-48.8 1393.31,-84.8"/>
<text text-anchor="middle" x="1307" y="-62.6" font-family="Times,serif" font-size="14.00">DemoCheckboxComponent</text>
</g>
<!-- CheckboxModule -->
<g id="node2" class="node">
<title>CheckboxModule</title>
<polygon fill="#8dd3c7" stroke="black" points="848.32,-149.8 845.32,-153.8 824.32,-153.8 821.32,-149.8 731.68,-149.8 731.68,-113.8 848.32,-113.8 848.32,-149.8"/>
<text text-anchor="middle" x="790" y="-127.6" font-family="Times,serif" font-size="14.00">CheckboxModule</text>
</g>
<!-- DemoCheckboxComponent&#45;&gt;CheckboxModule -->
<g id="edge1" class="edge">
<title>DemoCheckboxComponent&#45;&gt;CheckboxModule</title>
<path fill="none" stroke="black" d="M1307,-85.08C1307,-106.12 1307,-137.8 1307,-137.8 1307,-137.8 858.3,-137.8 858.3,-137.8"/>
<polygon fill="black" stroke="black" points="858.3,-134.3 848.3,-137.8 858.3,-141.3 858.3,-134.3"/>
</g>
<!-- CheckboxRoutingModule -->
<g id="node3" class="node">
<title>CheckboxRoutingModule</title>
<polygon fill="#8dd3c7" stroke="black" points="1196.93,-84.8 1193.93,-88.8 1172.93,-88.8 1169.93,-84.8 1035.07,-84.8 1035.07,-48.8 1196.93,-48.8 1196.93,-84.8"/>
<text text-anchor="middle" x="1116" y="-62.6" font-family="Times,serif" font-size="14.00">CheckboxRoutingModule</text>
</g>
<!-- CheckboxRoutingModule&#45;&gt;CheckboxModule -->
<g id="edge2" class="edge">
<title>CheckboxRoutingModule&#45;&gt;CheckboxModule</title>
<path fill="none" stroke="black" d="M1116,-84.82C1116,-102.17 1116,-125.8 1116,-125.8 1116,-125.8 858.28,-125.8 858.28,-125.8"/>
<polygon fill="black" stroke="black" points="858.28,-122.3 848.28,-125.8 858.28,-129.3 858.28,-122.3"/>
</g>
<!-- JNetworkBootstrap4ButtonModule -->
<g id="node4" class="node">
<title>JNetworkBootstrap4ButtonModule</title>
<polygon fill="#8dd3c7" stroke="black" points="1017.53,-84.8 1014.53,-88.8 993.53,-88.8 990.53,-84.8 804.47,-84.8 804.47,-48.8 1017.53,-48.8 1017.53,-84.8"/>
<text text-anchor="middle" x="911" y="-62.6" font-family="Times,serif" font-size="14.00">JNetworkBootstrap4ButtonModule</text>
</g>
<!-- JNetworkBootstrap4ButtonModule&#45;&gt;CheckboxModule -->
<g id="edge3" class="edge">
<title>JNetworkBootstrap4ButtonModule&#45;&gt;CheckboxModule</title>
<path fill="none" stroke="black" d="M826.2,-84.91C826.2,-84.91 826.2,-103.79 826.2,-103.79"/>
<polygon fill="black" stroke="black" points="822.7,-103.79 826.2,-113.79 829.7,-103.79 822.7,-103.79"/>
</g>
<!-- JNetworkBootstrap4CheckboxModule -->
<g id="node5" class="node">
<title>JNetworkBootstrap4CheckboxModule</title>
<polygon fill="#8dd3c7" stroke="black" points="786.18,-84.8 783.18,-88.8 762.18,-88.8 759.18,-84.8 553.82,-84.8 553.82,-48.8 786.18,-48.8 786.18,-84.8"/>
<text text-anchor="middle" x="670" y="-62.6" font-family="Times,serif" font-size="14.00">JNetworkBootstrap4CheckboxModule</text>
</g>
<!-- JNetworkBootstrap4CheckboxModule&#45;&gt;CheckboxModule -->
<g id="edge4" class="edge">
<title>JNetworkBootstrap4CheckboxModule&#45;&gt;CheckboxModule</title>
<path fill="none" stroke="black" d="M758.97,-84.91C758.97,-84.91 758.97,-103.79 758.97,-103.79"/>
<polygon fill="black" stroke="black" points="755.47,-103.79 758.97,-113.79 762.47,-103.79 755.47,-103.79"/>
</g>
<!-- JNetworkBootstrap4FormModule -->
<g id="node6" class="node">
<title>JNetworkBootstrap4FormModule</title>
<polygon fill="#8dd3c7" stroke="black" points="535.74,-84.8 532.74,-88.8 511.74,-88.8 508.74,-84.8 330.26,-84.8 330.26,-48.8 535.74,-48.8 535.74,-84.8"/>
<text text-anchor="middle" x="433" y="-62.6" font-family="Times,serif" font-size="14.00">JNetworkBootstrap4FormModule</text>
</g>
<!-- JNetworkBootstrap4FormModule&#45;&gt;CheckboxModule -->
<g id="edge5" class="edge">
<title>JNetworkBootstrap4FormModule&#45;&gt;CheckboxModule</title>
<path fill="none" stroke="black" d="M433,-84.82C433,-102.17 433,-125.8 433,-125.8 433,-125.8 721.45,-125.8 721.45,-125.8"/>
<polygon fill="black" stroke="black" points="721.45,-129.3 731.45,-125.8 721.45,-122.3 721.45,-129.3"/>
</g>
<!-- JNetworkBootstrap4ValidationSummaryModule -->
<g id="node7" class="node">
<title>JNetworkBootstrap4ValidationSummaryModule</title>
<polygon fill="#8dd3c7" stroke="black" points="312.45,-84.8 309.45,-88.8 288.45,-88.8 285.45,-84.8 23.55,-84.8 23.55,-48.8 312.45,-48.8 312.45,-84.8"/>
<text text-anchor="middle" x="168" y="-62.6" font-family="Times,serif" font-size="14.00">JNetworkBootstrap4ValidationSummaryModule</text>
</g>
<!-- JNetworkBootstrap4ValidationSummaryModule&#45;&gt;CheckboxModule -->
<g id="edge6" class="edge">
<title>JNetworkBootstrap4ValidationSummaryModule&#45;&gt;CheckboxModule</title>
<path fill="none" stroke="black" d="M168,-85.08C168,-106.12 168,-137.8 168,-137.8 168,-137.8 721.76,-137.8 721.76,-137.8"/>
<polygon fill="black" stroke="black" points="721.76,-141.3 731.76,-137.8 721.76,-134.3 721.76,-141.3"/>
</g>
</g>
</svg>
