<?xml version="1.0" encoding="UTF-8"?><!DOCTYPE svg PUBLIC "-//W3C//DTD SVG 1.1//EN" "http://www.w3.org/Graphics/SVG/1.1/DTD/svg11.dtd"><svg viewBox="0 0 1024 1024" xmlns="http://www.w3.org/2000/svg" xmlns:xlink="http://www.w3.org/1999/xlink"><style>:root>svg{display:none}:root>svg:target{display:block}</style><svg shape-rendering="geometricPrecision" text-rendering="geometricPrecision" image-rendering="optimizeQuality" clip-rule="evenodd" viewBox="0 0 10240 10240" id="3d_glasses" xmlns="http://www.w3.org/2000/svg"><path fill="#3E9BD5" d="M6669 6080c-89-175-174-356-261-531-39-78-85-152-137-222-131-175-191-356-191-575v-592h2560v1920H6669zM3571 6080c89-175 174-356 261-531 39-78 85-152 137-222 131-175 191-356 191-575v-592H1600v1920h1971z"/><path fill="#252525" d="M960 3200h8320c176 0 320 144 320 320v3200c0 176-144 320-320 320H6476c-249 0-462-132-573-354l-354-707c-83-167-243-266-429-266s-346 99-429 266l-354 707c-111 222-324 354-573 354H960c-176 0-320-144-320-320V3520c0-176 144-320 320-320zm5162 2492c120 240 249 708 547 708h1971c176 0 320-144 320-320V4160c0-176-144-320-320-320H6080c-176 0-320 144-320 320v592c0 288 83 536 255 767 41 54 76 113 107 173zm-2551 708c123 0 229-65 285-175 90-177 174-356 262-533 31-60 67-119 107-173 172-231 255-479 255-767v-592c0-176-144-320-320-320H1600c-176 0-320 144-320 320v1920c0 176 144 320 320 320h1971z"/></svg><svg shape-rendering="geometricPrecision" text-rendering="geometricPrecision" image-rendering="optimizeQuality" clip-rule="evenodd" viewBox="0 0 10240 10240" id="about" xmlns="http://www.w3.org/2000/svg"><path fill="#3E9BD5" d="M4700 6720h853c118 0 213 96 213 214v853c0 117-95 213-213 213h-853c-117 0-213-96-213-213v-853c0-118 96-214 213-214zm-220-4480h1280c88 0 160 72 160 160v1059c0 273-20 505-68 773l-309 1736c-13 77-79 132-157 132h-532c-78 0-144-55-157-132l-309-1736c-48-268-68-500-68-773V2400c0-88 72-160 160-160z"/><path fill="#252525" d="M5120 640c2474 0 4480 2006 4480 4480S7594 9600 5120 9600 640 7594 640 5120 2646 640 5120 640zm0 640c-2121 0-3840 1719-3840 3840s1719 3840 3840 3840 3840-1719 3840-3840-1719-3840-3840-3840z"/></svg><svg shape-rendering="geometricPrecision" text-rendering="geometricPrecision" image-rendering="optimizeQuality" clip-rule="evenodd" viewBox="0 0 10240 10240" id="add" xmlns="http://www.w3.org/2000/svg"><path fill="#252525" d="M5120 640c2474 0 4480 2006 4480 4480S7594 9600 5120 9600 640 7594 640 5120 2646 640 5120 640zM2240 4160c-176 0-320 144-320 320v1280c0 176 144 320 320 320h1920v1920c0 176 144 320 320 320h1280c176 0 320-144 320-320V6080h1920c176 0 320-144 320-320V4480c0-176-144-320-320-320H6080V2240c0-176-144-320-320-320H4480c-176 0-320 144-320 320v1920H2240z"/></svg><svg shape-rendering="geometricPrecision" text-rendering="geometricPrecision" image-rendering="optimizeQuality" clip-rule="evenodd" viewBox="0 0 10240 10240" id="address_book2" xmlns="http://www.w3.org/2000/svg"><path fill="#252525" d="M2560 640c-707 0-1280 573-1280 1280v6400c0 707 573 1280 1280 1280h6080c177 0 320-143 320-320V2560c0-353-287-640-640-640H2560c-176 0-320-144-320-320s144-320 320-320h5440c176 0 320 144 320 320 246 0 470 92 640 245v-565c0-362-287-645-640-640-1921-1-3844 0-5760 0zm3280 6095c-198 116-463 170-691 135-485-75-839-498-839-986 0-55 5-112 14-171 82-536 549-1073 1116-1073 176 0 332 19 465 64l20-117 630 105c-79 470-158 938-237 1406-29 168 40 302 146 373 94 63 214 80 316 23 218-123 260-503 260-734 0-884-716-1600-1600-1600s-1600 716-1600 1600 716 1600 1600 1600c177 0 347-29 506-82 182 119 393 191 611 207 114 8 228 0 339-22-392 335-900 537-1456 537-1237 0-2240-1003-2240-2240s1003-2240 2240-2240 2240 1003 2240 2240c0 66-3 130-8 195-47 621-394 1261-1092 1211-298-22-573-184-740-431zm-66-1256c8-79 1-125-19-143-44-40-153-56-315-56-87 0-196 56-292 152-94 94-168 223-192 376-18 116 4 232 88 321 58 62 149 111 236 111 236 0 372-114 422-343l72-418z"/></svg><svg shape-rendering="geometricPrecision" text-rendering="geometricPrecision" image-rendering="optimizeQuality" clip-rule="evenodd" viewBox="0 0 10240 10240" id="adhesive_tape" xmlns="http://www.w3.org/2000/svg"><path fill="#252525" d="M640 6080l1038 259c144 36 242 162 242 311v390c0 352 287 640 640 640h1280c705 0 1280-575 1280-1280v-640c0-884 716-1600 1600-1600s1600 716 1600 1600v3200c0 352-288 640-640 640H1280c-352 0-640-287-640-640V6080zm6080-960c-353 0-640 287-640 640s287 640 640 640 640-287 640-640-287-640-640-640z"/><path fill="#3E9BD5" d="M6720 2880c1591 0 2880 1289 2880 2880 0 853-371 1619-960 2146V5760c0-1060-860-1920-1920-1920s-1920 860-1920 1920v640c0 377-220 705-538 862-268-438-422-952-422-1502 0-374 71-732 201-1060L2152 5771c-297 168-619 211-949 126l-563-145v-658l721 185c169 44 323 23 476-63l3608-2039c384-190 817-297 1275-297z"/></svg><svg shape-rendering="geometricPrecision" text-rendering="geometricPrecision" image-rendering="optimizeQuality" clip-rule="evenodd" viewBox="0 0 10240 10240" id="air_tube_carrier" xmlns="http://www.w3.org/2000/svg"><path fill="#3E9BD5" d="M960 3200v3840c-352 0-640-288-640-640V3840c0-353 287-640 640-640zm2560 640c-176 0-320 144-320 320s144 320 320 320h3200c176 0 320-144 320-320s-144-320-320-320H3520zm-640-640h4480v3840H2880V3200zm6400 0c353 0 640 288 640 640v2560c0 352-288 640-640 640V3200z"/><path fill="#252525" d="M8000 2880h640c176 0 320 144 320 320v3840c0 176-144 320-320 320h-640c-176 0-320-144-320-320V3200c0-176 144-320 320-320zm-6400 0h640c176 0 320 144 320 320v3840c0 176-144 320-320 320h-640c-176 0-320-144-320-320V3200c0-176 144-320 320-320z"/></svg><svg shape-rendering="geometricPrecision" text-rendering="geometricPrecision" image-rendering="optimizeQuality" clip-rule="evenodd" viewBox="0 0 10240 10240" id="airbrush" xmlns="http://www.w3.org/2000/svg"><path fill="#3E9BD5" d="M2240 8960c177 0 320 143 320 320s-143 320-320 320-320-143-320-320 143-320 320-320zm320-960c177 0 320 143 320 320s-143 320-320 320-320-143-320-320 143-320 320-320zm320-960c177 0 320 143 320 320s-143 320-320 320-320-143-320-320 143-320 320-320zm-960 320c177 0 320 143 320 320s-143 320-320 320-320-143-320-320 143-320 320-320zm-960 320c177 0 320 143 320 320s-143 320-320 320-320-143-320-320 143-320 320-320zm640 640c177 0 320 143 320 320s-143 320-320 320-320-143-320-320 143-320 320-320zM4508 3863c316-316 701-444 859-286s30 543-286 859-701 444-859 286-30-543 286-859z"/><path fill="#252525" d="M3701 5259l303-303c187 180 455 182 689 104 230-76 444-228 614-398s322-384 398-614c78-234 76-502-104-689l799-799c640-640 2880-2240 3200-1920S8320 3200 7680 3840v3200c0 352-288 640-640 640h-320c-352 0-640-287-640-640v-187c0-133-75-246-198-296-91-38-189-33-271 12-127 68-276 46-378-56l-113-113-139 139c-343 343-718 555-1189 673l-277 69c-36-290-266-521-556-556l69-277c118-471 330-846 673-1189z"/></svg><svg shape-rendering="geometricPrecision" text-rendering="geometricPrecision" image-rendering="optimizeQuality" clip-rule="evenodd" viewBox="0 0 10240 10240" id="airplane" xmlns="http://www.w3.org/2000/svg"><path fill="#252525" d="M3840 9920l591-3840H3200c-265 0-628-49-1015-126l-809 971c-63 75-148 115-246 115H640l455-1364C482 5486 0 5268 0 5120s482-366 1095-556L640 3200h490c98 0 183 40 246 115l810 972c388-78 754-127 1022-127h1223L3840 320h461c115 0 219 51 273 152l1975 3688h1771c707 0 1920 430 1920 960s-1213 960-1920 960H6549L4574 9768c-54 100-158 152-273 152h-461z"/></svg><svg shape-rendering="geometricPrecision" text-rendering="geometricPrecision" image-rendering="optimizeQuality" clip-rule="evenodd" viewBox="0 0 10240 10240" id="airplane2" xmlns="http://www.w3.org/2000/svg"><path fill="#252525" d="M1867 6417c-707 0-1547-447-1547-977s893-960 1600-960h4535c176 0 328-63 452-187l1639-1639c63-63 138-94 227-94h703c106 0 198 47 260 133s77 187 44 288l-484 1450c-11 34-16 65-16 101v135c0 89 31 164 94 227l132 132c63 63 94 138 94 227v374c0 89-31 164-94 227l-139 139c-52 52-112 82-185 91l-1863 239-881-735c-120-99-254-148-410-148h-268l1581 1317c52 44 71 113 48 177-24 65-82 106-151 106h-687c-104 0-193-21-286-68L3200 5440v160c0 124 66 231 177 286l1061 531H1867z"/></svg><svg shape-rendering="geometricPrecision" text-rendering="geometricPrecision" image-rendering="optimizeQuality" clip-rule="evenodd" viewBox="0 0 10240 10240" id="airplane2_landing" xmlns="http://www.w3.org/2000/svg"><path fill="#252525" d="M5991 5493l1858 728c62 25 101 82 99 149-2 66-43 122-106 143l-633 210c-95 32-184 40-284 26l-3290-472 49 147c38 114 131 192 250 209l1140 164-2367 787c-651 217-1561 63-1723-425s528-1157 1179-1374l4174-1388c162-54 283-159 359-312l1007-2010c38-76 98-128 179-155l648-216c98-32 196-17 280 43 83 60 128 149 128 252l-1 1482c0 35 5 65 16 98l42 125c27 81 79 141 155 180l163 81c76 38 129 98 155 180l115 345c27 81 22 160-17 237l-85 170c-32 64-79 110-143 141l-1641 790-1036-406c-141-55-279-59-423-11l-247 82z"/></svg><svg shape-rendering="geometricPrecision" text-rendering="geometricPrecision" image-rendering="optimizeQuality" clip-rule="evenodd" viewBox="0 0 10240 10240" id="airplane2_starting" xmlns="http://www.w3.org/2000/svg"><path fill="#252525" d="M5380 5374l1057 1705c36 57 32 127-10 179-41 53-108 73-172 52l-635-212c-97-32-173-79-244-150L3011 4586l-49 148c-39 115-10 234 75 319l819 818-2379-791C822 4862 183 4190 346 3699c163-490 1122-613 1776-396l4197 1397c163 54 322 42 476-35l2021-1012c77-38 157-44 239-17l651 217c98 32 168 104 199 203 31 98 14 197-48 280l-894 1193c-21 28-35 55-46 88l-42 126c-27 81-21 161 17 238l82 163c39 77 45 157 17 239l-115 347c-27 81-80 142-156 180l-172 86c-64 32-129 41-200 27l-1797-352-589-951c-80-129-190-215-334-263l-248-83z"/></svg><svg shape-rendering="geometricPrecision" text-rendering="geometricPrecision" image-rendering="optimizeQuality" clip-rule="evenodd" viewBox="0 0 10240 10240" id="airship" xmlns="http://www.w3.org/2000/svg"><path fill="#252525" d="M9460 4480c177 0 320 143 320 320s-143 320-320 320H7680c-177 0-320-143-320-320s143-320 320-320h1780zm-63-554l324-649c48-95 47-197-2-292-50-94-133-153-238-168l-1344-192c-249-35-484 71-620 274 650 267 1275 611 1880 1027zm-3 1742l327 655c48 95 47 197-2 292-50 94-133 153-238 168l-1344 192c-251 36-487-72-623-278 650-268 1275-614 1880-1029z"/><path fill="#252525" d="M5120 6987v53c0 352-288 640-640 640H2560c-352 0-640-287-640-640v-292c-915-300-1600-879-1600-1948 0-1867 2089-2240 3840-2240 1882 0 3520 585 5011 1600H7680c-353 0-640 287-640 640s287 640 640 640h1480c-1229 835-2557 1382-4040 1547z"/></svg></svg>