<?xml version="1.0" encoding="UTF-8" standalone="no"?>
<!DOCTYPE svg PUBLIC "-//W3C//DTD SVG 1.1//EN"
 "http://www.w3.org/Graphics/SVG/1.1/DTD/svg11.dtd">
<!-- Generated by graphviz version 2.47.0 (20210316.0004)
 -->
<!-- Title: dependencies Pages: 1 -->
<svg width="1722pt" height="396pt"
 viewBox="0.00 0.00 1722.00 395.59" xmlns="http://www.w3.org/2000/svg" xmlns:xlink="http://www.w3.org/1999/xlink">
<g id="graph0" class="graph" transform="scale(1 1) rotate(0) translate(4 391.59)">
<title>dependencies</title>
<polygon fill="white" stroke="transparent" points="-4,4 -4,-391.59 1718,-391.59 1718,4 -4,4"/>
<text text-anchor="start" x="836.01" y="-42.4" font-family="Times-12" font-weight="bold" font-size="14.00">Legend</text>
<polygon fill="#ffffb3" stroke="transparent" points="623,-10 623,-30 643,-30 643,-10 623,-10"/>
<text text-anchor="start" x="646.63" y="-15.4" font-family="Times-12" font-size="14.00"> &#160;Declarations</text>
<polygon fill="#8dd3c7" stroke="transparent" points="736,-10 736,-30 756,-30 756,-10 736,-10"/>
<text text-anchor="start" x="759.73" y="-15.4" font-family="Times-12" font-size="14.00"> &#160;Module</text>
<polygon fill="#80b1d3" stroke="transparent" points="822,-10 822,-30 842,-30 842,-10 822,-10"/>
<text text-anchor="start" x="845.78" y="-15.4" font-family="Times-12" font-size="14.00"> &#160;Bootstrap</text>
<polygon fill="#fdb462" stroke="transparent" points="919,-10 919,-30 939,-30 939,-10 919,-10"/>
<text text-anchor="start" x="942.67" y="-15.4" font-family="Times-12" font-size="14.00"> &#160;Providers</text>
<polygon fill="#fb8072" stroke="transparent" points="1015,-10 1015,-30 1035,-30 1035,-10 1015,-10"/>
<text text-anchor="start" x="1038.73" y="-15.4" font-family="Times-12" font-size="14.00"> &#160;Exports</text>
<g id="clust1" class="cluster">
<title>cluster_SACBootstrap5DateTimeModule</title>
<polygon fill="none" stroke="black" stroke-dasharray="1,5" points="8,-70 8,-379.59 1706,-379.59 1706,-70 8,-70"/>
</g>
<g id="clust2" class="cluster">
<title>cluster_SACBootstrap5DateTimeModule_declarations</title>
<polygon fill="none" stroke="black" points="556,-189.59 556,-241.59 1217,-241.59 1217,-189.59 556,-189.59"/>
</g>
<g id="clust3" class="cluster">
<title>cluster_SACBootstrap5DateTimeModule_SacDateComponent_providers</title>
<polygon fill="none" stroke="black" points="16,-78 16,-176.59 1698,-176.59 1698,-78 16,-78"/>
</g>
<g id="clust7" class="cluster">
<title>cluster_SACBootstrap5DateTimeModule_imports</title>
<polygon fill="none" stroke="black" points="136,-189.59 136,-241.59 548,-241.59 548,-189.59 136,-189.59"/>
</g>
<g id="clust8" class="cluster">
<title>cluster_SACBootstrap5DateTimeModule_exports</title>
<polygon fill="none" stroke="black" points="377,-319.59 377,-371.59 1051,-371.59 1051,-319.59 377,-319.59"/>
</g>
<!-- SacDateComponent -->
<g id="node1" class="node">
<title>SacDateComponent</title>
<polygon fill="#ffffb3" stroke="black" points="1208.97,-233.59 1081.03,-233.59 1081.03,-197.59 1208.97,-197.59 1208.97,-233.59"/>
<text text-anchor="middle" x="1145" y="-211.39" font-family="Times,serif" font-size="14.00">SacDateComponent</text>
</g>
<!-- SACBootstrap5DateTimeModule -->
<g id="node5" class="node">
<title>SACBootstrap5DateTimeModule</title>
<polygon fill="#8dd3c7" stroke="black" points="813.19,-298.59 810.19,-302.59 789.19,-302.59 786.19,-298.59 608.81,-298.59 608.81,-262.59 813.19,-262.59 813.19,-298.59"/>
<text text-anchor="middle" x="711" y="-276.39" font-family="Times,serif" font-size="14.00">SACBootstrap5DateTimeModule</text>
</g>
<!-- SacDateComponent&#45;&gt;SACBootstrap5DateTimeModule -->
<g id="edge1" class="edge">
<title>SacDateComponent&#45;&gt;SACBootstrap5DateTimeModule</title>
<path fill="none" stroke="black" d="M1145,-233.7C1145,-252.93 1145,-280.59 1145,-280.59 1145,-280.59 823.3,-280.59 823.3,-280.59"/>
<polygon fill="black" stroke="black" points="823.3,-277.09 813.3,-280.59 823.3,-284.09 823.3,-277.09"/>
</g>
<!-- SacDateSelectorComponent -->
<g id="node2" class="node">
<title>SacDateSelectorComponent</title>
<polygon fill="#ffffb3" stroke="black" points="1062.84,-233.59 889.16,-233.59 889.16,-197.59 1062.84,-197.59 1062.84,-233.59"/>
<text text-anchor="middle" x="976" y="-211.39" font-family="Times,serif" font-size="14.00">SacDateSelectorComponent</text>
</g>
<!-- SacDateSelectorComponent&#45;&gt;SACBootstrap5DateTimeModule -->
<g id="edge4" class="edge">
<title>SacDateSelectorComponent&#45;&gt;SACBootstrap5DateTimeModule</title>
<path fill="none" stroke="black" d="M902.47,-233.62C902.47,-249.99 902.47,-271.59 902.47,-271.59 902.47,-271.59 823.18,-271.59 823.18,-271.59"/>
<polygon fill="black" stroke="black" points="823.18,-268.09 813.18,-271.59 823.18,-275.09 823.18,-268.09"/>
</g>
<!-- SacDateTimeComponent -->
<g id="node3" class="node">
<title>SacDateTimeComponent</title>
<polygon fill="#ffffb3" stroke="black" points="870.52,-233.59 713.48,-233.59 713.48,-197.59 870.52,-197.59 870.52,-233.59"/>
<text text-anchor="middle" x="792" y="-211.39" font-family="Times,serif" font-size="14.00">SacDateTimeComponent</text>
</g>
<!-- SacDateTimeComponent&#45;&gt;SACBootstrap5DateTimeModule -->
<g id="edge5" class="edge">
<title>SacDateTimeComponent&#45;&gt;SACBootstrap5DateTimeModule</title>
<path fill="none" stroke="black" d="M763.17,-233.7C763.17,-233.7 763.17,-252.58 763.17,-252.58"/>
<polygon fill="black" stroke="black" points="759.67,-252.58 763.17,-262.58 766.67,-252.58 759.67,-252.58"/>
</g>
<!-- SacTimeComponent -->
<g id="node4" class="node">
<title>SacTimeComponent</title>
<polygon fill="#ffffb3" stroke="black" points="695.59,-233.59 564.41,-233.59 564.41,-197.59 695.59,-197.59 695.59,-233.59"/>
<text text-anchor="middle" x="630" y="-211.39" font-family="Times,serif" font-size="14.00">SacTimeComponent</text>
</g>
<!-- SacTimeComponent&#45;&gt;SACBootstrap5DateTimeModule -->
<g id="edge6" class="edge">
<title>SacTimeComponent&#45;&gt;SACBootstrap5DateTimeModule</title>
<path fill="none" stroke="black" d="M652.23,-233.7C652.23,-233.7 652.23,-252.58 652.23,-252.58"/>
<polygon fill="black" stroke="black" points="648.73,-252.58 652.23,-262.58 655.73,-252.58 648.73,-252.58"/>
</g>
<!-- SacDateComponent  -->
<g id="node10" class="node">
<title>SacDateComponent </title>
<polygon fill="#fb8072" stroke="black" points="1042.97,-363.59 911.03,-363.59 911.03,-327.59 1042.97,-327.59 1042.97,-363.59"/>
<text text-anchor="middle" x="977" y="-341.39" font-family="Times,serif" font-size="14.00">SacDateComponent </text>
</g>
<!-- SACBootstrap5DateTimeModule&#45;&gt;SacDateComponent  -->
<g id="edge9" class="edge">
<title>SACBootstrap5DateTimeModule&#45;&gt;SacDateComponent </title>
<path fill="none" stroke="black" stroke-dasharray="5,2" d="M813.46,-289.59C888.4,-289.59 977,-289.59 977,-289.59 977,-289.59 977,-317.56 977,-317.56"/>
<polygon fill="black" stroke="black" points="973.5,-317.56 977,-327.56 980.5,-317.56 973.5,-317.56"/>
</g>
<!-- SacDateSelectorComponent  -->
<g id="node11" class="node">
<title>SacDateSelectorComponent </title>
<polygon fill="#fb8072" stroke="black" points="893.84,-363.59 716.16,-363.59 716.16,-327.59 893.84,-327.59 893.84,-363.59"/>
<text text-anchor="middle" x="805" y="-341.39" font-family="Times,serif" font-size="14.00">SacDateSelectorComponent </text>
</g>
<!-- SACBootstrap5DateTimeModule&#45;&gt;SacDateSelectorComponent  -->
<g id="edge10" class="edge">
<title>SACBootstrap5DateTimeModule&#45;&gt;SacDateSelectorComponent </title>
<path fill="none" stroke="black" stroke-dasharray="5,2" d="M764.71,-298.7C764.71,-298.7 764.71,-317.58 764.71,-317.58"/>
<polygon fill="black" stroke="black" points="761.21,-317.58 764.71,-327.58 768.21,-317.58 761.21,-317.58"/>
</g>
<!-- SacDateTimeComponent  -->
<g id="node12" class="node">
<title>SacDateTimeComponent </title>
<polygon fill="#fb8072" stroke="black" points="698.52,-363.59 537.48,-363.59 537.48,-327.59 698.52,-327.59 698.52,-363.59"/>
<text text-anchor="middle" x="618" y="-341.39" font-family="Times,serif" font-size="14.00">SacDateTimeComponent </text>
</g>
<!-- SACBootstrap5DateTimeModule&#45;&gt;SacDateTimeComponent  -->
<g id="edge11" class="edge">
<title>SACBootstrap5DateTimeModule&#45;&gt;SacDateTimeComponent </title>
<path fill="none" stroke="black" stroke-dasharray="5,2" d="M653.71,-298.7C653.71,-298.7 653.71,-317.58 653.71,-317.58"/>
<polygon fill="black" stroke="black" points="650.21,-317.58 653.71,-327.58 657.21,-317.58 650.21,-317.58"/>
</g>
<!-- SacTimeComponent  -->
<g id="node13" class="node">
<title>SacTimeComponent </title>
<polygon fill="#fb8072" stroke="black" points="519.09,-363.59 384.91,-363.59 384.91,-327.59 519.09,-327.59 519.09,-363.59"/>
<text text-anchor="middle" x="452" y="-341.39" font-family="Times,serif" font-size="14.00">SacTimeComponent </text>
</g>
<!-- SACBootstrap5DateTimeModule&#45;&gt;SacTimeComponent  -->
<g id="edge12" class="edge">
<title>SACBootstrap5DateTimeModule&#45;&gt;SacTimeComponent </title>
<path fill="none" stroke="black" stroke-dasharray="5,2" d="M608.64,-289.59C536.24,-289.59 452,-289.59 452,-289.59 452,-289.59 452,-317.56 452,-317.56"/>
<polygon fill="black" stroke="black" points="448.5,-317.56 452,-327.56 455.5,-317.56 448.5,-317.56"/>
</g>
<!-- {
 &#160;&#160;&#160;provide: NG_VALUE_ACCESSOR, multi: true, useExisting: forwardRef(() =&gt; SacDateComponent),
} -->
<g id="node6" class="node">
<title>{
 &#160;&#160;&#160;provide: NG_VALUE_ACCESSOR, multi: true, useExisting: forwardRef(() =&gt; SacDateComponent),
}</title>
<ellipse fill="#fdb462" stroke="black" cx="1265" cy="-127.3" rx="424.93" ry="41.09"/>
<text text-anchor="middle" x="1265" y="-139.9" font-family="Times,serif" font-size="14.00">{</text>
<text text-anchor="middle" x="1265" y="-123.1" font-family="Times,serif" font-size="14.00"> &#160;&#160;&#160;provide: NG_VALUE_ACCESSOR, multi: true, useExisting: forwardRef(() =&gt; SacDateComponent),</text>
<text text-anchor="middle" x="1265" y="-106.3" font-family="Times,serif" font-size="14.00">}</text>
</g>
<!-- {
 &#160;&#160;&#160;provide: NG_VALUE_ACCESSOR, multi: true, useExisting: forwardRef(() =&gt; SacDateComponent),
}&#45;&gt;SacDateComponent -->
<g id="edge2" class="edge">
<title>{
 &#160;&#160;&#160;provide: NG_VALUE_ACCESSOR, multi: true, useExisting: forwardRef(() =&gt; SacDateComponent),
}&#45;&gt;SacDateComponent</title>
<path fill="none" stroke="black" d="M1166.33,-167.57C1166.33,-167.57 1166.33,-187.23 1166.33,-187.23"/>
<polygon fill="black" stroke="black" points="1162.83,-187.23 1166.33,-197.23 1169.83,-187.23 1162.83,-187.23"/>
</g>
<!-- {
 &#160;&#160;&#160;provide: NG_VALIDATORS, multi: true, useExisting: forwardRef(() =&gt; SacDateComponent),
} -->
<g id="node7" class="node">
<title>{
 &#160;&#160;&#160;provide: NG_VALIDATORS, multi: true, useExisting: forwardRef(() =&gt; SacDateComponent),
}</title>
<ellipse fill="#fdb462" stroke="black" cx="423" cy="-127.3" rx="398.61" ry="41.09"/>
<text text-anchor="middle" x="423" y="-139.9" font-family="Times,serif" font-size="14.00">{</text>
<text text-anchor="middle" x="423" y="-123.1" font-family="Times,serif" font-size="14.00"> &#160;&#160;&#160;provide: NG_VALIDATORS, multi: true, useExisting: forwardRef(() =&gt; SacDateComponent),</text>
<text text-anchor="middle" x="423" y="-106.3" font-family="Times,serif" font-size="14.00">}</text>
</g>
<!-- {
 &#160;&#160;&#160;provide: NG_VALIDATORS, multi: true, useExisting: forwardRef(() =&gt; SacDateComponent),
}&#45;&gt;SacDateComponent -->
<g id="edge3" class="edge">
<title>{
 &#160;&#160;&#160;provide: NG_VALIDATORS, multi: true, useExisting: forwardRef(() =&gt; SacDateComponent),
}&#45;&gt;SacDateComponent</title>
<path fill="none" stroke="black" d="M767.4,-148.26C767.4,-164.26 767.4,-183.59 767.4,-183.59 767.4,-183.59 1123.67,-183.59 1123.67,-183.59 1123.67,-183.59 1123.67,-187.35 1123.67,-187.35"/>
<polygon fill="black" stroke="black" points="1120.17,-187.35 1123.67,-197.35 1127.17,-187.35 1120.17,-187.35"/>
</g>
<!-- SACBootstrap5LayoutModule -->
<g id="node8" class="node">
<title>SACBootstrap5LayoutModule</title>
<polygon fill="#8dd3c7" stroke="black" points="539.87,-233.59 536.87,-237.59 515.87,-237.59 512.87,-233.59 352.13,-233.59 352.13,-197.59 539.87,-197.59 539.87,-233.59"/>
<text text-anchor="middle" x="446" y="-211.39" font-family="Times,serif" font-size="14.00">SACBootstrap5LayoutModule</text>
</g>
<!-- SACBootstrap5LayoutModule&#45;&gt;SACBootstrap5DateTimeModule -->
<g id="edge7" class="edge">
<title>SACBootstrap5LayoutModule&#45;&gt;SACBootstrap5DateTimeModule</title>
<path fill="none" stroke="black" d="M528.39,-233.62C528.39,-249.99 528.39,-271.59 528.39,-271.59 528.39,-271.59 598.75,-271.59 598.75,-271.59"/>
<polygon fill="black" stroke="black" points="598.75,-275.09 608.75,-271.59 598.75,-268.09 598.75,-275.09"/>
</g>
<!-- SACBootstrap5TooltipModule -->
<g id="node9" class="node">
<title>SACBootstrap5TooltipModule</title>
<polygon fill="#8dd3c7" stroke="black" points="333.94,-233.59 330.94,-237.59 309.94,-237.59 306.94,-233.59 144.06,-233.59 144.06,-197.59 333.94,-197.59 333.94,-233.59"/>
<text text-anchor="middle" x="239" y="-211.39" font-family="Times,serif" font-size="14.00">SACBootstrap5TooltipModule</text>
</g>
<!-- SACBootstrap5TooltipModule&#45;&gt;SACBootstrap5DateTimeModule -->
<g id="edge8" class="edge">
<title>SACBootstrap5TooltipModule&#45;&gt;SACBootstrap5DateTimeModule</title>
<path fill="none" stroke="black" d="M239,-233.7C239,-252.93 239,-280.59 239,-280.59 239,-280.59 598.87,-280.59 598.87,-280.59"/>
<polygon fill="black" stroke="black" points="598.87,-284.09 608.87,-280.59 598.87,-277.09 598.87,-284.09"/>
</g>
</g>
</svg>
