<?xml version="1.0" encoding="UTF-8" standalone="no"?>
<!DOCTYPE svg PUBLIC "-//W3C//DTD SVG 1.1//EN"
 "http://www.w3.org/Graphics/SVG/1.1/DTD/svg11.dtd">
<!-- Generated by graphviz version 2.47.0 (20210316.0004)
 -->
<!-- Title: dependencies Pages: 1 -->
<svg width="2457pt" height="396pt"
 viewBox="0.00 0.00 2457.00 395.59" xmlns="http://www.w3.org/2000/svg" xmlns:xlink="http://www.w3.org/1999/xlink">
<g id="graph0" class="graph" transform="scale(1 1) rotate(0) translate(4 391.59)">
<title>dependencies</title>
<polygon fill="white" stroke="transparent" points="-4,4 -4,-391.59 2453,-391.59 2453,4 -4,4"/>
<text text-anchor="start" x="1203.51" y="-42.4" font-family="Times-12" font-weight="bold" font-size="14.00">Legend</text>
<polygon fill="#ffffb3" stroke="transparent" points="990.5,-10 990.5,-30 1010.5,-30 1010.5,-10 990.5,-10"/>
<text text-anchor="start" x="1014.13" y="-15.4" font-family="Times-12" font-size="14.00"> &#160;Declarations</text>
<polygon fill="#8dd3c7" stroke="transparent" points="1103.5,-10 1103.5,-30 1123.5,-30 1123.5,-10 1103.5,-10"/>
<text text-anchor="start" x="1127.23" y="-15.4" font-family="Times-12" font-size="14.00"> &#160;Module</text>
<polygon fill="#80b1d3" stroke="transparent" points="1189.5,-10 1189.5,-30 1209.5,-30 1209.5,-10 1189.5,-10"/>
<text text-anchor="start" x="1213.28" y="-15.4" font-family="Times-12" font-size="14.00"> &#160;Bootstrap</text>
<polygon fill="#fdb462" stroke="transparent" points="1286.5,-10 1286.5,-30 1306.5,-30 1306.5,-10 1286.5,-10"/>
<text text-anchor="start" x="1310.17" y="-15.4" font-family="Times-12" font-size="14.00"> &#160;Providers</text>
<polygon fill="#fb8072" stroke="transparent" points="1382.5,-10 1382.5,-30 1402.5,-30 1402.5,-10 1382.5,-10"/>
<text text-anchor="start" x="1406.23" y="-15.4" font-family="Times-12" font-size="14.00"> &#160;Exports</text>
<g id="clust1" class="cluster">
<title>cluster_SACBootstrap5DateTimeModule</title>
<polygon fill="none" stroke="black" stroke-dasharray="1,5" points="8,-70 8,-379.59 2441,-379.59 2441,-70 8,-70"/>
</g>
<g id="clust3" class="cluster">
<title>cluster_SACBootstrap5DateTimeModule_SacDateComponent_providers</title>
<polygon fill="none" stroke="black" points="751,-78 751,-241.59 2433,-241.59 2433,-78 751,-78"/>
</g>
<g id="clust2" class="cluster">
<title>cluster_SACBootstrap5DateTimeModule_declarations</title>
<polygon fill="none" stroke="black" points="228,-189.59 228,-241.59 743,-241.59 743,-189.59 228,-189.59"/>
</g>
<g id="clust7" class="cluster">
<title>cluster_SACBootstrap5DateTimeModule_imports</title>
<polygon fill="none" stroke="black" points="16,-189.59 16,-241.59 220,-241.59 220,-189.59 16,-189.59"/>
</g>
<g id="clust8" class="cluster">
<title>cluster_SACBootstrap5DateTimeModule_exports</title>
<polygon fill="none" stroke="black" points="130,-319.59 130,-371.59 804,-371.59 804,-319.59 130,-319.59"/>
</g>
<!-- SacDateComponent -->
<g id="node1" class="node">
<title>SacDateComponent</title>
<polygon fill="#ffffb3" stroke="black" points="1221.97,-233.59 1094.03,-233.59 1094.03,-197.59 1221.97,-197.59 1221.97,-233.59"/>
<text text-anchor="middle" x="1158" y="-211.39" font-family="Times,serif" font-size="14.00">SacDateComponent</text>
</g>
<!-- SACBootstrap5DateTimeModule -->
<g id="node5" class="node">
<title>SACBootstrap5DateTimeModule</title>
<polygon fill="#8dd3c7" stroke="black" points="566.19,-298.59 563.19,-302.59 542.19,-302.59 539.19,-298.59 361.81,-298.59 361.81,-262.59 566.19,-262.59 566.19,-298.59"/>
<text text-anchor="middle" x="464" y="-276.39" font-family="Times,serif" font-size="14.00">SACBootstrap5DateTimeModule</text>
</g>
<!-- SacDateComponent&#45;&gt;SACBootstrap5DateTimeModule -->
<g id="edge1" class="edge">
<title>SacDateComponent&#45;&gt;SACBootstrap5DateTimeModule</title>
<path fill="none" stroke="black" d="M1158,-233.61C1158,-250.96 1158,-274.59 1158,-274.59 1158,-274.59 576.4,-274.59 576.4,-274.59"/>
<polygon fill="black" stroke="black" points="576.4,-271.09 566.4,-274.59 576.4,-278.09 576.4,-271.09"/>
</g>
<!-- SacDateSelectorComponent -->
<g id="node2" class="node">
<title>SacDateSelectorComponent</title>
<polygon fill="#ffffb3" stroke="black" points="734.84,-233.59 561.16,-233.59 561.16,-197.59 734.84,-197.59 734.84,-233.59"/>
<text text-anchor="middle" x="648" y="-211.39" font-family="Times,serif" font-size="14.00">SacDateSelectorComponent</text>
</g>
<!-- SacDateSelectorComponent&#45;&gt;SACBootstrap5DateTimeModule -->
<g id="edge4" class="edge">
<title>SacDateSelectorComponent&#45;&gt;SACBootstrap5DateTimeModule</title>
<path fill="none" stroke="black" d="M561.13,-215.59C555.44,-215.59 551.92,-215.59 551.92,-215.59 551.92,-215.59 551.92,-252.48 551.92,-252.48"/>
<polygon fill="black" stroke="black" points="548.42,-252.48 551.92,-262.48 555.42,-252.48 548.42,-252.48"/>
</g>
<!-- SacDateTimeComponent -->
<g id="node3" class="node">
<title>SacDateTimeComponent</title>
<polygon fill="#ffffb3" stroke="black" points="542.52,-233.59 385.48,-233.59 385.48,-197.59 542.52,-197.59 542.52,-233.59"/>
<text text-anchor="middle" x="464" y="-211.39" font-family="Times,serif" font-size="14.00">SacDateTimeComponent</text>
</g>
<!-- SacDateTimeComponent&#45;&gt;SACBootstrap5DateTimeModule -->
<g id="edge5" class="edge">
<title>SacDateTimeComponent&#45;&gt;SACBootstrap5DateTimeModule</title>
<path fill="none" stroke="black" d="M464,-233.7C464,-233.7 464,-252.58 464,-252.58"/>
<polygon fill="black" stroke="black" points="460.5,-252.58 464,-262.58 467.5,-252.58 460.5,-252.58"/>
</g>
<!-- SacTimeComponent -->
<g id="node4" class="node">
<title>SacTimeComponent</title>
<polygon fill="#ffffb3" stroke="black" points="367.59,-233.59 236.41,-233.59 236.41,-197.59 367.59,-197.59 367.59,-233.59"/>
<text text-anchor="middle" x="302" y="-211.39" font-family="Times,serif" font-size="14.00">SacTimeComponent</text>
</g>
<!-- SacTimeComponent&#45;&gt;SACBootstrap5DateTimeModule -->
<g id="edge6" class="edge">
<title>SacTimeComponent&#45;&gt;SACBootstrap5DateTimeModule</title>
<path fill="none" stroke="black" d="M367.57,-215.59C372.96,-215.59 376.39,-215.59 376.39,-215.59 376.39,-215.59 376.39,-252.48 376.39,-252.48"/>
<polygon fill="black" stroke="black" points="372.89,-252.48 376.39,-262.48 379.89,-252.48 372.89,-252.48"/>
</g>
<!-- SacDateComponent  -->
<g id="node9" class="node">
<title>SacDateComponent </title>
<polygon fill="#fb8072" stroke="black" points="795.97,-363.59 664.03,-363.59 664.03,-327.59 795.97,-327.59 795.97,-363.59"/>
<text text-anchor="middle" x="730" y="-341.39" font-family="Times,serif" font-size="14.00">SacDateComponent </text>
</g>
<!-- SACBootstrap5DateTimeModule&#45;&gt;SacDateComponent  -->
<g id="edge8" class="edge">
<title>SACBootstrap5DateTimeModule&#45;&gt;SacDateComponent </title>
<path fill="none" stroke="black" stroke-dasharray="5,2" d="M566.31,-286.59C629.89,-286.59 699.59,-286.59 699.59,-286.59 699.59,-286.59 699.59,-317.57 699.59,-317.57"/>
<polygon fill="black" stroke="black" points="696.09,-317.57 699.59,-327.57 703.09,-317.57 696.09,-317.57"/>
</g>
<!-- SacDateSelectorComponent  -->
<g id="node10" class="node">
<title>SacDateSelectorComponent </title>
<polygon fill="#fb8072" stroke="black" points="646.84,-363.59 469.16,-363.59 469.16,-327.59 646.84,-327.59 646.84,-363.59"/>
<text text-anchor="middle" x="558" y="-341.39" font-family="Times,serif" font-size="14.00">SacDateSelectorComponent </text>
</g>
<!-- SACBootstrap5DateTimeModule&#45;&gt;SacDateSelectorComponent  -->
<g id="edge9" class="edge">
<title>SACBootstrap5DateTimeModule&#45;&gt;SacDateSelectorComponent </title>
<path fill="none" stroke="black" stroke-dasharray="5,2" d="M517.71,-298.7C517.71,-298.7 517.71,-317.58 517.71,-317.58"/>
<polygon fill="black" stroke="black" points="514.21,-317.58 517.71,-327.58 521.21,-317.58 514.21,-317.58"/>
</g>
<!-- SacDateTimeComponent  -->
<g id="node11" class="node">
<title>SacDateTimeComponent </title>
<polygon fill="#fb8072" stroke="black" points="451.52,-363.59 290.48,-363.59 290.48,-327.59 451.52,-327.59 451.52,-363.59"/>
<text text-anchor="middle" x="371" y="-341.39" font-family="Times,serif" font-size="14.00">SacDateTimeComponent </text>
</g>
<!-- SACBootstrap5DateTimeModule&#45;&gt;SacDateTimeComponent  -->
<g id="edge10" class="edge">
<title>SACBootstrap5DateTimeModule&#45;&gt;SacDateTimeComponent </title>
<path fill="none" stroke="black" stroke-dasharray="5,2" d="M406.71,-298.7C406.71,-298.7 406.71,-317.58 406.71,-317.58"/>
<polygon fill="black" stroke="black" points="403.21,-317.58 406.71,-327.58 410.21,-317.58 403.21,-317.58"/>
</g>
<!-- SacTimeComponent  -->
<g id="node12" class="node">
<title>SacTimeComponent </title>
<polygon fill="#fb8072" stroke="black" points="272.09,-363.59 137.91,-363.59 137.91,-327.59 272.09,-327.59 272.09,-363.59"/>
<text text-anchor="middle" x="205" y="-341.39" font-family="Times,serif" font-size="14.00">SacTimeComponent </text>
</g>
<!-- SACBootstrap5DateTimeModule&#45;&gt;SacTimeComponent  -->
<g id="edge11" class="edge">
<title>SACBootstrap5DateTimeModule&#45;&gt;SacTimeComponent </title>
<path fill="none" stroke="black" stroke-dasharray="5,2" d="M361.64,-286.59C308.43,-286.59 254.38,-286.59 254.38,-286.59 254.38,-286.59 254.38,-317.57 254.38,-317.57"/>
<polygon fill="black" stroke="black" points="250.88,-317.57 254.38,-327.57 257.88,-317.57 250.88,-317.57"/>
</g>
<!-- {
 &#160;&#160;&#160;provide: NG_VALUE_ACCESSOR, multi: true, useExisting: forwardRef(() =&gt; SacDateComponent),
} -->
<g id="node6" class="node">
<title>{
 &#160;&#160;&#160;provide: NG_VALUE_ACCESSOR, multi: true, useExisting: forwardRef(() =&gt; SacDateComponent),
}</title>
<ellipse fill="#fdb462" stroke="black" cx="2000" cy="-127.3" rx="424.93" ry="41.09"/>
<text text-anchor="middle" x="2000" y="-139.9" font-family="Times,serif" font-size="14.00">{</text>
<text text-anchor="middle" x="2000" y="-123.1" font-family="Times,serif" font-size="14.00"> &#160;&#160;&#160;provide: NG_VALUE_ACCESSOR, multi: true, useExisting: forwardRef(() =&gt; SacDateComponent),</text>
<text text-anchor="middle" x="2000" y="-106.3" font-family="Times,serif" font-size="14.00">}</text>
</g>
<!-- {
 &#160;&#160;&#160;provide: NG_VALUE_ACCESSOR, multi: true, useExisting: forwardRef(() =&gt; SacDateComponent),
}&#45;&gt;SacDateComponent -->
<g id="edge2" class="edge">
<title>{
 &#160;&#160;&#160;provide: NG_VALUE_ACCESSOR, multi: true, useExisting: forwardRef(() =&gt; SacDateComponent),
}&#45;&gt;SacDateComponent</title>
<path fill="none" stroke="black" d="M2000,-168.6C2000,-191.58 2000,-215.59 2000,-215.59 2000,-215.59 1231.98,-215.59 1231.98,-215.59"/>
<polygon fill="black" stroke="black" points="1231.98,-212.09 1221.98,-215.59 1231.98,-219.09 1231.98,-212.09"/>
</g>
<!-- {
 &#160;&#160;&#160;provide: NG_VALIDATORS, multi: true, useExisting: forwardRef(() =&gt; SacDateComponent),
} -->
<g id="node7" class="node">
<title>{
 &#160;&#160;&#160;provide: NG_VALIDATORS, multi: true, useExisting: forwardRef(() =&gt; SacDateComponent),
}</title>
<ellipse fill="#fdb462" stroke="black" cx="1158" cy="-127.3" rx="398.61" ry="41.09"/>
<text text-anchor="middle" x="1158" y="-139.9" font-family="Times,serif" font-size="14.00">{</text>
<text text-anchor="middle" x="1158" y="-123.1" font-family="Times,serif" font-size="14.00"> &#160;&#160;&#160;provide: NG_VALIDATORS, multi: true, useExisting: forwardRef(() =&gt; SacDateComponent),</text>
<text text-anchor="middle" x="1158" y="-106.3" font-family="Times,serif" font-size="14.00">}</text>
</g>
<!-- {
 &#160;&#160;&#160;provide: NG_VALIDATORS, multi: true, useExisting: forwardRef(() =&gt; SacDateComponent),
}&#45;&gt;SacDateComponent -->
<g id="edge3" class="edge">
<title>{
 &#160;&#160;&#160;provide: NG_VALIDATORS, multi: true, useExisting: forwardRef(() =&gt; SacDateComponent),
}&#45;&gt;SacDateComponent</title>
<path fill="none" stroke="black" d="M1158,-168.6C1158,-168.6 1158,-187.26 1158,-187.26"/>
<polygon fill="black" stroke="black" points="1154.5,-187.26 1158,-197.26 1161.5,-187.26 1154.5,-187.26"/>
</g>
<!-- SACBootstrap5LayoutModule -->
<g id="node8" class="node">
<title>SACBootstrap5LayoutModule</title>
<polygon fill="#8dd3c7" stroke="black" points="211.87,-233.59 208.87,-237.59 187.87,-237.59 184.87,-233.59 24.13,-233.59 24.13,-197.59 211.87,-197.59 211.87,-233.59"/>
<text text-anchor="middle" x="118" y="-211.39" font-family="Times,serif" font-size="14.00">SACBootstrap5LayoutModule</text>
</g>
<!-- SACBootstrap5LayoutModule&#45;&gt;SACBootstrap5DateTimeModule -->
<g id="edge7" class="edge">
<title>SACBootstrap5LayoutModule&#45;&gt;SACBootstrap5DateTimeModule</title>
<path fill="none" stroke="black" d="M174.82,-233.61C174.82,-250.96 174.82,-274.59 174.82,-274.59 174.82,-274.59 351.64,-274.59 351.64,-274.59"/>
<polygon fill="black" stroke="black" points="351.64,-278.09 361.64,-274.59 351.64,-271.09 351.64,-278.09"/>
</g>
</g>
</svg>
