<?xml version="1.0" encoding="UTF-8" standalone="no"?>
<!DOCTYPE svg PUBLIC "-//W3C//DTD SVG 1.1//EN"
 "http://www.w3.org/Graphics/SVG/1.1/DTD/svg11.dtd">
<!-- Generated by graphviz version 2.47.0 (20210316.0004)
 -->
<!-- Title: dependencies Pages: 1 -->
<svg width="1689pt" height="349pt"
 viewBox="0.00 0.00 1689.00 349.00" xmlns="http://www.w3.org/2000/svg" xmlns:xlink="http://www.w3.org/1999/xlink">
<g id="graph0" class="graph" transform="scale(1 1) rotate(0) translate(4 345)">
<title>dependencies</title>
<polygon fill="white" stroke="transparent" points="-4,4 -4,-345 1685,-345 1685,4 -4,4"/>
<text text-anchor="start" x="819.51" y="-42.4" font-family="Times-12" font-weight="bold" font-size="14.00">Legend</text>
<polygon fill="#ffffb3" stroke="transparent" points="606.5,-10 606.5,-30 626.5,-30 626.5,-10 606.5,-10"/>
<text text-anchor="start" x="630.13" y="-15.4" font-family="Times-12" font-size="14.00"> &#160;Declarations</text>
<polygon fill="#8dd3c7" stroke="transparent" points="719.5,-10 719.5,-30 739.5,-30 739.5,-10 719.5,-10"/>
<text text-anchor="start" x="743.23" y="-15.4" font-family="Times-12" font-size="14.00"> &#160;Module</text>
<polygon fill="#80b1d3" stroke="transparent" points="805.5,-10 805.5,-30 825.5,-30 825.5,-10 805.5,-10"/>
<text text-anchor="start" x="829.28" y="-15.4" font-family="Times-12" font-size="14.00"> &#160;Bootstrap</text>
<polygon fill="#fdb462" stroke="transparent" points="902.5,-10 902.5,-30 922.5,-30 922.5,-10 902.5,-10"/>
<text text-anchor="start" x="926.17" y="-15.4" font-family="Times-12" font-size="14.00"> &#160;Providers</text>
<polygon fill="#fb8072" stroke="transparent" points="998.5,-10 998.5,-30 1018.5,-30 1018.5,-10 998.5,-10"/>
<text text-anchor="start" x="1022.23" y="-15.4" font-family="Times-12" font-size="14.00"> &#160;Exports</text>
<g id="clust1" class="cluster">
<title>cluster_SACBootstrap3DateTimeModule</title>
<polygon fill="none" stroke="black" stroke-dasharray="1,5" points="8,-70 8,-333 1673,-333 1673,-70 8,-70"/>
</g>
<g id="clust8" class="cluster">
<title>cluster_SACBootstrap3DateTimeModule_exports</title>
<polygon fill="none" stroke="black" points="331,-273 331,-325 1005,-325 1005,-273 331,-273"/>
</g>
<g id="clust2" class="cluster">
<title>cluster_SACBootstrap3DateTimeModule_declarations</title>
<polygon fill="none" stroke="black" points="337,-143 337,-195 998,-195 998,-143 337,-143"/>
</g>
<g id="clust3" class="cluster">
<title>cluster_SACBootstrap3DateTimeModule_SacDateComponent_providers</title>
<polygon fill="none" stroke="black" points="16,-78 16,-130 1665,-130 1665,-78 16,-78"/>
</g>
<!-- SacDateComponent -->
<g id="node1" class="node">
<title>SacDateComponent</title>
<polygon fill="#ffffb3" stroke="black" points="989.97,-187 862.03,-187 862.03,-151 989.97,-151 989.97,-187"/>
<text text-anchor="middle" x="926" y="-164.8" font-family="Times,serif" font-size="14.00">SacDateComponent</text>
</g>
<!-- SACBootstrap3DateTimeModule -->
<g id="node5" class="node">
<title>SACBootstrap3DateTimeModule</title>
<polygon fill="#8dd3c7" stroke="black" points="767.19,-252 764.19,-256 743.19,-256 740.19,-252 562.81,-252 562.81,-216 767.19,-216 767.19,-252"/>
<text text-anchor="middle" x="665" y="-229.8" font-family="Times,serif" font-size="14.00">SACBootstrap3DateTimeModule</text>
</g>
<!-- SacDateComponent&#45;&gt;SACBootstrap3DateTimeModule -->
<g id="edge1" class="edge">
<title>SacDateComponent&#45;&gt;SACBootstrap3DateTimeModule</title>
<path fill="none" stroke="black" d="M948.41,-187.02C948.41,-204.37 948.41,-228 948.41,-228 948.41,-228 777.32,-228 777.32,-228"/>
<polygon fill="black" stroke="black" points="777.32,-224.5 767.32,-228 777.32,-231.5 777.32,-224.5"/>
</g>
<!-- SacDateSelectorComponent -->
<g id="node2" class="node">
<title>SacDateSelectorComponent</title>
<polygon fill="#ffffb3" stroke="black" points="843.84,-187 670.16,-187 670.16,-151 843.84,-151 843.84,-187"/>
<text text-anchor="middle" x="757" y="-164.8" font-family="Times,serif" font-size="14.00">SacDateSelectorComponent</text>
</g>
<!-- SacDateSelectorComponent&#45;&gt;SACBootstrap3DateTimeModule -->
<g id="edge4" class="edge">
<title>SacDateSelectorComponent&#45;&gt;SACBootstrap3DateTimeModule</title>
<path fill="none" stroke="black" d="M718.59,-187.11C718.59,-187.11 718.59,-205.99 718.59,-205.99"/>
<polygon fill="black" stroke="black" points="715.09,-205.99 718.59,-215.99 722.09,-205.99 715.09,-205.99"/>
</g>
<!-- SacDateTimeComponent -->
<g id="node3" class="node">
<title>SacDateTimeComponent</title>
<polygon fill="#ffffb3" stroke="black" points="651.52,-187 494.48,-187 494.48,-151 651.52,-151 651.52,-187"/>
<text text-anchor="middle" x="573" y="-164.8" font-family="Times,serif" font-size="14.00">SacDateTimeComponent</text>
</g>
<!-- SacDateTimeComponent&#45;&gt;SACBootstrap3DateTimeModule -->
<g id="edge5" class="edge">
<title>SacDateTimeComponent&#45;&gt;SACBootstrap3DateTimeModule</title>
<path fill="none" stroke="black" d="M607.33,-187.11C607.33,-187.11 607.33,-205.99 607.33,-205.99"/>
<polygon fill="black" stroke="black" points="603.83,-205.99 607.33,-215.99 610.83,-205.99 603.83,-205.99"/>
</g>
<!-- SacTimeComponent -->
<g id="node4" class="node">
<title>SacTimeComponent</title>
<polygon fill="#ffffb3" stroke="black" points="476.59,-187 345.41,-187 345.41,-151 476.59,-151 476.59,-187"/>
<text text-anchor="middle" x="411" y="-164.8" font-family="Times,serif" font-size="14.00">SacTimeComponent</text>
</g>
<!-- SacTimeComponent&#45;&gt;SACBootstrap3DateTimeModule -->
<g id="edge6" class="edge">
<title>SacTimeComponent&#45;&gt;SACBootstrap3DateTimeModule</title>
<path fill="none" stroke="black" d="M430.68,-187.02C430.68,-204.37 430.68,-228 430.68,-228 430.68,-228 552.57,-228 552.57,-228"/>
<polygon fill="black" stroke="black" points="552.57,-231.5 562.57,-228 552.57,-224.5 552.57,-231.5"/>
</g>
<!-- SacDateComponent  -->
<g id="node8" class="node">
<title>SacDateComponent </title>
<polygon fill="#fb8072" stroke="black" points="996.97,-317 865.03,-317 865.03,-281 996.97,-281 996.97,-317"/>
<text text-anchor="middle" x="931" y="-294.8" font-family="Times,serif" font-size="14.00">SacDateComponent </text>
</g>
<!-- SACBootstrap3DateTimeModule&#45;&gt;SacDateComponent  -->
<g id="edge7" class="edge">
<title>SACBootstrap3DateTimeModule&#45;&gt;SacDateComponent </title>
<path fill="none" stroke="black" stroke-dasharray="5,2" d="M767.21,-240C833.21,-240 906.84,-240 906.84,-240 906.84,-240 906.84,-270.98 906.84,-270.98"/>
<polygon fill="black" stroke="black" points="903.34,-270.98 906.84,-280.98 910.34,-270.98 903.34,-270.98"/>
</g>
<!-- SacDateSelectorComponent  -->
<g id="node9" class="node">
<title>SacDateSelectorComponent </title>
<polygon fill="#fb8072" stroke="black" points="847.84,-317 670.16,-317 670.16,-281 847.84,-281 847.84,-317"/>
<text text-anchor="middle" x="759" y="-294.8" font-family="Times,serif" font-size="14.00">SacDateSelectorComponent </text>
</g>
<!-- SACBootstrap3DateTimeModule&#45;&gt;SacDateSelectorComponent  -->
<g id="edge8" class="edge">
<title>SACBootstrap3DateTimeModule&#45;&gt;SacDateSelectorComponent </title>
<path fill="none" stroke="black" stroke-dasharray="5,2" d="M718.71,-252.11C718.71,-252.11 718.71,-270.99 718.71,-270.99"/>
<polygon fill="black" stroke="black" points="715.21,-270.99 718.71,-280.99 722.21,-270.99 715.21,-270.99"/>
</g>
<!-- SacDateTimeComponent  -->
<g id="node10" class="node">
<title>SacDateTimeComponent </title>
<polygon fill="#fb8072" stroke="black" points="652.52,-317 491.48,-317 491.48,-281 652.52,-281 652.52,-317"/>
<text text-anchor="middle" x="572" y="-294.8" font-family="Times,serif" font-size="14.00">SacDateTimeComponent </text>
</g>
<!-- SACBootstrap3DateTimeModule&#45;&gt;SacDateTimeComponent  -->
<g id="edge9" class="edge">
<title>SACBootstrap3DateTimeModule&#45;&gt;SacDateTimeComponent </title>
<path fill="none" stroke="black" stroke-dasharray="5,2" d="M607.71,-252.11C607.71,-252.11 607.71,-270.99 607.71,-270.99"/>
<polygon fill="black" stroke="black" points="604.21,-270.99 607.71,-280.99 611.21,-270.99 604.21,-270.99"/>
</g>
<!-- SacTimeComponent  -->
<g id="node11" class="node">
<title>SacTimeComponent </title>
<polygon fill="#fb8072" stroke="black" points="473.09,-317 338.91,-317 338.91,-281 473.09,-281 473.09,-317"/>
<text text-anchor="middle" x="406" y="-294.8" font-family="Times,serif" font-size="14.00">SacTimeComponent </text>
</g>
<!-- SACBootstrap3DateTimeModule&#45;&gt;SacTimeComponent  -->
<g id="edge10" class="edge">
<title>SACBootstrap3DateTimeModule&#45;&gt;SacTimeComponent </title>
<path fill="none" stroke="black" stroke-dasharray="5,2" d="M562.67,-240C483.78,-240 388.07,-240 388.07,-240 388.07,-240 388.07,-270.98 388.07,-270.98"/>
<polygon fill="black" stroke="black" points="384.57,-270.98 388.07,-280.98 391.57,-270.98 384.57,-270.98"/>
</g>
<!-- { provide: NG_VALUE_ACCESSOR, multi: true, useExisting: forwardRef(() =&gt; SacDateComponent) } -->
<g id="node6" class="node">
<title>{ provide: NG_VALUE_ACCESSOR, multi: true, useExisting: forwardRef(() =&gt; SacDateComponent) }</title>
<ellipse fill="#fdb462" stroke="black" cx="1240" cy="-104" rx="416.66" ry="18"/>
<text text-anchor="middle" x="1240" y="-99.8" font-family="Times,serif" font-size="14.00">{ provide: NG_VALUE_ACCESSOR, multi: true, useExisting: forwardRef(() =&gt; SacDateComponent) }</text>
</g>
<!-- { provide: NG_VALUE_ACCESSOR, multi: true, useExisting: forwardRef(() =&gt; SacDateComponent) }&#45;&gt;SacDateComponent -->
<g id="edge2" class="edge">
<title>{ provide: NG_VALUE_ACCESSOR, multi: true, useExisting: forwardRef(() =&gt; SacDateComponent) }&#45;&gt;SacDateComponent</title>
<path fill="none" stroke="black" d="M947.33,-116.84C947.33,-116.84 947.33,-140.52 947.33,-140.52"/>
<polygon fill="black" stroke="black" points="943.83,-140.52 947.33,-150.52 950.83,-140.52 943.83,-140.52"/>
</g>
<!-- { provide: NG_VALIDATORS, multi: true, useExisting: forwardRef(() =&gt; SacDateComponent) } -->
<g id="node7" class="node">
<title>{ provide: NG_VALIDATORS, multi: true, useExisting: forwardRef(() =&gt; SacDateComponent) }</title>
<ellipse fill="#fdb462" stroke="black" cx="415" cy="-104" rx="390.63" ry="18"/>
<text text-anchor="middle" x="415" y="-99.8" font-family="Times,serif" font-size="14.00">{ provide: NG_VALIDATORS, multi: true, useExisting: forwardRef(() =&gt; SacDateComponent) }</text>
</g>
<!-- { provide: NG_VALIDATORS, multi: true, useExisting: forwardRef(() =&gt; SacDateComponent) }&#45;&gt;SacDateComponent -->
<g id="edge3" class="edge">
<title>{ provide: NG_VALIDATORS, multi: true, useExisting: forwardRef(() =&gt; SacDateComponent) }&#45;&gt;SacDateComponent</title>
<path fill="none" stroke="black" d="M737.95,-114.44C737.95,-124.11 737.95,-137 737.95,-137 737.95,-137 904.67,-137 904.67,-137 904.67,-137 904.67,-140.76 904.67,-140.76"/>
<polygon fill="black" stroke="black" points="901.17,-140.76 904.67,-150.76 908.17,-140.76 901.17,-140.76"/>
</g>
</g>
</svg>
