<?xml version="1.0" encoding="UTF-8" standalone="no"?>
<!DOCTYPE svg PUBLIC "-//W3C//DTD SVG 1.1//EN"
 "http://www.w3.org/Graphics/SVG/1.1/DTD/svg11.dtd">
<!-- Generated by graphviz version 2.47.0 (20210316.0004)
 -->
<!-- Title: dependencies Pages: 1 -->
<svg width="1323pt" height="349pt"
 viewBox="0.00 0.00 1323.00 349.00" xmlns="http://www.w3.org/2000/svg" xmlns:xlink="http://www.w3.org/1999/xlink">
<g id="graph0" class="graph" transform="scale(1 1) rotate(0) translate(4 345)">
<title>dependencies</title>
<polygon fill="white" stroke="transparent" points="-4,4 -4,-345 1319,-345 1319,4 -4,4"/>
<text text-anchor="start" x="636.51" y="-42.4" font-family="Times-12" font-weight="bold" font-size="14.00">Legend</text>
<polygon fill="#ffffb3" stroke="transparent" points="423.5,-10 423.5,-30 443.5,-30 443.5,-10 423.5,-10"/>
<text text-anchor="start" x="447.13" y="-15.4" font-family="Times-12" font-size="14.00"> &#160;Declarations</text>
<polygon fill="#8dd3c7" stroke="transparent" points="536.5,-10 536.5,-30 556.5,-30 556.5,-10 536.5,-10"/>
<text text-anchor="start" x="560.23" y="-15.4" font-family="Times-12" font-size="14.00"> &#160;Module</text>
<polygon fill="#80b1d3" stroke="transparent" points="622.5,-10 622.5,-30 642.5,-30 642.5,-10 622.5,-10"/>
<text text-anchor="start" x="646.28" y="-15.4" font-family="Times-12" font-size="14.00"> &#160;Bootstrap</text>
<polygon fill="#fdb462" stroke="transparent" points="719.5,-10 719.5,-30 739.5,-30 739.5,-10 719.5,-10"/>
<text text-anchor="start" x="743.17" y="-15.4" font-family="Times-12" font-size="14.00"> &#160;Providers</text>
<polygon fill="#fb8072" stroke="transparent" points="815.5,-10 815.5,-30 835.5,-30 835.5,-10 815.5,-10"/>
<text text-anchor="start" x="839.23" y="-15.4" font-family="Times-12" font-size="14.00"> &#160;Exports</text>
<g id="clust1" class="cluster">
<title>cluster_SACBootstrap3DateTimeModule</title>
<polygon fill="none" stroke="black" stroke-dasharray="1,5" points="8,-70 8,-333 1307,-333 1307,-70 8,-70"/>
</g>
<g id="clust2" class="cluster">
<title>cluster_SACBootstrap3DateTimeModule_declarations</title>
<polygon fill="none" stroke="black" points="638,-143 638,-195 1299,-195 1299,-143 638,-143"/>
</g>
<g id="clust3" class="cluster">
<title>cluster_SACBootstrap3DateTimeModule_SacDateComponent_providers</title>
<polygon fill="none" stroke="black" points="1192,-78 1192,-130 1262,-130 1262,-78 1192,-78"/>
</g>
<g id="clust7" class="cluster">
<title>cluster_SACBootstrap3DateTimeModule_imports</title>
<polygon fill="none" stroke="black" points="16,-143 16,-195 630,-195 630,-143 16,-143"/>
</g>
<g id="clust8" class="cluster">
<title>cluster_SACBootstrap3DateTimeModule_exports</title>
<polygon fill="none" stroke="black" points="378,-273 378,-325 1052,-325 1052,-273 378,-273"/>
</g>
<!-- SacDateComponent -->
<g id="node1" class="node">
<title>SacDateComponent</title>
<polygon fill="#ffffb3" stroke="black" points="1290.97,-187 1163.03,-187 1163.03,-151 1290.97,-151 1290.97,-187"/>
<text text-anchor="middle" x="1227" y="-164.8" font-family="Times,serif" font-size="14.00">SacDateComponent</text>
</g>
<!-- SACBootstrap3DateTimeModule -->
<g id="node5" class="node">
<title>SACBootstrap3DateTimeModule</title>
<polygon fill="#8dd3c7" stroke="black" points="814.19,-252 811.19,-256 790.19,-256 787.19,-252 609.81,-252 609.81,-216 814.19,-216 814.19,-252"/>
<text text-anchor="middle" x="712" y="-229.8" font-family="Times,serif" font-size="14.00">SACBootstrap3DateTimeModule</text>
</g>
<!-- SacDateComponent&#45;&gt;SACBootstrap3DateTimeModule -->
<g id="edge1" class="edge">
<title>SacDateComponent&#45;&gt;SACBootstrap3DateTimeModule</title>
<path fill="none" stroke="black" d="M1227,-187.11C1227,-206.34 1227,-234 1227,-234 1227,-234 824.36,-234 824.36,-234"/>
<polygon fill="black" stroke="black" points="824.36,-230.5 814.36,-234 824.36,-237.5 824.36,-230.5"/>
</g>
<!-- SacDateSelectorComponent -->
<g id="node2" class="node">
<title>SacDateSelectorComponent</title>
<polygon fill="#ffffb3" stroke="black" points="1144.84,-187 971.16,-187 971.16,-151 1144.84,-151 1144.84,-187"/>
<text text-anchor="middle" x="1058" y="-164.8" font-family="Times,serif" font-size="14.00">SacDateSelectorComponent</text>
</g>
<!-- SacDateSelectorComponent&#45;&gt;SACBootstrap3DateTimeModule -->
<g id="edge4" class="edge">
<title>SacDateSelectorComponent&#45;&gt;SACBootstrap3DateTimeModule</title>
<path fill="none" stroke="black" d="M1007.41,-187.03C1007.41,-203.4 1007.41,-225 1007.41,-225 1007.41,-225 824.49,-225 824.49,-225"/>
<polygon fill="black" stroke="black" points="824.49,-221.5 814.49,-225 824.49,-228.5 824.49,-221.5"/>
</g>
<!-- SacDateTimeComponent -->
<g id="node3" class="node">
<title>SacDateTimeComponent</title>
<polygon fill="#ffffb3" stroke="black" points="952.52,-187 795.48,-187 795.48,-151 952.52,-151 952.52,-187"/>
<text text-anchor="middle" x="874" y="-164.8" font-family="Times,serif" font-size="14.00">SacDateTimeComponent</text>
</g>
<!-- SacDateTimeComponent&#45;&gt;SACBootstrap3DateTimeModule -->
<g id="edge5" class="edge">
<title>SacDateTimeComponent&#45;&gt;SACBootstrap3DateTimeModule</title>
<path fill="none" stroke="black" d="M804.67,-187.11C804.67,-187.11 804.67,-205.99 804.67,-205.99"/>
<polygon fill="black" stroke="black" points="801.17,-205.99 804.67,-215.99 808.17,-205.99 801.17,-205.99"/>
</g>
<!-- SacTimeComponent -->
<g id="node4" class="node">
<title>SacTimeComponent</title>
<polygon fill="#ffffb3" stroke="black" points="777.59,-187 646.41,-187 646.41,-151 777.59,-151 777.59,-187"/>
<text text-anchor="middle" x="712" y="-164.8" font-family="Times,serif" font-size="14.00">SacTimeComponent</text>
</g>
<!-- SacTimeComponent&#45;&gt;SACBootstrap3DateTimeModule -->
<g id="edge6" class="edge">
<title>SacTimeComponent&#45;&gt;SACBootstrap3DateTimeModule</title>
<path fill="none" stroke="black" d="M712,-187.11C712,-187.11 712,-205.99 712,-205.99"/>
<polygon fill="black" stroke="black" points="708.5,-205.99 712,-215.99 715.5,-205.99 708.5,-205.99"/>
</g>
<!-- SacDateComponent  -->
<g id="node10" class="node">
<title>SacDateComponent </title>
<polygon fill="#fb8072" stroke="black" points="1043.97,-317 912.03,-317 912.03,-281 1043.97,-281 1043.97,-317"/>
<text text-anchor="middle" x="978" y="-294.8" font-family="Times,serif" font-size="14.00">SacDateComponent </text>
</g>
<!-- SACBootstrap3DateTimeModule&#45;&gt;SacDateComponent  -->
<g id="edge10" class="edge">
<title>SACBootstrap3DateTimeModule&#45;&gt;SacDateComponent </title>
<path fill="none" stroke="black" stroke-dasharray="5,2" d="M814.19,-243C871.87,-243 932.51,-243 932.51,-243 932.51,-243 932.51,-270.97 932.51,-270.97"/>
<polygon fill="black" stroke="black" points="929.01,-270.97 932.51,-280.97 936.01,-270.97 929.01,-270.97"/>
</g>
<!-- SacDateSelectorComponent  -->
<g id="node11" class="node">
<title>SacDateSelectorComponent </title>
<polygon fill="#fb8072" stroke="black" points="894.84,-317 717.16,-317 717.16,-281 894.84,-281 894.84,-317"/>
<text text-anchor="middle" x="806" y="-294.8" font-family="Times,serif" font-size="14.00">SacDateSelectorComponent </text>
</g>
<!-- SACBootstrap3DateTimeModule&#45;&gt;SacDateSelectorComponent  -->
<g id="edge11" class="edge">
<title>SACBootstrap3DateTimeModule&#45;&gt;SacDateSelectorComponent </title>
<path fill="none" stroke="black" stroke-dasharray="5,2" d="M765.71,-252.11C765.71,-252.11 765.71,-270.99 765.71,-270.99"/>
<polygon fill="black" stroke="black" points="762.21,-270.99 765.71,-280.99 769.21,-270.99 762.21,-270.99"/>
</g>
<!-- SacDateTimeComponent  -->
<g id="node12" class="node">
<title>SacDateTimeComponent </title>
<polygon fill="#fb8072" stroke="black" points="699.52,-317 538.48,-317 538.48,-281 699.52,-281 699.52,-317"/>
<text text-anchor="middle" x="619" y="-294.8" font-family="Times,serif" font-size="14.00">SacDateTimeComponent </text>
</g>
<!-- SACBootstrap3DateTimeModule&#45;&gt;SacDateTimeComponent  -->
<g id="edge12" class="edge">
<title>SACBootstrap3DateTimeModule&#45;&gt;SacDateTimeComponent </title>
<path fill="none" stroke="black" stroke-dasharray="5,2" d="M654.71,-252.11C654.71,-252.11 654.71,-270.99 654.71,-270.99"/>
<polygon fill="black" stroke="black" points="651.21,-270.99 654.71,-280.99 658.21,-270.99 651.21,-270.99"/>
</g>
<!-- SacTimeComponent  -->
<g id="node13" class="node">
<title>SacTimeComponent </title>
<polygon fill="#fb8072" stroke="black" points="520.09,-317 385.91,-317 385.91,-281 520.09,-281 520.09,-317"/>
<text text-anchor="middle" x="453" y="-294.8" font-family="Times,serif" font-size="14.00">SacTimeComponent </text>
</g>
<!-- SACBootstrap3DateTimeModule&#45;&gt;SacTimeComponent  -->
<g id="edge13" class="edge">
<title>SACBootstrap3DateTimeModule&#45;&gt;SacTimeComponent </title>
<path fill="none" stroke="black" stroke-dasharray="5,2" d="M609.69,-243C546.41,-243 477.18,-243 477.18,-243 477.18,-243 477.18,-270.97 477.18,-270.97"/>
<polygon fill="black" stroke="black" points="473.68,-270.97 477.18,-280.97 480.68,-270.97 473.68,-270.97"/>
</g>
<!-- ) -->
<g id="node6" class="node">
<title>)</title>
<ellipse fill="#fdb462" stroke="black" cx="1227" cy="-104" rx="27" ry="18"/>
<text text-anchor="middle" x="1227" y="-99.8" font-family="Times,serif" font-size="14.00">)</text>
</g>
<!-- )&#45;&gt;SacDateComponent -->
<g id="edge2" class="edge">
<title>)&#45;&gt;SacDateComponent</title>
<path fill="none" stroke="black" d="M1236,-121.08C1236,-121.08 1236,-140.9 1236,-140.9"/>
<polygon fill="black" stroke="black" points="1232.5,-140.9 1236,-150.9 1239.5,-140.9 1232.5,-140.9"/>
</g>
<!-- )&#45;&gt;SacDateComponent -->
<g id="edge3" class="edge">
<title>)&#45;&gt;SacDateComponent</title>
<path fill="none" stroke="black" d="M1218,-121.08C1218,-121.08 1218,-140.9 1218,-140.9"/>
<polygon fill="black" stroke="black" points="1214.5,-140.9 1218,-150.9 1221.5,-140.9 1214.5,-140.9"/>
</g>
<!-- SACBootstrap3LayoutModule -->
<g id="node7" class="node">
<title>SACBootstrap3LayoutModule</title>
<polygon fill="#8dd3c7" stroke="black" points="621.87,-187 618.87,-191 597.87,-191 594.87,-187 434.13,-187 434.13,-151 621.87,-151 621.87,-187"/>
<text text-anchor="middle" x="528" y="-164.8" font-family="Times,serif" font-size="14.00">SACBootstrap3LayoutModule</text>
</g>
<!-- SACBootstrap3LayoutModule&#45;&gt;SACBootstrap3DateTimeModule -->
<g id="edge7" class="edge">
<title>SACBootstrap3LayoutModule&#45;&gt;SACBootstrap3DateTimeModule</title>
<path fill="none" stroke="black" d="M615.92,-187.11C615.92,-187.11 615.92,-205.99 615.92,-205.99"/>
<polygon fill="black" stroke="black" points="612.42,-205.99 615.92,-215.99 619.42,-205.99 612.42,-205.99"/>
</g>
<!-- SACBootstrap3TooltipModule -->
<g id="node8" class="node">
<title>SACBootstrap3TooltipModule</title>
<polygon fill="#8dd3c7" stroke="black" points="415.94,-187 412.94,-191 391.94,-191 388.94,-187 226.06,-187 226.06,-151 415.94,-151 415.94,-187"/>
<text text-anchor="middle" x="321" y="-164.8" font-family="Times,serif" font-size="14.00">SACBootstrap3TooltipModule</text>
</g>
<!-- SACBootstrap3TooltipModule&#45;&gt;SACBootstrap3DateTimeModule -->
<g id="edge8" class="edge">
<title>SACBootstrap3TooltipModule&#45;&gt;SACBootstrap3DateTimeModule</title>
<path fill="none" stroke="black" d="M400.71,-187.03C400.71,-203.4 400.71,-225 400.71,-225 400.71,-225 599.64,-225 599.64,-225"/>
<polygon fill="black" stroke="black" points="599.64,-228.5 609.64,-225 599.64,-221.5 599.64,-228.5"/>
</g>
<!-- SACCommonUtliltiesModule -->
<g id="node9" class="node">
<title>SACCommonUtliltiesModule</title>
<polygon fill="#8dd3c7" stroke="black" points="208,-187 205,-191 184,-191 181,-187 24,-187 24,-151 208,-151 208,-187"/>
<text text-anchor="middle" x="116" y="-164.8" font-family="Times,serif" font-size="14.00">SACCommonUtliltiesModule</text>
</g>
<!-- SACCommonUtliltiesModule&#45;&gt;SACBootstrap3DateTimeModule -->
<g id="edge9" class="edge">
<title>SACCommonUtliltiesModule&#45;&gt;SACBootstrap3DateTimeModule</title>
<path fill="none" stroke="black" d="M116,-187.11C116,-206.34 116,-234 116,-234 116,-234 599.88,-234 599.88,-234"/>
<polygon fill="black" stroke="black" points="599.88,-237.5 609.88,-234 599.88,-230.5 599.88,-237.5"/>
</g>
</g>
</svg>
