<?xml version="1.0" encoding="UTF-8" standalone="no"?>
<!DOCTYPE svg PUBLIC "-//W3C//DTD SVG 1.1//EN"
 "http://www.w3.org/Graphics/SVG/1.1/DTD/svg11.dtd">
<!-- Generated by graphviz version 2.47.0 (20210316.0004)
 -->
<!-- Title: dependencies Pages: 1 -->
<svg width="1121pt" height="349pt"
 viewBox="0.00 0.00 1121.00 349.00" xmlns="http://www.w3.org/2000/svg" xmlns:xlink="http://www.w3.org/1999/xlink">
<g id="graph0" class="graph" transform="scale(1 1) rotate(0) translate(4 345)">
<title>dependencies</title>
<polygon fill="white" stroke="transparent" points="-4,4 -4,-345 1117,-345 1117,4 -4,4"/>
<text text-anchor="start" x="535.51" y="-42.4" font-family="Times-12" font-weight="bold" font-size="14.00">Legend</text>
<polygon fill="#ffffb3" stroke="transparent" points="322.5,-10 322.5,-30 342.5,-30 342.5,-10 322.5,-10"/>
<text text-anchor="start" x="346.13" y="-15.4" font-family="Times-12" font-size="14.00"> &#160;Declarations</text>
<polygon fill="#8dd3c7" stroke="transparent" points="435.5,-10 435.5,-30 455.5,-30 455.5,-10 435.5,-10"/>
<text text-anchor="start" x="459.23" y="-15.4" font-family="Times-12" font-size="14.00"> &#160;Module</text>
<polygon fill="#80b1d3" stroke="transparent" points="521.5,-10 521.5,-30 541.5,-30 541.5,-10 521.5,-10"/>
<text text-anchor="start" x="545.28" y="-15.4" font-family="Times-12" font-size="14.00"> &#160;Bootstrap</text>
<polygon fill="#fdb462" stroke="transparent" points="618.5,-10 618.5,-30 638.5,-30 638.5,-10 618.5,-10"/>
<text text-anchor="start" x="642.17" y="-15.4" font-family="Times-12" font-size="14.00"> &#160;Providers</text>
<polygon fill="#fb8072" stroke="transparent" points="714.5,-10 714.5,-30 734.5,-30 734.5,-10 714.5,-10"/>
<text text-anchor="start" x="738.23" y="-15.4" font-family="Times-12" font-size="14.00"> &#160;Exports</text>
<g id="clust1" class="cluster">
<title>cluster_SACBootstrap3DateTimeModule</title>
<polygon fill="none" stroke="black" stroke-dasharray="1,5" points="8,-70 8,-333 1105,-333 1105,-70 8,-70"/>
</g>
<g id="clust2" class="cluster">
<title>cluster_SACBootstrap3DateTimeModule_declarations</title>
<polygon fill="none" stroke="black" points="436,-143 436,-195 1097,-195 1097,-143 436,-143"/>
</g>
<g id="clust3" class="cluster">
<title>cluster_SACBootstrap3DateTimeModule_SacDateComponent_providers</title>
<polygon fill="none" stroke="black" points="990,-78 990,-130 1060,-130 1060,-78 990,-78"/>
</g>
<g id="clust7" class="cluster">
<title>cluster_SACBootstrap3DateTimeModule_imports</title>
<polygon fill="none" stroke="black" points="16,-143 16,-195 428,-195 428,-143 16,-143"/>
</g>
<g id="clust8" class="cluster">
<title>cluster_SACBootstrap3DateTimeModule_exports</title>
<polygon fill="none" stroke="black" points="253,-273 253,-325 927,-325 927,-273 253,-273"/>
</g>
<!-- SacDateComponent -->
<g id="node1" class="node">
<title>SacDateComponent</title>
<polygon fill="#ffffb3" stroke="black" points="1088.97,-187 961.03,-187 961.03,-151 1088.97,-151 1088.97,-187"/>
<text text-anchor="middle" x="1025" y="-164.8" font-family="Times,serif" font-size="14.00">SacDateComponent</text>
</g>
<!-- SACBootstrap3DateTimeModule -->
<g id="node5" class="node">
<title>SACBootstrap3DateTimeModule</title>
<polygon fill="#8dd3c7" stroke="black" points="689.19,-252 686.19,-256 665.19,-256 662.19,-252 484.81,-252 484.81,-216 689.19,-216 689.19,-252"/>
<text text-anchor="middle" x="587" y="-229.8" font-family="Times,serif" font-size="14.00">SACBootstrap3DateTimeModule</text>
</g>
<!-- SacDateComponent&#45;&gt;SACBootstrap3DateTimeModule -->
<g id="edge1" class="edge">
<title>SacDateComponent&#45;&gt;SACBootstrap3DateTimeModule</title>
<path fill="none" stroke="black" d="M1025,-187.11C1025,-206.34 1025,-234 1025,-234 1025,-234 699.14,-234 699.14,-234"/>
<polygon fill="black" stroke="black" points="699.14,-230.5 689.14,-234 699.14,-237.5 699.14,-230.5"/>
</g>
<!-- SacDateSelectorComponent -->
<g id="node2" class="node">
<title>SacDateSelectorComponent</title>
<polygon fill="#ffffb3" stroke="black" points="942.84,-187 769.16,-187 769.16,-151 942.84,-151 942.84,-187"/>
<text text-anchor="middle" x="856" y="-164.8" font-family="Times,serif" font-size="14.00">SacDateSelectorComponent</text>
</g>
<!-- SacDateSelectorComponent&#45;&gt;SACBootstrap3DateTimeModule -->
<g id="edge4" class="edge">
<title>SacDateSelectorComponent&#45;&gt;SACBootstrap3DateTimeModule</title>
<path fill="none" stroke="black" d="M778.47,-187.03C778.47,-203.4 778.47,-225 778.47,-225 778.47,-225 699.18,-225 699.18,-225"/>
<polygon fill="black" stroke="black" points="699.18,-221.5 689.18,-225 699.18,-228.5 699.18,-221.5"/>
</g>
<!-- SacDateTimeComponent -->
<g id="node3" class="node">
<title>SacDateTimeComponent</title>
<polygon fill="#ffffb3" stroke="black" points="750.52,-187 593.48,-187 593.48,-151 750.52,-151 750.52,-187"/>
<text text-anchor="middle" x="672" y="-164.8" font-family="Times,serif" font-size="14.00">SacDateTimeComponent</text>
</g>
<!-- SacDateTimeComponent&#45;&gt;SACBootstrap3DateTimeModule -->
<g id="edge5" class="edge">
<title>SacDateTimeComponent&#45;&gt;SACBootstrap3DateTimeModule</title>
<path fill="none" stroke="black" d="M641.17,-187.11C641.17,-187.11 641.17,-205.99 641.17,-205.99"/>
<polygon fill="black" stroke="black" points="637.67,-205.99 641.17,-215.99 644.67,-205.99 637.67,-205.99"/>
</g>
<!-- SacTimeComponent -->
<g id="node4" class="node">
<title>SacTimeComponent</title>
<polygon fill="#ffffb3" stroke="black" points="575.59,-187 444.41,-187 444.41,-151 575.59,-151 575.59,-187"/>
<text text-anchor="middle" x="510" y="-164.8" font-family="Times,serif" font-size="14.00">SacTimeComponent</text>
</g>
<!-- SacTimeComponent&#45;&gt;SACBootstrap3DateTimeModule -->
<g id="edge6" class="edge">
<title>SacTimeComponent&#45;&gt;SACBootstrap3DateTimeModule</title>
<path fill="none" stroke="black" d="M530.23,-187.11C530.23,-187.11 530.23,-205.99 530.23,-205.99"/>
<polygon fill="black" stroke="black" points="526.73,-205.99 530.23,-215.99 533.73,-205.99 526.73,-205.99"/>
</g>
<!-- SacDateComponent  -->
<g id="node9" class="node">
<title>SacDateComponent </title>
<polygon fill="#fb8072" stroke="black" points="918.97,-317 787.03,-317 787.03,-281 918.97,-281 918.97,-317"/>
<text text-anchor="middle" x="853" y="-294.8" font-family="Times,serif" font-size="14.00">SacDateComponent </text>
</g>
<!-- SACBootstrap3DateTimeModule&#45;&gt;SacDateComponent  -->
<g id="edge9" class="edge">
<title>SACBootstrap3DateTimeModule&#45;&gt;SacDateComponent </title>
<path fill="none" stroke="black" stroke-dasharray="5,2" d="M689.46,-243C764.4,-243 853,-243 853,-243 853,-243 853,-270.97 853,-270.97"/>
<polygon fill="black" stroke="black" points="849.5,-270.97 853,-280.97 856.5,-270.97 849.5,-270.97"/>
</g>
<!-- SacDateSelectorComponent  -->
<g id="node10" class="node">
<title>SacDateSelectorComponent </title>
<polygon fill="#fb8072" stroke="black" points="769.84,-317 592.16,-317 592.16,-281 769.84,-281 769.84,-317"/>
<text text-anchor="middle" x="681" y="-294.8" font-family="Times,serif" font-size="14.00">SacDateSelectorComponent </text>
</g>
<!-- SACBootstrap3DateTimeModule&#45;&gt;SacDateSelectorComponent  -->
<g id="edge10" class="edge">
<title>SACBootstrap3DateTimeModule&#45;&gt;SacDateSelectorComponent </title>
<path fill="none" stroke="black" stroke-dasharray="5,2" d="M640.71,-252.11C640.71,-252.11 640.71,-270.99 640.71,-270.99"/>
<polygon fill="black" stroke="black" points="637.21,-270.99 640.71,-280.99 644.21,-270.99 637.21,-270.99"/>
</g>
<!-- SacDateTimeComponent  -->
<g id="node11" class="node">
<title>SacDateTimeComponent </title>
<polygon fill="#fb8072" stroke="black" points="574.52,-317 413.48,-317 413.48,-281 574.52,-281 574.52,-317"/>
<text text-anchor="middle" x="494" y="-294.8" font-family="Times,serif" font-size="14.00">SacDateTimeComponent </text>
</g>
<!-- SACBootstrap3DateTimeModule&#45;&gt;SacDateTimeComponent  -->
<g id="edge11" class="edge">
<title>SACBootstrap3DateTimeModule&#45;&gt;SacDateTimeComponent </title>
<path fill="none" stroke="black" stroke-dasharray="5,2" d="M529.71,-252.11C529.71,-252.11 529.71,-270.99 529.71,-270.99"/>
<polygon fill="black" stroke="black" points="526.21,-270.99 529.71,-280.99 533.21,-270.99 526.21,-270.99"/>
</g>
<!-- SacTimeComponent  -->
<g id="node12" class="node">
<title>SacTimeComponent </title>
<polygon fill="#fb8072" stroke="black" points="395.09,-317 260.91,-317 260.91,-281 395.09,-281 395.09,-317"/>
<text text-anchor="middle" x="328" y="-294.8" font-family="Times,serif" font-size="14.00">SacTimeComponent </text>
</g>
<!-- SACBootstrap3DateTimeModule&#45;&gt;SacTimeComponent  -->
<g id="edge12" class="edge">
<title>SACBootstrap3DateTimeModule&#45;&gt;SacTimeComponent </title>
<path fill="none" stroke="black" stroke-dasharray="5,2" d="M484.64,-243C412.24,-243 328,-243 328,-243 328,-243 328,-270.97 328,-270.97"/>
<polygon fill="black" stroke="black" points="324.5,-270.97 328,-280.97 331.5,-270.97 324.5,-270.97"/>
</g>
<!-- ) -->
<g id="node6" class="node">
<title>)</title>
<ellipse fill="#fdb462" stroke="black" cx="1025" cy="-104" rx="27" ry="18"/>
<text text-anchor="middle" x="1025" y="-99.8" font-family="Times,serif" font-size="14.00">)</text>
</g>
<!-- )&#45;&gt;SacDateComponent -->
<g id="edge2" class="edge">
<title>)&#45;&gt;SacDateComponent</title>
<path fill="none" stroke="black" d="M1034,-121.08C1034,-121.08 1034,-140.9 1034,-140.9"/>
<polygon fill="black" stroke="black" points="1030.5,-140.9 1034,-150.9 1037.5,-140.9 1030.5,-140.9"/>
</g>
<!-- )&#45;&gt;SacDateComponent -->
<g id="edge3" class="edge">
<title>)&#45;&gt;SacDateComponent</title>
<path fill="none" stroke="black" d="M1016,-121.08C1016,-121.08 1016,-140.9 1016,-140.9"/>
<polygon fill="black" stroke="black" points="1012.5,-140.9 1016,-150.9 1019.5,-140.9 1012.5,-140.9"/>
</g>
<!-- SACBootstrap3LayoutModule -->
<g id="node7" class="node">
<title>SACBootstrap3LayoutModule</title>
<polygon fill="#8dd3c7" stroke="black" points="419.87,-187 416.87,-191 395.87,-191 392.87,-187 232.13,-187 232.13,-151 419.87,-151 419.87,-187"/>
<text text-anchor="middle" x="326" y="-164.8" font-family="Times,serif" font-size="14.00">SACBootstrap3LayoutModule</text>
</g>
<!-- SACBootstrap3LayoutModule&#45;&gt;SACBootstrap3DateTimeModule -->
<g id="edge7" class="edge">
<title>SACBootstrap3LayoutModule&#45;&gt;SACBootstrap3DateTimeModule</title>
<path fill="none" stroke="black" d="M404.39,-187.03C404.39,-203.4 404.39,-225 404.39,-225 404.39,-225 474.75,-225 474.75,-225"/>
<polygon fill="black" stroke="black" points="474.75,-228.5 484.75,-225 474.75,-221.5 474.75,-228.5"/>
</g>
<!-- SACBootstrap3TooltipModule -->
<g id="node8" class="node">
<title>SACBootstrap3TooltipModule</title>
<polygon fill="#8dd3c7" stroke="black" points="213.94,-187 210.94,-191 189.94,-191 186.94,-187 24.06,-187 24.06,-151 213.94,-151 213.94,-187"/>
<text text-anchor="middle" x="119" y="-164.8" font-family="Times,serif" font-size="14.00">SACBootstrap3TooltipModule</text>
</g>
<!-- SACBootstrap3TooltipModule&#45;&gt;SACBootstrap3DateTimeModule -->
<g id="edge8" class="edge">
<title>SACBootstrap3TooltipModule&#45;&gt;SACBootstrap3DateTimeModule</title>
<path fill="none" stroke="black" d="M119,-187.11C119,-206.34 119,-234 119,-234 119,-234 474.87,-234 474.87,-234"/>
<polygon fill="black" stroke="black" points="474.87,-237.5 484.87,-234 474.87,-230.5 474.87,-237.5"/>
</g>
</g>
</svg>
