<?xml version="1.0" encoding="UTF-8" standalone="no"?>
<!DOCTYPE svg PUBLIC "-//W3C//DTD SVG 1.1//EN"
 "http://www.w3.org/Graphics/SVG/1.1/DTD/svg11.dtd">
<!-- Generated by graphviz version 2.47.0 (20210316.0004)
 -->
<!-- Title: dependencies Pages: 1 -->
<svg width="2457pt" height="396pt"
 viewBox="0.00 0.00 2457.00 395.59" xmlns="http://www.w3.org/2000/svg" xmlns:xlink="http://www.w3.org/1999/xlink">
<g id="graph0" class="graph" transform="scale(1 1) rotate(0) translate(4 391.59)">
<title>dependencies</title>
<polygon fill="white" stroke="transparent" points="-4,4 -4,-391.59 2453,-391.59 2453,4 -4,4"/>
<text text-anchor="start" x="1203.51" y="-42.4" font-family="Times-12" font-weight="bold" font-size="14.00">Legend</text>
<polygon fill="#ffffb3" stroke="transparent" points="990.5,-10 990.5,-30 1010.5,-30 1010.5,-10 990.5,-10"/>
<text text-anchor="start" x="1014.13" y="-15.4" font-family="Times-12" font-size="14.00"> &#160;Declarations</text>
<polygon fill="#8dd3c7" stroke="transparent" points="1103.5,-10 1103.5,-30 1123.5,-30 1123.5,-10 1103.5,-10"/>
<text text-anchor="start" x="1127.23" y="-15.4" font-family="Times-12" font-size="14.00"> &#160;Module</text>
<polygon fill="#80b1d3" stroke="transparent" points="1189.5,-10 1189.5,-30 1209.5,-30 1209.5,-10 1189.5,-10"/>
<text text-anchor="start" x="1213.28" y="-15.4" font-family="Times-12" font-size="14.00"> &#160;Bootstrap</text>
<polygon fill="#fdb462" stroke="transparent" points="1286.5,-10 1286.5,-30 1306.5,-30 1306.5,-10 1286.5,-10"/>
<text text-anchor="start" x="1310.17" y="-15.4" font-family="Times-12" font-size="14.00"> &#160;Providers</text>
<polygon fill="#fb8072" stroke="transparent" points="1382.5,-10 1382.5,-30 1402.5,-30 1402.5,-10 1382.5,-10"/>
<text text-anchor="start" x="1406.23" y="-15.4" font-family="Times-12" font-size="14.00"> &#160;Exports</text>
<g id="clust1" class="cluster">
<title>cluster_SACBootstrap3DateTimeModule</title>
<polygon fill="none" stroke="black" stroke-dasharray="1,5" points="8,-70 8,-379.59 2441,-379.59 2441,-70 8,-70"/>
</g>
<g id="clust8" class="cluster">
<title>cluster_SACBootstrap3DateTimeModule_exports</title>
<polygon fill="none" stroke="black" points="106,-319.59 106,-371.59 780,-371.59 780,-319.59 106,-319.59"/>
</g>
<g id="clust3" class="cluster">
<title>cluster_SACBootstrap3DateTimeModule_SacDateComponent_providers</title>
<polygon fill="none" stroke="black" points="751,-78 751,-241.59 2433,-241.59 2433,-78 751,-78"/>
</g>
<g id="clust7" class="cluster">
<title>cluster_SACBootstrap3DateTimeModule_imports</title>
<polygon fill="none" stroke="black" points="539,-189.59 539,-241.59 743,-241.59 743,-189.59 539,-189.59"/>
</g>
<g id="clust2" class="cluster">
<title>cluster_SACBootstrap3DateTimeModule_declarations</title>
<polygon fill="none" stroke="black" points="16,-189.59 16,-241.59 531,-241.59 531,-189.59 16,-189.59"/>
</g>
<!-- SacDateComponent -->
<g id="node1" class="node">
<title>SacDateComponent</title>
<polygon fill="#ffffb3" stroke="black" points="1221.97,-233.59 1094.03,-233.59 1094.03,-197.59 1221.97,-197.59 1221.97,-233.59"/>
<text text-anchor="middle" x="1158" y="-211.39" font-family="Times,serif" font-size="14.00">SacDateComponent</text>
</g>
<!-- SACBootstrap3DateTimeModule -->
<g id="node5" class="node">
<title>SACBootstrap3DateTimeModule</title>
<polygon fill="#8dd3c7" stroke="black" points="538.19,-298.59 535.19,-302.59 514.19,-302.59 511.19,-298.59 333.81,-298.59 333.81,-262.59 538.19,-262.59 538.19,-298.59"/>
<text text-anchor="middle" x="436" y="-276.39" font-family="Times,serif" font-size="14.00">SACBootstrap3DateTimeModule</text>
</g>
<!-- SacDateComponent&#45;&gt;SACBootstrap3DateTimeModule -->
<g id="edge1" class="edge">
<title>SacDateComponent&#45;&gt;SACBootstrap3DateTimeModule</title>
<path fill="none" stroke="black" d="M1158,-233.61C1158,-250.96 1158,-274.59 1158,-274.59 1158,-274.59 548.3,-274.59 548.3,-274.59"/>
<polygon fill="black" stroke="black" points="548.3,-271.09 538.3,-274.59 548.3,-278.09 548.3,-271.09"/>
</g>
<!-- SacDateSelectorComponent -->
<g id="node2" class="node">
<title>SacDateSelectorComponent</title>
<polygon fill="#ffffb3" stroke="black" points="522.84,-233.59 349.16,-233.59 349.16,-197.59 522.84,-197.59 522.84,-233.59"/>
<text text-anchor="middle" x="436" y="-211.39" font-family="Times,serif" font-size="14.00">SacDateSelectorComponent</text>
</g>
<!-- SacDateSelectorComponent&#45;&gt;SACBootstrap3DateTimeModule -->
<g id="edge4" class="edge">
<title>SacDateSelectorComponent&#45;&gt;SACBootstrap3DateTimeModule</title>
<path fill="none" stroke="black" d="M436,-233.7C436,-233.7 436,-252.58 436,-252.58"/>
<polygon fill="black" stroke="black" points="432.5,-252.58 436,-262.58 439.5,-252.58 432.5,-252.58"/>
</g>
<!-- SacDateTimeComponent -->
<g id="node3" class="node">
<title>SacDateTimeComponent</title>
<polygon fill="#ffffb3" stroke="black" points="330.52,-233.59 173.48,-233.59 173.48,-197.59 330.52,-197.59 330.52,-233.59"/>
<text text-anchor="middle" x="252" y="-211.39" font-family="Times,serif" font-size="14.00">SacDateTimeComponent</text>
</g>
<!-- SacDateTimeComponent&#45;&gt;SACBootstrap3DateTimeModule -->
<g id="edge5" class="edge">
<title>SacDateTimeComponent&#45;&gt;SACBootstrap3DateTimeModule</title>
<path fill="none" stroke="black" d="M330.88,-215.59C337.36,-215.59 341.49,-215.59 341.49,-215.59 341.49,-215.59 341.49,-252.48 341.49,-252.48"/>
<polygon fill="black" stroke="black" points="337.99,-252.48 341.49,-262.48 344.99,-252.48 337.99,-252.48"/>
</g>
<!-- SacTimeComponent -->
<g id="node4" class="node">
<title>SacTimeComponent</title>
<polygon fill="#ffffb3" stroke="black" points="155.59,-233.59 24.41,-233.59 24.41,-197.59 155.59,-197.59 155.59,-233.59"/>
<text text-anchor="middle" x="90" y="-211.39" font-family="Times,serif" font-size="14.00">SacTimeComponent</text>
</g>
<!-- SacTimeComponent&#45;&gt;SACBootstrap3DateTimeModule -->
<g id="edge6" class="edge">
<title>SacTimeComponent&#45;&gt;SACBootstrap3DateTimeModule</title>
<path fill="none" stroke="black" d="M134.62,-233.61C134.62,-250.96 134.62,-274.59 134.62,-274.59 134.62,-274.59 323.55,-274.59 323.55,-274.59"/>
<polygon fill="black" stroke="black" points="323.55,-278.09 333.55,-274.59 323.55,-271.09 323.55,-278.09"/>
</g>
<!-- SacDateComponent  -->
<g id="node9" class="node">
<title>SacDateComponent </title>
<polygon fill="#fb8072" stroke="black" points="771.97,-363.59 640.03,-363.59 640.03,-327.59 771.97,-327.59 771.97,-363.59"/>
<text text-anchor="middle" x="706" y="-341.39" font-family="Times,serif" font-size="14.00">SacDateComponent </text>
</g>
<!-- SACBootstrap3DateTimeModule&#45;&gt;SacDateComponent  -->
<g id="edge8" class="edge">
<title>SACBootstrap3DateTimeModule&#45;&gt;SacDateComponent </title>
<path fill="none" stroke="black" stroke-dasharray="5,2" d="M538.34,-286.59C607.99,-286.59 687.6,-286.59 687.6,-286.59 687.6,-286.59 687.6,-317.57 687.6,-317.57"/>
<polygon fill="black" stroke="black" points="684.1,-317.57 687.6,-327.57 691.1,-317.57 684.1,-317.57"/>
</g>
<!-- SacDateSelectorComponent  -->
<g id="node10" class="node">
<title>SacDateSelectorComponent </title>
<polygon fill="#fb8072" stroke="black" points="622.84,-363.59 445.16,-363.59 445.16,-327.59 622.84,-327.59 622.84,-363.59"/>
<text text-anchor="middle" x="534" y="-341.39" font-family="Times,serif" font-size="14.00">SacDateSelectorComponent </text>
</g>
<!-- SACBootstrap3DateTimeModule&#45;&gt;SacDateSelectorComponent  -->
<g id="edge9" class="edge">
<title>SACBootstrap3DateTimeModule&#45;&gt;SacDateSelectorComponent </title>
<path fill="none" stroke="black" stroke-dasharray="5,2" d="M491.71,-298.7C491.71,-298.7 491.71,-317.58 491.71,-317.58"/>
<polygon fill="black" stroke="black" points="488.21,-317.58 491.71,-327.58 495.21,-317.58 488.21,-317.58"/>
</g>
<!-- SacDateTimeComponent  -->
<g id="node11" class="node">
<title>SacDateTimeComponent </title>
<polygon fill="#fb8072" stroke="black" points="427.52,-363.59 266.48,-363.59 266.48,-327.59 427.52,-327.59 427.52,-363.59"/>
<text text-anchor="middle" x="347" y="-341.39" font-family="Times,serif" font-size="14.00">SacDateTimeComponent </text>
</g>
<!-- SACBootstrap3DateTimeModule&#45;&gt;SacDateTimeComponent  -->
<g id="edge10" class="edge">
<title>SACBootstrap3DateTimeModule&#45;&gt;SacDateTimeComponent </title>
<path fill="none" stroke="black" stroke-dasharray="5,2" d="M380.71,-298.7C380.71,-298.7 380.71,-317.58 380.71,-317.58"/>
<polygon fill="black" stroke="black" points="377.21,-317.58 380.71,-327.58 384.21,-317.58 377.21,-317.58"/>
</g>
<!-- SacTimeComponent  -->
<g id="node12" class="node">
<title>SacTimeComponent </title>
<polygon fill="#fb8072" stroke="black" points="248.09,-363.59 113.91,-363.59 113.91,-327.59 248.09,-327.59 248.09,-363.59"/>
<text text-anchor="middle" x="181" y="-341.39" font-family="Times,serif" font-size="14.00">SacTimeComponent </text>
</g>
<!-- SACBootstrap3DateTimeModule&#45;&gt;SacTimeComponent  -->
<g id="edge11" class="edge">
<title>SACBootstrap3DateTimeModule&#45;&gt;SacTimeComponent </title>
<path fill="none" stroke="black" stroke-dasharray="5,2" d="M333.6,-286.59C274.1,-286.59 210.77,-286.59 210.77,-286.59 210.77,-286.59 210.77,-317.57 210.77,-317.57"/>
<polygon fill="black" stroke="black" points="207.27,-317.57 210.77,-327.57 214.27,-317.57 207.27,-317.57"/>
</g>
<!-- {
 &#160;&#160;&#160;provide: NG_VALUE_ACCESSOR, multi: true, useExisting: forwardRef(() =&gt; SacDateComponent),
} -->
<g id="node6" class="node">
<title>{
 &#160;&#160;&#160;provide: NG_VALUE_ACCESSOR, multi: true, useExisting: forwardRef(() =&gt; SacDateComponent),
}</title>
<ellipse fill="#fdb462" stroke="black" cx="2000" cy="-127.3" rx="424.93" ry="41.09"/>
<text text-anchor="middle" x="2000" y="-139.9" font-family="Times,serif" font-size="14.00">{</text>
<text text-anchor="middle" x="2000" y="-123.1" font-family="Times,serif" font-size="14.00"> &#160;&#160;&#160;provide: NG_VALUE_ACCESSOR, multi: true, useExisting: forwardRef(() =&gt; SacDateComponent),</text>
<text text-anchor="middle" x="2000" y="-106.3" font-family="Times,serif" font-size="14.00">}</text>
</g>
<!-- {
 &#160;&#160;&#160;provide: NG_VALUE_ACCESSOR, multi: true, useExisting: forwardRef(() =&gt; SacDateComponent),
}&#45;&gt;SacDateComponent -->
<g id="edge2" class="edge">
<title>{
 &#160;&#160;&#160;provide: NG_VALUE_ACCESSOR, multi: true, useExisting: forwardRef(() =&gt; SacDateComponent),
}&#45;&gt;SacDateComponent</title>
<path fill="none" stroke="black" d="M2000,-168.6C2000,-191.58 2000,-215.59 2000,-215.59 2000,-215.59 1231.98,-215.59 1231.98,-215.59"/>
<polygon fill="black" stroke="black" points="1231.98,-212.09 1221.98,-215.59 1231.98,-219.09 1231.98,-212.09"/>
</g>
<!-- {
 &#160;&#160;&#160;provide: NG_VALIDATORS, multi: true, useExisting: forwardRef(() =&gt; SacDateComponent),
} -->
<g id="node7" class="node">
<title>{
 &#160;&#160;&#160;provide: NG_VALIDATORS, multi: true, useExisting: forwardRef(() =&gt; SacDateComponent),
}</title>
<ellipse fill="#fdb462" stroke="black" cx="1158" cy="-127.3" rx="398.61" ry="41.09"/>
<text text-anchor="middle" x="1158" y="-139.9" font-family="Times,serif" font-size="14.00">{</text>
<text text-anchor="middle" x="1158" y="-123.1" font-family="Times,serif" font-size="14.00"> &#160;&#160;&#160;provide: NG_VALIDATORS, multi: true, useExisting: forwardRef(() =&gt; SacDateComponent),</text>
<text text-anchor="middle" x="1158" y="-106.3" font-family="Times,serif" font-size="14.00">}</text>
</g>
<!-- {
 &#160;&#160;&#160;provide: NG_VALIDATORS, multi: true, useExisting: forwardRef(() =&gt; SacDateComponent),
}&#45;&gt;SacDateComponent -->
<g id="edge3" class="edge">
<title>{
 &#160;&#160;&#160;provide: NG_VALIDATORS, multi: true, useExisting: forwardRef(() =&gt; SacDateComponent),
}&#45;&gt;SacDateComponent</title>
<path fill="none" stroke="black" d="M1158,-168.6C1158,-168.6 1158,-187.26 1158,-187.26"/>
<polygon fill="black" stroke="black" points="1154.5,-187.26 1158,-197.26 1161.5,-187.26 1154.5,-187.26"/>
</g>
<!-- SACBootstrap3LayoutModule -->
<g id="node8" class="node">
<title>SACBootstrap3LayoutModule</title>
<polygon fill="#8dd3c7" stroke="black" points="734.87,-233.59 731.87,-237.59 710.87,-237.59 707.87,-233.59 547.13,-233.59 547.13,-197.59 734.87,-197.59 734.87,-233.59"/>
<text text-anchor="middle" x="641" y="-211.39" font-family="Times,serif" font-size="14.00">SACBootstrap3LayoutModule</text>
</g>
<!-- SACBootstrap3LayoutModule&#45;&gt;SACBootstrap3DateTimeModule -->
<g id="edge7" class="edge">
<title>SACBootstrap3LayoutModule&#45;&gt;SACBootstrap3DateTimeModule</title>
<path fill="none" stroke="black" d="M546.81,-215.59C536.99,-215.59 530.51,-215.59 530.51,-215.59 530.51,-215.59 530.51,-252.48 530.51,-252.48"/>
<polygon fill="black" stroke="black" points="527.01,-252.48 530.51,-262.48 534.01,-252.48 527.01,-252.48"/>
</g>
</g>
</svg>
