<?xml version="1.0" encoding="UTF-8" standalone="no"?>
<!DOCTYPE svg PUBLIC "-//W3C//DTD SVG 1.1//EN"
 "http://www.w3.org/Graphics/SVG/1.1/DTD/svg11.dtd">
<!-- Generated by graphviz version 2.47.0 (20210316.0004)
 -->
<!-- Title: dependencies Pages: 1 -->
<svg width="2867pt" height="396pt"
 viewBox="0.00 0.00 2867.00 395.59" xmlns="http://www.w3.org/2000/svg" xmlns:xlink="http://www.w3.org/1999/xlink">
<g id="graph0" class="graph" transform="scale(1 1) rotate(0) translate(4 391.59)">
<title>dependencies</title>
<polygon fill="white" stroke="transparent" points="-4,4 -4,-391.59 2863,-391.59 2863,4 -4,4"/>
<text text-anchor="start" x="1408.51" y="-42.4" font-family="Times-12" font-weight="bold" font-size="14.00">Legend</text>
<polygon fill="#ffffb3" stroke="transparent" points="1195.5,-10 1195.5,-30 1215.5,-30 1215.5,-10 1195.5,-10"/>
<text text-anchor="start" x="1219.13" y="-15.4" font-family="Times-12" font-size="14.00"> &#160;Declarations</text>
<polygon fill="#8dd3c7" stroke="transparent" points="1308.5,-10 1308.5,-30 1328.5,-30 1328.5,-10 1308.5,-10"/>
<text text-anchor="start" x="1332.23" y="-15.4" font-family="Times-12" font-size="14.00"> &#160;Module</text>
<polygon fill="#80b1d3" stroke="transparent" points="1394.5,-10 1394.5,-30 1414.5,-30 1414.5,-10 1394.5,-10"/>
<text text-anchor="start" x="1418.28" y="-15.4" font-family="Times-12" font-size="14.00"> &#160;Bootstrap</text>
<polygon fill="#fdb462" stroke="transparent" points="1491.5,-10 1491.5,-30 1511.5,-30 1511.5,-10 1491.5,-10"/>
<text text-anchor="start" x="1515.17" y="-15.4" font-family="Times-12" font-size="14.00"> &#160;Providers</text>
<polygon fill="#fb8072" stroke="transparent" points="1587.5,-10 1587.5,-30 1607.5,-30 1607.5,-10 1587.5,-10"/>
<text text-anchor="start" x="1611.23" y="-15.4" font-family="Times-12" font-size="14.00"> &#160;Exports</text>
<g id="clust1" class="cluster">
<title>cluster_SACBootstrap3DateTimeModule</title>
<polygon fill="none" stroke="black" stroke-dasharray="1,5" points="8,-70 8,-379.59 2851,-379.59 2851,-70 8,-70"/>
</g>
<g id="clust3" class="cluster">
<title>cluster_SACBootstrap3DateTimeModule_SacDateComponent_providers</title>
<polygon fill="none" stroke="black" points="1161,-78 1161,-241.59 2843,-241.59 2843,-78 1161,-78"/>
</g>
<g id="clust7" class="cluster">
<title>cluster_SACBootstrap3DateTimeModule_imports</title>
<polygon fill="none" stroke="black" points="539,-189.59 539,-241.59 1153,-241.59 1153,-189.59 539,-189.59"/>
</g>
<g id="clust2" class="cluster">
<title>cluster_SACBootstrap3DateTimeModule_declarations</title>
<polygon fill="none" stroke="black" points="16,-189.59 16,-241.59 531,-241.59 531,-189.59 16,-189.59"/>
</g>
<g id="clust8" class="cluster">
<title>cluster_SACBootstrap3DateTimeModule_exports</title>
<polygon fill="none" stroke="black" points="305,-319.59 305,-371.59 979,-371.59 979,-319.59 305,-319.59"/>
</g>
<!-- SacDateComponent -->
<g id="node1" class="node">
<title>SacDateComponent</title>
<polygon fill="#ffffb3" stroke="black" points="1631.97,-233.59 1504.03,-233.59 1504.03,-197.59 1631.97,-197.59 1631.97,-233.59"/>
<text text-anchor="middle" x="1568" y="-211.39" font-family="Times,serif" font-size="14.00">SacDateComponent</text>
</g>
<!-- SACBootstrap3DateTimeModule -->
<g id="node5" class="node">
<title>SACBootstrap3DateTimeModule</title>
<polygon fill="#8dd3c7" stroke="black" points="741.19,-298.59 738.19,-302.59 717.19,-302.59 714.19,-298.59 536.81,-298.59 536.81,-262.59 741.19,-262.59 741.19,-298.59"/>
<text text-anchor="middle" x="639" y="-276.39" font-family="Times,serif" font-size="14.00">SACBootstrap3DateTimeModule</text>
</g>
<!-- SacDateComponent&#45;&gt;SACBootstrap3DateTimeModule -->
<g id="edge1" class="edge">
<title>SacDateComponent&#45;&gt;SACBootstrap3DateTimeModule</title>
<path fill="none" stroke="black" d="M1568,-233.7C1568,-252.93 1568,-280.59 1568,-280.59 1568,-280.59 751.52,-280.59 751.52,-280.59"/>
<polygon fill="black" stroke="black" points="751.52,-277.09 741.52,-280.59 751.52,-284.09 751.52,-277.09"/>
</g>
<!-- SacDateSelectorComponent -->
<g id="node2" class="node">
<title>SacDateSelectorComponent</title>
<polygon fill="#ffffb3" stroke="black" points="522.84,-233.59 349.16,-233.59 349.16,-197.59 522.84,-197.59 522.84,-233.59"/>
<text text-anchor="middle" x="436" y="-211.39" font-family="Times,serif" font-size="14.00">SacDateSelectorComponent</text>
</g>
<!-- SacDateSelectorComponent&#45;&gt;SACBootstrap3DateTimeModule -->
<g id="edge4" class="edge">
<title>SacDateSelectorComponent&#45;&gt;SACBootstrap3DateTimeModule</title>
<path fill="none" stroke="black" d="M523.01,-215.59C534.26,-215.59 541.95,-215.59 541.95,-215.59 541.95,-215.59 541.95,-252.48 541.95,-252.48"/>
<polygon fill="black" stroke="black" points="538.45,-252.48 541.95,-262.48 545.45,-252.48 538.45,-252.48"/>
</g>
<!-- SacDateTimeComponent -->
<g id="node3" class="node">
<title>SacDateTimeComponent</title>
<polygon fill="#ffffb3" stroke="black" points="330.52,-233.59 173.48,-233.59 173.48,-197.59 330.52,-197.59 330.52,-233.59"/>
<text text-anchor="middle" x="252" y="-211.39" font-family="Times,serif" font-size="14.00">SacDateTimeComponent</text>
</g>
<!-- SacDateTimeComponent&#45;&gt;SACBootstrap3DateTimeModule -->
<g id="edge5" class="edge">
<title>SacDateTimeComponent&#45;&gt;SACBootstrap3DateTimeModule</title>
<path fill="none" stroke="black" d="M321.73,-233.62C321.73,-249.99 321.73,-271.59 321.73,-271.59 321.73,-271.59 526.87,-271.59 526.87,-271.59"/>
<polygon fill="black" stroke="black" points="526.87,-275.09 536.87,-271.59 526.87,-268.09 526.87,-275.09"/>
</g>
<!-- SacTimeComponent -->
<g id="node4" class="node">
<title>SacTimeComponent</title>
<polygon fill="#ffffb3" stroke="black" points="155.59,-233.59 24.41,-233.59 24.41,-197.59 155.59,-197.59 155.59,-233.59"/>
<text text-anchor="middle" x="90" y="-211.39" font-family="Times,serif" font-size="14.00">SacTimeComponent</text>
</g>
<!-- SacTimeComponent&#45;&gt;SACBootstrap3DateTimeModule -->
<g id="edge6" class="edge">
<title>SacTimeComponent&#45;&gt;SACBootstrap3DateTimeModule</title>
<path fill="none" stroke="black" d="M90,-233.7C90,-252.93 90,-280.59 90,-280.59 90,-280.59 526.7,-280.59 526.7,-280.59"/>
<polygon fill="black" stroke="black" points="526.7,-284.09 536.7,-280.59 526.7,-277.09 526.7,-284.09"/>
</g>
<!-- SacDateComponent  -->
<g id="node11" class="node">
<title>SacDateComponent </title>
<polygon fill="#fb8072" stroke="black" points="970.97,-363.59 839.03,-363.59 839.03,-327.59 970.97,-327.59 970.97,-363.59"/>
<text text-anchor="middle" x="905" y="-341.39" font-family="Times,serif" font-size="14.00">SacDateComponent </text>
</g>
<!-- SACBootstrap3DateTimeModule&#45;&gt;SacDateComponent  -->
<g id="edge10" class="edge">
<title>SACBootstrap3DateTimeModule&#45;&gt;SacDateComponent </title>
<path fill="none" stroke="black" stroke-dasharray="5,2" d="M741.4,-289.59C810.44,-289.59 888.99,-289.59 888.99,-289.59 888.99,-289.59 888.99,-317.56 888.99,-317.56"/>
<polygon fill="black" stroke="black" points="885.49,-317.56 888.99,-327.56 892.49,-317.56 885.49,-317.56"/>
</g>
<!-- SacDateSelectorComponent  -->
<g id="node12" class="node">
<title>SacDateSelectorComponent </title>
<polygon fill="#fb8072" stroke="black" points="821.84,-363.59 644.16,-363.59 644.16,-327.59 821.84,-327.59 821.84,-363.59"/>
<text text-anchor="middle" x="733" y="-341.39" font-family="Times,serif" font-size="14.00">SacDateSelectorComponent </text>
</g>
<!-- SACBootstrap3DateTimeModule&#45;&gt;SacDateSelectorComponent  -->
<g id="edge11" class="edge">
<title>SACBootstrap3DateTimeModule&#45;&gt;SacDateSelectorComponent </title>
<path fill="none" stroke="black" stroke-dasharray="5,2" d="M692.71,-298.7C692.71,-298.7 692.71,-317.58 692.71,-317.58"/>
<polygon fill="black" stroke="black" points="689.21,-317.58 692.71,-327.58 696.21,-317.58 689.21,-317.58"/>
</g>
<!-- SacDateTimeComponent  -->
<g id="node13" class="node">
<title>SacDateTimeComponent </title>
<polygon fill="#fb8072" stroke="black" points="626.52,-363.59 465.48,-363.59 465.48,-327.59 626.52,-327.59 626.52,-363.59"/>
<text text-anchor="middle" x="546" y="-341.39" font-family="Times,serif" font-size="14.00">SacDateTimeComponent </text>
</g>
<!-- SACBootstrap3DateTimeModule&#45;&gt;SacDateTimeComponent  -->
<g id="edge12" class="edge">
<title>SACBootstrap3DateTimeModule&#45;&gt;SacDateTimeComponent </title>
<path fill="none" stroke="black" stroke-dasharray="5,2" d="M581.71,-298.7C581.71,-298.7 581.71,-317.58 581.71,-317.58"/>
<polygon fill="black" stroke="black" points="578.21,-317.58 581.71,-327.58 585.21,-317.58 578.21,-317.58"/>
</g>
<!-- SacTimeComponent  -->
<g id="node14" class="node">
<title>SacTimeComponent </title>
<polygon fill="#fb8072" stroke="black" points="447.09,-363.59 312.91,-363.59 312.91,-327.59 447.09,-327.59 447.09,-363.59"/>
<text text-anchor="middle" x="380" y="-341.39" font-family="Times,serif" font-size="14.00">SacTimeComponent </text>
</g>
<!-- SACBootstrap3DateTimeModule&#45;&gt;SacTimeComponent  -->
<g id="edge13" class="edge">
<title>SACBootstrap3DateTimeModule&#45;&gt;SacTimeComponent </title>
<path fill="none" stroke="black" stroke-dasharray="5,2" d="M536.87,-289.59C471.24,-289.59 398.19,-289.59 398.19,-289.59 398.19,-289.59 398.19,-317.56 398.19,-317.56"/>
<polygon fill="black" stroke="black" points="394.69,-317.56 398.19,-327.56 401.69,-317.56 394.69,-317.56"/>
</g>
<!-- {
 &#160;&#160;&#160;provide: NG_VALUE_ACCESSOR, multi: true, useExisting: forwardRef(() =&gt; SacDateComponent),
} -->
<g id="node6" class="node">
<title>{
 &#160;&#160;&#160;provide: NG_VALUE_ACCESSOR, multi: true, useExisting: forwardRef(() =&gt; SacDateComponent),
}</title>
<ellipse fill="#fdb462" stroke="black" cx="2410" cy="-127.3" rx="424.93" ry="41.09"/>
<text text-anchor="middle" x="2410" y="-139.9" font-family="Times,serif" font-size="14.00">{</text>
<text text-anchor="middle" x="2410" y="-123.1" font-family="Times,serif" font-size="14.00"> &#160;&#160;&#160;provide: NG_VALUE_ACCESSOR, multi: true, useExisting: forwardRef(() =&gt; SacDateComponent),</text>
<text text-anchor="middle" x="2410" y="-106.3" font-family="Times,serif" font-size="14.00">}</text>
</g>
<!-- {
 &#160;&#160;&#160;provide: NG_VALUE_ACCESSOR, multi: true, useExisting: forwardRef(() =&gt; SacDateComponent),
}&#45;&gt;SacDateComponent -->
<g id="edge2" class="edge">
<title>{
 &#160;&#160;&#160;provide: NG_VALUE_ACCESSOR, multi: true, useExisting: forwardRef(() =&gt; SacDateComponent),
}&#45;&gt;SacDateComponent</title>
<path fill="none" stroke="black" d="M2410,-168.6C2410,-191.58 2410,-215.59 2410,-215.59 2410,-215.59 1641.98,-215.59 1641.98,-215.59"/>
<polygon fill="black" stroke="black" points="1641.98,-212.09 1631.98,-215.59 1641.98,-219.09 1641.98,-212.09"/>
</g>
<!-- {
 &#160;&#160;&#160;provide: NG_VALIDATORS, multi: true, useExisting: forwardRef(() =&gt; SacDateComponent),
} -->
<g id="node7" class="node">
<title>{
 &#160;&#160;&#160;provide: NG_VALIDATORS, multi: true, useExisting: forwardRef(() =&gt; SacDateComponent),
}</title>
<ellipse fill="#fdb462" stroke="black" cx="1568" cy="-127.3" rx="398.61" ry="41.09"/>
<text text-anchor="middle" x="1568" y="-139.9" font-family="Times,serif" font-size="14.00">{</text>
<text text-anchor="middle" x="1568" y="-123.1" font-family="Times,serif" font-size="14.00"> &#160;&#160;&#160;provide: NG_VALIDATORS, multi: true, useExisting: forwardRef(() =&gt; SacDateComponent),</text>
<text text-anchor="middle" x="1568" y="-106.3" font-family="Times,serif" font-size="14.00">}</text>
</g>
<!-- {
 &#160;&#160;&#160;provide: NG_VALIDATORS, multi: true, useExisting: forwardRef(() =&gt; SacDateComponent),
}&#45;&gt;SacDateComponent -->
<g id="edge3" class="edge">
<title>{
 &#160;&#160;&#160;provide: NG_VALIDATORS, multi: true, useExisting: forwardRef(() =&gt; SacDateComponent),
}&#45;&gt;SacDateComponent</title>
<path fill="none" stroke="black" d="M1568,-168.6C1568,-168.6 1568,-187.26 1568,-187.26"/>
<polygon fill="black" stroke="black" points="1564.5,-187.26 1568,-197.26 1571.5,-187.26 1564.5,-187.26"/>
</g>
<!-- SACBootstrap3LayoutModule -->
<g id="node8" class="node">
<title>SACBootstrap3LayoutModule</title>
<polygon fill="#8dd3c7" stroke="black" points="1144.87,-233.59 1141.87,-237.59 1120.87,-237.59 1117.87,-233.59 957.13,-233.59 957.13,-197.59 1144.87,-197.59 1144.87,-233.59"/>
<text text-anchor="middle" x="1051" y="-211.39" font-family="Times,serif" font-size="14.00">SACBootstrap3LayoutModule</text>
</g>
<!-- SACBootstrap3LayoutModule&#45;&gt;SACBootstrap3DateTimeModule -->
<g id="edge7" class="edge">
<title>SACBootstrap3LayoutModule&#45;&gt;SACBootstrap3DateTimeModule</title>
<path fill="none" stroke="black" d="M963.9,-233.62C963.9,-249.99 963.9,-271.59 963.9,-271.59 963.9,-271.59 751.35,-271.59 751.35,-271.59"/>
<polygon fill="black" stroke="black" points="751.35,-268.09 741.35,-271.59 751.35,-275.09 751.35,-268.09"/>
</g>
<!-- SACBootstrap3TooltipModule -->
<g id="node9" class="node">
<title>SACBootstrap3TooltipModule</title>
<polygon fill="#8dd3c7" stroke="black" points="938.94,-233.59 935.94,-237.59 914.94,-237.59 911.94,-233.59 749.06,-233.59 749.06,-197.59 938.94,-197.59 938.94,-233.59"/>
<text text-anchor="middle" x="844" y="-211.39" font-family="Times,serif" font-size="14.00">SACBootstrap3TooltipModule</text>
</g>
<!-- SACBootstrap3TooltipModule&#45;&gt;SACBootstrap3DateTimeModule -->
<g id="edge8" class="edge">
<title>SACBootstrap3TooltipModule&#45;&gt;SACBootstrap3DateTimeModule</title>
<path fill="none" stroke="black" d="M748.86,-215.59C741.03,-215.59 736.05,-215.59 736.05,-215.59 736.05,-215.59 736.05,-252.48 736.05,-252.48"/>
<polygon fill="black" stroke="black" points="732.55,-252.48 736.05,-262.48 739.55,-252.48 732.55,-252.48"/>
</g>
<!-- SACCommonUtliltiesModule -->
<g id="node10" class="node">
<title>SACCommonUtliltiesModule</title>
<polygon fill="#8dd3c7" stroke="black" points="731,-233.59 728,-237.59 707,-237.59 704,-233.59 547,-233.59 547,-197.59 731,-197.59 731,-233.59"/>
<text text-anchor="middle" x="639" y="-211.39" font-family="Times,serif" font-size="14.00">SACCommonUtliltiesModule</text>
</g>
<!-- SACCommonUtliltiesModule&#45;&gt;SACBootstrap3DateTimeModule -->
<g id="edge9" class="edge">
<title>SACCommonUtliltiesModule&#45;&gt;SACBootstrap3DateTimeModule</title>
<path fill="none" stroke="black" d="M639,-233.7C639,-233.7 639,-252.58 639,-252.58"/>
<polygon fill="black" stroke="black" points="635.5,-252.58 639,-262.58 642.5,-252.58 635.5,-252.58"/>
</g>
</g>
</svg>
