<?xml version="1.0" encoding="UTF-8" standalone="no"?>
<!DOCTYPE svg PUBLIC "-//W3C//DTD SVG 1.1//EN"
 "http://www.w3.org/Graphics/SVG/1.1/DTD/svg11.dtd">
<!-- Generated by graphviz version 2.47.0 (20210316.0004)
 -->
<!-- Title: dependencies Pages: 1 -->
<svg width="714pt" height="284pt"
 viewBox="0.00 0.00 714.00 284.00" xmlns="http://www.w3.org/2000/svg" xmlns:xlink="http://www.w3.org/1999/xlink">
<g id="graph0" class="graph" transform="scale(1 1) rotate(0) translate(4 280)">
<title>dependencies</title>
<polygon fill="white" stroke="transparent" points="-4,4 -4,-280 710,-280 710,4 -4,4"/>
<text text-anchor="start" x="332.01" y="-42.4" font-family="Times-12" font-weight="bold" font-size="14.00">Legend</text>
<polygon fill="#ffffb3" stroke="transparent" points="119,-10 119,-30 139,-30 139,-10 119,-10"/>
<text text-anchor="start" x="142.63" y="-15.4" font-family="Times-12" font-size="14.00"> &#160;Declarations</text>
<polygon fill="#8dd3c7" stroke="transparent" points="232,-10 232,-30 252,-30 252,-10 232,-10"/>
<text text-anchor="start" x="255.73" y="-15.4" font-family="Times-12" font-size="14.00"> &#160;Module</text>
<polygon fill="#80b1d3" stroke="transparent" points="318,-10 318,-30 338,-30 338,-10 318,-10"/>
<text text-anchor="start" x="341.78" y="-15.4" font-family="Times-12" font-size="14.00"> &#160;Bootstrap</text>
<polygon fill="#fdb462" stroke="transparent" points="415,-10 415,-30 435,-30 435,-10 415,-10"/>
<text text-anchor="start" x="438.67" y="-15.4" font-family="Times-12" font-size="14.00"> &#160;Providers</text>
<polygon fill="#fb8072" stroke="transparent" points="511,-10 511,-30 531,-30 531,-10 511,-10"/>
<text text-anchor="start" x="534.73" y="-15.4" font-family="Times-12" font-size="14.00"> &#160;Exports</text>
<g id="clust1" class="cluster">
<title>cluster_SACBootstrap3DateTimeModule</title>
<polygon fill="none" stroke="black" stroke-dasharray="1,5" points="8,-70 8,-268 698,-268 698,-70 8,-70"/>
</g>
<g id="clust3" class="cluster">
<title>cluster_SACBootstrap3DateTimeModule_imports</title>
<polygon fill="none" stroke="black" points="24,-78 24,-130 685,-130 685,-78 24,-78"/>
</g>
<g id="clust4" class="cluster">
<title>cluster_SACBootstrap3DateTimeModule_exports</title>
<polygon fill="none" stroke="black" points="16,-208 16,-260 690,-260 690,-208 16,-208"/>
</g>
<!-- SacDateComponent -->
<g id="node1" class="node">
<title>SacDateComponent</title>
<polygon fill="#8dd3c7" stroke="black" points="676.97,-122 673.97,-126 652.97,-126 649.97,-122 549.03,-122 549.03,-86 676.97,-86 676.97,-122"/>
<text text-anchor="middle" x="613" y="-99.8" font-family="Times,serif" font-size="14.00">SacDateComponent</text>
</g>
<!-- SACBootstrap3DateTimeModule -->
<g id="node5" class="node">
<title>SACBootstrap3DateTimeModule</title>
<polygon fill="#8dd3c7" stroke="black" points="364.19,-187 361.19,-191 340.19,-191 337.19,-187 159.81,-187 159.81,-151 364.19,-151 364.19,-187"/>
<text text-anchor="middle" x="262" y="-164.8" font-family="Times,serif" font-size="14.00">SACBootstrap3DateTimeModule</text>
</g>
<!-- SacDateComponent&#45;&gt;SACBootstrap3DateTimeModule -->
<g id="edge1" class="edge">
<title>SacDateComponent&#45;&gt;SACBootstrap3DateTimeModule</title>
<path fill="none" stroke="black" d="M634.75,-122.02C634.75,-139.37 634.75,-163 634.75,-163 634.75,-163 374.35,-163 374.35,-163"/>
<polygon fill="black" stroke="black" points="374.35,-159.5 364.35,-163 374.35,-166.5 374.35,-159.5"/>
</g>
<!-- SacDateSelectorComponent -->
<g id="node2" class="node">
<title>SacDateSelectorComponent</title>
<polygon fill="#8dd3c7" stroke="black" points="530.84,-122 527.84,-126 506.84,-126 503.84,-122 357.16,-122 357.16,-86 530.84,-86 530.84,-122"/>
<text text-anchor="middle" x="444" y="-99.8" font-family="Times,serif" font-size="14.00">SacDateSelectorComponent</text>
</g>
<!-- SacDateSelectorComponent&#45;&gt;SACBootstrap3DateTimeModule -->
<g id="edge2" class="edge">
<title>SacDateSelectorComponent&#45;&gt;SACBootstrap3DateTimeModule</title>
<path fill="none" stroke="black" d="M360.59,-122.11C360.59,-122.11 360.59,-140.99 360.59,-140.99"/>
<polygon fill="black" stroke="black" points="357.09,-140.99 360.59,-150.99 364.09,-140.99 357.09,-140.99"/>
</g>
<!-- SacDateTimeComponent -->
<g id="node3" class="node">
<title>SacDateTimeComponent</title>
<polygon fill="#8dd3c7" stroke="black" points="338.52,-122 335.52,-126 314.52,-126 311.52,-122 181.48,-122 181.48,-86 338.52,-86 338.52,-122"/>
<text text-anchor="middle" x="260" y="-99.8" font-family="Times,serif" font-size="14.00">SacDateTimeComponent</text>
</g>
<!-- SacDateTimeComponent&#45;&gt;SACBootstrap3DateTimeModule -->
<g id="edge3" class="edge">
<title>SacDateTimeComponent&#45;&gt;SACBootstrap3DateTimeModule</title>
<path fill="none" stroke="black" d="M260,-122.11C260,-122.11 260,-140.99 260,-140.99"/>
<polygon fill="black" stroke="black" points="256.5,-140.99 260,-150.99 263.5,-140.99 256.5,-140.99"/>
</g>
<!-- SacTimeComponent -->
<g id="node4" class="node">
<title>SacTimeComponent</title>
<polygon fill="#8dd3c7" stroke="black" points="163.59,-122 160.59,-126 139.59,-126 136.59,-122 32.41,-122 32.41,-86 163.59,-86 163.59,-122"/>
<text text-anchor="middle" x="98" y="-99.8" font-family="Times,serif" font-size="14.00">SacTimeComponent</text>
</g>
<!-- SacTimeComponent&#45;&gt;SACBootstrap3DateTimeModule -->
<g id="edge4" class="edge">
<title>SacTimeComponent&#45;&gt;SACBootstrap3DateTimeModule</title>
<path fill="none" stroke="black" d="M163.57,-104C168.96,-104 172.39,-104 172.39,-104 172.39,-104 172.39,-140.89 172.39,-140.89"/>
<polygon fill="black" stroke="black" points="168.89,-140.89 172.39,-150.89 175.89,-140.89 168.89,-140.89"/>
</g>
<!-- SacDateComponent  -->
<g id="node6" class="node">
<title>SacDateComponent </title>
<polygon fill="#fb8072" stroke="black" points="681.97,-252 550.03,-252 550.03,-216 681.97,-216 681.97,-252"/>
<text text-anchor="middle" x="616" y="-229.8" font-family="Times,serif" font-size="14.00">SacDateComponent </text>
</g>
<!-- SACBootstrap3DateTimeModule&#45;&gt;SacDateComponent  -->
<g id="edge5" class="edge">
<title>SACBootstrap3DateTimeModule&#45;&gt;SacDateComponent </title>
<path fill="none" stroke="black" stroke-dasharray="5,2" d="M364.31,-175C461.38,-175 592.5,-175 592.5,-175 592.5,-175 592.5,-205.98 592.5,-205.98"/>
<polygon fill="black" stroke="black" points="589,-205.98 592.5,-215.98 596,-205.98 589,-205.98"/>
</g>
<!-- SacDateSelectorComponent  -->
<g id="node7" class="node">
<title>SacDateSelectorComponent </title>
<polygon fill="#fb8072" stroke="black" points="532.84,-252 355.16,-252 355.16,-216 532.84,-216 532.84,-252"/>
<text text-anchor="middle" x="444" y="-229.8" font-family="Times,serif" font-size="14.00">SacDateSelectorComponent </text>
</g>
<!-- SACBootstrap3DateTimeModule&#45;&gt;SacDateSelectorComponent  -->
<g id="edge6" class="edge">
<title>SACBootstrap3DateTimeModule&#45;&gt;SacDateSelectorComponent </title>
<path fill="none" stroke="black" stroke-dasharray="5,2" d="M359.71,-187.11C359.71,-187.11 359.71,-205.99 359.71,-205.99"/>
<polygon fill="black" stroke="black" points="356.21,-205.99 359.71,-215.99 363.21,-205.99 356.21,-205.99"/>
</g>
<!-- SacDateTimeComponent  -->
<g id="node8" class="node">
<title>SacDateTimeComponent </title>
<polygon fill="#fb8072" stroke="black" points="337.52,-252 176.48,-252 176.48,-216 337.52,-216 337.52,-252"/>
<text text-anchor="middle" x="257" y="-229.8" font-family="Times,serif" font-size="14.00">SacDateTimeComponent </text>
</g>
<!-- SACBootstrap3DateTimeModule&#45;&gt;SacDateTimeComponent  -->
<g id="edge7" class="edge">
<title>SACBootstrap3DateTimeModule&#45;&gt;SacDateTimeComponent </title>
<path fill="none" stroke="black" stroke-dasharray="5,2" d="M257,-187.11C257,-187.11 257,-205.99 257,-205.99"/>
<polygon fill="black" stroke="black" points="253.5,-205.99 257,-215.99 260.5,-205.99 253.5,-205.99"/>
</g>
<!-- SacTimeComponent  -->
<g id="node9" class="node">
<title>SacTimeComponent </title>
<polygon fill="#fb8072" stroke="black" points="158.09,-252 23.91,-252 23.91,-216 158.09,-216 158.09,-252"/>
<text text-anchor="middle" x="91" y="-229.8" font-family="Times,serif" font-size="14.00">SacTimeComponent </text>
</g>
<!-- SACBootstrap3DateTimeModule&#45;&gt;SacTimeComponent  -->
<g id="edge8" class="edge">
<title>SACBootstrap3DateTimeModule&#45;&gt;SacTimeComponent </title>
<path fill="none" stroke="black" stroke-dasharray="5,2" d="M168.2,-187.11C168.2,-206.34 168.2,-234 168.2,-234 168.2,-234 167.19,-234 167.19,-234"/>
<polygon fill="black" stroke="black" points="168.11,-230.5 158.11,-234 168.11,-237.5 168.11,-230.5"/>
</g>
</g>
</svg>
