<?xml version="1.0" encoding="UTF-8" standalone="no"?>
<!DOCTYPE svg PUBLIC "-//W3C//DTD SVG 1.1//EN"
 "http://www.w3.org/Graphics/SVG/1.1/DTD/svg11.dtd">
<!-- Generated by graphviz version 2.47.0 (20210316.0004)
 -->
<!-- Title: dependencies Pages: 1 -->
<svg width="3492pt" height="396pt"
 viewBox="0.00 0.00 3492.00 395.59" xmlns="http://www.w3.org/2000/svg" xmlns:xlink="http://www.w3.org/1999/xlink">
<g id="graph0" class="graph" transform="scale(1 1) rotate(0) translate(4 391.59)">
<title>dependencies</title>
<polygon fill="white" stroke="transparent" points="-4,4 -4,-391.59 3488,-391.59 3488,4 -4,4"/>
<text text-anchor="start" x="1721.01" y="-42.4" font-family="Times-12" font-weight="bold" font-size="14.00">Legend</text>
<polygon fill="#ffffb3" stroke="transparent" points="1508,-10 1508,-30 1528,-30 1528,-10 1508,-10"/>
<text text-anchor="start" x="1531.63" y="-15.4" font-family="Times-12" font-size="14.00"> &#160;Declarations</text>
<polygon fill="#8dd3c7" stroke="transparent" points="1621,-10 1621,-30 1641,-30 1641,-10 1621,-10"/>
<text text-anchor="start" x="1644.73" y="-15.4" font-family="Times-12" font-size="14.00"> &#160;Module</text>
<polygon fill="#80b1d3" stroke="transparent" points="1707,-10 1707,-30 1727,-30 1727,-10 1707,-10"/>
<text text-anchor="start" x="1730.78" y="-15.4" font-family="Times-12" font-size="14.00"> &#160;Bootstrap</text>
<polygon fill="#fdb462" stroke="transparent" points="1804,-10 1804,-30 1824,-30 1824,-10 1804,-10"/>
<text text-anchor="start" x="1827.67" y="-15.4" font-family="Times-12" font-size="14.00"> &#160;Providers</text>
<polygon fill="#fb8072" stroke="transparent" points="1900,-10 1900,-30 1920,-30 1920,-10 1900,-10"/>
<text text-anchor="start" x="1923.73" y="-15.4" font-family="Times-12" font-size="14.00"> &#160;Exports</text>
<g id="clust1" class="cluster">
<title>cluster_SACBootstrap4UploadModule</title>
<polygon fill="none" stroke="black" stroke-dasharray="1,5" points="8,-70 8,-379.59 3476,-379.59 3476,-70 8,-70"/>
</g>
<g id="clust4" class="cluster">
<title>cluster_SACBootstrap4UploadModule_NgDropzoneSingleComponent_providers</title>
<polygon fill="none" stroke="black" points="1764,-78 1764,-241.59 3468,-241.59 3468,-78 1764,-78"/>
</g>
<g id="clust2" class="cluster">
<title>cluster_SACBootstrap4UploadModule_declarations</title>
<polygon fill="none" stroke="black" points="873,-189.59 873,-241.59 1455,-241.59 1455,-189.59 873,-189.59"/>
</g>
<g id="clust8" class="cluster">
<title>cluster_SACBootstrap4UploadModule_exports</title>
<polygon fill="none" stroke="black" points="869,-319.59 869,-371.59 1672,-371.59 1672,-319.59 869,-319.59"/>
</g>
<g id="clust3" class="cluster">
<title>cluster_SACBootstrap4UploadModule_NgDropzoneMultipleComponent_providers</title>
<polygon fill="none" stroke="black" points="16,-78 16,-176.59 1756,-176.59 1756,-78 16,-78"/>
</g>
<!-- NgDropzoneMultipleComponent -->
<g id="node1" class="node">
<title>NgDropzoneMultipleComponent</title>
<polygon fill="#ffffb3" stroke="black" points="1446.86,-233.59 1245.14,-233.59 1245.14,-197.59 1446.86,-197.59 1446.86,-233.59"/>
<text text-anchor="middle" x="1346" y="-211.39" font-family="Times,serif" font-size="14.00">NgDropzoneMultipleComponent</text>
</g>
<!-- SACBootstrap4UploadModule -->
<g id="node5" class="node">
<title>SACBootstrap4UploadModule</title>
<polygon fill="#8dd3c7" stroke="black" points="1345.93,-298.59 1342.93,-302.59 1321.93,-302.59 1318.93,-298.59 1156.07,-298.59 1156.07,-262.59 1345.93,-262.59 1345.93,-298.59"/>
<text text-anchor="middle" x="1251" y="-276.39" font-family="Times,serif" font-size="14.00">SACBootstrap4UploadModule</text>
</g>
<!-- NgDropzoneMultipleComponent&#45;&gt;SACBootstrap4UploadModule -->
<g id="edge1" class="edge">
<title>NgDropzoneMultipleComponent&#45;&gt;SACBootstrap4UploadModule</title>
<path fill="none" stroke="black" d="M1295.39,-233.7C1295.39,-233.7 1295.39,-252.58 1295.39,-252.58"/>
<polygon fill="black" stroke="black" points="1291.89,-252.58 1295.39,-262.58 1298.89,-252.58 1291.89,-252.58"/>
</g>
<!-- NgDropzoneSingleComponent -->
<g id="node2" class="node">
<title>NgDropzoneSingleComponent</title>
<polygon fill="#ffffb3" stroke="black" points="2308.91,-233.59 2119.09,-233.59 2119.09,-197.59 2308.91,-197.59 2308.91,-233.59"/>
<text text-anchor="middle" x="2214" y="-211.39" font-family="Times,serif" font-size="14.00">NgDropzoneSingleComponent</text>
</g>
<!-- NgDropzoneSingleComponent&#45;&gt;SACBootstrap4UploadModule -->
<g id="edge4" class="edge">
<title>NgDropzoneSingleComponent&#45;&gt;SACBootstrap4UploadModule</title>
<path fill="none" stroke="black" d="M2214,-233.61C2214,-250.96 2214,-274.59 2214,-274.59 2214,-274.59 1355.97,-274.59 1355.97,-274.59"/>
<polygon fill="black" stroke="black" points="1355.97,-271.09 1345.97,-274.59 1355.97,-278.09 1355.97,-271.09"/>
</g>
<!-- NgUploadComponent -->
<g id="node3" class="node">
<title>NgUploadComponent</title>
<polygon fill="#ffffb3" stroke="black" points="1226.65,-233.59 1087.35,-233.59 1087.35,-197.59 1226.65,-197.59 1226.65,-233.59"/>
<text text-anchor="middle" x="1157" y="-211.39" font-family="Times,serif" font-size="14.00">NgUploadComponent</text>
</g>
<!-- NgUploadComponent&#45;&gt;SACBootstrap4UploadModule -->
<g id="edge7" class="edge">
<title>NgUploadComponent&#45;&gt;SACBootstrap4UploadModule</title>
<path fill="none" stroke="black" d="M1191.56,-233.7C1191.56,-233.7 1191.56,-252.58 1191.56,-252.58"/>
<polygon fill="black" stroke="black" points="1188.06,-252.58 1191.56,-262.58 1195.06,-252.58 1188.06,-252.58"/>
</g>
<!-- NgUploadMultipleComponent -->
<g id="node4" class="node">
<title>NgUploadMultipleComponent</title>
<polygon fill="#ffffb3" stroke="black" points="1068.87,-233.59 881.13,-233.59 881.13,-197.59 1068.87,-197.59 1068.87,-233.59"/>
<text text-anchor="middle" x="975" y="-211.39" font-family="Times,serif" font-size="14.00">NgUploadMultipleComponent</text>
</g>
<!-- NgUploadMultipleComponent&#45;&gt;SACBootstrap4UploadModule -->
<g id="edge8" class="edge">
<title>NgUploadMultipleComponent&#45;&gt;SACBootstrap4UploadModule</title>
<path fill="none" stroke="black" d="M1006.15,-233.61C1006.15,-250.96 1006.15,-274.59 1006.15,-274.59 1006.15,-274.59 1145.98,-274.59 1145.98,-274.59"/>
<polygon fill="black" stroke="black" points="1145.98,-278.09 1155.98,-274.59 1145.98,-271.09 1145.98,-278.09"/>
</g>
<!-- NgDropzoneMultipleComponent  -->
<g id="node10" class="node">
<title>NgDropzoneMultipleComponent </title>
<polygon fill="#fb8072" stroke="black" points="1663.86,-363.59 1458.14,-363.59 1458.14,-327.59 1663.86,-327.59 1663.86,-363.59"/>
<text text-anchor="middle" x="1561" y="-341.39" font-family="Times,serif" font-size="14.00">NgDropzoneMultipleComponent </text>
</g>
<!-- SACBootstrap4UploadModule&#45;&gt;NgDropzoneMultipleComponent  -->
<g id="edge9" class="edge">
<title>SACBootstrap4UploadModule&#45;&gt;NgDropzoneMultipleComponent </title>
<path fill="none" stroke="black" stroke-dasharray="5,2" d="M1346.12,-286.59C1437.24,-286.59 1561,-286.59 1561,-286.59 1561,-286.59 1561,-317.57 1561,-317.57"/>
<polygon fill="black" stroke="black" points="1557.5,-317.57 1561,-327.57 1564.5,-317.57 1557.5,-317.57"/>
</g>
<!-- NgDropzoneSingleComponent  -->
<g id="node11" class="node">
<title>NgDropzoneSingleComponent </title>
<polygon fill="#fb8072" stroke="black" points="1440.41,-363.59 1247.59,-363.59 1247.59,-327.59 1440.41,-327.59 1440.41,-363.59"/>
<text text-anchor="middle" x="1344" y="-341.39" font-family="Times,serif" font-size="14.00">NgDropzoneSingleComponent </text>
</g>
<!-- SACBootstrap4UploadModule&#45;&gt;NgDropzoneSingleComponent  -->
<g id="edge10" class="edge">
<title>SACBootstrap4UploadModule&#45;&gt;NgDropzoneSingleComponent </title>
<path fill="none" stroke="black" stroke-dasharray="5,2" d="M1296.63,-298.7C1296.63,-298.7 1296.63,-317.58 1296.63,-317.58"/>
<polygon fill="black" stroke="black" points="1293.13,-317.58 1296.63,-327.58 1300.13,-317.58 1293.13,-317.58"/>
</g>
<!-- NgUploadComponent  -->
<g id="node12" class="node">
<title>NgUploadComponent </title>
<polygon fill="#fb8072" stroke="black" points="1229.65,-363.59 1086.35,-363.59 1086.35,-327.59 1229.65,-327.59 1229.65,-363.59"/>
<text text-anchor="middle" x="1158" y="-341.39" font-family="Times,serif" font-size="14.00">NgUploadComponent </text>
</g>
<!-- SACBootstrap4UploadModule&#45;&gt;NgUploadComponent  -->
<g id="edge11" class="edge">
<title>SACBootstrap4UploadModule&#45;&gt;NgUploadComponent </title>
<path fill="none" stroke="black" stroke-dasharray="5,2" d="M1192.93,-298.7C1192.93,-298.7 1192.93,-317.58 1192.93,-317.58"/>
<polygon fill="black" stroke="black" points="1189.43,-317.58 1192.93,-327.58 1196.43,-317.58 1189.43,-317.58"/>
</g>
<!-- NgUploadMultipleComponent  -->
<g id="node13" class="node">
<title>NgUploadMultipleComponent </title>
<polygon fill="#fb8072" stroke="black" points="1068.87,-363.59 877.13,-363.59 877.13,-327.59 1068.87,-327.59 1068.87,-363.59"/>
<text text-anchor="middle" x="973" y="-341.39" font-family="Times,serif" font-size="14.00">NgUploadMultipleComponent </text>
</g>
<!-- SACBootstrap4UploadModule&#45;&gt;NgUploadMultipleComponent  -->
<g id="edge12" class="edge">
<title>SACBootstrap4UploadModule&#45;&gt;NgUploadMultipleComponent </title>
<path fill="none" stroke="black" stroke-dasharray="5,2" d="M1156.26,-286.59C1065.94,-286.59 943.6,-286.59 943.6,-286.59 943.6,-286.59 943.6,-317.57 943.6,-317.57"/>
<polygon fill="black" stroke="black" points="940.1,-317.57 943.6,-327.57 947.1,-317.57 940.1,-317.57"/>
</g>
<!-- {
 &#160;&#160;&#160;provide: NG_VALUE_ACCESSOR, multi: true, useExisting: NgDropzoneMultipleComponent,
} -->
<g id="node6" class="node">
<title>{
 &#160;&#160;&#160;provide: NG_VALUE_ACCESSOR, multi: true, useExisting: NgDropzoneMultipleComponent,
}</title>
<ellipse fill="#fdb462" stroke="black" cx="1346" cy="-127.3" rx="402.09" ry="41.09"/>
<text text-anchor="middle" x="1346" y="-139.9" font-family="Times,serif" font-size="14.00">{</text>
<text text-anchor="middle" x="1346" y="-123.1" font-family="Times,serif" font-size="14.00"> &#160;&#160;&#160;provide: NG_VALUE_ACCESSOR, multi: true, useExisting: NgDropzoneMultipleComponent,</text>
<text text-anchor="middle" x="1346" y="-106.3" font-family="Times,serif" font-size="14.00">}</text>
</g>
<!-- {
 &#160;&#160;&#160;provide: NG_VALUE_ACCESSOR, multi: true, useExisting: NgDropzoneMultipleComponent,
}&#45;&gt;NgDropzoneMultipleComponent -->
<g id="edge2" class="edge">
<title>{
 &#160;&#160;&#160;provide: NG_VALUE_ACCESSOR, multi: true, useExisting: NgDropzoneMultipleComponent,
}&#45;&gt;NgDropzoneMultipleComponent</title>
<path fill="none" stroke="black" d="M1379.64,-168.6C1379.64,-168.6 1379.64,-187.26 1379.64,-187.26"/>
<polygon fill="black" stroke="black" points="1376.14,-187.26 1379.64,-197.26 1383.14,-187.26 1376.14,-187.26"/>
</g>
<!-- {
 &#160;&#160;&#160;provide: NG_VALIDATORS, multi: true, useExisting: forwardRef(() =&gt; NgDropzoneMultipleComponent),
} -->
<g id="node7" class="node">
<title>{
 &#160;&#160;&#160;provide: NG_VALIDATORS, multi: true, useExisting: forwardRef(() =&gt; NgDropzoneMultipleComponent),
}</title>
<ellipse fill="#fdb462" stroke="black" cx="475" cy="-127.3" rx="450.6" ry="41.09"/>
<text text-anchor="middle" x="475" y="-139.9" font-family="Times,serif" font-size="14.00">{</text>
<text text-anchor="middle" x="475" y="-123.1" font-family="Times,serif" font-size="14.00"> &#160;&#160;&#160;provide: NG_VALIDATORS, multi: true, useExisting: forwardRef(() =&gt; NgDropzoneMultipleComponent),</text>
<text text-anchor="middle" x="475" y="-106.3" font-family="Times,serif" font-size="14.00">}</text>
</g>
<!-- {
 &#160;&#160;&#160;provide: NG_VALIDATORS, multi: true, useExisting: forwardRef(() =&gt; NgDropzoneMultipleComponent),
}&#45;&gt;NgDropzoneMultipleComponent -->
<g id="edge3" class="edge">
<title>{
 &#160;&#160;&#160;provide: NG_VALIDATORS, multi: true, useExisting: forwardRef(() =&gt; NgDropzoneMultipleComponent),
}&#45;&gt;NgDropzoneMultipleComponent</title>
<path fill="none" stroke="black" d="M903.43,-140.35C903.43,-156.98 903.43,-183.59 903.43,-183.59 903.43,-183.59 1312.36,-183.59 1312.36,-183.59 1312.36,-183.59 1312.36,-187.35 1312.36,-187.35"/>
<polygon fill="black" stroke="black" points="1308.86,-187.35 1312.36,-197.35 1315.86,-187.35 1308.86,-187.35"/>
</g>
<!-- {
 &#160;&#160;&#160;provide: NG_VALUE_ACCESSOR, multi: true, useExisting: NgDropzoneSingleComponent,
} -->
<g id="node8" class="node">
<title>{
 &#160;&#160;&#160;provide: NG_VALUE_ACCESSOR, multi: true, useExisting: NgDropzoneSingleComponent,
}</title>
<ellipse fill="#fdb462" stroke="black" cx="3067" cy="-127.3" rx="393.49" ry="41.09"/>
<text text-anchor="middle" x="3067" y="-139.9" font-family="Times,serif" font-size="14.00">{</text>
<text text-anchor="middle" x="3067" y="-123.1" font-family="Times,serif" font-size="14.00"> &#160;&#160;&#160;provide: NG_VALUE_ACCESSOR, multi: true, useExisting: NgDropzoneSingleComponent,</text>
<text text-anchor="middle" x="3067" y="-106.3" font-family="Times,serif" font-size="14.00">}</text>
</g>
<!-- {
 &#160;&#160;&#160;provide: NG_VALUE_ACCESSOR, multi: true, useExisting: NgDropzoneSingleComponent,
}&#45;&gt;NgDropzoneSingleComponent -->
<g id="edge5" class="edge">
<title>{
 &#160;&#160;&#160;provide: NG_VALUE_ACCESSOR, multi: true, useExisting: NgDropzoneSingleComponent,
}&#45;&gt;NgDropzoneSingleComponent</title>
<path fill="none" stroke="black" d="M3067,-168.6C3067,-191.58 3067,-215.59 3067,-215.59 3067,-215.59 2318.96,-215.59 2318.96,-215.59"/>
<polygon fill="black" stroke="black" points="2318.96,-212.09 2308.96,-215.59 2318.96,-219.09 2318.96,-212.09"/>
</g>
<!-- {
 &#160;&#160;&#160;provide: NG_VALIDATORS, multi: true, useExisting: forwardRef(() =&gt; NgDropzoneSingleComponent),
} -->
<g id="node9" class="node">
<title>{
 &#160;&#160;&#160;provide: NG_VALIDATORS, multi: true, useExisting: forwardRef(() =&gt; NgDropzoneSingleComponent),
}</title>
<ellipse fill="#fdb462" stroke="black" cx="2214" cy="-127.3" rx="442" ry="41.09"/>
<text text-anchor="middle" x="2214" y="-139.9" font-family="Times,serif" font-size="14.00">{</text>
<text text-anchor="middle" x="2214" y="-123.1" font-family="Times,serif" font-size="14.00"> &#160;&#160;&#160;provide: NG_VALIDATORS, multi: true, useExisting: forwardRef(() =&gt; NgDropzoneSingleComponent),</text>
<text text-anchor="middle" x="2214" y="-106.3" font-family="Times,serif" font-size="14.00">}</text>
</g>
<!-- {
 &#160;&#160;&#160;provide: NG_VALIDATORS, multi: true, useExisting: forwardRef(() =&gt; NgDropzoneSingleComponent),
}&#45;&gt;NgDropzoneSingleComponent -->
<g id="edge6" class="edge">
<title>{
 &#160;&#160;&#160;provide: NG_VALIDATORS, multi: true, useExisting: forwardRef(() =&gt; NgDropzoneSingleComponent),
}&#45;&gt;NgDropzoneSingleComponent</title>
<path fill="none" stroke="black" d="M2214,-168.6C2214,-168.6 2214,-187.26 2214,-187.26"/>
<polygon fill="black" stroke="black" points="2210.5,-187.26 2214,-197.26 2217.5,-187.26 2210.5,-187.26"/>
</g>
</g>
</svg>
