<?xml version="1.0" encoding="UTF-8" standalone="no"?>
<!DOCTYPE svg PUBLIC "-//W3C//DTD SVG 1.1//EN"
 "http://www.w3.org/Graphics/SVG/1.1/DTD/svg11.dtd">
<!-- Generated by graphviz version 2.47.3 (20210619.1520)
 -->
<!-- Title: dependencies Pages: 1 -->
<svg width="1680pt" height="312pt"
 viewBox="0.00 0.00 1680.00 311.80" xmlns="http://www.w3.org/2000/svg" xmlns:xlink="http://www.w3.org/1999/xlink">
<g id="graph0" class="graph" transform="scale(1 1) rotate(0) translate(4 307.8)">
<title>dependencies</title>
<polygon fill="white" stroke="transparent" points="-4,4 -4,-307.8 1676,-307.8 1676,4 -4,4"/>
<text text-anchor="middle" x="836" y="-8.2" font-family="sans-serif" font-size="14.00">dependencies</text>
<g id="clust1" class="cluster">
<title>cluster_JNetworkBootstrap3DateTimeModule</title>
<polygon fill="none" stroke="black" stroke-dasharray="1,5" points="8,-32.8 8,-295.8 1664,-295.8 1664,-32.8 8,-32.8"/>
</g>
<g id="clust2" class="cluster">
<title>cluster_JNetworkBootstrap3DateTimeModule_declarations</title>
<polygon fill="none" stroke="black" points="341,-105.8 341,-157.8 989,-157.8 989,-105.8 341,-105.8"/>
</g>
<g id="clust8" class="cluster">
<title>cluster_JNetworkBootstrap3DateTimeModule_exports</title>
<polygon fill="none" stroke="black" points="333,-235.8 333,-287.8 995,-287.8 995,-235.8 333,-235.8"/>
</g>
<g id="clust3" class="cluster">
<title>cluster_JNetworkBootstrap3DateTimeModule_NgDateComponent_providers</title>
<polygon fill="none" stroke="black" points="16,-40.8 16,-92.8 1656,-92.8 1656,-40.8 16,-40.8"/>
</g>
<!-- NgDateComponent -->
<g id="node1" class="node">
<title>NgDateComponent</title>
<polygon fill="#ffffb3" stroke="black" points="981.37,-149.8 856.63,-149.8 856.63,-113.8 981.37,-113.8 981.37,-149.8"/>
<text text-anchor="middle" x="919" y="-127.6" font-family="Times,serif" font-size="14.00">NgDateComponent</text>
</g>
<!-- JNetworkBootstrap3DateTimeModule -->
<g id="node5" class="node">
<title>JNetworkBootstrap3DateTimeModule</title>
<polygon fill="#8dd3c7" stroke="black" points="777.89,-214.8 774.89,-218.8 753.89,-218.8 750.89,-214.8 546.11,-214.8 546.11,-178.8 777.89,-178.8 777.89,-214.8"/>
<text text-anchor="middle" x="662" y="-192.6" font-family="Times,serif" font-size="14.00">JNetworkBootstrap3DateTimeModule</text>
</g>
<!-- NgDateComponent&#45;&gt;JNetworkBootstrap3DateTimeModule -->
<g id="edge1" class="edge">
<title>NgDateComponent&#45;&gt;JNetworkBootstrap3DateTimeModule</title>
<path fill="none" stroke="black" d="M940.56,-149.82C940.56,-167.17 940.56,-190.8 940.56,-190.8 940.56,-190.8 787.71,-190.8 787.71,-190.8"/>
<polygon fill="black" stroke="black" points="787.71,-187.3 777.71,-190.8 787.71,-194.3 787.71,-187.3"/>
</g>
<!-- NgDateSelectorComponent -->
<g id="node2" class="node">
<title>NgDateSelectorComponent</title>
<polygon fill="#ffffb3" stroke="black" points="838.23,-149.8 667.77,-149.8 667.77,-113.8 838.23,-113.8 838.23,-149.8"/>
<text text-anchor="middle" x="753" y="-127.6" font-family="Times,serif" font-size="14.00">NgDateSelectorComponent</text>
</g>
<!-- NgDateSelectorComponent&#45;&gt;JNetworkBootstrap3DateTimeModule -->
<g id="edge4" class="edge">
<title>NgDateSelectorComponent&#45;&gt;JNetworkBootstrap3DateTimeModule</title>
<path fill="none" stroke="black" d="M722.66,-149.91C722.66,-149.91 722.66,-168.79 722.66,-168.79"/>
<polygon fill="black" stroke="black" points="719.16,-168.79 722.66,-178.79 726.16,-168.79 719.16,-168.79"/>
</g>
<!-- NgDateTimeComponent -->
<g id="node3" class="node">
<title>NgDateTimeComponent</title>
<polygon fill="#ffffb3" stroke="black" points="649.41,-149.8 494.59,-149.8 494.59,-113.8 649.41,-113.8 649.41,-149.8"/>
<text text-anchor="middle" x="572" y="-127.6" font-family="Times,serif" font-size="14.00">NgDateTimeComponent</text>
</g>
<!-- NgDateTimeComponent&#45;&gt;JNetworkBootstrap3DateTimeModule -->
<g id="edge5" class="edge">
<title>NgDateTimeComponent&#45;&gt;JNetworkBootstrap3DateTimeModule</title>
<path fill="none" stroke="black" d="M597.76,-149.91C597.76,-149.91 597.76,-168.79 597.76,-168.79"/>
<polygon fill="black" stroke="black" points="594.26,-168.79 597.76,-178.79 601.26,-168.79 594.26,-168.79"/>
</g>
<!-- NgTimeComponent -->
<g id="node4" class="node">
<title>NgTimeComponent</title>
<polygon fill="#ffffb3" stroke="black" points="476.99,-149.8 349.01,-149.8 349.01,-113.8 476.99,-113.8 476.99,-149.8"/>
<text text-anchor="middle" x="413" y="-127.6" font-family="Times,serif" font-size="14.00">NgTimeComponent</text>
</g>
<!-- NgTimeComponent&#45;&gt;JNetworkBootstrap3DateTimeModule -->
<g id="edge6" class="edge">
<title>NgTimeComponent&#45;&gt;JNetworkBootstrap3DateTimeModule</title>
<path fill="none" stroke="black" d="M431.5,-149.82C431.5,-167.17 431.5,-190.8 431.5,-190.8 431.5,-190.8 536.07,-190.8 536.07,-190.8"/>
<polygon fill="black" stroke="black" points="536.07,-194.3 546.07,-190.8 536.07,-187.3 536.07,-194.3"/>
</g>
<!-- NgDateComponent  -->
<g id="node8" class="node">
<title>NgDateComponent </title>
<polygon fill="#fb8072" stroke="black" points="987.37,-279.8 858.63,-279.8 858.63,-243.8 987.37,-243.8 987.37,-279.8"/>
<text text-anchor="middle" x="923" y="-257.6" font-family="Times,serif" font-size="14.00">NgDateComponent </text>
</g>
<!-- JNetworkBootstrap3DateTimeModule&#45;&gt;NgDateComponent  -->
<g id="edge7" class="edge">
<title>JNetworkBootstrap3DateTimeModule&#45;&gt;NgDateComponent </title>
<path fill="none" stroke="black" stroke-dasharray="5,2" d="M777.71,-202.8C838.16,-202.8 899.69,-202.8 899.69,-202.8 899.69,-202.8 899.69,-233.78 899.69,-233.78"/>
<polygon fill="black" stroke="black" points="896.19,-233.78 899.69,-243.78 903.19,-233.78 896.19,-233.78"/>
</g>
<!-- NgDateSelectorComponent  -->
<g id="node9" class="node">
<title>NgDateSelectorComponent </title>
<polygon fill="#fb8072" stroke="black" points="841.23,-279.8 666.77,-279.8 666.77,-243.8 841.23,-243.8 841.23,-279.8"/>
<text text-anchor="middle" x="754" y="-257.6" font-family="Times,serif" font-size="14.00">NgDateSelectorComponent </text>
</g>
<!-- JNetworkBootstrap3DateTimeModule&#45;&gt;NgDateSelectorComponent  -->
<g id="edge8" class="edge">
<title>JNetworkBootstrap3DateTimeModule&#45;&gt;NgDateSelectorComponent </title>
<path fill="none" stroke="black" stroke-dasharray="5,2" d="M722.29,-214.91C722.29,-214.91 722.29,-233.79 722.29,-233.79"/>
<polygon fill="black" stroke="black" points="718.79,-233.79 722.29,-243.79 725.79,-233.79 718.79,-233.79"/>
</g>
<!-- NgDateTimeComponent  -->
<g id="node10" class="node">
<title>NgDateTimeComponent </title>
<polygon fill="#fb8072" stroke="black" points="648.91,-279.8 491.09,-279.8 491.09,-243.8 648.91,-243.8 648.91,-279.8"/>
<text text-anchor="middle" x="570" y="-257.6" font-family="Times,serif" font-size="14.00">NgDateTimeComponent </text>
</g>
<!-- JNetworkBootstrap3DateTimeModule&#45;&gt;NgDateTimeComponent  -->
<g id="edge9" class="edge">
<title>JNetworkBootstrap3DateTimeModule&#45;&gt;NgDateTimeComponent </title>
<path fill="none" stroke="black" stroke-dasharray="5,2" d="M597.63,-214.91C597.63,-214.91 597.63,-233.79 597.63,-233.79"/>
<polygon fill="black" stroke="black" points="594.13,-233.79 597.63,-243.79 601.13,-233.79 594.13,-233.79"/>
</g>
<!-- NgTimeComponent  -->
<g id="node11" class="node">
<title>NgTimeComponent </title>
<polygon fill="#fb8072" stroke="black" points="472.99,-279.8 341.01,-279.8 341.01,-243.8 472.99,-243.8 472.99,-279.8"/>
<text text-anchor="middle" x="407" y="-257.6" font-family="Times,serif" font-size="14.00">NgTimeComponent </text>
</g>
<!-- JNetworkBootstrap3DateTimeModule&#45;&gt;NgTimeComponent  -->
<g id="edge10" class="edge">
<title>JNetworkBootstrap3DateTimeModule&#45;&gt;NgTimeComponent </title>
<path fill="none" stroke="black" stroke-dasharray="5,2" d="M545.97,-202.8C472.11,-202.8 390.25,-202.8 390.25,-202.8 390.25,-202.8 390.25,-233.78 390.25,-233.78"/>
<polygon fill="black" stroke="black" points="386.75,-233.78 390.25,-243.78 393.75,-233.78 386.75,-233.78"/>
</g>
<!-- { provide: NG_VALUE_ACCESSOR, multi: true, useExisting: forwardRef(() =&gt; NgDateComponent) } -->
<g id="node6" class="node">
<title>{ provide: NG_VALUE_ACCESSOR, multi: true, useExisting: forwardRef(() =&gt; NgDateComponent) }</title>
<ellipse fill="#fdb462" stroke="black" cx="1234" cy="-66.8" rx="414.37" ry="18"/>
<text text-anchor="middle" x="1234" y="-62.6" font-family="Times,serif" font-size="14.00">{ provide: NG_VALUE_ACCESSOR, multi: true, useExisting: forwardRef(() =&gt; NgDateComponent) }</text>
</g>
<!-- { provide: NG_VALUE_ACCESSOR, multi: true, useExisting: forwardRef(() =&gt; NgDateComponent) }&#45;&gt;NgDateComponent -->
<g id="edge2" class="edge">
<title>{ provide: NG_VALUE_ACCESSOR, multi: true, useExisting: forwardRef(() =&gt; NgDateComponent) }&#45;&gt;NgDateComponent</title>
<path fill="none" stroke="black" d="M939.81,-79.64C939.81,-79.64 939.81,-103.32 939.81,-103.32"/>
<polygon fill="black" stroke="black" points="936.31,-103.32 939.81,-113.32 943.31,-103.32 936.31,-103.32"/>
</g>
<!-- { provide: NG_VALIDATORS, multi: true, useExisting: forwardRef(() =&gt; NgDateComponent) } -->
<g id="node7" class="node">
<title>{ provide: NG_VALIDATORS, multi: true, useExisting: forwardRef(() =&gt; NgDateComponent) }</title>
<ellipse fill="#fdb462" stroke="black" cx="413" cy="-66.8" rx="388.85" ry="18"/>
<text text-anchor="middle" x="413" y="-62.6" font-family="Times,serif" font-size="14.00">{ provide: NG_VALIDATORS, multi: true, useExisting: forwardRef(() =&gt; NgDateComponent) }</text>
</g>
<!-- { provide: NG_VALIDATORS, multi: true, useExisting: forwardRef(() =&gt; NgDateComponent) }&#45;&gt;NgDateComponent -->
<g id="edge3" class="edge">
<title>{ provide: NG_VALIDATORS, multi: true, useExisting: forwardRef(() =&gt; NgDateComponent) }&#45;&gt;NgDateComponent</title>
<path fill="none" stroke="black" d="M734.65,-77.24C734.65,-86.91 734.65,-99.8 734.65,-99.8 734.65,-99.8 898.19,-99.8 898.19,-99.8 898.19,-99.8 898.19,-103.56 898.19,-103.56"/>
<polygon fill="black" stroke="black" points="894.69,-103.56 898.19,-113.56 901.69,-103.56 894.69,-103.56"/>
</g>
</g>
</svg>
