<?xml version="1.0" encoding="UTF-8" standalone="no"?>
<!DOCTYPE svg PUBLIC "-//W3C//DTD SVG 1.1//EN"
 "http://www.w3.org/Graphics/SVG/1.1/DTD/svg11.dtd">
<!-- Generated by graphviz version 2.47.3 (20210619.1520)
 -->
<!-- Title: dependencies Pages: 1 -->
<svg width="2193pt" height="312pt"
 viewBox="0.00 0.00 2193.00 311.80" xmlns="http://www.w3.org/2000/svg" xmlns:xlink="http://www.w3.org/1999/xlink">
<g id="graph0" class="graph" transform="scale(1 1) rotate(0) translate(4 307.8)">
<title>dependencies</title>
<polygon fill="white" stroke="transparent" points="-4,4 -4,-307.8 2189,-307.8 2189,4 -4,4"/>
<text text-anchor="middle" x="1092.5" y="-8.2" font-family="sans-serif" font-size="14.00">dependencies</text>
<g id="clust1" class="cluster">
<title>cluster_JNetworkBootstrap3DateTimeModule</title>
<polygon fill="none" stroke="black" stroke-dasharray="1,5" points="8,-32.8 8,-295.8 2177,-295.8 2177,-32.8 8,-32.8"/>
</g>
<g id="clust3" class="cluster">
<title>cluster_JNetworkBootstrap3DateTimeModule_NgDateComponent_providers</title>
<polygon fill="none" stroke="black" points="529,-40.8 529,-157.8 2169,-157.8 2169,-40.8 529,-40.8"/>
</g>
<g id="clust8" class="cluster">
<title>cluster_JNetworkBootstrap3DateTimeModule_exports</title>
<polygon fill="none" stroke="black" points="103,-235.8 103,-287.8 765,-287.8 765,-235.8 103,-235.8"/>
</g>
<g id="clust2" class="cluster">
<title>cluster_JNetworkBootstrap3DateTimeModule_declarations</title>
<polygon fill="none" stroke="black" points="16,-105.8 16,-157.8 521,-157.8 521,-105.8 16,-105.8"/>
</g>
<!-- NgDateComponent -->
<g id="node1" class="node">
<title>NgDateComponent</title>
<polygon fill="#ffffb3" stroke="black" points="988.37,-149.8 863.63,-149.8 863.63,-113.8 988.37,-113.8 988.37,-149.8"/>
<text text-anchor="middle" x="926" y="-127.6" font-family="Times,serif" font-size="14.00">NgDateComponent</text>
</g>
<!-- JNetworkBootstrap3DateTimeModule -->
<g id="node5" class="node">
<title>JNetworkBootstrap3DateTimeModule</title>
<polygon fill="#8dd3c7" stroke="black" points="499.89,-214.8 496.89,-218.8 475.89,-218.8 472.89,-214.8 268.11,-214.8 268.11,-178.8 499.89,-178.8 499.89,-214.8"/>
<text text-anchor="middle" x="384" y="-192.6" font-family="Times,serif" font-size="14.00">JNetworkBootstrap3DateTimeModule</text>
</g>
<!-- NgDateComponent&#45;&gt;JNetworkBootstrap3DateTimeModule -->
<g id="edge1" class="edge">
<title>NgDateComponent&#45;&gt;JNetworkBootstrap3DateTimeModule</title>
<path fill="none" stroke="black" d="M926,-149.82C926,-167.17 926,-190.8 926,-190.8 926,-190.8 509.94,-190.8 509.94,-190.8"/>
<polygon fill="black" stroke="black" points="509.94,-187.3 499.94,-190.8 509.94,-194.3 509.94,-187.3"/>
</g>
<!-- NgDateSelectorComponent -->
<g id="node2" class="node">
<title>NgDateSelectorComponent</title>
<polygon fill="#ffffb3" stroke="black" points="513.23,-149.8 342.77,-149.8 342.77,-113.8 513.23,-113.8 513.23,-149.8"/>
<text text-anchor="middle" x="428" y="-127.6" font-family="Times,serif" font-size="14.00">NgDateSelectorComponent</text>
</g>
<!-- NgDateSelectorComponent&#45;&gt;JNetworkBootstrap3DateTimeModule -->
<g id="edge4" class="edge">
<title>NgDateSelectorComponent&#45;&gt;JNetworkBootstrap3DateTimeModule</title>
<path fill="none" stroke="black" d="M421.16,-149.91C421.16,-149.91 421.16,-168.79 421.16,-168.79"/>
<polygon fill="black" stroke="black" points="417.66,-168.79 421.16,-178.79 424.66,-168.79 417.66,-168.79"/>
</g>
<!-- NgDateTimeComponent -->
<g id="node3" class="node">
<title>NgDateTimeComponent</title>
<polygon fill="#ffffb3" stroke="black" points="324.41,-149.8 169.59,-149.8 169.59,-113.8 324.41,-113.8 324.41,-149.8"/>
<text text-anchor="middle" x="247" y="-127.6" font-family="Times,serif" font-size="14.00">NgDateTimeComponent</text>
</g>
<!-- NgDateTimeComponent&#45;&gt;JNetworkBootstrap3DateTimeModule -->
<g id="edge5" class="edge">
<title>NgDateTimeComponent&#45;&gt;JNetworkBootstrap3DateTimeModule</title>
<path fill="none" stroke="black" d="M296.26,-149.91C296.26,-149.91 296.26,-168.79 296.26,-168.79"/>
<polygon fill="black" stroke="black" points="292.76,-168.79 296.26,-178.79 299.76,-168.79 292.76,-168.79"/>
</g>
<!-- NgTimeComponent -->
<g id="node4" class="node">
<title>NgTimeComponent</title>
<polygon fill="#ffffb3" stroke="black" points="151.99,-149.8 24.01,-149.8 24.01,-113.8 151.99,-113.8 151.99,-149.8"/>
<text text-anchor="middle" x="88" y="-127.6" font-family="Times,serif" font-size="14.00">NgTimeComponent</text>
</g>
<!-- NgTimeComponent&#45;&gt;JNetworkBootstrap3DateTimeModule -->
<g id="edge6" class="edge">
<title>NgTimeComponent&#45;&gt;JNetworkBootstrap3DateTimeModule</title>
<path fill="none" stroke="black" d="M131.62,-149.82C131.62,-167.17 131.62,-190.8 131.62,-190.8 131.62,-190.8 258.15,-190.8 258.15,-190.8"/>
<polygon fill="black" stroke="black" points="258.15,-194.3 268.15,-190.8 258.15,-187.3 258.15,-194.3"/>
</g>
<!-- NgDateComponent  -->
<g id="node8" class="node">
<title>NgDateComponent </title>
<polygon fill="#fb8072" stroke="black" points="757.37,-279.8 628.63,-279.8 628.63,-243.8 757.37,-243.8 757.37,-279.8"/>
<text text-anchor="middle" x="693" y="-257.6" font-family="Times,serif" font-size="14.00">NgDateComponent </text>
</g>
<!-- JNetworkBootstrap3DateTimeModule&#45;&gt;NgDateComponent  -->
<g id="edge7" class="edge">
<title>JNetworkBootstrap3DateTimeModule&#45;&gt;NgDateComponent </title>
<path fill="none" stroke="black" stroke-dasharray="5,2" d="M499.94,-202.8C587.62,-202.8 693,-202.8 693,-202.8 693,-202.8 693,-233.78 693,-233.78"/>
<polygon fill="black" stroke="black" points="689.5,-233.78 693,-243.78 696.5,-233.78 689.5,-233.78"/>
</g>
<!-- NgDateSelectorComponent  -->
<g id="node9" class="node">
<title>NgDateSelectorComponent </title>
<polygon fill="#fb8072" stroke="black" points="611.23,-279.8 436.77,-279.8 436.77,-243.8 611.23,-243.8 611.23,-279.8"/>
<text text-anchor="middle" x="524" y="-257.6" font-family="Times,serif" font-size="14.00">NgDateSelectorComponent </text>
</g>
<!-- JNetworkBootstrap3DateTimeModule&#45;&gt;NgDateSelectorComponent  -->
<g id="edge8" class="edge">
<title>JNetworkBootstrap3DateTimeModule&#45;&gt;NgDateSelectorComponent </title>
<path fill="none" stroke="black" stroke-dasharray="5,2" d="M468.29,-214.91C468.29,-214.91 468.29,-233.79 468.29,-233.79"/>
<polygon fill="black" stroke="black" points="464.79,-233.79 468.29,-243.79 471.79,-233.79 464.79,-233.79"/>
</g>
<!-- NgDateTimeComponent  -->
<g id="node10" class="node">
<title>NgDateTimeComponent </title>
<polygon fill="#fb8072" stroke="black" points="418.91,-279.8 261.09,-279.8 261.09,-243.8 418.91,-243.8 418.91,-279.8"/>
<text text-anchor="middle" x="340" y="-257.6" font-family="Times,serif" font-size="14.00">NgDateTimeComponent </text>
</g>
<!-- JNetworkBootstrap3DateTimeModule&#45;&gt;NgDateTimeComponent  -->
<g id="edge9" class="edge">
<title>JNetworkBootstrap3DateTimeModule&#45;&gt;NgDateTimeComponent </title>
<path fill="none" stroke="black" stroke-dasharray="5,2" d="M343.63,-214.91C343.63,-214.91 343.63,-233.79 343.63,-233.79"/>
<polygon fill="black" stroke="black" points="340.13,-233.79 343.63,-243.79 347.13,-233.79 340.13,-233.79"/>
</g>
<!-- NgTimeComponent  -->
<g id="node11" class="node">
<title>NgTimeComponent </title>
<polygon fill="#fb8072" stroke="black" points="242.99,-279.8 111.01,-279.8 111.01,-243.8 242.99,-243.8 242.99,-279.8"/>
<text text-anchor="middle" x="177" y="-257.6" font-family="Times,serif" font-size="14.00">NgTimeComponent </text>
</g>
<!-- JNetworkBootstrap3DateTimeModule&#45;&gt;NgTimeComponent  -->
<g id="edge10" class="edge">
<title>JNetworkBootstrap3DateTimeModule&#45;&gt;NgTimeComponent </title>
<path fill="none" stroke="black" stroke-dasharray="5,2" d="M267.93,-202.8C234.21,-202.8 206.27,-202.8 206.27,-202.8 206.27,-202.8 206.27,-233.78 206.27,-233.78"/>
<polygon fill="black" stroke="black" points="202.77,-233.78 206.27,-243.78 209.77,-233.78 202.77,-233.78"/>
</g>
<!-- { provide: NG_VALUE_ACCESSOR, multi: true, useExisting: forwardRef(() =&gt; NgDateComponent) } -->
<g id="node6" class="node">
<title>{ provide: NG_VALUE_ACCESSOR, multi: true, useExisting: forwardRef(() =&gt; NgDateComponent) }</title>
<ellipse fill="#fdb462" stroke="black" cx="1747" cy="-66.8" rx="414.37" ry="18"/>
<text text-anchor="middle" x="1747" y="-62.6" font-family="Times,serif" font-size="14.00">{ provide: NG_VALUE_ACCESSOR, multi: true, useExisting: forwardRef(() =&gt; NgDateComponent) }</text>
</g>
<!-- { provide: NG_VALUE_ACCESSOR, multi: true, useExisting: forwardRef(() =&gt; NgDateComponent) }&#45;&gt;NgDateComponent -->
<g id="edge2" class="edge">
<title>{ provide: NG_VALUE_ACCESSOR, multi: true, useExisting: forwardRef(() =&gt; NgDateComponent) }&#45;&gt;NgDateComponent</title>
<path fill="none" stroke="black" d="M1747,-84.91C1747,-104.14 1747,-131.8 1747,-131.8 1747,-131.8 998.38,-131.8 998.38,-131.8"/>
<polygon fill="black" stroke="black" points="998.38,-128.3 988.38,-131.8 998.38,-135.3 998.38,-128.3"/>
</g>
<!-- { provide: NG_VALIDATORS, multi: true, useExisting: forwardRef(() =&gt; NgDateComponent) } -->
<g id="node7" class="node">
<title>{ provide: NG_VALIDATORS, multi: true, useExisting: forwardRef(() =&gt; NgDateComponent) }</title>
<ellipse fill="#fdb462" stroke="black" cx="926" cy="-66.8" rx="388.85" ry="18"/>
<text text-anchor="middle" x="926" y="-62.6" font-family="Times,serif" font-size="14.00">{ provide: NG_VALIDATORS, multi: true, useExisting: forwardRef(() =&gt; NgDateComponent) }</text>
</g>
<!-- { provide: NG_VALIDATORS, multi: true, useExisting: forwardRef(() =&gt; NgDateComponent) }&#45;&gt;NgDateComponent -->
<g id="edge3" class="edge">
<title>{ provide: NG_VALIDATORS, multi: true, useExisting: forwardRef(() =&gt; NgDateComponent) }&#45;&gt;NgDateComponent</title>
<path fill="none" stroke="black" d="M926,-84.91C926,-84.91 926,-103.79 926,-103.79"/>
<polygon fill="black" stroke="black" points="922.5,-103.79 926,-113.79 929.5,-103.79 922.5,-103.79"/>
</g>
</g>
</svg>
