<?xml version="1.0" encoding="UTF-8" standalone="no"?>
<!DOCTYPE svg PUBLIC "-//W3C//DTD SVG 1.1//EN"
 "http://www.w3.org/Graphics/SVG/1.1/DTD/svg11.dtd">
<!-- Generated by graphviz version 2.47.0 (20210316.0004)
 -->
<!-- Title: dependencies Pages: 1 -->
<svg width="2193pt" height="349pt"
 viewBox="0.00 0.00 2193.00 349.00" xmlns="http://www.w3.org/2000/svg" xmlns:xlink="http://www.w3.org/1999/xlink">
<g id="graph0" class="graph" transform="scale(1 1) rotate(0) translate(4 345)">
<title>dependencies</title>
<polygon fill="white" stroke="transparent" points="-4,4 -4,-345 2189,-345 2189,4 -4,4"/>
<text text-anchor="start" x="1071.51" y="-42.4" font-family="Times-12" font-weight="bold" font-size="14.00">Legend</text>
<polygon fill="#ffffb3" stroke="transparent" points="858.5,-10 858.5,-30 878.5,-30 878.5,-10 858.5,-10"/>
<text text-anchor="start" x="882.13" y="-15.4" font-family="Times-12" font-size="14.00"> &#160;Declarations</text>
<polygon fill="#8dd3c7" stroke="transparent" points="971.5,-10 971.5,-30 991.5,-30 991.5,-10 971.5,-10"/>
<text text-anchor="start" x="995.23" y="-15.4" font-family="Times-12" font-size="14.00"> &#160;Module</text>
<polygon fill="#80b1d3" stroke="transparent" points="1057.5,-10 1057.5,-30 1077.5,-30 1077.5,-10 1057.5,-10"/>
<text text-anchor="start" x="1081.28" y="-15.4" font-family="Times-12" font-size="14.00"> &#160;Bootstrap</text>
<polygon fill="#fdb462" stroke="transparent" points="1154.5,-10 1154.5,-30 1174.5,-30 1174.5,-10 1154.5,-10"/>
<text text-anchor="start" x="1178.17" y="-15.4" font-family="Times-12" font-size="14.00"> &#160;Providers</text>
<polygon fill="#fb8072" stroke="transparent" points="1250.5,-10 1250.5,-30 1270.5,-30 1270.5,-10 1250.5,-10"/>
<text text-anchor="start" x="1274.23" y="-15.4" font-family="Times-12" font-size="14.00"> &#160;Exports</text>
<g id="clust1" class="cluster">
<title>cluster_JNetworkBootstrap3DateTimeModule</title>
<polygon fill="none" stroke="black" stroke-dasharray="1,5" points="8,-70 8,-333 2177,-333 2177,-70 8,-70"/>
</g>
<g id="clust8" class="cluster">
<title>cluster_JNetworkBootstrap3DateTimeModule_exports</title>
<polygon fill="none" stroke="black" points="103,-273 103,-325 765,-325 765,-273 103,-273"/>
</g>
<g id="clust3" class="cluster">
<title>cluster_JNetworkBootstrap3DateTimeModule_NgDateComponent_providers</title>
<polygon fill="none" stroke="black" points="529,-78 529,-195 2169,-195 2169,-78 529,-78"/>
</g>
<g id="clust2" class="cluster">
<title>cluster_JNetworkBootstrap3DateTimeModule_declarations</title>
<polygon fill="none" stroke="black" points="16,-143 16,-195 521,-195 521,-143 16,-143"/>
</g>
<!-- NgDateComponent -->
<g id="node1" class="node">
<title>NgDateComponent</title>
<polygon fill="#ffffb3" stroke="black" points="988.37,-187 863.63,-187 863.63,-151 988.37,-151 988.37,-187"/>
<text text-anchor="middle" x="926" y="-164.8" font-family="Times,serif" font-size="14.00">NgDateComponent</text>
</g>
<!-- JNetworkBootstrap3DateTimeModule -->
<g id="node5" class="node">
<title>JNetworkBootstrap3DateTimeModule</title>
<polygon fill="#8dd3c7" stroke="black" points="499.89,-252 496.89,-256 475.89,-256 472.89,-252 268.11,-252 268.11,-216 499.89,-216 499.89,-252"/>
<text text-anchor="middle" x="384" y="-229.8" font-family="Times,serif" font-size="14.00">JNetworkBootstrap3DateTimeModule</text>
</g>
<!-- NgDateComponent&#45;&gt;JNetworkBootstrap3DateTimeModule -->
<g id="edge1" class="edge">
<title>NgDateComponent&#45;&gt;JNetworkBootstrap3DateTimeModule</title>
<path fill="none" stroke="black" d="M926,-187.02C926,-204.37 926,-228 926,-228 926,-228 509.94,-228 509.94,-228"/>
<polygon fill="black" stroke="black" points="509.94,-224.5 499.94,-228 509.94,-231.5 509.94,-224.5"/>
</g>
<!-- NgDateSelectorComponent -->
<g id="node2" class="node">
<title>NgDateSelectorComponent</title>
<polygon fill="#ffffb3" stroke="black" points="513.23,-187 342.77,-187 342.77,-151 513.23,-151 513.23,-187"/>
<text text-anchor="middle" x="428" y="-164.8" font-family="Times,serif" font-size="14.00">NgDateSelectorComponent</text>
</g>
<!-- NgDateSelectorComponent&#45;&gt;JNetworkBootstrap3DateTimeModule -->
<g id="edge4" class="edge">
<title>NgDateSelectorComponent&#45;&gt;JNetworkBootstrap3DateTimeModule</title>
<path fill="none" stroke="black" d="M421.16,-187.11C421.16,-187.11 421.16,-205.99 421.16,-205.99"/>
<polygon fill="black" stroke="black" points="417.66,-205.99 421.16,-215.99 424.66,-205.99 417.66,-205.99"/>
</g>
<!-- NgDateTimeComponent -->
<g id="node3" class="node">
<title>NgDateTimeComponent</title>
<polygon fill="#ffffb3" stroke="black" points="324.41,-187 169.59,-187 169.59,-151 324.41,-151 324.41,-187"/>
<text text-anchor="middle" x="247" y="-164.8" font-family="Times,serif" font-size="14.00">NgDateTimeComponent</text>
</g>
<!-- NgDateTimeComponent&#45;&gt;JNetworkBootstrap3DateTimeModule -->
<g id="edge5" class="edge">
<title>NgDateTimeComponent&#45;&gt;JNetworkBootstrap3DateTimeModule</title>
<path fill="none" stroke="black" d="M296.26,-187.11C296.26,-187.11 296.26,-205.99 296.26,-205.99"/>
<polygon fill="black" stroke="black" points="292.76,-205.99 296.26,-215.99 299.76,-205.99 292.76,-205.99"/>
</g>
<!-- NgTimeComponent -->
<g id="node4" class="node">
<title>NgTimeComponent</title>
<polygon fill="#ffffb3" stroke="black" points="151.99,-187 24.01,-187 24.01,-151 151.99,-151 151.99,-187"/>
<text text-anchor="middle" x="88" y="-164.8" font-family="Times,serif" font-size="14.00">NgTimeComponent</text>
</g>
<!-- NgTimeComponent&#45;&gt;JNetworkBootstrap3DateTimeModule -->
<g id="edge6" class="edge">
<title>NgTimeComponent&#45;&gt;JNetworkBootstrap3DateTimeModule</title>
<path fill="none" stroke="black" d="M131.62,-187.02C131.62,-204.37 131.62,-228 131.62,-228 131.62,-228 258.15,-228 258.15,-228"/>
<polygon fill="black" stroke="black" points="258.15,-231.5 268.15,-228 258.15,-224.5 258.15,-231.5"/>
</g>
<!-- NgDateComponent  -->
<g id="node8" class="node">
<title>NgDateComponent </title>
<polygon fill="#fb8072" stroke="black" points="757.37,-317 628.63,-317 628.63,-281 757.37,-281 757.37,-317"/>
<text text-anchor="middle" x="693" y="-294.8" font-family="Times,serif" font-size="14.00">NgDateComponent </text>
</g>
<!-- JNetworkBootstrap3DateTimeModule&#45;&gt;NgDateComponent  -->
<g id="edge7" class="edge">
<title>JNetworkBootstrap3DateTimeModule&#45;&gt;NgDateComponent </title>
<path fill="none" stroke="black" stroke-dasharray="5,2" d="M499.94,-240C587.62,-240 693,-240 693,-240 693,-240 693,-270.98 693,-270.98"/>
<polygon fill="black" stroke="black" points="689.5,-270.98 693,-280.98 696.5,-270.98 689.5,-270.98"/>
</g>
<!-- NgDateSelectorComponent  -->
<g id="node9" class="node">
<title>NgDateSelectorComponent </title>
<polygon fill="#fb8072" stroke="black" points="611.23,-317 436.77,-317 436.77,-281 611.23,-281 611.23,-317"/>
<text text-anchor="middle" x="524" y="-294.8" font-family="Times,serif" font-size="14.00">NgDateSelectorComponent </text>
</g>
<!-- JNetworkBootstrap3DateTimeModule&#45;&gt;NgDateSelectorComponent  -->
<g id="edge8" class="edge">
<title>JNetworkBootstrap3DateTimeModule&#45;&gt;NgDateSelectorComponent </title>
<path fill="none" stroke="black" stroke-dasharray="5,2" d="M468.29,-252.11C468.29,-252.11 468.29,-270.99 468.29,-270.99"/>
<polygon fill="black" stroke="black" points="464.79,-270.99 468.29,-280.99 471.79,-270.99 464.79,-270.99"/>
</g>
<!-- NgDateTimeComponent  -->
<g id="node10" class="node">
<title>NgDateTimeComponent </title>
<polygon fill="#fb8072" stroke="black" points="418.91,-317 261.09,-317 261.09,-281 418.91,-281 418.91,-317"/>
<text text-anchor="middle" x="340" y="-294.8" font-family="Times,serif" font-size="14.00">NgDateTimeComponent </text>
</g>
<!-- JNetworkBootstrap3DateTimeModule&#45;&gt;NgDateTimeComponent  -->
<g id="edge9" class="edge">
<title>JNetworkBootstrap3DateTimeModule&#45;&gt;NgDateTimeComponent </title>
<path fill="none" stroke="black" stroke-dasharray="5,2" d="M343.63,-252.11C343.63,-252.11 343.63,-270.99 343.63,-270.99"/>
<polygon fill="black" stroke="black" points="340.13,-270.99 343.63,-280.99 347.13,-270.99 340.13,-270.99"/>
</g>
<!-- NgTimeComponent  -->
<g id="node11" class="node">
<title>NgTimeComponent </title>
<polygon fill="#fb8072" stroke="black" points="242.99,-317 111.01,-317 111.01,-281 242.99,-281 242.99,-317"/>
<text text-anchor="middle" x="177" y="-294.8" font-family="Times,serif" font-size="14.00">NgTimeComponent </text>
</g>
<!-- JNetworkBootstrap3DateTimeModule&#45;&gt;NgTimeComponent  -->
<g id="edge10" class="edge">
<title>JNetworkBootstrap3DateTimeModule&#45;&gt;NgTimeComponent </title>
<path fill="none" stroke="black" stroke-dasharray="5,2" d="M267.93,-240C234.21,-240 206.27,-240 206.27,-240 206.27,-240 206.27,-270.98 206.27,-270.98"/>
<polygon fill="black" stroke="black" points="202.77,-270.98 206.27,-280.98 209.77,-270.98 202.77,-270.98"/>
</g>
<!-- { provide: NG_VALUE_ACCESSOR, multi: true, useExisting: forwardRef(() =&gt; NgDateComponent) } -->
<g id="node6" class="node">
<title>{ provide: NG_VALUE_ACCESSOR, multi: true, useExisting: forwardRef(() =&gt; NgDateComponent) }</title>
<ellipse fill="#fdb462" stroke="black" cx="1747" cy="-104" rx="414.37" ry="18"/>
<text text-anchor="middle" x="1747" y="-99.8" font-family="Times,serif" font-size="14.00">{ provide: NG_VALUE_ACCESSOR, multi: true, useExisting: forwardRef(() =&gt; NgDateComponent) }</text>
</g>
<!-- { provide: NG_VALUE_ACCESSOR, multi: true, useExisting: forwardRef(() =&gt; NgDateComponent) }&#45;&gt;NgDateComponent -->
<g id="edge2" class="edge">
<title>{ provide: NG_VALUE_ACCESSOR, multi: true, useExisting: forwardRef(() =&gt; NgDateComponent) }&#45;&gt;NgDateComponent</title>
<path fill="none" stroke="black" d="M1747,-122.11C1747,-141.34 1747,-169 1747,-169 1747,-169 998.38,-169 998.38,-169"/>
<polygon fill="black" stroke="black" points="998.38,-165.5 988.38,-169 998.38,-172.5 998.38,-165.5"/>
</g>
<!-- { provide: NG_VALIDATORS, multi: true, useExisting: forwardRef(() =&gt; NgDateComponent) } -->
<g id="node7" class="node">
<title>{ provide: NG_VALIDATORS, multi: true, useExisting: forwardRef(() =&gt; NgDateComponent) }</title>
<ellipse fill="#fdb462" stroke="black" cx="926" cy="-104" rx="388.85" ry="18"/>
<text text-anchor="middle" x="926" y="-99.8" font-family="Times,serif" font-size="14.00">{ provide: NG_VALIDATORS, multi: true, useExisting: forwardRef(() =&gt; NgDateComponent) }</text>
</g>
<!-- { provide: NG_VALIDATORS, multi: true, useExisting: forwardRef(() =&gt; NgDateComponent) }&#45;&gt;NgDateComponent -->
<g id="edge3" class="edge">
<title>{ provide: NG_VALIDATORS, multi: true, useExisting: forwardRef(() =&gt; NgDateComponent) }&#45;&gt;NgDateComponent</title>
<path fill="none" stroke="black" d="M926,-122.11C926,-122.11 926,-140.99 926,-140.99"/>
<polygon fill="black" stroke="black" points="922.5,-140.99 926,-150.99 929.5,-140.99 922.5,-140.99"/>
</g>
</g>
</svg>
