<?xml version="1.0" encoding="UTF-8" standalone="no"?>
<!DOCTYPE svg PUBLIC "-//W3C//DTD SVG 1.1//EN"
 "http://www.w3.org/Graphics/SVG/1.1/DTD/svg11.dtd">
<!-- Generated by graphviz version 2.47.3 (20210619.1520)
 -->
<!-- Title: dependencies Pages: 1 -->
<svg width="1785pt" height="312pt"
 viewBox="0.00 0.00 1785.00 311.80" xmlns="http://www.w3.org/2000/svg" xmlns:xlink="http://www.w3.org/1999/xlink">
<g id="graph0" class="graph" transform="scale(1 1) rotate(0) translate(4 307.8)">
<title>dependencies</title>
<polygon fill="white" stroke="transparent" points="-4,4 -4,-307.8 1781,-307.8 1781,4 -4,4"/>
<text text-anchor="middle" x="888.5" y="-8.2" font-family="sans-serif" font-size="14.00">dependencies</text>
<g id="clust1" class="cluster">
<title>cluster_JNetworkBootstrap4StaticLabelModule</title>
<polygon fill="none" stroke="black" stroke-dasharray="1,5" points="8,-32.8 8,-295.8 1769,-295.8 1769,-32.8 8,-32.8"/>
</g>
<g id="clust6" class="cluster">
<title>cluster_JNetworkBootstrap4StaticLabelModule_exports</title>
<polygon fill="none" stroke="black" points="96,-235.8 96,-287.8 516,-287.8 516,-235.8 96,-235.8"/>
</g>
<g id="clust2" class="cluster">
<title>cluster_JNetworkBootstrap4StaticLabelModule_declarations</title>
<polygon fill="none" stroke="black" points="211,-105.8 211,-157.8 623,-157.8 623,-105.8 211,-105.8"/>
</g>
<g id="clust3" class="cluster">
<title>cluster_JNetworkBootstrap4StaticLabelModule_NgStaticFormContainerComponent_providers</title>
<polygon fill="none" stroke="black" points="16,-40.8 16,-92.8 1761,-92.8 1761,-40.8 16,-40.8"/>
</g>
<!-- NgStaticFormContainerComponent -->
<g id="node1" class="node">
<title>NgStaticFormContainerComponent</title>
<polygon fill="#ffffb3" stroke="black" points="614.86,-149.8 399.14,-149.8 399.14,-113.8 614.86,-113.8 614.86,-149.8"/>
<text text-anchor="middle" x="507" y="-127.6" font-family="Times,serif" font-size="14.00">NgStaticFormContainerComponent</text>
</g>
<!-- JNetworkBootstrap4StaticLabelModule -->
<g id="node3" class="node">
<title>JNetworkBootstrap4StaticLabelModule</title>
<polygon fill="#8dd3c7" stroke="black" points="484.67,-214.8 481.67,-218.8 460.67,-218.8 457.67,-214.8 245.33,-214.8 245.33,-178.8 484.67,-178.8 484.67,-214.8"/>
<text text-anchor="middle" x="365" y="-192.6" font-family="Times,serif" font-size="14.00">JNetworkBootstrap4StaticLabelModule</text>
</g>
<!-- NgStaticFormContainerComponent&#45;&gt;JNetworkBootstrap4StaticLabelModule -->
<g id="edge1" class="edge">
<title>NgStaticFormContainerComponent&#45;&gt;JNetworkBootstrap4StaticLabelModule</title>
<path fill="none" stroke="black" d="M441.83,-149.91C441.83,-149.91 441.83,-168.79 441.83,-168.79"/>
<polygon fill="black" stroke="black" points="438.33,-168.79 441.83,-178.79 445.33,-168.79 438.33,-168.79"/>
</g>
<!-- NgStaticLabelComponent -->
<g id="node2" class="node">
<title>NgStaticLabelComponent</title>
<polygon fill="#ffffb3" stroke="black" points="381.2,-149.8 218.8,-149.8 218.8,-113.8 381.2,-113.8 381.2,-149.8"/>
<text text-anchor="middle" x="300" y="-127.6" font-family="Times,serif" font-size="14.00">NgStaticLabelComponent</text>
</g>
<!-- NgStaticLabelComponent&#45;&gt;JNetworkBootstrap4StaticLabelModule -->
<g id="edge4" class="edge">
<title>NgStaticLabelComponent&#45;&gt;JNetworkBootstrap4StaticLabelModule</title>
<path fill="none" stroke="black" d="M313.26,-149.91C313.26,-149.91 313.26,-168.79 313.26,-168.79"/>
<polygon fill="black" stroke="black" points="309.76,-168.79 313.26,-178.79 316.76,-168.79 309.76,-168.79"/>
</g>
<!-- NgStaticFormContainerComponent  -->
<g id="node6" class="node">
<title>NgStaticFormContainerComponent </title>
<polygon fill="#fb8072" stroke="black" points="507.86,-279.8 288.14,-279.8 288.14,-243.8 507.86,-243.8 507.86,-279.8"/>
<text text-anchor="middle" x="398" y="-257.6" font-family="Times,serif" font-size="14.00">NgStaticFormContainerComponent </text>
</g>
<!-- JNetworkBootstrap4StaticLabelModule&#45;&gt;NgStaticFormContainerComponent  -->
<g id="edge5" class="edge">
<title>JNetworkBootstrap4StaticLabelModule&#45;&gt;NgStaticFormContainerComponent </title>
<path fill="none" stroke="black" stroke-dasharray="5,2" d="M386.45,-214.91C386.45,-214.91 386.45,-233.79 386.45,-233.79"/>
<polygon fill="black" stroke="black" points="382.95,-233.79 386.45,-243.79 389.95,-233.79 382.95,-233.79"/>
</g>
<!-- NgStaticLabelComponent  -->
<g id="node7" class="node">
<title>NgStaticLabelComponent </title>
<polygon fill="#fb8072" stroke="black" points="269.7,-279.8 104.3,-279.8 104.3,-243.8 269.7,-243.8 269.7,-279.8"/>
<text text-anchor="middle" x="187" y="-257.6" font-family="Times,serif" font-size="14.00">NgStaticLabelComponent </text>
</g>
<!-- JNetworkBootstrap4StaticLabelModule&#45;&gt;NgStaticLabelComponent  -->
<g id="edge6" class="edge">
<title>JNetworkBootstrap4StaticLabelModule&#45;&gt;NgStaticLabelComponent </title>
<path fill="none" stroke="black" stroke-dasharray="5,2" d="M257.63,-214.91C257.63,-214.91 257.63,-233.79 257.63,-233.79"/>
<polygon fill="black" stroke="black" points="254.13,-233.79 257.63,-243.79 261.13,-233.79 254.13,-233.79"/>
</g>
<!-- { provide: NG_VALUE_ACCESSOR, multi: true, useExisting: NgStaticFormContainerComponent } -->
<g id="node4" class="node">
<title>{ provide: NG_VALUE_ACCESSOR, multi: true, useExisting: NgStaticFormContainerComponent }</title>
<ellipse fill="#fdb462" stroke="black" cx="1349" cy="-66.8" rx="404.25" ry="18"/>
<text text-anchor="middle" x="1349" y="-62.6" font-family="Times,serif" font-size="14.00">{ provide: NG_VALUE_ACCESSOR, multi: true, useExisting: NgStaticFormContainerComponent }</text>
</g>
<!-- { provide: NG_VALUE_ACCESSOR, multi: true, useExisting: NgStaticFormContainerComponent }&#45;&gt;NgStaticFormContainerComponent -->
<g id="edge2" class="edge">
<title>{ provide: NG_VALUE_ACCESSOR, multi: true, useExisting: NgStaticFormContainerComponent }&#45;&gt;NgStaticFormContainerComponent</title>
<path fill="none" stroke="black" d="M1349,-84.91C1349,-104.14 1349,-131.8 1349,-131.8 1349,-131.8 624.92,-131.8 624.92,-131.8"/>
<polygon fill="black" stroke="black" points="624.92,-128.3 614.92,-131.8 624.92,-135.3 624.92,-128.3"/>
</g>
<!-- { provide: NG_VALIDATORS, multi: true, useExisting: forwardRef(() =&gt; NgStaticFormContainerComponent) } -->
<g id="node5" class="node">
<title>{ provide: NG_VALIDATORS, multi: true, useExisting: forwardRef(() =&gt; NgStaticFormContainerComponent) }</title>
<ellipse fill="#fdb462" stroke="black" cx="475" cy="-66.8" rx="451.39" ry="18"/>
<text text-anchor="middle" x="475" y="-62.6" font-family="Times,serif" font-size="14.00">{ provide: NG_VALIDATORS, multi: true, useExisting: forwardRef(() =&gt; NgStaticFormContainerComponent) }</text>
</g>
<!-- { provide: NG_VALIDATORS, multi: true, useExisting: forwardRef(() =&gt; NgStaticFormContainerComponent) }&#45;&gt;NgStaticFormContainerComponent -->
<g id="edge3" class="edge">
<title>{ provide: NG_VALIDATORS, multi: true, useExisting: forwardRef(() =&gt; NgStaticFormContainerComponent) }&#45;&gt;NgStaticFormContainerComponent</title>
<path fill="none" stroke="black" d="M507,-84.91C507,-84.91 507,-103.79 507,-103.79"/>
<polygon fill="black" stroke="black" points="503.5,-103.79 507,-113.79 510.5,-103.79 503.5,-103.79"/>
</g>
</g>
</svg>
