<?xml version="1.0" encoding="UTF-8" standalone="no"?>
<!DOCTYPE svg PUBLIC "-//W3C//DTD SVG 1.1//EN"
 "http://www.w3.org/Graphics/SVG/1.1/DTD/svg11.dtd">
<!-- Generated by graphviz version 2.47.3 (20210619.1520)
 -->
<!-- Title: dependencies Pages: 1 -->
<svg width="3421pt" height="358pt"
 viewBox="0.00 0.00 3421.00 358.39" xmlns="http://www.w3.org/2000/svg" xmlns:xlink="http://www.w3.org/1999/xlink">
<g id="graph0" class="graph" transform="scale(1 1) rotate(0) translate(4 354.39)">
<title>dependencies</title>
<polygon fill="white" stroke="transparent" points="-4,4 -4,-354.39 3417,-354.39 3417,4 -4,4"/>
<text text-anchor="middle" x="1706.5" y="-8.2" font-family="sans-serif" font-size="14.00">dependencies</text>
<g id="clust1" class="cluster">
<title>cluster_JNetworkBootstrap4StaticLabelModule</title>
<polygon fill="none" stroke="black" stroke-dasharray="1,5" points="8,-32.8 8,-342.39 3405,-342.39 3405,-32.8 8,-32.8"/>
</g>
<g id="clust4" class="cluster">
<title>cluster_JNetworkBootstrap4StaticLabelModule_NgStaticLabelComponent_providers</title>
<polygon fill="none" stroke="black" points="1769,-40.8 1769,-204.39 3397,-204.39 3397,-40.8 1769,-40.8"/>
</g>
<g id="clust2" class="cluster">
<title>cluster_JNetworkBootstrap4StaticLabelModule_declarations</title>
<polygon fill="none" stroke="black" points="1233,-152.39 1233,-204.39 1465,-204.39 1465,-152.39 1233,-152.39"/>
</g>
<g id="clust6" class="cluster">
<title>cluster_JNetworkBootstrap4StaticLabelModule_exports</title>
<polygon fill="none" stroke="black" points="1577,-282.39 1577,-334.39 1997,-334.39 1997,-282.39 1577,-282.39"/>
</g>
<g id="clust3" class="cluster">
<title>cluster_JNetworkBootstrap4StaticLabelModule_NgStaticFormContainerComponent_providers</title>
<polygon fill="none" stroke="black" points="16,-64.1 16,-116.1 1761,-116.1 1761,-64.1 16,-64.1"/>
</g>
<!-- NgStaticFormContainerComponent -->
<g id="node1" class="node">
<title>NgStaticFormContainerComponent</title>
<polygon fill="#ffffb3" stroke="black" points="1456.86,-196.39 1241.14,-196.39 1241.14,-160.39 1456.86,-160.39 1456.86,-196.39"/>
<text text-anchor="middle" x="1349" y="-174.19" font-family="Times,serif" font-size="14.00">NgStaticFormContainerComponent</text>
</g>
<!-- JNetworkBootstrap4StaticLabelModule -->
<g id="node3" class="node">
<title>JNetworkBootstrap4StaticLabelModule</title>
<polygon fill="#8dd3c7" stroke="black" points="1893.67,-261.39 1890.67,-265.39 1869.67,-265.39 1866.67,-261.39 1654.33,-261.39 1654.33,-225.39 1893.67,-225.39 1893.67,-261.39"/>
<text text-anchor="middle" x="1774" y="-239.19" font-family="Times,serif" font-size="14.00">JNetworkBootstrap4StaticLabelModule</text>
</g>
<!-- NgStaticFormContainerComponent&#45;&gt;JNetworkBootstrap4StaticLabelModule -->
<g id="edge1" class="edge">
<title>NgStaticFormContainerComponent&#45;&gt;JNetworkBootstrap4StaticLabelModule</title>
<path fill="none" stroke="black" d="M1456.89,-184.39C1561.26,-184.39 1703.77,-184.39 1703.77,-184.39 1703.77,-184.39 1703.77,-215.37 1703.77,-215.37"/>
<polygon fill="black" stroke="black" points="1700.27,-215.37 1703.77,-225.37 1707.27,-215.37 1700.27,-215.37"/>
</g>
<!-- NgStaticLabelComponent -->
<g id="node2" class="node">
<title>NgStaticLabelComponent</title>
<polygon fill="#ffffb3" stroke="black" points="2281.2,-196.39 2118.8,-196.39 2118.8,-160.39 2281.2,-160.39 2281.2,-196.39"/>
<text text-anchor="middle" x="2200" y="-174.19" font-family="Times,serif" font-size="14.00">NgStaticLabelComponent</text>
</g>
<!-- NgStaticLabelComponent&#45;&gt;JNetworkBootstrap4StaticLabelModule -->
<g id="edge4" class="edge">
<title>NgStaticLabelComponent&#45;&gt;JNetworkBootstrap4StaticLabelModule</title>
<path fill="none" stroke="black" d="M2118.63,-172.39C2011.18,-172.39 1835.41,-172.39 1835.41,-172.39 1835.41,-172.39 1835.41,-215.11 1835.41,-215.11"/>
<polygon fill="black" stroke="black" points="1831.91,-215.11 1835.41,-225.11 1838.91,-215.11 1831.91,-215.11"/>
</g>
<!-- NgStaticFormContainerComponent  -->
<g id="node8" class="node">
<title>NgStaticFormContainerComponent </title>
<polygon fill="#fb8072" stroke="black" points="1988.86,-326.39 1769.14,-326.39 1769.14,-290.39 1988.86,-290.39 1988.86,-326.39"/>
<text text-anchor="middle" x="1879" y="-304.19" font-family="Times,serif" font-size="14.00">NgStaticFormContainerComponent </text>
</g>
<!-- JNetworkBootstrap4StaticLabelModule&#45;&gt;NgStaticFormContainerComponent  -->
<g id="edge7" class="edge">
<title>JNetworkBootstrap4StaticLabelModule&#45;&gt;NgStaticFormContainerComponent </title>
<path fill="none" stroke="black" stroke-dasharray="5,2" d="M1831.45,-261.5C1831.45,-261.5 1831.45,-280.38 1831.45,-280.38"/>
<polygon fill="black" stroke="black" points="1827.95,-280.38 1831.45,-290.38 1834.95,-280.38 1827.95,-280.38"/>
</g>
<!-- NgStaticLabelComponent  -->
<g id="node9" class="node">
<title>NgStaticLabelComponent </title>
<polygon fill="#fb8072" stroke="black" points="1750.7,-326.39 1585.3,-326.39 1585.3,-290.39 1750.7,-290.39 1750.7,-326.39"/>
<text text-anchor="middle" x="1668" y="-304.19" font-family="Times,serif" font-size="14.00">NgStaticLabelComponent </text>
</g>
<!-- JNetworkBootstrap4StaticLabelModule&#45;&gt;NgStaticLabelComponent  -->
<g id="edge8" class="edge">
<title>JNetworkBootstrap4StaticLabelModule&#45;&gt;NgStaticLabelComponent </title>
<path fill="none" stroke="black" stroke-dasharray="5,2" d="M1702.63,-261.5C1702.63,-261.5 1702.63,-280.38 1702.63,-280.38"/>
<polygon fill="black" stroke="black" points="1699.13,-280.38 1702.63,-290.38 1706.13,-280.38 1699.13,-280.38"/>
</g>
<!-- { provide: NG_VALUE_ACCESSOR, multi: true, useExisting: NgStaticFormContainerComponent } -->
<g id="node4" class="node">
<title>{ provide: NG_VALUE_ACCESSOR, multi: true, useExisting: NgStaticFormContainerComponent }</title>
<ellipse fill="#fdb462" stroke="black" cx="1349" cy="-90.1" rx="404.25" ry="18"/>
<text text-anchor="middle" x="1349" y="-85.9" font-family="Times,serif" font-size="14.00">{ provide: NG_VALUE_ACCESSOR, multi: true, useExisting: NgStaticFormContainerComponent }</text>
</g>
<!-- { provide: NG_VALUE_ACCESSOR, multi: true, useExisting: NgStaticFormContainerComponent }&#45;&gt;NgStaticFormContainerComponent -->
<g id="edge2" class="edge">
<title>{ provide: NG_VALUE_ACCESSOR, multi: true, useExisting: NgStaticFormContainerComponent }&#45;&gt;NgStaticFormContainerComponent</title>
<path fill="none" stroke="black" d="M1349,-108.39C1349,-108.39 1349,-150.12 1349,-150.12"/>
<polygon fill="black" stroke="black" points="1345.5,-150.12 1349,-160.12 1352.5,-150.12 1345.5,-150.12"/>
</g>
<!-- { provide: NG_VALIDATORS, multi: true, useExisting: forwardRef(() =&gt; NgStaticFormContainerComponent) } -->
<g id="node5" class="node">
<title>{ provide: NG_VALIDATORS, multi: true, useExisting: forwardRef(() =&gt; NgStaticFormContainerComponent) }</title>
<ellipse fill="#fdb462" stroke="black" cx="475" cy="-90.1" rx="451.39" ry="18"/>
<text text-anchor="middle" x="475" y="-85.9" font-family="Times,serif" font-size="14.00">{ provide: NG_VALIDATORS, multi: true, useExisting: forwardRef(() =&gt; NgStaticFormContainerComponent) }</text>
</g>
<!-- { provide: NG_VALIDATORS, multi: true, useExisting: forwardRef(() =&gt; NgStaticFormContainerComponent) }&#45;&gt;NgStaticFormContainerComponent -->
<g id="edge3" class="edge">
<title>{ provide: NG_VALIDATORS, multi: true, useExisting: forwardRef(() =&gt; NgStaticFormContainerComponent) }&#45;&gt;NgStaticFormContainerComponent</title>
<path fill="none" stroke="black" d="M475,-108.39C475,-134.25 475,-178.39 475,-178.39 475,-178.39 1230.95,-178.39 1230.95,-178.39"/>
<polygon fill="black" stroke="black" points="1230.95,-181.89 1240.95,-178.39 1230.95,-174.89 1230.95,-181.89"/>
</g>
<!-- {
 &#160;&#160;&#160;provide: NG_VALUE_ACCESSOR, multi: true, useExisting: NgStaticLabelComponent,
} -->
<g id="node6" class="node">
<title>{
 &#160;&#160;&#160;provide: NG_VALUE_ACCESSOR, multi: true, useExisting: NgStaticLabelComponent,
}</title>
<ellipse fill="#fdb462" stroke="black" cx="3015" cy="-90.1" rx="374.5" ry="41.09"/>
<text text-anchor="middle" x="3015" y="-102.7" font-family="Times,serif" font-size="14.00">{</text>
<text text-anchor="middle" x="3015" y="-85.9" font-family="Times,serif" font-size="14.00"> &#160;&#160;&#160;provide: NG_VALUE_ACCESSOR, multi: true, useExisting: NgStaticLabelComponent,</text>
<text text-anchor="middle" x="3015" y="-69.1" font-family="Times,serif" font-size="14.00">}</text>
</g>
<!-- {
 &#160;&#160;&#160;provide: NG_VALUE_ACCESSOR, multi: true, useExisting: NgStaticLabelComponent,
}&#45;&gt;NgStaticLabelComponent -->
<g id="edge5" class="edge">
<title>{
 &#160;&#160;&#160;provide: NG_VALUE_ACCESSOR, multi: true, useExisting: NgStaticLabelComponent,
}&#45;&gt;NgStaticLabelComponent</title>
<path fill="none" stroke="black" d="M3015,-131.4C3015,-154.38 3015,-178.39 3015,-178.39 3015,-178.39 2291.12,-178.39 2291.12,-178.39"/>
<polygon fill="black" stroke="black" points="2291.12,-174.89 2281.12,-178.39 2291.12,-181.89 2291.12,-174.89"/>
</g>
<!-- {
 &#160;&#160;&#160;provide: NG_VALIDATORS, multi: true, useExisting: forwardRef(() =&gt; NgStaticLabelComponent),
} -->
<g id="node7" class="node">
<title>{
 &#160;&#160;&#160;provide: NG_VALIDATORS, multi: true, useExisting: forwardRef(() =&gt; NgStaticLabelComponent),
}</title>
<ellipse fill="#fdb462" stroke="black" cx="2200" cy="-90.1" rx="422.51" ry="41.09"/>
<text text-anchor="middle" x="2200" y="-102.7" font-family="Times,serif" font-size="14.00">{</text>
<text text-anchor="middle" x="2200" y="-85.9" font-family="Times,serif" font-size="14.00"> &#160;&#160;&#160;provide: NG_VALIDATORS, multi: true, useExisting: forwardRef(() =&gt; NgStaticLabelComponent),</text>
<text text-anchor="middle" x="2200" y="-69.1" font-family="Times,serif" font-size="14.00">}</text>
</g>
<!-- {
 &#160;&#160;&#160;provide: NG_VALIDATORS, multi: true, useExisting: forwardRef(() =&gt; NgStaticLabelComponent),
}&#45;&gt;NgStaticLabelComponent -->
<g id="edge6" class="edge">
<title>{
 &#160;&#160;&#160;provide: NG_VALIDATORS, multi: true, useExisting: forwardRef(() =&gt; NgStaticLabelComponent),
}&#45;&gt;NgStaticLabelComponent</title>
<path fill="none" stroke="black" d="M2200,-131.4C2200,-131.4 2200,-150.06 2200,-150.06"/>
<polygon fill="black" stroke="black" points="2196.5,-150.06 2200,-160.06 2203.5,-150.06 2196.5,-150.06"/>
</g>
</g>
</svg>
