<?xml version="1.0" encoding="UTF-8" standalone="no"?>
<!DOCTYPE svg PUBLIC "-//W3C//DTD SVG 1.1//EN"
 "http://www.w3.org/Graphics/SVG/1.1/DTD/svg11.dtd">
<!-- Generated by graphviz version 2.47.0 (20210316.0004)
 -->
<!-- Title: dependencies Pages: 1 -->
<svg width="1971pt" height="349pt"
 viewBox="0.00 0.00 1971.00 349.00" xmlns="http://www.w3.org/2000/svg" xmlns:xlink="http://www.w3.org/1999/xlink">
<g id="graph0" class="graph" transform="scale(1 1) rotate(0) translate(4 345)">
<title>dependencies</title>
<polygon fill="white" stroke="transparent" points="-4,4 -4,-345 1967,-345 1967,4 -4,4"/>
<text text-anchor="start" x="960.51" y="-42.4" font-family="Times-12" font-weight="bold" font-size="14.00">Legend</text>
<polygon fill="#ffffb3" stroke="transparent" points="747.5,-10 747.5,-30 767.5,-30 767.5,-10 747.5,-10"/>
<text text-anchor="start" x="771.13" y="-15.4" font-family="Times-12" font-size="14.00"> &#160;Declarations</text>
<polygon fill="#8dd3c7" stroke="transparent" points="860.5,-10 860.5,-30 880.5,-30 880.5,-10 860.5,-10"/>
<text text-anchor="start" x="884.23" y="-15.4" font-family="Times-12" font-size="14.00"> &#160;Module</text>
<polygon fill="#80b1d3" stroke="transparent" points="946.5,-10 946.5,-30 966.5,-30 966.5,-10 946.5,-10"/>
<text text-anchor="start" x="970.28" y="-15.4" font-family="Times-12" font-size="14.00"> &#160;Bootstrap</text>
<polygon fill="#fdb462" stroke="transparent" points="1043.5,-10 1043.5,-30 1063.5,-30 1063.5,-10 1043.5,-10"/>
<text text-anchor="start" x="1067.17" y="-15.4" font-family="Times-12" font-size="14.00"> &#160;Providers</text>
<polygon fill="#fb8072" stroke="transparent" points="1139.5,-10 1139.5,-30 1159.5,-30 1159.5,-10 1139.5,-10"/>
<text text-anchor="start" x="1163.23" y="-15.4" font-family="Times-12" font-size="14.00"> &#160;Exports</text>
<g id="clust1" class="cluster">
<title>cluster_JNetworkBootstrap4StaticLabelModule</title>
<polygon fill="none" stroke="black" stroke-dasharray="1,5" points="8,-70 8,-333 1955,-333 1955,-70 8,-70"/>
</g>
<g id="clust3" class="cluster">
<title>cluster_JNetworkBootstrap4StaticLabelModule_NgStaticFormContainerComponent_providers</title>
<polygon fill="none" stroke="black" points="202,-78 202,-195 1947,-195 1947,-78 202,-78"/>
</g>
<g id="clust6" class="cluster">
<title>cluster_JNetworkBootstrap4StaticLabelModule_exports</title>
<polygon fill="none" stroke="black" points="76,-273 76,-325 496,-325 496,-273 76,-273"/>
</g>
<g id="clust2" class="cluster">
<title>cluster_JNetworkBootstrap4StaticLabelModule_declarations</title>
<polygon fill="none" stroke="black" points="16,-143 16,-195 194,-195 194,-143 16,-143"/>
</g>
<!-- NgStaticFormContainerComponent -->
<g id="node1" class="node">
<title>NgStaticFormContainerComponent</title>
<polygon fill="#ffffb3" stroke="black" points="768.86,-187 553.14,-187 553.14,-151 768.86,-151 768.86,-187"/>
<text text-anchor="middle" x="661" y="-164.8" font-family="Times,serif" font-size="14.00">NgStaticFormContainerComponent</text>
</g>
<!-- JNetworkBootstrap4StaticLabelModule -->
<g id="node3" class="node">
<title>JNetworkBootstrap4StaticLabelModule</title>
<polygon fill="#8dd3c7" stroke="black" points="346.67,-252 343.67,-256 322.67,-256 319.67,-252 107.33,-252 107.33,-216 346.67,-216 346.67,-252"/>
<text text-anchor="middle" x="227" y="-229.8" font-family="Times,serif" font-size="14.00">JNetworkBootstrap4StaticLabelModule</text>
</g>
<!-- NgStaticFormContainerComponent&#45;&gt;JNetworkBootstrap4StaticLabelModule -->
<g id="edge1" class="edge">
<title>NgStaticFormContainerComponent&#45;&gt;JNetworkBootstrap4StaticLabelModule</title>
<path fill="none" stroke="black" d="M553.06,-169C439.81,-169 278.07,-169 278.07,-169 278.07,-169 278.07,-205.89 278.07,-205.89"/>
<polygon fill="black" stroke="black" points="274.57,-205.89 278.07,-215.89 281.57,-205.89 274.57,-205.89"/>
</g>
<!-- NgStaticLabelComponent -->
<g id="node2" class="node">
<title>NgStaticLabelComponent</title>
<polygon fill="#ffffb3" stroke="black" points="186.2,-187 23.8,-187 23.8,-151 186.2,-151 186.2,-187"/>
<text text-anchor="middle" x="105" y="-164.8" font-family="Times,serif" font-size="14.00">NgStaticLabelComponent</text>
</g>
<!-- NgStaticLabelComponent&#45;&gt;JNetworkBootstrap4StaticLabelModule -->
<g id="edge4" class="edge">
<title>NgStaticLabelComponent&#45;&gt;JNetworkBootstrap4StaticLabelModule</title>
<path fill="none" stroke="black" d="M146.76,-187.11C146.76,-187.11 146.76,-205.99 146.76,-205.99"/>
<polygon fill="black" stroke="black" points="143.26,-205.99 146.76,-215.99 150.26,-205.99 143.26,-205.99"/>
</g>
<!-- NgStaticFormContainerComponent  -->
<g id="node6" class="node">
<title>NgStaticFormContainerComponent </title>
<polygon fill="#fb8072" stroke="black" points="487.86,-317 268.14,-317 268.14,-281 487.86,-281 487.86,-317"/>
<text text-anchor="middle" x="378" y="-294.8" font-family="Times,serif" font-size="14.00">NgStaticFormContainerComponent </text>
</g>
<!-- JNetworkBootstrap4StaticLabelModule&#45;&gt;NgStaticFormContainerComponent  -->
<g id="edge5" class="edge">
<title>JNetworkBootstrap4StaticLabelModule&#45;&gt;NgStaticFormContainerComponent </title>
<path fill="none" stroke="black" stroke-dasharray="5,2" d="M307.45,-252.11C307.45,-252.11 307.45,-270.99 307.45,-270.99"/>
<polygon fill="black" stroke="black" points="303.95,-270.99 307.45,-280.99 310.95,-270.99 303.95,-270.99"/>
</g>
<!-- NgStaticLabelComponent  -->
<g id="node7" class="node">
<title>NgStaticLabelComponent </title>
<polygon fill="#fb8072" stroke="black" points="249.7,-317 84.3,-317 84.3,-281 249.7,-281 249.7,-317"/>
<text text-anchor="middle" x="167" y="-294.8" font-family="Times,serif" font-size="14.00">NgStaticLabelComponent </text>
</g>
<!-- JNetworkBootstrap4StaticLabelModule&#45;&gt;NgStaticLabelComponent  -->
<g id="edge6" class="edge">
<title>JNetworkBootstrap4StaticLabelModule&#45;&gt;NgStaticLabelComponent </title>
<path fill="none" stroke="black" stroke-dasharray="5,2" d="M178.63,-252.11C178.63,-252.11 178.63,-270.99 178.63,-270.99"/>
<polygon fill="black" stroke="black" points="175.13,-270.99 178.63,-280.99 182.13,-270.99 175.13,-270.99"/>
</g>
<!-- { provide: NG_VALUE_ACCESSOR, multi: true, useExisting: NgStaticFormContainerComponent } -->
<g id="node4" class="node">
<title>{ provide: NG_VALUE_ACCESSOR, multi: true, useExisting: NgStaticFormContainerComponent }</title>
<ellipse fill="#fdb462" stroke="black" cx="1535" cy="-104" rx="404.25" ry="18"/>
<text text-anchor="middle" x="1535" y="-99.8" font-family="Times,serif" font-size="14.00">{ provide: NG_VALUE_ACCESSOR, multi: true, useExisting: NgStaticFormContainerComponent }</text>
</g>
<!-- { provide: NG_VALUE_ACCESSOR, multi: true, useExisting: NgStaticFormContainerComponent }&#45;&gt;NgStaticFormContainerComponent -->
<g id="edge2" class="edge">
<title>{ provide: NG_VALUE_ACCESSOR, multi: true, useExisting: NgStaticFormContainerComponent }&#45;&gt;NgStaticFormContainerComponent</title>
<path fill="none" stroke="black" d="M1535,-122.11C1535,-141.34 1535,-169 1535,-169 1535,-169 779.05,-169 779.05,-169"/>
<polygon fill="black" stroke="black" points="779.05,-165.5 769.05,-169 779.05,-172.5 779.05,-165.5"/>
</g>
<!-- { provide: NG_VALIDATORS, multi: true, useExisting: forwardRef(() =&gt; NgStaticFormContainerComponent) } -->
<g id="node5" class="node">
<title>{ provide: NG_VALIDATORS, multi: true, useExisting: forwardRef(() =&gt; NgStaticFormContainerComponent) }</title>
<ellipse fill="#fdb462" stroke="black" cx="661" cy="-104" rx="451.39" ry="18"/>
<text text-anchor="middle" x="661" y="-99.8" font-family="Times,serif" font-size="14.00">{ provide: NG_VALIDATORS, multi: true, useExisting: forwardRef(() =&gt; NgStaticFormContainerComponent) }</text>
</g>
<!-- { provide: NG_VALIDATORS, multi: true, useExisting: forwardRef(() =&gt; NgStaticFormContainerComponent) }&#45;&gt;NgStaticFormContainerComponent -->
<g id="edge3" class="edge">
<title>{ provide: NG_VALIDATORS, multi: true, useExisting: forwardRef(() =&gt; NgStaticFormContainerComponent) }&#45;&gt;NgStaticFormContainerComponent</title>
<path fill="none" stroke="black" d="M661,-122.11C661,-122.11 661,-140.99 661,-140.99"/>
<polygon fill="black" stroke="black" points="657.5,-140.99 661,-150.99 664.5,-140.99 657.5,-140.99"/>
</g>
</g>
</svg>
