<?xml version="1.0" encoding="UTF-8" standalone="no"?>
<!DOCTYPE svg PUBLIC "-//W3C//DTD SVG 1.1//EN"
 "http://www.w3.org/Graphics/SVG/1.1/DTD/svg11.dtd">
<!-- Generated by graphviz version 2.40.1 (20161225.0304)
 -->
<!-- Title: dependencies Pages: 1 -->
<svg width="1785pt" height="349pt"
 viewBox="0.00 0.00 1785.00 349.00" xmlns="http://www.w3.org/2000/svg" xmlns:xlink="http://www.w3.org/1999/xlink">
<g id="graph0" class="graph" transform="scale(1 1) rotate(0) translate(4 345)">
<title>dependencies</title>
<polygon fill="#ffffff" stroke="transparent" points="-4,4 -4,-345 1781,-345 1781,4 -4,4"/>
<text text-anchor="start" x="867.5091" y="-42.4" font-family="sans-serif" font-weight="bold" font-size="14.00" fill="#000000">Legend</text>
<polygon fill="#ffffb3" stroke="transparent" points="654.5,-10 654.5,-30 674.5,-30 674.5,-10 654.5,-10"/>
<text text-anchor="start" x="678.129" y="-15.4" font-family="sans-serif" font-size="14.00" fill="#000000"> &#160;Declarations</text>
<polygon fill="#8dd3c7" stroke="transparent" points="767.5,-10 767.5,-30 787.5,-30 787.5,-10 767.5,-10"/>
<text text-anchor="start" x="791.2251" y="-15.4" font-family="sans-serif" font-size="14.00" fill="#000000"> &#160;Module</text>
<polygon fill="#80b1d3" stroke="transparent" points="853.5,-10 853.5,-30 873.5,-30 873.5,-10 853.5,-10"/>
<text text-anchor="start" x="877.2812" y="-15.4" font-family="sans-serif" font-size="14.00" fill="#000000"> &#160;Bootstrap</text>
<polygon fill="#fdb462" stroke="transparent" points="950.5,-10 950.5,-30 970.5,-30 970.5,-10 950.5,-10"/>
<text text-anchor="start" x="974.1732" y="-15.4" font-family="sans-serif" font-size="14.00" fill="#000000"> &#160;Providers</text>
<polygon fill="#fb8072" stroke="transparent" points="1046.5,-10 1046.5,-30 1066.5,-30 1066.5,-10 1046.5,-10"/>
<text text-anchor="start" x="1070.2258" y="-15.4" font-family="sans-serif" font-size="14.00" fill="#000000"> &#160;Exports</text>
<g id="clust1" class="cluster">
<title>cluster_JNetworkBootstrap4StaticLabelModule</title>
<polygon fill="none" stroke="#000000" stroke-dasharray="1,5" points="8,-70 8,-333 1769,-333 1769,-70 8,-70"/>
</g>
<g id="clust2" class="cluster">
<title>cluster_JNetworkBootstrap4StaticLabelModule_declarations</title>
<polygon fill="none" stroke="#000000" points="238,-143 238,-195 650,-195 650,-143 238,-143"/>
</g>
<g id="clust3" class="cluster">
<title>cluster_JNetworkBootstrap4StaticLabelModule_NgStaticFormContainerComponent_providers</title>
<polygon fill="none" stroke="#000000" points="16,-78 16,-130 1761,-130 1761,-78 16,-78"/>
</g>
<g id="clust6" class="cluster">
<title>cluster_JNetworkBootstrap4StaticLabelModule_exports</title>
<polygon fill="none" stroke="#000000" points="109,-273 109,-325 529,-325 529,-273 109,-273"/>
</g>
<!-- NgStaticFormContainerComponent -->
<g id="node1" class="node">
<title>NgStaticFormContainerComponent</title>
<polygon fill="#ffffb3" stroke="#000000" points="641.864,-187 426.136,-187 426.136,-151 641.864,-151 641.864,-187"/>
<text text-anchor="middle" x="534" y="-164.8" font-family="Times,serif" font-size="14.00" fill="#000000">NgStaticFormContainerComponent</text>
</g>
<!-- JNetworkBootstrap4StaticLabelModule -->
<g id="node3" class="node">
<title>JNetworkBootstrap4StaticLabelModule</title>
<polygon fill="#8dd3c7" stroke="#000000" points="471.6671,-252 468.6671,-256 447.6671,-256 444.6671,-252 232.3329,-252 232.3329,-216 471.6671,-216 471.6671,-252"/>
<text text-anchor="middle" x="352" y="-229.8" font-family="Times,serif" font-size="14.00" fill="#000000">JNetworkBootstrap4StaticLabelModule</text>
</g>
<!-- NgStaticFormContainerComponent&#45;&gt;JNetworkBootstrap4StaticLabelModule -->
<g id="edge1" class="edge">
<title>NgStaticFormContainerComponent&#45;&gt;JNetworkBootstrap4StaticLabelModule</title>
<path fill="none" stroke="#000000" d="M448.8258,-187.1061C448.8258,-187.1061 448.8258,-205.991 448.8258,-205.991"/>
<polygon fill="#000000" stroke="#000000" points="445.3258,-205.9909 448.8258,-215.991 452.3258,-205.991 445.3258,-205.9909"/>
</g>
<!-- NgStaticLabelComponent -->
<g id="node2" class="node">
<title>NgStaticLabelComponent</title>
<polygon fill="#ffffb3" stroke="#000000" points="408.1951,-187 245.8049,-187 245.8049,-151 408.1951,-151 408.1951,-187"/>
<text text-anchor="middle" x="327" y="-164.8" font-family="Times,serif" font-size="14.00" fill="#000000">NgStaticLabelComponent</text>
</g>
<!-- NgStaticLabelComponent&#45;&gt;JNetworkBootstrap4StaticLabelModule -->
<g id="edge4" class="edge">
<title>NgStaticLabelComponent&#45;&gt;JNetworkBootstrap4StaticLabelModule</title>
<path fill="none" stroke="#000000" d="M327,-187.1061C327,-187.1061 327,-205.991 327,-205.991"/>
<polygon fill="#000000" stroke="#000000" points="323.5001,-205.9909 327,-215.991 330.5001,-205.991 323.5001,-205.9909"/>
</g>
<!-- NgStaticFormContainerComponent  -->
<g id="node6" class="node">
<title>NgStaticFormContainerComponent </title>
<polygon fill="#fb8072" stroke="#000000" points="520.8643,-317 301.1357,-317 301.1357,-281 520.8643,-281 520.8643,-317"/>
<text text-anchor="middle" x="411" y="-294.8" font-family="Times,serif" font-size="14.00" fill="#000000">NgStaticFormContainerComponent </text>
</g>
<!-- JNetworkBootstrap4StaticLabelModule&#45;&gt;NgStaticFormContainerComponent  -->
<g id="edge5" class="edge">
<title>JNetworkBootstrap4StaticLabelModule&#45;&gt;NgStaticFormContainerComponent </title>
<path fill="none" stroke="#000000" stroke-dasharray="5,2" d="M386.4507,-252.1061C386.4507,-252.1061 386.4507,-270.991 386.4507,-270.991"/>
<polygon fill="#000000" stroke="#000000" points="382.9508,-270.9909 386.4507,-280.991 389.9508,-270.991 382.9508,-270.9909"/>
</g>
<!-- NgStaticLabelComponent  -->
<g id="node7" class="node">
<title>NgStaticLabelComponent </title>
<polygon fill="#fb8072" stroke="#000000" points="282.6953,-317 117.3047,-317 117.3047,-281 282.6953,-281 282.6953,-317"/>
<text text-anchor="middle" x="200" y="-294.8" font-family="Times,serif" font-size="14.00" fill="#000000">NgStaticLabelComponent </text>
</g>
<!-- JNetworkBootstrap4StaticLabelModule&#45;&gt;NgStaticLabelComponent  -->
<g id="edge6" class="edge">
<title>JNetworkBootstrap4StaticLabelModule&#45;&gt;NgStaticLabelComponent </title>
<path fill="none" stroke="#000000" stroke-dasharray="5,2" d="M257.632,-252.1061C257.632,-252.1061 257.632,-270.991 257.632,-270.991"/>
<polygon fill="#000000" stroke="#000000" points="254.1321,-270.9909 257.632,-280.991 261.1321,-270.991 254.1321,-270.9909"/>
</g>
<!-- { provide: NG_VALUE_ACCESSOR, multi: true, useExisting: NgStaticFormContainerComponent } -->
<g id="node4" class="node">
<title>{ provide: NG_VALUE_ACCESSOR, multi: true, useExisting: NgStaticFormContainerComponent }</title>
<ellipse fill="#fdb462" stroke="#000000" cx="1349" cy="-104" rx="404.2507" ry="18"/>
<text text-anchor="middle" x="1349" y="-99.8" font-family="Times,serif" font-size="14.00" fill="#000000">{ provide: NG_VALUE_ACCESSOR, multi: true, useExisting: NgStaticFormContainerComponent }</text>
</g>
<!-- { provide: NG_VALUE_ACCESSOR, multi: true, useExisting: NgStaticFormContainerComponent }&#45;&gt;NgStaticFormContainerComponent -->
<g id="edge2" class="edge">
<title>{ provide: NG_VALUE_ACCESSOR, multi: true, useExisting: NgStaticFormContainerComponent }&#45;&gt;NgStaticFormContainerComponent</title>
<path fill="none" stroke="#000000" d="M1349,-122.1061C1349,-141.3391 1349,-169 1349,-169 1349,-169 652.2257,-169 652.2257,-169"/>
<polygon fill="#000000" stroke="#000000" points="652.2257,-165.5001 642.2257,-169 652.2257,-172.5001 652.2257,-165.5001"/>
</g>
<!-- { provide: NG_VALIDATORS, multi: true, useExisting: forwardRef(() =&gt; NgStaticFormContainerComponent) } -->
<g id="node5" class="node">
<title>{ provide: NG_VALIDATORS, multi: true, useExisting: forwardRef(() =&gt; NgStaticFormContainerComponent) }</title>
<ellipse fill="#fdb462" stroke="#000000" cx="475" cy="-104" rx="451.3868" ry="18"/>
<text text-anchor="middle" x="475" y="-99.8" font-family="Times,serif" font-size="14.00" fill="#000000">{ provide: NG_VALIDATORS, multi: true, useExisting: forwardRef(() =&gt; NgStaticFormContainerComponent) }</text>
</g>
<!-- { provide: NG_VALIDATORS, multi: true, useExisting: forwardRef(() =&gt; NgStaticFormContainerComponent) }&#45;&gt;NgStaticFormContainerComponent -->
<g id="edge3" class="edge">
<title>{ provide: NG_VALIDATORS, multi: true, useExisting: forwardRef(() =&gt; NgStaticFormContainerComponent) }&#45;&gt;NgStaticFormContainerComponent</title>
<path fill="none" stroke="#000000" d="M534,-122.1061C534,-122.1061 534,-140.991 534,-140.991"/>
<polygon fill="#000000" stroke="#000000" points="530.5001,-140.9909 534,-150.991 537.5001,-140.991 530.5001,-140.9909"/>
</g>
</g>
</svg>
