<?xml version="1.0" encoding="UTF-8" standalone="no"?>
<!DOCTYPE svg PUBLIC "-//W3C//DTD SVG 1.1//EN"
 "http://www.w3.org/Graphics/SVG/1.1/DTD/svg11.dtd">
<!-- Generated by graphviz version 2.47.3 (20210619.1520)
 -->
<!-- Title: dependencies Pages: 1 -->
<svg width="1971pt" height="312pt"
 viewBox="0.00 0.00 1971.00 311.80" xmlns="http://www.w3.org/2000/svg" xmlns:xlink="http://www.w3.org/1999/xlink">
<g id="graph0" class="graph" transform="scale(1 1) rotate(0) translate(4 307.8)">
<title>dependencies</title>
<polygon fill="white" stroke="transparent" points="-4,4 -4,-307.8 1967,-307.8 1967,4 -4,4"/>
<text text-anchor="middle" x="981.5" y="-8.2" font-family="sans-serif" font-size="14.00">dependencies</text>
<g id="clust1" class="cluster">
<title>cluster_JNetworkBootstrap4StaticLabelModule</title>
<polygon fill="none" stroke="black" stroke-dasharray="1,5" points="8,-32.8 8,-295.8 1955,-295.8 1955,-32.8 8,-32.8"/>
</g>
<g id="clust6" class="cluster">
<title>cluster_JNetworkBootstrap4StaticLabelModule_exports</title>
<polygon fill="none" stroke="black" points="76,-235.8 76,-287.8 496,-287.8 496,-235.8 76,-235.8"/>
</g>
<g id="clust3" class="cluster">
<title>cluster_JNetworkBootstrap4StaticLabelModule_NgStaticFormContainerComponent_providers</title>
<polygon fill="none" stroke="black" points="202,-40.8 202,-157.8 1947,-157.8 1947,-40.8 202,-40.8"/>
</g>
<g id="clust2" class="cluster">
<title>cluster_JNetworkBootstrap4StaticLabelModule_declarations</title>
<polygon fill="none" stroke="black" points="16,-105.8 16,-157.8 194,-157.8 194,-105.8 16,-105.8"/>
</g>
<!-- NgStaticFormContainerComponent -->
<g id="node1" class="node">
<title>NgStaticFormContainerComponent</title>
<polygon fill="#ffffb3" stroke="black" points="768.86,-149.8 553.14,-149.8 553.14,-113.8 768.86,-113.8 768.86,-149.8"/>
<text text-anchor="middle" x="661" y="-127.6" font-family="Times,serif" font-size="14.00">NgStaticFormContainerComponent</text>
</g>
<!-- JNetworkBootstrap4StaticLabelModule -->
<g id="node3" class="node">
<title>JNetworkBootstrap4StaticLabelModule</title>
<polygon fill="#8dd3c7" stroke="black" points="346.67,-214.8 343.67,-218.8 322.67,-218.8 319.67,-214.8 107.33,-214.8 107.33,-178.8 346.67,-178.8 346.67,-214.8"/>
<text text-anchor="middle" x="227" y="-192.6" font-family="Times,serif" font-size="14.00">JNetworkBootstrap4StaticLabelModule</text>
</g>
<!-- NgStaticFormContainerComponent&#45;&gt;JNetworkBootstrap4StaticLabelModule -->
<g id="edge1" class="edge">
<title>NgStaticFormContainerComponent&#45;&gt;JNetworkBootstrap4StaticLabelModule</title>
<path fill="none" stroke="black" d="M553.06,-131.8C439.81,-131.8 278.07,-131.8 278.07,-131.8 278.07,-131.8 278.07,-168.69 278.07,-168.69"/>
<polygon fill="black" stroke="black" points="274.57,-168.69 278.07,-178.69 281.57,-168.69 274.57,-168.69"/>
</g>
<!-- NgStaticLabelComponent -->
<g id="node2" class="node">
<title>NgStaticLabelComponent</title>
<polygon fill="#ffffb3" stroke="black" points="186.2,-149.8 23.8,-149.8 23.8,-113.8 186.2,-113.8 186.2,-149.8"/>
<text text-anchor="middle" x="105" y="-127.6" font-family="Times,serif" font-size="14.00">NgStaticLabelComponent</text>
</g>
<!-- NgStaticLabelComponent&#45;&gt;JNetworkBootstrap4StaticLabelModule -->
<g id="edge4" class="edge">
<title>NgStaticLabelComponent&#45;&gt;JNetworkBootstrap4StaticLabelModule</title>
<path fill="none" stroke="black" d="M146.76,-149.91C146.76,-149.91 146.76,-168.79 146.76,-168.79"/>
<polygon fill="black" stroke="black" points="143.26,-168.79 146.76,-178.79 150.26,-168.79 143.26,-168.79"/>
</g>
<!-- NgStaticFormContainerComponent  -->
<g id="node6" class="node">
<title>NgStaticFormContainerComponent </title>
<polygon fill="#fb8072" stroke="black" points="487.86,-279.8 268.14,-279.8 268.14,-243.8 487.86,-243.8 487.86,-279.8"/>
<text text-anchor="middle" x="378" y="-257.6" font-family="Times,serif" font-size="14.00">NgStaticFormContainerComponent </text>
</g>
<!-- JNetworkBootstrap4StaticLabelModule&#45;&gt;NgStaticFormContainerComponent  -->
<g id="edge5" class="edge">
<title>JNetworkBootstrap4StaticLabelModule&#45;&gt;NgStaticFormContainerComponent </title>
<path fill="none" stroke="black" stroke-dasharray="5,2" d="M307.45,-214.91C307.45,-214.91 307.45,-233.79 307.45,-233.79"/>
<polygon fill="black" stroke="black" points="303.95,-233.79 307.45,-243.79 310.95,-233.79 303.95,-233.79"/>
</g>
<!-- NgStaticLabelComponent  -->
<g id="node7" class="node">
<title>NgStaticLabelComponent </title>
<polygon fill="#fb8072" stroke="black" points="249.7,-279.8 84.3,-279.8 84.3,-243.8 249.7,-243.8 249.7,-279.8"/>
<text text-anchor="middle" x="167" y="-257.6" font-family="Times,serif" font-size="14.00">NgStaticLabelComponent </text>
</g>
<!-- JNetworkBootstrap4StaticLabelModule&#45;&gt;NgStaticLabelComponent  -->
<g id="edge6" class="edge">
<title>JNetworkBootstrap4StaticLabelModule&#45;&gt;NgStaticLabelComponent </title>
<path fill="none" stroke="black" stroke-dasharray="5,2" d="M178.63,-214.91C178.63,-214.91 178.63,-233.79 178.63,-233.79"/>
<polygon fill="black" stroke="black" points="175.13,-233.79 178.63,-243.79 182.13,-233.79 175.13,-233.79"/>
</g>
<!-- { provide: NG_VALUE_ACCESSOR, multi: true, useExisting: NgStaticFormContainerComponent } -->
<g id="node4" class="node">
<title>{ provide: NG_VALUE_ACCESSOR, multi: true, useExisting: NgStaticFormContainerComponent }</title>
<ellipse fill="#fdb462" stroke="black" cx="1535" cy="-66.8" rx="404.25" ry="18"/>
<text text-anchor="middle" x="1535" y="-62.6" font-family="Times,serif" font-size="14.00">{ provide: NG_VALUE_ACCESSOR, multi: true, useExisting: NgStaticFormContainerComponent }</text>
</g>
<!-- { provide: NG_VALUE_ACCESSOR, multi: true, useExisting: NgStaticFormContainerComponent }&#45;&gt;NgStaticFormContainerComponent -->
<g id="edge2" class="edge">
<title>{ provide: NG_VALUE_ACCESSOR, multi: true, useExisting: NgStaticFormContainerComponent }&#45;&gt;NgStaticFormContainerComponent</title>
<path fill="none" stroke="black" d="M1535,-84.91C1535,-104.14 1535,-131.8 1535,-131.8 1535,-131.8 779.05,-131.8 779.05,-131.8"/>
<polygon fill="black" stroke="black" points="779.05,-128.3 769.05,-131.8 779.05,-135.3 779.05,-128.3"/>
</g>
<!-- { provide: NG_VALIDATORS, multi: true, useExisting: forwardRef(() =&gt; NgStaticFormContainerComponent) } -->
<g id="node5" class="node">
<title>{ provide: NG_VALIDATORS, multi: true, useExisting: forwardRef(() =&gt; NgStaticFormContainerComponent) }</title>
<ellipse fill="#fdb462" stroke="black" cx="661" cy="-66.8" rx="451.39" ry="18"/>
<text text-anchor="middle" x="661" y="-62.6" font-family="Times,serif" font-size="14.00">{ provide: NG_VALIDATORS, multi: true, useExisting: forwardRef(() =&gt; NgStaticFormContainerComponent) }</text>
</g>
<!-- { provide: NG_VALIDATORS, multi: true, useExisting: forwardRef(() =&gt; NgStaticFormContainerComponent) }&#45;&gt;NgStaticFormContainerComponent -->
<g id="edge3" class="edge">
<title>{ provide: NG_VALIDATORS, multi: true, useExisting: forwardRef(() =&gt; NgStaticFormContainerComponent) }&#45;&gt;NgStaticFormContainerComponent</title>
<path fill="none" stroke="black" d="M661,-84.91C661,-84.91 661,-103.79 661,-103.79"/>
<polygon fill="black" stroke="black" points="657.5,-103.79 661,-113.79 664.5,-103.79 657.5,-103.79"/>
</g>
</g>
</svg>
