<?xml version="1.0" encoding="UTF-8" standalone="no"?>
<!DOCTYPE svg PUBLIC "-//W3C//DTD SVG 1.1//EN"
 "http://www.w3.org/Graphics/SVG/1.1/DTD/svg11.dtd">
<!-- Generated by graphviz version 2.47.3 (20210619.1520)
 -->
<!-- Title: dependencies Pages: 1 -->
<svg width="1345pt" height="174pt"
 viewBox="0.00 0.00 1345.00 173.80" xmlns="http://www.w3.org/2000/svg" xmlns:xlink="http://www.w3.org/1999/xlink">
<g id="graph0" class="graph" transform="scale(1 1) rotate(0) translate(4 169.8)">
<title>dependencies</title>
<polygon fill="white" stroke="transparent" points="-4,4 -4,-169.8 1341,-169.8 1341,4 -4,4"/>
<text text-anchor="middle" x="668.5" y="-8.2" font-family="sans-serif" font-size="14.00">dependencies</text>
<g id="clust1" class="cluster">
<title>cluster_InputModule</title>
<polygon fill="none" stroke="black" stroke-dasharray="1,5" points="8,-32.8 8,-157.8 1329,-157.8 1329,-32.8 8,-32.8"/>
</g>
<g id="clust2" class="cluster">
<title>cluster_InputModule_declarations</title>
<polygon fill="none" stroke="black" points="1159,-40.8 1159,-92.8 1321,-92.8 1321,-40.8 1159,-40.8"/>
</g>
<g id="clust4" class="cluster">
<title>cluster_InputModule_imports</title>
<polygon fill="none" stroke="black" points="16,-40.8 16,-92.8 1151,-92.8 1151,-40.8 16,-40.8"/>
</g>
<!-- DemoInputComponent -->
<g id="node1" class="node">
<title>DemoInputComponent</title>
<polygon fill="#ffffb3" stroke="black" points="1312.6,-84.8 1167.4,-84.8 1167.4,-48.8 1312.6,-48.8 1312.6,-84.8"/>
<text text-anchor="middle" x="1240" y="-62.6" font-family="Times,serif" font-size="14.00">DemoInputComponent</text>
</g>
<!-- InputModule -->
<g id="node2" class="node">
<title>InputModule</title>
<polygon fill="#8dd3c7" stroke="black" points="814.6,-149.8 811.6,-153.8 790.6,-153.8 787.6,-149.8 725.4,-149.8 725.4,-113.8 814.6,-113.8 814.6,-149.8"/>
<text text-anchor="middle" x="770" y="-127.6" font-family="Times,serif" font-size="14.00">InputModule</text>
</g>
<!-- DemoInputComponent&#45;&gt;InputModule -->
<g id="edge1" class="edge">
<title>DemoInputComponent&#45;&gt;InputModule</title>
<path fill="none" stroke="black" d="M1240,-85.08C1240,-106.12 1240,-137.8 1240,-137.8 1240,-137.8 824.64,-137.8 824.64,-137.8"/>
<polygon fill="black" stroke="black" points="824.64,-134.3 814.64,-137.8 824.64,-141.3 824.64,-134.3"/>
</g>
<!-- InputRoutingModule -->
<g id="node3" class="node">
<title>InputRoutingModule</title>
<polygon fill="#8dd3c7" stroke="black" points="1143.22,-84.8 1140.22,-88.8 1119.22,-88.8 1116.22,-84.8 1008.78,-84.8 1008.78,-48.8 1143.22,-48.8 1143.22,-84.8"/>
<text text-anchor="middle" x="1076" y="-62.6" font-family="Times,serif" font-size="14.00">InputRoutingModule</text>
</g>
<!-- InputRoutingModule&#45;&gt;InputModule -->
<g id="edge2" class="edge">
<title>InputRoutingModule&#45;&gt;InputModule</title>
<path fill="none" stroke="black" d="M1076,-84.82C1076,-102.17 1076,-125.8 1076,-125.8 1076,-125.8 824.82,-125.8 824.82,-125.8"/>
<polygon fill="black" stroke="black" points="824.82,-122.3 814.82,-125.8 824.82,-129.3 824.82,-122.3"/>
</g>
<!-- JNetworkBootstrap4ButtonModule -->
<g id="node4" class="node">
<title>JNetworkBootstrap4ButtonModule</title>
<polygon fill="#8dd3c7" stroke="black" points="990.53,-84.8 987.53,-88.8 966.53,-88.8 963.53,-84.8 777.47,-84.8 777.47,-48.8 990.53,-48.8 990.53,-84.8"/>
<text text-anchor="middle" x="884" y="-62.6" font-family="Times,serif" font-size="14.00">JNetworkBootstrap4ButtonModule</text>
</g>
<!-- JNetworkBootstrap4ButtonModule&#45;&gt;InputModule -->
<g id="edge3" class="edge">
<title>JNetworkBootstrap4ButtonModule&#45;&gt;InputModule</title>
<path fill="none" stroke="black" d="M795.89,-84.91C795.89,-84.91 795.89,-103.79 795.89,-103.79"/>
<polygon fill="black" stroke="black" points="792.39,-103.79 795.89,-113.79 799.39,-103.79 792.39,-103.79"/>
</g>
<!-- JNetworkBootstrap4FormModule -->
<g id="node5" class="node">
<title>JNetworkBootstrap4FormModule</title>
<polygon fill="#8dd3c7" stroke="black" points="758.74,-84.8 755.74,-88.8 734.74,-88.8 731.74,-84.8 553.26,-84.8 553.26,-48.8 758.74,-48.8 758.74,-84.8"/>
<text text-anchor="middle" x="656" y="-62.6" font-family="Times,serif" font-size="14.00">JNetworkBootstrap4FormModule</text>
</g>
<!-- JNetworkBootstrap4FormModule&#45;&gt;InputModule -->
<g id="edge4" class="edge">
<title>JNetworkBootstrap4FormModule&#45;&gt;InputModule</title>
<path fill="none" stroke="black" d="M742.16,-84.91C742.16,-84.91 742.16,-103.79 742.16,-103.79"/>
<polygon fill="black" stroke="black" points="738.66,-103.79 742.16,-113.79 745.66,-103.79 738.66,-103.79"/>
</g>
<!-- JNetworkBootstrap4InputModule -->
<g id="node6" class="node">
<title>JNetworkBootstrap4InputModule</title>
<polygon fill="#8dd3c7" stroke="black" points="535.46,-84.8 532.46,-88.8 511.46,-88.8 508.46,-84.8 330.54,-84.8 330.54,-48.8 535.46,-48.8 535.46,-84.8"/>
<text text-anchor="middle" x="433" y="-62.6" font-family="Times,serif" font-size="14.00">JNetworkBootstrap4InputModule</text>
</g>
<!-- JNetworkBootstrap4InputModule&#45;&gt;InputModule -->
<g id="edge5" class="edge">
<title>JNetworkBootstrap4InputModule&#45;&gt;InputModule</title>
<path fill="none" stroke="black" d="M433,-84.82C433,-102.17 433,-125.8 433,-125.8 433,-125.8 715.25,-125.8 715.25,-125.8"/>
<polygon fill="black" stroke="black" points="715.25,-129.3 725.25,-125.8 715.25,-122.3 715.25,-129.3"/>
</g>
<!-- JNetworkBootstrap4ValidationSummaryModule -->
<g id="node7" class="node">
<title>JNetworkBootstrap4ValidationSummaryModule</title>
<polygon fill="#8dd3c7" stroke="black" points="312.45,-84.8 309.45,-88.8 288.45,-88.8 285.45,-84.8 23.55,-84.8 23.55,-48.8 312.45,-48.8 312.45,-84.8"/>
<text text-anchor="middle" x="168" y="-62.6" font-family="Times,serif" font-size="14.00">JNetworkBootstrap4ValidationSummaryModule</text>
</g>
<!-- JNetworkBootstrap4ValidationSummaryModule&#45;&gt;InputModule -->
<g id="edge6" class="edge">
<title>JNetworkBootstrap4ValidationSummaryModule&#45;&gt;InputModule</title>
<path fill="none" stroke="black" d="M168,-85.08C168,-106.12 168,-137.8 168,-137.8 168,-137.8 715.24,-137.8 715.24,-137.8"/>
<polygon fill="black" stroke="black" points="715.24,-141.3 725.24,-137.8 715.24,-134.3 715.24,-141.3"/>
</g>
</g>
</svg>
