<?xml version="1.0" encoding="UTF-8" standalone="no"?>
<!DOCTYPE svg PUBLIC "-//W3C//DTD SVG 1.1//EN"
 "http://www.w3.org/Graphics/SVG/1.1/DTD/svg11.dtd">
<!-- Generated by graphviz version 2.47.0 (20210316.0004)
 -->
<!-- Title: dependencies Pages: 1 -->
<svg width="1068pt" height="284pt"
 viewBox="0.00 0.00 1068.00 284.00" xmlns="http://www.w3.org/2000/svg" xmlns:xlink="http://www.w3.org/1999/xlink">
<g id="graph0" class="graph" transform="scale(1 1) rotate(0) translate(4 280)">
<title>dependencies</title>
<polygon fill="white" stroke="transparent" points="-4,4 -4,-280 1064,-280 1064,4 -4,4"/>
<text text-anchor="start" x="509.01" y="-42.4" font-family="Times-12" font-weight="bold" font-size="14.00">Legend</text>
<polygon fill="#ffffb3" stroke="transparent" points="296,-10 296,-30 316,-30 316,-10 296,-10"/>
<text text-anchor="start" x="319.63" y="-15.4" font-family="Times-12" font-size="14.00"> &#160;Declarations</text>
<polygon fill="#8dd3c7" stroke="transparent" points="409,-10 409,-30 429,-30 429,-10 409,-10"/>
<text text-anchor="start" x="432.73" y="-15.4" font-family="Times-12" font-size="14.00"> &#160;Module</text>
<polygon fill="#80b1d3" stroke="transparent" points="495,-10 495,-30 515,-30 515,-10 495,-10"/>
<text text-anchor="start" x="518.78" y="-15.4" font-family="Times-12" font-size="14.00"> &#160;Bootstrap</text>
<polygon fill="#fdb462" stroke="transparent" points="592,-10 592,-30 612,-30 612,-10 592,-10"/>
<text text-anchor="start" x="615.67" y="-15.4" font-family="Times-12" font-size="14.00"> &#160;Providers</text>
<polygon fill="#fb8072" stroke="transparent" points="688,-10 688,-30 708,-30 708,-10 688,-10"/>
<text text-anchor="start" x="711.73" y="-15.4" font-family="Times-12" font-size="14.00"> &#160;Exports</text>
<g id="clust1" class="cluster">
<title>cluster_SACBootstrap4BrowserModule</title>
<polygon fill="none" stroke="black" stroke-dasharray="1,5" points="8,-70 8,-268 1052,-268 1052,-70 8,-70"/>
</g>
<g id="clust2" class="cluster">
<title>cluster_SACBootstrap4BrowserModule_declarations</title>
<polygon fill="none" stroke="black" points="882,-78 882,-130 1044,-130 1044,-78 882,-78"/>
</g>
<g id="clust4" class="cluster">
<title>cluster_SACBootstrap4BrowserModule_imports</title>
<polygon fill="none" stroke="black" points="16,-78 16,-130 874,-130 874,-78 16,-78"/>
</g>
<g id="clust5" class="cluster">
<title>cluster_SACBootstrap4BrowserModule_exports</title>
<polygon fill="none" stroke="black" points="457,-208 457,-260 623,-260 623,-208 457,-208"/>
</g>
<!-- NgBrowserComponent -->
<g id="node1" class="node">
<title>NgBrowserComponent</title>
<polygon fill="#ffffb3" stroke="black" points="1035.86,-122 890.14,-122 890.14,-86 1035.86,-86 1035.86,-122"/>
<text text-anchor="middle" x="963" y="-99.8" font-family="Times,serif" font-size="14.00">NgBrowserComponent</text>
</g>
<!-- SACBootstrap4BrowserModule -->
<g id="node2" class="node">
<title>SACBootstrap4BrowserModule</title>
<polygon fill="#8dd3c7" stroke="black" points="637.64,-187 634.64,-191 613.64,-191 610.64,-187 442.36,-187 442.36,-151 637.64,-151 637.64,-187"/>
<text text-anchor="middle" x="540" y="-164.8" font-family="Times,serif" font-size="14.00">SACBootstrap4BrowserModule</text>
</g>
<!-- NgBrowserComponent&#45;&gt;SACBootstrap4BrowserModule -->
<g id="edge1" class="edge">
<title>NgBrowserComponent&#45;&gt;SACBootstrap4BrowserModule</title>
<path fill="none" stroke="black" d="M963,-122.28C963,-143.32 963,-175 963,-175 963,-175 647.84,-175 647.84,-175"/>
<polygon fill="black" stroke="black" points="647.84,-171.5 637.84,-175 647.84,-178.5 647.84,-171.5"/>
</g>
<!-- NgBrowserComponent  -->
<g id="node7" class="node">
<title>NgBrowserComponent </title>
<polygon fill="#fb8072" stroke="black" points="614.86,-252 465.14,-252 465.14,-216 614.86,-216 614.86,-252"/>
<text text-anchor="middle" x="540" y="-229.8" font-family="Times,serif" font-size="14.00">NgBrowserComponent </text>
</g>
<!-- SACBootstrap4BrowserModule&#45;&gt;NgBrowserComponent  -->
<g id="edge6" class="edge">
<title>SACBootstrap4BrowserModule&#45;&gt;NgBrowserComponent </title>
<path fill="none" stroke="black" stroke-dasharray="5,2" d="M564.89,-187.11C564.89,-187.11 564.89,-205.99 564.89,-205.99"/>
<polygon fill="black" stroke="black" points="561.39,-205.99 564.89,-215.99 568.39,-205.99 561.39,-205.99"/>
</g>
<!-- SACBootstrap4BrowserModule&#45;&gt;NgBrowserComponent  -->
<g id="edge7" class="edge">
<title>SACBootstrap4BrowserModule&#45;&gt;NgBrowserComponent </title>
<path fill="none" stroke="black" stroke-dasharray="1,5" d="M515.11,-187.11C515.11,-187.11 515.11,-205.99 515.11,-205.99"/>
<polygon fill="black" stroke="black" points="511.61,-205.99 515.11,-215.99 518.61,-205.99 511.61,-205.99"/>
</g>
<!-- SACBootstrap4ConfirmModule -->
<g id="node3" class="node">
<title>SACBootstrap4ConfirmModule</title>
<polygon fill="#8dd3c7" stroke="black" points="865.65,-122 862.65,-126 841.65,-126 838.65,-122 670.35,-122 670.35,-86 865.65,-86 865.65,-122"/>
<text text-anchor="middle" x="768" y="-99.8" font-family="Times,serif" font-size="14.00">SACBootstrap4ConfirmModule</text>
</g>
<!-- SACBootstrap4ConfirmModule&#45;&gt;SACBootstrap4BrowserModule -->
<g id="edge2" class="edge">
<title>SACBootstrap4ConfirmModule&#45;&gt;SACBootstrap4BrowserModule</title>
<path fill="none" stroke="black" d="M768,-122.02C768,-139.37 768,-163 768,-163 768,-163 647.68,-163 647.68,-163"/>
<polygon fill="black" stroke="black" points="647.68,-159.5 637.68,-163 647.68,-166.5 647.68,-159.5"/>
</g>
<!-- SACBootstrap4ContextmenuModule -->
<g id="node4" class="node">
<title>SACBootstrap4ContextmenuModule</title>
<polygon fill="#8dd3c7" stroke="black" points="651.65,-122 648.65,-126 627.65,-126 624.65,-122 428.35,-122 428.35,-86 651.65,-86 651.65,-122"/>
<text text-anchor="middle" x="540" y="-99.8" font-family="Times,serif" font-size="14.00">SACBootstrap4ContextmenuModule</text>
</g>
<!-- SACBootstrap4ContextmenuModule&#45;&gt;SACBootstrap4BrowserModule -->
<g id="edge3" class="edge">
<title>SACBootstrap4ContextmenuModule&#45;&gt;SACBootstrap4BrowserModule</title>
<path fill="none" stroke="black" d="M540,-122.11C540,-122.11 540,-140.99 540,-140.99"/>
<polygon fill="black" stroke="black" points="536.5,-140.99 540,-150.99 543.5,-140.99 536.5,-140.99"/>
</g>
<!-- SACBootstrap4FormModule -->
<g id="node5" class="node">
<title>SACBootstrap4FormModule</title>
<polygon fill="#8dd3c7" stroke="black" points="410.05,-122 407.05,-126 386.05,-126 383.05,-122 231.95,-122 231.95,-86 410.05,-86 410.05,-122"/>
<text text-anchor="middle" x="321" y="-99.8" font-family="Times,serif" font-size="14.00">SACBootstrap4FormModule</text>
</g>
<!-- SACBootstrap4FormModule&#45;&gt;SACBootstrap4BrowserModule -->
<g id="edge4" class="edge">
<title>SACBootstrap4FormModule&#45;&gt;SACBootstrap4BrowserModule</title>
<path fill="none" stroke="black" d="M321,-122.02C321,-139.37 321,-163 321,-163 321,-163 432.35,-163 432.35,-163"/>
<polygon fill="black" stroke="black" points="432.35,-166.5 442.35,-163 432.35,-159.5 432.35,-166.5"/>
</g>
<!-- SACBootstrap4UploadModule -->
<g id="node6" class="node">
<title>SACBootstrap4UploadModule</title>
<polygon fill="#8dd3c7" stroke="black" points="213.93,-122 210.93,-126 189.93,-126 186.93,-122 24.07,-122 24.07,-86 213.93,-86 213.93,-122"/>
<text text-anchor="middle" x="119" y="-99.8" font-family="Times,serif" font-size="14.00">SACBootstrap4UploadModule</text>
</g>
<!-- SACBootstrap4UploadModule&#45;&gt;SACBootstrap4BrowserModule -->
<g id="edge5" class="edge">
<title>SACBootstrap4UploadModule&#45;&gt;SACBootstrap4BrowserModule</title>
<path fill="none" stroke="black" d="M119,-122.28C119,-143.32 119,-175 119,-175 119,-175 432.36,-175 432.36,-175"/>
<polygon fill="black" stroke="black" points="432.36,-178.5 442.36,-175 432.36,-171.5 432.36,-178.5"/>
</g>
</g>
</svg>
