<?xml version="1.0" encoding="UTF-8" standalone="no"?>
<!DOCTYPE svg PUBLIC "-//W3C//DTD SVG 1.1//EN"
 "http://www.w3.org/Graphics/SVG/1.1/DTD/svg11.dtd">
<!-- Generated by graphviz version 2.47.3 (20210619.1520)
 -->
<!-- Title: dependencies Pages: 1 -->
<svg width="1396pt" height="174pt"
 viewBox="0.00 0.00 1396.00 173.80" xmlns="http://www.w3.org/2000/svg" xmlns:xlink="http://www.w3.org/1999/xlink">
<g id="graph0" class="graph" transform="scale(1 1) rotate(0) translate(4 169.8)">
<title>dependencies</title>
<polygon fill="white" stroke="transparent" points="-4,4 -4,-169.8 1392,-169.8 1392,4 -4,4"/>
<text text-anchor="middle" x="694" y="-8.2" font-family="sans-serif" font-size="14.00">dependencies</text>
<g id="clust1" class="cluster">
<title>cluster_ConfirmModule</title>
<polygon fill="none" stroke="black" stroke-dasharray="1,5" points="8,-32.8 8,-157.8 1380,-157.8 1380,-32.8 8,-32.8"/>
</g>
<g id="clust2" class="cluster">
<title>cluster_ConfirmModule_declarations</title>
<polygon fill="none" stroke="black" points="1194,-40.8 1194,-92.8 1372,-92.8 1372,-40.8 1194,-40.8"/>
</g>
<g id="clust4" class="cluster">
<title>cluster_ConfirmModule_imports</title>
<polygon fill="none" stroke="black" points="16,-40.8 16,-92.8 1186,-92.8 1186,-40.8 16,-40.8"/>
</g>
<!-- DemoConfirmComponent -->
<g id="node1" class="node">
<title>DemoConfirmComponent</title>
<polygon fill="#ffffb3" stroke="black" points="1364.48,-84.8 1201.52,-84.8 1201.52,-48.8 1364.48,-48.8 1364.48,-84.8"/>
<text text-anchor="middle" x="1283" y="-62.6" font-family="Times,serif" font-size="14.00">DemoConfirmComponent</text>
</g>
<!-- ConfirmModule -->
<g id="node2" class="node">
<title>ConfirmModule</title>
<polygon fill="#8dd3c7" stroke="black" points="718.49,-149.8 715.49,-153.8 694.49,-153.8 691.49,-149.8 611.51,-149.8 611.51,-113.8 718.49,-113.8 718.49,-149.8"/>
<text text-anchor="middle" x="665" y="-127.6" font-family="Times,serif" font-size="14.00">ConfirmModule</text>
</g>
<!-- DemoConfirmComponent&#45;&gt;ConfirmModule -->
<g id="edge1" class="edge">
<title>DemoConfirmComponent&#45;&gt;ConfirmModule</title>
<path fill="none" stroke="black" d="M1283,-85.09C1283,-107.01 1283,-140.8 1283,-140.8 1283,-140.8 728.49,-140.8 728.49,-140.8"/>
<polygon fill="black" stroke="black" points="728.49,-137.3 718.49,-140.8 728.49,-144.3 728.49,-137.3"/>
</g>
<!-- ConfirmRoutingModule -->
<g id="node3" class="node">
<title>ConfirmRoutingModule</title>
<polygon fill="#8dd3c7" stroke="black" points="1178.11,-84.8 1175.11,-88.8 1154.11,-88.8 1151.11,-84.8 1025.89,-84.8 1025.89,-48.8 1178.11,-48.8 1178.11,-84.8"/>
<text text-anchor="middle" x="1102" y="-62.6" font-family="Times,serif" font-size="14.00">ConfirmRoutingModule</text>
</g>
<!-- ConfirmRoutingModule&#45;&gt;ConfirmModule -->
<g id="edge2" class="edge">
<title>ConfirmRoutingModule&#45;&gt;ConfirmModule</title>
<path fill="none" stroke="black" d="M1102,-84.91C1102,-104.14 1102,-131.8 1102,-131.8 1102,-131.8 728.58,-131.8 728.58,-131.8"/>
<polygon fill="black" stroke="black" points="728.58,-128.3 718.58,-131.8 728.58,-135.3 728.58,-128.3"/>
</g>
<!-- JNetworkBootstrap4ButtonModule -->
<g id="node4" class="node">
<title>JNetworkBootstrap4ButtonModule</title>
<polygon fill="#8dd3c7" stroke="black" points="1007.53,-84.8 1004.53,-88.8 983.53,-88.8 980.53,-84.8 794.47,-84.8 794.47,-48.8 1007.53,-48.8 1007.53,-84.8"/>
<text text-anchor="middle" x="901" y="-62.6" font-family="Times,serif" font-size="14.00">JNetworkBootstrap4ButtonModule</text>
</g>
<!-- JNetworkBootstrap4ButtonModule&#45;&gt;ConfirmModule -->
<g id="edge3" class="edge">
<title>JNetworkBootstrap4ButtonModule&#45;&gt;ConfirmModule</title>
<path fill="none" stroke="black" d="M901,-84.83C901,-101.2 901,-122.8 901,-122.8 901,-122.8 728.55,-122.8 728.55,-122.8"/>
<polygon fill="black" stroke="black" points="728.55,-119.3 718.55,-122.8 728.55,-126.3 728.55,-119.3"/>
</g>
<!-- JNetworkBootstrap4ConfirmModule -->
<g id="node5" class="node">
<title>JNetworkBootstrap4ConfirmModule</title>
<polygon fill="#8dd3c7" stroke="black" points="776.35,-84.8 773.35,-88.8 752.35,-88.8 749.35,-84.8 553.65,-84.8 553.65,-48.8 776.35,-48.8 776.35,-84.8"/>
<text text-anchor="middle" x="665" y="-62.6" font-family="Times,serif" font-size="14.00">JNetworkBootstrap4ConfirmModule</text>
</g>
<!-- JNetworkBootstrap4ConfirmModule&#45;&gt;ConfirmModule -->
<g id="edge4" class="edge">
<title>JNetworkBootstrap4ConfirmModule&#45;&gt;ConfirmModule</title>
<path fill="none" stroke="black" d="M647.17,-84.91C647.17,-84.91 647.17,-103.79 647.17,-103.79"/>
<polygon fill="black" stroke="black" points="643.67,-103.79 647.17,-113.79 650.67,-103.79 643.67,-103.79"/>
</g>
<!-- JNetworkBootstrap4ConfirmModule&#45;&gt;ConfirmModule -->
<g id="edge5" class="edge">
<title>JNetworkBootstrap4ConfirmModule&#45;&gt;ConfirmModule</title>
<path fill="none" stroke="black" d="M682.83,-84.91C682.83,-84.91 682.83,-103.79 682.83,-103.79"/>
<polygon fill="black" stroke="black" points="679.33,-103.79 682.83,-113.79 686.33,-103.79 679.33,-103.79"/>
</g>
<!-- JNetworkBootstrap4FormModule -->
<g id="node6" class="node">
<title>JNetworkBootstrap4FormModule</title>
<polygon fill="#8dd3c7" stroke="black" points="535.74,-84.8 532.74,-88.8 511.74,-88.8 508.74,-84.8 330.26,-84.8 330.26,-48.8 535.74,-48.8 535.74,-84.8"/>
<text text-anchor="middle" x="433" y="-62.6" font-family="Times,serif" font-size="14.00">JNetworkBootstrap4FormModule</text>
</g>
<!-- JNetworkBootstrap4FormModule&#45;&gt;ConfirmModule -->
<g id="edge6" class="edge">
<title>JNetworkBootstrap4FormModule&#45;&gt;ConfirmModule</title>
<path fill="none" stroke="black" d="M433,-84.82C433,-102.17 433,-125.8 433,-125.8 433,-125.8 601.48,-125.8 601.48,-125.8"/>
<polygon fill="black" stroke="black" points="601.48,-129.3 611.48,-125.8 601.48,-122.3 601.48,-129.3"/>
</g>
<!-- JNetworkBootstrap4ValidationSummaryModule -->
<g id="node7" class="node">
<title>JNetworkBootstrap4ValidationSummaryModule</title>
<polygon fill="#8dd3c7" stroke="black" points="312.45,-84.8 309.45,-88.8 288.45,-88.8 285.45,-84.8 23.55,-84.8 23.55,-48.8 312.45,-48.8 312.45,-84.8"/>
<text text-anchor="middle" x="168" y="-62.6" font-family="Times,serif" font-size="14.00">JNetworkBootstrap4ValidationSummaryModule</text>
</g>
<!-- JNetworkBootstrap4ValidationSummaryModule&#45;&gt;ConfirmModule -->
<g id="edge7" class="edge">
<title>JNetworkBootstrap4ValidationSummaryModule&#45;&gt;ConfirmModule</title>
<path fill="none" stroke="black" d="M168,-85.08C168,-106.12 168,-137.8 168,-137.8 168,-137.8 601.34,-137.8 601.34,-137.8"/>
<polygon fill="black" stroke="black" points="601.34,-141.3 611.34,-137.8 601.34,-134.3 601.34,-141.3"/>
</g>
</g>
</svg>
