<?xml version="1.0" encoding="UTF-8" standalone="no"?>
<!DOCTYPE svg PUBLIC "-//W3C//DTD SVG 1.1//EN"
 "http://www.w3.org/Graphics/SVG/1.1/DTD/svg11.dtd">
<!-- Generated by graphviz version 2.47.3 (20210619.1520)
 -->
<!-- Title: dependencies Pages: 1 -->
<svg width="1138pt" height="174pt"
 viewBox="0.00 0.00 1138.00 173.80" xmlns="http://www.w3.org/2000/svg" xmlns:xlink="http://www.w3.org/1999/xlink">
<g id="graph0" class="graph" transform="scale(1 1) rotate(0) translate(4 169.8)">
<title>dependencies</title>
<polygon fill="white" stroke="transparent" points="-4,4 -4,-169.8 1134,-169.8 1134,4 -4,4"/>
<text text-anchor="middle" x="565" y="-8.2" font-family="sans-serif" font-size="14.00">dependencies</text>
<g id="clust1" class="cluster">
<title>cluster_ButtonModule</title>
<polygon fill="none" stroke="black" stroke-dasharray="1,5" points="8,-32.8 8,-157.8 1122,-157.8 1122,-32.8 8,-32.8"/>
</g>
<g id="clust2" class="cluster">
<title>cluster_ButtonModule_declarations</title>
<polygon fill="none" stroke="black" points="944,-40.8 944,-92.8 1114,-92.8 1114,-40.8 944,-40.8"/>
</g>
<g id="clust4" class="cluster">
<title>cluster_ButtonModule_imports</title>
<polygon fill="none" stroke="black" points="16,-40.8 16,-92.8 936,-92.8 936,-40.8 16,-40.8"/>
</g>
<!-- DemoButtonComponent -->
<g id="node1" class="node">
<title>DemoButtonComponent</title>
<polygon fill="#ffffb3" stroke="black" points="1105.66,-84.8 952.34,-84.8 952.34,-48.8 1105.66,-48.8 1105.66,-84.8"/>
<text text-anchor="middle" x="1029" y="-62.6" font-family="Times,serif" font-size="14.00">DemoButtonComponent</text>
</g>
<!-- ButtonModule -->
<g id="node2" class="node">
<title>ButtonModule</title>
<polygon fill="#8dd3c7" stroke="black" points="709.67,-149.8 706.67,-153.8 685.67,-153.8 682.67,-149.8 612.33,-149.8 612.33,-113.8 709.67,-113.8 709.67,-149.8"/>
<text text-anchor="middle" x="661" y="-127.6" font-family="Times,serif" font-size="14.00">ButtonModule</text>
</g>
<!-- DemoButtonComponent&#45;&gt;ButtonModule -->
<g id="edge1" class="edge">
<title>DemoButtonComponent&#45;&gt;ButtonModule</title>
<path fill="none" stroke="black" d="M1029,-85.08C1029,-106.12 1029,-137.8 1029,-137.8 1029,-137.8 719.87,-137.8 719.87,-137.8"/>
<polygon fill="black" stroke="black" points="719.87,-134.3 709.87,-137.8 719.87,-141.3 719.87,-134.3"/>
</g>
<!-- ButtonRoutingModule -->
<g id="node3" class="node">
<title>ButtonRoutingModule</title>
<polygon fill="#8dd3c7" stroke="black" points="928.29,-84.8 925.29,-88.8 904.29,-88.8 901.29,-84.8 785.71,-84.8 785.71,-48.8 928.29,-48.8 928.29,-84.8"/>
<text text-anchor="middle" x="857" y="-62.6" font-family="Times,serif" font-size="14.00">ButtonRoutingModule</text>
</g>
<!-- ButtonRoutingModule&#45;&gt;ButtonModule -->
<g id="edge2" class="edge">
<title>ButtonRoutingModule&#45;&gt;ButtonModule</title>
<path fill="none" stroke="black" d="M857,-84.82C857,-102.17 857,-125.8 857,-125.8 857,-125.8 719.7,-125.8 719.7,-125.8"/>
<polygon fill="black" stroke="black" points="719.7,-122.3 709.7,-125.8 719.7,-129.3 719.7,-122.3"/>
</g>
<!-- JNetworkBootstrap4ButtonModule -->
<g id="node4" class="node">
<title>JNetworkBootstrap4ButtonModule</title>
<polygon fill="#8dd3c7" stroke="black" points="767.53,-84.8 764.53,-88.8 743.53,-88.8 740.53,-84.8 554.47,-84.8 554.47,-48.8 767.53,-48.8 767.53,-84.8"/>
<text text-anchor="middle" x="661" y="-62.6" font-family="Times,serif" font-size="14.00">JNetworkBootstrap4ButtonModule</text>
</g>
<!-- JNetworkBootstrap4ButtonModule&#45;&gt;ButtonModule -->
<g id="edge3" class="edge">
<title>JNetworkBootstrap4ButtonModule&#45;&gt;ButtonModule</title>
<path fill="none" stroke="black" d="M644.72,-84.91C644.72,-84.91 644.72,-103.79 644.72,-103.79"/>
<polygon fill="black" stroke="black" points="641.22,-103.79 644.72,-113.79 648.22,-103.79 641.22,-103.79"/>
</g>
<!-- JNetworkBootstrap4ButtonModule&#45;&gt;ButtonModule -->
<g id="edge4" class="edge">
<title>JNetworkBootstrap4ButtonModule&#45;&gt;ButtonModule</title>
<path fill="none" stroke="black" d="M677.28,-84.91C677.28,-84.91 677.28,-103.79 677.28,-103.79"/>
<polygon fill="black" stroke="black" points="673.78,-103.79 677.28,-113.79 680.78,-103.79 673.78,-103.79"/>
</g>
<!-- JNetworkBootstrap4FormModule -->
<g id="node5" class="node">
<title>JNetworkBootstrap4FormModule</title>
<polygon fill="#8dd3c7" stroke="black" points="535.74,-84.8 532.74,-88.8 511.74,-88.8 508.74,-84.8 330.26,-84.8 330.26,-48.8 535.74,-48.8 535.74,-84.8"/>
<text text-anchor="middle" x="433" y="-62.6" font-family="Times,serif" font-size="14.00">JNetworkBootstrap4FormModule</text>
</g>
<!-- JNetworkBootstrap4FormModule&#45;&gt;ButtonModule -->
<g id="edge5" class="edge">
<title>JNetworkBootstrap4FormModule&#45;&gt;ButtonModule</title>
<path fill="none" stroke="black" d="M433,-84.82C433,-102.17 433,-125.8 433,-125.8 433,-125.8 602.09,-125.8 602.09,-125.8"/>
<polygon fill="black" stroke="black" points="602.09,-129.3 612.09,-125.8 602.09,-122.3 602.09,-129.3"/>
</g>
<!-- JNetworkBootstrap4ValidationSummaryModule -->
<g id="node6" class="node">
<title>JNetworkBootstrap4ValidationSummaryModule</title>
<polygon fill="#8dd3c7" stroke="black" points="312.45,-84.8 309.45,-88.8 288.45,-88.8 285.45,-84.8 23.55,-84.8 23.55,-48.8 312.45,-48.8 312.45,-84.8"/>
<text text-anchor="middle" x="168" y="-62.6" font-family="Times,serif" font-size="14.00">JNetworkBootstrap4ValidationSummaryModule</text>
</g>
<!-- JNetworkBootstrap4ValidationSummaryModule&#45;&gt;ButtonModule -->
<g id="edge6" class="edge">
<title>JNetworkBootstrap4ValidationSummaryModule&#45;&gt;ButtonModule</title>
<path fill="none" stroke="black" d="M168,-85.08C168,-106.12 168,-137.8 168,-137.8 168,-137.8 601.93,-137.8 601.93,-137.8"/>
<polygon fill="black" stroke="black" points="601.93,-141.3 611.93,-137.8 601.93,-134.3 601.93,-141.3"/>
</g>
</g>
</svg>
