<?xml version="1.0" encoding="UTF-8" standalone="no"?>
<!DOCTYPE svg PUBLIC "-//W3C//DTD SVG 1.1//EN"
 "http://www.w3.org/Graphics/SVG/1.1/DTD/svg11.dtd">
<!-- Generated by graphviz version 2.47.0 (20210316.0004)
 -->
<!-- Title: dependencies Pages: 1 -->
<svg width="504pt" height="284pt"
 viewBox="0.00 0.00 504.00 284.00" xmlns="http://www.w3.org/2000/svg" xmlns:xlink="http://www.w3.org/1999/xlink">
<g id="graph0" class="graph" transform="scale(1 1) rotate(0) translate(4 280)">
<title>dependencies</title>
<polygon fill="white" stroke="transparent" points="-4,4 -4,-280 500,-280 500,4 -4,4"/>
<text text-anchor="start" x="227.01" y="-42.4" font-family="Times-12" font-weight="bold" font-size="14.00">Legend</text>
<polygon fill="#ffffb3" stroke="transparent" points="14,-10 14,-30 34,-30 34,-10 14,-10"/>
<text text-anchor="start" x="37.63" y="-15.4" font-family="Times-12" font-size="14.00"> &#160;Declarations</text>
<polygon fill="#8dd3c7" stroke="transparent" points="127,-10 127,-30 147,-30 147,-10 127,-10"/>
<text text-anchor="start" x="150.73" y="-15.4" font-family="Times-12" font-size="14.00"> &#160;Module</text>
<polygon fill="#80b1d3" stroke="transparent" points="213,-10 213,-30 233,-30 233,-10 213,-10"/>
<text text-anchor="start" x="236.78" y="-15.4" font-family="Times-12" font-size="14.00"> &#160;Bootstrap</text>
<polygon fill="#fdb462" stroke="transparent" points="310,-10 310,-30 330,-30 330,-10 310,-10"/>
<text text-anchor="start" x="333.67" y="-15.4" font-family="Times-12" font-size="14.00"> &#160;Providers</text>
<polygon fill="#fb8072" stroke="transparent" points="406,-10 406,-30 426,-30 426,-10 406,-10"/>
<text text-anchor="start" x="429.73" y="-15.4" font-family="Times-12" font-size="14.00"> &#160;Exports</text>
<g id="clust1" class="cluster">
<title>cluster_SACBootstrap3UploadModule</title>
<polygon fill="none" stroke="black" stroke-dasharray="1,5" points="55.5,-70 55.5,-268 440.5,-268 440.5,-70 55.5,-70"/>
</g>
<g id="clust6" class="cluster">
<title>cluster_SACBootstrap3UploadModule_exports</title>
<polygon fill="none" stroke="black" points="63.5,-208 63.5,-260 432.5,-260 432.5,-208 63.5,-208"/>
</g>
<g id="clust2" class="cluster">
<title>cluster_SACBootstrap3UploadModule_declarations</title>
<polygon fill="none" stroke="black" points="67.5,-78 67.5,-130 429.5,-130 429.5,-78 67.5,-78"/>
</g>
<!-- NgUploadComponent -->
<g id="node1" class="node">
<title>NgUploadComponent</title>
<polygon fill="#ffffb3" stroke="black" points="421.15,-122 281.85,-122 281.85,-86 421.15,-86 421.15,-122"/>
<text text-anchor="middle" x="351.5" y="-99.8" font-family="Times,serif" font-size="14.00">NgUploadComponent</text>
</g>
<!-- SACBootstrap3UploadModule -->
<g id="node3" class="node">
<title>SACBootstrap3UploadModule</title>
<polygon fill="#8dd3c7" stroke="black" points="265.43,-187 262.43,-191 241.43,-191 238.43,-187 75.57,-187 75.57,-151 265.43,-151 265.43,-187"/>
<text text-anchor="middle" x="170.5" y="-164.8" font-family="Times,serif" font-size="14.00">SACBootstrap3UploadModule</text>
</g>
<!-- NgUploadComponent&#45;&gt;SACBootstrap3UploadModule -->
<g id="edge1" class="edge">
<title>NgUploadComponent&#45;&gt;SACBootstrap3UploadModule</title>
<path fill="none" stroke="black" d="M374.78,-122.02C374.78,-139.37 374.78,-163 374.78,-163 374.78,-163 275.46,-163 275.46,-163"/>
<polygon fill="black" stroke="black" points="275.46,-159.5 265.46,-163 275.46,-166.5 275.46,-159.5"/>
</g>
<!-- NgUploadMultipleComponent -->
<g id="node2" class="node">
<title>NgUploadMultipleComponent</title>
<polygon fill="#ffffb3" stroke="black" points="263.37,-122 75.63,-122 75.63,-86 263.37,-86 263.37,-122"/>
<text text-anchor="middle" x="169.5" y="-99.8" font-family="Times,serif" font-size="14.00">NgUploadMultipleComponent</text>
</g>
<!-- NgUploadMultipleComponent&#45;&gt;SACBootstrap3UploadModule -->
<g id="edge2" class="edge">
<title>NgUploadMultipleComponent&#45;&gt;SACBootstrap3UploadModule</title>
<path fill="none" stroke="black" d="M169.61,-122.11C169.61,-122.11 169.61,-140.99 169.61,-140.99"/>
<polygon fill="black" stroke="black" points="166.11,-140.99 169.61,-150.99 173.11,-140.99 166.11,-140.99"/>
</g>
<!-- NgUploadComponent  -->
<g id="node4" class="node">
<title>NgUploadComponent </title>
<polygon fill="#fb8072" stroke="black" points="424.15,-252 280.85,-252 280.85,-216 424.15,-216 424.15,-252"/>
<text text-anchor="middle" x="352.5" y="-229.8" font-family="Times,serif" font-size="14.00">NgUploadComponent </text>
</g>
<!-- SACBootstrap3UploadModule&#45;&gt;NgUploadComponent  -->
<g id="edge3" class="edge">
<title>SACBootstrap3UploadModule&#45;&gt;NgUploadComponent </title>
<path fill="none" stroke="black" stroke-dasharray="5,2" d="M265.43,-175C298.84,-175 328.22,-175 328.22,-175 328.22,-175 328.22,-205.98 328.22,-205.98"/>
<polygon fill="black" stroke="black" points="324.72,-205.98 328.22,-215.98 331.72,-205.98 324.72,-205.98"/>
</g>
<!-- NgUploadMultipleComponent  -->
<g id="node5" class="node">
<title>NgUploadMultipleComponent </title>
<polygon fill="#fb8072" stroke="black" points="263.37,-252 71.63,-252 71.63,-216 263.37,-216 263.37,-252"/>
<text text-anchor="middle" x="167.5" y="-229.8" font-family="Times,serif" font-size="14.00">NgUploadMultipleComponent </text>
</g>
<!-- SACBootstrap3UploadModule&#45;&gt;NgUploadMultipleComponent  -->
<g id="edge4" class="edge">
<title>SACBootstrap3UploadModule&#45;&gt;NgUploadMultipleComponent </title>
<path fill="none" stroke="black" stroke-dasharray="5,2" d="M169.49,-187.11C169.49,-187.11 169.49,-205.99 169.49,-205.99"/>
<polygon fill="black" stroke="black" points="165.99,-205.99 169.49,-215.99 172.99,-205.99 165.99,-205.99"/>
</g>
</g>
</svg>
