<?xml version="1.0" encoding="UTF-8" standalone="no"?>
<!DOCTYPE svg PUBLIC "-//W3C//DTD SVG 1.1//EN"
 "http://www.w3.org/Graphics/SVG/1.1/DTD/svg11.dtd">
<!-- Generated by graphviz version 2.47.3 (20210619.1520)
 -->
<!-- Title: dependencies Pages: 1 -->
<svg width="528pt" height="247pt"
 viewBox="0.00 0.00 528.00 246.80" xmlns="http://www.w3.org/2000/svg" xmlns:xlink="http://www.w3.org/1999/xlink">
<g id="graph0" class="graph" transform="scale(1 1) rotate(0) translate(4 242.8)">
<title>dependencies</title>
<polygon fill="white" stroke="transparent" points="-4,4 -4,-242.8 524,-242.8 524,4 -4,4"/>
<text text-anchor="middle" x="260" y="-8.2" font-family="sans-serif" font-size="14.00">dependencies</text>
<g id="clust1" class="cluster">
<title>cluster_JNetworkBootstrap4MultilanguageModule</title>
<polygon fill="none" stroke="black" stroke-dasharray="1,5" points="8,-32.8 8,-230.8 512,-230.8 512,-32.8 8,-32.8"/>
</g>
<g id="clust2" class="cluster">
<title>cluster_JNetworkBootstrap4MultilanguageModule_declarations</title>
<polygon fill="none" stroke="black" points="20,-40.8 20,-92.8 500,-92.8 500,-40.8 20,-40.8"/>
</g>
<g id="clust6" class="cluster">
<title>cluster_JNetworkBootstrap4MultilanguageModule_exports</title>
<polygon fill="none" stroke="black" points="16,-170.8 16,-222.8 504,-222.8 504,-170.8 16,-170.8"/>
</g>
<!-- NgMultilanguageInputAreaComponent -->
<g id="node1" class="node">
<title>NgMultilanguageInputAreaComponent</title>
<polygon fill="#ffffb3" stroke="black" points="492.34,-84.8 255.66,-84.8 255.66,-48.8 492.34,-48.8 492.34,-84.8"/>
<text text-anchor="middle" x="374" y="-62.6" font-family="Times,serif" font-size="14.00">NgMultilanguageInputAreaComponent</text>
</g>
<!-- JNetworkBootstrap4MultilanguageModule -->
<g id="node3" class="node">
<title>JNetworkBootstrap4MultilanguageModule</title>
<polygon fill="#8dd3c7" stroke="black" points="385.56,-149.8 382.56,-153.8 361.56,-153.8 358.56,-149.8 128.44,-149.8 128.44,-113.8 385.56,-113.8 385.56,-149.8"/>
<text text-anchor="middle" x="257" y="-127.6" font-family="Times,serif" font-size="14.00">JNetworkBootstrap4MultilanguageModule</text>
</g>
<!-- NgMultilanguageInputAreaComponent&#45;&gt;JNetworkBootstrap4MultilanguageModule -->
<g id="edge1" class="edge">
<title>NgMultilanguageInputAreaComponent&#45;&gt;JNetworkBootstrap4MultilanguageModule</title>
<path fill="none" stroke="black" d="M320.56,-84.91C320.56,-84.91 320.56,-103.79 320.56,-103.79"/>
<polygon fill="black" stroke="black" points="317.06,-103.79 320.56,-113.79 324.06,-103.79 317.06,-103.79"/>
</g>
<!-- NgMultilanguageInputComponent -->
<g id="node2" class="node">
<title>NgMultilanguageInputComponent</title>
<polygon fill="#ffffb3" stroke="black" points="237.64,-84.8 28.36,-84.8 28.36,-48.8 237.64,-48.8 237.64,-84.8"/>
<text text-anchor="middle" x="133" y="-62.6" font-family="Times,serif" font-size="14.00">NgMultilanguageInputComponent</text>
</g>
<!-- NgMultilanguageInputComponent&#45;&gt;JNetworkBootstrap4MultilanguageModule -->
<g id="edge2" class="edge">
<title>NgMultilanguageInputComponent&#45;&gt;JNetworkBootstrap4MultilanguageModule</title>
<path fill="none" stroke="black" d="M183.14,-84.91C183.14,-84.91 183.14,-103.79 183.14,-103.79"/>
<polygon fill="black" stroke="black" points="179.64,-103.79 183.14,-113.79 186.64,-103.79 179.64,-103.79"/>
</g>
<!-- NgMultilanguageInputAreaComponent  -->
<g id="node4" class="node">
<title>NgMultilanguageInputAreaComponent </title>
<polygon fill="#fb8072" stroke="black" points="496.34,-214.8 255.66,-214.8 255.66,-178.8 496.34,-178.8 496.34,-214.8"/>
<text text-anchor="middle" x="376" y="-192.6" font-family="Times,serif" font-size="14.00">NgMultilanguageInputAreaComponent </text>
</g>
<!-- JNetworkBootstrap4MultilanguageModule&#45;&gt;NgMultilanguageInputAreaComponent  -->
<g id="edge3" class="edge">
<title>JNetworkBootstrap4MultilanguageModule&#45;&gt;NgMultilanguageInputAreaComponent </title>
<path fill="none" stroke="black" stroke-dasharray="5,2" d="M320.68,-149.91C320.68,-149.91 320.68,-168.79 320.68,-168.79"/>
<polygon fill="black" stroke="black" points="317.18,-168.79 320.68,-178.79 324.18,-168.79 317.18,-168.79"/>
</g>
<!-- NgMultilanguageInputComponent  -->
<g id="node5" class="node">
<title>NgMultilanguageInputComponent </title>
<polygon fill="#fb8072" stroke="black" points="237.64,-214.8 24.36,-214.8 24.36,-178.8 237.64,-178.8 237.64,-214.8"/>
<text text-anchor="middle" x="131" y="-192.6" font-family="Times,serif" font-size="14.00">NgMultilanguageInputComponent </text>
</g>
<!-- JNetworkBootstrap4MultilanguageModule&#45;&gt;NgMultilanguageInputComponent  -->
<g id="edge4" class="edge">
<title>JNetworkBootstrap4MultilanguageModule&#45;&gt;NgMultilanguageInputComponent </title>
<path fill="none" stroke="black" stroke-dasharray="5,2" d="M183.02,-149.91C183.02,-149.91 183.02,-168.79 183.02,-168.79"/>
<polygon fill="black" stroke="black" points="179.52,-168.79 183.02,-178.79 186.52,-168.79 179.52,-168.79"/>
</g>
</g>
</svg>
