<?xml version="1.0" encoding="UTF-8" standalone="no"?>
<!DOCTYPE svg PUBLIC "-//W3C//DTD SVG 1.1//EN"
 "http://www.w3.org/Graphics/SVG/1.1/DTD/svg11.dtd">
<!-- Generated by graphviz version 2.47.3 (20210619.1520)
 -->
<!-- Title: dependencies Pages: 1 -->
<svg width="1802pt" height="358pt"
 viewBox="0.00 0.00 1802.00 358.39" xmlns="http://www.w3.org/2000/svg" xmlns:xlink="http://www.w3.org/1999/xlink">
<g id="graph0" class="graph" transform="scale(1 1) rotate(0) translate(4 354.39)">
<title>dependencies</title>
<polygon fill="white" stroke="transparent" points="-4,4 -4,-354.39 1798,-354.39 1798,4 -4,4"/>
<text text-anchor="middle" x="897" y="-8.2" font-family="sans-serif" font-size="14.00">dependencies</text>
<g id="clust1" class="cluster">
<title>cluster_JNetworkBootstrap4MultilanguageModule</title>
<polygon fill="none" stroke="black" stroke-dasharray="1,5" points="8,-32.8 8,-342.39 1786,-342.39 1786,-32.8 8,-32.8"/>
</g>
<g id="clust6" class="cluster">
<title>cluster_JNetworkBootstrap4MultilanguageModule_exports</title>
<polygon fill="none" stroke="black" points="803,-282.39 803,-334.39 1291,-334.39 1291,-282.39 803,-282.39"/>
</g>
<g id="clust2" class="cluster">
<title>cluster_JNetworkBootstrap4MultilanguageModule_declarations</title>
<polygon fill="none" stroke="black" points="808,-152.39 808,-204.39 1288,-204.39 1288,-152.39 808,-152.39"/>
</g>
<g id="clust4" class="cluster">
<title>cluster_JNetworkBootstrap4MultilanguageModule_NgMultilanguageInputComponent_providers</title>
<polygon fill="none" stroke="black" points="16,-40.8 16,-139.39 1778,-139.39 1778,-40.8 16,-40.8"/>
</g>
<!-- NgMultilanguageInputAreaComponent -->
<g id="node1" class="node">
<title>NgMultilanguageInputAreaComponent</title>
<polygon fill="#ffffb3" stroke="black" points="1280.34,-196.39 1043.66,-196.39 1043.66,-160.39 1280.34,-160.39 1280.34,-196.39"/>
<text text-anchor="middle" x="1162" y="-174.19" font-family="Times,serif" font-size="14.00">NgMultilanguageInputAreaComponent</text>
</g>
<!-- JNetworkBootstrap4MultilanguageModule -->
<g id="node3" class="node">
<title>JNetworkBootstrap4MultilanguageModule</title>
<polygon fill="#8dd3c7" stroke="black" points="1169.56,-261.39 1166.56,-265.39 1145.56,-265.39 1142.56,-261.39 912.44,-261.39 912.44,-225.39 1169.56,-225.39 1169.56,-261.39"/>
<text text-anchor="middle" x="1041" y="-239.19" font-family="Times,serif" font-size="14.00">JNetworkBootstrap4MultilanguageModule</text>
</g>
<!-- NgMultilanguageInputAreaComponent&#45;&gt;JNetworkBootstrap4MultilanguageModule -->
<g id="edge1" class="edge">
<title>NgMultilanguageInputAreaComponent&#45;&gt;JNetworkBootstrap4MultilanguageModule</title>
<path fill="none" stroke="black" d="M1106.56,-196.5C1106.56,-196.5 1106.56,-215.38 1106.56,-215.38"/>
<polygon fill="black" stroke="black" points="1103.06,-215.38 1106.56,-225.38 1110.06,-215.38 1103.06,-215.38"/>
</g>
<!-- NgMultilanguageInputComponent -->
<g id="node2" class="node">
<title>NgMultilanguageInputComponent</title>
<polygon fill="#ffffb3" stroke="black" points="1025.64,-196.39 816.36,-196.39 816.36,-160.39 1025.64,-160.39 1025.64,-196.39"/>
<text text-anchor="middle" x="921" y="-174.19" font-family="Times,serif" font-size="14.00">NgMultilanguageInputComponent</text>
</g>
<!-- NgMultilanguageInputComponent&#45;&gt;JNetworkBootstrap4MultilanguageModule -->
<g id="edge2" class="edge">
<title>NgMultilanguageInputComponent&#45;&gt;JNetworkBootstrap4MultilanguageModule</title>
<path fill="none" stroke="black" d="M969.14,-196.5C969.14,-196.5 969.14,-215.38 969.14,-215.38"/>
<polygon fill="black" stroke="black" points="965.64,-215.38 969.14,-225.38 972.64,-215.38 965.64,-215.38"/>
</g>
<!-- NgMultilanguageInputAreaComponent  -->
<g id="node6" class="node">
<title>NgMultilanguageInputAreaComponent </title>
<polygon fill="#fb8072" stroke="black" points="1283.34,-326.39 1042.66,-326.39 1042.66,-290.39 1283.34,-290.39 1283.34,-326.39"/>
<text text-anchor="middle" x="1163" y="-304.19" font-family="Times,serif" font-size="14.00">NgMultilanguageInputAreaComponent </text>
</g>
<!-- JNetworkBootstrap4MultilanguageModule&#45;&gt;NgMultilanguageInputAreaComponent  -->
<g id="edge5" class="edge">
<title>JNetworkBootstrap4MultilanguageModule&#45;&gt;NgMultilanguageInputAreaComponent </title>
<path fill="none" stroke="black" stroke-dasharray="5,2" d="M1106.18,-261.5C1106.18,-261.5 1106.18,-280.38 1106.18,-280.38"/>
<polygon fill="black" stroke="black" points="1102.68,-280.38 1106.18,-290.38 1109.68,-280.38 1102.68,-280.38"/>
</g>
<!-- NgMultilanguageInputComponent  -->
<g id="node7" class="node">
<title>NgMultilanguageInputComponent </title>
<polygon fill="#fb8072" stroke="black" points="1024.64,-326.39 811.36,-326.39 811.36,-290.39 1024.64,-290.39 1024.64,-326.39"/>
<text text-anchor="middle" x="918" y="-304.19" font-family="Times,serif" font-size="14.00">NgMultilanguageInputComponent </text>
</g>
<!-- JNetworkBootstrap4MultilanguageModule&#45;&gt;NgMultilanguageInputComponent  -->
<g id="edge6" class="edge">
<title>JNetworkBootstrap4MultilanguageModule&#45;&gt;NgMultilanguageInputComponent </title>
<path fill="none" stroke="black" stroke-dasharray="5,2" d="M968.52,-261.5C968.52,-261.5 968.52,-280.38 968.52,-280.38"/>
<polygon fill="black" stroke="black" points="965.02,-280.38 968.52,-290.38 972.02,-280.38 965.02,-280.38"/>
</g>
<!-- {
 &#160;&#160;&#160;provide: NG_VALUE_ACCESSOR, multi: true, useExisting: NgMultilanguageInputComponent,
} -->
<g id="node4" class="node">
<title>{
 &#160;&#160;&#160;provide: NG_VALUE_ACCESSOR, multi: true, useExisting: NgMultilanguageInputComponent,
}</title>
<ellipse fill="#fdb462" stroke="black" cx="1362" cy="-90.1" rx="407.6" ry="41.09"/>
<text text-anchor="middle" x="1362" y="-102.7" font-family="Times,serif" font-size="14.00">{</text>
<text text-anchor="middle" x="1362" y="-85.9" font-family="Times,serif" font-size="14.00"> &#160;&#160;&#160;provide: NG_VALUE_ACCESSOR, multi: true, useExisting: NgMultilanguageInputComponent,</text>
<text text-anchor="middle" x="1362" y="-69.1" font-family="Times,serif" font-size="14.00">}</text>
</g>
<!-- {
 &#160;&#160;&#160;provide: NG_VALUE_ACCESSOR, multi: true, useExisting: NgMultilanguageInputComponent,
}&#45;&gt;NgMultilanguageInputComponent -->
<g id="edge3" class="edge">
<title>{
 &#160;&#160;&#160;provide: NG_VALUE_ACCESSOR, multi: true, useExisting: NgMultilanguageInputComponent,
}&#45;&gt;NgMultilanguageInputComponent</title>
<path fill="none" stroke="black" d="M990.01,-107.12C990.01,-107.12 990.01,-150.2 990.01,-150.2"/>
<polygon fill="black" stroke="black" points="986.51,-150.2 990.01,-160.2 993.51,-150.2 986.51,-150.2"/>
</g>
<!-- {
 &#160;&#160;&#160;provide: NG_VALIDATORS, multi: true, useExisting: forwardRef(() =&gt; NgMultilanguageInputComponent),
} -->
<g id="node5" class="node">
<title>{
 &#160;&#160;&#160;provide: NG_VALIDATORS, multi: true, useExisting: forwardRef(() =&gt; NgMultilanguageInputComponent),
}</title>
<ellipse fill="#fdb462" stroke="black" cx="480" cy="-90.1" rx="456.11" ry="41.09"/>
<text text-anchor="middle" x="480" y="-102.7" font-family="Times,serif" font-size="14.00">{</text>
<text text-anchor="middle" x="480" y="-85.9" font-family="Times,serif" font-size="14.00"> &#160;&#160;&#160;provide: NG_VALIDATORS, multi: true, useExisting: forwardRef(() =&gt; NgMultilanguageInputComponent),</text>
<text text-anchor="middle" x="480" y="-69.1" font-family="Times,serif" font-size="14.00">}</text>
</g>
<!-- {
 &#160;&#160;&#160;provide: NG_VALIDATORS, multi: true, useExisting: forwardRef(() =&gt; NgMultilanguageInputComponent),
}&#45;&gt;NgMultilanguageInputComponent -->
<g id="edge4" class="edge">
<title>{
 &#160;&#160;&#160;provide: NG_VALIDATORS, multi: true, useExisting: forwardRef(() =&gt; NgMultilanguageInputComponent),
}&#45;&gt;NgMultilanguageInputComponent</title>
<path fill="none" stroke="black" d="M876.24,-111.02C876.24,-111.02 876.24,-150.3 876.24,-150.3"/>
<polygon fill="black" stroke="black" points="872.74,-150.3 876.24,-160.3 879.74,-150.3 872.74,-150.3"/>
</g>
</g>
</svg>
