<?xml version="1.0" encoding="UTF-8" standalone="no"?>
<!DOCTYPE svg PUBLIC "-//W3C//DTD SVG 1.1//EN"
 "http://www.w3.org/Graphics/SVG/1.1/DTD/svg11.dtd">
<!-- Generated by graphviz version 2.47.3 (20210619.1520)
 -->
<!-- Title: dependencies Pages: 1 -->
<svg width="1402pt" height="174pt"
 viewBox="0.00 0.00 1402.00 173.80" xmlns="http://www.w3.org/2000/svg" xmlns:xlink="http://www.w3.org/1999/xlink">
<g id="graph0" class="graph" transform="scale(1 1) rotate(0) translate(4 169.8)">
<title>dependencies</title>
<polygon fill="white" stroke="transparent" points="-4,4 -4,-169.8 1398,-169.8 1398,4 -4,4"/>
<text text-anchor="middle" x="697" y="-8.2" font-family="sans-serif" font-size="14.00">dependencies</text>
<g id="clust1" class="cluster">
<title>cluster_UploaderModule</title>
<polygon fill="none" stroke="black" stroke-dasharray="1,5" points="8,-32.8 8,-157.8 1386,-157.8 1386,-32.8 8,-32.8"/>
</g>
<g id="clust4" class="cluster">
<title>cluster_UploaderModule_imports</title>
<polygon fill="none" stroke="black" points="208,-40.8 208,-92.8 1378,-92.8 1378,-40.8 208,-40.8"/>
</g>
<g id="clust2" class="cluster">
<title>cluster_UploaderModule_declarations</title>
<polygon fill="none" stroke="black" points="16,-40.8 16,-92.8 200,-92.8 200,-40.8 16,-40.8"/>
</g>
<!-- DemoUploaderComponent -->
<g id="node1" class="node">
<title>DemoUploaderComponent</title>
<polygon fill="#ffffb3" stroke="black" points="191.63,-84.8 24.37,-84.8 24.37,-48.8 191.63,-48.8 191.63,-84.8"/>
<text text-anchor="middle" x="108" y="-62.6" font-family="Times,serif" font-size="14.00">DemoUploaderComponent</text>
</g>
<!-- UploaderModule -->
<g id="node2" class="node">
<title>UploaderModule</title>
<polygon fill="#8dd3c7" stroke="black" points="725.64,-149.8 722.64,-153.8 701.64,-153.8 698.64,-149.8 614.36,-149.8 614.36,-113.8 725.64,-113.8 725.64,-149.8"/>
<text text-anchor="middle" x="670" y="-127.6" font-family="Times,serif" font-size="14.00">UploaderModule</text>
</g>
<!-- DemoUploaderComponent&#45;&gt;UploaderModule -->
<g id="edge1" class="edge">
<title>DemoUploaderComponent&#45;&gt;UploaderModule</title>
<path fill="none" stroke="black" d="M108,-85.08C108,-106.12 108,-137.8 108,-137.8 108,-137.8 604.32,-137.8 604.32,-137.8"/>
<polygon fill="black" stroke="black" points="604.32,-141.3 614.32,-137.8 604.32,-134.3 604.32,-141.3"/>
</g>
<!-- JNetworkBootstrap4ButtonModule -->
<g id="node3" class="node">
<title>JNetworkBootstrap4ButtonModule</title>
<polygon fill="#8dd3c7" stroke="black" points="1369.53,-84.8 1366.53,-88.8 1345.53,-88.8 1342.53,-84.8 1156.47,-84.8 1156.47,-48.8 1369.53,-48.8 1369.53,-84.8"/>
<text text-anchor="middle" x="1263" y="-62.6" font-family="Times,serif" font-size="14.00">JNetworkBootstrap4ButtonModule</text>
</g>
<!-- JNetworkBootstrap4ButtonModule&#45;&gt;UploaderModule -->
<g id="edge2" class="edge">
<title>JNetworkBootstrap4ButtonModule&#45;&gt;UploaderModule</title>
<path fill="none" stroke="black" d="M1263,-85.08C1263,-106.12 1263,-137.8 1263,-137.8 1263,-137.8 735.79,-137.8 735.79,-137.8"/>
<polygon fill="black" stroke="black" points="735.79,-134.3 725.79,-137.8 735.79,-141.3 735.79,-134.3"/>
</g>
<!-- JNetworkBootstrap4FormModule -->
<g id="node4" class="node">
<title>JNetworkBootstrap4FormModule</title>
<polygon fill="#8dd3c7" stroke="black" points="1137.74,-84.8 1134.74,-88.8 1113.74,-88.8 1110.74,-84.8 932.26,-84.8 932.26,-48.8 1137.74,-48.8 1137.74,-84.8"/>
<text text-anchor="middle" x="1035" y="-62.6" font-family="Times,serif" font-size="14.00">JNetworkBootstrap4FormModule</text>
</g>
<!-- JNetworkBootstrap4FormModule&#45;&gt;UploaderModule -->
<g id="edge3" class="edge">
<title>JNetworkBootstrap4FormModule&#45;&gt;UploaderModule</title>
<path fill="none" stroke="black" d="M1035,-84.82C1035,-102.17 1035,-125.8 1035,-125.8 1035,-125.8 735.83,-125.8 735.83,-125.8"/>
<polygon fill="black" stroke="black" points="735.83,-122.3 725.83,-125.8 735.83,-129.3 735.83,-122.3"/>
</g>
<!-- JNetworkBootstrap4UploadModule -->
<g id="node5" class="node">
<title>JNetworkBootstrap4UploadModule</title>
<polygon fill="#8dd3c7" stroke="black" points="914.12,-84.8 911.12,-88.8 890.12,-88.8 887.12,-84.8 697.88,-84.8 697.88,-48.8 914.12,-48.8 914.12,-84.8"/>
<text text-anchor="middle" x="806" y="-62.6" font-family="Times,serif" font-size="14.00">JNetworkBootstrap4UploadModule</text>
</g>
<!-- JNetworkBootstrap4UploadModule&#45;&gt;UploaderModule -->
<g id="edge4" class="edge">
<title>JNetworkBootstrap4UploadModule&#45;&gt;UploaderModule</title>
<path fill="none" stroke="black" d="M711.75,-84.91C711.75,-84.91 711.75,-103.79 711.75,-103.79"/>
<polygon fill="black" stroke="black" points="708.25,-103.79 711.75,-113.79 715.25,-103.79 708.25,-103.79"/>
</g>
<!-- JNetworkBootstrap4ValidationSummaryModule -->
<g id="node6" class="node">
<title>JNetworkBootstrap4ValidationSummaryModule</title>
<polygon fill="#8dd3c7" stroke="black" points="679.45,-84.8 676.45,-88.8 655.45,-88.8 652.45,-84.8 390.55,-84.8 390.55,-48.8 679.45,-48.8 679.45,-84.8"/>
<text text-anchor="middle" x="535" y="-62.6" font-family="Times,serif" font-size="14.00">JNetworkBootstrap4ValidationSummaryModule</text>
</g>
<!-- JNetworkBootstrap4ValidationSummaryModule&#45;&gt;UploaderModule -->
<g id="edge5" class="edge">
<title>JNetworkBootstrap4ValidationSummaryModule&#45;&gt;UploaderModule</title>
<path fill="none" stroke="black" d="M646.83,-84.91C646.83,-84.91 646.83,-103.79 646.83,-103.79"/>
<polygon fill="black" stroke="black" points="643.33,-103.79 646.83,-113.79 650.33,-103.79 643.33,-103.79"/>
</g>
<!-- UploaderRoutingModule -->
<g id="node7" class="node">
<title>UploaderRoutingModule</title>
<polygon fill="#8dd3c7" stroke="black" points="372.25,-84.8 369.25,-88.8 348.25,-88.8 345.25,-84.8 215.75,-84.8 215.75,-48.8 372.25,-48.8 372.25,-84.8"/>
<text text-anchor="middle" x="294" y="-62.6" font-family="Times,serif" font-size="14.00">UploaderRoutingModule</text>
</g>
<!-- UploaderRoutingModule&#45;&gt;UploaderModule -->
<g id="edge6" class="edge">
<title>UploaderRoutingModule&#45;&gt;UploaderModule</title>
<path fill="none" stroke="black" d="M294,-84.82C294,-102.17 294,-125.8 294,-125.8 294,-125.8 604.12,-125.8 604.12,-125.8"/>
<polygon fill="black" stroke="black" points="604.12,-129.3 614.12,-125.8 604.11,-122.3 604.12,-129.3"/>
</g>
</g>
</svg>
