<?xml version="1.0" encoding="UTF-8" standalone="no"?>
<!DOCTYPE svg PUBLIC "-//W3C//DTD SVG 1.1//EN"
 "http://www.w3.org/Graphics/SVG/1.1/DTD/svg11.dtd">
<!-- Generated by graphviz version 2.47.0 (20210316.0004)
 -->
<!-- Title: dependencies Pages: 1 -->
<svg width="1214pt" height="284pt"
 viewBox="0.00 0.00 1214.00 284.00" xmlns="http://www.w3.org/2000/svg" xmlns:xlink="http://www.w3.org/1999/xlink">
<g id="graph0" class="graph" transform="scale(1 1) rotate(0) translate(4 280)">
<title>dependencies</title>
<polygon fill="white" stroke="transparent" points="-4,4 -4,-280 1210,-280 1210,4 -4,4"/>
<text text-anchor="start" x="582.01" y="-42.4" font-family="Times-12" font-weight="bold" font-size="14.00">Legend</text>
<polygon fill="#ffffb3" stroke="transparent" points="369,-10 369,-30 389,-30 389,-10 369,-10"/>
<text text-anchor="start" x="392.63" y="-15.4" font-family="Times-12" font-size="14.00"> &#160;Declarations</text>
<polygon fill="#8dd3c7" stroke="transparent" points="482,-10 482,-30 502,-30 502,-10 482,-10"/>
<text text-anchor="start" x="505.73" y="-15.4" font-family="Times-12" font-size="14.00"> &#160;Module</text>
<polygon fill="#80b1d3" stroke="transparent" points="568,-10 568,-30 588,-30 588,-10 568,-10"/>
<text text-anchor="start" x="591.78" y="-15.4" font-family="Times-12" font-size="14.00"> &#160;Bootstrap</text>
<polygon fill="#fdb462" stroke="transparent" points="665,-10 665,-30 685,-30 685,-10 665,-10"/>
<text text-anchor="start" x="688.67" y="-15.4" font-family="Times-12" font-size="14.00"> &#160;Providers</text>
<polygon fill="#fb8072" stroke="transparent" points="761,-10 761,-30 781,-30 781,-10 761,-10"/>
<text text-anchor="start" x="784.73" y="-15.4" font-family="Times-12" font-size="14.00"> &#160;Exports</text>
<g id="clust1" class="cluster">
<title>cluster_SACBootstrap4ContextmenuModule</title>
<polygon fill="none" stroke="black" stroke-dasharray="1,5" points="8,-70 8,-268 1198,-268 1198,-70 8,-70"/>
</g>
<g id="clust4" class="cluster">
<title>cluster_SACBootstrap4ContextmenuModule_exports</title>
<polygon fill="none" stroke="black" points="133,-208 133,-260 1085,-260 1085,-208 133,-208"/>
</g>
<g id="clust3" class="cluster">
<title>cluster_SACBootstrap4ContextmenuModule_imports</title>
<polygon fill="none" stroke="black" points="16,-78 16,-130 1190,-130 1190,-78 16,-78"/>
</g>
<!-- SacContextmenuAnchorDirective -->
<g id="node1" class="node">
<title>SacContextmenuAnchorDirective</title>
<polygon fill="#8dd3c7" stroke="black" points="1181.71,-122 1178.71,-126 1157.71,-126 1154.71,-122 976.29,-122 976.29,-86 1181.71,-86 1181.71,-122"/>
<text text-anchor="middle" x="1079" y="-99.8" font-family="Times,serif" font-size="14.00">SacContextmenuAnchorDirective</text>
</g>
<!-- SACBootstrap4ContextmenuModule -->
<g id="node6" class="node">
<title>SACBootstrap4ContextmenuModule</title>
<polygon fill="#8dd3c7" stroke="black" points="765.65,-187 762.65,-191 741.65,-191 738.65,-187 542.35,-187 542.35,-151 765.65,-151 765.65,-187"/>
<text text-anchor="middle" x="654" y="-164.8" font-family="Times,serif" font-size="14.00">SACBootstrap4ContextmenuModule</text>
</g>
<!-- SacContextmenuAnchorDirective&#45;&gt;SACBootstrap4ContextmenuModule -->
<g id="edge1" class="edge">
<title>SacContextmenuAnchorDirective&#45;&gt;SACBootstrap4ContextmenuModule</title>
<path fill="none" stroke="black" d="M1026.38,-122.11C1026.38,-141.34 1026.38,-169 1026.38,-169 1026.38,-169 775.72,-169 775.72,-169"/>
<polygon fill="black" stroke="black" points="775.72,-165.5 765.72,-169 775.72,-172.5 775.72,-165.5"/>
</g>
<!-- SacContextmenuComponent -->
<g id="node2" class="node">
<title>SacContextmenuComponent</title>
<polygon fill="#8dd3c7" stroke="black" points="958.48,-122 955.48,-126 934.48,-126 931.48,-122 781.52,-122 781.52,-86 958.48,-86 958.48,-122"/>
<text text-anchor="middle" x="870" y="-99.8" font-family="Times,serif" font-size="14.00">SacContextmenuComponent</text>
</g>
<!-- SacContextmenuComponent&#45;&gt;SACBootstrap4ContextmenuModule -->
<g id="edge2" class="edge">
<title>SacContextmenuComponent&#45;&gt;SACBootstrap4ContextmenuModule</title>
<path fill="none" stroke="black" d="M815.38,-122.03C815.38,-138.4 815.38,-160 815.38,-160 815.38,-160 776.08,-160 776.08,-160"/>
<polygon fill="black" stroke="black" points="776.08,-156.5 766.08,-160 776.08,-163.5 776.08,-156.5"/>
</g>
<!-- SacContextmenuContainerDirective -->
<g id="node3" class="node">
<title>SacContextmenuContainerDirective</title>
<polygon fill="#8dd3c7" stroke="black" points="763.44,-122 760.44,-126 739.44,-126 736.44,-122 544.56,-122 544.56,-86 763.44,-86 763.44,-122"/>
<text text-anchor="middle" x="654" y="-99.8" font-family="Times,serif" font-size="14.00">SacContextmenuContainerDirective</text>
</g>
<!-- SacContextmenuContainerDirective&#45;&gt;SACBootstrap4ContextmenuModule -->
<g id="edge3" class="edge">
<title>SacContextmenuContainerDirective&#45;&gt;SACBootstrap4ContextmenuModule</title>
<path fill="none" stroke="black" d="M654,-122.11C654,-122.11 654,-140.99 654,-140.99"/>
<polygon fill="black" stroke="black" points="650.5,-140.99 654,-150.99 657.5,-140.99 650.5,-140.99"/>
</g>
<!-- SacContextmenuItemButtonComponent -->
<g id="node4" class="node">
<title>SacContextmenuItemButtonComponent</title>
<polygon fill="#8dd3c7" stroke="black" points="526.26,-122 523.26,-126 502.26,-126 499.26,-122 285.74,-122 285.74,-86 526.26,-86 526.26,-122"/>
<text text-anchor="middle" x="406" y="-99.8" font-family="Times,serif" font-size="14.00">SacContextmenuItemButtonComponent</text>
</g>
<!-- SacContextmenuItemButtonComponent&#45;&gt;SACBootstrap4ContextmenuModule -->
<g id="edge4" class="edge">
<title>SacContextmenuItemButtonComponent&#45;&gt;SACBootstrap4ContextmenuModule</title>
<path fill="none" stroke="black" d="M466.62,-122.03C466.62,-138.4 466.62,-160 466.62,-160 466.62,-160 532.3,-160 532.3,-160"/>
<polygon fill="black" stroke="black" points="532.3,-163.5 542.3,-160 532.3,-156.5 532.3,-163.5"/>
</g>
<!-- SacContextmenuItemSplitterComponent -->
<g id="node5" class="node">
<title>SacContextmenuItemSplitterComponent</title>
<polygon fill="#8dd3c7" stroke="black" points="267.86,-122 264.86,-126 243.86,-126 240.86,-122 24.14,-122 24.14,-86 267.86,-86 267.86,-122"/>
<text text-anchor="middle" x="146" y="-99.8" font-family="Times,serif" font-size="14.00">SacContextmenuItemSplitterComponent</text>
</g>
<!-- SacContextmenuItemSplitterComponent&#45;&gt;SACBootstrap4ContextmenuModule -->
<g id="edge5" class="edge">
<title>SacContextmenuItemSplitterComponent&#45;&gt;SACBootstrap4ContextmenuModule</title>
<path fill="none" stroke="black" d="M204.62,-122.11C204.62,-141.34 204.62,-169 204.62,-169 204.62,-169 532.34,-169 532.34,-169"/>
<polygon fill="black" stroke="black" points="532.34,-172.5 542.34,-169 532.34,-165.5 532.34,-172.5"/>
</g>
<!-- SacContextmenuAnchorDirective  -->
<g id="node7" class="node">
<title>SacContextmenuAnchorDirective </title>
<polygon fill="#fb8072" stroke="black" points="1076.71,-252 867.29,-252 867.29,-216 1076.71,-216 1076.71,-252"/>
<text text-anchor="middle" x="972" y="-229.8" font-family="Times,serif" font-size="14.00">SacContextmenuAnchorDirective </text>
</g>
<!-- SACBootstrap4ContextmenuModule&#45;&gt;SacContextmenuAnchorDirective  -->
<g id="edge6" class="edge">
<title>SACBootstrap4ContextmenuModule&#45;&gt;SacContextmenuAnchorDirective </title>
<path fill="none" stroke="black" stroke-dasharray="5,2" d="M765.69,-178C835.78,-178 912.94,-178 912.94,-178 912.94,-178 912.94,-205.97 912.94,-205.97"/>
<polygon fill="black" stroke="black" points="909.44,-205.97 912.94,-215.97 916.44,-205.97 909.44,-205.97"/>
</g>
<!-- SacContextmenuComponent  -->
<g id="node8" class="node">
<title>SacContextmenuComponent </title>
<polygon fill="#fb8072" stroke="black" points="849.48,-252 668.52,-252 668.52,-216 849.48,-216 849.48,-252"/>
<text text-anchor="middle" x="759" y="-229.8" font-family="Times,serif" font-size="14.00">SacContextmenuComponent </text>
</g>
<!-- SACBootstrap4ContextmenuModule&#45;&gt;SacContextmenuComponent  -->
<g id="edge7" class="edge">
<title>SACBootstrap4ContextmenuModule&#45;&gt;SacContextmenuComponent </title>
<path fill="none" stroke="black" stroke-dasharray="5,2" d="M717.29,-187.11C717.29,-187.11 717.29,-205.99 717.29,-205.99"/>
<polygon fill="black" stroke="black" points="713.79,-205.99 717.29,-215.99 720.79,-205.99 713.79,-205.99"/>
</g>
<!-- SacContextmenuItemButtonComponent  -->
<g id="node9" class="node">
<title>SacContextmenuItemButtonComponent </title>
<polygon fill="#fb8072" stroke="black" points="651.26,-252 406.74,-252 406.74,-216 651.26,-216 651.26,-252"/>
<text text-anchor="middle" x="529" y="-229.8" font-family="Times,serif" font-size="14.00">SacContextmenuItemButtonComponent </text>
</g>
<!-- SACBootstrap4ContextmenuModule&#45;&gt;SacContextmenuItemButtonComponent  -->
<g id="edge8" class="edge">
<title>SACBootstrap4ContextmenuModule&#45;&gt;SacContextmenuItemButtonComponent </title>
<path fill="none" stroke="black" stroke-dasharray="5,2" d="M596.65,-187.11C596.65,-187.11 596.65,-205.99 596.65,-205.99"/>
<polygon fill="black" stroke="black" points="593.15,-205.99 596.65,-215.99 600.15,-205.99 593.15,-205.99"/>
</g>
<!-- SacContextmenuItemSplitterComponent  -->
<g id="node10" class="node">
<title>SacContextmenuItemSplitterComponent </title>
<polygon fill="#fb8072" stroke="black" points="388.86,-252 141.14,-252 141.14,-216 388.86,-216 388.86,-252"/>
<text text-anchor="middle" x="265" y="-229.8" font-family="Times,serif" font-size="14.00">SacContextmenuItemSplitterComponent </text>
</g>
<!-- SACBootstrap4ContextmenuModule&#45;&gt;SacContextmenuItemSplitterComponent  -->
<g id="edge9" class="edge">
<title>SACBootstrap4ContextmenuModule&#45;&gt;SacContextmenuItemSplitterComponent </title>
<path fill="none" stroke="black" stroke-dasharray="5,2" d="M542.29,-178C451.07,-178 337.15,-178 337.15,-178 337.15,-178 337.15,-205.97 337.15,-205.97"/>
<polygon fill="black" stroke="black" points="333.65,-205.97 337.15,-215.97 340.65,-205.97 333.65,-205.97"/>
</g>
</g>
</svg>
