<?xml version="1.0" encoding="UTF-8" standalone="no"?>
<!DOCTYPE svg PUBLIC "-//W3C//DTD SVG 1.1//EN"
 "http://www.w3.org/Graphics/SVG/1.1/DTD/svg11.dtd">
<!-- Generated by graphviz version 2.40.1 (20161225.0304)
 -->
<!-- Title: dependencies Pages: 1 -->
<svg width="662pt" height="284pt"
 viewBox="0.00 0.00 662.00 284.00" xmlns="http://www.w3.org/2000/svg" xmlns:xlink="http://www.w3.org/1999/xlink">
<g id="graph0" class="graph" transform="scale(1 1) rotate(0) translate(4 280)">
<title>dependencies</title>
<polygon fill="#ffffff" stroke="transparent" points="-4,4 -4,-280 658,-280 658,4 -4,4"/>
<text text-anchor="start" x="306.0091" y="-42.4" font-family="sans-serif" font-weight="bold" font-size="14.00" fill="#000000">Legend</text>
<polygon fill="#ffffb3" stroke="transparent" points="93,-10 93,-30 113,-30 113,-10 93,-10"/>
<text text-anchor="start" x="116.629" y="-15.4" font-family="sans-serif" font-size="14.00" fill="#000000"> &#160;Declarations</text>
<polygon fill="#8dd3c7" stroke="transparent" points="206,-10 206,-30 226,-30 226,-10 206,-10"/>
<text text-anchor="start" x="229.7251" y="-15.4" font-family="sans-serif" font-size="14.00" fill="#000000"> &#160;Module</text>
<polygon fill="#80b1d3" stroke="transparent" points="292,-10 292,-30 312,-30 312,-10 292,-10"/>
<text text-anchor="start" x="315.7812" y="-15.4" font-family="sans-serif" font-size="14.00" fill="#000000"> &#160;Bootstrap</text>
<polygon fill="#fdb462" stroke="transparent" points="389,-10 389,-30 409,-30 409,-10 389,-10"/>
<text text-anchor="start" x="412.6732" y="-15.4" font-family="sans-serif" font-size="14.00" fill="#000000"> &#160;Providers</text>
<polygon fill="#fb8072" stroke="transparent" points="485,-10 485,-30 505,-30 505,-10 485,-10"/>
<text text-anchor="start" x="508.7258" y="-15.4" font-family="sans-serif" font-size="14.00" fill="#000000"> &#160;Exports</text>
<g id="clust1" class="cluster">
<title>cluster_jNetworkBootstrap3ListModule</title>
<polygon fill="none" stroke="#000000" stroke-dasharray="1,5" points="8,-70 8,-268 646,-268 646,-70 8,-70"/>
</g>
<g id="clust2" class="cluster">
<title>cluster_jNetworkBootstrap3ListModule_declarations</title>
<polygon fill="none" stroke="#000000" points="286,-78 286,-130 638,-130 638,-78 286,-78"/>
</g>
<g id="clust6" class="cluster">
<title>cluster_jNetworkBootstrap3ListModule_imports</title>
<polygon fill="none" stroke="#000000" points="16,-78 16,-130 278,-130 278,-78 16,-78"/>
</g>
<g id="clust7" class="cluster">
<title>cluster_jNetworkBootstrap3ListModule_exports</title>
<polygon fill="none" stroke="#000000" points="217,-208 217,-260 580,-260 580,-208 217,-208"/>
</g>
<!-- NgDropdown -->
<g id="node1" class="node">
<title>NgDropdown</title>
<polygon fill="#ffffb3" stroke="#000000" points="630.4804,-122 537.5196,-122 537.5196,-86 630.4804,-86 630.4804,-122"/>
<text text-anchor="middle" x="584" y="-99.8" font-family="Times,serif" font-size="14.00" fill="#000000">NgDropdown</text>
</g>
<!-- jNetworkBootstrap3ListModule -->
<g id="node4" class="node">
<title>jNetworkBootstrap3ListModule</title>
<polygon fill="#8dd3c7" stroke="#000000" points="487.6357,-187 484.6357,-191 463.6357,-191 460.6357,-187 292.3643,-187 292.3643,-151 487.6357,-151 487.6357,-187"/>
<text text-anchor="middle" x="390" y="-164.8" font-family="Times,serif" font-size="14.00" fill="#000000">jNetworkBootstrap3ListModule</text>
</g>
<!-- NgDropdown&#45;&gt;jNetworkBootstrap3ListModule -->
<g id="edge1" class="edge">
<title>NgDropdown&#45;&gt;jNetworkBootstrap3ListModule</title>
<path fill="none" stroke="#000000" d="M554.875,-122.1061C554.875,-141.3391 554.875,-169 554.875,-169 554.875,-169 497.814,-169 497.814,-169"/>
<polygon fill="#000000" stroke="#000000" points="497.8141,-165.5001 487.814,-169 497.814,-172.5001 497.8141,-165.5001"/>
</g>
<!-- NgDropdownOption -->
<g id="node2" class="node">
<title>NgDropdownOption</title>
<polygon fill="#ffffb3" stroke="#000000" points="519.8683,-122 388.1317,-122 388.1317,-86 519.8683,-86 519.8683,-122"/>
<text text-anchor="middle" x="454" y="-99.8" font-family="Times,serif" font-size="14.00" fill="#000000">NgDropdownOption</text>
</g>
<!-- NgDropdownOption&#45;&gt;jNetworkBootstrap3ListModule -->
<g id="edge2" class="edge">
<title>NgDropdownOption&#45;&gt;jNetworkBootstrap3ListModule</title>
<path fill="none" stroke="#000000" d="M437.9418,-122.1061C437.9418,-122.1061 437.9418,-140.991 437.9418,-140.991"/>
<polygon fill="#000000" stroke="#000000" points="434.4419,-140.9909 437.9418,-150.991 441.4419,-140.991 434.4419,-140.9909"/>
</g>
<!-- NgListbox -->
<g id="node3" class="node">
<title>NgListbox</title>
<polygon fill="#ffffb3" stroke="#000000" points="369.8851,-122 294.1149,-122 294.1149,-86 369.8851,-86 369.8851,-122"/>
<text text-anchor="middle" x="332" y="-99.8" font-family="Times,serif" font-size="14.00" fill="#000000">NgListbox</text>
</g>
<!-- NgListbox&#45;&gt;jNetworkBootstrap3ListModule -->
<g id="edge3" class="edge">
<title>NgListbox&#45;&gt;jNetworkBootstrap3ListModule</title>
<path fill="none" stroke="#000000" d="M332,-122.1061C332,-122.1061 332,-140.991 332,-140.991"/>
<polygon fill="#000000" stroke="#000000" points="328.5001,-140.9909 332,-150.991 335.5001,-140.991 328.5001,-140.9909"/>
</g>
<!-- NgDropdown  -->
<g id="node6" class="node">
<title>NgDropdown </title>
<polygon fill="#fb8072" stroke="#000000" points="572.4816,-252 475.5184,-252 475.5184,-216 572.4816,-216 572.4816,-252"/>
<text text-anchor="middle" x="524" y="-229.8" font-family="Times,serif" font-size="14.00" fill="#000000">NgDropdown </text>
</g>
<!-- jNetworkBootstrap3ListModule&#45;&gt;NgDropdown  -->
<g id="edge5" class="edge">
<title>jNetworkBootstrap3ListModule&#45;&gt;NgDropdown </title>
<path fill="none" stroke="#000000" stroke-dasharray="5,2" d="M481.7888,-187.1061C481.7888,-187.1061 481.7888,-205.991 481.7888,-205.991"/>
<polygon fill="#000000" stroke="#000000" points="478.2888,-205.9909 481.7888,-215.991 485.2888,-205.991 478.2888,-205.9909"/>
</g>
<!-- NgDropdownOption  -->
<g id="node7" class="node">
<title>NgDropdownOption </title>
<polygon fill="#fb8072" stroke="#000000" points="457.8687,-252 322.1313,-252 322.1313,-216 457.8687,-216 457.8687,-252"/>
<text text-anchor="middle" x="390" y="-229.8" font-family="Times,serif" font-size="14.00" fill="#000000">NgDropdownOption </text>
</g>
<!-- jNetworkBootstrap3ListModule&#45;&gt;NgDropdownOption  -->
<g id="edge6" class="edge">
<title>jNetworkBootstrap3ListModule&#45;&gt;NgDropdownOption </title>
<path fill="none" stroke="#000000" stroke-dasharray="5,2" d="M390,-187.1061C390,-187.1061 390,-205.991 390,-205.991"/>
<polygon fill="#000000" stroke="#000000" points="386.5001,-205.9909 390,-215.991 393.5001,-205.991 386.5001,-205.9909"/>
</g>
<!-- NgListbox  -->
<g id="node8" class="node">
<title>NgListbox </title>
<polygon fill="#fb8072" stroke="#000000" points="304.8859,-252 225.1141,-252 225.1141,-216 304.8859,-216 304.8859,-252"/>
<text text-anchor="middle" x="265" y="-229.8" font-family="Times,serif" font-size="14.00" fill="#000000">NgListbox </text>
</g>
<!-- jNetworkBootstrap3ListModule&#45;&gt;NgListbox  -->
<g id="edge7" class="edge">
<title>jNetworkBootstrap3ListModule&#45;&gt;NgListbox </title>
<path fill="none" stroke="#000000" stroke-dasharray="5,2" d="M298.4374,-187.1061C298.4374,-187.1061 298.4374,-205.991 298.4374,-205.991"/>
<polygon fill="#000000" stroke="#000000" points="294.9375,-205.9909 298.4374,-215.991 301.9375,-205.991 294.9375,-205.9909"/>
</g>
<!-- jNetworkCommonListboxOptionModule -->
<g id="node5" class="node">
<title>jNetworkCommonListboxOptionModule</title>
<polygon fill="#8dd3c7" stroke="#000000" points="270.2035,-122 267.2035,-126 246.2035,-126 243.2035,-122 23.7965,-122 23.7965,-86 270.2035,-86 270.2035,-122"/>
<text text-anchor="middle" x="147" y="-99.8" font-family="Times,serif" font-size="14.00" fill="#000000">jNetworkCommonListboxOptionModule</text>
</g>
<!-- jNetworkCommonListboxOptionModule&#45;&gt;jNetworkBootstrap3ListModule -->
<g id="edge4" class="edge">
<title>jNetworkCommonListboxOptionModule&#45;&gt;jNetworkBootstrap3ListModule</title>
<path fill="none" stroke="#000000" d="M247.7046,-122.1061C247.7046,-141.3391 247.7046,-169 247.7046,-169 247.7046,-169 282.3373,-169 282.3373,-169"/>
<polygon fill="#000000" stroke="#000000" points="282.3374,-172.5001 292.3373,-169 282.3373,-165.5001 282.3374,-172.5001"/>
</g>
</g>
</svg>
