<?xml version="1.0" encoding="UTF-8" standalone="no"?>
<!DOCTYPE svg PUBLIC "-//W3C//DTD SVG 1.1//EN"
 "http://www.w3.org/Graphics/SVG/1.1/DTD/svg11.dtd">
<!-- Generated by graphviz version 2.40.1 (20161225.0304)
 -->
<!-- Title: dependencies Pages: 1 -->
<svg width="1626pt" height="349pt"
 viewBox="0.00 0.00 1626.00 349.00" xmlns="http://www.w3.org/2000/svg" xmlns:xlink="http://www.w3.org/1999/xlink">
<g id="graph0" class="graph" transform="scale(1 1) rotate(0) translate(4 345)">
<title>dependencies</title>
<polygon fill="#ffffff" stroke="transparent" points="-4,4 -4,-345 1622,-345 1622,4 -4,4"/>
<text text-anchor="start" x="788.0091" y="-42.4" font-family="sans-serif" font-weight="bold" font-size="14.00" fill="#000000">Legend</text>
<polygon fill="#ffffb3" stroke="transparent" points="575,-10 575,-30 595,-30 595,-10 575,-10"/>
<text text-anchor="start" x="598.629" y="-15.4" font-family="sans-serif" font-size="14.00" fill="#000000"> &#160;Declarations</text>
<polygon fill="#8dd3c7" stroke="transparent" points="688,-10 688,-30 708,-30 708,-10 688,-10"/>
<text text-anchor="start" x="711.7251" y="-15.4" font-family="sans-serif" font-size="14.00" fill="#000000"> &#160;Module</text>
<polygon fill="#80b1d3" stroke="transparent" points="774,-10 774,-30 794,-30 794,-10 774,-10"/>
<text text-anchor="start" x="797.7812" y="-15.4" font-family="sans-serif" font-size="14.00" fill="#000000"> &#160;Bootstrap</text>
<polygon fill="#fdb462" stroke="transparent" points="871,-10 871,-30 891,-30 891,-10 871,-10"/>
<text text-anchor="start" x="894.6732" y="-15.4" font-family="sans-serif" font-size="14.00" fill="#000000"> &#160;Providers</text>
<polygon fill="#fb8072" stroke="transparent" points="967,-10 967,-30 987,-30 987,-10 967,-10"/>
<text text-anchor="start" x="990.7258" y="-15.4" font-family="sans-serif" font-size="14.00" fill="#000000"> &#160;Exports</text>
<g id="clust1" class="cluster">
<title>cluster_JNetworkBootstrap3ListModule</title>
<polygon fill="none" stroke="#000000" stroke-dasharray="1,5" points="8,-70 8,-333 1610,-333 1610,-70 8,-70"/>
</g>
<g id="clust2" class="cluster">
<title>cluster_JNetworkBootstrap3ListModule_declarations</title>
<polygon fill="none" stroke="#000000" points="534,-143 534,-195 1070,-195 1070,-143 534,-143"/>
</g>
<g id="clust3" class="cluster">
<title>cluster_JNetworkBootstrap3ListModule_NgDropdownComponent_providers</title>
<polygon fill="none" stroke="#000000" points="16,-78 16,-130 1602,-130 1602,-78 16,-78"/>
</g>
<g id="clust6" class="cluster">
<title>cluster_JNetworkBootstrap3ListModule_imports</title>
<polygon fill="none" stroke="#000000" points="262,-143 262,-195 526,-195 526,-143 262,-143"/>
</g>
<g id="clust7" class="cluster">
<title>cluster_JNetworkBootstrap3ListModule_exports</title>
<polygon fill="none" stroke="#000000" points="439,-273 439,-325 985,-325 985,-273 439,-273"/>
</g>
<!-- NgDropdownComponent -->
<g id="node1" class="node">
<title>NgDropdownComponent</title>
<polygon fill="#ffffb3" stroke="#000000" points="1062.3131,-187 903.6869,-187 903.6869,-151 1062.3131,-151 1062.3131,-187"/>
<text text-anchor="middle" x="983" y="-164.8" font-family="Times,serif" font-size="14.00" fill="#000000">NgDropdownComponent</text>
</g>
<!-- JNetworkBootstrap3ListModule -->
<g id="node4" class="node">
<title>JNetworkBootstrap3ListModule</title>
<polygon fill="#8dd3c7" stroke="#000000" points="801.6895,-252 798.6895,-256 777.6895,-256 774.6895,-252 604.3105,-252 604.3105,-216 801.6895,-216 801.6895,-252"/>
<text text-anchor="middle" x="703" y="-229.8" font-family="Times,serif" font-size="14.00" fill="#000000">JNetworkBootstrap3ListModule</text>
</g>
<!-- NgDropdownComponent&#45;&gt;JNetworkBootstrap3ListModule -->
<g id="edge1" class="edge">
<title>NgDropdownComponent&#45;&gt;JNetworkBootstrap3ListModule</title>
<path fill="none" stroke="#000000" d="M940.375,-187.0225C940.375,-204.3734 940.375,-228 940.375,-228 940.375,-228 811.6062,-228 811.6062,-228"/>
<polygon fill="#000000" stroke="#000000" points="811.6062,-224.5001 801.6062,-228 811.6061,-231.5001 811.6062,-224.5001"/>
</g>
<!-- NgDropdownOptionDirective -->
<g id="node2" class="node">
<title>NgDropdownOptionDirective</title>
<polygon fill="#ffffb3" stroke="#000000" points="885.951,-187 702.049,-187 702.049,-151 885.951,-151 885.951,-187"/>
<text text-anchor="middle" x="794" y="-164.8" font-family="Times,serif" font-size="14.00" fill="#000000">NgDropdownOptionDirective</text>
</g>
<!-- NgDropdownOptionDirective&#45;&gt;JNetworkBootstrap3ListModule -->
<g id="edge4" class="edge">
<title>NgDropdownOptionDirective&#45;&gt;JNetworkBootstrap3ListModule</title>
<path fill="none" stroke="#000000" d="M751.8096,-187.1061C751.8096,-187.1061 751.8096,-205.991 751.8096,-205.991"/>
<polygon fill="#000000" stroke="#000000" points="748.3097,-205.9909 751.8096,-215.991 755.3097,-205.991 748.3097,-205.9909"/>
</g>
<!-- NgListboxComponent -->
<g id="node3" class="node">
<title>NgListboxComponent</title>
<polygon fill="#ffffb3" stroke="#000000" points="683.7176,-187 542.2824,-187 542.2824,-151 683.7176,-151 683.7176,-187"/>
<text text-anchor="middle" x="613" y="-164.8" font-family="Times,serif" font-size="14.00" fill="#000000">NgListboxComponent</text>
</g>
<!-- NgListboxComponent&#45;&gt;JNetworkBootstrap3ListModule -->
<g id="edge5" class="edge">
<title>NgListboxComponent&#45;&gt;JNetworkBootstrap3ListModule</title>
<path fill="none" stroke="#000000" d="M644.007,-187.1061C644.007,-187.1061 644.007,-205.991 644.007,-205.991"/>
<polygon fill="#000000" stroke="#000000" points="640.5071,-205.9909 644.007,-215.991 647.5071,-205.991 640.5071,-205.9909"/>
</g>
<!-- NgDropdownComponent  -->
<g id="node8" class="node">
<title>NgDropdownComponent </title>
<polygon fill="#fb8072" stroke="#000000" points="976.8129,-317 815.1871,-317 815.1871,-281 976.8129,-281 976.8129,-317"/>
<text text-anchor="middle" x="896" y="-294.8" font-family="Times,serif" font-size="14.00" fill="#000000">NgDropdownComponent </text>
</g>
<!-- JNetworkBootstrap3ListModule&#45;&gt;NgDropdownComponent  -->
<g id="edge7" class="edge">
<title>JNetworkBootstrap3ListModule&#45;&gt;NgDropdownComponent </title>
<path fill="none" stroke="#000000" stroke-dasharray="5,2" d="M801.8173,-240C828.6929,-240 850.5346,-240 850.5346,-240 850.5346,-240 850.5346,-270.9775 850.5346,-270.9775"/>
<polygon fill="#000000" stroke="#000000" points="847.0346,-270.9774 850.5346,-280.9775 854.0346,-270.9775 847.0346,-270.9774"/>
</g>
<!-- NgDropdownOptionDirective  -->
<g id="node9" class="node">
<title>NgDropdownOptionDirective </title>
<polygon fill="#fb8072" stroke="#000000" points="796.9515,-317 609.0485,-317 609.0485,-281 796.9515,-281 796.9515,-317"/>
<text text-anchor="middle" x="703" y="-294.8" font-family="Times,serif" font-size="14.00" fill="#000000">NgDropdownOptionDirective </text>
</g>
<!-- JNetworkBootstrap3ListModule&#45;&gt;NgDropdownOptionDirective  -->
<g id="edge8" class="edge">
<title>JNetworkBootstrap3ListModule&#45;&gt;NgDropdownOptionDirective </title>
<path fill="none" stroke="#000000" stroke-dasharray="5,2" d="M703,-252.1061C703,-252.1061 703,-270.991 703,-270.991"/>
<polygon fill="#000000" stroke="#000000" points="699.5001,-270.9909 703,-280.991 706.5001,-270.991 699.5001,-270.9909"/>
</g>
<!-- NgListboxComponent  -->
<g id="node10" class="node">
<title>NgListboxComponent </title>
<polygon fill="#fb8072" stroke="#000000" points="591.2177,-317 446.7823,-317 446.7823,-281 591.2177,-281 591.2177,-317"/>
<text text-anchor="middle" x="519" y="-294.8" font-family="Times,serif" font-size="14.00" fill="#000000">NgListboxComponent </text>
</g>
<!-- JNetworkBootstrap3ListModule&#45;&gt;NgListboxComponent  -->
<g id="edge9" class="edge">
<title>JNetworkBootstrap3ListModule&#45;&gt;NgListboxComponent </title>
<path fill="none" stroke="#000000" stroke-dasharray="5,2" d="M604.0718,-240C582.9601,-240 566.875,-240 566.875,-240 566.875,-240 566.875,-270.9775 566.875,-270.9775"/>
<polygon fill="#000000" stroke="#000000" points="563.3751,-270.9774 566.875,-280.9775 570.3751,-270.9775 563.3751,-270.9774"/>
</g>
<!-- { provide: NG_VALUE_ACCESSOR, multi: true, useExisting: NgDropdownComponent } -->
<g id="node5" class="node">
<title>{ provide: NG_VALUE_ACCESSOR, multi: true, useExisting: NgDropdownComponent }</title>
<ellipse fill="#fdb462" stroke="#000000" cx="1230" cy="-104" rx="364.3551" ry="18"/>
<text text-anchor="middle" x="1230" y="-99.8" font-family="Times,serif" font-size="14.00" fill="#000000">{ provide: NG_VALUE_ACCESSOR, multi: true, useExisting: NgDropdownComponent }</text>
</g>
<!-- { provide: NG_VALUE_ACCESSOR, multi: true, useExisting: NgDropdownComponent }&#45;&gt;NgDropdownComponent -->
<g id="edge2" class="edge">
<title>{ provide: NG_VALUE_ACCESSOR, multi: true, useExisting: NgDropdownComponent }&#45;&gt;NgDropdownComponent</title>
<path fill="none" stroke="#000000" d="M1009.3855,-118.4256C1009.3855,-118.4256 1009.3855,-140.8939 1009.3855,-140.8939"/>
<polygon fill="#000000" stroke="#000000" points="1005.8856,-140.8938 1009.3855,-150.8939 1012.8856,-140.8939 1005.8856,-140.8938"/>
</g>
<!-- { provide: NG_VALIDATORS, multi: true, useExisting: forwardRef(() =&gt; NgDropdownComponent) } -->
<g id="node6" class="node">
<title>{ provide: NG_VALIDATORS, multi: true, useExisting: forwardRef(() =&gt; NgDropdownComponent) }</title>
<ellipse fill="#fdb462" stroke="#000000" cx="436" cy="-104" rx="411.9914" ry="18"/>
<text text-anchor="middle" x="436" y="-99.8" font-family="Times,serif" font-size="14.00" fill="#000000">{ provide: NG_VALIDATORS, multi: true, useExisting: forwardRef(() =&gt; NgDropdownComponent) }</text>
</g>
<!-- { provide: NG_VALIDATORS, multi: true, useExisting: forwardRef(() =&gt; NgDropdownComponent) }&#45;&gt;NgDropdownComponent -->
<g id="edge3" class="edge">
<title>{ provide: NG_VALIDATORS, multi: true, useExisting: forwardRef(() =&gt; NgDropdownComponent) }&#45;&gt;NgDropdownComponent</title>
<path fill="none" stroke="#000000" d="M774.8851,-114.4414C774.8851,-124.1094 774.8851,-137 774.8851,-137 774.8851,-137 956.6145,-137 956.6145,-137 956.6145,-137 956.6145,-140.7566 956.6145,-140.7566"/>
<polygon fill="#000000" stroke="#000000" points="953.1146,-140.7566 956.6145,-150.7566 960.1146,-140.7566 953.1146,-140.7566"/>
</g>
<!-- JNetworkCommonListboxOptionModule -->
<g id="node7" class="node">
<title>JNetworkCommonListboxOptionModule</title>
<polygon fill="#8dd3c7" stroke="#000000" points="517.7575,-187 514.7575,-191 493.7575,-191 490.7575,-187 270.2425,-187 270.2425,-151 517.7575,-151 517.7575,-187"/>
<text text-anchor="middle" x="394" y="-164.8" font-family="Times,serif" font-size="14.00" fill="#000000">JNetworkCommonListboxOptionModule</text>
</g>
<!-- JNetworkCommonListboxOptionModule&#45;&gt;JNetworkBootstrap3ListModule -->
<g id="edge6" class="edge">
<title>JNetworkCommonListboxOptionModule&#45;&gt;JNetworkBootstrap3ListModule</title>
<path fill="none" stroke="#000000" d="M482.26,-187.0225C482.26,-204.3734 482.26,-228 482.26,-228 482.26,-228 594.2514,-228 594.2514,-228"/>
<polygon fill="#000000" stroke="#000000" points="594.2514,-231.5001 604.2514,-228 594.2514,-224.5001 594.2514,-231.5001"/>
</g>
</g>
</svg>
