<?xml version="1.0" encoding="UTF-8" standalone="no"?>
<!DOCTYPE svg PUBLIC "-//W3C//DTD SVG 1.1//EN"
 "http://www.w3.org/Graphics/SVG/1.1/DTD/svg11.dtd">
<!-- Generated by graphviz version 2.40.1 (20161225.0304)
 -->
<!-- Title: dependencies Pages: 1 -->
<svg width="1446pt" height="349pt"
 viewBox="0.00 0.00 1446.00 349.00" xmlns="http://www.w3.org/2000/svg" xmlns:xlink="http://www.w3.org/1999/xlink">
<g id="graph0" class="graph" transform="scale(1 1) rotate(0) translate(4 345)">
<title>dependencies</title>
<polygon fill="#ffffff" stroke="transparent" points="-4,4 -4,-345 1442,-345 1442,4 -4,4"/>
<text text-anchor="start" x="698.0091" y="-42.4" font-family="sans-serif" font-weight="bold" font-size="14.00" fill="#000000">Legend</text>
<polygon fill="#ffffb3" stroke="transparent" points="485,-10 485,-30 505,-30 505,-10 485,-10"/>
<text text-anchor="start" x="508.629" y="-15.4" font-family="sans-serif" font-size="14.00" fill="#000000"> &#160;Declarations</text>
<polygon fill="#8dd3c7" stroke="transparent" points="598,-10 598,-30 618,-30 618,-10 598,-10"/>
<text text-anchor="start" x="621.7251" y="-15.4" font-family="sans-serif" font-size="14.00" fill="#000000"> &#160;Module</text>
<polygon fill="#80b1d3" stroke="transparent" points="684,-10 684,-30 704,-30 704,-10 684,-10"/>
<text text-anchor="start" x="707.7812" y="-15.4" font-family="sans-serif" font-size="14.00" fill="#000000"> &#160;Bootstrap</text>
<polygon fill="#fdb462" stroke="transparent" points="781,-10 781,-30 801,-30 801,-10 781,-10"/>
<text text-anchor="start" x="804.6732" y="-15.4" font-family="sans-serif" font-size="14.00" fill="#000000"> &#160;Providers</text>
<polygon fill="#fb8072" stroke="transparent" points="877,-10 877,-30 897,-30 897,-10 877,-10"/>
<text text-anchor="start" x="900.7258" y="-15.4" font-family="sans-serif" font-size="14.00" fill="#000000"> &#160;Exports</text>
<g id="clust1" class="cluster">
<title>cluster_jNetworkBootstrap3ListModule</title>
<polygon fill="none" stroke="#000000" stroke-dasharray="1,5" points="8,-70 8,-333 1430,-333 1430,-70 8,-70"/>
</g>
<g id="clust2" class="cluster">
<title>cluster_jNetworkBootstrap3ListModule_declarations</title>
<polygon fill="none" stroke="#000000" points="541,-143 541,-195 893,-195 893,-143 541,-143"/>
</g>
<g id="clust3" class="cluster">
<title>cluster_jNetworkBootstrap3ListModule_NgDropdown_providers</title>
<polygon fill="none" stroke="#000000" points="16,-78 16,-130 1422,-130 1422,-78 16,-78"/>
</g>
<g id="clust6" class="cluster">
<title>cluster_jNetworkBootstrap3ListModule_imports</title>
<polygon fill="none" stroke="#000000" points="271,-143 271,-195 533,-195 533,-143 271,-143"/>
</g>
<g id="clust7" class="cluster">
<title>cluster_jNetworkBootstrap3ListModule_exports</title>
<polygon fill="none" stroke="#000000" points="475,-273 475,-325 838,-325 838,-273 475,-273"/>
</g>
<!-- NgDropdown -->
<g id="node1" class="node">
<title>NgDropdown</title>
<polygon fill="#ffffb3" stroke="#000000" points="885.4804,-187 792.5196,-187 792.5196,-151 885.4804,-151 885.4804,-187"/>
<text text-anchor="middle" x="839" y="-164.8" font-family="Times,serif" font-size="14.00" fill="#000000">NgDropdown</text>
</g>
<!-- jNetworkBootstrap3ListModule -->
<g id="node4" class="node">
<title>jNetworkBootstrap3ListModule</title>
<polygon fill="#8dd3c7" stroke="#000000" points="745.6357,-252 742.6357,-256 721.6357,-256 718.6357,-252 550.3643,-252 550.3643,-216 745.6357,-216 745.6357,-252"/>
<text text-anchor="middle" x="648" y="-229.8" font-family="Times,serif" font-size="14.00" fill="#000000">jNetworkBootstrap3ListModule</text>
</g>
<!-- NgDropdown&#45;&gt;jNetworkBootstrap3ListModule -->
<g id="edge1" class="edge">
<title>NgDropdown&#45;&gt;jNetworkBootstrap3ListModule</title>
<path fill="none" stroke="#000000" d="M811.375,-187.1061C811.375,-206.3391 811.375,-234 811.375,-234 811.375,-234 755.8655,-234 755.8655,-234"/>
<polygon fill="#000000" stroke="#000000" points="755.8655,-230.5001 745.8655,-234 755.8655,-237.5001 755.8655,-230.5001"/>
</g>
<!-- NgDropdownOption -->
<g id="node2" class="node">
<title>NgDropdownOption</title>
<polygon fill="#ffffb3" stroke="#000000" points="774.8683,-187 643.1317,-187 643.1317,-151 774.8683,-151 774.8683,-187"/>
<text text-anchor="middle" x="709" y="-164.8" font-family="Times,serif" font-size="14.00" fill="#000000">NgDropdownOption</text>
</g>
<!-- NgDropdownOption&#45;&gt;jNetworkBootstrap3ListModule -->
<g id="edge4" class="edge">
<title>NgDropdownOption&#45;&gt;jNetworkBootstrap3ListModule</title>
<path fill="none" stroke="#000000" d="M694.4418,-187.1061C694.4418,-187.1061 694.4418,-205.991 694.4418,-205.991"/>
<polygon fill="#000000" stroke="#000000" points="690.9419,-205.9909 694.4418,-215.991 697.9419,-205.991 690.9419,-205.9909"/>
</g>
<!-- NgListbox -->
<g id="node3" class="node">
<title>NgListbox</title>
<polygon fill="#ffffb3" stroke="#000000" points="624.8851,-187 549.1149,-187 549.1149,-151 624.8851,-151 624.8851,-187"/>
<text text-anchor="middle" x="587" y="-164.8" font-family="Times,serif" font-size="14.00" fill="#000000">NgListbox</text>
</g>
<!-- NgListbox&#45;&gt;jNetworkBootstrap3ListModule -->
<g id="edge5" class="edge">
<title>NgListbox&#45;&gt;jNetworkBootstrap3ListModule</title>
<path fill="none" stroke="#000000" d="M587.5624,-187.1061C587.5624,-187.1061 587.5624,-205.991 587.5624,-205.991"/>
<polygon fill="#000000" stroke="#000000" points="584.0625,-205.9909 587.5624,-215.991 591.0625,-205.991 584.0625,-205.9909"/>
</g>
<!-- NgDropdown  -->
<g id="node8" class="node">
<title>NgDropdown </title>
<polygon fill="#fb8072" stroke="#000000" points="830.4816,-317 733.5184,-317 733.5184,-281 830.4816,-281 830.4816,-317"/>
<text text-anchor="middle" x="782" y="-294.8" font-family="Times,serif" font-size="14.00" fill="#000000">NgDropdown </text>
</g>
<!-- jNetworkBootstrap3ListModule&#45;&gt;NgDropdown  -->
<g id="edge7" class="edge">
<title>jNetworkBootstrap3ListModule&#45;&gt;NgDropdown </title>
<path fill="none" stroke="#000000" stroke-dasharray="5,2" d="M739.7888,-252.1061C739.7888,-252.1061 739.7888,-270.991 739.7888,-270.991"/>
<polygon fill="#000000" stroke="#000000" points="736.2888,-270.9909 739.7888,-280.991 743.2888,-270.991 736.2888,-270.9909"/>
</g>
<!-- NgDropdownOption  -->
<g id="node9" class="node">
<title>NgDropdownOption </title>
<polygon fill="#fb8072" stroke="#000000" points="715.8687,-317 580.1313,-317 580.1313,-281 715.8687,-281 715.8687,-317"/>
<text text-anchor="middle" x="648" y="-294.8" font-family="Times,serif" font-size="14.00" fill="#000000">NgDropdownOption </text>
</g>
<!-- jNetworkBootstrap3ListModule&#45;&gt;NgDropdownOption  -->
<g id="edge8" class="edge">
<title>jNetworkBootstrap3ListModule&#45;&gt;NgDropdownOption </title>
<path fill="none" stroke="#000000" stroke-dasharray="5,2" d="M648,-252.1061C648,-252.1061 648,-270.991 648,-270.991"/>
<polygon fill="#000000" stroke="#000000" points="644.5001,-270.9909 648,-280.991 651.5001,-270.991 644.5001,-270.9909"/>
</g>
<!-- NgListbox  -->
<g id="node10" class="node">
<title>NgListbox </title>
<polygon fill="#fb8072" stroke="#000000" points="562.8859,-317 483.1141,-317 483.1141,-281 562.8859,-281 562.8859,-317"/>
<text text-anchor="middle" x="523" y="-294.8" font-family="Times,serif" font-size="14.00" fill="#000000">NgListbox </text>
</g>
<!-- jNetworkBootstrap3ListModule&#45;&gt;NgListbox  -->
<g id="edge9" class="edge">
<title>jNetworkBootstrap3ListModule&#45;&gt;NgListbox </title>
<path fill="none" stroke="#000000" stroke-dasharray="5,2" d="M556.4374,-252.1061C556.4374,-252.1061 556.4374,-270.991 556.4374,-270.991"/>
<polygon fill="#000000" stroke="#000000" points="552.9375,-270.9909 556.4374,-280.991 559.9375,-270.991 552.9375,-270.9909"/>
</g>
<!-- { provide: NG_VALUE_ACCESSOR, multi: true, useExisting: NgDropdown } -->
<g id="node5" class="node">
<title>{ provide: NG_VALUE_ACCESSOR, multi: true, useExisting: NgDropdown }</title>
<ellipse fill="#fdb462" stroke="#000000" cx="1095" cy="-104" rx="319.225" ry="18"/>
<text text-anchor="middle" x="1095" y="-99.8" font-family="Times,serif" font-size="14.00" fill="#000000">{ provide: NG_VALUE_ACCESSOR, multi: true, useExisting: NgDropdown }</text>
</g>
<!-- { provide: NG_VALUE_ACCESSOR, multi: true, useExisting: NgDropdown }&#45;&gt;NgDropdown -->
<g id="edge2" class="edge">
<title>{ provide: NG_VALUE_ACCESSOR, multi: true, useExisting: NgDropdown }&#45;&gt;NgDropdown</title>
<path fill="none" stroke="#000000" d="M854.4967,-115.922C854.4967,-115.922 854.4967,-140.7669 854.4967,-140.7669"/>
<polygon fill="#000000" stroke="#000000" points="850.9968,-140.7669 854.4967,-150.7669 857.9968,-140.7669 850.9968,-140.7669"/>
</g>
<!-- { provide: NG_VALIDATORS, multi: true, useExisting: forwardRef(() =&gt; NgDropdown) } -->
<g id="node6" class="node">
<title>{ provide: NG_VALIDATORS, multi: true, useExisting: forwardRef(() =&gt; NgDropdown) }</title>
<ellipse fill="#fdb462" stroke="#000000" cx="391" cy="-104" rx="366.8612" ry="18"/>
<text text-anchor="middle" x="391" y="-99.8" font-family="Times,serif" font-size="14.00" fill="#000000">{ provide: NG_VALIDATORS, multi: true, useExisting: forwardRef(() =&gt; NgDropdown) }</text>
</g>
<!-- { provide: NG_VALIDATORS, multi: true, useExisting: forwardRef(() =&gt; NgDropdown) }&#45;&gt;NgDropdown -->
<g id="edge3" class="edge">
<title>{ provide: NG_VALIDATORS, multi: true, useExisting: forwardRef(() =&gt; NgDropdown) }&#45;&gt;NgDropdown</title>
<path fill="none" stroke="#000000" d="M700.3732,-113.7226C700.3732,-123.4568 700.3732,-137 700.3732,-137 700.3732,-137 823.5033,-137 823.5033,-137 823.5033,-137 823.5033,-140.7566 823.5033,-140.7566"/>
<polygon fill="#000000" stroke="#000000" points="820.0034,-140.7566 823.5033,-150.7566 827.0034,-140.7566 820.0034,-140.7566"/>
</g>
<!-- jNetworkCommonListboxOptionModule -->
<g id="node7" class="node">
<title>jNetworkCommonListboxOptionModule</title>
<polygon fill="#8dd3c7" stroke="#000000" points="525.2035,-187 522.2035,-191 501.2035,-191 498.2035,-187 278.7965,-187 278.7965,-151 525.2035,-151 525.2035,-187"/>
<text text-anchor="middle" x="402" y="-164.8" font-family="Times,serif" font-size="14.00" fill="#000000">jNetworkCommonListboxOptionModule</text>
</g>
<!-- jNetworkCommonListboxOptionModule&#45;&gt;jNetworkBootstrap3ListModule -->
<g id="edge6" class="edge">
<title>jNetworkCommonListboxOptionModule&#45;&gt;jNetworkBootstrap3ListModule</title>
<path fill="none" stroke="#000000" d="M504.2046,-187.1061C504.2046,-206.3391 504.2046,-234 504.2046,-234 504.2046,-234 540.0977,-234 540.0977,-234"/>
<polygon fill="#000000" stroke="#000000" points="540.0978,-237.5001 550.0977,-234 540.0977,-230.5001 540.0978,-237.5001"/>
</g>
</g>
</svg>
