<?xml version="1.0" encoding="UTF-8" standalone="no"?>
<!DOCTYPE svg PUBLIC "-//W3C//DTD SVG 1.1//EN"
 "http://www.w3.org/Graphics/SVG/1.1/DTD/svg11.dtd">
<!-- Generated by graphviz version 2.47.3 (20210619.1520)
 -->
<!-- Title: dependencies Pages: 1 -->
<svg width="1936pt" height="358pt"
 viewBox="0.00 0.00 1936.00 358.39" xmlns="http://www.w3.org/2000/svg" xmlns:xlink="http://www.w3.org/1999/xlink">
<g id="graph0" class="graph" transform="scale(1 1) rotate(0) translate(4 354.39)">
<title>dependencies</title>
<polygon fill="white" stroke="transparent" points="-4,4 -4,-354.39 1932,-354.39 1932,4 -4,4"/>
<text text-anchor="middle" x="964" y="-8.2" font-family="sans-serif" font-size="14.00">dependencies</text>
<g id="clust1" class="cluster">
<title>cluster_JNetworkBootstrap4FormModule</title>
<polygon fill="none" stroke="black" stroke-dasharray="1,5" points="8,-32.8 8,-342.39 1920,-342.39 1920,-32.8 8,-32.8"/>
</g>
<g id="clust4" class="cluster">
<title>cluster_JNetworkBootstrap4FormModule_ProvideParentNgFormularDirective_providers</title>
<polygon fill="none" stroke="black" points="178,-40.8 178,-204.39 1912,-204.39 1912,-40.8 178,-40.8"/>
</g>
<g id="clust2" class="cluster">
<title>cluster_JNetworkBootstrap4FormModule_declarations</title>
<polygon fill="none" stroke="black" points="16,-152.39 16,-204.39 170,-204.39 170,-152.39 16,-152.39"/>
</g>
<g id="clust6" class="cluster">
<title>cluster_JNetworkBootstrap4FormModule_exports</title>
<polygon fill="none" stroke="black" points="213,-282.39 213,-334.39 607,-334.39 607,-282.39 213,-282.39"/>
</g>
<!-- NgFormularDirective -->
<g id="node1" class="node">
<title>NgFormularDirective</title>
<polygon fill="#ffffb3" stroke="black" points="161.79,-196.39 24.21,-196.39 24.21,-160.39 161.79,-160.39 161.79,-196.39"/>
<text text-anchor="middle" x="93" y="-174.19" font-family="Times,serif" font-size="14.00">NgFormularDirective</text>
</g>
<!-- JNetworkBootstrap4FormModule -->
<g id="node3" class="node">
<title>JNetworkBootstrap4FormModule</title>
<polygon fill="#8dd3c7" stroke="black" points="531.74,-261.39 528.74,-265.39 507.74,-265.39 504.74,-261.39 326.26,-261.39 326.26,-225.39 531.74,-225.39 531.74,-261.39"/>
<text text-anchor="middle" x="429" y="-239.19" font-family="Times,serif" font-size="14.00">JNetworkBootstrap4FormModule</text>
</g>
<!-- NgFormularDirective&#45;&gt;JNetworkBootstrap4FormModule -->
<g id="edge1" class="edge">
<title>NgFormularDirective&#45;&gt;JNetworkBootstrap4FormModule</title>
<path fill="none" stroke="black" d="M161.83,-178.39C244.71,-178.39 372.91,-178.39 372.91,-178.39 372.91,-178.39 372.91,-215.28 372.91,-215.28"/>
<polygon fill="black" stroke="black" points="369.41,-215.28 372.91,-225.28 376.41,-215.28 369.41,-215.28"/>
</g>
<!-- ProvideParentNgFormularDirective -->
<g id="node2" class="node">
<title>ProvideParentNgFormularDirective</title>
<polygon fill="#ffffb3" stroke="black" points="636.1,-196.39 419.9,-196.39 419.9,-160.39 636.1,-160.39 636.1,-196.39"/>
<text text-anchor="middle" x="528" y="-174.19" font-family="Times,serif" font-size="14.00">ProvideParentNgFormularDirective</text>
</g>
<!-- ProvideParentNgFormularDirective&#45;&gt;JNetworkBootstrap4FormModule -->
<g id="edge2" class="edge">
<title>ProvideParentNgFormularDirective&#45;&gt;JNetworkBootstrap4FormModule</title>
<path fill="none" stroke="black" d="M475.79,-196.5C475.79,-196.5 475.79,-215.38 475.79,-215.38"/>
<polygon fill="black" stroke="black" points="472.29,-215.38 475.79,-225.38 479.29,-215.38 472.29,-215.38"/>
</g>
<!-- NgFormularDirective  -->
<g id="node6" class="node">
<title>NgFormularDirective </title>
<polygon fill="#fb8072" stroke="black" points="599.29,-326.39 458.71,-326.39 458.71,-290.39 599.29,-290.39 599.29,-326.39"/>
<text text-anchor="middle" x="529" y="-304.19" font-family="Times,serif" font-size="14.00">NgFormularDirective </text>
</g>
<!-- JNetworkBootstrap4FormModule&#45;&gt;NgFormularDirective  -->
<g id="edge5" class="edge">
<title>JNetworkBootstrap4FormModule&#45;&gt;NgFormularDirective </title>
<path fill="none" stroke="black" stroke-dasharray="5,2" d="M495.24,-261.5C495.24,-261.5 495.24,-280.38 495.24,-280.38"/>
<polygon fill="black" stroke="black" points="491.74,-280.38 495.24,-290.38 498.74,-280.38 491.74,-280.38"/>
</g>
<!-- ProvideParentNgFormularDirective  -->
<g id="node7" class="node">
<title>ProvideParentNgFormularDirective </title>
<polygon fill="#fb8072" stroke="black" points="441.1,-326.39 220.9,-326.39 220.9,-290.39 441.1,-290.39 441.1,-326.39"/>
<text text-anchor="middle" x="331" y="-304.19" font-family="Times,serif" font-size="14.00">ProvideParentNgFormularDirective </text>
</g>
<!-- JNetworkBootstrap4FormModule&#45;&gt;ProvideParentNgFormularDirective  -->
<g id="edge6" class="edge">
<title>JNetworkBootstrap4FormModule&#45;&gt;ProvideParentNgFormularDirective </title>
<path fill="none" stroke="black" stroke-dasharray="5,2" d="M383.59,-261.5C383.59,-261.5 383.59,-280.38 383.59,-280.38"/>
<polygon fill="black" stroke="black" points="380.09,-280.38 383.59,-290.38 387.09,-280.38 380.09,-280.38"/>
</g>
<!-- {
 &#160;&#160;&#160;provide: NgFormularDirective, useFactory: NGFORMULAR_FACTORY, deps: [[new SkipSelf(), NgFormularDirective]]
} -->
<g id="node4" class="node">
<title>{
 &#160;&#160;&#160;provide: NgFormularDirective, useFactory: NGFORMULAR_FACTORY, deps: [[new SkipSelf(), NgFormularDirective]]
}</title>
<ellipse fill="#fdb462" stroke="black" cx="1396" cy="-90.1" rx="508.2" ry="41.09"/>
<text text-anchor="middle" x="1396" y="-102.7" font-family="Times,serif" font-size="14.00">{</text>
<text text-anchor="middle" x="1396" y="-85.9" font-family="Times,serif" font-size="14.00"> &#160;&#160;&#160;provide: NgFormularDirective, useFactory: NGFORMULAR_FACTORY, deps: [[new SkipSelf(), NgFormularDirective]]</text>
<text text-anchor="middle" x="1396" y="-69.1" font-family="Times,serif" font-size="14.00">}</text>
</g>
<!-- {
 &#160;&#160;&#160;provide: NgFormularDirective, useFactory: NGFORMULAR_FACTORY, deps: [[new SkipSelf(), NgFormularDirective]]
}&#45;&gt;ProvideParentNgFormularDirective -->
<g id="edge3" class="edge">
<title>{
 &#160;&#160;&#160;provide: NgFormularDirective, useFactory: NGFORMULAR_FACTORY, deps: [[new SkipSelf(), NgFormularDirective]]
}&#45;&gt;ProvideParentNgFormularDirective</title>
<path fill="none" stroke="black" d="M1396,-131.4C1396,-154.38 1396,-178.39 1396,-178.39 1396,-178.39 646.18,-178.39 646.18,-178.39"/>
<polygon fill="black" stroke="black" points="646.18,-174.89 636.18,-178.39 646.18,-181.89 646.18,-174.89"/>
</g>
<!-- {
 &#160;&#160;&#160;provide: ControlContainer, useFactory: NGFORM_FACTORY, deps: [NgForm]
} -->
<g id="node5" class="node">
<title>{
 &#160;&#160;&#160;provide: ControlContainer, useFactory: NGFORM_FACTORY, deps: [NgForm]
}</title>
<ellipse fill="#fdb462" stroke="black" cx="528" cy="-90.1" rx="341.53" ry="41.09"/>
<text text-anchor="middle" x="528" y="-102.7" font-family="Times,serif" font-size="14.00">{</text>
<text text-anchor="middle" x="528" y="-85.9" font-family="Times,serif" font-size="14.00"> &#160;&#160;&#160;provide: ControlContainer, useFactory: NGFORM_FACTORY, deps: [NgForm]</text>
<text text-anchor="middle" x="528" y="-69.1" font-family="Times,serif" font-size="14.00">}</text>
</g>
<!-- {
 &#160;&#160;&#160;provide: ControlContainer, useFactory: NGFORM_FACTORY, deps: [NgForm]
}&#45;&gt;ProvideParentNgFormularDirective -->
<g id="edge4" class="edge">
<title>{
 &#160;&#160;&#160;provide: ControlContainer, useFactory: NGFORM_FACTORY, deps: [NgForm]
}&#45;&gt;ProvideParentNgFormularDirective</title>
<path fill="none" stroke="black" d="M528,-131.4C528,-131.4 528,-150.06 528,-150.06"/>
<polygon fill="black" stroke="black" points="524.5,-150.06 528,-160.06 531.5,-150.06 524.5,-150.06"/>
</g>
</g>
</svg>
