<?xml version="1.0" encoding="UTF-8" standalone="no"?>
<!DOCTYPE svg PUBLIC "-//W3C//DTD SVG 1.1//EN"
 "http://www.w3.org/Graphics/SVG/1.1/DTD/svg11.dtd">
<!-- Generated by graphviz version 2.47.3 (20210619.1520)
 -->
<!-- Title: dependencies Pages: 1 -->
<svg width="434pt" height="247pt"
 viewBox="0.00 0.00 434.00 246.80" xmlns="http://www.w3.org/2000/svg" xmlns:xlink="http://www.w3.org/1999/xlink">
<g id="graph0" class="graph" transform="scale(1 1) rotate(0) translate(4 242.8)">
<title>dependencies</title>
<polygon fill="white" stroke="transparent" points="-4,4 -4,-242.8 430,-242.8 430,4 -4,4"/>
<text text-anchor="middle" x="213" y="-8.2" font-family="sans-serif" font-size="14.00">dependencies</text>
<g id="clust1" class="cluster">
<title>cluster_JNetworkBootstrap4FormModule</title>
<polygon fill="none" stroke="black" stroke-dasharray="1,5" points="8,-32.8 8,-230.8 418,-230.8 418,-32.8 8,-32.8"/>
</g>
<g id="clust6" class="cluster">
<title>cluster_JNetworkBootstrap4FormModule_exports</title>
<polygon fill="none" stroke="black" points="16,-170.8 16,-222.8 410,-222.8 410,-170.8 16,-170.8"/>
</g>
<g id="clust2" class="cluster">
<title>cluster_JNetworkBootstrap4FormModule_declarations</title>
<polygon fill="none" stroke="black" points="19,-40.8 19,-92.8 407,-92.8 407,-40.8 19,-40.8"/>
</g>
<!-- NgFormularDirective -->
<g id="node1" class="node">
<title>NgFormularDirective</title>
<polygon fill="#ffffb3" stroke="black" points="398.79,-84.8 261.21,-84.8 261.21,-48.8 398.79,-48.8 398.79,-84.8"/>
<text text-anchor="middle" x="330" y="-62.6" font-family="Times,serif" font-size="14.00">NgFormularDirective</text>
</g>
<!-- JNetworkBootstrap4FormModule -->
<g id="node3" class="node">
<title>JNetworkBootstrap4FormModule</title>
<polygon fill="#8dd3c7" stroke="black" points="238.74,-149.8 235.74,-153.8 214.74,-153.8 211.74,-149.8 33.26,-149.8 33.26,-113.8 238.74,-113.8 238.74,-149.8"/>
<text text-anchor="middle" x="136" y="-127.6" font-family="Times,serif" font-size="14.00">JNetworkBootstrap4FormModule</text>
</g>
<!-- NgFormularDirective&#45;&gt;JNetworkBootstrap4FormModule -->
<g id="edge1" class="edge">
<title>NgFormularDirective&#45;&gt;JNetworkBootstrap4FormModule</title>
<path fill="none" stroke="black" d="M352.96,-84.82C352.96,-102.17 352.96,-125.8 352.96,-125.8 352.96,-125.8 248.76,-125.8 248.76,-125.8"/>
<polygon fill="black" stroke="black" points="248.76,-122.3 238.76,-125.8 248.76,-129.3 248.76,-122.3"/>
</g>
<!-- ProvideParentNgFormularDirective -->
<g id="node2" class="node">
<title>ProvideParentNgFormularDirective</title>
<polygon fill="#ffffb3" stroke="black" points="243.1,-84.8 26.9,-84.8 26.9,-48.8 243.1,-48.8 243.1,-84.8"/>
<text text-anchor="middle" x="135" y="-62.6" font-family="Times,serif" font-size="14.00">ProvideParentNgFormularDirective</text>
</g>
<!-- ProvideParentNgFormularDirective&#45;&gt;JNetworkBootstrap4FormModule -->
<g id="edge2" class="edge">
<title>ProvideParentNgFormularDirective&#45;&gt;JNetworkBootstrap4FormModule</title>
<path fill="none" stroke="black" d="M136,-84.91C136,-84.91 136,-103.79 136,-103.79"/>
<polygon fill="black" stroke="black" points="132.5,-103.79 136,-113.79 139.5,-103.79 132.5,-103.79"/>
</g>
<!-- NgFormularDirective  -->
<g id="node4" class="node">
<title>NgFormularDirective </title>
<polygon fill="#fb8072" stroke="black" points="402.29,-214.8 261.71,-214.8 261.71,-178.8 402.29,-178.8 402.29,-214.8"/>
<text text-anchor="middle" x="332" y="-192.6" font-family="Times,serif" font-size="14.00">NgFormularDirective </text>
</g>
<!-- JNetworkBootstrap4FormModule&#45;&gt;NgFormularDirective  -->
<g id="edge3" class="edge">
<title>JNetworkBootstrap4FormModule&#45;&gt;NgFormularDirective </title>
<path fill="none" stroke="black" stroke-dasharray="5,2" d="M239.1,-137.8C275.37,-137.8 307.29,-137.8 307.29,-137.8 307.29,-137.8 307.29,-168.78 307.29,-168.78"/>
<polygon fill="black" stroke="black" points="303.79,-168.78 307.29,-178.78 310.79,-168.78 303.79,-168.78"/>
</g>
<!-- ProvideParentNgFormularDirective  -->
<g id="node5" class="node">
<title>ProvideParentNgFormularDirective </title>
<polygon fill="#fb8072" stroke="black" points="244.1,-214.8 23.9,-214.8 23.9,-178.8 244.1,-178.8 244.1,-214.8"/>
<text text-anchor="middle" x="134" y="-192.6" font-family="Times,serif" font-size="14.00">ProvideParentNgFormularDirective </text>
</g>
<!-- JNetworkBootstrap4FormModule&#45;&gt;ProvideParentNgFormularDirective  -->
<g id="edge4" class="edge">
<title>JNetworkBootstrap4FormModule&#45;&gt;ProvideParentNgFormularDirective </title>
<path fill="none" stroke="black" stroke-dasharray="5,2" d="M136,-149.91C136,-149.91 136,-168.79 136,-168.79"/>
<polygon fill="black" stroke="black" points="132.5,-168.79 136,-178.79 139.5,-168.79 132.5,-168.79"/>
</g>
</g>
</svg>
