<?xml version="1.0" encoding="UTF-8" standalone="no"?>
<!DOCTYPE svg PUBLIC "-//W3C//DTD SVG 1.1//EN"
 "http://www.w3.org/Graphics/SVG/1.1/DTD/svg11.dtd">
<!-- Generated by graphviz version 2.47.0 (20210316.0004)
 -->
<!-- Title: dependencies Pages: 1 -->
<svg width="504pt" height="284pt"
 viewBox="0.00 0.00 504.00 284.00" xmlns="http://www.w3.org/2000/svg" xmlns:xlink="http://www.w3.org/1999/xlink">
<g id="graph0" class="graph" transform="scale(1 1) rotate(0) translate(4 280)">
<title>dependencies</title>
<polygon fill="white" stroke="transparent" points="-4,4 -4,-280 500,-280 500,4 -4,4"/>
<text text-anchor="start" x="227.01" y="-42.4" font-family="Times-12" font-weight="bold" font-size="14.00">Legend</text>
<polygon fill="#ffffb3" stroke="transparent" points="14,-10 14,-30 34,-30 34,-10 14,-10"/>
<text text-anchor="start" x="37.63" y="-15.4" font-family="Times-12" font-size="14.00"> &#160;Declarations</text>
<polygon fill="#8dd3c7" stroke="transparent" points="127,-10 127,-30 147,-30 147,-10 127,-10"/>
<text text-anchor="start" x="150.73" y="-15.4" font-family="Times-12" font-size="14.00"> &#160;Module</text>
<polygon fill="#80b1d3" stroke="transparent" points="213,-10 213,-30 233,-30 233,-10 213,-10"/>
<text text-anchor="start" x="236.78" y="-15.4" font-family="Times-12" font-size="14.00"> &#160;Bootstrap</text>
<polygon fill="#fdb462" stroke="transparent" points="310,-10 310,-30 330,-30 330,-10 310,-10"/>
<text text-anchor="start" x="333.67" y="-15.4" font-family="Times-12" font-size="14.00"> &#160;Providers</text>
<polygon fill="#fb8072" stroke="transparent" points="406,-10 406,-30 426,-30 426,-10 406,-10"/>
<text text-anchor="start" x="429.73" y="-15.4" font-family="Times-12" font-size="14.00"> &#160;Exports</text>
<g id="clust1" class="cluster">
<title>cluster_SACBootstrap4ListModule</title>
<polygon fill="none" stroke="black" stroke-dasharray="1,5" points="65.5,-70 65.5,-268 430.5,-268 430.5,-70 65.5,-70"/>
</g>
<g id="clust2" class="cluster">
<title>cluster_SACBootstrap4ListModule_declarations</title>
<polygon fill="none" stroke="black" points="77.5,-78 77.5,-130 419.5,-130 419.5,-78 77.5,-78"/>
</g>
<g id="clust6" class="cluster">
<title>cluster_SACBootstrap4ListModule_exports</title>
<polygon fill="none" stroke="black" points="73.5,-208 73.5,-260 422.5,-260 422.5,-208 73.5,-208"/>
</g>
<!-- NgListboxComponent -->
<g id="node1" class="node">
<title>NgListboxComponent</title>
<polygon fill="#ffffb3" stroke="black" points="411.22,-122 269.78,-122 269.78,-86 411.22,-86 411.22,-122"/>
<text text-anchor="middle" x="340.5" y="-99.8" font-family="Times,serif" font-size="14.00">NgListboxComponent</text>
</g>
<!-- SACBootstrap4ListModule -->
<g id="node3" class="node">
<title>SACBootstrap4ListModule</title>
<polygon fill="#8dd3c7" stroke="black" points="254.49,-187 251.49,-191 230.49,-191 227.49,-187 84.51,-187 84.51,-151 254.49,-151 254.49,-187"/>
<text text-anchor="middle" x="169.5" y="-164.8" font-family="Times,serif" font-size="14.00">SACBootstrap4ListModule</text>
</g>
<!-- NgListboxComponent&#45;&gt;SACBootstrap4ListModule -->
<g id="edge1" class="edge">
<title>NgListboxComponent&#45;&gt;SACBootstrap4ListModule</title>
<path fill="none" stroke="black" d="M364.12,-122.02C364.12,-139.37 364.12,-163 364.12,-163 364.12,-163 264.58,-163 264.58,-163"/>
<polygon fill="black" stroke="black" points="264.58,-159.5 254.58,-163 264.58,-166.5 264.58,-159.5"/>
</g>
<!-- NgListboxOptionDirective -->
<g id="node2" class="node">
<title>NgListboxOptionDirective</title>
<polygon fill="#ffffb3" stroke="black" points="251.86,-122 85.14,-122 85.14,-86 251.86,-86 251.86,-122"/>
<text text-anchor="middle" x="168.5" y="-99.8" font-family="Times,serif" font-size="14.00">NgListboxOptionDirective</text>
</g>
<!-- NgListboxOptionDirective&#45;&gt;SACBootstrap4ListModule -->
<g id="edge2" class="edge">
<title>NgListboxOptionDirective&#45;&gt;SACBootstrap4ListModule</title>
<path fill="none" stroke="black" d="M168.5,-122.11C168.5,-122.11 168.5,-140.99 168.5,-140.99"/>
<polygon fill="black" stroke="black" points="165,-140.99 168.5,-150.99 172,-140.99 165,-140.99"/>
</g>
<!-- NgListboxComponent  -->
<g id="node4" class="node">
<title>NgListboxComponent </title>
<polygon fill="#fb8072" stroke="black" points="414.72,-252 270.28,-252 270.28,-216 414.72,-216 414.72,-252"/>
<text text-anchor="middle" x="342.5" y="-229.8" font-family="Times,serif" font-size="14.00">NgListboxComponent </text>
</g>
<!-- SACBootstrap4ListModule&#45;&gt;NgListboxComponent  -->
<g id="edge3" class="edge">
<title>SACBootstrap4ListModule&#45;&gt;NgListboxComponent </title>
<path fill="none" stroke="black" stroke-dasharray="5,2" d="M254.52,-175C287.34,-175 317.13,-175 317.13,-175 317.13,-175 317.13,-205.98 317.13,-205.98"/>
<polygon fill="black" stroke="black" points="313.63,-205.98 317.13,-215.98 320.63,-205.98 313.63,-205.98"/>
</g>
<!-- NgListboxOptionDirective  -->
<g id="node5" class="node">
<title>NgListboxOptionDirective </title>
<polygon fill="#fb8072" stroke="black" points="251.86,-252 81.14,-252 81.14,-216 251.86,-216 251.86,-252"/>
<text text-anchor="middle" x="166.5" y="-229.8" font-family="Times,serif" font-size="14.00">NgListboxOptionDirective </text>
</g>
<!-- SACBootstrap4ListModule&#45;&gt;NgListboxOptionDirective  -->
<g id="edge4" class="edge">
<title>SACBootstrap4ListModule&#45;&gt;NgListboxOptionDirective </title>
<path fill="none" stroke="black" stroke-dasharray="5,2" d="M168.09,-187.11C168.09,-187.11 168.09,-205.99 168.09,-205.99"/>
<polygon fill="black" stroke="black" points="164.59,-205.99 168.09,-215.99 171.59,-205.99 164.59,-205.99"/>
</g>
</g>
</svg>
