<?xml version="1.0" encoding="UTF-8" standalone="no"?>
<!DOCTYPE svg PUBLIC "-//W3C//DTD SVG 1.1//EN"
 "http://www.w3.org/Graphics/SVG/1.1/DTD/svg11.dtd">
<!-- Generated by graphviz version 2.47.0 (20210316.0004)
 -->
<!-- Title: dependencies Pages: 1 -->
<svg width="834pt" height="284pt"
 viewBox="0.00 0.00 834.00 284.00" xmlns="http://www.w3.org/2000/svg" xmlns:xlink="http://www.w3.org/1999/xlink">
<g id="graph0" class="graph" transform="scale(1 1) rotate(0) translate(4 280)">
<title>dependencies</title>
<polygon fill="white" stroke="transparent" points="-4,4 -4,-280 830,-280 830,4 -4,4"/>
<text text-anchor="start" x="392.01" y="-42.4" font-family="Times-12" font-weight="bold" font-size="14.00">Legend</text>
<polygon fill="#ffffb3" stroke="transparent" points="179,-10 179,-30 199,-30 199,-10 179,-10"/>
<text text-anchor="start" x="202.63" y="-15.4" font-family="Times-12" font-size="14.00"> &#160;Declarations</text>
<polygon fill="#8dd3c7" stroke="transparent" points="292,-10 292,-30 312,-30 312,-10 292,-10"/>
<text text-anchor="start" x="315.73" y="-15.4" font-family="Times-12" font-size="14.00"> &#160;Module</text>
<polygon fill="#80b1d3" stroke="transparent" points="378,-10 378,-30 398,-30 398,-10 378,-10"/>
<text text-anchor="start" x="401.78" y="-15.4" font-family="Times-12" font-size="14.00"> &#160;Bootstrap</text>
<polygon fill="#fdb462" stroke="transparent" points="475,-10 475,-30 495,-30 495,-10 475,-10"/>
<text text-anchor="start" x="498.67" y="-15.4" font-family="Times-12" font-size="14.00"> &#160;Providers</text>
<polygon fill="#fb8072" stroke="transparent" points="571,-10 571,-30 591,-30 591,-10 571,-10"/>
<text text-anchor="start" x="594.73" y="-15.4" font-family="Times-12" font-size="14.00"> &#160;Exports</text>
<g id="clust1" class="cluster">
<title>cluster_SACBootstrap4TinyMceModule</title>
<polygon fill="none" stroke="black" stroke-dasharray="1,5" points="8,-70 8,-268 818,-268 818,-70 8,-70"/>
</g>
<g id="clust5" class="cluster">
<title>cluster_SACBootstrap4TinyMceModule_exports</title>
<polygon fill="none" stroke="black" points="308,-208 308,-260 478,-260 478,-208 308,-208"/>
</g>
<g id="clust4" class="cluster">
<title>cluster_SACBootstrap4TinyMceModule_imports</title>
<polygon fill="none" stroke="black" points="190,-78 190,-130 810,-130 810,-78 190,-78"/>
</g>
<g id="clust2" class="cluster">
<title>cluster_SACBootstrap4TinyMceModule_declarations</title>
<polygon fill="none" stroke="black" points="16,-78 16,-130 182,-130 182,-78 16,-78"/>
</g>
<!-- NgTinyMceComponent -->
<g id="node1" class="node">
<title>NgTinyMceComponent</title>
<polygon fill="#ffffb3" stroke="black" points="173.76,-122 24.24,-122 24.24,-86 173.76,-86 173.76,-122"/>
<text text-anchor="middle" x="99" y="-99.8" font-family="Times,serif" font-size="14.00">NgTinyMceComponent</text>
</g>
<!-- SACBootstrap4TinyMceModule -->
<g id="node2" class="node">
<title>SACBootstrap4TinyMceModule</title>
<polygon fill="#8dd3c7" stroke="black" points="492.53,-187 489.53,-191 468.53,-191 465.53,-187 293.47,-187 293.47,-151 492.53,-151 492.53,-187"/>
<text text-anchor="middle" x="393" y="-164.8" font-family="Times,serif" font-size="14.00">SACBootstrap4TinyMceModule</text>
</g>
<!-- NgTinyMceComponent&#45;&gt;SACBootstrap4TinyMceModule -->
<g id="edge1" class="edge">
<title>NgTinyMceComponent&#45;&gt;SACBootstrap4TinyMceModule</title>
<path fill="none" stroke="black" d="M99,-122.11C99,-141.34 99,-169 99,-169 99,-169 283.47,-169 283.47,-169"/>
<polygon fill="black" stroke="black" points="283.47,-172.5 293.47,-169 283.46,-165.5 283.47,-172.5"/>
</g>
<!-- NgTinyMceComponent  -->
<g id="node6" class="node">
<title>NgTinyMceComponent </title>
<polygon fill="#fb8072" stroke="black" points="469.76,-252 316.24,-252 316.24,-216 469.76,-216 469.76,-252"/>
<text text-anchor="middle" x="393" y="-229.8" font-family="Times,serif" font-size="14.00">NgTinyMceComponent </text>
</g>
<!-- SACBootstrap4TinyMceModule&#45;&gt;NgTinyMceComponent  -->
<g id="edge5" class="edge">
<title>SACBootstrap4TinyMceModule&#45;&gt;NgTinyMceComponent </title>
<path fill="none" stroke="black" stroke-dasharray="5,2" d="M393,-187.11C393,-187.11 393,-205.99 393,-205.99"/>
<polygon fill="black" stroke="black" points="389.5,-205.99 393,-215.99 396.5,-205.99 389.5,-205.99"/>
</g>
<!-- SACBootstrap4BrowserModule -->
<g id="node3" class="node">
<title>SACBootstrap4BrowserModule</title>
<polygon fill="#8dd3c7" stroke="black" points="801.64,-122 798.64,-126 777.64,-126 774.64,-122 606.36,-122 606.36,-86 801.64,-86 801.64,-122"/>
<text text-anchor="middle" x="704" y="-99.8" font-family="Times,serif" font-size="14.00">SACBootstrap4BrowserModule</text>
</g>
<!-- SACBootstrap4BrowserModule&#45;&gt;SACBootstrap4TinyMceModule -->
<g id="edge2" class="edge">
<title>SACBootstrap4BrowserModule&#45;&gt;SACBootstrap4TinyMceModule</title>
<path fill="none" stroke="black" d="M704,-122.11C704,-141.34 704,-169 704,-169 704,-169 502.69,-169 502.69,-169"/>
<polygon fill="black" stroke="black" points="502.69,-165.5 492.69,-169 502.69,-172.5 502.69,-165.5"/>
</g>
<!-- SACBootstrap4ButtonModule -->
<g id="node4" class="node">
<title>SACBootstrap4ButtonModule</title>
<polygon fill="#8dd3c7" stroke="black" points="588.33,-122 585.33,-126 564.33,-126 561.33,-122 401.67,-122 401.67,-86 588.33,-86 588.33,-122"/>
<text text-anchor="middle" x="495" y="-99.8" font-family="Times,serif" font-size="14.00">SACBootstrap4ButtonModule</text>
</g>
<!-- SACBootstrap4ButtonModule&#45;&gt;SACBootstrap4TinyMceModule -->
<g id="edge3" class="edge">
<title>SACBootstrap4ButtonModule&#45;&gt;SACBootstrap4TinyMceModule</title>
<path fill="none" stroke="black" d="M447.3,-122.11C447.3,-122.11 447.3,-140.99 447.3,-140.99"/>
<polygon fill="black" stroke="black" points="443.8,-140.99 447.3,-150.99 450.8,-140.99 443.8,-140.99"/>
</g>
<!-- SACBootstrap4DialogModule -->
<g id="node5" class="node">
<title>SACBootstrap4DialogModule</title>
<polygon fill="#8dd3c7" stroke="black" points="384.32,-122 381.32,-126 360.32,-126 357.32,-122 197.68,-122 197.68,-86 384.32,-86 384.32,-122"/>
<text text-anchor="middle" x="291" y="-99.8" font-family="Times,serif" font-size="14.00">SACBootstrap4DialogModule</text>
</g>
<!-- SACBootstrap4DialogModule&#45;&gt;SACBootstrap4TinyMceModule -->
<g id="edge4" class="edge">
<title>SACBootstrap4DialogModule&#45;&gt;SACBootstrap4TinyMceModule</title>
<path fill="none" stroke="black" d="M338.7,-122.11C338.7,-122.11 338.7,-140.99 338.7,-140.99"/>
<polygon fill="black" stroke="black" points="335.2,-140.99 338.7,-150.99 342.2,-140.99 335.2,-140.99"/>
</g>
</g>
</svg>
