<?xml version="1.0" encoding="UTF-8" standalone="no"?>
<!DOCTYPE svg PUBLIC "-//W3C//DTD SVG 1.1//EN"
 "http://www.w3.org/Graphics/SVG/1.1/DTD/svg11.dtd">
<!-- Generated by graphviz version 2.40.1 (20161225.0304)
 -->
<!-- Title: dependencies Pages: 1 -->
<svg width="1603pt" height="349pt"
 viewBox="0.00 0.00 1603.00 349.00" xmlns="http://www.w3.org/2000/svg" xmlns:xlink="http://www.w3.org/1999/xlink">
<g id="graph0" class="graph" transform="scale(1 1) rotate(0) translate(4 345)">
<title>dependencies</title>
<polygon fill="#ffffff" stroke="transparent" points="-4,4 -4,-345 1599,-345 1599,4 -4,4"/>
<text text-anchor="start" x="776.5091" y="-42.4" font-family="sans-serif" font-weight="bold" font-size="14.00" fill="#000000">Legend</text>
<polygon fill="#ffffb3" stroke="transparent" points="563.5,-10 563.5,-30 583.5,-30 583.5,-10 563.5,-10"/>
<text text-anchor="start" x="587.129" y="-15.4" font-family="sans-serif" font-size="14.00" fill="#000000"> &#160;Declarations</text>
<polygon fill="#8dd3c7" stroke="transparent" points="676.5,-10 676.5,-30 696.5,-30 696.5,-10 676.5,-10"/>
<text text-anchor="start" x="700.2251" y="-15.4" font-family="sans-serif" font-size="14.00" fill="#000000"> &#160;Module</text>
<polygon fill="#80b1d3" stroke="transparent" points="762.5,-10 762.5,-30 782.5,-30 782.5,-10 762.5,-10"/>
<text text-anchor="start" x="786.2812" y="-15.4" font-family="sans-serif" font-size="14.00" fill="#000000"> &#160;Bootstrap</text>
<polygon fill="#fdb462" stroke="transparent" points="859.5,-10 859.5,-30 879.5,-30 879.5,-10 859.5,-10"/>
<text text-anchor="start" x="883.1732" y="-15.4" font-family="sans-serif" font-size="14.00" fill="#000000"> &#160;Providers</text>
<polygon fill="#fb8072" stroke="transparent" points="955.5,-10 955.5,-30 975.5,-30 975.5,-10 955.5,-10"/>
<text text-anchor="start" x="979.2258" y="-15.4" font-family="sans-serif" font-size="14.00" fill="#000000"> &#160;Exports</text>
<g id="clust1" class="cluster">
<title>cluster_JNetworkBootstrap3TinyMceModule</title>
<polygon fill="none" stroke="#000000" stroke-dasharray="1,5" points="8,-70 8,-333 1587,-333 1587,-70 8,-70"/>
</g>
<g id="clust2" class="cluster">
<title>cluster_JNetworkBootstrap3TinyMceModule_declarations</title>
<polygon fill="none" stroke="#000000" points="738,-143 738,-195 904,-195 904,-143 738,-143"/>
</g>
<g id="clust3" class="cluster">
<title>cluster_JNetworkBootstrap3TinyMceModule_NgTinyMceComponent_providers</title>
<polygon fill="none" stroke="#000000" points="16,-78 16,-130 1579,-130 1579,-78 16,-78"/>
</g>
<g id="clust4" class="cluster">
<title>cluster_JNetworkBootstrap3TinyMceModule_imports</title>
<polygon fill="none" stroke="#000000" points="516,-143 516,-195 730,-195 730,-143 516,-143"/>
</g>
<g id="clust5" class="cluster">
<title>cluster_JNetworkBootstrap3TinyMceModule_exports</title>
<polygon fill="none" stroke="#000000" points="637,-273 637,-325 807,-325 807,-273 637,-273"/>
</g>
<!-- NgTinyMceComponent -->
<g id="node1" class="node">
<title>NgTinyMceComponent</title>
<polygon fill="#ffffb3" stroke="#000000" points="895.7562,-187 746.2438,-187 746.2438,-151 895.7562,-151 895.7562,-187"/>
<text text-anchor="middle" x="821" y="-164.8" font-family="Times,serif" font-size="14.00" fill="#000000">NgTinyMceComponent</text>
</g>
<!-- JNetworkBootstrap3TinyMceModule -->
<g id="node2" class="node">
<title>JNetworkBootstrap3TinyMceModule</title>
<polygon fill="#8dd3c7" stroke="#000000" points="835.2282,-252 832.2282,-256 811.2282,-256 808.2282,-252 608.7718,-252 608.7718,-216 835.2282,-216 835.2282,-252"/>
<text text-anchor="middle" x="722" y="-229.8" font-family="Times,serif" font-size="14.00" fill="#000000">JNetworkBootstrap3TinyMceModule</text>
</g>
<!-- NgTinyMceComponent&#45;&gt;JNetworkBootstrap3TinyMceModule -->
<g id="edge1" class="edge">
<title>NgTinyMceComponent&#45;&gt;JNetworkBootstrap3TinyMceModule</title>
<path fill="none" stroke="#000000" d="M790.743,-187.1061C790.743,-187.1061 790.743,-205.991 790.743,-205.991"/>
<polygon fill="#000000" stroke="#000000" points="787.2431,-205.9909 790.743,-215.991 794.2431,-205.991 787.2431,-205.9909"/>
</g>
<!-- NgTinyMceComponent  -->
<g id="node6" class="node">
<title>NgTinyMceComponent </title>
<polygon fill="#fb8072" stroke="#000000" points="798.7562,-317 645.2438,-317 645.2438,-281 798.7562,-281 798.7562,-317"/>
<text text-anchor="middle" x="722" y="-294.8" font-family="Times,serif" font-size="14.00" fill="#000000">NgTinyMceComponent </text>
</g>
<!-- JNetworkBootstrap3TinyMceModule&#45;&gt;NgTinyMceComponent  -->
<g id="edge5" class="edge">
<title>JNetworkBootstrap3TinyMceModule&#45;&gt;NgTinyMceComponent </title>
<path fill="none" stroke="#000000" stroke-dasharray="5,2" d="M722,-252.1061C722,-252.1061 722,-270.991 722,-270.991"/>
<polygon fill="#000000" stroke="#000000" points="718.5001,-270.9909 722,-280.991 725.5001,-270.991 718.5001,-270.9909"/>
</g>
<!-- { provide: NG_VALUE_ACCESSOR, multi: true, useExisting: NgTinyMceComponent } -->
<g id="node3" class="node">
<title>{ provide: NG_VALUE_ACCESSOR, multi: true, useExisting: NgTinyMceComponent }</title>
<ellipse fill="#fdb462" stroke="#000000" cx="1212" cy="-104" rx="358.5505" ry="18"/>
<text text-anchor="middle" x="1212" y="-99.8" font-family="Times,serif" font-size="14.00" fill="#000000">{ provide: NG_VALUE_ACCESSOR, multi: true, useExisting: NgTinyMceComponent }</text>
</g>
<!-- { provide: NG_VALUE_ACCESSOR, multi: true, useExisting: NgTinyMceComponent }&#45;&gt;NgTinyMceComponent -->
<g id="edge2" class="edge">
<title>{ provide: NG_VALUE_ACCESSOR, multi: true, useExisting: NgTinyMceComponent }&#45;&gt;NgTinyMceComponent</title>
<path fill="none" stroke="#000000" d="M874.6764,-110.4701C874.6764,-110.4701 874.6764,-140.7831 874.6764,-140.7831"/>
<polygon fill="#000000" stroke="#000000" points="871.1765,-140.7831 874.6764,-150.7831 878.1765,-140.7831 871.1765,-140.7831"/>
</g>
<!-- { provide: NG_VALIDATORS, useExisting: forwardRef(() =&gt; NgTinyMceComponent), multi: true } -->
<g id="node4" class="node">
<title>{ provide: NG_VALIDATORS, useExisting: forwardRef(() =&gt; NgTinyMceComponent), multi: true }</title>
<ellipse fill="#fdb462" stroke="#000000" cx="430" cy="-104" rx="405.6867" ry="18"/>
<text text-anchor="middle" x="430" y="-99.8" font-family="Times,serif" font-size="14.00" fill="#000000">{ provide: NG_VALIDATORS, useExisting: forwardRef(() =&gt; NgTinyMceComponent), multi: true }</text>
</g>
<!-- { provide: NG_VALIDATORS, useExisting: forwardRef(() =&gt; NgTinyMceComponent), multi: true }&#45;&gt;NgTinyMceComponent -->
<g id="edge3" class="edge">
<title>{ provide: NG_VALIDATORS, useExisting: forwardRef(() =&gt; NgTinyMceComponent), multi: true }&#45;&gt;NgTinyMceComponent</title>
<path fill="none" stroke="#000000" d="M790.9827,-112.2323C790.9827,-112.2323 790.9827,-140.7574 790.9827,-140.7574"/>
<polygon fill="#000000" stroke="#000000" points="787.4828,-140.7574 790.9827,-150.7574 794.4828,-140.7575 787.4828,-140.7574"/>
</g>
<!-- jNetworkTinyMceEditorModule -->
<g id="node5" class="node">
<title>jNetworkTinyMceEditorModule</title>
<polygon fill="#8dd3c7" stroke="#000000" points="722.231,-187 719.231,-191 698.231,-191 695.231,-187 523.769,-187 523.769,-151 722.231,-151 722.231,-187"/>
<text text-anchor="middle" x="623" y="-164.8" font-family="Times,serif" font-size="14.00" fill="#000000">jNetworkTinyMceEditorModule</text>
</g>
<!-- jNetworkTinyMceEditorModule&#45;&gt;JNetworkBootstrap3TinyMceModule -->
<g id="edge4" class="edge">
<title>jNetworkTinyMceEditorModule&#45;&gt;JNetworkBootstrap3TinyMceModule</title>
<path fill="none" stroke="#000000" d="M665.5007,-187.1061C665.5007,-187.1061 665.5007,-205.991 665.5007,-205.991"/>
<polygon fill="#000000" stroke="#000000" points="662.0008,-205.9909 665.5007,-215.991 669.0008,-205.991 662.0008,-205.9909"/>
</g>
</g>
</svg>
