<?xml version="1.0" encoding="UTF-8" standalone="no"?>
<!DOCTYPE svg PUBLIC "-//W3C//DTD SVG 1.1//EN"
 "http://www.w3.org/Graphics/SVG/1.1/DTD/svg11.dtd">
<!-- Generated by graphviz version 2.47.3 (20210619.1520)
 -->
<!-- Title: dependencies Pages: 1 -->
<svg width="266pt" height="247pt"
 viewBox="0.00 0.00 266.00 246.80" xmlns="http://www.w3.org/2000/svg" xmlns:xlink="http://www.w3.org/1999/xlink">
<g id="graph0" class="graph" transform="scale(1 1) rotate(0) translate(4 242.8)">
<title>dependencies</title>
<polygon fill="white" stroke="transparent" points="-4,4 -4,-242.8 262,-242.8 262,4 -4,4"/>
<text text-anchor="middle" x="129" y="-8.2" font-family="sans-serif" font-size="14.00">dependencies</text>
<g id="clust1" class="cluster">
<title>cluster_JNetworkBootstrap3TinyMceModule</title>
<polygon fill="none" stroke="black" stroke-dasharray="1,5" points="8,-32.8 8,-230.8 250,-230.8 250,-32.8 8,-32.8"/>
</g>
<g id="clust5" class="cluster">
<title>cluster_JNetworkBootstrap3TinyMceModule_exports</title>
<polygon fill="none" stroke="black" points="44,-170.8 44,-222.8 214,-222.8 214,-170.8 44,-170.8"/>
</g>
<g id="clust2" class="cluster">
<title>cluster_JNetworkBootstrap3TinyMceModule_declarations</title>
<polygon fill="none" stroke="black" points="46,-40.8 46,-92.8 212,-92.8 212,-40.8 46,-40.8"/>
</g>
<!-- NgTinyMceComponent -->
<g id="node1" class="node">
<title>NgTinyMceComponent</title>
<polygon fill="#ffffb3" stroke="black" points="203.76,-84.8 54.24,-84.8 54.24,-48.8 203.76,-48.8 203.76,-84.8"/>
<text text-anchor="middle" x="129" y="-62.6" font-family="Times,serif" font-size="14.00">NgTinyMceComponent</text>
</g>
<!-- JNetworkBootstrap3TinyMceModule -->
<g id="node2" class="node">
<title>JNetworkBootstrap3TinyMceModule</title>
<polygon fill="#8dd3c7" stroke="black" points="242.23,-149.8 239.23,-153.8 218.23,-153.8 215.23,-149.8 15.77,-149.8 15.77,-113.8 242.23,-113.8 242.23,-149.8"/>
<text text-anchor="middle" x="129" y="-127.6" font-family="Times,serif" font-size="14.00">JNetworkBootstrap3TinyMceModule</text>
</g>
<!-- NgTinyMceComponent&#45;&gt;JNetworkBootstrap3TinyMceModule -->
<g id="edge1" class="edge">
<title>NgTinyMceComponent&#45;&gt;JNetworkBootstrap3TinyMceModule</title>
<path fill="none" stroke="black" d="M129,-84.91C129,-84.91 129,-103.79 129,-103.79"/>
<polygon fill="black" stroke="black" points="125.5,-103.79 129,-113.79 132.5,-103.79 125.5,-103.79"/>
</g>
<!-- NgTinyMceComponent  -->
<g id="node3" class="node">
<title>NgTinyMceComponent </title>
<polygon fill="#fb8072" stroke="black" points="205.76,-214.8 52.24,-214.8 52.24,-178.8 205.76,-178.8 205.76,-214.8"/>
<text text-anchor="middle" x="129" y="-192.6" font-family="Times,serif" font-size="14.00">NgTinyMceComponent </text>
</g>
<!-- JNetworkBootstrap3TinyMceModule&#45;&gt;NgTinyMceComponent  -->
<g id="edge2" class="edge">
<title>JNetworkBootstrap3TinyMceModule&#45;&gt;NgTinyMceComponent </title>
<path fill="none" stroke="black" stroke-dasharray="5,2" d="M129,-149.91C129,-149.91 129,-168.79 129,-168.79"/>
<polygon fill="black" stroke="black" points="125.5,-168.79 129,-178.79 132.5,-168.79 125.5,-168.79"/>
</g>
</g>
</svg>
