<?xml version="1.0" encoding="UTF-8" standalone="no"?>
<!DOCTYPE svg PUBLIC "-//W3C//DTD SVG 1.1//EN"
 "http://www.w3.org/Graphics/SVG/1.1/DTD/svg11.dtd">
<!-- Generated by graphviz version 2.47.0 (20210316.0004)
 -->
<!-- Title: dependencies Pages: 1 -->
<svg width="3510pt" height="396pt"
 viewBox="0.00 0.00 3510.00 395.59" xmlns="http://www.w3.org/2000/svg" xmlns:xlink="http://www.w3.org/1999/xlink">
<g id="graph0" class="graph" transform="scale(1 1) rotate(0) translate(4 391.59)">
<title>dependencies</title>
<polygon fill="white" stroke="transparent" points="-4,4 -4,-391.59 3506,-391.59 3506,4 -4,4"/>
<text text-anchor="start" x="1730.01" y="-42.4" font-family="Times-12" font-weight="bold" font-size="14.00">Legend</text>
<polygon fill="#ffffb3" stroke="transparent" points="1517,-10 1517,-30 1537,-30 1537,-10 1517,-10"/>
<text text-anchor="start" x="1540.63" y="-15.4" font-family="Times-12" font-size="14.00"> &#160;Declarations</text>
<polygon fill="#8dd3c7" stroke="transparent" points="1630,-10 1630,-30 1650,-30 1650,-10 1630,-10"/>
<text text-anchor="start" x="1653.73" y="-15.4" font-family="Times-12" font-size="14.00"> &#160;Module</text>
<polygon fill="#80b1d3" stroke="transparent" points="1716,-10 1716,-30 1736,-30 1736,-10 1716,-10"/>
<text text-anchor="start" x="1739.78" y="-15.4" font-family="Times-12" font-size="14.00"> &#160;Bootstrap</text>
<polygon fill="#fdb462" stroke="transparent" points="1813,-10 1813,-30 1833,-30 1833,-10 1813,-10"/>
<text text-anchor="start" x="1836.67" y="-15.4" font-family="Times-12" font-size="14.00"> &#160;Providers</text>
<polygon fill="#fb8072" stroke="transparent" points="1909,-10 1909,-30 1929,-30 1929,-10 1909,-10"/>
<text text-anchor="start" x="1932.73" y="-15.4" font-family="Times-12" font-size="14.00"> &#160;Exports</text>
<g id="clust1" class="cluster">
<title>cluster_SACBootstrap4UploadModule</title>
<polygon fill="none" stroke="black" stroke-dasharray="1,5" points="8,-70 8,-379.59 3494,-379.59 3494,-70 8,-70"/>
</g>
<g id="clust2" class="cluster">
<title>cluster_SACBootstrap4UploadModule_declarations</title>
<polygon fill="none" stroke="black" points="1199,-189.59 1199,-241.59 2000,-241.59 2000,-189.59 1199,-189.59"/>
</g>
<g id="clust4" class="cluster">
<title>cluster_SACBootstrap4UploadModule_SacDropzoneSingleComponent_providers</title>
<polygon fill="none" stroke="black" points="1772,-78 1772,-176.59 3486,-176.59 3486,-78 1772,-78"/>
</g>
<g id="clust8" class="cluster">
<title>cluster_SACBootstrap4UploadModule_exports</title>
<polygon fill="none" stroke="black" points="1196,-319.59 1196,-371.59 2010,-371.59 2010,-319.59 1196,-319.59"/>
</g>
<g id="clust3" class="cluster">
<title>cluster_SACBootstrap4UploadModule_SacDropzoneMultipleComponent_providers</title>
<polygon fill="none" stroke="black" points="16,-78 16,-176.59 1764,-176.59 1764,-78 16,-78"/>
</g>
<!-- SacDropzoneMultipleComponent -->
<g id="node1" class="node">
<title>SacDropzoneMultipleComponent</title>
<polygon fill="#ffffb3" stroke="black" points="1781.46,-233.59 1576.54,-233.59 1576.54,-197.59 1781.46,-197.59 1781.46,-233.59"/>
<text text-anchor="middle" x="1679" y="-211.39" font-family="Times,serif" font-size="14.00">SacDropzoneMultipleComponent</text>
</g>
<!-- SACBootstrap4UploadModule -->
<g id="node5" class="node">
<title>SACBootstrap4UploadModule</title>
<polygon fill="#8dd3c7" stroke="black" points="1677.93,-298.59 1674.93,-302.59 1653.93,-302.59 1650.93,-298.59 1488.07,-298.59 1488.07,-262.59 1677.93,-262.59 1677.93,-298.59"/>
<text text-anchor="middle" x="1583" y="-276.39" font-family="Times,serif" font-size="14.00">SACBootstrap4UploadModule</text>
</g>
<!-- SacDropzoneMultipleComponent&#45;&gt;SACBootstrap4UploadModule -->
<g id="edge1" class="edge">
<title>SacDropzoneMultipleComponent&#45;&gt;SACBootstrap4UploadModule</title>
<path fill="none" stroke="black" d="M1627.12,-233.7C1627.12,-233.7 1627.12,-252.58 1627.12,-252.58"/>
<polygon fill="black" stroke="black" points="1623.62,-252.58 1627.12,-262.58 1630.62,-252.58 1623.62,-252.58"/>
</g>
<!-- SacDropzoneSingleComponent -->
<g id="node2" class="node">
<title>SacDropzoneSingleComponent</title>
<polygon fill="#ffffb3" stroke="black" points="1992.02,-233.59 1799.98,-233.59 1799.98,-197.59 1992.02,-197.59 1992.02,-233.59"/>
<text text-anchor="middle" x="1896" y="-211.39" font-family="Times,serif" font-size="14.00">SacDropzoneSingleComponent</text>
</g>
<!-- SacDropzoneSingleComponent&#45;&gt;SACBootstrap4UploadModule -->
<g id="edge4" class="edge">
<title>SacDropzoneSingleComponent&#45;&gt;SACBootstrap4UploadModule</title>
<path fill="none" stroke="black" d="M1928.09,-233.61C1928.09,-250.96 1928.09,-274.59 1928.09,-274.59 1928.09,-274.59 1687.75,-274.59 1687.75,-274.59"/>
<polygon fill="black" stroke="black" points="1687.75,-271.09 1677.75,-274.59 1687.75,-278.09 1687.75,-271.09"/>
</g>
<!-- SacUploadComponent -->
<g id="node3" class="node">
<title>SacUploadComponent</title>
<polygon fill="#ffffb3" stroke="black" points="1558.26,-233.59 1415.74,-233.59 1415.74,-197.59 1558.26,-197.59 1558.26,-233.59"/>
<text text-anchor="middle" x="1487" y="-211.39" font-family="Times,serif" font-size="14.00">SacUploadComponent</text>
</g>
<!-- SacUploadComponent&#45;&gt;SACBootstrap4UploadModule -->
<g id="edge7" class="edge">
<title>SacUploadComponent&#45;&gt;SACBootstrap4UploadModule</title>
<path fill="none" stroke="black" d="M1523.33,-233.7C1523.33,-233.7 1523.33,-252.58 1523.33,-252.58"/>
<polygon fill="black" stroke="black" points="1519.83,-252.58 1523.33,-262.58 1526.83,-252.58 1519.83,-252.58"/>
</g>
<!-- SacUploadMultipleComponent -->
<g id="node4" class="node">
<title>SacUploadMultipleComponent</title>
<polygon fill="#ffffb3" stroke="black" points="1397.48,-233.59 1206.52,-233.59 1206.52,-197.59 1397.48,-197.59 1397.48,-233.59"/>
<text text-anchor="middle" x="1302" y="-211.39" font-family="Times,serif" font-size="14.00">SacUploadMultipleComponent</text>
</g>
<!-- SacUploadMultipleComponent&#45;&gt;SACBootstrap4UploadModule -->
<g id="edge8" class="edge">
<title>SacUploadMultipleComponent&#45;&gt;SACBootstrap4UploadModule</title>
<path fill="none" stroke="black" d="M1333.83,-233.61C1333.83,-250.96 1333.83,-274.59 1333.83,-274.59 1333.83,-274.59 1478.09,-274.59 1478.09,-274.59"/>
<polygon fill="black" stroke="black" points="1478.09,-278.09 1488.09,-274.59 1478.09,-271.09 1478.09,-278.09"/>
</g>
<!-- SacDropzoneMultipleComponent  -->
<g id="node10" class="node">
<title>SacDropzoneMultipleComponent </title>
<polygon fill="#fb8072" stroke="black" points="2002.46,-363.59 1793.54,-363.59 1793.54,-327.59 2002.46,-327.59 2002.46,-363.59"/>
<text text-anchor="middle" x="1898" y="-341.39" font-family="Times,serif" font-size="14.00">SacDropzoneMultipleComponent </text>
</g>
<!-- SACBootstrap4UploadModule&#45;&gt;SacDropzoneMultipleComponent  -->
<g id="edge9" class="edge">
<title>SACBootstrap4UploadModule&#45;&gt;SacDropzoneMultipleComponent </title>
<path fill="none" stroke="black" stroke-dasharray="5,2" d="M1677.71,-286.59C1759.27,-286.59 1863.91,-286.59 1863.91,-286.59 1863.91,-286.59 1863.91,-317.57 1863.91,-317.57"/>
<polygon fill="black" stroke="black" points="1860.41,-317.57 1863.91,-327.57 1867.41,-317.57 1860.41,-317.57"/>
</g>
<!-- SacDropzoneSingleComponent  -->
<g id="node11" class="node">
<title>SacDropzoneSingleComponent </title>
<polygon fill="#fb8072" stroke="black" points="1776.02,-363.59 1579.98,-363.59 1579.98,-327.59 1776.02,-327.59 1776.02,-363.59"/>
<text text-anchor="middle" x="1678" y="-341.39" font-family="Times,serif" font-size="14.00">SacDropzoneSingleComponent </text>
</g>
<!-- SACBootstrap4UploadModule&#45;&gt;SacDropzoneSingleComponent  -->
<g id="edge10" class="edge">
<title>SACBootstrap4UploadModule&#45;&gt;SacDropzoneSingleComponent </title>
<path fill="none" stroke="black" stroke-dasharray="5,2" d="M1628.85,-298.7C1628.85,-298.7 1628.85,-317.58 1628.85,-317.58"/>
<polygon fill="black" stroke="black" points="1625.35,-317.58 1628.85,-327.58 1632.35,-317.58 1625.35,-317.58"/>
</g>
<!-- SacUploadComponent  -->
<g id="node12" class="node">
<title>SacUploadComponent </title>
<polygon fill="#fb8072" stroke="black" points="1562.26,-363.59 1415.74,-363.59 1415.74,-327.59 1562.26,-327.59 1562.26,-363.59"/>
<text text-anchor="middle" x="1489" y="-341.39" font-family="Times,serif" font-size="14.00">SacUploadComponent </text>
</g>
<!-- SACBootstrap4UploadModule&#45;&gt;SacUploadComponent  -->
<g id="edge11" class="edge">
<title>SACBootstrap4UploadModule&#45;&gt;SacUploadComponent </title>
<path fill="none" stroke="black" stroke-dasharray="5,2" d="M1525.21,-298.7C1525.21,-298.7 1525.21,-317.58 1525.21,-317.58"/>
<polygon fill="black" stroke="black" points="1521.71,-317.58 1525.21,-327.58 1528.71,-317.58 1521.71,-317.58"/>
</g>
<!-- SacUploadMultipleComponent  -->
<g id="node13" class="node">
<title>SacUploadMultipleComponent </title>
<polygon fill="#fb8072" stroke="black" points="1398.48,-363.59 1203.52,-363.59 1203.52,-327.59 1398.48,-327.59 1398.48,-363.59"/>
<text text-anchor="middle" x="1301" y="-341.39" font-family="Times,serif" font-size="14.00">SacUploadMultipleComponent </text>
</g>
<!-- SACBootstrap4UploadModule&#45;&gt;SacUploadMultipleComponent  -->
<g id="edge12" class="edge">
<title>SACBootstrap4UploadModule&#45;&gt;SacUploadMultipleComponent </title>
<path fill="none" stroke="black" stroke-dasharray="5,2" d="M1487.87,-286.59C1395.83,-286.59 1270.17,-286.59 1270.17,-286.59 1270.17,-286.59 1270.17,-317.57 1270.17,-317.57"/>
<polygon fill="black" stroke="black" points="1266.67,-317.57 1270.17,-327.57 1273.67,-317.57 1266.67,-317.57"/>
</g>
<!-- {
 &#160;&#160;&#160;provide: NG_VALUE_ACCESSOR, multi: true, useExisting: SacDropzoneMultipleComponent,
} -->
<g id="node6" class="node">
<title>{
 &#160;&#160;&#160;provide: NG_VALUE_ACCESSOR, multi: true, useExisting: SacDropzoneMultipleComponent,
}</title>
<ellipse fill="#fdb462" stroke="black" cx="1352" cy="-127.3" rx="404.48" ry="41.09"/>
<text text-anchor="middle" x="1352" y="-139.9" font-family="Times,serif" font-size="14.00">{</text>
<text text-anchor="middle" x="1352" y="-123.1" font-family="Times,serif" font-size="14.00"> &#160;&#160;&#160;provide: NG_VALUE_ACCESSOR, multi: true, useExisting: SacDropzoneMultipleComponent,</text>
<text text-anchor="middle" x="1352" y="-106.3" font-family="Times,serif" font-size="14.00">}</text>
</g>
<!-- {
 &#160;&#160;&#160;provide: NG_VALUE_ACCESSOR, multi: true, useExisting: SacDropzoneMultipleComponent,
}&#45;&gt;SacDropzoneMultipleComponent -->
<g id="edge2" class="edge">
<title>{
 &#160;&#160;&#160;provide: NG_VALUE_ACCESSOR, multi: true, useExisting: SacDropzoneMultipleComponent,
}&#45;&gt;SacDropzoneMultipleComponent</title>
<path fill="none" stroke="black" d="M1696.5,-149.12C1696.5,-149.12 1696.5,-187.58 1696.5,-187.58"/>
<polygon fill="black" stroke="black" points="1693,-187.58 1696.5,-197.58 1700,-187.58 1693,-187.58"/>
</g>
<!-- {
 &#160;&#160;&#160;provide: NG_VALIDATORS, multi: true, useExisting: forwardRef(() =&gt; SacDropzoneMultipleComponent),
} -->
<g id="node7" class="node">
<title>{
 &#160;&#160;&#160;provide: NG_VALIDATORS, multi: true, useExisting: forwardRef(() =&gt; SacDropzoneMultipleComponent),
}</title>
<ellipse fill="#fdb462" stroke="black" cx="477" cy="-127.3" rx="452.99" ry="41.09"/>
<text text-anchor="middle" x="477" y="-139.9" font-family="Times,serif" font-size="14.00">{</text>
<text text-anchor="middle" x="477" y="-123.1" font-family="Times,serif" font-size="14.00"> &#160;&#160;&#160;provide: NG_VALIDATORS, multi: true, useExisting: forwardRef(() =&gt; SacDropzoneMultipleComponent),</text>
<text text-anchor="middle" x="477" y="-106.3" font-family="Times,serif" font-size="14.00">}</text>
</g>
<!-- {
 &#160;&#160;&#160;provide: NG_VALIDATORS, multi: true, useExisting: forwardRef(() =&gt; SacDropzoneMultipleComponent),
}&#45;&gt;SacDropzoneMultipleComponent -->
<g id="edge3" class="edge">
<title>{
 &#160;&#160;&#160;provide: NG_VALIDATORS, multi: true, useExisting: forwardRef(() =&gt; SacDropzoneMultipleComponent),
}&#45;&gt;SacDropzoneMultipleComponent</title>
<path fill="none" stroke="black" d="M477,-168.8C477,-177.24 477,-183.59 477,-183.59 477,-183.59 1636.51,-183.59 1636.51,-183.59 1636.51,-183.59 1636.51,-187.35 1636.51,-187.35"/>
<polygon fill="black" stroke="black" points="1633.01,-187.35 1636.51,-197.35 1640.01,-187.35 1633.01,-187.35"/>
</g>
<!-- {
 &#160;&#160;&#160;provide: NG_VALUE_ACCESSOR, multi: true, useExisting: SacDropzoneSingleComponent,
} -->
<g id="node8" class="node">
<title>{
 &#160;&#160;&#160;provide: NG_VALUE_ACCESSOR, multi: true, useExisting: SacDropzoneSingleComponent,
}</title>
<ellipse fill="#fdb462" stroke="black" cx="3082" cy="-127.3" rx="395.88" ry="41.09"/>
<text text-anchor="middle" x="3082" y="-139.9" font-family="Times,serif" font-size="14.00">{</text>
<text text-anchor="middle" x="3082" y="-123.1" font-family="Times,serif" font-size="14.00"> &#160;&#160;&#160;provide: NG_VALUE_ACCESSOR, multi: true, useExisting: SacDropzoneSingleComponent,</text>
<text text-anchor="middle" x="3082" y="-106.3" font-family="Times,serif" font-size="14.00">}</text>
</g>
<!-- {
 &#160;&#160;&#160;provide: NG_VALUE_ACCESSOR, multi: true, useExisting: SacDropzoneSingleComponent,
}&#45;&gt;SacDropzoneSingleComponent -->
<g id="edge5" class="edge">
<title>{
 &#160;&#160;&#160;provide: NG_VALUE_ACCESSOR, multi: true, useExisting: SacDropzoneSingleComponent,
}&#45;&gt;SacDropzoneSingleComponent</title>
<path fill="none" stroke="black" d="M3082,-168.6C3082,-191.58 3082,-215.59 3082,-215.59 3082,-215.59 2002.05,-215.59 2002.05,-215.59"/>
<polygon fill="black" stroke="black" points="2002.05,-212.09 1992.05,-215.59 2002.05,-219.09 2002.05,-212.09"/>
</g>
<!-- {
 &#160;&#160;&#160;provide: NG_VALIDATORS, multi: true, useExisting: forwardRef(() =&gt; SacDropzoneSingleComponent),
} -->
<g id="node9" class="node">
<title>{
 &#160;&#160;&#160;provide: NG_VALIDATORS, multi: true, useExisting: forwardRef(() =&gt; SacDropzoneSingleComponent),
}</title>
<ellipse fill="#fdb462" stroke="black" cx="2224" cy="-127.3" rx="444.4" ry="41.09"/>
<text text-anchor="middle" x="2224" y="-139.9" font-family="Times,serif" font-size="14.00">{</text>
<text text-anchor="middle" x="2224" y="-123.1" font-family="Times,serif" font-size="14.00"> &#160;&#160;&#160;provide: NG_VALIDATORS, multi: true, useExisting: forwardRef(() =&gt; SacDropzoneSingleComponent),</text>
<text text-anchor="middle" x="2224" y="-106.3" font-family="Times,serif" font-size="14.00">}</text>
</g>
<!-- {
 &#160;&#160;&#160;provide: NG_VALIDATORS, multi: true, useExisting: forwardRef(() =&gt; SacDropzoneSingleComponent),
}&#45;&gt;SacDropzoneSingleComponent -->
<g id="edge6" class="edge">
<title>{
 &#160;&#160;&#160;provide: NG_VALIDATORS, multi: true, useExisting: forwardRef(() =&gt; SacDropzoneSingleComponent),
}&#45;&gt;SacDropzoneSingleComponent</title>
<path fill="none" stroke="black" d="M1896,-155.23C1896,-155.23 1896,-187.56 1896,-187.56"/>
<polygon fill="black" stroke="black" points="1892.5,-187.56 1896,-197.56 1899.5,-187.56 1892.5,-187.56"/>
</g>
</g>
</svg>
