<?xml version="1.0" encoding="UTF-8" standalone="no"?>
<!DOCTYPE svg PUBLIC "-//W3C//DTD SVG 1.1//EN"
 "http://www.w3.org/Graphics/SVG/1.1/DTD/svg11.dtd">
<!-- Generated by graphviz version 2.47.0 (20210316.0004)
 -->
<!-- Title: dependencies Pages: 1 -->
<svg width="2867pt" height="396pt"
 viewBox="0.00 0.00 2867.00 395.59" xmlns="http://www.w3.org/2000/svg" xmlns:xlink="http://www.w3.org/1999/xlink">
<g id="graph0" class="graph" transform="scale(1 1) rotate(0) translate(4 391.59)">
<title>dependencies</title>
<polygon fill="white" stroke="transparent" points="-4,4 -4,-391.59 2863,-391.59 2863,4 -4,4"/>
<text text-anchor="start" x="1408.51" y="-42.4" font-family="Times-12" font-weight="bold" font-size="14.00">Legend</text>
<polygon fill="#ffffb3" stroke="transparent" points="1195.5,-10 1195.5,-30 1215.5,-30 1215.5,-10 1195.5,-10"/>
<text text-anchor="start" x="1219.13" y="-15.4" font-family="Times-12" font-size="14.00"> &#160;Declarations</text>
<polygon fill="#8dd3c7" stroke="transparent" points="1308.5,-10 1308.5,-30 1328.5,-30 1328.5,-10 1308.5,-10"/>
<text text-anchor="start" x="1332.23" y="-15.4" font-family="Times-12" font-size="14.00"> &#160;Module</text>
<polygon fill="#80b1d3" stroke="transparent" points="1394.5,-10 1394.5,-30 1414.5,-30 1414.5,-10 1394.5,-10"/>
<text text-anchor="start" x="1418.28" y="-15.4" font-family="Times-12" font-size="14.00"> &#160;Bootstrap</text>
<polygon fill="#fdb462" stroke="transparent" points="1491.5,-10 1491.5,-30 1511.5,-30 1511.5,-10 1491.5,-10"/>
<text text-anchor="start" x="1515.17" y="-15.4" font-family="Times-12" font-size="14.00"> &#160;Providers</text>
<polygon fill="#fb8072" stroke="transparent" points="1587.5,-10 1587.5,-30 1607.5,-30 1607.5,-10 1587.5,-10"/>
<text text-anchor="start" x="1611.23" y="-15.4" font-family="Times-12" font-size="14.00"> &#160;Exports</text>
<g id="clust1" class="cluster">
<title>cluster_SACBootstrap4DateTimeModule</title>
<polygon fill="none" stroke="black" stroke-dasharray="1,5" points="8,-70 8,-379.59 2851,-379.59 2851,-70 8,-70"/>
</g>
<g id="clust3" class="cluster">
<title>cluster_SACBootstrap4DateTimeModule_SacDateComponent_providers</title>
<polygon fill="none" stroke="black" points="1161,-78 1161,-241.59 2843,-241.59 2843,-78 1161,-78"/>
</g>
<g id="clust2" class="cluster">
<title>cluster_SACBootstrap4DateTimeModule_declarations</title>
<polygon fill="none" stroke="black" points="638,-189.59 638,-241.59 1153,-241.59 1153,-189.59 638,-189.59"/>
</g>
<g id="clust7" class="cluster">
<title>cluster_SACBootstrap4DateTimeModule_imports</title>
<polygon fill="none" stroke="black" points="16,-189.59 16,-241.59 630,-241.59 630,-189.59 16,-189.59"/>
</g>
<g id="clust8" class="cluster">
<title>cluster_SACBootstrap4DateTimeModule_exports</title>
<polygon fill="none" stroke="black" points="378,-319.59 378,-371.59 1052,-371.59 1052,-319.59 378,-319.59"/>
</g>
<!-- SacDateComponent -->
<g id="node1" class="node">
<title>SacDateComponent</title>
<polygon fill="#ffffb3" stroke="black" points="1631.97,-233.59 1504.03,-233.59 1504.03,-197.59 1631.97,-197.59 1631.97,-233.59"/>
<text text-anchor="middle" x="1568" y="-211.39" font-family="Times,serif" font-size="14.00">SacDateComponent</text>
</g>
<!-- SACBootstrap4DateTimeModule -->
<g id="node5" class="node">
<title>SACBootstrap4DateTimeModule</title>
<polygon fill="#8dd3c7" stroke="black" points="814.19,-298.59 811.19,-302.59 790.19,-302.59 787.19,-298.59 609.81,-298.59 609.81,-262.59 814.19,-262.59 814.19,-298.59"/>
<text text-anchor="middle" x="712" y="-276.39" font-family="Times,serif" font-size="14.00">SACBootstrap4DateTimeModule</text>
</g>
<!-- SacDateComponent&#45;&gt;SACBootstrap4DateTimeModule -->
<g id="edge1" class="edge">
<title>SacDateComponent&#45;&gt;SACBootstrap4DateTimeModule</title>
<path fill="none" stroke="black" d="M1568,-233.7C1568,-252.93 1568,-280.59 1568,-280.59 1568,-280.59 824.4,-280.59 824.4,-280.59"/>
<polygon fill="black" stroke="black" points="824.4,-277.09 814.4,-280.59 824.4,-284.09 824.4,-277.09"/>
</g>
<!-- SacDateSelectorComponent -->
<g id="node2" class="node">
<title>SacDateSelectorComponent</title>
<polygon fill="#ffffb3" stroke="black" points="1144.84,-233.59 971.16,-233.59 971.16,-197.59 1144.84,-197.59 1144.84,-233.59"/>
<text text-anchor="middle" x="1058" y="-211.39" font-family="Times,serif" font-size="14.00">SacDateSelectorComponent</text>
</g>
<!-- SacDateSelectorComponent&#45;&gt;SACBootstrap4DateTimeModule -->
<g id="edge4" class="edge">
<title>SacDateSelectorComponent&#45;&gt;SACBootstrap4DateTimeModule</title>
<path fill="none" stroke="black" d="M1007.41,-233.62C1007.41,-249.99 1007.41,-271.59 1007.41,-271.59 1007.41,-271.59 824.49,-271.59 824.49,-271.59"/>
<polygon fill="black" stroke="black" points="824.49,-268.09 814.49,-271.59 824.49,-275.09 824.49,-268.09"/>
</g>
<!-- SacDateTimeComponent -->
<g id="node3" class="node">
<title>SacDateTimeComponent</title>
<polygon fill="#ffffb3" stroke="black" points="952.52,-233.59 795.48,-233.59 795.48,-197.59 952.52,-197.59 952.52,-233.59"/>
<text text-anchor="middle" x="874" y="-211.39" font-family="Times,serif" font-size="14.00">SacDateTimeComponent</text>
</g>
<!-- SacDateTimeComponent&#45;&gt;SACBootstrap4DateTimeModule -->
<g id="edge5" class="edge">
<title>SacDateTimeComponent&#45;&gt;SACBootstrap4DateTimeModule</title>
<path fill="none" stroke="black" d="M804.67,-233.7C804.67,-233.7 804.67,-252.58 804.67,-252.58"/>
<polygon fill="black" stroke="black" points="801.17,-252.58 804.67,-262.58 808.17,-252.58 801.17,-252.58"/>
</g>
<!-- SacTimeComponent -->
<g id="node4" class="node">
<title>SacTimeComponent</title>
<polygon fill="#ffffb3" stroke="black" points="777.59,-233.59 646.41,-233.59 646.41,-197.59 777.59,-197.59 777.59,-233.59"/>
<text text-anchor="middle" x="712" y="-211.39" font-family="Times,serif" font-size="14.00">SacTimeComponent</text>
</g>
<!-- SacTimeComponent&#45;&gt;SACBootstrap4DateTimeModule -->
<g id="edge6" class="edge">
<title>SacTimeComponent&#45;&gt;SACBootstrap4DateTimeModule</title>
<path fill="none" stroke="black" d="M712,-233.7C712,-233.7 712,-252.58 712,-252.58"/>
<polygon fill="black" stroke="black" points="708.5,-252.58 712,-262.58 715.5,-252.58 708.5,-252.58"/>
</g>
<!-- SacDateComponent  -->
<g id="node11" class="node">
<title>SacDateComponent </title>
<polygon fill="#fb8072" stroke="black" points="1043.97,-363.59 912.03,-363.59 912.03,-327.59 1043.97,-327.59 1043.97,-363.59"/>
<text text-anchor="middle" x="978" y="-341.39" font-family="Times,serif" font-size="14.00">SacDateComponent </text>
</g>
<!-- SACBootstrap4DateTimeModule&#45;&gt;SacDateComponent  -->
<g id="edge10" class="edge">
<title>SACBootstrap4DateTimeModule&#45;&gt;SacDateComponent </title>
<path fill="none" stroke="black" stroke-dasharray="5,2" d="M814.19,-289.59C871.87,-289.59 932.51,-289.59 932.51,-289.59 932.51,-289.59 932.51,-317.56 932.51,-317.56"/>
<polygon fill="black" stroke="black" points="929.01,-317.56 932.51,-327.56 936.01,-317.56 929.01,-317.56"/>
</g>
<!-- SacDateSelectorComponent  -->
<g id="node12" class="node">
<title>SacDateSelectorComponent </title>
<polygon fill="#fb8072" stroke="black" points="894.84,-363.59 717.16,-363.59 717.16,-327.59 894.84,-327.59 894.84,-363.59"/>
<text text-anchor="middle" x="806" y="-341.39" font-family="Times,serif" font-size="14.00">SacDateSelectorComponent </text>
</g>
<!-- SACBootstrap4DateTimeModule&#45;&gt;SacDateSelectorComponent  -->
<g id="edge11" class="edge">
<title>SACBootstrap4DateTimeModule&#45;&gt;SacDateSelectorComponent </title>
<path fill="none" stroke="black" stroke-dasharray="5,2" d="M765.71,-298.7C765.71,-298.7 765.71,-317.58 765.71,-317.58"/>
<polygon fill="black" stroke="black" points="762.21,-317.58 765.71,-327.58 769.21,-317.58 762.21,-317.58"/>
</g>
<!-- SacDateTimeComponent  -->
<g id="node13" class="node">
<title>SacDateTimeComponent </title>
<polygon fill="#fb8072" stroke="black" points="699.52,-363.59 538.48,-363.59 538.48,-327.59 699.52,-327.59 699.52,-363.59"/>
<text text-anchor="middle" x="619" y="-341.39" font-family="Times,serif" font-size="14.00">SacDateTimeComponent </text>
</g>
<!-- SACBootstrap4DateTimeModule&#45;&gt;SacDateTimeComponent  -->
<g id="edge12" class="edge">
<title>SACBootstrap4DateTimeModule&#45;&gt;SacDateTimeComponent </title>
<path fill="none" stroke="black" stroke-dasharray="5,2" d="M654.71,-298.7C654.71,-298.7 654.71,-317.58 654.71,-317.58"/>
<polygon fill="black" stroke="black" points="651.21,-317.58 654.71,-327.58 658.21,-317.58 651.21,-317.58"/>
</g>
<!-- SacTimeComponent  -->
<g id="node14" class="node">
<title>SacTimeComponent </title>
<polygon fill="#fb8072" stroke="black" points="520.09,-363.59 385.91,-363.59 385.91,-327.59 520.09,-327.59 520.09,-363.59"/>
<text text-anchor="middle" x="453" y="-341.39" font-family="Times,serif" font-size="14.00">SacTimeComponent </text>
</g>
<!-- SACBootstrap4DateTimeModule&#45;&gt;SacTimeComponent  -->
<g id="edge13" class="edge">
<title>SACBootstrap4DateTimeModule&#45;&gt;SacTimeComponent </title>
<path fill="none" stroke="black" stroke-dasharray="5,2" d="M609.69,-289.59C546.41,-289.59 477.18,-289.59 477.18,-289.59 477.18,-289.59 477.18,-317.56 477.18,-317.56"/>
<polygon fill="black" stroke="black" points="473.68,-317.56 477.18,-327.56 480.68,-317.56 473.68,-317.56"/>
</g>
<!-- {
 &#160;&#160;&#160;provide: NG_VALUE_ACCESSOR, multi: true, useExisting: forwardRef(() =&gt; SacDateComponent),
} -->
<g id="node6" class="node">
<title>{
 &#160;&#160;&#160;provide: NG_VALUE_ACCESSOR, multi: true, useExisting: forwardRef(() =&gt; SacDateComponent),
}</title>
<ellipse fill="#fdb462" stroke="black" cx="2410" cy="-127.3" rx="424.93" ry="41.09"/>
<text text-anchor="middle" x="2410" y="-139.9" font-family="Times,serif" font-size="14.00">{</text>
<text text-anchor="middle" x="2410" y="-123.1" font-family="Times,serif" font-size="14.00"> &#160;&#160;&#160;provide: NG_VALUE_ACCESSOR, multi: true, useExisting: forwardRef(() =&gt; SacDateComponent),</text>
<text text-anchor="middle" x="2410" y="-106.3" font-family="Times,serif" font-size="14.00">}</text>
</g>
<!-- {
 &#160;&#160;&#160;provide: NG_VALUE_ACCESSOR, multi: true, useExisting: forwardRef(() =&gt; SacDateComponent),
}&#45;&gt;SacDateComponent -->
<g id="edge2" class="edge">
<title>{
 &#160;&#160;&#160;provide: NG_VALUE_ACCESSOR, multi: true, useExisting: forwardRef(() =&gt; SacDateComponent),
}&#45;&gt;SacDateComponent</title>
<path fill="none" stroke="black" d="M2410,-168.6C2410,-191.58 2410,-215.59 2410,-215.59 2410,-215.59 1641.98,-215.59 1641.98,-215.59"/>
<polygon fill="black" stroke="black" points="1641.98,-212.09 1631.98,-215.59 1641.98,-219.09 1641.98,-212.09"/>
</g>
<!-- {
 &#160;&#160;&#160;provide: NG_VALIDATORS, multi: true, useExisting: forwardRef(() =&gt; SacDateComponent),
} -->
<g id="node7" class="node">
<title>{
 &#160;&#160;&#160;provide: NG_VALIDATORS, multi: true, useExisting: forwardRef(() =&gt; SacDateComponent),
}</title>
<ellipse fill="#fdb462" stroke="black" cx="1568" cy="-127.3" rx="398.61" ry="41.09"/>
<text text-anchor="middle" x="1568" y="-139.9" font-family="Times,serif" font-size="14.00">{</text>
<text text-anchor="middle" x="1568" y="-123.1" font-family="Times,serif" font-size="14.00"> &#160;&#160;&#160;provide: NG_VALIDATORS, multi: true, useExisting: forwardRef(() =&gt; SacDateComponent),</text>
<text text-anchor="middle" x="1568" y="-106.3" font-family="Times,serif" font-size="14.00">}</text>
</g>
<!-- {
 &#160;&#160;&#160;provide: NG_VALIDATORS, multi: true, useExisting: forwardRef(() =&gt; SacDateComponent),
}&#45;&gt;SacDateComponent -->
<g id="edge3" class="edge">
<title>{
 &#160;&#160;&#160;provide: NG_VALIDATORS, multi: true, useExisting: forwardRef(() =&gt; SacDateComponent),
}&#45;&gt;SacDateComponent</title>
<path fill="none" stroke="black" d="M1568,-168.6C1568,-168.6 1568,-187.26 1568,-187.26"/>
<polygon fill="black" stroke="black" points="1564.5,-187.26 1568,-197.26 1571.5,-187.26 1564.5,-187.26"/>
</g>
<!-- SACBootstrap4LayoutModule -->
<g id="node8" class="node">
<title>SACBootstrap4LayoutModule</title>
<polygon fill="#8dd3c7" stroke="black" points="621.87,-233.59 618.87,-237.59 597.87,-237.59 594.87,-233.59 434.13,-233.59 434.13,-197.59 621.87,-197.59 621.87,-233.59"/>
<text text-anchor="middle" x="528" y="-211.39" font-family="Times,serif" font-size="14.00">SACBootstrap4LayoutModule</text>
</g>
<!-- SACBootstrap4LayoutModule&#45;&gt;SACBootstrap4DateTimeModule -->
<g id="edge7" class="edge">
<title>SACBootstrap4LayoutModule&#45;&gt;SACBootstrap4DateTimeModule</title>
<path fill="none" stroke="black" d="M615.92,-233.7C615.92,-233.7 615.92,-252.58 615.92,-252.58"/>
<polygon fill="black" stroke="black" points="612.42,-252.58 615.92,-262.58 619.42,-252.58 612.42,-252.58"/>
</g>
<!-- SACBootstrap4TooltipModule -->
<g id="node9" class="node">
<title>SACBootstrap4TooltipModule</title>
<polygon fill="#8dd3c7" stroke="black" points="415.94,-233.59 412.94,-237.59 391.94,-237.59 388.94,-233.59 226.06,-233.59 226.06,-197.59 415.94,-197.59 415.94,-233.59"/>
<text text-anchor="middle" x="321" y="-211.39" font-family="Times,serif" font-size="14.00">SACBootstrap4TooltipModule</text>
</g>
<!-- SACBootstrap4TooltipModule&#45;&gt;SACBootstrap4DateTimeModule -->
<g id="edge8" class="edge">
<title>SACBootstrap4TooltipModule&#45;&gt;SACBootstrap4DateTimeModule</title>
<path fill="none" stroke="black" d="M400.71,-233.62C400.71,-249.99 400.71,-271.59 400.71,-271.59 400.71,-271.59 599.64,-271.59 599.64,-271.59"/>
<polygon fill="black" stroke="black" points="599.64,-275.09 609.64,-271.59 599.64,-268.09 599.64,-275.09"/>
</g>
<!-- SACCommonUtliltiesModule -->
<g id="node10" class="node">
<title>SACCommonUtliltiesModule</title>
<polygon fill="#8dd3c7" stroke="black" points="208,-233.59 205,-237.59 184,-237.59 181,-233.59 24,-233.59 24,-197.59 208,-197.59 208,-233.59"/>
<text text-anchor="middle" x="116" y="-211.39" font-family="Times,serif" font-size="14.00">SACCommonUtliltiesModule</text>
</g>
<!-- SACCommonUtliltiesModule&#45;&gt;SACBootstrap4DateTimeModule -->
<g id="edge9" class="edge">
<title>SACCommonUtliltiesModule&#45;&gt;SACBootstrap4DateTimeModule</title>
<path fill="none" stroke="black" d="M116,-233.7C116,-252.93 116,-280.59 116,-280.59 116,-280.59 599.88,-280.59 599.88,-280.59"/>
<polygon fill="black" stroke="black" points="599.88,-284.09 609.88,-280.59 599.88,-277.09 599.88,-284.09"/>
</g>
</g>
</svg>
